<?xml version="1.0" encoding="UTF-8"?>
<svg version="1.1" xmlns="http://www.w3.org/2000/svg" width="512" height="512">
<path d="M0 0 C1.19529658 -0.11452495 1.19529658 -0.11452495 2.41474056 -0.23136353 C5.09869565 -0.48442294 7.78330542 -0.72905336 10.46826172 -0.97125244 C11.40880339 -1.05671452 12.34934505 -1.14217659 13.31838799 -1.23022842 C32.28432615 -2.93046948 51.26785634 -3.9709062 70.29069519 -4.78576279 C82.35892495 -5.31680946 94.34551781 -6.03651583 106.36230469 -7.28668213 C159.68082833 -12.70178336 204.78180452 -6.59638312 247.24449819 27.35824394 C286.88429142 59.68902366 315.1526483 97.46163241 320.72558594 149.24945068 C324.81444016 189.53502611 322.63572147 230.26980527 320.2060715 270.5896914 C319.36303061 284.749738 318.81408541 298.90074798 318.45239258 313.08099365 C318.42654278 314.09138587 318.40069298 315.10177809 318.37405985 316.14278826 C318.24556473 321.21735519 318.1212894 326.29201628 317.99847972 331.36672354 C317.24855464 362.0295594 316.19855449 392.67499056 314.55205834 423.30335402 C314.4263096 425.68262706 314.30714395 428.06214557 314.18980408 430.44184685 C314.00758169 434.11155305 313.80658992 437.77973376 313.58978374 441.44755545 C313.47804955 443.39813843 313.38277216 445.34964269 313.28811878 447.3011291 C312.77641017 455.35312053 311.81304292 460.55920854 305.71044922 466.215271 C302.08598294 468.63158185 299.36613515 468.966319 295.11320877 468.97449207 C294.03866668 468.97894992 292.96412459 468.98340776 291.85702062 468.98800069 C290.6721219 468.98781633 289.48722319 468.98763197 288.26641846 468.98744202 C287.01106002 468.9911187 285.75570158 468.99479539 284.46230197 468.9985835 C280.97090798 469.00860667 277.47953119 469.01232079 273.98812485 469.01497281 C270.22521992 469.01887488 266.46232861 469.02845325 262.69943237 469.03718567 C253.60899105 469.05695214 244.51854861 469.06701623 235.42809117 469.07591346 C231.14833639 469.0802958 226.86858284 469.08566272 222.58882904 469.09090233 C208.36408876 469.1079143 194.13934926 469.12240904 179.91460037 469.12965107 C176.22285206 469.13156099 172.53110376 469.13348132 168.83935547 469.13543701 C167.9217788 469.13592075 167.00420212 469.13640449 166.0588201 469.13690289 C151.19069043 469.14520533 136.32264115 469.170546 121.4545466 469.20301769 C106.19359873 469.23607597 90.93269174 469.25409869 75.67170787 469.25729531 C67.10165722 469.25946148 58.53172384 469.2682258 49.96170807 469.29375648 C42.66397418 469.31544663 35.36638604 469.32352222 28.06862357 469.3137897 C24.34518163 469.30924015 20.62204051 469.3111689 16.89863968 469.33055115 C12.86135222 469.35138585 8.824734 469.34121331 4.78741455 469.32801819 C3.61143872 469.33898743 2.4354629 469.34995668 1.22385144 469.36125833 C-5.32658684 469.30945187 -9.41854262 468.78453603 -14.72705078 464.840271 C-19.27990728 459.92797846 -19.85205784 456.46931548 -19.84057617 449.89031982 C-19.8407222 449.18762466 -19.84086823 448.4849295 -19.84101868 447.76094055 C-19.84032235 445.43969632 -19.83254304 443.11853245 -19.82470703 440.79730225 C-19.82284186 439.1873326 -19.82141842 437.57736238 -19.82041931 435.96739197 C-19.81660196 431.73084953 -19.80677833 427.49434139 -19.79571533 423.2578125 C-19.78548442 418.93439193 -19.78091809 414.61096581 -19.77587891 410.28753662 C-19.76515537 401.80509901 -19.74808831 393.32268927 -19.72705078 384.840271 C-20.90211182 384.86121826 -22.07717285 384.88216553 -23.2878418 384.90374756 C-27.66922707 384.97643377 -32.05055958 385.0221744 -36.43237305 385.05999756 C-38.32471698 385.08004803 -40.21699946 385.10729577 -42.10913086 385.14202881 C-44.83739429 385.19083752 -47.56483493 385.21330541 -50.29345703 385.230896 C-51.55169029 385.26186371 -51.55169029 385.26186371 -52.83534241 385.29345703 C-58.64286336 385.29564944 -61.94798776 384.17710899 -66.72705078 380.840271 C-70.70252432 376.55094429 -71.8477579 373.43909191 -71.8742218 367.66723633 C-71.88137711 366.59621674 -71.88853241 365.52519714 -71.89590454 364.42172241 C-71.89859344 363.24661102 -71.90128235 362.07149963 -71.90405273 360.86077881 C-71.91062393 359.62312775 -71.91719513 358.38547668 -71.92396545 357.11032104 C-71.94371527 353.00467691 -71.95536651 348.89907186 -71.96533203 344.793396 C-71.96938044 343.37856782 -71.97349739 341.96373983 -71.97768211 340.54891205 C-71.99673009 333.90087469 -72.01096148 327.25284841 -72.01929408 320.60478902 C-72.029063 312.93791008 -72.05537484 305.27132011 -72.09579498 297.60454297 C-72.12598511 291.67405877 -72.14076572 285.74365726 -72.1440751 279.81309772 C-72.14642246 276.27318923 -72.15534131 272.73358959 -72.18053627 269.19376373 C-72.20821231 265.24152954 -72.20397694 261.28967355 -72.19702148 257.33734131 C-72.20983154 256.17032684 -72.2226416 255.00331238 -72.23583984 253.80093384 C-72.19377134 247.24392077 -71.67544606 243.1535817 -67.72705078 237.840271 C-63.88810331 234.28222212 -60.94351858 232.71025059 -55.71459961 232.72674561 C-54.91399612 232.72682114 -54.11339264 232.72689667 -53.28852844 232.72697449 C-51.99932747 232.73471642 -51.99932747 232.73471642 -50.68408203 232.74261475 C-49.80048508 232.74402969 -48.91688812 232.74544464 -48.0065155 232.74690247 C-45.1841595 232.75250031 -42.36188281 232.76505238 -39.53955078 232.777771 C-37.62614047 232.78278628 -35.71272891 232.78734913 -33.79931641 232.79144287 C-29.10853064 232.80246903 -24.41780416 232.81973216 -19.72705078 232.840271 C-19.73073795 231.71290244 -19.73442513 230.58553389 -19.73822403 229.42400265 C-19.8270017 201.99924733 -19.89274405 174.57451063 -19.93429947 147.14964199 C-19.95492923 133.88720532 -19.98305792 120.62486355 -20.02880859 107.36248779 C-20.06866347 95.80370475 -20.09448058 84.24499044 -20.10340476 72.6861406 C-20.10862174 66.56516867 -20.12089252 60.44439336 -20.14997101 54.32348442 C-20.17711854 48.56236381 -20.18549699 42.80152083 -20.17948151 37.04034233 C-20.18058203 34.92597953 -20.18853965 32.81160745 -20.20387268 30.69729996 C-20.2237899 27.80922705 -20.21898333 24.92220079 -20.20806885 22.03410339 C-20.21972021 21.19848466 -20.23137158 20.36286592 -20.24337602 19.50192541 C-20.18530352 13.8123276 -18.97921122 10.53329016 -15.72705078 5.840271 C-10.80320526 1.27670685 -6.48200693 0.60802087 0 0 Z " fill="#4CC342" transform="translate(109.72705078125,21.15972900390625)"/>
<path d="M0 0 C1.19529658 -0.11452495 1.19529658 -0.11452495 2.41474056 -0.23136353 C5.09869565 -0.48442294 7.78330542 -0.72905336 10.46826172 -0.97125244 C11.40880339 -1.05671452 12.34934505 -1.14217659 13.31838799 -1.23022842 C32.28432615 -2.93046948 51.26785634 -3.9709062 70.29069519 -4.78576279 C82.35892495 -5.31680946 94.34551781 -6.03651583 106.36230469 -7.28668213 C159.68082833 -12.70178336 204.78180452 -6.59638312 247.24449819 27.35824394 C286.88429142 59.68902366 315.1526483 97.46163241 320.72558594 149.24945068 C324.81444016 189.53502611 322.63572147 230.26980527 320.2060715 270.5896914 C319.36303061 284.749738 318.81408541 298.90074798 318.45239258 313.08099365 C318.42654278 314.09138587 318.40069298 315.10177809 318.37405985 316.14278826 C318.24556473 321.21735519 318.1212894 326.29201628 317.99847972 331.36672354 C317.24855464 362.0295594 316.19855449 392.67499056 314.55205834 423.30335402 C314.4263096 425.68262706 314.30714395 428.06214557 314.18980408 430.44184685 C314.00758169 434.11155305 313.80658992 437.77973376 313.58978374 441.44755545 C313.47804955 443.39813843 313.38277216 445.34964269 313.28811878 447.3011291 C312.77641017 455.35312053 311.81304292 460.55920854 305.71044922 466.215271 C302.08598294 468.63158185 299.36613515 468.966319 295.11320877 468.97449207 C294.03866668 468.97894992 292.96412459 468.98340776 291.85702062 468.98800069 C290.6721219 468.98781633 289.48722319 468.98763197 288.26641846 468.98744202 C287.01106002 468.9911187 285.75570158 468.99479539 284.46230197 468.9985835 C280.97090798 469.00860667 277.47953119 469.01232079 273.98812485 469.01497281 C270.22521992 469.01887488 266.46232861 469.02845325 262.69943237 469.03718567 C253.60899105 469.05695214 244.51854861 469.06701623 235.42809117 469.07591346 C231.14833639 469.0802958 226.86858284 469.08566272 222.58882904 469.09090233 C208.36408876 469.1079143 194.13934926 469.12240904 179.91460037 469.12965107 C176.22285206 469.13156099 172.53110376 469.13348132 168.83935547 469.13543701 C167.9217788 469.13592075 167.00420212 469.13640449 166.0588201 469.13690289 C151.19069043 469.14520533 136.32264115 469.170546 121.4545466 469.20301769 C106.19359873 469.23607597 90.93269174 469.25409869 75.67170787 469.25729531 C67.10165722 469.25946148 58.53172384 469.2682258 49.96170807 469.29375648 C42.66397418 469.31544663 35.36638604 469.32352222 28.06862357 469.3137897 C24.34518163 469.30924015 20.62204051 469.3111689 16.89863968 469.33055115 C12.86135222 469.35138585 8.824734 469.34121331 4.78741455 469.32801819 C3.61143872 469.33898743 2.4354629 469.34995668 1.22385144 469.36125833 C-5.32658684 469.30945187 -9.41854262 468.78453603 -14.72705078 464.840271 C-19.27990728 459.92797846 -19.85205784 456.46931548 -19.84057617 449.89031982 C-19.8407222 449.18762466 -19.84086823 448.4849295 -19.84101868 447.76094055 C-19.84032235 445.43969632 -19.83254304 443.11853245 -19.82470703 440.79730225 C-19.82284186 439.1873326 -19.82141842 437.57736238 -19.82041931 435.96739197 C-19.81660196 431.73084953 -19.80677833 427.49434139 -19.79571533 423.2578125 C-19.78548442 418.93439193 -19.78091809 414.61096581 -19.77587891 410.28753662 C-19.76515537 401.80509901 -19.74808831 393.32268927 -19.72705078 384.840271 C-20.90211182 384.86121826 -22.07717285 384.88216553 -23.2878418 384.90374756 C-27.66922707 384.97643377 -32.05055958 385.0221744 -36.43237305 385.05999756 C-38.32471698 385.08004803 -40.21699946 385.10729577 -42.10913086 385.14202881 C-44.83739429 385.19083752 -47.56483493 385.21330541 -50.29345703 385.230896 C-51.55169029 385.26186371 -51.55169029 385.26186371 -52.83534241 385.29345703 C-58.64286336 385.29564944 -61.94798776 384.17710899 -66.72705078 380.840271 C-70.70252432 376.55094429 -71.8477579 373.43909191 -71.8742218 367.66723633 C-71.88137711 366.59621674 -71.88853241 365.52519714 -71.89590454 364.42172241 C-71.89859344 363.24661102 -71.90128235 362.07149963 -71.90405273 360.86077881 C-71.91062393 359.62312775 -71.91719513 358.38547668 -71.92396545 357.11032104 C-71.94371527 353.00467691 -71.95536651 348.89907186 -71.96533203 344.793396 C-71.96938044 343.37856782 -71.97349739 341.96373983 -71.97768211 340.54891205 C-71.99673009 333.90087469 -72.01096148 327.25284841 -72.01929408 320.60478902 C-72.029063 312.93791008 -72.05537484 305.27132011 -72.09579498 297.60454297 C-72.12598511 291.67405877 -72.14076572 285.74365726 -72.1440751 279.81309772 C-72.14642246 276.27318923 -72.15534131 272.73358959 -72.18053627 269.19376373 C-72.20821231 265.24152954 -72.20397694 261.28967355 -72.19702148 257.33734131 C-72.20983154 256.17032684 -72.2226416 255.00331238 -72.23583984 253.80093384 C-72.19377134 247.24392077 -71.67544606 243.1535817 -67.72705078 237.840271 C-63.88810331 234.28222212 -60.94351858 232.71025059 -55.71459961 232.72674561 C-54.91399612 232.72682114 -54.11339264 232.72689667 -53.28852844 232.72697449 C-51.99932747 232.73471642 -51.99932747 232.73471642 -50.68408203 232.74261475 C-49.80048508 232.74402969 -48.91688812 232.74544464 -48.0065155 232.74690247 C-45.1841595 232.75250031 -42.36188281 232.76505238 -39.53955078 232.777771 C-37.62614047 232.78278628 -35.71272891 232.78734913 -33.79931641 232.79144287 C-29.10853064 232.80246903 -24.41780416 232.81973216 -19.72705078 232.840271 C-19.73073795 231.71290244 -19.73442513 230.58553389 -19.73822403 229.42400265 C-19.8270017 201.99924733 -19.89274405 174.57451063 -19.93429947 147.14964199 C-19.95492923 133.88720532 -19.98305792 120.62486355 -20.02880859 107.36248779 C-20.06866347 95.80370475 -20.09448058 84.24499044 -20.10340476 72.6861406 C-20.10862174 66.56516867 -20.12089252 60.44439336 -20.14997101 54.32348442 C-20.17711854 48.56236381 -20.18549699 42.80152083 -20.17948151 37.04034233 C-20.18058203 34.92597953 -20.18853965 32.81160745 -20.20387268 30.69729996 C-20.2237899 27.80922705 -20.21898333 24.92220079 -20.20806885 22.03410339 C-20.21972021 21.19848466 -20.23137158 20.36286592 -20.24337602 19.50192541 C-20.18530352 13.8123276 -18.97921122 10.53329016 -15.72705078 5.840271 C-10.80320526 1.27670685 -6.48200693 0.60802087 0 0 Z M-14.07198715 11.52791786 C-16.2129727 15.81276834 -16.27428718 19.11651277 -16.20806885 23.83792114 C-16.21148655 24.73326211 -16.21490425 25.62860307 -16.21842551 26.55107558 C-16.22500402 29.54542544 -16.2030286 32.53887508 -16.18115234 35.53314209 C-16.18002386 37.68178283 -16.18065774 39.8304251 -16.18292236 41.97906494 C-16.1840704 47.80923735 -16.16054623 53.63908083 -16.13262653 59.46917677 C-16.10762802 65.56304223 -16.10527209 71.65691515 -16.1005249 77.75082397 C-16.08809061 89.28921906 -16.0552627 100.82746261 -16.01512694 112.36579096 C-15.97042349 125.50229725 -15.94842575 138.63881076 -15.9283452 151.77537417 C-15.8865306 178.79709047 -15.81616957 205.81867224 -15.72705078 232.840271 C-15.17570449 232.84086808 -14.62435821 232.84146517 -14.05630445 232.84208035 C18.62792339 232.87798177 51.31204174 232.93463215 83.9961814 233.01819195 C87.92144478 233.02820929 91.84670857 233.03805344 95.77197266 233.04779053 C96.55341524 233.0497319 97.33485783 233.05167327 98.13998049 233.05367348 C110.78956401 233.08468648 123.43912938 233.10167217 136.08874375 233.11346522 C149.07041656 233.12588041 162.05199425 233.15339011 175.03360701 233.19488406 C183.0426516 233.22000898 191.05153842 233.23338902 199.06062299 233.23170057 C205.20415373 233.23166727 211.34745012 233.2526449 217.49090958 233.28143883 C220.00957494 233.28995969 222.52827393 233.291673 225.04694748 233.28607368 C228.4864437 233.27944561 231.92498027 233.29732772 235.36437988 233.32128906 C236.85856847 233.30964844 236.85856847 233.30964844 238.38294268 233.29777265 C245.39879768 233.38426471 250.87124208 234.70121361 256.12576199 239.55002594 C259.89029297 245.57961222 259.97645206 251.11445905 259.90405273 258.09613037 C259.91478569 259.90740166 259.91478569 259.90740166 259.92573547 261.75526428 C259.9396887 265.04690711 259.93137404 268.33752149 259.91164517 271.62910652 C259.89517629 275.0860185 259.90408296 278.5428821 259.90916443 281.99981689 C259.91367627 287.80337459 259.89787254 293.60660904 259.86987305 299.41009521 C259.83782493 306.10403417 259.83783966 312.79739036 259.85508782 319.49137068 C259.87099383 325.950991 259.86419332 332.41039924 259.8471508 338.87001038 C259.84030772 341.60988568 259.84128428 344.34958956 259.84869576 347.08946228 C259.85415816 350.92147672 259.83373697 354.75250912 259.80639648 358.58441162 C259.8161853 360.27567924 259.8161853 360.27567924 259.82617188 362.00111389 C259.74900026 368.37649072 259.15919563 373.60229019 255.27294922 378.840271 C250.892744 382.32655678 247.37826116 383.96032012 241.81205463 383.9789362 C240.89343185 383.98441064 239.97480906 383.98988508 239.02834922 383.99552542 C237.51231433 383.99699258 237.51231433 383.99699258 235.96565247 383.99848938 C234.89319847 384.00342736 233.82074448 384.00836533 232.71579188 384.01345295 C229.10439346 384.02887158 225.49301288 384.03720039 221.8815918 384.04559326 C219.29989972 384.05516835 216.71820922 384.06517821 214.13652039 384.07559204 C208.56916358 384.09736029 203.00180438 384.1155035 197.43442726 384.13119698 C189.38489749 384.15389243 181.33539405 384.18203571 173.28588661 384.21151625 C160.22665413 384.25919614 147.16741088 384.30245925 134.1081543 384.34295654 C121.4209713 384.38230945 108.73379786 384.42373518 96.04663086 384.46795654 C94.87392385 384.47204295 94.87392385 384.47204295 93.6775258 384.47621191 C89.75551091 384.48989136 85.83349617 384.50361164 81.9114815 384.51735222 C49.3653238 384.63132324 16.81914623 384.73813121 -15.72705078 384.840271 C-15.81985298 393.86344378 -15.89086728 402.88645152 -15.93429947 411.90999794 C-15.95514796 416.10030638 -15.98341494 420.29028759 -16.02880859 424.48040771 C-16.07236498 428.52639341 -16.09620848 432.57206495 -16.10655975 436.61826706 C-16.11393364 438.15962035 -16.12833335 439.70095701 -16.14997101 441.24217606 C-16.17913689 443.40627036 -16.18300154 445.56907725 -16.18115234 447.7333374 C-16.19003479 448.96355621 -16.19891724 450.19377502 -16.20806885 451.46127319 C-15.45481494 456.75264057 -13.06004638 459.58387376 -9.24093628 463.18352509 C-4.02194576 465.64420321 0.79226088 465.39202446 6.49511719 465.34820557 C8.3585568 465.35756551 8.3585568 465.35756551 10.25964165 465.36711454 C13.70088951 465.3803002 17.14126298 465.37556723 20.58245754 465.36316967 C24.29623344 465.35411688 28.00993311 465.36809001 31.72369385 465.37908936 C38.99611564 465.39687678 46.26837231 465.39303364 53.54080057 465.38143879 C59.45118471 465.37240561 65.36152256 465.37117997 71.27191162 465.37553406 C72.11307616 465.37614699 72.9542407 465.37675992 73.82089508 465.37739143 C75.5296995 465.37867033 77.23850391 465.37996718 78.9473083 465.38128179 C94.97115706 465.39268824 110.99491429 465.37957288 127.01874804 465.35808033 C140.76824115 465.34020928 154.51759918 465.34331337 168.26708984 465.36175537 C184.23355649 465.38316094 200.1999429 465.3915896 216.16642189 465.37930632 C217.86894352 465.37803212 219.57146516 465.37677464 221.27398682 465.37553406 C222.11166214 465.37491696 222.94933746 465.37429985 223.81239688 465.37366405 C229.71575081 465.37021021 235.61905386 465.37604023 241.5223999 465.38545227 C248.71654368 465.39667016 255.91051289 465.3936367 263.10463667 465.37232929 C266.7753024 465.36181594 270.44567705 465.35770164 274.11634064 465.3709259 C278.09465216 465.38504178 282.07248692 465.3681883 286.05078125 465.34820557 C287.21205976 465.35712845 288.37333828 465.36605134 289.56980705 465.37524462 C295.59954263 465.31630889 299.67689731 465.17221847 304.27294922 460.840271 C309.75923679 455.24053346 308.81922077 448.48983144 308.75396729 441.13510132 C308.75571223 439.71923813 308.75921575 438.3033762 308.76432395 436.88752115 C308.77326291 433.00157313 308.75727546 429.11606656 308.7372117 425.23017478 C308.7199354 421.03801228 308.72578353 416.84587461 308.7288208 412.65368652 C308.73091805 405.39202605 308.71836969 398.13050935 308.69586945 390.86888504 C308.66335914 380.36982408 308.65294342 369.87083264 308.64791748 359.3717268 C308.63916331 342.33760186 308.6125444 325.30355355 308.57470703 308.26947021 C308.53799011 291.72259911 308.50967678 275.17574883 308.49267578 258.62884521 C308.49109944 257.09888099 308.49109944 257.09888099 308.48949125 255.53800841 C308.4842711 250.42107998 308.47921627 245.3041514 308.47424364 240.18722272 C308.4327778 197.73818574 308.36232602 155.28923232 308.27294922 112.840271 C307.48527161 112.83440475 306.69759399 112.82853851 305.88604736 112.82249451 C298.41377851 112.76426563 290.9418317 112.69202019 283.46985245 112.60455608 C279.62966312 112.56008455 275.78957423 112.52077954 271.94921875 112.49383545 C268.23370245 112.46756788 264.51857763 112.42700629 260.80330658 112.37708473 C259.39540274 112.3605727 257.98743143 112.348962 256.57944489 112.34265709 C238.98863999 112.25602065 226.45041047 108.39666089 213.53076172 96.246521 C202.76997848 84.77828142 200.67260574 70.26846773 200.66357422 55.13323975 C200.64855037 53.6720653 200.63181462 52.21090757 200.61346436 50.74977112 C200.57024895 46.95068472 200.54989522 43.1518271 200.534729 39.35253906 C200.51499019 35.45703858 200.47304071 31.56177939 200.43310547 27.66644287 C200.35830148 20.05778454 200.30771108 12.44922903 200.27294922 4.840271 C173.51754408 4.74686297 146.76216334 4.67630903 120.00662804 4.63302231 C107.58379035 4.61239004 95.16105394 4.58425658 82.73828125 4.53851318 C71.9116098 4.49866596 61.08501169 4.47284303 50.25826895 4.46391702 C44.52465019 4.45869873 38.79124124 4.44641975 33.05768967 4.41735077 C27.66181245 4.39021525 22.26623163 4.38182232 16.87029266 4.38784027 C14.88935104 4.38673921 12.90839958 4.37877436 10.92751694 4.3634491 C8.22299112 4.34355043 5.51958462 4.34833136 2.81503296 4.35925293 C1.63894551 4.34177588 1.63894551 4.34177588 0.43909872 4.32394576 C-6.2757133 4.397251 -9.73522721 6.55734408 -14.07198715 11.52791786 Z " fill="#2FA528" transform="translate(109.72705078125,21.15972900390625)"/>
<path d="M0 0 C1.19529658 -0.11452495 1.19529658 -0.11452495 2.41474056 -0.23136353 C5.09869565 -0.48442294 7.78330542 -0.72905336 10.46826172 -0.97125244 C11.40880339 -1.05671452 12.34934505 -1.14217659 13.31838799 -1.23022842 C32.28432615 -2.93046948 51.26785634 -3.9709062 70.29069519 -4.78576279 C82.35892495 -5.31680946 94.34551781 -6.03651583 106.36230469 -7.28668213 C159.68082833 -12.70178336 204.78180452 -6.59638312 247.24449819 27.35824394 C286.88429142 59.68902366 315.1526483 97.46163241 320.72558594 149.24945068 C324.81444016 189.53502611 322.63572147 230.26980527 320.2060715 270.5896914 C319.36303061 284.749738 318.81408541 298.90074798 318.45239258 313.08099365 C318.42654278 314.09138587 318.40069298 315.10177809 318.37405985 316.14278826 C318.24556473 321.21735519 318.1212894 326.29201628 317.99847972 331.36672354 C317.24855464 362.0295594 316.19855449 392.67499056 314.55205834 423.30335402 C314.4263096 425.68262706 314.30714395 428.06214557 314.18980408 430.44184685 C314.00758169 434.11155305 313.80658992 437.77973376 313.58978374 441.44755545 C313.47804955 443.39813843 313.38277216 445.34964269 313.28811878 447.3011291 C312.77641017 455.35312053 311.81304292 460.55920854 305.71044922 466.215271 C302.08598294 468.63158185 299.36613515 468.966319 295.11320877 468.97449207 C294.03866668 468.97894992 292.96412459 468.98340776 291.85702062 468.98800069 C290.6721219 468.98781633 289.48722319 468.98763197 288.26641846 468.98744202 C287.01106002 468.9911187 285.75570158 468.99479539 284.46230197 468.9985835 C280.97090798 469.00860667 277.47953119 469.01232079 273.98812485 469.01497281 C270.22521992 469.01887488 266.46232861 469.02845325 262.69943237 469.03718567 C253.60899105 469.05695214 244.51854861 469.06701623 235.42809117 469.07591346 C231.14833639 469.0802958 226.86858284 469.08566272 222.58882904 469.09090233 C208.36408876 469.1079143 194.13934926 469.12240904 179.91460037 469.12965107 C176.22285206 469.13156099 172.53110376 469.13348132 168.83935547 469.13543701 C167.9217788 469.13592075 167.00420212 469.13640449 166.0588201 469.13690289 C151.19069043 469.14520533 136.32264115 469.170546 121.4545466 469.20301769 C106.19359873 469.23607597 90.93269174 469.25409869 75.67170787 469.25729531 C67.10165722 469.25946148 58.53172384 469.2682258 49.96170807 469.29375648 C42.66397418 469.31544663 35.36638604 469.32352222 28.06862357 469.3137897 C24.34518163 469.30924015 20.62204051 469.3111689 16.89863968 469.33055115 C12.86135222 469.35138585 8.824734 469.34121331 4.78741455 469.32801819 C3.61143872 469.33898743 2.4354629 469.34995668 1.22385144 469.36125833 C-5.32658684 469.30945187 -9.41854262 468.78453603 -14.72705078 464.840271 C-19.27990728 459.92797846 -19.85205784 456.46931548 -19.84057617 449.89031982 C-19.8407222 449.18762466 -19.84086823 448.4849295 -19.84101868 447.76094055 C-19.84032235 445.43969632 -19.83254304 443.11853245 -19.82470703 440.79730225 C-19.82284186 439.1873326 -19.82141842 437.57736238 -19.82041931 435.96739197 C-19.81660196 431.73084953 -19.80677833 427.49434139 -19.79571533 423.2578125 C-19.78548442 418.93439193 -19.78091809 414.61096581 -19.77587891 410.28753662 C-19.76515537 401.80509901 -19.74808831 393.32268927 -19.72705078 384.840271 C-20.90211182 384.86121826 -22.07717285 384.88216553 -23.2878418 384.90374756 C-27.66922707 384.97643377 -32.05055958 385.0221744 -36.43237305 385.05999756 C-38.32471698 385.08004803 -40.21699946 385.10729577 -42.10913086 385.14202881 C-44.83739429 385.19083752 -47.56483493 385.21330541 -50.29345703 385.230896 C-51.55169029 385.26186371 -51.55169029 385.26186371 -52.83534241 385.29345703 C-58.64286336 385.29564944 -61.94798776 384.17710899 -66.72705078 380.840271 C-70.70252432 376.55094429 -71.8477579 373.43909191 -71.8742218 367.66723633 C-71.88137711 366.59621674 -71.88853241 365.52519714 -71.89590454 364.42172241 C-71.89859344 363.24661102 -71.90128235 362.07149963 -71.90405273 360.86077881 C-71.91062393 359.62312775 -71.91719513 358.38547668 -71.92396545 357.11032104 C-71.94371527 353.00467691 -71.95536651 348.89907186 -71.96533203 344.793396 C-71.96938044 343.37856782 -71.97349739 341.96373983 -71.97768211 340.54891205 C-71.99673009 333.90087469 -72.01096148 327.25284841 -72.01929408 320.60478902 C-72.029063 312.93791008 -72.05537484 305.27132011 -72.09579498 297.60454297 C-72.12598511 291.67405877 -72.14076572 285.74365726 -72.1440751 279.81309772 C-72.14642246 276.27318923 -72.15534131 272.73358959 -72.18053627 269.19376373 C-72.20821231 265.24152954 -72.20397694 261.28967355 -72.19702148 257.33734131 C-72.20983154 256.17032684 -72.2226416 255.00331238 -72.23583984 253.80093384 C-72.19377134 247.24392077 -71.67544606 243.1535817 -67.72705078 237.840271 C-63.88810331 234.28222212 -60.94351858 232.71025059 -55.71459961 232.72674561 C-54.91399612 232.72682114 -54.11339264 232.72689667 -53.28852844 232.72697449 C-51.99932747 232.73471642 -51.99932747 232.73471642 -50.68408203 232.74261475 C-49.80048508 232.74402969 -48.91688812 232.74544464 -48.0065155 232.74690247 C-45.1841595 232.75250031 -42.36188281 232.76505238 -39.53955078 232.777771 C-37.62614047 232.78278628 -35.71272891 232.78734913 -33.79931641 232.79144287 C-29.10853064 232.80246903 -24.41780416 232.81973216 -19.72705078 232.840271 C-19.73073795 231.71290244 -19.73442513 230.58553389 -19.73822403 229.42400265 C-19.8270017 201.99924733 -19.89274405 174.57451063 -19.93429947 147.14964199 C-19.95492923 133.88720532 -19.98305792 120.62486355 -20.02880859 107.36248779 C-20.06866347 95.80370475 -20.09448058 84.24499044 -20.10340476 72.6861406 C-20.10862174 66.56516867 -20.12089252 60.44439336 -20.14997101 54.32348442 C-20.17711854 48.56236381 -20.18549699 42.80152083 -20.17948151 37.04034233 C-20.18058203 34.92597953 -20.18853965 32.81160745 -20.20387268 30.69729996 C-20.2237899 27.80922705 -20.21898333 24.92220079 -20.20806885 22.03410339 C-20.21972021 21.19848466 -20.23137158 20.36286592 -20.24337602 19.50192541 C-20.18530352 13.8123276 -18.97921122 10.53329016 -15.72705078 5.840271 C-10.80320526 1.27670685 -6.48200693 0.60802087 0 0 Z M-14.07198715 11.52791786 C-16.2129727 15.81276834 -16.27428718 19.11651277 -16.20806885 23.83792114 C-16.21148655 24.73326211 -16.21490425 25.62860307 -16.21842551 26.55107558 C-16.22500402 29.54542544 -16.2030286 32.53887508 -16.18115234 35.53314209 C-16.18002386 37.68178283 -16.18065774 39.8304251 -16.18292236 41.97906494 C-16.1840704 47.80923735 -16.16054623 53.63908083 -16.13262653 59.46917677 C-16.10762802 65.56304223 -16.10527209 71.65691515 -16.1005249 77.75082397 C-16.08809061 89.28921906 -16.0552627 100.82746261 -16.01512694 112.36579096 C-15.97042349 125.50229725 -15.94842575 138.63881076 -15.9283452 151.77537417 C-15.8865306 178.79709047 -15.81616957 205.81867224 -15.72705078 232.840271 C-15.17570449 232.84086808 -14.62435821 232.84146517 -14.05630445 232.84208035 C18.62792339 232.87798177 51.31204174 232.93463215 83.9961814 233.01819195 C87.92144478 233.02820929 91.84670857 233.03805344 95.77197266 233.04779053 C96.55341524 233.0497319 97.33485783 233.05167327 98.13998049 233.05367348 C110.78956401 233.08468648 123.43912938 233.10167217 136.08874375 233.11346522 C149.07041656 233.12588041 162.05199425 233.15339011 175.03360701 233.19488406 C183.0426516 233.22000898 191.05153842 233.23338902 199.06062299 233.23170057 C205.20415373 233.23166727 211.34745012 233.2526449 217.49090958 233.28143883 C220.00957494 233.28995969 222.52827393 233.291673 225.04694748 233.28607368 C228.4864437 233.27944561 231.92498027 233.29732772 235.36437988 233.32128906 C236.85856847 233.30964844 236.85856847 233.30964844 238.38294268 233.29777265 C245.39879768 233.38426471 250.87124208 234.70121361 256.12576199 239.55002594 C259.89029297 245.57961222 259.97645206 251.11445905 259.90405273 258.09613037 C259.91478569 259.90740166 259.91478569 259.90740166 259.92573547 261.75526428 C259.9396887 265.04690711 259.93137404 268.33752149 259.91164517 271.62910652 C259.89517629 275.0860185 259.90408296 278.5428821 259.90916443 281.99981689 C259.91367627 287.80337459 259.89787254 293.60660904 259.86987305 299.41009521 C259.83782493 306.10403417 259.83783966 312.79739036 259.85508782 319.49137068 C259.87099383 325.950991 259.86419332 332.41039924 259.8471508 338.87001038 C259.84030772 341.60988568 259.84128428 344.34958956 259.84869576 347.08946228 C259.85415816 350.92147672 259.83373697 354.75250912 259.80639648 358.58441162 C259.8161853 360.27567924 259.8161853 360.27567924 259.82617188 362.00111389 C259.74900026 368.37649072 259.15919563 373.60229019 255.27294922 378.840271 C250.892744 382.32655678 247.37826116 383.96032012 241.81205463 383.9789362 C240.89343185 383.98441064 239.97480906 383.98988508 239.02834922 383.99552542 C237.51231433 383.99699258 237.51231433 383.99699258 235.96565247 383.99848938 C234.89319847 384.00342736 233.82074448 384.00836533 232.71579188 384.01345295 C229.10439346 384.02887158 225.49301288 384.03720039 221.8815918 384.04559326 C219.29989972 384.05516835 216.71820922 384.06517821 214.13652039 384.07559204 C208.56916358 384.09736029 203.00180438 384.1155035 197.43442726 384.13119698 C189.38489749 384.15389243 181.33539405 384.18203571 173.28588661 384.21151625 C160.22665413 384.25919614 147.16741088 384.30245925 134.1081543 384.34295654 C121.4209713 384.38230945 108.73379786 384.42373518 96.04663086 384.46795654 C94.87392385 384.47204295 94.87392385 384.47204295 93.6775258 384.47621191 C89.75551091 384.48989136 85.83349617 384.50361164 81.9114815 384.51735222 C49.3653238 384.63132324 16.81914623 384.73813121 -15.72705078 384.840271 C-15.81985298 393.86344378 -15.89086728 402.88645152 -15.93429947 411.90999794 C-15.95514796 416.10030638 -15.98341494 420.29028759 -16.02880859 424.48040771 C-16.07236498 428.52639341 -16.09620848 432.57206495 -16.10655975 436.61826706 C-16.11393364 438.15962035 -16.12833335 439.70095701 -16.14997101 441.24217606 C-16.17913689 443.40627036 -16.18300154 445.56907725 -16.18115234 447.7333374 C-16.19003479 448.96355621 -16.19891724 450.19377502 -16.20806885 451.46127319 C-15.45481494 456.75264057 -13.06004638 459.58387376 -9.24093628 463.18352509 C-4.02194576 465.64420321 0.79226088 465.39202446 6.49511719 465.34820557 C8.3585568 465.35756551 8.3585568 465.35756551 10.25964165 465.36711454 C13.70088951 465.3803002 17.14126298 465.37556723 20.58245754 465.36316967 C24.29623344 465.35411688 28.00993311 465.36809001 31.72369385 465.37908936 C38.99611564 465.39687678 46.26837231 465.39303364 53.54080057 465.38143879 C59.45118471 465.37240561 65.36152256 465.37117997 71.27191162 465.37553406 C72.11307616 465.37614699 72.9542407 465.37675992 73.82089508 465.37739143 C75.5296995 465.37867033 77.23850391 465.37996718 78.9473083 465.38128179 C94.97115706 465.39268824 110.99491429 465.37957288 127.01874804 465.35808033 C140.76824115 465.34020928 154.51759918 465.34331337 168.26708984 465.36175537 C184.23355649 465.38316094 200.1999429 465.3915896 216.16642189 465.37930632 C217.86894352 465.37803212 219.57146516 465.37677464 221.27398682 465.37553406 C222.11166214 465.37491696 222.94933746 465.37429985 223.81239688 465.37366405 C229.71575081 465.37021021 235.61905386 465.37604023 241.5223999 465.38545227 C248.71654368 465.39667016 255.91051289 465.3936367 263.10463667 465.37232929 C266.7753024 465.36181594 270.44567705 465.35770164 274.11634064 465.3709259 C278.09465216 465.38504178 282.07248692 465.3681883 286.05078125 465.34820557 C287.21205976 465.35712845 288.37333828 465.36605134 289.56980705 465.37524462 C295.59954263 465.31630889 299.67689731 465.17221847 304.27294922 460.840271 C309.75923679 455.24053346 308.81922077 448.48983144 308.75396729 441.13510132 C308.75571223 439.71923813 308.75921575 438.3033762 308.76432395 436.88752115 C308.77326291 433.00157313 308.75727546 429.11606656 308.7372117 425.23017478 C308.7199354 421.03801228 308.72578353 416.84587461 308.7288208 412.65368652 C308.73091805 405.39202605 308.71836969 398.13050935 308.69586945 390.86888504 C308.66335914 380.36982408 308.65294342 369.87083264 308.64791748 359.3717268 C308.63916331 342.33760186 308.6125444 325.30355355 308.57470703 308.26947021 C308.53799011 291.72259911 308.50967678 275.17574883 308.49267578 258.62884521 C308.49109944 257.09888099 308.49109944 257.09888099 308.48949125 255.53800841 C308.4842711 250.42107998 308.47921627 245.3041514 308.47424364 240.18722272 C308.4327778 197.73818574 308.36232602 155.28923232 308.27294922 112.840271 C307.48527161 112.83440475 306.69759399 112.82853851 305.88604736 112.82249451 C298.41377851 112.76426563 290.9418317 112.69202019 283.46985245 112.60455608 C279.62966312 112.56008455 275.78957423 112.52077954 271.94921875 112.49383545 C268.23370245 112.46756788 264.51857763 112.42700629 260.80330658 112.37708473 C259.39540274 112.3605727 257.98743143 112.348962 256.57944489 112.34265709 C238.98863999 112.25602065 226.45041047 108.39666089 213.53076172 96.246521 C202.76997848 84.77828142 200.67260574 70.26846773 200.66357422 55.13323975 C200.64855037 53.6720653 200.63181462 52.21090757 200.61346436 50.74977112 C200.57024895 46.95068472 200.54989522 43.1518271 200.534729 39.35253906 C200.51499019 35.45703858 200.47304071 31.56177939 200.43310547 27.66644287 C200.35830148 20.05778454 200.30771108 12.44922903 200.27294922 4.840271 C173.51754408 4.74686297 146.76216334 4.67630903 120.00662804 4.63302231 C107.58379035 4.61239004 95.16105394 4.58425658 82.73828125 4.53851318 C71.9116098 4.49866596 61.08501169 4.47284303 50.25826895 4.46391702 C44.52465019 4.45869873 38.79124124 4.44641975 33.05768967 4.41735077 C27.66181245 4.39021525 22.26623163 4.38182232 16.87029266 4.38784027 C14.88935104 4.38673921 12.90839958 4.37877436 10.92751694 4.3634491 C8.22299112 4.34355043 5.51958462 4.34833136 2.81503296 4.35925293 C1.63894551 4.34177588 1.63894551 4.34177588 0.43909872 4.32394576 C-6.2757133 4.397251 -9.73522721 6.55734408 -14.07198715 11.52791786 Z M-66.06970215 243.34222412 C-68.50592998 248.48419544 -68.28497644 253.18565932 -68.24462891 258.809021 C-68.25163818 260.00970215 -68.25864746 261.2103833 -68.26586914 262.44744873 C-68.28042645 265.728603 -68.27705885 269.00910853 -68.2643528 272.29025269 C-68.25419579 275.730767 -68.26362595 279.17123928 -68.26989746 282.61175537 C-68.27716606 288.38852673 -68.26760704 294.16509326 -68.24853516 299.9418335 C-68.22676768 306.61189948 -68.23381962 313.28147632 -68.25584078 319.95153046 C-68.27401742 325.6876213 -68.27654212 331.42356525 -68.2660861 337.1596756 C-68.25986351 340.58152784 -68.25898118 344.00315048 -68.27223206 347.42498779 C-68.28239023 351.24083526 -68.26690446 355.05574348 -68.24462891 358.871521 C-68.25272583 360.00001465 -68.26082275 361.1285083 -68.26916504 362.29119873 C-68.20445054 368.27497823 -68.00657466 372.26973681 -63.72705078 376.840271 C-58.13646742 381.82568507 -52.75481294 381.40391167 -45.50488281 381.34820557 C-43.6414432 381.35756551 -43.6414432 381.35756551 -41.74035835 381.36711454 C-38.29911049 381.3803002 -34.85873702 381.37556723 -31.41754246 381.36316967 C-27.70376656 381.35411688 -23.99006689 381.36809001 -20.27630615 381.37908936 C-13.00388436 381.39687678 -5.73162769 381.39303364 1.54080057 381.38143879 C7.45118471 381.37240561 13.36152256 381.37117997 19.27191162 381.37553406 C20.11307616 381.37614699 20.9542407 381.37675992 21.82089508 381.37739143 C23.5296995 381.37867033 25.23850391 381.37996718 26.9473083 381.38128179 C42.97115706 381.39268824 58.99491429 381.37957288 75.01874804 381.35808033 C88.76824115 381.34020928 102.51759918 381.34331337 116.26708984 381.36175537 C132.23355649 381.38316094 148.1999429 381.3915896 164.16642189 381.37930632 C165.86894352 381.37803212 167.57146516 381.37677464 169.27398682 381.37553406 C170.11166214 381.37491696 170.94933746 381.37429985 171.81239688 381.37366405 C177.71575081 381.37021021 183.61905386 381.37604023 189.5223999 381.38545227 C196.71654368 381.39667016 203.91051289 381.3936367 211.10463667 381.37232929 C214.7753024 381.36181594 218.44567705 381.35770164 222.11634064 381.3709259 C226.09465216 381.38504178 230.07248692 381.3681883 234.05078125 381.34820557 C235.21205976 381.35712845 236.37333828 381.36605134 237.56980705 381.37524462 C243.78898797 381.31445722 247.56145344 381.04175693 252.27294922 376.840271 C257.33190758 371.43730031 256.84076173 365.87284463 256.79052734 358.871521 C256.79753662 357.67083984 256.8045459 356.47015869 256.81176758 355.23309326 C256.82632489 351.95193899 256.82295728 348.67143346 256.81025124 345.39028931 C256.80009423 341.94977499 256.80952438 338.50930271 256.8157959 335.06878662 C256.8230645 329.29201526 256.81350548 323.51544873 256.79443359 317.7387085 C256.77266611 311.06864252 256.77971806 304.39906567 256.80173922 297.72901154 C256.81991586 291.99292069 256.82244056 286.25697674 256.81198454 280.52086639 C256.80576195 277.09901415 256.80487962 273.67739151 256.81813049 270.2555542 C256.82828866 266.43970673 256.8128029 262.62479851 256.79052734 258.809021 C256.80267273 257.11628052 256.80267273 257.11628052 256.81506348 255.38934326 C256.75034898 249.40556376 256.5524731 245.41080518 252.27294922 240.840271 C246.68236586 235.85485692 241.30071138 236.27663032 234.05078125 236.33233643 C232.80848818 236.32609646 231.56619511 236.3198565 230.28625679 236.31342745 C226.84500892 236.30024179 223.40463546 236.30497476 219.9634409 236.31737232 C216.249665 236.32642511 212.53596533 236.31245198 208.82220459 236.30145264 C201.5497828 236.28366521 194.27752613 236.28750835 187.00509787 236.2991032 C181.09471373 236.30813638 175.18437587 236.30936202 169.27398682 236.30500793 C168.43282228 236.304395 167.59165774 236.30378207 166.72500336 236.30315056 C165.01619894 236.30187166 163.30739453 236.30057481 161.59859014 236.2992602 C145.57474137 236.28785375 129.55098414 236.30096911 113.52715039 236.32246166 C99.77765729 236.34033272 86.02829926 236.33722863 72.27880859 236.31878662 C56.31234195 236.29738105 40.34595553 236.28895239 24.37947655 236.30123568 C22.67695492 236.30250987 20.97443328 236.30376736 19.27191162 236.30500793 C18.4342363 236.30562504 17.59656098 236.30624214 16.73350155 236.30687794 C10.83014763 236.31033178 4.92684458 236.30450176 -0.97650146 236.29508972 C-8.17064525 236.28387183 -15.36461445 236.28690529 -22.55873823 236.3082127 C-26.22940396 236.31872605 -29.89977861 236.32284036 -33.5704422 236.30961609 C-37.54875372 236.29550021 -41.52658848 236.3123537 -45.50488281 236.33233643 C-46.66616133 236.32341354 -47.82743984 236.31449065 -49.02390862 236.30529737 C-56.97958003 236.38305754 -60.56942327 237.46792284 -66.06970215 243.34222412 Z " fill="#000000" transform="translate(109.72705078125,21.15972900390625)"/>
<path d="M0 0 C5.78590095 4.80818417 11.11221429 9.97022734 16.42358398 15.29418945 C17.3414418 16.21029495 18.25929962 17.12640045 19.20497131 18.07026672 C21.70267497 20.56344356 24.19724413 23.05973405 26.69109225 25.55676675 C29.30542204 28.17364026 31.92220426 30.78805965 34.53858948 33.40287781 C38.92392798 37.78640241 43.30716529 42.17201976 47.68920898 46.55883789 C52.7605999 51.63569032 57.83561072 56.70890282 62.91247696 61.78027946 C67.2753547 66.13862809 71.63629196 70.49891116 75.99559456 74.86083573 C78.59787469 77.46467714 81.20083128 80.06783264 83.80554008 82.66924477 C86.70061358 85.56090886 89.59160642 88.45661863 92.48217773 91.3527832 C93.35014984 92.21873108 94.21812195 93.08467896 95.11239624 93.97686768 C95.8932106 94.76050186 96.67402496 95.54413605 97.47850037 96.35151672 C98.16259696 97.03599034 98.84669355 97.72046396 99.55152035 98.42567921 C101 100 101 100 101 101 C92.99312838 101.09325807 84.98648899 101.16404445 76.97920609 101.20724869 C73.25986606 101.22799934 69.54090141 101.25608273 65.82177734 101.30175781 C62.22314592 101.34566943 58.6248723 101.36923088 55.02599335 101.37950897 C53.00551028 101.39034408 50.98516836 101.42149526 48.96490479 101.45318604 C34.01209584 101.45677029 23.02163155 96.78954659 12.1875 86.5625 C0.94116703 74.70754195 -0.16097426 61.84886903 -0.09765625 46.19140625 C-0.09578833 44.85619663 -0.0943662 43.52098631 -0.09336853 42.18577576 C-0.08957277 38.69237332 -0.079768 35.19901327 -0.06866455 31.70562744 C-0.0583868 28.1325335 -0.05385735 24.55943263 -0.04882812 20.98632812 C-0.03814275 13.99086814 -0.02110215 6.99543611 0 0 Z " fill="#73E068" transform="translate(314,29)"/>
<path d="M0 0 C14.85 0 29.7 0 45 0 C45 3.3 45 6.6 45 10 C34.11 10 23.22 10 12 10 C12 15.28 12 20.56 12 26 C21.57 26 31.14 26 41 26 C41 28.97 41 31.94 41 35 C31.43 35 21.86 35 12 35 C12 40.61 12 46.22 12 52 C23.55 52 35.1 52 47 52 C47 55.3 47 58.6 47 62 C31.49 62 15.98 62 0 62 C0 41.54 0 21.08 0 0 Z " fill="#F8FCF8" transform="translate(243,299)"/>
<path d="M0 0 C14.85 0 29.7 0 45 0 C45 3.3 45 6.6 45 10 C34.11 10 23.22 10 12 10 C12 15.28 12 20.56 12 26 C21.57 26 31.14 26 41 26 C41 28.97 41 31.94 41 35 C31.1 35 21.2 35 11 35 C11 40.61 11 46.22 11 52 C22.55 52 34.1 52 46 52 C46 55.3 46 58.6 46 62 C30.82 62 15.64 62 0 62 C0 41.54 0 21.08 0 0 Z " fill="#FAFCFA" transform="translate(62,299)"/>
<path d="M0 0 C4.47567184 -0.61404034 8.54130958 -0.81998904 13 0 C16.54771701 2.77345955 18.6546616 6.19396839 21 10 C22.28168413 11.88183781 23.57289848 13.75723143 24.875 15.625 C25.42929688 16.46289062 25.98359375 17.30078125 26.5546875 18.1640625 C27.03164062 18.76992188 27.50859375 19.37578125 28 20 C28.66 20 29.32 20 30 20 C31.41654151 18.08803126 31.41654151 18.08803126 32.8359375 15.625 C33.40699219 14.72265625 33.97804687 13.8203125 34.56640625 12.890625 C35.76127485 10.98089981 36.92871153 9.05370316 38.06640625 7.109375 C39.88116326 4.30511472 41.41993286 2.13063609 44 0 C48.13375638 -0.81932613 51.84845242 -0.61924886 56 0 C54.78945319 3.28642747 53.48734043 5.96609143 51.35546875 8.7421875 C50.84306641 9.41636719 50.33066406 10.09054687 49.80273438 10.78515625 C49.26970703 11.47480469 48.73667969 12.16445313 48.1875 12.875 C46.62331063 14.92062714 45.06146217 16.96770624 43.50927734 19.02246094 C42.51344088 20.32726122 41.49830985 21.61758743 40.46337891 22.89160156 C37.68499184 26.27434047 37.68499184 26.27434047 37.20336914 30.44970703 C38.03853159 33.12335306 39.03756895 34.86270335 40.6953125 37.109375 C41.51769409 38.23569336 41.51769409 38.23569336 42.35668945 39.38476562 C42.94023193 40.16529297 43.52377441 40.94582031 44.125 41.75 C44.7130542 42.55115234 45.3011084 43.35230469 45.90698242 44.17773438 C49.47729271 49.02290908 53.1104876 53.81279843 56.92578125 58.46875 C58 60 58 60 58 62 C53.27894299 63.25173688 49.6902226 63.47519018 45 62 C40.1776331 57.51047913 36.88746561 51.64667294 33.421875 46.10009766 C31.55356857 43.34062445 29.46799009 41.22754252 27 39 C26.79503906 39.64453125 26.59007812 40.2890625 26.37890625 40.953125 C24.42534112 45.26978448 21.70119976 48.9163767 18.9375 52.75 C18.38255859 53.52988281 17.82761719 54.30976563 17.25585938 55.11328125 C13.18614647 60.81385353 13.18614647 60.81385353 12 62 C9.81360547 62.07258946 7.62499611 62.08373783 5.4375 62.0625 C3.64119141 62.04896484 3.64119141 62.04896484 1.80859375 62.03515625 C0.88175781 62.02355469 -0.04507813 62.01195312 -1 62 C1.60207087 57.24943024 4.38442828 53.01591575 7.75 48.75 C8.62881667 47.6272501 9.50639983 46.5035337 10.3828125 45.37890625 C10.81883789 44.81961426 11.25486328 44.26032227 11.70410156 43.68408203 C14.90121932 39.52927451 17.94426502 35.25925071 21 31 C19.6343212 28.09813505 18.06808363 25.57231214 16.171875 22.98828125 C15.61886719 22.22966797 15.06585938 21.47105469 14.49609375 20.68945312 C13.91988281 19.90505859 13.34367187 19.12066406 12.75 18.3125 C8.34563666 12.30332841 4.08296546 6.23291935 0 0 Z " fill="#F8FCF8" transform="translate(114,299)"/>
<path d="M0 0 C2.24394008 1.53807932 4.04140819 3.0943431 6 5 C4.50902342 8.7952131 2.24299151 10.61042731 -1 13 C-1.47050781 12.65066406 -1.94101563 12.30132812 -2.42578125 11.94140625 C-3.04839844 11.48636719 -3.67101562 11.03132813 -4.3125 10.5625 C-4.92738281 10.11003906 -5.54226562 9.65757812 -6.17578125 9.19140625 C-11.6354414 5.62567532 -18.77225872 6.40688178 -25 7 C-29.65590674 8.52116648 -32.85925001 11.20567847 -35.5 15.3125 C-38.41820621 22.18271641 -38.31603976 31.53604604 -36.22265625 38.63671875 C-33.18750153 44.30738148 -27.94548082 47.01817306 -22 49 C-15.55428002 50.37168806 -9.71191738 47.90452942 -4 45 C-2.64268662 44.0327988 -1.30115681 43.04152231 0 42 C1.03531726 42.90027588 2.05294165 43.82093035 3.0625 44.75 C3.63097656 45.26046875 4.19945312 45.7709375 4.78515625 46.296875 C6 48 6 48 5.9765625 50.0078125 C4.62285994 52.76936572 2.96669333 53.60945164 0.3125 55.125 C-0.53699219 55.62257813 -1.38648438 56.12015625 -2.26171875 56.6328125 C-10.58550462 60.78876835 -19.21945278 61.42609907 -28.26171875 59.1953125 C-37.18766309 55.88094136 -44.29159193 50.19360341 -48.5625 41.5625 C-51.36653695 33.21559932 -51.62047584 22.97594877 -48.89453125 14.60546875 C-44.2388966 5.48142335 -37.76994167 0.5709056 -28.3125 -3.08203125 C-18.60768774 -5.77145446 -8.90563758 -4.62266097 0 0 Z " fill="#F8FCF7" transform="translate(225,303)"/>
<path d="M0 0 C3.96 0 7.92 0 12 0 C12 17.16 12 34.32 12 52 C22.56 52 33.12 52 44 52 C44 55.3 44 58.6 44 62 C29.48 62 14.96 62 0 62 C0 41.54 0 21.08 0 0 Z " fill="#F7FBF7" transform="translate(302,299)"/>
</svg>
