<?xml version="1.0" encoding="UTF-8"?>
<svg version="1.1" xmlns="http://www.w3.org/2000/svg" width="512" height="512">
<path d="M0 0 C1.57534908 -0.00676752 3.15069152 -0.01526268 4.72602302 -0.02532321 C9.02981932 -0.04773698 13.33329217 -0.04540793 17.63712847 -0.03875387 C22.28816219 -0.03587009 26.93910723 -0.05595349 31.59010315 -0.07290649 C40.69063585 -0.10221128 49.79105761 -0.10955761 58.89163264 -0.10833099 C66.28786469 -0.10749776 73.68406173 -0.11336822 81.08028603 -0.12395668 C104.34206482 -0.15661244 127.60373574 -0.16562444 150.8655341 -0.15686695 C169.21477672 -0.15088024 187.56375254 -0.18131274 205.9129286 -0.22848966 C224.76194427 -0.27657342 243.61083139 -0.29866734 262.45990974 -0.29317886 C273.0392198 -0.29060173 283.61827399 -0.29860246 294.19753075 -0.3342495 C303.19985156 -0.36434499 312.20178317 -0.37015562 321.20412453 -0.34444048 C325.79673544 -0.33200641 330.3886144 -0.33085314 334.98116493 -0.36014938 C339.18638003 -0.38668464 343.39026778 -0.38083669 347.59543703 -0.34931944 C349.11543197 -0.34358892 350.63552735 -0.34964903 352.15541276 -0.36877545 C364.91159167 -0.51844131 364.91159167 -0.51844131 370.02661705 3.89065361 C371.13566471 5.07668718 372.21835778 6.28818993 373.26679993 7.52812195 C374.32265272 8.56035349 375.38630395 9.584751 376.4619751 10.59631348 C377.50219265 11.63073398 378.53983825 12.66774605 379.57514954 13.70707703 C380.43768341 14.56698242 380.43768341 14.56698242 381.31764221 15.44425964 C383.18730521 17.30957775 385.0533536 19.17846183 386.91914368 21.0476532 C388.22796288 22.3557978 389.53693041 23.663794 390.84603882 24.97164917 C393.57328677 27.69743063 396.2987371 30.42499323 399.02290344 33.15385437 C402.51889194 36.65557366 406.01939689 40.15273844 409.52123165 43.64861012 C412.21754388 46.34131731 414.91148045 49.03639104 417.60469246 51.73219872 C418.89539207 53.023566 420.18683656 54.31418923 421.47903252 55.60405922 C423.27651837 57.39901586 425.07078535 59.19712844 426.86421204 60.99613953 C427.39974197 61.52964523 427.93527191 62.06315094 428.48703003 62.61282349 C432.7366768 66.88711457 433.39170094 68.69770712 433.401021 74.69370937 C433.40337323 75.33599187 433.40572546 75.97827438 433.40814897 76.64001998 C433.41485691 78.812978 433.41438021 80.98587647 433.41397095 83.15884399 C433.41726849 84.72428036 433.42099382 86.28971587 433.42511243 87.85515028 C433.43515358 92.17339573 433.43885263 96.49162728 433.44150174 100.80988276 C433.44539869 105.46109589 433.45497763 110.11229795 433.4637146 114.76350403 C433.48349923 126.00642504 433.49354905 137.24934698 433.50244239 148.49228105 C433.50682318 153.78515373 433.51219064 159.07802541 433.51743126 164.37089729 C433.53444771 181.96431108 433.54894117 199.55772423 433.55618 217.15114498 C433.55808995 221.71926817 433.56001027 226.28739136 433.56196594 230.85551453 C433.56244968 231.99092234 433.56293342 233.12633015 433.56343182 234.29614425 C433.57172932 252.68265157 433.59705964 271.06909377 433.62954662 289.45557266 C433.66262055 308.32802751 433.68062918 327.20044927 433.68382424 346.07293326 C433.68598934 356.67085496 433.69473764 367.26868178 433.72028542 377.86657524 C433.74199718 386.89418963 433.75004057 395.92168611 433.74031863 404.94932365 C433.73577495 409.5542234 433.73766407 414.1588799 433.75708008 418.76374626 C433.77472016 422.9839618 433.77370724 427.20375679 433.75818279 431.42397685 C433.75580795 432.94631509 433.76012382 434.46868252 433.77201144 435.99097621 C433.86911608 449.25326407 431.64416437 459.70510058 422.26679993 469.52812195 C411.33149685 479.96730541 399.58086882 481.12039275 385.14912415 481.03605652 C383.42329826 481.0406712 381.69747632 481.04702791 379.97166252 481.0549655 C375.25178624 481.07160404 370.53223508 481.06343743 365.8123579 481.05102062 C360.71343005 481.04194999 355.61455711 481.05594984 350.51564026 481.06694031 C340.53576854 481.08470861 330.55601728 481.08089305 320.57614088 481.06928974 C312.46388226 481.06024907 304.35165736 481.05903418 296.23939514 481.06338501 C295.08396048 481.06399794 293.92852583 481.06461087 292.738078 481.06524238 C290.39069191 481.06652131 288.04330582 481.06781816 285.69591975 481.06913275 C263.69453011 481.0805336 241.69320719 481.06743258 219.69182849 481.04593128 C200.82160327 481.02806076 181.95147649 481.03116501 163.08125305 481.04960632 C141.15754387 481.07102174 119.23389312 481.07943501 97.31017494 481.06715727 C94.97151821 481.0658831 92.63286146 481.06462561 90.29420471 481.06338501 C88.56829662 481.06245936 88.56829662 481.06245936 86.8075217 481.061515 C78.70683631 481.05806413 70.60618806 481.06388481 62.50550842 481.07330322 C52.63085744 481.08453202 42.75633362 481.08146454 32.88169718 481.06018025 C27.84537414 481.04968178 22.80926297 481.04552757 17.77294159 481.05877686 C13.1589357 481.07073139 8.54533725 481.0640878 3.93136811 481.04286665 C2.26597121 481.03841355 0.60053959 481.04063768 -1.06483483 481.0503698 C-14.66240279 481.12371053 -25.55244907 479.24698633 -35.73320007 469.52812195 C-46.17238354 458.59281888 -47.32547087 446.84219084 -47.24113464 432.41044617 C-47.24574932 430.68462029 -47.25210604 428.95879834 -47.26004362 427.23298454 C-47.27668216 422.51310826 -47.26851555 417.7935571 -47.25609875 413.07367992 C-47.24702811 407.97475207 -47.26102797 402.87587913 -47.27201843 397.77696228 C-47.28978674 387.79709056 -47.28597117 377.81733931 -47.27436787 367.8374629 C-47.26532719 359.72520428 -47.2641123 351.61297938 -47.26846313 343.50071716 C-47.26907607 342.34528251 -47.269689 341.18984785 -47.2703205 339.99940002 C-47.27159943 337.65201393 -47.27289628 335.30462785 -47.27421087 332.95724177 C-47.28561173 310.95585213 -47.2725107 288.95452921 -47.2510094 266.95315051 C-47.23313889 248.0829253 -47.23624314 229.21279851 -47.25468445 210.34257507 C-47.27609987 188.41886589 -47.28451313 166.49521515 -47.27223539 144.57149696 C-47.27096122 142.23284023 -47.26970374 139.89418349 -47.26846313 137.55552673 C-47.26784603 136.40492134 -47.26722893 135.25431595 -47.26659313 134.06884372 C-47.26314225 125.96815834 -47.26896293 117.86751008 -47.27838135 109.76683044 C-47.28961015 99.89217947 -47.28654267 90.01765565 -47.26525837 80.1430192 C-47.25475991 75.10669616 -47.25060569 70.07058499 -47.26385498 65.03426361 C-47.27580951 60.42025772 -47.26916593 55.80665928 -47.24794477 51.19269013 C-47.24349167 49.52729323 -47.24571581 47.86186161 -47.25544792 46.19648719 C-47.32878866 32.59891923 -45.45206445 21.70887295 -35.73320007 11.52812195 C-25.23606671 1.50722904 -13.99897009 -0.07006772 0 0 Z M65.26679993 16.52812195 C56.77652688 85.8865055 56.77652688 85.8865055 68.26679993 150.52812195 C72.62787127 153.372796 77.90602639 152.80960283 82.93902588 152.78881836 C84.40916282 152.79455668 84.40916282 152.79455668 85.9089995 152.80041093 C89.19620809 152.81073747 92.4832419 152.8067494 95.77046204 152.80278015 C98.12596804 152.80712679 100.48147262 152.81230978 102.8369751 152.81826782 C109.23772009 152.83167375 115.6384061 152.83223474 122.0391624 152.82970452 C126.03652297 152.82842168 130.03387785 152.83104166 134.03123665 152.834692 C134.69491356 152.83528719 135.35859047 152.83588238 136.0423788 152.8364956 C137.39065675 152.83770736 138.73893469 152.83892149 140.08721263 152.84013798 C152.72985845 152.85101308 165.3724776 152.84885112 178.01512492 152.84275313 C189.57940312 152.83758356 201.14359708 152.84884052 212.70785861 152.86785135 C224.58448419 152.88722591 236.46106991 152.89548646 248.33771139 152.8917281 C255.00457339 152.88981553 261.67137421 152.89257346 268.33822441 152.90644264 C274.60663157 152.9189947 280.87486982 152.91710163 287.14327431 152.90403175 C289.44510327 152.90166076 291.74694401 152.90441929 294.04875946 152.91265488 C297.18856708 152.9230795 300.32780349 152.91505579 303.46759033 152.90234375 C304.38053028 152.90971803 305.29347022 152.91709232 306.23407501 152.92469007 C311.26706469 152.88176024 315.02502271 152.54856439 319.26679993 149.52812195 C335.73364808 108.36100156 321.26679993 60.86646753 321.26679993 16.52812195 C236.78679993 16.52812195 152.30679993 16.52812195 65.26679993 16.52812195 Z M24.26679993 247.52812195 C17.96068205 254.85858384 16.95376466 263.84371673 17.02629089 273.20318604 C17.02457886 274.02561798 17.02286682 274.84804993 17.02110291 275.69540405 C17.0178178 278.43343541 17.028798 281.17121683 17.03974915 283.90922546 C17.04036237 285.91278291 17.04009389 287.91634078 17.03901863 289.91989803 C17.03856846 295.26896499 17.05013184 300.61794185 17.0642395 305.96698761 C17.07565779 310.99253615 17.07616729 316.01806315 17.07759094 321.04362488 C17.08807155 335.72596909 17.11599398 350.40829667 17.14179993 365.09062195 C17.18304993 397.90499695 17.22429993 430.71937195 17.26679993 464.52812195 C133.42679993 464.52812195 249.58679993 464.52812195 369.26679993 464.52812195 C369.30804993 431.71374695 369.34929993 398.89937195 369.39179993 365.09062195 C369.41000793 354.73115173 369.42821594 344.37168152 369.44697571 333.69828796 C369.45366477 324.40842504 369.45366477 324.40842504 369.45768738 315.11856079 C369.45954991 310.98226779 369.46704196 306.84602617 369.47795105 302.70974731 C369.49169139 297.42985241 369.49577808 292.15003201 369.49294448 286.87012088 C369.49353682 284.93478442 369.49748953 282.9994453 369.50523019 281.06412423 C369.51522213 278.44371817 369.51276381 275.8235991 369.50730896 273.20318604 C369.51604695 272.07555296 369.51604695 272.07555296 369.52496147 270.92513943 C369.4777169 262.44361786 368.10784263 253.99402038 362.26679993 247.52812195 C352.96724259 240.27761962 344.28617121 240.37921992 332.94456482 240.39440918 C331.70353402 240.39214362 330.46250322 240.38987807 329.18386543 240.38754386 C325.75096058 240.3823182 322.31810821 240.38155734 318.88520312 240.38273823 C315.17823078 240.38294269 311.47126619 240.37741924 307.76429749 240.37268066 C300.50643156 240.36438362 293.24857375 240.36162626 285.99070348 240.36106829 C280.09039309 240.36059273 274.19008539 240.358536 268.28977585 240.35536766 C251.55411386 240.3465641 234.81845828 240.34194788 218.08279397 240.34269813 C216.73020748 240.34275807 216.73020748 240.34275807 215.35029602 240.34281921 C213.99605464 240.34288053 213.99605464 240.34288053 212.61445485 240.34294309 C197.98075301 240.3433496 183.3470769 240.33377805 168.7133825 240.31968085 C153.68056063 240.30531361 138.64775131 240.29841084 123.6149224 240.29927462 C115.1779286 240.29960645 106.74096177 240.29686574 98.30397415 240.28609657 C91.12133859 240.27698706 83.93874225 240.27482007 76.75610341 240.281606 C73.09323037 240.28486876 69.43043255 240.28493666 65.76756668 240.27625275 C61.79267716 240.26692616 57.8178972 240.27317006 53.84300232 240.28088379 C52.69114445 240.27574023 51.53928658 240.27059666 50.35252392 240.26529723 C40.75022662 240.30646903 31.79801715 241.04930189 24.26679993 247.52812195 Z " fill="#9AC8FE" transform="translate(62.73320007324219,15.471878051757813)"/>
<path d="M0 0 C1.57534908 -0.00676752 3.15069152 -0.01526268 4.72602302 -0.02532321 C9.02981932 -0.04773698 13.33329217 -0.04540793 17.63712847 -0.03875387 C22.28816219 -0.03587009 26.93910723 -0.05595349 31.59010315 -0.07290649 C40.69063585 -0.10221128 49.79105761 -0.10955761 58.89163264 -0.10833099 C66.28786469 -0.10749776 73.68406173 -0.11336822 81.08028603 -0.12395668 C104.34206482 -0.15661244 127.60373574 -0.16562444 150.8655341 -0.15686695 C169.21477672 -0.15088024 187.56375254 -0.18131274 205.9129286 -0.22848966 C224.76194427 -0.27657342 243.61083139 -0.29866734 262.45990974 -0.29317886 C273.0392198 -0.29060173 283.61827399 -0.29860246 294.19753075 -0.3342495 C303.19985156 -0.36434499 312.20178317 -0.37015562 321.20412453 -0.34444048 C325.79673544 -0.33200641 330.3886144 -0.33085314 334.98116493 -0.36014938 C339.18638003 -0.38668464 343.39026778 -0.38083669 347.59543703 -0.34931944 C349.11543197 -0.34358892 350.63552735 -0.34964903 352.15541276 -0.36877545 C364.91159167 -0.51844131 364.91159167 -0.51844131 370.02661705 3.89065361 C371.13566471 5.07668718 372.21835778 6.28818993 373.26679993 7.52812195 C374.32265272 8.56035349 375.38630395 9.584751 376.4619751 10.59631348 C377.50219265 11.63073398 378.53983825 12.66774605 379.57514954 13.70707703 C380.43768341 14.56698242 380.43768341 14.56698242 381.31764221 15.44425964 C383.18730521 17.30957775 385.0533536 19.17846183 386.91914368 21.0476532 C388.22796288 22.3557978 389.53693041 23.663794 390.84603882 24.97164917 C393.57328677 27.69743063 396.2987371 30.42499323 399.02290344 33.15385437 C402.51889194 36.65557366 406.01939689 40.15273844 409.52123165 43.64861012 C412.21754388 46.34131731 414.91148045 49.03639104 417.60469246 51.73219872 C418.89539207 53.023566 420.18683656 54.31418923 421.47903252 55.60405922 C423.27651837 57.39901586 425.07078535 59.19712844 426.86421204 60.99613953 C427.39974197 61.52964523 427.93527191 62.06315094 428.48703003 62.61282349 C432.7366768 66.88711457 433.39170094 68.69770712 433.401021 74.69370937 C433.40337323 75.33599187 433.40572546 75.97827438 433.40814897 76.64001998 C433.41485691 78.812978 433.41438021 80.98587647 433.41397095 83.15884399 C433.41726849 84.72428036 433.42099382 86.28971587 433.42511243 87.85515028 C433.43515358 92.17339573 433.43885263 96.49162728 433.44150174 100.80988276 C433.44539869 105.46109589 433.45497763 110.11229795 433.4637146 114.76350403 C433.48349923 126.00642504 433.49354905 137.24934698 433.50244239 148.49228105 C433.50682318 153.78515373 433.51219064 159.07802541 433.51743126 164.37089729 C433.53444771 181.96431108 433.54894117 199.55772423 433.55618 217.15114498 C433.55808995 221.71926817 433.56001027 226.28739136 433.56196594 230.85551453 C433.56244968 231.99092234 433.56293342 233.12633015 433.56343182 234.29614425 C433.57172932 252.68265157 433.59705964 271.06909377 433.62954662 289.45557266 C433.66262055 308.32802751 433.68062918 327.20044927 433.68382424 346.07293326 C433.68598934 356.67085496 433.69473764 367.26868178 433.72028542 377.86657524 C433.74199718 386.89418963 433.75004057 395.92168611 433.74031863 404.94932365 C433.73577495 409.5542234 433.73766407 414.1588799 433.75708008 418.76374626 C433.77472016 422.9839618 433.77370724 427.20375679 433.75818279 431.42397685 C433.75580795 432.94631509 433.76012382 434.46868252 433.77201144 435.99097621 C433.86911608 449.25326407 431.64416437 459.70510058 422.26679993 469.52812195 C411.33149685 479.96730541 399.58086882 481.12039275 385.14912415 481.03605652 C383.42329826 481.0406712 381.69747632 481.04702791 379.97166252 481.0549655 C375.25178624 481.07160404 370.53223508 481.06343743 365.8123579 481.05102062 C360.71343005 481.04194999 355.61455711 481.05594984 350.51564026 481.06694031 C340.53576854 481.08470861 330.55601728 481.08089305 320.57614088 481.06928974 C312.46388226 481.06024907 304.35165736 481.05903418 296.23939514 481.06338501 C295.08396048 481.06399794 293.92852583 481.06461087 292.738078 481.06524238 C290.39069191 481.06652131 288.04330582 481.06781816 285.69591975 481.06913275 C263.69453011 481.0805336 241.69320719 481.06743258 219.69182849 481.04593128 C200.82160327 481.02806076 181.95147649 481.03116501 163.08125305 481.04960632 C141.15754387 481.07102174 119.23389312 481.07943501 97.31017494 481.06715727 C94.97151821 481.0658831 92.63286146 481.06462561 90.29420471 481.06338501 C88.56829662 481.06245936 88.56829662 481.06245936 86.8075217 481.061515 C78.70683631 481.05806413 70.60618806 481.06388481 62.50550842 481.07330322 C52.63085744 481.08453202 42.75633362 481.08146454 32.88169718 481.06018025 C27.84537414 481.04968178 22.80926297 481.04552757 17.77294159 481.05877686 C13.1589357 481.07073139 8.54533725 481.0640878 3.93136811 481.04286665 C2.26597121 481.03841355 0.60053959 481.04063768 -1.06483483 481.0503698 C-14.66240279 481.12371053 -25.55244907 479.24698633 -35.73320007 469.52812195 C-46.17238354 458.59281888 -47.32547087 446.84219084 -47.24113464 432.41044617 C-47.24574932 430.68462029 -47.25210604 428.95879834 -47.26004362 427.23298454 C-47.27668216 422.51310826 -47.26851555 417.7935571 -47.25609875 413.07367992 C-47.24702811 407.97475207 -47.26102797 402.87587913 -47.27201843 397.77696228 C-47.28978674 387.79709056 -47.28597117 377.81733931 -47.27436787 367.8374629 C-47.26532719 359.72520428 -47.2641123 351.61297938 -47.26846313 343.50071716 C-47.26907607 342.34528251 -47.269689 341.18984785 -47.2703205 339.99940002 C-47.27159943 337.65201393 -47.27289628 335.30462785 -47.27421087 332.95724177 C-47.28561173 310.95585213 -47.2725107 288.95452921 -47.2510094 266.95315051 C-47.23313889 248.0829253 -47.23624314 229.21279851 -47.25468445 210.34257507 C-47.27609987 188.41886589 -47.28451313 166.49521515 -47.27223539 144.57149696 C-47.27096122 142.23284023 -47.26970374 139.89418349 -47.26846313 137.55552673 C-47.26784603 136.40492134 -47.26722893 135.25431595 -47.26659313 134.06884372 C-47.26314225 125.96815834 -47.26896293 117.86751008 -47.27838135 109.76683044 C-47.28961015 99.89217947 -47.28654267 90.01765565 -47.26525837 80.1430192 C-47.25475991 75.10669616 -47.25060569 70.07058499 -47.26385498 65.03426361 C-47.27580951 60.42025772 -47.26916593 55.80665928 -47.24794477 51.19269013 C-47.24349167 49.52729323 -47.24571581 47.86186161 -47.25544792 46.19648719 C-47.32878866 32.59891923 -45.45206445 21.70887295 -35.73320007 11.52812195 C-25.23606671 1.50722904 -13.99897009 -0.07006772 0 0 Z M-25.10820007 24.96562195 C-25.75530945 25.70683289 -26.40241882 26.44804382 -27.06913757 27.2117157 C-30.43395911 31.89561047 -30.98398455 35.82166103 -30.99046898 41.5369606 C-30.99397505 42.23395504 -30.99748113 42.93094948 -31.00109345 43.64906496 C-31.01041481 45.99011656 -31.00548228 48.33091981 -31.00062561 50.67198181 C-31.00436151 52.36517787 -31.00896279 54.0583722 -31.01435626 55.75156379 C-31.02660928 60.40895808 -31.02632308 65.06628067 -31.0239675 69.72368741 C-31.02355992 74.74496144 -31.03459297 79.76621231 -31.04408264 84.78747559 C-31.06070649 94.62709347 -31.06619282 104.46668739 -31.0673074 114.30631813 C-31.06825726 122.30383765 -31.07236448 130.30134926 -31.07870865 138.29886627 C-31.09632522 160.96746275 -31.10554693 183.63604028 -31.1040477 206.30464366 C-31.10396779 207.52710732 -31.10388788 208.74957097 -31.10380554 210.00907898 C-31.10372378 211.23303335 -31.10364202 212.45698772 -31.10355778 213.71803162 C-31.10274487 233.55420271 -31.12188268 253.39029788 -31.15008228 273.22644702 C-31.17880113 293.58834763 -31.1926231 313.95021121 -31.19089472 334.3121326 C-31.19023045 345.74607215 -31.19573893 357.17993212 -31.21725082 368.61385345 C-31.23544951 378.34925756 -31.23982077 388.084546 -31.22623198 397.81995973 C-31.21969559 402.78714402 -31.21960939 407.75410634 -31.23693848 412.72126961 C-31.25264458 417.27001666 -31.24983072 421.81836528 -31.23237021 426.36710247 C-31.22929488 428.0111148 -31.23295278 429.65515669 -31.24409036 431.29913417 C-31.30597208 441.08261944 -31.14315002 449.36082818 -24.54960632 457.0867157 C-23.80581726 457.70675476 -23.0620282 458.32679382 -22.29570007 458.96562195 C-21.55448914 459.60370789 -20.8132782 460.24179382 -20.04960632 460.8992157 C-15.21730186 464.29731175 -11.2876253 464.7627841 -5.42070007 464.65312195 C-4.16644226 464.63507507 -2.91218445 464.6170282 -1.61991882 464.59843445 C-0.66730164 464.57523132 0.28531555 464.5520282 1.26679993 464.52812195 C1.26734469 463.46720715 1.26788946 462.40629234 1.26845074 461.31322861 C1.28286045 435.4721876 1.32593637 409.63131476 1.3988905 383.79037094 C1.43351059 371.29375516 1.45889213 358.79724935 1.46235657 346.30058289 C1.46540059 335.40564422 1.48595015 324.51090155 1.5273245 313.61603856 C1.54861617 307.84982431 1.56127467 302.08388845 1.55295372 296.31763458 C1.54538953 290.88383918 1.56133304 285.45060674 1.59486008 280.01691437 C1.60306476 278.0288509 1.60287725 276.04073114 1.59339714 274.05267334 C1.5320174 259.75911729 2.94391471 247.41229879 13.26679993 236.52812195 C21.56681204 228.81968737 31.65680598 225.4150869 42.89383221 225.39390087 C43.99626442 225.38944303 45.09869663 225.38498518 46.23453587 225.38039225 C48.03553839 225.3806688 48.03553839 225.3806688 49.8729248 225.38095093 C51.15660912 225.37727424 52.44029344 225.37359755 53.76287729 225.36980945 C57.31958177 225.35982317 60.87626939 225.35607812 64.4329859 225.35342014 C68.27157975 225.34950717 72.11016036 225.33992969 75.94874573 225.33120728 C85.21444944 225.31147319 94.4801542 225.30138156 103.74587366 225.29247949 C108.11227376 225.28809248 112.47867265 225.28272683 116.84507179 225.27749062 C131.36416338 225.2604831 145.88325422 225.24598886 160.40235424 225.23874187 C164.16747221 225.23683208 167.93259018 225.23491173 171.69770813 225.23295593 C173.10135597 225.23223032 173.10135597 225.23223032 174.53336034 225.23149005 C189.69282326 225.22318932 204.85220728 225.19784955 220.01163574 225.16537526 C235.58458129 225.13228769 251.15748674 225.11429167 266.73046762 225.11109763 C275.47050995 225.10893436 284.21043715 225.10021212 292.95044518 225.07463646 C300.39328451 225.05290645 307.83598073 225.04489043 315.27884819 225.05460324 C319.07368889 225.059141 322.86823442 225.05729253 326.66303444 225.0378418 C330.78414839 225.01690155 334.90461076 225.02721735 339.02575684 225.04037476 C340.21527157 225.02940551 341.40478631 225.01843626 342.63034695 225.00713462 C354.63530699 225.0994842 365.21337071 228.83681075 374.01679993 237.1882782 C385.30909715 249.5815744 384.56891026 264.61552188 384.58564758 280.38993835 C384.594956 282.40124409 384.60512602 284.41254599 384.61608887 286.42384338 C384.64329994 291.86108623 384.65851186 297.29830329 384.6715169 302.73559618 C384.68718645 308.42642695 384.71396444 314.11720538 384.73954773 319.80799866 C384.7862679 330.57409994 384.82304471 341.34021114 384.8562206 352.10636175 C384.89448982 364.36757781 384.94388739 376.62874122 384.99420476 388.88991284 C385.09742404 414.10261014 385.18671691 439.31534129 385.26679993 464.52812195 C387.33305435 464.56716482 389.39952392 464.59492035 391.46601868 464.6179657 C393.19211365 464.64298157 393.19211365 464.64298157 394.95307922 464.66850281 C402.28500655 464.35789659 406.76155779 461.40589271 411.70429993 456.15312195 C416.2112691 450.99969862 417.48387489 445.94095684 417.677701 439.17621326 C417.73825199 437.27958713 417.73825199 437.27958713 417.80002624 435.34464532 C417.83508404 433.94876496 417.86984025 432.552877 417.90432739 431.15698242 C417.94746567 429.66765825 417.99125981 428.17835295 418.03565234 426.68906564 C418.15461503 422.59816939 418.26071871 418.5070292 418.36381495 414.4157058 C418.43067287 411.79714345 418.50097769 409.17869489 418.57232475 406.56025124 C419.47680315 373.25562388 420.03007688 339.94525669 420.44708918 306.63123192 C420.51553783 301.16592621 420.58634938 295.70065345 420.65864563 290.23539734 C420.67299094 289.1477392 420.68733625 288.06008106 420.70211627 286.93946358 C420.93905511 269.44905657 421.39072523 251.97082421 421.92708591 234.4873229 C422.47566766 216.4513256 422.79047226 198.42156276 422.89936179 180.37751454 C422.96657829 170.27589304 423.13201816 160.19838473 423.5660038 150.10529518 C425.08146605 113.76631554 426.126779 81.19028947 400.68705648 52.73850101 C396.82911958 48.56093034 392.80981502 44.56665348 388.71479797 40.62260437 C388.05713417 39.98433508 387.39947036 39.34606579 386.72187735 38.688455 C370.12790743 22.12464097 370.12790743 22.12464097 348.67767507 14.91067535 C344.72156802 15.06749465 341.11760805 15.60231411 337.26679993 16.52812195 C337.26460009 17.54384734 337.26460009 17.54384734 337.2623558 18.58009243 C337.22525072 35.08184884 337.16618718 51.58336724 337.08289719 68.08495235 C337.04314375 76.06511698 337.01073256 84.04518353 336.99580383 92.0254364 C336.98276807 98.98371772 336.9557546 105.94178289 336.91218686 112.89994246 C336.88961498 116.58185649 336.87388665 120.26350435 336.87491608 123.9454937 C336.87580473 128.06310275 336.84547764 132.17993027 336.81269836 136.29740906 C336.81772873 137.5086998 336.82275909 138.71999054 336.82794189 139.96798706 C336.72859037 148.04771444 335.54363259 154.48106471 330.37226868 160.8679657 C329.73933899 161.39519226 329.1064093 161.92241882 328.45429993 162.46562195 C327.82910461 163.01089539 327.2039093 163.55616882 326.55976868 164.1179657 C320.41961718 167.89410657 313.97637429 167.81840629 306.98788452 167.79554749 C305.96665998 167.8000786 304.94543545 167.80460971 303.89326471 167.80927813 C300.47874905 167.82191647 297.064393 167.82030212 293.64985657 167.81864929 C291.19877925 167.82463479 288.74770381 167.83144039 286.29663086 167.83900452 C280.33450268 167.85483345 274.37243702 167.86111267 268.41029365 167.86222927 C263.56307862 167.86318094 258.7158766 167.86729716 253.8686657 167.87363052 C240.11615933 167.89123307 226.36368413 167.90047068 212.61116643 167.89896958 C211.87047714 167.89888966 211.12978786 167.89880975 210.36665344 167.89872742 C209.25425839 167.89860477 209.25425839 167.89860477 208.11939072 167.89847966 C196.09744724 167.89766653 184.07562899 167.91681344 172.05372173 167.94500415 C159.700157 167.97374338 147.34665333 167.98754395 134.99305433 167.9858166 C128.0612038 167.98515316 121.12948463 167.99062524 114.19766426 168.0121727 C107.67969916 168.03230455 101.16196403 168.03170027 94.64396858 168.01713943 C92.25267126 168.01504661 89.86135669 168.01978029 87.47008896 168.03186035 C84.20396545 168.04729074 80.93880174 168.03801838 77.67269897 168.02259827 C76.72803947 168.03288539 75.78337997 168.04317252 74.81009442 168.05377138 C67.70319733 167.97969855 62.44833945 166.26624133 57.02461243 161.59843445 C56.4857843 160.95648132 55.94695618 160.3145282 55.39179993 159.65312195 C54.83750305 159.01632507 54.28320618 158.3795282 53.71211243 157.72343445 C50.82582463 153.3393973 50.01769482 148.93592181 49.98832703 143.75740051 C49.97716354 142.63007004 49.96600006 141.50273956 49.95449829 140.34124756 C49.9523381 139.11917099 49.95017792 137.89709442 49.94795227 136.63798523 C49.93790665 135.33988419 49.92786102 134.04178314 49.91751099 132.7043457 C49.89028211 129.15730591 49.87508279 125.61030568 49.86208296 122.06318903 C49.84642117 118.35157405 49.81964071 114.64003948 49.79405212 110.92848206 C49.74731819 103.90572588 49.71054808 96.88295448 49.67737925 89.86012256 C49.63911974 81.86250421 49.58971964 73.86496673 49.53939509 65.86741662 C49.43615537 49.42104319 49.34686917 32.97462485 49.26679993 16.52812195 C41.32122978 16.43513335 33.37588984 16.36421195 25.42990875 16.32087326 C21.73960038 16.30006485 18.04966635 16.27187275 14.35957336 16.22636414 C10.79337931 16.18266252 7.22754361 16.15893419 3.66110229 16.14861298 C1.6492988 16.13770701 -0.36236203 16.10652004 -2.37394714 16.07493591 C-11.97837264 16.0725971 -18.61560807 17.32026361 -25.10820007 24.96562195 Z M65.26679993 16.52812195 C56.77652688 85.8865055 56.77652688 85.8865055 68.26679993 150.52812195 C72.62787127 153.372796 77.90602639 152.80960283 82.93902588 152.78881836 C84.40916282 152.79455668 84.40916282 152.79455668 85.9089995 152.80041093 C89.19620809 152.81073747 92.4832419 152.8067494 95.77046204 152.80278015 C98.12596804 152.80712679 100.48147262 152.81230978 102.8369751 152.81826782 C109.23772009 152.83167375 115.6384061 152.83223474 122.0391624 152.82970452 C126.03652297 152.82842168 130.03387785 152.83104166 134.03123665 152.834692 C134.69491356 152.83528719 135.35859047 152.83588238 136.0423788 152.8364956 C137.39065675 152.83770736 138.73893469 152.83892149 140.08721263 152.84013798 C152.72985845 152.85101308 165.3724776 152.84885112 178.01512492 152.84275313 C189.57940312 152.83758356 201.14359708 152.84884052 212.70785861 152.86785135 C224.58448419 152.88722591 236.46106991 152.89548646 248.33771139 152.8917281 C255.00457339 152.88981553 261.67137421 152.89257346 268.33822441 152.90644264 C274.60663157 152.9189947 280.87486982 152.91710163 287.14327431 152.90403175 C289.44510327 152.90166076 291.74694401 152.90441929 294.04875946 152.91265488 C297.18856708 152.9230795 300.32780349 152.91505579 303.46759033 152.90234375 C304.38053028 152.90971803 305.29347022 152.91709232 306.23407501 152.92469007 C311.26706469 152.88176024 315.02502271 152.54856439 319.26679993 149.52812195 C335.73364808 108.36100156 321.26679993 60.86646753 321.26679993 16.52812195 C236.78679993 16.52812195 152.30679993 16.52812195 65.26679993 16.52812195 Z M24.26679993 247.52812195 C17.96068205 254.85858384 16.95376466 263.84371673 17.02629089 273.20318604 C17.02457886 274.02561798 17.02286682 274.84804993 17.02110291 275.69540405 C17.0178178 278.43343541 17.028798 281.17121683 17.03974915 283.90922546 C17.04036237 285.91278291 17.04009389 287.91634078 17.03901863 289.91989803 C17.03856846 295.26896499 17.05013184 300.61794185 17.0642395 305.96698761 C17.07565779 310.99253615 17.07616729 316.01806315 17.07759094 321.04362488 C17.08807155 335.72596909 17.11599398 350.40829667 17.14179993 365.09062195 C17.18304993 397.90499695 17.22429993 430.71937195 17.26679993 464.52812195 C133.42679993 464.52812195 249.58679993 464.52812195 369.26679993 464.52812195 C369.30804993 431.71374695 369.34929993 398.89937195 369.39179993 365.09062195 C369.41000793 354.73115173 369.42821594 344.37168152 369.44697571 333.69828796 C369.45366477 324.40842504 369.45366477 324.40842504 369.45768738 315.11856079 C369.45954991 310.98226779 369.46704196 306.84602617 369.47795105 302.70974731 C369.49169139 297.42985241 369.49577808 292.15003201 369.49294448 286.87012088 C369.49353682 284.93478442 369.49748953 282.9994453 369.50523019 281.06412423 C369.51522213 278.44371817 369.51276381 275.8235991 369.50730896 273.20318604 C369.51604695 272.07555296 369.51604695 272.07555296 369.52496147 270.92513943 C369.4777169 262.44361786 368.10784263 253.99402038 362.26679993 247.52812195 C352.96724259 240.27761962 344.28617121 240.37921992 332.94456482 240.39440918 C331.70353402 240.39214362 330.46250322 240.38987807 329.18386543 240.38754386 C325.75096058 240.3823182 322.31810821 240.38155734 318.88520312 240.38273823 C315.17823078 240.38294269 311.47126619 240.37741924 307.76429749 240.37268066 C300.50643156 240.36438362 293.24857375 240.36162626 285.99070348 240.36106829 C280.09039309 240.36059273 274.19008539 240.358536 268.28977585 240.35536766 C251.55411386 240.3465641 234.81845828 240.34194788 218.08279397 240.34269813 C216.73020748 240.34275807 216.73020748 240.34275807 215.35029602 240.34281921 C213.99605464 240.34288053 213.99605464 240.34288053 212.61445485 240.34294309 C197.98075301 240.3433496 183.3470769 240.33377805 168.7133825 240.31968085 C153.68056063 240.30531361 138.64775131 240.29841084 123.6149224 240.29927462 C115.1779286 240.29960645 106.74096177 240.29686574 98.30397415 240.28609657 C91.12133859 240.27698706 83.93874225 240.27482007 76.75610341 240.281606 C73.09323037 240.28486876 69.43043255 240.28493666 65.76756668 240.27625275 C61.79267716 240.26692616 57.8178972 240.27317006 53.84300232 240.28088379 C52.69114445 240.27574023 51.53928658 240.27059666 50.35252392 240.26529723 C40.75022662 240.30646903 31.79801715 241.04930189 24.26679993 247.52812195 Z " fill="#1E81CE" transform="translate(62.73320007324219,15.471878051757813)"/>
<path d="M0 0 C1.10794922 -0.01260864 2.21589844 -0.02521729 3.35742188 -0.03820801 C4.54916016 -0.03011108 5.74089844 -0.02201416 6.96875 -0.01367188 C8.19658203 -0.01749878 9.42441406 -0.02132568 10.68945312 -0.02526855 C13.28516459 -0.02799029 15.88090336 -0.02061099 18.4765625 -0.00390625 C22.45374599 0.01749738 26.42912282 -0.0037015 30.40625 -0.02929688 C32.92708733 -0.02665365 35.44792353 -0.02152878 37.96875 -0.01367188 C39.16048828 -0.0217688 40.35222656 -0.02986572 41.58007812 -0.03820801 C43.24200195 -0.01929504 43.24200195 -0.01929504 44.9375 0 C45.91138672 0.00318237 46.88527344 0.00636475 47.88867188 0.00964355 C50.46875 0.51757812 50.46875 0.51757812 52.78210449 1.97473145 C55.31477936 5.79308204 55.0277799 9.23091955 54.98632812 13.72070312 C54.9933374 14.65120483 55.00034668 15.58170654 55.00756836 16.54040527 C55.02517461 19.61643306 55.01351606 22.69154097 55 25.76757812 C55.00269415 27.90462419 55.00657593 30.04166907 55.01159668 32.17871094 C55.0174953 36.6576708 55.00891683 41.13631159 54.99023438 45.61523438 C54.96744487 51.35900265 54.98056597 57.10202332 55.00452423 62.84576416 C55.01897221 67.2586837 55.01438076 71.67142573 55.00401306 76.08435059 C55.00134302 78.20227141 55.00462524 80.32020829 55.01393127 82.43811035 C55.02408018 85.39732607 55.0086186 88.35532792 54.98632812 91.31445312 C54.99442505 92.19145874 55.00252197 93.06846436 55.01086426 93.9720459 C54.95829161 97.73568455 54.8964925 99.87269834 52.78210449 103.0604248 C49.95109814 104.84364062 48.27375995 105.02425434 44.9375 105.03515625 C43.82955078 105.04776489 42.72160156 105.06037354 41.58007812 105.07336426 C40.38833984 105.06526733 39.19660156 105.05717041 37.96875 105.04882812 C36.12700195 105.05456848 36.12700195 105.05456848 34.24804688 105.0604248 C31.65233541 105.06314654 29.05659664 105.05576724 26.4609375 105.0390625 C22.48375401 105.01765887 18.50837718 105.03885775 14.53125 105.06445312 C12.01041267 105.0618099 9.48957647 105.05668503 6.96875 105.04882812 C5.18114258 105.06097351 5.18114258 105.06097351 3.35742188 105.07336426 C2.24947266 105.06075562 1.14152344 105.04814697 0 105.03515625 C-0.97388672 105.03197388 -1.94777344 105.0287915 -2.95117188 105.0255127 C-5.53125 104.51757812 -5.53125 104.51757812 -7.84460449 103.0604248 C-10.37727936 99.24207421 -10.0902799 95.8042367 -10.04882812 91.31445312 C-10.0558374 90.38395142 -10.06284668 89.45344971 -10.07006836 88.49475098 C-10.08767461 85.41872319 -10.07601606 82.34361528 -10.0625 79.26757812 C-10.06519415 77.13053206 -10.06907593 74.99348718 -10.07409668 72.85644531 C-10.0799953 68.37748545 -10.07141683 63.89884466 -10.05273438 59.41992188 C-10.02994487 53.6761536 -10.04306597 47.93313293 -10.06702423 42.18939209 C-10.08147221 37.77647255 -10.07688076 33.36373052 -10.06651306 28.95080566 C-10.06384302 26.83288484 -10.06712524 24.71494796 -10.07643127 22.5970459 C-10.08658018 19.63783018 -10.0711186 16.67982833 -10.04882812 13.72070312 C-10.05692505 12.84369751 -10.06502197 11.96669189 -10.07336426 11.06311035 C-10.02079161 7.2994717 -9.9589925 5.16245791 -7.84460449 1.97473145 C-5.01359814 0.19151563 -3.33625995 0.01090191 0 0 Z " fill="#1E81CE" transform="translate(313.53125,47.482421875)"/>
<path d="M0 0 C1.01331642 -0.00623996 2.02663284 -0.01247993 3.07065582 -0.01890898 C6.47637492 -0.03490224 9.88138459 -0.02220956 13.28710938 -0.00964355 C15.72453226 -0.01506184 18.16195186 -0.02218283 20.59936523 -0.03088379 C26.53855182 -0.04725601 32.47755321 -0.04482345 38.4167347 -0.03323323 C43.24309067 -0.02420413 48.06938996 -0.02297262 52.89575195 -0.02732849 C53.58234469 -0.02794142 54.26893743 -0.02855436 54.976336 -0.02918586 C56.37108296 -0.03046475 57.7658299 -0.0317616 59.16057682 -0.03307623 C72.24288806 -0.04448575 85.32508724 -0.03136253 98.4073801 -0.00987476 C109.63557516 0.0079966 120.86360481 0.00489259 132.09179688 -0.0135498 C145.12689692 -0.03495 158.1618987 -0.04338708 171.19701385 -0.03110075 C172.58666482 -0.02982654 173.9763158 -0.02856905 175.3659668 -0.02732849 C176.04972334 -0.02671139 176.73347989 -0.02609429 177.43795633 -0.02545848 C182.25919863 -0.02200302 187.08037867 -0.02783814 191.90161133 -0.0372467 C198.38917798 -0.04962865 204.87650539 -0.04082857 211.36404419 -0.01766968 C213.74894693 -0.01236815 216.13387591 -0.01392087 218.51876831 -0.02272034 C221.76677765 -0.033602 225.01377446 -0.02000071 228.26171875 0 C229.68758175 -0.01338433 229.68758175 -0.01338433 231.14225006 -0.02703905 C237.50949136 0.04935638 237.50949136 0.04935638 240.71447754 2.41468048 C242.24434825 4.67565844 242.67312141 5.8031641 242.63085938 8.50793457 C242.64632812 9.49793457 242.64632812 9.49793457 242.66210938 10.50793457 C241.84057663 13.60076373 240.72359006 14.5944635 238.13085938 16.50793457 C234.84768948 17.11813001 231.59289401 17.04713831 228.26171875 17.01586914 C227.24840233 17.0221091 226.23508591 17.02834907 225.19106293 17.03477812 C221.78534383 17.05077138 218.38033416 17.0380787 214.97460938 17.0255127 C212.53718649 17.03093098 210.09976689 17.03805197 207.66235352 17.04675293 C201.72316693 17.06312515 195.78416554 17.06069259 189.84498405 17.04910237 C185.01862808 17.04007327 180.19232879 17.03884176 175.3659668 17.04319763 C174.67937406 17.04381056 173.99278132 17.0444235 173.28538275 17.045055 C171.89063579 17.04633389 170.49588885 17.04763074 169.10114193 17.04894537 C156.01883069 17.06035489 142.93663151 17.04723168 129.85433865 17.0257439 C118.62614359 17.00787254 107.39811394 17.01097655 96.16992188 17.02941895 C83.13482183 17.05081914 70.09982005 17.05925622 57.0647049 17.04696989 C55.67505393 17.04569568 54.28540295 17.0444382 52.89575195 17.04319763 C52.21199541 17.04258053 51.52823886 17.04196343 50.82376242 17.04132763 C46.00252012 17.03787216 41.18134008 17.04370728 36.36010742 17.05311584 C29.87254077 17.06549779 23.38521336 17.05669771 16.89767456 17.03353882 C14.51277182 17.02823729 12.12784284 17.02979001 9.74295044 17.03858948 C6.4949411 17.04947114 3.24794429 17.03586985 0 17.01586914 C-1.425863 17.02925347 -1.425863 17.02925347 -2.88053131 17.04290819 C-9.24777261 16.96651276 -9.24777261 16.96651276 -12.45275879 14.60118866 C-13.9826295 12.3402107 -14.41140266 11.21270504 -14.36914062 8.50793457 C-14.38460937 7.51793457 -14.38460937 7.51793457 -14.40039062 6.50793457 C-12.47028052 -0.75836231 -6.1737746 -0.05795216 0 0 Z " fill="#1E81CE" transform="translate(141.869140625,407.4920654296875)"/>
<path d="M0 0 C1.01331642 -0.00623996 2.02663284 -0.01247993 3.07065582 -0.01890898 C6.47637492 -0.03490224 9.88138459 -0.02220956 13.28710938 -0.00964355 C15.72453226 -0.01506184 18.16195186 -0.02218283 20.59936523 -0.03088379 C26.53855182 -0.04725601 32.47755321 -0.04482345 38.4167347 -0.03323323 C43.24309067 -0.02420413 48.06938996 -0.02297262 52.89575195 -0.02732849 C53.58234469 -0.02794142 54.26893743 -0.02855436 54.976336 -0.02918586 C56.37108296 -0.03046475 57.7658299 -0.0317616 59.16057682 -0.03307623 C72.24288806 -0.04448575 85.32508724 -0.03136253 98.4073801 -0.00987476 C109.63557516 0.0079966 120.86360481 0.00489259 132.09179688 -0.0135498 C145.12689692 -0.03495 158.1618987 -0.04338708 171.19701385 -0.03110075 C172.58666482 -0.02982654 173.9763158 -0.02856905 175.3659668 -0.02732849 C176.04972334 -0.02671139 176.73347989 -0.02609429 177.43795633 -0.02545848 C182.25919863 -0.02200302 187.08037867 -0.02783814 191.90161133 -0.0372467 C198.38917798 -0.04962865 204.87650539 -0.04082857 211.36404419 -0.01766968 C213.74894693 -0.01236815 216.13387591 -0.01392087 218.51876831 -0.02272034 C221.76677765 -0.033602 225.01377446 -0.02000071 228.26171875 0 C229.68758175 -0.01338433 229.68758175 -0.01338433 231.14225006 -0.02703905 C237.50949136 0.04935638 237.50949136 0.04935638 240.71447754 2.41468048 C242.24434825 4.67565844 242.67312141 5.8031641 242.63085938 8.50793457 C242.64632812 9.49793457 242.64632812 9.49793457 242.66210938 10.50793457 C241.84057663 13.60076373 240.72359006 14.5944635 238.13085938 16.50793457 C234.84768948 17.11813001 231.59289401 17.04713831 228.26171875 17.01586914 C227.24840233 17.0221091 226.23508591 17.02834907 225.19106293 17.03477812 C221.78534383 17.05077138 218.38033416 17.0380787 214.97460938 17.0255127 C212.53718649 17.03093098 210.09976689 17.03805197 207.66235352 17.04675293 C201.72316693 17.06312515 195.78416554 17.06069259 189.84498405 17.04910237 C185.01862808 17.04007327 180.19232879 17.03884176 175.3659668 17.04319763 C174.67937406 17.04381056 173.99278132 17.0444235 173.28538275 17.045055 C171.89063579 17.04633389 170.49588885 17.04763074 169.10114193 17.04894537 C156.01883069 17.06035489 142.93663151 17.04723168 129.85433865 17.0257439 C118.62614359 17.00787254 107.39811394 17.01097655 96.16992188 17.02941895 C83.13482183 17.05081914 70.09982005 17.05925622 57.0647049 17.04696989 C55.67505393 17.04569568 54.28540295 17.0444382 52.89575195 17.04319763 C52.21199541 17.04258053 51.52823886 17.04196343 50.82376242 17.04132763 C46.00252012 17.03787216 41.18134008 17.04370728 36.36010742 17.05311584 C29.87254077 17.06549779 23.38521336 17.05669771 16.89767456 17.03353882 C14.51277182 17.02823729 12.12784284 17.02979001 9.74295044 17.03858948 C6.4949411 17.04947114 3.24794429 17.03586985 0 17.01586914 C-1.425863 17.02925347 -1.425863 17.02925347 -2.88053131 17.04290819 C-9.24777261 16.96651276 -9.24777261 16.96651276 -12.45275879 14.60118866 C-13.9826295 12.3402107 -14.41140266 11.21270504 -14.36914062 8.50793457 C-14.38460937 7.51793457 -14.38460937 7.51793457 -14.40039062 6.50793457 C-12.47028052 -0.75836231 -6.1737746 -0.05795216 0 0 Z " fill="#1E81CE" transform="translate(141.869140625,359.4920654296875)"/>
<path d="M0 0 C1.01331642 -0.00623996 2.02663284 -0.01247993 3.07065582 -0.01890898 C6.47637492 -0.03490224 9.88138459 -0.02220956 13.28710938 -0.00964355 C15.72453226 -0.01506184 18.16195186 -0.02218283 20.59936523 -0.03088379 C26.53855182 -0.04725601 32.47755321 -0.04482345 38.4167347 -0.03323323 C43.24309067 -0.02420413 48.06938996 -0.02297262 52.89575195 -0.02732849 C53.58234469 -0.02794142 54.26893743 -0.02855436 54.976336 -0.02918586 C56.37108296 -0.03046475 57.7658299 -0.0317616 59.16057682 -0.03307623 C72.24288806 -0.04448575 85.32508724 -0.03136253 98.4073801 -0.00987476 C109.63557516 0.0079966 120.86360481 0.00489259 132.09179688 -0.0135498 C145.12689692 -0.03495 158.1618987 -0.04338708 171.19701385 -0.03110075 C172.58666482 -0.02982654 173.9763158 -0.02856905 175.3659668 -0.02732849 C176.04972334 -0.02671139 176.73347989 -0.02609429 177.43795633 -0.02545848 C182.25919863 -0.02200302 187.08037867 -0.02783814 191.90161133 -0.0372467 C198.38917798 -0.04962865 204.87650539 -0.04082857 211.36404419 -0.01766968 C213.74894693 -0.01236815 216.13387591 -0.01392087 218.51876831 -0.02272034 C221.76677765 -0.033602 225.01377446 -0.02000071 228.26171875 0 C229.68758175 -0.01338433 229.68758175 -0.01338433 231.14225006 -0.02703905 C237.50949136 0.04935638 237.50949136 0.04935638 240.71447754 2.41468048 C242.24434825 4.67565844 242.67312141 5.8031641 242.63085938 8.50793457 C242.64632812 9.49793457 242.64632812 9.49793457 242.66210938 10.50793457 C241.84057663 13.60076373 240.72359006 14.5944635 238.13085938 16.50793457 C234.84768948 17.11813001 231.59289401 17.04713831 228.26171875 17.01586914 C227.24840233 17.0221091 226.23508591 17.02834907 225.19106293 17.03477812 C221.78534383 17.05077138 218.38033416 17.0380787 214.97460938 17.0255127 C212.53718649 17.03093098 210.09976689 17.03805197 207.66235352 17.04675293 C201.72316693 17.06312515 195.78416554 17.06069259 189.84498405 17.04910237 C185.01862808 17.04007327 180.19232879 17.03884176 175.3659668 17.04319763 C174.67937406 17.04381056 173.99278132 17.0444235 173.28538275 17.045055 C171.89063579 17.04633389 170.49588885 17.04763074 169.10114193 17.04894537 C156.01883069 17.06035489 142.93663151 17.04723168 129.85433865 17.0257439 C118.62614359 17.00787254 107.39811394 17.01097655 96.16992188 17.02941895 C83.13482183 17.05081914 70.09982005 17.05925622 57.0647049 17.04696989 C55.67505393 17.04569568 54.28540295 17.0444382 52.89575195 17.04319763 C52.21199541 17.04258053 51.52823886 17.04196343 50.82376242 17.04132763 C46.00252012 17.03787216 41.18134008 17.04370728 36.36010742 17.05311584 C29.87254077 17.06549779 23.38521336 17.05669771 16.89767456 17.03353882 C14.51277182 17.02823729 12.12784284 17.02979001 9.74295044 17.03858948 C6.4949411 17.04947114 3.24794429 17.03586985 0 17.01586914 C-1.425863 17.02925347 -1.425863 17.02925347 -2.88053131 17.04290819 C-9.24777261 16.96651276 -9.24777261 16.96651276 -12.45275879 14.60118866 C-13.9826295 12.3402107 -14.41140266 11.21270504 -14.36914062 8.50793457 C-14.38460937 7.51793457 -14.38460937 7.51793457 -14.40039062 6.50793457 C-12.47028052 -0.75836231 -6.1737746 -0.05795216 0 0 Z " fill="#1E81CE" transform="translate(141.869140625,311.4920654296875)"/>
<path d="M0 0 C10.56 0 21.12 0 32 0 C32 23.76 32 47.52 32 72 C21.44 72 10.88 72 0 72 C0 48.24 0 24.48 0 0 Z " fill="#9BC9FF" transform="translate(320,64)"/>
</svg>
