<?xml version="1.0" encoding="UTF-8"?>
<svg version="1.1" xmlns="http://www.w3.org/2000/svg" width="512" height="512">
<path d="M0 0 C0.969375 0.598125 1.93875 1.19625 2.9375 1.8125 C6.60007518 0.76010421 9.34314776 -1.05306072 12.375 -3.3125 C29.43368428 -15.39365031 48.48524627 -23.022518 68.9375 -27.1875 C69.96488281 -27.41179688 70.99226563 -27.63609375 72.05078125 -27.8671875 C90.79911145 -31.27597481 111.39297535 -30.39407224 129.9375 -26.1875 C130.68112793 -26.02121094 131.42475586 -25.85492188 132.19091797 -25.68359375 C162.3275078 -18.69464872 191.38289149 -1.31871901 210.9375 22.8125 C212.09378906 24.21242188 212.09378906 24.21242188 213.2734375 25.640625 C225.89935628 41.24919905 234.65687727 59.27504192 240.25 78.5 C240.49258545 79.33039795 240.7351709 80.1607959 240.98510742 81.01635742 C244.42740287 93.45315551 245.31628215 105.72680298 245.25 118.5625 C245.24784485 119.31428528 245.2456897 120.06607056 245.24346924 120.84063721 C245.19306936 131.79314337 244.78544686 142.17872123 241.9375 152.8125 C241.65543701 153.94123535 241.65543701 153.94123535 241.36767578 155.09277344 C236.78253018 173.25097137 229.23223256 190.79119581 217.9375 205.8125 C217.00357422 207.05966797 217.00357422 207.05966797 216.05078125 208.33203125 C205.50724574 221.91244717 193.02142677 233.88239801 180.89331055 246.01782227 C179.08844909 247.82732085 177.28378223 249.63701356 175.47929382 251.44688416 C170.61030838 256.32889631 165.73809303 261.20767072 160.86480308 266.08538556 C157.81800404 269.1349627 154.7719365 272.18526978 151.7259922 275.23570061 C143.27678756 283.69707144 134.82665599 292.15751415 126.37306499 300.61450291 C125.83442023 301.15336724 125.29577546 301.69223158 124.74080812 302.24742514 C124.20097955 302.78747199 123.66115097 303.32751884 123.10496396 303.88393074 C122.01129929 304.97803886 120.91763617 306.07214854 119.82397461 307.16625977 C119.28149587 307.70895993 118.73901713 308.2516601 118.18009964 308.81080573 C109.36549867 317.6293656 100.55768826 326.45467499 91.75273111 335.28286279 C82.69302424 344.36627825 73.62770674 353.44406243 64.55672103 362.51621479 C59.47136136 367.60249039 54.38843744 372.69114792 49.31171227 377.78604317 C44.54557598 382.56918009 39.77182782 387.34458531 34.9927845 392.11483192 C33.23981502 393.86702906 31.48941421 395.62180029 29.74176788 397.37930679 C27.35816338 399.77557106 24.96551965 402.16242981 22.57035828 404.5471344 C21.5339271 405.59565019 21.5339271 405.59565019 20.47655791 406.66534811 C15.68127915 411.41171838 11.12235766 415.2199117 4.0625 415.3125 C3.28132812 415.3434375 2.50015625 415.374375 1.6953125 415.40625 C-6.03001202 413.74300733 -11.77153042 407.53376117 -17.1391449 402.1100769 C-17.9114216 401.34177461 -18.6836983 400.57347231 -19.47937733 399.78188813 C-22.05258092 397.21827082 -24.61497239 394.64411933 -27.17749023 392.06982422 C-29.02548424 390.22425944 -30.8741236 388.37934068 -32.72335815 386.53501892 C-37.21673547 382.05110644 -41.70206139 377.55922322 -46.18461805 373.06449609 C-51.4135415 367.82190913 -56.65012991 362.58700606 -61.88694418 357.35230328 C-71.23795626 348.00447801 -80.58153354 338.64925606 -89.92114258 329.29003906 C-98.96585589 320.22634211 -108.01648442 311.1686051 -117.07348633 302.1171875 C-126.95089074 292.24585529 -136.82513958 282.37138717 -146.6938377 272.49135029 C-147.74846243 271.43551838 -148.80308776 270.37968706 -149.8577137 269.32385635 C-150.37650423 268.80446229 -150.89529476 268.28506822 -151.42980621 267.74993493 C-155.06934498 264.10653237 -158.71099814 260.46525157 -162.35342216 256.82473373 C-167.26748342 251.91302936 -172.17601612 246.99585439 -177.0810051 242.07509041 C-178.87673014 240.27514207 -180.67412806 238.47686079 -182.47336388 236.68042183 C-199.81756191 219.35908631 -199.81756191 219.35908631 -207.0625 209.8125 C-207.7210657 208.96841741 -207.7210657 208.96841741 -208.39293575 208.10728264 C-220.7680165 191.9669387 -229.00130357 173.40899765 -234.0625 153.8125 C-234.25312012 153.09690918 -234.44374023 152.38131836 -234.64013672 151.64404297 C-239.77971893 131.34538796 -239.46530866 104.98572474 -234.0625 84.8125 C-233.87445801 84.06000977 -233.68641602 83.30751953 -233.49267578 82.53222656 C-226.63269458 55.36517291 -213.13874318 32.86344504 -193.42578125 13.1796875 C-192.10568953 11.85741381 -190.79697304 10.52252554 -189.53515625 9.14453125 C-171.03432044 -10.79127243 -143.03151633 -21.68081702 -117.0625 -27.1875 C-115.38220703 -27.55875 -115.38220703 -27.55875 -113.66796875 -27.9375 C-74.62763376 -35.0089569 -31.11559926 -24.57197538 0 0 Z " fill="#FC4654" transform="translate(252.0625,63.1875)"/>
<path d="M0 0 C0.969375 0.598125 1.93875 1.19625 2.9375 1.8125 C6.60007518 0.76010421 9.34314776 -1.05306072 12.375 -3.3125 C29.43368428 -15.39365031 48.48524627 -23.022518 68.9375 -27.1875 C69.96488281 -27.41179688 70.99226563 -27.63609375 72.05078125 -27.8671875 C90.79911145 -31.27597481 111.39297535 -30.39407224 129.9375 -26.1875 C130.68112793 -26.02121094 131.42475586 -25.85492188 132.19091797 -25.68359375 C162.3275078 -18.69464872 191.38289149 -1.31871901 210.9375 22.8125 C212.09378906 24.21242188 212.09378906 24.21242188 213.2734375 25.640625 C225.89935628 41.24919905 234.65687727 59.27504192 240.25 78.5 C240.49258545 79.33039795 240.7351709 80.1607959 240.98510742 81.01635742 C244.42740287 93.45315551 245.31628215 105.72680298 245.25 118.5625 C245.24784485 119.31428528 245.2456897 120.06607056 245.24346924 120.84063721 C245.19306936 131.79314337 244.78544686 142.17872123 241.9375 152.8125 C241.65543701 153.94123535 241.65543701 153.94123535 241.36767578 155.09277344 C236.78253018 173.25097137 229.23223256 190.79119581 217.9375 205.8125 C217.00357422 207.05966797 217.00357422 207.05966797 216.05078125 208.33203125 C205.50724574 221.91244717 193.02142677 233.88239801 180.89331055 246.01782227 C179.08844909 247.82732085 177.28378223 249.63701356 175.47929382 251.44688416 C170.61030838 256.32889631 165.73809303 261.20767072 160.86480308 266.08538556 C157.81800404 269.1349627 154.7719365 272.18526978 151.7259922 275.23570061 C143.27678756 283.69707144 134.82665599 292.15751415 126.37306499 300.61450291 C125.83442023 301.15336724 125.29577546 301.69223158 124.74080812 302.24742514 C124.20097955 302.78747199 123.66115097 303.32751884 123.10496396 303.88393074 C122.01129929 304.97803886 120.91763617 306.07214854 119.82397461 307.16625977 C119.28149587 307.70895993 118.73901713 308.2516601 118.18009964 308.81080573 C109.36549867 317.6293656 100.55768826 326.45467499 91.75273111 335.28286279 C82.69302424 344.36627825 73.62770674 353.44406243 64.55672103 362.51621479 C59.47136136 367.60249039 54.38843744 372.69114792 49.31171227 377.78604317 C44.54557598 382.56918009 39.77182782 387.34458531 34.9927845 392.11483192 C33.23981502 393.86702906 31.48941421 395.62180029 29.74176788 397.37930679 C27.35816338 399.77557106 24.96551965 402.16242981 22.57035828 404.5471344 C21.5339271 405.59565019 21.5339271 405.59565019 20.47655791 406.66534811 C15.68127915 411.41171838 11.12235766 415.2199117 4.0625 415.3125 C3.28132812 415.3434375 2.50015625 415.374375 1.6953125 415.40625 C-6.03001202 413.74300733 -11.77153042 407.53376117 -17.1391449 402.1100769 C-17.9114216 401.34177461 -18.6836983 400.57347231 -19.47937733 399.78188813 C-22.05258092 397.21827082 -24.61497239 394.64411933 -27.17749023 392.06982422 C-29.02548424 390.22425944 -30.8741236 388.37934068 -32.72335815 386.53501892 C-37.21673547 382.05110644 -41.70206139 377.55922322 -46.18461805 373.06449609 C-51.4135415 367.82190913 -56.65012991 362.58700606 -61.88694418 357.35230328 C-71.23795626 348.00447801 -80.58153354 338.64925606 -89.92114258 329.29003906 C-98.96585589 320.22634211 -108.01648442 311.1686051 -117.07348633 302.1171875 C-126.95089074 292.24585529 -136.82513958 282.37138717 -146.6938377 272.49135029 C-147.74846243 271.43551838 -148.80308776 270.37968706 -149.8577137 269.32385635 C-150.37650423 268.80446229 -150.89529476 268.28506822 -151.42980621 267.74993493 C-155.06934498 264.10653237 -158.71099814 260.46525157 -162.35342216 256.82473373 C-167.26748342 251.91302936 -172.17601612 246.99585439 -177.0810051 242.07509041 C-178.87673014 240.27514207 -180.67412806 238.47686079 -182.47336388 236.68042183 C-199.81756191 219.35908631 -199.81756191 219.35908631 -207.0625 209.8125 C-207.7210657 208.96841741 -207.7210657 208.96841741 -208.39293575 208.10728264 C-220.7680165 191.9669387 -229.00130357 173.40899765 -234.0625 153.8125 C-234.25312012 153.09690918 -234.44374023 152.38131836 -234.64013672 151.64404297 C-239.77971893 131.34538796 -239.46530866 104.98572474 -234.0625 84.8125 C-233.87445801 84.06000977 -233.68641602 83.30751953 -233.49267578 82.53222656 C-226.63269458 55.36517291 -213.13874318 32.86344504 -193.42578125 13.1796875 C-192.10568953 11.85741381 -190.79697304 10.52252554 -189.53515625 9.14453125 C-171.03432044 -10.79127243 -143.03151633 -21.68081702 -117.0625 -27.1875 C-115.38220703 -27.55875 -115.38220703 -27.55875 -113.66796875 -27.9375 C-74.62763376 -35.0089569 -31.11559926 -24.57197538 0 0 Z M-170.0625 35.8125 C-170.81144531 36.49828125 -171.56039062 37.1840625 -172.33203125 37.890625 C-192.30953465 56.78353539 -204.31806539 84.72287999 -205.30078125 112.10546875 C-205.70671111 133.45484228 -202.37703546 151.56622921 -193.0625 170.8125 C-192.55589844 171.87082031 -192.04929687 172.92914063 -191.52734375 174.01953125 C-186.16672704 184.45705516 -178.81825023 193.17860968 -170.80236816 201.6436615 C-169.75285846 202.75471076 -169.75285846 202.75471076 -168.68214655 203.88820547 C-160.96003912 212.02724932 -153.04224008 219.96599764 -145.09960938 227.88891602 C-143.471439 229.51680337 -141.84349066 231.14491282 -140.21574402 232.77322388 C-135.85336279 237.13588863 -131.48793493 241.49549263 -127.12189674 245.85449719 C-122.53839187 250.43169355 -117.95777369 255.01177704 -113.37683105 259.59153748 C-105.7061246 267.25950236 -98.03368175 274.92572573 -90.35986328 282.59057617 C-82.46511845 290.47610453 -74.57145258 298.36271044 -66.67919922 306.25073242 C-66.19054852 306.73912039 -65.70189783 307.22750836 -65.19843954 307.73069597 C-62.74638061 310.18144961 -60.2943425 312.63222408 -57.84231472 315.08300889 C-37.58560103 335.32940057 -17.32522641 355.57212598 2.9375 375.8125 C5.81597384 374.50690683 7.88109022 373.11873089 10.11194324 370.88694572 C10.71821798 370.28526978 11.32449272 369.68359384 11.94913942 369.0636853 C12.60584727 368.40183388 13.26255512 367.73998247 13.93916321 367.05807495 C14.64409651 366.35555607 15.3490298 365.65303719 16.07532471 364.92922986 C18.44212807 362.56807332 20.80170036 360.19982025 23.16137695 357.83154297 C24.85459892 356.13939368 26.5482537 354.44767737 28.24230957 352.75636292 C32.36947274 348.63355043 36.49196287 344.50610852 40.61232368 340.37649851 C45.4146409 335.56379027 50.22218803 330.75632058 55.02994611 325.94904865 C63.61351956 317.36597596 72.19225187 308.77808074 80.76831055 300.1875 C89.08045155 291.8612912 97.39606636 283.53857259 105.71557617 275.21972656 C106.48318845 274.45217422 106.48318845 274.45217422 107.26630805 273.66911577 C108.03262018 272.90286416 108.03262018 272.90286416 108.81441337 272.12113273 C118.29369154 262.64254591 127.76966919 253.16066549 137.24412966 243.67726322 C140.58892328 240.32946162 143.93468494 236.98262935 147.280756 233.63610458 C151.79335517 229.12249809 156.30338519 224.60633957 160.81147003 220.08822441 C162.46376831 218.43301402 164.1169032 216.77863826 165.77094841 215.12517357 C168.03458494 212.86203073 170.29510685 210.59582063 172.55488586 208.3288269 C173.20490155 207.68035982 173.85491724 207.03189274 174.52463037 206.36377513 C198.43062853 182.33225367 213.09961117 153.11993927 213.3125 118.8125 C213.08112098 85.65250724 199.73457586 56.96757805 176.3190918 33.77368164 C154.79816158 13.16359818 125.10443657 2.15479418 95.42602539 2.45874023 C65.31294783 3.44163892 38.10593258 14.77879189 16.375 35.6484375 C11.71536634 39.78535585 8.36492772 41.41885781 2.1875 41.14453125 C-4.00483749 40.23073145 -7.74229974 36.23897996 -12.125 32.125 C-32.60997308 13.07116888 -62.29867529 1.98680144 -90.26611328 2.40820312 C-120.61098078 3.55505375 -148.07792936 14.73638269 -170.0625 35.8125 Z " fill="#000000" transform="translate(252.0625,63.1875)"/>
<path d="M0 0 C13.81846794 9.51938903 21.82775078 26.75558405 24.8125 42.9375 C26.9254741 63.54769288 22.32589256 82.54564937 9.47265625 98.91796875 C1.26738605 108.37928697 1.26738605 108.37928697 -4.87109375 109.37109375 C-10.81957158 109.37953131 -14.57018463 109.09308383 -19.1875 104.9375 C-23.06817382 100.52156083 -23.65565298 96.27588719 -23.59765625 90.55078125 C-23.01204944 86.81962926 -21.31529255 84.82198676 -18.91015625 81.99609375 C-10.76097997 72.25773571 -7.49575981 62.32303235 -7.7734375 49.7265625 C-8.79584336 40.37058432 -13.28052801 33.03877781 -19.1875 25.9375 C-22.92353857 21.24489117 -23.59548626 17.41544101 -23.53515625 11.51171875 C-22.8356193 6.3320013 -19.77853987 3.34670674 -16 0 C-10.67678371 -2.01099282 -5.36124329 -1.7870811 0 0 Z " fill="#020000" transform="translate(396.1875,128.0625)"/>
</svg>
