<?xml version="1.0" encoding="UTF-8"?>
<svg version="1.1" xmlns="http://www.w3.org/2000/svg" width="512" height="512">
<path d="M0 0 C1.02609375 -0.03738281 2.0521875 -0.07476563 3.109375 -0.11328125 C10.50139207 0.88887032 15.09170139 7.02362692 19.875 12.25 C20.85726562 13.30477539 20.85726562 13.30477539 21.859375 14.38085938 C24.53489792 17.27031581 27.11363868 20.13607375 29.5234375 23.25390625 C31.16386802 25.57471227 31.16386802 25.57471227 34.25 26.3125 C34.50740967 25.73435547 34.76481934 25.15621094 35.0300293 24.56054688 C36.35977797 22.11021151 37.85822428 20.37005415 39.76953125 18.34375 C40.46240234 17.60769531 41.15527344 16.87164063 41.86914062 16.11328125 C42.59294922 15.35402344 43.31675781 14.59476563 44.0625 13.8125 C44.77470703 13.05324219 45.48691406 12.29398438 46.22070312 11.51171875 C56.92135149 0.20724101 56.92135149 0.20724101 64.875 -0.125 C70.29904399 -0.06639688 73.37469126 0.9251642 77.62890625 4.21875 C83.78338587 12.16766825 82.41106723 21.37017042 81.9375 30.8125 C81.8741374 32.31764538 81.8122751 33.8228547 81.75195312 35.328125 C81.60194639 38.99048279 81.43158434 42.65155613 81.25 46.3125 C82.6412207 46.24349487 82.6412207 46.24349487 84.06054688 46.1730957 C87.5341549 46.00883275 91.00775498 45.85970226 94.48242188 45.72045898 C95.98008063 45.65741155 97.47750586 45.58851293 98.97460938 45.51342773 C116.50995876 44.64250538 116.50995876 44.64250538 123.34375 49.93359375 C127.26569001 54.99943292 128.07035193 59.18163457 127.6875 65.5625 C126.0833686 75.64561163 113.09141688 85.28590886 105.25 91.3125 C103.9346659 92.01401152 102.60524803 92.69159341 101.25 93.3125 C103.31088448 97.09739362 105.49767179 99.68589134 108.75 102.5 C109.6265625 103.27085938 110.503125 104.04171875 111.40625 104.8359375 C112.3446875 105.65320313 113.283125 106.47046875 114.25 107.3125 C116.25939294 109.07332166 118.25619715 110.84631799 120.25 112.625 C121.1575 113.42550781 122.065 114.22601563 123 115.05078125 C126.86461031 118.93551974 127.55574939 121.74440244 127.625 127.1875 C127.52992395 132.39766768 126.89060053 135.37671564 123.25 139.3125 C114.3657697 147.32997613 100.55185653 144.38815724 89.3125 143.8125 C86.29126538 143.65195524 83.2706291 143.4842312 80.25 143.3125 C80.47429687 144.92125 80.47429687 144.92125 80.703125 146.5625 C81.39441593 152.1320496 81.71568658 157.70944528 82 163.3125 C82.06832031 164.3540625 82.13664062 165.395625 82.20703125 166.46875 C82.56104918 173.6580372 82.35225566 179.59684379 77.53125 185.37109375 C76.9434375 185.82613281 76.355625 186.28117188 75.75 186.75 C75.1621875 187.22308594 74.574375 187.69617188 73.96875 188.18359375 C70.04185319 190.76285097 65.78600482 190.88544749 61.25 190.3125 C54.76242952 188.12221308 50.56792095 184.03697442 46.125 179 C45.54363281 178.36126953 44.96226562 177.72253906 44.36328125 177.06445312 C40.99061345 173.34093733 37.72299677 169.53813788 34.51611328 165.67114258 C33.27276997 164.17827908 33.27276997 164.17827908 31.25 163.3125 C30.98574219 163.90546875 30.72148437 164.4984375 30.44921875 165.109375 C29.20629575 167.39279054 27.94598354 168.78676723 26.0625 170.5625 C23.49538409 173.04475257 21.11711909 175.58501502 18.8125 178.3125 C8.78155524 189.9284699 8.78155524 189.9284699 0.5625 190.625 C-4.20683726 190.5285612 -7.96930978 189.24676704 -11.75 186.3125 C-13.74312947 183.78368683 -15.2560157 181.15430494 -16.75 178.3125 C-21.82180756 182.56079242 -26.58741455 186.99607382 -31.25 191.6875 C-31.87519531 192.30882812 -32.50039063 192.93015625 -33.14453125 193.5703125 C-36.20472359 196.63684064 -39.15557114 199.74396499 -41.96875 203.0390625 C-47.4015473 209.32894622 -53.44166309 215.0592972 -59.35253906 220.89453125 C-64.71613935 226.19564938 -69.99585996 231.49355925 -74.89453125 237.234375 C-79.59608581 242.5001161 -84.75597145 247.36531128 -89.77978516 252.32177734 C-95.66652761 258.1367072 -101.36860474 264.02021474 -106.75 270.3125 C-108.41353015 272.14702444 -110.0980008 273.96301791 -111.8125 275.75 C-112.60785156 276.59433594 -113.40320313 277.43867188 -114.22265625 278.30859375 C-117.18534597 280.65768158 -119.00337141 281.11845151 -122.75 281.3125 C-123.40774414 281.1050415 -124.06548828 280.89758301 -124.74316406 280.68383789 C-125.40541992 280.56129639 -126.06767578 280.43875488 -126.75 280.3125 C-129.12423577 282.03313693 -131.01762497 283.63016919 -133.0625 285.6875 C-133.61574951 286.23825195 -134.16899902 286.78900391 -134.73901367 287.35644531 C-137.85173998 290.62035087 -137.85173998 290.62035087 -139.0625 294.8359375 C-138.73015546 296.31590929 -138.3721186 297.7903527 -137.98828125 299.2578125 C-137.75 301.3125 -137.75 301.3125 -138.66796875 303.1171875 C-140.58418796 305.32202244 -142.62899156 307.30142187 -144.75 309.3125 C-146.59606935 311.1447451 -148.43185094 312.98698556 -150.26757812 314.82958984 C-151.55730816 316.11963755 -152.85261376 317.4041431 -154.15429688 318.68212891 C-157.31044992 321.79148155 -160.32585236 324.93924721 -163.1953125 328.31640625 C-165.60173464 331.11802391 -168.10293591 333.58308696 -170.8984375 335.99609375 C-179.53369512 343.02638915 -179.53369512 343.02638915 -183.76171875 352.84765625 C-183.86021868 355.07757856 -183.81469216 357.25925511 -183.72290039 359.48876953 C-183.53708901 364.19856431 -183.87897444 366.57971018 -187.0625 370.125 C-188.26079246 371.22220195 -189.48750573 372.28982451 -190.75 373.3125 C-191.9565625 374.55 -191.9565625 374.55 -193.1875 375.8125 C-193.703125 376.3075 -194.21875 376.8025 -194.75 377.3125 C-193.60286634 379.89355073 -192.52984537 381.54523489 -190.5625 383.625 C-188.75 386.3125 -188.75 386.3125 -188.8125 389.9375 C-190.13194444 394.6875 -190.13194444 394.6875 -192.75 396.3125 C-196.31879107 397.3986538 -198.02230873 397.65096106 -201.4375 396.0625 C-203.39482261 394.58128289 -205.10616428 393.12937106 -206.75 391.3125 C-209.7933007 392.68350338 -211.99017671 394.25989259 -214.41325378 396.54682922 C-215.12409622 397.21445786 -215.83493866 397.88208649 -216.56732178 398.56994629 C-217.33683167 399.30265747 -218.10634155 400.03536865 -218.89916992 400.7902832 C-220.12658653 401.94979744 -220.12658653 401.94979744 -221.37879944 403.13273621 C-228.94235214 410.3008785 -236.42676222 417.55181022 -243.88343334 424.83092976 C-248.88566151 429.71142346 -253.91047748 434.56235759 -259.00561523 439.34594727 C-263.94564382 443.98392955 -268.80609298 448.69459861 -273.62758827 453.45564842 C-275.46416326 455.24598776 -277.32472284 457.01210066 -279.21007347 458.75100136 C-289.11968616 467.92513777 -295.47657391 474.95205383 -296.19855976 488.87729931 C-296.21051917 493.74357551 -296.02473813 498.56964474 -295.60854053 503.41818523 C-295.79036669 507.13841787 -297.11107913 509.67357913 -299.75 512.3125 C-311.73011084 516.12778803 -324.96224737 517.26230234 -336.75 512.3125 C-355.09522351 501.56452299 -380.49204296 479.27871902 -386.90917969 458.45605469 C-389.1497596 448.27980097 -388.37371718 437.09372732 -384.75 427.3125 C-382.78698117 424.77555759 -381.87464882 424.35404961 -378.75 423.3125 C-376.99765024 423.63030423 -375.2548835 424.0019917 -373.51953125 424.40234375 C-364.00772469 425.83047986 -355.33201136 426.18729508 -347.17382812 420.52423096 C-333.93185676 409.82096813 -322.5144025 396.71419047 -311.31391907 383.94458008 C-309.75 382.3125 -309.75 382.3125 -307.75 381.3125 C-307.09128906 381.40789062 -306.43257813 381.50328125 -305.75390625 381.6015625 C-301.06620829 382.24658974 -298.57442271 381.88057236 -294.609375 379.1484375 C-289.13119603 374.40054532 -289.13119603 374.40054532 -286.38671875 367.9765625 C-286.76813104 365.65324786 -286.76813104 365.65324786 -287.75 362.3125 C-285.83678726 358.24140444 -283.04023353 355.36891252 -279.86328125 352.23046875 C-279.1704731 351.54190544 -279.1704731 351.54190544 -278.46366882 350.83943176 C-277.00127862 349.38815086 -275.53205874 347.94401796 -274.0625 346.5 C-273.06399177 345.51153354 -272.06594011 344.52260563 -271.06835938 343.53320312 C-268.63335692 341.12172726 -266.1938041 338.71505043 -263.75 336.3125 C-265.11281388 333.34805494 -265.11281388 333.34805494 -267.3125 331 C-269.62770552 328.28215004 -269.62954938 325.80556802 -269.75 322.3125 C-268.8125 319.4375 -268.8125 319.4375 -266.75 317.3125 C-261.93846446 315.78884708 -261.93846446 315.78884708 -258.75 316.3125 C-256.05003601 317.98728969 -253.90523594 319.98888625 -251.75 322.3125 C-248.32719483 320.84667985 -246.18519517 318.93187745 -243.625 316.25 C-239.94444444 312.40972222 -239.94444444 312.40972222 -237.75 311.3125 C-236.70199219 311.45171875 -235.65398437 311.5909375 -234.57421875 311.734375 C-228.3085912 312.37601237 -223.25756723 312.14246764 -218.02148438 308.32128906 C-212.30057438 303.18770444 -207.17941325 297.51774716 -202.05810547 291.79589844 C-199.50404123 289.04786147 -196.79367993 286.65523707 -193.93188477 284.23876953 C-188.96822488 279.85661931 -184.40032545 275.02310744 -179.75 270.3125 C-173.92578649 264.41278743 -168.13944286 258.55345279 -161.828125 253.16796875 C-157.09434772 248.9413819 -152.70574442 244.32878834 -148.25 239.8125 C-142.59773283 234.08343076 -136.96942863 228.41740672 -130.84570312 223.18554688 C-126.10763724 218.95087289 -121.71177625 214.33490213 -117.25 209.8125 C-105.51020006 197.91318159 -105.51020006 197.91318159 -99.38867188 192.73242188 C-97.70516646 191.3251402 -97.70516646 191.3251402 -96.17773438 189.62109375 C-94.75 188.3125 -94.75 188.3125 -92.4375 188.40625 C-91.550625 188.5403125 -90.66375 188.674375 -89.75 188.8125 C-85.02049006 188.97057186 -82.53771189 187.91586337 -79 184.7265625 C-78.505 184.23929688 -78.01 183.75203125 -77.5 183.25 C-77.01015625 182.78464844 -76.5203125 182.31929687 -76.015625 181.83984375 C-74.43094725 180.23778999 -74.43094725 180.23778999 -72.75 177.3125 C-73.00718434 174.96955063 -73.33903154 172.63341803 -73.75 170.3125 C-71.82857642 166.3533973 -69.19479413 163.5223286 -66.08203125 160.44921875 C-65.18935547 159.56298828 -64.29667969 158.67675781 -63.37695312 157.76367188 C-61.98379883 156.3956543 -61.98379883 156.3956543 -60.5625 155 C-59.6121685 154.0597112 -58.662294 153.11896029 -57.71289062 152.17773438 C-55.39637877 149.88474041 -53.07532199 147.59655348 -50.75 145.3125 C-52.91072262 143.67934235 -55.07510739 142.09047544 -57.3125 140.5625 C-61.320355 136.86294153 -62.8882056 132.63449882 -63.125 127.25 C-62.47514858 120.42656007 -59.38271653 116.55924428 -54.5625 111.875 C-53.83546875 111.1644043 -53.83546875 111.1644043 -53.09375 110.43945312 C-49.63634824 107.08695933 -46.07979272 103.8631718 -42.40625 100.75 C-40.70880776 99.32465803 -40.70880776 99.32465803 -39.15625 97.625 C-37.75 96.3125 -37.75 96.3125 -35.75 96.3125 C-40.76653126 90.1672492 -46.30186908 85.19191988 -52.37890625 80.1171875 C-62.01574494 71.84100872 -62.01574494 71.84100872 -63.015625 64.3125 C-63.2686833 59.54054357 -62.3782125 56.25481875 -59.75 52.3125 C-55.31586053 47.97689696 -51.46309987 45.42460672 -45.14624023 45.23388672 C-42.05019966 45.30407081 -38.96684816 45.44988314 -35.875 45.625 C-34.82441406 45.67333984 -33.77382813 45.72167969 -32.69140625 45.77148438 C-26.99925419 46.05288614 -21.39317634 46.51701611 -15.75 47.3125 C-15.8221875 46.1265625 -15.894375 44.940625 -15.96875 43.71875 C-16.44123524 35.65215363 -16.86892799 27.58020369 -17 19.5 C-17.02578125 18.25605469 -17.0515625 17.01210938 -17.078125 15.73046875 C-16.64741203 11.24387534 -15.30591476 7.97926874 -12.21484375 4.66796875 C-7.76820569 1.26759847 -5.57902061 0.13184253 0 0 Z " fill="#010000" transform="translate(384.75,-0.3125)"/>
<path d="M0 0 C1.02609375 -0.03738281 2.0521875 -0.07476563 3.109375 -0.11328125 C10.50139207 0.88887032 15.09170139 7.02362692 19.875 12.25 C20.85726562 13.30477539 20.85726562 13.30477539 21.859375 14.38085938 C24.53489792 17.27031581 27.11363868 20.13607375 29.5234375 23.25390625 C31.16386802 25.57471227 31.16386802 25.57471227 34.25 26.3125 C34.50740967 25.73435547 34.76481934 25.15621094 35.0300293 24.56054688 C36.35977797 22.11021151 37.85822428 20.37005415 39.76953125 18.34375 C40.46240234 17.60769531 41.15527344 16.87164063 41.86914062 16.11328125 C42.59294922 15.35402344 43.31675781 14.59476563 44.0625 13.8125 C44.77470703 13.05324219 45.48691406 12.29398438 46.22070312 11.51171875 C56.92135149 0.20724101 56.92135149 0.20724101 64.875 -0.125 C70.29904399 -0.06639688 73.37469126 0.9251642 77.62890625 4.21875 C83.78338587 12.16766825 82.41106723 21.37017042 81.9375 30.8125 C81.8741374 32.31764538 81.8122751 33.8228547 81.75195312 35.328125 C81.60194639 38.99048279 81.43158434 42.65155613 81.25 46.3125 C82.6412207 46.24349487 82.6412207 46.24349487 84.06054688 46.1730957 C87.5341549 46.00883275 91.00775498 45.85970226 94.48242188 45.72045898 C95.98008063 45.65741155 97.47750586 45.58851293 98.97460938 45.51342773 C116.50995876 44.64250538 116.50995876 44.64250538 123.34375 49.93359375 C127.26569001 54.99943292 128.07035193 59.18163457 127.6875 65.5625 C126.0833686 75.64561163 113.09141688 85.28590886 105.25 91.3125 C103.9346659 92.01401152 102.60524803 92.69159341 101.25 93.3125 C103.31088448 97.09739362 105.49767179 99.68589134 108.75 102.5 C109.6265625 103.27085938 110.503125 104.04171875 111.40625 104.8359375 C112.3446875 105.65320313 113.283125 106.47046875 114.25 107.3125 C116.25939294 109.07332166 118.25619715 110.84631799 120.25 112.625 C121.61125 113.82576172 121.61125 113.82576172 123 115.05078125 C126.86461031 118.93551974 127.55574939 121.74440244 127.625 127.1875 C127.52992395 132.39766768 126.89060053 135.37671564 123.25 139.3125 C114.3657697 147.32997613 100.55185653 144.38815724 89.3125 143.8125 C86.29126538 143.65195524 83.2706291 143.4842312 80.25 143.3125 C80.47429687 144.92125 80.47429687 144.92125 80.703125 146.5625 C81.39441593 152.1320496 81.71568658 157.70944528 82 163.3125 C82.06832031 164.3540625 82.13664063 165.395625 82.20703125 166.46875 C82.56104918 173.6580372 82.35225566 179.59684379 77.53125 185.37109375 C76.9434375 185.82613281 76.355625 186.28117188 75.75 186.75 C75.1621875 187.22308594 74.574375 187.69617188 73.96875 188.18359375 C70.04185319 190.76285097 65.78600482 190.88544749 61.25 190.3125 C54.76242952 188.12221308 50.56792095 184.03697442 46.125 179 C45.54363281 178.36126953 44.96226562 177.72253906 44.36328125 177.06445312 C40.99061345 173.34093733 37.72299677 169.53813788 34.51611328 165.67114258 C33.27276997 164.17827908 33.27276997 164.17827908 31.25 163.3125 C30.85361328 164.20195312 30.85361328 164.20195312 30.44921875 165.109375 C29.20629575 167.39279054 27.94598354 168.78676723 26.0625 170.5625 C23.49538409 173.04475257 21.11711909 175.58501502 18.8125 178.3125 C8.78155524 189.9284699 8.78155524 189.9284699 0.5625 190.625 C-4.20683726 190.5285612 -7.96930978 189.24676704 -11.75 186.3125 C-13.74312947 183.78368683 -15.2560157 181.15430494 -16.75 178.3125 C-21.82180756 182.56079242 -26.58741455 186.99607382 -31.25 191.6875 C-31.87519531 192.30882812 -32.50039063 192.93015625 -33.14453125 193.5703125 C-36.20472359 196.63684064 -39.15557114 199.74396499 -41.96875 203.0390625 C-47.4015473 209.32894622 -53.44166309 215.0592972 -59.35253906 220.89453125 C-64.71613935 226.19564938 -69.99585996 231.49355925 -74.89453125 237.234375 C-79.59608581 242.5001161 -84.75597145 247.36531128 -89.77978516 252.32177734 C-95.66652761 258.1367072 -101.36860474 264.02021474 -106.75 270.3125 C-108.41353015 272.14702444 -110.0980008 273.96301791 -111.8125 275.75 C-112.60785156 276.59433594 -113.40320313 277.43867188 -114.22265625 278.30859375 C-117.15623241 280.63459772 -119.04754481 281.08779927 -122.75 281.3125 C-125.38196539 280.50828835 -126.40518021 279.7952477 -128 277.5625 C-129.01238915 274.52533254 -129.14156002 272.51476314 -128.75 269.3125 C-126.94287488 267.08697645 -125.29300168 265.32969102 -123.1875 263.4375 C-122.14175022 262.46391614 -121.09881537 261.48730069 -120.05859375 260.5078125 C-119.24140869 259.73969238 -119.24140869 259.73969238 -118.40771484 258.95605469 C-116.69386465 257.25684416 -115.13245497 255.48436469 -113.56640625 253.6484375 C-108.30309164 247.53277309 -102.45989543 241.96595891 -96.72021484 236.30322266 C-89.786338 229.4963643 -89.786338 229.4963643 -83.25 222.3125 C-78.1115007 216.29805004 -72.34740606 210.85497754 -66.72021484 205.30322266 C-59.786338 198.4963643 -59.786338 198.4963643 -53.25 191.3125 C-48.1115007 185.29805004 -42.34740606 179.85497754 -36.72021484 174.30322266 C-29.80963542 167.52331484 -29.80963542 167.52331484 -23.3046875 160.359375 C-20.32532409 156.86941714 -17.12107048 153.63739018 -13.8515625 150.421875 C-13.06425751 149.64638306 -13.06425751 149.64638306 -12.26104736 148.85522461 C-10.07723766 146.70795397 -7.89054202 144.56380881 -5.69482422 142.42871094 C-4.07366706 140.84980355 -2.46204742 139.26165652 -0.8515625 137.671875 C-0.35371246 137.19264587 0.14413757 136.71341675 0.65707397 136.21966553 C4.08342154 132.83282691 4.08342154 132.83282691 5.25 128.3125 C4.07050127 126.52818355 4.07050127 126.52818355 2.3125 125.0625 C1.74660156 124.54171875 1.18070313 124.0209375 0.59765625 123.484375 C-0.06943359 122.90429688 -0.06943359 122.90429688 -0.75 122.3125 C-5.85893807 123.79512421 -8.70483728 126.89475698 -12.30078125 130.60546875 C-12.91841843 131.22972244 -13.5360556 131.85397614 -14.17240906 132.49714661 C-16.14302392 134.49110185 -18.10321287 136.49491823 -20.0625 138.5 C-22.63811994 141.12225773 -25.21805612 143.74020967 -27.80078125 146.35546875 C-28.4202916 146.98366013 -29.03980194 147.6118515 -29.67808533 148.25907898 C-33.30133319 151.91376182 -36.99983519 155.39773482 -40.93188477 158.72143555 C-44.66519804 161.98852331 -48.08715052 165.58830278 -51.5625 169.125 C-53.04582138 170.63382992 -54.53140176 172.14044327 -56.01953125 173.64453125 C-56.66510986 174.30171143 -57.31068848 174.9588916 -57.97583008 175.63598633 C-59.75 177.3125 -59.75 177.3125 -62.75 179.3125 C-66.14718024 179.1305082 -68.75627459 178.97498361 -71.625 177.0625 C-73.13463345 174.7141813 -73.61663055 173.11325852 -73.75 170.3125 C-71.75225216 166.38485543 -69.20382818 163.53124756 -66.08203125 160.44921875 C-65.18935547 159.56298828 -64.29667969 158.67675781 -63.37695312 157.76367188 C-61.98379883 156.3956543 -61.98379883 156.3956543 -60.5625 155 C-59.6121685 154.0597112 -58.662294 153.11896029 -57.71289062 152.17773438 C-55.39637877 149.88474041 -53.07532199 147.59655348 -50.75 145.3125 C-52.91072262 143.67934235 -55.07510739 142.09047544 -57.3125 140.5625 C-61.320355 136.86294153 -62.8882056 132.63449882 -63.125 127.25 C-62.47514858 120.42656007 -59.38271653 116.55924428 -54.5625 111.875 C-53.83546875 111.1644043 -53.83546875 111.1644043 -53.09375 110.43945312 C-49.63634824 107.08695933 -46.07979272 103.8631718 -42.40625 100.75 C-40.70880776 99.32465803 -40.70880776 99.32465803 -39.15625 97.625 C-37.75 96.3125 -37.75 96.3125 -35.75 96.3125 C-40.76653126 90.1672492 -46.30186908 85.19191988 -52.37890625 80.1171875 C-62.01574494 71.84100872 -62.01574494 71.84100872 -63.015625 64.3125 C-63.2686833 59.54054357 -62.3782125 56.25481875 -59.75 52.3125 C-55.31586053 47.97689696 -51.46309987 45.42460672 -45.14624023 45.23388672 C-42.05019966 45.30407081 -38.96684816 45.44988314 -35.875 45.625 C-34.82441406 45.67333984 -33.77382813 45.72167969 -32.69140625 45.77148438 C-26.99925419 46.05288614 -21.39317634 46.51701611 -15.75 47.3125 C-15.85828125 45.53359375 -15.85828125 45.53359375 -15.96875 43.71875 C-16.44123524 35.65215363 -16.86892799 27.58020369 -17 19.5 C-17.02578125 18.25605469 -17.0515625 17.01210938 -17.078125 15.73046875 C-16.64741203 11.24387534 -15.30591476 7.97926874 -12.21484375 4.66796875 C-7.76820569 1.26759847 -5.57902061 0.13184253 0 0 Z " fill="#020100" transform="translate(384.75,-0.3125)"/>
<path d="M0 0 C3.97151077 1.81533706 6.45403056 4.39450734 9.3125 7.625 C9.7974292 8.16189453 10.2823584 8.69878906 10.78198242 9.25195312 C13.51540215 12.28858107 16.17493528 15.37966674 18.8125 18.5 C22.06050372 22.18567798 25.04360284 25.47049603 30.09375 26.375 C35.84762028 26.69028056 40.37892182 25.45016669 45 22 C48.21765258 18.84777104 51.08799731 15.43299998 54 12 C55.95991732 9.77397034 57.94547244 7.57228661 59.9375 5.375 C60.41034424 4.84197266 60.88318848 4.30894531 61.37036133 3.75976562 C62.53893285 2.46790737 63.76507928 1.2285878 65 0 C65.66 0 66.32 0 67 0 C66.97905273 1.05388916 66.95810547 2.10777832 66.93652344 3.19360352 C66.86377105 7.12770847 66.81807326 11.06175472 66.78027344 14.99633789 C66.76023779 16.69468202 66.73300115 18.39295785 66.69824219 20.09106445 C66.64936585 22.5413504 66.62695128 24.9907194 66.609375 27.44140625 C66.58872986 28.19273331 66.56808472 28.94406036 66.54681396 29.71815491 C66.54448848 35.26175922 67.72443151 38.48683142 71 43 C75.12221302 46.57391822 79.36640054 46.39603916 84.58203125 46.29296875 C85.39621017 46.28872391 86.2103891 46.28447906 87.04924011 46.28010559 C89.63733668 46.26337753 92.22464071 46.22573712 94.8125 46.1875 C96.57225434 46.17244553 98.33202095 46.15875846 100.09179688 46.14648438 C104.39483437 46.11349336 108.69728303 46.0617524 113 46 C111.61038199 49.16980784 110.01202545 51.1851351 107.48046875 53.53125 C106.44116211 54.49998047 106.44116211 54.49998047 105.38085938 55.48828125 C104.65705078 56.15214844 103.93324219 56.81601563 103.1875 57.5 C102.47529297 58.16386719 101.76308594 58.82773438 101.02929688 59.51171875 C98.11959702 62.20877634 95.22693264 64.82230746 92.1015625 67.26953125 C88.55828557 70.18713661 87.32057804 73.75595374 86.6796875 78.2421875 C86.40735494 83.63437222 87.53503535 86.80824091 91 91 C93.5265525 93.63127637 96.18389329 96.10100147 98.875 98.5625 C99.56980469 99.20896484 100.26460937 99.85542969 100.98046875 100.52148438 C104.08510617 103.39517419 107.20598556 106.19431065 110.5078125 108.83984375 C111.33023438 109.55269531 112.15265625 110.26554687 113 111 C113 111.66 113 112.32 113 113 C111.94087402 112.97905273 110.88174805 112.95810547 109.79052734 112.93652344 C105.84340043 112.86386615 101.89633208 112.81810746 97.94873047 112.78027344 C96.24355106 112.76021631 94.53843994 112.73296343 92.83349609 112.69824219 C90.37580476 112.64946139 87.91902634 112.62697281 85.4609375 112.609375 C84.70444916 112.58872986 83.94796082 112.56808472 83.16854858 112.54681396 C77.99233303 112.54464282 75.04671855 113.50441359 71 117 C66.85028973 121.80397493 66.44409809 125.40478852 66.609375 131.4609375 C66.61786469 132.6467894 66.61786469 132.6467894 66.62652588 133.8565979 C66.64878513 136.36336727 66.69895847 138.86866813 66.75 141.375 C66.77007867 143.0820105 66.78832704 144.78904357 66.8046875 146.49609375 C66.84861516 150.66462196 66.91756704 154.83206264 67 159 C62.95054298 158.17997043 61.51773255 156.72106842 58.8125 153.5625 C58.03261719 152.6653125 57.25273437 151.768125 56.44921875 150.84375 C55.64097656 149.9053125 54.83273437 148.966875 54 148 C52.37973701 146.18326417 50.75492449 144.37057284 49.125 142.5625 C48.40570313 141.75941406 47.68640625 140.95632812 46.9453125 140.12890625 C42.47415758 135.23577486 39.42548864 133.51705489 32.6875 132.5 C23.03430736 133.80890748 16.9378318 141.94407556 11 149 C9.73357492 150.50372367 8.46312091 152.0040693 7.1875 153.5 C6.66542969 154.1290625 6.14335937 154.758125 5.60546875 155.40625 C3.86691232 157.13211623 2.23575619 158.0300407 0 159 C-1.48922793 153.42918439 -2.07118442 148.43607218 0 143 C5.15615048 135.88089398 11.98347286 130.16192495 18.50048828 124.32421875 C21.25447861 121.7633682 23.65394014 119.04848446 26.07592773 116.1796875 C30.95093521 110.65702962 36.36170314 105.5917373 41.60253906 100.41796875 C57.33070885 86.44815854 57.33070885 86.44815854 64.3125 67.75 C64.25414014 62.22769833 63.32126032 59.39842583 60 55 C54.4339299 49.71936939 49.20319564 48.52067115 41.7109375 48.69140625 C35.14587568 49.43872597 31.27341537 53.45084634 26.88964844 58.07836914 C25.16875276 59.82839109 23.40424226 61.40197645 21.52734375 62.98046875 C15.72393361 68.01579031 10.39418841 73.53588693 5 79 C-0.91118638 84.98781287 -6.78963994 90.91064088 -13.20703125 96.36376953 C-15.1325765 98.12098689 -16.80389791 99.98621679 -18.5 101.96484375 C-28.24173697 113.17245657 -28.24173697 113.17245657 -34.52734375 113.96875 C-38.43200657 114.09215853 -42.1590177 113.68138319 -46 113 C-44.61223053 109.83049959 -43.02385383 107.83520662 -40.48046875 105.50390625 C-39.44116211 104.54194336 -39.44116211 104.54194336 -38.38085938 103.56054688 C-37.65705078 102.90119141 -36.93324219 102.24183594 -36.1875 101.5625 C-34.76364515 100.25203812 -33.34045329 98.94085545 -31.91796875 97.62890625 C-31.2432251 97.00733643 -30.56848145 96.3857666 -29.87329102 95.74536133 C-22.5516891 89.17354268 -22.5516891 89.17354268 -19.625 80.0625 C-20.10462799 70.54099623 -27.54264349 65.04553553 -34.15625 59.04296875 C-36.6708417 56.823358 -39.19289246 54.63329547 -41.83203125 52.5625 C-43.26834356 51.43228703 -44.64150424 50.22264618 -46 49 C-46 48.01 -46 47.02 -46 46 C-44.97116699 46.01571045 -43.94233398 46.0314209 -42.88232422 46.04760742 C-39.04695537 46.10211334 -35.21162043 46.13642477 -31.37597656 46.16479492 C-29.71934237 46.17983465 -28.06274769 46.20027177 -26.40625 46.22631836 C-24.0181297 46.26291515 -21.63053812 46.27977439 -19.2421875 46.29296875 C-18.50757294 46.30845261 -17.77295837 46.32393646 -17.01608276 46.33988953 C-12.25244513 46.34143093 -9.02525221 45.55530635 -5 43 C-0.66390161 37.37479127 0.14669234 33.18821311 0.09765625 26.26953125 C0.0962413 25.51911057 0.09482635 24.76868988 0.09336853 23.99552917 C0.0877756 21.6011454 0.07522444 19.20685547 0.0625 16.8125 C0.05748408 15.18815239 0.05292134 13.56380332 0.04882812 11.93945312 C0.03780848 7.95959931 0.02054873 3.97981556 0 0 Z " fill="#FBC043" transform="translate(384,15)"/>
<path d="M0 0 C2.85779017 1.29719924 4.91008536 2.6636826 7.11621094 4.88916016 C7.69651062 5.4696109 8.2768103 6.05006165 8.87469482 6.64810181 C9.48838928 7.27211884 10.10208374 7.89613586 10.734375 8.5390625 C11.37240051 9.17991791 12.01042603 9.82077332 12.66778564 10.48104858 C14.69994069 12.52437821 16.72502218 14.57455982 18.75 16.625 C20.1284453 18.0134786 21.50734636 19.4015049 22.88671875 20.7890625 C26.26311894 24.18748697 29.63319288 27.59207254 33 31 C31.62175583 34.0957554 30.04096882 36.20686289 27.64645386 38.59405518 C26.9537439 39.28951447 26.26103394 39.98497375 25.54733276 40.70150757 C24.78776276 41.45388702 24.02819275 42.20626648 23.24560547 42.98144531 C22.44552063 43.7818222 21.64543579 44.5821991 20.82110596 45.40682983 C18.17451263 48.05202947 15.52090472 50.69007385 12.8671875 53.328125 C11.03115034 55.16043219 9.19555414 56.99318134 7.36038208 58.82635498 C3.02212581 63.15775434 -1.32055504 67.48467104 -5.66541088 71.80944896 C-10.61247844 76.73415149 -15.55385917 81.6645433 -20.4947722 86.59541941 C-30.65686928 96.7366189 -40.82608245 106.87065984 -51 117 C-53.83374242 115.63441112 -55.89648438 114.35003769 -58.11621094 112.11083984 C-58.69651062 111.5303891 -59.2768103 110.94993835 -59.87469482 110.35189819 C-60.48838928 109.72788116 -61.10208374 109.10386414 -61.734375 108.4609375 C-62.37240051 107.82008209 -63.01042603 107.17922668 -63.66778564 106.51895142 C-65.69994069 104.47562179 -67.72502218 102.42544018 -69.75 100.375 C-71.1284453 98.9865214 -72.50734636 97.5984951 -73.88671875 96.2109375 C-77.26311894 92.81251303 -80.63319288 89.40792746 -84 86 C-82.61738572 82.87281859 -81.03226816 80.81031198 -78.57592773 78.4440918 C-77.87858017 77.76626144 -77.1812326 77.08843109 -76.4627533 76.39006042 C-75.71063065 75.66708267 -74.958508 74.94410492 -74.18359375 74.19921875 C-72.59902705 72.64968381 -71.01506102 71.09953442 -69.43164062 69.54882812 C-66.93392769 67.11304805 -64.43198389 64.6821871 -61.91918945 62.26196289 C-59.49371663 59.92123522 -57.08760657 57.5619545 -54.68359375 55.19921875 C-53.92944687 54.48231369 -53.17529999 53.76540863 -52.39830017 53.02677917 C-49.09752025 49.75884831 -47.21804746 47.78677813 -45.95727539 43.23754883 C-45.86321773 40.13454423 -45.86321773 40.13454423 -46.60913086 37.76464844 C-46.73811768 37.18231445 -46.86710449 36.59998047 -47 36 C-45.92016602 34.35253906 -45.92016602 34.35253906 -44.25390625 32.765625 C-43.66416016 32.19199219 -43.07441406 31.61835938 -42.46679688 31.02734375 C-41.83837891 30.44082031 -41.20996094 29.85429687 -40.5625 29.25 C-39.93794922 28.64800781 -39.31339844 28.04601562 -38.66992188 27.42578125 C-37.12421404 25.9390699 -35.5634768 24.4680135 -34 23 C-33.01 23.33 -32.02 23.66 -31 24 C-26.55242564 24.52382179 -24.66334251 24.48749921 -21.00219727 21.796875 C-20.00546353 20.7990433 -19.02753906 19.7821676 -18.06640625 18.75 C-17.5436058 18.21729492 -17.02080536 17.68458984 -16.48216248 17.13574219 C-14.82504648 15.43961057 -13.19399355 13.72075532 -11.5625 12 C-10.43978937 10.84215913 -9.31545582 9.68588959 -8.18945312 8.53125 C-5.44050817 5.70535125 -2.71467497 2.8588198 0 0 Z " fill="#8B9AA6" transform="translate(133,346)"/>
<path d="M0 0 C3.81684226 1.55500981 6.19195732 4.03595495 9 7 C7.51737579 12.10893807 4.41774302 14.95483728 0.70703125 18.55078125 C0.08277756 19.16841843 -0.54147614 19.7860556 -1.18464661 20.42240906 C-3.17860185 22.39302392 -5.18241823 24.35321287 -7.1875 26.3125 C-9.80975773 28.88811994 -12.42771523 31.46805049 -15.04296875 34.05078125 C-15.67310883 34.6722403 -16.3032489 35.29369934 -16.95248413 35.93399048 C-20.55131265 39.5019422 -23.97031892 43.14513486 -27.2434082 47.01635742 C-31.89135383 52.2650799 -37.04042223 57.08680023 -42.02978516 62.00927734 C-48.963662 68.8161357 -48.963662 68.8161357 -55.5 76 C-60.6384993 82.01444996 -66.40259394 87.45752246 -72.02978516 93.00927734 C-78.963662 99.8161357 -78.963662 99.8161357 -85.5 107 C-90.6384993 113.01444996 -96.40259394 118.45752246 -102.02978516 124.00927734 C-107.38608356 129.30023407 -112.68963736 134.57755265 -117.53735352 140.34912109 C-119.07003309 142.07904586 -120.7219002 143.57850897 -122.4375 145.125 C-125.25228963 147.74947948 -125.25228963 147.74947948 -125.4375 151.0625 C-125.11429307 153.93915725 -125.11429307 153.93915725 -124.140625 156.28515625 C-124 159 -124 159 -126.17578125 162.1484375 C-127.2047731 163.23983273 -128.25120905 164.31498618 -129.3125 165.375 C-129.80556641 165.93316406 -130.29863281 166.49132812 -130.80664062 167.06640625 C-132.48275206 168.76985701 -133.83700098 169.96828008 -136 171 C-138.1862793 170.6887207 -138.1862793 170.6887207 -140.59375 170.07421875 C-144.59801402 169.41420428 -145.73396293 169.81228741 -149.1237793 172.20410156 C-152.68248487 175.41791833 -155.93022094 178.92339791 -159.1875 182.4375 C-160.3327367 183.6294083 -161.48050618 184.81888843 -162.63085938 186.00585938 C-167.7639292 191.33342437 -172.75246732 196.77233808 -177.57983398 202.37915039 C-179.60162407 204.68663954 -181.75207484 206.84819676 -183.9375 209 C-184.70964844 209.763125 -185.48179687 210.52625 -186.27734375 211.3125 C-186.84582031 211.869375 -187.41429687 212.42625 -188 213 C-193.66129431 208.30233025 -198.85228904 203.25276628 -204 198 C-195.42585551 187.75285171 -195.42585551 187.75285171 -191 184 C-190.34 184 -189.68 184 -189 184 C-189 183.34 -189 182.68 -189 182 C-187.63671875 180.66015625 -187.63671875 180.66015625 -185.6875 179.0625 C-180.14890467 174.35274376 -175.09950889 169.17230949 -170 164 C-159.49415131 153.34416979 -159.49415131 153.34416979 -155.03125 149.53125 C-149.54917923 144.84190229 -144.56274894 139.63154074 -139.5 134.5 C-133.84773283 128.77093076 -128.21942863 123.10490672 -122.09570312 117.87304688 C-117.35763724 113.63837289 -112.96177625 109.02240213 -108.5 104.5 C-102.18675651 98.1009732 -95.85908197 91.82252535 -89 86 C-83.75055477 81.50401291 -83.75055477 81.50401291 -81 75.3125 C-80.82463203 72.17109203 -80.82463203 72.17109203 -81.67163086 69.99511719 C-82 68 -82 68 -80.92016602 66.35253906 C-80.37030029 65.82885742 -79.82043457 65.30517578 -79.25390625 64.765625 C-78.66416016 64.19199219 -78.07441406 63.61835938 -77.46679688 63.02734375 C-76.52416992 62.14755859 -76.52416992 62.14755859 -75.5625 61.25 C-74.93794922 60.64800781 -74.31339844 60.04601562 -73.66992188 59.42578125 C-72.12421404 57.9390699 -70.5634768 56.4680135 -69 55 C-68.39115967 55.32291016 -67.78231934 55.64582031 -67.1550293 55.97851562 C-64.49465882 57.23953183 -62.91610336 57.39785596 -60 57 C-57.77180295 55.60510097 -57.77180295 55.60510097 -55.6875 53.5 C-54.39779297 52.28183594 -54.39779297 52.28183594 -53.08203125 51.0390625 C-48.6395036 46.68725938 -44.2433713 42.28609441 -39.88549805 37.84960938 C-36.7662218 34.68789135 -33.62462465 31.63060854 -30.24609375 28.74609375 C-24.59187752 23.87557562 -19.42584692 18.49528375 -14.1875 13.1875 C-12.14223185 11.11558341 -10.09362044 9.04705557 -8.04296875 6.98046875 C-6.69755005 5.61764771 -6.69755005 5.61764771 -5.32495117 4.22729492 C-3 2 -3 2 0 0 Z " fill="#DE9772" transform="translate(382,121)"/>
<path d="M0 0 C3.97151077 1.81533706 6.45403056 4.39450734 9.3125 7.625 C9.7974292 8.16189453 10.2823584 8.69878906 10.78198242 9.25195312 C13.51540215 12.28858107 16.17493528 15.37966674 18.8125 18.5 C22.70767251 22.92005392 26.15829247 26.14569896 32.25 26.5625 C41.01051541 26.13479807 47.83045501 20.76718336 54 15 C55.81268688 16.81268688 55.13039163 19.60871253 55.1328125 22.046875 C55.13410156 23.284375 55.13539063 24.521875 55.13671875 25.796875 C55.13285156 27.10140625 55.12898438 28.4059375 55.125 29.75 C55.12886719 31.0390625 55.13273437 32.328125 55.13671875 33.65625 C55.13542969 34.89890625 55.13414062 36.1415625 55.1328125 37.421875 C55.13168457 38.56237305 55.13055664 39.70287109 55.12939453 40.87792969 C55.01217097 43.70633507 54.6472241 46.25042233 54 49 C52.99839844 48.95359375 51.99679687 48.9071875 50.96484375 48.859375 C40.78847242 48.41629991 40.78847242 48.41629991 32 53 C30.24172486 54.64812797 28.54664797 56.32922371 26.88867188 58.07836914 C25.16827786 59.82878554 23.40418097 61.40202799 21.52734375 62.98046875 C15.72393361 68.01579031 10.39418841 73.53588693 5 79 C-0.91118638 84.98781287 -6.78963994 90.91064088 -13.20703125 96.36376953 C-15.1325765 98.12098689 -16.80389791 99.98621679 -18.5 101.96484375 C-28.24173697 113.17245657 -28.24173697 113.17245657 -34.52734375 113.96875 C-38.43200657 114.09215853 -42.1590177 113.68138319 -46 113 C-44.61223053 109.83049959 -43.02385383 107.83520662 -40.48046875 105.50390625 C-39.44116211 104.54194336 -39.44116211 104.54194336 -38.38085938 103.56054688 C-37.65705078 102.90119141 -36.93324219 102.24183594 -36.1875 101.5625 C-34.76364515 100.25203812 -33.34045329 98.94085545 -31.91796875 97.62890625 C-31.2432251 97.00733643 -30.56848145 96.3857666 -29.87329102 95.74536133 C-22.5516891 89.17354268 -22.5516891 89.17354268 -19.625 80.0625 C-20.10462799 70.54099623 -27.54264349 65.04553553 -34.15625 59.04296875 C-36.6708417 56.823358 -39.19289246 54.63329547 -41.83203125 52.5625 C-43.26834356 51.43228703 -44.64150424 50.22264618 -46 49 C-46 48.01 -46 47.02 -46 46 C-44.97116699 46.01571045 -43.94233398 46.0314209 -42.88232422 46.04760742 C-39.04695537 46.10211334 -35.21162043 46.13642477 -31.37597656 46.16479492 C-29.71934237 46.17983465 -28.06274769 46.20027177 -26.40625 46.22631836 C-24.0181297 46.26291515 -21.63053812 46.27977439 -19.2421875 46.29296875 C-18.50757294 46.30845261 -17.77295837 46.32393646 -17.01608276 46.33988953 C-12.25244513 46.34143093 -9.02525221 45.55530635 -5 43 C-0.66390161 37.37479127 0.14669234 33.18821311 0.09765625 26.26953125 C0.0962413 25.51911057 0.09482635 24.76868988 0.09336853 23.99552917 C0.0877756 21.6011454 0.07522444 19.20685547 0.0625 16.8125 C0.05748408 15.18815239 0.05292134 13.56380332 0.04882812 11.93945312 C0.03780848 7.95959931 0.02054873 3.97981556 0 0 Z " fill="#FCDE75" transform="translate(384,15)"/>
<path d="M0 0 C6.10427443 4.63772488 6.92759046 10.71986486 8.671875 17.78320312 C10.08893223 23.0774864 11.05254007 26.10476856 16 29 C19.22916721 30.81926773 22.51842891 32.50109675 25.82421875 34.17578125 C30.89939711 36.79879423 30.89939711 36.79879423 32 39 C32.375 42.3125 32.375 42.3125 32 46 C28.50117161 50.24060626 24.93473364 52.15861213 19.9375 54.3125 C15.16970446 56.56771192 11.58790832 58.27387712 9.71875 63.4140625 C9.4815625 64.26742187 9.244375 65.12078125 9 66 C8.37681127 68.04350413 7.74305594 70.08354888 7.10766602 72.12329102 C6.66736841 73.56159653 6.24283588 75.00484091 5.83569336 76.45288086 C3.91691484 83.07683801 3.91691484 83.07683801 1 85 C-4.57392317 85.70779977 -4.57392317 85.70779977 -7 85 C-12.08945132 80.32346643 -12.9984333 73.66433737 -14.62304688 67.21679688 C-16.05978883 61.95135294 -17.06094427 58.86829016 -22 56 C-25.00187277 54.43336606 -28.02051173 52.97730688 -31.09179688 51.55664062 C-34.39898737 49.97555597 -35.91718102 49.12422847 -38 46 C-38.67058114 39.85300623 -38.67058114 39.85300623 -36.44921875 37.02734375 C-32.78065793 33.99068814 -28.65714414 32.08960479 -24.40039062 30 C-19.76467486 27.64301244 -16.99629741 25.69861152 -15.17211914 20.75756836 C-14.96192139 19.95971924 -14.75172363 19.16187012 -14.53515625 18.33984375 C-14.17067383 17.0259668 -14.17067383 17.0259668 -13.79882812 15.68554688 C-13.30722626 13.85084177 -12.8202575 12.01488908 -12.33789062 10.17773438 C-12.09361328 9.30310547 -11.84933594 8.42847656 -11.59765625 7.52734375 C-11.38633057 6.73062256 -11.17500488 5.93390137 -10.95727539 5.11303711 C-8.76039465 0.26376324 -5.02337458 -0.82014279 0 0 Z " fill="#000000" transform="translate(374,228)"/>
<path d="M0 0 C2.43930954 2.68863637 3.51617325 5.09755543 4.39453125 8.58984375 C4.74547852 9.89018555 4.74547852 9.89018555 5.10351562 11.21679688 C5.57448074 13.02410929 6.03550452 14.83404282 6.48632812 16.64648438 C8.09785866 22.52922592 9.67509606 25.57365125 15 29 C17.97737439 30.62990735 21.04141695 32.02438089 24.140625 33.40429688 C26.8049635 34.65320555 28.71256939 35.59241397 30.4296875 38.02734375 C31.29311683 41.01386301 30.86430544 43.03666705 30 46 C26.93918594 49.72781954 23.23542084 51.57644105 18.9375 53.5625 C12.25506018 56.43978173 12.25506018 56.43978173 8.15625 62.11303711 C7.9396875 62.9097583 7.723125 63.70647949 7.5 64.52734375 C7.2525 65.40197266 7.005 66.27660156 6.75 67.17773438 C6.5025 68.08845703 6.255 68.99917969 6 69.9375 C5.50793278 71.74046505 5.00818241 73.54135445 4.5 75.33984375 C4.2834375 76.13769287 4.066875 76.93554199 3.84375 77.75756836 C2.89640815 80.27531571 1.79489098 81.99981284 0 84 C-3.45082435 85.12526881 -5.27432832 85.27001737 -8.6875 84 C-13.0781157 80.20271075 -14.22574869 74.39794925 -15.63330078 68.94873047 C-17.45852644 61.35100435 -17.45852644 61.35100435 -22.625 55.875 C-24.06751361 55.21430674 -25.52822725 54.59266017 -27 54 C-28.96884036 52.97833149 -30.92692689 51.93573091 -32.875 50.875 C-34.26332031 50.15957031 -34.26332031 50.15957031 -35.6796875 49.4296875 C-38 48 -38 48 -40 45 C-40.4375 42.125 -40.4375 42.125 -40 39 C-35.85845128 34.05380753 -31.06958803 31.77071203 -25.3515625 29.12695312 C-20.73780474 26.84314303 -18.82259182 25.01510559 -17 20 C-15.85303765 16.36678427 -14.86475357 12.69738696 -13.89453125 9.01367188 C-13.69214844 8.28341797 -13.48976562 7.55316406 -13.28125 6.80078125 C-13.01924805 5.81331909 -13.01924805 5.81331909 -12.75195312 4.8059082 C-11.84482565 2.62732966 -10.81546151 1.49643221 -9 0 C-5.4314543 -1.18951523 -3.60804584 -0.97717908 0 0 Z " fill="#000000" transform="translate(246,99)"/>
<path d="M0 0 C4.91935902 4.11619836 9.52647956 8.40410362 14 13 C12.62175583 16.0957554 11.04096882 18.20686289 8.64645386 20.59405518 C7.9537439 21.28951447 7.26103394 21.98497375 6.54733276 22.70150757 C5.78776276 23.45388702 5.02819275 24.20626648 4.24560547 24.98144531 C3.44552063 25.7818222 2.64543579 26.5821991 1.82110596 27.40682983 C-0.82548737 30.05202947 -3.47909528 32.69007385 -6.1328125 35.328125 C-7.96884966 37.16043219 -9.80444586 38.99318134 -11.63961792 40.82635498 C-15.97787419 45.15775434 -20.32055504 49.48467104 -24.66541088 53.80944896 C-29.61247844 58.73415149 -34.55385917 63.6645433 -39.4947722 68.59541941 C-49.65686928 78.7366189 -59.82608245 88.87065984 -70 99 C-73.85027991 97.21799313 -76.2799142 94.92324595 -79.25 91.875 C-80.14203125 90.96492188 -81.0340625 90.05484375 -81.953125 89.1171875 C-82.96632813 88.06917969 -82.96632813 88.06917969 -84 87 C-82.62943532 83.92678193 -81.07166707 81.82529744 -78.69114685 79.45736694 C-78.0082962 78.77321213 -77.32544556 78.08905731 -76.62190247 77.38417053 C-75.49893013 76.27434059 -75.49893013 76.27434059 -74.35327148 75.14208984 C-73.17018402 73.96097374 -73.17018402 73.96097374 -71.9631958 72.7559967 C-69.35372479 70.15301971 -66.73735795 67.55708498 -64.12109375 64.9609375 C-62.30980116 63.15591396 -60.49902186 61.3503752 -58.68873596 59.54434204 C-54.40815431 55.2757105 -50.12350695 51.01120624 -45.83651358 46.74901736 C-37.69951899 38.65901752 -29.56963552 30.5618936 -21.44374275 22.46074295 C-18.76876364 19.79602046 -16.09041556 17.1347182 -13.41172791 14.47372437 C-11.78014941 12.84897094 -10.14867881 11.22410914 -8.51733398 9.59912109 C-7.76666153 8.855186 -7.01598907 8.11125092 -6.24256897 7.34477234 C-5.56253815 6.66625717 -4.88250732 5.987742 -4.18186951 5.28866577 C-3.58806708 4.69838278 -2.99426466 4.10809978 -2.38246822 3.49992943 C-0.89946717 2.03004898 -0.89946717 2.03004898 0 0 Z " fill="#788A96" transform="translate(152,364)"/>
<path d="M0 0 C7.62264215 -1.29855194 15.5857673 -2.35949262 22.64868164 1.41577148 C28.24297741 5.39617445 33.02268198 10.17342022 37.74414062 15.13671875 C40.25014944 17.75015585 42.84565541 20.23909236 45.46875 22.734375 C58.81300474 35.98143925 58.81300474 35.98143925 59.20355225 46.53814697 C59.06899723 50.4350101 58.65502032 54.154959 58 58 C50.89170093 59.47641425 43.89518379 60.24657269 37.3782959 56.48791504 C31.58545252 52.17067616 26.54291697 47.1050213 21.55224609 41.89892578 C18.87753415 39.12762566 16.1199607 36.46585888 13.33984375 33.80078125 C-0.86803783 19.68071708 -0.86803783 19.68071708 -1.2807312 10.11813354 C-1.13689522 6.64699903 -0.70681089 3.40299019 0 0 Z " fill="#FDDF76" transform="translate(15,439)"/>
<path d="M0 0 C4.39100713 2.66329035 7.72484692 6.04329397 11.25 9.75 C12.19746094 10.65105469 13.14492187 11.55210937 14.12109375 12.48046875 C18.76017648 17.19988192 21.61484563 20.63195762 21.859375 27.40625 C21.54109414 31.00527204 21.12470035 32.79179495 19.25 35.921875 C18.5075 36.52515625 17.765 37.1284375 17 37.75 C16.2575 38.38421875 15.515 39.0184375 14.75 39.671875 C14.1725 40.11015625 13.595 40.5484375 13 41 C10.14220983 39.70280076 8.08991464 38.3363174 5.88378906 36.11083984 C5.30348938 35.5303891 4.7231897 34.94993835 4.12530518 34.35189819 C3.51161072 33.72788116 2.89791626 33.10386414 2.265625 32.4609375 C1.62759949 31.82008209 0.98957397 31.17922668 0.33221436 30.51895142 C-1.69994069 28.47562179 -3.72502218 26.42544018 -5.75 24.375 C-7.1284453 22.9865214 -8.50734636 21.5984951 -9.88671875 20.2109375 C-13.26311894 16.81251303 -16.63319288 13.40792746 -20 10 C-15.55867712 0.97776315 -10.31850283 -2.22073136 0 0 Z " fill="#8997A3" transform="translate(165,326)"/>
<path d="M0 0 C2.6875 0.5625 2.6875 0.5625 4.6875 2.5625 C5.19140625 5.2890625 5.19140625 5.2890625 4.6875 8.5625 C2.96160827 11.00644138 0.83284844 12.93129252 -1.375 14.9375 C-2.58383088 16.08665154 -3.79087822 17.2376823 -4.99609375 18.390625 C-5.57601074 18.93912109 -6.15592773 19.48761719 -6.75341797 20.05273438 C-8.59901407 21.83995114 -10.28442555 23.72168173 -11.9375 25.6875 C-16.4023369 30.9548772 -21.39396145 35.72401 -26.3125 40.5625 C-30.07738042 38.84095212 -32.46313897 36.57015886 -35.3125 33.5625 C-33.96191886 30.54861927 -32.45645225 28.4590323 -30.1171875 26.13671875 C-29.48748047 25.50830078 -28.85777344 24.87988281 -28.20898438 24.23242188 C-27.54189453 23.57822266 -26.87480469 22.92402344 -26.1875 22.25 C-25.50751953 21.57646484 -24.82753906 20.90292969 -24.12695312 20.20898438 C-20.20515528 16.3472332 -16.23806814 12.58380678 -12.0078125 9.05859375 C-10.08778473 7.36419136 -8.41534482 5.51366155 -6.6875 3.625 C-4.22058516 1.10727913 -3.62230949 0.61510916 0 0 Z " fill="#D9F0F7" transform="translate(429.3125,77.4375)"/>
<path d="M0 0 C5.66129431 4.69766975 10.85228904 9.74723372 16 15 C11.30233025 20.66129431 6.25276628 25.85228904 1 31 C-4.66129431 26.30233025 -9.85228904 21.25276628 -15 16 C-6.42585551 5.75285171 -6.42585551 5.75285171 -2 2 C-1.34 2 -0.68 2 0 2 C0 1.34 0 0.68 0 0 Z " fill="#D27C48" transform="translate(193,303)"/>
<path d="M0 0 C1.12588014 0.95729916 2.2506715 1.91587895 3.375 2.875 C4.00148437 3.40867187 4.62796875 3.94234375 5.2734375 4.4921875 C8.94311597 7.69692933 8.94311597 7.69692933 9.4765625 10.5390625 C9.87142473 18.74804045 9.87142473 18.74804045 7.2109375 22.5703125 C5.22381787 24.52934563 3.22172796 26.31386717 1 28 C-3.07376031 26.38989473 -5.76507069 23.46177729 -8.75 20.375 C-9.25660156 19.859375 -9.76320312 19.34375 -10.28515625 18.8125 C-11.52803902 17.54616661 -12.76465276 16.2736856 -14 15 C-11.60676528 12.6025813 -9.21139946 10.20802606 -6.796875 7.83203125 C-6.12140625 7.16558594 -5.4459375 6.49914062 -4.75 5.8125 C-4.06421875 5.13832031 -3.3784375 4.46414063 -2.671875 3.76953125 C-0.92550889 2.09201005 -0.92550889 2.09201005 0 0 Z " fill="#768893" transform="translate(177,339)"/>
<path d="M0 0 C2.40320856 2.33660693 2.96504581 3.75059711 3.43359375 7.09375 C3.43488281 8.2178125 3.43617188 9.341875 3.4375 10.5 C3.46650391 12.18609375 3.46650391 12.18609375 3.49609375 13.90625 C2.90093561 17.61778735 1.9834024 18.77843071 -1 21 C-5.26303263 21.69758716 -7.24906662 21.46334187 -10.9375 19.1875 C-13.94890755 14.53350651 -13.75367938 10.39731683 -13 5 C-11.6875 1.875 -11.6875 1.875 -10 0 C-6.20519658 -1.26493447 -3.87641726 -0.89988258 0 0 Z " fill="#000000" transform="translate(473,211)"/>
<path d="M0 0 C3.08984375 0.44140625 3.08984375 0.44140625 6.46484375 2.44140625 C8.35083158 5.92322994 8.58511352 7.81423679 7.77734375 11.63671875 C7.08984375 13.44140625 7.08984375 13.44140625 5.21484375 15.44140625 C0.46363053 16.96179448 -3.97849759 17.21775431 -8.91015625 16.44140625 C-12.09765625 14.37890625 -12.09765625 14.37890625 -13.91015625 11.44140625 C-14.47265625 7.87890625 -14.47265625 7.87890625 -13.91015625 4.44140625 C-10.04724002 -0.71530968 -6.0303266 -0.21028136 0 0 Z " fill="#000000" transform="translate(293.91015625,35.55859375)"/>
<path d="M0 0 C2.96743605 0.84038716 4.15916473 2.11061063 6 4.56640625 C6.49609375 7.66015625 6.49609375 7.66015625 6.4375 11.06640625 C6.43621094 12.19046875 6.43492187 13.31453125 6.43359375 14.47265625 C5.96503432 17.8158911 5.39694423 19.22494684 3 21.56640625 C-0.42890226 22.43921774 -2.89259577 22.89563454 -6.3125 21.87890625 C-9.09413103 19.71541545 -9.89287769 17.4022094 -10.3359375 13.9453125 C-10.39662519 9.56973017 -10.38416096 6.38274829 -8.5 2.37890625 C-5.47884678 0.18857017 -3.64716647 0.00712337 0 0 Z " fill="#000000" transform="translate(470,256.43359375)"/>
<path d="M0 0 C1.68609375 -0.02900391 1.68609375 -0.02900391 3.40625 -0.05859375 C7.12887869 0.53834292 8.29196932 1.42462361 10.5 4.4375 C11.28456586 7.20782912 11.13108638 9.63777133 10.5 12.4375 C8.6875 14.9375 8.6875 14.9375 5.5 16.4375 C0.17238611 17.05222468 -4.8202724 17.34396759 -9.5 14.4375 C-11.5815902 11.76116974 -11.49587591 10.31996332 -11.375 6.875 C-10.5 3.4375 -10.5 3.4375 -8.8515625 1.75 C-5.77512022 0.03291594 -3.50964553 0.00402482 0 0 Z " fill="#000000" transform="translate(244.5,35.5625)"/>
<path d="M0 0 C2.125 1.1875 2.125 1.1875 4.125 4.1875 C4.78823547 10.26715844 4.78823547 10.26715844 2.54296875 13.3828125 C-0.72360806 15.82087144 -2.89910156 15.68869714 -6.9375 15.625 C-8.78021484 15.62306641 -8.78021484 15.62306641 -10.66015625 15.62109375 C-13.875 15.1875 -13.875 15.1875 -15.75 13.87109375 C-17.6615578 11.01039441 -17.8164734 8.58204269 -17.875 5.1875 C-13.71544115 -1.64606097 -7.24638915 -2.04789259 0 0 Z " fill="#000000" transform="translate(497.875,236.8125)"/>
<path d="M0 0 C2.62439775 1.54376338 3.32923986 2.30568748 4.125 5.25 C3.81112555 11.21361455 3.81112555 11.21361455 2.0078125 13.9375 C-0.86624242 15.94099057 -3.35417273 15.68387112 -6.8125 15.6875 C-8.03839844 15.70683594 -9.26429688 15.72617188 -10.52734375 15.74609375 C-13.875 15.25 -13.875 15.25 -16.28515625 13.44140625 C-18.60556711 10.24300209 -18.42505805 8.10040634 -17.875 4.25 C-13.36351784 -1.66159731 -6.76608734 -1.76506626 0 0 Z " fill="#000000" transform="translate(451.875,236.75)"/>
<path d="M0 0 C4.51785714 1.25496032 4.51785714 1.25496032 6.375 3.9375 C8.10139465 9.11668395 7.99614934 13.38462666 6 18.375 C4.375 20.9375 4.375 20.9375 2.375 21.9375 C-3.82925532 22.51196809 -3.82925532 22.51196809 -6.81640625 20.35546875 C-9.2405712 17.11452252 -9.19175344 14.95274558 -9.1875 10.9375 C-9.20941406 9.720625 -9.23132813 8.50375 -9.25390625 7.25 C-8.625 3.9375 -8.625 3.9375 -6.31640625 1.49609375 C-3.625 -0.0625 -3.625 -0.0625 0 0 Z " fill="#000000" transform="translate(268.625,56.0625)"/>
<path d="M0 0 C3.1850357 1.76015131 3.83296972 2.49890916 5 6 C5.41873961 10.30013364 5.4550224 13.93069736 3.75 17.9375 C1.84817973 20.17893103 0.82478294 21.19291916 -2 22 C-4.99184471 21.81682583 -7.14830907 21.57448964 -9.65625 19.8828125 C-11.70318199 17.01472756 -11.43385182 14.53921297 -11.4375 11.0625 C-11.45683594 9.83660156 -11.47617187 8.61070313 -11.49609375 7.34765625 C-11 4 -11 4 -9.19140625 1.5859375 C-6.01608358 -0.71206785 -3.82376373 -0.47797047 0 0 Z " fill="#000000" transform="translate(271,10)"/>
<path d="M0 0 C2.96592766 0.6055202 3.75648905 1.00289781 5.9375 3.25 C7.1611499 7.00252635 6.92779075 9.3349533 5.875 13.125 C3.51006574 15.94472931 2.0469335 16.10350831 -1.625 16.5625 C-5.125 16.125 -5.125 16.125 -7.5625 14.5625 C-9.75521887 11.14185857 -9.75507693 9.11548721 -9.125 5.125 C-6.54091287 1.24886931 -4.62497347 -0.29012749 0 0 Z " fill="#000000" transform="translate(417.125,196.875)"/>
<path d="M0 0 C2.96592766 0.6055202 3.75648905 1.00289781 5.9375 3.25 C7.1611499 7.00252635 6.92779075 9.3349533 5.875 13.125 C3.51006574 15.94472931 2.0469335 16.10350831 -1.625 16.5625 C-5.125 16.125 -5.125 16.125 -7.5625 14.5625 C-9.75521887 11.14185857 -9.75507693 9.11548721 -9.125 5.125 C-6.54091287 1.24886931 -4.62497347 -0.29012749 0 0 Z " fill="#000000" transform="translate(308.125,87.875)"/>
<path d="M0 0 C2.99220268 1.36370299 5.29026529 2.94908083 7.75 5.125 C8.67039062 5.93324219 8.67039062 5.93324219 9.609375 6.7578125 C10.06828125 7.16773438 10.5271875 7.57765625 11 8 C10.2575 8.721875 9.515 9.44375 8.75 10.1875 C5.98732731 12.90711047 5.98732731 12.90711047 3.8125 15.8125 C3.214375 16.534375 2.61625 17.25625 2 18 C1.34 18 0.68 18 0 18 C-1.40234375 16.57421875 -1.40234375 16.57421875 -2.9375 14.6875 C-4.86463171 12.33649789 -6.81719293 10.11764865 -9 8 C-5.25 5 -5.25 5 -3 5 C-2.690625 4.360625 -2.38125 3.72125 -2.0625 3.0625 C-1 1 -1 1 0 0 Z " fill="#F14351" transform="translate(370,262)"/>
<path d="M0 0 C2.93879484 1.35236577 5.29232911 2.89942659 7.75 5 C8.67039063 5.7734375 8.67039063 5.7734375 9.609375 6.5625 C11 8 11 8 11 10 C7.53846154 13 7.53846154 13 5 13 C4.731875 13.639375 4.46375 14.27875 4.1875 14.9375 C3 17 3 17 0 18 C-0.61488281 17.25943359 -0.61488281 17.25943359 -1.2421875 16.50390625 C-1.78101563 15.86324219 -2.31984375 15.22257813 -2.875 14.5625 C-3.40867188 13.92441406 -3.94234375 13.28632813 -4.4921875 12.62890625 C-5.9222757 10.89194996 -5.9222757 10.89194996 -8 10 C-8 9.34 -8 8.68 -8 8 C-6.50390625 6.5625 -6.50390625 6.5625 -4.5625 5 C-1.84811762 2.85474956 -1.84811762 2.85474956 0 0 Z " fill="#F25F69" transform="translate(240,132)"/>
</svg>
