<?xml version="1.0" encoding="UTF-8"?>
<svg version="1.1" xmlns="http://www.w3.org/2000/svg" width="512" height="512">
<path d="M0 0 C19.32866576 16.55637944 26.40591213 39.17596111 29.23291016 63.67602539 C30.76189639 75.8073475 34.49330576 86.2885478 43.83984375 94.51953125 C46.44818838 96.38361 49.0941754 98.17207106 51.76611328 99.94311523 C63.79878075 108.07550282 73.86698188 119.08219337 77.27734375 133.58203125 C77.84937219 137.25850573 77.85307229 140.80409997 77.77734375 144.51953125 C77.67611963 154.45214832 80.72735367 160.77118307 86.49194336 168.6875 C91.02889622 174.98421238 94.16155009 181.71915418 94.83984375 189.51953125 C94.94296875 190.69515625 95.04609375 191.87078125 95.15234375 193.08203125 C94.99053175 202.44914794 91.42562159 211.86041513 84.83984375 218.51953125 C79.12016284 223.85497256 73.22961728 227.0357034 65.83984375 229.51953125 C66.48308594 230.18855469 67.12632812 230.85757813 67.7890625 231.546875 C89.35708532 254.46866815 106.00548206 281.3599698 119.83984375 309.51953125 C125.26428118 309.86158881 130.68790094 310.14865812 136.11791992 310.38623047 C137.96244279 310.47453468 139.8063251 310.57754161 141.64916992 310.69580078 C152.00167303 311.7916876 152.00167303 311.7916876 161.54248047 308.8046875 C163.27316464 306.79033686 164.51718499 304.8101083 165.83984375 302.51953125 C166.82984375 301.85953125 167.81984375 301.19953125 168.83984375 300.51953125 C169.29480425 298.37081805 169.29480425 298.37081805 169.22079468 295.83966064 C169.22925415 294.8527121 169.23771362 293.86576355 169.24642944 292.84890747 C169.24035675 291.76213715 169.23428406 290.67536682 169.22802734 289.55566406 C169.2332843 288.41408844 169.23854126 287.27251282 169.24395752 286.09634399 C169.25721082 282.30497741 169.24839799 278.51402746 169.23828125 274.72265625 C169.240301 272.09429849 169.24321161 269.46594128 169.24697876 266.83758545 C169.25244213 261.31941182 169.24523279 255.80135849 169.23095703 250.28320312 C169.21466159 243.9109406 169.21989383 237.53896651 169.23643625 231.16671109 C169.25171812 225.03390013 169.25006427 218.90121657 169.24129105 212.76839447 C169.23928937 210.16089589 169.24174715 207.55338996 169.24872971 204.94589996 C169.25635237 201.29739451 169.244726 197.64944095 169.22802734 194.00097656 C169.23713638 192.38296646 169.23713638 192.38296646 169.24642944 190.73226929 C169.1753153 182.34071603 166.79704473 177.7119065 161.90234375 170.95703125 C156.06744027 162.17781183 153.52422456 154.59274766 154.23828125 144.08520508 C154.99124247 135.39231095 154.99124247 135.39231095 151.2421875 127.88671875 C148.51733114 125.25884536 145.54060572 122.99366626 142.48144531 120.77050781 C135.65502001 115.56845498 131.45137264 109.23313367 129.15234375 101.08203125 C128.14388782 92.81269265 128.76385929 85.03934516 133.5625 77.98828125 C134.78328515 76.4441259 136.03269209 74.92193751 137.31640625 73.4296875 C139.03969849 71.49379906 139.03969849 71.49379906 139.83984375 68.51953125 C138.81288986 66.42249622 138.81288986 66.42249622 137.33984375 64.26953125 C135.61826739 61.25313548 134.85288326 59.66035795 134.52734375 56.14453125 C136.34854933 51.11453489 139.35389719 47.38962189 142.59814453 43.17382812 C144.88292345 40.12985213 147.00899071 36.97637576 149.15234375 33.83203125 C150.09890146 32.44917982 151.04551666 31.06636774 151.9921875 29.68359375 C152.4651123 28.99168945 152.93803711 28.29978516 153.42529297 27.58691406 C154.79093566 25.59101101 156.1601844 23.59764962 157.53125 21.60546875 C157.97331787 20.96254883 158.41538574 20.31962891 158.87084961 19.65722656 C159.76625955 18.35794689 160.66420889 17.06041358 161.56469727 15.76464844 C164.17590678 11.99531957 166.70559331 8.18770053 169.17578125 4.32421875 C170.027771 3.01674683 170.027771 3.01674683 170.89697266 1.68286133 C172.00318505 -0.01665996 173.09227056 -1.7274862 174.16162109 -3.45043945 C176.74807261 -7.38432625 177.94069559 -9.18107053 182.5234375 -10.70703125 C185.83984375 -10.48046875 185.83984375 -10.48046875 187.703125 -9.3203125 C188.18136719 -8.69253906 188.65960938 -8.06476562 189.15234375 -7.41796875 C189.73371094 -6.67160156 190.31507813 -5.92523437 190.9140625 -5.15625 C191.86732422 -3.83173828 191.86732422 -3.83173828 192.83984375 -2.48046875 C193.93232422 -0.98580078 193.93232422 -0.98580078 195.046875 0.5390625 C196.73184525 2.86630621 198.39454627 5.20807633 200.046875 7.55859375 C203.04493496 11.82254888 206.09618824 16.04710294 209.15234375 20.26953125 C210.25263755 21.79164253 211.35289759 23.31377822 212.453125 24.8359375 C213.00693848 25.60180176 213.56075195 26.36766602 214.13134766 27.15673828 C217.03524588 31.17273242 219.93764029 35.18981229 222.83984375 39.20703125 C223.36747314 39.93696289 223.89510254 40.66689453 224.4387207 41.41894531 C225.43519998 42.79817083 226.42843483 44.17974788 227.41796875 45.56396484 C228.36394722 46.8650101 229.33291319 48.14965454 230.32421875 49.41650391 C232.29479505 51.9814359 233.74167187 53.99594788 234.34375 57.20703125 C233.72929879 60.02683837 232.68124893 61.36842198 230.77734375 63.51953125 C228.33282107 66.43842028 228.33282107 66.43842028 227.77734375 70.08203125 C228.12796875 70.88640625 228.47859375 71.69078125 228.83984375 72.51953125 C235.03340043 86.97116351 232.91402986 98.81665904 227.41821289 113.25415039 C225.6304212 117.68793035 223.77914435 122.09558839 221.89794922 126.49047852 C218.62380878 134.17575043 216.16112307 141.41510313 215.24169922 149.77368164 C214.39957662 155.52784501 211.92761703 159.52043553 207.74873352 163.43357849 C203.39052715 168.49327519 203.9921698 174.13209431 204.04760742 180.51977539 C204.03548721 181.81813828 204.023367 183.11650116 204.01087952 184.45420837 C203.97937558 187.99985539 203.98570854 191.54447969 204.00095916 195.0901978 C204.01013469 198.05504555 204.00039279 201.01970825 203.99062043 203.98454469 C203.96774738 210.97953527 203.97524923 217.97403246 204.00268555 224.96899414 C204.03050876 232.17729377 204.01110492 239.3843521 203.96780986 246.59254748 C203.93201219 252.79155515 203.92348938 258.99018055 203.93720227 265.18927664 C203.94523758 268.88739292 203.94350132 272.58481371 203.91634178 276.28285408 C203.88767169 280.40557052 203.91605703 284.52600503 203.94995117 288.64868164 C203.93421051 289.86911163 203.91846985 291.08954163 203.9022522 292.34695435 C203.86326254 298.34813992 203.86326254 298.34813992 206.40326023 303.5694418 C208.14625975 305.05970521 209.91894168 306.27571017 211.83984375 307.51953125 C217.15267183 314.88150897 216.41975257 324.50579495 216.30639648 333.16040039 C216.27735688 335.58093647 216.28583635 337.99928473 216.29882812 340.41992188 C216.27770415 357.79534447 216.27770415 357.79534447 211.0859375 364.9296875 C210.48910156 365.47496094 209.89226562 366.02023437 209.27734375 366.58203125 C208.67792969 367.15050781 208.07851563 367.71898437 207.4609375 368.3046875 C205.83984375 369.51953125 205.83984375 369.51953125 203.83984375 369.51953125 C203.83984375 401.85953125 203.83984375 434.19953125 203.83984375 467.51953125 C192.61984375 467.51953125 181.39984375 467.51953125 169.83984375 467.51953125 C169.83984375 435.50953125 169.83984375 403.49953125 169.83984375 370.51953125 C168.18984375 369.85953125 166.53984375 369.19953125 164.83984375 368.51953125 C163.0390625 366.8984375 163.0390625 366.8984375 161.52734375 365.08203125 C160.75970703 364.18677734 160.75970703 364.18677734 159.9765625 363.2734375 C158.83984375 361.51953125 158.83984375 361.51953125 158.83984375 358.51953125 C151.90984375 358.51953125 144.97984375 358.51953125 137.83984375 358.51953125 C138.41992188 360.82630859 138.41992188 360.82630859 139.01171875 363.1796875 C142.57301678 377.53946451 145.70698045 391.87475865 147.83984375 406.51953125 C147.9584375 407.32084473 148.07703125 408.1221582 148.19921875 408.94775391 C150.00366417 421.82322382 150.01831644 434.731634 150.02734375 447.70703125 C150.0284314 448.57224396 150.02951904 449.43745667 150.03063965 450.32888794 C150.03028712 452.80268215 150.0211765 455.27624488 150.0078125 457.75 C150.00659897 458.50423248 150.00538544 459.25846497 150.00413513 460.03555298 C149.95660468 465.28600938 149.95660468 465.28600938 148.83984375 467.51953125 C26.73984375 467.51953125 -95.36015625 467.51953125 -221.16015625 467.51953125 C-223.42293575 451.68007475 -224.37298834 436.39676236 -224.34765625 420.45703125 C-224.34671967 419.68129761 -224.34578308 418.90556396 -224.34481812 418.10632324 C-224.24608876 379.85380465 -219.91928787 341.89020386 -212.2199707 304.43725586 C-211.99177643 303.2892601 -211.99177643 303.2892601 -211.75897217 302.11807251 C-211.47588594 300.69572865 -211.18140663 299.2755827 -210.87310791 297.85848999 C-210.06344463 293.73718193 -210.21560943 291.24744699 -212.16015625 287.51953125 C-216.96836536 276.99721856 -215.24100428 263.62904159 -214.41015625 252.39453125 C-214.33635742 251.3281543 -214.26255859 250.26177734 -214.18652344 249.16308594 C-213.50140139 241.04682741 -212.0292871 234.55635155 -206.16015625 228.51953125 C-201.67431672 225.76685699 -197.21468589 224.74156259 -192.16015625 223.51953125 C-191.99 222.31296875 -191.81984375 221.10640625 -191.64453125 219.86328125 C-191.40045007 218.24859036 -191.15561818 216.63401282 -190.91015625 215.01953125 C-190.80058594 214.22804687 -190.69101563 213.4365625 -190.578125 212.62109375 C-189.49662726 205.67673985 -187.04096972 200.34075146 -183.16015625 194.51953125 C-183.96375178 192.02367642 -183.96375178 192.02367642 -185.41015625 189.39453125 C-189.71117486 181.05828731 -190.52906669 172.97607291 -190.47265625 163.70703125 C-190.46419678 162.25127686 -190.46419678 162.25127686 -190.45556641 160.76611328 C-190.15885927 143.23101538 -183.44254328 128.50960962 -170.82421875 116.25 C-170.04820312 115.51394531 -169.2721875 114.77789062 -168.47265625 114.01953125 C-161.50371172 107.2431655 -158.14265985 99.41857205 -157.9140625 89.78515625 C-157.88280273 88.66149658 -157.85154297 87.53783691 -157.81933594 86.38012695 C-157.78743164 85.18863037 -157.75552734 83.99713379 -157.72265625 82.76953125 C-156.94839477 59.68038316 -155.40341905 36.25064898 -137.51171875 19.4296875 C-123.1239237 7.74259152 -107.13028856 3.01095198 -88.76171875 4.74609375 C-87.22198099 4.96605629 -85.68928725 5.23504176 -84.16015625 5.51953125 C-83.92039063 4.93042969 -83.680625 4.34132813 -83.43359375 3.734375 C-78.64716024 -4.59049556 -66.46957369 -8.43762196 -57.84375 -11.23046875 C-38.92248705 -15.96901112 -15.27455521 -12.38868694 0 0 Z " fill="#3E3D4D" transform="translate(251.16015625,28.48046875)"/>
<path d="M0 0 C15.26139095 11.44018246 23.11877371 29.91820227 26.29296875 48.28125 C26.81812941 52.00486621 27.27264641 55.73634467 27.73046875 59.46875 C29.44585351 73.12311953 32.789632 85.56616073 43.97705078 94.6484375 C47.15210552 97.07390796 50.40190395 99.38900807 53.6640625 101.6953125 C63.60049153 108.72345579 72.20130347 117.08958882 75.29296875 129.28125 C75.54028088 132.48795507 75.55980501 135.69134141 75.60546875 138.90625 C76.04611707 151.60681604 79.81832751 159.56332422 87.48828125 169.62109375 C91.54195943 175.59632068 93.46287988 183.09853978 92.29296875 190.28125 C90.32122841 198.48368979 86.20268419 203.55125552 79.29296875 208.28125 C71.85512196 212.65500044 64.75771952 212.75888484 56.29296875 212.28125 C56.19274414 211.61706055 56.09251953 210.95287109 55.98925781 210.26855469 C54.45022366 191.28489901 54.45022366 191.28489901 46.734375 174.734375 C44.9625013 172.94809582 44.73214047 171.8003668 44.29296875 169.34375 C44.04933594 168.14105469 44.04933594 168.14105469 43.80078125 166.9140625 C43.4583646 165.13876385 43.11990811 163.36269738 42.78515625 161.5859375 C39.92220326 148.28589004 33.45622929 136.29732885 24.29296875 126.28125 C23.42478516 125.27578125 23.42478516 125.27578125 22.5390625 124.25 C14.06528064 115.02584005 3.06798211 108.90718414 -8.20703125 103.78125 C-26.20965486 95.59544475 -43.66198723 84.05299002 -52.08203125 65.46875 C-54.28067299 59.57751766 -54.51157087 53.51643615 -54.70703125 47.28125 C-58.78170191 46.79180007 -60.39826897 47.07285462 -63.85546875 49.40625 C-64.9453327 50.34823961 -66.02038368 51.30757024 -67.08203125 52.28125 C-67.6529248 52.78817383 -68.22381836 53.29509766 -68.81201172 53.81738281 C-70.45805165 55.29037632 -72.08340627 56.78365025 -73.70703125 58.28125 C-74.444375 58.93609375 -75.18171875 59.5909375 -75.94140625 60.265625 C-93.62625223 76.78122497 -105.22584443 100.79195208 -109.70703125 124.28125 C-109.88057129 125.18415771 -110.05411133 126.08706543 -110.23291016 127.01733398 C-111.78884608 135.91615939 -111.94352172 144.60193849 -111.83203125 153.59375 C-111.82196642 155.02798844 -111.81284685 156.46223383 -111.8046875 157.89648438 C-111.78298574 161.35822115 -111.7486558 164.81968852 -111.70703125 168.28125 C-113.85323385 168.14095581 -115.99899343 167.99386836 -118.14453125 167.84375 C-119.93697266 167.72193359 -119.93697266 167.72193359 -121.765625 167.59765625 C-124.70703125 167.28125 -124.70703125 167.28125 -125.70703125 166.28125 C-132.03858476 165.65052053 -137.21837988 165.98805918 -142.70703125 169.28125 C-146.51622909 173.72531415 -148.08586352 178.75454184 -149.70703125 184.28125 C-154.59191731 184.62921449 -158.97484981 184.62878999 -163.70703125 183.28125 C-172.24671201 173.4703383 -171.42478766 159.13010803 -170.92919922 146.93164062 C-169.90609696 134.72636795 -162.29294518 124.6013029 -153.70703125 116.40625 C-142.66327971 105.68187636 -138.5024348 93.5088318 -138.18554688 78.421875 C-138.17201172 77.13796875 -138.15847656 75.8540625 -138.14453125 74.53125 C-137.89157503 56.0935522 -137.06494093 35.8259674 -123.33203125 21.8671875 C-113.6829397 13.48033176 -103.02391977 8.1310199 -90.20703125 8.15625 C-88.2425 8.15238281 -88.2425 8.15238281 -86.23828125 8.1484375 C-83.45049052 8.25328804 -81.33372465 8.47667725 -78.70703125 9.28125 C-75.37889801 10.11658882 -75.37889801 10.11658882 -71.70703125 9.28125 C-69.52967637 7.19721033 -67.70264831 4.93531177 -65.796875 2.6015625 C-62.58607033 -0.96333091 -59.03927003 -2.78064318 -54.70703125 -4.71875 C-53.56234375 -5.3065625 -53.56234375 -5.3065625 -52.39453125 -5.90625 C-36.37142101 -13.11664961 -14.43003146 -9.16192474 0 0 Z " fill="#FD9E75" transform="translate(242.70703125,35.71875)"/>
<path d="M0 0 C3.46757778 0.57666501 5.0466356 1.71005167 7.4375 4.25 C7.99308594 4.83265625 8.54867187 5.4153125 9.12109375 6.015625 C9.74113281 6.67046875 10.36117187 7.3253125 11 8 C12.66533173 9.66800053 14.33206252 11.33460511 16 13 C24.75988203 21.79024557 31.41218621 31.53518163 38 42 C38.37898437 42.59119629 38.75796875 43.18239258 39.1484375 43.79150391 C47.60597663 57.09384576 60 78.85350488 60 95 C-5.01 95 -70.02 95 -137 95 C-132.35669206 75.26594124 -132.35669206 75.26594124 -129.25 67.5 C-128.90565918 66.62182617 -128.56131836 65.74365234 -128.20654297 64.83886719 C-120.19253858 44.69999123 -109.94628076 26.38107055 -97 9 C-93.9313754 11.03186455 -90.8859089 13.0799065 -87.87109375 15.19140625 C-65.30541913 30.93030195 -65.30541913 30.93030195 -39 35 C-32.0074638 33.12015722 -26.38645118 27.5936048 -21 23 C-20.16082031 22.29617188 -19.32164062 21.59234375 -18.45703125 20.8671875 C-11.34435266 14.71389346 -5.22196485 7.83294727 0 0 Z " fill="#F2FAFB" transform="translate(240,401)"/>
<path d="M0 0 C4.21293969 1.33959834 7.88353035 1.29967963 12.265625 1.203125 C13.049375 1.19410156 13.833125 1.18507813 14.640625 1.17578125 C16.55742555 1.15240563 18.47406691 1.11654153 20.390625 1.078125 C23.68010312 18.42746928 19.91666447 32.93294521 11.390625 48.078125 C10.69839844 49.08101563 10.00617188 50.08390625 9.29296875 51.1171875 C5.34753375 57.25813151 5.1488218 62.65210098 5.2578125 69.71875 C5.25700565 71.61328287 5.25434277 73.50781569 5.25 75.40234375 C5.25195967 78.36291328 5.26552213 81.32150521 5.31152344 84.28173828 C5.56628204 102.89465042 5.56628204 102.89465042 0.609375 109.12109375 C-0.75942102 110.4789321 -2.16147927 111.80496928 -3.609375 113.078125 C-4.40085937 114.01785156 -5.19234375 114.95757812 -6.0078125 115.92578125 C-24.8245251 137.01091178 -24.8245251 137.01091178 -36.6640625 138.44921875 C-42.10030856 137.93788867 -45.99532806 135.74202648 -50.734375 133.140625 C-51.66145264 132.64280518 -52.58853027 132.14498535 -53.54370117 131.63208008 C-60.95155489 127.5885594 -67.86283395 123.14487775 -74.609375 118.078125 C-75.26993393 117.68911011 -75.93049286 117.30009521 -76.61106873 116.89929199 C-82.1776928 113.38212411 -82.1776928 113.38212411 -83.32453918 109.9178009 C-83.56452856 107.3317156 -83.561246 104.84946237 -83.46875 102.25390625 C-83.47013977 101.31185837 -83.47152954 100.36981049 -83.47296143 99.3992157 C-83.47265082 96.39475241 -83.41967794 93.39443508 -83.359375 90.390625 C-82.56228868 71.21284366 -82.56228868 71.21284366 -89.828125 53.95703125 C-90.5809375 53.19261719 -91.33375 52.42820312 -92.109375 51.640625 C-92.8621875 50.85816406 -93.615 50.07570313 -94.390625 49.26953125 C-95.87521247 47.80323976 -97.37549197 46.3526752 -98.890625 44.91796875 C-100.609375 43.078125 -100.609375 43.078125 -100.609375 41.078125 C-99.89096436 40.95808105 -99.17255371 40.83803711 -98.43237305 40.71435547 C-83.43428798 38.17141514 -68.89030311 35.37854639 -54.609375 30.078125 C-53.63226563 29.71557617 -52.65515625 29.35302734 -51.6484375 28.97949219 C-40.76134785 24.88339272 -29.98061014 20.55016612 -19.609375 15.265625 C-18.90345215 14.91717529 -18.1975293 14.56872559 -17.47021484 14.2097168 C-13.6477922 12.1934535 -13.6477922 12.1934535 -11.78125 8.44921875 C-11.69617188 7.27552734 -11.69617188 7.27552734 -11.609375 6.078125 C-8.5827872 2.40298267 -4.93344736 -1.74295446 0 0 Z " fill="#F2FAFB" transform="translate(230.609375,288.921875)"/>
<path d="M0 0 C3.35135304 1.22984781 6.5722488 2.69253562 9.8125 4.1875 C41.57292011 18.2503639 75.37037946 24.40954873 110 24 C110.33 22.35 110.66 20.7 111 19 C112.12474731 18.88724731 112.12474731 18.88724731 113.2722168 18.7722168 C116.74490244 18.41915731 120.21614314 18.05338502 123.6875 17.6875 C124.86634766 17.56955078 126.04519531 17.45160156 127.25976562 17.33007812 C134.41577882 16.56546302 141.21866118 15.37351985 148.17114258 13.49926758 C151.17649257 12.96885067 153.09496723 13.11910487 156 14 C157.94921875 15.59375 157.94921875 15.59375 159.6875 17.5 C162.0600452 20.12443635 162.0600452 20.12443635 165 22 C164 25 164 25 162.15234375 26.16796875 C161.05599609 26.67263672 161.05599609 26.67263672 159.9375 27.1875 C159.20402344 27.53167969 158.47054687 27.87585938 157.71484375 28.23046875 C157.14894531 28.48441406 156.58304688 28.73835938 156 29 C155.01 28.01 155.01 28.01 154 27 C148.75736562 25.96721086 144.69773912 29.08042351 140.3125 31.5625 C131.82701746 36.20560857 123.24284286 39.88757631 114.16235352 43.18676758 C111.81016607 44.07139402 109.49933513 45.03736729 107.1796875 46.00390625 C97.7983599 49.77189756 87.84634611 51.81884738 78 54 C77.17725586 54.1851416 76.35451172 54.3702832 75.50683594 54.56103516 C52.79798627 59.40513899 26.2503102 58.93627964 3.3125 55.75 C2.12333984 55.58636963 2.12333984 55.58636963 0.91015625 55.41943359 C-5.58741581 54.30485457 -9.97281447 51.77681574 -13.84375 46.47265625 C-16.82618748 41.30238102 -16.67593378 36.27240609 -16.5 30.4375 C-16.48155029 29.38208008 -16.46310059 28.32666016 -16.4440918 27.23925781 C-15.86419967 6.32480109 -15.86419967 6.32480109 -10.88671875 0.546875 C-6.97446936 -1.5495401 -4.11937362 -1.15865903 0 0 Z " fill="#EA689D" transform="translate(63,265)"/>
<path d="M0 0 C4.03287814 3.8697838 7.52150464 8.00591641 11 12.375 C20.46401216 24.12342889 30.31948749 35.4340906 40.71240234 46.37109375 C43.77986141 49.60265556 46.76096979 52.87089384 49.65234375 56.26171875 C56.70569955 64.36362618 64.54567095 66.91435548 75 68 C80.62463253 68.32960786 86.25843101 68.39068678 91.8911438 68.46414185 C109.01575379 68.69400895 125.93179636 69.53701112 143 71 C143 79.25 143 87.5 143 96 C131.43817689 96.09057168 119.87659159 96.16387197 108.31449318 96.20724869 C102.94504175 96.22807324 97.57584681 96.25629689 92.20654297 96.30175781 C87.01938754 96.34539886 81.83247797 96.36917567 76.64515305 96.37950897 C74.67170724 96.38686765 72.69827403 96.40123711 70.72493362 96.42292023 C50.8453949 96.63255818 50.8453949 96.63255818 43 92 C41.65494385 91.2411853 41.65494385 91.2411853 40.28271484 90.46704102 C39.59902832 89.98420654 38.9153418 89.50137207 38.2109375 89.00390625 C37.02842407 88.17572388 37.02842407 88.17572388 35.82202148 87.33081055 C34.61074585 86.45549683 34.61074585 86.45549683 33.375 85.5625 C32.08348022 84.64368042 32.08348022 84.64368042 30.76586914 83.70629883 C23.18114845 78.25283354 15.91336916 72.45249873 8.75146484 66.45898438 C7.0811569 65.06760435 5.39811563 63.6941391 3.70703125 62.328125 C-1.73330196 57.92986354 -1.73330196 57.92986354 -4 56 C-4.77085937 55.34773438 -5.54171875 54.69546875 -6.3359375 54.0234375 C-8 52 -8 52 -8.0234375 49.88671875 C-7.80945313 49.16097656 -7.59546875 48.43523437 -7.375 47.6875 C-7.07722656 46.61048828 -7.07722656 46.61048828 -6.7734375 45.51171875 C-6.1827907 43.59360819 -5.56114052 41.68501741 -4.92578125 39.78125 C-3.83907279 35.3427108 -3.74156756 31.3567526 -3.8125 26.8125 C-3.81531982 25.97895996 -3.81813965 25.14541992 -3.82104492 24.28662109 C-3.8640505 19.50421612 -4.19902584 14.87352595 -4.8125 10.125 C-5.30169946 5.5290998 -5.30169946 5.5290998 -3.953125 3.1640625 C-2.5625 1.75 -2.5625 1.75 0 0 Z " fill="#FDCCC4" transform="translate(265,280)"/>
<path d="M0 0 C1.18753045 2.31824125 2.28629759 4.64771699 3.33984375 7.03125 C12.14022328 26.1381865 28.4283156 38.7141578 47 48 C47.66048647 63.16672637 44.91687932 76.43457172 34.8125 88.125 C21.40466013 102.3400008 21.40466013 102.3400008 13.12109375 103.3515625 C7.1580412 102.67987948 2.71272503 98.48525414 -2 95 C-3.01513672 94.24976563 -3.01513672 94.24976563 -4.05078125 93.484375 C-15.17050154 84.58859877 -22.85513914 71.32701527 -24.76855469 57.19433594 C-27.3189112 33.01437357 -27.3189112 33.01437357 -22 24.625 C-20.71323106 23.0442598 -19.37956344 21.50043947 -18 20 C-16.72788593 18.31346527 -15.45707006 16.62595061 -14.1875 14.9375 C-9.82325208 9.59579774 -4.96383543 4.78074314 0 0 Z " fill="#FDD6CF" transform="translate(179,98)"/>
<path d="M0 0 C4.28823704 4.01233943 7.61680375 8.39976313 11 13.1875 C12.14961642 14.79696298 13.29935972 16.40633534 14.44921875 18.015625 C15.03493652 18.83869141 15.6206543 19.66175781 16.22412109 20.50976562 C19.06881803 24.49875501 21.94122201 28.46762409 24.8125 32.4375 C25.88542322 33.92317235 26.95834009 35.40884929 28.03125 36.89453125 C31.67621865 41.93790614 35.3340853 46.97182696 39 52 C28.73740045 65.70393668 18.32256425 79.20950055 7.34277344 92.35009766 C6.25411441 93.68776269 5.22964015 95.0774857 4.2265625 96.48046875 C3.82179688 96.98191406 3.41703125 97.48335938 3 98 C2.34 98 1.68 98 1 98 C-0.44970703 96.54443359 -0.44970703 96.54443359 -2.1328125 94.5234375 C-5.90834692 90.08381529 -9.86329135 85.85080176 -13.875 81.625 C-15.28570644 80.12812249 -16.69586614 78.63072953 -18.10546875 77.1328125 C-19.90987924 75.21614107 -21.71443832 73.29987166 -23.52978516 71.39355469 C-34.32902624 60.04466347 -34.32902624 60.04466347 -36 54 C-34.84568691 49.49591561 -32.02253513 45.8780677 -29.375 42.125 C-28.90352539 41.44808105 -28.43205078 40.77116211 -27.94628906 40.07373047 C-26.89103474 38.5594506 -25.83361497 37.04667821 -24.77441406 35.53515625 C-22.83001415 32.75713634 -20.89480884 29.97285882 -18.9609375 27.1875 C-12.65863952 18.11236585 -6.34055521 9.04844943 0 0 Z " fill="#B8DBFB" transform="translate(434,33)"/>
<path d="M0 0 C24.77626887 3.16887304 24.77626887 3.16887304 36 5 C34.70054243 12.32421537 32.83323925 19.37770773 30.67700195 26.48974609 C29.3336462 31.09539386 28.42359059 35.16044379 29 40 C30.59692487 43.048349 30.59692487 43.048349 32.9375 45.8125 C33.75863281 46.84503906 34.57976562 47.87757813 35.42578125 48.94140625 C38.43341654 52.51496988 41.49136283 56.02515064 44.6640625 59.453125 C46.53799584 61.4962764 48.34779839 63.56854988 50.15234375 65.671875 C54.51793143 70.67753004 59.21971673 75.32885641 63.9375 80 C64.81212891 80.87011719 65.68675781 81.74023438 66.58789062 82.63671875 C68.72297449 84.76013549 70.86037205 86.88116378 73 89 C71.81603339 92.08137459 70.54774725 94.96951963 68.8984375 97.828125 C68.29201416 98.89281006 68.29201416 98.89281006 67.67333984 99.97900391 C67.2448877 100.72843262 66.81643555 101.47786133 66.375 102.25 C61.4522397 110.96532262 57.12984573 119.88665327 53 129 C50 128 50 128 48.3125 125.375 C45.98063519 119.3787762 47.04605149 114.00043122 48.5 107.875 C50.11983835 101.97300234 50.11983835 101.97300234 50 96 C47.97153771 94.22124203 46.13048261 92.86723557 43.875 91.4375 C32.89728163 84.03194069 23.25005386 75.25040556 13.5625 66.25 C12.9123291 65.64841064 12.2621582 65.04682129 11.59228516 64.42700195 C-3.41923518 50.31972038 -3.41923518 50.31972038 -4.36328125 40.046875 C-4.36494779 38.61448428 -4.34716629 37.18197213 -4.3125 35.75 C-4.3026709 34.98002686 -4.2928418 34.21005371 -4.28271484 33.41674805 C-4.15555809 27.52535 -3.71681367 21.67416374 -3.125 15.8125 C-3.04677002 15.03551758 -2.96854004 14.25853516 -2.88793945 13.45800781 C-2.35801932 8.78254023 -1.41491299 4.48848447 0 0 Z " fill="#FCD3CC" transform="translate(52,328)"/>
<path d="M0 0 C11.55 0 23.1 0 35 0 C38.38149722 9.01732592 38.38149722 9.01732592 39.28125 13.109375 C39.58228638 14.47352539 39.58228638 14.47352539 39.8894043 15.86523438 C40.09090088 16.81720703 40.29239746 17.76917969 40.5 18.75 C40.71503174 19.75353516 40.93006348 20.75707031 41.15161133 21.79101562 C42.99492625 30.5923418 44.46980115 39.42963417 45.63476562 48.34545898 C45.90114321 50.28150409 46.2013928 52.21297675 46.52148438 54.14086914 C48.30372038 65.58921638 48.22694196 76.87862856 48.125 88.4375 C48.11494238 90.4407507 48.10582149 92.44400632 48.09765625 94.44726562 C48.07760194 99.29840247 48.0384166 104.14883703 48 109 C37.44 109 26.88 109 16 109 C16.03480469 106.55851562 16.06960938 104.11703125 16.10546875 101.6015625 C16.50891372 66.09455651 12.70288542 33.46125914 0 0 Z " fill="#F06CA2" transform="translate(342,387)"/>
<path d="M0 0 C3.18017466 3.05296768 6.01034536 6.32430074 8.828125 9.70703125 C10.80435848 12.01638241 10.80435848 12.01638241 12.98681641 13.12963867 C16.18403337 15.17319496 18.53796511 17.04763088 19.44628906 20.88583374 C20.04715012 25.86748105 19.98989131 30.86860421 19.91595459 35.87884521 C19.86063395 39.67271964 19.8924093 43.46438301 19.91897583 47.25842285 C19.93131245 49.15968494 19.93919529 51.06098121 19.94259644 52.96228027 C19.96118785 60.79535057 20.28585776 68.56163996 20.875 76.375 C20.95782227 77.47666504 21.04064453 78.57833008 21.12597656 79.71337891 C21.8341309 88.30922282 22.98781381 96.81214601 24.4140625 105.31640625 C25 109 25 109 25 112 C16.42 112 7.84 112 -1 112 C-2.94829535 100.31022792 -4.1511643 89.31379153 -4.203125 77.53515625 C-4.20995804 76.47113586 -4.21679108 75.40711548 -4.22383118 74.31085205 C-4.24080396 70.89470203 -4.2471529 67.47868967 -4.25 64.0625 C-4.25200409 62.90092377 -4.25400818 61.73934753 -4.256073 60.54257202 C-4.26306425 44.0290857 -3.77562951 27.88756889 -1.36376953 11.52978516 C-0.81251138 7.69613616 -0.40852139 3.85120652 0 0 Z " fill="#E6659A" transform="translate(42,384)"/>
<path d="M0 0 C2.45385222 1.30414523 4.77343503 2.75779904 7.125 4.23828125 C26.17832636 15.91362118 47.93748106 23.00871802 69.71582031 27.52099609 C71.75214934 27.94802448 73.77929225 28.41833462 75.8046875 28.89453125 C89.62142046 31.91044178 103.91538075 32.23387374 118 33 C118 35.31 118 37.62 118 40 C91.8020618 46.22266396 60.11346012 42.94523479 33.97705078 37.41650391 C32.65157835 37.13726756 31.32436275 36.86618926 29.99560547 36.60302734 C10.26341057 32.67936176 -7.49920614 24.76044275 -25 15 C-25.1702706 8.87656486 -25.20825877 5.89067911 -21 1 C-14.90946944 -3.93826803 -6.96935118 -2.40004146 0 0 Z " fill="#E66499" transform="translate(97,231)"/>
<path d="M0 0 C4.21293969 1.33959834 7.88353035 1.29967963 12.265625 1.203125 C13.049375 1.19410156 13.833125 1.18507813 14.640625 1.17578125 C16.55742555 1.15240563 18.47406691 1.11654153 20.390625 1.078125 C21.31154781 5.73349856 21.51268497 10.22497933 21.453125 14.953125 C21.44861328 15.64148438 21.44410156 16.32984375 21.43945312 17.0390625 C21.42778836 18.71878835 21.40985771 20.39846875 21.390625 22.078125 C21.060625 22.078125 20.730625 22.078125 20.390625 22.078125 C19.895625 18.118125 19.895625 18.118125 19.390625 14.078125 C17.75480469 15.20347656 17.75480469 15.20347656 16.0859375 16.3515625 C-11.35755149 35.0540881 -41.34089242 49.75882436 -74.11328125 56.35546875 C-77.50063113 56.98523619 -77.50063113 56.98523619 -80.26171875 57.95703125 C-82.85987341 58.68305338 -84.03288372 58.9306405 -86.609375 58.078125 C-90.77287018 54.43506672 -94.14299721 50.37416042 -97.609375 46.078125 C-98.21007812 45.49546875 -98.81078125 44.9128125 -99.4296875 44.3125 C-100.609375 43.078125 -100.609375 43.078125 -100.609375 41.078125 C-99.89096436 40.95808105 -99.17255371 40.83803711 -98.43237305 40.71435547 C-83.43428798 38.17141514 -68.89030311 35.37854639 -54.609375 30.078125 C-53.63226563 29.71557617 -52.65515625 29.35302734 -51.6484375 28.97949219 C-40.76134785 24.88339272 -29.98061014 20.55016612 -19.609375 15.265625 C-18.90345215 14.91717529 -18.1975293 14.56872559 -17.47021484 14.2097168 C-13.6477922 12.1934535 -13.6477922 12.1934535 -11.78125 8.44921875 C-11.69617188 7.27552734 -11.69617188 7.27552734 -11.609375 6.078125 C-8.5827872 2.40298267 -4.93344736 -1.74295446 0 0 Z " fill="#B5CDDE" transform="translate(230.609375,288.921875)"/>
<path d="M0 0 C4.42746065 1.58123595 6.90568199 5.07932534 9.75 8.625 C10.30856689 9.31867676 10.86713379 10.01235352 11.44262695 10.72705078 C24.92753789 27.82778958 37.66830442 46.78841042 46 67 C42.16692831 67.11719175 38.33432392 67.18758077 34.5 67.25 C33.42234375 67.28351563 32.3446875 67.31703125 31.234375 67.3515625 C23.02014384 67.45173605 17.82497874 66.17455334 11.49609375 60.921875 C10.81675781 60.20515625 10.13742187 59.4884375 9.4375 58.75 C8.67953125 57.9559375 7.9215625 57.161875 7.140625 56.34375 C4.71888918 53.69221444 2.34042086 51.01199349 0.00390625 48.28515625 C-2.05737597 45.93457127 -4.17594877 43.64842578 -6.30957031 41.36376953 C-11.48911582 35.81748765 -16.42918418 30.18013009 -21.16015625 24.2421875 C-22.6937906 22.37317239 -24.25235051 20.66598362 -26 19 C-25.505 17.515 -25.505 17.515 -25 16 C-22.375 14.859375 -22.375 14.859375 -19 13.75 C-11.06044144 10.86209463 -4.90216477 6.95742019 0 0 Z " fill="#CE5284" transform="translate(312,271)"/>
<path d="M0 0 C0.94617188 -0.01611328 1.89234375 -0.03222656 2.8671875 -0.04882812 C11.70721301 -0.05503601 11.70721301 -0.05503601 15.625 3.3125 C19.0997927 6.79619205 20.09207245 9.28163313 20.18078613 14.21385193 C20.17268921 14.95667923 20.16459229 15.69950653 20.15625 16.46484375 C20.1600769 17.24259659 20.16390381 18.02034943 20.16784668 18.82167053 C20.17056034 20.46144917 20.16323733 22.1012715 20.14648438 23.7409668 C20.12509325 26.23911003 20.14628674 28.73436839 20.171875 31.23242188 C20.16923106 32.83073547 20.1641047 34.42904727 20.15625 36.02734375 C20.16434692 36.76814682 20.17244385 37.50894989 20.18078613 38.27220154 C20.08865227 43.4176057 18.8772503 46.35504996 15.625 50.3125 C10.75943207 53.65757795 6.32795517 53.80175949 0.625 53.75 C-0.54675781 53.7799707 -0.54675781 53.7799707 -1.7421875 53.81054688 C-7.07308645 53.80605959 -10.21880881 52.93061287 -14.375 49.3125 C-17.6710248 45.04905136 -17.82848661 41.10937515 -17.80859375 35.90625 C-17.8138356 35.10392944 -17.81907745 34.30160889 -17.82447815 33.47497559 C-17.83088231 31.78394729 -17.82958217 30.09287434 -17.82104492 28.40185547 C-17.81252634 25.82048032 -17.84132947 23.24131352 -17.87304688 20.66015625 C-17.87465893 19.01302149 -17.87408128 17.36588284 -17.87109375 15.71875 C-17.88232773 14.95091187 -17.89356171 14.18307373 -17.90513611 13.39196777 C-17.85751363 9.71529773 -17.52130685 7.5426848 -15.53149414 4.41210938 C-10.51451694 -0.47252823 -6.63446356 -0.02241373 0 0 Z " fill="#FCCDC4" transform="translate(436.375,337.6875)"/>
<path d="M0 0 C4.52554492 3.69432239 8.40436308 7.48253911 12.18359375 11.9296875 C14.04274652 14.04872183 15.98961399 16.02447617 18 18 C21.27202128 21.2215855 24.29316055 24.58592145 27.28515625 28.06640625 C28.96004299 29.95494597 30.69947587 31.73155648 32.5 33.5 C34.93389732 35.89053167 37.21355559 38.35046262 39.4375 40.9375 C41.89379448 43.7912174 44.44246922 46.48273235 47.125 49.125 C56.59080989 58.49890883 56.59080989 58.49890883 57 63 C57.2165625 64.5778125 57.2165625 64.5778125 57.4375 66.1875 C56.82684813 71.5088949 54.19113924 74.81162975 51 79 C47.74792908 77.58261511 45.68638933 75.87473588 43.25 73.3125 C40.67006764 70.6614298 38.07119037 68.14213433 35.25 65.75 C31.13638456 62.21941667 27.34496288 58.40553976 23.56347656 54.52636719 C20.85310651 51.76815625 18.07104787 49.15790167 15.14453125 46.62890625 C10.82804878 42.89165198 6.73915719 38.95854978 2.6875 34.9375 C1.98560547 34.25623047 1.28371094 33.57496094 0.56054688 32.87304688 C-4.39535494 27.9549403 -8.40387454 23.45456658 -8.5 16.125 C-8.30282999 9.24480446 -4.82762561 4.62942398 0 0 Z " fill="#EF6F67" transform="translate(399,107)"/>
<path d="M0 0 C0.33 1.32 0.66 2.64 1 4 C3.10427163 5.0719118 3.10427163 5.0719118 6 6 C7.45599657 6.69557307 8.90306343 7.40996563 10.34375 8.13671875 C22.60302156 14.22678528 34.86282618 19.14761642 48 23 C49.66482422 23.48919922 49.66482422 23.48919922 51.36328125 23.98828125 C61.47250718 26.59927338 71.99231871 27.50262764 82.34594727 28.68505859 C83.92942442 28.87296086 85.51154084 29.0742299 87.08959961 29.30322266 C93.0341883 30.16568972 98.93872446 30.1501936 104.9375 30.125 C106.61851807 30.12209961 106.61851807 30.12209961 108.33349609 30.11914062 C120.23419184 30.05934648 132.11466761 29.57962192 144 29 C144.33 28.34 144.66 27.68 145 27 C145.99 30.3 146.98 33.6 148 37 C146.2365625 37.1546875 146.2365625 37.1546875 144.4375 37.3125 C140.0634173 37.78929574 135.80825452 38.6105819 131.5 39.5 C122.27478993 41.39322493 112.43544988 43.23647081 103 42 C102.34 41.01 101.68 40.02 101 39 C97.87361667 38.34836071 97.87361667 38.34836071 94.1484375 38.15625 C93.45674469 38.10102173 92.76505188 38.04579346 92.05239868 37.9888916 C89.82738224 37.81263415 87.60160176 37.65483951 85.375 37.5 C74.04729378 36.68507537 63.1280415 35.32246444 52 33 C50.98545998 32.79176102 50.98545998 32.79176102 49.95042419 32.57931519 C40.06466543 30.54548979 30.578997 27.67771943 21 24.5 C19.85426514 24.12020996 18.70853027 23.74041992 17.52807617 23.34912109 C11.18219483 21.2018266 5.07252925 18.83041617 -1 16 C-0.67 10.72 -0.34 5.44 0 0 Z " fill="#943F66" transform="translate(71,242)"/>
<path d="M0 0 C9.48668135 9.48668135 12.73118138 15.84720441 12.81250095 29.16346455 C12.79248258 32.28023613 12.73864154 35.39538531 12.68359375 38.51171875 C12.67051956 40.69316512 12.660564 42.8746322 12.65357971 45.05610657 C12.62699783 50.76612228 12.55836027 56.47486897 12.48065186 62.18438721 C12.40872923 68.02314086 12.37700636 73.86210185 12.34179688 79.70117188 C12.26697996 91.13466867 12.147686 102.56722834 12 114 C8.04 114 4.08 114 0 114 C0 76.38 0 38.76 0 0 Z " fill="#FB7971" transform="translate(432,213)"/>
<path d="M0 0 C5.73839874 2.81506353 9.99027806 7.11205403 12.1171875 13.1953125 C13.04648886 17.20035463 13.36721986 20.97403626 13.375 25.0625 C13.39949219 25.74376953 13.42398438 26.42503906 13.44921875 27.12695312 C13.47872081 32.24556041 12.17753738 35.05426677 9 39 C4.05542215 43.57373451 -0.10919945 44.38854656 -6.6875 44.26953125 C-10.47743034 43.8277995 -13.20921884 42.60956161 -16 40 C-20.33759529 33.56612006 -21.21409225 27.26144121 -21.3125 19.625 C-21.34150391 18.8825 -21.37050781 18.14 -21.40039062 17.375 C-21.4610054 12.09685154 -20.4579653 9.20120739 -17 5 C-11.36805604 0.03852556 -7.41478247 -0.81117035 0 0 Z " fill="#FCC363" transform="translate(246,237)"/>
<path d="M0 0 C3.96 0 7.92 0 12 0 C12 31.35 12 62.7 12 95 C8.04 95 4.08 95 0 95 C0 63.65 0 32.3 0 0 Z " fill="#E86A63" transform="translate(432,401)"/>
<path d="M0 0 C2.98046875 1.75 2.98046875 1.75 6.1875 4 C27.41371642 18.20506144 53.34203512 26.84528662 78.5 30.625 C79.30735596 30.74979736 80.11471191 30.87459473 80.9465332 31.00317383 C87.27752313 31.95468493 93.60682036 32.62993571 100 33 C100 35.97 100 38.94 100 42 C90.88010298 42.31629701 82.11388045 41.4646201 73.09765625 40.26904297 C71.16183804 40.02075716 69.22160205 39.8075893 67.28125 39.59765625 C59.90855532 38.7562074 52.72626639 37.42298536 45.5 35.75 C44.66299561 35.56977295 43.82599121 35.3895459 42.96362305 35.20385742 C37.75219239 33.93016138 34.58345438 32.17500698 30.69384766 28.50292969 C27.9155105 26.03774613 24.71152872 24.46396195 21.4375 22.75 C10.91224578 17.03256276 0.69822544 10.28402423 -8 2 C-8 1.34 -8 0.68 -8 0 C-5.01665583 -1.49167208 -3.2045255 -0.79825306 0 0 Z " fill="#D85B8E" transform="translate(115,212)"/>
<path d="M0 0 C4.36063986 10.59012538 6.27731304 20.52786068 6.375 31.9375 C6.38877686 32.83750732 6.40255371 33.73751465 6.41674805 34.66479492 C6.38038091 39.85365766 5.91068881 43.52629214 3 48 C-2.3091619 52.79119488 -5.0837255 53.11155281 -12 53 C-12.09796875 51.99582031 -12.1959375 50.99164063 -12.296875 49.95703125 C-13.53210619 38.28187277 -14.77886301 26.92580587 -23 18 C-21.82759921 14.48279764 -20.87802786 13.93593435 -17.9375 11.8125 C-13.79025624 8.7267924 -10.35001245 5.36422343 -6.921875 1.50390625 C-4.48374952 -0.40397649 -3.02008505 -0.29680146 0 0 Z " fill="#DD5E92" transform="translate(282,216)"/>
<path d="M0 0 C0 9.57 0 19.14 0 29 C-10.12843578 29 -10.12843578 29 -14.1484375 28.16015625 C-15.00824219 27.98419922 -15.86804688 27.80824219 -16.75390625 27.62695312 C-17.61886719 27.44068359 -18.48382813 27.25441406 -19.375 27.0625 C-20.26316406 26.88009766 -21.15132812 26.69769531 -22.06640625 26.50976562 C-25.45391109 25.80510312 -28.71416433 25.09527856 -32 24 C-32 16.41 -32 8.82 -32 1 C-26 3 -26 3 -23.94921875 4.09765625 C-19.87888142 5.98192063 -15.35678269 5.6047825 -11 5 C-8.39720005 3.8982248 -6.14312842 2.63386298 -3.77734375 1.09375 C-2 0 -2 0 0 0 Z " fill="#E18481" transform="translate(209,205)"/>
<path d="M0 0 C0.495 0.99 0.495 0.99 1 2 C-0.06556684 4.25863741 -1.17766371 6.35228178 -2.4375 8.5 C-2.98349854 9.44178101 -2.98349854 9.44178101 -3.54052734 10.40258789 C-6.87545822 16.02463587 -10.74461739 21.04132194 -15 26 C-15.76957031 26.96873047 -15.76957031 26.96873047 -16.5546875 27.95703125 C-20.70602712 33.10693635 -25.63459304 37.87819768 -32 40 C-34.015625 40.203125 -34.015625 40.203125 -36.25 40.25 C-36.97703125 40.27578125 -37.7040625 40.3015625 -38.453125 40.328125 C-44.5092385 39.54788952 -49.72159268 36.1549873 -54.75 32.875 C-55.35344238 32.48320557 -55.95688477 32.09141113 -56.57861328 31.68774414 C-65.38273581 25.87135668 -74.19610694 19.12957996 -81 11 C-81 10.34 -81 9.68 -81 9 C-77.0444984 10.42917758 -73.7707445 12.33560397 -70.25 14.625 C-52.90666169 25.65609433 -52.90666169 25.65609433 -33 27 C-20.54177405 23.41552797 -7.70142294 10.01184983 0 0 Z " fill="#B5CDDE" transform="translate(234,409)"/>
<path d="M0 0 C0.66 0 1.32 0 2 0 C5.84819418 8.65843691 4.63488953 17.38328865 1.375 25.953125 C0.2846977 28.73366027 -0.85355204 31.49224124 -2 34.25 C-2.58001717 35.68804034 -3.15815637 37.12683963 -3.734375 38.56640625 C-5.1347863 42.05338526 -6.56009099 45.52915551 -8 49 C-11.03867819 47.65396955 -13.00385612 46.19575827 -15.234375 43.7421875 C-15.80800781 43.11699219 -16.38164062 42.49179688 -16.97265625 41.84765625 C-17.55917969 41.19667969 -18.14570313 40.54570312 -18.75 39.875 C-19.35199219 39.21628906 -19.95398438 38.55757812 -20.57421875 37.87890625 C-22.05480215 36.25731491 -23.52977125 34.63097546 -25 33 C-23.55837378 28.56109441 -21.11256718 25.49660269 -18.0625 22.0625 C-13.35010202 16.63667756 -8.85251099 11.07953254 -4.44165039 5.40649414 C-1.06904901 1.06904901 -1.06904901 1.06904901 0 0 Z " fill="#C54243" transform="translate(469,107)"/>
<path d="M0 0 C1.8612545 1.37520908 3.71367812 2.76060611 5.55859375 4.15771484 C7.20555998 5.40051556 8.86483985 6.62714215 10.53515625 7.83837891 C27.24100584 20.34598127 27.24100584 20.34598127 28.91210938 30.15966797 C29.96164449 39.73240363 29.11535935 49.4696833 28 59 C21.90847559 53.03510379 17.69923395 46.13370333 14.625 38.1875 C12.70798138 33.27354227 10.28577557 29.11237708 7.375 24.75 C1.79043537 16.31229052 -0.46779492 10.1955303 0 0 Z " fill="#C54343" transform="translate(416,170)"/>
<path d="M0 0 C2.3412126 2.22872191 4.25771071 4.59764026 6.1875 7.1875 C15.87448876 19.62214395 28.15211085 27.71163729 42 35 C42 39.29 42 43.58 42 48 C41.01 48.33 40.02 48.66 39 49 C37.44921875 47.93359375 37.44921875 47.93359375 35.6875 46.4375 C31.46882793 43.54896894 28.6323062 44.01170222 23.6875 44.875 C21.89892578 45.27332031 21.89892578 45.27332031 20.07421875 45.6796875 C17 46 17 46 15.078125 44.7265625 C14 43 14 43 14.0625 40.5 C15.17605314 37.53052497 16.44515893 36.7683407 19 35 C18.443125 34.45214844 17.88625 33.90429688 17.3125 33.33984375 C9.08102416 24.78856395 0 12.29468017 0 0 Z " fill="#E58583" transform="translate(184,111)"/>
<path d="M0 0 C24.77626887 3.16887304 24.77626887 3.16887304 36 5 C34.83445193 11.0509304 33.54656904 17.03466226 32 23 C31.505 22.01 31.505 22.01 31 21 C28.25882857 20.56462396 28.25882857 20.56462396 25 20.4375 C23.22496094 20.32341797 23.22496094 20.32341797 21.4140625 20.20703125 C20.28742188 20.13871094 19.16078125 20.07039063 18 20 C11.05509087 19.50706481 4.67238096 17.98300668 -2 16 C-2.05525226 14.64631959 -2.09334369 13.29193765 -2.125 11.9375 C-2.15980469 10.80634766 -2.15980469 10.80634766 -2.1953125 9.65234375 C-1.9457563 6.26337052 -1.00606716 3.23605067 0 0 Z " fill="#E58481" transform="translate(52,328)"/>
<path d="M0 0 C1.95569854 3.91139708 1.70022423 8.6902601 2.0625 13 C2.15337891 14.00417969 2.24425781 15.00835937 2.33789062 16.04296875 C3.43495009 28.795254 3.43495009 28.795254 3 35 C2.67 35.33 2.34 35.66 2 36 C-3.27549243 35.46362432 -8.31210204 34.2645701 -13.4375 32.9375 C-14.16904297 32.75123047 -14.90058594 32.56496094 -15.65429688 32.37304688 C-17.43703198 31.9186242 -19.21863787 31.45977534 -21 31 C-22.26193509 26.61404689 -22.26193509 26.61404689 -21.10717773 23.90698242 C-20.63739502 23.22998291 -20.1676123 22.5529834 -19.68359375 21.85546875 C-18.90725586 20.71561523 -18.90725586 20.71561523 -18.11523438 19.55273438 C-17.56158203 18.77220703 -17.00792969 17.99167969 -16.4375 17.1875 C-15.91091797 16.41857422 -15.38433594 15.64964844 -14.84179688 14.85742188 C-13.25292842 12.55288196 -11.62779483 10.27714716 -10 8 C-9.47164551 7.22221191 -8.94329102 6.44442383 -8.39892578 5.64306641 C-7.88700684 4.9113623 -7.37508789 4.1796582 -6.84765625 3.42578125 C-6.39527588 2.76618408 -5.94289551 2.10658691 -5.47680664 1.42700195 C-4 0 -4 0 0 0 Z " fill="#FCFDFE" transform="translate(430,52)"/>
<path d="M0 0 C-0.67804688 0.78761719 -1.35609375 1.57523437 -2.0546875 2.38671875 C-7.25123119 8.45610099 -12.30227397 14.5887672 -17.13574219 20.95263672 C-22.29591787 27.7363999 -27.65574595 34.36100399 -33 41 C-33.66 40.67 -34.32 40.34 -35 40 C-34.88406494 39.3702124 -34.76812988 38.7404248 -34.64868164 38.09155273 C-34.11853244 35.20712778 -33.59050044 32.32231903 -33.0625 29.4375 C-32.78889648 27.9515332 -32.78889648 27.9515332 -32.50976562 26.43554688 C-32.33251953 25.46552734 -32.15527344 24.49550781 -31.97265625 23.49609375 C-31.79492676 22.54718262 -31.61719727 21.59827148 -31.43408203 20.62060547 C-30.92223629 17.7987803 -30.92223629 17.7987803 -30.74609375 14.09765625 C-29.92718603 10.6976886 -28.83169916 9.17344589 -26.00585938 7.11230469 C-21.82685854 4.79493275 -17.3090798 3.49034942 -12.75 2.125 C-11.74453125 1.8053125 -10.7390625 1.485625 -9.703125 1.15625 C-2.27818729 -1.13909365 -2.27818729 -1.13909365 0 0 Z " fill="#598EDB" transform="translate(470,90)"/>
<path d="M0 0 C3.16900284 -0.33183276 4.56440252 -0.32336245 7.16796875 1.609375 C7.83441406 2.31578125 8.50085938 3.0221875 9.1875 3.75 C9.86167969 4.44609375 10.53585937 5.1421875 11.23046875 5.859375 C12.87263542 7.84592541 13.96810203 9.65044771 15 12 C7.36677366 21.78618762 -1.39498393 25.94631587 -13 30 C-15.31 27.03 -17.62 24.06 -20 21 C-17.5474043 19.3649362 -15.16995376 18.03739596 -12.5625 16.6875 C-5.43608536 12.70916173 -2.99828468 7.32028016 0 0 Z " fill="#923E64" transform="translate(298,259)"/>
<path d="M0 0 C1.03125 0.78375 2.0625 1.5675 3.125 2.375 C4.74874661 3.58501711 6.37393586 4.79309906 8 6 C8.98355469 6.73863281 9.96710938 7.47726563 10.98046875 8.23828125 C18.59986869 13.87224799 26.47944324 18.75330266 34.77856445 23.33276367 C35.55804443 23.7682251 36.33752441 24.20368652 37.140625 24.65234375 C37.83704102 25.03382568 38.53345703 25.41530762 39.25097656 25.80834961 C41 27 41 27 43 30 C37.13677237 29.42778661 32.19157487 27.77761653 26.75 25.5625 C25.89116211 25.21703125 25.03232422 24.8715625 24.14746094 24.515625 C14.76660093 20.64426753 5.87613582 15.89994828 -3 11 C-2.69217504 9.35328588 -2.37860766 7.70764424 -2.0625 6.0625 C-1.88847656 5.14597656 -1.71445313 4.22945312 -1.53515625 3.28515625 C-1 1 -1 1 0 0 Z " fill="#913E65" transform="translate(106,213)"/>
<path d="M0 0 C0.92941406 0.48210937 1.85882813 0.96421875 2.81640625 1.4609375 C4.06493755 2.09928433 5.31364495 2.73728678 6.5625 3.375 C7.17158203 3.69210938 7.78066406 4.00921875 8.40820312 4.3359375 C14.20607613 7.28088887 19.92041048 9.08934881 26.4375 9.625 C27.30246094 9.69976562 28.16742188 9.77453125 29.05859375 9.8515625 C30.01958984 9.92503906 30.01958984 9.92503906 31 10 C31 12.97 31 15.94 31 19 C24.22709644 19.21315737 18.17615485 18.47936156 11.5625 17.0625 C10.66595703 16.88009766 9.76941406 16.69769531 8.84570312 16.50976562 C2.31117278 15.15558639 2.31117278 15.15558639 0 14 C0 9.38 0 4.76 0 0 Z " fill="#FBCDC5" transform="translate(178,215)"/>
<path d="M0 0 C3.96 0 7.92 0 12 0 C12 8.25 12 16.5 12 25 C8.7 25 5.4 25 2 25 C1.19556303 21.78225211 0.82274837 19.27581884 0.68359375 16.015625 C0.64169922 15.08105469 0.59980469 14.14648438 0.55664062 13.18359375 C0.51732422 12.21550781 0.47800781 11.24742187 0.4375 10.25 C0.39431641 9.26644531 0.35113281 8.28289062 0.30664062 7.26953125 C0.20078051 4.84651073 0.09990688 2.42327328 0 0 Z " fill="#E78582" transform="translate(396,351)"/>
<path d="M0 0 C4.04790179 0.02582393 6.47952997 0.7180232 9.75 3.25 C8.875 8.125 8.875 8.125 7.75 9.25 C5.9627943 9.40135944 4.16838124 9.47175778 2.375 9.5 C0.90933594 9.53867188 0.90933594 9.53867188 -0.5859375 9.578125 C-3.25 9.25 -3.25 9.25 -5.1171875 7.8984375 C-6.25 6.25 -6.25 6.25 -6 3.625 C-4.80328878 -0.16458552 -3.78467285 0.07519218 0 0 Z " fill="#E88885" transform="translate(174.25,146.75)"/>
<path d="M0 0 C3.00765886 2.84936103 5.27845212 5.23511958 7 9 C6.06027344 9.36351562 6.06027344 9.36351562 5.1015625 9.734375 C4.28429687 10.06953125 3.46703125 10.4046875 2.625 10.75 C1.81289063 11.07484375 1.00078125 11.3996875 0.1640625 11.734375 C-2.33315139 13.19483944 -2.98244259 14.33869601 -4 17 C-5.72107623 6.31569507 -5.72107623 6.31569507 -3.953125 3.08984375 C-2.5625 1.75 -2.5625 1.75 0 0 Z " fill="#DD8280" transform="translate(265,280)"/>
</svg>
