<?xml version="1.0" encoding="UTF-8"?>
<svg version="1.1" xmlns="http://www.w3.org/2000/svg" width="512" height="512">
<path d="M0 0 C1.31213219 0.56334045 1.31213219 0.56334045 2.65077209 1.13806152 C5.51329987 2.37047388 8.36568297 3.62476811 11.21875 4.87890625 C13.22567902 5.74673034 15.23342341 6.61267103 17.24194336 7.47680664 C20.33573863 8.80807444 23.42899807 10.14044754 26.51976013 11.47874451 C35.87524364 15.52793961 45.2840506 19.44034758 54.71084595 23.32000732 C61.2919387 26.03114219 67.86391535 28.76439792 74.43725586 31.4942627 C75.94372926 32.11966276 77.45039871 32.74459081 78.95727539 33.36901855 C83.04560584 35.06348494 87.12993102 36.76685169 91.20748901 38.48709106 C92.96898234 39.2277253 94.73454873 39.95864925 96.50024414 40.68920898 C97.53785889 41.12950439 98.57547363 41.5697998 99.64453125 42.0234375 C100.53567627 42.39702393 101.42682129 42.77061035 102.3449707 43.15551758 C105.07315796 44.6333909 106.80547957 45.9914533 108.71875 48.44140625 C109.12524414 50.9206543 109.12524414 50.9206543 109.00390625 53.703125 C108.96076294 55.24577026 108.96076294 55.24577026 108.91674805 56.81958008 C108.87203369 57.91165771 108.82731934 59.00373535 108.78125 60.12890625 C108.40395716 79.21992401 110.78747326 97.38185688 123.71875 112.44140625 C126.20719291 114.80024276 128.7933076 116.66046965 131.71875 118.44140625 C132.43417969 118.88097656 133.14960938 119.32054688 133.88671875 119.7734375 C145.4683888 126.19476545 158.03134156 127.87424656 171.06787109 128.11425781 C171.87562988 128.13198242 172.68338867 128.14970703 173.515625 128.16796875 C174.23073242 128.17393066 174.94583984 128.17989258 175.68261719 128.18603516 C178.10182069 128.48945085 179.65671422 129.14547029 181.71875 130.44140625 C184.04037515 133.92384397 184.26639815 136.12211198 184.78125 140.25390625 C184.93722656 141.45660156 185.09320313 142.65929687 185.25390625 143.8984375 C186.56010289 155.93140653 186.92483986 167.91366506 186.90625 180.00390625 C186.90531342 180.79576324 186.90437683 181.58762024 186.90341187 182.4034729 C186.80935014 219.20662928 182.53309817 265.40606029 155.21044922 293.03662109 C149.03138129 298.85566477 141.86710718 302.91351727 134.35522461 306.70605469 C120.53380605 313.68505009 108.88698643 322.87127839 103.5625 337.96484375 C100.58673667 347.91522685 101.48451549 358.08296741 101.80078125 368.35595703 C102.78298584 403.45038543 87.15717095 431.44837478 63.53515625 456.5 C62.59787831 457.48192586 61.65904849 458.4623725 60.71875 459.44140625 C60.2326123 459.94945801 59.74647461 460.45750977 59.24560547 460.98095703 C52.47785907 468.01315461 45.47273044 474.48782233 37.71875 480.44140625 C37.16348633 480.86776367 36.60822266 481.29412109 36.03613281 481.73339844 C26.63306983 488.90575125 16.91726631 495.45408951 6.71875 501.44140625 C6.10612305 501.8084668 5.49349609 502.17552734 4.86230469 502.55371094 C-3.27960228 507.36143882 -10.72223409 510.53653302 -20.28125 508.44140625 C-25.92986431 506.40178624 -31.12104297 503.48244027 -36.28125 500.44140625 C-37.2609375 499.86777344 -38.240625 499.29414063 -39.25 498.703125 C-54.7057939 489.17962846 -69.06490431 477.86069322 -82.28125 465.44140625 C-82.83828613 464.91836914 -83.39532227 464.39533203 -83.96923828 463.85644531 C-98.45245795 450.14041958 -110.22581627 435.24530985 -119.28125 417.44140625 C-119.78269531 416.466875 -120.28414063 415.49234375 -120.80078125 414.48828125 C-126.523111 402.66328563 -129.50196517 390.3248462 -129.2734375 377.23828125 C-129.25591389 375.43490153 -129.23900632 373.63151574 -129.22265625 371.828125 C-129.19180701 369.01300908 -129.15636229 366.19820404 -129.10986328 363.38330078 C-128.62108195 349.09352834 -128.62108195 349.09352834 -132.28125 335.44140625 C-132.70664063 334.42949219 -133.13203125 333.41757812 -133.5703125 332.375 C-140.53642839 319.35936241 -150.97198606 312.16904132 -163.84301758 305.56518555 C-186.29066369 293.99781935 -197.17931536 276.20824519 -204.83691406 252.85644531 C-208.22823504 241.91226349 -210.4371504 230.73842135 -212.28125 219.44140625 C-212.41402344 218.63541992 -212.54679687 217.82943359 -212.68359375 216.99902344 C-216.58995068 191.68451378 -218.48748559 156.90350546 -210.28125 132.44140625 C-208.66835838 130.42529172 -207.57925564 129.59040907 -205.28125 128.44140625 C-203.94811976 128.33687876 -202.61050009 128.28626143 -201.2734375 128.265625 C-182.52485767 127.78327484 -165.66330757 125.22180567 -151.5390625 111.828125 C-138.01998674 97.53719889 -135.95917681 78.94726406 -136.34375 60.12890625 C-136.38854492 59.03698975 -136.43333984 57.94507324 -136.47949219 56.82006836 C-136.50817383 55.79147705 -136.53685547 54.76288574 -136.56640625 53.703125 C-136.60644775 52.78490967 -136.64648926 51.86669434 -136.68774414 50.9206543 C-136.139213 47.57510849 -134.90649262 46.52841099 -132.28125 44.44140625 C-130.01855469 43.203125 -130.01855469 43.203125 -127.453125 42.12890625 C-126.45104004 41.70383789 -125.44895508 41.27876953 -124.41650391 40.84082031 C-123.29937012 40.37901367 -122.18223633 39.91720703 -121.03125 39.44140625 C-119.83032715 38.93577148 -118.6294043 38.43013672 -117.39208984 37.90917969 C-113.84651182 36.41751688 -110.2951944 34.9399383 -106.74279785 33.46459961 C-104.11889335 32.37391935 -101.4963123 31.28010568 -98.87402344 30.18554688 C-97.93147202 29.79212097 -96.98892059 29.39869507 -96.01780701 28.99334717 C-95.05029007 28.58948792 -94.08277313 28.18562866 -93.0859375 27.76953125 C-86.9566631 25.21136829 -80.82597576 22.65675854 -74.69018555 20.11425781 C-64.78409476 16.00664934 -54.89734927 11.86431894 -45.05859375 7.59765625 C-42.4712965 6.48236189 -39.88359599 5.36800763 -37.2958374 4.25378418 C-35.68002175 3.55372476 -34.06669782 2.84788161 -32.45611572 2.13586426 C-30.23842883 1.15554884 -28.01301809 0.19519712 -25.78515625 -0.76171875 C-25.15286606 -1.04817261 -24.52057587 -1.33462646 -23.86912537 -1.62976074 C-15.16096437 -5.31010165 -8.30228025 -3.71716235 0 0 Z " fill="#D58651" transform="translate(271.28125,3.55859375)"/>
<path d="M0 0 C0.74765625 -0.02578125 1.4953125 -0.0515625 2.265625 -0.078125 C10.27180461 0.97929495 14.91244581 7.22559607 20.1875 12.75 C38.8971931 31.84079442 60.87158513 45.76162753 87.4375 50.8125 C93.02608117 51.92124374 96.05758106 52.85901532 99.75 57.25 C101.90385044 61.11207665 102.82018854 64.27853811 103.0625 68.625 C103.56214513 74.95745893 107.35933541 79.85933541 111.75 84.25 C114.49658001 84.06615184 115.52664041 83.48800612 117.41796875 81.47265625 C117.91941406 80.75980469 118.42085937 80.04695313 118.9375 79.3125 C119.44667969 78.60222656 119.95585937 77.89195312 120.48046875 77.16015625 C122.64982859 73.89610407 123.04696137 71.3737669 123.5625 67.5 C124.61363726 61.08576096 126.183098 57.21031421 131.4609375 53.1796875 C134.99909323 51.10385742 137.59069009 50.484119 141.625 49.875 C170.51227177 44.82188535 192.93693007 26.75862076 212.7421875 6.13354492 C215.9038999 2.89158878 218.34932015 0.58609518 222.8984375 -0.05078125 C227.94079431 -0.07731997 231.45844396 0.32393906 235.75 3.25 C239.64246461 7.11081855 241.55332103 10.34877 242.125 15.875 C242.09948303 23.54284826 239.07264356 31.02491951 236.75 38.25 C237.67232422 38.81267578 237.67232422 38.81267578 238.61328125 39.38671875 C239.42152344 39.89847656 240.22976563 40.41023438 241.0625 40.9375 C241.86300781 41.43636719 242.66351563 41.93523437 243.48828125 42.44921875 C246.82710344 45.10759013 248.39462874 47.72144798 249.359375 51.87109375 C249.89616049 62.62171424 244.19903728 70.25383192 237.3359375 77.9609375 C235.95155222 79.43337555 234.53848433 80.87991459 233.0859375 82.28515625 C231.47132045 84.20390155 231.47132045 84.20390155 232.01953125 86.7578125 C232.38111328 87.99144531 232.38111328 87.99144531 232.75 89.25 C233.26260984 95.50384003 232.60819873 100.1116616 228.75 105.25 C220.5564771 114.02703788 211.10495571 121.19509705 200.75 127.25 C200.09 127.25 199.43 127.25 198.75 127.25 C198.8325 128.405 198.915 129.56 199 130.75 C198.95634064 135.6922396 197.74524732 139.30322383 194.75 143.25 C182.87592905 154.51588683 163.15296453 159.99058003 147.75 164.25 C146.50734375 164.60191406 145.2646875 164.95382812 143.984375 165.31640625 C131.66989437 168.50957972 131.66989437 168.50957972 125.75 166.25 C122.76048253 164.26653082 119.98546988 162.16500951 117.23046875 159.8671875 C114.95923274 158.05524609 114.95923274 158.05524609 112.71484375 158.2890625 C110.24539277 159.49678604 108.2768194 161.03975918 106.125 162.75 C100.84576556 166.4477561 97.20587427 167.94726723 90.75 167.25 C72.4777916 163.86366169 43.80506413 156.30078936 30.75 142.25 C27.6895485 137.08548809 27.44352785 133.07297087 27.75 127.25 C27.00621094 126.96898437 26.26242188 126.68796875 25.49609375 126.3984375 C18.26897614 123.3760014 12.35346442 118.21703076 6.4375 113.1875 C5.83881104 112.68105957 5.24012207 112.17461914 4.62329102 111.65283203 C-5.78455262 102.65991666 -5.78455262 102.65991666 -6.48046875 96.06640625 C-6.45919922 94.95072266 -6.45919922 94.95072266 -6.4375 93.8125 C-6.43105469 93.07128906 -6.42460937 92.33007812 -6.41796875 91.56640625 C-6.25 89.25 -6.25 89.25 -5.4921875 86.74609375 C-4.96261779 84.13695247 -4.96261779 84.13695247 -6.83984375 82.03125 C-7.61457031 81.2784375 -8.38929688 80.525625 -9.1875 79.75 C-15.68970781 72.92217302 -23.29944379 64.23054122 -23.5546875 54.3125 C-22.79014511 49.13713613 -20.4981018 45.43569671 -16.75 41.875 C-14.62141757 40.49142142 -12.52617099 39.35915112 -10.25 38.25 C-10.52714844 37.35796875 -10.80429688 36.4659375 -11.08984375 35.546875 C-11.45207031 34.37640625 -11.81429687 33.2059375 -12.1875 32 C-12.54714844 30.83984375 -12.90679687 29.6796875 -13.27734375 28.484375 C-15.28893611 21.79522452 -16.47172442 15.7794261 -14.125 9 C-10.61771728 3.85598534 -6.39784318 0.13056823 0 0 Z " fill="#2F4456" transform="translate(148.25,155.75)"/>
<path d="M0 0 C1.31213219 0.56334045 1.31213219 0.56334045 2.65077209 1.13806152 C5.51329987 2.37047388 8.36568297 3.62476811 11.21875 4.87890625 C13.22567902 5.74673034 15.23342341 6.61267103 17.24194336 7.47680664 C20.33573863 8.80807444 23.42899807 10.14044754 26.51976013 11.47874451 C35.87524364 15.52793961 45.2840506 19.44034758 54.71084595 23.32000732 C61.2919387 26.03114219 67.86391535 28.76439792 74.43725586 31.4942627 C75.94372926 32.11966276 77.45039871 32.74459081 78.95727539 33.36901855 C83.04560584 35.06348494 87.12993102 36.76685169 91.20748901 38.48709106 C92.96898234 39.2277253 94.73454873 39.95864925 96.50024414 40.68920898 C97.53785889 41.12950439 98.57547363 41.5697998 99.64453125 42.0234375 C100.53567627 42.39702393 101.42682129 42.77061035 102.3449707 43.15551758 C105.07315796 44.6333909 106.80547957 45.9914533 108.71875 48.44140625 C109.12524414 50.9206543 109.12524414 50.9206543 109.00390625 53.703125 C108.96076294 55.24577026 108.96076294 55.24577026 108.91674805 56.81958008 C108.87203369 57.91165771 108.82731934 59.00373535 108.78125 60.12890625 C108.40395716 79.21992401 110.78747326 97.38185688 123.71875 112.44140625 C126.20719291 114.80024276 128.7933076 116.66046965 131.71875 118.44140625 C132.43417969 118.88097656 133.14960938 119.32054688 133.88671875 119.7734375 C145.4683888 126.19476545 158.03134156 127.87424656 171.06787109 128.11425781 C171.87562988 128.13198242 172.68338867 128.14970703 173.515625 128.16796875 C174.23073242 128.17393066 174.94583984 128.17989258 175.68261719 128.18603516 C178.10182069 128.48945085 179.65671422 129.14547029 181.71875 130.44140625 C184.04037515 133.92384397 184.26639815 136.12211198 184.78125 140.25390625 C184.93722656 141.45660156 185.09320313 142.65929687 185.25390625 143.8984375 C186.56010289 155.93140653 186.92483986 167.91366506 186.90625 180.00390625 C186.90531342 180.79576324 186.90437683 181.58762024 186.90341187 182.4034729 C186.80935014 219.20662928 182.53309817 265.40606029 155.21044922 293.03662109 C149.03138129 298.85566477 141.86710718 302.91351727 134.35522461 306.70605469 C120.53380605 313.68505009 108.88698643 322.87127839 103.5625 337.96484375 C100.58673667 347.91522685 101.48451549 358.08296741 101.80078125 368.35595703 C102.78298584 403.45038543 87.15717095 431.44837478 63.53515625 456.5 C62.59787831 457.48192586 61.65904849 458.4623725 60.71875 459.44140625 C60.2326123 459.94945801 59.74647461 460.45750977 59.24560547 460.98095703 C52.47785907 468.01315461 45.47273044 474.48782233 37.71875 480.44140625 C37.16348633 480.86776367 36.60822266 481.29412109 36.03613281 481.73339844 C26.63306983 488.90575125 16.91726631 495.45408951 6.71875 501.44140625 C6.10612305 501.8084668 5.49349609 502.17552734 4.86230469 502.55371094 C-3.27960228 507.36143882 -10.72223409 510.53653302 -20.28125 508.44140625 C-25.92986431 506.40178624 -31.12104297 503.48244027 -36.28125 500.44140625 C-37.2609375 499.86777344 -38.240625 499.29414063 -39.25 498.703125 C-54.7057939 489.17962846 -69.06490431 477.86069322 -82.28125 465.44140625 C-82.83828613 464.91836914 -83.39532227 464.39533203 -83.96923828 463.85644531 C-98.45245795 450.14041958 -110.22581627 435.24530985 -119.28125 417.44140625 C-119.78269531 416.466875 -120.28414063 415.49234375 -120.80078125 414.48828125 C-126.523111 402.66328563 -129.50196517 390.3248462 -129.2734375 377.23828125 C-129.25591389 375.43490153 -129.23900632 373.63151574 -129.22265625 371.828125 C-129.19180701 369.01300908 -129.15636229 366.19820404 -129.10986328 363.38330078 C-128.62108195 349.09352834 -128.62108195 349.09352834 -132.28125 335.44140625 C-132.70664063 334.42949219 -133.13203125 333.41757812 -133.5703125 332.375 C-140.53642839 319.35936241 -150.97198606 312.16904132 -163.84301758 305.56518555 C-186.29066369 293.99781935 -197.17931536 276.20824519 -204.83691406 252.85644531 C-208.22823504 241.91226349 -210.4371504 230.73842135 -212.28125 219.44140625 C-212.41402344 218.63541992 -212.54679687 217.82943359 -212.68359375 216.99902344 C-216.58995068 191.68451378 -218.48748559 156.90350546 -210.28125 132.44140625 C-208.66835838 130.42529172 -207.57925564 129.59040907 -205.28125 128.44140625 C-203.94811976 128.33687876 -202.61050009 128.28626143 -201.2734375 128.265625 C-182.52485767 127.78327484 -165.66330757 125.22180567 -151.5390625 111.828125 C-138.01998674 97.53719889 -135.95917681 78.94726406 -136.34375 60.12890625 C-136.38854492 59.03698975 -136.43333984 57.94507324 -136.47949219 56.82006836 C-136.50817383 55.79147705 -136.53685547 54.76288574 -136.56640625 53.703125 C-136.60644775 52.78490967 -136.64648926 51.86669434 -136.68774414 50.9206543 C-136.139213 47.57510849 -134.90649262 46.52841099 -132.28125 44.44140625 C-130.01855469 43.203125 -130.01855469 43.203125 -127.453125 42.12890625 C-126.45104004 41.70383789 -125.44895508 41.27876953 -124.41650391 40.84082031 C-123.29937012 40.37901367 -122.18223633 39.91720703 -121.03125 39.44140625 C-119.83032715 38.93577148 -118.6294043 38.43013672 -117.39208984 37.90917969 C-113.84651182 36.41751688 -110.2951944 34.9399383 -106.74279785 33.46459961 C-104.11889335 32.37391935 -101.4963123 31.28010568 -98.87402344 30.18554688 C-97.93147202 29.79212097 -96.98892059 29.39869507 -96.01780701 28.99334717 C-95.05029007 28.58948792 -94.08277313 28.18562866 -93.0859375 27.76953125 C-86.9566631 25.21136829 -80.82597576 22.65675854 -74.69018555 20.11425781 C-64.78409476 16.00664934 -54.89734927 11.86431894 -45.05859375 7.59765625 C-42.4712965 6.48236189 -39.88359599 5.36800763 -37.2958374 4.25378418 C-35.68002175 3.55372476 -34.06669782 2.84788161 -32.45611572 2.13586426 C-30.23842883 1.15554884 -28.01301809 0.19519712 -25.78515625 -0.76171875 C-25.15286606 -1.04817261 -24.52057587 -1.33462646 -23.86912537 -1.62976074 C-15.16096437 -5.31010165 -8.30228025 -3.71716235 0 0 Z M-24.6640625 16.74609375 C-25.49502441 17.09690506 -26.32598633 17.44771637 -27.18212891 17.80915833 C-29.92703657 18.9700941 -32.66651855 20.14331355 -35.40625 21.31640625 C-37.3236569 22.12960374 -39.24146932 22.94184571 -41.15966797 23.75317383 C-45.16793045 25.44940833 -49.17438783 27.14980924 -53.1796875 28.85302734 C-61.99034532 32.59569323 -70.82257271 36.28674901 -79.65472412 39.97833252 C-82.32914399 41.09666372 -85.00282799 42.21673467 -87.67626953 43.33740234 C-98.1950889 47.7451018 -108.72976618 52.11248302 -119.28125 56.44140625 C-119.30050034 57.02236557 -119.31975067 57.60332489 -119.33958435 58.20188904 C-120.06976099 79.73813527 -122.05597056 100.52059692 -135.28125 118.44140625 C-135.85359375 119.22128906 -136.4259375 120.00117187 -137.015625 120.8046875 C-146.14012963 132.09333746 -158.61217455 137.72064292 -172.28125 141.44140625 C-173.07917969 141.663125 -173.87710938 141.88484375 -174.69921875 142.11328125 C-181.75771235 143.86135096 -189.07356052 144.54875433 -196.28125 145.44140625 C-202.45959468 179.13674824 -198.97334216 217.67618944 -188.40625 250.06640625 C-188.09091309 251.03779541 -187.77557617 252.00918457 -187.45068359 253.01000977 C-181.05383223 271.69554928 -170.26519591 283.88068845 -152.90625 292.81640625 C-146.02550846 296.36105317 -140.01864826 300.18737854 -134.28125 305.44140625 C-133.22550781 306.37726563 -133.22550781 306.37726563 -132.1484375 307.33203125 C-120.59716451 318.13664401 -112.7932244 334.1270747 -112.1328125 350.01171875 C-112.07910669 355.41452297 -112.10685574 360.76307363 -112.78125 366.12890625 C-115.8844435 391.09340322 -105.25185091 413.13999007 -90.28125 432.44140625 C-80.14232281 445.07330943 -69.03283269 456.4320994 -56.28125 466.44140625 C-55.2603125 467.25609375 -54.239375 468.07078125 -53.1875 468.91015625 C-45.54271859 474.95560122 -37.61978539 480.39825632 -29.28125 485.44140625 C-28.69746582 485.79960449 -28.11368164 486.15780273 -27.51220703 486.52685547 C-25.80349835 487.56365871 -24.07380558 488.56562954 -22.34375 489.56640625 C-20.84521484 490.43652344 -20.84521484 490.43652344 -19.31640625 491.32421875 C-14.16040402 493.22205226 -10.5750583 492.03475407 -5.6953125 489.796875 C-4.42403568 489.08884327 -3.16130471 488.36531059 -1.90625 487.62890625 C-0.87794067 487.03601807 -0.87794067 487.03601807 0.17114258 486.43115234 C13.3000805 478.70474483 25.35371728 469.55581137 36.71875 459.44140625 C37.22744629 458.99442383 37.73614258 458.54744141 38.26025391 458.08691406 C60.61502994 438.40337434 81.46087805 412.81646126 85.71875 382.44140625 C86.02475282 377.31168631 86.29047475 372.14696985 85.22265625 367.09375 C81.94595391 349.84661132 86.49248293 332.11800516 95.71875 317.44140625 C99.00352715 313.05432868 102.76459602 309.22388128 106.71875 305.44140625 C107.45351563 304.73628906 108.18828125 304.03117187 108.9453125 303.3046875 C114.36363139 298.58519772 120.41454932 295.36276779 126.71875 292.00390625 C146.18542747 281.60170147 155.46989363 267.18763442 162.06958008 246.34716797 C163.44238435 241.74864165 164.61249369 237.11050523 165.71875 232.44140625 C165.93337891 231.54615234 166.14800781 230.65089844 166.36914062 229.72851562 C170.26210433 212.38937887 170.08589734 194.8731199 170.09375 177.19140625 C170.09574402 175.97566925 170.09773804 174.75993225 170.09979248 173.50735474 C170.09914184 170.00075154 170.08100588 166.4947779 170.0546875 162.98828125 C170.05227051 161.92884811 170.04985352 160.86941498 170.04736328 159.77787781 C169.9779242 154.28409467 169.54840855 149.63380383 167.71875 144.44140625 C166.35556641 144.40273438 166.35556641 144.40273438 164.96484375 144.36328125 C144.23369728 143.42772182 124.38673879 137.14371567 109.90625 121.62890625 C96.77773109 105.4019291 93.06393699 86.84691402 92.171875 66.51171875 C92.12756348 65.54113525 92.08325195 64.57055176 92.03759766 63.57055664 C91.92938447 61.19425346 91.82315164 58.81787942 91.71875 56.44140625 C90.70192139 56.02068848 89.68509277 55.5999707 88.63745117 55.16650391 C68.35755561 46.77389075 48.08823848 38.35661402 27.84375 29.87890625 C26.53173111 29.32955414 26.53173111 29.32955414 25.19320679 28.769104 C23.47850348 28.05102062 21.76390731 27.33268134 20.04942322 26.61407471 C18.39317279 25.92028156 16.73649393 25.22751018 15.07936096 24.53582764 C10.84520755 22.76582201 6.62405942 20.97075296 2.41699219 19.13720703 C1.12279861 18.57816429 1.12279861 18.57816429 -0.19754028 18.00782776 C-1.8385444 17.29811739 -3.47652073 16.58134875 -5.11080933 15.85630798 C-12.88121916 12.51100242 -17.05873587 13.45689824 -24.6640625 16.74609375 Z " fill="#2D4355" transform="translate(271.28125,3.55859375)"/>
<path d="M0 0 C2.46672793 2.4492334 4.91280429 4.90746577 7.296875 7.4375 C19.42166183 20.10288242 33.39494941 30.06922535 49 38 C50.09828125 38.56332031 51.1965625 39.12664062 52.328125 39.70703125 C62.71374644 44.75915005 73.55333596 48.42065015 85 50 C86.62667089 51.62667089 86.43610745 53.6994461 86.75 55.9375 C88.90047334 67.7574776 94.97378049 75.36148498 104 83 C106.90312629 84.92984798 109.81850867 86.57814832 113 88 C124.70658221 80.32355265 134.34146262 72.0243933 138 58 C138.37531446 55.67305036 138.71917202 53.34023315 139 51 C142.64331711 49.9536165 146.28831914 48.91940052 149.9453125 47.921875 C159.0725015 45.39070545 167.56352507 42.38258438 176 38 C176.6276123 37.67515625 177.25522461 37.3503125 177.90185547 37.015625 C195.40011808 27.85861376 211.64030581 15.53790127 224 0 C225.30708543 3.92125628 224.21878781 6.52810141 223 10.3125 C222.7721582 11.02237061 222.54431641 11.73224121 222.30957031 12.46362305 C216.05585604 31.21015439 204.54458268 48.01082862 186.6171875 57.22265625 C186.08351563 57.47917969 185.54984375 57.73570312 185 58 C201.20453295 58.57424701 217.95409387 50.54474458 230 40 C230.66 40.33 231.32 40.66 232 41 C218.39020244 60.10207627 202.95306615 74.56585708 179 79 C182.78123958 81.47159149 186.63671821 81.3428474 191 81.3125 C192.12752686 81.31165405 192.12752686 81.31165405 193.27783203 81.31079102 C199.01878124 81.21724839 204.18418061 80.28072335 209.6796875 78.55859375 C212 78 212 78 215 79 C199.38310871 96.31540515 175.95508553 108.04032151 152.6875 109.5625 C151.43324219 109.64628906 150.17898438 109.73007812 148.88671875 109.81640625 C147.93410156 109.87699219 146.98148438 109.93757813 146 110 C157.6241108 116.34042407 168.0237635 116.25196576 181 116 C172.61659782 122.67455521 162.36346945 126.43200452 152.3125 129.8125 C151.45857666 130.1022168 150.60465332 130.39193359 149.72485352 130.69042969 C147.16434857 131.5232498 144.59172408 132.27064627 142 133 C141.09193604 133.29165039 140.18387207 133.58330078 139.24829102 133.88378906 C135.18266047 134.97061611 132.36484486 135.61962522 128.44506836 133.84008789 C125.90432 132.07446598 123.61959074 130.18566473 121.3125 128.125 C120.50361328 127.44824219 119.69472656 126.77148438 118.86132812 126.07421875 C116.8809551 124.41023668 114.93099415 122.72076366 113 121 C108.00785561 124.20603894 103.43030779 127.39387015 99.125 131.5 C94.85328537 134.8874632 94.85328537 134.8874632 91.66015625 135.30859375 C88.61747525 134.85195126 85.91884309 133.98735353 83 133 C81.39919423 132.51701599 79.79755576 132.03678743 78.1953125 131.55859375 C51.2745053 123.2745053 51.2745053 123.2745053 44 116 C45.14855469 116.04640625 46.29710937 116.0928125 47.48046875 116.140625 C58.34683868 116.44328326 68.61102365 116.25931756 78 110 C76.20369141 109.87044922 76.20369141 109.87044922 74.37109375 109.73828125 C51.1858753 107.83730402 27.79469953 98.92538263 12.1875 80.875 C11.465625 79.92625 10.74375 78.9775 10 78 C20 80 20 80 22.296875 80.5546875 C26.06004453 81.17463161 29.75495995 81.18423173 33.5625 81.1875 C34.31724609 81.19974609 35.07199219 81.21199219 35.84960938 81.22460938 C39.71233893 81.23481923 42.73128084 81.19359668 46 79 C44.9790625 78.814375 44.9790625 78.814375 43.9375 78.625 C22.59533947 74.08411478 5.89467086 61.01044935 -6 43 C-6.495 41.515 -6.495 41.515 -7 40 C-3.82107754 41.49769095 -0.98288969 43.30014583 1.9375 45.25 C13.41416151 52.58528299 26.11353223 58.78602648 40 58 C39.39414063 57.67128906 38.78828125 57.34257812 38.1640625 57.00390625 C18.40934162 45.78930317 6.8881233 28.05103949 0.59375 6.671875 C0 4 0 4 0 0 Z " fill="#FDDA7F" transform="translate(149,172)"/>
<path d="M0 0 C7.70674775 5.48211954 12.74767317 11.25311671 17.2734375 19.6171875 C17.71042969 20.41382812 18.14742188 21.21046875 18.59765625 22.03125 C23.35405536 32.54539541 23.01056907 47.3148362 19.7109375 58.2421875 C13.83842787 72.62676683 4.66780746 82.21068208 -9.55078125 88.42578125 C-15.86040737 90.79286116 -21.3485451 91.9811123 -28.0390625 91.9296875 C-28.78599365 91.92549805 -29.5329248 91.92130859 -30.30249023 91.91699219 C-36.17687787 91.79727567 -41.29035987 90.93556803 -46.7265625 88.6171875 C-47.4071875 88.33875 -48.0878125 88.0603125 -48.7890625 87.7734375 C-61.67189544 81.93590383 -70.79016745 71.61574379 -75.76171875 58.4921875 C-80.49672803 44.38301006 -79.31533514 32.05238251 -73.1015625 18.5546875 C-66.57512578 6.17530385 -56.69984373 -2.15140742 -43.5390625 -6.8203125 C-28.37090588 -10.97671129 -13.19943846 -8.58604249 0 0 Z " fill="#2E4356" transform="translate(285.7265625,70.3828125)"/>
<path d="M0 0 C4.44949663 0.87981344 7.36401835 3.63582381 10.72509766 6.53955078 C12.30280165 7.83462151 13.8822947 9.1275152 15.46337891 10.41845703 C16.27500488 11.09021973 17.08663086 11.76198242 17.92285156 12.45410156 C21.98937409 15.75820096 26.20193295 18.86025109 30.41259766 21.97705078 C37.6461522 27.36955286 44.79554352 32.85843487 51.90258789 38.41625977 C57.3626057 42.67916459 62.88101088 46.85631879 68.43164062 51.00024414 C79.56208026 59.31413115 90.63330194 67.71059652 101.41259766 76.47705078 C99.4785692 89.1504405 97.10424326 101.08590078 86.84619141 109.80908203 C77.93153149 116.18219743 64.86548657 118.65395909 54.07275391 118.28564453 C47.51815799 116.83761747 43.31176082 112.62348191 38.46484375 108.25732422 C34.5108852 104.8273616 30.2823808 101.74563879 26.10009766 98.60205078 C24.29738843 97.23047719 22.49530278 95.85808362 20.69384766 94.48486328 C17.32776351 91.92590223 13.9528469 89.37945023 10.56884766 86.84423828 C-4.02497895 75.87932442 -16.20286713 65.41523658 -19.58740234 46.47705078 C-21.08615661 30.40886124 -19.11479051 16.86620695 -9.58740234 3.47705078 C-6.65783123 -0.0296222 -4.42103102 -0.16327925 0 0 Z " fill="#2E4456" transform="translate(19.58740234375,-0.47705078125)"/>
<path d="M0 0 C7.41979931 5.4799825 10.98928262 16.36992982 13 25 C14.59256517 41.70784078 12.45401929 56.43466545 2 70 C-3.59202206 76.51685648 -10.13491491 81.52830476 -17.04736328 86.56103516 C-20.21743643 88.89717058 -23.34425725 91.28951503 -26.47387695 93.67944336 C-28.28799979 95.0636607 -30.10557541 96.4433642 -31.92651367 97.81860352 C-36.26511337 101.10244331 -40.54488969 104.42090507 -44.7109375 107.921875 C-56.58871276 117.7926932 -56.58871276 117.7926932 -63.125 118.0625 C-65.96875 117.6953125 -65.96875 117.6953125 -69 117 C-70.2271875 116.77054687 -71.454375 116.54109375 -72.71875 116.3046875 C-83.55986375 114.03966424 -91.64424541 109.95075208 -97.9375 100.6875 C-100.88613093 95.59504093 -102.81668355 90.75247265 -104 85 C-104.26941406 84.01773438 -104.53882813 83.03546875 -104.81640625 82.0234375 C-105.48692867 78.691911 -105.69739906 76.33201774 -105 73 C-102.19222757 69.71356367 -98.73853541 67.65864543 -95.09619141 65.37744141 C-90.91645393 62.63086805 -87.01746108 59.49436901 -83.0625 56.4375 C-81.23139352 55.03915278 -79.39934708 53.64203565 -77.56640625 52.24609375 C-76.64359863 51.54210449 -75.72079102 50.83811523 -74.77001953 50.11279297 C-70.34808113 46.74002239 -65.92396724 43.37010868 -61.5 40 C-59.74998878 38.66668139 -57.9999888 37.33334803 -56.25 36 C-52.75 33.33333333 -49.25 30.66666667 -45.75 28 C-44.8827832 27.33871094 -44.01556641 26.67742188 -43.12207031 25.99609375 C-41.38398764 24.67294999 -39.64377338 23.35260129 -37.90136719 22.03515625 C-33.3219645 18.56669227 -28.79735019 15.04714116 -24.328125 11.4375 C-23.39419922 10.695 -22.46027344 9.9525 -21.49804688 9.1875 C-19.71433709 7.76763152 -17.94382877 6.33095782 -16.18945312 4.875 C-11.06372247 0.82987286 -6.65611264 -1.78360405 0 0 Z " fill="#2E4456" transform="translate(499,0)"/>
<path d="M0 0 C8.41004651 5.92839344 14.18671952 13.51326527 16.63671875 23.62890625 C18.09303386 33.1341027 15.97078339 42.08524778 10.56640625 50.0546875 C5.09988536 56.84353389 -1.37177646 62.11918833 -10 64 C-20.48071653 65.08655377 -28.94896371 64.26548459 -37.62109375 58.15234375 C-45.93968349 51.34173016 -51.00433845 42.65082985 -52.23828125 31.9296875 C-52.55136664 23.26216563 -49.50868654 14.6997539 -44 8 C-32.46530614 -4.10313873 -15.23172204 -9.38314763 0 0 Z " fill="#FEDA80" transform="translate(275,82)"/>
<path d="M0 0 C7.5800553 5.66932826 12.46994877 13.651387 14 23 C14.83583616 31.02402715 12.52883963 39.19386459 8.08203125 45.88671875 C1.84602298 53.27059403 -5.89514627 58.36452188 -15.6640625 59.23828125 C-25.02932453 59.47303056 -32.02831414 57.7326935 -39.3125 51.6875 C-46.73445763 44.62466935 -50.87848397 36.97883205 -51.4375 26.5625 C-51.00308589 17.07222256 -46.93733027 9.89932988 -40.44140625 3.16796875 C-28.7289099 -7.23272801 -13.39456562 -7.78665696 0 0 Z " fill="#2E4356" transform="translate(276,401)"/>
<path d="M0 0 C0.78364929 0.327155 1.56729858 0.65431 2.37469482 0.99137878 C4.95620185 2.071246 7.53270933 3.16254356 10.109375 4.25390625 C11.92285469 5.01492885 13.73666283 5.77516921 15.55078125 6.53466797 C19.36448763 8.13282823 23.17617858 9.73566385 26.98632812 11.34228516 C32.83044029 13.80595327 38.68008082 16.25627187 44.53125 18.703125 C55.69088619 23.36996024 55.69088619 23.36996024 61.15332031 25.66186523 C71.70514334 30.08821669 82.27256754 34.47437527 92.859375 38.81640625 C92.859375 41.45640625 92.859375 44.09640625 92.859375 46.81640625 C87.70426929 46.20820262 83.49355648 44.58448854 78.7890625 42.52734375 C77.61645874 42.02444321 77.61645874 42.02444321 76.42016602 41.51138306 C74.73508302 40.78794136 73.05126258 40.06155312 71.36859131 39.33251953 C67.78954283 37.78211544 64.204282 36.24634386 60.61917114 34.71002197 C58.77063423 33.91785319 56.92239045 33.12500008 55.07443237 32.33148193 C42.36384665 26.87744452 29.58893103 21.57836348 16.80780029 16.29226685 C12.5037836 14.50896125 8.21674418 12.68986459 3.9375 10.84765625 C2.91543457 10.41324219 1.89336914 9.97882812 0.84033203 9.53125 C-0.9867114 8.75407714 -2.80918775 7.9660212 -4.62548828 7.1640625 C-5.41165527 6.83277344 -6.19782227 6.50148438 -7.0078125 6.16015625 C-7.66894043 5.87333984 -8.33006836 5.58652344 -9.01123047 5.29101562 C-14.68318397 4.0268242 -19.9357889 6.80112098 -25.03515625 9.03515625 C-26.18759323 9.52999008 -26.18759323 9.52999008 -27.36331177 10.03482056 C-29.02579161 10.74927865 -30.68702697 11.46663809 -32.34713745 12.18658447 C-36.82180894 14.12657122 -41.3060008 16.0443453 -45.7890625 17.96484375 C-46.71829025 18.36355682 -47.64751801 18.7622699 -48.60490417 19.17306519 C-58.72884013 23.51076792 -68.89976587 27.73334562 -79.078125 31.94140625 C-79.91582428 32.2880835 -80.75352356 32.63476074 -81.61660767 32.99194336 C-85.59315241 34.637579 -89.57074823 36.28057773 -93.55029297 37.91894531 C-96.70627636 39.21964522 -99.8551541 40.53606826 -103.00048828 41.86230469 C-104.17170982 42.35305984 -104.17170982 42.35305984 -105.36659241 42.85372925 C-106.84726245 43.47439528 -108.32624205 44.09911509 -109.8032074 44.72854614 C-112.7475233 45.95808126 -114.91565006 46.81640625 -118.140625 46.81640625 C-118.140625 44.17640625 -118.140625 41.53640625 -118.140625 38.81640625 C-117.12379639 38.39568848 -116.10696777 37.9749707 -115.05932617 37.54150391 C-94.77943061 29.14889075 -74.51011348 20.73161402 -54.265625 12.25390625 C-53.39094574 11.88767151 -52.51626648 11.52143677 -51.61508179 11.144104 C-49.90048793 10.42606646 -48.18605367 9.7076477 -46.4717865 8.98883057 C-44.81433462 8.29483032 -43.15603425 7.6028526 -41.49684143 6.9130249 C-37.27556469 5.15381932 -33.0806187 3.3516686 -28.90917969 1.47705078 C-28.05540741 1.0998439 -27.20163513 0.72263702 -26.32199097 0.33399963 C-24.70402557 -0.38223748 -23.09178217 -1.1116058 -21.48684692 -1.85658264 C-13.52376264 -5.35020818 -7.65165039 -3.27065226 0 0 Z " fill="#D79B71" transform="translate(270.140625,21.18359375)"/>
<path d="M0 0 C0.33 0 0.66 0 1 0 C2.41514831 22.60306327 -6.58736759 42.31431655 -20 60 C-20.63550781 60.84691406 -21.27101563 61.69382812 -21.92578125 62.56640625 C-38.73464419 84.24740338 -59.63667216 102.01249113 -83.21337891 115.93945312 C-84.88793848 116.93347974 -86.54434531 117.95790893 -88.19921875 118.984375 C-89.14410156 119.54640625 -90.08898437 120.1084375 -91.0625 120.6875 C-92.25552734 121.40486328 -92.25552734 121.40486328 -93.47265625 122.13671875 C-97.57221816 123.53703279 -100.97146782 122.84026424 -104.93969727 121.1965332 C-107.09028435 120.13962409 -109.16901006 119.00061404 -111.25 117.8125 C-112.02214844 117.37687744 -112.79429687 116.94125488 -113.58984375 116.49243164 C-126.79116232 108.8381647 -138.92181532 99.46856921 -150 89 C-151.36997848 87.80671034 -152.74483093 86.6189883 -154.125 85.4375 C-174.98607975 67.16837806 -194.38283257 41.29679939 -198 13 C-198.06460219 10.87588004 -198.08611079 8.74997095 -198.0625 6.625 C-198.05347656 5.56539063 -198.04445312 4.50578125 -198.03515625 3.4140625 C-198.01775391 2.21910156 -198.01775391 2.21910156 -198 1 C-197.67 1 -197.34 1 -197 1 C-196.89042969 1.82242187 -196.78085938 2.64484375 -196.66796875 3.4921875 C-192.22169757 34.79682852 -172.06510825 62.13743823 -148 82 C-146.7315625 83.10021484 -146.7315625 83.10021484 -145.4375 84.22265625 C-124.52904554 102.16424094 -124.52904554 102.16424094 -100 114 C-80.9348372 112.28593962 -59.19073248 91.19488997 -45.75390625 78.54296875 C-43.81477535 76.75236703 -41.88414234 75.05613451 -39.84765625 73.38671875 C-36.09288491 70.23971561 -33.12347697 66.76092125 -30 63 C-29.56381348 62.48679199 -29.12762695 61.97358398 -28.67822266 61.44482422 C-13.27122909 43.26885589 -2.00551157 24.06613887 0 0 Z " fill="#AC6D43" transform="translate(356,373)"/>
<path d="M0 0 C1.58100663 4.74301988 0.07359768 8.55949972 -2 13 C-3.70807644 14.99417924 -5.50382552 16.48893859 -7.578125 18.09765625 C-9.91119364 19.93024403 -12.0442439 21.8983927 -14.18676758 23.94799805 C-33.23589414 42.06124756 -57.90789124 55.31268988 -84 59 C-84.04125 60.2375 -84.0825 61.475 -84.125 62.75 C-85.47422891 74.50492584 -93.03396896 83.98555504 -101.81640625 91.3671875 C-109.17099838 97.02757931 -109.17099838 97.02757931 -111.99609375 96.93359375 C-123.24110093 91.69469177 -131.91577454 82.17689233 -137 71 C-138.14395583 67.30523582 -138.07420318 63.85856562 -138 60 C-135.85663261 62.14336739 -135.2342748 63.67388018 -134.0625 66.4375 C-129.28917674 76.15311372 -120.82953125 83.607049 -111 88 C-99.29341779 80.32355265 -89.65853738 72.0243933 -86 58 C-85.62468554 55.67305036 -85.28082798 53.34023315 -85 51 C-81.35668289 49.9536165 -77.71168086 48.91940052 -74.0546875 47.921875 C-64.9274985 45.39070545 -56.43647493 42.38258438 -48 38 C-47.05858154 37.51273438 -47.05858154 37.51273438 -46.09814453 37.015625 C-28.59988192 27.85861376 -12.35969419 15.53790127 0 0 Z " fill="#F8E0A5" transform="translate(373,172)"/>
<path d="M0 0 C4.38455375 8.95179725 4.52542799 19.34627197 1.5 28.8125 C-2.23973508 37.64352353 -9.38226143 46.51294439 -18 51 C-21.55719972 50.54723336 -22.06013851 49.9331396 -24.62109375 47.0859375 C-25.57015096 45.85680886 -26.50863057 44.61945506 -27.4375 43.375 C-28.13456055 42.46814453 -28.13456055 42.46814453 -28.84570312 41.54296875 C-31.99093751 37.42828276 -35.00690202 33.22618916 -38 29 C-33.85031119 24.61153941 -29.2891731 20.98103887 -24.5 17.3125 C-23.70916016 16.70325684 -22.91832031 16.09401367 -22.10351562 15.46630859 C-20.50095243 14.2319981 -18.89744553 12.99891184 -17.29296875 11.76708984 C-15.18631434 10.14358424 -13.09076878 8.50716411 -11 6.86328125 C-10.10571289 6.16368286 -10.10571289 6.16368286 -9.19335938 5.44995117 C-7.5961967 4.20026809 -6.00115445 2.94787635 -4.40625 1.6953125 C-2 0 -2 0 0 0 Z " fill="#DFE9F2" transform="translate(493,20)"/>
<path d="M0 0 C4.17514698 1.79836306 7.59567422 4.57790875 11.1875 7.3125 C11.87787354 7.83505371 12.56824707 8.35760742 13.27954102 8.89599609 C14.75195614 10.0116776 16.22319472 11.12891325 17.69335938 12.24755859 C20.05626696 14.04274812 22.42611876 15.8284735 24.796875 17.61328125 C26.34402765 18.78348717 27.89091004 19.95405051 29.4375 21.125 C30.17701904 21.68098877 30.91653809 22.23697754 31.6784668 22.80981445 C32.36078369 23.32890381 33.04310059 23.84799316 33.74609375 24.3828125 C34.35122803 24.84059082 34.9563623 25.29836914 35.57983398 25.77001953 C37 27 37 27 38 29 C36.10690634 31.54371744 34.21002431 34.08458644 32.3125 36.625 C31.51682617 37.69427734 31.51682617 37.69427734 30.70507812 38.78515625 C27.58202673 42.961998 24.37816616 47.02642422 21 51 C14.20489827 49.97913965 8.37627527 43.74369132 4.0546875 38.75390625 C-2.62648004 29.33648165 -4.05177218 19.38071437 -3 8 C-2.2554884 5.07329924 -1.31300325 2.73542344 0 0 Z " fill="#DFE9F2" transform="translate(19,20)"/>
<path d="M0 0 C5.52113373 3.59029825 10.66429369 7.26491946 15.56640625 11.6796875 C19.76936554 13.95994471 23.84261573 13.51423015 28.34350586 12.44140625 C30.81499744 11.70682057 33.25012979 10.90317149 35.6875 10.0625 C37.33647071 9.50942111 38.98619074 8.95857028 40.63671875 8.41015625 C41.39645996 8.15508301 42.15620117 7.90000977 42.93896484 7.63720703 C45 7 45 7 48.01953125 6.43359375 C48.67308594 6.29050781 49.32664062 6.14742188 50 6 C50.33 5.34 50.66 4.68 51 4 C56.94 4 62.88 4 69 4 C60.32447761 10.50664179 50.52220428 14.3786164 40.3125 17.8125 C39.03161499 18.2470752 39.03161499 18.2470752 37.72485352 18.69042969 C35.16434857 19.5232498 32.59172408 20.27064627 30 21 C29.09193604 21.29165039 28.18387207 21.58330078 27.24829102 21.88378906 C23.18266047 22.97061611 20.36484486 23.61962522 16.44506836 21.84008789 C13.90432 20.07446598 11.61959074 18.18566473 9.3125 16.125 C8.50361328 15.44824219 7.69472656 14.77148438 6.86132812 14.07421875 C4.8809551 12.41023668 2.93099415 10.72076366 1 9 C-3.99214439 12.20603894 -8.56969221 15.39387015 -12.875 19.5 C-17.14671463 22.8874632 -17.14671463 22.8874632 -20.33984375 23.30859375 C-23.38252475 22.85195126 -26.08115691 21.98735353 -29 21 C-30.60080577 20.51701599 -32.20244424 20.03678743 -33.8046875 19.55859375 C-60.7254947 11.2745053 -60.7254947 11.2745053 -68 4 C-61.73 4 -55.46 4 -49 4 C-49 4.66 -49 5.32 -49 6 C-48.32066406 6.1134375 -47.64132813 6.226875 -46.94140625 6.34375 C-43.47962016 7.11610068 -40.27273333 8.29356439 -36.9375 9.5 C-34.92612668 10.16198952 -32.90969163 10.80003807 -30.88525391 11.42089844 C-29.23315447 11.92838094 -27.59027933 12.46569518 -25.94921875 13.0078125 C-21.65209369 13.94687994 -18.73293918 13.9982135 -14.82910156 11.74951172 C-9.59241978 8.19426346 -4.7421117 4.18526002 0 0 Z " fill="#D7B86E" transform="translate(261,284)"/>
<path d="M0 0 C4.42923967 2.47174798 7.22462952 5.2963148 9.21484375 9.984375 C10.57414349 15.28849567 9.51686187 19.64862051 7.1484375 24.4765625 C3.77290474 28.2962443 0.58017793 30.67722965 -4.43359375 31.546875 C-10.16616019 31.83985114 -13.64090893 30.58082399 -18.2265625 27.1640625 C-21.70591121 23.22690474 -23.0256887 19.62520931 -23.390625 14.47265625 C-23.01066395 9.12606141 -20.46467587 5.3417801 -16.6640625 1.7265625 C-11.58005873 -1.53241428 -5.67420909 -2.1303171 0 0 Z " fill="#FCD97F" transform="translate(264.2265625,412.8359375)"/>
<path d="M0 0 C2.74835005 1.29847174 5.14166565 2.73664513 7.56640625 4.56640625 C8.21673828 5.05173828 8.86707031 5.53707031 9.53710938 6.03710938 C10.89173959 7.0573275 12.24590355 8.078165 13.59960938 9.09960938 C14.24865234 9.58365234 14.89769531 10.06769531 15.56640625 10.56640625 C16.15365479 11.00927979 16.74090332 11.45215332 17.34594727 11.90844727 C19.12654873 13.18584873 19.12654873 13.18584873 22 14 C21.01477418 20.90889609 16.97351268 26.43360604 11.74609375 30.9453125 C7.61952822 33.83600307 4.16555104 36.0372964 -1 36 C-4.07106166 34.3664727 -6.68447759 32.25432703 -9.375 30.0625 C-10.11105469 29.48564453 -10.84710938 28.90878906 -11.60546875 28.31445312 C-13.41658211 26.89143549 -15.21334584 25.45352223 -17 24 C-16.11490439 19.51234582 -13.57664166 16.60110501 -10.75 13.125 C-10.27175781 12.52558594 -9.79351562 11.92617187 -9.30078125 11.30859375 C-6.25017932 7.49740814 -3.13524403 3.74169634 0 0 Z " fill="#DFE9F2" transform="translate(95,78)"/>
<path d="M0 0 C3.7992451 1.89962255 4.93404565 2.80220183 7.41796875 5.9921875 C8.03220703 6.77980469 8.64644531 7.56742187 9.27929688 8.37890625 C9.90900391 9.20261719 10.53871094 10.02632812 11.1875 10.875 C11.82880859 11.69097656 12.47011719 12.50695312 13.13085938 13.34765625 C18.28569511 20.02118171 18.28569511 20.02118171 19 24 C16.87941855 25.67257128 14.75395924 27.33815418 12.625 29 C12.02171875 29.47695312 11.4184375 29.95390625 10.796875 30.4453125 C6.2265625 34 6.2265625 34 4 34 C3.67 34.66 3.34 35.32 3 36 C-6.72001872 31.4751637 -12.2575591 26.74921457 -17 17 C-17.875 13.375 -17.875 13.375 -18 11 C-17.01 11.495 -17.01 11.495 -16 12 C-10.72 8.04 -5.44 4.08 0 0 Z " fill="#DEE9F2" transform="translate(415,78)"/>
<path d="M0 0 C0.33 0 0.66 0 1 0 C1.10957031 0.75804932 1.21914062 1.51609863 1.33203125 2.29711914 C3.89609899 19.57721592 7.35617772 35.75611203 14 52 C14.49371094 53.22074219 14.98742187 54.44148438 15.49609375 55.69921875 C21.58664065 69.1743381 31.34091999 76.44590869 44 83 C52.3484195 87.49920905 59.18539985 92.39947106 66 99 C66.93779297 99.81017578 66.93779297 99.81017578 67.89453125 100.63671875 C78.34274688 110.00001808 83.71128381 124.48777172 86 138 C86.11678799 140.67678073 86.0454506 143.31841457 86 146 C85.67 146 85.34 146 85 146 C84.79246094 145.07960938 84.58492188 144.15921875 84.37109375 143.2109375 C80.62652149 127.82528912 74.43457555 115.95278163 63 105 C61.93265625 103.95972656 61.93265625 103.95972656 60.84375 102.8984375 C55.15623057 97.89094757 48.66206782 94.62903534 42 91.125 C21.53026832 80.2559061 13.45747204 64.77617871 6.76171875 43.18359375 C2.58977947 28.9990002 0.41771016 14.76605425 0 0 Z " fill="#AC6E44" transform="translate(74,204)"/>
<path d="M0 0 C0.33 0 0.66 0 1 0 C1.41765274 14.896281 -2.22926304 29.6889028 -6.875 43.75 C-7.19017578 44.71228516 -7.50535156 45.67457031 -7.83007812 46.66601562 C-14.27116609 65.29224795 -25.05116788 77.45735742 -42.375 86.375 C-49.25574154 89.91964692 -55.26260174 93.74597229 -61 99 C-61.70382812 99.62390625 -62.40765625 100.2478125 -63.1328125 100.890625 C-74.3091106 111.34450079 -80.22843345 125.13432489 -83 140 C-83.33 140 -83.66 140 -84 140 C-85.66661937 124.59302987 -77.95447634 109.14219671 -68.75 97.3125 C-59.80181413 86.8307648 -48.58033862 80.68937235 -36.68359375 74.1875 C-26.4095665 68.42684392 -20.52978938 62.3935257 -15 52 C-14.59136719 51.24847656 -14.18273437 50.49695313 -13.76171875 49.72265625 C-6.11602996 34.3565651 -2.21794427 16.91974628 0 0 Z " fill="#AC6E43" transform="translate(439,210)"/>
<path d="M0 0 C2.46672793 2.4492334 4.91280429 4.90746577 7.296875 7.4375 C19.42166183 20.10288242 33.39494941 30.06922535 49 38 C50.09828125 38.56332031 51.1965625 39.12664062 52.328125 39.70703125 C62.71374644 44.75915005 73.55333596 48.42065015 85 50 C86 51 86 51 86.09765625 52.84765625 C86.06510417 54.8984375 86.03255208 56.94921875 86 59 C54.35527506 55.80801035 26.49754523 36.45063837 5 14 C4.45988281 13.50371094 3.91976562 13.00742188 3.36328125 12.49609375 C0.25318443 9.08300755 0 4.41683756 0 0 Z " fill="#F8E0A6" transform="translate(149,172)"/>
<path d="M0 0 C0.33 0 0.66 0 1 0 C1.15855469 0.99257812 1.31710937 1.98515625 1.48046875 3.0078125 C3.82152585 16.9384834 7.49604552 29.47678438 16 41 C16.57234375 41.77988281 17.1446875 42.55976562 17.734375 43.36328125 C28.15991279 56.26154275 44.83160524 63.53232767 61 66 C64.27480469 66.24663801 67.54486018 66.4387217 70.82421875 66.60546875 C75.89676339 66.89676339 75.89676339 66.89676339 77 68 C77.14115161 70.67058851 77.04247107 73.32432238 77 76 C57.48036634 77.2668993 37.68154051 70.45552774 22.875 57.8125 C11.95460112 47.57784046 5.74782365 35.33542547 2 21 C1.79375 20.27296875 1.5875 19.5459375 1.375 18.796875 C-0.24695605 12.53432249 -0.1960962 6.43849181 0 0 Z " fill="#D69A71" transform="translate(363,81)"/>
<path d="M0 0 C0.99 0.99 0.99 0.99 2 2 C1.22005895 19.54867364 -8.5574103 35.28021635 -21 47 C-35.9125868 59.48442366 -54.88103886 64.35260379 -74 64 C-74 61.36 -74 58.72 -74 56 C-72.741875 55.84144531 -71.48375 55.68289062 -70.1875 55.51953125 C-48.74652937 52.66101583 -28.43613673 47.53452749 -13.8125 30.375 C-6.9381588 21.31589854 -2.38002597 11.10678784 0 0 Z " fill="#D79A71" transform="translate(149,93)"/>
<path d="M0 0 C0.33 0 0.66 0 1 0 C1.14695313 0.68964844 1.29390625 1.37929687 1.4453125 2.08984375 C3.75507686 11.76695993 7.76312703 19.23418892 16 25 C24.92324846 30.0140158 33.65520352 31.75353258 43.86328125 29.31640625 C53.35589928 25.75851987 60.36628259 20.07977648 65 11 C66.21617948 7.70943136 67.18803999 4.41165655 68 1 C68.33 1 68.66 1 69 1 C69.534955 10.62918999 67.10518683 19.4179974 61 27 C54.52657301 33.99899235 47.97020828 38.38105832 38.3828125 39.375 C27.51634336 39.72482597 20.16851513 37.89242472 11.75 31 C4.97481015 24.55556745 0.27842154 16.00508587 -0.09765625 6.54296875 C-0.08605469 5.76566406 -0.07445312 4.98835938 -0.0625 4.1875 C-0.05347656 3.39730469 -0.04445312 2.60710937 -0.03515625 1.79296875 C-0.02355469 1.20128906 -0.01195312 0.60960938 0 0 Z " fill="#D7B86E" transform="translate(223,107)"/>
<path d="M0 0 C8.92729285 5.49945086 14.93533547 12.45755061 18.33984375 22.44140625 C18.74801283 25.32964613 18.6767101 27.52189786 18.33984375 30.44140625 C16.33984375 27.44140625 16.33984375 27.44140625 15.078125 25.171875 C9.37218263 14.99497505 2.71809274 9.65521456 -8.66015625 6.44140625 C-19.03132116 5.03493931 -27.33372136 7.30860356 -35.91015625 13.12890625 C-41.61542946 17.67926585 -45.11880696 23.68426726 -47.66015625 30.44140625 C-47.99015625 30.44140625 -48.32015625 30.44140625 -48.66015625 30.44140625 C-49.64812715 21.87899175 -46.13156097 15.08683835 -41.0546875 8.29296875 C-30.97985081 -2.66730489 -13.55408202 -6.4725816 0 0 Z " fill="#F8E1A6" transform="translate(272.66015625,80.55859375)"/>
<path d="M0 0 C-14.06858416 15.59870207 -36.66190003 28.66094281 -57.91796875 30.171875 C-61.20374187 29.90062919 -62.75894645 28.30508365 -65 26 C-65.928125 25.443125 -66.85625 24.88625 -67.8125 24.3125 C-68.534375 23.879375 -69.25625 23.44625 -70 23 C-70 22.67 -70 22.34 -70 22 C-68.68902344 21.97873047 -68.68902344 21.97873047 -67.3515625 21.95703125 C-48.50780672 21.22619376 -30.27331576 15.26758417 -15 4 C-15 3.34 -15 2.68 -15 2 C-13.06524329 1.46906676 -11.12706845 0.95057683 -9.1875 0.4375 C-8.10855469 0.14746094 -7.02960938 -0.14257812 -5.91796875 -0.44140625 C-3 -1 -3 -1 0 0 Z " fill="#D8B96E" transform="translate(364,251)"/>
<path d="M0 0 C3.33333333 0.66666667 6.66666667 1.33333333 10 2 C11.40185547 2.28037109 11.40185547 2.28037109 12.83203125 2.56640625 C13.54746094 2.70949219 14.26289063 2.85257813 15 3 C15 3.66 15 4.32 15 5 C17.22223136 6.54524012 19.42055914 7.94540852 21.75 9.3125 C22.43521729 9.71549316 23.12043457 10.11848633 23.82641602 10.53369141 C38.48931576 19.00164816 53.1942875 22.07695897 70 23 C66.1752789 26.36111854 62.67367854 28.14816511 58 30 C57.01 30.495 57.01 30.495 56 31 C36.38743943 28.72607993 14.57567671 17.66232473 1.875 2.5 C1.25625 1.675 0.6375 0.85 0 0 Z " fill="#D7B86E" transform="translate(159,250)"/>
<path d="M0 0 C3.2826932 1.49076434 5.93077441 3.38620321 8.75 5.625 C9.54921875 6.25664063 10.3484375 6.88828125 11.171875 7.5390625 C11.77515625 8.02117187 12.3784375 8.50328125 13 9 C10.98699398 14.55865548 7.71751141 18.67735544 4.125 23.3125 C3.18720703 24.56643555 3.18720703 24.56643555 2.23046875 25.84570312 C1.31587891 27.0300293 1.31587891 27.0300293 0.3828125 28.23828125 C-0.17003418 28.96055908 -0.72288086 29.68283691 -1.29248047 30.42700195 C-3 32 -3 32 -7 32 C-9.578125 30.25 -9.578125 30.25 -12.25 28 C-13.14203125 27.2575 -14.0340625 26.515 -14.953125 25.75 C-15.62859375 25.1725 -16.3040625 24.595 -17 24 C-14.05613179 18.24025786 -10.27170915 13.55654588 -6.12890625 8.6015625 C-3.86236502 5.83180753 -1.88674235 3.03519421 0 0 Z " fill="#F9D780" transform="translate(69,58)"/>
<path d="M0 0 C1.24926758 1.35766602 1.24926758 1.35766602 2.64453125 3.25390625 C3.15693359 3.94419922 3.66933594 4.63449219 4.19726562 5.34570312 C4.73029297 6.07724609 5.26332031 6.80878906 5.8125 7.5625 C6.33392578 8.26697266 6.85535156 8.97144531 7.39257812 9.69726562 C10.64169669 14.09838129 13.83036167 18.54141447 17 23 C13.50640535 26.59634744 9.88901869 29.83451967 6 33 C2.60425132 31.57338644 0.83391702 29.89980353 -1.41796875 27.0078125 C-2.03220703 26.22019531 -2.64644531 25.43257812 -3.27929688 24.62109375 C-3.90900391 23.79738281 -4.53871094 22.97367188 -5.1875 22.125 C-5.82880859 21.30902344 -6.47011719 20.49304688 -7.13085938 19.65234375 C-12.28569511 12.97881829 -12.28569511 12.97881829 -13 9 C-11.21326795 7.4941255 -9.42046492 5.9954515 -7.625 4.5 C-6.62726563 3.6646875 -5.62953125 2.829375 -4.6015625 1.96875 C-2 0 -2 0 0 0 Z " fill="#F9D780" transform="translate(443,58)"/>
<path d="M0 0 C0.33 0 0.66 0 1 0 C1.65282833 13.43738307 0.27931744 23.11119458 -8.77734375 33.69140625 C-12.14728223 37.19164112 -15.6609561 40.74076098 -20 43 C-23.55719972 42.54723336 -24.06013851 41.9331396 -26.62109375 39.0859375 C-27.57015096 37.85680886 -28.50863057 36.61945506 -29.4375 35.375 C-30.13456055 34.46814453 -30.13456055 34.46814453 -30.84570312 33.54296875 C-33.99093751 29.42828276 -37.00690202 25.22618916 -40 21 C-38.68 19.68 -37.36 18.36 -36 17 C-29.565 25.415 -29.565 25.415 -23 34 C-14.65830096 31.91457524 -8.47030767 25.28646649 -4.11328125 18.08203125 C-0.9915812 12.2439045 -0.48828622 6.50191653 0 0 Z " fill="#BBC3CB" transform="translate(495,28)"/>
<path d="M0 0 C0.33 0 0.66 0 1 0 C1.01417969 0.67804687 1.02835938 1.35609375 1.04296875 2.0546875 C1.55416391 12.0299011 4.96927479 19.80948558 12 27 C16.84021954 31.85606337 16.84021954 31.85606337 22.9609375 34.08984375 C26.17444202 32.37228099 27.97962588 29.52291182 30.0625 26.625 C35.37876682 19.38918958 35.37876682 19.38918958 38 17 C38.99 18.32 39.98 19.64 41 21 C39.10690634 23.54371744 37.21002431 26.08458644 35.3125 28.625 C34.51682617 29.69427734 34.51682617 29.69427734 33.70507812 30.78515625 C30.58202673 34.961998 27.37816616 39.02642422 24 43 C17.20489827 41.97913965 11.37627527 35.74369132 7.0546875 30.75390625 C0.18282188 21.06768361 -0.4523139 11.62614248 0 0 Z " fill="#BBC4CB" transform="translate(16,28)"/>
<path d="M0 0 C0.66 0 1.32 0 2 0 C2.350625 0.9075 2.70125 1.815 3.0625 2.75 C5.38002242 6.63745696 7.78498992 8.55159885 12 10 C16.64830628 10.80483042 20.63413665 10.50437865 24.875 8.375 C28.23191477 5.82374478 29.49554727 3.89387765 31 0 C31.66 0 32.32 0 33 0 C32.7321679 6.02622231 32.14253112 10.31239899 28 15 C23.41434643 18.41676149 19.93959769 19.67578864 14.20703125 19.3828125 C9.19325957 18.51316715 6.00053276 16.1321818 2.625 12.3125 C0.60295074 8.19063036 0.20184597 4.54153423 0 0 Z " fill="#D4B66D" transform="translate(241,425)"/>
<path d="M0 0 C1.32 0.99 2.64 1.98 4 3 C1.98699398 8.55865548 -1.28248859 12.67735544 -4.875 17.3125 C-5.81279297 18.56643555 -5.81279297 18.56643555 -6.76953125 19.84570312 C-7.68412109 21.0300293 -7.68412109 21.0300293 -8.6171875 22.23828125 C-9.17003418 22.96055908 -9.72288086 23.68283691 -10.29248047 24.42700195 C-12 26 -12 26 -16 26 C-18.578125 24.25 -18.578125 24.25 -21.25 22 C-22.14203125 21.2575 -23.0340625 20.515 -23.953125 19.75 C-24.62859375 19.1725 -25.3040625 18.595 -26 18 C-25.01 16.35 -24.02 14.7 -23 13 C-19.40056264 14.33693388 -16.26874082 15.99480605 -13 18 C-11.01385003 15.56811635 -9.03733169 13.12858026 -7.0625 10.6875 C-6.49853516 9.99720703 -5.93457031 9.30691406 -5.35351562 8.59570312 C-4.81533203 7.92861328 -4.27714844 7.26152344 -3.72265625 6.57421875 C-3.22515869 5.96151123 -2.72766113 5.34880371 -2.21508789 4.7175293 C-0.80649225 2.90239465 -0.80649225 2.90239465 0 0 Z " fill="#D4B76F" transform="translate(78,64)"/>
<path d="M0 0 C0.66 0 1.32 0 2 0 C3.26513672 1.46875 3.26513672 1.46875 4.6796875 3.5 C5.45505859 4.5828125 5.45505859 4.5828125 6.24609375 5.6875 C7.32944667 7.22549743 8.40760913 8.76716448 9.48046875 10.3125 C9.99996094 11.034375 10.51945312 11.75625 11.0546875 12.5 C11.52374512 13.1703125 11.99280273 13.840625 12.47607422 14.53125 C14.12726404 16.46263464 14.12726404 16.46263464 18 16 C20.73219193 14.08140833 20.73219193 14.08140833 23 12 C24.9375 12.8125 24.9375 12.8125 27 14 C27.33 14.99 27.66 15.98 28 17 C24.37 19.97 20.74 22.94 17 26 C13.2007549 24.10037745 12.06595435 23.19779817 9.58203125 20.0078125 C8.96779297 19.22019531 8.35355469 18.43257812 7.72070312 17.62109375 C7.09099609 16.79738281 6.46128906 15.97367188 5.8125 15.125 C5.17119141 14.30902344 4.52988281 13.49304688 3.86914062 12.65234375 C-1.64832766 5.50934891 -1.64832766 5.50934891 -2 2 C-1.34 1.34 -0.68 0.68 0 0 Z " fill="#D4B76F" transform="translate(432,65)"/>
<path d="M0 0 C0.9075 0.804375 1.815 1.60875 2.75 2.4375 C7.14893127 6.24688378 11.88181579 9.58229612 16.62109375 12.94921875 C17.40613281 13.62597656 18.19117187 14.30273438 19 15 C19 15.99 19 16.98 19 18 C16.5234375 18.87109375 16.5234375 18.87109375 13 19 C9.91796484 17.3895876 7.31424331 15.25328501 4.625 13.0625 C3.52091797 12.1972168 3.52091797 12.1972168 2.39453125 11.31445312 C0.58341789 9.89143549 -1.21334584 8.45352223 -3 7 C-2.38722388 4.03824877 -1.74627478 2.61941217 0 0 Z " fill="#BDC6CD" transform="translate(81,95)"/>
<path d="M0 0 C1.32 0.99 2.64 1.98 4 3 C3.75000047 6.30302411 2.88226146 7.10473355 0.34765625 9.359375 C-0.73943333 10.16707858 -1.83484926 10.96367299 -2.9375 11.75 C-3.48857422 12.16121094 -4.03964844 12.57242188 -4.60742188 12.99609375 C-8.71409105 16 -8.71409105 16 -11 16 C-11.33 16.66 -11.66 17.32 -12 18 C-13.98 17.01 -15.96 16.02 -18 15 C-14.31911357 11.15274582 -10.43814081 7.88614275 -6.1875 4.6875 C-5.59001953 4.23310547 -4.99253906 3.77871094 -4.37695312 3.31054688 C-2.92052412 2.20366083 -1.46062183 1.10134736 0 0 Z " fill="#BDC6CD" transform="translate(430,96)"/>
<path d="M0 0 C0.33 0 0.66 0 1 0 C1.20496094 1.09699219 1.40992188 2.19398437 1.62109375 3.32421875 C1.89321293 4.77864887 2.16534925 6.23307578 2.4375 7.6875 C2.57220703 8.40873047 2.70691406 9.12996094 2.84570312 9.87304688 C3.54098845 13.58688798 4.24774702 17.29716254 5 21 C4.01 21 3.02 21 2 21 C0.09879901 13.87049629 -0.22424141 7.36259293 0 0 Z " fill="#C6906C" transform="translate(363,81)"/>
<path d="M0 0 C0.66 0.66 1.32 1.32 2 2 C1.69690596 6.09176955 1.12300942 9.46165096 -1 13 C-1.66 13 -2.32 13 -3 13 C-2.01 8.71 -1.02 4.42 0 0 Z " fill="#CD946D" transform="translate(149,93)"/>
<path d="M0 0 C0.66 0.33 1.32 0.66 2 1 C1.67 3.31 1.34 5.62 1 8 C0.01 8.33 -0.98 8.66 -2 9 C-1.34 6.03 -0.68 3.06 0 0 Z " fill="#ECD59A" transform="translate(287,230)"/>
<path d="M0 0 C0.33 0 0.66 0 1 0 C1.125 7.625 1.125 7.625 0 11 C-0.99 11.33 -1.98 11.66 -3 12 C-2.01 8.04 -1.02 4.08 0 0 Z " fill="#C7B073" transform="translate(291,108)"/>
</svg>
