<?xml version="1.0" encoding="UTF-8"?>
<svg version="1.1" xmlns="http://www.w3.org/2000/svg" width="512" height="512">
<path d="M0 0 C3.30998914 0.01610582 6.61875788 0.00002471 9.92871094 -0.01904297 C27.94849047 -0.03790031 46.36015214 0.88796112 63.68652344 6.26611328 C64.50894531 6.49685547 65.33136719 6.72759766 66.17871094 6.96533203 C71.74704555 8.61292471 77.84077996 10.58232786 82.31152344 14.39111328 C83.83150073 18.87237053 82.79971675 21.89899576 81.3137207 26.29272461 C81.08953461 26.96645111 80.86534851 27.64017761 80.6343689 28.33432007 C79.89354143 30.55124717 79.13589643 32.76202491 78.37792969 34.97314453 C77.85978774 36.51264341 77.34270729 38.05249992 76.8266449 39.59269714 C75.46776624 43.63883777 74.09454034 47.67996518 72.71826172 51.72021484 C71.31551487 55.84651356 69.92640247 59.97739452 68.53613281 64.10791016 C65.80791373 72.20685605 63.06451944 80.30055621 60.31152344 88.39111328 C62.31958008 88.36873372 64.32763672 88.34635417 66.33569336 88.32397461 C68.88031721 88.41044088 70.29345495 88.82150446 72.31152344 90.39111328 C75.73480244 94.30343214 75.63521459 98.03259387 75.61230469 102.98876953 C75.28852764 105.57478105 74.72388619 107.20749443 73.31152344 109.39111328 C70.68652344 110.64111328 70.68652344 110.64111328 68.31152344 111.39111328 C68.31152344 112.05111328 68.31152344 112.71111328 68.31152344 113.39111328 C68.90964844 113.45298828 69.50777344 113.51486328 70.12402344 113.57861328 C72.31152344 114.39111328 72.31152344 114.39111328 74.06152344 116.32861328 C76.03496376 121.16354206 76.26973349 126.51648311 74.60449219 131.51220703 C72.7612354 134.19077656 71.32216189 135.08847102 68.31152344 136.39111328 C65.04460551 136.87783078 61.79801454 136.99250986 58.49902344 137.07861328 C57.61537109 137.11277344 56.73171875 137.14693359 55.82128906 137.18212891 C53.65180177 137.26421761 51.48168454 137.32935207 49.31152344 137.39111328 C50.39949219 137.94798828 51.48746094 138.50486328 52.60839844 139.07861328 C65.47297666 145.73047705 77.17621371 153.06327412 88.31152344 162.39111328 C88.85067383 162.8400293 89.38982422 163.28894531 89.9453125 163.75146484 C122.22538344 190.69658269 146.35882494 224.98674091 166.62402344 261.57861328 C167.09864014 262.43455078 167.57325684 263.29048828 168.06225586 264.17236328 C168.49127197 264.95998047 168.92028809 265.74759766 169.36230469 266.55908203 C169.74040283 267.25283936 170.11850098 267.94659668 170.50805664 268.66137695 C171.31152344 270.39111328 171.31152344 270.39111328 171.31152344 272.39111328 C173.26058594 272.29830078 173.26058594 272.29830078 175.24902344 272.20361328 C197.62893776 272.26665529 222.99835645 280.25235497 239.96777344 295.02392578 C246.56396106 301.68607528 251.54306249 308.82221722 251.5856781 318.39189148 C251.59565323 319.59595139 251.60562836 320.80001129 251.61590576 322.04055786 C251.61657043 323.35337738 251.61723511 324.6661969 251.61791992 326.01879883 C251.62554558 327.4220168 251.63397378 328.8252306 251.6431427 330.22843933 C251.66505897 334.03448655 251.67388311 337.84045343 251.67896914 341.64655662 C251.68261717 344.02782179 251.68885965 346.40906607 251.69597054 348.79032326 C251.72045842 357.10770208 251.73351477 365.42501862 251.73706055 373.74243164 C251.74069175 381.47860911 251.77055875 389.21438886 251.81246513 396.95044488 C251.84723875 403.60458845 251.86261023 410.25860071 251.86330658 416.91283447 C251.86409722 420.88153149 251.87273634 424.8498235 251.90130424 428.81842613 C251.92760569 432.55574473 251.92962391 436.29232608 251.91364861 440.02969551 C251.91098822 442.04118638 251.93293697 444.05266366 251.95584106 446.06402588 C251.86895351 456.90453622 248.71505374 464.60364957 241.30371094 472.52392578 C231.00820745 482.17343689 218.1379782 487.83345292 204.74902344 491.70361328 C203.49255005 492.06724976 203.49255005 492.06724976 202.21069336 492.43823242 C189.26662431 495.97706965 176.58516756 496.79802763 163.24902344 496.76611328 C162.02454498 496.76579605 162.02454498 496.76579605 160.77532959 496.76547241 C148.23943025 496.73307554 136.39018724 496.01009122 124.31152344 492.39111328 C123.60930664 492.1879248 122.90708984 491.98473633 122.18359375 491.77539062 C116.16229852 490.00237644 110.3222194 488.06592593 104.81152344 485.01611328 C98.10045023 481.90025786 90.64150817 485.31828009 83.81152344 487.20361328 C75.7983094 489.3463008 67.79509153 491.20822195 59.62402344 492.64111328 C58.78484375 492.79169189 57.94566406 492.94227051 57.08105469 493.09741211 C39.35913946 496.0649655 21.68798595 496.76704499 3.74902344 496.70361328 C2.64935242 496.70145813 1.5496814 496.69930298 0.41668701 496.69708252 C-46.1340666 496.55085864 -91.41222995 487.49514356 -132.68847656 465.39111328 C-133.70941406 464.85099609 -134.73035156 464.31087891 -135.78222656 463.75439453 C-161.42258992 449.52123584 -185.10286675 427.85003614 -194.12597656 399.26611328 C-204.60828699 362.31949448 -188.28981185 321.29725257 -172.87792969 287.96386719 C-171.74021785 285.50302824 -170.62670789 283.03246792 -169.51660156 280.55908203 C-157.69924599 254.56522847 -142.44795213 229.75260948 -124.68847656 207.39111328 C-124.22973145 206.80523437 -123.77098633 206.21935547 -123.29833984 205.61572266 C-100.94750743 177.12328276 -75.35604415 153.45175688 -42.68847656 137.39111328 C-44.00203125 137.35373047 -45.31558594 137.31634766 -46.66894531 137.27783203 C-48.40465021 137.21215671 -50.14032603 137.14570991 -51.87597656 137.07861328 C-53.17245117 137.04477539 -53.17245117 137.04477539 -54.49511719 137.01025391 C-59.28192505 136.80851105 -62.88638418 136.61735478 -66.68847656 133.39111328 C-69.60253912 129.15647857 -69.20790874 124.32971457 -68.68847656 119.39111328 C-67.43847656 116.32861328 -67.43847656 116.32861328 -65.68847656 114.39111328 C-63.50097656 113.57861328 -63.50097656 113.57861328 -61.68847656 113.39111328 C-61.68847656 112.73111328 -61.68847656 112.07111328 -61.68847656 111.39111328 C-62.86410156 111.01986328 -62.86410156 111.01986328 -64.06347656 110.64111328 C-67.14312123 109.17461582 -67.49781313 108.49553711 -68.68847656 105.39111328 C-69.26269399 100.80483123 -69.22400046 96.67637063 -67.43847656 92.39111328 C-65.48637492 90.16013998 -64.5303387 89.23599121 -61.68847656 88.39111328 C-60.30768883 88.34419414 -58.92544418 88.33274789 -57.54394531 88.34814453 C-56.27164063 88.36232422 -54.99933594 88.37650391 -53.68847656 88.39111328 C-53.97884293 87.53777908 -54.26920929 86.68444489 -54.56837463 85.80525208 C-57.30319711 77.76110749 -60.02644358 69.71315782 -62.73677158 61.66072559 C-64.13057452 57.52105869 -65.52880107 53.38299812 -66.93725586 49.24829102 C-68.29643123 45.25771286 -69.6438296 41.26333579 -70.98316765 37.26605797 C-71.49610215 35.7420314 -72.01325822 34.21941893 -72.53470039 32.69828224 C-73.26459965 30.56669123 -73.97929877 28.43055668 -74.69067383 26.29272461 C-75.30689354 24.47071281 -75.30689354 24.47071281 -75.93556213 22.6118927 C-76.70016963 19.34109329 -76.78503834 17.54113433 -75.68847656 14.39111328 C-56.27927945 -0.70089793 -23.05302529 -0.13280177 0 0 Z " fill="#FE9C00" transform="translate(252.6884765625,7.60888671875)"/>
<path d="M0 0 C3.46939339 0.05572248 6.92953749 0.02078816 10.39892578 -0.02416992 C24.15141992 -0.03186991 34.02323557 1.65188285 45.60595703 9.1184082 C47.08690044 9.93821616 48.57157464 10.7513998 50.06298828 11.55200195 C57.81686229 16.18266245 64.77277923 21.17733972 71.60595703 27.1184082 C72.75026855 28.08115742 73.89618816 29.04199756 75.04345703 30.0012207 C106.54403215 56.45914625 130.10622785 90.53194024 149.91845703 126.3059082 C150.39307373 127.1618457 150.86769043 128.0177832 151.35668945 128.8996582 C151.78570557 129.68727539 152.21472168 130.47489258 152.65673828 131.28637695 C153.2238855 132.32701294 153.2238855 132.32701294 153.80249023 133.38867188 C154.60595703 135.1184082 154.60595703 135.1184082 154.60595703 137.1184082 C155.90533203 137.0565332 157.20470703 136.9946582 158.54345703 136.9309082 C180.92337136 136.99395022 206.29279005 144.97964989 223.26220703 159.7512207 C229.9511254 166.50702825 234.88332253 173.67128495 234.91845703 183.3684082 C234.6712474 195.56408348 229.85951558 203.20313987 221.23095703 211.6184082 C196.13645382 232.37796844 160.22043964 235.07377457 129.13720703 232.8371582 C108.86583354 230.72893536 90.0393885 224.34629484 73.60595703 212.1184082 C72.02814453 210.9737207 72.02814453 210.9737207 70.41845703 209.8059082 C63.50839031 203.20295556 59.1963062 195.19166583 58.39501953 185.59106445 C58.33823395 182.08739382 58.48939636 179.46809022 59.60595703 176.1184082 C50.28028307 181.44981372 42.71884869 187.48860613 37.60595703 197.1184082 C37.811413 201.63843961 39.45964911 205.72046982 40.90673828 209.9699707 C44.37932947 220.63994363 42.95581647 230.96388685 38.60595703 241.1184082 C38.09742188 241.7594751 37.58888672 242.40054199 37.06494141 243.06103516 C34.79124348 247.82568026 35.12482047 252.54736351 35.09423828 257.76293945 C35.07628708 258.88786301 35.05833588 260.01278656 35.0398407 261.17179871 C34.98573987 264.75813063 34.95184178 268.34432945 34.91845703 271.9309082 C34.88528386 274.36517151 34.85079421 276.79941726 34.81494141 279.23364258 C34.7300134 285.19511177 34.66166237 291.15659819 34.60595703 297.1184082 C21.49972609 296.74441412 8.76669405 296.08241731 -4.14404297 293.6809082 C-5.37896484 293.46370117 -6.61388672 293.24649414 -7.88623047 293.02270508 C-10.28304607 292.5990641 -12.67834432 292.16671699 -15.07177734 291.72436523 C-17.20490158 291.33529892 -19.34155015 290.96483533 -21.48193359 290.61791992 C-26.88597427 289.72737675 -31.39583055 288.45561707 -36.39404297 286.1184082 C-39.06350766 285.1285759 -41.76164751 284.22392898 -44.45654297 283.3059082 C-51.20806351 280.97310781 -57.72965988 278.34982528 -64.24560547 275.4152832 C-67.45136326 274.01901766 -67.45136326 274.01901766 -71.17919922 273.08325195 C-75.19470666 271.87811181 -75.84642199 270.39392089 -78.39404297 267.1184082 C-79.90778773 265.99639037 -81.45388974 264.91752335 -83.01904297 263.8684082 C-88.61133815 260.07981353 -93.48121906 255.7392986 -98.39404297 251.1184082 C-98.99861328 250.58989258 -99.60318359 250.06137695 -100.22607422 249.5168457 C-110.42758563 240.19930601 -117.34633401 227.16778636 -121.39404297 214.1184082 C-121.70728516 213.13155029 -121.70728516 213.13155029 -122.02685547 212.12475586 C-131.42833925 180.90796202 -125.2008033 142.13486436 -114.39404297 112.1184082 C-114.03656982 111.11583984 -114.03656982 111.11583984 -113.671875 110.09301758 C-110.02975573 100.06406595 -105.369702 90.54055368 -100.39404297 81.1184082 C-100.08241211 80.5217334 -99.77078125 79.92505859 -99.44970703 79.31030273 C-85.44612301 52.74794892 -63.90715672 29.94279039 -39.66479492 12.52246094 C-37.55307537 11.00178002 -35.61851259 9.45151938 -33.63696289 7.74755859 C-23.21384264 -0.36269163 -12.84753083 -0.23476157 0 0 Z " fill="#FEC508" transform="translate(269.39404296875,142.881591796875)"/>
<path d="M0 0 C1.72287458 2.58431187 2.99384989 5.01627452 4.3125 7.8125 C11.63145059 22.4080951 27.27548131 30.3022675 42.234375 35.546875 C76.50468586 46.85659932 116.74852608 44.99472004 149.2878418 29.11010742 C159.65406136 23.73448785 169.66048305 16.29410537 173.73828125 4.9453125 C174.21991096 3.31366898 174.61998288 1.65825654 175 0 C175.33 0 175.66 0 176 0 C176.11702007 16.90750989 176.20507918 33.81489263 176.25906086 50.72271538 C176.28479645 58.57407071 176.31985735 66.4251738 176.37719727 74.27636719 C176.4271754 81.1228459 176.45932476 87.96914185 176.47044247 94.81579792 C176.47693708 98.43810675 176.49210226 102.05989293 176.52865028 105.68203354 C176.56920732 109.73470578 176.56994027 113.78648071 176.56762695 117.83935547 C176.59459152 119.62284645 176.59459152 119.62284645 176.62210083 121.44236755 C176.55774006 131.89243492 173.11848085 139.51715995 165.9921875 147.1328125 C155.69668401 156.78232361 142.82645477 162.44233964 129.4375 166.3125 C128.18102661 166.67613647 128.18102661 166.67613647 126.89916992 167.04711914 C113.95510087 170.58595637 101.27364412 171.40691435 87.9375 171.375 C86.71302155 171.37468277 86.71302155 171.37468277 85.46380615 171.37435913 C72.92790681 171.34196226 61.0786638 170.61897794 49 167 C47.9466748 166.69521729 47.9466748 166.69521729 46.87207031 166.38427734 C39.5932511 164.24097608 32.65716469 161.66823361 26 158 C26 157.34 26 156.68 26 156 C25.13375 155.77441406 24.2675 155.54882812 23.375 155.31640625 C19.5381353 153.81985139 16.94012709 151.72829032 14 148.9375 C13.47744629 148.44797852 12.95489258 147.95845703 12.41650391 147.45410156 C4.56519645 139.90410793 -0.01824422 132.39099622 -0.24050903 121.33680725 C-0.24627998 119.07358079 -0.24105105 116.81030965 -0.22705078 114.54711914 C-0.22734283 113.30739349 -0.22763489 112.06766785 -0.22793579 110.79037476 C-0.22678518 107.40856871 -0.21678826 104.02701 -0.20278788 100.6452477 C-0.19024423 97.10452463 -0.18910716 93.56379789 -0.18673706 90.02305603 C-0.18053294 83.32609822 -0.16413664 76.62920609 -0.14403808 69.93227714 C-0.12164576 62.30469967 -0.11067729 54.67711898 -0.10064721 47.0495168 C-0.07976941 31.36630656 -0.0446143 15.68316177 0 0 Z " fill="#E28B05" transform="translate(328,333)"/>
<path d="M0 0 C3.30998914 0.01610582 6.61875788 0.00002471 9.92871094 -0.01904297 C27.94849047 -0.03790031 46.36015214 0.88796112 63.68652344 6.26611328 C64.50894531 6.49685547 65.33136719 6.72759766 66.17871094 6.96533203 C71.74704555 8.61292471 77.84077996 10.58232786 82.31152344 14.39111328 C83.83150073 18.87237053 82.79971675 21.89899576 81.3137207 26.29272461 C81.08953461 26.96645111 80.86534851 27.64017761 80.6343689 28.33432007 C79.89354143 30.55124717 79.13589643 32.76202491 78.37792969 34.97314453 C77.85978774 36.51264341 77.34270729 38.05249992 76.8266449 39.59269714 C75.46776624 43.63883777 74.09454034 47.67996518 72.71826172 51.72021484 C71.31551487 55.84651356 69.92640247 59.97739452 68.53613281 64.10791016 C65.80791373 72.20685605 63.06451944 80.30055621 60.31152344 88.39111328 C62.31958008 88.36873372 64.32763672 88.34635417 66.33569336 88.32397461 C68.88031721 88.41044088 70.29345495 88.82150446 72.31152344 90.39111328 C75.73480244 94.30343214 75.63521459 98.03259387 75.61230469 102.98876953 C75.28852764 105.57478105 74.72388619 107.20749443 73.31152344 109.39111328 C70.68652344 110.64111328 70.68652344 110.64111328 68.31152344 111.39111328 C68.31152344 112.05111328 68.31152344 112.71111328 68.31152344 113.39111328 C68.90964844 113.45298828 69.50777344 113.51486328 70.12402344 113.57861328 C72.31152344 114.39111328 72.31152344 114.39111328 74.06152344 116.32861328 C76.03496376 121.16354206 76.26973349 126.51648311 74.60449219 131.51220703 C72.858335 134.04967412 71.05008634 134.9972359 68.31152344 136.39111328 C65.67999268 136.7686367 65.67999268 136.7686367 62.80859375 136.77206421 C61.7151062 136.78052368 60.62161865 136.78898315 59.49499512 136.79769897 C57.71034851 136.78858994 57.71034851 136.78858994 55.88964844 136.77929688 C53.99865417 136.78718231 53.99865417 136.78718231 52.06945801 136.79522705 C48.61902683 136.80888153 45.16886534 136.8036099 41.71842957 136.79408979 C38.10394576 136.78648344 34.48948473 136.79354151 30.875 136.79824829 C24.80562198 136.80370301 18.73635356 136.79652172 12.66699219 136.78222656 C5.65447838 136.76590051 -1.35777375 136.77118923 -8.37028122 136.78770578 C-14.39591076 136.80132877 -20.42146162 136.80323635 -26.44710159 136.79538977 C-30.04383889 136.7907177 -33.64045326 136.7900755 -37.23718262 136.79999924 C-41.24714606 136.81029072 -45.25665983 136.79601831 -49.26660156 136.77929688 C-50.45636597 136.78536957 -51.64613037 136.79144226 -52.87194824 136.79769897 C-54.51217957 136.78500977 -54.51217957 136.78500977 -56.18554688 136.77206421 C-57.60688934 136.77036759 -57.60688934 136.77036759 -59.0569458 136.7686367 C-62.21582437 136.31545916 -64.10430169 135.23216116 -66.68847656 133.39111328 C-69.60253912 129.15647857 -69.20790874 124.32971457 -68.68847656 119.39111328 C-67.43847656 116.32861328 -67.43847656 116.32861328 -65.68847656 114.39111328 C-63.50097656 113.57861328 -63.50097656 113.57861328 -61.68847656 113.39111328 C-61.68847656 112.73111328 -61.68847656 112.07111328 -61.68847656 111.39111328 C-62.86410156 111.01986328 -62.86410156 111.01986328 -64.06347656 110.64111328 C-67.14312123 109.17461582 -67.49781313 108.49553711 -68.68847656 105.39111328 C-69.26269399 100.80483123 -69.22400046 96.67637063 -67.43847656 92.39111328 C-65.48637492 90.16013998 -64.5303387 89.23599121 -61.68847656 88.39111328 C-60.30768883 88.34419414 -58.92544418 88.33274789 -57.54394531 88.34814453 C-56.27164063 88.36232422 -54.99933594 88.37650391 -53.68847656 88.39111328 C-53.97884293 87.53777908 -54.26920929 86.68444489 -54.56837463 85.80525208 C-57.30319711 77.76110749 -60.02644358 69.71315782 -62.73677158 61.66072559 C-64.13057452 57.52105869 -65.52880107 53.38299812 -66.93725586 49.24829102 C-68.29643123 45.25771286 -69.6438296 41.26333579 -70.98316765 37.26605797 C-71.49610215 35.7420314 -72.01325822 34.21941893 -72.53470039 32.69828224 C-73.26459965 30.56669123 -73.97929877 28.43055668 -74.69067383 26.29272461 C-75.10148697 25.07805008 -75.51230011 23.86337555 -75.93556213 22.6118927 C-76.70016963 19.34109329 -76.78503834 17.54113433 -75.68847656 14.39111328 C-56.27927945 -0.70089793 -23.05302529 -0.13280177 0 0 Z " fill="#DD8800" transform="translate(252.6884765625,7.60888671875)"/>
<path d="M0 0 C0.74209717 -0.00067474 1.48419434 -0.00134949 2.2487793 -0.00204468 C13.17884449 0.01376815 23.50083367 0.461859 34.125 3.25 C35.15004639 3.49943359 35.15004639 3.49943359 36.19580078 3.75390625 C54.91715114 8.3418478 72.75845994 16.39102074 83.78515625 32.890625 C87.94020012 40.20737864 88.09327635 47.54597206 86.6953125 55.78125 C83.38050517 67.40353744 73.59865745 75.84846788 63.46362305 81.63818359 C31.24636278 99.22586058 -9.29159226 100.81561627 -44.1796875 90.80078125 C-54.84126606 87.4731563 -64.93498483 81.90214032 -73.875 75.25 C-75.4528125 74.1053125 -75.4528125 74.1053125 -77.0625 72.9375 C-84.53420664 65.79786921 -88.75397906 57.04716255 -89.3125 46.6875 C-88.94200489 37.90367855 -83.775441 30.44009901 -77.875 24.25 C-56.89451046 5.25064027 -27.43425638 0.02230489 0 0 Z " fill="#FEBF51" transform="translate(416.875,279.75)"/>
<path d="M0 0 C5.28 0 10.56 0 16 0 C16 5.28 16 10.56 16 16 C17.81886719 15.96519531 19.63773437 15.93039063 21.51171875 15.89453125 C23.9036366 15.86639104 26.29556443 15.83909113 28.6875 15.8125 C29.88568359 15.78736328 31.08386719 15.76222656 32.31835938 15.73632812 C33.47529297 15.72666016 34.63222656 15.71699219 35.82421875 15.70703125 C36.88729248 15.6913208 37.95036621 15.67561035 39.0456543 15.65942383 C42.42477331 16.04896775 44.27990964 16.99204546 47 19 C48.17426264 21.34852528 48.11508173 22.73774065 48.09765625 25.3515625 C48.09282227 26.62773437 48.09282227 26.62773437 48.08789062 27.9296875 C48.07532227 29.26386719 48.07532227 29.26386719 48.0625 30.625 C48.05798828 31.5221875 48.05347656 32.419375 48.04882812 33.34375 C48.03702611 35.56252831 48.01909039 37.78127243 48 40 C42.72 40 37.44 40 32 40 C32 37.36 32 34.72 32 32 C26.72 32 21.44 32 16 32 C16.33 54.11 16.66 76.22 17 99 C25.58 103.29 34.16 107.58 43 112 C54.85976927 121.48781542 60.1714584 127.68583361 63.75 142 C64.96871199 156.62454387 61.66796656 167.4199698 52.48046875 178.8984375 C45.49349815 186.68440474 35.30706358 190.99443282 25 192 C21.97670623 192.12615831 19.02820101 192.0976839 16 192 C16 197.28 16 202.56 16 208 C10.72 208 5.44 208 0 208 C0 202.72 0 197.44 0 192 C-1.28165039 192.02094727 -2.56330078 192.04189453 -3.88378906 192.06347656 C-8.63969751 192.13588666 -13.39555724 192.1818036 -18.15185547 192.21972656 C-20.21020705 192.23983969 -22.26850152 192.26713397 -24.32666016 192.30175781 C-27.28562513 192.35028883 -30.24383461 192.37297166 -33.203125 192.390625 C-34.58301605 192.42159271 -34.58301605 192.42159271 -35.99078369 192.45318604 C-42.38862046 192.4554321 -42.38862046 192.4554321 -45.54980469 190.10058594 C-47.62394727 187.09622183 -48.12303826 185.47143299 -48.09765625 181.8671875 C-48.09443359 181.06152344 -48.09121094 180.25585938 -48.08789062 179.42578125 C-48.07951172 178.58402344 -48.07113281 177.74226562 -48.0625 176.875 C-48.05798828 176.02550781 -48.05347656 175.17601562 -48.04882812 174.30078125 C-48.03702874 172.20049091 -48.01909306 170.1002367 -48 168 C-42.72 168 -37.44 168 -32 168 C-32 170.64 -32 173.28 -32 176 C-21.44 176 -10.88 176 0 176 C-0.33 153.89 -0.66 131.78 -1 109 C-8.92 105.04 -16.84 101.08 -25 97 C-36.84053023 89.557381 -44.30126839 80.33829521 -47.58203125 66.5546875 C-49.71499498 53.51769421 -46.29005917 42.31020526 -38.984375 31.4765625 C-32.70042822 23.633999 -23.57733541 18.68165391 -14 16 C-9.31531017 15.74921361 -4.6962135 15.9113922 0 16 C0 10.72 0 5.44 0 0 Z " fill="#FFDE74" transform="translate(248,216)"/>
<path d="M0 0 C1.09355804 -0.00563965 2.18711609 -0.0112793 3.31381226 -0.01708984 C5.10620834 -0.01101715 5.10620834 -0.01101715 6.93481445 -0.00482178 C8.82799911 -0.01007874 8.82799911 -0.01007874 10.75942993 -0.01544189 C14.21806812 -0.02455602 17.67658694 -0.0210257 21.1352272 -0.01468372 C24.75551931 -0.00961867 28.37580124 -0.01431658 31.99609375 -0.01745605 C38.07562087 -0.02109423 44.1550994 -0.01630052 50.23461914 -0.0067749 C57.26241927 0.00410938 64.29010334 0.0005837 71.31790066 -0.01042771 C77.3528235 -0.01950484 83.38771143 -0.02078379 89.42263889 -0.01555037 C93.0266008 -0.01243301 96.63050816 -0.01201491 100.23446655 -0.01862335 C104.25183989 -0.02547535 108.26901329 -0.01597711 112.28637695 -0.00482178 C113.48130768 -0.00887024 114.6762384 -0.0129187 115.90737915 -0.01708984 C117.54771622 -0.00863037 117.54771622 -0.00863037 119.22119141 0 C120.17097366 0.00075405 121.12075592 0.0015081 122.09931946 0.002285 C125.83836761 0.37701565 127.89722222 1.43868331 130.3605957 4.25396729 C132.36725121 9.0699405 132.64360369 14.56059944 130.75512695 19.48443604 C129.16315478 21.94574454 127.34211894 22.391381 124.6105957 23.25396729 C124.6105957 23.91396729 124.6105957 24.57396729 124.6105957 25.25396729 C125.2087207 25.31584229 125.8068457 25.37771729 126.4230957 25.44146729 C128.6105957 26.25396729 128.6105957 26.25396729 130.3605957 28.19146729 C132.33403602 33.02639607 132.56880576 38.37933711 130.90356445 43.37506104 C129.15740726 45.91252813 127.3491586 46.8600899 124.6105957 48.25396729 C121.97906494 48.63149071 121.97906494 48.63149071 119.10766602 48.63491821 C118.01417847 48.64337769 116.92069092 48.65183716 115.79406738 48.66055298 C114.60430298 48.65448029 113.41453857 48.64840759 112.1887207 48.64215088 C110.29772644 48.65003632 110.29772644 48.65003632 108.36853027 48.65808105 C104.9180991 48.67173553 101.4679376 48.6664639 98.01750183 48.6569438 C94.40301803 48.64933745 90.78855699 48.65639552 87.17407227 48.66110229 C81.10469425 48.66655702 75.03542582 48.65937573 68.96606445 48.64508057 C61.95355064 48.62875452 54.94129852 48.63404323 47.92879105 48.65055978 C41.9031615 48.66418278 35.87761064 48.66609036 29.85197067 48.65824378 C26.25523338 48.6535717 22.658619 48.6529295 19.06188965 48.66285324 C15.0519262 48.67314472 11.04241244 48.65887232 7.0324707 48.64215088 C5.8427063 48.64822357 4.65294189 48.65429626 3.42712402 48.66055298 C2.33363647 48.65209351 1.24014893 48.64363403 0.11352539 48.63491821 C-0.83403625 48.63378714 -1.7815979 48.63265606 -2.75787354 48.63149071 C-5.9167521 48.17831316 -7.80522942 47.09501516 -10.3894043 45.25396729 C-13.30346685 41.01933258 -12.90883647 36.19256858 -12.3894043 31.25396729 C-11.1394043 28.19146729 -11.1394043 28.19146729 -9.3894043 26.25396729 C-7.2019043 25.44146729 -7.2019043 25.44146729 -5.3894043 25.25396729 C-5.3894043 24.59396729 -5.3894043 23.93396729 -5.3894043 23.25396729 C-6.1731543 23.00646729 -6.9569043 22.75896729 -7.7644043 22.50396729 C-10.84404896 21.03746983 -11.19874087 20.35839111 -12.3894043 17.25396729 C-12.96362173 12.66768523 -12.92492819 8.53922463 -11.1394043 4.25396729 C-7.87865288 0.52739424 -4.83326771 0.00383723 0 0 Z " fill="#A80031" transform="translate(196.389404296875,95.74603271484375)"/>
<path d="M0 0 C1.09504145 3.28512436 0.94923759 3.93954781 -0.04467773 7.10083008 C-0.42649452 8.33274834 -0.42649452 8.33274834 -0.81602478 9.58955383 C-1.10232254 10.47394638 -1.3886203 11.35833893 -1.68359375 12.26953125 C-2.12337303 13.64016975 -2.12337303 13.64016975 -2.57203674 15.03849792 C-3.19841318 16.97435381 -3.83006868 18.90850824 -4.46655273 20.84106445 C-5.42780259 23.78282255 -6.34989131 26.73507213 -7.27148438 29.68945312 C-7.88562978 31.57109459 -8.50209426 33.45198103 -9.12109375 35.33203125 C-9.38917343 36.2103511 -9.65725311 37.08867096 -9.93345642 37.99360657 C-12.49529892 45.51608077 -16.84928638 48.88110424 -23.79296875 52.42578125 C-24.97826172 52.86470703 -24.97826172 52.86470703 -26.1875 53.3125 C-26.98542969 53.61800781 -27.78335938 53.92351562 -28.60546875 54.23828125 C-32.62609891 55.51727453 -36.43218761 56.12463583 -40.64746094 56.14526367 C-41.53898865 56.15164352 -42.43051636 56.15802338 -43.34906006 56.16459656 C-44.77729095 56.16626579 -44.77729095 56.16626579 -46.234375 56.16796875 C-47.22697327 56.17129715 -48.21957153 56.17462555 -49.24224854 56.17805481 C-51.34020526 56.18310995 -53.43817 56.18546357 -55.53613281 56.18530273 C-58.72474645 56.18748273 -61.91301031 56.20563576 -65.1015625 56.22460938 C-67.14583216 56.22754499 -69.19010345 56.22952866 -71.234375 56.23046875 C-72.65046051 56.24124702 -72.65046051 56.24124702 -74.09515381 56.25224304 C-86.73217417 56.20924131 -99.00667727 52.60000826 -108.41796875 43.73828125 C-116.34761648 35.02545844 -121.35388175 24.69794668 -123 13 C-121.92234375 13.144375 -120.8446875 13.28875 -119.734375 13.4375 C-106.10131858 15.04931818 -92.5232665 15.22465556 -78.8125 15.25 C-77.41408875 15.25749268 -77.41408875 15.25749268 -75.98742676 15.26513672 C-59.20854317 15.33872509 -42.61987154 14.43344648 -26.1875 10.8125 C-25.22827637 10.60399414 -24.26905273 10.39548828 -23.28076172 10.18066406 C-15.60947816 8.39160147 -5.75552243 5.75552243 0 0 Z " fill="#FEC508" transform="translate(335,24)"/>
<path d="M0 0 C0.83660156 0.45890625 1.67320312 0.9178125 2.53515625 1.390625 C13.36387365 7.09878611 23.78461397 10.40872366 36 12 C36.36351562 13.19496094 36.72703125 14.38992187 37.1015625 15.62109375 C40.59248731 26.7810304 44.079166 35.99412333 53 44 C53.721875 44.66 54.44375 45.32 55.1875 46 C65.32002622 53.20535198 75.31482205 55.3128382 87.5546875 55.30078125 C88.53688263 55.30506638 89.51907776 55.3093515 90.53103638 55.31376648 C92.59669224 55.3194769 94.66236819 55.32003448 96.72802734 55.31567383 C99.85940433 55.31251573 102.98983329 55.33600862 106.12109375 55.36132812 C108.14062382 55.3636019 110.1601564 55.36430425 112.1796875 55.36328125 C113.10087372 55.372491 114.02205994 55.38170074 114.97116089 55.39118958 C123.98591891 55.3281746 132.35818451 53.38807399 140.1875 48.8125 C141.10917969 48.28269531 142.03085937 47.75289062 142.98046875 47.20703125 C143.64691406 46.80871094 144.31335938 46.41039062 145 46 C142.74018424 54.8371657 139.89559733 63.313208 137 72 C99.38 72 61.76 72 23 72 C19.205 60.676875 15.41 49.35375 11.5 37.6875 C10.29923828 34.11252686 9.09847656 30.53755371 7.86132812 26.85424805 C6.40136719 22.48791504 6.40136719 22.48791504 5.71911621 20.44367981 C5.24160592 19.01575667 4.76231234 17.58842913 4.28161621 16.16157532 C3.55398998 14.00061538 2.83203862 11.83783515 2.11132812 9.67456055 C1.7027356 8.45544479 1.29414307 7.23632904 0.87316895 5.98027039 C0 3 0 3 0 0 Z " fill="#EF9412" transform="translate(176,24)"/>
<path d="M0 0 C3.04020886 2.78401149 4.35406969 4.76517329 4.625 8.9375 C2.99848503 11.05196947 1.69351465 12.32653698 -0.375 13.9375 C-0.99632812 14.43507813 -1.61765625 14.93265625 -2.2578125 15.4453125 C-19.71625613 28.26535044 -46.9400684 29.02080903 -67.64477539 26.06176758 C-80.34489695 23.98858194 -94.82930794 20.8604648 -103.5 10.5625 C-104.11875 9.69625 -104.7375 8.83 -105.375 7.9375 C-104.00445897 2.28401825 -99.97475636 -0.87917655 -95.375 -4.0625 C-69.60005908 -17.56711693 -23.56493989 -19.66837503 0 0 Z " fill="#FEDE74" transform="translate(466.375,325.0625)"/>
<path d="M0 0 C0.66 0 1.32 0 2 0 C3.79498186 3.56083895 5.58539784 7.12395469 7.375 10.6875 C7.88289063 11.69490234 8.39078125 12.70230469 8.9140625 13.74023438 C9.64882813 15.20493164 9.64882813 15.20493164 10.3984375 16.69921875 C10.84880371 17.59471436 11.29916992 18.49020996 11.76318359 19.4128418 C13 22 13 22 13.85009766 24.76879883 C14.22956543 25.50509521 14.6090332 26.2413916 15 27 C17.36602016 27.74559324 17.36602016 27.74559324 20 28 C22.2800293 29.015625 22.2800293 29.015625 24.57421875 30.25 C25.40630859 30.6934375 26.23839844 31.136875 27.09570312 31.59375 C27.95099609 32.0578125 28.80628906 32.521875 29.6875 33 C30.55439453 33.4640625 31.42128906 33.928125 32.31445312 34.40625 C33.91395649 35.26263779 35.51201808 36.12172778 37.1081543 36.984375 C38.39534136 37.67539296 39.69329228 38.34664614 41 39 C41 39.66 41 40.32 41 41 C40.11477661 41.43868408 40.11477661 41.43868408 39.21166992 41.88623047 C36.53589716 43.21371706 33.86168684 44.5443217 31.1875 45.875 C30.25873047 46.33519531 29.32996094 46.79539063 28.37304688 47.26953125 C27.48037109 47.71425781 26.58769531 48.15898437 25.66796875 48.6171875 C24.84578857 49.02565918 24.0236084 49.43413086 23.17651367 49.85498047 C20.80922565 51.05241571 20.80922565 51.05241571 18 53 C17.01 53 16.02 53 15 53 C14.72365723 53.71567139 14.44731445 54.43134277 14.16259766 55.16870117 C13.01979109 57.95180233 11.74996205 60.61344756 10.3984375 63.30078125 C9.90859375 64.27724609 9.41875 65.25371094 8.9140625 66.25976562 C8.15222656 67.77086914 8.15222656 67.77086914 7.375 69.3125 C6.859375 70.33923828 6.34375 71.36597656 5.8125 72.42382812 C4.54347219 74.95013349 3.27258234 77.47548382 2 80 C1.34 80 0.68 80 0 80 C-0.25765137 79.28046143 -0.51530273 78.56092285 -0.78076172 77.81958008 C-6.59156892 62.39365268 -11.67146376 52.8046277 -26.8125 45.875 C-30.83386165 44.11964372 -34.86914124 42.47917213 -39 41 C-39 40.34 -39 39.68 -39 39 C-37.92069214 38.61352295 -37.92069214 38.61352295 -36.81958008 38.21923828 C-21.39365268 32.40843108 -11.8046277 27.32853624 -4.875 12.1875 C-3.11964372 8.16613835 -1.47917213 4.13085876 0 0 Z " fill="#FF9C00" transform="translate(463,160)"/>
<path d="M0 0 C0.66 0 1.32 0 2 0 C3.79498186 3.56083895 5.58539784 7.12395469 7.375 10.6875 C7.88289063 11.69490234 8.39078125 12.70230469 8.9140625 13.74023438 C9.64882812 15.20493164 9.64882812 15.20493164 10.3984375 16.69921875 C10.84880371 17.59471436 11.29916992 18.49020996 11.76318359 19.4128418 C13 22 13 22 13.85009766 24.76879883 C14.22956543 25.50509521 14.6090332 26.2413916 15 27 C17.36602016 27.74559324 17.36602016 27.74559324 20 28 C22.2800293 29.015625 22.2800293 29.015625 24.57421875 30.25 C25.40630859 30.6934375 26.23839844 31.136875 27.09570312 31.59375 C27.95099609 32.0578125 28.80628906 32.521875 29.6875 33 C30.55439453 33.4640625 31.42128906 33.928125 32.31445312 34.40625 C33.91395649 35.26263779 35.51201808 36.12172778 37.1081543 36.984375 C38.39534136 37.67539296 39.69329228 38.34664614 41 39 C41 39.66 41 40.32 41 41 C40.11477661 41.43868408 40.11477661 41.43868408 39.21166992 41.88623047 C36.53589716 43.21371706 33.86168684 44.5443217 31.1875 45.875 C30.25873047 46.33519531 29.32996094 46.79539063 28.37304688 47.26953125 C27.48037109 47.71425781 26.58769531 48.15898438 25.66796875 48.6171875 C24.84578857 49.02565918 24.0236084 49.43413086 23.17651367 49.85498047 C20.80922565 51.05241571 20.80922565 51.05241571 18 53 C17.01 53 16.02 53 15 53 C14.72365723 53.71567139 14.44731445 54.43134277 14.16259766 55.16870117 C13.01979109 57.95180233 11.74996205 60.61344756 10.3984375 63.30078125 C9.90859375 64.27724609 9.41875 65.25371094 8.9140625 66.25976562 C8.15222656 67.77086914 8.15222656 67.77086914 7.375 69.3125 C6.859375 70.33923828 6.34375 71.36597656 5.8125 72.42382812 C4.54347219 74.95013349 3.27258234 77.47548382 2 80 C1.34 80 0.68 80 0 80 C-0.25765137 79.28046143 -0.51530273 78.56092285 -0.78076172 77.81958008 C-6.59156892 62.39365268 -11.67146376 52.8046277 -26.8125 45.875 C-30.83386165 44.11964372 -34.86914124 42.47917213 -39 41 C-39 40.34 -39 39.68 -39 39 C-37.92069214 38.61352295 -37.92069214 38.61352295 -36.81958008 38.21923828 C-21.39365268 32.40843108 -11.8046277 27.32853624 -4.875 12.1875 C-3.11964372 8.16613835 -1.47917213 4.13085876 0 0 Z " fill="#FF9C00" transform="translate(47,64)"/>
<path d="M0 0 C0.33 0 0.66 0 1 0 C1.75401003 12.26522978 0.53667024 21.7583719 -7.4375 31.6875 C-19.67054825 44.35662314 -37.24960056 50.95618039 -54 55 C-55.20140625 55.30035156 -56.4028125 55.60070312 -57.640625 55.91015625 C-75.80710235 60.00622418 -95.4038281 59.10890752 -113.6875 56.3125 C-114.68330078 56.16417725 -115.67910156 56.01585449 -116.70507812 55.86303711 C-124.40391809 54.52202916 -132.61331692 52.12839958 -137.9375 46.0625 C-141.50656841 40.76297418 -143.16938109 37.41865181 -143 31 C-141.86304688 31.39832031 -140.72609375 31.79664063 -139.5546875 32.20703125 C-104.31649507 44.36698607 -63.5454191 45.98137761 -29 30 C-16.73091529 23.8293721 -5.62201234 15.65869956 -0.6875 2.5 C-0.3471875 1.2625 -0.3471875 1.2625 0 0 Z " fill="#FEC950" transform="translate(503,430)"/>
<path d="M0 0 C0.33 0 0.66 0 1 0 C1.75401003 12.26522978 0.53667024 21.7583719 -7.4375 31.6875 C-19.67054825 44.35662314 -37.24960056 50.95618039 -54 55 C-55.20140625 55.30035156 -56.4028125 55.60070312 -57.640625 55.91015625 C-75.80710235 60.00622418 -95.4038281 59.10890752 -113.6875 56.3125 C-114.68330078 56.16417725 -115.67910156 56.01585449 -116.70507812 55.86303711 C-124.38295856 54.52567996 -132.57706349 52.12197593 -137.9375 46.125 C-141.2513863 41.10396015 -143.1960222 37.03542038 -143 31 C-141.86304688 31.39832031 -140.72609375 31.79664063 -139.5546875 32.20703125 C-123.46436061 37.7594627 -108.17724675 41.18734592 -91.05126953 41.18530273 C-89.03265498 41.18746502 -87.01461024 41.20559472 -84.99609375 41.22460938 C-72.57946394 41.24281558 -60.44976771 40.04037477 -48.4375 36.75 C-47.63940918 36.53311523 -46.84131836 36.31623047 -46.01904297 36.09277344 C-29.89760659 31.55125079 -12.54489993 23.90758265 -3.73046875 8.828125 C-2.23044491 5.9234852 -1.0347818 3.10434539 0 0 Z " fill="#FEC950" transform="translate(503,366)"/>
<path d="M0 0 C2.5 1.5 2.5 1.5 4 4 C4.77403846 9.41826923 4.77403846 9.41826923 4 12 C0.02716807 16.5009923 -4.5807252 19.5716439 -9.6015625 22.8125 C-10.88197922 23.65010864 -10.88197922 23.65010864 -12.18826294 24.50463867 C-14.03366731 25.71132017 -15.88076537 26.91541463 -17.72937012 28.1171875 C-22.67964097 31.33598003 -27.61703483 34.57439667 -32.5546875 37.8125 C-34.08494568 38.81531006 -34.08494568 38.81531006 -35.64611816 39.83837891 C-48.59513447 48.33808986 -61.41534935 57.02838454 -74.23681641 65.71875 C-75.10273407 66.30503174 -75.96865173 66.89131348 -76.86080933 67.49536133 C-78.46196078 68.57973159 -80.06224156 69.66538925 -81.66140747 70.75268555 C-83.76726468 72.17931476 -85.88090893 73.59311689 -88 75 C-88.71418091 75.47896729 -89.42836182 75.95793457 -90.16418457 76.45141602 C-91.20874817 77.13288696 -91.20874817 77.13288696 -92.27441406 77.828125 C-93.19725189 78.43575684 -93.19725189 78.43575684 -94.13873291 79.05566406 C-97.61772633 80.82077264 -100.16312215 80.57553168 -104 80 C-106.5 78.5 -106.5 78.5 -108 76 C-108.77403846 70.58173077 -108.77403846 70.58173077 -108 68 C-104.02716807 63.4990077 -99.4192748 60.4283561 -94.3984375 57.1875 C-93.54482635 56.62909424 -92.69121521 56.07068848 -91.81173706 55.49536133 C-89.96633269 54.28867983 -88.11923463 53.08458537 -86.27062988 51.8828125 C-81.32035903 48.66401997 -76.38296517 45.42560333 -71.4453125 42.1875 C-69.91505432 41.18468994 -69.91505432 41.18468994 -68.35388184 40.16162109 C-55.40486553 31.66191014 -42.58465065 22.97161546 -29.76318359 14.28125 C-28.89726593 13.69496826 -28.03134827 13.10868652 -27.13919067 12.50463867 C-25.53803922 11.42026841 -23.93775844 10.33461075 -22.33859253 9.24731445 C-20.23273532 7.82068524 -18.11909107 6.40688311 -16 5 C-15.28581909 4.52103271 -14.57163818 4.04206543 -13.83581543 3.54858398 C-13.1394397 3.09427002 -12.44306396 2.63995605 -11.72558594 2.171875 C-11.11036072 1.76678711 -10.4951355 1.36169922 -9.86126709 0.94433594 C-6.38227367 -0.82077264 -3.83687785 -0.57553168 0 0 Z " fill="#FFC607" transform="translate(452,32)"/>
<path d="M0 0 C3.21583992 1.41574798 6.0098083 3.33057873 8.89453125 5.32421875 C10.16830879 6.17223557 10.16830879 6.17223557 11.46781921 7.03738403 C14.26141265 8.9034843 17.03665922 10.79511572 19.8125 12.6875 C21.75933501 13.99534529 23.70726903 15.30155599 25.65625 16.60620117 C30.75460973 20.02537207 35.83787801 23.46632947 40.91802979 26.91247559 C45.95112007 30.32156072 50.99748811 33.71085488 56.04296875 37.1015625 C64.16462764 42.56286363 72.27866169 48.03523875 80.37846375 53.52891541 C83.85182334 55.88250315 87.3299528 58.22606214 90.83984375 60.52490234 C91.93425781 61.24242676 93.02867187 61.95995117 94.15625 62.69921875 C95.08244141 63.29951904 96.00863281 63.89981934 96.96289062 64.51831055 C99 66 99 66 100 68 C100.56872038 75.0521327 100.56872038 75.0521327 98.5 78.5 C95.00899704 80.59460178 91.92271029 80.66073727 88 80 C84.78416008 78.58425202 81.9901917 76.66942127 79.10546875 74.67578125 C78.25628372 74.11043671 77.40709869 73.54509216 76.53218079 72.96261597 C73.73858735 71.0965157 70.96334078 69.20488428 68.1875 67.3125 C66.24066499 66.00465471 64.29273097 64.69844401 62.34375 63.39379883 C57.24539027 59.97462793 52.16212199 56.53367053 47.08197021 53.08752441 C42.04887993 49.67843928 37.00251189 46.28914512 31.95703125 42.8984375 C23.83537236 37.43713637 15.72133831 31.96476125 7.62153625 26.47108459 C4.14817666 24.11749685 0.6700472 21.77393786 -2.83984375 19.47509766 C-3.93425781 18.75757324 -5.02867188 18.04004883 -6.15625 17.30078125 C-7.08244141 16.70048096 -8.00863281 16.10018066 -8.96289062 15.48168945 C-11 14 -11 14 -12 12 C-12.56872038 4.9478673 -12.56872038 4.9478673 -10.5 1.5 C-7.00899704 -0.59460178 -3.92271029 -0.66073727 0 0 Z " fill="#FFC507" transform="translate(68,32)"/>
<path d="M0 0 C0 0.66 0 1.32 0 2 C-19.64921076 7.13672261 -38.35755102 9.1870162 -58.66040039 9.18530273 C-61.53221748 9.18747707 -64.40364173 9.20565637 -67.27539062 9.22460938 C-83.32163097 9.27530703 -99.10505618 8.4762706 -114.6875 4.375 C-115.60337891 4.14554688 -116.51925781 3.91609375 -117.46289062 3.6796875 C-119.64515097 3.13126605 -121.82376038 2.57174889 -124 2 C-123 0 -123 0 -121.08398438 -0.7746582 C-82.94083196 -11.70528904 -38.04443314 -10.83136651 0 0 Z " fill="#C97C0F" transform="translate(318,31)"/>
<path d="M0 0 C26.36452415 12.48845881 26.36452415 12.48845881 31.1484375 23.1953125 C33.32921886 30.37788597 33.06635799 37.51219879 30 44.375 C26.33991347 50.69790229 21.49401762 55.31610812 14.625 57.9375 C10 59 10 59 0 59 C0 39.53 0 20.06 0 0 Z " fill="#FFC508" transform="translate(264,333)"/>
<path d="M0 0 C0 19.47 0 38.94 0 59 C-26.61648244 46.39219253 -26.61648244 46.39219253 -31 35 C-33.16179609 28.51461172 -32.51405679 21.50616271 -30.09375 15.1640625 C-23.65593526 2.4263862 -13.79756625 0 0 0 Z " fill="#FFC608" transform="translate(248,248)"/>
<path d="M0 0 C1 2 1 2 0.2578125 4.2421875 C-0.11601562 5.11101562 -0.48984375 5.97984375 -0.875 6.875 C-5.33480503 17.32279501 -5.00220923 27.05735089 -1.32421875 37.8203125 C4.50465361 51.81648388 13.58040977 57.57106098 26.6875 64.1875 C28.71291034 65.22134323 30.73767316 66.25645619 32.76171875 67.29296875 C34.091427 67.96622192 34.091427 67.96622192 35.44799805 68.65307617 C36.71123901 69.31980347 36.71123901 69.31980347 38 70 C38.86592773 70.38890411 39.73185547 70.77780823 40.62402344 71.17849731 C43 73 43 73 43.60127258 75.90434265 C43.59016953 77.08792862 43.57906647 78.27151459 43.56762695 79.4909668 C43.56835709 80.1448941 43.56908722 80.79882141 43.56983948 81.4725647 C43.56635811 83.63229579 43.52747859 85.789865 43.48828125 87.94921875 C43.47895489 89.44707562 43.47183794 90.94494774 43.46684265 92.44282532 C43.44775833 96.38386196 43.39864687 100.32397611 43.34332275 104.26464844 C43.29216017 108.28633138 43.26933511 112.3081635 43.24414062 116.33007812 C43.19052804 124.22047527 43.10519963 132.11012286 43 140 C40.36 140 37.72 140 35 140 C34.67 120.53 34.34 101.06 34 81 C25.42 76.71 16.84 72.42 8 68 C-2.32138591 59.74289127 -10.22676976 52.09489783 -13 39 C-14.35437029 25.1770455 -11.64779177 14.06917346 -3 3 C-2.01952351 1.98085043 -1.02553194 0.97379887 0 0 Z " fill="#FFAA00" transform="translate(205,252)"/>
<path d="M0 0 C2.5 1.5 2.5 1.5 4 4 C4.73181032 7.99169267 5.09384283 10.41285839 2.75386047 13.80812073 C2.20255966 14.40970505 1.65125885 15.01128937 1.08325195 15.63110352 C0.44650543 16.3270462 -0.19024109 17.02298889 -0.84628296 17.74002075 C-4.8457359 21.93680263 -8.91568249 26.05774396 -13.01953125 30.15234375 C-13.96895157 31.10243935 -14.91822354 32.0526832 -15.86735535 33.00306702 C-17.83988497 34.97705877 -19.81418139 36.94926086 -21.78979492 38.92016602 C-24.32297661 41.447604 -26.85157828 43.9795695 -29.37891102 46.51285458 C-31.33044808 48.46799755 -33.28435093 50.42076218 -35.23898888 52.37280464 C-36.62631865 53.75914415 -38.01163665 55.14749591 -39.39692688 56.53587341 C-40.23507431 57.37086868 -41.07322174 58.20586395 -41.93676758 59.06616211 C-42.6751033 59.80370224 -43.41343903 60.54124237 -44.17414856 61.3011322 C-47.27961343 64.19061935 -49.79964003 64.3540072 -54.0234375 64.26953125 C-56 64 -56 64 -58.5 62.5 C-60.19444081 59.67593198 -60.7525612 57.42094235 -60.5690155 54.11756897 C-59.87828014 51.5470243 -58.87792379 50.32725826 -57.08325195 48.36889648 C-56.44650543 47.6729538 -55.80975891 46.97701111 -55.15371704 46.25997925 C-51.1542641 42.06319737 -47.08431751 37.94225604 -42.98046875 33.84765625 C-42.03104843 32.89756065 -41.08177646 31.9473168 -40.13264465 30.99693298 C-38.16011503 29.02294123 -36.18581861 27.05073914 -34.21020508 25.07983398 C-31.67702339 22.552396 -29.14842172 20.0204305 -26.62108898 17.48714542 C-24.66955192 15.53200245 -22.71564907 13.57923782 -20.76101112 11.62719536 C-19.37368135 10.24085585 -17.98836335 8.85250409 -16.60307312 7.46412659 C-15.34585197 6.21163368 -15.34585197 6.21163368 -14.06323242 4.93383789 C-13.3248967 4.19629776 -12.58656097 3.45875763 -11.82585144 2.6988678 C-8.312365 -0.57026398 -4.61239762 -0.62896331 0 0 Z " fill="#FFC607" transform="translate(404,0)"/>
<path d="M0 0 C2.57054467 0.69073536 3.79031071 1.69109171 5.74867249 3.48576355 C6.44461517 4.12251007 7.14055786 4.75925659 7.85758972 5.41529846 C12.0543716 9.41475141 16.17531293 13.484698 20.26991272 17.58854675 C21.22000832 18.53796707 22.17025217 19.48723904 23.12063599 20.43637085 C25.09462774 22.40890047 27.06682983 24.38319689 29.03773499 26.35881042 C31.56517296 28.89199212 34.09713847 31.42059378 36.63042355 33.94792652 C38.58556652 35.89946359 40.53833115 37.85336643 42.49037361 39.80800438 C43.87671312 41.19533415 45.26506488 42.58065216 46.65344238 43.96594238 C47.90593529 45.22316353 47.90593529 45.22316353 49.18373108 46.50578308 C49.92127121 47.2441188 50.65881134 47.98245453 51.41870117 48.74316406 C54.30818832 51.84862894 54.47157617 54.36865553 54.38710022 58.592453 C54.11756897 60.5690155 54.11756897 60.5690155 52.61756897 63.0690155 C49.79350095 64.76345631 47.53851132 65.3215767 44.23513794 65.13803101 C41.66459327 64.44729564 40.44482723 63.44693929 38.48646545 61.65226746 C37.79052277 61.01552094 37.09458008 60.37877441 36.37754822 59.72273254 C32.18076633 55.7232796 28.05982501 51.65333301 23.96522522 47.54948425 C23.01512962 46.60006394 22.06488577 45.65079196 21.11450195 44.70166016 C19.1405102 42.72913053 17.16830811 40.75483412 15.19740295 38.77922058 C12.66996497 36.24603889 10.13799947 33.71743723 7.60471439 31.19010448 C5.64957142 29.23856742 3.69680679 27.28466458 1.74476433 25.33002663 C0.35842482 23.94269686 -1.02992694 22.55737885 -2.41830444 21.17208862 C-3.25329971 20.33394119 -4.08829498 19.49579376 -4.94859314 18.63224792 C-5.68613327 17.8939122 -6.4236734 17.15557648 -7.18356323 16.39486694 C-10.07305038 13.28940207 -10.23643823 10.76937547 -10.15196228 6.545578 C-9.88243103 4.5690155 -9.88243103 4.5690155 -8.38243103 2.0690155 C-5.55836301 0.37457469 -3.30337338 -0.18354569 0 0 Z " fill="#FFC607" transform="translate(113.88243103027344,-0.5690155029296875)"/>
<path d="M0 0 C0.5775 0.78375 1.155 1.5675 1.75 2.375 C4.46269489 5.53981071 6.29429127 6.82560477 10.46163082 7.25168228 C11.85117143 7.25281336 11.85117143 7.25281336 13.26878357 7.25396729 C14.8690892 7.26242676 14.8690892 7.26242676 16.50172424 7.27105713 C17.66703171 7.26700867 18.83233917 7.26296021 20.03295898 7.25878906 C21.26421509 7.2622937 22.49547119 7.26579834 23.76403809 7.26940918 C27.1380826 7.27670393 30.51188187 7.27499301 33.88591266 7.26865101 C37.418986 7.26358457 40.95204892 7.26828436 44.48512268 7.27142334 C50.41921874 7.27506158 56.35326501 7.27026812 62.28735352 7.26074219 C69.14358751 7.2498629 75.99970251 7.25337992 82.85593361 7.264395 C88.7456506 7.27347791 94.63533182 7.27474809 100.52505356 7.26951766 C104.04129839 7.26640283 107.55748734 7.26597511 111.07372856 7.27259064 C114.99508139 7.27945296 118.91630152 7.26993489 122.83764648 7.25878906 C124.00092972 7.26283752 125.16421295 7.26688599 126.36274719 7.27105713 C127.43243744 7.26541748 128.50212769 7.25977783 129.60423279 7.25396729 C130.53097022 7.25321323 131.45770765 7.25245918 132.41252804 7.25168228 C136.86424516 6.81866568 139.35016085 5.73765525 142.3125 2.375 C142.869375 1.59125 143.42625 0.8075 144 0 C144.05447047 1.41623216 144.09300508 2.83308191 144.125 4.25 C144.14820313 5.03890625 144.17140625 5.8278125 144.1953125 6.640625 C143.97138484 9.34567109 143.54275343 10.76439323 142 13 C138.38903204 15.57290763 135.90855103 16.37568507 131.49707031 16.38095093 C129.85683899 16.39364014 129.85683899 16.39364014 128.18347168 16.40658569 C126.99370728 16.400513 125.80394287 16.39444031 124.578125 16.38818359 C122.68713074 16.39606903 122.68713074 16.39606903 120.75793457 16.40411377 C117.3075034 16.41776825 113.8573419 16.41249661 110.40690613 16.40297651 C106.79242233 16.39537016 103.17796129 16.40242823 99.56347656 16.40713501 C93.49409855 16.41258973 87.42483012 16.40540844 81.35546875 16.39111328 C74.34295494 16.37478723 67.33070281 16.38007595 60.31819534 16.3965925 C54.2925658 16.41021549 48.26701494 16.41212307 42.24137497 16.40427649 C38.64463767 16.39960442 35.0480233 16.39896222 31.45129395 16.40888596 C27.4413305 16.41917743 23.43181673 16.40490503 19.421875 16.38818359 C18.2321106 16.39425629 17.04234619 16.40032898 15.81652832 16.40658569 C14.72304077 16.39812622 13.62955322 16.38966675 12.50292969 16.38095093 C11.55536804 16.37981985 10.6078064 16.37868877 9.63153076 16.37752342 C6.47238733 15.92430788 4.5843095 14.84138704 2 13 C-0.018168 10.07546913 -0.22807907 7.75468824 -0.125 4.25 C-0.10695312 3.45078125 -0.08890625 2.6515625 -0.0703125 1.828125 C-0.04710937 1.22484375 -0.02390625 0.6215625 0 0 Z " fill="#7D0026" transform="translate(184,128)"/>
<path d="M0 0 C0.5775 0.78375 1.155 1.5675 1.75 2.375 C4.46269489 5.53981071 6.29429127 6.82560477 10.46163082 7.25168228 C11.85117143 7.25281336 11.85117143 7.25281336 13.26878357 7.25396729 C14.8690892 7.26242676 14.8690892 7.26242676 16.50172424 7.27105713 C17.66703171 7.26700867 18.83233917 7.26296021 20.03295898 7.25878906 C21.26421509 7.2622937 22.49547119 7.26579834 23.76403809 7.26940918 C27.1380826 7.27670393 30.51188187 7.27499301 33.88591266 7.26865101 C37.418986 7.26358457 40.95204892 7.26828436 44.48512268 7.27142334 C50.41921874 7.27506158 56.35326501 7.27026812 62.28735352 7.26074219 C69.14358751 7.2498629 75.99970251 7.25337992 82.85593361 7.264395 C88.7456506 7.27347791 94.63533182 7.27474809 100.52505356 7.26951766 C104.04129839 7.26640283 107.55748734 7.26597511 111.07372856 7.27259064 C114.99508139 7.27945296 118.91630152 7.26993489 122.83764648 7.25878906 C124.00092972 7.26283752 125.16421295 7.26688599 126.36274719 7.27105713 C127.43243744 7.26541748 128.50212769 7.25977783 129.60423279 7.25396729 C130.53097022 7.25321323 131.45770765 7.25245918 132.41252804 7.25168228 C136.86424516 6.81866568 139.35016085 5.73765525 142.3125 2.375 C142.869375 1.59125 143.42625 0.8075 144 0 C144.05447047 1.41623216 144.09300508 2.83308191 144.125 4.25 C144.14820313 5.03890625 144.17140625 5.8278125 144.1953125 6.640625 C143.97138484 9.34567109 143.54275343 10.76439323 142 13 C138.38903204 15.57290763 135.90855103 16.37568507 131.49707031 16.38095093 C129.85683899 16.39364014 129.85683899 16.39364014 128.18347168 16.40658569 C126.99370728 16.400513 125.80394287 16.39444031 124.578125 16.38818359 C122.68713074 16.39606903 122.68713074 16.39606903 120.75793457 16.40411377 C117.3075034 16.41776825 113.8573419 16.41249661 110.40690613 16.40297651 C106.79242233 16.39537016 103.17796129 16.40242823 99.56347656 16.40713501 C93.49409855 16.41258973 87.42483012 16.40540844 81.35546875 16.39111328 C74.34295494 16.37478723 67.33070281 16.38007595 60.31819534 16.3965925 C54.2925658 16.41021549 48.26701494 16.41212307 42.24137497 16.40427649 C38.64463767 16.39960442 35.0480233 16.39896222 31.45129395 16.40888596 C27.4413305 16.41917743 23.43181673 16.40490503 19.421875 16.38818359 C18.2321106 16.39425629 17.04234619 16.40032898 15.81652832 16.40658569 C14.72304077 16.39812622 13.62955322 16.38966675 12.50292969 16.38095093 C11.55536804 16.37981985 10.6078064 16.37868877 9.63153076 16.37752342 C6.47238733 15.92430788 4.5843095 14.84138704 2 13 C-0.018168 10.07546913 -0.22807907 7.75468824 -0.125 4.25 C-0.10695312 3.45078125 -0.08890625 2.6515625 -0.0703125 1.828125 C-0.04710937 1.22484375 -0.02390625 0.6215625 0 0 Z " fill="#7D0026" transform="translate(184,104)"/>
<path d="M0 0 C2.64 0 5.28 0 8 0 C8.06058594 0.67546875 8.12117187 1.3509375 8.18359375 2.046875 C8.26738281 2.93890625 8.35117188 3.8309375 8.4375 4.75 C8.55931641 6.07257813 8.55931641 6.07257813 8.68359375 7.421875 C9.07331695 10.77652896 9.07331695 10.77652896 10 14 C12.73562834 14.91187611 14.46145475 15.14730259 17.2878418 15.20532227 C18.14850754 15.22526749 19.00917328 15.24521271 19.8959198 15.26576233 C21.28355278 15.29083107 21.28355278 15.29083107 22.69921875 15.31640625 C23.64940384 15.33718735 24.59958893 15.35796844 25.5785675 15.37937927 C28.61480456 15.44478052 31.65112831 15.50371604 34.6875 15.5625 C36.74545169 15.60569417 38.80339459 15.64930876 40.86132812 15.69335938 C45.90746316 15.80045231 50.95368543 15.90174646 56 16 C56 21.28 56 26.56 56 32 C58.64 32 61.28 32 64 32 C64 34.64 64 37.28 64 40 C62.48170109 40.22606463 60.96008182 40.42985539 59.4375 40.625 C58.59058594 40.74101562 57.74367187 40.85703125 56.87109375 40.9765625 C53.23502835 41.00624467 50.46409382 40.12010472 47 39 C46.25177979 38.76571289 45.50355957 38.53142578 44.73266602 38.29003906 C34.68010296 35.12536185 24.80204345 31.75925763 15.23852539 27.30981445 C12.23557711 25.92097643 9.46128289 24.86392073 6.2421875 24.05078125 C3 23 3 23 1.07421875 21.484375 C-0.65208604 17.49190282 -0.31116371 13.54335031 -0.1875 9.25 C-0.17396484 8.36183594 -0.16042969 7.47367187 -0.14648438 6.55859375 C-0.11121309 4.37177422 -0.06192752 2.18620034 0 0 Z " fill="#FFAA00" transform="translate(192,392)"/>
<path d="M0 0 C3.93443272 3.40936218 7.14551217 6.71294608 7.9375 12 C7.958125 12.99 7.97875 13.98 8 15 C5.06337488 13.66688539 3.57815937 12.58753361 1.1875 10.25 C-14.40054539 -3.25743764 -39.71410649 -2.98997446 -59 -2 C-63.42021136 -1.60455366 -67.66756436 -0.94883921 -72 0 C-73.49660156 0.29197266 -73.49660156 0.29197266 -75.0234375 0.58984375 C-85.62122151 2.89193308 -94.6778391 6.90708532 -102 15 C-102.66 15 -103.32 15 -104 15 C-103.87977023 9.22897081 -102.24177428 6.08741863 -98.2578125 1.91796875 C-75.16388789 -17.69988071 -24.19664627 -16.01809508 0 0 Z " fill="#CA7E12" transform="translate(464,315)"/>
<path d="M0 0 C25.93635415 11.53017357 25.93635415 11.53017357 31.1484375 23.1953125 C33.38124591 30.54924112 33.04289112 37.61879482 29.75 44.5625 C27.88144836 47.81790867 26.02773225 50.70309967 23 53 C22.34 53 21.68 53 21 53 C21.33 51.865625 21.66 50.73125 22 49.5625 C23.92919826 41.67915746 23.63044488 34.35263385 20 27 C15.23826991 19.321174 7.89950986 15.8012679 0 12 C0 8.04 0 4.08 0 0 Z " fill="#FFAB01" transform="translate(264,333)"/>
<path d="M0 0 C0 19.47 0 38.94 0 59 C-2.64 57.68 -5.28 56.36 -8 55 C-8 39.49 -8 23.98 -8 8 C-17.06024062 9.19247296 -17.06024062 9.19247296 -26 11 C-24.55366256 7.39588346 -22.80863332 5.88597432 -19.5625 3.8125 C-18.78003906 3.30332031 -17.99757812 2.79414063 -17.19140625 2.26953125 C-11.14073991 -1.23575674 -8.3035257 0 0 0 Z " fill="#FFAA00" transform="translate(248,248)"/>
<path d="M0 0 C12.21 0 24.42 0 37 0 C37 4.62 37 9.24 37 14 C31.64575019 13.40586001 26.93120743 12.14657455 21.875 10.3125 C21.141604 10.05065918 20.40820801 9.78881836 19.65258789 9.51904297 C12.91363745 7.0638628 6.4405915 4.15869009 0 1 C0 0.67 0 0.34 0 0 Z " fill="#FFC507" transform="translate(203,416)"/>
<path d="M0 0 C6.38620288 6.99441268 7.36322501 17.93654905 7.2890625 26.984375 C6.60154609 34.15684347 3.97379733 41.01208622 0 47 C-0.33 47 -0.66 47 -1 47 C-1.02469492 40.78865856 -1.04285758 34.57734562 -1.05493164 28.3659668 C-1.05996444 26.25235496 -1.0667912 24.13874662 -1.07543945 22.02514648 C-1.08755104 18.98941182 -1.09323881 15.95372314 -1.09765625 12.91796875 C-1.10281754 11.97100632 -1.10797882 11.02404388 -1.11329651 10.04838562 C-1.11337204 9.16769913 -1.11344757 8.28701263 -1.11352539 7.37963867 C-1.115746 6.60464523 -1.11796661 5.82965179 -1.12025452 5.03117371 C-1 3 -1 3 0 0 Z " fill="#FEBF4F" transform="translate(305,342)"/>
<path d="M0 0 C5.28 0 10.56 0 16 0 C16 2.64 16 5.28 16 8 C18.64 8 21.28 8 24 8 C24 10.64 24 13.28 24 16 C18.72 16 13.44 16 8 16 C8 13.36 8 10.72 8 8 C5.36 8 2.72 8 0 8 C0 5.36 0 2.72 0 0 Z " fill="#FFAA00" transform="translate(264,248)"/>
<path d="M0 0 C0.66 0.33 1.32 0.66 2 1 C-5.73952733 8.89887054 -14.91158836 13.36028394 -26 14 C-26 11.36 -26 8.72 -26 6 C-24.06447266 5.72736328 -24.06447266 5.72736328 -22.08984375 5.44921875 C-20.37232179 5.19581387 -18.65487789 4.94187948 -16.9375 4.6875 C-15.66616211 4.51057617 -15.66616211 4.51057617 -14.36914062 4.33007812 C-10.3302701 3.72190843 -6.7346901 3.03153533 -3.00390625 1.33203125 C-1.51697266 0.67267578 -1.51697266 0.67267578 0 0 Z " fill="#FFAC02" transform="translate(290,402)"/>
<path d="M0 0 C2.64 0 5.28 0 8 0 C8 2.64 8 5.28 8 8 C5.36 8 2.72 8 0 8 C0 5.36 0 2.72 0 0 Z " fill="#FFAA00" transform="translate(240,224)"/>
</svg>
