<?xml version="1.0" encoding="UTF-8"?>
<svg version="1.1" xmlns="http://www.w3.org/2000/svg" width="512" height="512">
<path d="M0 0 C1.30831787 -0.00137466 2.61663574 -0.00274933 3.96459961 -0.00416565 C5.41770958 -0.00062648 6.87081932 0.00300833 8.32392883 0.00672913 C9.8514455 0.00701115 11.3789623 0.00685297 12.90647888 0.00628662 C17.05700714 0.00599923 21.20750661 0.01188665 25.35802817 0.01886058 C29.69421986 0.02510371 34.03041218 0.02569868 38.36660767 0.02688599 C46.57947695 0.02999646 54.79233296 0.03820605 63.00519639 0.04823548 C72.35454212 0.05940539 81.70388848 0.06490928 91.05323923 0.06993091 C110.2871127 0.08038889 129.5209738 0.09798287 148.75483704 0.12025452 C148.75483704 2.43025452 148.75483704 4.74025452 148.75483704 7.12025452 C153.37483704 7.12025452 157.99483704 7.12025452 162.75483704 7.12025452 C162.75483704 4.81025452 162.75483704 2.50025452 162.75483704 0.12025452 C182.82613761 0.05012443 202.89741327 -0.00275327 222.96881104 -0.035182 C232.28864135 -0.05064049 241.60839547 -0.07171055 250.92817688 -0.10606384 C259.05279212 -0.13599736 267.17735217 -0.15532789 275.30202103 -0.16201097 C279.60262639 -0.16591653 283.90307386 -0.17507392 288.20362854 -0.19693565 C292.25506154 -0.21736329 296.30627224 -0.22356665 300.35775185 -0.21906853 C301.84118166 -0.21989093 303.32461924 -0.22581918 304.80800438 -0.23736191 C317.17636863 -0.32884863 324.38079867 1.05002242 333.54780579 9.71009827 C339.33193806 16.02657545 340.8809434 22.6972229 340.87788486 31.12348652 C340.87987591 32.33521324 340.88186696 33.54693995 340.88391834 34.79538566 C340.88106551 36.13661106 340.87811992 37.47783626 340.87509155 38.81906128 C340.87552765 40.24643288 340.87640327 41.6738044 340.87768072 43.10117549 C340.87991807 47.02343194 340.87591475 50.94566111 340.87090266 54.86791408 C340.86658747 59.09758623 340.86804534 63.32725681 340.86880493 67.55693054 C340.86932949 74.88512347 340.86618981 82.2133075 340.86056709 89.54149818 C340.85244286 100.13685471 340.84983592 110.73220693 340.8485791 121.32756623 C340.84639004 138.51749797 340.83973389 155.70742496 340.83027649 172.89735413 C340.82109861 189.59657263 340.81401961 206.29578985 340.80976868 222.99501038 C340.80937459 224.53881016 340.80937459 224.53881016 340.80897254 226.11379782 C340.80766752 231.27694922 340.80640381 236.44010064 340.80516064 241.60325205 C340.79479256 284.44225616 340.77717819 327.28125509 340.75483704 370.12025452 C338.11483704 370.12025452 335.47483704 370.12025452 332.75483704 370.12025452 C332.75483704 374.74025452 332.75483704 379.36025452 332.75483704 384.12025452 C335.39483704 384.12025452 338.03483704 384.12025452 340.75483704 384.12025452 C340.82444438 397.3943164 340.87770294 410.66833463 340.91027355 423.94254208 C340.92590829 430.10674438 340.94710677 436.27082151 340.9811554 442.43495178 C341.01382664 448.38718453 341.03170654 454.33929711 341.03946877 460.29161263 C341.04499831 462.55892897 341.05579611 464.82623897 341.07202721 467.09350395 C341.09390435 470.27696153 341.09679962 473.45992684 341.09541321 476.64344788 C341.10619904 477.57421646 341.11698486 478.50498505 341.12809753 479.46395874 C341.08384306 488.89680734 338.68184659 497.01767224 332.00093079 503.93666077 C323.55147663 511.85699059 315.74105079 512.56202489 304.53288269 512.50120544 C303.19381521 512.50466585 301.85475059 512.50943298 300.51569188 512.51538718 C296.85116226 512.52787409 293.18686798 512.52173746 289.52233768 512.51242852 C285.5645737 512.50562899 281.60684963 512.51612365 277.64909363 512.52436829 C269.90238584 512.53769744 262.15576533 512.53483175 254.40905415 512.52613036 C248.11352216 512.51935199 241.8180146 512.51843776 235.52248001 512.52170181 C234.17787883 512.52239136 234.17787883 512.52239136 232.806114 512.52309484 C230.98505265 512.52405402 229.16399131 512.52502666 227.34292997 512.52601261 C210.27373966 512.53456386 193.20459771 512.52473603 176.13541533 512.50861152 C161.48883769 512.49520399 146.84233137 512.49754052 132.195755 512.5113678 C115.18405232 512.52742039 98.17239199 512.53374474 81.1606828 512.52453101 C79.34697605 512.52357536 77.53326929 512.52263225 75.71956253 512.52170181 C74.82719498 512.52123899 73.93482743 512.52077616 73.01541843 512.52029931 C66.72632671 512.5177088 60.43726185 512.52208163 54.14817429 512.52914047 C46.48565772 512.5375519 38.82323336 512.53528267 31.16072737 512.51929824 C27.2511124 512.51141141 23.3416512 512.50833096 19.43203735 512.5182457 C15.85321696 512.52718436 12.27469289 512.52227367 8.69589938 512.50631304 C6.78797171 512.50137409 4.88002348 512.51116908 2.9721173 512.52148473 C-7.30153927 512.45071071 -7.30153927 512.45071071 -12.24516296 509.12025452 C-13.11141296 508.54275452 -13.97766296 507.96525452 -14.87016296 507.37025452 C-19.66880806 502.82416969 -22.11205787 497.531981 -22.36936146 490.93682027 C-22.36898174 489.6655166 -22.36860202 488.39421294 -22.36821079 487.08438492 C-22.36936464 486.37234097 -22.37051848 485.66029702 -22.37170729 484.92667598 C-22.37436489 482.52855273 -22.36985881 480.13049594 -22.36541748 477.7323761 C-22.36585336 476.00063236 -22.36672857 474.26888869 -22.36800665 472.53714538 C-22.37024837 467.76891496 -22.36623469 463.0007069 -22.36122859 458.23247933 C-22.35691968 453.09412399 -22.35837082 447.95576997 -22.35913086 442.81741333 C-22.35965581 433.91168671 -22.35651198 425.0059674 -22.35089302 416.10024261 C-22.34277418 403.22397753 -22.3401624 390.34771599 -22.33890503 377.47144863 C-22.33671512 356.58175822 -22.33005667 335.69207171 -22.32060242 314.80238342 C-22.31142674 294.50713623 -22.30434666 274.21189009 -22.3000946 253.91664124 C-22.29983188 252.66614098 -22.29956916 251.41564073 -22.29929847 250.12724653 C-22.29799346 243.85400322 -22.29672974 237.5807599 -22.29548657 231.30751657 C-22.28511584 179.24509319 -22.26749917 127.18267404 -22.24516296 75.12025452 C-19.60516296 75.12025452 -16.96516296 75.12025452 -14.24516296 75.12025452 C-14.24516296 70.17025452 -14.24516296 65.22025452 -14.24516296 60.12025452 C-16.88516296 60.12025452 -19.52516296 60.12025452 -22.24516296 60.12025452 C-22.3196661 54.28532155 -22.3739316 48.45066934 -22.40995789 42.6153717 C-22.4249864 40.63290072 -22.44541494 38.65046266 -22.47148132 36.66810608 C-22.50812679 33.80832259 -22.524949 30.94898107 -22.53813171 28.08900452 C-22.55361557 27.21159607 -22.56909943 26.33418762 -22.58505249 25.43019104 C-22.58717321 17.56599481 -20.90054253 10.93721636 -15.24516296 5.12025452 C-9.96082235 1.23788182 -6.50207649 -0.00525633 0 0 Z " fill="#F1BFD6" transform="translate(44.24516296386719,-0.1202545166015625)"/>
<path d="M0 0 C20.07130417 -0.06949359 40.14257428 -0.12300778 60.213974 -0.15543652 C69.53380432 -0.17089501 78.85355844 -0.19196507 88.17333984 -0.22631836 C96.29795509 -0.25625188 104.42251513 -0.2755824 112.54718399 -0.28226548 C116.84778935 -0.28617105 121.14823682 -0.29532843 125.4487915 -0.31719017 C129.5002245 -0.33761781 133.5514352 -0.34382117 137.60291481 -0.33932304 C139.08634463 -0.34014544 140.56978221 -0.3460737 142.05316734 -0.35761642 C154.42153159 -0.44910314 161.62596163 0.9297679 170.79296875 9.58984375 C176.57710102 15.90632094 178.12610636 22.57696839 178.12304783 31.003232 C178.12503888 32.21495872 178.12702993 33.42668543 178.12908131 34.67513114 C178.12622848 36.01635654 178.12328288 37.35758175 178.12025452 38.69880676 C178.12069062 40.12617836 178.12156624 41.55354988 178.12284368 42.98092097 C178.12508103 46.90317742 178.12107772 50.82540659 178.11606562 54.74765956 C178.11175043 58.97733171 178.11320831 63.2070023 178.1139679 67.43667603 C178.11449245 74.76486895 178.11135277 82.09305298 178.10573006 89.42124367 C178.09760582 100.01660019 178.09499889 110.61195241 178.09374207 121.20731171 C178.091553 138.39724345 178.08489685 155.58717045 178.07543945 172.77709961 C178.06626158 189.47631812 178.05918258 206.17553534 178.05493164 222.87475586 C178.05453756 224.41855564 178.05453756 224.41855564 178.05413551 225.9935433 C178.05283048 231.15669471 178.05156677 236.31984612 178.05032361 241.48299754 C178.03995553 284.32200164 178.02234115 327.16100058 178 370 C175.36 370 172.72 370 170 370 C170 374.62 170 379.24 170 384 C172.64 384 175.28 384 178 384 C178.06960734 397.27406188 178.1228659 410.54808011 178.15543652 423.82228756 C178.17107125 429.98648986 178.19226973 436.15056699 178.22631836 442.31469727 C178.2589896 448.26693001 178.2768695 454.21904259 178.28463173 460.17135811 C178.29016127 462.43867445 178.30095908 464.70598445 178.31719017 466.97324944 C178.33906731 470.15670702 178.34196258 473.33967232 178.34057617 476.52319336 C178.351362 477.45396194 178.36214783 478.38473053 178.3732605 479.34370422 C178.32900603 488.77655282 175.92700955 496.89741772 169.24609375 503.81640625 C160.7966396 511.73673607 152.98621375 512.44177038 141.77804565 512.38095093 C140.43897818 512.38441133 139.09991355 512.38917846 137.76085484 512.39513266 C134.09632522 512.40761958 130.43203094 512.40148295 126.76750064 512.39217401 C122.80973666 512.38537448 118.85201259 512.39586913 114.89425659 512.40411377 C107.14754881 512.41744292 99.40092829 512.41457723 91.65421711 512.40587585 C85.35868512 512.39909747 79.06317757 512.39818324 72.76764297 512.4014473 C71.4230418 512.40213684 71.4230418 512.40213684 70.05127696 512.40284032 C68.23021561 512.40379951 66.40915427 512.40477215 64.58809294 512.4057581 C47.51890262 512.41430934 30.44976068 512.40448151 13.38057829 512.388357 C-1.26599935 512.37494947 -15.91250567 512.377286 -30.55908203 512.39111328 C-47.57078471 512.40716588 -64.58244504 512.41349022 -81.59415424 512.40427649 C-83.40786099 512.40332085 -85.22156774 512.40237773 -87.03527451 512.4014473 C-87.92764206 512.40098447 -88.82000961 512.40052164 -89.7394186 512.40004479 C-96.02851033 512.39745428 -102.31757519 512.40182711 -108.60666275 512.40888596 C-116.26917931 512.41729738 -123.93160368 512.41502815 -131.59410967 512.39904372 C-135.50372464 512.39115689 -139.41318584 512.38807645 -143.32279968 512.39799118 C-146.90162008 512.40692985 -150.48014414 512.40201915 -154.05893765 512.38605852 C-155.96686532 512.38111957 -157.87481356 512.39091457 -159.78271973 512.40123022 C-170.0563763 512.3304562 -170.0563763 512.3304562 -175 509 C-175.86625 508.4225 -176.7325 507.845 -177.625 507.25 C-182.42364509 502.70391518 -184.86689491 497.41172649 -185.1241985 490.81656575 C-185.12381878 489.54526209 -185.12343906 488.27395842 -185.12304783 486.9641304 C-185.12420167 486.25208645 -185.12535552 485.5400425 -185.12654433 484.80642146 C-185.12920193 482.40829822 -185.12469584 480.01024143 -185.12025452 477.61212158 C-185.12069039 475.88037785 -185.1215656 474.14863418 -185.12284368 472.41689086 C-185.12508541 467.64866044 -185.12107173 462.88045238 -185.11606562 458.11222482 C-185.11175672 452.97386948 -185.11320786 447.83551545 -185.1139679 442.69715881 C-185.11449285 433.79143219 -185.11134901 424.88571288 -185.10573006 415.9799881 C-185.09761122 403.10372302 -185.09499944 390.22746148 -185.09374207 377.35119411 C-185.09155215 356.46150371 -185.0848937 335.5718172 -185.07543945 314.68212891 C-185.06626377 294.38688171 -185.0591837 274.09163557 -185.05493164 253.79638672 C-185.05466892 252.54588647 -185.05440619 251.29538621 -185.05413551 250.00699201 C-185.05283049 243.7337487 -185.05156678 237.46050538 -185.05032361 231.18726206 C-185.03995288 179.12483865 -185.02226199 127.06241958 -185 75 C-179.72 75 -174.44 75 -169 75 C-168.99761165 76.84227078 -168.99522329 78.68454157 -168.99276257 80.58263874 C-168.93544891 124.27781352 -168.86275136 167.97294008 -168.77101372 211.66805677 C-168.75974505 217.0418065 -168.74860668 222.41555648 -168.73754883 227.78930664 C-168.73534514 228.8591598 -168.73314146 229.92901295 -168.730871 231.0312859 C-168.69546262 248.37247558 -168.6706185 265.71366521 -168.64965298 283.05487768 C-168.62791909 300.83792633 -168.59489174 318.62092792 -168.55129844 336.40393656 C-168.52474006 347.38410657 -168.50707556 358.36421788 -168.50065396 369.34441843 C-168.49541285 376.86574384 -168.47923909 384.3869953 -168.45433434 391.90828113 C-168.44027537 396.25288555 -168.43116483 400.59735747 -168.43499184 404.94198608 C-168.43838564 408.91511499 -168.42813302 412.88796017 -168.40676448 416.8610309 C-168.40146746 418.30251858 -168.40129194 419.74403551 -168.40660437 421.18552313 C-168.41306663 423.13696425 -168.39948794 425.08844159 -168.38476086 427.03983784 C-168.38286225 428.1262177 -168.38096365 429.21259757 -168.37900752 430.33189803 C-168.20173142 432.99980898 -168.20173142 432.99980898 -166.73035622 434.84846258 C-164.62359453 436.25049465 -163.4496859 436.37810437 -160.92953968 436.38476086 C-159.68184205 436.39894652 -159.68184205 436.39894652 -158.40893841 436.41341877 C-157.49578271 436.40857062 -156.58262701 436.40372248 -155.64179993 436.39872742 C-154.67377945 436.40536911 -153.70575897 436.4120108 -152.70840454 436.41885376 C-149.44001987 436.43760656 -146.17199722 436.43484962 -142.90356445 436.43237305 C-140.53027677 436.44147223 -138.15699382 436.45188368 -135.78371716 436.46350574 C-129.41288423 436.4910629 -123.04214198 436.50059632 -116.67125702 436.50647736 C-110.69887973 436.51469789 -104.72661167 436.53906465 -98.75427246 436.56213379 C-81.27372813 436.62019925 -63.79310523 436.65225063 -46.3125 436.6875 C-7.269375 436.790625 31.77375 436.89375 72 437 C72 297.74 72 158.48 72 15 C48.24 15 24.48 15 0 15 C0 10.05 0 5.1 0 0 Z " fill="#040303" transform="translate(207,0)"/>
<path d="M0 0 C0.85800705 -0.0066568 1.7160141 -0.0133136 2.60002136 -0.02017212 C4.40951404 -0.03026248 6.21904367 -0.03499026 8.02856445 -0.03466797 C10.77423523 -0.03903272 13.51828585 -0.07536631 16.26367188 -0.11328125 C18.02994248 -0.11915215 19.79622064 -0.12311972 21.5625 -0.125 C22.77701591 -0.14655655 22.77701591 -0.14655655 24.0160675 -0.16854858 C30.9562454 -0.11385394 36.92139913 1.81309878 42.3203125 6.265625 C42.84753906 6.90757813 43.37476563 7.54953125 43.91796875 8.2109375 C44.46324219 8.84773438 45.00851562 9.48453125 45.5703125 10.140625 C48.4531407 14.6285736 49.23050163 19.04198154 49.22656441 24.30604362 C49.2305465 25.48492743 49.2345286 26.66381124 49.23863137 27.8784188 C49.22989284 29.80740475 49.22989284 29.80740475 49.22097778 31.77536011 C49.22185029 33.16234736 49.2236021 34.54933429 49.22615612 35.93631947 C49.2306248 39.74233293 49.22263255 43.54823368 49.21259999 47.35423279 C49.2039609 51.4605051 49.20688598 55.56677108 49.20840454 59.67304993 C49.2094531 66.78569926 49.20317952 73.89831189 49.19192886 81.010952 C49.17567292 91.29462321 49.17046576 101.57827668 49.16795288 111.86195935 C49.16357593 128.54665484 49.15026681 145.23133076 49.13134766 161.91601562 C49.11298887 178.1233714 49.09883235 194.33072186 49.09033203 210.53808594 C49.08980658 211.53715312 49.08928114 212.53622029 49.08873977 213.56556223 C49.08612969 218.57760226 49.08360227 223.58964233 49.08111596 228.60168242 C49.06038345 270.17978106 49.02515791 311.75785816 48.98046875 353.3359375 C46.34046875 353.3359375 43.70046875 353.3359375 40.98046875 353.3359375 C40.98046875 357.9559375 40.98046875 362.5759375 40.98046875 367.3359375 C43.62046875 367.3359375 46.26046875 367.3359375 48.98046875 367.3359375 C51.63938369 419.17341594 51.63938369 419.17341594 37.87548828 436.76318359 C34.32893449 441.57812612 31.63577545 446.89912358 28.79296875 452.1484375 C27.6332119 454.22824022 26.47051584 456.30640705 25.3046875 458.3828125 C20.84819422 466.35881264 16.40977623 474.34481364 11.98046875 482.3359375 C11.32046875 482.3359375 10.66046875 482.3359375 9.98046875 482.3359375 C9.56385986 481.57788818 9.14725098 480.81983887 8.71801758 480.03881836 C0.56972505 465.22038921 -7.61280436 450.42419111 -15.95703125 435.71484375 C-16.63201786 434.48777553 -16.63201786 434.48777553 -17.32064056 433.23591805 C-18.98226345 430.29441236 -18.98226345 430.29441236 -21.0366745 427.53983879 C-28.37920121 416.67726041 -28.10883539 406.60446305 -27.92773438 393.81689453 C-27.92547407 391.56855348 -27.92675168 389.32020654 -27.93127441 387.0718689 C-27.93355761 381.00624993 -27.88672273 374.9419121 -27.83068275 368.8765893 C-27.78046786 362.52390296 -27.77595683 356.17118304 -27.76647949 349.81832886 C-27.74448768 339.16786098 -27.69461419 328.51789556 -27.62304688 317.86767578 C-27.54945588 306.90480863 -27.49290685 295.94206866 -27.45898438 284.97900391 C-27.45688259 284.30164704 -27.4547808 283.62429018 -27.45261532 282.92640735 C-27.44217395 279.52782878 -27.43206455 276.12924932 -27.42212009 272.73066926 C-27.33937605 244.59876794 -27.19803805 216.46738188 -27.01953125 188.3359375 C-24.70953125 188.3359375 -22.39953125 188.3359375 -20.01953125 188.3359375 C-20.01953125 183.3859375 -20.01953125 178.4359375 -20.01953125 173.3359375 C-22.32953125 173.3359375 -24.63953125 173.3359375 -27.01953125 173.3359375 C-27.08966134 153.26463692 -27.14253903 133.19336126 -27.17496777 113.1219635 C-27.19042626 103.80213318 -27.21149632 94.48237906 -27.24584961 85.16259766 C-27.27578313 77.03798241 -27.29511365 68.91342237 -27.30179673 60.78875351 C-27.3057023 56.48814815 -27.31485968 52.18770068 -27.33672142 47.887146 C-27.35714906 43.835713 -27.36335242 39.7845023 -27.35885429 35.73302269 C-27.35967669 34.24959287 -27.36560495 32.76615529 -27.37714767 31.28277016 C-27.50118405 14.51392085 -27.50118405 14.51392085 -21.96875 7.875 C-21.22238281 7.24335938 -20.47601563 6.61171875 -19.70703125 5.9609375 C-18.96839844 5.31382813 -18.22976563 4.66671875 -17.46875 4 C-11.93497235 0.24020849 -6.46030604 0.01762594 0 0 Z " fill="#F7C17F" transform="translate(441.01953125,18.6640625)"/>
<path d="M0 0 C35 0 35 0 41 4 C44.60344852 7.6489234 45.49957161 9.92091121 45.49219131 15.01884937 C45.50015551 16.23405948 45.5081197 17.4492696 45.51632524 18.70130426 C45.50491387 20.0464628 45.4931315 21.39161823 45.48101807 22.73677063 C45.48276246 24.16826993 45.48626495 25.59976799 45.49137473 27.03125924 C45.50032462 30.96507052 45.48431119 34.89844671 45.46426249 38.83220255 C45.44700194 43.07414465 45.4528332 47.31606185 45.45587158 51.55802917 C45.45796983 58.90755853 45.44541104 66.25694594 45.42292023 73.60643959 C45.39042345 84.23257283 45.37999559 94.85863736 45.37496826 105.4848149 C45.36621196 122.72469742 45.3395873 139.96450427 45.30175781 157.2043457 C45.26504639 173.9520632 45.23673037 190.69976016 45.21972656 207.44750977 C45.21867567 208.47969662 45.21762477 209.51188347 45.21654204 210.57534871 C45.21132192 215.75348406 45.20626708 220.93161956 45.20129442 226.10975516 C45.15982197 269.07322252 45.08936441 312.03660736 45 355 C47.64 355 50.28 355 53 355 C53 359.62 53 364.24 53 369 C50.36 369 47.72 369 45 369 C45.0314209 370.29623291 45.0628418 371.59246582 45.09521484 372.92797852 C45.20416017 377.75649977 45.27282243 382.58491335 45.32958984 387.41430664 C45.35968519 389.50075576 45.40057226 391.58707917 45.45263672 393.6730957 C45.52577166 396.67951524 45.5595289 399.68425669 45.5859375 402.69140625 C45.61690521 403.61772354 45.64787292 404.54404083 45.67977905 405.49842834 C45.68275886 411.2871669 44.68811108 414.40600091 40.68252563 418.635849 C29.32481099 427.84440873 14.69572803 422 0 422 C0 282.74 0 143.48 0 0 Z " fill="#F1C0D7" transform="translate(324,15)"/>
<path d="M0 0 C0.85800705 -0.0066568 1.7160141 -0.0133136 2.60002136 -0.02017212 C4.40951404 -0.03026248 6.21904367 -0.03499026 8.02856445 -0.03466797 C10.77423523 -0.03903272 13.51828585 -0.07536631 16.26367188 -0.11328125 C18.02994248 -0.11915215 19.79622064 -0.12311972 21.5625 -0.125 C22.77701591 -0.14655655 22.77701591 -0.14655655 24.0160675 -0.16854858 C30.9562454 -0.11385394 36.92139913 1.81309878 42.3203125 6.265625 C42.84753906 6.90757813 43.37476563 7.54953125 43.91796875 8.2109375 C44.46324219 8.84773438 45.00851562 9.48453125 45.5703125 10.140625 C48.4531407 14.6285736 49.23050163 19.04198154 49.22656441 24.30604362 C49.2305465 25.48492743 49.2345286 26.66381124 49.23863137 27.8784188 C49.22989284 29.80740475 49.22989284 29.80740475 49.22097778 31.77536011 C49.22185029 33.16234736 49.2236021 34.54933429 49.22615612 35.93631947 C49.2306248 39.74233293 49.22263255 43.54823368 49.21259999 47.35423279 C49.2039609 51.4605051 49.20688598 55.56677108 49.20840454 59.67304993 C49.2094531 66.78569926 49.20317952 73.89831189 49.19192886 81.010952 C49.17567292 91.29462321 49.17046576 101.57827668 49.16795288 111.86195935 C49.16357593 128.54665484 49.15026681 145.23133076 49.13134766 161.91601562 C49.11298887 178.1233714 49.09883235 194.33072186 49.09033203 210.53808594 C49.08980658 211.53715312 49.08928114 212.53622029 49.08873977 213.56556223 C49.08612969 218.57760226 49.08360227 223.58964233 49.08111596 228.60168242 C49.06038345 270.17978119 49.0250092 311.75785792 48.98046875 353.3359375 C43.70046875 353.3359375 38.42046875 353.3359375 32.98046875 353.3359375 C32.98046875 261.5959375 32.98046875 169.8559375 32.98046875 75.3359375 C28.03046875 75.3359375 23.08046875 75.3359375 17.98046875 75.3359375 C17.98046875 80.2859375 17.98046875 85.2359375 17.98046875 90.3359375 C13.36046875 90.3359375 8.74046875 90.3359375 3.98046875 90.3359375 C3.48546875 83.4059375 3.48546875 83.4059375 2.98046875 76.3359375 C-1.96953125 76.0059375 -6.91953125 75.6759375 -12.01953125 75.3359375 C-12.01953125 107.6759375 -12.01953125 140.0159375 -12.01953125 173.3359375 C-16.96953125 173.3359375 -21.91953125 173.3359375 -27.01953125 173.3359375 C-27.08902484 153.26463333 -27.14253903 133.19336322 -27.17496777 113.1219635 C-27.19042626 103.80213318 -27.21149632 94.48237906 -27.24584961 85.16259766 C-27.27578313 77.03798241 -27.29511365 68.91342237 -27.30179673 60.78875351 C-27.3057023 56.48814815 -27.31485968 52.18770068 -27.33672142 47.887146 C-27.35714906 43.835713 -27.36335242 39.7845023 -27.35885429 35.73302269 C-27.35967669 34.24959287 -27.36560495 32.76615529 -27.37714767 31.28277016 C-27.50118405 14.51392085 -27.50118405 14.51392085 -21.96875 7.875 C-21.22238281 7.24335938 -20.47601563 6.61171875 -19.70703125 5.9609375 C-18.96839844 5.31382813 -18.22976563 4.66671875 -17.46875 4 C-11.93497235 0.24020849 -6.46030604 0.01762594 0 0 Z " fill="#030201" transform="translate(441.01953125,18.6640625)"/>
<path d="M0 0 C4.62 0 9.24 0 14 0 C14 29.7 14 59.4 14 90 C9.38 90 4.76 90 0 90 C-0.33 87.69 -0.66 85.38 -1 83 C-67.825 82.505 -67.825 82.505 -136 82 C-136 57.58 -136 33.16 -136 8 C-91.12 8 -46.24 8 0 8 C0 5.36 0 2.72 0 0 Z " fill="#E2EAF2" transform="translate(265,96)"/>
<path d="M0 0 C4.62 0 9.24 0 14 0 C14 88.77 14 177.54 14 269 C18.95 269 23.9 269 29 269 C29 256.46 29 243.92 29 231 C34.28 231 39.56 231 45 231 C47.59172021 282.9233509 47.59172021 282.9233509 33.89501953 300.42724609 C30.34846574 305.24218862 27.6553067 310.56318608 24.8125 315.8125 C23.65274315 317.89230272 22.49004709 319.97046955 21.32421875 322.046875 C16.86772547 330.02287514 12.42930748 338.00887614 8 346 C7.34 346 6.68 346 6 346 C5.58339111 345.24195068 5.16678223 344.48390137 4.73754883 343.70288086 C-3.4107437 328.88445171 -11.59327311 314.08825361 -19.9375 299.37890625 C-20.61248661 298.15183803 -20.61248661 298.15183803 -21.30110931 296.89998055 C-22.9627322 293.95847486 -22.9627322 293.95847486 -25.01714325 291.20390129 C-32.35966996 280.34132291 -32.08930414 270.26852555 -31.90820312 257.48095703 C-31.90594282 255.23261598 -31.90722043 252.98426904 -31.91174316 250.7359314 C-31.91402636 244.67031243 -31.86719148 238.6059746 -31.8111515 232.5406518 C-31.76093661 226.18796546 -31.75642558 219.83524554 -31.74694824 213.48239136 C-31.72495643 202.83192348 -31.67508294 192.18195806 -31.60351562 181.53173828 C-31.52992463 170.56887113 -31.4733756 159.60613116 -31.43945312 148.64306641 C-31.43735134 147.96570954 -31.43524955 147.28835268 -31.43308407 146.59046985 C-31.4226427 143.19189128 -31.4125333 139.79331182 -31.40258884 136.39473176 C-31.3198448 108.26283044 -31.1785068 80.13144438 -31 52 C-26.05 52 -21.1 52 -16 52 C-16 123.61 -16 195.22 -16 269 C-10.72 269 -5.44 269 0 269 C0 180.23 0 91.46 0 0 Z " fill="#000000" transform="translate(445,155)"/>
<path d="M0 0 C99.33 0.33 198.66 0.66 301 1 C301 5.95 301 10.9 301 16 C248.53 16 196.06 16 142 16 C142 20.95 142 25.9 142 31 C194.47 31 246.94 31 301 31 C301 35.95 301 40.9 301 46 C263.23206511 46.09119809 225.46414977 46.16201164 187.69612704 46.20426132 C183.23996342 46.2092643 178.78380002 46.21444158 174.32763672 46.21972656 C173.44047337 46.2207758 172.55331003 46.22182505 171.63926294 46.22290608 C157.26360973 46.24032396 142.88802033 46.27186923 128.51240501 46.30861118 C113.76798787 46.34598219 99.02360422 46.36822771 84.27914166 46.37635398 C75.17678914 46.38184974 66.07461696 46.39922404 56.97231993 46.43166587 C50.73538564 46.45276639 44.49854494 46.45921021 38.26157752 46.45400551 C34.66003428 46.45143673 31.05880674 46.45544758 27.45731926 46.4768219 C23.55685694 46.49980218 19.65680943 46.49197881 15.75628662 46.48101807 C14.61232634 46.49266943 13.46836607 46.5043208 12.28974032 46.51632524 C11.24720764 46.50836104 10.20467496 46.50039685 9.13055038 46.49219131 C7.77950545 46.49446964 7.77950545 46.49446964 6.40116668 46.49679399 C4 46 4 46 1.6793406 44.65673804 C0 42 0 42 0 31 C32.01 31 64.02 31 97 31 C97 26.05 97 21.1 97 16 C64.99 16 32.98 16 0 16 C0 10.72 0 5.44 0 0 Z " fill="#E3EBF3" transform="translate(38,451)"/>
<path d="M0 0 C1.30831787 -0.00137466 2.61663574 -0.00274933 3.96459961 -0.00416565 C5.41770958 -0.00062648 6.87081932 0.00300833 8.32392883 0.00672913 C9.8514455 0.00701115 11.3789623 0.00685297 12.90647888 0.00628662 C17.05700714 0.00599923 21.20750661 0.01188665 25.35802817 0.01886058 C29.69421986 0.02510371 34.03041218 0.02569868 38.36660767 0.02688599 C46.57947695 0.02999646 54.79233296 0.03820605 63.00519639 0.04823548 C72.35454212 0.05940539 81.70388848 0.06490928 91.05323923 0.06993091 C110.28711291 0.08038889 129.52097342 0.09818385 148.75483704 0.12025452 C148.42483704 5.07025452 148.09483704 10.02025452 147.75483704 15.12025452 C102.21483704 15.12025452 56.67483704 15.12025452 9.75483704 15.12025452 C8.910587 19.3415047 8.6295667 22.71358556 8.6289959 26.97177696 C8.62754245 27.65177846 8.62608901 28.33177995 8.62459153 29.03238755 C8.62093624 31.31563578 8.62441583 33.59881706 8.62785339 35.88206482 C8.62670137 37.5338598 8.6251133 39.18565453 8.62312615 40.83744872 C8.61894355 45.38063236 8.62101877 49.92379506 8.62411237 54.46697879 C8.62637075 59.3656572 8.62288454 64.26433195 8.62013245 69.16300964 C8.61567949 78.76400508 8.61664941 88.3649927 8.61954509 97.96598844 C8.62180229 105.77323616 8.62211026 113.58048169 8.62102127 121.38772964 C8.62086804 122.49841657 8.6207148 123.6091035 8.62055693 124.7534476 C8.6202372 127.00982796 8.61991299 129.26620832 8.61958434 131.52258869 C8.6167306 152.69807013 8.62001423 173.87354726 8.6253847 195.04902799 C8.62984649 213.20281791 8.62908177 231.35660143 8.62446594 249.51039124 C8.61910769 270.59393883 8.61701177 291.67748262 8.62007821 312.76103079 C8.62039675 315.01222777 8.62071112 317.26342475 8.62102127 319.51462173 C8.62117555 320.62220844 8.62132982 321.72979515 8.62148877 322.87094509 C8.62235063 330.66008732 8.62089804 338.44922713 8.61854172 346.23836899 C8.61572936 355.74410103 8.61651195 365.24982481 8.62182246 374.75555591 C8.62444107 379.60189124 8.62549596 384.44821283 8.62217331 389.29454803 C8.61917189 393.73985887 8.62086661 398.18514339 8.62615086 402.63045187 C8.62725882 404.23015468 8.62672034 405.82985975 8.62427507 407.42956106 C8.61025411 417.37284436 8.96283254 427.20574868 9.75483704 437.12025452 C-1.59743766 437.61383168 -1.59743766 437.61383168 -4.40287757 435.47604108 C-6.75856568 432.46375079 -6.74266683 430.83552149 -6.73735428 427.03704453 C-6.74531847 425.78202471 -6.75328267 424.5270049 -6.7614882 423.23395419 C-6.75007598 421.8386905 -6.73829359 420.44342979 -6.72618103 419.048172 C-6.72792483 417.56803825 -6.73142623 416.08790569 -6.73653769 414.60777974 C-6.74549917 410.53489617 -6.72945823 406.46243184 -6.70942545 402.38960171 C-6.69218157 397.99971959 -6.69799497 393.60986189 -6.70103455 389.21995544 C-6.70313385 381.6123111 -6.69056402 374.00480378 -6.66808319 366.39719391 C-6.63560072 355.39783586 -6.62516002 344.39854419 -6.62013122 333.39914337 C-6.61137268 315.55418971 -6.58474191 297.70930912 -6.54692078 279.86439514 C-6.51021517 262.52781032 -6.48189631 245.19124534 -6.46488953 227.85462952 C-6.46383863 226.78633599 -6.46278774 225.71804247 -6.461705 224.61737642 C-6.45648492 219.25816157 -6.45143007 213.89894658 -6.44645739 208.5397315 C-6.40497792 164.06652189 -6.33451425 119.59339197 -6.24516296 75.12025452 C-8.88516296 75.12025452 -11.52516296 75.12025452 -14.24516296 75.12025452 C-14.24516296 70.17025452 -14.24516296 65.22025452 -14.24516296 60.12025452 C-16.88516296 60.12025452 -19.52516296 60.12025452 -22.24516296 60.12025452 C-22.3196661 54.28532155 -22.3739316 48.45066934 -22.40995789 42.6153717 C-22.4249864 40.63290072 -22.44541494 38.65046266 -22.47148132 36.66810608 C-22.50812679 33.80832259 -22.524949 30.94898107 -22.53813171 28.08900452 C-22.55361557 27.21159607 -22.56909943 26.33418762 -22.58505249 25.43019104 C-22.58717321 17.56599481 -20.90054253 10.93721636 -15.24516296 5.12025452 C-9.96082235 1.23788182 -6.50207649 -0.00525633 0 0 Z " fill="#F1A6CA" transform="translate(44.24516296386719,-0.1202545166015625)"/>
<path d="M0 0 C4.95 0 9.9 0 15 0 C15 139.26 15 278.52 15 422 C10.05 422 5.1 422 0 422 C0 282.74 0 143.48 0 0 Z " fill="#E6D56F" transform="translate(294,15)"/>
<path d="M0 0 C49.5 0 99 0 150 0 C150 4.62 150 9.24 150 14 C105.45 14 60.9 14 15 14 C15 38.75 15 63.5 15 89 C59.55 89 104.1 89 150 89 C150 93.95 150 98.9 150 104 C100.5 104 51 104 0 104 C0 69.68 0 35.36 0 0 Z " fill="#040404" transform="translate(114,89)"/>
<path d="M0 0 C4.95 0 9.9 0 15 0 C16 1 16 1 16.09765625 4.16015625 C16.06510417 7.7734375 16.03255208 11.38671875 16 15 C20.62 15 25.24 15 30 15 C30 10.05 30 5.1 30 0 C34.95 0 39.9 0 45 0 C45 0.33 45 0.66 45 1 C40.38 1 35.76 1 31 1 C31 5.95 31 10.9 31 16 C25.72 16 20.44 16 15 16 C15 30.52 15 45.04 15 60 C19.95 60 24.9 60 30 60 C30 60.33 30 60.66 30 61 C25.38 61 20.76 61 16 61 C16 149.77 16 238.54 16 330 C10.72 330 5.44 330 0 330 C0 258.39 0 186.78 0 113 C-2.64 113 -5.28 113 -8 113 C-8 108.05 -8 103.1 -8 98 C-5.36 98 -2.72 98 0 98 C0 65.66 0 33.32 0 0 Z " fill="#EBA552" transform="translate(429,94)"/>
<path d="M0 0 C2.64 0 5.28 0 8 0 C8 139.26 8 278.52 8 422 C5.36 422 2.72 422 0 422 C0 282.74 0 143.48 0 0 Z " fill="#E49DBF" transform="translate(324,15)"/>
<path d="M0 0 C1.30831787 -0.00137466 2.61663574 -0.00274933 3.96459961 -0.00416565 C5.41770958 -0.00062648 6.87081932 0.00300833 8.32392883 0.00672913 C9.8514455 0.00701115 11.3789623 0.00685297 12.90647888 0.00628662 C17.05700714 0.00599923 21.20750661 0.01188665 25.35802817 0.01886058 C29.69421986 0.02510371 34.03041218 0.02569868 38.36660767 0.02688599 C46.57947695 0.02999646 54.79233296 0.03820605 63.00519639 0.04823548 C72.35454212 0.05940539 81.70388848 0.06490928 91.05323923 0.06993091 C110.28711291 0.08038889 129.52097342 0.09818385 148.75483704 0.12025452 C148.42483704 5.07025452 148.09483704 10.02025452 147.75483704 15.12025452 C144.94601265 15.13571571 144.94601265 15.13571571 142.08044434 15.15148926 C124.46611743 15.24908454 106.85182654 15.35174647 89.23755932 15.45959377 C80.18107588 15.51491337 71.12458851 15.56839332 62.06806946 15.61756897 C54.17603709 15.66042626 46.28403358 15.70670818 38.3920458 15.75713307 C34.21184497 15.78372154 30.03164983 15.80857433 25.85141563 15.82932854 C21.91903466 15.84890624 17.98670855 15.87305345 14.0543766 15.90074539 C12.60918295 15.91010981 11.16397726 15.91778729 9.71876526 15.92367363 C7.74921292 15.93194502 5.77969152 15.94681068 3.81018066 15.96203613 C2.15510136 15.97171496 2.15510136 15.97171496 0.46658611 15.98158932 C-2.34219616 16.00406139 -2.34219616 16.00406139 -5.24516296 17.12025452 C-5.57516296 31.31025452 -5.90516296 45.50025452 -6.24516296 60.12025452 C-11.52516296 60.12025452 -16.80516296 60.12025452 -22.24516296 60.12025452 C-22.3196661 54.28532155 -22.3739316 48.45066934 -22.40995789 42.6153717 C-22.4249864 40.63290072 -22.44541494 38.65046266 -22.47148132 36.66810608 C-22.50812679 33.80832259 -22.524949 30.94898107 -22.53813171 28.08900452 C-22.55361557 27.21159607 -22.56909943 26.33418762 -22.58505249 25.43019104 C-22.58717321 17.56599481 -20.90054253 10.93721636 -15.24516296 5.12025452 C-9.96082235 1.23788182 -6.50207649 -0.00525633 0 0 Z " fill="#010001" transform="translate(44.24516296386719,-0.1202545166015625)"/>
<path d="M0 0 C2.31 0 4.62 0 7 0 C7 139.26 7 278.52 7 422 C4.69 422 2.38 422 0 422 C0 282.74 0 143.48 0 0 Z " fill="#F7EBA4" transform="translate(302,15)"/>
<path d="M0 0 C0.82830322 -0.00478363 1.65660645 -0.00956726 2.51000977 -0.01449585 C4.25832014 -0.01789283 6.0066942 -0.00870432 7.75488281 0.01220703 C10.42917664 0.03897918 13.09927402 0.01245635 15.7734375 -0.01953125 C17.47396759 -0.01622711 19.17449506 -0.00982078 20.875 0 C21.67301025 -0.01012115 22.47102051 -0.02024231 23.29321289 -0.03067017 C26.94098746 0.04623423 29.04467503 0.35676214 31.94824219 2.62817383 C34.00350816 6.81788405 33.94059177 10.29629801 33.828125 14.90234375 C33.82409668 15.68363647 33.82006836 16.4649292 33.81591797 17.26989746 C33.7950805 20.17236001 33.7392349 23.07448626 33.6875 25.9765625 C33.605 32.4734375 33.5225 38.9703125 33.4375 45.6640625 C18.2575 45.6640625 3.0775 45.6640625 -12.5625 45.6640625 C-12.645 39.1671875 -12.7275 32.6703125 -12.8125 25.9765625 C-12.84891602 23.93380127 -12.88533203 21.89104004 -12.92285156 19.78637695 C-12.93453937 18.15837657 -12.94473098 16.53036445 -12.953125 14.90234375 C-12.97358887 14.06425171 -12.99405273 13.22615967 -13.01513672 12.3626709 C-13.01742228 8.52578054 -12.78442433 6.11646071 -11.07324219 2.62817383 C-7.53788963 -0.13747294 -4.30967279 -0.05465953 0 0 Z " fill="#FCC581" transform="translate(441.5625,34.3359375)"/>
<path d="M0 0 C2.31 0 4.62 0 7 0 C7 82.83 7 165.66 7 251 C4.69 251 2.38 251 0 251 C0 168.17 0 85.34 0 0 Z " fill="#F2A7CB" transform="translate(272,186)"/>
<path d="M0 0 C1.75570313 0.06767578 1.75570313 0.06767578 3.546875 0.13671875 C4.88492187 0.22373047 4.88492187 0.22373047 6.25 0.3125 C6.08923477 0.88740173 5.92846954 1.46230347 5.76283264 2.05462646 C5.26387591 4.25140785 5.09446567 6.19090704 5.04467773 8.43847656 C5.02473251 9.23900452 5.00478729 10.03953247 4.98423767 10.86431885 C4.95916893 12.14577789 4.95916893 12.14577789 4.93359375 13.453125 C4.91281265 14.33530701 4.89203156 15.21748901 4.87062073 16.12640381 C4.80535133 18.93835831 4.74634553 21.75040445 4.6875 24.5625 C4.64429327 26.47136356 4.60067829 28.38021793 4.55664062 30.2890625 C4.4489265 34.96344918 4.34968505 39.63790761 4.25 44.3125 C14.15 44.3125 24.05 44.3125 34.25 44.3125 C34.25 31.4425 34.25 18.5725 34.25 5.3125 C34.58 5.3125 34.91 5.3125 35.25 5.3125 C35.25 18.5125 35.25 31.7125 35.25 45.3125 C20.07 45.3125 4.89 45.3125 -10.75 45.3125 C-10.8325 38.815625 -10.915 32.31875 -11 25.625 C-11.03641602 23.58223877 -11.07283203 21.53947754 -11.11035156 19.43481445 C-11.12203937 17.80681407 -11.13223098 16.17880195 -11.140625 14.55078125 C-11.16108887 13.71268921 -11.18155273 12.87459717 -11.20263672 12.0111084 C-11.20505656 7.94880079 -11.05670246 5.82531441 -8.92773438 2.265625 C-5.91124514 -0.43974651 -3.98351636 -0.19917582 0 0 Z " fill="#E5A251" transform="translate(439.75,34.6875)"/>
<path d="M0 0 C0.14892693 5.4259046 0.25748635 10.85060596 0.32958984 16.27807617 C0.35966233 18.12203712 0.4005326 19.96585621 0.45263672 21.80932617 C0.52587858 24.46829291 0.55955005 27.12536075 0.5859375 29.78515625 C0.61690521 30.60210464 0.64787292 31.41905304 0.67977905 32.26075745 C0.68296354 37.74369479 -0.5847838 40.58279934 -4.31747437 44.59739685 C-8.07063158 47.72613975 -9.91943453 48 -15 48 C-15 33.15 -15 18.3 -15 3 C-12.03 2.34 -9.06 1.68 -6 1 C-3 0 -3 0 0 0 Z " fill="#E8A0C3" transform="translate(369,449)"/>
<path d="M0 0 C2.31 0 4.62 0 7 0 C7 29.7 7 59.4 7 90 C4.69 90 2.38 90 0 90 C0 60.3 0 30.6 0 0 Z " fill="#C6DAEC" transform="translate(272,96)"/>
<path d="M0 0 C4.62 0 9.24 0 14 0 C14 14.52 14 29.04 14 44 C9.38 44 4.76 44 0 44 C0 29.48 0 14.96 0 0 Z " fill="#FFFFFF" transform="translate(340,62)"/>
<path d="M0 0 C2.31 0 4.62 0 7 0 C7 26.73 7 53.46 7 81 C4.69 81 2.38 81 0 81 C0 54.27 0 27.54 0 0 Z " fill="#F2A7CB" transform="translate(272,15)"/>
<path d="M0 0 C11.22 0 22.44 0 34 0 C25.94763514 16.10472973 25.94763514 16.10472973 22.0625 22.875 C21.66482422 23.57496094 21.26714844 24.27492188 20.85742188 24.99609375 C19.90815445 26.66588947 18.95459612 28.33324488 18 30 C17.34 30 16.68 30 16 30 C13.71867378 25.88974486 11.44008493 21.77798938 9.1640625 17.66479492 C8.38877944 16.26463502 7.61273903 14.8648942 6.8359375 13.46557617 C5.72198101 11.45860738 4.61072284 9.45016602 3.5 7.44140625 C3.15001953 6.81222794 2.80003906 6.18304962 2.43945312 5.5348053 C0 1.11387171 0 1.11387171 0 0 Z " fill="#F5B382" transform="translate(435,439)"/>
<path d="M0 0 C4.95 0.33 9.9 0.66 15 1 C15 5.95 15 10.9 15 16 C10.05 16 5.1 16 0 16 C0 10.72 0 5.44 0 0 Z " fill="#C6DAEC" transform="translate(38,451)"/>
<path d="M0 0 C4.95 0 9.9 0 15 0 C15 4.95 15 9.9 15 15 C10.05 15 5.1 15 0 15 C0 10.05 0 5.1 0 0 Z " fill="#FEFEFE" transform="translate(150,467)"/>
<path d="M0 0 C4.95 0 9.9 0 15 0 C15 4.95 15 9.9 15 15 C10.05 15 5.1 15 0 15 C0 10.05 0 5.1 0 0 Z " fill="#FEFDFD" transform="translate(83,407)"/>
<path d="M0 0 C4.95 0 9.9 0 15 0 C15 4.95 15 9.9 15 15 C10.05 15 5.1 15 0 15 C0 10.05 0 5.1 0 0 Z " fill="#FEFDFD" transform="translate(53,407)"/>
<path d="M0 0 C4.95 0 9.9 0 15 0 C15.33 4.95 15.66 9.9 16 15 C4.7042471 15.49111969 4.7042471 15.49111969 1.625 13.34375 C-1.27780234 9.15701585 -0.2359299 4.95452799 0 0 Z " fill="#C5D9EB" transform="translate(38,482)"/>
<path d="M0 0 C4.62 0 9.24 0 14 0 C14 4.62 14 9.24 14 14 C9.38 14 4.76 14 0 14 C0 9.38 0 4.76 0 0 Z " fill="#000000" transform="translate(212,134)"/>
<path d="M0 0 C4.62 0 9.24 0 14 0 C14 4.62 14 9.24 14 14 C9.38 14 4.76 14 0 14 C0 9.38 0 4.76 0 0 Z " fill="#000000" transform="translate(182,134)"/>
<path d="M0 0 C4.62 0 9.24 0 14 0 C14 4.62 14 9.24 14 14 C9.38 14 4.76 14 0 14 C0 9.38 0 4.76 0 0 Z " fill="#FFFFFF" transform="translate(445,125)"/>
<path d="M0 0 C4.62 0 9.24 0 14 0 C14 4.62 14 9.24 14 14 C9.38 14 4.76 14 0 14 C0 9.38 0 4.76 0 0 Z " fill="#FFFFFF" transform="translate(340,32)"/>
<path d="M0 0 C6.6 0 13.2 0 20 0 C18.39125 3.34125 18.39125 3.34125 16.75 6.75 C16.2564502 7.79172363 16.2564502 7.79172363 15.75292969 8.85449219 C13.94462151 12.53698111 12.08653202 15.29587018 9 18 C7.49480613 15.37785672 5.99568681 12.75255792 4.5 10.125 C3.85611328 9.00544922 3.85611328 9.00544922 3.19921875 7.86328125 C2.79316406 7.14785156 2.38710938 6.43242187 1.96875 5.6953125 C1.59169922 5.03547363 1.21464844 4.37563477 0.82617188 3.69580078 C0 2 0 2 0 0 Z " fill="#FBD7AA" transform="translate(449,439)"/>
</svg>
