<?xml version="1.0" encoding="UTF-8"?>
<svg version="1.1" xmlns="http://www.w3.org/2000/svg" width="512" height="512">
<path d="M0 0 C1.08708074 0.8226557 2.14520397 1.68379303 3.1875 2.5625 C4.00992187 3.2534375 4.83234375 3.944375 5.6796875 4.65625 C15.61243187 13.29341902 15.61243187 13.29341902 16.62109375 19.02734375 C16.62238281 19.84332031 16.62367188 20.65929687 16.625 21.5 C16.65400391 22.72009766 16.65400391 22.72009766 16.68359375 23.96484375 C15.29418928 31.24007186 8.515561 36.49382433 3.484375 41.4609375 C2.64658508 42.29589752 1.80879517 43.13085754 0.94561768 43.99111938 C-1.71907916 46.64466283 -4.39066186 49.29114915 -7.0625 51.9375 C-8.8754595 53.74042348 -10.6879647 55.54380391 -12.5 57.34765625 C-16.93225102 61.75791112 -21.37016922 66.16239961 -25.8125 70.5625 C-24.86558424 71.67869824 -23.91702061 72.79349864 -22.96777344 73.90771484 C-22.43972107 74.52867035 -21.9116687 75.14962585 -21.36761475 75.78939819 C-18.69181785 78.84027294 -15.71653859 81.57127996 -12.765625 84.3515625 C-9.60741546 87.9266557 -8.8277559 90.63188996 -8.75 95.375 C-9.62072555 100.76134878 -13.03168022 103.87693343 -16.8125 107.5625 C-17.74835938 108.58150391 -17.74835938 108.58150391 -18.703125 109.62109375 C-22.15384353 113.10688056 -24.83522232 115.05639145 -29.8125 115.4375 C-35.66767214 115.05682317 -38.99632149 111.74110887 -42.8125 107.5625 C-52.89977934 112.00734128 -64.05668858 123.15560179 -69.8125 132.5625 C-72.76219228 140.49630963 -72.59756354 148.80729781 -72.67822266 157.17480469 C-72.88865628 162.48385366 -73.93024638 167.5228703 -75.125 172.6875 C-75.34075684 173.62762939 -75.55651367 174.56775879 -75.77880859 175.53637695 C-80.99279565 197.35097643 -89.71361247 217.68480315 -101.8125 236.5625 C-98.29360565 240.86006861 -94.59794938 244.82301788 -90.625 248.70703125 C-90.15642578 249.16536346 -89.68785156 249.62369568 -89.20507812 250.09591675 C-87.25449556 252.00146119 -85.30225567 253.90490901 -83.33496094 255.79321289 C-68.96165222 269.6190353 -68.96165222 269.6190353 -67.0859375 279.3203125 C-67.32744921 287.32735459 -67.8244348 293.34762541 -73.4609375 299.3046875 C-78.60038201 303.99527223 -83.0937575 305.8532935 -90.125 305.9375 C-91.19363281 305.96585937 -92.26226562 305.99421875 -93.36328125 306.0234375 C-101.03359393 304.9984127 -106.27276419 300.68932299 -111.5 295.265625 C-112.08797363 294.67199158 -112.67594727 294.07835815 -113.28173828 293.46673584 C-115.13503546 291.59126678 -116.97383562 289.7023054 -118.8125 287.8125 C-120.07588563 286.52902463 -121.34020056 285.2464633 -122.60546875 283.96484375 C-125.68531507 280.84118518 -128.75225087 277.70535552 -131.8125 274.5625 C-135.12987694 276.13809217 -137.35034581 277.87694922 -140 280.4375 C-150.74754289 290.26699063 -168.72283666 306.16188947 -183.8125 306.5625 C-186.37876637 305.62471124 -188.36485273 304.72528047 -190.6875 303.375 C-191.32026855 303.02348877 -191.95303711 302.67197754 -192.60498047 302.30981445 C-199.42869212 298.40924457 -205.78783104 293.82415685 -212.1328125 289.19921875 C-214.94182767 287.15584285 -217.79137798 285.2846571 -220.8125 283.5625 C-221.68273804 284.42536621 -221.68273804 284.42536621 -222.57055664 285.30566406 C-227.24972478 288.563005 -232.27565967 289.9679662 -237.68359375 291.671875 C-238.83867935 292.04354797 -239.99376495 292.41522095 -241.18385315 292.79815674 C-243.62226919 293.5798546 -246.06241807 294.35616482 -248.50415039 295.12744141 C-252.23746324 296.3085338 -255.96362909 297.51036311 -259.68945312 298.71484375 C-262.06210151 299.47260303 -264.4351361 300.22915433 -266.80859375 300.984375 C-267.92125107 301.34368103 -269.03390839 301.70298706 -270.18028259 302.07318115 C-271.2247908 302.40062317 -272.26929901 302.72806519 -273.34545898 303.06542969 C-274.2585936 303.35536804 -275.17172821 303.6453064 -276.11253357 303.94403076 C-280.01118514 304.83707745 -283.43519712 305.10617219 -287.1875 303.625 C-289.80693607 300.30033114 -289.20104283 296.5907008 -288.8125 292.5625 C-287.9620372 288.56803504 -286.78218814 284.70300976 -285.55859375 280.80859375 C-285.22005875 279.70830338 -284.88152374 278.608013 -284.5327301 277.47438049 C-283.8154253 275.15868848 -283.0914161 272.84506372 -282.36108398 270.53344727 C-281.25453373 267.01441807 -280.18395159 263.48575398 -279.11523438 259.95507812 C-278.41101892 257.69724034 -277.70470741 255.44005504 -276.99609375 253.18359375 C-276.52531654 251.61453529 -276.52531654 251.61453529 -276.04502869 250.01377869 C-274.08113954 243.92563266 -271.78127992 239.69158946 -267.29432678 235.09925842 C-265.71293499 233.61246523 -265.71293499 233.61246523 -264.8125 231.5625 C-265.69986561 229.40669492 -265.69986561 229.40669492 -267.09375 227.00390625 C-267.60276855 226.07078613 -268.11178711 225.13766602 -268.63623047 224.17626953 C-269.18939941 223.16935059 -269.74256836 222.16243164 -270.3125 221.125 C-283.92522712 195.58086195 -291.08888621 167.98251651 -292.4375 139.0625 C-292.48511475 138.06428223 -292.53272949 137.06606445 -292.58178711 136.03759766 C-292.75643297 131.77792532 -292.89113989 127.60734236 -292.484375 123.359375 C-292.04184217 118.07227222 -291.77985525 114.45541461 -295.2578125 110.2734375 C-297.91591615 107.45034811 -300.78025526 104.97451286 -303.8125 102.5625 C-309.89301923 116.16987556 -312.0201085 129.34421622 -306.8125 143.5625 C-306.07776847 144.83405558 -305.31017169 146.08763027 -304.5 147.3125 C-302.8125 150.5625 -302.8125 150.5625 -303.3125 154.375 C-304.8125 157.5625 -304.8125 157.5625 -306.35546875 158.7421875 C-310.09330279 159.99011302 -313.70887343 159.90173521 -317.625 159.875 C-318.4708667 159.87008545 -319.3167334 159.8651709 -320.18823242 159.86010742 C-346.20980205 159.38235523 -368.39880267 147.75436834 -386.359375 129.3984375 C-402.47835953 110.76407003 -408.86548261 88.34478179 -409.17578125 64.09375 C-408.76355517 60.08673515 -407.67882749 57.42882749 -404.8125 54.5625 C-398.89667881 53.80728878 -395.30393977 55.51920022 -390.14453125 58.37109375 C-379.19764501 63.96372408 -365.82917437 60.03924514 -354.8125 56.5625 C-353.8225 56.2325 -352.8325 55.9025 -351.8125 55.5625 C-352.1425 54.675625 -352.4725 53.78875 -352.8125 52.875 C-354.73970196 46.00410606 -355.21147553 37.73430161 -352.25 31.125 C-348.89779705 25.50233334 -344.02800428 21.56227094 -337.8125 19.5625 C-334.61328125 19.15625 -334.61328125 19.15625 -331.125 19.0625 C-329.41763672 18.98515625 -329.41763672 18.98515625 -327.67578125 18.90625 C-315.11939994 21.03918434 -306.2513709 32.61002051 -297.7421875 41.2421875 C-296.21036201 42.78148455 -294.67764264 44.31989252 -293.14407349 45.85745239 C-289.13379522 49.88291472 -285.13568209 53.92024741 -281.14007568 57.96026611 C-277.05125512 62.09019569 -272.95091563 66.20865454 -268.8515625 70.328125 C-260.82729687 78.39513385 -252.81585009 86.47474395 -244.8125 94.5625 C-243.22680123 94.0958625 -241.64181557 93.62680139 -240.05712891 93.15673828 C-238.73305527 92.7653215 -238.73305527 92.7653215 -237.38223267 92.36599731 C-233.87984091 91.27087858 -230.53849798 89.92600622 -227.1875 88.4375 C-226.51291748 88.1381958 -225.83833496 87.8388916 -225.14331055 87.53051758 C-213.40777439 82.20705549 -202.71282294 75.91587733 -192.6796875 67.82421875 C-184.75571888 61.57356776 -184.75571888 61.57356776 -180.81640625 61.52734375 C-177.19992753 62.77359455 -174.63342714 64.69793298 -171.75 67.125 C-163.016586 74.12826843 -153.65895319 79.74676947 -143.6875 84.8125 C-143.06705811 85.12977051 -142.44661621 85.44704102 -141.80737305 85.77392578 C-136.22338318 88.53724205 -130.77629713 90.3938465 -124.8125 92.5625 C-113.9225 81.6725 -103.0325 70.7825 -91.8125 59.5625 C-93.7925 57.2525 -95.7725 54.9425 -97.8125 52.5625 C-99.97694699 48.23360602 -100.30341079 46.307971 -99.8125 41.5625 C-96.71660071 35.22997872 -90.09644107 27.70447053 -83.8125 24.5625 C-79.53333751 23.86256264 -75.52112118 23.55872439 -71.69140625 25.80859375 C-69.60228179 27.62869614 -67.7105674 29.54374623 -65.8125 31.5625 C-64.14712057 33.20963584 -62.48045085 34.85546812 -60.8125 36.5 C-59.47663071 37.85166504 -58.1423662 39.20492826 -56.8125 40.5625 C-53.55716262 39.13753961 -51.42935607 37.41017899 -48.94946289 34.87890625 C-48.2051149 34.12472412 -47.46076691 33.37054199 -46.69386292 32.59350586 C-45.89898972 31.77889893 -45.10411652 30.96429199 -44.28515625 30.125 C-42.58931197 28.40873632 -40.89334464 26.69259421 -39.19726562 24.9765625 C-36.53072476 22.2664933 -33.86668739 19.55401938 -31.20532227 16.83886719 C-28.63419425 14.21948744 -26.05395224 11.60935441 -23.47265625 9 C-22.67980728 8.18539307 -21.88695831 7.37078613 -21.07008362 6.53149414 C-20.32258347 5.77731201 -19.57508331 5.02312988 -18.80493164 4.24609375 C-17.82708458 3.24920532 -17.82708458 3.24920532 -16.82948303 2.23217773 C-11.84371644 -1.89508726 -5.8562434 -2.99319107 0 0 Z " fill="#1F303F" transform="translate(437.8125,49.4375)"/>
<path d="M0 0 C1.10008392 -0.00845947 2.20016785 -0.01691895 3.33358765 -0.02563477 C5.14517616 -0.01652573 5.14517616 -0.01652573 6.99336243 -0.00723267 C8.26532471 -0.01248962 9.53728699 -0.01774658 10.84779358 -0.02316284 C14.34246726 -0.03686297 17.83687573 -0.03152214 21.33155417 -0.02202559 C25.0009607 -0.01442164 28.67034476 -0.02147861 32.3397522 -0.02618408 C38.51615961 -0.03164846 44.69245961 -0.02444157 50.86885071 -0.01016235 C57.97198925 0.00607167 65.0748682 0.00094637 72.17800015 -0.01564157 C78.29632911 -0.02934996 84.41458078 -0.03112807 90.53292018 -0.02332556 C94.17754491 -0.01868783 97.82204869 -0.01791302 101.46666527 -0.02793503 C130.64147682 -0.09726524 130.64147682 -0.09726524 143.69770813 3.38095093 C144.52473236 3.5981781 145.35175659 3.81540527 146.20384216 4.03921509 C158.38860624 7.56907554 170.63928982 13.28935365 180.93598938 20.71688843 C183.44811873 22.56058767 183.44811873 22.56058767 185.71333313 22.35751343 C188.4361304 21.01755414 190.91135076 19.42325184 193.44770813 17.75595093 C209.14732546 7.84240586 228.68855096 0.2979581 247.44824219 0.24050903 C248.57123718 0.23479889 249.69423218 0.22908875 250.85125732 0.22320557 C252.06862076 0.22208771 253.28598419 0.22096985 254.54023743 0.21981812 C256.48016068 0.21237076 256.48016068 0.21237076 258.45927429 0.20477295 C261.99413117 0.19170815 265.52896912 0.18521684 269.06384635 0.18076229 C271.27268778 0.17782492 273.48152409 0.1737191 275.69036293 0.16925812 C282.6032174 0.15560531 289.51606011 0.14592508 296.42892712 0.14205623 C304.40705276 0.1375661 312.38500787 0.11996496 320.36308163 0.09105563 C326.53475188 0.06946737 332.706374 0.05935365 338.87808162 0.05801511 C342.56307186 0.05696599 346.24790131 0.05103443 349.93285179 0.0331955 C354.03646169 0.01371259 358.13971151 0.01799224 362.24336243 0.02450562 C363.46679855 0.01529083 364.69023468 0.00607605 365.95074463 -0.00341797 C367.62254791 0.00493576 367.62254791 0.00493576 369.328125 0.01345825 C370.29835444 0.01199169 371.26858389 0.01052513 372.26821423 0.00901413 C375.13967778 0.44861308 375.99310509 1.06832286 377.69770813 3.38095093 C378.85698341 6.85877676 378.81083879 9.56898349 378.79536438 13.23641968 C378.79324196 14.22887444 378.79324196 14.22887444 378.79107666 15.24137878 C378.78548809 17.35044921 378.77293778 19.4594127 378.76020813 21.56845093 C378.75519165 23.00009002 378.750629 24.43173077 378.74653625 25.8633728 C378.73552243 29.36926681 378.71826568 32.87509843 378.69770813 36.38095093 C379.55525696 36.35476685 380.41280579 36.32858276 381.29634094 36.30160522 C384.48687002 36.21624496 387.6768162 36.1536358 390.86811829 36.10629272 C392.24754515 36.08119163 393.62683955 36.04710219 395.0058136 36.00375366 C396.99106685 35.94292218 398.97730172 35.91737156 400.96333313 35.89266968 C402.75432434 35.85339355 402.75432434 35.85339355 404.58149719 35.81332397 C407.69770813 36.38095093 407.69770813 36.38095093 410.11470032 38.68490601 C411.69770813 41.38095093 411.69770813 41.38095093 411.76020813 45.00595093 C410.69770813 48.38095093 410.69770813 48.38095093 408.5426321 50.06865025 C405.16839208 51.62511275 402.8269168 51.75464197 399.11642456 51.75276184 C398.14478069 51.75849869 398.14478069 51.75849869 397.15350765 51.76435143 C394.9903666 51.77361135 392.82786989 51.76166105 390.66474915 51.74984741 C389.11038956 51.75231639 387.55603163 51.75615578 386.00167847 51.76126099 C382.65627053 51.76959478 379.31103284 51.7687946 375.96562386 51.76107597 C370.66431978 51.74947191 365.36323353 51.76167575 360.06195068 51.7776947 C346.88714417 51.81386311 333.71234251 51.820128 320.53749084 51.81759644 C310.31054057 51.81588053 300.08376889 51.82315868 289.85686821 51.857575 C284.59951824 51.87427256 279.34260523 51.87265663 274.08525765 51.85675228 C270.79475224 51.85090735 267.50444868 51.86178163 264.21397972 51.8769989 C262.70244055 51.88068916 261.19086598 51.87772292 259.67935944 51.86712837 C240.03412645 51.73875137 223.04698196 57.76242715 208.69770813 71.38095093 C201.32562181 79.05155482 196.62072225 88.2322751 192.61958313 98.01766968 C191.69770813 100.19345093 191.69770813 100.19345093 189.69770813 103.38095093 C186.28641138 104.47743917 184.14955962 104.77280987 180.68598938 103.83798218 C177.62325182 101.59357921 176.71828169 98.37258917 175.38520813 94.94345093 C168.35951643 77.99835483 157.75525906 65.16545863 140.77632141 57.51522827 C132.87754562 54.30867511 125.57520075 52.26428029 117.0491333 52.2361908 C116.39431506 52.23266395 115.73949682 52.2291371 115.06483561 52.22550339 C112.87856904 52.21485946 110.69234612 52.21114301 108.50605774 52.20736694 C106.93547381 52.20105853 105.36489167 52.19429241 103.79431152 52.18710327 C100.41620188 52.1724562 97.03809904 52.16072243 93.65997124 52.15115547 C88.3194544 52.135687 82.97899651 52.11173962 77.63851929 52.08625793 C62.45377829 52.01509219 47.26900422 51.95520902 32.08418274 51.90414429 C23.69474239 51.87585683 15.30536139 51.84048887 6.91598326 51.79749054 C1.60581735 51.77070242 -3.70428148 51.75280741 -9.01450169 51.74145329 C-12.31541001 51.73233639 -15.61623659 51.71497958 -18.91709709 51.69527435 C-20.44895011 51.687793 -21.98082408 51.68371744 -23.51269531 51.68327904 C-25.60219306 51.68219805 -27.69127406 51.66896479 -29.78070068 51.6526947 C-31.53527132 51.64634679 -31.53527132 51.64634679 -33.32528782 51.63987064 C-36.2455567 51.38588537 -37.90558736 51.0357395 -40.30229187 49.38095093 C-41.92515073 46.06146689 -42.51844602 44.24556754 -41.61479187 40.63095093 C-40.30229187 38.38095093 -40.30229187 38.38095093 -37.30229187 36.38095093 C-34.29960632 36.15390015 -34.29960632 36.15390015 -30.66557312 36.18563843 C-29.36684265 36.19208374 -28.06811218 36.19852905 -26.73002625 36.20516968 C-25.3582788 36.22188032 -23.98653401 36.23881021 -22.61479187 36.25595093 C-21.23133469 36.26598419 -19.8478706 36.27510944 -18.46440125 36.28329468 C-15.07685735 36.30690126 -11.68966115 36.33983056 -8.30229187 36.38095093 C-8.31800232 35.39699341 -8.33371277 34.41303589 -8.34989929 33.39926147 C-8.40420165 29.74846585 -8.43864272 26.09770592 -8.46708679 22.44662476 C-8.48217281 20.86648556 -8.50264437 19.28638824 -8.52861023 17.70639038 C-8.56500313 15.43504508 -8.58201949 13.16425334 -8.59526062 10.89266968 C-8.61074448 10.18631882 -8.62622833 9.47996796 -8.6421814 8.75221252 C-8.64385807 3.86515966 -8.64385807 3.86515966 -7.1123991 1.6941433 C-4.65086413 -0.09164535 -3.02880745 0.00357884 0 0 Z " fill="#203140" transform="translate(71.30229187011719,359.6190490722656)"/>
<path d="M0 0 C15.01310993 -0.04530208 30.02618439 -0.08207902 45.03934669 -0.10362434 C52.01160774 -0.11389805 58.98382303 -0.12788283 65.95605469 -0.15087891 C72.69285074 -0.1730877 79.42958958 -0.18459098 86.1664238 -0.18975449 C88.72824219 -0.19343121 91.29005818 -0.20061061 93.85185623 -0.21146011 C123.18263869 -0.33066541 151.24503402 3.27403273 173.91796875 23.73046875 C176.87366615 25.53272326 178.58431525 25.50790851 182 25 C184.33090454 23.57636869 186.31951581 22.18585447 188.4375 20.5 C206.77050048 6.79044291 226.86985926 -0.1887151 249.81030273 -0.11352539 C250.98175339 -0.11367142 252.15320404 -0.11381744 253.3601532 -0.1139679 C257.21798579 -0.11327328 261.07576963 -0.10550198 264.93359375 -0.09765625 C267.61401959 -0.09579047 270.29444276 -0.0943181 272.97486877 -0.09336853 C279.29993576 -0.09026724 285.62498535 -0.08207012 291.95004469 -0.07201904 C299.15442061 -0.06082049 306.35879739 -0.05533804 313.56317985 -0.05032361 C328.37546333 -0.03988645 343.18772815 -0.02155598 358 0 C358 7.26 358 14.52 358 22 C352.89229126 22.02187378 352.89229126 22.02187378 347.68139648 22.04418945 C336.38576537 22.09470011 325.09026499 22.16117711 313.79476833 22.23571491 C306.95149219 22.28048852 300.10826595 22.3199444 293.26489258 22.34643555 C286.65117825 22.37205316 280.03767097 22.41307989 273.42408943 22.46318626 C270.91058214 22.47977225 268.39703616 22.49133767 265.88348198 22.49761391 C237.61188036 22.5752986 214.79043824 26.65298179 193.32421875 46.6328125 C188.79757688 51.24314019 184.6131243 56.17604645 181.40234375 61.796875 C180.70818359 62.88742187 180.70818359 62.88742187 180 64 C179.34 64 178.68 64 178 64 C176.98323395 62.45354146 176.03882877 60.85942977 175.125 59.25 C163.27572792 40.24230169 144.28443079 29.48135884 122.87060547 24.45141602 C111.28355045 22.02399078 99.37665081 22.51795933 87.59765625 22.48828125 C85.06317795 22.47140856 82.52870788 22.45325489 79.99424744 22.43388367 C74.04488826 22.39146491 68.09555541 22.36179819 62.14609855 22.33856028 C55.36224555 22.31133294 48.57853064 22.26743386 41.79477704 22.22227156 C27.86324428 22.12988987 13.9317071 22.06019812 0 22 C0 14.74 0 7.48 0 0 Z " fill="#CBCBCB" transform="translate(77,374)"/>
<path d="M0 0 C8.63624487 1.75652438 15.60786074 11.52839489 21.64024353 17.57575989 C22.62380238 18.55816446 23.60757877 19.54035127 24.59155184 20.52234095 C27.27596212 23.20260047 29.95727368 25.88594079 32.63805449 28.56982982 C35.53663901 31.47068545 38.43811009 34.36865153 41.33920288 37.26699829 C47.01285789 42.93621591 52.68381747 48.60812232 58.35380232 54.28101037 C62.95988919 58.88935792 67.56695398 63.49672571 72.17471504 68.10339928 C72.83110301 68.75963402 73.48749099 69.41586875 74.1637695 70.09198939 C75.49723826 71.42513843 76.83070927 72.75828522 78.16418249 74.09142979 C90.65408313 86.57848194 103.14092192 99.06859226 115.62670935 111.55975702 C126.34681364 122.28433504 137.06954586 133.00627973 147.79418945 143.72631836 C160.25072312 156.17750593 172.70564011 168.63030695 185.15796381 181.08570498 C186.48430555 182.41236527 187.81064937 183.73902347 189.13699532 185.06567955 C189.78958884 185.71842735 190.44218236 186.37117514 191.11455144 187.04370317 C195.72039732 191.65041364 200.32740494 196.25596035 204.93485832 200.861063 C210.54263436 206.46604075 216.14863802 212.07278387 221.75234472 217.68183015 C224.6129684 220.54508946 227.47439971 223.40752944 230.3379879 226.26782417 C232.95575191 228.8826228 235.57122227 231.49969246 238.18483073 234.11864456 C239.58577785 235.5212494 240.98919899 236.92138177 242.39268726 238.32144386 C243.21530947 239.14667381 244.03793168 239.97190377 244.88548183 240.82214069 C245.60071528 241.53753649 246.31594872 242.25293229 247.05285591 242.99000674 C249.37187646 245.4868564 249.67029605 246.5980318 250.0625 250.0625 C249.6875 253.75 249.6875 253.75 247.625 256.6875 C244.6875 258.75 244.6875 258.75 241.375 259.5 C232.73875513 257.74347562 225.76713926 247.97160511 219.73475647 241.92424011 C218.75119762 240.94183554 217.76742123 239.95964873 216.78344816 238.97765905 C214.09903788 236.29739953 211.41772632 233.61405921 208.73694551 230.93017018 C205.83836099 228.02931455 202.93688991 225.13134847 200.03579712 222.23300171 C194.36214211 216.56378409 188.69118253 210.89187768 183.02119768 205.21898963 C178.41511081 200.61064208 173.80804602 196.00327429 169.20028496 191.39660072 C168.54389699 190.74036598 167.88750901 190.08413125 167.2112305 189.40801061 C165.87776174 188.07486157 164.54429073 186.74171478 163.21081751 185.40857021 C150.72091687 172.92151806 138.23407808 160.43140774 125.74829065 147.94024298 C115.02818636 137.21566496 104.30545414 126.49372027 93.58081055 115.77368164 C81.12427688 103.32249407 68.66935989 90.86969305 56.21703619 78.41429502 C54.89069445 77.08763473 53.56435063 75.76097653 52.23800468 74.43432045 C51.2591144 73.45519876 51.2591144 73.45519876 50.26044856 72.45629683 C45.65460268 67.84958636 41.04759506 63.24403965 36.44014168 58.638937 C30.83236564 53.03395925 25.22636198 47.42721613 19.62265528 41.81816985 C16.7620316 38.95491054 13.90060029 36.09247056 11.0370121 33.23217583 C8.41924809 30.6173772 5.80377773 28.00030754 3.19016927 25.38135544 C1.78922215 23.9787506 0.38580101 22.57861823 -1.01768726 21.17855614 C-1.84030947 20.35332619 -2.66293168 19.52809623 -3.51048183 18.67785931 C-4.22571528 17.96246351 -4.94094872 17.24706771 -5.67785591 16.50999326 C-7.99687646 14.0131436 -8.29529605 12.9019682 -8.6875 9.4375 C-8.3125 5.75 -8.3125 5.75 -6.25 2.8125 C-3.3125 0.75 -3.3125 0.75 0 0 Z " fill="#F86D84" transform="translate(106.3125,82.25)"/>
<path d="M0 0 C3.4576599 2.83035081 6.59295171 5.99317712 9.75610352 9.14526367 C11.30774845 10.68279168 12.88402786 12.19167183 14.46289062 13.70117188 C15.45215228 14.6780381 16.43983838 15.656503 17.42578125 16.63671875 C18.32723877 17.52061279 19.22869629 18.40450684 20.1574707 19.31518555 C22 22 22 22 21.84008789 25.18823242 C21.06989672 27.76605623 20.21458697 30.1670945 19.125 32.625 C13.24444874 47.09029763 11.72706829 62.81583196 16 78 C-4.03824399 77.58953318 -21.06387896 68.41802563 -35.33984375 54.76171875 C-45.51050075 44.13903255 -51.00620254 31.95257997 -55 18 C-55.20625 17.28585938 -55.4125 16.57171875 -55.625 15.8359375 C-56.29270332 12.56697331 -56.05543566 9.32613988 -56 6 C-54.81470703 6.24169922 -54.81470703 6.24169922 -53.60546875 6.48828125 C-38.23794896 8.66937019 -23.26766818 7.27493139 -9.1237793 0.94482422 C-3.59011295 -1.46380123 -3.59011295 -1.46380123 0 0 Z " fill="#FDBE31" transform="translate(100,117)"/>
<path d="M0 0 C3.01515994 1.78693246 5.7747496 3.82073595 8.55078125 5.94921875 C17.55880883 12.63703438 27.5417113 17.51373421 37.55078125 22.51171875 C38.19660156 22.83543457 38.84242188 23.15915039 39.5078125 23.49267578 C40.85466992 24.16728733 42.20256455 24.83982786 43.55078125 25.51171875 C42.02180549 29.12864648 39.87262492 31.43207095 37.10107422 34.18847656 C36.18027069 35.10912903 35.25946716 36.02978149 34.3107605 36.97833252 C33.3049366 37.97394405 32.29900345 38.96944523 31.29296875 39.96484375 C30.26405976 40.99002068 29.23559288 42.0156415 28.20755005 43.04168701 C25.50596544 45.73565039 22.79842784 48.42355243 20.08959961 51.11022949 C17.32433636 53.85500179 14.56475492 56.60547347 11.8046875 59.35546875 C6.39225851 64.74647448 0.97352687 70.13108839 -4.44921875 75.51171875 C-7.93100341 74.01952972 -10.16351214 72.03504574 -12.81884766 69.35327148 C-13.67298248 68.4957579 -14.52711731 67.63824432 -15.40713501 66.75474548 C-16.32078827 65.8276326 -17.23444153 64.90051971 -18.17578125 63.9453125 C-19.12883232 62.9859877 -20.08240259 62.02717844 -21.03646851 61.06886292 C-23.54208432 58.54996801 -26.04206532 56.02556071 -28.54046631 53.49951172 C-32.54516866 49.45162124 -36.55666712 45.41049291 -40.57139206 41.37254524 C-41.97305376 39.96065115 -43.37114581 38.5452162 -44.76919556 37.12974548 C-45.61702606 36.27538406 -46.46485657 35.42102264 -47.33837891 34.54077148 C-48.08576324 33.78513412 -48.83314758 33.02949677 -49.60317993 32.2509613 C-51.34238178 30.44520337 -51.34238178 30.44520337 -53.44921875 29.51171875 C-53.44921875 28.85171875 -53.44921875 28.19171875 -53.44921875 27.51171875 C-52.9073291 27.2914502 -52.36543945 27.07118164 -51.80712891 26.84423828 C-35.07465858 19.99128929 -18.74172875 12.81234784 -4.9296875 0.93359375 C-2.44921875 -0.48828125 -2.44921875 -0.48828125 0 0 Z " fill="#19CDB8" transform="translate(257.44921875,128.48828125)"/>
<path d="M0 0 C2.78307395 1.85997517 3.06483173 3.24998677 3.921875 6.5546875 C4.20192196 7.99401815 4.47773228 9.43417756 4.75 10.875 C7.10897791 21.93381306 11.51156204 33.13361547 21 40 C23.54695141 41.41540506 26.09979091 42.68375873 28.765625 43.859375 C31.02794262 45.01426442 32.41598381 46.02499247 34 48 C34.5 50.875 34.5 50.875 34 54 C30.09307849 59.12783448 24.70965322 61.49017797 18.87890625 63.86328125 C16.53281975 65.2826392 16.08675917 66.51597905 15 69 C14.05329569 70.34161526 13.09406198 71.67444372 12.125 73 C7.06648315 80.51374819 4.88803985 89.05824415 3.58984375 97.94140625 C2.87165928 100.44791762 2.09347031 101.4576974 0 103 C-1.9375 103.3984375 -1.9375 103.3984375 -4 103.375 C-5.0209375 103.38660156 -5.0209375 103.38660156 -6.0625 103.3984375 C-8.58978105 102.87871438 -9.35216888 101.96166414 -11 100 C-11.7043457 98.08984375 -11.7043457 98.08984375 -12.17578125 95.9375 C-12.36060059 95.14569336 -12.54541992 94.35388672 -12.73583984 93.53808594 C-12.9261377 92.70051758 -13.11643555 91.86294922 -13.3125 91 C-16.00060581 80.09561355 -19.72785918 69.99784213 -29 63 C-31.83422507 61.30417558 -34.69469434 59.74680906 -37.64453125 58.26171875 C-40 57 -40 57 -42 55 C-42.40189778 51.38292002 -42.6400671 48.98919461 -40.625 45.875 C-38.1747503 44.12482164 -35.91177833 43.00225579 -33.1875 41.75 C-23.63439002 37.10671159 -18.78543481 28.66657412 -15 19 C-13.94948133 15.48239213 -13.07622933 11.92962946 -12.29223633 8.34375 C-11.5633744 5.02214571 -10.91502316 2.87253474 -9 0 C-5.45026831 -1.1832439 -3.60040463 -0.90010116 0 0 Z " fill="#1E2F3F" transform="translate(409,198)"/>
<path d="M0 0 C3.59233429 2.25565177 4.65994729 3.77912782 5.80078125 7.875 C6.27730291 10.13248807 6.7457268 12.39169706 7.20703125 14.65234375 C9.59714029 24.74260702 15.5126983 33.61097126 24.37109375 39.08203125 C27.52921002 40.82600746 30.76505947 42.403906 34 44 C35.87264676 45.87264676 35.23607378 48.49759947 35.328125 50.9921875 C34.89618407 53.63525464 34.09906977 54.36483843 32 56 C30.42172808 56.84210722 28.81406135 57.63042967 27.1875 58.375 C17.75648144 63.01522539 12.61267519 69.24399142 8.83984375 79 C7.83814453 81.98605396 6.90202748 84.98245515 6 88 C5.46658727 89.73173064 4.92576845 91.46121084 4.375 93.1875 C4.15585938 93.90292969 3.93671875 94.61835938 3.7109375 95.35546875 C3 97 3 97 1 98 C-4.84923339 98.46422487 -4.84923339 98.46422487 -7 98 C-10.38428909 94.81715669 -10.90939153 90.74759699 -11.8125 86.375 C-14.52696923 74.49297282 -20.113522 66.25787339 -30.08984375 59.17578125 C-32.12197831 57.92491724 -34.17743994 57.0488401 -36.375 56.125 C-39.70652948 54.52405101 -39.89174234 54.29770856 -41.25 50.5625 C-40.93959025 46.13916113 -40.32124122 44.92585536 -37 42 C-34.80114725 40.93234896 -32.56231286 40.01057812 -30.3046875 39.07421875 C-21.81822801 35.1186656 -17.10795483 27.42539194 -13.80859375 18.93359375 C-12.35227012 14.63985728 -11.07598622 10.32483712 -9.9375 5.9375 C-8.16191495 0.37400017 -5.8560418 -0.93696669 0 0 Z " fill="#1E2E3E" transform="translate(107,239)"/>
<path d="M0 0 C6.77715965 5.5583674 12.88350353 11.75631661 19.05859375 17.9609375 C20.21422229 19.11843426 21.37007414 20.27570811 22.52613831 21.43276978 C25.54827738 24.45870218 28.56739953 27.48762697 31.58587646 30.51721191 C34.67455447 33.61617295 37.76611335 36.71225713 40.85742188 39.80859375 C46.90775098 45.86960394 52.95489193 51.93378247 59 58 C57.67005617 60.95265112 56.22220684 63.02350216 53.92724609 65.29980469 C53.30675385 65.92014587 52.6862616 66.54048706 52.04696655 67.17962646 C51.37920197 67.83706848 50.71143738 68.4945105 50.0234375 69.171875 C49.33819 69.8542926 48.6529425 70.53671021 47.94692993 71.23980713 C45.76094155 73.41461598 43.56809571 75.58236072 41.375 77.75 C39.89016745 79.2247999 38.40578694 80.70005506 36.921875 82.17578125 C33.2864709 85.78915448 29.64490176 89.39620853 26 93 C23 92 23 92 21.88427734 90.38720703 C7.80469114 61.78866234 -1.49542761 32.15169353 0 0 Z " fill="#19CDB8" transform="translate(160,178)"/>
<path d="M0 0 C1.3815918 1.40063477 1.3815918 1.40063477 3.01171875 3.37890625 C7.36007737 8.49124184 12.05800901 13.20493595 16.8125 17.9375 C17.67037109 18.79923828 18.52824219 19.66097656 19.41210938 20.54882812 C20.23130859 21.36673828 21.05050781 22.18464844 21.89453125 23.02734375 C22.63550049 23.76718506 23.37646973 24.50702637 24.13989258 25.26928711 C25.8940907 27.06448668 25.8940907 27.06448668 28 28 C26.44293677 32.05780114 23.57138624 34.42179194 20.3125 37.125 C19.46051025 37.83861694 19.46051025 37.83861694 18.59130859 38.56665039 C12.6276706 43.46240371 6.29312305 47.82010214 -0.24902344 51.90576172 C-1.44286526 52.65182963 -2.62296455 53.42023768 -3.79003906 54.20751953 C-6.54465822 55.9716544 -8.58350148 56.98415495 -11.875 57.109375 C-16.40072163 55.50274382 -20.06916532 52.97434087 -24 50.25 C-24.78117188 49.7240625 -25.56234375 49.198125 -26.3671875 48.65625 C-30.78781472 45.64962812 -34.9576741 42.49816664 -39 39 C-37.61222556 35.87734607 -35.99953492 33.74701311 -33.59179688 31.33300781 C-32.55061707 30.28237152 -32.55061707 30.28237152 -31.48840332 29.21051025 C-30.36492493 28.09310455 -30.36492493 28.09310455 -29.21875 26.953125 C-28.44946167 26.18192322 -27.68017334 25.41072144 -26.88757324 24.6161499 C-25.26263173 22.98984871 -23.63516701 21.36606524 -22.00537109 19.74462891 C-19.50254825 17.25253732 -17.01059437 14.74993408 -14.51953125 12.24609375 C-12.94074532 10.66862888 -11.36133939 9.09178423 -9.78125 7.515625 C-9.0322644 6.76259094 -8.28327881 6.00955688 -7.51159668 5.23370361 C-6.81747681 4.54588806 -6.12335693 3.85807251 -5.40820312 3.14941406 C-4.79690552 2.53970764 -4.18560791 1.93000122 -3.55578613 1.30181885 C-2 0 -2 0 0 0 Z " fill="#19CCB8" transform="translate(267,283)"/>
<path d="M0 0 C-1.03031022 26.27291068 -10.75804177 58.94752547 -27 80 C-27.66 80 -28.32 80 -29 80 C-30.43432617 78.54663086 -30.43432617 78.54663086 -32.10546875 76.52734375 C-35.96900155 71.98501456 -40.08588418 67.76561286 -44.3125 63.5625 C-45.38467773 62.48452148 -45.38467773 62.48452148 -46.47851562 61.38476562 C-47.16236328 60.70220703 -47.84621094 60.01964844 -48.55078125 59.31640625 C-49.16606689 58.70224854 -49.78135254 58.08809082 -50.4152832 57.45532227 C-51.95375267 55.90829075 -51.95375267 55.90829075 -54 55 C-52.42154913 51.18229652 -50.01217989 48.76465291 -47.10717773 45.86425781 C-46.61105988 45.36624161 -46.11494202 44.8682254 -45.60379028 44.3551178 C-43.96856528 42.71619858 -42.32627072 41.0845724 -40.68359375 39.453125 C-39.54505065 38.3157742 -38.40687717 37.17805328 -37.26905823 36.03997803 C-34.88728751 33.65976964 -32.5021991 31.28295439 -30.11450195 28.90869141 C-27.04689127 25.85811847 -23.98595316 22.80095545 -20.92722988 19.74147415 C-18.57960805 17.3941235 -16.22939492 15.04938234 -13.87828255 12.70552826 C-12.74810616 11.57854332 -11.61854259 10.45094349 -10.4895916 9.32273102 C-8.91670712 7.75200234 -7.34058219 6.18460368 -5.76342773 4.61816406 C-4.41679298 3.27724701 -4.41679298 3.27724701 -3.04295349 1.90924072 C-1 0 -1 0 0 0 Z " fill="#19CBB7" transform="translate(352,197)"/>
<path d="M0 0 C3.90432869 1.95216435 6.03839944 3.87386607 9 7 C7.55802042 10.30027875 5.77180823 12.47555514 3.22885132 15.01165771 C2.44358566 15.7996727 1.65832001 16.58768768 0.84925842 17.39958191 C-0.01316971 18.25481949 -0.87559784 19.11005707 -1.76416016 19.99121094 C-2.67153427 20.89887711 -3.57890839 21.80654327 -4.51377869 22.74171448 C-6.99879203 25.22730138 -9.48992124 27.70667578 -11.98219347 30.18498135 C-14.58695014 32.77723116 -17.18603998 35.37515004 -19.78573608 37.97247314 C-24.70803215 42.88855432 -29.63540403 47.79951523 -34.56461942 52.7086575 C-40.17672601 58.2984054 -45.78315115 63.89383688 -51.38910604 69.48975325 C-62.91976028 80.99950528 -74.45752914 92.50209796 -86 104 C-87.12894876 103.06725891 -88.25300876 102.12859878 -89.375 101.1875 C-90.00148438 100.66542969 -90.62796875 100.14335937 -91.2734375 99.60546875 C-93 98 -93 98 -95 95 C-63.65 63.65 -32.3 32.3 0 0 Z " fill="#FCBD31" transform="translate(375,137)"/>
<path d="M0 0 C1.12894876 0.93274109 2.25300876 1.87140122 3.375 2.8125 C4.00148438 3.33457031 4.62796875 3.85664062 5.2734375 4.39453125 C7 6 7 6 9 9 C-22.35 40.35 -53.7 71.7 -86 104 C-89.90432869 102.04783565 -92.03839944 100.12613393 -95 97 C-93.55802042 93.69972125 -91.77180823 91.52444486 -89.22885132 88.98834229 C-88.44358566 88.2003273 -87.65832001 87.41231232 -86.84925842 86.60041809 C-85.98683029 85.74518051 -85.12440216 84.88994293 -84.23583984 84.00878906 C-83.32846573 83.10112289 -82.42109161 82.19345673 -81.48622131 81.25828552 C-79.00120797 78.77269862 -76.51007876 76.29332422 -74.01780653 73.81501865 C-71.41304986 71.22276884 -68.81396002 68.62484996 -66.21426392 66.02752686 C-61.29196785 61.11144568 -56.36459597 56.20048477 -51.43538058 51.2913425 C-45.82327399 45.7015946 -40.21684885 40.10616312 -34.61089396 34.51024675 C-23.08023972 23.00049472 -11.54247086 11.49790204 0 0 Z " fill="#FCBD31" transform="translate(357,118)"/>
<path d="M0 0 C3.76488042 1.72154788 6.15063897 3.99234114 9 7 C7.35606624 11.21592931 4.23644614 14.03022614 1.08154297 17.14550781 C0.47652954 17.75081329 -0.12848389 18.35611877 -0.75183105 18.97976685 C-2.74911999 20.9756645 -4.75339558 22.96438799 -6.7578125 24.953125 C-8.14544502 26.33702668 -9.5326361 27.72137112 -10.91940308 29.10614014 C-14.567926 32.7470322 -18.22241552 36.38187778 -21.87817383 40.01550293 C-25.60859789 43.72545688 -29.33335643 47.44108927 -33.05859375 51.15625 C-40.36685747 58.44307344 -47.68143616 65.72352265 -55 73 C-57.01822252 66.11951296 -54.55173354 59.26914984 -51.6986084 52.93597412 C-45.56441352 42.33327286 -35.21188441 33.8825362 -26.40991211 25.51727295 C-23.4093617 22.65144155 -20.44679103 19.74687454 -17.48046875 16.84570312 C-11.68940158 11.192671 -5.85873657 5.58286771 0 0 Z " fill="#FCBD31" transform="translate(228,247)"/>
<path d="M0 0 C2.31 1.98 4.62 3.96 7 6 C7.99 6.495 7.99 6.495 9 7 C7.472827 10.55216978 5.37010516 12.95647734 2.71582031 15.74926758 C1.8259845 16.68736771 0.93614868 17.62546783 0.01934814 18.59199524 C-4.11383277 22.89245777 -8.27503059 27.16537523 -12.45019531 31.42504883 C-14.63533384 33.65875852 -16.79787192 35.9111082 -18.94238281 38.18383789 C-43.79750479 64.48931863 -43.79750479 64.48931863 -63 66 C-63.66 65.67 -64.32 65.34 -65 65 C-43.55 43.55 -22.1 22.1 0 0 Z " fill="#FCBD31" transform="translate(247,265)"/>
<path d="M0 0 C4 2 4 2 10 9 C-2.87 21.87 -15.74 34.74 -29 48 C-36 42 -36 42 -38 38 C-25.46 25.46 -12.92 12.92 0 0 Z " fill="#F8BB31" transform="translate(430,63)"/>
<path d="M0 0 C3.7998095 1.5787189 6.24222178 3.97021463 9.15161133 6.84521484 C9.90104507 7.58216331 9.90104507 7.58216331 10.6656189 8.33399963 C12.30988003 9.95422883 13.9464399 11.58195955 15.58203125 13.2109375 C16.72206651 14.34200575 17.8621789 15.47299627 19.00236511 16.60391235 C21.38738548 18.97246189 23.76799358 21.34535338 26.14624023 23.72070312 C29.19909631 26.7681579 32.26780373 29.79910468 35.34065723 32.82637596 C37.69874375 35.15478148 40.04555772 37.4942991 42.38934898 39.83708572 C43.51643575 40.95995728 44.64765787 42.07869342 45.78299904 43.19321823 C47.36581192 44.74928529 48.93217217 46.320251 50.49536133 47.89599609 C51.39152664 48.78709076 52.28769196 49.67818542 53.21101379 50.59628296 C55 53 55 53 54.87919617 55.20962524 C53.87779552 57.24885438 52.70723594 58.51544701 51 60 C47.13533667 58.41219641 44.69940845 55.94066771 41.77246094 52.99951172 C41.26469116 52.492034 40.75692139 51.98455627 40.23376465 51.46170044 C38.56251491 49.78906131 36.89845444 48.10945783 35.234375 46.4296875 C34.07467623 45.26625722 32.91453408 44.10326874 31.75396729 42.94070435 C28.70490648 39.884018 25.66190037 36.82137256 22.62011719 33.75744629 C19.51340087 30.63024835 16.40099455 27.50872493 13.2890625 24.38671875 C7.18712583 18.2633512 1.09157402 12.1336764 -5 6 C-3.35 4.02 -1.7 2.04 0 0 Z " fill="#19C5B2" transform="translate(358,89)"/>
<path d="M0 0 C0.66 0 1.32 0 2 0 C3.33203125 1.9765625 3.33203125 1.9765625 4.8125 4.625 C8.23377674 10.51858622 12.07806047 15.26035453 17 20 C16.50371094 20.37769531 16.00742187 20.75539062 15.49609375 21.14453125 C9.54948398 25.96275207 5.81496482 31.40726393 2 38 C-1.59103005 36.80298998 -1.98322593 35.88098551 -3.9375 32.75 C-7.20862139 27.6535121 -10.69434129 23.2609942 -15 19 C-14.12988281 18.19949219 -14.12988281 18.19949219 -13.2421875 17.3828125 C-8.22108313 12.59370636 -4.46484882 7.99830677 -1.19140625 1.87109375 C-0.79824219 1.25363281 -0.40507812 0.63617188 0 0 Z " fill="#F46C83" transform="translate(404,230)"/>
<path d="M0 0 C1.92562173 2.38777094 3.835475 4.78203301 5.68359375 7.23046875 C6.58271484 8.41576172 6.58271484 8.41576172 7.5 9.625 C8.35078125 10.75808594 8.35078125 10.75808594 9.21875 11.9140625 C10.98497182 13.98240121 12.76680476 15.46222959 15 17 C13.45427531 20.61783129 11.2422777 23.08171063 8.5625 25.9375 C5.56820342 29.12911431 3.13044623 32.17067704 1 36 C-2.43777326 32.68258642 -5.26194545 29.13081524 -8.12109375 25.31640625 C-10.2507144 22.6909072 -12.57801106 20.35551927 -15 18 C-14.00419922 17.05640625 -14.00419922 17.05640625 -12.98828125 16.09375 C-7.77857747 11.04375977 -3.52634456 6.34742021 0 0 Z " fill="#F46C83" transform="translate(104,270)"/>
</svg>
