<?xml version="1.0" encoding="UTF-8"?>
<svg version="1.1" xmlns="http://www.w3.org/2000/svg" width="512" height="512">
<path d="M0 0 C1.0094165 -0.0112793 2.01883301 -0.02255859 3.05883789 -0.03417969 C4.16026123 -0.02608276 5.26168457 -0.01798584 6.39648438 -0.00964355 C7.56107178 -0.01665283 8.72565918 -0.02366211 9.92553711 -0.03088379 C13.78067771 -0.04850975 17.63508612 -0.03682384 21.49023438 -0.02331543 C24.1653739 -0.026009 26.84049107 -0.02988396 29.515625 -0.03491211 C35.12442987 -0.0421874 40.733024 -0.03260414 46.34179688 -0.0135498 C52.82441344 0.008219 59.30652679 0.00116752 65.78913116 -0.02085543 C71.35700027 -0.03901302 76.92471797 -0.04156609 82.49260712 -0.03110075 C85.81719107 -0.02486765 89.14148689 -0.02559741 92.46606445 -0.0372467 C96.17238595 -0.04738291 99.87773545 -0.03195028 103.58398438 -0.00964355 C104.68540771 -0.01774048 105.78683105 -0.0258374 106.92163086 -0.03417969 C108.43575562 -0.01726074 108.43575562 -0.01726074 109.98046875 0 C110.85650757 0.0015081 111.73254639 0.0030162 112.63513184 0.00457001 C115.77333634 0.67530978 116.97714256 2.06695075 118.99023438 4.50793457 C120.62640698 8.94509502 119.6134988 13.23340413 118.81054688 17.76574707 C118.67832733 18.55061493 118.54610779 19.33548279 118.40988159 20.14413452 C118.12978943 21.79719848 117.84545061 23.44954782 117.55712891 25.10119629 C117.11576964 27.62986788 116.68661895 30.16037162 116.25976562 32.69152832 C115.98573118 34.29972155 115.71101492 35.90779878 115.43554688 37.51574707 C115.30632843 38.272034 115.17710999 39.02832092 115.04397583 39.80752563 C114.52036241 42.79936399 113.95236567 45.62154068 112.99023438 48.50793457 C113.73789062 48.44992676 114.48554688 48.39191895 115.25585938 48.33215332 C123.26655016 47.96517141 123.26655016 47.96517141 126.74023438 50.57043457 C128.5593752 54.84541551 127.78469399 58.28370393 126.23339844 62.62683105 C125.26411607 64.9959868 124.25535257 67.34557251 123.24023438 69.69543457 C114.06825828 91.91067538 110.67039519 114.58851165 112.99023438 138.50793457 C114.00859375 138.94621582 115.02695312 139.38449707 116.07617188 139.83605957 C150.57250906 155.11418644 178.65633401 181.89487646 193.99023438 216.50793457 C194.40329834 217.43122559 194.40329834 217.43122559 194.82470703 218.37316895 C198.02665796 225.63787256 200.57055115 233.0071005 202.74023438 240.63293457 C202.9389917 241.32435547 203.13774902 242.01577637 203.3425293 242.72814941 C206.62986301 254.84887148 207.39870089 266.95414059 207.36523438 279.44543457 C207.36441864 280.5955452 207.36441864 280.5955452 207.36358643 281.76889038 C207.22823256 323.42810339 191.08663213 358.25422657 162.99023438 388.50793457 C162.43980469 389.11250488 161.889375 389.7170752 161.32226562 390.33996582 C139.73923781 413.09540502 107.65319301 427.11302319 76.99023438 431.50793457 C75.7965625 431.69098145 74.60289062 431.87402832 73.37304688 432.06262207 C33.68332014 436.85119596 -7.00645003 425.84597645 -38.43481445 401.24572754 C-67.20092038 378.22390228 -88.13929686 347.09860263 -95.00976562 310.50793457 C-95.27358032 309.14305908 -95.27358032 309.14305908 -95.54272461 307.75061035 C-97.02146355 299.30161286 -97.35052669 291.05754946 -97.32543945 282.50744629 C-97.32228834 280.27403431 -97.34581076 278.04196466 -97.37109375 275.80871582 C-97.43281712 261.9789781 -95.39441427 248.67147439 -91.25976562 235.44543457 C-90.87461792 234.19693726 -90.87461792 234.19693726 -90.48168945 232.92321777 C-78.36066376 194.7593026 -51.18255648 162.8045258 -15.69482422 144.30090332 C-11.52208502 142.23777129 -7.29413903 140.32671192 -3.00976562 138.50793457 C-0.69494717 112.60699299 -4.17275339 85.83594031 -16.08789062 62.3861084 C-17.67078765 59.16120723 -17.55500857 56.00896824 -17.00976562 52.50793457 C-15.63476562 50.00793457 -15.63476562 50.00793457 -13.00976562 48.50793457 C-10.56591797 48.3614502 -10.56591797 48.3614502 -7.84570312 48.41418457 C-6.48904541 48.4344873 -6.48904541 48.4344873 -5.10498047 48.4552002 C-4.06784912 48.48130371 -4.06784912 48.48130371 -3.00976562 48.50793457 C-3.12046387 47.93462402 -3.23116211 47.36131348 -3.34521484 46.77062988 C-4.41651373 41.21236113 -5.47548341 35.65189174 -6.52246094 30.08898926 C-6.91665879 28.00108362 -7.31763469 25.91445841 -7.72070312 23.82824707 C-10.16621013 10.46656388 -10.16621013 10.46656388 -9.00976562 4.50793457 C-6.18331325 1.02088317 -4.4710261 0.00769688 0 0 Z " fill="#E5E4E4" transform="translate(209.009765625,39.4920654296875)"/>
<path d="M0 0 C1.11632812 0.07734375 2.23265625 0.1546875 3.3828125 0.234375 C20.29514956 1.88244497 34.59853171 10.20631342 49.02734375 18.56640625 C55.0370381 22.04393157 61.11507065 25.37402467 67.25 28.625 C68.16547607 29.12153076 69.08095215 29.61806152 70.02416992 30.12963867 C83.26126059 37.09379837 96.29644233 39.15253258 110.83203125 35.015625 C119.84547689 32.12598768 128.42655017 28.7931842 136.96875 24.71875 C137.58540527 24.42600189 138.20206055 24.13325378 138.83740234 23.83163452 C141.95385137 22.34953539 145.0594649 20.84953051 148.15234375 19.31884766 C159.5990581 13.81083419 159.5990581 13.81083419 166 15 C176.23520079 22.12090038 179.66386843 41.47195376 182 53 C186.55774843 81.94315405 180.32525587 110.66759482 164 135 C160.37272727 139.81363636 160.37272727 139.81363636 158 141 C156.45386986 140.91348369 154.91090613 140.75997364 153.375 140.5625 C152.55773437 140.46066406 151.74046875 140.35882813 150.8984375 140.25390625 C150.27195312 140.17011719 149.64546875 140.08632813 149 140 C148.731875 140.59296875 148.46375 141.1859375 148.1875 141.796875 C146.99512205 144.00904989 145.77821744 145.48956473 144 147.25 C143.2265625 148.03117187 143.2265625 148.03117187 142.4375 148.828125 C141 150 141 150 139 150 C139.13019531 150.59167969 139.26039063 151.18335938 139.39453125 151.79296875 C139.53246094 152.58316406 139.67039062 153.37335938 139.8125 154.1875 C139.96332031 154.96480469 140.11414063 155.74210938 140.26953125 156.54296875 C139.8559395 160.31324714 137.82781271 161.59539735 135 164 C110.72275696 181.68770565 81.82273295 185.64443364 52.5 182.375 C24.40939783 177.35263586 -1.10935406 161.37895689 -18.25 138.625 C-35.84375673 113.16709006 -44.27788364 82.70002197 -39.28125 51.75 C-35.96981451 34.86167902 -28.60087199 13.99072117 -16.33984375 1.4140625 C-11.26618062 -1.65215795 -5.66183295 -0.64638262 0 0 Z " fill="#E03347" transform="translate(193,248)"/>
<path d="M0 0 C1.0094165 -0.0112793 2.01883301 -0.02255859 3.05883789 -0.03417969 C4.16026123 -0.02608276 5.26168457 -0.01798584 6.39648438 -0.00964355 C7.56107178 -0.01665283 8.72565918 -0.02366211 9.92553711 -0.03088379 C13.78067771 -0.04850975 17.63508612 -0.03682384 21.49023438 -0.02331543 C24.1653739 -0.026009 26.84049107 -0.02988396 29.515625 -0.03491211 C35.12442987 -0.0421874 40.733024 -0.03260414 46.34179688 -0.0135498 C52.82441344 0.008219 59.30652679 0.00116752 65.78913116 -0.02085543 C71.35700027 -0.03901302 76.92471797 -0.04156609 82.49260712 -0.03110075 C85.81719107 -0.02486765 89.14148689 -0.02559741 92.46606445 -0.0372467 C96.17238595 -0.04738291 99.87773545 -0.03195028 103.58398438 -0.00964355 C104.68540771 -0.01774048 105.78683105 -0.0258374 106.92163086 -0.03417969 C108.43575562 -0.01726074 108.43575562 -0.01726074 109.98046875 0 C110.85650757 0.0015081 111.73254639 0.0030162 112.63513184 0.00457001 C115.77333634 0.67530978 116.97714256 2.06695075 118.99023438 4.50793457 C120.62640698 8.94509502 119.6134988 13.23340413 118.81054688 17.76574707 C118.67832733 18.55061493 118.54610779 19.33548279 118.40988159 20.14413452 C118.12978943 21.79719848 117.84545061 23.44954782 117.55712891 25.10119629 C117.11576964 27.62986788 116.68661895 30.16037162 116.25976562 32.69152832 C115.98573118 34.29972155 115.71101492 35.90779878 115.43554688 37.51574707 C115.30632843 38.272034 115.17710999 39.02832092 115.04397583 39.80752563 C114.52036241 42.79936399 113.95236567 45.62154068 112.99023438 48.50793457 C113.73789062 48.44992676 114.48554688 48.39191895 115.25585938 48.33215332 C123.26655016 47.96517141 123.26655016 47.96517141 126.74023438 50.57043457 C128.5593752 54.84541551 127.78469399 58.28370393 126.23339844 62.62683105 C125.26411607 64.9959868 124.25535257 67.34557251 123.24023438 69.69543457 C114.06825828 91.91067538 110.67039519 114.58851165 112.99023438 138.50793457 C114.00859375 138.94621582 115.02695312 139.38449707 116.07617188 139.83605957 C150.57250906 155.11418644 178.65633401 181.89487646 193.99023438 216.50793457 C194.40329834 217.43122559 194.40329834 217.43122559 194.82470703 218.37316895 C198.02665796 225.63787256 200.57055115 233.0071005 202.74023438 240.63293457 C202.9389917 241.32435547 203.13774902 242.01577637 203.3425293 242.72814941 C206.62986301 254.84887148 207.39870089 266.95414059 207.36523438 279.44543457 C207.36441864 280.5955452 207.36441864 280.5955452 207.36358643 281.76889038 C207.22823256 323.42810339 191.08663213 358.25422657 162.99023438 388.50793457 C162.43980469 389.11250488 161.889375 389.7170752 161.32226562 390.33996582 C139.73923781 413.09540502 107.65319301 427.11302319 76.99023438 431.50793457 C75.7965625 431.69098145 74.60289062 431.87402832 73.37304688 432.06262207 C33.68332014 436.85119596 -7.00645003 425.84597645 -38.43481445 401.24572754 C-67.20092038 378.22390228 -88.13929686 347.09860263 -95.00976562 310.50793457 C-95.27358032 309.14305908 -95.27358032 309.14305908 -95.54272461 307.75061035 C-97.02146355 299.30161286 -97.35052669 291.05754946 -97.32543945 282.50744629 C-97.32228834 280.27403431 -97.34581076 278.04196466 -97.37109375 275.80871582 C-97.43281712 261.9789781 -95.39441427 248.67147439 -91.25976562 235.44543457 C-90.87461792 234.19693726 -90.87461792 234.19693726 -90.48168945 232.92321777 C-78.36066376 194.7593026 -51.18255648 162.8045258 -15.69482422 144.30090332 C-11.52208502 142.23777129 -7.29413903 140.32671192 -3.00976562 138.50793457 C-0.69494717 112.60699299 -4.17275339 85.83594031 -16.08789062 62.3861084 C-17.67078765 59.16120723 -17.55500857 56.00896824 -17.00976562 52.50793457 C-15.63476562 50.00793457 -15.63476562 50.00793457 -13.00976562 48.50793457 C-10.56591797 48.3614502 -10.56591797 48.3614502 -7.84570312 48.41418457 C-6.48904541 48.4344873 -6.48904541 48.4344873 -5.10498047 48.4552002 C-4.06784912 48.48130371 -4.06784912 48.48130371 -3.00976562 48.50793457 C-3.12046387 47.93462402 -3.23116211 47.36131348 -3.34521484 46.77062988 C-4.41651373 41.21236113 -5.47548341 35.65189174 -6.52246094 30.08898926 C-6.91665879 28.00108362 -7.31763469 25.91445841 -7.72070312 23.82824707 C-10.16621013 10.46656388 -10.16621013 10.46656388 -9.00976562 4.50793457 C-6.18331325 1.02088317 -4.4710261 0.00769688 0 0 Z M3.99023438 64.50793457 C4.75636505 68.33858792 5.66450362 71.75481641 6.86523438 75.44543457 C9.02354434 82.39738225 10.65862378 89.35348237 11.99023438 96.50793457 C12.19777344 97.57527832 12.4053125 98.64262207 12.61914062 99.74230957 C14.05336382 108.44794406 14.19751577 117.07378815 14.24023438 125.88293457 C14.24949951 127.08385742 14.25876465 128.28478027 14.26831055 129.52209473 C14.21039961 145.84389439 14.21039961 145.84389439 10.61889648 150.15344238 C8.01785149 152.31662596 4.90736532 153.37383013 1.80273438 154.63293457 C-10.86283399 159.99166726 -22.66307836 166.35577147 -33.00976562 175.50793457 C-33.86183594 176.25172363 -34.71390625 176.9955127 -35.59179688 177.76184082 C-38.09477587 179.9796228 -40.55717398 182.23469912 -43.00976562 184.50793457 C-43.60273438 185.03516113 -44.19570312 185.5623877 -44.80664062 186.10559082 C-67.77335602 207.4865092 -80.9396812 241.26246381 -82.49023438 272.05480957 C-83.58465329 310.34754985 -72.08709957 345.22728528 -46.00976562 373.50793457 C-44.79160156 374.83244629 -44.79160156 374.83244629 -43.54882812 376.18371582 C-24.23408149 396.27980334 0.98027961 408.60496818 27.99023438 414.50793457 C28.8269165 414.69484863 29.66359863 414.8817627 30.52563477 415.07434082 C64.493794 422.01737182 100.64522206 413.214456 129.36523438 394.50793457 C131.25340607 393.1933204 133.12931201 391.86084652 134.99023438 390.50793457 C135.80492187 389.91754395 136.61960937 389.32715332 137.45898438 388.71887207 C160.58352241 371.07514987 176.74542749 347.31789296 184.99023438 319.50793457 C185.23290039 318.72450684 185.47556641 317.9410791 185.72558594 317.13391113 C189.34320897 305.11806441 190.44690422 293.43277946 190.42773438 280.94543457 C190.42795593 280.27301727 190.42817749 279.60059998 190.42840576 278.9078064 C190.29399671 240.68947011 174.60300746 207.5403785 147.76049805 180.85168457 C141.65639579 174.97268607 135.08632502 170.11386334 127.99023438 165.50793457 C127.17683594 164.96008301 126.3634375 164.41223145 125.52539062 163.84777832 C119.41847812 159.93309081 112.84306527 157.13822816 106.14550781 154.39807129 C98.78515718 151.292578 98.78515718 151.292578 96.99023438 147.50793457 C96.110544 142.9013117 96.12074922 138.18926921 95.99023438 133.50793457 C95.96300293 132.69405273 95.93577148 131.8801709 95.90771484 131.04162598 C95.29041556 110.30580526 98.13974839 91.43765165 104.37353516 71.67004395 C105.04484471 69.31647412 105.51025251 66.90784391 105.99023438 64.50793457 C72.33023438 64.50793457 38.67023438 64.50793457 3.99023438 64.50793457 Z " fill="#42220C" transform="translate(209.009765625,39.4920654296875)"/>
<path d="M0 0 C1.11632812 0.07734375 2.23265625 0.1546875 3.3828125 0.234375 C20.29514956 1.88244497 34.59853171 10.20631342 49.02734375 18.56640625 C55.0370381 22.04393157 61.11507065 25.37402467 67.25 28.625 C68.16547607 29.12153076 69.08095215 29.61806152 70.02416992 30.12963867 C83.26126059 37.09379837 96.29644233 39.15253258 110.83203125 35.015625 C119.84547689 32.12598768 128.42655017 28.7931842 136.96875 24.71875 C137.58540527 24.42600189 138.20206055 24.13325378 138.83740234 23.83163452 C141.95385137 22.34953539 145.0594649 20.84953051 148.15234375 19.31884766 C159.5990581 13.81083419 159.5990581 13.81083419 166 15 C176.23520079 22.12090038 179.66386843 41.47195376 182 53 C186.55774843 81.94315405 180.32525587 110.66759482 164 135 C160.37272727 139.81363636 160.37272727 139.81363636 158 141 C153.94736402 141.54035146 152.46269769 141.34199395 149.125 138.875 C146.58276779 135.43550936 146.55891462 134.18252725 147 130 C148.35546875 127.359375 148.35546875 127.359375 150.1875 124.75 C153.60366939 119.6706047 156.40837704 114.53839425 159 109 C159.53625 107.906875 160.0725 106.81375 160.625 105.6875 C168.67420408 84.10099814 168.27476579 59.38508732 159.76953125 38.07421875 C159 36 159 36 159 34 C158.21987549 34.36762451 157.43975098 34.73524902 156.63598633 35.11401367 C153.67607648 36.50615334 150.71428281 37.89413054 147.7512207 39.27954102 C146.48126561 39.87429772 145.2120307 40.47059519 143.94360352 41.06860352 C123.25050964 50.82052132 101.09903093 60.02593575 78.00390625 53.14453125 C66.98563717 48.94641312 56.81611276 42.81776848 46.5625 37.0625 C45.48339355 36.45704346 44.40428711 35.85158691 43.29248047 35.2277832 C34.7361214 30.42188157 34.7361214 30.42188157 31.47558594 28.55322266 C19.15618051 21.49746791 7.48667107 16.63183046 -7 17 C-21.77934097 41.79115259 -28.2026899 66.97809942 -21.26171875 95.453125 C-14.67411172 120.21542264 0.47400463 141.20772238 22.69140625 154.1875 C33.21314442 159.95147463 43.34532724 163.48599426 55 166 C56.15628906 166.29003906 56.15628906 166.29003906 57.3359375 166.5859375 C83.32569331 170.62540101 106.33022159 162.6496469 128 149 C128.33 148.67 128.66 148.34 129 148 C133.03199561 147.45018242 134.55532291 147.67132563 137.875 150.125 C140 153 140 153 140.625 156 C139.61853715 160.83102166 136.14581253 163.16519373 132.265625 165.9921875 C107.22709007 181.62505516 78.57873866 187.03765981 49.33203125 181.80859375 C18.36605175 174.29398911 -7.14683701 156.76506079 -24.08984375 129.65625 C-38.60802647 105.56682089 -44.66192575 74.85980571 -38.3125 47.1875 C-33.27612163 27.08679415 -24.31593671 -2.7760266 0 0 Z " fill="#44230D" transform="translate(193,248)"/>
<path d="M0 0 C14.67436545 -0.34380835 26.48845993 7.08756118 39 14 C39.7233252 14.39944824 40.44665039 14.79889648 41.19189453 15.21044922 C47.04200476 18.45414225 52.88093876 21.71559031 58.61328125 25.1640625 C75.60902537 35.31130067 93.7454147 40.38587266 113.375 35.5 C126.96341868 31.37701826 140.05446216 25.66760721 152.79638672 19.43847656 C157.80717365 17 157.80717365 17 160 17 C169.62890606 39.56893791 171.08186052 63.59493194 163 87 C162.78899658 87.70656738 162.57799316 88.41313477 162.3605957 89.14111328 C160.65072964 93.96561085 158.94930977 96.48890483 154.40234375 98.9609375 C152.59435851 99.7957974 150.77195211 100.60002444 148.9375 101.375 C148.04611328 101.78621094 147.15472656 102.19742188 146.23632812 102.62109375 C132.52839055 108.76841687 118.00216973 111.54116043 103 111 C103.04640625 110.0821875 103.0928125 109.164375 103.140625 108.21875 C103.38989077 99.74371388 103.31036807 93.6624526 97.421875 87.29296875 C91.27074095 81.59901359 85.06508759 79.37431301 76.70703125 79.66015625 C69.46798252 80.56895458 64.95385484 84.37792225 60.41015625 89.89453125 C58.40919471 92.88211649 57.65977644 95.48119235 57 99 C52.00283576 97.60261669 48.30083419 95.45709525 44.125 92.5 C43.53203125 92.09652344 42.9390625 91.69304687 42.328125 91.27734375 C40.84431436 90.24141143 39.4163772 89.12637712 38 88 C38 87.34 38 86.68 38 86 C38.58007812 85.72027344 39.16015625 85.44054687 39.7578125 85.15234375 C46.63369693 81.62363078 51.36517673 77.93843789 54.375 70.6875 C55.57468845 63.60933812 56.0724249 57.29379144 52.39453125 50.88671875 C48.13112766 45.11858448 43.1988453 41.1170622 36 40 C29.1524252 39.29163019 23.61808015 39.78354397 18 44 C15.47053534 46.52464663 13.19125152 49.17876367 11 52 C7.72363107 48.31286243 6.44056021 44.16795696 4.9375 39.5625 C4.54280518 38.35315796 4.54280518 38.35315796 4.14013672 37.11938477 C0.21605308 24.71696202 -0.2778758 12.89034969 0 0 Z " fill="#FD5E6A" transform="translate(192,265)"/>
<path d="M0 0 C0.87269531 -0.0038269 1.74539062 -0.00765381 2.64453125 -0.01159668 C4.48699092 -0.0143149 6.32948924 -0.00695994 8.171875 0.00976562 C10.99045934 0.03117752 13.80649485 0.00996199 16.625 -0.015625 C18.41667229 -0.01298171 20.20834299 -0.00785669 22 0 C22.84175781 -0.00809692 23.68351562 -0.01619385 24.55078125 -0.02453613 C28.23678226 0.03447156 30.38674502 0.13837984 33.53808594 2.15722656 C35.46937991 5.29348283 35.45738155 7.3752646 35.390625 11.046875 C35.37773438 12.29726562 35.36484375 13.54765625 35.3515625 14.8359375 C35.31804687 16.13789062 35.28453125 17.43984375 35.25 18.78125 C35.23195313 20.09867188 35.21390625 21.41609375 35.1953125 22.7734375 C35.14816271 26.02677308 35.08236044 29.27864625 35 32.53125 C35.82725586 32.51030273 36.65451172 32.48935547 37.50683594 32.46777344 C41.2544337 32.38463381 45.00183749 32.33259469 48.75 32.28125 C50.05195313 32.24773437 51.35390625 32.21421875 52.6953125 32.1796875 C53.94570312 32.16679687 55.19609375 32.15390625 56.484375 32.140625 C57.63647461 32.11967773 58.78857422 32.09873047 59.97558594 32.07714844 C63 32.53125 63 32.53125 65.37402344 33.99316406 C67.79154944 37.76682778 67.57354476 41.13427844 67.53125 45.53125 C67.53699036 46.84029297 67.53699036 46.84029297 67.54284668 48.17578125 C67.5455649 50.01824092 67.53820994 51.86073924 67.52148438 53.703125 C67.50007248 56.52170934 67.52128801 59.33774485 67.546875 62.15625 C67.54423171 63.94792229 67.53910669 65.73959299 67.53125 67.53125 C67.53934692 68.37300781 67.54744385 69.21476562 67.55578613 70.08203125 C67.49677844 73.76803226 67.39287016 75.91799502 65.37402344 79.06933594 C62.23776717 81.00062991 60.1559854 80.98863155 56.484375 80.921875 C55.23398438 80.90898437 53.98359375 80.89609375 52.6953125 80.8828125 C51.39335937 80.84929687 50.09140625 80.81578125 48.75 80.78125 C47.43257813 80.76320313 46.11515625 80.74515625 44.7578125 80.7265625 C41.50447692 80.67941271 38.25260375 80.61361044 35 80.53125 C35.0314209 81.77213379 35.0314209 81.77213379 35.06347656 83.03808594 C35.14661619 86.7856837 35.19865531 90.53308749 35.25 94.28125 C35.28351563 95.58320313 35.31703125 96.88515625 35.3515625 98.2265625 C35.37089844 100.10214844 35.37089844 100.10214844 35.390625 102.015625 C35.4220459 103.74377441 35.4220459 103.74377441 35.45410156 105.50683594 C35 108.53125 35 108.53125 33.53808594 110.90527344 C29.76442222 113.32279944 26.39697156 113.10479476 22 113.0625 C21.12730469 113.0663269 20.25460938 113.07015381 19.35546875 113.07409668 C17.51300908 113.0768149 15.67051076 113.06945994 13.828125 113.05273438 C11.00954066 113.03132248 8.19350515 113.05253801 5.375 113.078125 C3.58332771 113.07548171 1.79165701 113.07035669 0 113.0625 C-1.26263672 113.07464539 -1.26263672 113.07464539 -2.55078125 113.08703613 C-6.23678226 113.02802844 -8.38674502 112.92412016 -11.53808594 110.90527344 C-13.46937991 107.76901717 -13.45738155 105.6872354 -13.390625 102.015625 C-13.37773438 100.76523438 -13.36484375 99.51484375 -13.3515625 98.2265625 C-13.31804687 96.92460937 -13.28453125 95.62265625 -13.25 94.28125 C-13.23195313 92.96382813 -13.21390625 91.64640625 -13.1953125 90.2890625 C-13.14816271 87.03572692 -13.08236044 83.78385375 -13 80.53125 C-14.24088379 80.5626709 -14.24088379 80.5626709 -15.50683594 80.59472656 C-19.2544337 80.67786619 -23.00183749 80.72990531 -26.75 80.78125 C-28.05195312 80.81476563 -29.35390625 80.84828125 -30.6953125 80.8828125 C-31.94570313 80.89570313 -33.19609375 80.90859375 -34.484375 80.921875 C-35.63647461 80.94282227 -36.78857422 80.96376953 -37.97558594 80.98535156 C-41 80.53125 -41 80.53125 -43.37402344 79.06933594 C-45.79154944 75.29567222 -45.57354476 71.92822156 -45.53125 67.53125 C-45.5350769 66.65855469 -45.53890381 65.78585938 -45.54284668 64.88671875 C-45.5455649 63.04425908 -45.53820994 61.20176076 -45.52148438 59.359375 C-45.50007248 56.54079066 -45.52128801 53.72475515 -45.546875 50.90625 C-45.54423171 49.11457771 -45.53910669 47.32290701 -45.53125 45.53125 C-45.53934692 44.68949219 -45.54744385 43.84773438 -45.55578613 42.98046875 C-45.49677844 39.29446774 -45.39287016 37.14450498 -43.37402344 33.99316406 C-40.23776717 32.06187009 -38.1559854 32.07386845 -34.484375 32.140625 C-33.23398437 32.15351563 -31.98359375 32.16640625 -30.6953125 32.1796875 C-28.74238281 32.22996094 -28.74238281 32.22996094 -26.75 32.28125 C-25.43257812 32.29929688 -24.11515625 32.31734375 -22.7578125 32.3359375 C-19.50447692 32.38308729 -16.25260375 32.44888956 -13 32.53125 C-13.02094727 31.70399414 -13.04189453 30.87673828 -13.06347656 30.02441406 C-13.14661619 26.2768163 -13.19865531 22.52941251 -13.25 18.78125 C-13.30027344 16.82832031 -13.30027344 16.82832031 -13.3515625 14.8359375 C-13.36445312 13.58554688 -13.37734375 12.33515625 -13.390625 11.046875 C-13.41157227 9.89477539 -13.43251953 8.74267578 -13.45410156 7.55566406 C-13 4.53125 -13 4.53125 -11.53808594 2.15722656 C-7.76442222 -0.26029944 -4.39697156 -0.04229476 0 0 Z " fill="#42210B" transform="translate(85,111.46875)"/>
<path d="M0 0 C0.87269531 -0.0038269 1.74539063 -0.00765381 2.64453125 -0.01159668 C4.48699092 -0.0143149 6.32948924 -0.00695994 8.171875 0.00976562 C10.99045934 0.03117752 13.80649485 0.00996199 16.625 -0.015625 C18.41667229 -0.01298171 20.20834299 -0.00785669 22 0 C22.84175781 -0.00809692 23.68351562 -0.01619385 24.55078125 -0.02453613 C28.23678226 0.03447156 30.38674502 0.13837984 33.53808594 2.15722656 C35.46937991 5.29348283 35.45738155 7.3752646 35.390625 11.046875 C35.37773437 12.29726563 35.36484375 13.54765625 35.3515625 14.8359375 C35.31804687 16.13789062 35.28453125 17.43984375 35.25 18.78125 C35.23195313 20.09867188 35.21390625 21.41609375 35.1953125 22.7734375 C35.14816271 26.02677308 35.08236044 29.27864625 35 32.53125 C35.82725586 32.51030273 36.65451172 32.48935547 37.50683594 32.46777344 C41.2544337 32.38463381 45.00183749 32.33259469 48.75 32.28125 C50.05195313 32.24773437 51.35390625 32.21421875 52.6953125 32.1796875 C53.94570313 32.16679688 55.19609375 32.15390625 56.484375 32.140625 C57.63647461 32.11967773 58.78857422 32.09873047 59.97558594 32.07714844 C63 32.53125 63 32.53125 65.37402344 33.99316406 C67.79154944 37.76682778 67.57354476 41.13427844 67.53125 45.53125 C67.53699036 46.84029297 67.53699036 46.84029297 67.54284668 48.17578125 C67.5455649 50.01824092 67.53820994 51.86073924 67.52148438 53.703125 C67.50007248 56.52170934 67.52128801 59.33774485 67.546875 62.15625 C67.54423171 63.94792229 67.53910669 65.73959299 67.53125 67.53125 C67.53934692 68.37300781 67.54744385 69.21476562 67.55578613 70.08203125 C67.49677844 73.76803226 67.39287016 75.91799502 65.37402344 79.06933594 C62.23776717 81.00062991 60.1559854 80.98863155 56.484375 80.921875 C55.23398437 80.90898437 53.98359375 80.89609375 52.6953125 80.8828125 C51.39335937 80.84929687 50.09140625 80.81578125 48.75 80.78125 C47.43257813 80.76320313 46.11515625 80.74515625 44.7578125 80.7265625 C41.50447692 80.67941271 38.25260375 80.61361044 35 80.53125 C35.0314209 81.77213379 35.0314209 81.77213379 35.06347656 83.03808594 C35.14661619 86.7856837 35.19865531 90.53308749 35.25 94.28125 C35.28351563 95.58320313 35.31703125 96.88515625 35.3515625 98.2265625 C35.37089844 100.10214844 35.37089844 100.10214844 35.390625 102.015625 C35.4220459 103.74377441 35.4220459 103.74377441 35.45410156 105.50683594 C35 108.53125 35 108.53125 33.53808594 110.90527344 C29.76442222 113.32279944 26.39697156 113.10479476 22 113.0625 C21.12730469 113.0663269 20.25460937 113.07015381 19.35546875 113.07409668 C17.51300908 113.0768149 15.67051076 113.06945994 13.828125 113.05273438 C11.00954066 113.03132248 8.19350515 113.05253801 5.375 113.078125 C3.58332771 113.07548171 1.79165701 113.07035669 0 113.0625 C-1.26263672 113.07464539 -1.26263672 113.07464539 -2.55078125 113.08703613 C-6.23678226 113.02802844 -8.38674502 112.92412016 -11.53808594 110.90527344 C-13.46937991 107.76901717 -13.45738155 105.6872354 -13.390625 102.015625 C-13.37773437 100.76523438 -13.36484375 99.51484375 -13.3515625 98.2265625 C-13.31804687 96.92460937 -13.28453125 95.62265625 -13.25 94.28125 C-13.23195313 92.96382813 -13.21390625 91.64640625 -13.1953125 90.2890625 C-13.14816271 87.03572692 -13.08236044 83.78385375 -13 80.53125 C-14.24088379 80.5626709 -14.24088379 80.5626709 -15.50683594 80.59472656 C-19.2544337 80.67786619 -23.00183749 80.72990531 -26.75 80.78125 C-28.05195313 80.81476563 -29.35390625 80.84828125 -30.6953125 80.8828125 C-31.94570313 80.89570313 -33.19609375 80.90859375 -34.484375 80.921875 C-35.63647461 80.94282227 -36.78857422 80.96376953 -37.97558594 80.98535156 C-41 80.53125 -41 80.53125 -43.37402344 79.06933594 C-45.79154944 75.29567222 -45.57354476 71.92822156 -45.53125 67.53125 C-45.5350769 66.65855469 -45.53890381 65.78585938 -45.54284668 64.88671875 C-45.5455649 63.04425908 -45.53820994 61.20176076 -45.52148438 59.359375 C-45.50007248 56.54079066 -45.52128801 53.72475515 -45.546875 50.90625 C-45.54423171 49.11457771 -45.53910669 47.32290701 -45.53125 45.53125 C-45.53934692 44.68949219 -45.54744385 43.84773438 -45.55578613 42.98046875 C-45.49677844 39.29446774 -45.39287016 37.14450498 -43.37402344 33.99316406 C-40.23776717 32.06187009 -38.1559854 32.07386845 -34.484375 32.140625 C-33.23398437 32.15351562 -31.98359375 32.16640625 -30.6953125 32.1796875 C-28.74238281 32.22996094 -28.74238281 32.22996094 -26.75 32.28125 C-25.43257813 32.29929687 -24.11515625 32.31734375 -22.7578125 32.3359375 C-19.50447692 32.38308729 -16.25260375 32.44888956 -13 32.53125 C-13.02094727 31.70399414 -13.04189453 30.87673828 -13.06347656 30.02441406 C-13.14661619 26.2768163 -13.19865531 22.52941251 -13.25 18.78125 C-13.30027344 16.82832031 -13.30027344 16.82832031 -13.3515625 14.8359375 C-13.36445313 13.58554687 -13.37734375 12.33515625 -13.390625 11.046875 C-13.41157227 9.89477539 -13.43251953 8.74267578 -13.45410156 7.55566406 C-13 4.53125 -13 4.53125 -11.53808594 2.15722656 C-7.76442222 -0.26029944 -4.39697156 -0.04229476 0 0 Z " fill="#42210B" transform="translate(405,47.46875)"/>
<path d="M0 0 C30.36 0 60.72 0 92 0 C91.387884 7.34539206 90.7547713 14.40695918 89.5 21.625 C89.36980469 22.41261719 89.23960937 23.20023438 89.10546875 24.01171875 C88.13415179 29.73169643 88.13415179 29.73169643 87 32 C59.94 32 32.88 32 5 32 C3.56073481 26.24293925 2.33736276 20.69827668 1.375 14.875 C1.2409375 14.10285156 1.106875 13.33070312 0.96875 12.53515625 C0.84242188 11.77847656 0.71609375 11.02179688 0.5859375 10.2421875 C0.41650635 9.23454346 0.41650635 9.23454346 0.24365234 8.20654297 C-0.05671785 5.48635683 0 2.73671973 0 0 Z " fill="#414950" transform="translate(218,56)"/>
<path d="M0 0 C5.28 0 10.56 0 16 0 C16.04898438 1.83046875 16.09796875 3.6609375 16.1484375 5.546875 C16.22347053 7.94793196 16.29901813 10.34897288 16.375 12.75 C16.4059375 13.9565625 16.436875 15.163125 16.46875 16.40625 C16.52675781 18.14648438 16.52675781 18.14648438 16.5859375 19.921875 C16.6173584 20.99018555 16.6487793 22.05849609 16.68115234 23.15917969 C16.9953377 25.95846057 17.46877553 27.65588649 19 30 C21.73678725 31.36839363 24.04264424 31.21634818 27.1015625 31.31640625 C28.31328125 31.35830078 29.525 31.40019531 30.7734375 31.44335938 C32.04445313 31.48267578 33.31546875 31.52199219 34.625 31.5625 C35.90375 31.60568359 37.1825 31.64886719 38.5 31.69335938 C41.66653082 31.7996981 44.83325079 31.9003767 48 32 C48 37.28 48 42.56 48 48 C45.14601562 48.03867188 45.14601562 48.03867188 42.234375 48.078125 C39.73956017 48.13439902 37.24476939 48.1917465 34.75 48.25 C32.86861328 48.27126953 32.86861328 48.27126953 30.94921875 48.29296875 C29.74394531 48.32519531 28.53867188 48.35742188 27.296875 48.390625 C25.63156738 48.4220459 25.63156738 48.4220459 23.93261719 48.45410156 C20.29159579 49.13186745 19.11273803 49.97391679 17 53 C16.36085024 55.98687874 16.36085024 55.98687874 16.390625 59.296875 C16.35839844 60.50214844 16.32617188 61.70742187 16.29296875 62.94921875 C16.27878906 64.20347656 16.26460937 65.45773438 16.25 66.75 C16.20552734 68.65458984 16.20552734 68.65458984 16.16015625 70.59765625 C16.08946966 73.73142836 16.04246994 76.8657185 16 80 C10.72 80 5.44 80 0 80 C-0.04898438 78.08574219 -0.09796875 76.17148438 -0.1484375 74.19921875 C-0.22346136 71.69529756 -0.29900935 69.19139204 -0.375 66.6875 C-0.4059375 65.42486328 -0.436875 64.16222656 -0.46875 62.86132812 C-0.50742188 61.65283203 -0.54609375 60.44433594 -0.5859375 59.19921875 C-0.6173584 58.08377686 -0.6487793 56.96833496 -0.68115234 55.8190918 C-0.805249 52.79631214 -0.805249 52.79631214 -3 50 C-6.17509982 48.94163339 -8.64282383 48.79756211 -11.98046875 48.68359375 C-13.72553711 48.62075195 -13.72553711 48.62075195 -15.50585938 48.55664062 C-16.72080078 48.51732422 -17.93574219 48.47800781 -19.1875 48.4375 C-20.41404297 48.39431641 -21.64058594 48.35113281 -22.90429688 48.30664062 C-25.93606192 48.20046986 -28.968016 48.09972236 -32 48 C-32 42.72 -32 37.44 -32 32 C-30.16953125 31.95101562 -28.3390625 31.90203125 -26.453125 31.8515625 C-24.05206804 31.77652947 -21.65102712 31.70098187 -19.25 31.625 C-17.44015625 31.57859375 -17.44015625 31.57859375 -15.59375 31.53125 C-14.43359375 31.49257812 -13.2734375 31.45390625 -12.078125 31.4140625 C-10.47565918 31.36693115 -10.47565918 31.36693115 -8.84082031 31.31884766 C-6.02571389 31.00288607 -4.32248258 30.60336217 -2 29 C-0.94163339 25.82490018 -0.79756211 23.35717617 -0.68359375 20.01953125 C-0.64169922 18.85615234 -0.59980469 17.69277344 -0.55664062 16.49414062 C-0.51732422 15.27919922 -0.47800781 14.06425781 -0.4375 12.8125 C-0.39431641 11.58595703 -0.35113281 10.35941406 -0.30664062 9.09570312 C-0.20046986 6.06393808 -0.09972236 3.031984 0 0 Z " fill="#64C3E4" transform="translate(88,128)"/>
<path d="M0 0 C5.28 0 10.56 0 16 0 C16.04898438 1.83046875 16.09796875 3.6609375 16.1484375 5.546875 C16.22347053 7.94793196 16.29901813 10.34897288 16.375 12.75 C16.4059375 13.9565625 16.436875 15.163125 16.46875 16.40625 C16.52675781 18.14648438 16.52675781 18.14648438 16.5859375 19.921875 C16.6173584 20.99018555 16.6487793 22.05849609 16.68115234 23.15917969 C16.9953377 25.95846057 17.46877553 27.65588649 19 30 C21.73678725 31.36839363 24.04264424 31.21634818 27.1015625 31.31640625 C28.31328125 31.35830078 29.525 31.40019531 30.7734375 31.44335938 C32.04445313 31.48267578 33.31546875 31.52199219 34.625 31.5625 C35.90375 31.60568359 37.1825 31.64886719 38.5 31.69335938 C41.66653082 31.7996981 44.83325079 31.9003767 48 32 C48 37.28 48 42.56 48 48 C45.14601563 48.03867188 45.14601563 48.03867188 42.234375 48.078125 C39.73956017 48.13439902 37.24476939 48.1917465 34.75 48.25 C32.86861328 48.27126953 32.86861328 48.27126953 30.94921875 48.29296875 C29.74394531 48.32519531 28.53867187 48.35742188 27.296875 48.390625 C25.63156738 48.4220459 25.63156738 48.4220459 23.93261719 48.45410156 C20.29159579 49.13186745 19.11273803 49.97391679 17 53 C16.36085024 55.98687874 16.36085024 55.98687874 16.390625 59.296875 C16.35839844 60.50214844 16.32617188 61.70742187 16.29296875 62.94921875 C16.27878906 64.20347656 16.26460938 65.45773438 16.25 66.75 C16.20552734 68.65458984 16.20552734 68.65458984 16.16015625 70.59765625 C16.08946966 73.73142836 16.04246994 76.8657185 16 80 C10.72 80 5.44 80 0 80 C-0.04898437 78.08574219 -0.09796875 76.17148438 -0.1484375 74.19921875 C-0.22346136 71.69529756 -0.29900935 69.19139204 -0.375 66.6875 C-0.4059375 65.42486328 -0.436875 64.16222656 -0.46875 62.86132812 C-0.50742187 61.65283203 -0.54609375 60.44433594 -0.5859375 59.19921875 C-0.6173584 58.08377686 -0.6487793 56.96833496 -0.68115234 55.8190918 C-0.805249 52.79631214 -0.805249 52.79631214 -3 50 C-6.17509982 48.94163339 -8.64282383 48.79756211 -11.98046875 48.68359375 C-13.72553711 48.62075195 -13.72553711 48.62075195 -15.50585938 48.55664062 C-16.72080078 48.51732422 -17.93574219 48.47800781 -19.1875 48.4375 C-20.41404297 48.39431641 -21.64058594 48.35113281 -22.90429688 48.30664062 C-25.93606192 48.20046986 -28.968016 48.09972236 -32 48 C-32 42.72 -32 37.44 -32 32 C-30.16953125 31.95101562 -28.3390625 31.90203125 -26.453125 31.8515625 C-24.05206804 31.77652947 -21.65102712 31.70098187 -19.25 31.625 C-17.44015625 31.57859375 -17.44015625 31.57859375 -15.59375 31.53125 C-14.43359375 31.49257812 -13.2734375 31.45390625 -12.078125 31.4140625 C-10.47565918 31.36693115 -10.47565918 31.36693115 -8.84082031 31.31884766 C-6.02571389 31.00288607 -4.32248258 30.60336217 -2 29 C-0.94163339 25.82490018 -0.79756211 23.35717617 -0.68359375 20.01953125 C-0.64169922 18.85615234 -0.59980469 17.69277344 -0.55664062 16.49414062 C-0.51732422 15.27919922 -0.47800781 14.06425781 -0.4375 12.8125 C-0.39431641 11.58595703 -0.35113281 10.35941406 -0.30664062 9.09570312 C-0.20046986 6.06393808 -0.09972236 3.031984 0 0 Z " fill="#64C3E4" transform="translate(408,64)"/>
<path d="M0 0 C6.51226571 3.65018715 11.44365025 8.83190828 13.75 16 C14.61515318 23.61784229 13.84635202 29.80115901 9.203125 36.09765625 C4.30951393 42.06309807 -0.77840542 45.43236859 -8.546875 46.23828125 C-16.04590395 46.4651627 -20.92281315 45.10891395 -26.453125 39.94140625 C-32.22029155 33.79045343 -34.74784577 28.77230132 -34.4921875 20.29296875 C-33.68350873 12.63660687 -29.87384714 7.11464569 -24.25 2 C-16.95504644 -3.49049359 -8.19996265 -3.67627505 0 0 Z " fill="#44210C" transform="translate(282.25,346)"/>
<path d="M0 0 C5.61334813 3.88616409 10.08519342 8.31624118 12 15 C13.03944287 22.49115726 11.78625491 28.87724884 7.55859375 35.1328125 C2.84956683 41.05460505 -2.19309239 44.34170737 -9.73828125 45.375 C-15.9894221 45.65167567 -20.95316642 44.80913232 -26 41 C-32.23279606 35.21867408 -36.03105537 29.27041508 -36.5 20.625 C-36.27216435 13.69499913 -33.79170809 8.94367607 -29.0625 3.95703125 C-20.64561795 -3.77438503 -10.32426847 -5.84627251 0 0 Z " fill="#44210C" transform="translate(236,307)"/>
<path d="M0 0 C21.78 0 43.56 0 66 0 C64.875 13.5 64.875 13.5 63.9375 18.75 C63.76089844 19.75546875 63.58429688 20.7609375 63.40234375 21.796875 C63.26957031 22.52390625 63.13679688 23.2509375 63 24 C57.77137669 24.09968046 52.54331956 24.17184747 47.31396484 24.21972656 C45.53912711 24.23970839 43.76435406 24.26690355 41.98974609 24.30175781 C29.31918628 24.54418833 19.14733389 24.0519876 8.82421875 15.84375 C4.4147988 11.38711998 1.5104968 6.04198721 0 0 Z " fill="#4F575F" transform="translate(244,56)"/>
<path d="M0 0 C20.66167872 -1.6821597 20.66167872 -1.6821597 26.0625 2.203125 C27.99111741 5.04939102 29.50260694 7.90901264 31 11 C32.59142195 13.0502901 32.59142195 13.0502901 34.375 14.75 C35.20837891 15.59304687 35.20837891 15.59304687 36.05859375 16.453125 C38.00029516 18.13511553 38.00029516 18.13511553 40.66015625 19.171875 C44.11300799 20.82302773 45.78523854 21.82419806 48 25 C49.30946226 32.56369657 48.55905066 40.3906994 48 48 C42.72 48 37.44 48 32 48 C31.95101562 46.08574219 31.90203125 44.17148438 31.8515625 42.19921875 C31.77653864 39.69529756 31.70099065 37.19139204 31.625 34.6875 C31.5940625 33.42486328 31.563125 32.16222656 31.53125 30.86132812 C31.49257812 29.65283203 31.45390625 28.44433594 31.4140625 27.19921875 C31.3826416 26.08377686 31.3512207 24.96833496 31.31884766 23.8190918 C31.194751 20.79631214 31.194751 20.79631214 29 18 C25.82490018 16.94163339 23.35717617 16.79756211 20.01953125 16.68359375 C18.85615234 16.64169922 17.69277344 16.59980469 16.49414062 16.55664062 C15.27919922 16.51732422 14.06425781 16.47800781 12.8125 16.4375 C11.58595703 16.39431641 10.35941406 16.35113281 9.09570312 16.30664062 C6.06393808 16.20046986 3.031984 16.09972236 0 16 C0 10.72 0 5.44 0 0 Z " fill="#2EA0BE" transform="translate(56,160)"/>
<path d="M0 0 C20.66167872 -1.6821597 20.66167872 -1.6821597 26.0625 2.203125 C27.99111741 5.04939102 29.50260694 7.90901264 31 11 C32.59142195 13.0502901 32.59142195 13.0502901 34.375 14.75 C35.20837891 15.59304687 35.20837891 15.59304687 36.05859375 16.453125 C38.00029516 18.13511553 38.00029516 18.13511553 40.66015625 19.171875 C44.11300799 20.82302773 45.78523854 21.82419806 48 25 C49.30946226 32.56369657 48.55905066 40.3906994 48 48 C42.72 48 37.44 48 32 48 C31.95101563 46.08574219 31.90203125 44.17148438 31.8515625 42.19921875 C31.77653864 39.69529756 31.70099065 37.19139204 31.625 34.6875 C31.5940625 33.42486328 31.563125 32.16222656 31.53125 30.86132812 C31.49257813 29.65283203 31.45390625 28.44433594 31.4140625 27.19921875 C31.3826416 26.08377686 31.3512207 24.96833496 31.31884766 23.8190918 C31.194751 20.79631214 31.194751 20.79631214 29 18 C25.82490018 16.94163339 23.35717617 16.79756211 20.01953125 16.68359375 C18.85615234 16.64169922 17.69277344 16.59980469 16.49414062 16.55664062 C15.27919922 16.51732422 14.06425781 16.47800781 12.8125 16.4375 C11.58595703 16.39431641 10.35941406 16.35113281 9.09570312 16.30664062 C6.06393808 16.20046986 3.031984 16.09972236 0 16 C0 10.72 0 5.44 0 0 Z " fill="#2EA0BE" transform="translate(376,96)"/>
<path d="M0 0 C4.0743356 0.84881992 5.54405875 2.30225596 8 5.625 C8.625 8.625 8.625 8.625 8 11.625 C5.54405875 14.94774404 4.0743356 16.40118008 0 17.25 C-4.0743356 16.40118008 -5.54405875 14.94774404 -8 11.625 C-8.625 8.625 -8.625 8.625 -8 5.625 C-5.54405875 2.30225596 -4.0743356 0.84881992 0 0 Z " fill="#DEDDDC" transform="translate(272,359.375)"/>
<path d="M0 0 C1.8046875 0.640625 1.8046875 0.640625 3.8046875 2.328125 C5.14507256 5.42776546 5.35136619 7.29221802 4.8046875 10.640625 C2.31384502 14.01058835 0.91879885 15.45872927 -3.2578125 16.140625 C-6.62408491 15.56764246 -7.98534714 15.2598432 -10.1953125 12.640625 C-11.16586381 9.90651093 -11.50945273 7.52959322 -11.1953125 4.640625 C-8.1181485 -0.22327939 -5.38557002 -1.09743691 0 0 Z " fill="#DFDDDC" transform="translate(227.1953125,320.359375)"/>
</svg>
