<?xml version="1.0" encoding="UTF-8"?>
<svg version="1.1" xmlns="http://www.w3.org/2000/svg" width="512" height="512">
<path d="M0 0 C2.94214318 1.30086496 3.83163498 2.39796197 6 5 C7.09380822 10.60807444 6.93580556 15.49895548 6.01930237 21.13720703 C5.84294948 22.30514722 5.84294948 22.30514722 5.6630339 23.49668217 C5.26946638 26.08542311 4.8604704 28.67147716 4.45141602 31.2578125 C4.16491755 33.12089421 3.87937923 34.98412379 3.59472656 36.8474884 C2.82137204 41.89178392 2.03463486 46.93391025 1.24545026 51.97574997 C0.42218489 57.25028984 -0.38871803 62.52672939 -1.20094299 67.80297852 C-2.73992884 77.7878376 -4.28999993 87.77094257 -5.84407622 97.75346279 C-7.613203 109.1209074 -9.36994028 120.49025561 -11.12564743 131.85977936 C-14.73666486 155.24199474 -18.36320864 178.62178057 -22 202 C-21.34493123 201.99723462 -20.68986246 201.99446924 -20.01494312 201.99162006 C-4.07387331 201.92535996 11.86714858 201.87571933 27.80832195 201.84456348 C35.51736586 201.82909618 43.22631783 201.80800934 50.93530273 201.77368164 C57.65464887 201.74377502 64.37392842 201.724424 71.09333926 201.71773452 C74.65106722 201.71382437 78.2086047 201.70463803 81.76627159 201.68280983 C85.73834166 201.65863683 89.71022557 201.65803083 93.68237305 201.65942383 C95.45075027 201.64324509 95.45075027 201.64324509 97.25485229 201.6267395 C98.33873734 201.63086349 99.42262238 201.63498749 100.53935242 201.63923645 C101.47865947 201.63647107 102.41796652 201.63370569 103.38573742 201.63085651 C107.31541033 202.18574077 109.94640081 204.01906282 112.8125 206.6875 C114.63743226 210.24131546 114.87534419 213.1768055 114 217 C110.39436627 224.41928479 104.91186313 230.83522983 99.85546875 237.3046875 C96.57517975 241.52038497 93.41180102 245.82008967 90.25 250.125 C89.65759521 250.93130859 89.06519043 251.73761719 88.45483398 252.56835938 C87.24101382 254.2214155 86.02755605 255.87473777 84.81445312 257.52832031 C81.88194254 261.52303737 78.94063339 265.51126088 76 269.5 C74.83328889 271.08330059 73.66662228 272.66663396 72.5 274.25 C46.83333333 309.08333333 21.16666667 343.91666667 -4.5 378.75 C-5.07766113 379.5339917 -5.65532227 380.3179834 -6.25048828 381.12573242 C-7.41543849 382.70668983 -8.58047734 384.28758192 -9.74560547 385.8684082 C-12.6892698 389.86255828 -15.63131346 393.8578843 -18.5703125 397.85546875 C-24.49809725 405.91517608 -30.45167967 413.95324903 -36.46582031 421.94873047 C-42.10309086 429.4520678 -47.65871279 437.01530541 -53.21777344 444.57666016 C-56.14230746 448.55322518 -59.07135433 452.52646271 -62 456.5 C-63.16668888 458.08331696 -64.33335553 459.66665031 -65.5 461.25 C-67.83333333 464.41666667 -70.16666667 467.58333333 -72.5 470.75 C-73.07814453 471.5347168 -73.65628906 472.31943359 -74.25195312 473.12792969 C-75.41175367 474.70175959 -76.57190655 476.27532991 -77.73242188 477.84863281 C-80.75716956 481.95024511 -83.77457579 486.0569913 -86.78125 490.171875 C-87.40386719 491.02201172 -88.02648437 491.87214844 -88.66796875 492.74804688 C-89.8499548 494.36225171 -91.02980333 495.97802494 -92.20703125 497.59570312 C-101.4757424 510.2378712 -101.4757424 510.2378712 -105 512 C-109.55414548 512.63758037 -113.66200286 512.77602706 -117.5 510 C-121.30622802 505.43252638 -121.15466728 500.89208189 -120.68855476 495.19001579 C-120.49141049 493.84798024 -120.28262456 492.50761811 -120.06399536 491.16891479 C-119.95121589 490.42310626 -119.83843641 489.67729773 -119.72223938 488.90888894 C-119.34483583 486.43087784 -118.95199414 483.95557601 -118.55908203 481.47998047 C-118.28405804 479.69559884 -118.00999454 477.91106895 -117.73681641 476.12640381 C-116.99441306 471.29449864 -116.23859693 466.46477762 -115.48031092 461.63534307 C-114.68823172 456.57581664 -113.90849453 451.51438889 -113.12741089 446.45315552 C-111.64632428 436.86855055 -110.15407846 427.28571779 -108.65784824 417.70346653 C-106.95849569 406.81664002 -105.27195627 395.92784084 -103.58633637 385.03888106 C-100.9656311 368.1117248 -98.3379786 351.18565785 -95.69970703 334.26123047 C-95.56753155 333.41268871 -95.43535606 332.56414696 -95.29917526 331.68989182 C-94.92978554 329.31891327 -94.5599579 326.94800349 -94.18997192 324.57711792 C-94.08325609 323.89189934 -93.97654026 323.20668075 -93.86659062 322.50069797 C-93.26704964 318.66317694 -92.64525509 314.83009733 -92 311 C-92.65506877 310.99761165 -93.31013754 310.99522329 -93.98505688 310.99276257 C-109.92626011 310.9336198 -125.86728852 310.85807451 -141.80832195 310.76428509 C-149.51730164 310.71932446 -157.2262351 310.67991046 -164.93530273 310.65356445 C-171.65473566 310.63058648 -178.37402233 310.59719082 -185.09333926 310.55129844 C-188.65100544 310.52736334 -192.20852674 310.50863652 -195.76627159 310.50238609 C-199.738467 310.49521231 -203.71029937 310.46477971 -207.68237305 310.43237305 C-208.8612912 310.43380814 -210.04020935 310.43524323 -211.25485229 310.4367218 C-212.33873734 310.42418365 -213.42262238 310.41164551 -214.53935242 310.39872742 C-215.94831299 310.39181397 -215.94831299 310.39181397 -217.38573742 310.38476086 C-221.30789312 309.80750745 -223.94797266 307.97947373 -226.8125 305.3125 C-228.63743226 301.75868454 -228.87534419 298.8231945 -228 295 C-224.39436627 287.58071521 -218.91186313 281.16477017 -213.85546875 274.6953125 C-210.57517975 270.47961503 -207.41180102 266.17991033 -204.25 261.875 C-203.65759521 261.06869141 -203.06519043 260.26238281 -202.45483398 259.43164062 C-201.24101382 257.7785845 -200.02755605 256.12526223 -198.81445312 254.47167969 C-195.88194254 250.47696263 -192.94063339 246.48873912 -190 242.5 C-188.83328889 240.91669941 -187.66662228 239.33336604 -186.5 237.75 C-165.5 209.25 -144.5 180.75 -123.5 152.25 C-122.92233887 151.4660083 -122.34467773 150.6820166 -121.74951172 149.87426758 C-120.58456151 148.29331017 -119.41952266 146.71241808 -118.25439453 145.1315918 C-115.3107302 141.13744172 -112.36868654 137.1421157 -109.4296875 133.14453125 C-103.50190275 125.08482392 -97.54832033 117.04675097 -91.53417969 109.05126953 C-85.89690914 101.5479322 -80.34128721 93.98469459 -74.78222656 86.42333984 C-71.85769254 82.44677482 -68.92864567 78.47353729 -66 74.5 C-64.83331112 72.91668304 -63.66664447 71.33334969 -62.5 69.75 C-55.5 60.25 -48.5 50.75 -41.5 41.25 C-40.92185547 40.4652832 -40.34371094 39.68056641 -39.74804688 38.87207031 C-38.58824633 37.29824041 -37.42809345 35.72467009 -36.26757812 34.15136719 C-33.24283044 30.04975489 -30.22542421 25.9430087 -27.21875 21.828125 C-26.59613281 20.97798828 -25.97351563 20.12785156 -25.33203125 19.25195312 C-24.1500452 17.63774829 -22.97019667 16.02197506 -21.79296875 14.40429688 C-10.15773779 -1.46571384 -10.15773779 -1.46571384 0 0 Z " fill="#FECD32" transform="translate(313,0)"/>
<path d="M0 0 C2.94214318 1.30086496 3.83163498 2.39796197 6 5 C7.09380822 10.60807444 6.93580556 15.49895548 6.01930237 21.13720703 C5.84294948 22.30514722 5.84294948 22.30514722 5.6630339 23.49668217 C5.26946638 26.08542311 4.8604704 28.67147716 4.45141602 31.2578125 C4.16491755 33.12089421 3.87937923 34.98412379 3.59472656 36.8474884 C2.82137204 41.89178392 2.03463486 46.93391025 1.24545026 51.97574997 C0.42218489 57.25028984 -0.38871803 62.52672939 -1.20094299 67.80297852 C-2.73992884 77.7878376 -4.28999993 87.77094257 -5.84407622 97.75346279 C-7.613203 109.1209074 -9.36994028 120.49025561 -11.12564743 131.85977936 C-14.73666486 155.24199474 -18.36320864 178.62178057 -22 202 C-21.34493123 201.99723462 -20.68986246 201.99446924 -20.01494312 201.99162006 C-4.07387331 201.92535996 11.86714858 201.87571933 27.80832195 201.84456348 C35.51736586 201.82909618 43.22631783 201.80800934 50.93530273 201.77368164 C57.65464887 201.74377502 64.37392842 201.724424 71.09333926 201.71773452 C74.65106722 201.71382437 78.2086047 201.70463803 81.76627159 201.68280983 C85.73834166 201.65863683 89.71022557 201.65803083 93.68237305 201.65942383 C95.45075027 201.64324509 95.45075027 201.64324509 97.25485229 201.6267395 C98.33873734 201.63086349 99.42262238 201.63498749 100.53935242 201.63923645 C101.47865947 201.63647107 102.41796652 201.63370569 103.38573742 201.63085651 C107.31541033 202.18574077 109.94640081 204.01906282 112.8125 206.6875 C114.63743226 210.24131546 114.87534419 213.1768055 114 217 C110.39436627 224.41928479 104.91186313 230.83522983 99.85546875 237.3046875 C96.57517975 241.52038497 93.41180102 245.82008967 90.25 250.125 C89.65759521 250.93130859 89.06519043 251.73761719 88.45483398 252.56835938 C87.24101382 254.2214155 86.02755605 255.87473777 84.81445312 257.52832031 C81.88194254 261.52303737 78.94063339 265.51126088 76 269.5 C74.83328889 271.08330059 73.66662228 272.66663396 72.5 274.25 C46.83333333 309.08333333 21.16666667 343.91666667 -4.5 378.75 C-5.07766113 379.5339917 -5.65532227 380.3179834 -6.25048828 381.12573242 C-7.41543849 382.70668983 -8.58047734 384.28758192 -9.74560547 385.8684082 C-12.6892698 389.86255828 -15.63131346 393.8578843 -18.5703125 397.85546875 C-24.49809725 405.91517608 -30.45167967 413.95324903 -36.46582031 421.94873047 C-42.10309086 429.4520678 -47.65871279 437.01530541 -53.21777344 444.57666016 C-56.14230746 448.55322518 -59.07135433 452.52646271 -62 456.5 C-63.16668888 458.08331696 -64.33335553 459.66665031 -65.5 461.25 C-67.83333333 464.41666667 -70.16666667 467.58333333 -72.5 470.75 C-73.07814453 471.5347168 -73.65628906 472.31943359 -74.25195312 473.12792969 C-75.41175367 474.70175959 -76.57190655 476.27532991 -77.73242188 477.84863281 C-80.75716956 481.95024511 -83.77457579 486.0569913 -86.78125 490.171875 C-87.40386719 491.02201172 -88.02648437 491.87214844 -88.66796875 492.74804688 C-89.8499548 494.36225171 -91.02980333 495.97802494 -92.20703125 497.59570312 C-101.4757424 510.2378712 -101.4757424 510.2378712 -105 512 C-109.55414548 512.63758037 -113.66200286 512.77602706 -117.5 510 C-121.30622802 505.43252638 -121.15466728 500.89208189 -120.68855476 495.19001579 C-120.49141049 493.84798024 -120.28262456 492.50761811 -120.06399536 491.16891479 C-119.95121589 490.42310626 -119.83843641 489.67729773 -119.72223938 488.90888894 C-119.34483583 486.43087784 -118.95199414 483.95557601 -118.55908203 481.47998047 C-118.28405804 479.69559884 -118.00999454 477.91106895 -117.73681641 476.12640381 C-116.99441306 471.29449864 -116.23859693 466.46477762 -115.48031092 461.63534307 C-114.68823172 456.57581664 -113.90849453 451.51438889 -113.12741089 446.45315552 C-111.64632428 436.86855055 -110.15407846 427.28571779 -108.65784824 417.70346653 C-106.95849569 406.81664002 -105.27195627 395.92784084 -103.58633637 385.03888106 C-100.9656311 368.1117248 -98.3379786 351.18565785 -95.69970703 334.26123047 C-95.56753155 333.41268871 -95.43535606 332.56414696 -95.29917526 331.68989182 C-94.92978554 329.31891327 -94.5599579 326.94800349 -94.18997192 324.57711792 C-94.08325609 323.89189934 -93.97654026 323.20668075 -93.86659062 322.50069797 C-93.26704964 318.66317694 -92.64525509 314.83009733 -92 311 C-92.65506877 310.99761165 -93.31013754 310.99522329 -93.98505688 310.99276257 C-109.92626011 310.9336198 -125.86728852 310.85807451 -141.80832195 310.76428509 C-149.51730164 310.71932446 -157.2262351 310.67991046 -164.93530273 310.65356445 C-171.65473566 310.63058648 -178.37402233 310.59719082 -185.09333926 310.55129844 C-188.65100544 310.52736334 -192.20852674 310.50863652 -195.76627159 310.50238609 C-199.738467 310.49521231 -203.71029937 310.46477971 -207.68237305 310.43237305 C-208.8612912 310.43380814 -210.04020935 310.43524323 -211.25485229 310.4367218 C-212.33873734 310.42418365 -213.42262238 310.41164551 -214.53935242 310.39872742 C-215.94831299 310.39181397 -215.94831299 310.39181397 -217.38573742 310.38476086 C-221.30789312 309.80750745 -223.94797266 307.97947373 -226.8125 305.3125 C-228.63743226 301.75868454 -228.87534419 298.8231945 -228 295 C-224.39436627 287.58071521 -218.91186313 281.16477017 -213.85546875 274.6953125 C-210.57517975 270.47961503 -207.41180102 266.17991033 -204.25 261.875 C-203.65759521 261.06869141 -203.06519043 260.26238281 -202.45483398 259.43164062 C-201.24101382 257.7785845 -200.02755605 256.12526223 -198.81445312 254.47167969 C-195.88194254 250.47696263 -192.94063339 246.48873912 -190 242.5 C-188.83328889 240.91669941 -187.66662228 239.33336604 -186.5 237.75 C-165.5 209.25 -144.5 180.75 -123.5 152.25 C-122.92233887 151.4660083 -122.34467773 150.6820166 -121.74951172 149.87426758 C-120.58456151 148.29331017 -119.41952266 146.71241808 -118.25439453 145.1315918 C-115.3107302 141.13744172 -112.36868654 137.1421157 -109.4296875 133.14453125 C-103.50190275 125.08482392 -97.54832033 117.04675097 -91.53417969 109.05126953 C-85.89690914 101.5479322 -80.34128721 93.98469459 -74.78222656 86.42333984 C-71.85769254 82.44677482 -68.92864567 78.47353729 -66 74.5 C-64.83331112 72.91668304 -63.66664447 71.33334969 -62.5 69.75 C-55.5 60.25 -48.5 50.75 -41.5 41.25 C-40.92185547 40.4652832 -40.34371094 39.68056641 -39.74804688 38.87207031 C-38.58824633 37.29824041 -37.42809345 35.72467009 -36.26757812 34.15136719 C-33.24283044 30.04975489 -30.22542421 25.9430087 -27.21875 21.828125 C-26.59613281 20.97798828 -25.97351563 20.12785156 -25.33203125 19.25195312 C-24.1500452 17.63774829 -22.97019667 16.02197506 -21.79296875 14.40429688 C-10.15773779 -1.46571384 -10.15773779 -1.46571384 0 0 Z M-23 53 C-23.92517663 54.13444049 -24.80556235 55.30541937 -25.66796875 56.48828125 C-26.22419922 57.24753906 -26.78042969 58.00679687 -27.35351562 58.7890625 C-27.95873047 59.62179688 -28.56394531 60.45453125 -29.1875 61.3125 C-30.47257144 63.06907247 -31.75773005 64.82558116 -33.04296875 66.58203125 C-33.70216309 67.48518066 -34.36135742 68.38833008 -35.04052734 69.31884766 C-38.0146566 73.38835768 -41.00752743 77.44397101 -44 81.5 C-45.16677235 83.08325545 -46.33343862 84.66658909 -47.5 86.25 C-54.5 95.75 -61.5 105.25 -68.5 114.75 C-69.07766113 115.5339917 -69.65532227 116.3179834 -70.25048828 117.12573242 C-71.41543849 118.70668983 -72.58047734 120.28758192 -73.74560547 121.8684082 C-76.6892698 125.86255828 -79.63131346 129.8578843 -82.5703125 133.85546875 C-88.49809725 141.91517608 -94.45167967 149.95324903 -100.46582031 157.94873047 C-106.10309086 165.4520678 -111.65871279 173.01530541 -117.21777344 180.57666016 C-120.14230746 184.55322518 -123.07135433 188.52646271 -126 192.5 C-127.16668888 194.08331696 -128.33335553 195.66665031 -129.5 197.25 C-141.16666667 213.08333333 -152.83333333 228.91666667 -164.5 244.75 C-165.07806396 245.53455566 -165.65612793 246.31911133 -166.25170898 247.12744141 C-167.41252343 248.70275139 -168.57349223 250.27794765 -169.73461914 251.85302734 C-172.74213315 255.93317488 -175.74653234 260.01556415 -178.74609375 264.1015625 C-179.36419922 264.94267578 -179.98230469 265.78378906 -180.61914062 266.65039062 C-181.78682124 268.23948981 -182.9535689 269.82927521 -184.11914062 271.41992188 C-187.55978645 276.09969585 -191.08735957 280.69659283 -194.69946289 285.24560547 C-196.09925315 286.76991155 -196.09925315 286.76991155 -196 288 C-195.38708288 288.00331015 -194.77416576 288.00662029 -194.1426754 288.01003075 C-179.21927086 288.09130132 -164.29596264 288.18340708 -149.37270164 288.28752708 C-142.15587858 288.3376186 -134.93906667 288.38406186 -127.72216797 288.421875 C-121.43087912 288.45484768 -115.13967777 288.49470794 -108.84848559 288.54279006 C-105.51828642 288.56800276 -102.18815628 288.58877195 -98.85789108 288.60334396 C-95.13739213 288.62020815 -91.41717345 288.64924459 -87.69677734 288.68115234 C-86.04600189 288.68439262 -86.04600189 288.68439262 -84.36187744 288.68769836 C-74.39911925 288.79695664 -74.39911925 288.79695664 -70 291 C-67.20773058 299.37680825 -69.71516336 308.91042771 -71.046875 317.40234375 C-71.26207808 318.80684132 -71.47668516 320.21143032 -71.69073486 321.61610413 C-72.25538499 325.31085769 -72.82804345 329.00432566 -73.40246582 332.6975708 C-73.97103201 336.3620967 -74.53209477 340.02776907 -75.09375 343.69335938 C-76.57922274 353.376687 -78.07806079 363.05793492 -79.58007812 372.7387085 C-81.5393917 385.37061254 -83.4573661 398.00373673 -85.21084595 410.66589355 C-86.82197187 422.27824307 -88.52770117 433.84278028 -90.83203125 445.34277344 C-91.7442471 449.99697471 -92.17127265 454.25511313 -92 459 C-87.92354424 455.27153437 -84.85433515 450.88680621 -81.625 446.4375 C-80.36727873 444.71738121 -79.10946363 442.99733101 -77.8515625 441.27734375 C-77.2112207 440.39933105 -76.57087891 439.52131836 -75.91113281 438.61669922 C-72.95409245 434.56795642 -69.97665106 430.53433366 -67 426.5 C-65.83322213 424.91674861 -64.66655579 423.33341503 -63.5 421.75 C-47.16666667 399.58333333 -30.83333333 377.41666667 -14.5 355.25 C-13.92233887 354.4660083 -13.34467773 353.6820166 -12.74951172 352.87426758 C-11.58456151 351.29331017 -10.41952266 349.71241808 -9.25439453 348.1315918 C-6.3107302 344.13744172 -3.36868654 340.1421157 -0.4296875 336.14453125 C5.49809725 328.08482392 11.45167967 320.04675097 17.46582031 312.05126953 C23.10309086 304.5479322 28.65871279 296.98469459 34.21777344 289.42333984 C37.14230746 285.44677482 40.07135433 281.47353729 43 277.5 C44.16668888 275.91668304 45.33335553 274.33334969 46.5 272.75 C48.83333333 269.58333333 51.16666667 266.41666667 53.5 263.25 C54.07838623 262.4650415 54.65677246 261.68008301 55.25268555 260.87133789 C56.41037815 259.3001952 57.56809271 257.72906869 58.72583008 256.15795898 C61.7799874 252.01324654 64.83367646 247.86819012 67.88671875 243.72265625 C68.52287109 242.85898438 69.15902344 241.9953125 69.81445312 241.10546875 C71.03334382 239.45062445 72.25210088 237.79568172 73.47070312 236.140625 C74.02048828 235.39425781 74.57027344 234.64789063 75.13671875 233.87890625 C75.61842529 233.2247876 76.10013184 232.57066895 76.59643555 231.89672852 C77.59996198 230.54059756 78.63077609 229.20449018 79.67895508 227.88256836 C81.19146984 226.11044917 81.19146984 226.11044917 81 224 C80.38616109 223.99668985 79.77232218 223.99337971 79.13988209 223.98996925 C64.20013543 223.90872998 49.26049219 223.81663448 34.32088947 223.71247292 C27.09619067 223.66236252 19.87150311 223.61591944 12.64672852 223.578125 C6.34922316 223.54517199 0.05180555 223.50532253 -6.24560291 223.45720994 C-9.57968272 223.43197773 -12.91369298 223.41121548 -16.24783897 223.39665604 C-19.97093705 223.3798129 -23.69375313 223.35078168 -27.41674805 223.31884766 C-28.52086029 223.31668747 -29.62497253 223.31452728 -30.76254272 223.31230164 C-31.77911453 223.30113815 -32.79568634 223.28997467 -33.84306335 223.2784729 C-34.72337565 223.27294214 -35.60368795 223.26741138 -36.51067638 223.26171303 C-39.3232669 222.9660136 -41.46358165 222.23870471 -44 221 C-48.80947896 211.06041014 -42.80842982 192.00202451 -40.99169922 181.82861328 C-39.6916612 174.48156397 -38.6076556 167.1478991 -37.6796875 159.74609375 C-35.74838391 144.45341964 -33.28517364 129.24247019 -30.86968994 114.02056885 C-30.37561619 110.90252873 -29.88442725 107.78403727 -29.39334106 104.66552544 C-28.79459688 100.86407964 -28.19439167 97.06286515 -27.59375 93.26171875 C-27.47833862 92.53110104 -27.36292725 91.80048332 -27.24401855 91.04772568 C-26.18841536 84.37262699 -25.13049946 77.6985562 -23.98828125 71.03759766 C-23.84442993 70.1980806 -23.70057861 69.35856354 -23.55236816 68.49360657 C-23.19477538 66.42941737 -22.82930715 64.36659625 -22.46289062 62.30395508 C-22.0211812 59.15118416 -21.90991262 56.17831942 -22 53 C-22.33 53 -22.66 53 -23 53 Z " fill="#232327" transform="translate(313,0)"/>
</svg>
