<?xml version="1.0" encoding="UTF-8"?>
<svg version="1.1" xmlns="http://www.w3.org/2000/svg" width="512" height="512">
<path d="M0 0 C1.27845291 -0.0127597 2.55690582 -0.02551941 3.87409973 -0.03866577 C5.26722054 -0.04172383 6.66034339 -0.04395137 8.0534668 -0.04541016 C9.48829785 -0.05184095 10.9231276 -0.05856952 12.35795593 -0.06558228 C15.36480751 -0.07754911 18.37154426 -0.08126382 21.37841797 -0.08007812 C25.21847517 -0.07987519 29.05779014 -0.10715209 32.8976717 -0.14162254 C35.86180454 -0.1639391 38.82576026 -0.1679142 41.78996849 -0.16685867 C43.20487203 -0.16920846 44.61978091 -0.17799681 46.03460121 -0.19352341 C59.7805946 -0.3302276 59.7805946 -0.3302276 65.69018555 4.29052734 C68.51420402 7.33749464 70.75024503 9.88724268 70.64160156 14.23461914 C70.57642334 14.97881104 70.51124512 15.72300293 70.4440918 16.48974609 C69.71487944 31.9721518 74.47235695 42.75562574 81.87402344 55.93383789 C86.37599669 64.02602338 89.05873252 70.84975426 89.69018555 80.29052734 C90.20234619 79.30379028 90.20234619 79.30379028 90.72485352 78.29711914 C94.70782223 70.62540101 98.69761965 62.95725456 102.69018555 55.29052734 C103.17471191 54.35885742 103.65923828 53.4271875 104.15844727 52.46728516 C106.61193236 47.75337608 109.08322209 43.04985605 111.58764648 38.36279297 C112.30289681 37.0184518 113.01225407 35.67095225 113.71459961 34.31982422 C120.91912933 20.48312066 130.90750531 7.62272441 145.69018555 1.35302734 C157.81656101 -2.09932154 170.98197618 -0.40672044 181.9206543 5.49365234 C183.91720295 6.67734723 185.80238967 7.94150507 187.69018555 9.29052734 C188.70081055 9.99177734 189.71143555 10.69302734 190.75268555 11.41552734 C199.24038336 18.74052683 202.94454615 29.41386792 203.85424805 40.24365234 C204.42747791 54.31383984 198.84158149 66.98773546 192.69018555 79.29052734 C193.41157715 79.2816449 194.13296875 79.27276245 194.8762207 79.26361084 C201.70192742 79.18318994 208.52756257 79.1224239 215.35362244 79.08327866 C218.86233873 79.06247627 222.37066088 79.03429571 225.87915039 78.98876953 C229.92036547 78.93666377 233.96117183 78.91752158 238.00268555 78.89990234 C239.25194824 78.8792572 240.50121094 78.85861206 241.78833008 78.83734131 C248.9195697 78.8355164 253.64539779 79.40721189 259.69018555 83.29052734 C263.70473227 87.42440242 265.69018555 92.54734927 265.69018555 98.29052734 C264.24600921 105.62542293 261.25627226 109.70511448 255.19018555 114.10302734 C252.69018555 115.29052734 252.69018555 115.29052734 247.69018555 115.29052734 C247.69018555 126.84052734 247.69018555 138.39052734 247.69018555 150.29052734 C251.65018555 150.29052734 255.61018555 150.29052734 259.69018555 150.29052734 C263.41943624 152.19171397 264.32846007 153.2505666 265.69018555 157.16552734 C265.69018555 161.01143909 264.7428672 163.06488474 262.69018555 166.29052734 C257.94387268 169.45473592 253.32261678 168.4116549 247.69018555 168.29052734 C247.69018555 173.90052734 247.69018555 179.51052734 247.69018555 185.29052734 C249.56706055 185.18740234 251.44393555 185.08427734 253.37768555 184.97802734 C259.2348284 184.97802734 259.2348284 184.97802734 262.87768555 187.47802734 C264.71418015 190.32776035 265.605847 191.91698546 265.69018555 195.29052734 C264.71292369 198.71094385 263.52967663 201.10630343 260.69018555 203.29052734 C256.69018555 204.29052734 256.69018555 204.29052734 247.69018555 204.29052734 C247.69018555 212.54052734 247.69018555 220.79052734 247.69018555 229.29052734 C254.28639786 229.17256957 254.28639786 229.17256957 260.88183594 229.02026367 C268.02848697 228.95615269 273.05967137 229.7181025 278.37670898 234.91772461 C283.36186003 240.91120352 286.47555556 248.22865845 289.8972168 255.18115234 C290.67013449 256.73378652 291.44388591 258.2860059 292.21842957 259.83782959 C294.24417441 263.90266602 296.25750241 267.97353352 298.26855469 272.0456543 C299.91575889 275.37558105 301.57197032 278.70098676 303.2286272 282.02621841 C305.20461902 285.99297645 307.17643129 289.9618056 309.1472168 293.93115234 C309.52301188 294.68765327 309.89880695 295.44415421 310.28598976 296.22357941 C311.34591518 298.35969468 312.40296907 300.49720343 313.45898438 302.63525391 C313.77323868 303.26802246 314.08749298 303.90079102 314.41127014 304.55273438 C317.72671473 311.28290786 318.39338376 316.8227604 317.69018555 324.29052734 C315.39786903 329.13965844 311.15697933 334.04335069 305.93725586 335.92114258 C302.85059144 336.42854406 299.86477508 336.40143662 296.73706055 336.38818359 C296.07683899 336.38676865 295.41661743 336.3853537 294.73638916 336.38389587 C292.6376076 336.37831979 290.5389346 336.36577181 288.44018555 336.35302734 C287.01310376 336.34800925 285.58602029 336.34344688 284.15893555 336.33935547 C280.66931722 336.32835823 277.17976199 336.31111014 273.69018555 336.29052734 C273.69295093 337.08713524 273.6957163 337.88374313 273.69856548 338.70449066 C273.76486303 358.10152252 273.81448449 377.49853172 273.84562206 396.89565277 C273.86108079 406.27601698 273.88215129 415.65630548 273.91650391 425.03662109 C273.94643671 433.21397405 273.96576778 441.39127216 273.97245103 449.56867838 C273.97635671 453.89722896 273.98551487 458.22562269 274.00737572 462.55412292 C274.02780222 466.63182037 274.03400694 470.70929696 274.02950859 474.78704071 C274.03033104 476.28014579 274.03625997 477.77325858 274.04780197 479.26631927 C274.12093993 489.21910905 273.90103822 498.01610548 266.59139919 505.56449187 C258.48841502 512.92086561 249.26688833 513.00741156 238.90087891 512.92544556 C237.3071933 512.93121368 235.71351436 512.93915942 234.11984921 512.94908178 C229.76055861 512.96988373 225.40181789 512.95967044 221.04252577 512.94415069 C216.33349927 512.93281375 211.62456575 512.9503115 206.91555786 512.96405029 C197.6985362 512.98626223 188.48171832 512.98149061 179.26468873 512.96698709 C171.7726234 512.95568681 164.28061511 512.95416737 156.7885437 512.95960617 C155.72149639 512.96037234 154.65444908 512.9611385 153.555067 512.96192788 C151.38725764 512.96352654 149.21944829 512.96514761 147.05163896 512.96679084 C126.73274465 512.98104236 106.41396321 512.96466496 86.09508741 512.93778901 C68.66742038 512.91545079 51.23991988 512.91933109 33.81225586 512.94238281 C13.56517197 512.96915134 -6.68181305 512.97966912 -26.92891216 512.96432149 C-29.08866563 512.96272878 -31.24841911 512.96115692 -33.40817261 512.95960617 C-34.47076217 512.95883479 -35.53335174 512.95806342 -36.62814099 512.95726866 C-44.1096316 512.95295483 -51.5910594 512.9602314 -59.07254028 512.97200394 C-68.19226412 512.98603914 -77.31177282 512.98220745 -86.43147206 512.95560022 C-91.08291286 512.94247583 -95.7339952 512.93728614 -100.3854332 512.95384598 C-104.64671517 512.96878716 -108.90730772 512.9604891 -113.16852748 512.93395822 C-114.70674743 512.92839085 -116.24502608 512.93117446 -117.78320801 512.94333716 C-127.45299825 513.01390973 -135.74873765 512.33920552 -143.2110281 505.56449187 C-151.08050781 497.43797929 -150.73231999 487.66029984 -150.65039062 477.06201172 C-150.64954339 475.52390561 -150.65002138 473.98579828 -150.65171814 472.44769287 C-150.65257574 468.29116687 -150.63498826 464.13490278 -150.61399627 459.97843742 C-150.59519012 455.62760638 -150.59347593 451.27676874 -150.58992004 446.92590332 C-150.58061112 438.6954413 -150.556013 430.46509941 -150.52587157 422.23469019 C-150.49229162 412.86106032 -150.47583253 403.48742459 -150.46078527 394.1137495 C-150.42946238 374.83927412 -150.37672438 355.5649104 -150.30981445 336.29052734 C-151.1819458 336.30623779 -152.05407715 336.32194824 -152.95263672 336.33813477 C-156.21604463 336.38953555 -159.47901677 336.42700828 -162.74267578 336.45532227 C-164.14997179 336.47032611 -165.5572217 336.49073597 -166.96435547 336.5168457 C-168.99759352 336.55360399 -171.03020877 336.57033718 -173.0637207 336.58349609 C-174.28389893 336.59920654 -175.50407715 336.61491699 -176.76123047 336.63110352 C-181.59884166 336.16681266 -185.57657911 334.84077171 -189.27075195 331.53662109 C-189.73739258 330.93978516 -190.2040332 330.34294922 -190.68481445 329.72802734 C-191.16692383 329.12861328 -191.6490332 328.52919922 -192.14575195 327.91162109 C-195.49565659 323.24648544 -194.85391908 317.80762518 -194.30981445 312.29052734 C-193.16589873 308.53114085 -191.47364277 305.19214669 -189.6340332 301.72802734 C-188.61738303 299.7138111 -187.60095348 297.69948349 -186.5847168 295.68505859 C-186.04780212 294.64172363 -185.51088745 293.59838867 -184.95770264 292.5234375 C-182.72829672 288.14967652 -180.60069775 283.72938032 -178.46902466 279.30737305 C-176.27419413 274.76713883 -174.0436811 270.24487699 -171.81103516 265.72314453 C-170.67282295 263.40953118 -169.54177948 261.09237898 -168.41748047 258.77197266 C-166.75953318 255.35270943 -165.07829372 251.94580576 -163.3918457 248.54052734 C-162.89892532 247.51137207 -162.40600494 246.4822168 -161.89814758 245.421875 C-158.74573417 239.13362861 -155.32268982 234.13952946 -149.30981445 230.29052734 C-146.32317048 229.33477435 -143.67459232 229.17280441 -140.54418945 229.19287109 C-139.65473633 229.19609375 -138.7652832 229.19931641 -137.84887695 229.20263672 C-136.92848633 229.21101562 -136.0080957 229.21939453 -135.05981445 229.22802734 C-134.12395508 229.23253906 -133.1880957 229.23705078 -132.22387695 229.24169922 C-129.91912404 229.25345816 -127.61450219 229.26989309 -125.30981445 229.29052734 C-125.81641602 228.13037109 -125.81641602 228.13037109 -126.33325195 226.94677734 C-135.06759212 206.54982113 -135.74797521 185.46085303 -127.71606445 164.54052734 C-121.49839469 150.17080166 -111.70695074 139.30150618 -97.05981445 133.41552734 C-89.02531963 130.99515368 -80.10186755 131.32268922 -72.30981445 134.29052734 C-74.9040473 123.80813933 -78.38830469 118.29538968 -87.30981445 112.29052734 C-88.92569824 109.05875977 -88.88432852 105.78437452 -88.30981445 102.29052734 C-86.30981445 99.29052734 -86.30981445 99.29052734 -83.30981445 97.29052734 C-79.23151683 96.55509663 -76.96705786 96.43455308 -73.2980957 98.32958984 C-62.03729125 106.24976272 -55.74534264 116.64152096 -52.99731445 130.04052734 C-52.75489917 131.45498718 -52.52023769 132.87095562 -52.30981445 134.29052734 C-51.34043945 133.96052734 -50.37106445 133.63052734 -49.37231445 133.29052734 C-46.35534065 132.4117449 -43.69521792 132.18181855 -40.5559082 132.22802734 C-39.75725342 132.23705078 -38.95859863 132.24607422 -38.13574219 132.25537109 C-37.23190796 132.27277344 -37.23190796 132.27277344 -36.30981445 132.29052734 C-36.31980721 131.21177086 -36.31980721 131.21177086 -36.33000183 130.11122131 C-36.39036287 123.30050143 -36.4359151 116.48982205 -36.46525097 109.67890263 C-36.48084045 106.17815203 -36.50195386 102.67762432 -36.53613281 99.17700195 C-36.57526651 95.14320863 -36.58957908 91.10964578 -36.6027832 87.07568359 C-36.61826706 85.83158218 -36.63375092 84.58748077 -36.64970398 83.30567932 C-36.65158051 73.52899259 -34.86681296 66.5591525 -29.98950195 58.09521484 C-22.54054221 44.61966096 -17.66189051 33.75281216 -18.3293457 17.92333984 C-18.53297189 12.18280223 -16.65407932 8.80713386 -12.87231445 4.54052734 C-8.56415123 0.75774988 -5.73706265 0.03888698 0 0 Z " fill="#CB8252" transform="translate(194.309814453125,-0.29052734375)"/>
<path d="M0 0 C139.92 0 279.84 0 424 0 C424 162.94331768 424 162.94331768 416.90121365 170.27396452 C408.79822947 177.63033827 399.57670278 177.71688422 389.21069336 177.63491821 C387.61700776 177.64068633 386.02332881 177.64863208 384.42966366 177.65855443 C380.07037307 177.67935639 375.71163235 177.66914309 371.35234022 177.65362334 C366.64331373 177.6422864 361.9343802 177.65978415 357.22537231 177.67352295 C348.00835065 177.69573489 338.79153277 177.69096326 329.57450318 177.67645974 C322.08243785 177.66515947 314.59042956 177.66364002 307.09835815 177.66907883 C306.03131084 177.66984499 304.96426353 177.67061116 303.86488146 177.67140054 C301.69707209 177.6729992 299.52926274 177.67462026 297.36145341 177.6762635 C277.04255911 177.69051501 256.72377766 177.67413762 236.40490186 177.64726166 C218.97723483 177.62492345 201.54973434 177.62880374 184.12207031 177.65185547 C163.87498642 177.67862399 143.62800141 177.68914177 123.38090229 177.67379415 C121.22114882 177.67220144 119.06139534 177.67062958 116.90164185 177.66907883 C115.83905228 177.66830745 114.77646272 177.66753607 113.68167347 177.66674132 C106.20018286 177.66242749 98.71875505 177.66970406 91.23727417 177.68147659 C82.11755034 177.69551179 72.99804163 177.69168011 63.87834239 177.66507287 C59.2269016 177.65194849 54.57581925 177.6467588 49.92438126 177.66331863 C45.66309929 177.67825981 41.40250673 177.66996175 37.14128697 177.64343087 C35.60306702 177.6378635 34.06478837 177.64064712 32.52660644 177.65280981 C22.8568162 177.72338239 14.5610768 177.04867818 7.09878635 170.27396452 C-32.41947764 129.46495536 0 56.80729194 0 0 Z " fill="#A56A43" transform="translate(44,335)"/>
<path d="M0 0 C1.27845291 -0.0127597 2.55690582 -0.02551941 3.87409973 -0.03866577 C5.26722054 -0.04172383 6.66034339 -0.04395137 8.0534668 -0.04541016 C9.48829785 -0.05184095 10.9231276 -0.05856952 12.35795593 -0.06558228 C15.36480751 -0.07754911 18.37154426 -0.08126382 21.37841797 -0.08007812 C25.21847517 -0.07987519 29.05779014 -0.10715209 32.8976717 -0.14162254 C35.86180454 -0.1639391 38.82576026 -0.1679142 41.78996849 -0.16685867 C43.20487203 -0.16920846 44.61978091 -0.17799681 46.03460121 -0.19352341 C59.7805946 -0.3302276 59.7805946 -0.3302276 65.69018555 4.29052734 C68.51420402 7.33749464 70.75024503 9.88724268 70.64160156 14.23461914 C70.57642334 14.97881104 70.51124512 15.72300293 70.4440918 16.48974609 C69.57308897 35.03657612 77.33474055 48.65719021 86.1237793 64.37744141 C88.61173667 69.00435964 88.79145561 72.21851962 88.71191406 77.42407227 C88.70230652 78.14627457 88.69269897 78.86847687 88.68280029 79.61256409 C88.64982906 81.99880785 88.60948967 84.38486746 88.5690918 86.77099609 C88.54478884 88.42580008 88.52094537 90.08061088 88.49754333 91.73542786 C88.43471985 96.09040075 88.36564827 100.44525309 88.29528809 104.80010986 C88.22458899 109.24412548 88.15978145 113.68822655 88.09448242 118.13232422 C87.96549244 126.85181988 87.82990357 135.57119702 87.69018555 144.29052734 C86.60406982 144.8194458 85.5179541 145.34836426 84.39892578 145.89331055 C82.95291302 146.60487788 81.50703815 147.3167255 80.0612793 148.02880859 C79.34790405 148.37528442 78.63452881 148.72176025 77.89953613 149.07873535 C62.11198631 156.88427374 52.36391977 169.69992056 46.69018555 186.29052734 C42.84289285 199.27840282 44.68345767 215.93016789 49.69018555 228.29052734 C49.69018555 228.95052734 49.69018555 229.61052734 49.69018555 230.29052734 C33.52018555 230.29052734 17.35018555 230.29052734 0.69018555 230.29052734 C1.68826664 225.30012187 3.19563643 220.68607154 4.8737793 215.90576172 C11.21002338 197.44067172 8.32884652 177.12498754 -0.05981445 159.85302734 C-5.50087746 149.31831074 -12.49098586 141.54294017 -23.30981445 136.29052734 C-26.51818384 135.26865794 -29.67533937 134.4682228 -32.97387695 133.79833984 C-35.30981445 133.29052734 -35.30981445 133.29052734 -36.30981445 132.29052734 C-36.41932114 130.49749214 -36.45890777 128.70014431 -36.47094727 126.90380859 C-36.48055481 125.75170898 -36.49016235 124.59960938 -36.50006104 123.41259766 C-36.50431091 122.15543945 -36.50856079 120.89828125 -36.51293945 119.60302734 C-36.51863953 118.3162207 -36.5243396 117.02941406 -36.5302124 115.70361328 C-36.54073868 112.96972254 -36.54656886 110.2358613 -36.55004883 107.50195312 C-36.55549941 104.01973883 -36.57944544 100.53792237 -36.60802078 97.05583191 C-36.6312928 93.71740575 -36.63310842 90.37903032 -36.63793945 87.04052734 C-36.65028625 85.79956299 -36.66263306 84.55859863 -36.675354 83.2800293 C-36.65048848 73.52540258 -34.85650114 66.54125767 -29.98950195 58.09521484 C-22.54054221 44.61966096 -17.66189051 33.75281216 -18.3293457 17.92333984 C-18.53297189 12.18280223 -16.65407932 8.80713386 -12.87231445 4.54052734 C-8.56415123 0.75774988 -5.73706265 0.03888698 0 0 Z " fill="#9FC8D2" transform="translate(194.309814453125,-0.29052734375)"/>
<path d="M0 0 C0.95177628 -0.0071553 1.90355255 -0.01431061 2.88417053 -0.02168274 C3.92680054 -0.02437164 4.96943054 -0.02706055 6.0436554 -0.02983093 C7.14315018 -0.03640213 8.24264496 -0.04297333 9.37545776 -0.04974365 C13.02177496 -0.06948796 16.66805093 -0.08114227 20.31440735 -0.09111023 C21.55938303 -0.09518576 22.80435871 -0.09926128 24.08706093 -0.10346031 C29.99773531 -0.12217461 35.90839659 -0.13673856 41.81909341 -0.14507228 C48.62964125 -0.15483449 55.43986321 -0.18112848 62.25029629 -0.22157317 C68.15826988 -0.25544741 74.06616423 -0.26722357 79.97423744 -0.27127647 C82.482417 -0.27614571 84.990593 -0.2877692 87.49870872 -0.30631447 C91.01265193 -0.33068033 94.52574719 -0.32974489 98.03974915 -0.32279968 C99.072258 -0.33560974 100.10476685 -0.3484198 101.16856384 -0.36161804 C107.672966 -0.31485696 111.79648633 0.73281791 117.3651886 4.14717102 C121.37973532 8.28104609 123.3651886 13.40399295 123.3651886 19.14717102 C121.92101227 26.4820666 118.93127531 30.56175815 112.8651886 34.95967102 C110.3651886 36.14717102 110.3651886 36.14717102 105.3651886 36.14717102 C105.3651886 47.69717102 105.3651886 59.24717102 105.3651886 71.14717102 C109.3251886 71.14717102 113.2851886 71.14717102 117.3651886 71.14717102 C121.09443929 73.04835765 122.00346312 74.10721028 123.3651886 78.02217102 C123.3651886 81.86808276 122.41787025 83.92152842 120.3651886 87.14717102 C115.61887573 90.3113796 110.99761983 89.26829857 105.3651886 89.14717102 C105.3651886 94.75717102 105.3651886 100.36717102 105.3651886 106.14717102 C107.2420636 106.04404602 109.1189386 105.94092102 111.0526886 105.83467102 C116.90983146 105.83467102 116.90983146 105.83467102 120.5526886 108.33467102 C122.3891832 111.18440402 123.28085005 112.77362914 123.3651886 116.14717102 C122.38792674 119.56758752 121.20467968 121.96294711 118.3651886 124.14717102 C114.3651886 125.14717102 114.3651886 125.14717102 105.3651886 125.14717102 C105.3651886 133.72717102 105.3651886 142.30717102 105.3651886 151.14717102 C76.9851886 151.14717102 48.6051886 151.14717102 19.3651886 151.14717102 C22.3651886 140.14717102 22.3651886 140.14717102 23.53315735 136.46748352 C27.35990422 121.19642791 23.40313189 105.06292618 15.6776886 91.74092102 C10.75800641 83.78460742 4.27943435 77.13658682 -3.6348114 72.14717102 C-2.6448114 71.65217102 -2.6448114 71.65217102 -1.6348114 71.14717102 C-1.6348114 59.59717102 -1.6348114 48.04717102 -1.6348114 36.14717102 C-3.6148114 35.81717102 -5.5948114 35.48717102 -7.6348114 35.14717102 C-12.22406349 32.57718985 -16.60291412 29.49910582 -18.21684265 24.25654602 C-19.32783272 18.64968024 -19.45222564 13.88015697 -16.5098114 8.83467102 C-12.37420793 2.93673652 -7.15900524 0.03697059 0 0 Z " fill="#808C8D" transform="translate(336.6348114013672,78.85282897949219)"/>
<path d="M0 0 C7.48097597 1.91535192 13.78897755 9.50336924 18.10546875 15.5390625 C21.83077499 22.52754838 23.94781881 29.729245 25.10546875 37.5390625 C26.05421875 37.2090625 27.00296875 36.8790625 27.98046875 36.5390625 C37.67542415 33.8384637 48.04603813 35.59123139 56.99609375 39.9453125 C71.72322723 48.66640831 80.21733042 63.06377298 84.60546875 79.2890625 C88.4996012 95.65782583 86.91711879 112.95027618 80.02636719 128.26879883 C79.66653748 129.07094315 79.30670776 129.87308746 78.93597412 130.69953918 C78.52487396 131.61010323 78.52487396 131.61010323 78.10546875 132.5390625 C51.52433758 133.48088245 24.97254666 133.66802563 -1.62347412 133.60772705 C-6.75418667 133.59725769 -11.88490471 133.59288041 -17.015625 133.58789062 C-26.97527405 133.57735673 -36.93489993 133.5604299 -46.89453125 133.5390625 C-47.70686397 131.93734836 -48.51658602 130.33430999 -49.32519531 128.73071289 C-49.77638733 127.83816299 -50.22757935 126.9456131 -50.69244385 126.02601624 C-58.66274575 109.53655627 -57.3450897 88.17078062 -51.64453125 71.2890625 C-45.76858088 55.98426153 -36.62879576 44.65057996 -21.75390625 37.51171875 C-13.28358436 34.10790421 -3.34829661 34.31919132 5.10546875 37.5390625 C2.5112359 27.05667448 -0.97302149 21.54392484 -9.89453125 15.5390625 C-11.51041504 12.30729493 -11.46904532 9.03290967 -10.89453125 5.5390625 C-8.01560314 1.22067034 -5.30144684 -0.37796431 0 0 Z " fill="#E54C3C" transform="translate(116.89453125,96.4609375)"/>
<path d="M0 0 C3.61047145 1.86894992 7.01523854 3.83852189 10.32421875 6.203125 C11.33484375 6.904375 12.34546875 7.605625 13.38671875 8.328125 C21.87441656 15.65312448 25.57857936 26.32646557 26.48828125 37.15625 C27.06151111 51.2264375 21.47561469 63.90033312 15.32421875 76.203125 C14.3172998 76.20859344 14.3172998 76.20859344 13.29003906 76.21417236 C6.28139048 76.25609508 -0.72660922 76.32550982 -7.73486328 76.41064453 C-10.34775288 76.43880974 -12.96072698 76.46004629 -15.57373047 76.47412109 C-19.33735271 76.49561113 -23.09996373 76.54229643 -26.86328125 76.59375 C-28.02504883 76.59497864 -29.18681641 76.59620728 -30.38378906 76.59747314 C-37.94100064 76.7328778 -43.89955233 77.52916894 -49.55078125 83.02734375 C-52.63308145 88.13240346 -53.64664193 92.27127296 -52.67578125 98.203125 C-51.05204569 103.41617075 -49.32473067 106.31044536 -44.67578125 109.203125 C-42.03578125 110.193125 -39.39578125 111.183125 -36.67578125 112.203125 C-36.67578125 123.753125 -36.67578125 135.303125 -36.67578125 147.203125 C-39.67578125 148.203125 -39.67578125 148.203125 -42.13671875 147.09375 C-43.09835937 146.55234375 -44.06 146.0109375 -45.05078125 145.453125 C-57.57036843 138.98266528 -70.60786193 137.65295509 -84.40576172 140.22192383 C-85.88736282 140.49629021 -85.88736282 140.49629021 -87.39889526 140.77619934 C-88.15026764 140.91708481 -88.90164001 141.05797028 -89.67578125 141.203125 C-89.86301384 133.78727077 -90.00421464 126.37194419 -90.09027863 118.95418549 C-90.13163446 115.50781962 -90.18749894 112.06309635 -90.27929688 108.61767578 C-91.01034937 80.39200964 -91.01034937 80.39200964 -82.83959961 68.04364014 C-80.69784224 64.6565679 -79.01093076 61.03085152 -77.23828125 57.44140625 C-76.48296898 55.95640795 -75.72515203 54.47268097 -74.96484375 52.99023438 C-73.81684204 50.74790567 -72.67034659 48.50491668 -71.53027344 46.25854492 C-57.72516487 19.06389573 -35.91511103 -15.62004829 0 0 Z " fill="#CA8252" transform="translate(371.67578125,2.796875)"/>
<path d="M0 0 C11.58425869 9.871955 20.79731265 24.41855248 22.15234375 39.83203125 C22.89736733 51.47302469 22.87594257 63.74663301 16.15234375 73.83203125 C13.06821151 74.23173356 10.17887319 74.43514742 7.08203125 74.51171875 C6.14914276 74.54474091 5.21625427 74.57776306 4.25509644 74.61178589 C-7.06780928 74.97344543 -18.39521836 74.98310711 -29.72265625 74.95703125 C-30.83854126 74.95614502 -31.95442627 74.95525879 -33.10412598 74.9543457 C-54.0297318 74.93497221 -74.93427897 74.52889671 -95.84765625 73.83203125 C-96.50004783 72.43925108 -97.14426177 71.04263913 -97.78515625 69.64453125 C-98.14480469 68.86722656 -98.50445312 68.08992188 -98.875 67.2890625 C-103.40968019 55.83398684 -102.70311655 38.47968827 -98.78515625 26.95703125 C-96.12045225 20.83196517 -92.79136511 15.21605117 -88.84765625 9.83203125 C-88.3371875 9.125625 -87.82671875 8.41921875 -87.30078125 7.69140625 C-78.30398362 -3.62139869 -63.6802153 -11.56027993 -49.51953125 -13.8828125 C-30.76463634 -15.8844314 -14.91684175 -11.35644331 0 0 Z " fill="#F19B1F" transform="translate(339.84765625,155.16796875)"/>
<path d="M0 0 C0.95177628 -0.0071553 1.90355255 -0.01431061 2.88417053 -0.02168274 C3.92680054 -0.02437164 4.96943054 -0.02706055 6.0436554 -0.02983093 C7.14315018 -0.03640213 8.24264496 -0.04297333 9.37545776 -0.04974365 C13.02177496 -0.06948796 16.66805093 -0.08114227 20.31440735 -0.09111023 C21.55938303 -0.09518576 22.80435871 -0.09926128 24.08706093 -0.10346031 C29.99773531 -0.12217461 35.90839659 -0.13673856 41.81909341 -0.14507228 C48.62964125 -0.15483449 55.43986321 -0.18112848 62.25029629 -0.22157317 C68.15826988 -0.25544741 74.06616423 -0.26722357 79.97423744 -0.27127647 C82.482417 -0.27614571 84.990593 -0.2877692 87.49870872 -0.30631447 C91.01265193 -0.33068033 94.52574719 -0.32974489 98.03974915 -0.32279968 C99.072258 -0.33560974 100.10476685 -0.3484198 101.16856384 -0.36161804 C107.672966 -0.31485696 111.79648633 0.73281791 117.3651886 4.14717102 C121.37973532 8.28104609 123.3651886 13.40399295 123.3651886 19.14717102 C121.92101227 26.4820666 118.93127531 30.56175815 112.8651886 34.95967102 C110.3651886 36.14717102 110.3651886 36.14717102 105.3651886 36.14717102 C105.3651886 47.69717102 105.3651886 59.24717102 105.3651886 71.14717102 C70.3851886 71.14717102 35.4051886 71.14717102 -0.6348114 71.14717102 C-0.6348114 65.20717102 -0.6348114 59.26717102 -0.6348114 53.14717102 C1.48440735 53.13299133 3.6036261 53.11881165 5.7870636 53.10420227 C7.84581801 53.07356327 9.9042515 53.03448018 11.96284485 52.99458313 C13.39046327 52.97142643 14.81825196 52.95701278 16.24604797 52.95161438 C18.30246273 52.9423061 20.35620887 52.9012883 22.4120636 52.85420227 C24.26589661 52.8306366 24.26589661 52.8306366 26.15718079 52.80659485 C29.51858637 52.41073271 29.51858637 52.41073271 31.79975891 49.82954407 C33.66971402 47.14299023 33.66971402 47.14299023 33.3651886 43.52217102 C32.65447785 40.13827786 32.65447785 40.13827786 30.4901886 38.27217102 C26.3344819 36.072091 22.64588481 35.99913922 18.06440735 35.97138977 C16.5975962 35.94818685 15.13079928 35.92406932 13.66401672 35.89912415 C11.35996526 35.86406942 9.05643674 35.8346929 6.75215149 35.82124329 C4.52226434 35.80569317 2.29389051 35.76544228 0.06440735 35.72138977 C-0.95777641 35.7242524 -0.95777641 35.7242524 -2.00061035 35.72717285 C-6.97453241 35.60108752 -9.77744945 34.2181389 -13.6348114 31.14717102 C-18.15498979 26.26049168 -19.0644579 22.04347406 -18.9785614 15.52607727 C-18.16166526 9.87278463 -14.89062537 6.12670592 -10.5098114 2.70967102 C-6.8154947 0.7018902 -4.1397001 0.02137827 0 0 Z " fill="#95A4A4" transform="translate(336.6348114013672,78.85282897949219)"/>
<path d="M0 0 C1.27845291 -0.0127597 2.55690582 -0.02551941 3.87409973 -0.03866577 C5.26722054 -0.04172383 6.66034339 -0.04395137 8.0534668 -0.04541016 C9.48829785 -0.05184095 10.9231276 -0.05856952 12.35795593 -0.06558228 C15.36480751 -0.07754911 18.37154426 -0.08126382 21.37841797 -0.08007812 C25.21847517 -0.07987519 29.05779014 -0.10715209 32.8976717 -0.14162254 C35.86180454 -0.1639391 38.82576026 -0.1679142 41.78996849 -0.16685867 C43.20487203 -0.16920846 44.61978091 -0.17799681 46.03460121 -0.19352341 C59.7805946 -0.3302276 59.7805946 -0.3302276 65.69018555 4.29052734 C68.51420402 7.33749464 70.75024503 9.88724268 70.64160156 14.23461914 C70.57642334 14.97881104 70.51124512 15.72300293 70.4440918 16.48974609 C69.60557564 34.38031358 76.68330835 47.50960694 85.27648926 62.65931702 C86.83285284 65.44239704 87.69018555 67.04207374 87.69018555 70.29052734 C47.10018555 70.29052734 6.51018555 70.29052734 -35.30981445 70.29052734 C-33.79148605 65.73554213 -32.4154471 62.45569211 -30.0871582 58.38818359 C-22.61549869 44.82538139 -17.66007337 33.83503318 -18.3293457 17.92333984 C-18.53297189 12.18280223 -16.65407932 8.80713386 -12.87231445 4.54052734 C-8.56415123 0.75774988 -5.73706265 0.03888698 0 0 Z " fill="#84B5CB" transform="translate(194.309814453125,-0.29052734375)"/>
<path d="M0 0 C1.27845291 -0.0127597 2.55690582 -0.02551941 3.87409973 -0.03866577 C5.26722054 -0.04172383 6.66034339 -0.04395137 8.0534668 -0.04541016 C9.48829785 -0.05184095 10.9231276 -0.05856952 12.35795593 -0.06558228 C15.36480751 -0.07754911 18.37154426 -0.08126382 21.37841797 -0.08007812 C25.21847517 -0.07987519 29.05779014 -0.10715209 32.8976717 -0.14162254 C35.86180454 -0.1639391 38.82576026 -0.1679142 41.78996849 -0.16685867 C43.20487203 -0.16920846 44.61978091 -0.17799681 46.03460121 -0.19352341 C59.7805946 -0.3302276 59.7805946 -0.3302276 65.69018555 4.29052734 C74.39272273 13.68010694 70.69018555 19.98227754 70.69018555 35.29052734 C41.32018555 35.29052734 11.95018555 35.29052734 -18.30981445 35.29052734 C-18.30981445 10.67514273 -18.30981445 10.67514273 -12.87231445 4.54052734 C-8.56415123 0.75774988 -5.73706265 0.03888698 0 0 Z " fill="#9FC9D3" transform="translate(194.309814453125,-0.29052734375)"/>
<path d="M0 0 C26.4 0 52.8 0 80 0 C80 8.91 80 17.82 80 27 C51.62 27 23.24 27 -6 27 C-3 16 -3 16 -1.875 12.375 C-0.68541158 8.11661197 -0.68541158 8.11661197 0 0 Z " fill="#95A4A3" transform="translate(362,203)"/>
<path d="M0 0 C12.16970528 -0.11294309 24.33906271 -0.20468313 36.50917339 -0.25906086 C42.16020358 -0.28515893 47.81085674 -0.32056158 53.46166992 -0.37719727 C58.91465271 -0.43150841 64.36727277 -0.46141895 69.82050514 -0.47438622 C71.90137251 -0.48362762 73.98221994 -0.50167402 76.06293297 -0.52865028 C78.97688123 -0.5649282 81.88932919 -0.56994581 84.8034668 -0.56762695 C85.66445984 -0.58560333 86.52545288 -0.60357971 87.41253662 -0.62210083 C91.78325388 -0.58444578 93.46977869 -0.41824848 97.01618958 2.37922668 C99.10984447 5.1451134 99.91379024 6.55160963 100 10 C99.02273814 13.4204165 97.83949108 15.81577609 95 18 C90.82573652 19.28567714 86.69991724 19.09017487 82.37597656 19.02172852 C81.07299873 19.0073172 81.07299873 19.0073172 79.74369812 18.99261475 C76.87592358 18.95966527 74.0083033 18.91931744 71.140625 18.87890625 C69.15094545 18.85460118 67.16126022 18.83075781 65.17156982 18.80735779 C59.93708816 18.74455541 54.70270735 18.6754778 49.46832275 18.60510254 C44.12606393 18.5343844 38.78373366 18.46958825 33.44140625 18.40429688 C22.96085683 18.27533407 12.48041851 18.13919602 2 18 C1.34 12.06 0.68 6.12 0 0 Z " fill="#7F8C8D" transform="translate(360,185)"/>
<path d="M0 0 C30.03 0 60.06 0 91 0 C91 5.61 91 11.22 91 17 C63.61 17 36.22 17 8 17 C4.04 8.585 4.04 8.585 0 0 Z " fill="#95A4A4" transform="translate(351,168)"/>
<path d="M0 0 C7.46509013 1.91128467 13.81593331 9.49888332 18.10546875 15.5390625 C22.24144615 23.67792892 24.25603362 30.50517037 24.10546875 39.5390625 C21.13546875 41.1890625 18.16546875 42.8390625 15.10546875 44.5390625 C5.96705407 39.36119902 5.96705407 39.36119902 3.94921875 35.09375 C3.51193734 33.39147595 3.10424068 31.68132595 2.7265625 29.96484375 C0.93654966 22.97366154 -4.18236458 19.38379007 -9.89453125 15.5390625 C-11.51041504 12.30729493 -11.46904532 9.03290967 -10.89453125 5.5390625 C-8.01560314 1.22067034 -5.30144684 -0.37796431 0 0 Z " fill="#A56942" transform="translate(116.89453125,96.4609375)"/>
<path d="M0 0 C1.42247003 0.03011718 2.84500098 0.05748995 4.26757812 0.08203125 C7.74361079 0.14283649 11.21116486 0.26018526 14.6875 0.375 C14.6875 5.985 14.6875 11.595 14.6875 17.375 C10.5048545 17.49011868 6.32774614 17.58952349 2.14477539 17.6496582 C0.72368709 17.67473147 -0.69727313 17.70879999 -2.11791992 17.75219727 C-4.16617462 17.81317858 -6.21271883 17.84127762 -8.26171875 17.86328125 C-10.10769653 17.90255737 -10.10769653 17.90255737 -11.9909668 17.94262695 C-16.23501876 17.21734795 -17.67731905 15.70676398 -20.3125 12.375 C-21.14149134 8.47874072 -20.50612168 6.76272144 -18.73046875 3.20703125 C-14.29533291 -1.91000673 -6.18655981 -0.2267811 0 0 Z " fill="#7F8C8D" transform="translate(426.3125,114.625)"/>
<path d="M0 0 C3.03554442 1.16959242 5.84073282 2.68292712 8.6875 4.25 C9.82541992 4.84361328 9.82541992 4.84361328 10.98632812 5.44921875 C17.97714715 9.21303129 17.97714715 9.21303129 20 13 C20.58490372 16.92721068 20.34594305 18.48108543 18.125 21.8125 C15.72231059 24.28585675 14.80594859 24.89757991 11.41796875 25.328125 C6.73621207 24.87867636 3.39008344 22.9946059 -0.6875 20.75 C-1.44611328 20.35425781 -2.20472656 19.95851563 -2.98632812 19.55078125 C-9.97714715 15.78696871 -9.97714715 15.78696871 -12 12 C-12.58490372 8.07278932 -12.34594305 6.51891457 -10.125 3.1875 C-6.7892082 -0.24640332 -4.73014447 -0.45409387 0 0 Z " fill="#A66A43" transform="translate(351,28)"/>
</svg>
