<?xml version="1.0" encoding="UTF-8"?>
<svg version="1.1" xmlns="http://www.w3.org/2000/svg" width="512" height="512">
<path d="M0 0 C3.11070997 1.82872041 5.36126602 3.82223814 7.7109375 6.5703125 C9.9339037 9.14702378 11.86987489 11.27313555 14.68359375 13.19921875 C18.10319979 13.43285643 20.93271936 13.06588481 24.27734375 12.34375 C30.76513498 12.06846528 35.11772656 14.70275858 39.88378906 18.95092773 C42.91376143 21.77290116 45.83634737 24.69439985 48.73339844 27.65209961 C50.55954068 29.51268354 52.40863928 31.34792534 54.26171875 33.18164062 C55.44284587 34.36966421 56.6225829 35.5590718 57.80078125 36.75 C58.62109329 37.56287224 58.62109329 37.56287224 59.45797729 38.39216614 C63.60040817 42.66290311 66.28388416 46.87306395 67.01171875 52.9296875 C66.9859375 53.74050781 66.96015625 54.55132812 66.93359375 55.38671875 C66.918125 56.20527344 66.90265625 57.02382812 66.88671875 57.8671875 C66.68359375 60.19921875 66.68359375 60.19921875 66.00283146 62.13932419 C65.44947784 64.2251225 65.44947784 64.2251225 66.71623135 65.84709549 C67.26285459 66.38910976 67.80947783 66.93112404 68.37266541 67.48956299 C68.99393814 68.11770905 69.61521088 68.7458551 70.25531006 69.39303589 C70.95085999 70.07060944 71.64640991 70.74818298 72.36303711 71.44628906 C73.0846553 72.16863739 73.8062735 72.89098572 74.54975891 73.63522339 C76.94599397 76.02796562 79.35947375 78.4024994 81.7734375 80.77734375 C83.43505023 82.42963451 85.09556492 84.08303019 86.75502014 85.73748779 C91.13192127 90.09527118 95.52362849 94.4378347 99.91851807 98.77746582 C104.39802354 103.20588273 108.86345979 107.64843553 113.33007812 112.08984375 C122.10082032 120.80691385 130.88725861 129.50798036 139.68359375 138.19921875 C142.57386852 136.88829851 144.65441033 135.4827576 146.90473938 133.25222778 C147.51750229 132.64944 148.1302652 132.04665222 148.76159668 131.42559814 C149.75226135 130.43593048 149.75226135 130.43593048 150.76293945 129.42626953 C151.46738693 128.73014557 152.17183441 128.03402161 152.89762878 127.31680298 C155.2236914 125.01483136 157.54202716 122.70527369 159.859375 120.39453125 C161.47023362 118.79263613 163.08117116 117.19082038 164.69218445 115.58908081 C168.06585855 112.23189436 171.4351153 108.87034031 174.80200195 105.50634766 C179.12603281 101.18771535 183.46600389 96.88548738 187.81007099 92.58702278 C191.14093312 89.28582822 194.46055949 85.97351137 197.77712059 82.65795517 C199.37310729 81.06618743 200.97323474 79.47856061 202.57747841 77.8951149 C204.81399482 75.68531087 207.03432351 73.46041823 209.2512207 71.23095703 C209.92178497 70.57522705 210.59234924 69.91949707 211.28323364 69.24389648 C211.88189743 68.63546906 212.48056122 68.02704163 213.09736633 67.400177 C213.88738525 66.61317508 213.88738525 66.61317508 214.69336414 65.81027412 C215.91425061 64.21497236 215.91425061 64.21497236 215.36012554 62.14271355 C215.13687005 61.50136026 214.91361456 60.86000698 214.68359375 60.19921875 C214.4453125 57.90234375 214.4453125 57.90234375 214.37109375 55.44921875 C214.33371094 54.65 214.29632813 53.85078125 214.2578125 53.02734375 C215.33751879 45.85571662 219.69060555 40.58020641 224.69921875 35.6171875 C225.27387878 35.03632889 225.84853882 34.45547028 226.44061279 33.85700989 C227.64926302 32.64130643 228.86298908 31.4306299 230.08154297 30.22485352 C231.93086658 28.38942543 233.75487308 26.53120933 235.578125 24.66992188 C236.76287109 23.48422464 237.94902358 22.29993067 239.13671875 21.1171875 C239.67347229 20.56717575 240.21022583 20.017164 240.76324463 19.45048523 C245.59160457 14.73694346 250.45120112 12.42214238 257.30859375 11.94921875 C260.68359375 12.19921875 260.68359375 12.19921875 263.55078125 13.04296875 C266.86441834 13.55328777 266.86441834 13.55328777 269.46484375 10.99609375 C270.38952777 9.99722305 271.2954398 8.98070591 272.18359375 7.94921875 C276.48577198 3.10151936 280.19526141 -0.32037816 286.83203125 -1.234375 C287.89679688 -1.23566406 288.9615625 -1.23695312 290.05859375 -1.23828125 C291.11820312 -1.25761719 292.1778125 -1.27695313 293.26953125 -1.296875 C302.56895 0.05441354 308.10215307 6.05392819 314.43359375 12.57421875 C315.68849609 13.83105469 315.68849609 13.83105469 316.96875 15.11328125 C324.54226106 22.79550299 329.0285947 28.2181466 328.984375 39.33203125 C328.53244544 43.64003515 326.84848086 46.47831904 324.68359375 50.19921875 C324.68359375 50.85921875 324.68359375 51.51921875 324.68359375 52.19921875 C326.68232114 52.68366639 328.68265312 53.16149535 330.68359375 53.63671875 C331.79734375 53.90355469 332.91109375 54.17039063 334.05859375 54.4453125 C340.66413336 55.81909391 347.08179084 56.39301136 353.80859375 56.38671875 C354.9078418 56.38768555 354.9078418 56.38768555 356.02929688 56.38867188 C361.98041702 56.33199454 367.71167709 55.59041657 373.58984375 54.66015625 C379.37207141 53.79866274 383.74458923 53.22971649 389.05859375 55.88671875 C395.14381675 61.24751044 395.88705102 67.46744394 396.68359375 75.19921875 C396.99780882 80.86918046 397.07364725 86.52154082 397.05859375 92.19921875 C397.05777802 93.3579097 397.05777802 93.3579097 397.0569458 94.54000854 C397.01722056 106.828933 396.15288906 118.34778695 392.68359375 130.19921875 C392.37010986 131.33085449 392.37010986 131.33085449 392.05029297 132.48535156 C382.71412555 165.6479777 360.47216872 191.94845545 330.76171875 208.97265625 C310.66105148 220.12763892 289.90431949 226.69070958 267.68359375 232.19921875 C266.97887939 232.38548828 266.27416504 232.57175781 265.5480957 232.76367188 C263.07044737 233.34244949 260.72545057 233.36926094 258.18359375 233.38671875 C257.24515625 233.40089844 256.30671875 233.41507813 255.33984375 233.4296875 C251.08150936 233.06021437 249.2383542 231.83102927 246.43359375 228.63671875 C244.24115668 224.33014594 243.9431018 220.89554255 244.68359375 216.19921875 C246.25129401 212.02511669 248.29760909 208.14168332 250.37109375 204.19921875 C255.33426579 194.34528745 259.14804715 184.92095866 261.68359375 174.19921875 C261.91304688 173.30203125 262.1425 172.40484375 262.37890625 171.48046875 C262.88679906 169.39167016 263.316435 167.31678548 263.68359375 165.19921875 C263.79445313 164.55984375 263.9053125 163.92046875 264.01953125 163.26171875 C266.25931043 147.28059165 265.05283524 131.06078224 258.68359375 116.19921875 C235.58359375 139.29921875 212.48359375 162.39921875 188.68359375 186.19921875 C192.45031646 190.59372858 196.04981491 194.68613063 200.12368774 198.73265076 C200.89281024 199.4988215 200.89281024 199.4988215 201.67747056 200.28047043 C203.37455575 201.96991422 205.07521874 203.65570833 206.77587891 205.34155273 C208.00203297 206.56086751 209.22793252 207.78043827 210.45359802 209.00024414 C213.08285212 211.61622089 215.71352095 214.23076365 218.3452034 216.84429741 C222.50945193 220.98059477 226.66818836 225.12240409 230.82577515 229.26539612 C232.2521772 230.68665511 233.67858602 232.10790731 235.10500145 233.52915287 C235.81902083 234.24058669 236.53304021 234.95202051 237.26869655 235.68501294 C246.94111673 245.32144408 256.61826589 254.95308831 266.30566406 264.57446289 C272.85194099 271.07621264 279.39104609 277.58508396 285.92214239 284.10208374 C289.374249 287.54612958 292.82995966 290.98637863 296.29457474 294.41784477 C299.55191805 297.64407259 302.79979151 300.87953889 306.04074287 304.12223053 C307.22884289 305.30764154 308.42036222 306.48963729 309.61559486 307.66785622 C322.64551996 320.52034451 322.64551996 320.52034451 324.21484375 329.10546875 C324.199375 330.389375 324.199375 330.389375 324.18359375 331.69921875 C324.1990625 332.983125 324.1990625 332.983125 324.21484375 334.29296875 C322.57360335 343.27151918 316.63470146 348.8766486 310.36694336 355.03735352 C308.87051416 356.51229001 307.39673305 358.00747081 305.92382812 359.50585938 C304.96351975 360.463525 304.00197155 361.41994932 303.0390625 362.375 C302.17949951 363.23005127 301.31993652 364.08510254 300.43432617 364.96606445 C296.09315688 368.49039884 291.43705761 370.62724959 285.74609375 370.63671875 C284.58787109 370.66572266 284.58787109 370.66572266 283.40625 370.6953125 C276.65671816 369.46548389 271.46392159 365.57352156 266.74829102 360.74493408 C266.20651026 360.20657102 265.6647295 359.66820796 265.10653114 359.11353087 C263.31140088 357.32493741 261.53085427 355.52252586 259.75 353.71972656 C258.45905579 352.42765297 257.16722798 351.13646169 255.87458801 349.84608459 C252.38062408 346.35326518 248.89910425 342.84827808 245.41973114 339.34093189 C241.77675237 335.67289592 238.12239253 332.01623421 234.46923828 328.3583374 C227.55887775 321.43555983 220.65877445 314.50265195 213.76232147 307.56602263 C205.90805707 299.66700109 198.0423898 291.77937626 190.17575645 283.89267588 C173.99900578 267.67414967 157.83658734 251.44140375 141.68359375 235.19921875 C137.80271083 236.77956101 135.2005457 239.41822698 132.31437683 242.35484314 C131.78503629 242.8852971 131.25569574 243.41575106 130.71031457 243.96227938 C128.93775257 245.74091336 127.17245035 247.52658222 125.40698242 249.31225586 C124.1374381 250.58891276 122.86742205 251.8651007 121.5969696 253.14085388 C118.86160319 255.88932368 116.12927769 258.64076925 113.39916039 261.39445305 C109.08080475 265.74938469 104.75377175 270.09562312 100.42512512 274.44032288 C88.11730478 286.7964525 75.82123561 299.16423688 63.53393555 311.54077148 C56.74794617 318.37588879 49.95476445 325.20377583 43.15381604 332.02400976 C38.8506031 336.34029848 34.55655717 340.66544177 30.26909101 344.99736965 C27.59722213 347.69272848 24.91699938 350.37965784 22.23436165 353.06429482 C20.99369828 354.30924684 19.75647181 355.55763504 18.52300262 356.80971527 C16.83574531 358.52143395 15.13647965 360.22029058 13.4337616 361.91661072 C12.95105669 362.41233123 12.46835178 362.90805175 11.97101945 363.4187941 C7.41327104 367.91047211 2.25731603 370.62588477 -4.25390625 370.63671875 C-5.41212891 370.66572266 -5.41212891 370.66572266 -6.59375 370.6953125 C-15.46421453 369.07902987 -21.07653705 363.06618843 -27.15454102 356.88256836 C-28.62947751 355.38613916 -30.12465831 353.91235805 -31.62304688 352.43945312 C-32.5807125 351.47914475 -33.53713682 350.51759655 -34.4921875 349.5546875 C-35.34723877 348.69512451 -36.20229004 347.83556152 -37.08325195 346.94995117 C-40.76886936 342.41011829 -42.74509613 337.69092758 -42.75390625 331.76171875 C-42.77324219 330.89675781 -42.79257813 330.03179687 -42.8125 329.140625 C-41.3312624 320.35816898 -35.57489724 314.90244318 -29.46484375 308.921875 C-28.60960114 308.0699205 -27.75435852 307.217966 -26.87319946 306.3401947 C-25.07408304 304.55145768 -23.2702251 302.76747839 -21.46191406 300.98803711 C-18.68471449 298.25513373 -15.92129165 295.50888969 -13.16015625 292.75976562 C-11.40832811 291.02135306 -9.65575014 289.2836957 -7.90234375 287.546875 C-7.07213715 286.72405533 -6.24193054 285.90123566 -5.38656616 285.05348206 C-4.61881866 284.29856979 -3.85107117 283.54365753 -3.06005859 282.76586914 C-2.38373383 282.09938858 -1.70740906 281.43290802 -1.0105896 280.74623108 C0.68359375 279.19921875 0.68359375 279.19921875 2.68359375 278.19921875 C4.22626702 278.3339876 5.76782482 278.48168782 7.30859375 278.63671875 C10.79870346 278.71281126 12.26687803 278.50307396 15.12109375 276.421875 C17.09103903 274.42026989 18.93089776 272.39253663 20.68359375 270.19921875 C20.35359375 269.53921875 20.02359375 268.87921875 19.68359375 268.19921875 C19.12753908 264.72387705 18.92199473 262.27040048 21.02273655 259.31572723 C21.6047832 258.68104774 22.18682985 258.04636826 22.78651428 257.39245605 C23.42449007 256.69357773 24.06246586 255.9946994 24.71977425 255.27464294 C27.61526136 252.21460407 30.54891763 249.20222282 33.53686523 246.23242188 C34.18162308 245.58751801 34.82638092 244.94261414 35.49067688 244.27816772 C37.59298193 242.17655162 39.69879152 240.07848605 41.8046875 237.98046875 C43.27463831 236.51238575 44.74436647 235.04407978 46.21388245 233.57556152 C50.0601532 229.73308739 53.90941881 225.89362735 57.75933838 222.05480957 C61.69620715 218.12821664 65.63020506 214.19874969 69.56445312 210.26953125 C77.26804297 202.57662832 84.9748031 194.88690988 92.68359375 187.19921875 C88.69824434 182.42285176 84.5387743 177.91338105 80.12744141 173.52954102 C79.50233673 172.90429031 78.87723206 172.27903961 78.23318481 171.63484192 C76.19037296 169.59272024 74.14405468 167.55415202 72.09765625 165.515625 C70.67111692 164.09095303 69.24479991 162.66605843 67.81869507 161.24095154 C64.0825553 157.50861188 60.34342113 153.77928638 56.6036377 150.05059814 C52.78080678 146.23803546 48.96083988 142.42260553 45.140625 138.60742188 C37.65773508 131.13522504 30.17167599 123.66621197 22.68359375 116.19921875 C22.03871243 117.9163763 21.39913596 119.63552653 20.76171875 121.35546875 C20.4049707 122.31259766 20.04822266 123.26972656 19.68066406 124.25585938 C11.0148513 149.83740654 18.57007048 178.87763608 30.03320312 202.21435547 C31.02776815 204.20125698 32.0412922 206.17881474 33.07617188 208.14501953 C35.98620009 213.86747129 37.86756117 218.72444841 36.68359375 225.19921875 C34.60376717 229.28459239 32.92824665 231.52281932 28.68359375 233.19921875 C20.8309354 234.1538588 13.4795218 232.5385631 5.93359375 230.51171875 C4.88155762 230.2369873 3.82952148 229.96225586 2.74560547 229.67919922 C-21.3987619 223.2750643 -45.54371335 213.78128121 -65.31640625 198.19921875 C-66.24195313 197.47734375 -67.1675 196.75546875 -68.12109375 196.01171875 C-89.74170484 178.76314259 -103.94647611 156.80370056 -111.31640625 130.19921875 C-111.52668457 129.48088867 -111.73696289 128.76255859 -111.95361328 128.02246094 C-115.29244076 116.24800519 -115.70558096 104.54149052 -115.75390625 92.38671875 C-115.76017029 91.64745148 -115.76643433 90.9081842 -115.77288818 90.14651489 C-115.90680392 65.14763935 -115.90680392 65.14763935 -110.86474609 58.19848633 C-105.96580495 54.01901684 -101.49926753 53.82790166 -95.31640625 54.19921875 C-93.14677414 54.51267062 -90.98020127 54.8477267 -88.81640625 55.19921875 C-73.76865403 57.44587563 -56.46458782 57.50557875 -42.31640625 51.19921875 C-42.95578125 50.43609375 -43.59515625 49.67296875 -44.25390625 48.88671875 C-47.22159156 45.01973486 -47.49464316 42.14102369 -47.56640625 37.38671875 C-47.5921875 36.36964844 -47.61796875 35.35257813 -47.64453125 34.3046875 C-46.402762 22.55222854 -32.69627296 11.85731592 -24.31640625 4.19921875 C-17.06067317 -1.01048773 -8.76826069 -3.03118624 0 0 Z " fill="#010101" transform="translate(115.31640625,71.80078125)"/>
<path d="M0 0 C9.71397616 4.01152488 16.96397531 15.53792296 22.9325031 23.7980547 C21.43727545 27.27887014 19.44812986 29.53652416 16.7832073 32.21020603 C15.47128601 33.53365076 15.47128601 33.53365076 14.13286126 34.88383174 C13.15648182 35.85865073 12.18000391 36.83337108 11.20343816 37.80800343 C10.1702449 38.84636437 9.13748201 39.8851537 8.10511363 40.92433476 C5.26395407 43.78163553 2.41653809 46.63262949 -0.43196428 49.4826076 C-3.50172877 52.55607285 -6.56578344 55.63522174 -9.63065302 58.71356678 C-16.33382013 65.44389949 -23.04453932 72.16666817 -29.75689757 78.88783264 C-33.94610735 83.08256582 -38.13383938 87.27877213 -42.32130396 91.47524738 C-53.91060019 103.08892571 -65.50178497 114.70071178 -77.09989512 126.30558872 C-77.84218593 127.04831866 -78.58447674 127.79104861 -79.34926121 128.55628552 C-80.0933442 129.30080506 -80.83742719 130.0453246 -81.60405815 130.81240535 C-83.11189368 132.32112782 -84.61972613 133.82985339 -86.12755549 135.33858204 C-86.87549493 136.08696434 -87.62343437 136.83534664 -88.39403865 137.6064072 C-100.52233488 149.74260533 -112.63705833 161.89225634 -124.74600855 174.04775414 C-137.17177689 186.52090275 -149.60872065 198.98281571 -162.05703485 211.43346429 C-169.04876856 218.42703383 -176.03556024 225.42538904 -183.01007044 232.43613911 C-188.94683795 238.40364517 -194.89370145 244.36085055 -200.85413262 250.30472508 C-203.89641951 253.33917708 -206.9335893 256.37833354 -209.95795214 259.43065929 C-212.72477207 262.22282678 -215.50497697 265.00088384 -218.29666027 267.768186 C-219.30599156 268.77358049 -220.31023729 269.78411078 -221.30889431 270.80010876 C-222.66368786 272.17693256 -224.03877603 273.53369909 -225.41483653 274.88926792 C-226.17395248 275.64957805 -226.93306844 276.40988819 -227.71518791 277.19323802 C-230.71807834 279.24190112 -232.50101807 279.23721609 -236.0674969 278.7980547 C-239.99635681 276.09802855 -243.1742945 272.57230952 -246.5049969 269.1730547 C-247.90781916 267.81760548 -247.90781916 267.81760548 -249.33898127 266.43477345 C-250.65672541 265.11026173 -250.65672541 265.11026173 -252.00109065 263.7589922 C-253.20849909 262.54928761 -253.20849909 262.54928761 -254.44029963 261.31514454 C-256.0674969 258.7980547 -256.0674969 258.7980547 -256.34508479 256.02876759 C-254.33846117 250.95449845 -250.60969179 247.85046398 -246.6924969 244.14571095 C-244.96847747 242.46543508 -243.24452107 240.78509455 -241.5206219 239.10469532 C-238.79237993 236.4760332 -236.05921714 233.85262337 -233.32335627 231.23189259 C-230.68386515 228.69492676 -228.06277633 226.13999159 -225.4424969 223.58321095 C-224.61959162 222.80695866 -223.79668635 222.03070637 -222.94884455 221.23093128 C-218.22040256 216.78434337 -218.22040256 216.78434337 -216.00182307 210.88252735 C-215.92039291 207.91489308 -215.92039291 207.91489308 -216.74327815 205.66133595 C-217.0674969 203.7980547 -217.0674969 203.7980547 -215.54796565 201.40352345 C-214.79128596 200.60559376 -214.03460627 199.80766407 -213.2549969 198.9855547 C-212.52667658 198.17473438 -211.79835627 197.36391407 -211.04796565 196.52852345 C-207.57092202 194.50974189 -207.14116726 194.83128689 -203.41975176 195.64786243 C-200.30702652 196.00768303 -198.64440323 196.10875911 -195.86384094 194.6112318 C-193.57659109 192.67943656 -191.51741652 190.63737902 -189.45095026 188.47066212 C-188.64485202 187.67043471 -187.83875377 186.87020731 -187.0082283 186.04573059 C-184.31313051 183.35704455 -181.65930766 180.63101557 -179.00353205 177.90352345 C-177.08301549 175.96555827 -175.15416091 174.03597168 -173.22554743 172.10606861 C-169.07716595 167.94641141 -164.94913504 163.76741385 -160.8340565 159.57481861 C-154.88257616 153.51172972 -148.89848187 147.4816917 -142.90549307 141.45966041 C-133.18053299 131.68625511 -123.47856194 121.89036961 -113.79259455 112.07832813 C-104.38824663 102.55173768 -94.9794399 93.02962343 -85.56017268 83.51778126 C-84.97961039 82.931502 -84.39904811 82.34522274 -83.80089302 81.74117744 C-74.13153333 71.97747154 -64.45199802 62.22389072 -54.76760674 52.47509575 C-48.79288325 46.4592521 -42.82907936 40.43292947 -36.87892143 34.39278531 C-32.80606147 30.25908258 -28.72492429 26.13368374 -24.63709135 22.01478744 C-22.27651299 19.63551032 -19.92199156 17.25092612 -17.57531703 14.85788822 C-15.03553009 12.2689474 -12.48100349 9.69551493 -9.92214167 7.12544727 C-9.17798837 6.35922645 -8.43383507 5.59300562 -7.66713166 4.80356598 C-6.98258892 4.1221948 -6.29804619 3.44082361 -5.59275973 2.73880482 C-4.71006692 1.84431991 -4.71006692 1.84431991 -3.80954194 0.9317646 C-2.0674969 -0.2019453 -2.0674969 -0.2019453 0 0 Z " fill="#C58B69" transform="translate(344.0674968957901,147.2019453048706)"/>
<path d="M0 0 C3.11488867 0.57479309 4.11783433 1.87206103 6.20385742 4.23071289 C28.64668426 27.89972067 59.77216085 42.45910333 92.26635742 44.41821289 C92.47997209 52.99840205 92.18456184 60.91824447 90.71948242 69.39477539 C90.07558929 73.6910968 89.67015819 78.09576844 90.26635742 82.41821289 C92.2036727 84.78231777 92.2036727 84.78231777 95.70385742 84.73071289 C99.13978344 84.75041693 99.13978344 84.75041693 100.92260742 83.14868164 C102.4509244 81.18052926 102.86744673 79.85517808 103.32885742 77.41821289 C103.56088867 76.21165039 103.56088867 76.21165039 103.79760742 74.98071289 C103.95229492 74.13508789 104.10698242 73.28946289 104.26635742 72.41821289 C104.44166992 71.61383789 104.61698242 70.80946289 104.79760742 69.98071289 C106.55002949 61.52785349 106.88319453 53.01921151 107.26635742 44.41821289 C108.82752561 44.0786967 110.39037081 43.74688745 111.95385742 43.41821289 C112.82397461 43.23258789 113.6940918 43.04696289 114.59057617 42.85571289 C117.20348706 42.42849242 119.62448781 42.34205088 122.26635742 42.41821289 C124.35858342 50.13122063 124.56707365 57.38903941 124.51635742 65.35571289 C124.5240918 66.56678711 124.53182617 67.77786133 124.53979492 69.02563477 C124.52449213 76.09169915 123.93703242 82.55945179 122.26635742 89.41821289 C122.0059668 90.68665039 121.74557617 91.95508789 121.47729492 93.26196289 C114.98539019 121.65646209 98.41296581 146.04198811 74.26635742 162.41821289 C69.06908732 165.66459781 63.68100697 168.55500043 58.26635742 171.41821289 C57.40655273 171.8887207 56.54674805 172.35922852 55.66088867 172.84399414 C39.73430587 181.25958953 22.7668665 185.58851461 5.26635742 189.41821289 C5.85255532 187.39316561 6.5486446 185.40046735 7.26635742 183.41821289 C7.55140137 182.6106958 7.83644531 181.80317871 8.13012695 180.97119141 C10.26325175 175.82039322 12.13596112 172.97276209 17.25854492 170.57055664 C19.20786618 169.80212855 21.16971314 169.06490533 23.14135742 168.35571289 C25.22258009 167.52883201 27.30072362 166.69415947 29.37573242 165.85180664 C30.89070313 165.24248291 30.89070313 165.24248291 32.4362793 164.62084961 C43.8119827 159.78676447 53.76051618 152.20032825 63.26635742 144.41821289 C64.0887793 143.75047852 64.91120117 143.08274414 65.75854492 142.39477539 C74.13249492 135.29575204 80.56520682 126.66082809 86.76635742 117.66821289 C87.41689087 116.74770142 87.41689087 116.74770142 88.08056641 115.80859375 C90.81213685 111.74110179 92.12065512 108.4449422 92.26635742 103.41821289 C90.64937469 100.36432949 90.64937469 100.36432949 88.46166992 99.73071289 C87.7784668 99.62758789 87.09526367 99.52446289 86.39135742 99.41821289 C85.37428711 99.23258789 85.37428711 99.23258789 84.33666992 99.04321289 C82.02060043 99.25158338 82.02060043 99.25158338 80.22729492 101.57446289 C78.33570064 104.31765141 76.53508288 107.09445821 74.76635742 109.91821289 C61.96488326 129.2631915 42.6965535 145.43724486 21.26635742 154.41821289 C20.60635742 154.41821289 19.94635742 154.41821289 19.26635742 154.41821289 C19.68353128 151.28940898 20.10354962 148.19173337 20.75390625 145.10180664 C22.3446608 137.45100001 22.61416761 130.02965955 22.57885742 122.23071289 C22.57394287 120.9500293 22.56902832 119.6693457 22.56396484 118.34985352 C22.20563207 89.37451421 10.2492868 64.45188609 -10.12866211 43.92651367 C-13.58057321 40.68253637 -17.34331279 37.81114819 -21.13842773 34.98266602 C-23.90081195 32.92046132 -25.7993048 31.31971956 -27.73364258 28.41821289 C-27.6133608 24.1538833 -24.39826212 21.61521571 -21.56176758 18.77758789 C-20.78261993 17.98701996 -20.78261993 17.98701996 -19.98773193 17.18048096 C-18.88868669 16.07064744 -17.78565734 14.96474707 -16.67895508 13.86254883 C-14.98939717 12.17396416 -13.32228693 10.46519638 -11.65551758 8.75415039 C-10.58390443 7.67733077 -9.51102847 6.60176608 -8.43676758 5.52758789 C-7.94074036 5.01516541 -7.44471313 4.50274292 -6.93365479 3.97479248 C-4.64867953 1.73440305 -3.20755947 0.49071621 0 0 Z " fill="#C3C2C7" transform="translate(372.733642578125,99.581787109375)"/>
<path d="M0 0 C3.92086336 0.52926349 5.86469628 2.70942264 8.53442383 5.41650391 C9.06005417 5.93497894 9.58568451 6.45345398 10.12724304 6.98764038 C11.2334785 8.08610307 12.33336666 9.19099008 13.42724609 10.30175781 C15.1015309 11.99524816 16.80302518 13.65739128 18.5090332 15.31884766 C19.58177078 16.39129482 20.65279443 17.46545969 21.72192383 18.54150391 C22.23120926 19.0355069 22.74049469 19.52950989 23.26521301 20.03848267 C25.69293848 22.54821254 26.75192511 24.0816254 27.2734375 27.57055664 C26.57037477 31.70514091 23.96918397 33.40369039 20.79614258 35.81494141 C19.5903913 36.78626812 18.38466205 37.75762219 17.17895508 38.72900391 C16.05282098 39.61369089 14.92537313 40.49671022 13.79614258 41.37744141 C-4.79205508 55.97785964 -17.982347 79.64569009 -21.76635742 102.82275391 C-22.48640284 109.02622215 -22.42819087 115.26547031 -22.45385742 121.50244141 C-22.47448242 122.73220703 -22.49510742 123.96197266 -22.51635742 125.22900391 C-22.54882966 132.95739589 -21.7045532 139.9402589 -19.85131836 147.44726562 C-19.20385742 150.37744141 -19.20385742 150.37744141 -19.20385742 154.37744141 C-43.27001338 147.23570733 -65.13773387 126.87927358 -77.20385742 105.37744141 C-77.82776367 104.28044922 -78.45166992 103.18345703 -79.09448242 102.05322266 C-88.79705876 83.89253085 -92.71330254 64.84015359 -92.20385742 44.37744141 C-91.65149414 44.31274658 -91.09913086 44.24805176 -90.5300293 44.18139648 C-78.26913552 42.70211508 -66.80865034 40.63549795 -55.20385742 36.37744141 C-54.16100586 35.99716797 -53.1181543 35.61689453 -52.04370117 35.22509766 C-35.59523098 28.78873975 -14.78965773 2.53293573 0 0 Z " fill="#C3C2C7" transform="translate(139.203857421875,99.62255859375)"/>
<path d="M0 0 C3.84286128 1.5766241 6.45220401 4.16372187 9.33366394 7.05950928 C9.85907078 7.57967943 10.38447761 8.09984959 10.92580587 8.63578248 C12.68473833 10.37971541 14.43645079 12.13072226 16.18823242 13.88183594 C17.44787576 15.13385791 18.70792098 16.38547567 19.96833801 17.63671875 C23.39042125 21.03685119 26.8059035 24.44353981 30.21956801 27.85212231 C32.35199131 29.9809035 34.48570729 32.10838025 36.61986732 34.23542023 C44.06342159 41.65448045 51.50123777 49.07924383 58.93432617 56.50878906 C65.86624039 63.43706545 72.81118191 70.35209343 79.76217002 77.26122832 C85.72776829 83.19216036 91.68373521 89.13265032 97.63237458 95.08059144 C101.18617759 98.63360055 104.74386654 102.18249839 108.31145287 105.72167206 C111.66559492 109.04969588 115.0076223 112.3894212 118.34068108 115.73855591 C119.56627079 116.96596491 120.79615111 118.18910675 122.0305748 119.40763092 C123.71461574 121.07129458 125.382529 122.74962886 127.04728699 124.43255615 C127.53968705 124.91175625 128.03208711 125.39095634 128.53940839 125.88467765 C131.66371358 129.08746694 132.85825095 131.51326253 133 136 C131.37280273 138.51708984 131.37280273 138.51708984 128.93359375 140.9609375 C128.05509766 141.84394531 127.17660156 142.72695313 126.27148438 143.63671875 C125.33626953 144.54035156 124.40105469 145.44398438 123.4375 146.375 C122.52935547 147.30183594 121.62121094 148.22867188 120.68554688 149.18359375 C113.91228665 155.86339578 113.91228665 155.86339578 110.19761467 156.41962433 C106.01959695 155.87134129 104.11572253 153.93703796 101.3052063 151.0267334 C100.76513439 150.49178804 100.22506248 149.95684268 99.66862476 149.40568686 C97.86233676 147.609283 96.07833084 145.79227299 94.29345703 143.97460938 C93.00323694 142.6826969 91.7116943 141.39210407 90.41893005 140.10273743 C86.91203327 136.59756405 83.42395908 133.07418233 79.93892527 129.54728889 C76.29413887 125.86502693 72.63238502 122.19971876 68.97238159 118.53259277 C62.04375452 111.58530767 55.13056533 104.62286791 48.2227658 97.65488005 C40.35795587 89.72303526 32.47612769 81.8081953 24.59280992 73.89475155 C8.37617286 57.6153777 -7.81892977 41.3147209 -24 25 C-23.04947729 23.8835778 -22.0978835 22.76806745 -21.14584351 21.65293884 C-20.61604071 21.03164062 -20.08623791 20.41034239 -19.54038048 19.77021694 C-17.60584709 17.54703648 -15.56770808 15.45489861 -13.4765625 13.37890625 C-12.68378906 12.58935547 -11.89101563 11.79980469 -11.07421875 10.98632812 C-10.26597656 10.18646484 -9.45773437 9.38660156 -8.625 8.5625 C-7.79355469 7.73556641 -6.96210938 6.90863281 -6.10546875 6.05664062 C-4.0725896 4.03544469 -2.03740037 2.01663665 0 0 Z " fill="#B07757" transform="translate(291,270)"/>
<path d="M0 0 C2.40220002 0.87420288 3.5747164 1.88022979 5.37269974 3.68738651 C6.00084579 4.31140858 6.62899185 4.93543064 7.27617264 5.57836246 C8.29253296 6.61090153 8.29253296 6.61090153 9.32942581 7.66429996 C10.05177414 8.38621021 10.77412247 9.10812046 11.51836014 9.85190678 C13.90624558 12.24188366 16.28332718 14.6423143 18.6604805 17.04296207 C20.3132074 18.70128364 21.96659752 20.35894446 23.62062454 22.01596928 C27.97394126 26.38074487 32.31817424 30.75445446 36.66060257 35.13005924 C41.09263072 39.59276553 45.5331548 44.04700007 49.9729805 48.50194645 C58.68446117 57.24560973 67.3863729 65.99873076 76.0823555 74.75780582 C74.3064889 78.57030462 72.07870362 80.99130079 69.074543 83.96093082 C68.58905991 84.44358402 68.10357681 84.92623722 67.60338211 85.42351627 C66.05935684 86.95639144 64.50850726 88.48214586 62.9573555 90.00780582 C61.90611541 91.04900943 60.85532893 92.09067123 59.80501175 93.13280582 C57.23602546 95.67980047 54.66087389 98.22045759 52.0823555 100.75780582 C47.14430366 96.6166182 42.49608252 92.31139734 37.95369339 87.74266911 C36.94266556 86.73186031 36.94266556 86.73186031 35.91121292 85.70063114 C33.70676424 83.49549153 31.50586866 81.28684223 29.30501175 79.07811832 C27.7682384 77.53947788 26.23124262 76.00105958 24.69403458 74.46285343 C20.66577754 70.43079416 16.6405338 66.39573988 12.61592484 62.36003971 C8.50174434 58.23559561 4.38470085 54.11401151 0.26790237 49.99218082 C-7.79674018 41.91684143 -15.85820007 33.83833288 -23.9176445 25.75780582 C-22.25940332 21.29033123 -19.95243154 18.02474513 -16.8551445 14.44530582 C-16.36779831 13.87860172 -15.88045212 13.31189762 -15.37833786 12.72802067 C-3.83321426 -0.48412632 -3.83321426 -0.48412632 0 0 Z " fill="#B07757" transform="translate(168.91764450073242,147.24219417572021)"/>
<path d="M0 0 C2.092226 7.71300774 2.30071622 14.97082652 2.25 22.9375 C2.26160156 24.75411133 2.26160156 24.75411133 2.2734375 26.60742188 C2.25813471 33.67348625 1.670675 40.1412389 0 47 C-0.39058594 48.90265625 -0.39058594 48.90265625 -0.7890625 50.84375 C-7.28096723 79.2382492 -23.85339161 103.62377522 -48 120 C-53.1972701 123.24638492 -58.58535045 126.13678754 -64 129 C-64.85980469 129.47050781 -65.71960938 129.94101562 -66.60546875 130.42578125 C-82.53205155 138.84137664 -99.49949093 143.17030172 -117 147 C-116.4138021 144.97495272 -115.71771282 142.98225446 -115 141 C-114.71495605 140.19248291 -114.42991211 139.38496582 -114.13623047 138.55297852 C-112.00310567 133.40218033 -110.1303963 130.5545492 -105.0078125 128.15234375 C-103.05849125 127.38391566 -101.09664428 126.64669244 -99.125 125.9375 C-97.04377733 125.11061912 -94.9656338 124.27594658 -92.890625 123.43359375 C-91.88064453 123.02737793 -90.87066406 122.62116211 -89.83007812 122.20263672 C-78.45437473 117.36855158 -68.50584124 109.78211536 -59 102 C-58.17757812 101.33226562 -57.35515625 100.66453125 -56.5078125 99.9765625 C-48.13386251 92.87753915 -41.7011506 84.2426152 -35.5 75.25 C-34.84946655 74.32948853 -34.84946655 74.32948853 -34.18579102 73.39038086 C-31.45422057 69.3228889 -30.1457023 66.02672931 -30 61 C-31.83333333 57.83333333 -31.83333333 57.83333333 -35 56 C-34.34 55.67 -33.68 55.34 -33 55 C-32.4148953 53.03323719 -31.88101233 51.05108115 -31.375 49.0625 C-29.58748129 43.32754413 -29.58748129 43.32754413 -27.03125 41.90234375 C-25.03294789 41.52947216 -23.01607841 41.26013915 -21 41 C-18.39791646 37.54535667 -18.11065385 32.9863201 -17.4375 28.8125 C-17.30819092 28.02891113 -17.17888184 27.24532227 -17.0456543 26.43798828 C-15.77731014 18.32155948 -15.30107587 10.20172186 -15 2 C-13.43883181 1.66048381 -11.87598662 1.32867456 -10.3125 1 C-9.44238281 0.814375 -8.57226562 0.62875 -7.67578125 0.4375 C-5.06287036 0.01027953 -2.64186962 -0.07616201 0 0 Z " fill="#ABABAF" transform="translate(495,142)"/>
<path d="M0 0 C2.12534659 0.14069196 4.25027529 0.28770921 6.375 0.4375 C8.15003906 0.55931641 8.15003906 0.55931641 9.9609375 0.68359375 C13 1 13 1 15 2 C15.34716797 4.17041016 15.34716797 4.17041016 15.4921875 7.0390625 C15.58669189 8.61167847 15.58669189 8.61167847 15.68310547 10.21606445 C15.74643066 11.34101318 15.80975586 12.46596191 15.875 13.625 C16.55343928 23.60200668 17.85685807 32.47709787 21 42 C21.27457031 42.95777344 21.54914062 43.91554687 21.83203125 44.90234375 C26.04677871 58.93225652 32.67606113 72.6889922 42 84 C42.83003224 85.05421131 43.65942595 86.10892559 44.48828125 87.1640625 C59.61484782 106.07922993 81.72358209 121.46370616 104.84765625 128.91796875 C108.97942686 130.27683154 110.54401417 131.26686467 112.90234375 135.05859375 C114.48946856 138.34440997 115.91951864 141.51427318 117 145 C116.67 145.66 116.34 146.32 116 147 C80.29263987 138.48098515 42.24278824 124.92067927 20.0625 93.5625 C19.64210449 92.96977295 19.22170898 92.3770459 18.78857422 91.76635742 C9.4489457 78.212076 3.5413403 63.01386302 0 47 C-0.25813477 45.95912231 -0.25813477 45.95912231 -0.52148438 44.8972168 C-2.2050976 37.56735796 -2.29787714 30.43426152 -2.25 22.9375 C-2.25773438 21.72255859 -2.26546875 20.50761719 -2.2734375 19.25585938 C-2.25882593 12.51627141 -1.76568218 6.50920138 0 0 Z " fill="#ABABAF" transform="translate(17,142)"/>
<path d="M0 0 C2.4841031 0.91672128 3.70389149 2.03945017 5.5456543 3.93237305 C6.1644043 4.56079102 6.7831543 5.18920898 7.4206543 5.83666992 C8.37198242 6.82570312 8.37198242 6.82570312 9.3425293 7.8347168 C10.31706055 8.82955078 10.31706055 8.82955078 11.3112793 9.84448242 C12.9119969 11.48050997 14.50529122 13.12312592 16.0925293 14.7722168 C12.96120069 17.96461742 9.75138529 20.94387324 6.3425293 23.8347168 C0.66516695 28.88126111 -3.56578906 34.57430894 -7.9074707 40.7722168 C-13.56876501 36.07454705 -18.75975974 31.02498308 -23.9074707 25.7722168 C-22.44028302 21.25327874 -19.91012152 18.00201727 -16.8449707 14.4597168 C-16.35762451 13.8930127 -15.87027832 13.32630859 -15.36816406 12.74243164 C-3.83347066 -0.4577791 -3.83347066 -0.4577791 0 0 Z " fill="#915A42" transform="translate(168.907470703125,147.227783203125)"/>
<path d="M0 0 C9.71726656 4.1086843 16.9274221 15.51519442 22.92333984 23.81323242 C21.60213156 26.74553435 20.17695787 28.79988141 17.88427734 31.04760742 C17.30419922 31.62124023 16.72412109 32.19487305 16.12646484 32.78588867 C15.52318359 33.37241211 14.91990234 33.95893555 14.29833984 34.56323242 C13.68732422 35.16522461 13.07630859 35.7672168 12.44677734 36.38745117 C10.94345361 37.86728548 9.43399129 39.34087919 7.92333984 40.81323242 C4.90241476 37.87949873 2.19563155 34.97785329 -0.26416016 31.56323242 C-3.68089997 27.0726601 -7.58635907 23.44613305 -11.84228516 19.75854492 C-13.66991601 18.16735582 -15.37658563 16.53588511 -17.07666016 14.81323242 C-14.68043988 12.27225906 -12.25668499 9.7593625 -9.82666016 7.25073242 C-9.14474609 6.52692383 -8.46283203 5.80311523 -7.76025391 5.05737305 C-7.09638672 4.37739258 -6.43251953 3.69741211 -5.74853516 2.99682617 C-5.14106445 2.36317139 -4.53359375 1.7295166 -3.90771484 1.07666016 C-2.07666016 -0.18676758 -2.07666016 -0.18676758 0 0 Z " fill="#AF7657" transform="translate(344.07666015625,147.186767578125)"/>
<path d="M0 0 C2.93230193 1.32120828 4.98664899 2.74638197 7.234375 5.0390625 C7.80800781 5.61914062 8.38164062 6.19921875 8.97265625 6.796875 C9.85244141 7.70179688 9.85244141 7.70179688 10.75 8.625 C11.35199219 9.23601562 11.95398438 9.84703125 12.57421875 10.4765625 C14.05405305 11.97988624 15.52764676 13.48934856 17 15 C8.66666667 23.33333333 0.33333333 31.66666667 -8 40 C-12.1413833 36.5191826 -16.13790851 32.98304674 -19.9375 29.125 C-20.70964844 28.34382813 -21.48179687 27.56265625 -22.27734375 26.7578125 C-22.84582031 26.17773438 -23.41429687 25.59765625 -24 25 C-19.18132753 19.19108254 -13.98743592 13.86934448 -8.625 8.5625 C-7.79355469 7.73556641 -6.96210938 6.90863281 -6.10546875 6.05664062 C-4.0725896 4.03544469 -2.03740037 2.01663665 0 0 Z " fill="#925A42" transform="translate(291,270)"/>
<path d="M0 0 C3.18333852 2.53544264 5.94627492 5.43181003 8.75 8.375 C9.51699219 9.15617187 10.28398437 9.93734375 11.07421875 10.7421875 C13.98909353 13.73390432 16.67820901 16.51731351 19 20 C18.90534967 23.59671248 17.99055493 25.0120687 15.75 27.875 C13 30 13 30 10.7421875 29.8828125 C7.26349814 28.76289256 4.39839746 27.00123305 1.375 25 C0.76833496 24.60498291 0.16166992 24.20996582 -0.46337891 23.80297852 C-6.30773916 19.92739791 -11.69155468 15.58259668 -17 11 C-15.60609461 7.84280428 -13.96365028 5.7187347 -11.5 3.3125 C-10.8915625 2.71050781 -10.283125 2.10851562 -9.65625 1.48828125 C-6.28512208 -1.54096342 -4.28000148 -1.35826531 0 0 Z " fill="#C08766" transform="translate(410,87)"/>
<path d="M0 0 C2.5546875 2.06640625 2.5546875 2.06640625 4.875 4.5625 C6.04675781 5.80193359 6.04675781 5.80193359 7.2421875 7.06640625 C7.82226562 7.70449219 8.40234375 8.34257813 9 9 C2.44588957 17.55675528 -7.67272937 26.37712684 -18 30 C-21.16571659 29.62440651 -22.19883323 28.84535193 -24.8125 26.8125 C-27 24 -27 24 -26.88452148 21.10473633 C-25.86738508 17.53451176 -24.67725321 16.08268122 -22.03515625 13.51171875 C-20.83536133 12.32932617 -20.83536133 12.32932617 -19.61132812 11.12304688 C-18.77021484 10.31931641 -17.92910156 9.51558594 -17.0625 8.6875 C-15.80663086 7.45290039 -15.80663086 7.45290039 -14.52539062 6.19335938 C-6.42396972 -1.71253247 -6.42396972 -1.71253247 0 0 Z " fill="#AC7455" transform="translate(110,87)"/>
</svg>
