<?xml version="1.0" encoding="UTF-8"?>
<svg version="1.1" xmlns="http://www.w3.org/2000/svg" width="512" height="512">
<path d="M0 0 C1.17254333 0.06850662 1.17254333 0.06850662 2.36877441 0.13839722 C3.59920471 0.25757004 3.59920471 0.25757004 4.85449219 0.37915039 C5.67767944 0.44659454 6.5008667 0.5140387 7.34899902 0.58352661 C10.08024936 0.83201252 12.80179858 1.13233877 15.52636719 1.44555664 C16.54542145 1.55950272 17.56447571 1.67344879 18.6144104 1.79084778 C21.94534178 2.16698152 25.27501241 2.55288538 28.60449219 2.94165039 C29.75330872 3.0750885 30.90212524 3.20852661 32.08575439 3.3460083 C68.3465288 7.58486705 104.28215549 13.10981953 139.85449219 21.37915039 C140.54976013 21.54050476 141.24502808 21.70185913 141.96136475 21.86810303 C168.65016226 28.09714138 197.84571787 35.22957043 221.49902344 49.56665039 C226.48675987 52.26084097 230.3390293 52.27883904 235.85449219 51.37915039 C238.23576386 50.20955667 238.23576386 50.20955667 240.48730469 48.64477539 C245.9057782 45.24342728 251.46857098 42.827782 257.41699219 40.50415039 C258.50850586 40.07561768 259.60001953 39.64708496 260.72460938 39.20556641 C317.52469406 17.23857014 379.16123233 8.70480415 439.35449219 1.94165039 C440.09361847 1.85775055 440.83274475 1.77385071 441.5942688 1.68740845 C446.01002597 1.19168269 450.42666799 0.75619504 454.85449219 0.37915039 C455.77101563 0.29004395 456.68753906 0.2009375 457.63183594 0.10913086 C461.48201527 -0.11767568 463.4361354 0.0649798 466.55924988 2.4103241 C469.40583682 6.09229794 469.53208143 8.82457982 469.42211914 13.29052734 C469.42284927 14.07154312 469.42357941 14.8525589 469.42433167 15.65724182 C469.42085977 18.22802196 469.38202032 20.79696974 469.34277344 23.36743164 C469.33344383 25.15389516 469.32632841 26.94037151 469.32133484 28.72685242 C469.30227657 33.42074117 469.25318614 38.11385196 469.19781494 42.80743408 C469.14659702 47.60011268 469.12381538 52.39291742 469.09863281 57.18579102 C469.04506605 66.58391862 468.9597676 75.98146972 468.85449219 85.37915039 C469.6122998 85.36319824 470.37010742 85.34724609 471.15087891 85.33081055 C472.14361816 85.31840332 473.13635742 85.30599609 474.15917969 85.29321289 C475.1438623 85.27726074 476.12854492 85.26130859 477.14306641 85.24487305 C480.45258523 85.40876962 482.35176727 86.21012213 484.85449219 88.37915039 C485.9923203 90.65480661 485.99818106 91.96082059 486.03149414 94.48999023 C486.04432938 95.33782074 486.05716461 96.18565125 486.07038879 97.05917358 C486.08146919 98.43572617 486.08146919 98.43572617 486.09277344 99.84008789 C486.10084518 100.78220123 486.10891693 101.72431458 486.11723328 102.69497681 C486.13107639 104.69059405 486.14179752 106.68623499 486.1496582 108.68188477 C486.16688456 111.73507435 486.21076999 114.78718497 486.25488281 117.84008789 C486.26500845 119.77757992 486.27352496 121.71508116 486.28027344 123.65258789 C486.29778152 124.56624115 486.31528961 125.47989441 486.33332825 126.42123413 C486.33040268 127.27536896 486.32747711 128.12950378 486.32446289 129.00952148 C486.33032913 129.75849701 486.33619537 130.50747253 486.34223938 131.27914429 C485.61128423 134.42628753 484.44013567 135.43316794 481.85449219 137.37915039 C478.77398393 137.76972406 476.05246248 137.91518458 472.97241211 137.88035583 C471.61169602 137.88865743 471.61169602 137.88865743 470.22349072 137.89712673 C467.1770373 137.91076415 464.13139876 137.89574711 461.08496094 137.88085938 C458.90369315 137.88464142 456.72242775 137.89014051 454.54116821 137.89723206 C448.61147184 137.91121878 442.68206457 137.89999418 436.75238419 137.88352084 C430.55358897 137.86969331 424.35481092 137.8761278 418.15600586 137.87965393 C407.07794956 137.88253118 396.00001979 137.86596948 384.92199409 137.8412332 C374.87634389 137.81927558 364.83082416 137.81535254 354.78515625 137.82519531 C341.87762128 137.83778254 328.97018384 137.83531591 316.06265259 137.81953621 C311.1313004 137.81377024 306.1999992 137.8138639 301.26864624 137.81860161 C295.46397018 137.8233659 289.65950565 137.8132923 283.85486984 137.79164696 C281.721528 137.78607146 279.58816586 137.78562075 277.45482254 137.79059982 C274.54850257 137.79653343 271.6428335 137.78408435 268.73657227 137.76683044 C267.46245625 137.77584551 267.46245625 137.77584551 266.16260052 137.7850427 C262.82974887 137.74892475 260.32567458 137.63014465 257.35380554 136.04705906 C255.07689426 133.51411285 254.93833813 131.01747794 254.41699219 127.69165039 C252.9174978 119.87170654 250.61373128 115.26672618 245.16699219 109.56665039 C238.93835874 105.45340189 232.4506258 103.56685728 225.01464844 104.81274414 C217.81727217 106.69994045 213.02123792 110.22699604 208.85449219 116.37915039 C206.1250524 121.44810999 205.26318376 126.28003355 204.57714844 131.92602539 C203.62228877 135.16738687 202.82377312 135.75736776 199.85449219 137.37915039 C196.82476464 137.67100307 194.00188184 137.7882656 190.97241211 137.76683044 C190.06526805 137.77221598 189.15812399 137.77760152 188.22349072 137.78315026 C185.177177 137.79748274 182.13129459 137.79031306 179.08496094 137.78320312 C176.90369313 137.78890388 174.72242831 137.79586699 172.54116821 137.80400085 C166.6115307 137.82197879 160.68204079 137.82075529 154.75238419 137.81505847 C149.80674639 137.81197367 144.86113723 137.81805109 139.9155035 137.82409722 C127.58430669 137.83896001 115.2531908 137.83531605 102.92199409 137.82323391 C92.87632287 137.81391692 82.83080469 137.82327205 72.78515625 137.84570312 C61.12123976 137.87165261 49.45742701 137.8841503 37.79348087 137.87751538 C31.61848181 137.87413818 25.44362545 137.8766116 19.26864624 137.8937664 C13.46393942 137.90918812 7.65956337 137.90533303 1.85486984 137.88646126 C-0.2784786 137.8827623 -2.41185129 137.88592162 -4.54517746 137.89634705 C-7.45164686 137.90946908 -10.35700693 137.89808762 -13.26342773 137.88035583 C-14.53754375 137.89476334 -14.53754375 137.89476334 -15.83739948 137.90946192 C-19.51955997 137.86306069 -21.68217595 137.72818762 -24.66889191 135.47823429 C-26.34350589 133.09768614 -26.65073479 131.92470482 -26.66308594 129.04125977 C-26.67569458 128.19358032 -26.68830322 127.34590088 -26.70129395 126.47253418 C-26.69319702 125.56515503 -26.6851001 124.65777588 -26.67675781 123.72290039 C-26.68058472 122.78361694 -26.68441162 121.8443335 -26.68835449 120.87658691 C-26.69107357 118.89289273 -26.68371265 116.90916269 -26.66699219 114.92553711 C-26.64558243 111.88973024 -26.66679388 108.85628994 -26.69238281 105.82055664 C-26.68973954 103.892166 -26.68461456 101.96377684 -26.67675781 100.03540039 C-26.68485474 99.12802124 -26.69295166 98.22064209 -26.70129395 97.2857666 C-26.60771784 90.99464194 -26.60771784 90.99464194 -24.23730469 87.83813477 C-20.75367807 85.40837838 -18.74943139 85.26747686 -14.52050781 85.31665039 C-13.01617188 85.33018555 -13.01617188 85.33018555 -11.48144531 85.34399414 C-10.71058594 85.3555957 -9.93972656 85.36719727 -9.14550781 85.37915039 C-9.15661087 84.38800735 -9.16771393 83.39686432 -9.17915344 82.37568665 C-9.28053601 73.03259466 -9.35547625 63.68961435 -9.40456867 54.34609699 C-9.43065636 49.54250974 -9.46603914 44.73936673 -9.52270508 39.93603516 C-9.57705463 35.30001145 -9.60693459 30.66441487 -9.61989403 26.02809715 C-9.62912866 24.2598212 -9.6471621 22.49156849 -9.6741581 20.7234745 C-9.71048892 18.24531273 -9.71545169 15.76891282 -9.71313477 13.29052734 C-9.73111115 12.56044464 -9.74908752 11.83036194 -9.76760864 11.07815552 C-9.72865374 7.22418824 -9.23955674 5.50188776 -6.86912537 2.40838623 C-4.14640875 0.37982164 -3.28275434 -0.2332376 0 0 Z " fill="#010101" transform="translate(26.1455078125,374.620849609375)"/>
<path d="M0 0 C3.15327945 0.08618288 4.39599631 0.2318727 7.125 1.9375 C9.70201056 6.12514217 9.93047991 10.03487961 8.84765625 14.78515625 C8.46480469 15.99042969 8.08195312 17.19570313 7.6875 18.4375 C0.53828072 43.89747479 8.90067863 69.27597176 21.375 91.5625 C30.90945323 108.01876269 43.12775385 122.77610397 56.07421875 136.640625 C58.48649439 139.22652538 60.84148888 141.85406102 63.1875 144.5 C69.57561975 151.60678322 76.29647496 158.25608319 83.50366211 164.52514648 C103.17250872 181.67681535 123.01489687 202.23698333 126.625 229.375 C128.31899608 256.47314579 120.87153444 278.88018314 102.9609375 299.49609375 C100.25493378 302.52756679 97.44731028 305.45174872 94.625 308.375 C93.85800781 309.20515625 93.09101563 310.0353125 92.30078125 310.890625 C71.78644777 332.48466024 71.78644777 332.48466024 60.1875 333.75 C55.96575092 333.30560536 54.44185011 332.52324425 51.625 329.375 C50.40788195 325.28896084 50.76986902 322.4606258 51.625 318.375 C53.77620766 292.13026659 35.50907038 266.50420303 19.625 247.375 C16.86416041 244.22196818 14.02291719 241.14656622 11.15625 238.08984375 C9.02841477 235.8076748 6.96838843 233.49283128 4.9375 231.125 C0.2555214 225.74072461 -4.74925599 220.76873153 -10.140625 216.09765625 C-34.22817342 195.11062338 -53.93690649 168.88259406 -58.375 136.375 C-58.48457031 135.60671875 -58.59414062 134.8384375 -58.70703125 134.046875 C-62.01650213 106.68858241 -55.34871904 79.83552031 -43.375 55.375 C-43.02421387 54.65425293 -42.67342773 53.93350586 -42.31201172 53.19091797 C-35.70684399 39.78391008 -16.08715115 0.26722842 0 0 Z " fill="#DACEF5" transform="translate(187.375,-0.375)"/>
<path d="M0 0 C3.15327945 0.08618288 4.39599631 0.2318727 7.125 1.9375 C9.70201056 6.12514217 9.93047991 10.03487961 8.84765625 14.78515625 C8.46480469 15.99042969 8.08195312 17.19570313 7.6875 18.4375 C0.53828072 43.89747479 8.90067863 69.27597176 21.375 91.5625 C30.90945323 108.01876269 43.12775385 122.77610397 56.07421875 136.640625 C58.48649439 139.22652538 60.84148888 141.85406102 63.1875 144.5 C69.57561975 151.60678322 76.29647496 158.25608319 83.50366211 164.52514648 C103.17250872 181.67681535 123.01489687 202.23698333 126.625 229.375 C128.31899608 256.47314579 120.87153444 278.88018314 102.9609375 299.49609375 C100.25493378 302.52756679 97.44731028 305.45174872 94.625 308.375 C93.85800781 309.20515625 93.09101563 310.0353125 92.30078125 310.890625 C71.78644777 332.48466024 71.78644777 332.48466024 60.1875 333.75 C55.96575092 333.30560536 54.44185011 332.52324425 51.625 329.375 C50.40788195 325.28896084 50.76986902 322.4606258 51.625 318.375 C53.77620766 292.13026659 35.50907038 266.50420303 19.625 247.375 C16.86416041 244.22196818 14.02291719 241.14656622 11.15625 238.08984375 C9.02841477 235.8076748 6.96838843 233.49283128 4.9375 231.125 C0.2555214 225.74072461 -4.74925599 220.76873153 -10.140625 216.09765625 C-34.22817342 195.11062338 -53.93690649 168.88259406 -58.375 136.375 C-58.48457031 135.60671875 -58.59414062 134.8384375 -58.70703125 134.046875 C-62.01650213 106.68858241 -55.34871904 79.83552031 -43.375 55.375 C-43.02421387 54.65425293 -42.67342773 53.93350586 -42.31201172 53.19091797 C-35.70684399 39.78391008 -16.08715115 0.26722842 0 0 Z M-14.375 40.375 C-17.22605863 44.59115403 -19.79869944 48.9869566 -22.375 53.375 C-22.72046875 53.96297363 -23.0659375 54.55094727 -23.421875 55.15673828 C-38.45889474 81.11728534 -46.76130848 112.9324683 -39.53515625 142.7109375 C-33.35918617 162.21618981 -23.68166613 177.85862703 -9.375 192.375 C-8.5711084 193.19943604 -8.5711084 193.19943604 -7.75097656 194.04052734 C-2.08673496 199.84135583 3.62507001 205.50925089 9.796875 210.7734375 C15.13560104 215.45052655 19.98522553 220.62532006 24.59765625 226.01171875 C26.15150604 227.82304654 27.72191816 229.6123516 29.30859375 231.39453125 C48.56381341 253.18819987 63.99451862 277.53113048 69.625 306.375 C89.09495031 294.18081588 103.13877634 272.90320387 108.9296875 250.98046875 C112.11485714 234.46411157 107.36352209 220.33532188 98.625 206.375 C96.1179742 202.89082635 93.43385714 199.61856122 90.625 196.375 C90.0371875 195.66601562 89.449375 194.95703125 88.84375 194.2265625 C86.05095351 190.9132903 83.17675401 187.89671278 79.8828125 185.078125 C65.34834469 172.49482771 51.03249966 159.08216555 38.625 144.375 C37.75875 143.39789063 36.8925 142.42078125 36 141.4140625 C19.93182045 123.21485299 6.9622168 103.31128268 -3.375 81.375 C-3.99181641 80.08916016 -3.99181641 80.08916016 -4.62109375 78.77734375 C-9.85635618 66.9012426 -11.65956739 53.15045863 -13.375 40.375 C-13.705 40.375 -14.035 40.375 -14.375 40.375 Z " fill="#010101" transform="translate(187.375,-0.375)"/>
<path d="M0 0 C6.03167387 1.90568534 10.3603558 7.35683973 14.62109375 11.828125 C15.49121094 12.70339844 16.36132812 13.57867187 17.2578125 14.48046875 C33.21987296 31.14415824 45.35514546 52.3426895 45.09375 75.84960938 C44.48983926 92.08955701 37.02466723 104.64562241 25.62109375 115.828125 C23.19285152 117.90007012 20.71356614 119.86766643 18.1796875 121.80859375 C14.55977992 124.66583378 11.21495207 127.79738448 7.84765625 130.9453125 C5.62109375 132.828125 5.62109375 132.828125 3.45703125 133.8359375 C1.07859653 135.12130435 0.75897172 136.41123691 -0.37890625 138.828125 C-1.72655447 140.27083554 -3.1054833 141.68457461 -4.50390625 143.078125 C-11.96935236 151.24421169 -17.93349251 161.5867203 -18.1796875 172.8359375 C-18.49716255 176.010688 -20.12127484 177.70731974 -22.37890625 179.828125 C-25.19164092 181.23449234 -27.25629328 181.05744786 -30.37890625 180.828125 C-47.2218707 173.45770604 -62.51542032 155.34702333 -69.37890625 138.828125 C-73.4960345 127.88889535 -71.68353143 116.47536661 -67.16015625 106.0078125 C-62.45173942 96.61713672 -55.73107055 90.51143765 -47.37890625 84.328125 C-30.81704105 72.02921775 -12.30945885 54.0935719 -8.625 32.8984375 C-7.93263813 27.07380593 -8.2795874 22.85330029 -9.94140625 17.265625 C-11.25731789 12.74139545 -11.79433458 9.45185753 -10.37890625 4.828125 C-7.84251351 0.70648679 -4.65394302 -0.21397439 0 0 Z " fill="#010101" transform="translate(343.37890625,-0.828125)"/>
<path d="M0 0 C0 10.89 0 21.78 0 33 C-33.66 33 -67.32 33 -102 33 C-102 38.61 -102 44.22 -102 50 C-68.34 50 -34.68 50 0 50 C0 55.61 0 61.22 0 67 C-20.33186746 67.23163605 -40.66336147 67.41001842 -60.99627686 67.51812172 C-70.43759113 67.56965383 -79.8780698 67.63988892 -89.31884766 67.75439453 C-97.54894353 67.85416827 -105.77843422 67.91860543 -114.00911808 67.94088495 C-118.36630754 67.95390636 -122.72176597 67.98443085 -127.07839966 68.05730057 C-131.18294545 68.1253949 -135.28505492 68.14607587 -139.39011192 68.13107681 C-140.89301508 68.1338187 -142.39600312 68.15359203 -143.89841652 68.19205475 C-155.21927769 68.46755813 -155.21927769 68.46755813 -159.58062744 64.87321091 C-161.62783889 62.34013776 -163.3102402 59.78023145 -165 57 C-171.1975474 48.84432243 -179.97763095 43.63371053 -189 39 C-184.37823 35.22749529 -179.21201227 33.72284715 -173.625 31.8125 C-172.4788623 31.41957764 -171.33272461 31.02665527 -170.15185547 30.62182617 C-127.62575113 16.3441813 -82.3924834 8.09748635 -37.82958984 3.32373047 C-34.81305533 2.97861185 -31.80820928 2.57705996 -28.80078125 2.16015625 C-27.77484863 2.01868164 -26.74891602 1.87720703 -25.69189453 1.73144531 C-23.77925304 1.4647386 -21.86736192 1.19255132 -19.95654297 0.91308594 C-13.1190441 -0.02800554 -7.07040498 0 0 0 Z " fill="#D7E4EA" transform="translate(478,394)"/>
<path d="M0 0 C38.48497484 3.45932358 77.20902455 8.85901122 115 17 C115.7024585 17.15128357 116.40491699 17.30256714 117.12866211 17.45843506 C135.64741843 21.47225976 153.76382559 26.26900658 171.6875 32.4375 C172.45341461 32.70056946 173.21932922 32.96363892 174.00845337 33.23468018 C186.58766626 37.58766626 186.58766626 37.58766626 189 40 C188.09378906 40.4846875 187.18757812 40.969375 186.25390625 41.46875 C173.5814949 48.32912764 173.5814949 48.32912764 164.16491032 58.99214554 C159.03214713 67.33304882 159.03214713 67.33304882 153.67796135 69.09029388 C149.59248298 69.47765149 145.6608131 69.48841828 141.56616211 69.36230469 C140.01805893 69.35891484 138.4699365 69.36082952 136.92184448 69.36761475 C132.74104529 69.37104299 128.56441995 69.30076284 124.38458705 69.21672726 C120.00860867 69.14144755 115.63252268 69.13464232 111.2559967 69.12042236 C102.97866677 69.08319992 94.70325038 68.98483575 86.42676121 68.86422849 C77.00015911 68.72985871 67.57346309 68.66406156 58.14614093 68.60388327 C38.76298094 68.47862377 19.3817148 68.26527565 0 68 C0 62.39 0 56.78 0 51 C33.99 51 67.98 51 103 51 C103 45.06 103 39.12 103 33 C69.01 33 35.02 33 0 33 C0 22.11 0 11.22 0 0 Z " fill="#DAE7EC" transform="translate(34,393)"/>
<path d="M0 0 C1.4859668 -0.01836914 1.4859668 -0.01836914 3.00195312 -0.03710938 C18.51778246 -0.06763232 33.29767786 4.36322192 44.8125 15.1875 C47.39096564 18.3365366 49.57431639 21.69532641 51.7421875 25.13671875 C55.2990821 30.81002796 55.2990821 30.81002796 61.08687782 33.65276527 C64.01645109 33.84474433 66.90910326 33.87108752 69.8449707 33.84692383 C70.95760788 33.85740753 72.07024506 33.86789124 73.21659851 33.87869263 C76.89077541 33.90747204 80.56401168 33.90114719 84.23828125 33.89453125 C86.78705529 33.90764442 89.33581892 33.92294745 91.88456726 33.94035339 C97.90520459 33.97618253 103.92550038 33.9899404 109.94621104 33.9929778 C116.80241159 33.99767038 123.65838613 34.03059994 130.51448691 34.06587565 C144.61380435 34.13778757 158.71301696 34.17332171 172.8125 34.1875 C172.8125 39.7975 172.8125 45.4075 172.8125 51.1875 C130.2425 51.1875 87.6725 51.1875 43.8125 51.1875 C41.8325 46.5675 39.8525 41.9475 37.8125 37.1875 C32.27566651 30.02218607 26.95055062 25.13282694 18.8125 21.1875 C18.14089844 20.84847656 17.46929687 20.50945312 16.77734375 20.16015625 C8.1773989 16.56441823 -3.99519539 16.56138763 -12.6875 19.8125 C-14.21271505 20.55442665 -15.71471645 21.34628378 -17.1875 22.1875 C-17.95320312 22.61160156 -18.71890625 23.03570312 -19.5078125 23.47265625 C-30.88640957 30.39624328 -34.79955492 38.61562815 -40.1875 51.1875 C-82.7575 51.1875 -125.3275 51.1875 -169.1875 51.1875 C-169.1875 45.5775 -169.1875 39.9675 -169.1875 34.1875 C-167.77040237 34.18607498 -166.35330475 34.18464996 -164.89326477 34.18318176 C-151.5471241 34.16652194 -138.20127497 34.12407656 -124.85529804 34.05540943 C-117.99374658 34.02076752 -111.13239584 33.995405 -104.27075195 33.99194336 C-97.65052119 33.98857739 -91.03073425 33.95927828 -84.41063499 33.91406822 C-81.88328172 33.90106526 -79.35586812 33.89679537 -76.82848549 33.90134621 C-73.29175743 33.90623193 -69.75651619 33.88024655 -66.2199707 33.84692383 C-64.64795898 33.85986229 -64.64795898 33.85986229 -63.04418945 33.87306213 C-57.11544116 33.79521292 -57.11544116 33.79521292 -52.10173035 30.78886414 C-49.52848494 27.29610263 -49.52848494 27.29610263 -47.125 23.6875 C-39.34202308 11.44170806 -27.97650047 3.87249088 -13.8581543 0.65698242 C-9.26187279 -0.15101185 -4.65541643 0.00297091 0 0 Z " fill="#8B27AB" transform="translate(254.1875,443.8125)"/>
<path d="M0 0 C10.69998502 9.97424691 17.11570784 25.14026343 18.02734375 39.6796875 C17.91517142 49.19831079 13.92780481 58.72689367 7.51171875 65.70703125 C4.7502734 68.24974825 1.92631303 70.64935511 -1 73 C-1.84046875 73.67546875 -2.6809375 74.3509375 -3.546875 75.046875 C-5.18405016 76.35035841 -6.82338213 77.65113738 -8.46484375 78.94921875 C-23.11610139 90.8011606 -34.81694724 104.99057271 -43 122 C-52.15631947 117.83078264 -58.61482966 108.12988777 -62.171875 98.98828125 C-64.30349683 91.29634399 -63.65269898 84.369476 -59.734375 77.40234375 C-56.46620775 72.87549047 -52.31994138 69.49036516 -48 66 C-47.08347656 65.2471875 -46.16695313 64.494375 -45.22265625 63.71875 C-43.37410516 62.20464925 -41.52256211 60.69419362 -39.66796875 59.1875 C-32.8419316 53.59074919 -26.56029106 47.86930127 -21 41 C-20.28972656 40.13890625 -19.57945312 39.2778125 -18.84765625 38.390625 C-9.72631145 26.85251363 -3.70112581 14.22011494 0 0 Z " fill="#D9CDF4" transform="translate(353,33)"/>
<path d="M0 0 C3.85195014 2.99283146 4.62600299 5.52652778 5.4375 10.25 C7.26827139 19.02982838 10.60525915 24.86895533 18 30 C22.38170574 31.89210021 26.94392713 32.58757709 31.6328125 33.33984375 C34.38089815 34.10622407 35.93938036 35.03116743 38 37 C39.5735311 43.50392856 39.5735311 43.50392856 37.9921875 47.62890625 C35.23920613 50.90549388 32.21854916 51.32061153 28.1875 52.0625 C19.26329358 53.78154068 13.28275206 57.48858691 8 65 C6.74447657 67.82492772 6.09816733 70.41747875 5.5859375 73.45703125 C4.37414824 80.4710318 4.37414824 80.4710318 2.1875 83.5625 C-0.35499439 85.23328202 -1.95667735 85.85154524 -5 86 C-8.46908341 85.00883331 -10.75812574 83.82888312 -13 81 C-13.51953125 78.43359375 -13.51953125 78.43359375 -13.8125 75.4375 C-14.88862018 68.21087177 -17.37462036 62.50734403 -22.6796875 57.375 C-27.82786205 53.66301149 -33.6601897 52.84745905 -39.828125 51.87109375 C-43.40909908 50.8876489 -44.81465492 49.97567618 -47 47 C-47.53125 44.78125 -47.53125 44.78125 -47.5 42.5 C-47.5103125 41.7471875 -47.520625 40.994375 -47.53125 40.21875 C-46.77740407 37.07033463 -45.57154414 35.94546558 -43 34 C-39.828125 33.12890625 -39.828125 33.12890625 -36.25 32.5625 C-28.52792867 31.05497206 -22.91302644 29.06704816 -18.1875 22.5625 C-15.44635522 17.78377093 -14.72351153 12.55680389 -13.87109375 7.171875 C-12.89844231 3.63020249 -11.82581211 2.27800593 -9 0 C-5.81452856 -1.59273572 -3.39809153 -0.76164121 0 0 Z M-5 35 C-7.64752004 37.57784846 -9.94432065 39.91648098 -12 43 C-11.05125 43.78375 -10.1025 44.5675 -9.125 45.375 C-7.32295116 46.86364904 -5.65621152 48.34378848 -4 50 C-1.69 47.69 0.62 45.38 3 43 C2.05125 41.865625 1.1025 40.73125 0.125 39.5625 C-0.40867187 38.92441406 -0.94234375 38.28632813 -1.4921875 37.62890625 C-2.9222757 35.89194996 -2.9222757 35.89194996 -5 35 Z " fill="#0C0A06" transform="translate(431,188)"/>
<path d="M0 0 C3.28280136 2.06959216 4.68533687 3.70074579 5.60546875 7.5 C5.9148774 9.40405323 6.21004865 11.31046541 6.4921875 13.21875 C7.6971398 19.81818106 10.76627521 24.62074745 16.01953125 28.75390625 C20.88479354 31.81508706 26.2980217 32.87823627 31.875 33.9375 C34.59111009 34.53001965 35.84668871 34.87920928 38.0625 36.625 C39.45726549 40.15840591 39.85569017 43.32126363 39 47 C35.50105003 51.47088052 32.73191899 52.20815753 27.1875 52.9375 C20.1003692 53.90472629 14.98261228 56.2922915 10.44140625 61.9375 C7.11464013 67.30771 5.97394656 72.89563771 4.96875 79.08203125 C3.75154242 82.74837827 2.22536362 83.95500288 -1 86 C-4.69401053 86.61566842 -6.35317861 86.38986495 -9.56640625 84.453125 C-12.65511436 81.3396279 -13.18527269 78.41030696 -13.9375 74.25 C-15.60958272 66.62444531 -17.51239657 61.05220128 -24.22265625 56.48828125 C-28.70842139 54.00724791 -32.8122084 52.74353415 -37.875 52 C-41.5104747 51.43950956 -42.76019324 51.19519155 -45.6875 48.8125 C-47.38725814 45.17016112 -47.6390658 42.97640943 -47 39 C-43.40766595 34.51959823 -40.6685469 33.30792856 -35.0625 32.4375 C-26.61785221 30.85082296 -22.03505466 28.07629303 -17 21 C-14.47680639 15.95361278 -13.48173248 10.75705275 -12.72265625 5.19921875 C-10.84501379 -0.51490397 -5.30090598 -1.06439663 0 0 Z M-5 36 C-6.57840572 37.55705194 -6.57840572 37.55705194 -8.125 39.5 C-9.07375 40.655 -10.0225 41.81 -11 43 C-8.03 46.465 -8.03 46.465 -5 50 C-1.30581799 48.768606 0.35109746 46.79208646 3 44 C1.55922954 40.63820226 -0.24750021 38.40843732 -3 36 C-3.66 36 -4.32 36 -5 36 Z " fill="#0C0A06" transform="translate(149,273)"/>
<path d="M0 0 C2.875 1.75 2.875 1.75 5 5 C5.6257463 7.98729567 6.02150692 10.9718467 6.4296875 13.99609375 C7.71572616 20.76981791 11.79682026 25.74845864 17.34375 29.6953125 C21.50287759 31.73817811 25.91415048 32.66858848 30.45239258 33.53222656 C33.58423845 34.16768444 35.63169096 34.64126699 37.953125 36.90234375 C39.55436599 40.11080052 39.4333684 42.47114299 39 46 C36.91419912 49.41220824 35.73965516 50.77985357 31.86328125 51.93359375 C30.10564453 52.18302734 30.10564453 52.18302734 28.3125 52.4375 C20.20171695 53.93980945 14.78929474 56.56702186 9.5625 63 C7.59695444 66.77384748 6.27613167 70.24279848 5.61328125 74.4609375 C4.50195254 81.41438871 4.50195254 81.41438871 1.75 84.625 C-1.56436316 86.28218158 -3.34121965 86.60979672 -7 86 C-10.65805714 83.79514364 -11.83737527 82.50937372 -13.15234375 78.390625 C-13.42628367 77.01279022 -13.68754969 75.632388 -13.9375 74.25 C-15.60958272 66.62444531 -17.51239657 61.05220128 -24.22265625 56.48828125 C-28.70842139 54.00724791 -32.8122084 52.74353415 -37.875 52 C-41.5104747 51.43950956 -42.76019324 51.19519155 -45.6875 48.8125 C-47.38725814 45.17016112 -47.6390658 42.97640943 -47 39 C-43.42053132 34.53892144 -40.77891271 33.35775054 -35.1875 32.5625 C-26.97026111 31.01532113 -22.02012259 28.16045812 -17.125 21.375 C-15.11160006 17.91488554 -14.53304367 14.76186902 -14 10.8125 C-13.45532721 6.89580749 -13.08452551 5.12927432 -10.875 1.75 C-7.09050297 -0.55360689 -4.31408851 -1.03049078 0 0 Z M-5 36 C-6.57840572 37.55705194 -6.57840572 37.55705194 -8.125 39.5 C-8.66382813 40.1496875 -9.20265625 40.799375 -9.7578125 41.46875 C-10.16773438 41.9740625 -10.57765625 42.479375 -11 43 C-10.04882866 44.1725131 -9.08882991 45.33787015 -8.125 46.5 C-7.59132812 47.1496875 -7.05765625 47.799375 -6.5078125 48.46875 C-6.01023437 48.9740625 -5.51265625 49.479375 -5 50 C-4.34 50 -3.68 50 -3 50 C-1.41544134 48.21276059 -1.41544134 48.21276059 0.125 46 C0.93324219 44.88625 0.93324219 44.88625 1.7578125 43.75 C2.16773438 43.1725 2.57765625 42.595 3 42 C2.0479279 40.99403703 1.08812654 39.99538437 0.125 39 C-0.67550781 38.1646875 -0.67550781 38.1646875 -1.4921875 37.3125 C-2.91824988 35.78114478 -2.91824988 35.78114478 -5 36 Z " fill="#0C0A06" transform="translate(260,0)"/>
<path d="M0 0 C6.11567511 3.87667272 9.88824147 9.07864165 12 16 C13.26423784 24.96272682 12.40012781 32.5952793 7 40 C2.21178023 45.47391144 -3.40288302 48.44089118 -10.6015625 49.31640625 C-19.12143115 49.68840051 -26.46306497 47.64574152 -32.875 41.875 C-38.30102301 35.85891303 -40.77144116 28.57767803 -40.37890625 20.51171875 C-39.1453758 12.33481069 -35.63457383 5.96276653 -29 1 C-20.37915735 -4.58696918 -9.00329922 -5.12525475 0 0 Z " fill="#000001" transform="translate(449,88)"/>
<path d="M0 0 C8.05466141 0.52817452 14.22685181 2.66088193 20.12109375 8.28125 C25.21949433 14.21564698 27.19547236 21.02790996 27.09375 28.74609375 C26.29797047 35.83074202 22.99326396 42.40711195 17.8125 47.25 C10.30953913 52.63784048 2.85022348 53.36119551 -6.1875 52.25 C-14.82419715 50.19910289 -19.60097235 44.42181878 -24.125 37.125 C-26.40320962 30.93111759 -26.27867587 23.01631671 -24.4609375 16.7421875 C-21.07000606 9.4916593 -15.14229939 4.90518087 -8.1875 1.25 C-5.37687733 0.35882696 -2.94355925 0.23086739 0 0 Z " fill="#000000" transform="translate(315.1875,314.75)"/>
<path d="M0 0 C5.64700409 3.74697828 8.93147154 8.30485406 10.828125 14.81640625 C11.86972726 22.9372168 11.74477666 30.98553821 6.828125 37.81640625 C1.41935973 43.7383371 -3.38750822 47.33907963 -11.5390625 48.15234375 C-20.56074851 48.25280796 -25.95456034 47.34718131 -32.859375 41.56640625 C-36.75249592 36.93674894 -40.69373606 32.0322125 -41.171875 25.81640625 C-41.254375 24.76453125 -41.336875 23.71265625 -41.421875 22.62890625 C-40.89370048 14.57424484 -38.76099307 8.40205444 -33.140625 2.5078125 C-23.33591306 -5.9156801 -11.04239709 -6.01770921 0 0 Z " fill="#000000" transform="translate(100.171875,174.18359375)"/>
<path d="M0 0 C16.83 0 33.66 0 51 0 C51 5.61 51 11.22 51 17 C34.17 17 17.34 17 0 17 C0 11.39 0 5.78 0 0 Z " fill="#5B057B" transform="translate(444,478)"/>
<path d="M0 0 C16.83 0 33.66 0 51 0 C51 5.61 51 11.22 51 17 C34.17 17 17.34 17 0 17 C0 11.39 0 5.78 0 0 Z " fill="#5B057B" transform="translate(17,478)"/>
<path d="M0 0 C5.94 0 11.88 0 18 0 C18 5.94 18 11.88 18 18 C12.06 18 6.12 18 0 18 C0 12.06 0 6.12 0 0 Z " fill="#0E0107" transform="translate(213,358)"/>
<path d="M0 0 C5.94 0 11.88 0 18 0 C18 5.94 18 11.88 18 18 C12.06 18 6.12 18 0 18 C0 12.06 0 6.12 0 0 Z " fill="#0D0106" transform="translate(51,315)"/>
<path d="M0 0 C5.94 0 11.88 0 18 0 C18 5.94 18 11.88 18 18 C12.06 18 6.12 18 0 18 C0 12.06 0 6.12 0 0 Z " fill="#0C0106" transform="translate(349,273)"/>
<path d="M0 0 C5.94 0 11.88 0 18 0 C18 5.94 18 11.88 18 18 C12.06 18 6.12 18 0 18 C0 12.06 0 6.12 0 0 Z " fill="#0D0106" transform="translate(128,230)"/>
<path d="M0 0 C5.94 0 11.88 0 18 0 C18 5.94 18 11.88 18 18 C12.06 18 6.12 18 0 18 C0 12.06 0 6.12 0 0 Z " fill="#0C0106" transform="translate(349,162)"/>
<path d="M0 0 C4.1765625 -0.0309375 4.1765625 -0.0309375 8.4375 -0.0625 C9.75512329 -0.07615601 9.75512329 -0.07615601 11.09936523 -0.09008789 C13.06645974 -0.09723091 15.03353621 -0.05031893 17 0 C18 1 18 1 18.09765625 4.81640625 C18.09191138 6.39847047 18.07889593 7.98051031 18.0625 9.5625 C18.041875 12.346875 18.02125 15.13125 18 18 C12.06 18 6.12 18 0 18 C0 12.06 0 6.12 0 0 Z " fill="#0F1415" transform="translate(341,426)"/>
<path d="M0 0 C5.61 0 11.22 0 17 0 C17 5.94 17 11.88 17 18 C11.39 18 5.78 18 0 18 C0 12.06 0 6.12 0 0 Z " fill="#0B0509" transform="translate(256,230)"/>
<path d="M0 0 C5.94 0 11.88 0 18 0 C18 5.61 18 11.22 18 17 C12.06 17 6.12 17 0 17 C0 11.39 0 5.78 0 0 Z " fill="#0C0609" transform="translate(230,205)"/>
<path d="M0 0 C4.43024874 0.87022743 5.91370196 2.00398461 8.5 5.6875 C9.12601538 9.65226406 9.15946039 11.68512021 6.9375 15.0625 C3.67160572 17.23976285 1.42016134 17.6875 -2.5 17.6875 C-6.28644566 15.71196313 -7.27321363 14.3678591 -8.625 10.3125 C-8.5 6.6875 -8.5 6.6875 -6.5 3.25 C-3.5 0.6875 -3.5 0.6875 0 0 Z " fill="#82C7E1" transform="translate(315.5,332.3125)"/>
<path d="M0 0 C4.4297642 0.79102932 5.89210172 1.98974785 8.5 5.625 C9.21235686 9.4242366 8.81263988 11.06224821 6.9375 14.4375 C3.73003157 17.31599731 1.7850666 17.70017661 -2.5 17.625 C-5.30189446 15.85858828 -7.01524911 14.59450178 -8.5 11.625 C-9.03507099 7.6119676 -8.83051628 6.08571967 -6.4375 2.75 C-3.5 0.625 -3.5 0.625 0 0 Z " fill="#82C7E1" transform="translate(85.5,187.375)"/>
<path d="M0 0 C3.0625 2.0625 3.0625 2.0625 5 5 C5.06886551 8.92533388 4.55357459 11.13642364 2.4375 14.4375 C-0.55675314 16.35689304 -2.57979374 16.64198916 -6.09375 16.4453125 C-8 16 -8 16 -10.5 13.9375 C-12.37276489 10.27000208 -12.59172793 8.06812955 -12 4 C-9.16483673 -0.60714032 -5.04704965 -1.13708233 0 0 Z " fill="#83C8E3" transform="translate(439,103)"/>
<path d="M0 0 C0 0.33 0 0.66 0 1 C-1.093125 1.103125 -2.18625 1.20625 -3.3125 1.3125 C-6.98536808 1.99727202 -7.75237686 2.27919304 -10 5 C-10.66 5 -11.32 5 -12 5 C-9.28085049 -1.02097391 -6.0998139 -0.0983841 0 0 Z " fill="#5A4E2E" transform="translate(149,273)"/>
<path d="M0 0 C0 0.33 0 0.66 0 1 C-1.093125 1.103125 -2.18625 1.20625 -3.3125 1.3125 C-6.98536808 1.99727202 -7.75237686 2.27919304 -10 5 C-10.66 5 -11.32 5 -12 5 C-9.28085049 -1.02097391 -6.0998139 -0.0983841 0 0 Z " fill="#504429" transform="translate(260,0)"/>
</svg>
