<?xml version="1.0" encoding="UTF-8"?>
<svg version="1.1" xmlns="http://www.w3.org/2000/svg" width="512" height="512">
<path d="M0 0 C1.08667969 -0.04898438 2.17335937 -0.09796875 3.29296875 -0.1484375 C12.40702553 1.2070382 18.44227199 8.71749254 24.5 15.0859375 C25.87798322 16.50301691 27.25599399 17.92007072 28.63560486 19.33556557 C32.00939889 22.80046466 35.3675044 26.280028 38.70410156 29.78076172 C40.5876387 31.75547718 42.48270116 33.7176644 44.3918457 35.66763306 C46.18264785 37.49784645 47.95548398 39.34585355 49.70776367 41.21298218 C53.74805162 45.59570014 53.74805162 45.59570014 59.08026123 47.73027039 C61.49853878 47.52412512 61.49853878 47.52412512 64.8125 46.375 C65.86953125 46.07722656 66.9265625 45.77945313 68.015625 45.47265625 C70.03674324 44.78599428 72.0575798 44.09850261 74.078125 43.41015625 C103.15566998 35.34995811 135.53958257 39.86435643 161.74243164 54.51855469 C169.83609575 59.27545856 176.90674338 65.04790048 183.8125 71.375 C184.31249512 71.82053223 184.81249023 72.26606445 185.32763672 72.72509766 C193.50119814 80.04168824 193.50119814 80.04168824 194.640625 84.921875 C194.8125 88.375 194.8125 88.375 194.18505859 90.40014648 C194.06211426 91.05184814 193.93916992 91.7035498 193.8125 92.375 C195.53313693 94.74923577 197.13016919 96.64262497 199.1875 98.6875 C199.73825195 99.24074951 200.28900391 99.79399902 200.85644531 100.36401367 C204.12035087 103.47673998 204.12035087 103.47673998 208.3359375 104.6875 C209.8057253 104.35744239 211.26680996 103.98553816 212.71484375 103.5703125 C214.8125 103.375 214.8125 103.375 217.00390625 104.6796875 C219.05155588 106.49730651 220.95491445 108.3643868 222.8125 110.375 C225.11467919 112.8126015 226.55578946 114.25489541 229.60598755 115.68196106 C233.04746997 117.49906417 235.25643166 119.45709693 237.99169922 122.21362305 C238.47050034 122.69198608 238.94930145 123.17034912 239.44261169 123.66320801 C241.00802994 125.23069993 242.56257852 126.80851218 244.1171875 128.38671875 C245.20654605 129.48167831 246.29657315 130.57597312 247.38723755 131.66963196 C250.24453486 134.53833823 253.09270445 137.41594093 255.93902588 140.29553223 C258.84969313 143.23698567 261.76895959 146.16987757 264.6875 149.10351562 C270.40425303 154.85236307 276.11138541 160.6106438 281.8125 166.375 C287.12514086 161.92564156 292.12266798 157.25259569 297.046875 152.37890625 C298.18663788 151.25125099 298.18663788 151.25125099 299.34942627 150.10081482 C300.94421433 148.51977705 302.53751538 146.93723807 304.12939453 145.35327148 C305.7541822 143.74005917 307.38344118 142.13133805 309.01708984 140.52709961 C311.39106291 138.19578276 313.75151793 135.85150835 316.109375 133.50390625 C317.20158356 132.43795982 317.20158356 132.43795982 318.31585693 131.35047913 C321.37541213 128.27772013 323.9343757 125.66546728 325.52294922 121.58764648 C326.94444726 118.04628095 328.05698352 116.96653525 331.1484375 114.84375 C340.86662202 107.50831951 340.86662202 107.50831951 345.35742188 96.63964844 C345.51930471 88.54550678 343.91255205 80.54687347 342.39941406 72.63183594 C340.68957084 63.14377082 340.68957084 63.14377082 343.43991089 58.81159973 C346.2687723 55.90641783 348.31669926 55.15535582 352.18798828 54.0065918 C352.81980515 53.81388702 353.45162201 53.62118225 354.10258484 53.42263794 C356.19142802 52.78997658 358.28666624 52.18220121 360.3828125 51.57421875 C361.86226926 51.1312483 363.34125553 50.6867038 364.8197937 50.24067688 C368.72790373 49.06618388 372.64184206 47.91244748 376.55743408 46.76318359 C380.44022402 45.62010298 384.31764178 44.45913316 388.1953125 43.29882812 C392.74331021 41.93861435 397.29198841 40.58100468 401.84503174 39.23776245 C408.77417277 37.19177262 415.68856931 35.11590359 422.57324219 32.92431641 C423.76045868 32.54829788 424.94767517 32.17227936 426.17086792 31.78486633 C428.34731812 31.09160999 430.52088716 30.38920674 432.69070435 29.67546082 C438.28742093 27.8967546 442.93259314 26.86068486 448.8125 27.375 C451.3125 28.875 451.3125 28.875 452.8125 31.375 C453.63492132 39.1507248 451.08881093 45.98411367 448.75390625 53.3203125 C448.32603087 54.69400502 447.89920927 56.06802617 447.47337341 57.44235229 C446.34738869 61.06710358 445.20822421 64.68757343 444.06585693 68.30718994 C442.7183069 72.58437257 441.38515107 76.86605501 440.05103111 81.14744186 C438.9507909 84.67744594 437.8472241 88.2063198 436.73550415 91.73272705 C434.50872858 98.81241872 432.35226381 105.90389968 430.31982422 113.04199219 C429.91868957 114.43576787 429.51732156 115.82947642 429.1157074 117.22311401 C428.36256529 119.83762844 427.63291895 122.45516975 426.91468811 125.0798645 C426.41152321 126.82866409 426.41152321 126.82866409 425.89819336 128.61279297 C425.47273476 130.14321732 425.47273476 130.14321732 425.03868103 131.70455933 C423.51803736 135.01629602 421.86852096 136.42981103 418.8125 138.375 C415.96490847 138.56202402 413.61459786 138.52413162 410.8125 138.25 C410.03068359 138.20319092 409.24886719 138.15638184 408.44335938 138.1081543 C404.04641701 137.81187256 399.88657392 137.21356603 395.59375 136.21484375 C386.14159408 134.09151099 386.14159408 134.09151099 377.25927734 136.98681641 C372.274165 141.23122779 368.04662163 146.07107324 364.03979492 151.23681641 C361.95539673 153.23782039 360.7257315 153.94979451 358.15942383 155.07861328 C352.51277019 157.73921133 348.59325773 162.09683283 344.28125 166.515625 C343.40472778 167.39780701 342.52820557 168.27998901 341.62512207 169.18890381 C339.31630258 171.51622395 337.0164337 173.8519203 334.72070312 176.19213867 C332.36808587 178.5859512 330.00385424 180.96823404 327.640625 183.3515625 C323.02056526 188.01557849 318.4121325 192.69084221 313.8125 197.375 C318.82848863 203.45095943 324.3054587 208.94884689 329.91796875 214.47265625 C330.8891407 215.43432111 331.85986115 216.39644212 332.83015442 217.35899353 C336.91950312 221.41502315 341.01313756 225.46665146 345.11694336 229.50805664 C347.63962325 231.99297013 350.15483113 234.48524317 352.6654911 236.9822979 C354.07755055 238.38247301 355.49770936 239.77446488 356.91801453 241.16627502 C357.77933487 242.02414108 358.64065521 242.88200714 359.52807617 243.76586914 C360.66342049 244.8866964 360.66342049 244.8866964 361.82170105 246.03016663 C363.8125 248.375 363.8125 248.375 365.30499268 251.37046814 C366.92148621 254.59221457 368.64605124 256.54734797 371.21704102 259.05664062 C372.1054921 259.93195435 372.99394318 260.80726807 373.90931702 261.70910645 C374.61901484 262.39783592 374.61901484 262.39783592 375.34305 263.10047913 C376.84495886 264.55897733 378.33643249 266.0274716 379.82566833 267.49890137 C384.05982161 271.67843513 388.31328268 275.83815242 392.56958008 279.99511719 C415.67119787 302.57810446 415.67119787 302.57810446 422.8125 314.375 C423.55342896 315.57068604 423.55342896 315.57068604 424.30932617 316.79052734 C425.48501712 318.77023483 426.57509236 320.76385539 427.625 322.8125 C427.99189941 323.52075928 428.35879883 324.22901855 428.73681641 324.95874023 C432.223806 331.88100886 434.79177561 338.87850874 436.8125 346.375 C437.13089844 347.53257812 437.44929688 348.69015625 437.77734375 349.8828125 C442.74034036 371.42724938 440.39724627 393.37866455 434.19921875 414.30078125 C433.96891968 415.08086548 433.73862061 415.86094971 433.50134277 416.66467285 C432.9392061 418.56835488 432.37596744 420.47171144 431.8125 422.375 C432.36960159 422.92543976 432.92670319 423.47587952 433.50068665 424.04299927 C438.76097958 429.24306943 444.01392934 434.45039816 449.25887775 439.66594124 C451.95532476 442.34676225 454.65447798 445.02473324 457.36010742 447.69628906 C459.97327059 450.27674942 462.57894084 452.86456477 465.17967796 455.45754623 C466.170963 456.44330735 467.16487587 457.42643346 468.1614933 458.40680313 C469.56170707 459.78509928 470.9515915 461.17386488 472.34106445 462.56298828 C473.13382278 463.34908478 473.92658112 464.13518127 474.74336243 464.94509888 C479.70926342 470.77682731 480.36308976 475.82721685 480.15234375 483.25390625 C479.37775806 490.36763003 475.45966365 494.29347058 470.0859375 498.73828125 C459.55441197 506.32025581 448.60391974 508.4784132 435.8125 507.375 C416.0198097 503.30197697 403.65589775 488.42321688 389.91625977 474.71899414 C387.62637705 472.43887118 385.32602377 470.16965929 383.02539062 467.90039062 C364.78013637 449.78974062 364.78013637 449.78974062 361.4375 439.5625 C361.14101563 438.68980469 360.84453125 437.81710937 360.5390625 436.91796875 C359.34584138 432.74169484 358.76260102 429.04910618 358.78759766 424.70385742 C358.79119293 423.89325363 358.79478821 423.08264984 358.79849243 422.2474823 C358.80311493 421.62956314 358.80773743 421.01164398 358.8125 420.375 C357.63220215 420.65287354 356.4519043 420.93074707 355.23583984 421.21704102 C350.84392363 422.24785115 346.44865982 423.26370625 342.05224609 424.27514648 C340.15221517 424.7144497 338.25310807 425.15776909 336.35498047 425.60522461 C333.62181545 426.24878547 330.88562147 426.87768964 328.1484375 427.50390625 C326.88246231 427.8069442 326.88246231 427.8069442 325.59091187 428.11610413 C321.02705345 429.14398439 317.42687818 429.68354837 312.8125 428.375 C310.05443769 425.98467933 309.83094128 424.52253021 309.375 420.875 C309.8125 417.375 309.8125 417.375 311.23852539 415.31518555 C314.99640589 412.48260693 318.88430642 411.81286263 323.43359375 410.83203125 C324.37050552 410.61810226 325.3074173 410.40417328 326.27272034 410.1837616 C329.26223686 409.5045926 332.25584657 408.84589142 335.25 408.1875 C337.26136744 407.73374846 339.27243931 407.27868463 341.28320312 406.82226562 C355.84269538 403.53071963 355.84269538 403.53071963 361.8125 402.375 C368.56582876 383.27493659 371.4876178 366.96799832 362.5949707 347.74279785 C358.89917415 340.59561814 354.4118009 335.26681381 348.6875 329.65625 C347.82237793 328.79108765 346.95725586 327.92592529 346.06591797 327.0345459 C344.24978097 325.22373314 342.42758172 323.4189817 340.59960938 321.62011719 C337.80608777 318.86868438 335.03473963 316.09628623 332.265625 313.3203125 C330.49084653 311.55602005 328.71484673 309.79295515 326.9375 308.03125 C326.11233887 307.20629028 325.28717773 306.38133057 324.43701172 305.53137207 C323.65600098 304.76627319 322.87499023 304.00117432 322.0703125 303.21289062 C321.3911377 302.54213501 320.71196289 301.87137939 320.01220703 301.18029785 C317.81558787 299.23646144 317.81558787 299.23646144 314.86434937 297.93180847 C311.49930089 296.21523097 309.38060967 294.30476134 306.72509766 291.62817383 C306.25605011 291.15956436 305.78700256 290.6909549 305.30374146 290.20814514 C303.77078617 288.67311676 302.24870547 287.12777528 300.7265625 285.58203125 C299.65962433 284.50949186 298.59201743 283.43761734 297.52377319 282.36637878 C294.72565766 279.55685594 291.93667244 276.73843906 289.14953613 273.91802979 C286.29919411 271.03689797 283.44024924 268.1643305 280.58203125 265.29101562 C274.98376522 259.66065809 269.39512227 254.02086885 263.8125 248.375 C259.91008949 251.63767741 256.16857482 254.88930781 252.76171875 258.6796875 C252.06240234 259.42734375 251.36308594 260.175 250.64257812 260.9453125 C249.20784053 262.48860362 247.79114598 264.0488568 246.39257812 265.625 C241.06609344 271.22977032 241.06609344 271.22977032 237.29418945 271.66674805 C235.59085883 271.55904859 233.88862307 271.43214612 232.18823242 271.28515625 C228.52211401 271.42379889 226.79260417 273.14286585 224.26367188 275.65429688 C223.72291016 276.24275391 223.18214844 276.83121094 222.625 277.4375 C221.75004883 278.27958008 221.75004883 278.27958008 220.85742188 279.13867188 C219.22907697 280.82482784 217.93036118 282.31321752 216.8125 284.375 C217.06910217 287.97394596 217.06910217 287.97394596 217.8125 291.375 C215.90418024 295.3067599 213.30294879 298.12097025 210.21324158 301.1743927 C209.75473157 301.63037816 209.29622156 302.08636362 208.82381731 302.55616683 C207.2947073 304.0745689 205.75857477 305.58565989 204.22241211 307.09692383 C203.12130628 308.18763701 202.02068686 309.27884143 200.92051697 310.37049866 C198.55447179 312.71669572 196.18554771 315.05993336 193.81449699 317.40107155 C190.06376713 321.10559336 186.32287179 324.81993901 182.58387756 328.53630066 C171.95173879 339.10163818 161.31142262 349.65863949 150.65014648 360.19458008 C144.7590842 366.01655019 138.87883304 371.84921434 133.01035696 377.69395274 C129.29872752 381.38940542 125.57434961 385.0713424 121.84003627 388.7438637 C119.51731006 391.03451667 117.20734708 393.33771401 114.90079689 395.64464378 C113.83132676 396.70928125 112.75671675 397.76878495 111.67658234 398.82260132 C103.91820995 406.31032659 103.91820995 406.31032659 100.8125 416.375 C100.65305908 417.14030029 100.49361816 417.90560059 100.3293457 418.6940918 C100.21679443 419.31453369 100.10424316 419.93497559 99.98828125 420.57421875 C98.30023261 429.43548807 96.1626632 437.99831866 93.3125 446.5625 C93.02802002 447.42254639 92.74354004 448.28259277 92.45043945 449.16870117 C90.63009596 454.47929004 88.37168585 459.38338586 85.8125 464.375 C87.67325941 463.95646582 89.53401759 463.53792612 91.39477539 463.11938477 C92.64228073 462.83878708 93.88978607 462.55818939 95.1750946 462.26908875 C98.07707216 461.61632117 100.97901456 460.96339751 103.88093567 460.31037903 C111.49678888 458.59668048 119.11281595 456.88376914 126.72955322 455.1740036 C131.37583094 454.1309447 136.0219401 453.08713648 140.66796875 452.04296875 C141.6369384 451.82520027 142.60590805 451.60743179 143.60424042 451.38306427 C158.36578789 448.06408985 173.12018818 444.71444422 187.87138367 441.34977722 C196.72128285 439.331365 205.5728543 437.3203297 214.42478275 435.31083775 C220.67573332 433.89125166 226.92568158 432.4675123 233.1736145 431.03469849 C239.12031525 429.67100356 245.06923305 428.31743101 251.01990318 426.97116661 C253.22567279 426.47019624 255.4305966 425.96548498 257.63459206 425.45676613 C260.67332696 424.75592078 263.71482563 424.06856998 266.75732422 423.38427734 C267.63378633 423.17875024 268.51024843 422.97322313 269.41327 422.76146793 C275.14389762 421.49193311 280.94452638 420.61351727 286.8125 421.375 C289.5 423.4375 289.5 423.4375 290.8125 426.375 C290.75360206 429.79108037 290.69128121 432.2357037 288.56240845 434.99568176 C286.37172394 436.72242986 284.59251128 437.18305017 281.87646484 437.8190918 C280.82923248 438.06907425 279.78200012 438.3190567 278.70303345 438.57661438 C277.53001678 438.84394882 276.35700012 439.11128326 275.1484375 439.38671875 C273.88494476 439.68293625 272.62145203 439.97915375 271.31967163 440.28434753 C266.8218229 441.33471432 262.317641 442.35643295 257.8125 443.375 C256.96408035 443.56709297 256.11566071 443.75918594 255.24153137 443.95709991 C241.09822133 447.15667607 226.94299861 450.30242533 212.78669739 453.44392014 C202.510249 455.72546978 192.23547787 458.01456321 181.9609375 460.3046875 C180.24704834 460.68661286 180.24704834 460.68661286 178.49853516 461.07625389 C162.52346281 464.63751604 146.55749287 468.23674805 130.6015625 471.8828125 C129.6675272 472.09618193 128.7334919 472.30955135 127.7711525 472.52938652 C118.9805899 474.53804969 110.19121948 476.55182626 101.40397453 478.57495499 C98.25642085 479.29910067 95.10832773 480.02088097 91.96012497 480.74219894 C89.82852412 481.23165103 87.69778 481.72471168 85.56704712 482.21792603 C83.68776016 482.64843765 83.68776016 482.64843765 81.77050781 483.08764648 C80.14136444 483.46323952 80.14136444 483.46323952 78.47930908 483.84642029 C75.8125 484.375 75.8125 484.375 72.8125 484.375 C72.59851563 485.06851562 72.38453125 485.76203125 72.1640625 486.4765625 C70.443811 490.16565676 67.96336662 492.83634255 65.1875 495.75 C64.64843018 496.32218262 64.10936035 496.89436523 63.55395508 497.48388672 C50.11787581 511.60370021 50.11787581 511.60370021 39.98046875 512.84375 C29.51171181 512.92593847 21.90830288 511.58670836 14.1875 504.0625 C13.40375 503.175625 12.62 502.28875 11.8125 501.375 C8.62690048 502.77133107 6.57306155 504.42057493 4.1875 506.9375 C0.8034678 510.49147268 -0.98917086 511.5450481 -5.9375 511.6875 C-6.77796875 511.72488281 -7.6184375 511.76226562 -8.484375 511.80078125 C-14.74535528 510.81458638 -19.1584621 505.71854601 -23.4375 501.375 C-23.96601563 500.85421875 -24.49453125 500.3334375 -25.0390625 499.796875 C-29.22633558 495.58834673 -31.45560431 492.58888682 -31.75 486.625 C-31.67117844 481.28878038 -29.69022359 478.76033459 -26.01171875 475.06640625 C-25.40972656 474.50824219 -24.80773437 473.95007813 -24.1875 473.375 C-23.18524012 472.377265 -22.18442783 471.37806277 -21.1875 470.375 C-22.82939624 466.76911305 -24.95102696 464.30252779 -27.65234375 461.44921875 C-33.29473391 453.82553128 -33.0740851 445.3841375 -32.1875 436.375 C-29.34247773 424.42923396 -16.01855629 413.86720699 -6.1875 407.375 C-5.5275 407.375 -4.8675 407.375 -4.1875 407.375 C-4.09406311 406.81070282 -4.00062622 406.24640564 -3.90435791 405.66500854 C-2.2102832 395.89282188 0.02359594 386.24274143 2.203125 376.5703125 C2.65640906 374.55113687 3.10950817 372.5319197 3.56243896 370.51266479 C4.79995786 364.9984629 6.04037055 359.48491559 7.28137207 353.97149658 C8.3311668 349.30598832 9.37933889 344.64011611 10.42752838 339.97424698 C14.05862868 323.81149871 17.69651627 307.65028061 21.33627701 291.48948097 C21.81785993 289.35120135 22.29941968 287.2129165 22.78097534 285.07463074 C27.62468077 263.56706859 32.47158465 242.06022835 37.32115746 220.55398846 C37.81026582 218.38490804 38.29934051 216.21582004 38.78840637 214.04673004 C52.94599102 151.25642372 52.94599102 151.25642372 59.8125 121.375 C59.20233032 121.38311203 58.59216064 121.39122406 57.96350098 121.39958191 C57.15892456 121.40589127 56.35434814 121.41220062 55.52539062 121.41870117 C54.33169861 121.43086922 54.33169861 121.43086922 53.1138916 121.44328308 C31.61107992 120.80528726 16.09728115 100.86254012 2.13769531 86.94042969 C-0.07303222 84.73951453 -2.29422696 82.54951326 -4.515625 80.359375 C-5.94596863 78.93555467 -7.37567879 77.51109761 -8.8046875 76.0859375 C-9.45790985 75.44506195 -10.1111322 74.8041864 -10.78414917 74.14389038 C-16.55742897 68.34273255 -21.59624209 61.85129858 -24.5 54.125 C-24.80550781 53.33609375 -25.11101563 52.5471875 -25.42578125 51.734375 C-29.09694988 40.36316551 -27.92440356 28.22808198 -23.1875 17.375 C-17.76956283 7.67903819 -11.52519516 0.35129551 0 0 Z M77.8125 117.375 C75.70594723 122.61203104 74.63991878 128.18296127 73.41186523 133.67749023 C73.06124842 135.22891551 73.06124842 135.22891551 72.70354843 136.8116827 C71.92313837 140.26833393 71.14712442 143.72595692 70.37109375 147.18359375 C69.81458139 149.65269863 69.25779707 152.12174223 68.70075989 154.59072876 C67.50583988 159.88984076 66.31279569 165.18936947 65.12145996 170.48928833 C63.39924305 178.15090051 61.67350593 185.81171644 59.94691014 193.47234285 C56.86133918 207.16297734 53.77945799 220.85444035 50.69901466 234.54622936 C48.52368734 244.21493578 46.34750812 253.88344994 44.17041016 263.55175781 C44.02387202 264.20252678 43.87733388 264.85329575 43.7263552 265.523785 C42.14110778 272.563724 40.55568219 279.60362287 38.97019958 286.64350891 C38.41250351 289.11984195 37.85481001 291.59617556 37.29711914 294.07250977 C37.02560626 295.27809697 36.75409338 296.48368418 36.47435284 297.72580433 C34.89530412 304.73769575 33.31714319 311.74978617 31.73987484 318.76207829 C30.7560491 323.13565155 29.77168643 327.50910392 28.78735161 331.88256264 C28.0914655 334.97585618 27.39652814 338.06936176 26.70167542 341.16288757 C24.60052103 350.50795211 22.47900204 359.84741202 20.30273438 369.17529297 C19.91561182 370.84108659 19.52854543 372.50689327 19.14154053 374.17271423 C18.43403601 377.21706262 17.71764084 380.25911893 16.9956665 383.30006409 C16.68656649 384.62631836 16.37776903 385.9526432 16.06933594 387.27905273 C15.80054626 388.41704819 15.53175659 389.55504364 15.25482178 390.7275238 C14.55102044 393.34245034 14.55102044 393.34245034 15.8125 395.375 C16.88951172 394.82972656 16.88951172 394.82972656 17.98828125 394.2734375 C32.12718348 387.40647378 46.62690688 382.98396155 62.25170898 381.10693359 C67.00498986 380.41373762 70.11481723 379.50069753 73.69245911 376.2111578 C74.38206034 375.58062933 75.07166157 374.95010086 75.78215981 374.30046546 C78.78219322 371.45539509 81.74266799 368.57973762 84.65893555 365.64881897 C85.29872156 365.00988738 85.93850758 364.37095579 86.59768105 363.71266264 C88.71723702 361.59473928 90.83322515 359.47328866 92.94921875 357.35180664 C94.477258 355.82348502 96.00551808 354.29538416 97.53398132 352.76748657 C101.66578282 348.63597108 105.79450159 344.50138747 109.92266083 340.36623311 C114.2436823 336.03894524 118.56755039 331.71450362 122.89111328 327.38975525 C131.07040175 319.20736315 139.24713851 311.02242605 147.42295456 302.83656448 C156.73416294 293.5141649 166.04822311 284.19461677 175.36252022 274.87530339 C194.51568136 255.71169976 213.66527044 236.54453001 232.8125 217.375 C231.86173785 216.25799352 230.90986143 215.14193541 229.95752048 214.02627468 C229.42756491 213.40466754 228.89760934 212.78306041 228.35159451 212.14261669 C226.41317811 209.91638747 224.36648817 207.83084678 222.26342773 205.76000977 C221.41912704 204.92546768 220.57482635 204.0909256 219.7049408 203.23109436 C218.81102127 202.35174728 217.91710175 201.47240021 216.99609375 200.56640625 C215.56863263 199.1519806 214.14118062 197.73754562 212.71425724 196.32257748 C209.22579656 192.86442725 205.73241485 189.41131042 202.23168945 185.96557617 C200.25817488 184.02258122 198.28882094 182.07553792 196.32374573 180.12400818 C194.48238662 178.29570561 192.63512042 176.47332702 190.78111267 174.65785217 C186.55899089 170.45306908 183.07257812 166.50390722 180.09306335 161.35215759 C177.46920778 157.30099061 173.9526203 153.98390336 170.57421875 150.5625 C169.77579056 149.74934326 168.97736237 148.93618652 168.15473938 148.09838867 C166.46690849 146.38670569 164.77486228 144.67917017 163.07885742 142.97558594 C160.5262078 140.40142862 158.00445104 137.79942901 155.48242188 135.1953125 C141.43419129 120.91491531 127.45966175 111.13734366 106.8125 110 C97.83110304 110.42310649 85.44766966 112.46869653 77.8125 117.375 Z " fill="#010000" transform="translate(32.1875,-0.375)"/>
<path d="M0 0 C3.87922004 1.0539072 5.38339902 2.50000352 8.15843201 5.3842926 C8.6162355 5.85261002 9.074039 6.32092743 9.54571533 6.80343628 C10.53339524 7.81674197 11.51530157 8.8357011 12.49194145 9.85965157 C14.04020654 11.48128742 15.60462765 13.08563047 17.17443848 14.68640137 C21.63198697 19.23855151 26.05621313 23.82267536 30.47581482 28.41163635 C33.18471555 31.22200546 35.91056928 34.0150335 38.64686775 36.79871941 C40.18700733 38.37667221 41.70550574 39.97360543 43.22457886 41.57180786 C44.17407206 42.54034414 45.1246246 43.50784343 46.07640076 44.47413635 C47.30501076 45.74868431 47.30501076 45.74868431 48.55844116 47.04898071 C51.96580158 49.40681586 54.11865773 49.24389814 58.18211365 48.86451721 C61.02893521 48.28206561 61.02893521 48.28206561 63.7563324 47.36842346 C64.75342224 47.05711487 65.75051208 46.74580627 66.77781677 46.42506409 C67.79810974 46.09570862 68.81840271 45.76635315 69.86961365 45.42701721 C71.91498601 44.78184979 73.96055128 44.13729357 76.0063324 43.49342346 C76.90440613 43.20539856 77.80247986 42.91737366 78.72776794 42.62062073 C85.58709187 40.50748771 88.98576687 40.86451721 97.18211365 40.86451721 C97.18211365 54.06451721 97.18211365 67.26451721 97.18211365 80.86451721 C91.57211365 82.18451721 85.96211365 83.50451721 80.18211365 84.86451721 C76.68617615 86.22576721 76.68617615 86.22576721 73.11961365 87.61451721 C64.09867204 90.98178113 52.4214455 91.97262501 43.36351013 88.01539612 C32.57628599 82.32418464 23.88749646 71.94222074 15.37644958 63.42945862 C12.9343818 60.99178128 10.47672352 58.570588 8.01805115 56.14967346 C6.44155158 54.57904066 4.86599811 53.00745752 3.29148865 51.43482971 C2.56637085 50.72408295 1.84125305 50.01333618 1.09416199 49.28105164 C-7.47712977 40.63310279 -12.12270621 32.68457643 -12.20948792 20.54151917 C-12.07240541 12.61998952 -9.45097963 7.5168724 -4.88038635 1.17701721 C-2.81788635 -0.13548279 -2.81788635 -0.13548279 0 0 Z " fill="#736C76" transform="translate(32.81788635253906,15.135482788085938)"/>
<path d="M0 0 C13.2 0 26.4 0 40 0 C40 7.12969145 39.96782261 11.42959511 38.25 17.9375 C38.07243164 18.62207275 37.89486328 19.30664551 37.71191406 20.01196289 C36.40293031 24.91605098 34.75726499 29.61691644 32.734375 34.27734375 C31.60491425 38.4647594 30.87920276 41.71432366 32 46 C35.08019274 50.30361972 38.88283731 53.80904838 42.71875 57.421875 C43.81965084 58.49325859 44.91821136 59.56705177 46.01452637 60.64312744 C48.89598991 63.46209317 51.80123071 66.25507301 54.71453857 69.04107666 C59.38202525 73.50848032 64.02163874 78.00416007 68.64308167 82.51914215 C70.260634 84.08936226 71.8938334 85.6418858 73.5291748 87.19354248 C74.52070104 88.15412539 75.51165838 89.11529599 76.50195312 90.07714844 C77.80767273 91.32549469 77.80767273 91.32549469 79.13977051 92.59906006 C81 95 81 95 81.3614502 97.70172119 C80.91185798 100.56045051 80.16984031 101.32931527 77.9375 103.125 C77.36902344 103.60195313 76.80054688 104.07890625 76.21484375 104.5703125 C67.97465325 109.88937727 59.53859372 110.20884672 50 109 C37.2468884 105.25546936 26.06719144 90.28228488 16.90332031 81.14355469 C14.74729397 78.99730624 12.58081053 76.86197934 10.4140625 74.7265625 C9.02017588 73.3392019 7.62692458 71.95120264 6.234375 70.5625 C5.27794098 69.62458618 5.27794098 69.62458618 4.30218506 68.66772461 C-4.89904338 59.42107381 -9.43049773 50.79519571 -9.51293945 37.54541016 C-9.35327418 31.39167343 -7.73544054 26.12511586 -5.3984375 20.46337891 C-2.57322389 13.55169562 -1.66593076 7.77434353 0 0 Z " fill="#655D65" transform="translate(416,382)"/>
<path d="M0 0 C1.12894876 0.93274109 2.25300876 1.87140122 3.375 2.8125 C4.00148438 3.33457031 4.62796875 3.85664063 5.2734375 4.39453125 C7 6 7 6 9 9 C8.30849854 9.66008057 7.61699707 10.32016113 6.90454102 11.00024414 C4.3304586 13.46530499 1.77663158 15.95051808 -0.77172852 18.44213867 C-1.87507297 19.51540514 -2.98375524 20.58321353 -4.09790039 21.64526367 C-5.70350449 23.1776574 -7.28854879 24.72900191 -8.87109375 26.28515625 C-9.36902939 26.75212418 -9.86696503 27.2190921 -10.37998962 27.70021057 C-13.93456747 31.25128955 -14.8049752 34.02686767 -15 39 C-14.60361328 40.24136719 -14.60361328 40.24136719 -14.19921875 41.5078125 C-13.9549731 44.56327771 -14.50410635 45.04679631 -16.39453125 47.3671875 C-17.509496 48.55970777 -18.65042693 49.72833651 -19.8125 50.875 C-20.40764404 51.47070801 -21.00278809 52.06641602 -21.6159668 52.68017578 C-26.1347609 56.88463479 -26.1347609 56.88463479 -29.8125 57.375 C-32.3125 56.875 -32.3125 56.875 -34.57637519 56.22289681 C-37.02459007 55.75615084 -37.02459007 55.75615084 -38.91809207 57.15799117 C-39.5318607 57.7439589 -40.14562934 58.32992664 -40.77799702 58.93365097 C-41.47050576 59.58502391 -42.1630145 60.23639686 -42.87650836 60.90750837 C-43.5772606 61.59803061 -44.27801284 62.28855285 -45 63 C-45.65552459 63.63575093 -46.31104918 64.27150186 -46.98643816 64.92651796 C-49.09102301 66.99390798 -51.16748468 69.08661182 -53.23954773 71.18658447 C-54.02941993 71.98265791 -54.81929213 72.77873134 -55.63309985 73.59892821 C-58.26131375 76.248792 -60.88584351 78.90227513 -63.51049805 81.55566406 C-65.40159704 83.46342765 -67.29293461 85.37095106 -69.18467712 87.27807617 C-72.2029205 90.32117659 -75.22092647 93.36451051 -78.23773324 96.40903521 C-85.71157286 103.95131103 -93.19436209 111.48462616 -100.68257141 119.01263428 C-101.22541297 119.55839262 -101.76825454 120.10415096 -102.32754584 120.66644743 C-106.79461806 125.15747766 -111.26205001 129.64814999 -115.7295668 134.13873798 C-119.7451496 138.17511242 -123.76038337 142.21183369 -127.77514648 146.24902344 C-128.3473917 146.82445726 -128.91963692 147.39989109 -129.5092229 147.9927623 C-138.78563934 157.32186381 -148.04570841 166.66703943 -157.30034687 176.01773933 C-166.81831577 185.63366232 -176.35535603 195.2303696 -185.90981895 204.81003356 C-191.79409564 210.71109954 -197.66288427 216.62674107 -203.51242939 222.56224057 C-207.52371877 226.62966204 -211.55329745 230.67835954 -215.59752717 234.71302775 C-217.92713984 237.03823407 -220.2450686 239.37326603 -222.54716492 241.72576141 C-240.26883314 259.81706877 -240.26883314 259.81706877 -252 260 C-252.77105922 260.04273167 -253.54211843 260.08546333 -254.33654308 260.1294899 C-256.3125 260.1875 -256.3125 260.1875 -259 260 C-253.89951144 253.83270242 -248.33785164 248.2000309 -242.6736145 242.55335999 C-241.62464839 241.50395727 -240.57590227 240.4543346 -239.52735603 239.40451235 C-236.65855385 236.53348271 -233.78665746 233.66556608 -230.91422987 230.79816425 C-227.81228674 227.70055062 -224.71324546 224.60003614 -221.61384583 221.49987793 C-216.24788114 216.13338959 -210.88009256 210.76873123 -205.51105118 205.40532112 C-197.748377 197.65078345 -189.98847458 189.89347695 -182.22923993 182.13549786 C-169.63948317 169.54792824 -157.04749614 156.96259214 -144.45410156 144.37866211 C-132.22278495 132.15652836 -119.99252194 119.93334191 -107.76367188 107.70874023 C-107.00953833 106.95486942 -106.25540479 106.2009986 -105.47841872 105.42428321 C-101.69505529 101.64222484 -97.91171254 97.86014579 -94.12838006 94.07805645 C-62.75545848 62.71549695 -31.37891514 31.35656274 0 0 Z " fill="#E09068" transform="translate(276,227)"/>
<path d="M0 0 C26.60556194 2.21713016 49.33176061 13.48660254 67.1875 33.5625 C69.85171669 36.33225071 69.85171669 36.33225071 73.6875 36.4375 C76.99420804 36.10708963 76.99420804 36.10708963 80 35 C84.62 39.62 89.24 44.24 94 49 C93.505 49.99 93.505 49.99 93 51 C92.50652204 54.18019132 92.23100928 55.95585742 93 59 C95.35690192 62.04282743 98.05723515 64.5301795 101 67 C99.43904931 70.73806611 97.12570854 73.13242541 94.28125 75.984375 C92.88326172 77.38623047 92.88326172 77.38623047 91.45703125 78.81640625 C90.97186035 79.2973877 90.48668945 79.77836914 89.98681641 80.27392578 C88.49793661 81.75204848 87.02008349 83.24059911 85.54296875 84.73046875 C84.61097656 85.65988281 83.67898437 86.58929688 82.71875 87.546875 C81.86216797 88.40120117 81.00558594 89.25552734 80.12304688 90.13574219 C78 92 78 92 76 92 C74.80078125 90.77734375 74.80078125 90.77734375 73.3125 88.9375 C67.83336884 82.47374696 61.70544106 76.62581315 55.68676758 70.67114258 C54.23564349 69.23346066 52.79101164 67.7892311 51.34765625 66.34375 C36.09547413 51.11694589 21.38805182 43.27761036 0 39 C0 26.13 0 13.26 0 0 Z " fill="#E2916A" transform="translate(145,56)"/>
<path d="M0 0 C3.31465695 1.44808498 5.51588078 3.25825289 8.07495117 5.80029297 C9.26220039 6.97324417 9.26220039 6.97324417 10.47343445 8.16989136 C11.32138077 9.01874908 12.16932709 9.86760681 13.04296875 10.7421875 C13.92600174 11.62093536 14.80903473 12.49968323 15.71882629 13.40505981 C17.58997762 15.27046474 19.45883337 17.1378895 21.32446289 19.00878906 C24.14869182 21.8398811 26.9897185 24.65384118 29.83007812 27.46875 C47.83456976 45.4096166 66.49497232 66.39487839 69 93 C69 95.64 69 98.28 69 101 C56.13 101 43.26 101 30 101 C29.34 98.03 28.68 95.06 28 92 C22.17659022 68.92715367 7.6120932 54.45930374 -8.625 38.1875 C-9.21769684 37.59353424 -9.81039368 36.99956848 -10.42105103 36.38760376 C-12.12339856 34.68566813 -13.83012059 32.98828051 -15.5390625 31.29296875 C-16.05942581 30.77382904 -16.57978912 30.25468933 -17.11592102 29.71981812 C-19.80748633 27.02623298 -19.80748633 27.02623298 -23 25 C-21.43717018 21.23396131 -19.0936525 18.86360849 -16.2109375 16.015625 C-15.74765045 15.55516785 -15.2843634 15.09471069 -14.80703735 14.62030029 C-13.33434102 13.15874922 -11.85482597 11.70432832 -10.375 10.25 C-9.37193678 9.25697389 -8.36932743 8.26348911 -7.3671875 7.26953125 C-4.91669165 4.84102059 -2.4600333 2.41885325 0 0 Z " fill="#DE7B46" transform="translate(387,266)"/>
<path d="M0 0 C1.65 0 3.3 0 5 0 C4.855625 0.60585938 4.71125 1.21171875 4.5625 1.8359375 C2.54262641 10.95342245 1.47705613 19.50939452 6 28 C10.41433241 34.34206775 15.58387293 39.8491559 21.0859375 45.24609375 C22.19952133 46.35187523 22.19952133 46.35187523 23.33560181 47.47999573 C25.67728616 49.80405152 28.02563325 52.12121272 30.375 54.4375 C32.74484074 56.77970621 35.11318041 59.12338344 37.47866821 61.46998596 C38.94383688 62.922906 40.41167059 64.37314446 41.88241577 65.82041931 C42.54045197 66.47192459 43.19848816 67.12342987 43.87646484 67.79467773 C44.45713715 68.36709702 45.03780945 68.9395163 45.63607788 69.52928162 C48.51864041 72.63755125 48.34357716 75.63139789 48.265625 79.69140625 C47.73446911 84.30777584 45.42006277 86.84752368 41.90625 89.69921875 C36.27336207 93.72673362 36.27336207 93.72673362 32.79638672 94.47290039 C28.32911643 93.71743483 26.02607079 90.69965854 22.94140625 87.53515625 C22.27463364 86.86842392 21.60786102 86.20169159 20.92088318 85.51475525 C19.51052061 84.09903036 18.10628354 82.67718072 16.70776367 81.24975586 C14.58757012 79.08806085 12.44721897 76.94811617 10.30273438 74.81054688 C8.93102881 73.42833545 7.56054709 72.04490819 6.19140625 70.66015625 C5.24425499 69.71270287 5.24425499 69.71270287 4.27796936 68.74610901 C-4.83456624 59.39353196 -9.43027486 50.83101389 -9.51293945 37.54541016 C-9.33090846 30.52966524 -7.06877524 24.61855392 -4.53515625 18.15234375 C-2.26042927 12.27285817 -1.11913473 6.19450888 0 0 Z " fill="#736C76" transform="translate(416,382)"/>
<path d="M0 0 C2.33932412 0.96082909 3.51267299 2.01253114 5.23217773 3.85913086 C5.81523682 4.48094238 6.3982959 5.10275391 6.99902344 5.7434082 C7.60576904 6.41194824 8.21251465 7.08048828 8.83764648 7.76928711 C9.46566162 8.45587402 10.09367676 9.14246094 10.74072266 9.84985352 C22.78876489 23.18993199 31.39897881 38.45369612 36.02514648 55.83178711 C36.36674805 56.73541992 36.70834961 57.63905273 37.06030273 58.57006836 C39.44511842 66.63209711 39.16000018 75.11941501 39.08764648 83.45678711 C39.08313477 84.4609668 39.07862305 85.46514648 39.07397461 86.49975586 C39.06233615 88.94383182 39.04598888 91.38777531 39.02514648 93.83178711 C36.69219873 93.87420434 34.35812082 93.87271648 32.02514648 93.83178711 C30.17357266 91.98021328 30.35470438 88.75924421 29.96264648 86.26928711 C27.817812 74.40292917 22.01844457 62.86845817 14.02514648 53.83178711 C13.27749023 52.97713867 12.52983398 52.12249023 11.75952148 51.24194336 C1.68937585 39.97279299 -9.24628783 29.4672726 -19.97485352 18.83178711 C-16.06945665 14.19467147 -12.07723195 9.67809435 -7.84985352 5.33178711 C-7.3380957 4.78264648 -6.82633789 4.23350586 -6.29907227 3.66772461 C-2.5056847 -0.21342771 -2.5056847 -0.21342771 0 0 Z " fill="#E3926A" transform="translate(384.974853515625,272.168212890625)"/>
<path d="M0 0 C13.25065212 4.81841895 24.13235413 14.64107693 33.62109375 24.80859375 C35.9105264 27.35605409 35.9105264 27.35605409 39.625 27.375 C42.98690443 27.12077024 42.98690443 27.12077024 46 26 C52.93 32.93 52.93 32.93 60 40 C59.505 40.99 59.505 40.99 59 42 C58.50652204 45.18019132 58.23100928 46.95585742 59 50 C61.35690192 53.04282743 64.05723515 55.5301795 67 58 C65.43904931 61.73806611 63.12570854 64.13242541 60.28125 66.984375 C58.88326172 68.38623047 58.88326172 68.38623047 57.45703125 69.81640625 C56.97186035 70.2973877 56.48668945 70.77836914 55.98681641 71.27392578 C54.49793661 72.75204848 53.02008349 74.24059911 51.54296875 75.73046875 C50.61097656 76.65988281 49.67898437 77.58929688 48.71875 78.546875 C47.86216797 79.40120117 47.00558594 80.25552734 46.12304688 81.13574219 C44 83 44 83 42 83 C40.80078125 81.77734375 40.80078125 81.77734375 39.3125 79.9375 C33.77846534 73.40262929 27.57678248 67.49338136 21.49291992 61.47705078 C20.32506479 60.32160948 19.16166479 59.16166479 18 58 C18.39832031 57.57589844 18.79664063 57.15179688 19.20703125 56.71484375 C24.71147813 50.62111302 27.71890065 44.97523312 27.40234375 36.60546875 C25.95078253 27.20555286 19.41115777 20.54240982 13 14 C12.10925781 13.0821875 11.21851563 12.164375 10.30078125 11.21875 C5.46262582 6.23903713 5.46262582 6.23903713 0 2 C0 1.34 0 0.68 0 0 Z " fill="#DF7B46" transform="translate(179,65)"/>
<path d="M0 0 C-1.94906371 7.29406364 -4.03067448 14.53385832 -6.25 21.75 C-6.86857098 23.77080842 -7.48705814 25.7916425 -8.10546875 27.8125 C-8.41919434 28.83601563 -8.73291992 29.85953125 -9.05615234 30.9140625 C-9.97567982 33.92048447 -10.88942893 36.92859074 -11.80078125 39.9375 C-15.45102518 51.98521715 -19.17905571 64.00531407 -23 76 C-25.27141109 75.88597936 -27.54214552 75.75841495 -29.8125 75.625 C-31.07707031 75.55539063 -32.34164062 75.48578125 -33.64453125 75.4140625 C-37 75 -37 75 -40 73 C-39.10796875 72.16597656 -38.2159375 71.33195312 -37.296875 70.47265625 C-28.84742019 62.42304064 -23.05532099 56.6317577 -22.4375 44.5 C-22.66111773 38.32526529 -23.90217749 33.70563351 -28 29 C-33.37848331 24.64698627 -38.26201396 22.84176053 -45.1875 22.6875 C-46.27417969 22.65011719 -47.36085938 22.61273438 -48.48046875 22.57421875 C-56.5181095 23.54658594 -61.57193752 28.012442 -66.9375 33.75 C-68.94406405 35.84869073 -70.96321894 37.93031939 -73 40 C-73.33 40 -73.66 40 -74 40 C-74.34018163 38.29301718 -74.6718089 36.58432867 -75 34.875 C-75.185625 33.92367187 -75.37125 32.97234375 -75.5625 31.9921875 C-76.00725046 28.95041204 -76.07286471 26.06942607 -76 23 C-64.89815418 19.22854391 -53.78925666 15.56689808 -42.5234375 12.31640625 C-37.0825896 10.74414135 -31.66697916 9.08978996 -26.25 7.4375 C-25.26765381 7.13835693 -24.28530762 6.83921387 -23.27319336 6.53100586 C-19.08347058 5.25341431 -14.89541738 3.97131005 -10.71484375 2.6640625 C-9.55082031 2.30054688 -8.38679688 1.93703125 -7.1875 1.5625 C-6.21167969 1.25441406 -5.23585938 0.94632813 -4.23046875 0.62890625 C-2 0 -2 0 0 0 Z " fill="#AAA5AF" transform="translate(466,46)"/>
<path d="M0 0 C-19.47 19.47 -38.94 38.94 -59 59 C-64.02298111 56.48850944 -67.20061785 53.39814646 -69 48 C-69.43079976 43.43352258 -69.27706311 40.35628075 -66.421875 36.640625 C-65.95265625 36.09921875 -65.4834375 35.5578125 -65 35 C-64.44828125 34.35546875 -63.8965625 33.7109375 -63.328125 33.046875 C-51.42085233 20.21655793 -18.64669075 -4.66167269 0 0 Z " fill="#D8558C" transform="translate(84,399)"/>
<path d="M0 0 C5.25174926 4.38442526 10.13222473 9.00842093 14.9375 13.875 C15.62134766 14.56335938 16.30519531 15.25171875 17.00976562 15.9609375 C18.67551464 17.63833511 20.3388622 19.31803791 22 21 C20.39626852 25.00517396 17.57886014 27.6771098 14.5546875 30.640625 C14.02481232 31.16767029 13.49493713 31.69471558 12.94900513 32.23773193 C11.26232175 33.91325675 9.56880436 35.58167722 7.875 37.25 C6.72740612 38.38755851 5.58026539 39.52557436 4.43359375 40.6640625 C1.62761863 43.44803465 -1.18450464 46.2256576 -4 49 C-7.53816053 47.48968674 -9.83366147 45.42406644 -12.546875 42.71875 C-13.39121094 41.87699219 -14.23554688 41.03523438 -15.10546875 40.16796875 C-15.97816406 39.28753906 -16.85085938 38.40710938 -17.75 37.5 C-18.63816406 36.61957031 -19.52632813 35.73914063 -20.44140625 34.83203125 C-21.28058594 33.99027344 -22.11976563 33.14851563 -22.984375 32.28125 C-23.75491211 31.50845703 -24.52544922 30.73566406 -25.31933594 29.93945312 C-27 28 -27 28 -27 26 C-25.6015625 24.62280273 -25.6015625 24.62280273 -23.625 22.99609375 C-18.47566603 18.61757057 -13.75318068 13.86313947 -9 9.0625 C-8.12988281 8.18787109 -7.25976562 7.31324219 -6.36328125 6.41210938 C-4.23986451 4.27702551 -2.11883622 2.13962795 0 0 Z " fill="#EEEEF1" transform="translate(291,166)"/>
<path d="M0 0 C3.56764285 1.51376081 5.83706287 3.60513129 8.546875 6.3515625 C9.81337891 7.62773437 9.81337891 7.62773437 11.10546875 8.9296875 C12.41451172 10.26386719 12.41451172 10.26386719 13.75 11.625 C14.63816406 12.5221875 15.52632813 13.419375 16.44140625 14.34375 C18.63216969 16.55807004 20.81812763 18.77692435 23 21 C17.75541414 27.36590304 11.97902678 33.13570612 6.125 38.9375 C5.14039081 39.91708237 4.156014 40.89689837 3.171875 41.87695312 C0.78351797 44.25360252 -1.60715212 46.62787356 -4 49 C-9.25174926 44.61557474 -14.13222473 39.99157907 -18.9375 35.125 C-19.62134766 34.43664062 -20.30519531 33.74828125 -21.00976562 33.0390625 C-22.67551464 31.36166489 -24.3388622 29.68196209 -26 28 C-24.39626852 23.99482604 -21.57886014 21.3228902 -18.5546875 18.359375 C-17.75987473 17.56880707 -17.75987473 17.56880707 -16.94900513 16.76226807 C-15.26232175 15.08674325 -13.56880436 13.41832278 -11.875 11.75 C-10.72740612 10.61244149 -9.58026539 9.47442564 -8.43359375 8.3359375 C-5.62761863 5.55196535 -2.81549536 2.7743424 0 0 Z " fill="#DDDBE0" transform="translate(356,232)"/>
<path d="M0 0 C3.56764285 1.51376081 5.83706287 3.60513129 8.546875 6.3515625 C9.81337891 7.62773437 9.81337891 7.62773437 11.10546875 8.9296875 C12.41451172 10.26386719 12.41451172 10.26386719 13.75 11.625 C14.63816406 12.5221875 15.52632813 13.419375 16.44140625 14.34375 C18.63216969 16.55807004 20.81812763 18.77692435 23 21 C17.75541414 27.36590304 11.97902678 33.13570612 6.125 38.9375 C5.14039081 39.91708237 4.156014 40.89689837 3.171875 41.87695312 C0.78351797 44.25360252 -1.60715212 46.62787356 -4 49 C-9.25174926 44.61557474 -14.13222473 39.99157907 -18.9375 35.125 C-19.62134766 34.43664062 -20.30519531 33.74828125 -21.00976562 33.0390625 C-22.67551464 31.36166489 -24.3388622 29.68196209 -26 28 C-24.39626852 23.99482604 -21.57886014 21.3228902 -18.5546875 18.359375 C-17.75987473 17.56880707 -17.75987473 17.56880707 -16.94900513 16.76226807 C-15.26232175 15.08674325 -13.56880436 13.41832278 -11.875 11.75 C-10.72740612 10.61244149 -9.58026539 9.47442564 -8.43359375 8.3359375 C-5.62761863 5.55196535 -2.81549536 2.7743424 0 0 Z " fill="#EFEFF2" transform="translate(323,199)"/>
<path d="M0 0 C5.25174926 4.38442526 10.13222473 9.00842093 14.9375 13.875 C15.62134766 14.56335938 16.30519531 15.25171875 17.00976562 15.9609375 C18.67551464 17.63833511 20.3388622 19.31803791 22 21 C20.39626852 25.00517396 17.57886014 27.6771098 14.5546875 30.640625 C14.02481232 31.16767029 13.49493713 31.69471558 12.94900513 32.23773193 C11.26232175 33.91325675 9.56880436 35.58167722 7.875 37.25 C6.72740612 38.38755851 5.58026539 39.52557436 4.43359375 40.6640625 C1.62761863 43.44803465 -1.18450464 46.2256576 -4 49 C-7.56764285 47.48623919 -9.83706287 45.39486871 -12.546875 42.6484375 C-13.39121094 41.79765625 -14.23554688 40.946875 -15.10546875 40.0703125 C-15.97816406 39.18085938 -16.85085937 38.29140625 -17.75 37.375 C-19.08224609 36.02921875 -19.08224609 36.02921875 -20.44140625 34.65625 C-22.63216969 32.44192996 -24.81812763 30.22307565 -27 28 C-21.75541414 21.63409696 -15.97902678 15.86429388 -10.125 10.0625 C-9.14039081 9.08291763 -8.156014 8.10310163 -7.171875 7.12304688 C-4.78351797 4.74639748 -2.39284788 2.37212644 0 0 Z " fill="#EFEFF2" transform="translate(258,133)"/>
<path d="M0 0 C2.5 1.5 2.5 1.5 4 4 C4.60801116 7.31642453 4.85017461 8.86567175 4 12 C2.68711853 13.87609863 2.68711853 13.87609863 0.96459961 15.75195312 C0.32859833 16.44716064 -0.30740295 17.14236816 -0.962677 17.85864258 C-4.29825521 21.36454968 -7.68682929 24.80953604 -11.12109375 28.21875 C-11.86585464 28.96209595 -12.61061554 29.70544189 -13.37794495 30.47131348 C-15.72876745 32.81659301 -18.08306431 35.15834836 -20.4375 37.5 C-22.04385199 39.10132961 -23.64997397 40.70288998 -25.25585938 42.3046875 C-29.16791985 46.20579473 -33.08282952 50.1040242 -37 54 C-40.63303084 52.30413874 -42.94549046 50.26199512 -45.75 47.375 C-46.54921875 46.55773437 -47.3484375 45.74046875 -48.171875 44.8984375 C-48.77515625 44.27195313 -49.3784375 43.64546875 -50 43 C-48.57102826 39.74286331 -46.82743513 37.57913106 -44.31640625 35.07348633 C-43.56222412 34.31622757 -42.80804199 33.55896881 -42.03100586 32.77876282 C-40.80909546 31.56763069 -40.80909546 31.56763069 -39.5625 30.33203125 C-38.72662354 29.49661301 -37.89074707 28.66119476 -37.02954102 27.80046082 C-35.26327 26.03720901 -33.49457106 24.27638644 -31.72363281 22.51782227 C-29.00528363 19.81774811 -26.29504007 17.10973903 -23.5859375 14.40039062 C-21.87026333 12.68963102 -20.154133 10.97932874 -18.4375 9.26953125 C-17.62289307 8.45603714 -16.80828613 7.64254303 -15.96899414 6.80439758 C-15.21481201 6.05659531 -14.46062988 5.30879303 -13.68359375 4.53833008 C-13.01900146 3.87754959 -12.35440918 3.2167691 -11.66967773 2.53596497 C-8.23376121 -0.62479312 -4.46538951 -0.60891675 0 0 Z " fill="#C0BBC2" transform="translate(425,83)"/>
<path d="M0 0 C3.90432869 1.95216435 6.03839944 3.87386607 9 7 C7.585437 10.19910443 5.88709979 12.37866392 3.43994141 14.86645508 C2.71223541 15.61014847 1.98452942 16.35384186 1.23477173 17.12007141 C0.44831268 17.91189316 -0.33814636 18.7037149 -1.1484375 19.51953125 C-2.36184311 20.74647957 -2.36184311 20.74647957 -3.59976196 21.99821472 C-5.31018352 23.72313312 -7.0234218 25.44526237 -8.73925781 27.16479492 C-11.3702795 29.80775807 -13.98207755 32.46879226 -16.59375 35.13085938 C-18.25666101 36.8032291 -19.92068614 38.4744919 -21.5859375 40.14453125 C-22.75955338 41.3474456 -22.75955338 41.3474456 -23.95687866 42.57466125 C-24.69088898 43.30259384 -25.42489929 44.03052643 -26.18115234 44.78051758 C-26.82353851 45.4279744 -27.46592468 46.07543121 -28.1277771 46.74250793 C-29.05452744 47.36496651 -29.05452744 47.36496651 -30 48 C-34 47 -34 47 -40 40 C-26.8 26.8 -13.6 13.6 0 0 Z " fill="#DE8F68" transform="translate(365,138)"/>
<path d="M0 0 C2.82470028 8.47410084 -4.91867389 20.49035048 -8.5 28.0625 C-8.97469727 29.0740918 -9.44939453 30.08568359 -9.93847656 31.12792969 C-10.4022168 32.08731445 -10.86595703 33.04669922 -11.34375 34.03515625 C-11.75818359 34.8950415 -12.17261719 35.75492676 -12.59960938 36.64086914 C-14.82921571 40.39691621 -16.71115842 42.54399199 -20.88500977 44.02075195 C-22.52167603 44.37592896 -22.52167603 44.37592896 -24.19140625 44.73828125 C-25.38314453 45.00060547 -26.57488281 45.26292969 -27.80273438 45.53320312 C-29.04345703 45.79037109 -30.28417969 46.04753906 -31.5625 46.3125 C-33.42938477 46.72725586 -33.42938477 46.72725586 -35.33398438 47.15039062 C-44.58408852 49.13863716 -44.58408852 49.13863716 -48 48 C-32.16 32.16 -16.32 16.32 0 0 Z " fill="#D33679" transform="translate(113,428)"/>
<path d="M0 0 C3.56764285 1.51376081 5.83706287 3.60513129 8.546875 6.3515625 C9.81337891 7.62773437 9.81337891 7.62773437 11.10546875 8.9296875 C12.41451172 10.26386719 12.41451172 10.26386719 13.75 11.625 C14.63816406 12.5221875 15.52632813 13.419375 16.44140625 14.34375 C18.63216969 16.55807004 20.81812763 18.77692435 23 21 C21.35 22.98 19.7 24.96 18 27 C15.4521037 24.55401955 13.11037822 21.98979532 10.8125 19.3125 C6.76894228 14.64482794 2.40954279 10.31955212 -2 6 C-7.43733055 10.52991796 -12.46458931 15.34294216 -17.4375 20.375 C-18.16904297 21.11105469 -18.90058594 21.84710938 -19.65429688 22.60546875 C-21.43852723 24.40136074 -23.22036124 26.19955985 -25 28 C-25 25 -25 25 -22.70507812 22.36450195 C-21.6548023 21.3147016 -20.59625766 20.27313331 -19.53125 19.23828125 C-18.97634888 18.68762497 -18.42144775 18.13696869 -17.84973145 17.56962585 C-16.07339313 15.81009875 -14.2869152 14.06127835 -12.5 12.3125 C-11.29489115 11.12243479 -10.09045517 9.93168777 -8.88671875 8.74023438 C-5.93223292 5.81885021 -2.96861031 2.90702744 0 0 Z " fill="#DCDBDF" transform="translate(323,199)"/>
<path d="M0 0 C5.25174926 4.38442526 10.13222473 9.00842093 14.9375 13.875 C15.62134766 14.56335938 16.30519531 15.25171875 17.00976562 15.9609375 C18.67551464 17.63833511 20.3388622 19.31803791 22 21 C21.34 22.32 20.68 23.64 20 25 C16 25 16 25 13.89355469 23.34765625 C13.16040039 22.59355469 12.42724609 21.83945313 11.671875 21.0625 C10.87265625 20.25039062 10.0734375 19.43828125 9.25 18.6015625 C8.425 17.74304688 7.6 16.88453125 6.75 16 C5.90953125 15.14148438 5.0690625 14.28296875 4.203125 13.3984375 C2.12618496 11.27429428 0.05912777 9.14139163 -2 7 C-5.43367006 8.47751277 -7.64318259 10.40985825 -10.2578125 13.0625 C-11.04800781 13.85914063 -11.83820313 14.65578125 -12.65234375 15.4765625 C-13.46832031 16.30929688 -14.28429687 17.14203125 -15.125 18 C-15.94871094 18.83273438 -16.77242187 19.66546875 -17.62109375 20.5234375 C-19.14436494 22.06416024 -20.66557702 23.60692335 -22.18408203 25.15234375 C-23.45024257 26.44063401 -24.72272668 27.72272668 -26 29 C-26 26 -26 26 -23.61328125 23.27270508 C-22.52068881 22.18058824 -21.4198246 21.09670796 -20.3125 20.01953125 C-19.44685425 19.16025276 -19.44685425 19.16025276 -18.5637207 18.28361511 C-16.71605624 16.45276435 -14.85824193 14.63260815 -13 12.8125 C-11.74671407 11.57425738 -10.49410099 10.33533332 -9.2421875 9.09570312 C-6.16921472 6.05583532 -3.08709758 3.02551984 0 0 Z " fill="#DDDCE0" transform="translate(258,133)"/>
<path d="M0 0 C5.25174926 4.38442526 10.13222473 9.00842093 14.9375 13.875 C15.62134766 14.56335938 16.30519531 15.25171875 17.00976562 15.9609375 C18.67551464 17.63833511 20.3388622 19.31803791 22 21 C20.63016497 24.16115776 20.0109362 24.9927092 17 27 C16.65710938 26.58492187 16.31421875 26.16984375 15.9609375 25.7421875 C9.73705087 18.41455743 2.8349838 11.749665 -4 5 C-2.68 3.35 -1.36 1.7 0 0 Z " fill="#DCDADF" transform="translate(291,166)"/>
<path d="M0 0 C-1.12279462 0.98169476 -2.24831473 1.96027298 -3.375 2.9375 C-4.31472656 3.75541016 -4.31472656 3.75541016 -5.2734375 4.58984375 C-8.88953366 7.54326165 -12.50490962 7.38199385 -17 7 C-19.5 6 -19.5 6 -21 5 C-21 4.34 -21 3.68 -21 3 C-17.87735751 2.30147903 -14.75159876 1.6180743 -11.625 0.9375 C-10.73554687 0.73833984 -9.84609375 0.53917969 -8.9296875 0.33398438 C-8.07890625 0.15029297 -7.228125 -0.03339844 -6.3515625 -0.22265625 C-5.56604004 -0.39547119 -4.78051758 -0.56828613 -3.97119141 -0.74633789 C-2 -1 -2 -1 0 0 Z " fill="#C73372" transform="translate(81,490)"/>
</svg>
