<?xml version="1.0" encoding="UTF-8"?>
<svg version="1.1" xmlns="http://www.w3.org/2000/svg" width="512" height="512">
<path d="M0 0 C3.57623788 1.9137306 5.69762236 4.09286708 7 8 C7.39733118 12.21171055 7.53537109 14.26402853 5.00488281 17.74267578 C2.6461788 21.57485173 2.47934048 24.45322486 2.609375 28.8046875 C2.61786469 29.8906572 2.61786469 29.8906572 2.62652588 30.99856567 C2.64876333 33.29140788 2.69893013 35.58263716 2.75 37.875 C2.77008159 39.43747729 2.78832945 40.99997929 2.8046875 42.5625 C2.84517166 46.37610816 2.92347025 50.18626761 3 54 C9.6 56.64 16.2 59.28 23 62 C25.64 59.69 28.28 57.38 31 55 C53.0429967 39.90678084 80.17151737 35.00506933 106.30200195 39.59155273 C124.01372368 43.00720867 139.3582616 50.24711768 153 62 C159.27 59.36 165.54 56.72 172 54 C172.06893707 49.23057574 172.12864755 44.46288522 172.16479492 39.69335938 C172.17986565 38.07155494 172.20032593 36.44979116 172.22631836 34.828125 C172.26277829 32.49468954 172.27974314 30.16179369 172.29296875 27.828125 C172.30845261 27.10506165 172.32393646 26.38199829 172.33988953 25.63702393 C172.34130103 21.39862259 171.89114324 19.1228216 169 16 C167.44105611 11.56300584 168.27651408 8.3087148 170 4 C172.25537578 1.25126077 173.85295741 0.18299857 177.375 -0.37890625 C181.59864471 -0.573747 184.27222052 -0.40937596 188 1.6875 C190.62230502 4.71954018 192.04140035 6.88858203 191.9609375 10.9921875 C191.59778284 14.66408461 191.06477788 16.90283318 189 20 C188.69484795 21.96820436 188.69484795 21.96820436 188.72875977 24.13256836 C188.71857315 24.96030258 188.70838654 25.7880368 188.69789124 26.64085388 C188.69575119 27.53152054 188.69361115 28.42218719 188.69140625 29.33984375 C188.66624954 31.22591459 188.64085147 33.11198223 188.61523438 34.99804688 C188.58647005 37.97159011 188.56245222 40.94507774 188.54370117 43.91870117 C188.52206265 46.78854006 188.48262772 49.65772918 188.44140625 52.52734375 C188.44129044 53.41598618 188.44117462 54.3046286 188.4410553 55.22019958 C188.34323612 61.31345919 188.34323612 61.31345919 186.77783203 64.44458008 C184.6614081 66.29623304 182.71430812 67.28743665 180.11328125 68.359375 C179.17548828 68.75253906 178.23769531 69.14570313 177.27148438 69.55078125 C176.29501953 69.94652344 175.31855469 70.34226562 174.3125 70.75 C173.32443359 71.16121094 172.33636719 71.57242188 171.31835938 71.99609375 C168.88301336 73.00788002 166.44372917 74.00867291 164 75 C164.39832031 75.84820312 164.79664063 76.69640625 165.20703125 77.5703125 C170.15566468 88.52714078 173.08888092 98.89504182 173 111 C178.05419674 110.93109298 183.10756854 110.8431126 188.16113281 110.73754883 C189.87978965 110.70432319 191.59855499 110.67628384 193.31738281 110.65356445 C195.79018323 110.61997439 198.26199156 110.56765822 200.734375 110.51171875 C201.50118591 110.50532883 202.26799683 110.4989389 203.05804443 110.49235535 C207.39081764 110.3733128 209.77396698 109.90594569 213 107 C218.60298813 105.5199654 221.98450287 106.10644396 227 109 C230.05525735 112.4494841 230.4872472 115.6158694 230.27734375 120.07421875 C229.84355559 123.0862971 229.01999021 124.71936589 227 127 C221.98450287 129.89355604 218.60298813 130.4800346 213 129 C212.4421582 128.49750732 211.88431641 127.99501465 211.30957031 127.47729492 C207.94324196 125.32405466 204.61017619 125.52057874 200.734375 125.48828125 C199.94097717 125.47033005 199.14757935 125.45237885 198.33013916 125.43388367 C195.80347969 125.37983074 193.27700856 125.34590188 190.75 125.3125 C189.03382799 125.2793224 187.31768081 125.24483233 185.6015625 125.20898438 C181.40117768 125.12410745 177.20084823 125.05727279 173 125 C172.96559814 125.54712646 172.93119629 126.09425293 172.89575195 126.65795898 C172.03884599 139.38135185 170.14406713 150.93159077 166 163 C167.258125 163.391875 168.51625 163.78375 169.8125 164.1875 C184.80611376 169.20917064 184.80611376 169.20917064 188 174 C188.25828552 175.91487122 188.25828552 175.91487122 188.27124023 178.10083008 C188.28652016 179.33274834 188.28652016 179.33274834 188.30210876 180.58955383 C188.30424881 181.47394638 188.30638885 182.35833893 188.30859375 183.26953125 C188.33375885 185.14648741 188.35915679 187.02344046 188.38476562 188.90039062 C188.41347703 191.85619262 188.43749644 194.81194048 188.45629883 197.76782227 C188.47800914 200.62284697 188.51745846 203.47722988 188.55859375 206.33203125 C188.55876747 207.64951103 188.55876747 207.64951103 188.5589447 208.99360657 C188.64136061 214.12644716 189.3413011 217.47156214 192 222 C192.42506458 226.27383116 191.40893486 229.38000199 189.0625 232.9375 C186.08639047 235.91360953 184.29819412 236.19540377 180.1875 236.3125 C176.75966284 236.25808989 175.12189494 236.06094747 172 234.5 C169.34559052 231.18198815 168.15064474 228.2656248 168 224 C168.75009171 221.05603103 169.80682623 218.19317377 172 216 C172.08847743 213.47905924 172.11527301 210.98569107 172.09765625 208.46484375 C172.0962413 207.71159317 172.09482635 206.95834259 172.09336853 206.18226624 C172.08775376 203.7673044 172.07519883 201.35243399 172.0625 198.9375 C172.0574869 197.30403779 172.05292366 195.67057414 172.04882812 194.03710938 C172.03777954 190.02470415 172.02050506 186.01236759 172 182 C169.77916946 180.93616507 167.55143781 179.89940911 165.3125 178.875 C164.68666016 178.57207031 164.06082031 178.26914062 163.41601562 177.95703125 C160.3276435 176.56645532 158.53393481 175.86521311 155.19921875 176.70703125 C145.53491488 182.38888663 139.96427812 190.12502657 136.9296875 200.74609375 C135.69829938 205.86787619 135.33171542 211.04548209 134.96484375 216.2890625 C134.34524462 223.09296243 132.46173236 228.71410566 127.375 233.4375 C123.27304046 236.13615759 120.81232249 236.10738475 115.875 236.0625 C114.59367188 236.05347656 113.31234375 236.04445313 111.9921875 236.03515625 C110.51105469 236.01775391 110.51105469 236.01775391 109 236 C108.99413376 235.40531418 108.98826752 234.81062836 108.98222351 234.19792175 C108.91836878 228.01729245 108.83397007 221.8371877 108.73754883 215.65698242 C108.70426144 213.34943551 108.67624151 211.04180643 108.65356445 208.73413086 C108.62008892 205.42005338 108.56777602 202.10673155 108.51171875 198.79296875 C108.50213387 197.24128242 108.50213387 197.24128242 108.49235535 195.6582489 C108.47256119 194.6974794 108.45276703 193.7367099 108.43237305 192.74682617 C108.42126999 191.90077316 108.41016693 191.05472015 108.39872742 190.18302917 C107.91129873 187.51436129 107.14376697 186.61933482 105 185 C102.5 184.41666667 102.5 184.41666667 100 185 C97.29663334 187.86943282 96.62002735 189.86996496 96.56762695 193.76855469 C96.53793571 195.17956451 96.53793571 195.17956451 96.50764465 196.61907959 C96.50125473 197.62650208 96.49486481 198.63392456 96.48828125 199.671875 C96.47033005 200.70942932 96.45237885 201.74698364 96.43388367 202.815979 C96.37973623 206.1272781 96.34587015 209.43843267 96.3125 212.75 C96.27933091 214.99611388 96.24484164 217.24220868 96.20898438 219.48828125 C96.1240069 224.99208331 96.05721644 230.49584216 96 236 C90.39 236 84.78 236 79 236 C78.97812622 233.84247192 78.97812622 233.84247192 78.95581055 231.64135742 C78.89790839 226.31297746 78.82067493 220.98502369 78.73754883 215.65698242 C78.70426144 213.34943551 78.67624151 211.04180643 78.65356445 208.73413086 C78.62008892 205.42005338 78.56777602 202.10673155 78.51171875 198.79296875 C78.50213387 197.24128242 78.50213387 197.24128242 78.49235535 195.6582489 C78.47256119 194.6974794 78.45276703 193.7367099 78.43237305 192.74682617 C78.42126999 191.90077316 78.41016693 191.05472015 78.39872742 190.18302917 C77.90971891 187.50571182 77.20409201 186.5691503 75 185 C71.16733708 185.14090084 71.16733708 185.14090084 68 187 C67.8774645 188.53382679 67.82222062 190.07310519 67.79467773 191.61157227 C67.77473251 192.59251358 67.75478729 193.5734549 67.73423767 194.5841217 C67.71752518 195.6507756 67.70081268 196.7174295 67.68359375 197.81640625 C67.6524221 199.44569313 67.6524221 199.44569313 67.62062073 201.1078949 C67.55500558 204.59269627 67.49618489 208.07757568 67.4375 211.5625 C67.39432615 213.91862801 67.35071224 216.27474799 67.30664062 218.63085938 C67.19931208 224.42048937 67.09756835 230.21019775 67 236 C64.75276673 236.04231192 62.50530385 236.07255023 60.2578125 236.09765625 C59.00629395 236.11578369 57.75477539 236.13391113 56.46533203 236.15258789 C51.61420806 235.93897985 49.6940317 235.13189644 46 232 C41.83376223 226.10953275 41.17244702 220.83364412 40.5 213.75 C38.8217141 199.09833418 35.66966482 188.05552679 23.875 178.375 C22.06910926 176.83761422 22.06910926 176.83761422 20 176 C15.93414183 176.51724624 12.43831154 177.95500934 8.6875 179.5625 C7.61886719 180.01753906 6.55023438 180.47257813 5.44921875 180.94140625 C4.64097656 181.29074219 3.83273438 181.64007813 3 182 C2.9007037 186.58978038 2.82833252 191.17892788 2.78027344 195.76953125 C2.76022778 197.32921244 2.73298343 198.88881913 2.69824219 200.44824219 C2.64940874 202.69745314 2.62696185 204.9456659 2.609375 207.1953125 C2.58872986 207.8861795 2.56808472 208.57704651 2.54681396 209.28884888 C2.54448665 214.37472399 4.04720046 216.9681545 7 221 C7.61478518 226.00610786 7.10576525 229.00687326 4 233 C1.47450701 235.81689603 -0.71884281 236.2730238 -4.375 236.5 C-9.4446815 236.3494154 -11.55877551 234.61328571 -15 231 C-16.15638891 228.68722219 -16.19868928 227.19908779 -16.25 224.625 C-16.27578125 223.85414063 -16.3015625 223.08328125 -16.328125 222.2890625 C-16 220 -16 220 -14.50048828 218.46044922 C-12.14795828 214.60285121 -12.61867965 210.77386306 -12.6640625 206.34375 C-12.65155365 204.41536119 -12.6385167 202.48697575 -12.625 200.55859375 C-12.62106404 197.52347999 -12.62505436 194.48869587 -12.63964844 191.45361328 C-12.64820626 188.5206568 -12.62656147 185.5890846 -12.6015625 182.65625 C-12.61490631 181.74887085 -12.62825012 180.8414917 -12.64199829 179.90661621 C-12.5680238 173.61078084 -12.5680238 173.61078084 -9.67773438 170.50292969 C-6.47478578 168.70521346 -3.26210657 167.17387919 0.125 165.75 C1.05505859 165.3478125 1.05505859 165.3478125 2.00390625 164.9375 C4.84081874 163.74172613 6.88949456 163 10 163 C9.74605469 162.48695313 9.49210937 161.97390625 9.23046875 161.4453125 C6.66795426 155.74443757 5.28345069 150.12929979 4.25 144 C4.12262451 143.26539551 3.99524902 142.53079102 3.86401367 141.77392578 C2.97968762 136.16059338 2.86670837 130.67526156 3 125 C-2.33900229 125.0688879 -7.67722223 125.15685957 -13.015625 125.26245117 C-14.83129189 125.29568436 -16.64706168 125.32372134 -18.46289062 125.34643555 C-21.07466442 125.38001141 -23.68549654 125.43232762 -26.296875 125.48828125 C-27.10743347 125.49467117 -27.91799194 125.5010611 -28.75311279 125.50764465 C-33.17909438 125.62284537 -35.71480753 125.99211018 -39 129 C-44.60298813 130.4800346 -47.98450287 129.89355604 -53 127 C-56.05525735 123.5505159 -56.4872472 120.3841306 -56.27734375 115.92578125 C-55.84355559 112.9137029 -55.01999021 111.28063411 -53 109 C-47.98450287 106.10644396 -44.60298813 105.5199654 -39 107 C-38.45118164 107.50249268 -37.90236328 108.00498535 -37.33691406 108.52270508 C-33.84660706 110.7291246 -30.30437828 110.48012616 -26.296875 110.51171875 C-25.04019012 110.53864555 -25.04019012 110.53864555 -23.75811768 110.56611633 C-21.08879593 110.62019056 -18.41965269 110.65410532 -15.75 110.6875 C-13.93747518 110.72067568 -12.1249739 110.75516557 -10.3125 110.79101562 C-5.87512886 110.87591523 -1.43781039 110.94273997 3 111 C2.98694824 110.27989746 2.97389648 109.55979492 2.96044922 108.81787109 C2.82326714 95.79863813 6.16961456 85.52869095 12 74 C10.7625 73.608125 9.525 73.21625 8.25 72.8125 C-8.64023501 67.15561177 -8.64023501 67.15561177 -12 63 C-12.37854004 61.03370667 -12.37854004 61.03370667 -12.38476562 58.77563477 C-12.39487671 57.92787979 -12.40498779 57.08012482 -12.41540527 56.2066803 C-12.41238403 55.29413986 -12.40936279 54.38159943 -12.40625 53.44140625 C-12.41708618 52.50070786 -12.42792236 51.56000946 -12.43908691 50.59080505 C-12.47339944 47.58130014 -12.4889518 44.57217497 -12.5 41.5625 C-12.51455275 37.60510242 -12.54821275 33.64855506 -12.59375 29.69140625 C-12.59072876 28.78089005 -12.58770752 27.87037384 -12.58459473 26.93226624 C-12.62764252 20.88726066 -12.62764252 20.88726066 -16 16 C-16.82213804 12.23186729 -16.85842013 8.5324389 -14.9453125 5.1171875 C-10.60669231 -0.19698042 -6.59505377 -1.00696291 0 0 Z " fill="#F96D85" transform="translate(169,138)"/>
<path d="M0 0 C2.16308594 1.0949707 2.16308594 1.0949707 4 3 C4.45410156 6.09448242 4.45410156 6.09448242 4.390625 9.85546875 C4.38496521 10.51710526 4.37930542 11.17874176 4.37347412 11.86042786 C4.35111247 13.97019332 4.30092371 16.07824952 4.25 18.1875 C4.2299344 19.61911606 4.21168372 21.0507588 4.1953125 22.48242188 C4.15125069 25.98883515 4.08222777 29.49425072 4 33 C4.79245306 32.88591608 5.58490612 32.77183216 6.40137291 32.65429115 C36.91078789 28.47696771 70.46582494 24.54281766 96.5526309 43.73979235 C110.00393248 54.00911088 121.71683671 66.34059765 133.21276641 78.698704 C137.39500674 83.16063574 141.73626706 87.40115668 146.21337891 91.56591797 C170.7217011 114.4025603 192.09859765 135.39846303 193.40670586 170.47326851 C193.75711705 186.71190565 192.31199861 202.94032761 190 219 C190.89307861 218.97905273 191.78615723 218.95810547 192.70629883 218.93652344 C196.02183343 218.86832654 199.33662239 218.81819185 202.65258789 218.78027344 C204.08727786 218.76016475 205.52188593 218.73287327 206.95629883 218.69824219 C209.01924839 218.6496854 211.08111431 218.62702594 213.14453125 218.609375 C214.38565674 218.58842773 215.62678223 218.56748047 216.90551758 218.54589844 C220 219 220 219 221.9050293 220.83691406 C223.39177284 223.77393698 223.40648893 225.74808853 223 229 C221.9050293 231.16308594 221.9050293 231.16308594 220 233 C216.90551758 233.45410156 216.90551758 233.45410156 213.14453125 233.390625 C212.48289474 233.38496521 211.82125824 233.37930542 211.13957214 233.37347412 C209.02980668 233.35111247 206.92175048 233.30092371 204.8125 233.25 C203.38088394 233.2299344 201.9492412 233.21168372 200.51757812 233.1953125 C197.01116485 233.15125069 193.50574928 233.08222777 190 233 C190.11408392 233.79245306 190.22816784 234.58490612 190.34570885 235.40137291 C194.52303229 265.91078789 198.45718234 299.46582494 179.26020765 325.5526309 C168.99088912 339.00393248 156.65940235 350.71683671 144.301296 362.21276641 C139.83936426 366.39500674 135.59884332 370.73626706 131.43408203 375.21337891 C108.5974397 399.7217011 87.60153697 421.09859765 52.52673149 422.40670586 C36.28809435 422.75711705 20.05967239 421.31199861 4 419 C4.02094727 419.89307861 4.04189453 420.78615723 4.06347656 421.70629883 C4.13167346 425.02183343 4.18180815 428.33662239 4.21972656 431.65258789 C4.23983525 433.08727786 4.26712673 434.52188593 4.30175781 435.95629883 C4.3503146 438.01924839 4.37297406 440.08111431 4.390625 442.14453125 C4.41157227 443.38565674 4.43251953 444.62678223 4.45410156 445.90551758 C4 449 4 449 2.16308594 450.9050293 C-0.77393698 452.39177284 -2.74808853 452.40648893 -6 452 C-8.16308594 450.9050293 -8.16308594 450.9050293 -10 449 C-10.45410156 445.90551758 -10.45410156 445.90551758 -10.390625 442.14453125 C-10.38496521 441.48289474 -10.37930542 440.82125824 -10.37347412 440.13957214 C-10.35111247 438.02980668 -10.30092371 435.92175048 -10.25 433.8125 C-10.2299344 432.38088394 -10.21168372 430.9492412 -10.1953125 429.51757812 C-10.15125069 426.01116485 -10.08222777 422.50574928 -10 419 C-10.79245306 419.11408392 -11.58490612 419.22816784 -12.40137291 419.34570885 C-42.91078789 423.52303229 -76.46582494 427.45718234 -102.5526309 408.26020765 C-116.00393248 397.99088912 -127.71683671 385.65940235 -139.21276641 373.301296 C-143.39500674 368.83936426 -147.73626706 364.59884332 -152.21337891 360.43408203 C-176.7217011 337.5974397 -198.09859765 316.60153697 -199.40670586 281.52673149 C-199.75711705 265.28809435 -198.31199861 249.05967239 -196 233 C-197.38505737 233.02356567 -197.38505737 233.02356567 -198.7980957 233.04760742 C-202.22539889 233.09874832 -205.65229642 233.13635535 -209.07983398 233.16479492 C-210.56297199 233.17987768 -212.04606544 233.20034689 -213.52905273 233.22631836 C-215.66140745 233.26272616 -217.79317235 233.27973073 -219.92578125 233.29296875 C-221.20880127 233.3086792 -222.49182129 233.32438965 -223.8137207 233.34057617 C-227 233 -227 233 -228.91723633 231.6027832 C-230.26451146 229.60845146 -230.40221307 228.39475025 -230.375 226 C-230.38273437 225.319375 -230.39046875 224.63875 -230.3984375 223.9375 C-229.85740419 221.30659291 -229.17915451 220.58809388 -227 219 C-223.8137207 218.65942383 -223.8137207 218.65942383 -219.92578125 218.70703125 C-219.2419487 218.71127609 -218.55811615 218.71552094 -217.8535614 218.71989441 C-215.67280439 218.73666647 -213.49297691 218.77431343 -211.3125 218.8125 C-209.83269565 218.82754886 -208.3528768 218.84123692 -206.87304688 218.85351562 C-203.24839664 218.88656431 -199.62428906 218.93833554 -196 219 C-196.11408392 218.20754694 -196.22816784 217.41509388 -196.34570885 216.59862709 C-200.52303229 186.08921211 -204.45718234 152.53417506 -185.26020765 126.4473691 C-174.99088912 112.99606752 -162.65940235 101.28316329 -150.301296 89.78723359 C-145.83936426 85.60499326 -141.59884332 81.26373294 -137.43408203 76.78662109 C-114.5974397 52.2782989 -93.60153697 30.90140235 -58.52673149 29.59329414 C-42.28809435 29.24288295 -26.05967239 30.68800139 -10 33 C-10.02094727 32.10692139 -10.04189453 31.21384277 -10.06347656 30.29370117 C-10.13167346 26.97816657 -10.18180815 23.66337761 -10.21972656 20.34741211 C-10.23983525 18.91272214 -10.26712673 17.47811407 -10.30175781 16.04370117 C-10.3503146 13.98075161 -10.37297406 11.91888569 -10.390625 9.85546875 C-10.41157227 8.61434326 -10.43251953 7.37321777 -10.45410156 6.09448242 C-10 3 -10 3 -8.16308594 1.0949707 C-5.22606302 -0.39177284 -3.25191147 -0.40648893 0 0 Z M-127.25 94 C-127.77038204 94.54784133 -128.29076407 95.09568267 -128.82691526 95.66012526 C-143.56329141 111.18586581 -157.90454077 127.04719781 -171.92641449 143.222229 C-172.53373665 143.921203 -173.14105881 144.620177 -173.76678467 145.34033203 C-174.32826706 145.99052937 -174.88974945 146.6407267 -175.46824646 147.31062698 C-177 149 -177 149 -179.40911865 151.09295654 C-181.72532649 153.86947348 -181.48138194 155.93896638 -181.45410156 159.51269531 C-181.45468567 160.15701508 -181.45526978 160.80133484 -181.45587158 161.46517944 C-181.45309334 163.58671677 -181.42201774 165.70683436 -181.390625 167.828125 C-181.38316159 169.30213656 -181.37746912 170.77615806 -181.37347412 172.25018311 C-181.3582254 176.12365267 -181.31895107 179.99651916 -181.2746582 183.86975098 C-181.23368852 187.82454267 -181.21545954 191.77943212 -181.1953125 195.734375 C-181.15245528 203.48985782 -181.08421422 211.2448443 -181 219 C-180.02417969 219.01417969 -179.04835937 219.02835938 -178.04296875 219.04296875 C-176.77066406 219.09066406 -175.49835938 219.13835937 -174.1875 219.1875 C-172.92292969 219.22230469 -171.65835938 219.25710937 -170.35546875 219.29296875 C-167 220 -167 220 -165.00390625 222.34765625 C-164 225 -164 225 -164.75 228.25 C-166 231 -166 231 -167 232 C-169.34987262 232.23527773 -171.70556039 232.41386417 -174.0625 232.5625 C-175.35285156 232.64628906 -176.64320313 232.73007812 -177.97265625 232.81640625 C-178.97167969 232.87699219 -179.97070312 232.93757812 -181 233 C-187.60320853 253.23531704 -191.01621327 277.01444302 -182.46344757 297.15798187 C-171.91064813 317.65153961 -151.51582709 334.58972275 -135 350.25 C-134.178238 351.03057306 -134.178238 351.03057306 -133.33987474 351.82691526 C-117.81413419 366.56329141 -101.95280219 380.90454077 -85.777771 394.92641449 C-85.078797 395.53373665 -84.379823 396.14105881 -83.65966797 396.76678467 C-83.00947063 397.32826706 -82.3592733 397.88974945 -81.68937302 398.46824646 C-80 400 -80 400 -77.90704346 402.40911865 C-75.13052652 404.72532649 -73.06103362 404.48138194 -69.48730469 404.45410156 C-68.84298492 404.45468567 -68.19866516 404.45526978 -67.53482056 404.45587158 C-65.41328323 404.45309334 -63.29316564 404.42201774 -61.171875 404.390625 C-59.69786344 404.38316159 -58.22384194 404.37746912 -56.74981689 404.37347412 C-52.87634733 404.3582254 -49.00348084 404.31895107 -45.13024902 404.2746582 C-41.17545733 404.23368852 -37.22056788 404.21545954 -33.265625 404.1953125 C-25.51014218 404.15245528 -17.7551557 404.08421422 -10 404 C-9.96132813 402.42798828 -9.96132813 402.42798828 -9.921875 400.82421875 C-9.86559142 399.44527098 -9.80824412 398.06636635 -9.75 396.6875 C-9.73582031 395.99720703 -9.72164062 395.30691406 -9.70703125 394.59570312 C-9.54905118 391.32551575 -9.41876187 389.45056657 -7.1484375 387.0078125 C-4.10261733 385.57904595 -2.18186562 386.10077711 1 387 C3.84614024 389.84614024 3.45579076 392.80369142 3.625 396.625 C3.66367187 397.33140625 3.70234375 398.0378125 3.7421875 398.765625 C3.83647724 400.50998524 3.91932891 402.25495691 4 404 C24.23531704 410.60320853 48.01444302 414.01621327 68.15798187 405.46344757 C88.65153961 394.91064813 105.58972275 374.51582709 121.25 358 C121.77038204 357.45215867 122.29076407 356.90431733 122.82691526 356.33987474 C137.56329141 340.81413419 151.90454077 324.95280219 165.92641449 308.777771 C166.53373665 308.078797 167.14105881 307.379823 167.76678467 306.65966797 C168.32826706 306.00947063 168.88974945 305.3592733 169.46824646 304.68937302 C171 303 171 303 173.40911865 300.90704346 C175.72532649 298.13052652 175.48138194 296.06103362 175.45410156 292.48730469 C175.45468567 291.84298492 175.45526978 291.19866516 175.45587158 290.53482056 C175.45309334 288.41328323 175.42201774 286.29316564 175.390625 284.171875 C175.38316159 282.69786344 175.37746912 281.22384194 175.37347412 279.74981689 C175.3582254 275.87634733 175.31895107 272.00348084 175.2746582 268.13024902 C175.23368852 264.17545733 175.21545954 260.22056788 175.1953125 256.265625 C175.15245528 248.51014218 175.08421422 240.7551557 175 233 C173.95199219 232.97421875 172.90398437 232.9484375 171.82421875 232.921875 C170.44527098 232.86559142 169.06636635 232.80824412 167.6875 232.75 C166.99720703 232.73582031 166.30691406 232.72164062 165.59570312 232.70703125 C162.32551575 232.54905118 160.45056657 232.41876187 158.0078125 230.1484375 C156.57904595 227.10261733 157.10077711 225.18186562 158 222 C160.84614024 219.15385976 163.80369142 219.54420924 167.625 219.375 C168.33140625 219.33632812 169.0378125 219.29765625 169.765625 219.2578125 C171.50998524 219.16352276 173.25495691 219.08067109 175 219 C181.69639617 198.76865807 185.08653803 175.00449676 176.47935486 154.85792542 C165.77419911 134.17692619 145.18345942 117.07851998 128.5 101.25 C127.94618495 100.72364425 127.3923699 100.19728849 126.82177258 99.65498257 C111.12106934 84.74391589 95.07904009 70.23864611 78.73701477 56.03282928 C77.67495064 55.10824291 77.67495064 55.10824291 76.59143066 54.16497803 C75.96979286 53.62553432 75.34815506 53.08609062 74.70767975 52.53030014 C73 51 73 51 71.45468426 49.3247366 C69.08279113 47.16472585 66.72888175 47.64154925 63.60083008 47.65942383 C62.63456947 47.65876671 62.63456947 47.65876671 61.64878845 47.65809631 C59.52205979 47.66018441 57.39612198 47.68351487 55.26953125 47.70703125 C53.79408702 47.71262717 52.31863722 47.71689729 50.84318542 47.71989441 C46.96160466 47.73134363 43.08036117 47.76081113 39.19891357 47.79400635 C35.23747317 47.82470576 31.27597822 47.83839945 27.31445312 47.85351562 C19.54281506 47.88568106 11.77145481 47.93687795 4 48 C3.97421875 49.04800781 3.9484375 50.09601563 3.921875 51.17578125 C3.86559142 52.55472902 3.80824412 53.93363365 3.75 55.3125 C3.73582031 56.00279297 3.72164062 56.69308594 3.70703125 57.40429688 C3.54905118 60.67448425 3.41876187 62.54943343 1.1484375 64.9921875 C-1.89738267 66.42095405 -3.81813438 65.89922289 -7 65 C-9.84614024 62.15385976 -9.45579076 59.19630858 -9.625 55.375 C-9.66367188 54.66859375 -9.70234375 53.9621875 -9.7421875 53.234375 C-9.83647724 51.49001476 -9.91932891 49.74504309 -10 48 C-30.23531704 41.39679147 -54.01444302 37.98378673 -74.15798187 46.53655243 C-94.65153961 57.08935187 -111.58972275 77.48417291 -127.25 94 Z " fill="#18CFBA" transform="translate(259,30)"/>
<path d="M0 0 C2.59775421 3.89663132 2.30282519 7.184477 2.30639648 11.70654297 C2.31472 12.59627808 2.32304352 13.48601318 2.33161926 14.40270996 C2.35575015 17.34924675 2.36449508 20.29556232 2.37109375 23.2421875 C2.3800576 25.28858508 2.3891794 27.33498197 2.39845276 29.38137817 C2.41495362 33.67370193 2.42264489 37.96594757 2.42553711 42.25830078 C2.43092258 47.75879696 2.468605 53.25855932 2.51428127 58.75884819 C2.54402157 62.98648765 2.55126001 67.21394974 2.55226326 71.44168472 C2.55647143 73.46949755 2.56892958 75.49731062 2.58978081 77.5250206 C2.61663271 80.36211882 2.61188833 83.19750762 2.59936523 86.03466797 C2.61419952 86.8722464 2.62903381 87.70982483 2.64431763 88.57278442 C2.59351881 92.61353008 2.28465594 94.56514423 0.0218811 98.0218811 C-4.08423609 100.70973934 -7.13886086 100.6915545 -11.94946289 100.61523438 C-12.84109634 100.62078339 -13.7327298 100.6263324 -14.65138245 100.63204956 C-17.59235736 100.64384001 -20.53178961 100.61957868 -23.47265625 100.59375 C-25.51858958 100.59203882 -27.5645251 100.59210465 -29.61045837 100.59387207 C-33.89522314 100.59221922 -38.17946445 100.5735258 -42.46411133 100.54199219 C-47.95779837 100.50228983 -53.45080062 100.49795009 -58.94460392 100.50545502 C-63.16794617 100.50852341 -67.39113428 100.49640924 -71.61443901 100.47932434 C-73.64024323 100.47229101 -75.66606492 100.46917021 -77.69188118 100.47001648 C-80.52155305 100.46822006 -83.35040196 100.44685224 -86.17993164 100.41992188 C-87.01796326 100.42285248 -87.85599487 100.42578308 -88.71942139 100.42880249 C-92.04582877 100.37992205 -94.5356291 100.25085733 -97.49266052 98.65344238 C-99.74753862 96.18000421 -99.9338593 94.3070352 -100 91 C-98.75 88.1875 -98.75 88.1875 -97 86 C-93.35442991 84.78480997 -90.01808779 84.86820405 -86.22387695 84.88647461 C-85.03816101 84.88625557 -85.03816101 84.88625557 -83.82849121 84.8860321 C-81.21506 84.88672891 -78.60170001 84.89451045 -75.98828125 84.90234375 C-74.17652933 84.90420876 -72.3647769 84.90563227 -70.55302429 84.90663147 C-65.78382984 84.91045015 -61.01466582 84.92027492 -56.2454834 84.93133545 C-51.37915458 84.94156351 -46.51282084 84.94613208 -41.64648438 84.95117188 C-32.09764287 84.96189774 -22.54882397 84.9789664 -13 85 C-13.00999275 83.4723703 -13.00999275 83.4723703 -13.02018738 81.91387939 C-13.08097994 72.32023339 -13.12596372 62.72662643 -13.15543652 53.13283157 C-13.17109812 48.20045194 -13.19234548 43.2682277 -13.22631836 38.3359375 C-13.25889408 33.57675395 -13.27684929 28.81771996 -13.28463173 24.05843353 C-13.29017845 22.24192704 -13.30100975 20.4254288 -13.31719017 18.6089859 C-13.3389408 16.06629188 -13.34196794 13.52421727 -13.34057617 10.98144531 C-13.351362 10.22906586 -13.36214783 9.4766864 -13.3732605 8.70150757 C-13.35435259 5.51292709 -13.20005432 3.34727393 -11.59199524 0.55584717 C-7.83358332 -3.11722571 -4.53525107 -1.97184829 0 0 Z " fill="#FA6D85" transform="translate(482,384)"/>
<path d="M0 0 C2.67845042 3.54462546 2.26813211 7.64454871 2.22705078 11.88964844 C2.22734283 12.68027176 2.22763489 13.47089508 2.22793579 14.28547668 C2.22654467 16.8935552 2.21099379 19.50134651 2.1953125 22.109375 C2.19158159 23.91969649 2.18873499 25.73002 2.18673706 27.54034424 C2.17910672 32.30134675 2.15946334 37.06222692 2.1373291 41.82318115 C2.1168578 46.68288518 2.10773259 51.54260901 2.09765625 56.40234375 C2.07621691 65.93494953 2.04208815 75.46746459 2 85 C3.00589172 84.99555878 4.01178345 84.99111755 5.04815674 84.98654175 C14.52409369 84.94601219 24.00001307 84.91602353 33.476017 84.89637566 C38.34781759 84.88593496 43.21954825 84.87177048 48.09130859 84.84912109 C52.79212889 84.827403 57.49288188 84.81543353 62.19374847 84.81024551 C63.9879131 84.80654791 65.78207402 84.79932749 67.57621002 84.78853989 C70.08767175 84.77403872 72.59885476 84.77202148 75.11035156 84.77294922 C75.85338028 84.76575867 76.596409 84.75856812 77.36195374 84.75115967 C81.05661622 84.76594449 83.90537602 84.86700014 87 87 C88.90701775 89.54269034 89.00587759 90.85599893 88.875 94.0625 C88 97 88 97 86.49656677 98.65734863 C82.82944617 100.6295228 79.24330254 100.43413151 75.17993164 100.41992188 C73.84510994 100.43262619 73.84510994 100.43262619 72.48332214 100.44558716 C69.54212141 100.46898354 66.60144299 100.4699787 63.66015625 100.46875 C61.61518646 100.47584987 59.57021867 100.48354862 57.5252533 100.49182129 C53.23886579 100.5052721 48.95266248 100.5068321 44.66625977 100.50097656 C39.17360156 100.49507933 33.68182691 100.52567052 28.18933964 100.56609344 C23.96597024 100.5919438 19.74281436 100.59485028 15.51937675 100.59120178 C13.49436662 100.59289546 11.46934688 100.60256174 9.44441414 100.62034607 C6.61216225 100.64248354 3.78170866 100.63286064 0.94946289 100.61523438 C0.11345551 100.62849762 -0.72255188 100.64176086 -1.58389282 100.65542603 C-5.61892161 100.5970822 -7.5698432 100.28181368 -11.02088928 98.02088928 C-13.71048748 93.915521 -13.69155754 90.86133037 -13.61523438 86.05053711 C-13.62078339 85.15890366 -13.6263324 84.2672702 -13.63204956 83.34861755 C-13.64384001 80.40764264 -13.61957868 77.46821039 -13.59375 74.52734375 C-13.59203882 72.48141042 -13.59210465 70.4354749 -13.59387207 68.38954163 C-13.59221922 64.10477686 -13.5735258 59.82053555 -13.54199219 55.53588867 C-13.50228983 50.04220163 -13.49795009 44.54919938 -13.50545502 39.05539608 C-13.50852341 34.83205383 -13.49640924 30.60886572 -13.47932434 26.38556099 C-13.47229101 24.35975677 -13.46917021 22.33393508 -13.47001648 20.30811882 C-13.46822006 17.47844695 -13.44685224 14.64959804 -13.41992188 11.82006836 C-13.42285248 10.98203674 -13.42578308 10.14400513 -13.42880249 9.28057861 C-13.38000496 5.95981359 -13.250601 3.46587233 -11.66125488 0.51124573 C-7.76048056 -3.03729374 -4.54090324 -1.73379942 0 0 Z " fill="#FA6D85" transform="translate(41,384)"/>
<path d="M0 0 C0.88958908 -0.00817749 1.77917816 -0.01635498 2.69572449 -0.02478027 C5.64764732 -0.04964827 8.59952203 -0.06615341 11.55151367 -0.08056641 C13.06189492 -0.08855192 13.06189492 -0.08855192 14.60278893 -0.09669876 C19.93179946 -0.12343577 25.26078652 -0.14280938 30.58984375 -0.15722656 C36.09817653 -0.17388063 41.60591174 -0.21866339 47.11401844 -0.26959801 C51.34592895 -0.30322895 55.57769686 -0.31479942 59.80972862 -0.32045364 C61.84034482 -0.32717703 63.87095129 -0.3424272 65.90143776 -0.36634445 C68.74338326 -0.39791124 71.58370696 -0.3980456 74.42578125 -0.390625 C75.26493073 -0.40703033 76.1040802 -0.42343567 76.96865845 -0.44033813 C81.01509688 -0.3970778 82.96743527 -0.0946172 86.42985535 2.16999817 C89.11597375 6.27686348 89.09853389 9.3319232 89.0222168 14.14233398 C89.02776581 15.03396744 89.03331482 15.92560089 89.03903198 16.84425354 C89.05082243 19.78522846 89.0265611 22.7246607 89.00073242 25.66552734 C88.99902124 27.71146067 88.99908707 29.75739619 89.00085449 31.80332947 C88.99920164 36.08809423 88.98050822 40.37233555 88.94897461 44.65698242 C88.90927225 50.15066946 88.90493251 55.64367171 88.91243744 61.13747501 C88.91550583 65.36081726 88.90339166 69.58400538 88.88630676 73.8073101 C88.87927343 75.83311433 88.87615263 77.85893602 88.8769989 79.88475227 C88.87520248 82.71442414 88.85383466 85.54327305 88.8269043 88.37280273 C88.8298349 89.21083435 88.8327655 90.04886597 88.83578491 90.91229248 C88.78660894 94.25881093 88.66547973 96.72653283 87.02526855 99.68553162 C84.79028719 101.76728686 83.46159178 102.12183367 80.40698242 102.19287109 C77.15698242 100.94287109 77.15698242 100.94287109 74.40698242 99.19287109 C73.19179239 95.547301 73.27518648 92.21095888 73.29345703 88.41674805 C73.293311 87.62627075 73.29316498 86.83579346 73.29301453 86.0213623 C73.29371133 83.40793109 73.30149287 80.79457111 73.30932617 78.18115234 C73.31119118 76.36940042 73.31261469 74.55764799 73.31361389 72.74589539 C73.31743257 67.97670093 73.32725734 63.20753692 73.33831787 58.43835449 C73.34854593 53.57202567 73.35311451 48.70569194 73.3581543 43.83935547 C73.36888016 34.29051397 73.38594882 24.74169506 73.40698242 15.19287109 C71.90147575 15.20286385 71.90147575 15.20286385 70.36555481 15.21305847 C60.90466624 15.27388634 51.44381738 15.3188518 41.9827776 15.34830761 C37.11880655 15.36396026 32.25499344 15.3851913 27.39111328 15.41918945 C22.69676347 15.45179708 18.00256552 15.46972712 13.30811119 15.47750282 C11.51755063 15.4830438 9.72699833 15.493864 7.93650246 15.51006126 C5.42753799 15.5318543 2.91920021 15.53483726 0.41015625 15.53344727 C-0.32927719 15.54423309 -1.06871063 15.55501892 -1.83055115 15.56613159 C-6.24497757 15.53968688 -9.1210423 14.98486276 -12.59301758 12.19287109 C-13.86692786 8.53037902 -13.9279203 6.91051978 -12.28051758 3.38037109 C-9.00853179 -0.86109197 -4.9530209 0.0249634 0 0 Z " fill="#FA6D85" transform="translate(395.593017578125,27.80712890625)"/>
<path d="M0 0 C0.89163345 -0.00554901 1.78326691 -0.01109802 2.70191956 -0.01681519 C5.64289447 -0.02860564 8.58232671 -0.0043443 11.52319336 0.02148438 C13.56912669 0.02319555 15.61506221 0.02312972 17.66099548 0.0213623 C21.94576025 0.02301515 26.23000156 0.04170858 30.51464844 0.07324219 C36.00833548 0.11294455 41.50133773 0.11728429 46.99514103 0.10977936 C51.21848328 0.10671097 55.44167139 0.11882514 59.66497612 0.13591003 C61.69078034 0.14294337 63.71660203 0.14606416 65.74241829 0.1452179 C68.57209016 0.14701432 71.40093907 0.16838213 74.23046875 0.1953125 C75.06850037 0.1923819 75.90653198 0.18945129 76.7699585 0.18643188 C80.09636588 0.23531233 82.58616621 0.36437704 85.54319763 1.96179199 C87.79807572 4.43523017 87.98439641 6.30819918 88.05053711 9.61523438 C86.80053711 12.42773438 86.80053711 12.42773438 85.05053711 14.61523438 C81.40496702 15.8304244 78.0686249 15.74703032 74.27441406 15.72875977 C73.08869812 15.72897881 73.08869812 15.72897881 71.87902832 15.72920227 C69.26559711 15.72850547 66.65223712 15.72072393 64.03881836 15.71289062 C62.22706644 15.71102562 60.41531401 15.70960211 58.6035614 15.70860291 C53.83436695 15.70478423 49.06520293 15.69495946 44.29602051 15.68389893 C39.42969169 15.67367087 34.56335795 15.66910229 29.69702148 15.6640625 C20.14817998 15.65333663 10.59936108 15.63626797 1.05053711 15.61523438 C1.05497833 16.6211261 1.05941956 17.62701782 1.06399536 18.66339111 C1.10452492 28.13932806 1.13451358 37.61524744 1.15416145 47.09125137 C1.16460215 51.96305196 1.17876663 56.83478263 1.20141602 61.70654297 C1.22313411 66.40736326 1.23510358 71.10811626 1.2402916 75.80898285 C1.2439892 77.60314748 1.25120962 79.39730839 1.26199722 81.1914444 C1.27649839 83.70290612 1.27851563 86.21408914 1.27758789 88.72558594 C1.28837372 89.84012901 1.28837372 89.84012901 1.29937744 90.97718811 C1.27271257 97.64062224 1.27271257 97.64062224 -0.94946289 100.61523438 C-4.26196289 102.05273438 -4.26196289 102.05273438 -7.94946289 102.61523438 C-10.94248218 101.31392164 -12.48187783 100.5504045 -13.94946289 97.61523438 C-14.06893057 94.74340233 -14.12785457 91.89509627 -14.14233398 89.0222168 C-14.15051147 88.13262772 -14.15868896 87.24303864 -14.16711426 86.32649231 C-14.19198225 83.37456948 -14.20848739 80.42269476 -14.22290039 77.47070312 C-14.22822407 76.46378229 -14.23354774 75.45686146 -14.23903275 74.41942787 C-14.26576975 69.09041733 -14.28514336 63.76143028 -14.29956055 58.43237305 C-14.31621461 52.92404026 -14.36099737 47.41630506 -14.41193199 41.90819836 C-14.44556293 37.67628785 -14.45713341 33.44451994 -14.46278763 29.21248817 C-14.46951101 27.18187198 -14.48476118 25.15126551 -14.50867844 23.12077904 C-14.54024522 20.27883353 -14.54037959 17.43850984 -14.53295898 14.59643555 C-14.54936432 13.75728607 -14.56576965 12.9181366 -14.58267212 12.05355835 C-14.53941179 8.00711992 -14.23695118 6.05478152 -11.97233582 2.59236145 C-7.86547051 -0.09375695 -4.81041079 -0.07631709 0 0 Z " fill="#FA6D85" transform="translate(41.949462890625,27.384765625)"/>
<path d="M0 0 C0 10.56 0 21.12 0 32 C-14.85 32 -29.7 32 -45 32 C-42.39683682 29.39683682 -40.43379945 27.45524011 -37.5234375 25.44140625 C-36.86110107 24.97919678 -36.19876465 24.5169873 -35.51635742 24.04077148 C-34.80970947 23.55294189 -34.10306152 23.0651123 -33.375 22.5625 C-31.85744047 21.5035099 -30.34053643 20.44357998 -28.82421875 19.3828125 C-28.03708496 18.83270508 -27.24995117 18.28259766 -26.43896484 17.71582031 C-22.32972256 14.82495397 -18.25798493 11.88257632 -14.1875 8.9375 C-13.05030518 8.11584351 -13.05030518 8.11584351 -11.89013672 7.27758789 C-7.84752071 4.36169705 -7.84752071 4.36169705 -3.8918457 1.33032227 C-2 0 -2 0 0 0 Z " fill="#64B4FA" transform="translate(313,236)"/>
<path d="M0 0 C7.87301587 4.49886621 7.87301587 4.49886621 10.98828125 6.77734375 C11.68638916 7.28483154 12.38449707 7.79231934 13.10375977 8.31518555 C13.83264404 8.85054932 14.56152832 9.38591309 15.3125 9.9375 C16.8904336 11.08880404 18.46856485 12.23983723 20.046875 13.390625 C21.26020508 14.27717773 21.26020508 14.27717773 22.49804688 15.18164062 C25.03567515 17.02592784 27.58582727 18.85146019 30.140625 20.671875 C30.96522217 21.26105713 31.78981934 21.85023926 32.6394043 22.45727539 C34.23250843 23.59484002 35.82766911 24.72953103 37.42504883 25.86108398 C38.14200928 26.37485596 38.85896973 26.88862793 39.59765625 27.41796875 C40.23195557 27.86938232 40.86625488 28.3207959 41.51977539 28.78588867 C43 30 43 30 44 32 C29.48 32 14.96 32 0 32 C0 21.44 0 10.88 0 0 Z " fill="#62B5FB" transform="translate(201,236)"/>
</svg>
