<?xml version="1.0" encoding="UTF-8"?>
<svg version="1.1" xmlns="http://www.w3.org/2000/svg" width="512" height="512">
<path d="M0 0 C7.7983843 3.55715775 14.04234614 7.86097845 19 15 C19 15.66 19 16.32 19 17 C19.99 16.67 20.98 16.34 22 16 C23.70016844 15.91821886 25.40336297 15.89250499 27.10546875 15.90234375 C28.08837891 15.90556641 29.07128906 15.90878906 30.08398438 15.91210938 C31.62022461 15.92467773 31.62022461 15.92467773 33.1875 15.9375 C34.74114258 15.94426758 34.74114258 15.94426758 36.32617188 15.95117188 C38.88417266 15.9629599 41.44205733 15.97941485 44 16 C44.29648437 15.38898437 44.59296875 14.77796875 44.8984375 14.1484375 C47.86964628 8.35352676 52.55984526 4.42659098 58 1 C58.66 1 59.32 1 60 1 C67 14.27862595 67 14.27862595 67 22 C67.804375 22.185625 68.60875 22.37125 69.4375 22.5625 C76.90766601 25.57677751 82.4171534 31.07385677 87.4921875 37.203125 C87.98976563 37.79609375 88.48734375 38.3890625 89 39 C89.43570312 39.52722656 89.87140625 40.05445313 90.3203125 40.59765625 C92.66712398 42.55697095 95.10650087 43.22415955 98 44.1875 C104.75317691 46.68109731 110.7685976 49.98875682 116 55 C116 58.5147022 115.61642796 58.83849722 113.25 61.25 C108.89527135 65.44377359 101.27148929 72 95 72 C94.85304688 72.75023438 94.70609375 73.50046875 94.5546875 74.2734375 C91.63008486 87.61903803 84.72310872 96.15430225 75.27734375 105.75 C73.68895444 107.37245609 73.68895444 107.37245609 72 110 C72.28302893 112.00773647 72.62704258 114.00700881 73 116 C73.09144278 118.74059399 73.14014604 121.44859171 73.125 124.1875 C73.12886719 124.89841797 73.13273437 125.60933594 73.13671875 126.34179688 C73.13078494 129.49561884 73.00443535 131.98669395 72 135 C63.92491663 134.3156709 57.67249316 131.65553995 50.74804688 127.65625 C46.05633729 125.0732267 43.37625332 124.69161977 38 126 C37.04528809 126.21789185 37.04528809 126.21789185 36.07128906 126.44018555 C33.9598367 126.92221393 31.85536161 127.42957537 29.75 127.9375 C24.75804034 129.13276532 19.90672688 130.08599192 14.77734375 130.42578125 C13.92624023 130.48451416 13.07513672 130.54324707 12.19824219 130.60375977 C10.56118424 130.69911155 8.92184557 130.76235679 7.28222656 130.78881836 C4.95277465 130.92532925 3.16471429 131.11943825 1 132 C-0.64841373 133.89311064 -1.75319149 135.78962439 -2.92016602 138.00878906 C-4.3074791 140.56699063 -6.06794586 142.17392206 -8.3125 144 C-9.00988281 144.5775 -9.70726562 145.155 -10.42578125 145.75 C-10.94527344 146.1625 -11.46476562 146.575 -12 147 C-16.32990882 143.62267112 -19.13352876 140.96776695 -21.75 136.125 C-23.092174 133.86916625 -23.092174 133.86916625 -25 132 C-32.58293483 130.44950096 -41.33180903 132.56319734 -48.875 133.75 C-50.03942627 133.92756836 -51.20385254 134.10513672 -52.40356445 134.28808594 C-62.98661298 135.9321388 -73.50203275 137.88465397 -84 140 C-84.20365253 142.03874507 -84.20365253 142.03874507 -82.890625 143.4375 C-74.07170282 151.8364735 -61.12569308 150.20376373 -49.75 149.9375 C-48.4403125 149.90333984 -47.130625 149.86917969 -45.78125 149.83398438 C-30.89635281 149.61553194 -30.89635281 149.61553194 -25.29589844 154.48022461 C-24 156 -24 156 -24 158 C-23.12601562 157.97679687 -22.25203125 157.95359375 -21.3515625 157.9296875 C1.7330572 157.5909195 27.82682208 160.35687402 46 176 C67.64737856 197.56615012 74.11605775 233.41433111 80.109375 262.2265625 C82.97354208 275.91667174 87.95890455 288.46569934 97.3359375 299.01953125 C99 301 99 301 99.9765625 303.13671875 C101.30108962 305.54816699 102.52393449 305.84421418 105 307 C108.05902236 309.39040747 111.00485891 311.90292164 113.9609375 314.41796875 C115.73585862 315.92596729 117.52610729 317.41686574 119.3515625 318.86328125 C125.33391289 323.70228668 129.55478666 329.66435997 132 337 C133.7377227 356.58661734 125.23285532 371.90990821 112.93359375 386.7265625 C112.29550781 387.47679687 111.65742188 388.22703125 111 389 C110.41347656 389.70898438 109.82695312 390.41796875 109.22265625 391.1484375 C105.1824724 395.93069593 100.82889044 400.02551039 96 404 C95.21858643 404.6499292 95.21858643 404.6499292 94.42138672 405.31298828 C87.57545094 410.98940202 80.65942493 416.35726085 73.1875 421.1875 C66.90046326 425.25896588 61.37622335 429.76188147 56 435 C55.39027344 435.57105469 54.78054688 436.14210938 54.15234375 436.73046875 C49.89237377 440.81577026 46.22686 445.3132234 42.51953125 449.8984375 C27.08246937 468.90158035 12.04607149 484.21294761 -13.3249321 487.28116322 C-23.25858713 488.2198005 -33.17812975 488.14823071 -43.14550781 488.14526367 C-45.16382916 488.14826043 -47.18214993 488.15166414 -49.20046997 488.15544128 C-54.65053901 488.16422807 -60.10059232 488.16661701 -65.55066776 488.16725707 C-68.9592842 488.16797004 -72.36789669 488.17010891 -75.77651215 488.17275429 C-87.67718254 488.18198661 -99.57784177 488.18609139 -111.47851562 488.18530273 C-122.55989742 488.18470092 -133.64123071 488.19527841 -144.72260022 488.2110464 C-154.25325157 488.22412324 -163.78388705 488.22948664 -173.3145473 488.22884732 C-178.9999098 488.22859259 -184.68522904 488.23143081 -190.37058258 488.24202538 C-195.71240286 488.25170997 -201.05413849 488.25178304 -206.39596176 488.24450874 C-208.35348255 488.2434637 -210.31100863 488.245821 -212.26852036 488.2518692 C-214.945165 488.25960275 -217.62151823 488.25493548 -220.29815674 488.24723816 C-221.06820392 488.25238172 -221.8382511 488.25752529 -222.63163304 488.26282471 C-228.26069387 488.2271731 -234.49170689 487.97522133 -239.05859375 484.37890625 C-239.51363281 483.77949219 -239.96867187 483.18007813 -240.4375 482.5625 C-240.91058594 481.96566406 -241.38367188 481.36882812 -241.87109375 480.75390625 C-244.58804888 476.53275451 -244.62965433 471.84668134 -244 467 C-242.0625 463.625 -242.0625 463.625 -240 461 C-238.91272026 457.73816078 -239.02867397 455.60011325 -239.1875 452.1875 C-239.24764038 446.66126749 -238.6654398 444.09666802 -235 440 C-234.34 439.34 -233.68 438.68 -233 438 C-233.804375 437.071875 -234.60875 436.14375 -235.4375 435.1875 C-238.5080156 431.64459738 -239.15259626 428.70469729 -239.1875 424.0625 C-239.20167969 423.20785156 -239.21585937 422.35320312 -239.23046875 421.47265625 C-239 419 -239 419 -237.92578125 417.05859375 C-236.56926041 414.04219509 -237.1720989 412.16107693 -238 409 C-239.37209279 405.98516797 -239.37209279 405.98516797 -241.0625 403.125 C-241.61035156 402.15820312 -242.15820312 401.19140625 -242.72265625 400.1953125 C-243.14417969 399.47085937 -243.56570312 398.74640625 -244 398 C-249.7858359 401.24571282 -253.14729638 405.6654873 -257 411 C-259.390625 410.703125 -259.390625 410.703125 -262 410 C-266.88477343 400.92827792 -266.51712062 389.9455685 -265 380 C-266.21236328 381.01320313 -266.21236328 381.01320313 -267.44921875 382.046875 C-268.52862355 382.94794336 -269.60805189 383.84898352 -270.6875 384.75 C-271.21794922 385.1934375 -271.74839844 385.636875 -272.29492188 386.09375 C-273.08286133 386.75117187 -273.08286133 386.75117187 -273.88671875 387.421875 C-274.67212036 388.07965942 -274.67212036 388.07965942 -275.47338867 388.75073242 C-276.85804006 389.88383032 -278.28641762 390.96296492 -279.71875 392.03515625 C-282.13077281 394.1126348 -283.32363447 395.89419035 -284.8125 398.6875 C-287.9611751 404.19972603 -292.15689418 411.07844709 -298 414 C-310.88209701 415.43134411 -324.39969817 410.71694258 -334.6640625 402.99609375 C-343.65817628 395.36834239 -348.47623484 386.84482777 -349.75 375.0625 C-350.71084332 368.26629116 -352.96634045 362.46641814 -355.66015625 356.21484375 C-365.10333863 333.55671226 -353.42888583 305.85824029 -345.06787109 284.63378906 C-337.71078985 265.86107939 -333.80244134 247.69549298 -333.875 227.5 C-333.87113281 226.42363281 -333.86726563 225.34726563 -333.86328125 224.23828125 C-333.86703502 221.15643755 -333.92092747 218.08074773 -334 215 C-334.00676758 214.11570313 -334.01353516 213.23140625 -334.02050781 212.3203125 C-334.12588527 210.05515533 -334.26571017 208.14578156 -335 206 C-337.72719011 204.30487347 -337.72719011 204.30487347 -341 203 C-343.25192781 200.7005323 -345.07543547 198.11970494 -346.9375 195.5 C-347.45602539 194.78239502 -347.97455078 194.06479004 -348.50878906 193.32543945 C-349.54160195 191.88655649 -350.56796825 190.44302139 -351.58740234 188.99462891 C-352.80753765 187.27176242 -354.06635275 185.57641015 -355.33203125 183.88671875 C-359.12821251 178.54423148 -361.08048425 174.28310362 -360.625 167.640625 C-359.52545083 162.99502978 -357.09899877 159.56284023 -354 156 C-353.25878906 155.09507812 -352.51757812 154.19015625 -351.75390625 153.2578125 C-348.1683482 150.31816349 -346.19369303 150.58319174 -341.625 150.75 C-337.67246065 150.72994362 -334.7896856 150.64153903 -331.60546875 148.0546875 C-329.79289125 145.68457242 -329.79289125 145.68457242 -328.39453125 143.2265625 C-326.85369328 140.76640104 -325.46847723 139.50586642 -323 138 C-317.1311914 137.30955193 -312.40103611 138.94246243 -307 141 C-306.54109375 140.30132812 -306.0821875 139.60265625 -305.609375 138.8828125 C-304.99578125 137.97273437 -304.3821875 137.06265625 -303.75 136.125 C-303.14671875 135.22007812 -302.5434375 134.31515625 -301.921875 133.3828125 C-299.99386259 130.99239061 -298.85736975 130.00881496 -296 129 C-292.36526954 128.66956996 -289.74213274 128.72385759 -286.3125 130 C-283.07630453 132.79887176 -281.65456877 136.10852819 -280 140 C-275.25133856 139.23045875 -270.85908924 137.66346527 -266.3359375 136.078125 C-265.48242203 135.78146439 -264.62890656 135.48480377 -263.74952698 135.17915344 C-260.95666338 134.20660344 -258.16575697 133.22857712 -255.375 132.25 C-253.95019821 131.75244705 -253.95019821 131.75244705 -252.49661255 131.24484253 C-237.40631456 125.97353604 -222.39083729 120.51934262 -207.44091797 114.86230469 C-206.74538315 114.60023727 -206.04984833 114.33816986 -205.33323669 114.06816101 C-203.47356395 113.36683524 -201.61550166 112.66124322 -199.75756836 111.95532227 C-197 111 -197 111 -195 111 C-194.938125 110.113125 -194.87625 109.22625 -194.8125 108.3125 C-193.78073813 104.10608622 -192.46991083 102.5647167 -189 100 C-185.53855822 99.64798897 -183.13871188 99.43064406 -180 101 C-180.03480469 99.93523437 -180.06960937 98.87046875 -180.10546875 97.7734375 C-180.44493671 82.97572033 -179.35676767 69.23642742 -168.99609375 57.78515625 C-158.94481586 48.12945638 -146.54809188 44.59174843 -132.92016602 44.63208008 C-126.06829427 44.7793496 -120.25608519 46.13927139 -114 49 C-113.19175781 49.36222656 -112.38351562 49.72445312 -111.55078125 50.09765625 C-104.28937463 53.73452374 -97.50685127 59.54794105 -94 67 C-94 67.66 -94 68.32 -94 69 C-87.27461195 65.85719783 -80.58584814 62.64716445 -73.91601562 59.38818359 C-71.42931968 58.20437975 -68.93194905 57.10966627 -66.390625 56.05078125 C-62.76957788 54.44222576 -59.80119748 52.88426429 -57 50 C-55.17927243 44.80837272 -55.73706952 39.39883918 -56 34 C-55.51953125 31.515625 -55.51953125 31.515625 -55 30 C-48.77762125 30.34568771 -44.7407701 31.9324302 -39.39453125 35.13671875 C-37.05245996 36.23576349 -37.05245996 36.23576349 -34.7890625 35.42578125 C-33.86867188 34.95527344 -32.94828125 34.48476563 -32 34 C-30.52326021 33.2997065 -29.04526164 32.60206472 -27.56640625 31.90625 C-25.054489 30.70100704 -22.54477105 29.49141661 -20.03710938 28.27734375 C-19.22177734 27.88675781 -18.40644531 27.49617188 -17.56640625 27.09375 C-16.78128662 26.71371826 -15.99616699 26.33368652 -15.18725586 25.94213867 C-13 25 -13 25 -9.5390625 24.26953125 C-6.90663775 23.28867778 -6.90663775 23.28867778 -6.21557617 21.24560547 C-5.60750062 18.90013405 -5.18360289 16.58177296 -4.8125 14.1875 C-3.12204489 4.33568488 -3.12204489 4.33568488 0 0 Z M-15 286 C-17.0894291 290.78288194 -19.01150082 295.60067172 -20.8125 300.5 C-22.33279587 304.62357502 -23.86365798 308.73154002 -25.58203125 312.77734375 C-33.68841414 332.00691532 -36.67903171 351.21517823 -33.6875 371.9375 C-33.55359863 372.8968042 -33.41969727 373.8561084 -33.28173828 374.84448242 C-32.41079772 380.8429966 -31.24942499 386.65816062 -29.62890625 392.50390625 C-28.66886252 396.31426614 -28.32592124 400.08894514 -28 404 C-27.18660156 403.7834375 -26.37320312 403.566875 -25.53515625 403.34375 C-17.71040046 401.44257199 -10.79799909 400.69187555 -2.77563477 401.19921875 C0.58250525 401.33925729 2.78379105 401.11067479 5.79296875 399.5703125 C8.8737138 395.98247136 9.90054079 392.29153813 11.25 387.8125 C17.31417826 369.23598517 27.04708157 349.97659019 44.4140625 339.55078125 C46.24229809 338.63020326 48.11677829 337.80211295 50 337 C40.93953201 325.55519833 28.9555992 318.21316799 15.8984375 312.03515625 C4.37548097 306.57762626 -3.98048145 300.26698802 -11.625 289.84765625 C-13.0100058 287.89325141 -13.0100058 287.89325141 -15 286 Z " fill="#FBC2C0" transform="translate(370,12)"/>
<path d="M0 0 C1.03398926 0.11045654 1.03398926 0.11045654 2.08886719 0.22314453 C11.81768942 1.15941118 21.45696654 1.00614151 31.21875 0.78515625 C46.10744835 0.61939139 46.10744835 0.61939139 51.70410156 5.47998047 C53 7 53 7 53 9 C53.87398437 8.97679687 54.74796875 8.95359375 55.6484375 8.9296875 C78.7330572 8.5909195 104.82682208 11.35687402 123 27 C144.64737856 48.56615012 151.11605775 84.41433111 157.109375 113.2265625 C159.97354208 126.91667174 164.95890455 139.46569934 174.3359375 150.01953125 C176 152 176 152 176.9765625 154.13671875 C178.30108962 156.54816699 179.52393449 156.84421418 182 158 C185.05902236 160.39040747 188.00485891 162.90292164 190.9609375 165.41796875 C192.73585862 166.92596729 194.52610729 168.41686574 196.3515625 169.86328125 C202.33391289 174.70228668 206.55478666 180.66435997 209 188 C210.7377227 207.58661734 202.23285532 222.90990821 189.93359375 237.7265625 C189.29550781 238.47679687 188.65742188 239.22703125 188 240 C187.41347656 240.70898438 186.82695312 241.41796875 186.22265625 242.1484375 C182.1824724 246.93069593 177.82889044 251.02551039 173 255 C172.21858643 255.6499292 172.21858643 255.6499292 171.42138672 256.31298828 C164.57545094 261.98940202 157.65942493 267.35726085 150.1875 272.1875 C143.90046326 276.25896588 138.37622335 280.76188147 133 286 C132.39027344 286.57105469 131.78054688 287.14210938 131.15234375 287.73046875 C126.89237377 291.81577026 123.22686 296.3132234 119.51953125 300.8984375 C104.08246937 319.90158035 89.04607149 335.21294761 63.6750679 338.28116322 C53.74141287 339.2198005 43.82187025 339.14823071 33.85449219 339.14526367 C31.83617084 339.14826043 29.81785007 339.15166414 27.79953003 339.15544128 C22.34946099 339.16422807 16.89940768 339.16661701 11.44933224 339.16725707 C8.0407158 339.16797004 4.63210331 339.17010891 1.22348785 339.17275429 C-10.67718254 339.18198661 -22.57784177 339.18609139 -34.47851562 339.18530273 C-45.55989742 339.18470092 -56.64123071 339.19527841 -67.72260022 339.2110464 C-77.25325157 339.22412324 -86.78388705 339.22948664 -96.3145473 339.22884732 C-101.9999098 339.22859259 -107.68522904 339.23143081 -113.37058258 339.24202538 C-118.71240286 339.25170997 -124.05413849 339.25178304 -129.39596176 339.24450874 C-131.35348255 339.2434637 -133.31100863 339.245821 -135.26852036 339.2518692 C-137.945165 339.25960275 -140.62151823 339.25493548 -143.29815674 339.24723816 C-144.06820392 339.25238172 -144.8382511 339.25752529 -145.63163304 339.26282471 C-151.26069387 339.2271731 -157.49170689 338.97522133 -162.05859375 335.37890625 C-162.51363281 334.77949219 -162.96867188 334.18007813 -163.4375 333.5625 C-163.91058594 332.96566406 -164.38367188 332.36882812 -164.87109375 331.75390625 C-167.58804888 327.53275451 -167.62965433 322.84668134 -167 318 C-165.0625 314.625 -165.0625 314.625 -163 312 C-161.91272026 308.73816078 -162.02867397 306.60011325 -162.1875 303.1875 C-162.24764038 297.66126749 -161.6654398 295.09666802 -158 291 C-157.34 290.34 -156.68 289.68 -156 289 C-156.804375 288.071875 -157.60875 287.14375 -158.4375 286.1875 C-161.5080156 282.64459738 -162.15259626 279.70469729 -162.1875 275.0625 C-162.20167969 274.20785156 -162.21585938 273.35320312 -162.23046875 272.47265625 C-162 270 -162 270 -160.92578125 268.05859375 C-159.56818933 265.03981341 -160.1604032 263.15943061 -161 260 C-162.50734216 257.09667606 -164.19382217 254.36481032 -165.91796875 251.5859375 C-167 249 -167 249 -166.46875 246.921875 C-164.64951708 244.54138937 -162.61850908 242.78902285 -160.3125 240.875 C-155.80812674 236.95162561 -152.51331338 232.87352209 -149.27734375 227.87109375 C-148.64505859 226.94490234 -148.64505859 226.94490234 -148 226 C-147.67 226 -147.34 226 -147 226 C-146.87044922 227.34191406 -146.87044922 227.34191406 -146.73828125 228.7109375 C-145.44290716 240.1099909 -145.44290716 240.1099909 -140 250 C-137.41638155 250.82197325 -137.41638155 250.82197325 -135 251 C-134.70867187 250.24976563 -134.41734375 249.49953125 -134.1171875 248.7265625 C-130.17469819 238.88273698 -125.26184974 230.48509228 -118.875 222.0625 C-118.24525269 221.22827515 -118.24525269 221.22827515 -117.6027832 220.37719727 C-115.32345484 217.44032703 -113.10726474 215.0548041 -110 213 C-109.731875 213.56847656 -109.46375 214.13695312 -109.1875 214.72265625 C-106.22354663 220.56281437 -102.74964406 225.61337253 -97 229 C-95.33402803 229.04811639 -93.6658128 229.05334306 -92 229 C-91.71390869 228.36199463 -91.42781738 227.72398926 -91.13305664 227.06665039 C-70.82627694 181.91659938 -70.82627694 181.91659938 -54.9140625 170.50390625 C-42.93108854 161.73741478 -35.48107924 149.54274562 -28 137 C-27.03578125 137.51691406 -26.0715625 138.03382813 -25.078125 138.56640625 C-23.80241311 139.2324029 -22.52635299 139.89773282 -21.25 140.5625 C-20.61578125 140.90474609 -19.9815625 141.24699219 -19.328125 141.59960938 C-15.62814585 143.54621964 -15.62814585 143.54621964 -11.546875 143.71484375 C-10.78117187 143.36099609 -10.78117187 143.36099609 -10 143 C-6.35079873 127.79190738 -4.51404415 112.55383833 -3 97 C-1.93458984 97.12568359 -1.93458984 97.12568359 -0.84765625 97.25390625 C0.07144531 97.35574219 0.99054688 97.45757812 1.9375 97.5625 C3.31228516 97.71912109 3.31228516 97.71912109 4.71484375 97.87890625 C5.46894531 97.91886719 6.22304688 97.95882812 7 98 C8.93710142 96.06289858 8.1638472 92.41552063 8.16796875 89.7734375 C8.17129715 89.03356598 8.17462555 88.29369446 8.17805481 87.53140259 C8.18313523 85.95258201 8.18546279 84.37375062 8.18530273 82.79492188 C8.18744697 80.43339838 8.2054693 78.07237548 8.22460938 75.7109375 C8.77293172 59.94338084 8.77293172 59.94338084 5 45 C4.67 45.66 4.34 46.32 4 47 C1.52554357 47.82184112 -0.92793239 48.55377731 -3.4375 49.25 C-11.07206185 51.49391353 -17.33850107 54.61534643 -23.796875 59.3046875 C-27.6090535 62.04115226 -27.6090535 62.04115226 -30.375 61.75 C-30.91125 61.5025 -31.4475 61.255 -32 61 C-32.33 59.35 -32.66 57.7 -33 56 C-22.52466504 46.88257883 -8.31529993 38.56620303 6 39 C5.52214308 25.53761706 3.81259386 12.97272197 0 0 Z M62 137 C59.9105709 141.78288194 57.98849918 146.60067172 56.1875 151.5 C54.66720413 155.62357502 53.13634202 159.73154002 51.41796875 163.77734375 C43.31158586 183.00691532 40.32096829 202.21517823 43.3125 222.9375 C43.44640137 223.8968042 43.58030273 224.8561084 43.71826172 225.84448242 C44.58920228 231.8429966 45.75057501 237.65816062 47.37109375 243.50390625 C48.33113748 247.31426614 48.67407876 251.08894514 49 255 C49.81339844 254.7834375 50.62679687 254.566875 51.46484375 254.34375 C59.28959954 252.44257199 66.20200091 251.69187555 74.22436523 252.19921875 C77.58250525 252.33925729 79.78379105 252.11067479 82.79296875 250.5703125 C85.8737138 246.98247136 86.90054079 243.29153813 88.25 238.8125 C94.31417826 220.23598517 104.04708157 200.97659019 121.4140625 190.55078125 C123.24229809 189.63020326 125.11677829 188.80211295 127 188 C117.93953201 176.55519833 105.9555992 169.21316799 92.8984375 163.03515625 C81.37548097 157.57762626 73.01951855 151.26698802 65.375 140.84765625 C63.9899942 138.89325141 63.9899942 138.89325141 62 137 Z " fill="#C6878D" transform="translate(293,161)"/>
<path d="M0 0 C7.7983843 3.55715775 14.04234614 7.86097845 19 15 C19 15.66 19 16.32 19 17 C19.99 16.67 20.98 16.34 22 16 C23.70016844 15.91821886 25.40336297 15.89250499 27.10546875 15.90234375 C28.08837891 15.90556641 29.07128906 15.90878906 30.08398438 15.91210938 C31.62022461 15.92467773 31.62022461 15.92467773 33.1875 15.9375 C34.74114258 15.94426758 34.74114258 15.94426758 36.32617188 15.95117188 C38.88417266 15.9629599 41.44205733 15.97941485 44 16 C44.29648437 15.38898437 44.59296875 14.77796875 44.8984375 14.1484375 C47.86964628 8.35352676 52.55984526 4.42659098 58 1 C58.66 1 59.32 1 60 1 C67 14.27862595 67 14.27862595 67 22 C67.804375 22.185625 68.60875 22.37125 69.4375 22.5625 C76.90766601 25.57677751 82.4171534 31.07385677 87.4921875 37.203125 C87.98976563 37.79609375 88.48734375 38.3890625 89 39 C89.43570312 39.52722656 89.87140625 40.05445313 90.3203125 40.59765625 C92.66712398 42.55697095 95.10650087 43.22415955 98 44.1875 C104.75317691 46.68109731 110.7685976 49.98875682 116 55 C116 58.5147022 115.61642796 58.83849722 113.25 61.25 C108.89527135 65.44377359 101.27148929 72 95 72 C94.85304688 72.75023438 94.70609375 73.50046875 94.5546875 74.2734375 C91.63008486 87.61903803 84.72310872 96.15430225 75.27734375 105.75 C73.68895444 107.37245609 73.68895444 107.37245609 72 110 C72.28302893 112.00773647 72.62704258 114.00700881 73 116 C73.09144278 118.74059399 73.14014604 121.44859171 73.125 124.1875 C73.12886719 124.89841797 73.13273437 125.60933594 73.13671875 126.34179688 C73.13078494 129.49561884 73.00443535 131.98669395 72 135 C63.92491663 134.3156709 57.67249316 131.65553995 50.74804688 127.65625 C46.05633729 125.0732267 43.37625332 124.69161977 38 126 C37.04528809 126.21789185 37.04528809 126.21789185 36.07128906 126.44018555 C33.9598367 126.92221393 31.85536161 127.42957537 29.75 127.9375 C24.75804034 129.13276532 19.90672688 130.08599192 14.77734375 130.42578125 C13.92624023 130.48451416 13.07513672 130.54324707 12.19824219 130.60375977 C10.56118424 130.69911155 8.92184557 130.76235679 7.28222656 130.78881836 C4.95277465 130.92532925 3.16471429 131.11943825 1 132 C-0.64841373 133.89311064 -1.75319149 135.78962439 -2.92016602 138.00878906 C-4.3074791 140.56699063 -6.06794586 142.17392206 -8.3125 144 C-9.00988281 144.5775 -9.70726562 145.155 -10.42578125 145.75 C-10.94527344 146.1625 -11.46476562 146.575 -12 147 C-16.32990882 143.62267112 -19.13352876 140.96776695 -21.75 136.125 C-23.092174 133.86916625 -23.092174 133.86916625 -25 132 C-32.58293483 130.44950096 -41.33180903 132.56319734 -48.875 133.75 C-50.03942627 133.92756836 -51.20385254 134.10513672 -52.40356445 134.28808594 C-62.98661298 135.9321388 -73.50203275 137.88465397 -84 140 C-84 140.66 -84 141.32 -84 142 C-83.34 142.66 -82.68 143.32 -82 144 C-80.51220701 153.58482022 -82.70878732 161.02211836 -88 169 C-92.6402122 175.05146895 -100.04439035 180.97189591 -107.6171875 182.54296875 C-111.09584972 184.67008516 -111.42852312 187.17931077 -112.4140625 191.02734375 C-113.677564 197.43750802 -114.21614532 203.92665979 -114.81640625 210.42578125 C-114.92855469 211.50214844 -115.04070312 212.57851562 -115.15625 213.6875 C-115.24712891 214.66074219 -115.33800781 215.63398438 -115.43164062 216.63671875 C-116 219 -116 219 -119 221 C-123.08685526 220.74905275 -126.22382588 217.98467294 -129.5 215.75 C-141.4750288 207.88135972 -154.18344823 204.30052535 -168 201 C-168.82628906 200.79503906 -169.65257812 200.59007812 -170.50390625 200.37890625 C-187.46836878 197.80370615 -202.50610094 201.24830063 -216.6875 210.8125 C-219.92303619 213.87314234 -222.43638629 217.37041633 -225 221 C-226.65 220.67 -228.3 220.34 -230 220 C-230.80078125 217.87109375 -230.80078125 217.87109375 -231 215 C-229.46491739 212.7234204 -228.07817093 211.00032213 -226.1875 209.0625 C-225.68484619 208.53398437 -225.18219238 208.00546875 -224.66430664 207.4609375 C-213.17128565 195.76761421 -197.89472852 191.07604124 -181.8125 190.6875 C-167.18182413 190.93898786 -152.14281724 194.42859138 -139 201 C-142.28352631 191.77575198 -142.28352631 191.77575198 -148.80419922 184.89550781 C-152.16594947 183.54282137 -155.62407349 182.76234702 -159.1484375 181.953125 C-167.67581135 179.84290267 -174.0501749 174.1288242 -179 167 C-181.70895129 161.88087882 -182.48956474 156.71687491 -183 151 C-183.78375 151.969375 -184.5675 152.93875 -185.375 153.9375 C-187.54403557 156.62025452 -188.8031965 157.83270354 -192.328125 158.32543945 C-193.29234375 158.42042725 -194.2565625 158.51541504 -195.25 158.61328125 C-219.79949865 161.15529652 -241.64316948 165.75269851 -263.609375 177.265625 C-266.37662959 178.68113311 -269.0927033 179.91253787 -272 181 C-274.60500476 175.57955835 -275.75400293 170.62536311 -276.5625 164.6875 C-276.80827886 163.00236754 -277.05566001 161.31746795 -277.3046875 159.6328125 C-277.42166992 158.83262695 -277.53865234 158.03244141 -277.65917969 157.20800781 C-278.19361863 153.74563973 -278.90493286 150.3283089 -279.66796875 146.91015625 C-280 145 -280 145 -280 141 C-279.35838425 140.77164459 -278.71676849 140.54328918 -278.05570984 140.30801392 C-271.86801188 138.10541926 -265.68092687 135.90111155 -259.49444866 133.69509315 C-256.31749135 132.56229275 -253.14027253 131.43024054 -249.96264648 130.29931641 C-233.04639592 124.28430532 -233.04639592 124.28430532 -216.18994141 118.10449219 C-215.5610605 117.87035551 -214.93217958 117.63621883 -214.28424168 117.39498711 C-211.2760965 116.27386188 -208.26997994 115.14763077 -205.26603699 114.01528931 C-204.20733902 113.61885223 -203.14864105 113.22241516 -202.05786133 112.81396484 C-201.12613602 112.46264496 -200.19441071 112.11132507 -199.23445129 111.74935913 C-197 111 -197 111 -195 111 C-194.938125 110.113125 -194.87625 109.22625 -194.8125 108.3125 C-193.78073813 104.10608622 -192.46991083 102.5647167 -189 100 C-185.53855822 99.64798897 -183.13871188 99.43064406 -180 101 C-180.05220703 99.40285156 -180.05220703 99.40285156 -180.10546875 97.7734375 C-180.44493671 82.97572033 -179.35676767 69.23642742 -168.99609375 57.78515625 C-158.94481586 48.12945638 -146.54809188 44.59174843 -132.92016602 44.63208008 C-126.06829427 44.7793496 -120.25608519 46.13927139 -114 49 C-113.19175781 49.36222656 -112.38351562 49.72445312 -111.55078125 50.09765625 C-104.28937463 53.73452374 -97.50685127 59.54794105 -94 67 C-94 67.66 -94 68.32 -94 69 C-87.27461195 65.85719783 -80.58584814 62.64716445 -73.91601562 59.38818359 C-71.42931968 58.20437975 -68.93194905 57.10966627 -66.390625 56.05078125 C-62.76957788 54.44222576 -59.80119748 52.88426429 -57 50 C-55.17927243 44.80837272 -55.73706952 39.39883918 -56 34 C-55.51953125 31.515625 -55.51953125 31.515625 -55 30 C-48.77762125 30.34568771 -44.7407701 31.9324302 -39.39453125 35.13671875 C-37.05245996 36.23576349 -37.05245996 36.23576349 -34.7890625 35.42578125 C-33.86867188 34.95527344 -32.94828125 34.48476563 -32 34 C-30.52326021 33.2997065 -29.04526164 32.60206472 -27.56640625 31.90625 C-25.054489 30.70100704 -22.54477105 29.49141661 -20.03710938 28.27734375 C-19.22177734 27.88675781 -18.40644531 27.49617188 -17.56640625 27.09375 C-16.78128662 26.71371826 -15.99616699 26.33368652 -15.18725586 25.94213867 C-13 25 -13 25 -9.5390625 24.26953125 C-6.90663775 23.28867778 -6.90663775 23.28867778 -6.21557617 21.24560547 C-5.60750062 18.90013405 -5.18360289 16.58177296 -4.8125 14.1875 C-3.12204489 4.33568488 -3.12204489 4.33568488 0 0 Z " fill="#F07576" transform="translate(370,12)"/>
<path d="M0 0 C0.66 0 1.32 0 2 0 C4.8583451 8.55802134 5.32776697 16.79212417 5.375 25.75 C5.38853516 26.81468506 5.40207031 27.87937012 5.41601562 28.97631836 C5.33359638 43.66640362 5.33359638 43.66640362 1 48 C-0.99958364 48.04080783 -3.00045254 48.04254356 -5 48 C-5.05933716 48.88268555 -5.05933716 48.88268555 -5.11987305 49.78320312 C-5.67558252 56.57653568 -7.04864935 62.92604546 -8.8125 69.5 C-9.1847168 70.95212891 -9.1847168 70.95212891 -9.56445312 72.43359375 C-11.25370684 78.83814344 -13.39500613 84.91139994 -16 91 C-21.56403178 92.39100795 -24.27262491 91.8191513 -29.203125 88.91015625 C-31.11033805 87.77406904 -31.11033805 87.77406904 -34 88 C-35.31951186 89.83124206 -35.31951186 89.83124206 -36.5 92.25 C-40.38692549 99.08362213 -45.56921569 104.38579713 -51 110 C-51.93005859 110.99 -51.93005859 110.99 -52.87890625 112 C-56.1759053 115.43205684 -59.697839 118.36796582 -63.4375 121.3125 C-79.49260991 134.36685949 -89.31085473 155.24341893 -94.26171875 175.046875 C-95.13768376 177.36424274 -96.05897492 178.47126903 -98 180 C-101.51851995 180.87962999 -102.67069481 181.13511384 -106 180 C-111.57917602 175.54731519 -116.68245823 170.38158367 -120 164 C-120 163.34 -120 162.68 -120 162 C-127.1092327 168.06885719 -131.6060484 180.95198686 -133 190 C-133.63672835 198.64718181 -132.72782536 205.81652393 -130 214 C-126.48112492 213.41177361 -123.59785369 212.49544807 -120.40234375 210.91796875 C-119.52860107 210.48685791 -118.6548584 210.05574707 -117.75463867 209.61157227 C-116.82498291 209.14162842 -115.89532715 208.67168457 -114.9375 208.1875 C-113.48017456 207.45261353 -113.48017456 207.45261353 -111.9934082 206.70288086 C-92.06473125 196.51136355 -73.16544099 184.39421776 -56 170 C-55.50532227 169.59410645 -55.01064453 169.18821289 -54.50097656 168.77001953 C-40.41491564 157.20448791 -27.08213557 144.50398796 -16 130 C-14.98796772 128.71536643 -13.97486177 127.4315783 -12.9609375 126.1484375 C-0.45929768 110.20981894 9.80870902 93.33073557 19.34228516 75.48779297 C20.24406439 73.80006231 21.14999997 72.11454515 22.06030273 70.43139648 C22.91735403 68.84636885 23.76501483 67.25621649 24.60180664 65.66040039 C24.98844482 64.94746826 25.37508301 64.23453613 25.7734375 63.5 C26.10778809 62.8709375 26.44213867 62.241875 26.78662109 61.59375 C28.27442758 59.63954461 29.75905927 58.94083053 32 58 C32.33 58.33 32.66 58.66 33 59 C32.66972852 66.659153 30.43327475 73.03899206 27.625 80.125 C27.18091797 81.2586499 26.73683594 82.3922998 26.27929688 83.56030273 C19.28488548 101.12092197 11.09729861 118.01194219 1 134 C0.59426758 134.64372559 0.18853516 135.28745117 -0.22949219 135.95068359 C-6.25467339 145.42326228 -12.87606865 154.32887806 -20 163 C-20.46631836 163.57073242 -20.93263672 164.14146484 -21.41308594 164.72949219 C-32.3804238 178.07547024 -44.33854719 190.39565551 -58 201 C-59.08872039 201.87707127 -60.17588223 202.75607968 -61.26171875 203.63671875 C-74.36448516 214.20280739 -88.22621468 222.96275017 -103 231 C-83.11939667 231.18020104 -83.11939667 231.18020104 -63.25 230.625 C-62.17431763 230.5787146 -62.17431763 230.5787146 -61.0769043 230.53149414 C-59.03995309 230.41544848 -57.02748073 230.22649996 -55 230 C-54.27619141 229.93772217 -53.55238281 229.87544434 -52.80664062 229.8112793 C-45.59650902 228.78070409 -41.8366591 224.73004453 -37 219.5625 C-36.20964355 218.74354248 -35.41928711 217.92458496 -34.60498047 217.08081055 C-29.06640521 211.28756842 -23.90537259 205.33799527 -19 199 C-18.10110457 197.90990773 -17.1985107 196.82285855 -16.29296875 195.73828125 C-8.21695284 185.9920594 -1.21692421 175.63648129 5.67822266 165.03027344 C6.77452599 163.34633208 7.88540597 161.67189104 9 160 C11.5 159.6875 11.5 159.6875 14 160 C16 162 16 162 16.40625 164.91015625 C16.23388604 170.473203 13.68916125 175.41307227 11.5 180.4375 C11.04584717 181.4999292 10.59169434 182.5623584 10.1237793 183.65698242 C3.99413077 197.84850966 -2.57005799 211.65328914 -12 224 C-5.34859501 223.57325056 0.82337758 222.40309139 7.2578125 220.67578125 C10 220 10 220 13.5625 219.6875 C18.92554557 218.61489089 23.32626225 215.76367495 28 213 C34.47557699 220.60880296 33.67805309 228.50725671 33 238 C32.79197754 238.68739258 32.58395508 239.37478516 32.36962891 240.08300781 C32.24765137 240.71561523 32.12567383 241.34822266 32 242 C33.79857668 244.5609294 33.79857668 244.5609294 36 247 C38.42031339 250.63047009 38.43048909 253.69510908 38 258 C36.84837779 261.89948026 35.44888573 264.98548846 32.05859375 267.359375 C26.5691781 270.14957522 21.80869427 271.14718552 15.66975403 271.13371277 C14.91737809 271.13597833 14.16500216 271.13824388 13.38982695 271.14057809 C10.86118752 271.14692322 8.33260161 271.14608839 5.80395508 271.14526367 C3.99385509 271.14825492 2.18375573 271.15165737 0.37365723 271.15544128 C-4.55010237 271.16429092 -9.4738446 271.16661986 -14.39761138 271.16725707 C-18.50774263 271.1682059 -22.61786982 271.17188406 -26.72799951 271.17542917 C-36.42779928 271.18357809 -46.12758977 271.18601308 -55.82739258 271.18530273 C-65.82988617 271.18470244 -75.83232574 271.19524355 -85.83480567 271.2110464 C-94.42260847 271.22413026 -103.01039365 271.22948624 -111.59820634 271.22884732 C-116.72702672 271.2285925 -121.85579916 271.23143483 -126.9846096 271.24202538 C-131.81168705 271.25172007 -136.63867087 271.2517761 -141.46575165 271.24450874 C-143.23459574 271.24346447 -145.0034457 271.24581643 -146.77227974 271.2518692 C-149.19324107 271.25961477 -151.61388114 271.25492742 -154.03483582 271.24723816 C-154.72931216 271.25238172 -155.4237885 271.25752529 -156.13930959 271.26282471 C-161.57364989 271.22487304 -167.66459265 270.83907789 -172.05859375 267.37890625 C-172.51363281 266.77949219 -172.96867188 266.18007813 -173.4375 265.5625 C-173.91058594 264.96566406 -174.38367188 264.36882812 -174.87109375 263.75390625 C-177.58804888 259.53275451 -177.62965433 254.84668134 -177 250 C-175.0625 246.625 -175.0625 246.625 -173 244 C-171.91272026 240.73816078 -172.02867397 238.60011325 -172.1875 235.1875 C-172.24764038 229.66126749 -171.6654398 227.09666802 -168 223 C-167.01 222.01 -167.01 222.01 -166 221 C-166.804375 220.071875 -167.60875 219.14375 -168.4375 218.1875 C-171.5080156 214.64459738 -172.15259626 211.70469729 -172.1875 207.0625 C-172.20167969 206.20785156 -172.21585938 205.35320312 -172.23046875 204.47265625 C-172 202 -172 202 -170.92578125 200.05859375 C-169.56818933 197.03981341 -170.1604032 195.15943061 -171 192 C-172.50734216 189.09667606 -174.19382217 186.36481032 -175.91796875 183.5859375 C-177 181 -177 181 -176.46875 178.921875 C-174.64951708 176.54138937 -172.61850908 174.78902285 -170.3125 172.875 C-165.80812674 168.95162561 -162.51331338 164.87352209 -159.27734375 159.87109375 C-158.64505859 158.94490234 -158.64505859 158.94490234 -158 158 C-157.67 158 -157.34 158 -157 158 C-156.87044922 159.34191406 -156.87044922 159.34191406 -156.73828125 160.7109375 C-155.44290716 172.1099909 -155.44290716 172.1099909 -150 182 C-147.41638155 182.82197325 -147.41638155 182.82197325 -145 183 C-144.70867187 182.24976563 -144.41734375 181.49953125 -144.1171875 180.7265625 C-140.17469819 170.88273698 -135.26184974 162.48509228 -128.875 154.0625 C-128.24525269 153.22827515 -128.24525269 153.22827515 -127.6027832 152.37719727 C-125.32345484 149.44032703 -123.10726474 147.0548041 -120 145 C-119.731875 145.56847656 -119.46375 146.13695312 -119.1875 146.72265625 C-116.22354663 152.56281437 -112.74964406 157.61337253 -107 161 C-105.33402803 161.04811639 -103.6658128 161.05334306 -102 161 C-101.71390869 160.36199463 -101.42781738 159.72398926 -101.13305664 159.06665039 C-80.82627694 113.91659938 -80.82627694 113.91659938 -64.9140625 102.50390625 C-52.93108854 93.73741478 -45.48107924 81.54274562 -38 69 C-37.03578125 69.51691406 -36.0715625 70.03382813 -35.078125 70.56640625 C-33.80241311 71.2324029 -32.52635299 71.89773282 -31.25 72.5625 C-30.61578125 72.90474609 -29.9815625 73.24699219 -29.328125 73.59960938 C-25.62814585 75.54621964 -25.62814585 75.54621964 -21.546875 75.71484375 C-20.78117187 75.36099609 -20.78117187 75.36099609 -20 75 C-16.35079873 59.79190738 -14.51404415 44.55383833 -13 29 C-9.7 29.33 -6.4 29.66 -3 30 C-0.80614772 23.71274041 -0.57230658 17.68460222 -0.375 11.0625 C-0.31699219 9.46438477 -0.31699219 9.46438477 -0.2578125 7.83398438 C-0.16413854 5.22282266 -0.07841665 2.61165696 0 0 Z " fill="#843B49" transform="translate(303,229)"/>
<path d="M0 0 C21.23987342 1.50989997 44.23345332 4.28511015 60.08203125 20.07421875 C79.64301128 42.79890758 86.16252915 75.63773742 92.109375 104.2265625 C94.97354208 117.91667174 99.95890455 130.46569934 109.3359375 141.01953125 C111 143 111 143 111.9765625 145.13671875 C113.30108962 147.54816699 114.52393449 147.84421418 117 149 C120.05902236 151.39040747 123.00485891 153.90292164 125.9609375 156.41796875 C127.73585862 157.92596729 129.52610729 159.41686574 131.3515625 160.86328125 C137.543779 165.87204325 142.98111434 172.80930234 144.30859375 180.875 C144.99348328 192.1653002 136.94630278 200.89383219 130 209 C129.35675781 209.80050781 128.71351563 210.60101563 128.05078125 211.42578125 C116.92250248 224.71612561 102.50487906 232.61176721 87.25 240.31640625 C77.6583749 245.16794479 69.19840794 251.0433911 61 258 C59.67162109 259.10794922 59.67162109 259.10794922 58.31640625 260.23828125 C52.44554603 265.32636011 47.6769287 270.74245245 42.98461914 276.8815918 C34.58835581 287.82626571 24.56662099 297.15612405 11 301 C6.65953423 301.36170548 3.68206914 301.36757793 0 299 C-6.49102244 288.8154328 -8.36178279 271.77185568 -7 260 C-6.06579526 256.09241242 -4.76901904 252.60290211 -3 249 C-2.69578125 248.34644531 -2.3915625 247.69289063 -2.078125 247.01953125 C-1.0625 245.375 -1.0625 245.375 2 243 C5.34780759 242.48462504 8.55479565 242.31252672 11.94140625 242.30078125 C15.51762838 241.94909657 16.63451059 241.69974335 19 239 C20.30997438 236.03482616 21.23401618 232.96999056 22.1875 229.875 C26.80790308 215.86785659 32.97550099 202.97724066 43 192 C43.56203125 191.35804688 44.1240625 190.71609375 44.703125 190.0546875 C55.93660737 177.92882568 72.49726593 173.83815961 88 170 C88 169.01 88 168.02 88 167 C86.52196796 166.68217683 85.04248288 166.37111135 83.5625 166.0625 C82.64855469 165.87171875 81.73460937 165.6809375 80.79296875 165.484375 C78.27576746 165.04782541 75.92129852 164.90137604 73.375 164.8125 C67.87176695 164.32201577 64.68203032 160.8425548 61 157 C61.85136885 151.79504044 63.84994879 147.20855499 65.84375 142.3515625 C70.87479559 127.768329 68.62345917 111.50329312 62.5625 97.734375 C56.48846256 85.41108751 48.27400111 77.10510432 36.734375 69.85546875 C27.26621328 63.43064473 23.94508089 53.98511198 20.4128418 43.55224609 C15.80265478 30.03116806 10.11403179 15.25377063 1.33520508 3.83447266 C0 2 0 2 0 0 Z " fill="#FABCB9" transform="translate(358,170)"/>
<path d="M0 0 C5 5 5 5 6.79296875 7.03125 C9.43430335 9.38741396 11.70637557 10.15711865 15.0625 11.25 C21.80776779 13.70698668 27.78346862 17.00300201 33 22 C33 25.5147022 32.61642796 25.83849722 30.25 28.25 C25.89527135 32.44377359 18.27148929 39 12 39 C11.85304688 39.75023437 11.70609375 40.50046875 11.5546875 41.2734375 C8.63008486 54.61903803 1.72310872 63.15430225 -7.72265625 72.75 C-9.31104556 74.37245609 -9.31104556 74.37245609 -11 77 C-10.71697107 79.00773647 -10.37295742 81.00700881 -10 83 C-9.90855722 85.74059399 -9.85985396 88.44859171 -9.875 91.1875 C-9.87113281 91.89841797 -9.86726563 92.60933594 -9.86328125 93.34179688 C-9.86921506 96.49561884 -9.99556465 98.98669395 -11 102 C-19.07508337 101.3156709 -25.32750684 98.65553995 -32.25195312 94.65625 C-36.94366271 92.0732267 -39.62374668 91.69161977 -45 93 C-45.95471191 93.21789185 -45.95471191 93.21789185 -46.92871094 93.44018555 C-49.0401633 93.92221393 -51.14463839 94.42957537 -53.25 94.9375 C-58.24195966 96.13276532 -63.09327312 97.08599192 -68.22265625 97.42578125 C-69.07375977 97.48451416 -69.92486328 97.54324707 -70.80175781 97.60375977 C-72.43881576 97.69911155 -74.07815443 97.76235679 -75.71777344 97.78881836 C-78.04722535 97.92532925 -79.83528571 98.11943825 -82 99 C-83.64841373 100.89311064 -84.75319149 102.78962439 -85.92016602 105.00878906 C-87.3074791 107.56699063 -89.06794586 109.17392206 -91.3125 111 C-92.00988281 111.5775 -92.70726562 112.155 -93.42578125 112.75 C-93.94527344 113.1625 -94.46476562 113.575 -95 114 C-99.32990882 110.62267112 -102.13352876 107.96776695 -104.75 103.125 C-106.092174 100.86916625 -106.092174 100.86916625 -108 99 C-115.58293483 97.44950096 -124.33180903 99.56319734 -131.875 100.75 C-133.03942627 100.92756836 -134.20385254 101.10513672 -135.40356445 101.28808594 C-145.98661298 102.9321388 -156.50203275 104.88465397 -167 107 C-167 107.66 -167 108.32 -167 109 C-166.34 109.66 -165.68 110.32 -165 111 C-163.51220701 120.58482022 -165.70878732 128.02211836 -171 136 C-175.6402122 142.05146895 -183.04439035 147.97189591 -190.6171875 149.54296875 C-194.09584972 151.67008516 -194.42852312 154.17931077 -195.4140625 158.02734375 C-196.677564 164.43750802 -197.21614532 170.92665979 -197.81640625 177.42578125 C-197.92855469 178.50214844 -198.04070312 179.57851562 -198.15625 180.6875 C-198.24712891 181.66074219 -198.33800781 182.63398438 -198.43164062 183.63671875 C-199 186 -199 186 -202 188 C-206.08685526 187.74905275 -209.22382588 184.98467294 -212.5 182.75 C-224.4750288 174.88135972 -237.18344823 171.30052535 -251 168 C-251.82628906 167.79503906 -252.65257812 167.59007812 -253.50390625 167.37890625 C-270.46836878 164.80370615 -285.50610094 168.24830063 -299.6875 177.8125 C-302.92303619 180.87314234 -305.43638629 184.37041633 -308 188 C-309.65 187.67 -311.3 187.34 -313 187 C-313.80078125 184.87109375 -313.80078125 184.87109375 -314 182 C-312.46491739 179.7234204 -311.07817093 178.00032213 -309.1875 176.0625 C-308.68484619 175.53398437 -308.18219238 175.00546875 -307.66430664 174.4609375 C-296.17128565 162.76761421 -280.89472852 158.07604124 -264.8125 157.6875 C-250.18182413 157.93898786 -235.14281724 161.42859138 -222 168 C-225.28352631 158.77575198 -225.28352631 158.77575198 -231.80419922 151.89550781 C-235.16594947 150.54282137 -238.62407349 149.76234702 -242.1484375 148.953125 C-250.67581135 146.84290267 -257.0501749 141.1288242 -262 134 C-264.70895129 128.88087882 -265.48956474 123.71687491 -266 118 C-266.78375 118.969375 -267.5675 119.93875 -268.375 120.9375 C-270.54403557 123.62025452 -271.8031965 124.83270354 -275.328125 125.32543945 C-276.29234375 125.42042725 -277.2565625 125.51541504 -278.25 125.61328125 C-302.79949865 128.15529652 -324.64316948 132.75269851 -346.609375 144.265625 C-349.37662959 145.68113311 -352.0927033 146.91253787 -355 148 C-357.60500476 142.57955835 -358.75400293 137.62536311 -359.5625 131.6875 C-359.80827886 130.00236754 -360.05566001 128.31746795 -360.3046875 126.6328125 C-360.42166992 125.83262695 -360.53865234 125.03244141 -360.65917969 124.20800781 C-361.19361863 120.74563973 -361.90493286 117.3283089 -362.66796875 113.91015625 C-363 112 -363 112 -363 108 C-362.35838425 107.77164459 -361.71676849 107.54328918 -361.05570984 107.30801392 C-354.86801188 105.10541926 -348.68092687 102.90111155 -342.49444866 100.69509315 C-339.31749135 99.56229275 -336.14027253 98.43024054 -332.96264648 97.29931641 C-316.04639592 91.28430532 -316.04639592 91.28430532 -299.18994141 85.10449219 C-298.5610605 84.87035551 -297.93217958 84.63621883 -297.28424168 84.39498711 C-294.2760965 83.27386188 -291.26997994 82.14763077 -288.26603699 81.01528931 C-287.20733902 80.61885223 -286.14864105 80.22241516 -285.05786133 79.81396484 C-284.12613602 79.46264496 -283.19441071 79.11132507 -282.23445129 78.74935913 C-280 78 -280 78 -278 78 C-277.98582031 78.556875 -277.97164063 79.11375 -277.95703125 79.6875 C-277.57741127 85.76141971 -276.29362232 90.52410126 -272 95 C-267.71312196 97.68706486 -263.02599961 99.35148392 -258 100 C-258.33 101.155 -258.66 102.31 -259 103.5 C-260.6565606 110.31830739 -260.90845051 115.80395949 -257.37109375 122.05859375 C-250.27817887 132.1018379 -236.81668025 137.80154786 -225 140 C-209.34455324 141.53777922 -194.71362469 135.81936127 -182 127 C-177.51873633 122.51873633 -175.90945034 117.89445524 -175.8125 111.625 C-175.90655988 107.36336379 -176.38675876 103.21603351 -177 99 C-176.41992188 98.90203125 -175.83984375 98.8040625 -175.2421875 98.703125 C-168.87431202 97.48419174 -164.1681853 95.89091373 -160.125 90.5 C-158.22953434 84.60299573 -158.0305345 77.90839651 -160 72 C-147.65705033 70.30718752 -135.29084527 69.17148645 -122.87719727 68.14013672 C-119.64764315 67.87168699 -116.41853212 67.59831924 -113.18945312 67.32421875 C-111.13023197 67.15076079 -109.07098801 66.97757343 -107.01171875 66.8046875 C-106.04932785 66.72346649 -105.08693695 66.64224548 -104.09538269 66.55856323 C-102.76172417 66.4481218 -102.76172417 66.4481218 -101.40112305 66.33544922 C-100.62109421 66.27042206 -99.84106537 66.2053949 -99.03739929 66.13839722 C-97.36149468 66.02455574 -95.6797667 66 -94 66 C-93.01 69.63 -92.02 73.26 -91 77 C-82.31486622 74.79425174 -76.02389564 70.53584346 -71 63 C-68.62547016 62.26638107 -66.36085605 61.69331131 -63.9375 61.1875 C-56.9134555 59.62024446 -50.31366289 57.44753215 -43.67358398 54.66674805 C-41.64453125 53.87890625 -41.64453125 53.87890625 -38 53 C-36.30473943 53.95072045 -34.64174543 54.95959156 -33 56 C-29.40789584 56.5368198 -25.81501256 56.60223275 -22.1875 56.6875 C-21.20845703 56.72166016 -20.22941406 56.75582031 -19.22070312 56.79101562 C-16.81391655 56.87319858 -14.40748055 56.94244433 -12 57 C-12.57621094 55.33710937 -12.57621094 55.33710937 -13.1640625 53.640625 C-13.65182299 52.17734354 -14.13875928 50.71378717 -14.625 49.25 C-14.88023437 48.52039063 -15.13546875 47.79078125 -15.3984375 47.0390625 C-17.16931216 41.62805659 -17.16931216 41.62805659 -16.421875 38.85546875 C-15.95265625 38.24316406 -15.4834375 37.63085938 -15 37 C-14.33226562 36.08347656 -13.66453125 35.16695312 -12.9765625 34.22265625 C-12.20054687 33.17980469 -11.42453125 32.13695312 -10.625 31.0625 C-3.92105151 21.67296975 -1.71776525 11.27848498 0 0 Z " fill="#CB474B" transform="translate(453,45)"/>
<path d="M0 0 C1.21236328 0.54333984 1.21236328 0.54333984 2.44921875 1.09765625 C10.95331882 5.35692538 17.78623085 11.95070265 21 21 C25.29703765 34.01459104 23.66087855 48.68634694 20.4387207 61.70532227 C18.11623136 71.23524553 18.50506411 79.03453198 21.31640625 88.41015625 C23.0857009 95.11325543 22.41401958 100.74813918 19.30859375 106.9375 C12.74759038 117.27842471 -1.45234662 121.91057362 -12.8125 124.6875 C-28.47367631 126.22290944 -43.61224073 122.2681981 -56.125 112.30859375 C-60.44673185 108.28398097 -63.50007522 104.07196798 -64.2421875 98.02734375 C-64.40414179 93.35766175 -63.47103915 89.41311746 -62 85 C-62.73605469 84.76925781 -63.47210938 84.53851563 -64.23046875 84.30078125 C-72.20820639 81.63450962 -77.08671933 78.68445897 -81 71 C-81.3984375 67.84375 -81.3984375 67.84375 -81.375 64.5 C-81.38273438 63.3965625 -81.39046875 62.293125 -81.3984375 61.15625 C-80.95684765 57.65816573 -80.10340582 55.80454109 -78 53 C-74.33134759 50.55423173 -72.32799657 50.76392746 -68 51 C-67.34 51.33 -66.68 51.66 -66 52 C-66.03480469 50.93523437 -66.06960937 49.87046875 -66.10546875 48.7734375 C-66.44493671 33.97572033 -65.35676767 20.23642742 -54.99609375 8.78515625 C-40.49117421 -5.14890778 -18.11845612 -8.28505115 0 0 Z " fill="#FBBEBC" transform="translate(256,61)"/>
<path d="M0 0 C1.2684375 0.12375 1.2684375 0.12375 2.5625 0.25 C4.44590516 3.07510774 4.85084223 4.13875353 5.375 7.3125 C7.9102223 19.32555337 14.82875533 28.11535892 24.875 34.875 C32.82254672 39.97194983 41.52827349 42.71887738 50.5625 45.25 C51.75101563 45.60964844 52.93953125 45.96929687 54.1640625 46.33984375 C60.49443363 47.88690336 67.08221556 47.98783315 73.5625 48.375 C74.92322018 48.46156476 76.28389795 48.54879889 77.64453125 48.63671875 C80.95016469 48.84771663 84.25607007 49.05194536 87.5625 49.25 C86.23148172 53.24305485 83.60817927 54.8519112 80.375 57.3125 C79.7449707 57.79783203 79.11494141 58.28316406 78.46582031 58.78320312 C76.50626144 60.28335322 74.53672028 61.76921069 72.5625 63.25 C71.98741699 63.68296387 71.41233398 64.11592773 70.81982422 64.56201172 C61.14710401 71.7931844 50.99056588 78.16906108 40.5625 84.25 C39.89976074 84.6404248 39.23702148 85.03084961 38.55419922 85.43310547 C22.35159584 94.86654845 4.36028875 102.05022181 -13.75 106.8125 C-19.97453598 108.6393382 -22.85828473 110.92901152 -26.078125 116.5546875 C-26.52671875 117.44414062 -26.9753125 118.33359375 -27.4375 119.25 C-30.21181614 124.72530233 -32.82706188 127.84843433 -37.8125 131.375 C-38.92538729 132.18886384 -40.03737062 133.00396524 -41.1484375 133.8203125 C-41.69322754 134.21992188 -42.23801758 134.61953125 -42.79931641 135.03125 C-47.1236282 138.2483833 -50.75258967 141.13458037 -53.3125 146 C-56.43160677 151.50382068 -60.61597381 158.3392369 -66.4375 161.25 C-79.31959701 162.68134411 -92.83719817 157.96694258 -103.1015625 150.24609375 C-112.09567628 142.61834239 -116.91373484 134.09482777 -118.1875 122.3125 C-119.14834332 115.51629116 -121.40384045 109.71641814 -124.09765625 103.46484375 C-129.48458811 90.53934835 -127.19737316 73.36479567 -123.4375 60.25 C-123.1075 60.25 -122.7775 60.25 -122.4375 60.25 C-122.18355469 61.54035156 -121.92960937 62.83070313 -121.66796875 64.16015625 C-121.32070897 65.87768437 -120.97303046 67.59512788 -120.625 69.3125 C-120.45935547 70.16005859 -120.29371094 71.00761719 -120.12304688 71.88085938 C-118.41699947 81.32439769 -118.41699947 81.32439769 -112.4375 88.25 C-109.68362373 88.27477359 -109.68362373 88.27477359 -106.75 87.875 C-105.75613281 87.76414062 -104.76226562 87.65328125 -103.73828125 87.5390625 C-102.97902344 87.44367188 -102.21976563 87.34828125 -101.4375 87.25 C-100.2595159 84.35552479 -99.14487559 81.45071733 -98.0703125 78.515625 C-97.56799086 77.17697728 -97.06538119 75.83843762 -96.5625 74.5 C-96.19705078 73.47326172 -96.19705078 73.47326172 -95.82421875 72.42578125 C-93.93706322 67.48788725 -93.93706322 67.48788725 -91.3046875 66.234375 C-89.4375 66.25 -89.4375 66.25 -88.4375 67.25 C-88.50293326 69.66210796 -88.63022627 72.03376517 -88.8125 74.4375 C-88.94785156 76.40783203 -88.94785156 76.40783203 -89.0859375 78.41796875 C-89.4375 82.25 -89.4375 82.25 -89.94677734 85.04663086 C-90.78270193 90.50343008 -90.66237515 95.99897174 -90.67773438 101.5078125 C-90.68744179 103.61238111 -90.71851852 105.71597223 -90.75 107.8203125 C-90.8949121 119.27452605 -90.8949121 119.27452605 -85.82421875 129.2734375 C-79.41855781 134.36851493 -73.61692362 136.15112294 -65.4375 135.25 C-57.94378866 133.41014614 -53.33084215 129.93384751 -49.25 123.375 C-44.10182097 114.34588601 -43.24101233 105.51250788 -43.25 95.3125 C-43.25008057 94.41225098 -43.25016113 93.51200195 -43.25024414 92.58447266 C-43.33028736 82.08785813 -43.86098604 71.60746651 -44.375 61.125 C-44.41847565 60.23386505 -44.46195129 59.3427301 -44.50674438 58.42459106 C-45.09417115 46.51039071 -45.09417115 46.51039071 -46 34.6171875 C-46.4505419 29.56490385 -46.55604346 24.56977749 -46.5 19.5 C-46.49548828 18.695625 -46.49097656 17.89125 -46.48632812 17.0625 C-46.47479518 15.12496596 -46.45687471 13.18747149 -46.4375 11.25 C-43.7519406 13.9355594 -43.37700026 16.62621328 -42.4375 20.25 C-35.68357184 18.60270045 -31.34963878 15.17043045 -27.578125 9.41015625 C-26.39174824 7.44046663 -25.23472994 5.4526789 -24.11328125 3.4453125 C-23.56027344 2.72085937 -23.00726563 1.99640625 -22.4375 1.25 C-21.1175 1.25 -19.7975 1.25 -18.4375 1.25 C-17.70282153 14.2701351 -20.12530728 22.0378502 -28.390625 32.08984375 C-30.21500168 34.01518785 -31.83379503 35.23972695 -34.0625 36.625 C-36.69087411 38.95721224 -36.69087411 38.95721224 -36.5 41.65234375 C-36.00832395 44.92286745 -35.26213507 48.04660992 -34.4375 51.25 C-34.10895308 52.67248154 -33.78356743 54.09569602 -33.4609375 55.51953125 C-33.12226518 56.97193316 -32.7811403 58.42376549 -32.4375 59.875 C-32.2720166 60.57407471 -32.1065332 61.27314941 -31.93603516 61.9934082 C-30.94422222 66.01918328 -30.94422222 66.01918328 -28.4375 69.25 C-24.88282346 70.30024534 -23.00439931 70.46751351 -19.515625 69.12890625 C-10.42365798 63.5791142 -5.3677829 50.73422366 -1.4375 41.25 C-1.06753906 40.35925781 -0.69757813 39.46851563 -0.31640625 38.55078125 C2.02511675 32.42119437 2.85087809 25.55203196 0.4453125 19.38671875 C-0.23917969 17.86498047 -0.23917969 17.86498047 -0.9375 16.3125 C-3.37057351 10.89650585 -4.01723021 7.14392381 -3.4375 1.25 C-2.4375 0.25 -2.4375 0.25 0 0 Z " fill="#E07B86" transform="translate(138.4375,264.75)"/>
<path d="M0 0 C5.84979223 8.77468835 4.31703522 23.7181024 4.26074219 33.9753418 C4.24980212 36.35555275 4.26082464 38.73504297 4.2734375 41.11523438 C4.27211931 42.63541833 4.26956401 44.15560183 4.265625 45.67578125 C4.26967346 46.38398514 4.27372192 47.09218903 4.27789307 47.82185364 C4.23006074 52.76993926 4.23006074 52.76993926 2 55 C0.125 55.01171875 0.125 55.01171875 -2 54.6875 C-2.70125 54.58824219 -3.4025 54.48898437 -4.125 54.38671875 C-6 54 -6 54 -8 53 C-8.02578125 54.10472656 -8.0515625 55.20945312 -8.078125 56.34765625 C-8.39079862 65.8228021 -9.30476229 75.03153158 -10.9375 84.375 C-11.19225098 85.8446521 -11.19225098 85.8446521 -11.45214844 87.34399414 C-12.26504296 91.79052719 -13.09961388 95.86769762 -15 100 C-16.671875 101.02734375 -16.671875 101.02734375 -19 101 C-21.53857885 99.94608774 -23.84495527 98.86034426 -26.25 97.5625 C-27.22453125 97.05493164 -27.22453125 97.05493164 -28.21875 96.53710938 C-29.81814494 95.70213113 -31.40985859 94.85246886 -33 94 C-33.78310547 95.39798828 -33.78310547 95.39798828 -34.58203125 96.82421875 C-41.88822722 109.5898416 -49.95679209 120.32800314 -62 129 C-71.72556822 136.54413236 -77.45483894 146.28484935 -83 157.125 C-83.51473877 158.11967285 -84.02947754 159.1143457 -84.55981445 160.13916016 C-88.26754788 167.37748558 -91.66040178 174.70767457 -94.79296875 182.2109375 C-96 185 -96 185 -97 186 C-100.35611837 186.47277494 -101.69777704 186.20536259 -104.53515625 184.27734375 C-109.34059594 179.82841272 -113.21090366 175.95852399 -116 170 C-125.69427052 179.98483449 -132.60659021 191.22043464 -138 204 C-138.65575302 205.33873455 -139.3187091 206.67407959 -140 208 C-142.1875 208 -142.1875 208 -145 207 C-150.93522514 200.08681162 -152.24259801 191.78984938 -153 183 C-153.3403125 183.556875 -153.680625 184.11375 -154.03125 184.6875 C-159.12265864 192.70376041 -165.13612495 198.56761178 -172.5625 204.4375 C-177.55910455 208.43200001 -181.36628713 212.75405957 -185 218 C-187.390625 217.703125 -187.390625 217.703125 -190 217 C-194.85472545 207.9840813 -195.05650669 196.8545118 -192.29296875 187.13671875 C-189.4861407 180.32740478 -185.21902365 173.21902365 -180 168 C-178.25798852 167.33423072 -176.48783849 166.74119513 -174.70703125 166.1875 C-173.61334229 165.83961426 -172.51965332 165.49172852 -171.39282227 165.13330078 C-169.62056274 164.57231689 -169.62056274 164.57231689 -167.8125 164 C-130.28669766 151.76608554 -96.40442881 132.51679218 -67.62109375 105.41015625 C-65 103 -65 103 -62.37890625 100.92578125 C-60.14970454 99.12118939 -58.35500322 97.30375378 -56.5 95.125 C-55.61248047 94.09246094 -55.61248047 94.09246094 -54.70703125 93.0390625 C-53.17639068 91.21070008 -51.68074049 89.35884215 -50.1875 87.5 C-49.465625 86.675 -48.74375 85.85 -48 85 C-47.34 85 -46.68 85 -46 85 C-45.74992188 84.27039063 -45.49984375 83.54078125 -45.2421875 82.7890625 C-43.89164741 79.75671778 -42.32679222 77.85100811 -40.125 75.375 C-22.57555849 54.31567019 -11.04344751 28.71379082 -1.84106445 3.13525391 C-1 1 -1 1 0 0 Z " fill="#FEDBE4" transform="translate(298,205)"/>
<path d="M0 0 C4.2905335 -0.9800711 7.73886051 -1.21452768 12 0 C16.10096949 4.41047662 18.4296933 9.60049843 21 15 C21.75435872 16.47442841 22.51219732 17.9470814 23.2734375 19.41796875 C28.12675664 29.01505596 31.89922175 38.81229405 35.08618164 49.08398438 C38.33536777 59.15353418 43.41676666 65.04204133 52 71 C65.66939702 80.80207651 76.72103707 94.20238208 80.60546875 110.91796875 C82.46928739 125.47789849 80.62956123 137.63396408 74.92578125 151.08203125 C73.90025416 153.81933527 73.90025416 153.81933527 73.98046875 156.07421875 C75.64205581 159.21277208 77.97577805 161.24797503 81 163 C83.69547012 163.77257392 86.33337748 164.00881544 89.125 164.1875 C97.60793037 164.86457793 97.60793037 164.86457793 101 167 C100.67 168.32 100.34 169.64 100 171 C98.77023437 171.32613281 97.54046875 171.65226563 96.2734375 171.98828125 C94.64053454 172.42935274 93.00772703 172.87077772 91.375 173.3125 C90.56675781 173.52583984 89.75851562 173.73917969 88.92578125 173.95898438 C85.21122884 174.97067141 82.07788419 175.95813953 78.6640625 177.79296875 C76 179 76 179 73.80078125 178.375 C72.0297508 177.02271645 70.65080902 175.6769602 69.1875 174 C60.99578988 165.65242224 50.66333296 160.11184063 40.125 155.3125 C33.36368214 152.2332267 27.45656753 149.14509327 22 144 C21.29746094 143.36320313 20.59492188 142.72640625 19.87109375 142.0703125 C10.71735601 133.40544841 10.71735601 133.40544841 9 128 C9.34911627 122.5857392 10.52100404 117.41987967 11.71411133 112.13598633 C20.48194005 73.01922701 21.27091224 39.95843958 1.7578125 4.2890625 C0 1 0 1 0 0 Z " fill="#E07A86" transform="translate(346,170)"/>
<path d="M0 0 C6.42659794 5.55813876 7.48641888 14.31678678 8.9375 22.25 C9.14117187 23.30574219 9.34484375 24.36148438 9.5546875 25.44921875 C10.55591603 30.69283226 11.45783019 35.93817369 12.265625 41.21484375 C13.26380051 47.29464006 15.13825558 52.81662606 17.27734375 58.57226562 C18.92310086 63.1974106 19.77113747 67.0115322 19.3125 72 C15.67885092 76.97944504 10.38982903 78.06656084 4.625 79.375 C0.56046372 80.34869112 -3.16555677 81.52825316 -7 83.1875 C-11.05439332 84.88226248 -14.24155277 85.63513532 -18.6875 85 C-20.36328125 83.87890625 -20.36328125 83.87890625 -21.6875 82 C-22.015625 78.96875 -22.015625 78.96875 -21.9375 75.5 C-21.92203125 74.3553125 -21.9065625 73.210625 -21.890625 72.03125 C-21.6875 69 -21.6875 69 -20.6875 66 C-22.110625 66.99 -22.110625 66.99 -23.5625 68 C-28.14785076 70.67400332 -32.52378477 70.37403169 -37.6875 70 C-38.1825 71.485 -38.1825 71.485 -38.6875 73 C-40.5078125 74.0546875 -40.5078125 74.0546875 -42.8125 74.875 C-43.55757812 75.16117187 -44.30265625 75.44734375 -45.0703125 75.7421875 C-48.85469666 76.11497758 -51.59070133 75.06024206 -54.6875 73 C-56.98418217 70.69760647 -58.8277399 68.16160424 -60.6875 65.5 C-61.20151367 64.78239502 -61.71552734 64.06479004 -62.24511719 63.32543945 C-63.26830047 61.88741299 -64.28380755 60.44388942 -65.29101562 58.99462891 C-66.49956989 57.26842464 -67.75366452 55.57427329 -69.015625 53.88671875 C-72.8175147 48.54707285 -74.76800069 44.28334341 -74.3125 37.640625 C-73.21295083 32.99502978 -70.78649877 29.56284023 -67.6875 26 C-66.94628906 25.09507812 -66.20507812 24.19015625 -65.44140625 23.2578125 C-61.8558482 20.31816349 -59.88119303 20.58319174 -55.3125 20.75 C-51.35996065 20.72994362 -48.4771856 20.64153903 -45.29296875 18.0546875 C-43.48039125 15.68457242 -43.48039125 15.68457242 -42.08203125 13.2265625 C-40.54119328 10.76640104 -39.15597723 9.50586642 -36.6875 8 C-30.8186914 7.30955193 -26.08853611 8.94246243 -20.6875 11 C-20.22859375 10.30132812 -19.7696875 9.60265625 -19.296875 8.8828125 C-18.68328125 7.97273437 -18.0696875 7.06265625 -17.4375 6.125 C-16.83421875 5.22007812 -16.2309375 4.31515625 -15.609375 3.3828125 C-11.47111732 -1.74795414 -6.11467318 -2.27522723 0 0 Z " fill="#FABAB7" transform="translate(83.6875,142)"/>
<path d="M0 0 C0.33 0 0.66 0 1 0 C0.90808426 19.9457152 -13.39754514 36.13894868 -26.5625 49.625 C-27.7690625 50.800625 -27.7690625 50.800625 -29 52 C-29.75023437 52.81791016 -29.75023437 52.81791016 -30.515625 53.65234375 C-38.87965152 62.54366759 -49.16324467 69.57756535 -59.375 76.1875 C-65.11208451 79.93956884 -70.06182177 84.26038488 -75 89 C-75.61359375 89.57363281 -76.2271875 90.14726562 -76.859375 90.73828125 C-81.11157227 94.82468183 -84.77605195 99.31682489 -88.48046875 103.8984375 C-105.01939201 124.25798024 -120.66492239 138.8670792 -147.6875 141.75 C-156.76786234 142.29305366 -165.90745717 142.08305442 -175 142 C-172.58706778 140.39137852 -170.62593559 139.41161319 -168 138.3125 C-164.69260936 136.6709642 -164.01564106 136.0259055 -162 132.6875 C-160.73806064 128.0340986 -159.78745587 124.35120565 -162.08984375 119.88671875 C-162.96314208 118.50209792 -163.86802852 117.13671151 -164.80859375 115.796875 C-166 114 -166 114 -167 111 C-166.505 110.01 -166.505 110.01 -166 109 C-165.82169418 106.2552596 -165.72232725 103.55920948 -165.6875 100.8125 C-165.65849609 100.06935547 -165.62949219 99.32621094 -165.59960938 98.56054688 C-165.55272672 94.44569221 -165.89045092 91.73423876 -168.08203125 88.19921875 C-170 85 -170 85 -169.92578125 82.9453125 C-169.62027344 82.30335938 -169.31476563 81.66140625 -169 81 C-168.58105469 80.04867187 -168.16210938 79.09734375 -167.73046875 78.1171875 C-167.22128906 77.04726563 -166.71210938 75.97734375 -166.1875 74.875 C-164.2280408 70.75177781 -162.52413356 66.69635141 -161.0625 62.375 C-159.66611637 58.87268822 -159.2052131 58.13820474 -155.9375 55.9375 C-151.13661213 54.44901511 -145.99188981 54.26178084 -141 54 C-142.8203125 58.78125 -142.8203125 58.78125 -144.4375 60.75 C-151.10096732 70.34539293 -149.71542405 82.2710467 -147.75 93.1875 C-146.56331202 99.24813666 -145.27810213 105.68513588 -142 111 C-135.69024244 113.10325252 -130.60960899 111.950044 -124.6796875 109.390625 C-114.37106558 104.04096115 -106.16148653 96.21453819 -99.18798828 87.0559082 C-86.17068152 69.96520566 -70.30687458 59.06120825 -51.3112793 49.30078125 C-28.60901607 37.63162023 -12.0105824 22.67920028 0 0 Z " fill="#E07A86" transform="translate(501,358)"/>
<path d="M0 0 C0.01417969 0.556875 0.02835937 1.11375 0.04296875 1.6875 C0.42258873 7.76141971 1.70637768 12.52410126 6 17 C10.40684023 19.76225855 14.91380549 21.07767952 20 22 C18.39116366 31.39412485 14.23551726 37.96245063 8 45 C4.78998825 47.14000783 3.40245918 47.35996475 -0.34765625 47.7109375 C-1.95459351 47.87299683 -1.95459351 47.87299683 -3.59399414 48.03833008 C-4.73860107 48.14943115 -5.88320801 48.26053223 -7.0625 48.375 C-29.13752689 50.74359113 -48.90101279 55.93607923 -68.609375 66.265625 C-71.37662959 67.68113311 -74.0927033 68.91253787 -77 70 C-79.60500476 64.57955835 -80.75400293 59.62536311 -81.5625 53.6875 C-81.80827886 52.00236754 -82.05566001 50.31746795 -82.3046875 48.6328125 C-82.42166992 47.83262695 -82.53865234 47.03244141 -82.65917969 46.20800781 C-83.19361863 42.74563973 -83.90493286 39.3283089 -84.66796875 35.91015625 C-85 34 -85 34 -85 30 C-84.35838425 29.77164459 -83.71676849 29.54328918 -83.05570984 29.30801392 C-76.86801188 27.10541926 -70.68092687 24.90111155 -64.49444866 22.69509315 C-61.31749135 21.56229275 -58.14027253 20.43024054 -54.96264648 19.29931641 C-38.04639592 13.28430532 -38.04639592 13.28430532 -21.18994141 7.10449219 C-20.5610605 6.87035551 -19.93217958 6.63621883 -19.28424168 6.39498711 C-16.2760965 5.27386188 -13.26997994 4.14763077 -10.26603699 3.01528931 C-9.20733902 2.61885223 -8.14864105 2.22241516 -7.05786133 1.81396484 C-6.12613602 1.46264496 -5.19441071 1.11132507 -4.23445129 0.74935913 C-2 0 -2 0 0 0 Z " fill="#A12524" transform="translate(175,123)"/>
<path d="M0 0 C1.27450447 0.59638333 2.54446877 1.20247416 3.8125 1.8125 C4.87404297 2.31716797 4.87404297 2.31716797 5.95703125 2.83203125 C8.13683847 4.07823079 9.5105375 4.97140691 11 7 C12.75572234 16.45912425 10.20699097 24.14910453 5 32 C0.3597878 38.05146895 -7.04439035 43.97189591 -14.6171875 45.54296875 C-18.09584972 47.67008516 -18.42852312 50.17931077 -19.4140625 54.02734375 C-20.677564 60.43750802 -21.21614532 66.92665979 -21.81640625 73.42578125 C-21.92855469 74.50214844 -22.04070312 75.57851562 -22.15625 76.6875 C-22.24712891 77.66074219 -22.33800781 78.63398438 -22.43164062 79.63671875 C-23 82 -23 82 -26 84 C-30.08685526 83.74905275 -33.22382588 80.98467294 -36.5 78.75 C-48.4750288 70.88135972 -61.18344823 67.30052535 -75 64 C-75.82628906 63.79503906 -76.65257812 63.59007812 -77.50390625 63.37890625 C-94.46836878 60.80370615 -109.50610094 64.24830063 -123.6875 73.8125 C-126.92303619 76.87314234 -129.43638629 80.37041633 -132 84 C-133.65 83.67 -135.3 83.34 -137 83 C-137.80078125 80.87109375 -137.80078125 80.87109375 -138 78 C-136.46491739 75.7234204 -135.07817093 74.00032213 -133.1875 72.0625 C-132.43351929 71.26972656 -132.43351929 71.26972656 -131.66430664 70.4609375 C-120.17128565 58.76761421 -104.89472852 54.07604124 -88.8125 53.6875 C-74.18182413 53.93898786 -59.14281724 57.42859138 -46 64 C-49.28352631 54.77575198 -49.28352631 54.77575198 -55.80419922 47.89550781 C-59.16594947 46.54282137 -62.62407349 45.76234702 -66.1484375 44.953125 C-74.68688518 42.84016229 -81.03369446 37.12556882 -86 30 C-88.92235807 24.67099411 -90.57295156 18.07328649 -90 12 C-87.5625 8.875 -87.5625 8.875 -85 7 C-84.79697266 7.94359375 -84.79697266 7.94359375 -84.58984375 8.90625 C-82.70504342 16.40030638 -80.00707106 21.89357802 -73.27246094 26.07177734 C-59.550902 33.83902389 -46.65133569 38.41285654 -30.8125 34.75 C-20.85838925 31.96699114 -7.54816267 27.24693778 -2 18 C0.78399171 12.292817 0.18056489 6.19939463 0 0 Z " fill="#E07B87" transform="translate(277,149)"/>
<path d="M0 0 C2.00720923 0.28674418 4.0085944 0.61866701 6 1 C6.82134989 3.49738858 7.63215748 5.99744805 8.4375 8.5 C8.66759766 9.19609375 8.89769531 9.8921875 9.13476562 10.609375 C10.67049584 15.41687828 11.5077359 19.97551131 12 25 C13.39994416 24.42660239 14.79477471 23.84071546 16.1875 23.25 C17.35345703 22.76273438 17.35345703 22.76273438 18.54296875 22.265625 C21.34596809 20.82179068 23.59748787 19.0312536 26 17 C26.32613281 18.12277344 26.65226562 19.24554688 26.98828125 20.40234375 C27.42945795 21.91412951 27.87088016 23.42584363 28.3125 24.9375 C28.5396167 25.71786621 28.7667334 26.49823242 29.00073242 27.30224609 C30.16912233 31.28714932 31.3950086 35.22008377 32.8125 39.125 C34.07030949 42.86228451 34.5441165 46.03572262 34 50 C30.36635092 54.97944504 25.07732903 56.06656084 19.3125 57.375 C15.24796372 58.34869112 11.52194323 59.52825316 7.6875 61.1875 C3.63310668 62.88226248 0.44594723 63.63513532 -4 63 C-5.67578125 61.87890625 -5.67578125 61.87890625 -7 60 C-7.328125 56.96875 -7.328125 56.96875 -7.25 53.5 C-7.23453125 52.3553125 -7.2190625 51.210625 -7.203125 50.03125 C-7 47 -7 47 -6 44 C-6.94875 44.66 -7.8975 45.32 -8.875 46 C-13.46035076 48.67400332 -17.83628477 48.37403169 -23 48 C-23.33 48.99 -23.66 49.98 -24 51 C-27.37543675 52.95572516 -31.14092729 54.30866284 -35.046875 53.66015625 C-38.67294908 52.22677227 -41.12734563 50.41484033 -43 47 C-43 46.34 -43 45.68 -43 45 C-42.30132812 44.87882812 -41.60265625 44.75765625 -40.8828125 44.6328125 C-39.51769531 44.38144531 -39.51769531 44.38144531 -38.125 44.125 C-36.76761719 43.88136719 -36.76761719 43.88136719 -35.3828125 43.6328125 C-32.83494012 43.16955297 -32.83494012 43.16955297 -31 41 C-31.26356178 36.38766885 -33.65114776 32.8435764 -36 29 C-40.75931232 21.21203438 -40.75931232 21.21203438 -41 17 C-39 15 -39 15 -36.703125 14.85546875 C-32.38282149 16.68473021 -30.94365553 20.31597488 -28.75 24.3125 C-28.30398437 25.08529297 -27.85796875 25.85808594 -27.3984375 26.65429688 C-25.4494318 30.08868116 -23.82026945 33.11133536 -23 37 C-21.54096742 36.69078116 -20.08279278 36.37751201 -18.625 36.0625 C-17.81289063 35.88847656 -17.00078125 35.71445313 -16.1640625 35.53515625 C-13.970537 35.07669307 -13.970537 35.07669307 -12 34 C-12.59383439 30.44839844 -13.54269878 27.51827922 -15.1015625 24.27734375 C-15.50890625 23.40916016 -15.91625 22.54097656 -16.3359375 21.64648438 C-17.19827358 19.83427203 -18.06550048 18.02437922 -18.9375 16.21679688 C-19.34226562 15.34990234 -19.74703125 14.48300781 -20.1640625 13.58984375 C-20.53998535 12.80472412 -20.9159082 12.01960449 -21.30322266 11.21069336 C-22.09629904 8.69446819 -21.87920345 7.45010747 -21 5 C-19.35 4.67 -17.7 4.34 -16 4 C-12.41219828 9.21862069 -9.71894514 14.59031537 -7.1875 20.375 C-6.87353271 21.08914062 -6.55956543 21.80328125 -6.23608398 22.5390625 C-4 27.73654743 -4 27.73654743 -4 30 C-1.03 29.67 1.94 29.34 5 29 C4.19034666 25.70760893 3.3774149 22.41608882 2.5625 19.125 C2.33240234 18.18785156 2.10230469 17.25070313 1.86523438 16.28515625 C1.64287109 15.38925781 1.42050781 14.49335938 1.19140625 13.5703125 C0.98717041 12.74289551 0.78293457 11.91547852 0.57250977 11.06298828 C0.05992006 8.96004845 0.05992006 8.96004845 -1 7 C-1.125 3.9375 -1.125 3.9375 -1 1 C-0.67 0.67 -0.34 0.34 0 0 Z " fill="#E07B86" transform="translate(69,164)"/>
<path d="M0 0 C2.78357514 1.29454477 5.01341758 2.73732447 7.375 4.6875 C17.89130382 12.6232348 29.26867281 16.42605776 42 19 C42.92039063 19.18691406 43.84078125 19.37382812 44.7890625 19.56640625 C49.47160132 20.19871989 54.15664232 20.36750012 58.875 20.5625 C60.33679688 20.62727539 60.33679688 20.62727539 61.828125 20.69335938 C64.21862802 20.79882274 66.60922444 20.90094175 69 21 C65.11869467 25.12904823 60.95465561 28.38779172 56.3125 31.625 C55.57064453 32.14425049 54.82878906 32.66350098 54.06445312 33.19848633 C43.08803003 40.79604199 31.69086472 47.67458611 19.9375 54 C19.27169922 54.36182373 18.60589844 54.72364746 17.91992188 55.09643555 C13.10538436 57.62935844 8.19913393 59.41344157 3 61 C2.96261719 59.98164063 2.92523438 58.96328125 2.88671875 57.9140625 C2.53952489 50.03492592 1.84952091 42.38905426 0.4375 34.625 C-0.75018714 27.98478116 -1.41324072 21.76212081 -1 15 C-0.94489258 14.05253906 -0.94489258 14.05253906 -0.88867188 13.0859375 C-0.6311828 8.72088457 -0.32952197 4.36028179 0 0 Z " fill="#F6A7A4" transform="translate(150,300)"/>
<path d="M0 0 C10.2845539 5.27054236 16.96197288 11.04622262 23 21 C23.43828125 21.71414063 23.8765625 22.42828125 24.328125 23.1640625 C29.75981607 33.98919329 27.85452421 48.66182985 25 60 C20.70359201 60 18.05860913 57.64907764 14.625 55.3125 C13.965 54.87744141 13.305 54.44238281 12.625 53.99414062 C6.05793821 49.57903434 0.15017512 44.41983397 -3 37 C-3.98800311 30.93083802 -2.71834495 25.10771092 -1.51171875 19.16015625 C-0.48654285 12.82910814 -0.30513404 6.39978501 0 0 Z " fill="#FBC3C0" transform="translate(387,258)"/>
<path d="M0 0 C0 0.66 0 1.32 0 2 C-11.98829318 8.41667305 -23.25742994 12.87513033 -37 10 C-43.31448406 7.99804997 -49.17248414 5.11914827 -55 2 C-55 1.34 -55 0.68 -55 0 C-52.27399186 -1.31942401 -49.54454161 -2.63067715 -46.8125 -3.9375 C-46.04357422 -4.31068359 -45.27464844 -4.68386719 -44.48242188 -5.06835938 C-28.09624869 -12.87464789 -15.41571415 -7.36237353 0 0 Z " fill="#E07B87" transform="translate(264,100)"/>
<path d="M0 0 C8.77374559 0.48743031 15.97053488 3.47186963 22.125 9.875 C24.41948539 12.74851826 24.99027777 13.94263887 25.625 17.6875 C24.69237008 22.63043858 23.15649377 24.95633489 19.4375 28.3125 C14.85947787 30.55989268 11.0120878 30.97062134 6 30 C2.13913641 27.18478696 0.41025736 24.49791333 -1 20 C-1.16350608 17.2702799 -1.23492693 14.66080408 -1.1875 11.9375 C-1.18685547 11.23044922 -1.18621094 10.52339844 -1.18554688 9.79492188 C-1.15684054 6.39800533 -1.05413497 3.24673571 0 0 Z " fill="#D8E1FB" transform="translate(315,42)"/>
<path d="M0 0 C2.05078125 0.58203125 2.05078125 0.58203125 4 2 C5.13375707 4.36000485 5.97807954 6.46260798 6.75 8.9375 C7.07303101 9.94369385 7.07303101 9.94369385 7.40258789 10.97021484 C9.71151961 18.63985191 10.29780315 25.55676558 7 33 C0.50301636 32.6519473 -3.98018948 31.24240623 -9 27 C-13.46455501 21.64253399 -13.44172827 16.93520703 -13.43359375 10.0859375 C-12.9510156 6.65137231 -12.06280154 4.76658089 -10 2 C-6.29873141 -0.46751239 -4.37776468 -0.30721156 0 0 Z " fill="#DF7985" transform="translate(188,112)"/>
<path d="M0 0 C6.42061579 4.70845158 9.25821081 12.45224683 11 20 C11 21.32 11 22.64 11 24 C7.62529496 24.11689626 4.2511157 24.18747934 0.875 24.25 C-0.07632812 24.28351563 -1.02765625 24.31703125 -2.0078125 24.3515625 C-8.03488122 24.43527179 -11.40253627 24.00039052 -16 20 C-18.34833356 17.01121183 -18.42117149 13.77793918 -18.31640625 10.02734375 C-17.63035671 5.63154485 -15.03226533 2.91429215 -11.8125 0.0625 C-7.6781682 -1.49935868 -4.21836281 -1.23707907 0 0 Z " fill="#D6DDF8" transform="translate(430,78)"/>
<path d="M0 0 C8.15291785 15.46564951 8.15291785 15.46564951 6 25 C3.85239754 28.40654184 1.88727423 30.77828524 -2 32 C-6.28261351 32.47584595 -8.47440024 32.27767535 -12.3125 30.25 C-15.36162107 27.69724747 -16.60587582 25.82413227 -17.44140625 21.95703125 C-17.78375939 15.89406763 -16.00434836 12.63934026 -12.08203125 8.0859375 C-4.01123596 0 -4.01123596 0 0 0 Z " fill="#DAE2FA" transform="translate(430,13)"/>
<path d="M0 0 C3.3223668 0.78444772 4.92381431 2.86219833 6.96875 5.46484375 C9.0807295 9.68880276 8.46878478 14.87831787 7.96875 19.46484375 C6.31713448 24.07159196 3.68812335 27.30303896 -0.40625 29.96484375 C-4.26190424 31.56028689 -6.90273437 31.80186543 -11.03125 31.46484375 C-11.36125 32.12484375 -11.69125 32.78484375 -12.03125 33.46484375 C-14.18280784 23.90429237 -13.72017888 13.60457798 -10.03125 4.46484375 C-7.0070079 0.71782681 -4.93604851 -0.23022614 0 0 Z " fill="#DF7985" transform="translate(287.03125,112.53515625)"/>
<path d="M0 0 C6.19496645 0.92584114 9.33294435 6.84896045 12.9375 11.5 C14.45029277 15.05951239 14.57065447 18.19049586 14 22 C12.76467542 24.84124653 11.7444561 26.42097859 9.3125 28.3125 C5.81581194 29.35205591 2.56997282 29.68521551 -1 29 C-4.52379766 27.02970454 -6.70068885 24.89793345 -8 21 C-9.19319019 12.8181244 -4.38892491 6.58338737 0 0 Z " fill="#D8E0F9" transform="translate(384,45)"/>
<path d="M0 0 C4.08799807 1.54264078 6.96758345 3.04807892 9 7 C9.625 9.75 9.625 9.75 9 13 C4.75781878 19.54324315 -1.42243184 24.76024196 -9 26.8125 C-9.66 26.874375 -10.32 26.93625 -11 27 C-14.06691966 19.4422337 -15.62551923 12.33471793 -12.6875 4.5 C-9.35907392 -0.4310016 -5.54167208 -0.68221342 0 0 Z " fill="#DDE2F8" transform="translate(373,96)"/>
<path d="M0 0 C0.99 0.33 1.98 0.66 3 1 C3.93957309 5.75006397 4.1516857 10.36183616 4.125 15.1875 C4.13080078 16.25387695 4.13080078 16.25387695 4.13671875 17.34179688 C4.13078494 20.49561884 4.00443535 22.98669395 3 26 C-7.15458643 25.13944183 -15.19550921 20.75022715 -24 16 C-24 15.01 -24 14.02 -24 13 C-23.17757813 12.63648438 -22.35515625 12.27296875 -21.5078125 11.8984375 C-10.01782945 7.15119547 -10.01782945 7.15119547 0 0 Z " fill="#8C91C2" transform="translate(439,121)"/>
<path d="M0 0 C10.38266647 1.99666663 19.36660587 6.71357833 27 14 C21.09970977 21.60826898 14.33283008 27.2191422 5 30 C4.96132813 28.35064453 4.96132813 28.35064453 4.921875 26.66796875 C4.64192587 18.56229413 4.08320687 11.56405872 0.83984375 4.00390625 C0 2 0 2 0 0 Z " fill="#7C7FB6" transform="translate(460,54)"/>
<path d="M0 0 C7.7330178 3.52734145 14.162577 7.84061396 19 15 C19 15.99 19 16.98 19 18 C6.5 20.5 6.5 20.5 -6 23 C-5.31589537 5.31589537 -5.31589537 5.31589537 0 0 Z " fill="#8589BC" transform="translate(370,12)"/>
<path d="M0 0 C2.5625 0.25 2.5625 0.25 5 1 C9.54821283 10.09642565 9.85759815 28.08103161 8 38 C6.2058164 41.67075318 4.16118101 44.40737673 1 47 C0.67 47 0.34 47 0 47 C-0.02505615 46.09870361 -0.0501123 45.19740723 -0.07592773 44.26879883 C-0.17221546 40.85986391 -0.27136027 37.45103508 -0.37231445 34.04223633 C-0.41509012 32.57905218 -0.45679271 31.11583619 -0.49731445 29.65258789 C-0.55643988 27.52480263 -0.61901248 25.39715764 -0.68359375 23.26953125 C-0.70424896 22.57199738 -0.72490417 21.8744635 -0.7461853 21.15579224 C-0.93275226 15.56180458 -1.39780026 10.01391989 -1.99633789 4.44799805 C-1.99754639 3.64015869 -1.99875488 2.83231934 -2 2 C-1.34 1.34 -0.68 0.68 0 0 Z " fill="#E17D88" transform="translate(251,242)"/>
<path d="M0 0 C0.20086443 3.71599191 0.1519437 4.77208445 -2 8 C-4.5063107 8.88130785 -6.94190532 9.62472414 -9.5 10.3125 C-17.12702497 12.52050242 -23.35201376 15.62515781 -29.796875 20.3046875 C-33.6090535 23.04115226 -33.6090535 23.04115226 -36.375 22.75 C-36.91125 22.5025 -37.4475 22.255 -38 22 C-38.33 20.35 -38.66 18.7 -39 17 C-28.52466504 7.88257883 -14.31529993 -0.43379697 0 0 Z " fill="#E07D88" transform="translate(299,200)"/>
<path d="M0 0 C0.4375 2.0625 0.4375 2.0625 0 5 C-1.57147125 6.79466571 -3.30161414 8.35121737 -5.05078125 9.97265625 C-9.00896894 14.08948873 -12.03226744 19.28795936 -13.94921875 24.66015625 C-15.66914911 28.49003835 -18.2926326 29.21251929 -22 31 C-22.66 31 -23.32 31 -24 31 C-22.39330907 18.2295773 -16.12818045 8.8725914 -7 0 C-4.3333581 -1.33332095 -2.83319697 -0.67102033 0 0 Z " fill="#E07B87" transform="translate(188,325)"/>
<path d="M0 0 C8.58 0 17.16 0 26 0 C21.47547974 9.04904051 21.47547974 9.04904051 18.4375 11.9375 C17.56931641 12.78634766 17.56931641 12.78634766 16.68359375 13.65234375 C15 15 15 15 12 16 C10.55410731 14.46620188 9.11865196 12.92256145 7.6875 11.375 C6.48673828 10.08722656 6.48673828 10.08722656 5.26171875 8.7734375 C3 6 3 6 0 0 Z " fill="#8B91C4" transform="translate(345,143)"/>
<path d="M0 0 C2.70343211 2.70343211 3.15970399 5.71161401 4.0625 9.3125 C4.23587891 9.97701172 4.40925781 10.64152344 4.58789062 11.32617188 C5.5016468 14.86566419 6.32591118 18.4071761 7 22 C5.04196493 22.05389087 3.08351091 22.09274217 1.125 22.125 C-0.51082031 22.15980469 -0.51082031 22.15980469 -2.1796875 22.1953125 C-5 22 -5 22 -7 20 C-7.69846313 13.01536873 -5.88541643 7.58571396 -1.8125 2 C-1.214375 1.34 -0.61625 0.68 0 0 Z " fill="#FEFCFB" transform="translate(218,126)"/>
<path d="M0 0 C4.61729027 4.11812376 7.65083638 8.07667059 8.21484375 14.4140625 C8.24661378 16.63796481 8.24667498 18.78941269 8 21 C7 22 7 22 3.83984375 22.09765625 C2.55207031 22.08605469 1.26429688 22.07445312 -0.0625 22.0625 C-1.35285156 22.05347656 -2.64320313 22.04445312 -3.97265625 22.03515625 C-4.97167969 22.02355469 -5.97070312 22.01195312 -7 22 C-6.57847656 20.91460937 -6.15695313 19.82921875 -5.72265625 18.7109375 C-5.16897591 17.26573796 -4.61560695 15.82041909 -4.0625 14.375 C-3.78470703 13.66214844 -3.50691406 12.94929687 -3.22070312 12.21484375 C-1.67271388 8.14904068 -0.54164048 4.34683625 0 0 Z " fill="#FEFCFC" transform="translate(251,126)"/>
<path d="M0 0 C6.93 0 13.86 0 21 0 C21.33 1.32 21.66 2.64 22 4 C21.01 5.485 21.01 5.485 20 7 C18.12060547 7.34057617 18.12060547 7.34057617 15.8671875 7.29296875 C15.06152344 7.28330078 14.25585938 7.27363281 13.42578125 7.26367188 C12.58402344 7.23853516 11.74226562 7.21339844 10.875 7.1875 C10.02550781 7.17396484 9.17601562 7.16042969 8.30078125 7.14648438 C6.20025163 7.11108219 4.10004707 7.05727401 2 7 C0.5393715 4.35261084 0 3.10551666 0 0 Z " fill="#E07C87" transform="translate(224,141)"/>
<path d="M0 0 C3.73669693 0.41518855 6.73738338 1.11772118 10 3 C10.125 5.375 10.125 5.375 10 8 C9.34 8.66 8.68 9.32 8 10 C3.75534029 9.72317437 1.18382329 8.81645906 -2 6 C-1.125 1.125 -1.125 1.125 0 0 Z " fill="#E27E89" transform="translate(182,286)"/>
</svg>
