<?xml version="1.0" encoding="UTF-8"?>
<svg version="1.1" xmlns="http://www.w3.org/2000/svg" width="512" height="512">
<path d="M0 0 C4.08871182 1.36290394 5.00507812 2.97016602 7.03125 6.65234375 C17.16033983 27.76602086 16.934841 50.62680008 12.1875 73.0625 C7.52384185 95.31138369 9.4111302 113.35623028 21.1875 133.0625 C23.90045216 137.03938114 26.78529691 140.66029691 30.1875 144.0625 C30.661875 142.928125 31.13625 141.79375 31.625 140.625 C33.1875 137.0625 33.1875 137.0625 34.1875 136.0625 C39.41153889 135.60823575 39.41153889 135.60823575 41.90234375 137.06640625 C43.96710459 140.27337522 43.23409739 143.61135828 42.875 147.25 C42.81376953 147.99958984 42.75253906 148.74917969 42.68945312 149.52148438 C42.53641389 151.36972745 42.36383121 153.2163335 42.1875 155.0625 C42.90808594 155.33964844 43.62867188 155.61679688 44.37109375 155.90234375 C47.95567449 157.37893249 51.34669904 159.15595158 54.78515625 160.94140625 C56.94643771 161.95000426 58.87858205 162.52587541 61.1875 163.0625 C61.2299585 162.27488281 61.27241699 161.48726562 61.31616211 160.67578125 C61.83169946 152.61790266 63.00272774 144.93946306 64.75 137.0625 C65.01393555 135.86117432 65.27787109 134.65984863 65.54980469 133.42211914 C85.75947792 43.41898191 85.75947792 43.41898191 109.1875 23.0625 C111.71364413 22.15042362 113.45521238 22.0625 116.1875 22.0625 C119.92568978 27.18916026 122.08019366 32.17585561 123.9375 38.1875 C124.14785889 38.868125 124.35821777 39.54875 124.57495117 40.25 C126.32955934 46.1517986 127.33380869 51.72101867 127.375 57.875 C127.38917969 58.83019531 127.40335937 59.78539062 127.41796875 60.76953125 C126.89859256 68.19044866 124.65547656 74.81871676 121.9375 81.6875 C113.87969875 102.90595297 109.11680765 125.36486457 108.1875 148.0625 C108.13464844 149.30773437 108.08179688 150.55296875 108.02734375 151.8359375 C107.71275931 165.54087708 110.23371997 172.76904455 119.1875 183.0625 C127.39667689 192.86586973 129.96653475 203.32299053 129.1875 216.0625 C128.8575 216.7225 128.5275 217.3825 128.1875 218.0625 C129.87552734 218.11857422 129.87552734 218.11857422 131.59765625 218.17578125 C145.86483068 218.7407094 158.40779124 220.82284088 171.6875 226.125 C186.68650487 232.07705002 200.83410696 233.99806364 216.4375 228.375 C229.44730032 222.60710823 238.09705216 213.72324915 244.1875 201.0625 C244.53039062 200.40507812 244.87328125 199.74765625 245.2265625 199.0703125 C248.44741002 192.05669126 248.30007074 183.52474607 246.4609375 176.1484375 C243.83846081 169.09120349 240.13644381 163.41304754 233.1875 160.0625 C229.91988421 159.39009712 226.6266508 159.05149386 223.3125 158.6875 C212.38402665 157.2874476 202.72271203 154.53259392 192.640625 150.06640625 C191.03169239 149.3557684 189.4223107 148.64614646 187.8125 147.9375 C187.01593994 147.58558594 186.21937988 147.23367187 185.39868164 146.87109375 C179.27359079 144.2704272 173.41941906 143.00605756 166.859375 142.06933594 C160.05618465 141.04102262 155.59069489 139.0083518 151.25 133.6875 C148.77689678 127.57748028 148.99309458 122.87942892 151.046875 116.74609375 C156.06441534 104.94112727 163.37106563 97.0717886 174.734375 91.421875 C183.85128484 87.83286524 193.30846391 86.26568669 202.9375 84.6875 C220.03709897 81.74592193 236.37603452 78.82536404 247.1875 64.0625 C250.63462045 58.7769153 252.44760897 53.42334667 252.1875 47.0625 C250.65978237 41.76641221 247.76726712 39.72749467 243.19140625 37.08984375 C240.91293809 35.92174019 238.56813959 35.00032772 236.1875 34.0625 C234.77308126 31.23366253 234.86849668 29.18873255 235.1875 26.0625 C238.06297198 22.85524279 241.04904694 22.61009391 245.1875 22.0625 C256.05399762 21.47143528 265.34354437 21.96315362 275.1875 27.0625 C273.75124953 22.67815644 272.6427231 19.29450247 269.4375 15.9375 C267.1875 13.0625 267.1875 13.0625 267.125 9.8125 C268.1875 7.0625 268.1875 7.0625 269.87109375 5.8515625 C276.80317219 3.49021369 286.36096985 6.96320919 292.84375 9.8046875 C304.90340944 16.27670473 312.87112523 26.65540013 317.0078125 39.63671875 C320.7235718 55.88662385 316.95476568 71.4626875 308.578125 85.48828125 C306.94985319 88.01477646 306.94985319 88.01477646 307.1875 91.0625 C308.69853229 92.85827082 308.69853229 92.85827082 310.6875 94.75 C327.85167447 113.49668701 330.09010428 140.77446771 329.33984375 164.97412109 C328.03335275 191.45987612 320.19306635 217.26125668 308.00317383 240.71630859 C297.55281766 261.51416731 293.20604788 285.22852246 287.74511719 307.70458984 C277.32421742 350.52121912 264.18543878 392.1579348 225.65625 417.62890625 C223.1875 419.0625 223.1875 419.0625 221.1875 419.0625 C222.57979003 420.79452093 223.97650556 422.52298484 225.375 424.25 C226.15230469 425.21292969 226.92960937 426.17585938 227.73046875 427.16796875 C232.37892401 432.64412988 235.42054305 435.54115438 242.4375 437.5625 C255.89010528 441.72179105 267.13283705 448.82471793 274.00390625 461.5546875 C277.38419289 468.716879 278.47435661 475.12598591 278.625 483 C278.65859619 484.11967163 278.65859619 484.11967163 278.69287109 485.26196289 C278.66991945 490.5571487 278.66991945 490.5571487 276.56034851 492.76699829 C273.46309154 494.45800456 271.25048268 494.44339506 267.72583008 494.45068359 C266.41379105 494.46014008 265.10175201 494.46959656 263.74995422 494.4793396 C262.31897684 494.47396696 260.8880022 494.46781328 259.45703125 494.4609375 C257.98215084 494.46296006 256.50727141 494.46587302 255.03239441 494.46963501 C251.9397124 494.47405674 248.84729042 494.46763705 245.75463867 494.45361328 C241.81173924 494.43659619 237.86945587 494.44631538 233.92657948 494.46433067 C230.87828542 494.47523705 227.83013422 494.47168973 224.78183556 494.4639473 C223.32953504 494.46196024 221.87722113 494.46435143 220.42493629 494.47138596 C208.45761661 494.51660052 199.23868508 493.37754433 190.1875 485.0625 C186.01354523 480.7622531 181.82716515 476.42509107 178.4050293 471.49414062 C175.74261271 468.57465706 174.2525998 468.17816305 170.41015625 467.47265625 C169.26724121 467.24908447 168.12432617 467.0255127 166.94677734 466.79516602 C165.72684082 466.57401123 164.5069043 466.35285645 163.25 466.125 C160.70076472 465.61989495 158.15258648 465.10942712 155.60546875 464.59375 C154.34524902 464.33980469 153.0850293 464.08585937 151.78662109 463.82421875 C139.08310638 461.13564421 126.75746403 457.29715715 114.86865234 452.07055664 C110.91776967 450.32838547 110.91776967 450.32838547 106.75390625 450.75 C105.05416482 451.99721121 105.05416482 451.99721121 104.1875 454.0625 C105.0228125 454.43375 105.0228125 454.43375 105.875 454.8125 C113.77121072 459.08072201 117.88997702 466.22186266 121.0625 474.4375 C122.64628574 479.74839829 123.22809523 485.60552027 122.1875 491.0625 C119.88056366 493.39130028 118.48210472 494.02489909 115.20770264 494.44281673 C114.03669006 494.44524663 112.86567749 494.44767653 111.65917969 494.45018005 C111.00521587 494.45556559 110.35125206 494.46095113 109.67747116 494.46649987 C107.48791391 494.48079834 105.29895962 494.4736715 103.109375 494.46655273 C101.53893548 494.4722553 99.96850011 494.47921911 98.39807129 494.48735046 C94.13365311 494.50530846 89.86944038 494.50410871 85.60499573 494.49840808 C82.04616688 494.49532043 78.48737774 494.50140386 74.92855453 494.50744683 C66.53436742 494.52149874 58.14028206 494.51992487 49.74609375 494.50854492 C41.0822693 494.49705909 32.41875423 494.51114558 23.75497055 494.5379414 C16.31877332 494.56008049 8.88267333 494.56673995 1.44644547 494.56086498 C-2.99594277 494.55749037 -7.4381326 494.55994396 -11.88049316 494.57711601 C-16.05682529 494.59255497 -20.23269806 494.58866391 -24.40901184 494.56981087 C-25.94248871 494.56611667 -27.4759994 494.56925764 -29.00944519 494.57969666 C-31.10155652 494.59285258 -33.19213488 494.5814101 -35.28417969 494.56370544 C-36.45519226 494.56349616 -37.62620483 494.56328688 -38.83270264 494.56307125 C-42.45386381 493.95475835 -43.58687307 492.92546534 -45.8125 490.0625 C-48.71794461 483.37997739 -47.99132446 476.22541293 -47.8125 469.0625 C-49.0809375 469.36994141 -49.0809375 469.36994141 -50.375 469.68359375 C-52.0765625 470.08771484 -52.0765625 470.08771484 -53.8125 470.5 C-55.483125 470.90025391 -55.483125 470.90025391 -57.1875 471.30859375 C-83.28321527 476.73582764 -109.53597334 471.57241666 -131.8125 457.0625 C-156.65891408 439.26841896 -172.30807808 409.79729731 -177.8125 380.0625 C-186.59614083 322.42065383 -156.56645032 265.11649873 -123.8125 220.0625 C-122.83720363 218.73734846 -121.86071848 217.41307068 -120.8828125 216.08984375 C-115.96844787 209.41476496 -111.63672841 202.92671325 -108.8125 195.0625 C-108.49539062 194.18980469 -108.17828125 193.31710938 -107.8515625 192.41796875 C-105.87054473 185.92059396 -105.53783127 179.61702774 -105.5 172.875 C-105.49444092 172.04363525 -105.48888184 171.21227051 -105.4831543 170.35571289 C-105.54872606 164.70589261 -106.37807146 159.52350986 -107.8125 154.0625 C-110.93540635 154.54828543 -113.80830359 155.0611012 -116.8125 156.0625 C-117.69164855 158.03095043 -117.69164855 158.03095043 -118.25 160.375 C-119.42900616 164.18549929 -120.29335032 166.85046306 -123.8125 169.0625 C-130.27592501 168.70736676 -132.82475049 165.70595888 -137.09765625 161.1953125 C-143.99509627 153.40343511 -149.9395007 144.9310161 -154.9375 135.8125 C-157.9860738 130.26907295 -161.46612171 125.6599746 -165.56640625 120.86328125 C-172.50652684 112.20925262 -178.4379372 103.02380941 -178.26953125 91.6640625 C-177.76007534 88.76408272 -177.21455421 87.81684873 -175 85.9375 C-171.8125 84.0625 -171.8125 84.0625 -168.8125 83.0625 C-167.78236723 81.41428756 -166.78135372 79.74746298 -165.8125 78.0625 C-155.17195116 72.74222558 -135.88475953 78.50334027 -125.24658203 81.87597656 C-107.17557275 88.11259853 -86.51597939 98.30623355 -73.8125 113.0625 C-73.4375 116.6875 -73.4375 116.6875 -73.8125 120.0625 C-76.00958121 122.25958121 -77.33023333 122.70927679 -80.25 123.625 C-81.03246094 123.87378906 -81.81492187 124.12257813 -82.62109375 124.37890625 C-83.34425781 124.60449219 -84.06742187 124.83007812 -84.8125 125.0625 C-86.2975 125.5575 -86.2975 125.5575 -87.8125 126.0625 C-89.03786159 128.61020972 -89.03786159 128.61020972 -88.8125 132.0625 C-87.32477491 134.03448232 -87.32477491 134.03448232 -85.3125 136 C-70.24159943 151.65156574 -69.29104426 174.55481646 -69.55859375 194.9921875 C-70.27387559 221.24683192 -83.89392369 247.93191137 -96.3125 270.67578125 C-110.58901962 296.83919987 -117.88286311 326.37395841 -110.71875 356.05859375 C-108.45899886 363.54888957 -105.4908921 368.70280121 -98.8125 373.0625 C-92.80471839 375.96692422 -86.01116236 376.15239668 -79.5703125 374.48046875 C-64.33724431 367.78158936 -54.40851575 348.35218446 -46.37719727 334.70483398 C-42.89001789 328.79488742 -39.24982433 323.01812925 -35.4375 317.3125 C-34.9619165 316.59860107 -34.48633301 315.88470215 -33.99633789 315.14916992 C-33.53606201 314.4657251 -33.07578613 313.78228027 -32.6015625 313.078125 C-32.15329102 312.41232422 -31.70501953 311.74652344 -31.24316406 311.06054688 C-29.8125 309.0625 -29.8125 309.0625 -28.09277344 307.01757812 C-24.6257673 302.96033633 -24.6257673 302.96033633 -23.76171875 297.84375 C-24.10847656 296.5959375 -24.45523438 295.348125 -24.8125 294.0625 C-25.24305321 292.15790245 -25.66533816 290.25142785 -26.08203125 288.34375 C-26.452677 286.72351929 -26.452677 286.72351929 -26.83081055 285.07055664 C-33.31845623 256.41363048 -35.77653469 227.31516361 -37.8125 198.0625 C-37.88597656 197.04526855 -37.95945313 196.02803711 -38.03515625 194.97998047 C-42.19887694 135.10434815 -44.66344664 52.22768812 -6.0390625 2.3828125 C-4.05444712 0.24650677 -2.9347278 0.06521617 0 0 Z " fill="#3D3D4F" transform="translate(180.8125,8.9375)"/>
<path d="M0 0 C2.29860121 2.89852938 4.01209089 5.83178897 5.6875 9.125 C10.78047571 18.57978164 17.97525653 27.98350435 27 34 C27.29959853 38.71867687 26.99770345 43.19151071 26.50390625 47.8828125 C25.86111665 54.89554162 25.71291064 61.89844111 25.6875 68.9375 C25.68488159 69.64131805 25.68226318 70.34513611 25.67956543 71.07028198 C25.67273726 88.5330799 27.60489155 105.72240653 30 123 C30.1654834 124.19641113 30.3309668 125.39282227 30.50146484 126.62548828 C32.25883118 138.90555581 34.59661303 150.88706582 38.29492188 162.73535156 C38.77852052 164.28862756 39.2506015 165.84552258 39.71289062 167.40527344 C47.89614992 194.96709531 61.64011106 226.73643305 86 244 C88.26424351 243.87436418 88.26424351 243.87436418 90 243 C90.75843954 240.67495874 90.75843954 240.67495874 91 238 C89.95337777 236.11611247 89.95337777 236.11611247 88.1875 234.5 C55.21794351 199.37599725 42.45686568 152.4380035 37.30957031 105.71459961 C37.06853962 103.60101894 36.77976147 101.49286351 36.47216797 99.38793945 C35.8161688 94.14520052 35.856695 88.91725793 35.8671875 83.640625 C35.86623077 82.57382507 35.86527405 81.50702515 35.86428833 80.40789795 C35.86361096 78.16564881 35.86543417 75.92339766 35.86962891 73.68115234 C35.87500466 70.24702583 35.869658 66.81302884 35.86328125 63.37890625 C35.8639417 61.19531221 35.86522216 59.01171825 35.8671875 56.828125 C35.86516327 55.80205139 35.86313904 54.77597778 35.86105347 53.71881104 C35.86578171 52.28647125 35.86578171 52.28647125 35.87060547 50.82519531 C35.87140106 49.98772766 35.87219666 49.15026001 35.87301636 48.28741455 C35.99642096 46.06447082 36.38206929 44.13352663 37 42 C42.92660463 43.76196354 48.41326404 46.38915322 54 49 C54.763125 49.33128906 55.52625 49.66257813 56.3125 50.00390625 C61.77422641 52.47616499 65.25917084 55.51834167 68 61 C68.26306211 65.99818009 67.94840904 70.70433493 67.28788757 75.66682434 C66.04642181 85.07389504 65.63888855 94.33166883 65.6875 103.8125 C65.69023422 104.93511734 65.69023422 104.93511734 65.69302368 106.08041382 C65.83821191 141.89272207 70.08258553 187.8692538 95 216 C95.50789063 216.61230469 96.01578125 217.22460938 96.5390625 217.85546875 C103.2938706 225.39223739 113.10204403 230.25330189 123 232 C119.64733437 234.78781436 116.25427103 237.10317477 112.5 239.3125 C105.82269192 243.51839527 101.8115671 248.09497995 100 256 C99.66582071 259.6675213 99.66582071 259.6675213 100 263 C101.82915641 265.23845015 101.82915641 265.23845015 104.5 265.3125 C105.325 265.209375 106.15 265.10625 107 265 C109.00968293 261.98547561 109.59262787 259.65701902 110.2421875 256.1328125 C112.40969818 250.03249895 117.27766806 247.33106074 122.5625 244.25 C138.56210997 234.87704249 138.56210997 234.87704249 148.6484375 220.015625 C149.09521698 217.93344989 149.09521698 217.93344989 149 215 C147.20595543 212.7478222 147.20595543 212.7478222 144.75 212.9375 C141.18939442 214.31318852 139.76107911 216.3866853 137.52734375 219.40625 C134.75095404 222.30335231 131.22131855 222.19347711 127.375 222.3125 C117.74924854 222.14313194 111.13026948 218.03085312 104.3125 211.46875 C91.72559601 198.03137952 85.02675013 179.32369223 81.375 161.5625 C81.16262695 160.5526001 80.95025391 159.5427002 80.73144531 158.50219727 C77.42246574 142.60755239 75.75680993 127.26671361 76 111 C107.3952728 101.97084361 139.07293397 100.26331144 169.59375 113.56640625 C184.54942161 119.86082309 202.8225988 118.81831675 217.890625 113.2890625 C218.91671875 112.86367187 219.9428125 112.43828125 221 112 C221.96421875 111.61585938 222.9284375 111.23171875 223.921875 110.8359375 C224.95054687 110.42214844 224.95054687 110.42214844 226 110 C224.41348037 115.15116817 221.18561285 118.80016703 217.875 122.9375 C203.27513688 141.65011398 196.03345621 161.16881813 193.125 184.6875 C189.39489677 212.83380867 184.92474486 240.68344751 166 263 C164.91138672 264.28970703 164.91138672 264.28970703 163.80078125 265.60546875 C160.41929682 269.49216647 157.34355885 272.97265566 152.9375 275.6875 C151.968125 276.450625 150.99875 277.21375 150 278 C149.41439551 281.71158857 149.41439551 281.71158857 150 285 C150.7115625 285.2578125 151.423125 285.515625 152.15625 285.78125 C165.16121713 291.35480734 177.49105909 302.44204457 187.78125 311.9921875 C189.32854671 313.39238206 190.93239086 314.73148114 192.57421875 316.01953125 C194.79153053 317.82980028 196.50340715 319.6083695 198.3125 321.8125 C199.53522933 323.21397578 200.76435445 324.60989876 202 326 C202.78890625 326.88751953 202.78890625 326.88751953 203.59375 327.79296875 C208.7541295 332.91816385 214.92754616 335.44520905 221.56567383 338.16015625 C228.18592828 340.89324349 232.61552313 343.72891947 236.3125 350.0625 C236.82425781 350.91972656 237.33601562 351.77695312 237.86328125 352.66015625 C239 355 239 355 239 358 C234.14369582 358.09938127 229.28799235 358.17170794 224.4309082 358.21972656 C222.78106363 358.23975797 221.1312893 358.26699142 219.48168945 358.30175781 C217.10089726 358.35065357 214.721049 358.3730528 212.33984375 358.390625 C211.61039047 358.41127014 210.88093719 358.43191528 210.12937927 358.45318604 C203.81135466 358.45591216 199.85636459 356.47239891 195.03125 352.29589844 C194.5259375 351.7393457 194.020625 351.18279297 193.5 350.609375 C192.92652832 349.98611328 192.35305664 349.36285156 191.76220703 348.72070312 C191.18067871 348.07037109 190.59915039 347.42003906 190 346.75 C189.38624512 346.07904297 188.77249023 345.40808594 188.14013672 344.71679688 C185.0788851 341.35829683 182.07686962 337.95518379 179.125 334.5 C163.57025742 316.46337071 141.26365111 303.99703256 119.8125 294.5 C109.66423234 290.00222617 100.78973069 284.75412964 92 278 C91.08476562 277.31292969 90.16953125 276.62585938 89.2265625 275.91796875 C82.46553931 270.6819082 76.22026526 264.8580055 70 259 C69.34 258.38253906 68.68 257.76507813 68 257.12890625 C62.85114223 252.15882827 58.40728117 246.6272166 54 241 C53.57702637 240.46407227 53.15405273 239.92814453 52.71826172 239.37597656 C17.62693591 194.55803837 3.09254025 137.70564467 -2 82 C-2.09788818 80.9982373 -2.19577637 79.99647461 -2.29663086 78.96435547 C-3.1791203 69.06567372 -3.1966932 59.17979152 -3.1875 49.25 C-3.18808914 47.90152985 -3.18808914 47.90152985 -3.18869019 46.52581787 C-3.16934794 9.50804381 -3.16934794 9.50804381 0 0 Z " fill="#FA867A" transform="translate(184,134)"/>
<path d="M0 0 C10.64747043 5.79429067 16.31825862 17.43259646 19.82250977 28.62768555 C21.92676341 36.19441494 22.4282149 43.23554388 22.3125 51.0625 C22.31572266 52.15626953 22.31894531 53.25003906 22.32226562 54.37695312 C22.20508106 72.28488554 16.13940736 88.02954531 9.0625 104.25 C8.78809082 104.88430939 8.51368164 105.51861877 8.23095703 106.17214966 C4.0482702 115.81734759 -0.56711116 125.15652574 -5.5 134.4375 C-10.2987181 143.49706503 -14.49714091 152.01061526 -17 162 C-17.28109619 162.98468262 -17.28109619 162.98468262 -17.56787109 163.98925781 C-23.80567152 185.94590926 -25.10634271 215.97190079 -13.73046875 236.4765625 C-8.63607384 243.90540925 -1.42129137 248.19290288 7 251 C18.33909979 251.91974158 28.03727968 251.30865514 37.43359375 244.14453125 C40.17955184 241.5969675 42.61922241 238.88297922 45 236 C45.53963379 235.34676758 46.07926758 234.69353516 46.63525391 234.02050781 C57.39150963 220.7595342 66.01005231 206.41460545 74.42871094 191.61523438 C75.83936425 189.26736019 77.2126499 187.07602864 79 185 C79.66 185 80.32 185 81 185 C81.38478516 186.36705078 81.38478516 186.36705078 81.77734375 187.76171875 C85.57562253 200.77415091 90.63334727 213.40134903 96.7734375 225.4921875 C98 228 98 228 98 230 C96.02 230.33 94.04 230.66 92 231 C91.6066177 235.09441112 91.6066177 235.09441112 93.21875 238.69921875 C95.54662299 240.39917863 96.84219109 240.14293546 99.6875 240 C103.16710999 240.26185198 104.56428483 240.57164212 107.08203125 243.046875 C109.15786466 245.9724895 111.07844922 248.97099057 113 252 C126.64918795 270.80245279 142.92103789 288.46051895 164 299 C162.59210213 304.31872527 159.4241153 307.03554179 155 310 C147.23128404 314.18152198 139.03273132 317.1848965 130.703125 320.01953125 C128.11729805 320.74149477 128.11729805 320.74149477 127 322 C126.83333333 325 126.83333333 325 127 328 C129.11577691 330.11577691 133.86642674 329.28031847 136.8125 329.375 C174.19063746 330.92368708 174.19063746 330.92368708 183 340 C185.11846092 342.99506543 186 344.30650564 186 348 C146.73 348 107.46 348 67 348 C64.04969961 342.09939922 65.16352225 331.45869454 66.6953125 325.125 C72.60086134 312.87645426 90.64520858 304.44980485 102.91162109 299.92626953 C109.22089899 297.77298376 115.59022167 295.83072642 122 294 C122.99427736 290.48228053 122.99427736 290.48228053 122.0625 287.125 C117.76901844 284.78310097 113.14166774 286.68482395 108.703125 287.91015625 C98.43708771 291.10475646 88.42401501 295.37365316 79.27539062 301.07470703 C74.78744702 303.85728324 70.7094182 305.00089717 65.5 305.75 C64.68466797 305.87068848 63.86933594 305.99137695 63.02929688 306.11572266 C37.04988382 309.57605518 9.0489591 307.25053004 -13 292 C-37.93960765 272.20781137 -47.09304184 243.92102368 -50.79949951 213.20976257 C-51.16792743 209.14923265 -51.16283654 205.09027466 -51.16796875 201.015625 C-51.17129715 200.07877869 -51.17462555 199.14193237 -51.17805481 198.17669678 C-51.18309278 196.20341478 -51.18546411 194.23012436 -51.18530273 192.25683594 C-51.18748346 189.27264008 -51.20565705 186.28881787 -51.22460938 183.3046875 C-51.27315516 168.57057848 -50.44385144 156.56552503 -43.75 143.1875 C-43.22204834 142.11363037 -42.69409668 141.03976074 -42.15014648 139.93334961 C-32.73594634 121.14762225 -21.17594909 104.01793596 -8.65917969 87.19824219 C5.52892503 67.99869227 11.0684291 46.31658329 7.65869141 22.62890625 C6.22424318 15.25840806 3.60697885 8.56985433 0 2 C0 1.34 0 0.68 0 0 Z " fill="#FA867A" transform="translate(78,144)"/>
<path d="M0 0 C2 1 2 1 3.0703125 4.04296875 C8.57607922 24.47085957 5.75259248 42.97076209 1.29867554 63.24650574 C-0.53978981 71.62860708 -2.09873147 79.9999717 -3.3125 88.5 C-3.45913086 89.48564941 -3.60576172 90.47129883 -3.75683594 91.48681641 C-6.71669907 112.99584511 -7.38033874 134.62877312 -7.3125 156.3125 C-7.31034485 157.56135986 -7.3081897 158.81021973 -7.30596924 160.09692383 C-7.25577964 178.2498917 -6.92443209 196.0500375 -4 214 C-3.8981842 214.64078491 -3.79636841 215.28156982 -3.69146729 215.94177246 C4.01783473 264.44522817 18.46861596 314.25976794 50 353 C51.07121094 354.35544922 51.07121094 354.35544922 52.1640625 355.73828125 C64.82139518 371.54876571 79.15440607 386.62127781 96.38671875 397.5078125 C98 399 98 399 98.2421875 401.12109375 C98.06042969 402.26771484 98.06042969 402.26771484 97.875 403.4375 C97.76929688 404.19933594 97.66359375 404.96117187 97.5546875 405.74609375 C96.9858634 408.05744238 96.14596816 409.92115693 95 412 C89.42692079 410.5097304 85.20883633 407.76783081 80.5 404.5625 C79.31241089 403.76005859 79.31241089 403.76005859 78.10083008 402.94140625 C50.36749984 384.00020899 27.47839347 360.36218048 11 331 C10.44965088 330.0406958 10.44965088 330.0406958 9.88818359 329.06201172 C-10.83361944 292.78313767 -19.3813769 251.30268361 -22.82421875 210.06671143 C-23.01146971 207.86514732 -23.21013213 205.66479438 -23.41015625 203.46435547 C-27.37471751 159.33350331 -28.02447052 114.96153924 -22 71 C-21.84515137 69.84113281 -21.69030273 68.68226562 -21.53076172 67.48828125 C-14.12143479 14.12143479 -14.12143479 14.12143479 0 0 Z " fill="#F8857A" transform="translate(179,26)"/>
<path d="M0 0 C0.94875 0.845625 1.8975 1.69125 2.875 2.5625 C15.9010896 13.6307605 29.71319434 20.43632523 47 20.1875 C48.27617187 20.1865332 48.27617187 20.1865332 49.578125 20.18554688 C54.79967726 20.14950855 59.83244477 19.74762084 65 19 C62.89261357 29.73103351 60.16716299 40.17443756 56.9375 50.625 C56.5971875 51.72634277 56.256875 52.82768555 55.90625 53.96240234 C54.95928727 56.9824581 53.98262492 59.99140123 53 63 C52.75942871 63.80155518 52.51885742 64.60311035 52.27099609 65.42895508 C51.18419531 68.78833256 50.27795404 70.76674876 47.546875 73.05859375 C46.62390625 73.51363281 45.7009375 73.96867187 44.75 74.4375 C43.83734375 74.91058594 42.9246875 75.38367188 41.984375 75.87109375 C36.17539799 78.06846856 30.27152251 78.16722123 24.125 78.125 C23.42681152 78.12234131 22.72862305 78.11968262 22.00927734 78.11694336 C8.99517909 77.99758954 8.99517909 77.99758954 5 76 C1.45828022 75.83330682 1.45828022 75.83330682 -2 76 C-3.32745166 77.11258591 -3.32745166 77.11258591 -3.25 79.9375 C-3.1675 80.948125 -3.085 81.95875 -3 83 C8.69837286 90.79891524 27.70868634 88.85808669 41 87 C33.80278636 104.47894741 16.49175658 118.91052019 -0.33203125 126.50390625 C-19.26382567 134.0272172 -19.26382567 134.0272172 -26 133 C-28.72422685 131.46353909 -31.15540234 129.59999116 -33.625 127.6875 C-34.29273438 127.18798828 -34.96046875 126.68847656 -35.6484375 126.17382812 C-38.62509262 123.92645351 -41.40313389 121.68500396 -44 119 C-43.38253906 118.35675781 -42.76507813 117.71351563 -42.12890625 117.05078125 C-17.03102083 90.27206332 -9.64046294 59.30495307 -5.57006836 23.74389648 C-4.56228326 15.47873194 -2.71383105 7.87142744 0 0 Z " fill="#FDE7D1" transform="translate(392,295)"/>
<path d="M0 0 C4.03343815 2.73333964 4.89308187 7.82841508 6.01171875 12.36328125 C6.30189415 15.79575078 6.44945238 19.16889696 6.4453125 22.61328125 C6.74130139 25.55502731 6.74130139 25.55502731 9.328125 27.16796875 C16.95234899 30.56391131 24.77635499 30.88623274 33.01171875 31.36328125 C32.43055435 34.76830856 31.35076854 36.40855354 28.88671875 38.80078125 C28.26410156 39.40792969 27.64148438 40.01507813 27 40.640625 C25.10654224 42.28112573 23.20152196 43.55050554 21.07421875 44.86328125 C17.5913731 47.11314658 17.5913731 47.11314658 17.57421875 51.17578125 C17.71859375 52.22765625 17.86296875 53.27953125 18.01171875 54.36328125 C18.60597656 54.62496094 19.20023437 54.88664062 19.8125 55.15625 C22.13440318 56.43061604 23.47699921 57.67906913 25.19921875 59.67578125 C25.70839844 60.24941406 26.21757812 60.82304687 26.7421875 61.4140625 C28.23752295 63.70997754 28.62706561 65.67070925 29.01171875 68.36328125 C28.16609375 67.91855469 27.32046875 67.47382813 26.44921875 67.015625 C18.71827339 63.15893748 14.51535796 61.41551303 6.19628906 63.90698242 C-14.98524828 68.33124408 -36.7073672 63.08758183 -55.796875 54.26171875 C-64.48890647 50.27045987 -72.87040858 47.97185622 -82.37109375 46.85546875 C-84.98828125 46.36328125 -84.98828125 46.36328125 -86.98828125 44.36328125 C-87.61571127 38.18048123 -85.35921624 33.39037913 -81.796875 28.50390625 C-74.8915252 20.33083565 -67.62914192 16.3562321 -57.171875 14.6015625 C-55.42893622 14.28885237 -53.68618547 13.97509283 -51.94360352 13.66040039 C-50.58925705 13.41968307 -50.58925705 13.41968307 -49.20755005 13.17410278 C-38.8836192 11.32469062 -7.85695534 -2.51607804 0 0 Z " fill="#F9867A" transform="translate(428.98828125,92.63671875)"/>
<path d="M0 0 C5.92660463 1.76196354 11.41326404 4.38915322 17 7 C17.763125 7.33128906 18.52625 7.66257813 19.3125 8.00390625 C24.77422641 10.47616499 28.25917084 13.51834167 31 19 C31.26306211 23.99818009 30.94840904 28.70433493 30.28788757 33.66682434 C29.04642181 43.07389504 28.63888855 52.33166883 28.6875 61.8125 C28.69023422 62.93511734 28.69023422 62.93511734 28.69302368 64.08041382 C28.83842199 99.94453947 32.94877717 148.38086532 59.55078125 175.5859375 C60.23720703 176.25496094 60.23720703 176.25496094 60.9375 176.9375 C61.618125 177.618125 62.29875 178.29875 63 179 C63 179.66 63 180.32 63 181 C50.30516734 186.1515263 50.30516734 186.1515263 44 184 C40.23309831 180.49354177 37.66943177 176.34836386 35 172 C34.24053599 170.81969897 33.48011469 169.64001337 32.71875 168.4609375 C12.68210629 136.83405056 4.36318645 100.5103788 0.30957031 63.71459961 C0.06853962 61.60101894 -0.22023853 59.49286351 -0.52783203 57.38793945 C-1.1838312 52.14520052 -1.143305 46.91725793 -1.1328125 41.640625 C-1.13376923 40.57382507 -1.13472595 39.50702515 -1.13571167 38.40789795 C-1.13638904 36.16564881 -1.13456583 33.92339766 -1.13037109 31.68115234 C-1.12499534 28.24702583 -1.130342 24.81302884 -1.13671875 21.37890625 C-1.1360583 19.19531221 -1.13477784 17.01171825 -1.1328125 14.828125 C-1.13483673 13.80205139 -1.13686096 12.77597778 -1.13894653 11.71881104 C-1.13579437 10.76391785 -1.13264221 9.80902466 -1.12939453 8.82519531 C-1.12859894 7.98772766 -1.12780334 7.15026001 -1.12698364 6.28741455 C-1.00357904 4.06447082 -0.61793071 2.13352663 0 0 Z " fill="#FCE6D1" transform="translate(221,176)"/>
<path d="M0 0 C2.29860121 2.89852938 4.01209089 5.83178897 5.6875 9.125 C10.78047571 18.57978164 17.97525653 27.98350435 27 34 C27.29959853 38.71867687 26.99770345 43.19151071 26.50390625 47.8828125 C25.86111665 54.89554162 25.71291064 61.89844111 25.6875 68.9375 C25.68488159 69.64131805 25.68226318 70.34513611 25.67956543 71.07028198 C25.67273726 88.5330799 27.60489155 105.72240653 30 123 C30.1654834 124.19641113 30.3309668 125.39282227 30.50146484 126.62548828 C32.25883118 138.90555581 34.59661303 150.88706582 38.29492188 162.73535156 C38.77852052 164.28862756 39.2506015 165.84552258 39.71289062 167.40527344 C45.21085874 185.92283622 53.44137643 203.23952962 63 220 C57.56020056 218.47005641 54.02818461 214.7570568 50 211 C49.4328125 210.50886719 48.865625 210.01773438 48.28125 209.51171875 C26.20987703 189.3663854 16.14453415 153.22005202 7 126 C6.64454102 124.95038086 6.28908203 123.90076172 5.92285156 122.81933594 C-5.04062781 89.71663297 -11.31184752 33.93554255 0 0 Z " fill="#FCE6D0" transform="translate(184,134)"/>
<path d="M0 0 C0.85229281 2.46217922 1.0074593 3.95864916 0.54003906 6.54980469 C-0.14308407 10.91413384 -0.18170195 15.16731223 -0.203125 19.578125 C-0.20882507 20.50357117 -0.21452515 21.42901733 -0.22039795 22.38250732 C-0.22982345 24.34255848 -0.23637217 26.3026253 -0.24023438 28.26269531 C-0.24983285 31.19886795 -0.28083429 34.13430707 -0.3125 37.0703125 C-0.48479822 67.79607087 5.93237609 102.84720504 27.80859375 125.796875 C28.53175781 126.52390625 29.25492188 127.2509375 30 128 C30.58910156 128.62390625 31.17820313 129.2478125 31.78515625 129.890625 C48.52436859 146.22515308 74.63623946 149.43480718 96.83203125 149.29370117 C103.1721707 149.17131923 109.24671323 148.66640177 115.4765625 147.4375 C118.03542089 146.99385892 120.40856201 146.92515703 123 147 C118 152 118 152 115.5 154.3125 C113.28208658 156.69675693 112.34004018 158.2940425 110.9375 161.125 C108.69086315 164.8368348 106.73437263 165.79053444 102.5625 166.875 C100.38170804 167.28722287 98.1933361 167.66079802 96 168 C94.91203125 168.20238281 93.8240625 168.40476562 92.703125 168.61328125 C68.86392596 172.65056496 46.17654208 168.93875617 26 155 C4.61316441 138.49733285 -9.31727468 112.27287157 -14.3125 85.9375 C-18.08370846 56.3117566 -11.75567763 27.13810686 0 0 Z " fill="#BB524C" transform="translate(28,301)"/>
<path d="M0 0 C3.03602724 1.38307908 5.33954804 3.03187255 7.875 5.1875 C17.96871001 13.1623651 28.9756324 17.59782925 41.74609375 18.5390625 C43.50264282 18.66982178 43.50264282 18.66982178 45.29467773 18.80322266 C46.18743408 18.86815918 47.08019043 18.9330957 48 19 C47.68772461 19.92111572 47.37544922 20.84223145 47.05371094 21.79125977 C45.87096272 25.28426238 44.69463753 28.77940237 43.52001953 32.27514648 C43.01552225 33.77376254 42.50939693 35.27183174 42.00146484 36.76928711 C41.26206089 38.95016274 40.52815765 41.13279478 39.796875 43.31640625 C39.55424927 44.03663971 39.31162354 44.75687317 39.06164551 45.49893188 C37.87227035 49.0964539 36.79909305 52.67919439 35.92382812 56.36669922 C35.67478729 57.40249367 35.67478729 57.40249367 35.42071533 58.45921326 C34.98059327 60.34702439 34.56986417 62.24161922 34.16113281 64.13647461 C33 67 33 67 30.54370117 68.37084961 C16.65762661 71.80538403 -0.3956151 72.33840199 -13 65 C-19.30304589 60.90828525 -26.01005078 56.50213947 -30 50 C-29.24725601 41.58041913 -22.31875252 34.33796168 -17.25 28 C-10.43600687 19.44871691 -4.8856836 9.7713672 0 0 Z " fill="#FDE7D2" transform="translate(427,235)"/>
<path d="M0 0 C2.10096896 3.15145344 2.92711469 5.68688964 3.99609375 9.30859375 C4.38754082 10.6128233 4.7796607 11.91685106 5.17236328 13.22070312 C5.37798889 13.907854 5.5836145 14.59500488 5.79547119 15.30297852 C12.38262772 37.20297264 19.98061487 58.8919767 31 79 C31.87398437 80.62035156 31.87398437 80.62035156 32.765625 82.2734375 C39.1005012 93.60202242 47.8050884 106.58142033 59.6875 112.5625 C63.8011936 114.65131851 65.83172828 116.97403482 68.40625 120.75 C72.90623758 127.10292364 78.51288005 133.62496561 85 138 C87.32171592 137.96624167 87.32171592 137.96624167 89 137 C89.80410604 134.70388549 89.80410604 134.70388549 90 132 C88.67900508 129.81157709 88.67900508 129.81157709 86.6875 127.9375 C84.21555143 125.40538229 82.42753186 123.25361323 81 120 C81.86882812 119.87882812 82.73765625 119.75765625 83.6328125 119.6328125 C84.78523438 119.46523438 85.93765625 119.29765625 87.125 119.125 C88.26195312 118.96257812 89.39890625 118.80015625 90.5703125 118.6328125 C94.01054747 118.11247492 94.01054747 118.11247492 97.125 116.76171875 C100 116 100 116 102.4921875 117.01171875 C103.67167969 117.84123047 103.67167969 117.84123047 104.875 118.6875 C109.19164818 121.54142854 113.12012151 123.31728328 118 125 C119.34169951 125.64966503 120.67731989 126.31243942 122 127 C120.48019531 127.8353125 120.48019531 127.8353125 118.9296875 128.6875 C110.21445086 133.60576345 103.84093638 137.67245989 99.625 147.0625 C98.8827161 150.55123435 98.59771734 153.44650313 99 157 C99.64614258 157.46253174 100.29228516 157.92506348 100.95800781 158.40161133 C103 160 103 160 103.72949219 162.26831055 C103.83422852 163.13238525 103.93896484 163.99645996 104.046875 164.88671875 C104.16933594 165.82451172 104.29179687 166.76230469 104.41796875 167.72851562 C104.58232422 169.19321289 104.58232422 169.19321289 104.75 170.6875 C104.87503906 171.67556641 105.00007813 172.66363281 105.12890625 173.68164062 C105.43512306 176.11959756 105.72479858 178.55838002 106 181 C101.70933281 179.51384712 98.21252203 177.26847429 94.5625 174.625 C93.65213989 173.96842407 93.65213989 173.96842407 92.72338867 173.29858398 C77.77985408 162.3512851 64.3373314 149.66731159 53 135 C52.58282715 134.46987305 52.1656543 133.93974609 51.73583984 133.39355469 C24.41435906 98.51033025 0 44.89416457 0 0 Z " fill="#D9AD91" transform="translate(185,240)"/>
<path d="M0 0 C4.28656924 2.12027978 7.36950374 3.28415276 12.27734375 2.79492188 C15.57825105 9.05852876 17.86209541 15.29911092 19.46484375 22.16992188 C19.6963916 23.15690063 19.6963916 23.15690063 19.93261719 24.16381836 C20.4215563 26.36802165 20.85852291 28.57628528 21.27734375 30.79492188 C21.55094727 32.23726196 21.55094727 32.23726196 21.83007812 33.70874023 C23.27241298 42.05759106 23.51791098 50.14878941 23.40234375 58.60742188 C23.39332031 59.88423828 23.38429688 61.16105469 23.375 62.4765625 C23.35173164 65.58288904 23.3190453 68.68879759 23.27734375 71.79492188 C12.20768857 72.34840463 3.20064662 72.42505928 -6.72265625 66.79492188 C-7.5425 66.33730469 -8.36234375 65.8796875 -9.20703125 65.40820312 C-14.37561476 62.24287933 -20.06421128 58.38852728 -22.72265625 52.79492188 C-22.47807591 49.12052891 -21.22363786 46.12856268 -19.72265625 42.79492188 C-15.58295645 31.06577245 -14.36773292 16.3414753 -19.72265625 4.79492188 C-21.26616799 2.33265315 -22.94482151 0.10130207 -24.72265625 -2.20507812 C-24.72265625 -2.86507812 -24.72265625 -3.52507812 -24.72265625 -4.20507812 C-14.72922853 -7.13418625 -8.96977352 -4.61099957 0 0 Z " fill="#FCE6D1" transform="translate(455.72265625,171.205078125)"/>
<path d="M0 0 C23.41997632 -2.02672872 49.12256298 12.025122 67 26 C66.2575 26.721875 65.515 27.44375 64.75 28.1875 C62.30709485 30.68592573 60.1318953 33.23643202 58 36 C55.30429537 34.92972024 52.62103957 33.83987588 49.94921875 32.7109375 C43.69065945 30.14755153 38.77765278 28.33552424 32 29 C31.53867573 33.02011146 31.75495529 34.64277723 34.08203125 38.03515625 C34.97754776 39.05728482 35.88825695 40.0662714 36.8125 41.0625 C45 50.18437946 45 50.18437946 45 55 C44.12988281 55.20302734 44.12988281 55.20302734 43.2421875 55.41015625 C36.92745189 57.15035567 33.73416007 59.65502578 30 65 C20.21934343 61.27617204 13.94150873 46.97849696 9.75 37.984375 C4.54592561 26.34842513 -0.90505361 12.9724351 0 0 Z " fill="#6C67B5" transform="translate(24,97)"/>
<path d="M0 0 C0.66 0 1.32 0 2 0 C14.24959272 28.71149599 13.41147688 63.92612599 2 93 C1.01 93.99 1.01 93.99 0 95 C-0.08975098 94.30664551 -0.17950195 93.61329102 -0.27197266 92.89892578 C-3.50417503 68.15333624 -3.50417503 68.15333624 -13.1875 45.375 C-17.12240968 38.74127792 -17.86792339 31.50917004 -19 24 C-19.32195359 22.33109773 -19.65001134 20.66324888 -20 19 C-19.443125 18.5875 -18.88625 18.175 -18.3125 17.75 C-12.12077407 13.06436957 -5.94960686 8.12225544 -1.3984375 1.76171875 C-0.93695313 1.18035156 -0.47546875 0.59898438 0 0 Z " fill="#F9857A" transform="translate(489,123)"/>
<path d="M0 0 C3.0625 0.3125 3.0625 0.3125 5 1.5 C6.0625 3.3125 6.0625 3.3125 6 5.625 C5.0625 8.3125 5.0625 8.3125 3 11.25 C0.77639634 14.76472836 0.38374858 16.23999146 1.0625 20.3125 C3.10243908 23.9703218 4.56669262 25.98196174 8.0625 28.3125 C9.59024519 28.72257897 11.1345723 29.07402541 12.6875 29.375 C16.96189638 30.21189638 16.96189638 30.21189638 18.0625 31.3125 C18.19473519 32.87287521 18.29318529 34.43617031 18.375 36 C18.81020482 40.75325268 19.85092439 43.64212787 23.0625 47.3125 C26.3342805 49.56890035 30.26833182 50.23867882 34.0625 51.3125 C35.0625 52.3125 35.0625 52.3125 35.25 55.25 C35.0625 58.3125 35.0625 58.3125 33.0625 60.3125 C25.7395359 60.93309018 20.95798244 59.35636996 14.875 55.0625 C10.84555933 51.12260246 8.23556048 47.69208162 7.8125 41.875 C7.895 41.029375 7.9775 40.18375 8.0625 39.3125 C7.36125 39.209375 6.66 39.10625 5.9375 39 C2.67112353 38.21890997 0.0153148 36.89191257 -2.9375 35.3125 C-4.60391006 36.303255 -4.60391006 36.303255 -5.9375 38.3125 C-6.59504547 43.83910173 -6.59504547 43.83910173 -4.375 48.6875 C-1.36072402 50.69701732 1.57276185 51.40775307 5.0625 52.3125 C7.0625 54.3125 7.0625 54.3125 7.375 56.75 C7.0625 59.3125 7.0625 59.3125 6 61.125 C2.77514595 63.10152345 0.80619771 62.84731396 -2.9375 62.3125 C-9.42584229 59.64023422 -14.13599977 56.15631298 -17.15625 49.73828125 C-18.79501586 44.64991325 -19.11737695 39.95937224 -16.91015625 35.0078125 C-15.28473105 32.31029833 -13.78339185 29.95727071 -11.26171875 28.03515625 C-9.12413832 25.25441002 -9.84868595 22.60162755 -10.0625 19.1875 C-10.31591946 12.39667587 -9.1767962 7.69512154 -4.9375 2.3125 C-2.9375 0.3125 -2.9375 0.3125 0 0 Z " fill="#403D50" transform="translate(312.9375,252.6875)"/>
<path d="M0 0 C2.9375 0.3125 2.9375 0.3125 4.9375 2.3125 C5.67119493 7.69292946 3.84704685 9.94817972 0.9375 14.3125 C0.26198708 18.3655775 0.73497968 19.94936011 2.75 23.5625 C5.69474924 27.26447047 8.04384668 28.49923494 12.5625 29.375 C16.83689638 30.21189638 16.83689638 30.21189638 17.9375 31.3125 C18.06973519 32.87287521 18.16818529 34.43617031 18.25 36 C18.68520482 40.75325268 19.72592439 43.64212787 22.9375 47.3125 C26.2092805 49.56890035 30.14333182 50.23867882 33.9375 51.3125 C34.2675 51.6425 34.5975 51.9725 34.9375 52.3125 C34.2175 59.0325 34.2175 59.0325 32.9375 60.3125 C25.43356142 60.83001301 20.18843202 59.26763328 14.1875 54.5625 C10.0634957 50.82772756 8.11065206 47.02521565 7.75 41.375 C7.8428125 40.3540625 7.8428125 40.3540625 7.9375 39.3125 C7.215625 39.209375 6.49375 39.10625 5.75 39 C2.69084771 38.25220722 0.59542227 36.96472195 -2.0625 35.3125 C-2.7225 35.3125 -3.3825 35.3125 -4.0625 35.3125 C-6.52092333 39.00013499 -6.74592236 42.0302966 -6.0625 46.3125 C-3.29010157 50.52654561 0.2220297 51.08997066 4.9375 52.3125 C5.5975 52.9725 6.2575 53.6325 6.9375 54.3125 C6.75 57.3125 6.75 57.3125 5.9375 60.3125 C2.61212769 62.52941487 1.07336198 62.59839641 -2.8046875 61.96875 C-7.99053492 60.46144487 -12.40459472 57.68157108 -15.51953125 53.23046875 C-18.04332891 48.13828337 -19.32337388 42.9257237 -18.0625 37.3125 C-16.42857851 33.70148228 -14.57087983 30.38846943 -12.0625 27.3125 C-11.0725 26.9825 -10.0825 26.6525 -9.0625 26.3125 C-9.3925 25.6525 -9.7225 24.9925 -10.0625 24.3125 C-10.7299386 16.58771881 -10.79349727 9.73652973 -6.0625 3.3125 C-3.8817813 0.76046973 -3.48777501 0.35589541 0 0 Z " fill="#403D50" transform="translate(147.0625,371.6875)"/>
<path d="M0 0 C0.33 0.66 0.66 1.32 1 2 C2.97534799 2.6241679 2.97534799 2.6241679 5.375 3 C10.96666807 3.99232419 10.96666807 3.99232419 13.4765625 4.5703125 C25.68748158 7.25444642 38.40066714 7.04631769 50.3984375 3.55859375 C53.05997429 2.98712264 54.46844192 3.09415813 57 4 C44.02205647 16.54665235 27.39847933 24.32200359 9.6640625 27.40625 C5.45489833 26.76438332 2.68568007 24.2513372 -0.625 21.6875 C-1.29273438 21.18798828 -1.96046875 20.68847656 -2.6484375 20.17382812 C-5.62509262 17.92645351 -8.40313389 15.68500396 -11 13 C-10.28972656 12.22914063 -9.57945312 11.45828125 -8.84765625 10.6640625 C-7.9191529 9.65114976 -6.99077394 8.63812299 -6.0625 7.625 C-5.59392578 7.11710937 -5.12535156 6.60921875 -4.64257812 6.0859375 C-2.02273232 3.25734146 -2.02273232 3.25734146 0 0 Z " fill="#D8AD91" transform="translate(359,401)"/>
<path d="M0 0 C13.50114634 0.86393785 13.50114634 0.86393785 18.87890625 5.4609375 C20.63029223 7.63715106 22.31344771 9.81580362 23.97265625 12.05859375 C27.50065384 16.82145138 31.61967657 20.94877316 35.8125 25.125 C36.58207031 25.89279785 37.35164063 26.6605957 38.14453125 27.45166016 C44.68921918 33.87928191 51.60794865 39.58394022 59 45 C60.33385795 45.99930013 61.66743956 46.9989703 63 48 C62.44683414 51.96435532 61.54379132 55.3162378 60 59 C34.8926986 48.23163145 12.95081379 23.51674578 0 0 Z " fill="#BA524C" transform="translate(183,385)"/>
<path d="M0 0 C1.16015625 0.68835938 1.16015625 0.68835938 2.34375 1.390625 C3.90609375 2.31101562 3.90609375 2.31101562 5.5 3.25 C6.5209375 3.85328125 7.541875 4.4565625 8.59375 5.078125 C14.06768879 8.16663175 19.69230809 10.86770081 25.390625 13.515625 C35.78924301 18.35292892 45.81486696 23.06012171 55 30 C55.89460938 30.67546875 56.78921875 31.3509375 57.7109375 32.046875 C59.82735018 33.67488475 61.92328352 35.32184527 64 37 C57.53142815 40.23428592 43.07883392 33.47025542 36.59399414 31.31103516 C23.125783 26.68398908 9.07421995 21.68579864 -3 14 C-2.09276387 9.31261335 -1.0452733 4.65806256 0 0 Z " fill="#B8514C" transform="translate(277,425)"/>
<path d="M0 0 C7.05661539 2.61482997 10.9524422 9.79556024 14.2578125 16.16015625 C15.81382136 19.83990694 16.26399366 22.91770707 16.4140625 26.89453125 C14.88248142 28.053811 13.33826457 29.19640672 11.7890625 30.33203125 C10.93054688 30.97011719 10.07203125 31.60820313 9.1875 32.265625 C5.22456423 34.59315206 2.07232521 35.14687558 -2.4609375 34.45703125 C-3.5128125 34.17859375 -3.5128125 34.17859375 -4.5859375 33.89453125 C-4.73289062 32.53521484 -4.73289062 32.53521484 -4.8828125 31.1484375 C-5.69629612 24.5213511 -6.60874408 18.72576679 -9.68359375 12.76171875 C-10.6196292 10.82481422 -11.13374588 8.99232741 -11.5859375 6.89453125 C-10.20581727 5.68880529 -8.80610922 4.50547374 -7.3984375 3.33203125 C-6.23248047 2.34009766 -6.23248047 2.34009766 -5.04296875 1.328125 C-2.5859375 -0.10546875 -2.5859375 -0.10546875 0 0 Z " fill="#6C67B5" transform="translate(449.5859375,78.10546875)"/>
<path d="M0 0 C9.05205729 3.01735243 14.38694467 7.09969828 18.98828125 15.55859375 C20.5328662 19.28587404 20.3576427 21.19860045 19 25 C14.14832536 34.61722488 14.14832536 34.61722488 10 36 C9.67128906 35.24976563 9.34257812 34.49953125 9.00390625 33.7265625 C5.80380867 26.84071567 2.22813241 21.52199428 -3.046875 16.05859375 C-5 14 -5 14 -7 11 C-4.69 7.37 -2.38 3.74 0 0 Z " fill="#6B67B4" transform="translate(464,58)"/>
<path d="M0 0 C5.32732146 3.9320706 8.5475182 8.38053494 12 14 C8.3150788 22.04630136 -0.08143212 31.04071606 -8 35 C-7.690625 36.258125 -7.38125 37.51625 -7.0625 38.8125 C-5.85947548 44.17065177 -5.38848904 49.5304832 -5 55 C-9.51990012 51.14479108 -11.94222055 46.77355936 -14.66796875 41.5234375 C-16.01672337 38.86426886 -16.01672337 38.86426886 -18 36 C-17.49210937 35.53851563 -16.98421875 35.07703125 -16.4609375 34.6015625 C-11.16905534 29.5871573 -7.42797644 24.41926798 -4 18 C-3.61328125 17.29488281 -3.2265625 16.58976562 -2.828125 15.86328125 C-1.64082013 13.19184529 -2.02444887 11.71760673 -3 9 C-4.9568288 7.17662247 -4.9568288 7.17662247 -7 6 C-4.69 4.02 -2.38 2.04 0 0 Z " fill="#B9524C" transform="translate(478,107)"/>
<path d="M0 0 C2.58720518 1.29360259 2.66334322 2.23872465 3.6640625 4.91015625 C3.97722412 5.72718018 4.29038574 6.5442041 4.61303711 7.38598633 C5.11395874 8.7108606 5.11395874 8.7108606 5.625 10.0625 C11.00561674 23.86377579 17.53217859 36.58974605 25.3125 49.18359375 C27 52 27 52 27 53 C22.71 52.67 18.42 52.34 14 52 C-1.5222741 20.34192318 -1.5222741 20.34192318 -2.52734375 10.61328125 C-2.68332031 9.42089844 -2.83929688 8.22851562 -3 7 C-3.66 6.67 -4.32 6.34 -5 6 C-3.35 4.02 -1.7 2.04 0 0 Z " fill="#B9524C" transform="translate(162,322)"/>
<path d="M0 0 C0.03867187 1.57974609 0.03867187 1.57974609 0.078125 3.19140625 C0.57028082 17.24081442 3.69862177 29.5043387 9.14453125 42.48828125 C9.42683594 43.31714844 9.70914062 44.14601562 10 45 C9.67 45.66 9.34 46.32 9 47 C3.75294971 41.72363658 -0.45182208 36.04202464 -4.375 29.75 C-4.80345215 29.06486328 -5.2319043 28.37972656 -5.67333984 27.67382812 C-10.00347839 20.59787434 -12.48609456 14.45930749 -11 6 C-8.45396307 2.32149869 -4.53895268 0 0 0 Z " fill="#6B66B4" transform="translate(14,92)"/>
<path d="M0 0 C8.77211359 1.97372556 14.10901373 8.60052753 18.87109375 15.7890625 C21.37917954 20.7010921 21.09111518 25.62420464 21 31 C20.55011719 30.63648437 20.10023438 30.27296875 19.63671875 29.8984375 C16.51725408 27.46037894 13.74538576 25.30546976 10.0546875 23.79296875 C6.83639408 22.46951911 4.53930304 21.39699533 2 19 C0.73708681 13.90940279 0.89350719 9.24181274 1 4 C0.58590009 1.6714111 0.58590009 1.6714111 0 0 Z " fill="#6B67B4" transform="translate(466,29)"/>
<path d="M0 0 C4.28656924 2.12027978 7.36950374 3.28415276 12.27734375 2.79492188 C12.93734375 4.44492188 13.59734375 6.09492188 14.27734375 7.79492188 C7.82715263 8.19986661 3.79542356 7.05711034 -1.97265625 4.29492188 C-9.04359055 1.11654508 -14.89365746 -0.15541902 -22.72265625 0.79492188 C-23.38265625 -0.85507813 -24.04265625 -2.50507813 -24.72265625 -4.20507812 C-14.72922853 -7.13418625 -8.96977352 -4.61099957 0 0 Z " fill="#D6AC92" transform="translate(455.72265625,171.205078125)"/>
<path d="M0 0 C1 1 1 1 1.25 4.4375 C1.1675 5.613125 1.085 6.78875 1 8 C-2.13411302 10.08940868 -2.97450472 10.27364412 -6.5625 10.25 C-7.74005859 10.25773437 -7.74005859 10.25773437 -8.94140625 10.265625 C-11 10 -11 10 -13 8 C-13.37130746 5.10380178 -13.46583421 3.62111229 -11.6875 1.25 C-7.77547011 -1.64779992 -4.54673098 -0.84198722 0 0 Z " fill="#474051" transform="translate(408,112)"/>
</svg>
