<?xml version="1.0" encoding="UTF-8"?>
<svg version="1.1" xmlns="http://www.w3.org/2000/svg" width="512" height="512">
<path d="M0 0 C1.51073088 -0.02039001 1.51073088 -0.02039001 3.05198157 -0.04119194 C6.40191453 -0.07894814 9.75037323 -0.07427519 13.10049438 -0.06930542 C15.51285669 -0.08727316 17.92520179 -0.10769255 20.33752441 -0.13037109 C26.19703502 -0.17778089 32.05620433 -0.1966919 37.91586761 -0.20004536 C42.68667636 -0.20290676 47.45736671 -0.21528696 52.22813797 -0.23424911 C65.79151036 -0.28705091 79.354599 -0.31477325 92.91807489 -0.31026627 C94.01287449 -0.30990667 94.01287449 -0.30990667 95.12979126 -0.30953979 C95.8605625 -0.30929451 96.59133374 -0.30904923 97.34424956 -0.30879651 C109.16434042 -0.30636233 120.98328026 -0.36367018 132.80303864 -0.44836999 C144.97602674 -0.53490311 157.14845592 -0.57597159 169.32175887 -0.57080734 C176.14148764 -0.56882661 182.96001163 -0.58480731 189.77946091 -0.64987564 C196.20385774 -0.70840733 202.62572925 -0.70814479 209.05022049 -0.66477585 C211.39297469 -0.65855372 213.73589222 -0.67236176 216.07836914 -0.7089386 C232.11234395 -0.94285483 242.51689749 1.99030626 255.58689904 11.42131734 C258.02910823 13.16868417 260.56955388 14.72134022 263.14981079 16.25540161 C264.64804946 17.1863382 266.14546242 18.11860515 267.64199829 19.05227661 C269.40090694 20.14505606 271.16003205 21.23748716 272.91934204 22.32962036 C273.82410278 22.89149048 274.72886353 23.4533606 275.66104126 24.03225708 C280.83465117 27.23867458 286.01991783 30.42613974 291.20449829 33.61477661 C292.28714966 34.28098022 293.36980103 34.94718384 294.48526001 35.63357544 C300.71464751 39.46616083 306.94690036 43.2940268 313.1822052 47.11697388 C317.03380508 49.47960081 320.87807257 51.85384828 324.72012329 54.23196411 C328.1892574 56.37850491 331.67132493 58.49395634 335.18887329 60.56008911 C336.46495552 61.32825091 337.74100141 62.09647307 339.01699829 62.86477661 C340.57934204 63.77936646 340.57934204 63.77936646 342.17324829 64.71243286 C345.26662232 67.47069137 345.81094391 69.77226494 346.51699829 73.80227661 C344.68088177 79.83523088 339.74600874 84.28195665 335.51699829 88.80227661 C339.57106832 95.46650132 344.3857202 101.41075825 349.33169556 107.41653442 C354.89276467 114.19643549 360.16934305 121.17600697 365.35562134 128.24563599 C366.31066621 129.52572136 367.31222298 130.77097364 368.32559204 132.00540161 C370.39044705 135.11960916 370.1544645 138.21467607 369.51699829 141.80227661 C366.62762112 146.32478001 361.3121097 147.84358443 356.51699829 149.80227661 C356.91738613 156.52398767 357.66305444 163.12893095 358.81387329 169.76321411 C358.9895282 170.7914328 358.9895282 170.7914328 359.16873169 171.84042358 C359.65493532 174.67479785 360.14459736 177.50808093 360.66201782 180.33694458 C361.04286687 182.43471264 361.39894656 184.53551033 361.75137329 186.63821411 C362.07960083 188.48745483 362.07960083 188.48745483 362.41445923 190.37405396 C362.54115436 194.60989449 362.11261739 196.43253604 359.51699829 199.80227661 C356.65628579 201.34839364 353.66714745 202.04932492 350.51699829 202.80227661 C349.47101471 203.06237518 348.42503113 203.32247375 347.34735107 203.5904541 C343.6422807 204.4830521 339.9277398 205.32725906 336.20840454 206.15774536 C334.83272554 206.46723946 333.45706985 206.77683717 332.08143616 207.08653259 C329.21199878 207.73113504 326.34170511 208.37175777 323.47085571 209.01004028 C319.81630712 209.82330345 316.16510982 210.65066794 312.51454258 211.48159313 C309.67891673 212.12459507 306.84117917 212.7578617 304.00279045 213.38854408 C302.65659245 213.68927515 301.31115131 213.99341777 299.96655464 214.30122948 C284.7257568 217.78145291 284.7257568 217.78145291 277.51699829 216.80227661 C273.57159282 214.24644791 272.60443218 210.94670225 271.26699829 206.55227661 C270.93184204 205.47462036 270.59668579 204.39696411 270.25137329 203.28665161 C270.00902954 202.46680786 269.76668579 201.64696411 269.51699829 200.80227661 C260.22717949 212.63052857 257.20609173 223.67586628 256.17178345 238.40823364 C256.01910789 240.2252159 255.86345123 242.0419497 255.70507812 243.85844421 C255.28744168 248.74203401 254.91048051 253.62798559 254.54084444 258.51540995 C254.14515513 263.64671701 253.70986741 268.77466194 253.27856445 273.90307617 C252.46884132 283.59859233 251.69176442 293.29641412 250.92780817 302.99563301 C249.80392191 317.24856939 248.63579458 331.49789681 247.46137047 345.74674797 C247.37517972 346.79260634 247.28898896 347.8384647 247.20018637 348.91601574 C247.02833751 351.00094956 246.85638966 353.08587522 246.68433988 355.17079246 C246.18227103 361.26930726 245.69158111 367.36860374 245.21078038 373.4688313 C244.91135006 377.25520337 244.6058979 381.04107503 244.2992897 384.82687187 C244.15861427 386.58224744 244.02070136 388.33784691 243.88574982 390.0936718 C243.70137008 392.48929368 243.50736729 394.88395293 243.31109619 397.27862549 C243.26012366 397.97365492 243.20915113 398.66868435 243.15663397 399.38477528 C242.83377906 403.18677534 242.27038529 406.39511489 240.51699829 409.80227661 C236.09358245 413.40083246 231.30284027 415.20521454 225.99356079 417.06008911 C225.1557608 417.36066727 224.31796082 417.66124542 223.45477295 417.97093201 C221.63847857 418.62189541 219.82091231 419.26931867 218.00222778 419.91357422 C213.06074396 421.66490011 208.12926193 423.44401887 203.19668579 425.22024536 C201.64926697 425.77643303 201.64926697 425.77643303 200.07058716 426.34385681 C188.42972579 430.53660369 176.84667548 434.88145527 165.26699829 439.23977661 C163.81477875 439.78592621 163.81477875 439.78592621 162.33322144 440.34310913 C160.43015326 441.05882992 158.52722818 441.77493134 156.62445068 442.49142456 C154.76259053 443.19159573 152.90002849 443.88990355 151.03674316 444.58627319 C146.04227603 446.45632068 141.0691913 448.36922276 136.11270142 450.33792114 C135.04497498 450.75526016 133.97724854 451.17259918 132.87716675 451.60258484 C130.83658111 452.40074083 128.80093461 453.21169463 126.77157593 454.03797913 C117.50810789 457.63016973 109.90275317 457.96415407 100.68887329 454.22415161 C99.96219452 453.94566879 99.23551575 453.66718597 98.48681641 453.38026428 C96.07420303 452.45237862 93.67106082 451.50207159 91.26699829 450.55227661 C88.63139885 449.53315173 85.99347347 448.52019602 83.35552979 447.50715637 C81.46413181 446.78019918 79.57350423 446.05123489 77.68359375 445.32041931 C65.38807753 440.57169201 53.01040322 436.04432748 40.64199829 431.48977661 C31.92657339 428.27946286 23.21768468 425.05232792 14.51699829 421.80227661 C12.72594666 421.13570038 12.72594666 421.13570038 10.89871216 420.45565796 C7.28623712 419.10756528 3.67844635 417.7476057 0.07168579 416.38430786 C-1.0423764 415.96992966 -2.1564386 415.55555145 -3.30426025 415.12861633 C-4.33278107 414.73708878 -5.36130188 414.34556122 -6.42098999 413.94216919 C-7.78189255 413.42980461 -7.78189255 413.42980461 -9.17028809 412.90708923 C-11.67548948 411.71032276 -12.80898902 411.00996211 -14.48300171 408.80227661 C-15.16086483 405.59362602 -15.16086483 405.59362602 -15.57698059 401.65356445 C-15.65477987 400.94374542 -15.73257914 400.23392639 -15.81273597 399.50259769 C-16.05198071 397.27044512 -16.27037558 395.03711014 -16.48300171 392.80227661 C-16.54919433 392.12590479 -16.61538695 391.44953298 -16.68358541 390.75266504 C-17.15428988 385.8988493 -17.57043717 381.04102016 -17.9793396 376.18167114 C-18.11567111 374.58962222 -18.25228144 372.99759715 -18.3891449 371.40559387 C-18.75547657 367.13557697 -19.11802214 362.86524647 -19.47986531 358.5948472 C-19.86141006 354.10038408 -20.24666941 349.60623936 -20.63154602 345.11206055 C-21.35875847 336.61425682 -22.08292323 328.11619649 -22.80585426 319.61802757 C-23.86652835 307.15102785 -24.93137294 294.68438418 -25.99676418 282.21778679 C-26.07519104 281.30006622 -26.15361789 280.38234566 -26.23442131 279.43681538 C-26.39086932 277.60614544 -26.5473263 275.77547627 -26.70379251 273.94480789 C-27.15946243 268.61214107 -27.61408958 263.27938668 -28.06778538 257.94655156 C-28.35040293 254.6256978 -28.63358095 251.30489196 -28.91686058 247.98409462 C-29.0473207 246.45314915 -29.17752904 244.92218221 -29.30745697 243.39119148 C-29.69197374 238.86089356 -30.08334927 234.33127093 -30.48300171 229.80227661 C-30.61686767 228.26852796 -30.61686767 228.26852796 -30.753438 226.70379448 C-30.83611266 225.80889368 -30.91878733 224.91399288 -31.00396729 223.99197388 C-31.07247831 223.24022385 -31.14098934 222.48847382 -31.21157646 221.71394348 C-31.58710511 219.06906913 -32.4745502 216.99468311 -33.76815796 214.66946411 C-34.21610718 213.84446411 -34.6640564 213.01946411 -35.12557983 212.16946411 C-35.59415405 211.34704224 -36.06272827 210.52462036 -36.54550171 209.67727661 C-37.01794312 208.81618286 -37.49038452 207.95508911 -37.97714233 207.06790161 C-39.13076895 204.97039867 -40.2991877 202.88284175 -41.48300171 200.80227661 C-43.91990235 204.45762758 -45.02275977 208.15222729 -46.38534546 212.30618286 C-47.48300171 214.80227661 -47.48300171 214.80227661 -50.48300171 216.80227661 C-58.98354864 218.14847983 -67.66483239 215.51159797 -75.90487671 213.62649536 C-77.37820971 213.29667463 -78.85170333 212.9675707 -80.3253479 212.6391449 C-83.3962298 211.95230404 -86.46533255 211.25814446 -89.53329468 210.55838013 C-93.45312673 209.66475023 -97.37645423 208.78775348 -101.30118942 207.91594219 C-104.33779843 207.2398385 -107.37261327 206.55595392 -110.40692902 205.86963844 C-111.85284249 205.54337018 -113.29924434 205.21925807 -114.74614716 204.89740562 C-116.76932656 204.44593135 -118.78991313 203.98424543 -120.81015015 203.51980591 C-121.95691223 203.25999435 -123.10367432 203.0001828 -124.28518677 202.73249817 C-127.64594655 201.75487712 -130.47457717 200.59221314 -133.48300171 198.80227661 C-135.95341324 193.38932859 -135.45210849 189.07546108 -134.36581421 183.45462036 C-134.22980804 182.67969742 -134.09380188 181.90477448 -133.95367432 181.10636902 C-133.51975968 178.64794768 -133.06501642 176.19399872 -132.60800171 173.73977661 C-132.16183009 171.28149158 -131.72017783 168.82250648 -131.28375244 166.36247253 C-131.01201719 164.83757048 -130.73413038 163.31374739 -130.44909668 161.79127502 C-129.71425104 157.74085428 -129.33995763 153.91782456 -129.48300171 149.80227661 C-130.33765015 149.39235474 -131.19229858 148.98243286 -132.07284546 148.56008911 C-133.17757202 148.02126099 -134.28229858 147.48243286 -135.42050171 146.92727661 C-136.52265015 146.39360474 -137.62479858 145.85993286 -138.76034546 145.31008911 C-141.48300171 143.80227661 -141.48300171 143.80227661 -142.48300171 141.80227661 C-142.90109673 137.09009982 -143.06013579 134.80631464 -140.68222046 130.66946411 C-139.85335327 129.68204224 -139.02448608 128.69462036 -138.17050171 127.67727661 C-137.2433707 126.54450313 -136.31628903 125.41168927 -135.38925171 124.27883911 C-134.66608765 123.4169397 -134.66608765 123.4169397 -133.92831421 122.53762817 C-131.61331437 119.75806418 -129.39695436 116.90285395 -127.17050171 114.05227661 C-126.72690308 113.48927856 -126.28330444 112.92628052 -125.82626343 112.34622192 C-119.95927021 104.89797975 -114.22575209 97.34643132 -108.48300171 89.80227661 C-109.4338117 88.52548001 -110.3858787 87.24961943 -111.33847046 85.97415161 C-111.86851685 85.26355591 -112.39856323 84.55296021 -112.94467163 83.8208313 C-114.18306878 82.19584041 -115.48056815 80.61598139 -116.79550171 79.05227661 C-119.40136906 75.57778682 -119.40136906 75.57778682 -119.48300171 72.80227661 C-117.78656007 66.36048901 -114.74814094 64.19343334 -109.11068726 60.87112427 C-108.11980103 60.31215454 -107.12891479 59.75318481 -106.10800171 59.17727661 C-104.00195716 57.94388428 -101.89649999 56.7094885 -99.79159546 55.47415161 C-98.72924683 54.85862427 -97.66689819 54.24309692 -96.57235718 53.60891724 C-92.05217123 50.96553364 -87.61116835 48.20145267 -83.17050171 45.42727661 C-81.4391419 44.35239553 -79.70736207 43.27819073 -77.97518921 42.20462036 C-77.08928101 41.6553186 -76.2033728 41.10601685 -75.2906189 40.54006958 C-66.83364809 35.30557234 -58.35609933 30.10432552 -49.88388062 24.89456177 C-46.3886403 22.74422368 -42.89464279 20.59187937 -39.40097046 18.43899536 C-37.65631717 17.36421483 -35.91163101 16.28948767 -34.16693115 15.21478271 C-32.53938873 14.2120179 -30.91218999 13.20869533 -29.28500366 12.20535278 C-28.27784302 11.58507202 -27.27068237 10.96479126 -26.23300171 10.32571411 C-25.36159546 9.78865845 -24.49018921 9.25160278 -23.59237671 8.69827271 C-22.56628296 8.07259399 -21.54018921 7.44691528 -20.48300171 6.80227661 C-19.78254144 6.31735784 -19.08208117 5.83243906 -18.36039484 5.33282578 C-12.08735981 1.18226701 -7.45580904 -0.07512216 0 0 Z " fill="#090A0B" transform="translate(142.48300170898438,27.197723388671875)"/>
<path d="M0 0 C20.12467577 -2.42787418 20.12467577 -2.42787418 27.8203125 2.73046875 C31.47916905 5.63273281 34.81424329 8.85709227 38.109375 12.16210938 C40.90739212 14.88208263 43.9550616 17.21067508 47.0625 19.5625 C48.20106229 20.44685036 49.33777208 21.33359068 50.47265625 22.22265625 C51.32947998 22.89385498 51.32947998 22.89385498 52.20361328 23.57861328 C55.49705282 26.18453948 58.74654548 28.84445241 62 31.5 C66.45754611 35.13520755 70.92114045 38.76036664 75.44458008 42.31347656 C76.60082788 43.22499955 77.75053233 44.14488822 78.89331055 45.07324219 C81.73578599 47.35771834 84.52250056 49.34869591 87.7265625 51.09765625 C91.44235021 53.25144059 94.7977717 55.20584702 97 59 C98.59604318 65.73856969 98.28857104 72.72321815 97.88745117 79.59326172 C98.01393545 82.29799488 98.45149691 83.78269061 100 86 C103.46821241 86.89916618 105.92654257 87.33898656 109.375 86.25 C111.309697 85.00281178 111.309697 85.00281178 112 82 C111.98781825 80.35316905 111.922439 78.70644446 111.82421875 77.0625 C111.27589842 60.14169938 111.27589842 60.14169938 115.6171875 55.4921875 C118.50579199 53.07537556 121.69628534 51.16730613 124.94580078 49.27636719 C128.56647853 47.02667581 131.74271992 44.2375899 135 41.5 C136.35192913 40.39309485 137.70608479 39.28890327 139.0625 38.1875 C139.7225 37.65125 140.3825 37.115 141.0625 36.5625 C144.58173184 33.72440981 148.14760222 30.94639279 151.7109375 28.1640625 C155.49363076 25.20294967 159.23895304 22.20009452 162.95922852 19.16088867 C164.31836046 18.05475461 165.6834599 16.95591231 167.05444336 15.86450195 C170.29413847 13.27608776 173.38823609 10.66925142 176.31640625 7.73046875 C183.62398263 0.70801775 189.15871814 -0.87069926 199.375 -0.6875 C202.92716705 -0.54609426 206.46019134 -0.32708235 210 0 C208.67251074 3.57083088 207.08489016 6.67665564 205.05078125 9.89453125 C204.456604 10.83893066 203.86242676 11.78333008 203.25024414 12.75634766 C202.61078857 13.76487793 201.97133301 14.7734082 201.3125 15.8125 C200.65564209 16.85970215 199.99878418 17.9069043 199.32202148 18.98583984 C195.80801052 24.58372648 192.25924772 30.15603544 188.671875 35.70703125 C187.98311279 36.78299561 187.29435059 37.85895996 186.5847168 38.9675293 C185.25899075 41.03750575 183.9222616 43.10048537 182.57348633 45.15551758 C181.9730249 46.0967749 181.37256348 47.03803223 180.75390625 48.0078125 C180.22095947 48.82910645 179.6880127 49.65040039 179.13891602 50.49658203 C177.71740668 53.6211601 177.51191211 55.60286313 178 59 C180.57212946 62.37175912 183.75085952 64.16816742 187.4375 66.1796875 C199.48716609 72.94311977 209.49180431 78.97454576 217.65332031 90.20996094 C220.12905846 93.50077169 222.89900293 96.54136483 225.625 99.625 C227.15237936 101.37000334 228.67064856 103.12049764 230.17089844 104.88891602 C231.55619791 106.4877794 232.98401077 108.04993435 234.43066406 109.59350586 C241.35088082 117.26897143 244.59500223 124.47467883 247.5 134.3125 C247.9167042 135.64468576 248.33596903 136.97607331 248.7578125 138.30664062 C249.87545696 141.8605196 250.95010541 145.42542076 252 149 C252.37350586 150.22605957 252.74701172 151.45211914 253.13183594 152.71533203 C254.87020106 159.29237487 252.79756282 163.96225238 249.6015625 169.62304688 C249.15554688 170.38681641 248.70953125 171.15058594 248.25 171.9375 C247.81945312 172.69740234 247.38890625 173.45730469 246.9453125 174.24023438 C244.09219484 179.24173255 241.08697741 184.13991715 238 189 C233.93147508 187.45869638 230.08235632 185.58164558 226.22265625 183.5859375 C225.57485703 183.25260406 224.9270578 182.91927063 224.2596283 182.57583618 C222.88822919 181.86925721 221.51743706 181.16149905 220.1472168 180.45263672 C218.1021013 179.3954708 216.05414827 178.34396991 214.00585938 177.29296875 C207.58639044 173.98575472 201.24225568 170.60176504 194.99609375 166.9765625 C189.4719808 163.78201737 183.86020679 160.87104727 178.13793945 158.04989624 C170.48757896 154.2734539 162.9666697 150.26112451 155.4375 146.25 C152.46153582 144.66814312 149.48477382 143.0877919 146.5078125 141.5078125 C145.77981949 141.1212851 145.05182648 140.73475769 144.30177307 140.33651733 C136.91211131 136.41631024 129.49579634 132.54804069 122.06616211 128.70410156 C121.22577393 128.26807617 120.38538574 127.83205078 119.51953125 127.3828125 C118.35284912 126.78001465 118.35284912 126.78001465 117.16259766 126.16503906 C115.14036364 125.07561699 113.21015276 123.89433712 111.26171875 122.6796875 C107.6498297 120.81967278 105.99283322 120.67259079 102 121 C99.31771067 121.96090415 99.31771067 121.96090415 96.71875 123.421875 C95.72375488 123.94644287 94.72875977 124.47101074 93.70361328 125.01147461 C92.11782471 125.87204468 92.11782471 125.87204468 90.5 126.75 C88.83493408 127.63473999 88.83493408 127.63473999 87.13623047 128.53735352 C79.20775763 132.7638003 71.32530975 137.0769495 63.453125 141.40722656 C55.05124413 146.0144184 46.54122956 150.40291713 38.0234375 154.79101562 C31.00498234 158.41588821 24.04279973 162.12437739 17.125 165.9375 C8.29618774 170.79844651 -0.61379722 175.48979182 -9.5625 180.125 C-10.19822937 180.45523163 -10.83395874 180.78546326 -11.48895264 181.1257019 C-13.30504088 182.06830224 -15.12287543 183.00743476 -16.94140625 183.9453125 C-17.99013916 184.48687988 -19.03887207 185.02844727 -20.11938477 185.58642578 C-22.71099624 186.85818021 -25.30401814 187.97174774 -28 189 C-28.4846875 188.15179688 -28.969375 187.30359375 -29.46875 186.4296875 C-29.7891626 185.86967041 -30.1095752 185.30965332 -30.43969727 184.73266602 C-31.15357295 183.48194529 -31.86495375 182.22979762 -32.57397461 180.97631836 C-34.44321244 177.67996165 -36.34568014 174.41694949 -38.34765625 171.19921875 C-38.71890625 170.58900879 -39.09015625 169.97879883 -39.47265625 169.35009766 C-40.5127952 167.64402746 -41.57043364 165.94866295 -42.62890625 164.25390625 C-45.5883499 157.23049724 -41.79003312 149.15844136 -39.65527344 142.19433594 C-38.93344016 139.77710886 -38.27023434 137.34650376 -37.6015625 134.9140625 C-34.25291436 123.29104011 -30.11708158 115.28665682 -21.63671875 106.69335938 C-18.74871545 103.70541324 -16.07856952 100.5290299 -13.375 97.375 C-12.88563965 96.81377441 -12.3962793 96.25254883 -11.89208984 95.67431641 C-11.39918457 95.10890137 -10.9062793 94.54348633 -10.3984375 93.9609375 C-9.60409302 93.05722412 -9.60409302 93.05722412 -8.79370117 92.13525391 C-7.44243584 90.52668352 -6.14987403 88.86852961 -4.88793945 87.18896484 C1.53854553 78.86021918 8.44816884 73.9901739 17.5625 68.875 C19.48570066 67.76941866 21.40496909 66.65745286 23.32176208 65.540802 C25.03276975 64.54797172 26.75355474 63.57204729 28.47485352 62.59716797 C31.09226137 61.24618803 31.09226137 61.24618803 32 59 C32.38494576 54.38465657 31.75326374 51.87146947 29.24609375 48.0078125 C28.64563232 47.06655518 28.0451709 46.12529785 27.42651367 45.15551758 C26.4419519 43.65541138 26.4419519 43.65541138 25.4375 42.125 C24.0674618 39.98583496 22.69767787 37.84650705 21.328125 35.70703125 C20.61720703 34.60697754 19.90628906 33.50692383 19.17382812 32.37353516 C15.62909356 26.88429119 12.15958483 21.3479052 8.6875 15.8125 C8.04804443 14.80396973 7.40858887 13.79543945 6.74975586 12.75634766 C6.15557861 11.81194824 5.56140137 10.86754883 4.94921875 9.89453125 C4.42674561 9.06800049 3.90427246 8.24146973 3.3659668 7.38989258 C1.99233631 4.98659163 0.96352027 2.5917859 0 0 Z " fill="#646C77" transform="translate(151,44)"/>
<path d="M0 0 C11.24944021 3.37483206 11.24944021 3.37483206 15.36694336 4.92944336 C16.29167953 5.27667953 17.21641571 5.62391571 18.16917419 5.98167419 C19.13299515 6.34737015 20.0968161 6.7130661 21.08984375 7.08984375 C22.11501602 7.47564102 23.14018829 7.86143829 24.19642639 8.25892639 C27.44464099 9.48198778 30.69112457 10.70956629 33.9375 11.9375 C37.18065759 13.16090871 40.42417064 14.38336903 43.66786194 15.60536194 C45.67625632 16.36233748 47.68428851 17.12027501 49.69187927 17.87937927 C51.54176667 18.57793204 53.39296945 19.273013 55.24557495 19.96432495 C57.14696328 20.67925471 59.04263461 21.40951077 60.93338013 22.15213013 C69.67527516 25.51161681 74.77198074 25.43730796 83.38671875 22.0703125 C84.59759407 21.61089516 84.59759407 21.61089516 85.83293152 21.14219666 C88.45461825 20.14537399 91.07091554 19.1351301 93.6875 18.125 C95.48867657 17.43827313 97.29027449 16.7526504 99.09228516 16.06811523 C102.696705 14.69804433 106.29946886 13.32376326 109.90087891 11.94580078 C116.87791437 9.27929808 123.8732577 6.66329992 130.875 4.0625 C131.98963623 3.64436035 133.10427246 3.2262207 134.25268555 2.79541016 C135.25984619 2.42077637 136.26700684 2.04614258 137.3046875 1.66015625 C138.17077637 1.33668213 139.03686523 1.01320801 139.92919922 0.67993164 C142 0 142 0 144 0 C144 20.79 144 41.58 144 63 C124.35129375 70.38520339 124.35129375 70.38520339 114.8671875 73.92578125 C108.92763524 76.14399781 102.9948381 78.37712044 97.07937622 80.65885925 C94.3553599 81.70759911 91.62648988 82.74326334 88.89654541 83.77645874 C87.04078154 84.48444165 85.19191284 85.2104148 83.34326172 85.93676758 C82.21936035 86.35982178 81.09545898 86.78287598 79.9375 87.21875 C78.97714844 87.58935547 78.01679688 87.95996094 77.02734375 88.34179688 C70.01331909 89.86678159 63.78167964 87.45157695 57.3125 84.9375 C56.09356552 84.47617172 56.09356552 84.47617172 54.8500061 84.00552368 C52.23012713 83.01189484 49.61510955 82.00610597 47 81 C45.20003443 80.31473185 43.39973965 79.63032783 41.59912109 78.94677734 C38.03948594 77.59446585 34.48149504 76.23796649 30.92480469 74.87792969 C24.50446314 72.42552455 18.0655007 70.02392387 11.625 67.625 C9.76256497 66.93090949 7.90053252 66.23573693 6.0390625 65.5390625 C5.29865723 65.26271973 4.55825195 64.98637695 3.79541016 64.70166016 C2 64 2 64 0 63 C0 42.21 0 21.42 0 0 Z " fill="#646C77" transform="translate(184,226)"/>
<path d="M0 0 C11.24944021 3.37483206 11.24944021 3.37483206 15.36694336 4.92944336 C16.29167953 5.27667953 17.21641571 5.62391571 18.16917419 5.98167419 C19.13299515 6.34737015 20.0968161 6.7130661 21.08984375 7.08984375 C22.11501602 7.47564102 23.14018829 7.86143829 24.19642639 8.25892639 C27.44464099 9.48198778 30.69112457 10.70956629 33.9375 11.9375 C37.18065759 13.16090871 40.42417064 14.38336903 43.66786194 15.60536194 C45.67625632 16.36233748 47.68428851 17.12027501 49.69187927 17.87937927 C51.54176667 18.57793204 53.39296945 19.273013 55.24557495 19.96432495 C57.14696328 20.67925471 59.04263461 21.40951077 60.93338013 22.15213013 C69.67527516 25.51161681 74.77198074 25.43730796 83.38671875 22.0703125 C84.59759407 21.61089516 84.59759407 21.61089516 85.83293152 21.14219666 C88.45461825 20.14537399 91.07091554 19.1351301 93.6875 18.125 C95.48867657 17.43827313 97.29027449 16.7526504 99.09228516 16.06811523 C102.696705 14.69804433 106.29946886 13.32376326 109.90087891 11.94580078 C116.87791437 9.27929808 123.8732577 6.66329992 130.875 4.0625 C131.98963623 3.64436035 133.10427246 3.2262207 134.25268555 2.79541016 C135.25984619 2.42077637 136.26700684 2.04614258 137.3046875 1.66015625 C138.17077637 1.33668213 139.03686523 1.01320801 139.92919922 0.67993164 C142 0 142 0 144 0 C144 18.15 144 36.3 144 55 C130.35282962 60.21593423 130.35282962 60.21593423 124.1484375 62.55078125 C119.33908251 64.36071922 114.53223329 66.17671614 109.73144531 68.00927734 C105.13596712 69.76239043 100.53364735 71.49647938 95.92697144 73.21994019 C94.1073545 73.90412848 92.29003495 74.5944596 90.47512817 75.29104614 C87.89946587 76.27829916 85.31632482 77.24294547 82.73046875 78.203125 C81.96687042 78.50151779 81.20327209 78.79991058 80.41653442 79.10734558 C71.93336365 82.1999004 65.47059886 80.1079311 57.3125 76.9375 C56.09356552 76.47617172 56.09356552 76.47617172 54.8500061 76.00552368 C52.23012713 75.01189484 49.61510955 74.00610597 47 73 C45.20003443 72.31473185 43.39973965 71.63032783 41.59912109 70.94677734 C38.03948594 69.59446585 34.48149504 68.23796649 30.92480469 66.87792969 C24.50446314 64.42552455 18.0655007 62.02392387 11.625 59.625 C9.76256497 58.93090949 7.90053252 58.23573693 6.0390625 57.5390625 C5.29865723 57.26271973 4.55825195 56.98637695 3.79541016 56.70166016 C2 56 2 56 0 55 C0 36.85 0 18.7 0 0 Z " fill="#646C77" transform="translate(184,386)"/>
<path d="M0 0 C0 68.31 0 136.62 0 207 C-20 200 -20 200 -25 198 C-25.08610535 196.91249702 -25.08610535 196.91249702 -25.1739502 195.80302429 C-25.87870195 186.9134519 -26.58921516 178.02434901 -27.3033371 169.13552475 C-27.43404633 167.50847958 -27.56466719 165.88142731 -27.69519806 164.25436783 C-29.43404011 142.58854731 -31.25061214 120.9310051 -33.1796875 99.28125 C-33.27105736 98.25385019 -33.36242722 97.22645039 -33.45656586 96.16791725 C-34.36027871 86.00666768 -35.26843451 75.84585928 -36.19299126 65.68648338 C-36.5382504 61.88094815 -36.8789487 58.07501308 -37.21869278 54.26898193 C-37.37737092 52.50382476 -37.53810881 50.73885125 -37.70113754 48.97409058 C-38.59630625 39.27890025 -39.24071203 29.7461221 -39 20 C-31.67134709 15.99137975 -24.33746676 11.99246357 -17 8 C-16.18096191 7.55333984 -15.36192383 7.10667969 -14.51806641 6.64648438 C-12.43108682 5.50986227 -10.3412096 4.37881537 -8.25 3.25 C-7.63761475 2.91548828 -7.02522949 2.58097656 -6.39428711 2.23632812 C-2.23002772 0 -2.23002772 0 0 0 Z " fill="#A9B1BC" transform="translate(168,228)"/>
<path d="M0 0 C4.19857143 1.67942857 8.16087183 3.54899743 12.1640625 5.625 C12.83795013 5.97256348 13.51183777 6.32012695 14.20614624 6.67822266 C15.62368127 7.41002324 17.04063313 8.14295446 18.45703125 8.87695312 C20.62341985 9.99918145 22.7920279 11.11702818 24.9609375 12.234375 C26.34128001 12.94765706 27.72149286 13.66119013 29.1015625 14.375 C29.74848053 14.70838379 30.39539856 15.04176758 31.06192017 15.38525391 C33.81422191 16.81417752 36.41602121 18.27734747 39 20 C40.72075007 31.01535234 38.21089918 43.59214558 37.20703125 54.62109375 C37.01808988 56.74523053 36.829718 58.86941804 36.64187622 60.99365234 C36.24362015 65.48716585 35.84213805 69.98037367 35.43795776 74.47335815 C34.49526874 84.95601082 33.56948772 95.44016104 32.64353371 105.92430305 C32.43837682 108.24665096 32.23302258 110.56898143 32.02747154 112.89129448 C30.2421519 133.06647156 28.54308696 153.24726344 26.9375 173.4375 C26.78204208 175.38981033 26.78204208 175.38981033 26.6234436 177.38156128 C26.07712428 184.25398552 25.53742777 191.12686601 25 198 C12.625 202.455 12.625 202.455 0 207 C0 138.69 0 70.38 0 0 Z " fill="#A9B1BC" transform="translate(344,228)"/>
<path d="M0 0 C3.27598741 1.23639686 6.20461269 2.61479355 9.16796875 4.4765625 C9.96485107 4.97389893 10.7617334 5.47123535 11.58276367 5.98364258 C12.44232666 6.52529053 13.30188965 7.06693848 14.1875 7.625 C16.08305751 8.80903544 17.97890395 9.99260841 19.875 11.17578125 C21.37353516 12.11284912 21.37353516 12.11284912 22.90234375 13.06884766 C28.14965082 16.34014329 33.41918174 19.57519228 38.6875 22.8125 C40.88022621 24.16142928 43.07293434 25.51038794 45.265625 26.859375 C49.27010073 29.32204556 53.27527684 31.78356969 57.28129578 34.24372864 C59.03576684 35.32130251 60.7900139 36.39924007 62.54418945 37.47729492 C64.73237558 38.82194545 66.92098345 40.16591004 69.11010742 41.5090332 C75.78121498 45.60934721 82.40640709 49.77616988 89 54 C87.37825822 57.41179019 85.50978823 59.83948858 82.9375 62.625 C81.72900391 63.94371094 81.72900391 63.94371094 80.49609375 65.2890625 C79.67238281 66.18367188 78.84867187 67.07828125 78 68 C76.49772356 69.66461506 74.99767181 71.3312409 73.5 73 C64.5 83 64.5 83 62.265625 85.45703125 C60.67957454 87.23723616 59.13011101 89.05040517 57.609375 90.88671875 C56.83078125 91.81097656 56.0521875 92.73523438 55.25 93.6875 C54.55390625 94.53699219 53.8578125 95.38648438 53.140625 96.26171875 C51 98 51 98 48.78369141 97.84375 C45.31063245 96.79104944 42.397877 95.11201178 39.3203125 93.23828125 C38.67945709 92.85593323 38.03860168 92.47358521 37.37832642 92.07965088 C35.28957991 90.83096115 33.20729039 89.57192105 31.125 88.3125 C29.6751436 87.44271281 28.22494531 86.57349528 26.77441406 85.70483398 C22.50973566 83.1473291 18.253457 80.57611514 14 78 C13.41432251 77.64542725 12.82864502 77.29085449 12.22521973 76.92553711 C7.81396856 74.25384717 3.40513007 71.5783759 -0.99023438 68.88061523 C-5.57044584 66.07037111 -10.17007578 63.30638162 -14.8203125 60.61328125 C-15.75456055 60.06792725 -16.68880859 59.52257324 -17.65136719 58.96069336 C-19.4193333 57.93138717 -21.1931507 56.91204231 -22.97363281 55.90454102 C-23.75319336 55.44877686 -24.53275391 54.9930127 -25.3359375 54.5234375 C-26.02220215 54.13075684 -26.7084668 53.73807617 -27.41552734 53.33349609 C-29 52 -29 52 -29.85400391 50.07373047 C-30.03917789 47.44351669 -29.44836781 46.48187362 -28 44.296875 C-27.53198975 43.57516113 -27.06397949 42.85344727 -26.58178711 42.10986328 C-25.79880249 40.94173096 -25.79880249 40.94173096 -25 39.75 C-23.89607143 38.05538014 -22.79326251 36.36003053 -21.69140625 34.6640625 C-21.09730957 33.75688477 -20.50321289 32.84970703 -19.89111328 31.91503906 C-16.50457492 26.69489085 -13.22703921 21.40659155 -9.9375 16.125 C-9.29490234 15.09729492 -8.65230469 14.06958984 -7.99023438 13.01074219 C-5.29187042 8.69364661 -2.60924694 4.37172309 0 0 Z " fill="#A8B0BB" transform="translate(378,47)"/>
<path d="M0 0 C1.50537109 2.08520508 1.50537109 2.08520508 3.2734375 5.01953125 C3.92812012 6.0964624 4.58280273 7.17339355 5.25732422 8.28295898 C5.96323114 9.45946366 6.66912275 10.63597752 7.375 11.8125 C8.45676363 13.59729035 9.54118527 15.38044705 10.62576294 17.16352844 C11.35661906 18.36541587 12.08665601 19.56780179 12.81588745 20.77067566 C16.10848845 26.19799675 19.47549581 31.57649786 22.875 36.9375 C23.36790527 37.71649658 23.86081055 38.49549316 24.36865234 39.2980957 C26.21977565 42.21823778 28.08200448 45.12300672 30 48 C29.87036133 50.02270508 29.87036133 50.02270508 29 52 C27.3112793 53.37768555 27.3112793 53.37768555 25.07421875 54.63671875 C23.80735229 55.36532104 23.80735229 55.36532104 22.51489258 56.10864258 C21.11533325 56.890177 21.11533325 56.890177 19.6875 57.6875 C17.66292356 58.84958048 15.63954174 60.01374404 13.6171875 61.1796875 C12.53920898 61.79811523 11.46123047 62.41654297 10.35058594 63.05371094 C5.20849227 66.04065139 0.13628418 69.14079259 -4.93661499 72.24313354 C-7.87423235 74.03730589 -10.81828254 75.82086451 -13.76171875 77.60546875 C-17.45020824 79.84185014 -21.13633999 82.08185449 -24.81494141 84.33447266 C-27.93926779 86.24711521 -31.07085176 88.14732202 -34.20767212 90.03939819 C-35.39477723 90.75842035 -36.57921741 91.48186233 -37.76083374 92.20986938 C-39.39603057 93.21651911 -41.04154991 94.20634302 -42.6875 95.1953125 C-44.08548828 96.04633545 -44.08548828 96.04633545 -45.51171875 96.91455078 C-48 98 -48 98 -50.11791992 97.88256836 C-52.41612968 96.8048633 -53.71051164 95.55499782 -55.42578125 93.68359375 C-56.37420898 92.65975586 -56.37420898 92.65975586 -57.34179688 91.61523438 C-57.99212891 90.89658203 -58.64246094 90.17792969 -59.3125 89.4375 C-59.95123047 88.74591797 -60.58996094 88.05433594 -61.24804688 87.34179688 C-65.01787348 83.243495 -68.69828389 79.07217514 -72.35473633 74.87280273 C-75.20270718 71.63095907 -78.14230038 68.47472736 -81.08007812 65.31445312 C-86.97439089 58.93245114 -86.97439089 58.93245114 -89 56 C-87.79139758 52.37419273 -86.9905522 52.12415755 -83.7578125 50.28515625 C-82.86650635 49.77025635 -81.9752002 49.25535645 -81.05688477 48.72485352 C-80.08936279 48.17627686 -79.12184082 47.6277002 -78.125 47.0625 C-76.09367985 45.88778636 -74.06375353 44.71065952 -72.03515625 43.53125 C-71.01437988 42.93828125 -69.99360352 42.3453125 -68.94189453 41.734375 C-64.75681666 39.26708926 -60.65462799 36.68020972 -56.5625 34.0625 C-48.71209364 29.05200821 -40.77473746 24.19931107 -32.80419922 19.38256836 C-24.72317294 14.48153145 -16.75200308 9.41828947 -8.82885742 4.26611328 C-7.96107666 3.70649902 -7.0932959 3.14688477 -6.19921875 2.5703125 C-5.43440186 2.07289551 -4.66958496 1.57547852 -3.8815918 1.06298828 C-2 0 -2 0 0 0 Z " fill="#A8B0BB" transform="translate(134,47)"/>
<path d="M0 0 C3.03194924 1.36717845 5.96310556 2.80463081 8.8840332 4.39575195 C10.55985474 5.30212402 10.55985474 5.30212402 12.26953125 6.22680664 C13.46793342 6.88063395 14.66625523 7.53460855 15.86450195 8.1887207 C18.36557378 9.54702894 20.86852542 10.90183466 23.37231445 12.25512695 C24.3238163 12.76993118 24.3238163 12.76993118 25.29454041 13.2951355 C29.64109465 15.63854068 34.01738206 17.91586546 38.41918945 20.15356445 C39.56798584 20.73968506 40.71678223 21.32580566 41.90039062 21.9296875 C44.09450027 23.0444691 46.2924917 24.1516494 48.49462891 25.25048828 C49.4764917 25.75088623 50.45835449 26.25128418 51.4699707 26.7668457 C52.33388428 27.20029297 53.19779785 27.63374023 54.08789062 28.08032227 C56.05200195 29.3762207 56.05200195 29.3762207 57.05200195 32.3762207 C50.70246473 34.72445508 44.35275475 37.07222184 38.00292969 39.41967773 C35.84696626 40.21677291 33.69104106 41.0139715 31.53515625 41.8112793 C28.41978058 42.96341314 25.30426338 44.11516356 22.1887207 45.2668457 C21.23930099 45.61805481 20.28988129 45.96926392 19.31169128 46.33111572 C17.47284886 47.01069777 15.63219227 47.68539372 13.78964233 48.3548584 C11.91151378 49.05555295 10.04629936 49.79157082 8.19351196 50.5567627 C-1.40536295 54.40907248 -7.58600569 52.82985898 -17.0222168 49.1730957 C-17.86790726 48.85342834 -18.71359772 48.53376099 -19.58491516 48.20440674 C-22.2716626 47.18659132 -24.95356174 46.15663741 -27.63549805 45.1262207 C-29.41579137 44.44963468 -31.19638817 43.77384666 -32.97729492 43.09887695 C-37.9720201 41.20296751 -42.96096436 39.29225729 -47.94799805 37.3762207 C-48.65796936 37.10366455 -49.36794067 36.8311084 -50.09942627 36.55029297 C-53.71660306 35.16148991 -57.3328823 33.77037975 -60.94799805 32.3762207 C-60.94799805 31.7162207 -60.94799805 31.0562207 -60.94799805 30.3762207 C-56.80370822 28.14417873 -52.657743 25.91526637 -48.51049805 23.6887207 C-47.57401932 23.1859259 -47.57401932 23.1859259 -46.61862183 22.67297363 C-36.40954323 17.19562403 -26.15788168 11.80813911 -15.85839844 6.50244141 C-14.88894287 6.00188232 -13.9194873 5.50132324 -12.9206543 4.9855957 C-11.65620483 4.3354248 -11.65620483 4.3354248 -10.36621094 3.67211914 C-7.87271461 2.40893328 -7.87271461 2.40893328 -5.51220703 0.58813477 C-2.94799805 -0.6237793 -2.94799805 -0.6237793 0 0 Z " fill="#424953" transform="translate(257.947998046875,181.623779296875)"/>
<path d="M0 0 C37.62 0 75.24 0 114 0 C110.33560819 3.66439181 106.76458841 6.87345563 102.6875 10 C97.40246634 14.1005544 92.17973643 18.26723225 87 22.5 C81.28065547 27.16919219 75.51760603 31.7753032 69.69140625 36.31054688 C66.48950766 38.78961506 66.48950766 38.78961506 63.44628906 41.45703125 C59.68330381 44.93941148 59.68330381 44.93941148 56.62109375 45.2109375 C52.56133473 43.33534093 49.43196327 40.53259118 46.0625 37.625 C44.53496492 36.3359222 43.00630429 35.04817708 41.4765625 33.76171875 C40.71891602 33.12153809 39.96126953 32.48135742 39.18066406 31.82177734 C36.15197978 29.29154424 33.05530936 26.85642759 29.9375 24.4375 C24.08200959 19.88096274 18.31865787 15.21860754 12.59155273 10.50170898 C9.47199787 7.94650376 6.33098711 5.49381378 3.02734375 3.1796875 C2.02832031 2.46039063 1.02929688 1.74109375 0 1 C0 0.67 0 0.34 0 0 Z " fill="#424953" transform="translate(199,44)"/>
<path d="M0 0 C3.10412761 1.35428461 4.91475724 2.77134253 7.0625 5.375 C10.12490292 8.997197 13.28146404 12.51662701 16.5 16 C19.69070999 19.46193661 22.85207268 22.94346442 25.9375 26.5 C26.48148438 27.11875 27.02546875 27.7375 27.5859375 28.375 C28.76637054 29.73151974 29.91814825 31.11290697 31.0625 32.5 C33.879189 34.68066245 35.47028373 34.37541491 39 34 C41.81756988 32.83004458 44.38672971 31.31697974 47 29.75 C47.68578125 29.35425781 48.3715625 28.95851562 49.078125 28.55078125 C53.15532618 26.17760117 57.10168843 23.65572476 61 21 C61.66 21.33 62.32 21.66 63 22 C62.18208984 22.89138672 62.18208984 22.89138672 61.34765625 23.80078125 C57.29552458 28.25466273 53.34418496 32.75091186 49.5625 37.4375 C45.57680254 42.37050232 41.37991334 47.0432232 37.06640625 51.6875 C34.88630363 54.01802691 34.88630363 54.01802691 33 57 C27.78844825 56.39611042 23.55402217 54.71789736 18.8125 52.61328125 C18.03293945 52.27378952 17.25337891 51.93429779 16.45019531 51.58451843 C13.96397808 50.5001636 11.48194435 49.40659441 9 48.3125 C7.36355732 47.59637402 5.72684074 46.88087361 4.08984375 46.16601562 C0.9011677 44.7730108 -2.28614934 43.37696256 -5.47265625 41.97900391 C-11.6320706 39.28105826 -17.8137824 36.63582824 -24 34 C-24 29.59418188 -21.34263391 27.10180295 -18.75 23.75 C-18.21729492 23.05068359 -17.68458984 22.35136719 -17.13574219 21.63085938 C-11.54384345 14.32568411 -5.79170327 7.1472083 0 0 Z " fill="#C8CDD5" transform="translate(46,129)"/>
<path d="M0 0 C4.07530048 1.54325438 5.87906757 4.11530352 8.4375 7.5625 C9.30835211 8.72413953 10.17945997 9.88558735 11.05078125 11.046875 C11.51822754 11.67529297 11.98567383 12.30371094 12.46728516 12.95117188 C15.319538 16.76386793 18.22755891 20.53410972 21.125 24.3125 C22.25290766 25.7875284 23.38053716 27.26276955 24.5078125 28.73828125 C24.98879395 29.36774658 25.46977539 29.99721191 25.96533203 30.64575195 C26.30677246 31.09265381 26.64821289 31.53955566 27 32 C25.49047803 35.01904395 23.22250533 35.37881389 20.1484375 36.6875 C19.54572525 36.94651093 18.943013 37.20552185 18.32203674 37.47238159 C16.34240404 38.32143428 14.3589286 39.16103955 12.375 40 C10.32423279 40.87335832 8.27415182 41.74831193 6.22416687 42.62350464 C4.83820805 43.21506782 3.45190357 43.80582181 2.06526184 44.39578247 C-2.29093856 46.25334286 -6.61937469 48.16345988 -10.93359375 50.1171875 C-11.97499512 50.58511719 -13.01639648 51.05304688 -14.08935547 51.53515625 C-16.03175385 52.41049558 -17.96982565 53.29551744 -19.90283203 54.19140625 C-20.77149902 54.57941406 -21.64016602 54.96742188 -22.53515625 55.3671875 C-23.281604 55.70862793 -24.02805176 56.05006836 -24.79711914 56.40185547 C-27.56378118 57.15308255 -29.28001425 56.84907816 -32 56 C-34.10546875 53.8828125 -34.10546875 53.8828125 -36.1875 51.125 C-39.3253071 47.097367 -42.52955282 43.24570815 -46 39.5 C-51.68287241 33.31987626 -57.33587705 26.99618443 -62 20 C-59.01836333 21.43183065 -56.24038403 23.05351268 -53.4453125 24.8203125 C-52.58292969 25.35527344 -51.72054688 25.89023438 -50.83203125 26.44140625 C-49.02945042 27.56249188 -47.23251588 28.69270824 -45.44140625 29.83203125 C-39.20349366 33.85522015 -39.20349366 33.85522015 -32 34 C-19.67072652 27.08050978 -8.90064559 10.78866133 0 0 Z " fill="#C9CDD5" transform="translate(464,129)"/>
<path d="M0 0 C0.65176423 3.31136086 1.29529828 6.62427245 1.9375 9.9375 C2.21110352 11.32678711 2.21110352 11.32678711 2.49023438 12.74414062 C3.59881542 18.48860605 4.43259933 24.17667738 5 30 C-5.71790914 32.73327836 -16.46321092 35.30884561 -27.25830078 37.71972656 C-29.65927101 38.25767863 -32.0580887 38.80464828 -34.45703125 39.3515625 C-36.00508444 39.69846999 -37.55325719 40.04484448 -39.1015625 40.390625 C-39.80785797 40.55306702 -40.51415344 40.71550903 -41.24185181 40.88287354 C-45.23282227 41.76179469 -48.91586532 42.16390644 -53 42 C-53.31453125 40.98421875 -53.6290625 39.9684375 -53.953125 38.921875 C-54.38532116 37.53122031 -54.81762012 36.14059757 -55.25 34.75 C-55.47381348 34.02723877 -55.69762695 33.30447754 -55.92822266 32.55981445 C-57.62502789 27.11163862 -59.45885715 21.72262812 -61.3984375 16.35546875 C-62 14 -62 14 -61 11 C-60.57589844 11.5775 -60.15179688 12.155 -59.71484375 12.75 C-59.12832031 13.4925 -58.54179687 14.235 -57.9375 15 C-57.36902344 15.7425 -56.80054688 16.485 -56.21484375 17.25 C-53.0281239 19.7679021 -51.01209158 19.31745805 -47 19 C-44.21676199 18.18323972 -41.61904069 17.04852624 -38.9765625 15.859375 C-38.23095062 15.53592102 -37.48533875 15.21246704 -36.71713257 14.87921143 C-34.34769391 13.84799713 -31.98644528 12.79937026 -29.625 11.75 C-28.04738284 11.06003555 -26.46926152 10.3712227 -24.890625 9.68359375 C-18.76615433 7.00935906 -12.65978439 4.30305615 -6.5859375 1.515625 C-3 0 -3 0 0 0 Z " fill="#A7AEB9" transform="translate(482,184)"/>
<path d="M0 0 C5.14504066 0.66254964 9.54429753 2.89949691 14.2109375 5.03515625 C16.03104614 5.85266758 17.85136524 6.66971044 19.671875 7.48632812 C22.52694193 8.77361355 25.38005243 10.06480453 28.22949219 11.36450195 C30.98905945 12.62052 33.75554975 13.86010418 36.5234375 15.09765625 C37.36844818 15.48824722 38.21345886 15.8788382 39.08407593 16.28126526 C43.8827636 18.41240949 47.6412108 19.66911267 53 19 C56.34945491 16.61673401 59.11075592 13.89774186 62 11 C60.66024604 17.43340792 58.96291595 23.62627149 56.9375 29.875 C56.5343457 31.13570312 56.5343457 31.13570312 56.12304688 32.421875 C55.09860101 35.62039426 54.06208054 38.81375838 53 42 C45.97584153 41.360862 39.27195592 40.07353626 32.40234375 38.49609375 C30.79003624 38.13198143 30.79003624 38.13198143 29.14515686 37.76051331 C25.74154518 36.99076507 22.33952107 36.21424463 18.9375 35.4375 C16.61794043 34.91165975 14.29827991 34.38626456 11.97851562 33.86132812 C6.31783265 32.57936443 0.65843448 31.29185001 -5 30 C-4.54770533 26.68664696 -4.08703725 23.37450737 -3.625 20.0625 C-3.49867187 19.13630859 -3.37234375 18.21011719 -3.2421875 17.25585938 C-2.42355623 11.4231116 -1.35240036 5.73300153 0 0 Z " fill="#A7AFBA" transform="translate(30,184)"/>
</svg>
