<?xml version="1.0" encoding="UTF-8"?>
<svg version="1.1" xmlns="http://www.w3.org/2000/svg" width="512" height="512">
<path d="M0 0 C6.40312591 4.88554514 10.54810324 13.16523635 12 21 C12.14770657 23.68144227 12.23727809 26.3180437 12.25 29 C12.25539795 29.75676025 12.2607959 30.51352051 12.26635742 31.29321289 C12.22539667 35.95138826 11.67315724 39.94674713 10.3125 44.4375 C8.81910978 49.56065813 9.38775506 52.14025055 11.2109375 57.0390625 C13.9369266 67.26826912 12.97646519 78.69698113 8 88 C6.21683266 90.92531437 6.21683266 90.92531437 6 94 C7.26659142 96.32208428 8.76147238 98.37237791 10.33203125 100.5 C14.14032464 106.20798073 16.26491211 113.200437 17 120 C17.85207031 120.09539062 18.70414063 120.19078125 19.58203125 120.2890625 C23.43169966 121.08979353 26.24817112 122.48157156 29.6875 124.375 C30.80511719 124.98085937 31.92273438 125.58671875 33.07421875 126.2109375 C36 128 36 128 37.41796875 129.83984375 C37.94003906 130.22269531 38.46210937 130.60554687 39 131 C41.68997443 130.54965597 44.03790868 129.9810408 46.625 129.1875 C53.29975341 127.33037828 59.28253606 125.9554187 66.1875 127.484375 C69.82657263 128.21724379 72.01441647 128.55635117 75.33203125 126.68359375 C76.98162978 125.44972603 78.61661113 124.19613194 80.23828125 122.92578125 C85.50092757 119.25607172 92.50402963 116 99 116 C98.59007812 114.99582031 98.18015625 113.99164063 97.7578125 112.95703125 C89.02840107 91.04184117 88.41827145 68.21060869 97.53466797 46.30175781 C104.37533384 30.77092799 115.25729378 17.44726373 131.0703125 10.6875 C144.79708833 6.01455504 162.39309854 5.89503976 176 11 C180.56429099 13.24751984 184.63515545 15.74889249 188.390625 19.19140625 C191.66512714 21.46100878 193.32650247 21.30326551 197.25 21 C205.85091749 20.74760287 212.06780817 23.34750756 218.375 29.1875 C225.79620219 37.46499475 230.18316838 48.97277309 231 60 C231.07734375 61.03060547 231.07734375 61.03060547 231.15625 62.08203125 C231.67326542 75.07204374 228.89991902 90.10966609 220.52734375 100.26953125 C215.74097014 107.01798211 215.20482277 114.33002264 214.3125 122.3125 C213.96995834 125.16486155 213.61114466 128.01472733 213.23828125 130.86328125 C213.1479512 131.55349365 213.05762115 132.24370605 212.96455383 132.95483398 C211.50554835 143.33066764 208.65852811 152.78514123 202 161 C201.47535156 161.66 200.95070312 162.32 200.41015625 163 C196.06198332 167.91087766 191.48962187 170.09263646 185 171 C181.12500799 170.97644382 177.49512174 170.74756087 174 169 C174.33 172.63 174.66 176.26 175 180 C179.81474902 181.84301831 184.63917293 183.56108102 189.54516602 185.14355469 C196.37184279 187.34585076 202.94630885 189.63913274 209.34765625 192.921875 C216.37640405 195.77892123 223.78641977 196.37997457 231.29296875 196.81640625 C232.24263016 196.87779282 233.19229156 196.93917938 234.17073059 197.00242615 C237.17594371 197.19575714 240.18162838 197.37971867 243.1875 197.5625 C246.20396851 197.750261 249.22027969 197.94007932 252.23640442 198.13328552 C254.10490877 198.25254457 255.97362868 198.36848742 257.84257507 198.48060608 C262.28983035 198.76022148 266.61479555 199.15802276 271 200 C270.65775391 199.03900391 270.65775391 199.03900391 270.30859375 198.05859375 C268.47582332 192.54384506 267.55212458 188.67084538 269 183 C271.6905639 180.3094361 279.26590547 181.68784271 282.85375977 181.68530273 C317.67951559 182.12613509 356.7945629 190.955506 389.34765625 203.69921875 C396.07450223 205.97805546 403.46108648 205.77173193 410.5 206.0625 C436.86452254 207.21547593 436.86452254 207.21547593 447.38671875 218.51171875 C451.83164504 225.36745252 452.50120934 232.56408153 452.4375 240.5625 C452.45748047 241.45646484 452.47746094 242.35042969 452.49804688 243.27148438 C452.49360481 249.34378235 451.44227255 253.93535744 448 259 C442.94837759 263.92209363 438.15086739 265.29822638 431.1875 265.375 C425.26498135 265.28817774 420.75121424 264.64785169 416 261 C415.47491852 260.32450104 414.94983704 259.64900208 414.40884399 258.95303345 C411.03911524 256.22093748 407.96250775 256.44199934 403.81005859 256.48583984 C402.98673035 256.47871475 402.1634021 256.47158966 401.31512451 256.46424866 C398.59265216 256.44494921 395.87095575 256.45325405 393.1484375 256.4609375 C391.24995797 256.45102838 389.35148806 256.43908631 387.45303345 256.42520142 C382.44927909 256.39279908 377.44574346 256.3824457 372.44189453 256.37835693 C364.45471061 256.36961439 356.46770715 256.33385354 348.48067093 256.2861824 C345.70118625 256.27367487 342.92193244 256.27434942 340.14242554 256.27645874 C332.78470453 256.25917945 325.92122119 256.20417962 318.74337769 254.46237183 C311.43339688 253.2303398 303.82303393 253.63237394 296.4296875 253.5859375 C294.53825051 253.56720146 292.64682167 253.54762628 290.75540161 253.5272522 C285.80717801 253.47618212 280.85892739 253.43642279 275.9105835 253.39910889 C270.84917657 253.35891072 265.78787961 253.30789094 260.7265625 253.2578125 C250.81778587 253.16135115 240.90894678 253.07685212 231 253 C230.34 251.35 229.68 249.7 229 248 C226.36 248.33 223.72 248.66 221 249 C221.309375 250.258125 221.61875 251.51625 221.9375 252.8125 C224.78445916 265.92080115 224.73655316 277.63535963 217.7734375 289.47265625 C215.48280661 292.73705754 212.85985541 295.38189933 209.95703125 298.1015625 C202.62616767 305.21293914 198.72726496 312.59418716 198.50764465 322.8065033 C198.50125473 323.77656815 198.49486481 324.746633 198.48828125 325.74609375 C198.47033005 326.75720718 198.45237885 327.76832062 198.43388367 328.81007385 C198.37997958 332.0191743 198.34594851 335.22812769 198.3125 338.4375 C198.2793094 340.62176516 198.24481814 342.80601098 198.20898438 344.99023438 C198.12426476 350.326691 198.05583113 355.66316713 198 361 C199.41491687 361.04406316 200.83023894 361.07521112 202.24560547 361.10107422 C203.03369598 361.11983612 203.8217865 361.13859802 204.63375854 361.15792847 C208.64510419 360.89020191 211.69593604 359.10259968 215.125 357.125 C216.21470093 356.5230481 216.21470093 356.5230481 217.32641602 355.90893555 C224.25743482 352.01019042 230.81853288 347.58592951 237.37646484 343.09863281 C258.20720777 329.00264136 281.40625726 322.97654966 306.48486328 326.33251953 C314.16767605 327.82079505 324.29735263 330.29735263 330 336 C330.5625 338.625 330.5625 338.625 330 342 C326.08393282 347.86780484 320.37432967 352.59665349 315.37890625 357.5234375 C312.24348853 360.78756695 309.56016472 364.27423183 307 368 C307.70125 368.4125 308.4025 368.825 309.125 369.25 C319.53539465 375.58676196 326.39335583 382.81406001 333 393 C333.43699219 393.63035156 333.87398438 394.26070313 334.32421875 394.91015625 C337.14687665 399.25803982 337.51042533 402.97790535 337 408 C336.21865091 411.63388407 335.14847706 415.15609126 334.04296875 418.703125 C333.73933914 419.70333679 333.43570953 420.70354858 333.12287903 421.73406982 C332.48174346 423.83672921 331.83513264 425.93772608 331.18334961 428.03710938 C330.1876218 431.24960705 329.21273843 434.46790544 328.24023438 437.6875 C327.61320638 439.73475127 326.98499188 441.7816396 326.35546875 443.828125 C326.0647197 444.78857727 325.77397064 445.74902954 325.47441101 446.73858643 C325.19434708 447.63341736 324.91428314 448.52824829 324.62573242 449.45019531 C324.26266243 450.62645477 324.26266243 450.62645477 323.89225769 451.82647705 C322.88946186 454.26926884 321.76805993 456.03891104 320 458 C317.0625 458.625 317.0625 458.625 314 458 C311.72506197 455.38037439 310.41416254 452.89216216 308.9609375 449.76171875 C299.93443321 430.51131675 282.69663977 417.50076337 263 410.3125 C249.36380579 405.66809326 235.28984958 404.13364151 221 403 C222.66575159 404.52183555 224.33265671 406.0424085 226 407.5625 C226.50329834 408.02213135 227.00659668 408.4817627 227.52514648 408.95532227 C230.32669747 411.50620112 233.16435366 413.99758213 236.0625 416.4375 C250.76876921 429.32781289 262.54881921 445.98787458 272 463 C272.96679688 464.67835938 272.96679688 464.67835938 273.953125 466.390625 C274.52546875 467.43734375 275.0978125 468.4840625 275.6875 469.5625 C276.18636719 470.47128906 276.68523437 471.38007813 277.19921875 472.31640625 C278.25688154 475.86086642 277.53983438 477.69764751 276 481 C273.27577686 482.36211157 271.10643327 482.14224226 268.05664062 482.16113281 C266.80774048 482.17074036 265.55884033 482.1803479 264.27209473 482.19024658 C262.90014834 482.19509753 261.52819983 482.19937563 260.15625 482.203125 C258.74816893 482.20888007 257.34008788 482.21463776 255.93200684 482.22039795 C252.97289668 482.23091497 250.01381372 482.23675148 247.0546875 482.24023438 C243.28675818 482.24568812 239.51919592 482.26964524 235.75138092 482.29820633 C232.83775845 482.31696484 229.92422154 482.3220455 227.01054382 482.32357025 C225.62324541 482.32657306 224.23594763 482.33452017 222.84870911 482.34775543 C214.81066815 482.41890177 207.49248026 482.15835022 200 479 C199.67 478.67 199.34 478.34 199 478 C196.4613904 477.88895634 193.9497327 477.84261056 191.41015625 477.83886719 C190.6149205 477.83390228 189.81968475 477.82893738 189.00035095 477.82382202 C186.35439196 477.80915186 183.70849308 477.80238749 181.0625 477.796875 C179.22460935 477.79112391 177.38671873 477.78536617 175.54882812 477.77960205 C171.68505574 477.76907581 167.82130425 477.76324498 163.95751953 477.75976562 C159.0225373 477.75430243 154.087834 477.73032817 149.15293884 477.70179367 C145.35063902 477.68309683 141.54840512 477.67795777 137.74606323 477.67642975 C135.92811573 477.67341442 134.11016908 477.66542393 132.29226685 477.65224457 C129.73630168 477.63504989 127.18100069 477.63709761 124.625 477.64355469 C123.88281723 477.6343399 123.14063446 477.62512512 122.3759613 477.6156311 C116.78306542 477.65954429 112.22684039 479.11247286 107 481 C102.3234914 482.27007476 97.66576909 482.16188277 92.85107422 482.17700195 C91.93832733 482.18357315 91.02558044 482.19014435 90.08517456 482.19691467 C87.07501132 482.21657366 84.0648976 482.22828896 81.0546875 482.23828125 C80.02595646 482.24235678 78.99722542 482.2464323 77.93732071 482.25063133 C72.50037082 482.27145269 67.06344593 482.28577578 61.62646484 482.29516602 C56.00265558 482.30626899 50.3792378 482.34072464 44.75556755 482.38033772 C40.43538656 482.40641625 36.11530055 482.41484965 31.79504776 482.41844749 C29.72093157 482.4233301 27.64682009 482.43499131 25.57278061 482.45348549 C22.67824343 482.47770787 19.78474316 482.47694392 16.89013672 482.4699707 C16.02980835 482.48278076 15.16947998 482.49559082 14.28308105 482.50878906 C8.50713201 482.45788062 8.50713201 482.45788062 5.93972778 480.13981628 C4.33442503 476.48444604 5.36448321 473.66817948 6.74462891 470.04541016 C7.71047421 467.77045928 8.74466277 465.54140928 9.8125 463.3125 C10.20775879 462.48669434 10.60301758 461.66088867 11.01025391 460.81005859 C18.20205635 446.16871281 27.09628688 433.09415016 38 421 C39.27176248 419.50078769 40.54272516 418.00089614 41.8125 416.5 C44.68966497 413.2666146 47.40946093 410.44462234 51 408 C52.99960012 407.960008 55.00047242 407.95653201 57 408 C59.18123115 406.06379634 59.18123115 406.06379634 61 404 C59.47632812 403.27296875 59.47632812 403.27296875 57.921875 402.53125 C24.907667 386.55169677 -0.57254521 360.71332193 -20 330 C-20.36174316 329.42910645 -20.72348633 328.85821289 -21.09619141 328.27001953 C-27.87551649 317.45530672 -27.87551649 317.45530672 -28 312 C-26.73046875 309.64453125 -26.73046875 309.64453125 -24 308 C-20.42528439 307.48755432 -16.9155292 307.58033786 -13.3125 307.6875 C-12.35666016 307.69716797 -11.40082031 307.70683594 -10.41601562 307.71679688 C4.91429891 307.95714945 4.91429891 307.95714945 9 310 C9.11214844 308.71480469 9.22429688 307.42960937 9.33984375 306.10546875 C9.91241159 301.00214671 11.11676207 296.23130544 12.5625 291.3125 C12.82788574 290.40459717 13.09327148 289.49669434 13.36669922 288.5612793 C22.4035126 258.27468799 34.87074721 227.68950829 55 203 C55.71800781 202.11699219 56.43601562 201.23398438 57.17578125 200.32421875 C66.36105556 189.57271649 76.58194833 182.48461168 90.6875 180.5625 C101.27251188 178.95258348 110.49297893 175.92956648 120 171 C120.66 171 121.32 171 122 171 C122 165.39 122 159.78 122 154 C121.34 154.33 120.68 154.66 120 155 C117.3276379 155.13415472 114.67749512 155.04318541 112 155 C111.67 156.32 111.34 157.64 111 159 C110.21496094 158.93039063 109.42992187 158.86078125 108.62109375 158.7890625 C102.58423236 158.2974296 102.58423236 158.2974296 97.03125 160.1953125 C95.9437672 161.25614131 94.86330098 162.32419902 93.7890625 163.3984375 C87.24100234 169.26023808 79.10698989 169.2262893 70.8125 169 C69.96921143 168.95149902 69.12592285 168.90299805 68.25708008 168.85302734 C62.90718251 168.63144949 59.43011059 169.28391279 54.7956543 172.02734375 C47.53769123 175.95878153 35.77381025 174.99056563 27.875 173.3515625 C23.48518667 171.746537 20.56076139 169.70670371 17.25 166.4375 C12.84898644 162.23327973 8.18453612 161.70143127 2.3359375 160.66015625 C-6.11798495 158.98719033 -13.62901146 153.99836232 -18.47265625 146.81640625 C-21.61186651 140.96998714 -23.26170719 134.83035079 -24.96484375 128.4453125 C-25.92615276 125.2457859 -27.09949144 122.43339216 -28.5625 119.4375 C-34.14278973 107.7085577 -35.54971952 95.59457634 -32.453125 83.03125 C-31.3052241 77.88548733 -32.12707152 73.11286681 -33 68 C-35.87121974 49.94643128 -33.79689352 32.67123974 -24 17 C-18.61298818 9.85277966 -9.92798387 -1.05998023 0 0 Z M70 293 C63.08132142 310.60030158 63.08132142 310.60030158 60 329 C62.0875299 330.77013401 62.0875299 330.77013401 64.8125 332.5 C73.23280151 338.39638684 80.48646738 345.27557019 86 354 C86.99 353.505 86.99 353.505 88 353 C89.17176763 345.12925892 89.10139105 336.95014084 89.1875 329 C89.20055176 328.30712891 89.21360352 327.61425781 89.22705078 326.90039062 C89.24041804 318.97933415 87.23909676 313.61667448 82.25 307.5625 C81.34980277 306.43526115 80.45006234 305.30765735 79.55078125 304.1796875 C79.11459473 303.63924805 78.6784082 303.09880859 78.22900391 302.54199219 C76.08759851 299.85523881 74.08002914 297.070295 72.05859375 294.29296875 C71.70925781 293.86628906 71.35992187 293.43960937 71 293 C70.67 293 70.34 293 70 293 Z M211 396 C213.88087546 398.40072955 216.56404834 400.47291037 220 402 C219.34 400.02 218.68 398.04 218 396 C215.69 396 213.38 396 211 396 Z " fill="#3E3E4D" transform="translate(47,15)"/>
<path d="M0 0 C0.36351562 1.03898438 0.72703125 2.07796875 1.1015625 3.1484375 C7.83912894 22.01724954 18.27264714 37.90843246 36.875 46.9375 C41.58867105 49.41383704 43.60400546 51.4545849 45.296875 56.5 C45.52890625 57.325 45.7609375 58.15 46 59 C46.29390625 59.804375 46.5878125 60.60875 46.890625 61.4375 C49.1305786 68.44244579 49.3125174 75.39670672 49.375 82.6875 C49.38885742 83.66154785 49.40271484 84.6355957 49.41699219 85.63916016 C49.33679089 98.0555871 44.56332807 107.61618551 37.3125 117.4375 C33.42683822 122.72275381 30.07485468 128.14211836 27 133.9375 C26.62657471 134.63480225 26.25314941 135.33210449 25.8684082 136.05053711 C23.66675216 140.30266034 22.22810928 144.37687708 21 149 C19.46915575 150.53084425 18.08796856 150.12715779 15.95507812 150.12939453 C15.09748901 150.13254669 14.2398999 150.13569885 13.35632324 150.13894653 C12.42404907 150.1369223 11.4917749 150.13489807 10.53125 150.1328125 C9.10528503 150.13424759 9.10528503 150.13424759 7.6505127 150.13571167 C5.63631118 150.13639357 3.62210748 150.13453862 1.60791016 150.13037109 C-1.48670355 150.12502298 -4.5811721 150.13031577 -7.67578125 150.13671875 C-9.62760449 150.13605797 -11.57942764 150.13477681 -13.53125 150.1328125 C-14.92966125 150.13584885 -14.92966125 150.13584885 -16.35632324 150.13894653 C-17.21391235 150.13579437 -18.07150146 150.13264221 -18.95507812 150.12939453 C-19.71373169 150.12859894 -20.47238525 150.12780334 -21.25402832 150.12698364 C-23 150 -23 150 -24 149 C-24.13692411 145.37911789 -24.24790704 141.76415062 -24.25390625 138.140625 C-24.60042003 127.12513429 -31.62308796 119.57878342 -38.1875 111.25 C-39.62385994 109.42609147 -41.05505961 107.59810447 -42.48046875 105.765625 C-43.10848389 104.96930664 -43.73649902 104.17298828 -44.38354492 103.35253906 C-46.0556984 100.91893826 -47.18335397 98.83884434 -48 96 C-46.99238075 93.2267912 -45.96356237 90.93535253 -44.5625 88.375 C-44.19068604 87.66641846 -43.81887207 86.95783691 -43.43579102 86.2277832 C-40.26849701 80.27958213 -36.74110866 74.60319895 -33 69 C-23.15951425 53.92786359 -16.69502674 39.50878368 -20.40136719 20.99511719 C-21.15885152 18.08572255 -22.10593968 15.26859096 -23.125 12.44140625 C-24 10 -24 10 -24 8 C-23.40461426 7.79318604 -22.80922852 7.58637207 -22.19580078 7.37329102 C-19.50504717 6.43775366 -16.81501718 5.50015265 -14.125 4.5625 C-13.18785156 4.23701172 -12.25070313 3.91152344 -11.28515625 3.57617188 C-9.94130859 3.10727539 -9.94130859 3.10727539 -8.5703125 2.62890625 C-7.32918701 2.1968689 -7.32918701 2.1968689 -6.06298828 1.75610352 C-1.27155312 0 -1.27155312 0 0 0 Z " fill="#F5E3DB" transform="translate(170,198)"/>
<path d="M0 0 C8.4469697 5.34090909 8.4469697 5.34090909 10 10 C11.30195313 9.95359375 12.60390625 9.9071875 13.9453125 9.859375 C15.67185196 9.82184153 17.39841636 9.78544307 19.125 9.75 C19.9809375 9.71648438 20.836875 9.68296875 21.71875 9.6484375 C27.37175692 9.56146816 30.51462385 10.22928925 35 14 C35.56847656 14.47179687 36.13695312 14.94359375 36.72265625 15.4296875 C44.66172825 23.99370103 46.71874866 35.26566095 46.296875 46.5859375 C45.66040522 53.90534002 43.71915434 60.20211416 41 67 C40.34 67 39.68 67 39 67 C38.6596875 66.26136719 38.319375 65.52273437 37.96875 64.76171875 C35.34427629 59.26847191 32.6079922 54.2434517 28.9375 49.375 C23.01616757 41.49872385 19.48804432 33.50716123 17 24 C14.69 24 12.38 24 10 24 C9.85304688 24.81082031 9.70609375 25.62164062 9.5546875 26.45703125 C6.11140297 43.45577499 -2.39630486 54.41559497 -16.625 63.9375 C-25.63279392 69.98386739 -30.93448322 76.43561084 -34 87 C-34.27188994 90.18573925 -34.27188994 90.18573925 -34.1953125 93.4921875 C-34.18564453 95.29042969 -34.18564453 95.29042969 -34.17578125 97.125 C-34.15902344 98.3625 -34.14226562 99.6 -34.125 100.875 C-34.11597656 102.13570313 -34.10695312 103.39640625 -34.09765625 104.6953125 C-34.07415808 107.7970704 -34.04130334 110.89843652 -34 114 C-45.11335354 112.0244216 -55.81925982 102.81521643 -62.25 93.75 C-66.79324101 86.43525542 -70.23446251 78.61229674 -71 70 C-71.33 69.67 -71.66 69.34 -72 69 C-73.91154196 48.5346363 -70.11929393 29.17197931 -56.77734375 13.02734375 C-56.19082031 12.35832031 -55.60429687 11.68929687 -55 11 C-54.44441406 10.36191406 -53.88882813 9.72382812 -53.31640625 9.06640625 C-40.82491247 -4.34824642 -16.57066673 -8.18551007 0 0 Z " fill="#9B6161" transform="translate(221,37)"/>
<path d="M0 0 C6.93 0 13.86 0 21 0 C19.02 2.31 17.04 4.62 15 7 C4.80756132 19.03365341 -2.64548346 32.36706706 -8.1875 47.125 C-12.66626491 58.77982522 -19.84993851 66.24326688 -31.04785156 71.64135742 C-39.69205258 75.15033363 -48.37623126 74.62430502 -57.546875 74.48828125 C-59.41301519 74.47893688 -61.27916778 74.47182846 -63.14532471 74.46684265 C-68.01829875 74.44790053 -72.89050825 74.3989126 -77.76318359 74.34332275 C-82.75087141 74.29185181 -87.73868473 74.26926958 -92.7265625 74.24414062 C-102.48470791 74.19077932 -112.24228998 74.1056247 -122 74 C-120.72185335 71.42857896 -119.44208636 68.85798609 -118.16137695 66.2878418 C-117.80144905 65.56330559 -117.44152115 64.83876938 -117.07068634 64.09227753 C-114.63431254 59.20709191 -112.11620221 54.42401728 -109.1875 49.8125 C-108.7764502 49.16015381 -108.36540039 48.50780762 -107.94189453 47.83569336 C-102.93179146 40.08295013 -96.98332545 33.0651315 -90.52734375 26.4765625 C-86.57284158 22.73277005 -86.57284158 22.73277005 -84.72265625 17.84765625 C-84.77292969 17.15542969 -84.82320312 16.46320313 -84.875 15.75 C-85 12 -85 12 -84.01171875 10.28515625 C-82.5625 8.8125 -82.5625 8.8125 -79 7 C-72.69887989 7.28348598 -66.85206593 11.70026582 -61.59375 14.80004883 C-48.72417131 22.34470125 -35.82210685 29.05560761 -20.5390625 26.60546875 C-13.4075753 24.66620469 -7.48178123 19.98589106 -3.58203125 13.72265625 C-1.33559452 8.97837651 -0.77344006 5.41408039 0 0 Z " fill="#F3DFD7" transform="translate(188,412)"/>
<path d="M0 0 C33.18484597 -0.89677552 68.43915887 8.87565353 99.73046875 19.27905273 C101.80813562 19.93905169 103.88357798 20.48182628 106 21 C105.75443359 22.86978516 105.75443359 22.86978516 105.50390625 24.77734375 C104.88143809 30.3795572 104.88905802 35.93205157 104.9375 41.5625 C104.94201172 42.57119141 104.94652344 43.57988281 104.95117188 44.61914062 C104.96283231 47.07949147 104.97919622 49.53971239 105 52 C97.12359991 52.11658832 89.24740737 52.20506293 81.37035751 52.25906086 C77.71143554 52.28499639 74.05311005 52.32009306 70.39453125 52.37719727 C66.85423293 52.43210042 63.314503 52.46154068 59.77381134 52.47438622 C57.78649622 52.48792614 55.79940525 52.52686351 53.81243896 52.56648254 C41.42563869 52.57025392 30.89844456 48.77654806 22 40 C11.43502942 28.62473669 3.7016515 15.12181212 0 0 Z " fill="#D3948C" transform="translate(328,208)"/>
<path d="M0 0 C4.41954515 2.16040841 8.13645538 4.97421378 12 8 C13.051875 8.77085937 14.10375 9.54171875 15.1875 10.3359375 C37.23237357 26.57550596 57.00945312 47.77645081 70 72 C70 72.66 70 73.32 70 74 C62.72264334 74.07623738 55.44539019 74.12867867 48.16772461 74.16479492 C45.6934016 74.1798556 43.21910518 74.20030825 40.74487305 74.22631836 C37.1827131 74.2628203 33.620907 74.27975404 30.05859375 74.29296875 C28.95728622 74.30845261 27.8559787 74.32393646 26.72129822 74.33988953 C18.62237153 74.34165317 12.69660229 73.20009214 6.41601562 67.62451172 C3.45291562 64.22512079 1.69301973 60.09725645 -0.25 56.0625 C-6.69807227 43.27409818 -14.0954971 32.54283963 -24.06616211 22.25976562 C-26.56807566 19.66821511 -28.64647331 17.36770332 -30 14 C-21.78613241 4.9601569 -12.97711772 -2.97564483 0 0 Z " fill="#F5E3DC" transform="translate(240,412)"/>
<path d="M0 0 C7.37034365 5.87219757 14.42771769 12.92524176 18.15234375 21.71484375 C18.40696932 25.0560281 17.31029135 27.60760983 16.15234375 30.71484375 C15.75258842 32.06466248 15.36429576 33.4179025 14.984375 34.7734375 C12.98540045 41.88141908 10.81150005 48.82274478 8.15234375 55.71484375 C4.82643345 52.4986423 1.94014788 49.21356132 -0.84765625 45.52734375 C-17.13316963 25.46078248 -43.43745912 15.4420106 -68.52392578 12.38916016 C-71.25563908 12.11275689 -73.98313939 11.8971797 -76.72265625 11.71484375 C-77.5731958 11.64869873 -78.42373535 11.58255371 -79.30004883 11.5144043 C-84.16485454 11.18578236 -84.16485454 11.18578236 -88.12890625 13.73828125 C-88.69609375 14.39054687 -89.26328125 15.0428125 -89.84765625 15.71484375 C-97.24481213 16.25989734 -104.01612234 11.75568442 -109.84765625 7.71484375 C-110.84765625 6.71484375 -110.84765625 6.71484375 -110.9453125 3.1171875 C-110.93863845 1.62887508 -110.92667808 0.14057943 -110.91015625 -1.34765625 C-110.90564453 -2.10626953 -110.90113281 -2.86488281 -110.89648438 -3.64648438 C-110.88466305 -5.52607496 -110.86672703 -7.40562524 -110.84765625 -9.28515625 C-109.79602295 -9.2694458 -108.74438965 -9.25373535 -107.66088867 -9.23754883 C-83.83193447 -8.56368692 -83.83193447 -8.56368692 -60.23657227 -11.20483398 C-39.66947047 -15.15828532 -17.32722736 -12.31392469 0 0 Z " fill="#666694" transform="translate(354.84765625,396.28515625)"/>
<path d="M0 0 C3.27836379 3.97054733 6.20098162 8.10202802 9.0625 12.375 C9.7131543 13.32632813 9.7131543 13.32632813 10.37695312 14.296875 C15.04630514 21.26181408 17.56640693 27.27193098 17.5 35.6875 C17.49572998 36.53038574 17.49145996 37.37327148 17.48706055 38.24169922 C17.28723615 46.14005847 16.1481647 53.84710897 14.8125 61.625 C14.6165625 62.79764404 14.420625 63.97028809 14.21875 65.1784668 C12.37813921 75.07386704 9.1055306 83.71227631 2 91 C-1.44479767 93.06266907 -4.08729655 93.36174254 -8.109375 92.7890625 C-18.63464575 89.91594805 -29.63347641 84.03735788 -36 75 C-39.91418491 65.46409986 -41.19659043 50.47469874 -37.9375 40.4375 C-33.39952293 32.38625036 -27.65451547 27.75426687 -19.8671875 22.859375 C-14.67177973 19.49014598 -11.04762631 16.06661111 -7.375 11.0625 C-6.61960938 10.04285156 -5.86421875 9.02320312 -5.0859375 7.97265625 C-3.26077391 5.37162724 -1.58982958 2.74929129 0 0 Z " fill="#FCD2CA" transform="translate(235,82)"/>
<path d="M0 0 C15.92241094 7.54549309 27.87163183 29.67444258 33.7578125 45.59765625 C38.43111009 58.90016893 42.96825953 72.35743798 37.59765625 86.1015625 C35.01694964 90.78343121 31.38987489 94.41854555 27.69140625 98.21875 C18.75972524 107.44858582 14.44774043 116.1464547 14.25 129.0625 C14.20552734 130.50399414 14.20552734 130.50399414 14.16015625 131.97460938 C14.09024948 134.31648631 14.03716864 136.65741414 14 139 C3.0302557 140.35962626 -7.96704931 140.09489768 -19 140 C-18.20020551 135.54624246 -16.69736247 131.78360657 -14.6875 127.75 C-14.34283691 127.05326172 -13.99817383 126.35652344 -13.64306641 125.63867188 C-10.85169835 120.20878773 -7.51486575 115.38927083 -3.875 110.5 C6.67158646 96.26260127 10.60022025 80.6284956 9 63 C7.58055534 54.27390576 5.29754425 45.66190685 2.39453125 37.31640625 C-0.34776104 29.14451713 -0.12302055 21.09589723 -0.0625 12.5625 C-0.05798828 11.35400391 -0.05347656 10.14550781 -0.04882812 8.90039062 C-0.03710145 5.93354211 -0.02068896 2.9667973 0 0 Z " fill="#F4E2DA" transform="translate(220,209)"/>
<path d="M0 0 C28.92628549 -1.4226042 58.25649174 9.80365326 80.1875 28.1875 C84.15276553 31.89146302 87.50858899 35.91512816 90.75 40.25 C91.20528076 40.84063232 91.66056152 41.43126465 92.12963867 42.03979492 C93.359375 43.765625 93.359375 43.765625 95 47 C94.5078125 49.53515625 94.5078125 49.53515625 93 52 C92.40445313 52.98355469 91.80890625 53.96710938 91.1953125 54.98046875 C90.51210937 56.03878906 89.82890625 57.09710938 89.125 58.1875 C85.71453148 63.56762202 83.06798039 68.97292558 81 75 C76.30380147 74.41410191 72.6047765 72.38081419 68.5625 70.0625 C67.50905396 69.46078979 67.50905396 69.46078979 66.43432617 68.84692383 C54.65834028 61.99980381 44.32699444 53.99027268 34.56152344 44.51025391 C33.04792126 43.04634786 31.51444097 41.60629035 29.9765625 40.16796875 C18.04592034 28.83249274 7.94862645 15.40838631 0 1 C0 0.67 0 0.34 0 0 Z " fill="#D19088" transform="translate(34,334)"/>
<path d="M0 0 C12.05536166 1.93237127 20.66286394 9.66286394 29 18 C28.59218233 21.00923603 27.35634219 23.54411668 26.03125 26.25390625 C17.4525562 44.2036757 11.04994128 62.76315759 6 82 C2.54400852 80.93661801 -0.68670152 79.68883109 -3.9375 78.125 C-10.33863477 75.19939545 -17.19240059 73.68620381 -24 72 C-23.89977551 47.34477615 -10.68615796 21.64441716 0 0 Z " fill="#AFC7DB" transform="translate(91,256)"/>
<path d="M0 0 C2.375 2 2.375 2 4 5 C4.07659002 6.43606279 4.11506515 7.87443058 4.125 9.3125 C4.33048665 12.66137701 4.70823998 13.71144027 7.13671875 16.11328125 C8.92851935 17.46040141 10.73079875 18.79368965 12.54296875 20.11328125 C16.7208827 23.32144093 18.61062739 26.24125367 19.3671875 31.6015625 C19.65574352 37.7630823 18.9936013 43.1213901 15 48 C9.85872052 52.14819532 4.92549794 54.35083336 -1.77929688 54.25439453 C-5.76602096 53.79769197 -9.15681678 52.14865084 -12.75 50.4375 C-13.52915771 50.07688477 -14.30831543 49.71626953 -15.11108398 49.34472656 C-32.92757617 40.96611035 -32.92757617 40.96611035 -34.984375 37.1953125 C-35.05847642 26.7840633 -22.84302101 12.04558083 -15.9453125 4.859375 C-10.60077414 0.13416083 -7.08173758 -1.896894 0 0 Z " fill="#FDD5CE" transform="translate(159,376)"/>
<path d="M0 0 C11.68510062 2.62562268 11.68510062 2.62562268 15.5625 7.3125 C17.68109938 9.83632006 19.3790798 11.71764957 22.4030304 13.09272766 C25.37259981 14.46351149 27.60278169 15.76371987 30 18 C31.4046828 22.35358305 31.1691151 26.5187493 30.9765625 31.0546875 C30.95533829 32.93971481 30.95533829 32.93971481 30.9336853 34.86282349 C30.88726636 38.18985901 30.79765223 41.50992067 30.68664551 44.83502197 C30.58395833 48.23315417 30.53859597 51.63201038 30.48828125 55.03125 C30.37813855 61.68941538 30.21090474 68.34430548 30 75 C15.57370828 69.44362591 8.10711415 57.48721514 2 44 C1.64349365 43.29359375 1.2869873 42.5871875 0.91967773 41.859375 C-0.36499176 37.86520214 -0.24732885 34.14916039 -0.1953125 29.98046875 C-0.1924826 29.12189774 -0.18965271 28.26332672 -0.18673706 27.3787384 C-0.1755807 24.64818125 -0.15048459 21.9179573 -0.125 19.1875 C-0.11496432 17.33138496 -0.1058395 15.47526476 -0.09765625 13.61914062 C-0.07565626 9.07929954 -0.04115781 4.53970619 0 0 Z " fill="#FCC9C0" transform="translate(180,160)"/>
<path d="M0 0 C4.24078322 1.35589668 8.37944229 2.71792831 12.4375 4.5625 C21.59090178 8.25597791 31.37148896 8.53475776 41.125 9.125 C42.47660206 9.21162452 43.82816511 9.29886 45.1796875 9.38671875 C48.45279364 9.59713272 51.72615874 9.80141123 55 10 C55.08326538 11.41043579 55.08326538 11.41043579 55.16821289 12.84936523 C55.2480542 14.09403564 55.32789551 15.33870605 55.41015625 16.62109375 C55.4862915 17.85013428 55.56242676 19.0791748 55.64086914 20.34545898 C56.2325569 26.36651547 57.76297055 32.04609694 60.09765625 37.62109375 C61 40 61 40 61 43 C59.97845825 43.00616333 59.97845825 43.00616333 58.9362793 43.01245117 C55.85246794 43.04533323 52.77064674 43.11596953 49.6875 43.1875 C48.61564453 43.19330078 47.54378906 43.19910156 46.43945312 43.20507812 C44.89741211 43.24858398 44.89741211 43.24858398 43.32421875 43.29296875 C42.37635498 43.3086792 41.42849121 43.32438965 40.4519043 43.34057617 C37.74851644 43.77884196 37.74851644 43.77884196 36.32226562 46.51367188 C35.88591797 47.33416016 35.44957031 48.15464844 35 49 C32.51953125 49.48828125 32.51953125 49.48828125 29.8125 49.3125 C28.91144531 49.26738281 28.01039063 49.22226562 27.08203125 49.17578125 C26.05142578 49.08876953 26.05142578 49.08876953 25 49 C24.8040625 48.25878906 24.608125 47.51757812 24.40625 46.75390625 C20.1082713 31.61835193 13.27510932 18.63995162 4 6 C2.64587554 4.01291973 1.32152295 2.00907206 0 0 Z " fill="#FCD2CB" transform="translate(241,214)"/>
<path d="M0 0 C4.42415412 2.32850217 5.52028544 7.56854257 6.97265625 12.125 C9.89006813 27.53346664 5.1556456 39.94409338 -3.1953125 52.63671875 C-4.30455795 54.1991702 -5.45840407 55.72989015 -6.625 57.25 C-9.87285681 55.80163142 -12.21026128 53.96363433 -14.875 51.625 C-21.45892804 46.2273653 -28.95803124 42.82665044 -36.625 39.25 C-32.39383912 24.45201325 -18.26712281 9.29995941 -5.4375 1.25 C-2.625 0.25 -2.625 0.25 0 0 Z " fill="#FCD1CA" transform="translate(133.625,207.75)"/>
<path d="M0 0 C0.81710449 0.0707373 1.63420898 0.14147461 2.47607422 0.21435547 C15.38372907 1.1826423 28.27987002 1.15154686 41.21826172 1.13037109 C45.12341171 1.12500218 49.0284472 1.1303482 52.93359375 1.13671875 C55.45833358 1.13605801 57.98307335 1.13477692 60.5078125 1.1328125 C61.65404083 1.13483673 62.80026917 1.13686096 63.98123169 1.13894653 C72.02308488 1.11607857 79.9862804 0.66285704 88 0 C88.02770316 3.14582571 88.04675921 6.2915906 88.0625 9.4375 C88.07087891 10.33533203 88.07925781 11.23316406 88.08789062 12.15820312 C88.09111328 13.01220703 88.09433594 13.86621094 88.09765625 14.74609375 C88.10289307 15.53685303 88.10812988 16.3276123 88.11352539 17.14233398 C88 19 88 19 87 20 C82.25293509 20.70825835 77.4649914 21.10935243 72.6875 21.5625 C71.97746826 21.6310318 71.26743652 21.6995636 70.53588867 21.77017212 C55.99855604 23.14750713 41.60159698 23.3370397 27 23 C26.67894287 22.31437988 26.35788574 21.62875977 26.02709961 20.92236328 C25.59405518 20.02243652 25.16101074 19.12250977 24.71484375 18.1953125 C24.29066162 17.30344238 23.86647949 16.41157227 23.42944336 15.49267578 C21.1092724 11.44674145 18.45560884 9.33874225 14 8 C9.29967021 7.62053312 4.70290309 7.70276596 0 8 C0 5.36 0 2.72 0 0 Z " fill="#7575A5" transform="translate(146,358)"/>
<path d="M0 0 C31.82224797 -0.32143685 31.82224797 -0.32143685 39 5 C44.19361822 10.45995761 44.25684986 15.22154601 44.375 22.375 C44.43107422 23.65117187 44.43107422 23.65117187 44.48828125 24.953125 C44.54990375 29.34886303 44.43525134 31.39142535 41.8125 35.05859375 C37.89563391 37.76231937 35.36118038 37.75993821 30.72265625 37.56640625 C27.02418993 36.79699791 25.09061386 35.21359115 22.53515625 32.5078125 C19.61132426 29.63605894 16.70289479 28.75869549 12.671875 28.5859375 C11.87265625 28.54726563 11.0734375 28.50859375 10.25 28.46875 C9.425 28.4378125 8.6 28.406875 7.75 28.375 C6.90953125 28.33632813 6.0690625 28.29765625 5.203125 28.2578125 C3.13576618 28.16384164 1.06791373 28.08084436 -1 28 C-2.04389037 23.70752281 -2.18339346 19.51900059 -2.1875 15.125 C-2.19974609 14.44308594 -2.21199219 13.76117188 -2.22460938 13.05859375 C-2.23808054 8.34368481 -1.47921101 4.47855981 0 0 Z " fill="#FCD4CD" transform="translate(444,232)"/>
<path d="M0 0 C3.57717802 3.37844591 6.71508254 6.61295848 9 11 C7.80449148 15.16659478 5.46071604 18.56934364 3.125 22.1875 C-0.28546852 27.56762202 -2.93201961 32.97292558 -5 39 C-9.69619853 38.41410191 -13.3952235 36.38081419 -17.4375 34.0625 C-18.13979736 33.66135986 -18.84209473 33.26021973 -19.56567383 32.84692383 C-32.14867812 25.53056481 -46.80200274 16.29699589 -55 4 C-53.16666667 4.45833333 -51.33333333 4.91666667 -49.5 5.375 C-48.39398438 5.64699219 -47.28796875 5.91898437 -46.1484375 6.19921875 C-44.3942059 6.64539428 -42.64347058 7.11016359 -40.9140625 7.64453125 C-29.10339926 11.22899018 -16.20000338 9.36591432 -5.41015625 3.62109375 C-3.56324086 2.4817839 -1.77286232 1.25143222 0 0 Z " fill="#B27070" transform="translate(120,370)"/>
<path d="M0 0 C0.90878906 0.29003906 0.90878906 0.29003906 1.8359375 0.5859375 C15.78527342 4.92096189 29.32589963 6.09998376 43.88671875 6.31640625 C45.06974075 6.33718735 46.25276276 6.35796844 47.47163391 6.37937927 C51.21020311 6.44419315 54.94883594 6.50343928 58.6875 6.5625 C61.23893858 6.60575021 63.79037099 6.64936645 66.34179688 6.69335938 C72.56113453 6.79980356 78.78053548 6.90125818 85 7 C85.495 11.95 85.495 11.95 86 17 C78.12359991 17.11658832 70.24740737 17.20506293 62.37035751 17.25906086 C58.71143554 17.28499639 55.05311005 17.32009306 51.39453125 17.37719727 C47.85423293 17.43210042 44.314503 17.46154068 40.77381134 17.47438622 C38.78649622 17.48792614 36.79940525 17.52686351 34.81243896 17.56648254 C22.33000609 17.57028303 12.06504648 13.72709518 3 5 C0.9375 2.0625 0.9375 2.0625 0 0 Z " fill="#B37171" transform="translate(347,243)"/>
<path d="M0 0 C1.8984375 0.86328125 1.8984375 0.86328125 3.6484375 3.86328125 C6.24142947 11.72774042 6.26382495 22.60983767 3.8984375 30.55078125 C1.67289154 34.23684174 -0.46071345 35.98491277 -3.9765625 38.36328125 C-8.43228448 41.50849676 -12.05431997 45.53300019 -15.4140625 49.80078125 C-16.249375 50.82171875 -16.249375 50.82171875 -17.1015625 51.86328125 C-17.7615625 51.86328125 -18.4215625 51.86328125 -19.1015625 51.86328125 C-19.76126271 33.01869113 -18.9180127 17.2685334 -5.4765625 2.67578125 C-2.73251921 -0.17776612 -2.73251921 -0.17776612 0 0 Z " fill="#885757" transform="translate(43.1015625,28.13671875)"/>
<path d="M0 0 C12.34393372 -1.04184911 12.34393372 -1.04184911 18 1 C21.76274868 4.38364283 23.25107678 9.44738734 25.09179688 14.03613281 C27.67707941 19.6264588 32.33333308 24.46932718 36.76171875 28.671875 C38 30 38 30 38 32 C33.98079576 32.24847658 29.96459178 32.42917736 25.93945312 32.54931641 C24.57310115 32.59940736 23.2072802 32.6675146 21.84277344 32.75439453 C17.40410309 33.02978649 13.32656776 33.08724289 9 32 C5.9185493 29.06365537 4.4667003 25.95216466 3 22 C2.6376123 21.13197754 2.27522461 20.26395508 1.90185547 19.36962891 C-0.46117533 13.16075588 -0.11840828 6.53876817 0 0 Z " fill="#E5F0F9" transform="translate(306,225)"/>
<path d="M0 0 C3.03098905 1.05854498 3.95610545 1.92855571 5.66796875 4.71484375 C6.42013672 6.31005859 6.42013672 6.31005859 7.1875 7.9375 C7.95126953 9.52884766 7.95126953 9.52884766 8.73046875 11.15234375 C10.79465426 15.78247064 11.13411218 19.52252056 11.09765625 24.51171875 C11.0962413 25.23994339 11.09482635 25.96816803 11.09336853 26.71846008 C11.08777659 29.04151539 11.07522562 31.36447388 11.0625 33.6875 C11.05748396 35.26367048 11.05292123 36.83984248 11.04882812 38.41601562 C11.0378098 42.27738098 11.02055074 46.13867408 11 50 C3.66243281 48.74815154 -0.66975718 44.96871308 -5 39 C-7.79701281 33.56136399 -8.51702246 29.2065443 -8.4375 23.125 C-8.43137695 22.3306958 -8.42525391 21.5363916 -8.41894531 20.71801758 C-8.19198549 12.21488062 -5.7348384 6.34928538 0 0 Z " fill="#7D5051" transform="translate(42,115)"/>
<path d="M0 0 C0.72058594 0.80824219 1.44117188 1.61648437 2.18359375 2.44921875 C5.35415635 5.99606489 5.35415635 5.99606489 9.37890625 8.41796875 C10.11882812 8.98515625 10.85875 9.55234375 11.62109375 10.13671875 C11.99968934 13.07764927 12.09884989 15.41316833 11.93359375 18.32421875 C11.91103516 19.07380859 11.88847656 19.82339844 11.86523438 20.59570312 C11.80638532 22.44356345 11.71670313 24.29039542 11.62109375 26.13671875 C8.40658106 27.7439751 5.18496839 27.1942006 1.62109375 27.13671875 C1.38648438 26.33492187 1.151875 25.533125 0.91015625 24.70703125 C-0.09221911 21.97958879 -0.09221911 21.97958879 -2.41796875 21.37890625 C-3.27132812 21.25773437 -4.1246875 21.1365625 -5.00390625 21.01171875 C-10.8937118 19.68631644 -15.17760376 16.97148532 -20.06640625 13.57421875 C-20.78586426 13.07841309 -21.50532227 12.58260742 -22.24658203 12.07177734 C-24.00210897 10.82061945 -25.69698814 9.48520767 -27.37890625 8.13671875 C-27.37890625 7.47671875 -27.37890625 6.81671875 -27.37890625 6.13671875 C-25.15338367 4.98330177 -22.92394656 3.83890716 -20.69140625 2.69921875 C-20.06556641 2.37373047 -19.43972656 2.04824219 -18.79492188 1.71289062 C-13.07316668 -1.19292222 -5.62862968 -4.40863113 0 0 Z " fill="#634243" transform="translate(157.37890625,142.86328125)"/>
<path d="M0 0 C0 4.62 0 9.24 0 14 C-15.51 14 -31.02 14 -47 14 C-48.65 11.03 -50.3 8.06 -52 5 C-52.66 4.01 -53.32 3.02 -54 2 C-52.42085815 1.96241577 -52.42085815 1.96241577 -50.80981445 1.92407227 C-46.84178903 1.82871659 -42.87388763 1.72882837 -38.90600586 1.62768555 C-37.20030654 1.58481426 -35.49457732 1.5431142 -33.78881836 1.50268555 C-24.68665058 1.28615821 -15.62896103 1.00645081 -6.55541992 0.19897461 C-4.37587067 0.0292667 -2.18614631 0 0 0 Z " fill="#7373A3" transform="translate(234,388)"/>
<path d="M0 0 C13.89759056 1.75484815 23.52795812 13.77146212 32 24 C33.42280358 25.9613878 34.71852352 27.94128716 36 30 C30.61690827 33.35274447 24.0938389 32.45216841 18 32 C12.50271435 30.71916984 7.71519214 27.62608514 4.6171875 22.8828125 C1.1831581 16.89778983 -0.13796412 12.69269907 -0.0625 5.75 C-0.04896484 4.13351563 -0.04896484 4.13351563 -0.03515625 2.484375 C-0.02355469 1.66453125 -0.01195312 0.8446875 0 0 Z " fill="#714A4A" transform="translate(62,146)"/>
<path d="M0 0 C4.50432348 0.38724953 7.72670678 1.99312053 11.703125 4.046875 C12.42242187 4.39492188 13.14171875 4.74296875 13.8828125 5.1015625 C14.57117188 5.44960938 15.25953125 5.79765625 15.96875 6.15625 C16.59040039 6.47045898 17.21205078 6.78466797 17.85253906 7.10839844 C19.9229007 8.64569564 20.65242211 9.84832443 21.453125 12.296875 C21.03759766 14.40332031 21.03759766 14.40332031 20.1171875 16.625 C19.79492188 17.42421875 19.47265625 18.2234375 19.140625 19.046875 C18.6146875 20.284375 18.6146875 20.284375 18.078125 21.546875 C17.73523438 22.38734375 17.39234375 23.2278125 17.0390625 24.09375 C16.19069542 26.16753619 15.328458 28.23435973 14.453125 30.296875 C11.11821117 29.30207334 7.78531969 28.30075137 4.453125 27.296875 C3.29039063 26.94882812 2.12765625 26.60078125 0.9296875 26.2421875 C-0.23820312 25.88898438 -1.40609375 25.53578125 -2.609375 25.171875 C-3.71410156 24.83929688 -4.81882812 24.50671875 -5.95703125 24.1640625 C-8.546875 23.296875 -8.546875 23.296875 -9.546875 22.296875 C-9.30503254 16.00897096 -7.28066718 0.84866673 0 0 Z " fill="#E6F2FA" transform="translate(83.546875,278.703125)"/>
<path d="M0 0 C0 3.63 0 7.26 0 11 C-10.93732045 13.73433011 -22.71564098 13.2421939 -33.94140625 13.29516602 C-35.66154111 13.3068196 -37.38163626 13.32747524 -39.1015625 13.35668945 C-41.62003479 13.39925049 -44.13746357 13.41549991 -46.65625 13.42578125 C-47.80317322 13.45204338 -47.80317322 13.45204338 -48.9732666 13.47883606 C-52.59394754 13.46409247 -54.8513499 13.08433034 -58.02148438 11.28588867 C-60 9 -60 9 -60.3125 6.25 C-60.209375 5.5075 -60.10625 4.765 -60 4 C-59.34966797 3.98541748 -58.69933594 3.97083496 -58.02929688 3.95581055 C-39.78557988 3.50732445 -21.7662681 2.12012485 -3.62255859 0.25952148 C-1 0 -1 0 0 0 Z " fill="#4B4B5F" transform="translate(234,377)"/>
<path d="M0 0 C0.99 0.33 1.98 0.66 3 1 C4.10330081 20.90027756 4.10330081 20.90027756 -1.0859375 28.0078125 C-3.76999578 30.80142418 -6.73094489 33.03183337 -9.87890625 35.27734375 C-14.26406934 38.83877455 -16.83319696 43.51845654 -18 49 C-18.66 49 -19.32 49 -20 49 C-22.44039741 40.93257053 -22.22663272 31.4840832 -18.625 23.875 C-13.61608436 15.08262789 -7.26197833 7.02897368 0 0 Z " fill="#855556" transform="translate(45,73)"/>
<path d="M0 0 C5.52928369 3.37750679 10.77178272 7.17937968 16 11 C10.76135804 16.61283067 6.39939716 17.61099042 -1.0625 17.875 C-6.27078447 17.99175106 -10.48250323 17.93297426 -14.58984375 14.4609375 C-17.43121527 11.55088548 -19.73085982 8.36880041 -22 5 C-22.5878125 4.25234375 -23.175625 3.5046875 -23.78125 2.734375 C-25 1 -25 1 -25 -1 C-17.37355236 -5.06743874 -7.53137359 -3.58541455 0 0 Z " fill="#694546" transform="translate(120,156)"/>
<path d="M0 0 C0.639375 0.70125 1.27875 1.4025 1.9375 2.125 C10.834651 10.92274149 24.4397826 17.57831441 36.96484375 18.1953125 C38.27582031 18.17210937 39.58679688 18.14890625 40.9375 18.125 C41.62134766 18.11597656 42.30519531 18.10695313 43.00976562 18.09765625 C44.67333287 18.07438958 46.33671631 18.03853167 48 18 C45.96306225 21.92225877 44.27644487 23.85230748 40.3125 25.8125 C39.50425781 26.23144531 38.69601563 26.65039062 37.86328125 27.08203125 C30.42987081 29.46518466 24.9975353 27.65082089 18.25 24.4375 C17.47084229 24.07688477 16.69168457 23.71626953 15.88891602 23.34472656 C-2.07490998 14.89682323 -2.07490998 14.89682323 -3.9296875 11.09375 C-4.02140884 8.36249219 -3.2509534 6.69893428 -2.0625 4.25 C-1.68222656 3.45078125 -1.30195312 2.6515625 -0.91015625 1.828125 C-0.60980469 1.22484375 -0.30945313 0.6215625 0 0 Z " fill="#E38381" transform="translate(128,402)"/>
<path d="M0 0 C8.2261942 1.56193561 12.18036835 3.5076019 17.71875 9.73828125 C20.17375429 12.17226667 22.48565182 13.45725449 25.5625 15 C28.08984375 16.3828125 28.08984375 16.3828125 30 18 C30.83815087 21.15477905 30.63591162 23.82044192 30 27 C23.25316 25.89252734 16.59242525 24.49574014 9.9375 22.9375 C9.18734619 22.7631543 8.43719238 22.58880859 7.66430664 22.40917969 C2.25014093 21.12507047 2.25014093 21.12507047 0 20 C0 13.4 0 6.8 0 0 Z " fill="#E58481" transform="translate(180,160)"/>
<path d="M0 0 C0.33 0 0.66 0 1 0 C1 3.63 1 7.26 1 11 C2.55332031 10.96519531 4.10664063 10.93039063 5.70703125 10.89453125 C7.74217671 10.8663956 9.77733383 10.8390952 11.8125 10.8125 C13.34874023 10.77479492 13.34874023 10.77479492 14.91601562 10.73632812 C16.39038086 10.72182617 16.39038086 10.72182617 17.89453125 10.70703125 C19.25348511 10.68346558 19.25348511 10.68346558 20.63989258 10.65942383 C23 11 23 11 24.8190918 12.39331055 C26 14 26 14 26 16 C26.55945313 16.27714844 27.11890625 16.55429688 27.6953125 16.83984375 C29.2610305 17.62801027 30.81817696 18.43339077 32.3671875 19.25390625 C36.90326926 21.6208648 40.80990923 23.59025599 46 24 C43.25 28.875 43.25 28.875 41 30 C36.47013931 30.59346434 31.89902126 31.12624436 27.859375 28.73046875 C26.0625 27.125 26.0625 27.125 24.53515625 25.5078125 C21.61132426 22.63605894 18.70289479 21.75869549 14.671875 21.5859375 C13.87265625 21.54726563 13.0734375 21.50859375 12.25 21.46875 C11.425 21.4378125 10.6 21.406875 9.75 21.375 C8.90953125 21.33632813 8.0690625 21.29765625 7.203125 21.2578125 C5.13576618 21.16384164 3.06791373 21.08084436 1 21 C-0.11165232 16.5621439 -0.11527763 12.23043614 -0.0625 7.6875 C-0.05798828 6.94693359 -0.05347656 6.20636719 -0.04882812 5.44335938 C-0.03712175 3.62887101 -0.01918898 1.81442466 0 0 Z " fill="#E38583" transform="translate(442,239)"/>
<path d="M0 0 C3.77263679 1.9084453 7.42858301 4.00090155 11.0703125 6.14770508 C20.78621983 11.8435515 31.67984432 18.05163856 43.0390625 18.97265625 C43.91304687 19.04742187 44.78703125 19.1221875 45.6875 19.19921875 C46.66589844 19.27269531 46.66589844 19.27269531 47.6640625 19.34765625 C41.93380693 23.16782663 36.35267614 22.86345964 29.6640625 22.34765625 C25.62212673 21.47535815 21.80011699 20.18781497 17.9140625 18.78515625 C16.88216797 18.42744141 15.85027344 18.06972656 14.78710938 17.70117188 C6.21844643 14.67787885 -2.11689849 11.21543931 -10.3359375 7.34765625 C-10.6659375 8.33765625 -10.9959375 9.32765625 -11.3359375 10.34765625 C-12.2109375 7.16015625 -12.2109375 7.16015625 -12.3359375 3.34765625 C-8.43445555 -1.78587263 -5.85975194 -2.42033232 0 0 Z " fill="#BD9181" transform="translate(115.3359375,420.65234375)"/>
<path d="M0 0 C9.26204142 1.4418929 17.32452486 6.62795555 24 13 C22.02 16.96 20.04 20.92 18 25 C16.38931641 24.18595703 16.38931641 24.18595703 14.74609375 23.35546875 C13.30995051 22.63270385 11.8737495 21.91005372 10.4375 21.1875 C9.73302734 20.83107422 9.02855469 20.47464844 8.30273438 20.10742188 C3.92621075 17.90907591 -0.47874598 15.88336074 -5 14 C-4.46515599 8.65155992 -2.53309233 4.64203897 0 0 Z " fill="#E5F0F9" transform="translate(91,256)"/>
<path d="M0 0 C0.680625 0.70125 1.36125 1.4025 2.0625 2.125 C9.39073145 9.82898062 9.39073145 9.82898062 19.02441406 13.22705078 C20.17651367 13.21657715 21.32861328 13.20610352 22.515625 13.1953125 C23.76601563 13.18886719 25.01640625 13.18242187 26.3046875 13.17578125 C27.60664063 13.15902344 28.90859375 13.14226562 30.25 13.125 C32.22613281 13.11146484 32.22613281 13.11146484 34.2421875 13.09765625 C37.49497462 13.07408533 40.74739589 13.04118022 44 13 C45.25664978 15.90600261 46 17.79604584 46 21 C45.31897217 21.00410889 44.63794434 21.00821777 43.9362793 21.01245117 C40.85246794 21.04533323 37.77064674 21.11596953 34.6875 21.1875 C33.61564453 21.19330078 32.54378906 21.19910156 31.43945312 21.20507812 C30.41142578 21.23408203 29.38339844 21.26308594 28.32421875 21.29296875 C27.37635498 21.3086792 26.42849121 21.32438965 25.4519043 21.34057617 C22.74851644 21.77884196 22.74851644 21.77884196 21.32226562 24.51367188 C20.88591797 25.33416016 20.44957031 26.15464844 20 27 C17.51953125 27.48828125 17.51953125 27.48828125 14.8125 27.3125 C13.91144531 27.26738281 13.01039063 27.22226562 12.08203125 27.17578125 C11.39496094 27.11777344 10.70789063 27.05976563 10 27 C9.78085937 26.20078125 9.56171875 25.4015625 9.3359375 24.578125 C7.26370116 17.40111134 4.69703684 10.95114558 1.171875 4.36328125 C0 2 0 2 0 0 Z " fill="#E48683" transform="translate(256,236)"/>
<path d="M0 0 C8.79029799 0.30843151 16.03345739 3.56777413 24 7 C23.265625 13.6328125 23.265625 13.6328125 20.875 16.9375 C17.20688811 19.56897157 15.46024537 19.29919087 11 19 C8.50005234 18.41607062 6.01822628 17.74841182 3.5625 17 C2.32628906 16.62875 1.09007813 16.2575 -0.18359375 15.875 C-1.11300781 15.58625 -2.04242188 15.2975 -3 15 C-2.69163768 12.87439563 -2.37818386 10.74952935 -2.0625 8.625 C-1.88847656 7.44164062 -1.71445313 6.25828125 -1.53515625 5.0390625 C-1 2 -1 2 0 0 Z " fill="#E5F1F9" transform="translate(70,310)"/>
<path d="M0 0 C3.22743287 2.66865344 4.45369596 5.88150578 6.0625 9.6875 C6.56910156 10.86699219 7.07570312 12.04648437 7.59765625 13.26171875 C13.15267464 28.06994326 13.38372188 46.38711452 7 61 C4.39667059 65.90348629 1.27229966 70.30440673 -2.0546875 74.73828125 C-9.00341741 84.00762473 -13.16994417 92.5205589 -15 104 C-9.72 104 -4.44 104 1 104 C1 104.33 1 104.66 1 105 C-6.26 105 -13.52 105 -21 105 C-20.08808192 100.44040959 -18.7310936 96.85130182 -16.6875 92.75 C-16.34283691 92.05326172 -15.99817383 91.35652344 -15.64306641 90.63867188 C-12.85169835 85.20878773 -9.51486575 80.38927083 -5.875 75.5 C4.66216124 61.27532487 8.62314937 45.61766323 7 28 C5.41836601 18.50519091 2.67404363 9.23419741 0 0 Z " fill="#BC9182" transform="translate(222,244)"/>
<path d="M0 0 C1.32 0 2.64 0 4 0 C4.47308594 0.95519531 4.94617188 1.91039062 5.43359375 2.89453125 C10.11769884 12.13092982 15.16517567 20.46273877 22.76171875 27.671875 C24 29 24 29 24 31 C14.43 31 4.86 31 -5 31 C-6.32 28.69 -7.64 26.38 -9 24 C0.9 23.505 0.9 23.505 11 23 C9.6696875 20.89625 9.6696875 20.89625 8.3125 18.75 C0 4.94848575 0 4.94848575 0 0 Z " fill="#AEC6DA" transform="translate(320,226)"/>
<path d="M0 0 C1.59116257 3.98797707 0.36477435 7.34595953 -0.875 11.25 C-1.09406006 11.95165283 -1.31312012 12.65330566 -1.53881836 13.3762207 C-3.56215962 19.44083628 -6.49238925 24.71355031 -9.75341797 30.18603516 C-14.31978413 37.97912017 -16.62682388 46.10076245 -18 55 C-24.00996264 49.46450809 -24.00996264 49.46450809 -25 45 C-23.99238075 42.2267912 -22.96356237 39.93535253 -21.5625 37.375 C-21.19068604 36.66641846 -20.81887207 35.95783691 -20.43579102 35.2277832 C-17.2686123 29.27979866 -13.74296244 23.60176997 -10 18 C-4.31850822 9.35841683 -4.31850822 9.35841683 0 0 Z " fill="#BB9080" transform="translate(147,249)"/>
<path d="M0 0 C1.15605905 3.45912312 1.00820641 3.97974449 -0.4765625 7.64453125 C-1.18035002 9.04015518 -1.89702134 10.42934054 -2.625 11.8125 C-2.96917969 12.49892578 -3.31335938 13.18535156 -3.66796875 13.89257812 C-6.07317372 18.58317159 -8.85124698 22.774042 -12 27 C-15.16115776 25.63016497 -15.9927092 25.0109362 -18 22 C-17.00051588 20.85371665 -16.00036869 19.70801147 -15 18.5625 C-14.36578125 17.83546875 -13.7315625 17.1084375 -13.078125 16.359375 C-11.68356852 14.77608156 -10.27708992 13.2032159 -8.859375 11.640625 C-8.16328125 10.87234375 -7.4671875 10.1040625 -6.75 9.3125 C-6.10546875 8.60738281 -5.4609375 7.90226563 -4.796875 7.17578125 C-2.91985752 4.90295791 -1.45292014 2.56054754 0 0 Z " fill="#E08381" transform="translate(139,238)"/>
<path d="M0 0 C1 3 1 3 0.07421875 5.34765625 C-0.38339844 6.24355469 -0.84101563 7.13945312 -1.3125 8.0625 C-3.86281788 13.37566224 -5.07427085 18.1931535 -6 24 C-0.72 24 4.56 24 10 24 C10 24.33 10 24.66 10 25 C2.74 25 -4.52 25 -12 25 C-11.2719725 21.35986248 -10.82658262 19.27483875 -9.2578125 16.15234375 C-8.91363281 15.46462891 -8.56945312 14.77691406 -8.21484375 14.06835938 C-7.85519531 13.36517578 -7.49554688 12.66199219 -7.125 11.9375 C-6.77308594 11.23044922 -6.42117187 10.52339844 -6.05859375 9.79492188 C-4.28716255 6.28827833 -2.51577826 3.04583217 0 0 Z " fill="#B18C81" transform="translate(213,324)"/>
<path d="M0 0 C0.33 2.31 0.66 4.62 1 7 C-2.49384279 8.16461426 -5.33655389 8.13568319 -9 8 C-10 7 -10 7 -10.25 4.0625 C-10.1675 3.051875 -10.085 2.04125 -10 1 C-6.1496895 -1.56687367 -4.41430237 -0.83288724 0 0 Z " fill="#E58784" transform="translate(251,122)"/>
<path d="M0 0 C1.8125 0.0859375 1.8125 0.0859375 4 0.375 C5.0828125 0.51035156 5.0828125 0.51035156 6.1875 0.6484375 C8 1 8 1 9 2 C9.125 5 9.125 5 9 8 C8 9 8 9 4.625 9.25 C1 9 1 9 -1 7.8125 C-2 6 -2 6 -1.75 3.375 C-1 1 -1 1 0 0 Z " fill="#E78784" transform="translate(219,121)"/>
<path d="M0 0 C0.66 0.33 1.32 0.66 2 1 C-7.41002278 11.55808656 -7.41002278 11.55808656 -12 16 C-12.66 14.68 -13.32 13.36 -14 12 C-9.61869443 7.41853326 -5.45156722 3.27094033 0 0 Z " fill="#BC9181" transform="translate(224,414)"/>
<path d="M0 0 C0 3 0 3 -1.875 5.1875 C-4 7 -4 7 -6 7 C-4.60667426 3.63279613 -3.0210714 2.0140476 0 0 Z " fill="#CCAA8E" transform="translate(109,419)"/>
</svg>
