<?xml version="1.0" encoding="UTF-8"?>
<svg version="1.1" xmlns="http://www.w3.org/2000/svg" width="512" height="512">
<path d="M0 0 C0.80474258 -0.00983917 1.60948517 -0.01967834 2.43861389 -0.02981567 C62.0380683 -0.60771072 113.74284647 18.08467928 157.28515625 59.23828125 C158.57099609 60.44291016 158.57099609 60.44291016 159.8828125 61.671875 C193.26995876 93.89496862 217.12827543 144.06970317 218.4621582 190.62109375 C218.48833951 192.20173807 218.50849655 193.78249072 218.5234375 195.36328125 C218.53318604 196.21961655 218.54293457 197.07595184 218.55297852 197.95823669 C218.72016664 216.44600392 218.60521324 234.1629072 214.28515625 252.23828125 C214.1032373 253.05619141 213.92131836 253.87410156 213.73388672 254.71679688 C203.0727564 302.39177106 174.36164704 345.15091166 135.28515625 374.23828125 C134.00511719 375.19347656 134.00511719 375.19347656 132.69921875 376.16796875 C101.10278412 398.94679372 61.62620627 414.21478195 22.39453125 414.44140625 C21.57607224 414.44846588 20.75761322 414.45552551 19.91435242 414.46279907 C-14.37873942 414.69146436 -14.37873942 414.69146436 -29.71484375 411.23828125 C-31.07005127 410.94026611 -31.07005127 410.94026611 -32.45263672 410.63623047 C-81.74001815 399.49335931 -125.45437586 371.89073321 -155.71484375 331.23828125 C-156.35164063 330.38492187 -156.9884375 329.5315625 -157.64453125 328.65234375 C-180.22672865 297.32865059 -195.58351542 258.04604136 -195.953125 219.1484375 C-195.96296417 218.29506302 -195.97280334 217.44168854 -195.98294067 216.56245422 C-196.53018914 156.74724768 -178.07335601 104.99739508 -136.71484375 61.23828125 C-135.91175781 60.38105469 -135.10867187 59.52382812 -134.28125 58.640625 C-100.47200578 23.61002878 -48.69216051 0.49499068 0 0 Z " fill="#4F4573" transform="translate(244.71484375,48.76171875)"/>
<path d="M0 0 C0.80474258 -0.00983917 1.60948517 -0.01967834 2.43861389 -0.02981567 C62.0380683 -0.60771072 113.74284647 18.08467928 157.28515625 59.23828125 C158.57099609 60.44291016 158.57099609 60.44291016 159.8828125 61.671875 C193.26995876 93.89496862 217.12827543 144.06970317 218.4621582 190.62109375 C218.48833951 192.20173807 218.50849655 193.78249072 218.5234375 195.36328125 C218.53318604 196.21961655 218.54293457 197.07595184 218.55297852 197.95823669 C218.72016664 216.44600392 218.60521324 234.1629072 214.28515625 252.23828125 C214.1032373 253.05619141 213.92131836 253.87410156 213.73388672 254.71679688 C203.0727564 302.39177106 174.36164704 345.15091166 135.28515625 374.23828125 C134.00511719 375.19347656 134.00511719 375.19347656 132.69921875 376.16796875 C101.10278412 398.94679372 61.62620627 414.21478195 22.39453125 414.44140625 C21.57607224 414.44846588 20.75761322 414.45552551 19.91435242 414.46279907 C-14.37873942 414.69146436 -14.37873942 414.69146436 -29.71484375 411.23828125 C-31.07005127 410.94026611 -31.07005127 410.94026611 -32.45263672 410.63623047 C-81.74001815 399.49335931 -125.45437586 371.89073321 -155.71484375 331.23828125 C-156.35164063 330.38492187 -156.9884375 329.5315625 -157.64453125 328.65234375 C-180.22672865 297.32865059 -195.58351542 258.04604136 -195.953125 219.1484375 C-195.96296417 218.29506302 -195.97280334 217.44168854 -195.98294067 216.56245422 C-196.53018914 156.74724768 -178.07335601 104.99739508 -136.71484375 61.23828125 C-135.91175781 60.38105469 -135.10867187 59.52382812 -134.28125 58.640625 C-100.47200578 23.61002878 -48.69216051 0.49499068 0 0 Z M-68.578125 80.1015625 C-72.29834957 82.08069477 -75.85312831 80.41453788 -79.71484375 79.23828125 C-83.13316225 78.17474432 -86.51904884 77.03298919 -89.90234375 75.86328125 C-104.97124673 70.09012132 -104.97124673 70.09012132 -120.71484375 68.23828125 C-122.81726819 69.09048048 -122.81726819 69.09048048 -123.71484375 71.23828125 C-123.28152878 77.76003869 -121.51868868 83.56049769 -119.46484375 89.73828125 C-118.83460611 91.68358426 -118.20439802 93.62889683 -117.57421875 95.57421875 C-116.68139159 98.30148358 -115.78484065 101.02738895 -114.88085938 103.75097656 C-114.15097252 105.95258743 -113.43236177 108.15761627 -112.71484375 110.36328125 C-112.30234375 111.60335937 -111.88984375 112.8434375 -111.46484375 114.12109375 C-110.43701883 118.39299109 -110.43701883 118.39299109 -111.71484375 121.23828125 C-113.02967724 123.34143942 -114.37673936 125.38192988 -115.77734375 127.42578125 C-123.95137961 139.78367603 -129.43362804 153.09791974 -133.71484375 167.23828125 C-135.71484375 167.23828125 -135.71484375 167.23828125 -137.46484375 166.23828125 C-140.46381882 164.90540344 -142.45887228 164.83959087 -145.71484375 165.23828125 C-150.66707588 168.33742007 -152.61858668 172.25324253 -155.02734375 177.36328125 C-155.38634766 178.09160156 -155.74535156 178.81992188 -156.11523438 179.5703125 C-158.03886818 183.23499379 -158.03886818 183.23499379 -158.71484375 187.23828125 C-160.02839844 187.34785156 -161.34195313 187.45742187 -162.6953125 187.5703125 C-164.43104999 187.7298127 -166.16672395 187.89000538 -167.90234375 188.05078125 C-169.19881836 188.15616211 -169.19881836 188.15616211 -170.52148438 188.26367188 C-175.31740088 188.72305085 -178.75245913 189.26649278 -182.71484375 192.23828125 C-183.61203125 192.82609375 -183.61203125 192.82609375 -184.52734375 193.42578125 C-186.1401132 195.88737673 -186.37083166 198.15530903 -186.25390625 201.0625 C-184.98423755 206.1871773 -180.44158608 209.90464215 -176.3984375 213.02734375 C-173.98741941 214.99808897 -172.29533583 216.5439605 -170.71484375 219.23828125 C-170.6282304 224.06553199 -171.71210958 228.53598574 -172.71484375 233.23828125 C-173.23776674 238.29990766 -173.54039731 241.88987711 -170.83984375 246.30078125 C-168.42462193 248.50289526 -167.34794599 249.1524692 -164.12109375 249.58984375 C-158.68319625 249.02859286 -154.59876807 246.06290834 -149.9921875 243.26171875 C-144.5091057 240.12292416 -144.5091057 240.12292416 -140.43359375 240.71484375 C-134.39893274 244.09633483 -132.85220155 247.9662134 -130.96484375 254.42578125 C-128.91210392 260.99938816 -126.54114177 267.26396342 -123.58984375 273.48828125 C-123.26532227 274.17817139 -122.94080078 274.86806152 -122.60644531 275.57885742 C-121.05826859 278.77776775 -119.51352084 281.51535617 -117.41015625 284.41015625 C-115.71484375 287.23828125 -115.71484375 287.23828125 -115.6953125 289.8515625 C-116.97300013 292.84262434 -118.58156794 294.29223213 -121.02734375 296.42578125 C-127.97807351 303.16621823 -129.89290649 309.18023869 -130.27734375 318.80078125 C-130.01176286 327.59150884 -127.24125392 332.6549891 -121.46484375 339.05078125 C-114.72896804 345.26628888 -108.00425696 346.96443113 -98.9140625 346.60546875 C-88.33513296 345.39128148 -82.0085289 339.50423376 -74.71484375 332.23828125 C-70.79160854 333.63612687 -67.33127191 335.54064318 -63.74072266 337.61450195 C-29.57741835 357.29816505 9.72963439 363.81269894 48.28515625 354.23828125 C64.81082639 349.77290868 81.1987617 343.45218998 95.0859375 333.29296875 C97.28515625 332.23828125 97.28515625 332.23828125 99.31640625 332.81640625 C101.55314098 334.43182578 103.48738723 336.19671917 105.47265625 338.11328125 C112.86948041 344.72832725 119.08266099 346.98592676 129.07421875 346.61328125 C138.34407187 345.53067067 144.49834058 341.45180032 150.28515625 334.23828125 C155.57788193 327.46538653 155.10634913 319.47641833 154.28515625 311.23828125 C152.71871413 303.21853883 148.30492969 298.80170911 142.234375 293.5625 C140.28515625 291.23828125 140.28515625 291.23828125 140.23046875 288.93359375 C141.67416303 285.24415281 143.53340608 281.87512906 145.47265625 278.42578125 C150.88546075 268.50805012 154.97739818 258.36764902 157.84765625 247.42578125 C158.7681439 244.2336808 159.15857272 243.35820249 161.66015625 240.98828125 C165.90643843 239.77505777 168.66247366 241.89381854 172.40625 243.96484375 C174.61747742 245.23063471 176.82582148 246.50147601 179.03125 247.77734375 C182.49674736 249.33328134 184.53853514 249.67782898 188.28515625 249.23828125 C192.50997371 246.96239895 192.50997371 246.96239895 195.28515625 243.23828125 C195.48530611 241.27229088 195.48530611 241.27229088 195.47265625 238.98828125 C195.49005859 237.6425 195.49005859 237.6425 195.5078125 236.26953125 C195.38317916 233.15779732 195.38317916 233.15779732 194.34375 229.95703125 C193.2835716 226.01795836 192.75523679 223.30530541 193.28515625 219.23828125 C196.53518645 214.19300824 201.24846996 210.3042967 205.85473633 206.52832031 C208.35968047 204.26921043 208.32576331 202.88441969 208.72265625 199.42578125 C208.70870465 196.86798858 208.61891325 195.65932854 207.015625 193.63671875 C202.53913696 189.9117579 199.13666344 188.97645242 193.47265625 188.17578125 C192.24933594 187.99917969 191.02601563 187.82257813 189.765625 187.640625 C186.88828227 187.30800289 184.17462296 187.15572506 181.28515625 187.23828125 C181.02347656 186.38621094 180.76179688 185.53414062 180.4921875 184.65625 C179.23684966 181.10149074 177.72142372 177.88933732 175.97265625 174.55078125 C175.39902344 173.43316406 174.82539063 172.31554687 174.234375 171.1640625 C172.15883987 168.04868011 170.65956393 166.78086762 167.28515625 165.23828125 C163.19028259 164.820437 160.85161656 165.31315966 157.28515625 167.23828125 C157.12015625 165.95953125 156.95515625 164.68078125 156.78515625 163.36328125 C154.04578053 149.74356817 146.12619144 133.13087452 137.0234375 122.62890625 C135.28515625 120.23828125 135.28515625 120.23828125 135.15625 118.0546875 C135.34316406 117.31089844 135.53007812 116.56710938 135.72265625 115.80078125 C135.94179688 114.92679688 136.1609375 114.0528125 136.38671875 113.15234375 C137.74538324 108.745545 139.3205446 104.42817639 140.9140625 100.1015625 C142.43431624 95.89876484 143.75737514 91.64528236 145.03515625 87.36328125 C145.35093628 86.32965454 145.35093628 86.32965454 145.6730957 85.27514648 C148.3230782 77.1765692 148.3230782 77.1765692 147.28515625 69.23828125 C141.56629842 66.37885234 135.12024896 68.9462418 129.46484375 70.828125 C128.64315704 71.09210587 127.82147034 71.35608673 126.97488403 71.62806702 C124.3667803 72.467786 121.76340138 73.32113187 119.16015625 74.17578125 C116.54900092 75.02425019 113.93694364 75.86982275 111.32400513 76.71278381 C109.70337503 77.23654551 108.0839057 77.76391663 106.46578979 78.2953949 C96.12095769 81.66283451 96.12095769 81.66283451 92.5859375 79.8671875 C91.10673828 78.84431641 91.10673828 78.84431641 89.59765625 77.80078125 C69.98996454 64.90098407 44.77289403 56.89451607 21.28515625 56.23828125 C20.54990723 56.2125 19.8146582 56.18671875 19.05712891 56.16015625 C-7.51189434 55.32019503 -48.45936678 59.98280428 -68.578125 80.1015625 Z " fill="#EFC389" transform="translate(244.71484375,48.76171875)"/>
<path d="M0 0 C3.83489624 1.25270861 7.43321123 2.61364502 11.0625 4.375 C33.98409265 14.8897766 60.7200651 16.33016369 84.54760742 7.84423828 C89.43327656 6.00572464 94.15864258 3.99898605 98.75 1.5 C102 0 102 0 103.86425781 0.58398438 C106.70219817 2.46556349 109.03520134 4.74954872 111.421875 7.15625 C111.92672424 7.65918579 112.43157349 8.16212158 112.95172119 8.68029785 C114.01307997 9.74029986 115.07193419 10.80281488 116.12841797 11.86767578 C117.75139124 13.50140046 119.38481068 15.12413294 121.01953125 16.74609375 C122.05012146 17.77800476 123.08009152 18.81053559 124.109375 19.84375 C124.84519806 20.57350037 124.84519806 20.57350037 125.59588623 21.31799316 C129 24.77005651 129 24.77005651 129 27 C92.49368366 48.3348602 54.13582285 55.80625636 12.68359375 44.9375 C-0.50199017 40.84100791 -13.44887079 34.54970615 -25 27 C-23.41568547 23.09148801 -20.73364905 20.47632644 -17.7734375 17.578125 C-17.26575836 17.07327576 -16.75807922 16.56842651 -16.23501587 16.04827881 C-14.61966158 14.44407904 -12.99747791 12.84699144 -11.375 11.25 C-10.27558302 10.16061893 -9.17661941 9.0707801 -8.078125 7.98046875 C-5.3906398 5.31498115 -2.69700979 2.65584857 0 0 Z " fill="#FB909D" transform="translate(205,345)"/>
<path d="M0 0 C0 4 0 4 -2.203125 6.65722656 C-3.20854229 7.66201168 -4.22494507 8.65588166 -5.25 9.640625 C-5.78270508 10.16767029 -6.31541016 10.69471558 -6.86425781 11.23773193 C-8.56701394 12.91810634 -10.28314943 14.58404041 -12 16.25 C-13.15715907 17.38709647 -14.31342073 18.52510694 -15.46875 19.6640625 C-18.3021977 22.45341913 -21.14772432 25.22990424 -24 28 C-27.83350679 26.74379035 -31.56640702 25.36909875 -35.30053711 23.84228516 C-60.11880873 13.91497651 -86.13033475 14.84254436 -110.75732422 24.66235352 C-111.51416504 24.96326904 -112.27100586 25.26418457 -113.05078125 25.57421875 C-113.71762939 25.84838623 -114.38447754 26.12255371 -115.0715332 26.4050293 C-117 27 -117 27 -121 27 C-123.04098967 25.30780129 -124.81421511 23.65117606 -126.640625 21.75 C-127.16767029 21.21729492 -127.69471558 20.68458984 -128.23773193 20.13574219 C-129.91810634 18.43298606 -131.58404041 16.71685057 -133.25 15 C-134.38709647 13.84284093 -135.52510694 12.68657927 -136.6640625 11.53125 C-139.45341913 8.6978023 -142.22990424 5.85227568 -145 3 C-143.82432041 -0.52703877 -143.29235256 -0.68378704 -140.1328125 -2.33984375 C-139.33528564 -2.76120605 -138.53775879 -3.18256836 -137.71606445 -3.61669922 C-136.86101318 -4.05256348 -136.00596191 -4.48842773 -135.125 -4.9375 C-134.25383545 -5.38625488 -133.3826709 -5.83500977 -132.48510742 -6.29736328 C-89.85690918 -27.94688309 -40.76336395 -23.28580764 0 0 Z " fill="#FA909D" transform="translate(329,137)"/>
<path d="M0 0 C3.90851199 1.58431453 6.52367356 4.26635095 9.421875 7.2265625 C9.92672424 7.73424164 10.43157349 8.24192078 10.95172119 8.76498413 C12.55592096 10.38033842 14.15300856 12.00252209 15.75 13.625 C16.83938107 14.72441698 17.9292199 15.82338059 19.01953125 16.921875 C21.68501885 19.6093602 24.34415143 22.30299021 27 25 C25.93383183 27.69672809 24.83969707 30.35037641 23.6328125 32.98828125 C12.73154805 57.02189795 10.10691744 84.57194239 19.25927734 109.65795898 C20.01671214 111.63074281 20.79790027 113.59091072 21.59765625 115.546875 C22.86516742 118.66798887 23.97209725 121.79333687 25 125 C21.15864087 128.93330656 17.30550674 132.80024016 13.125 136.375 C8.15078153 140.64569355 3.59056416 145.32477379 -1 150 C-5.35002394 146.37498005 -7.28905871 141.83866702 -9.625 136.8125 C-10.01945313 135.99974609 -10.41390625 135.18699219 -10.8203125 134.34960938 C-13.36333645 128.94997912 -14.90314462 123.8675866 -16 118 C-15.21625 117.566875 -14.4325 117.13375 -13.625 116.6875 C-10.78301625 115.10779753 -10.78301625 115.10779753 -9 112 C-8.94038568 109.42422394 -8.94038568 109.42422394 -9.3125 106.5625 C-9.40402344 105.49128906 -9.49554688 104.42007813 -9.58984375 103.31640625 C-9.92971524 100.02323044 -9.92971524 100.02323044 -10.75390625 96.96484375 C-11.46224166 93.58354454 -11.74761986 91.39270769 -11 88 C-8.25559886 84.27681081 -4.67059514 81.45582915 -1.07421875 78.59375 C2.45690411 75.76319369 3.7655588 73.57410521 4.4375 69.0625 C4.21767096 65.86646339 4.21767096 65.86646339 2.0625 63.25 C-4.54012609 58.39909103 -13.05508267 58.56431189 -21 58 C-19.96710506 36.51578529 -10.66603677 18.18789037 0 0 Z " fill="#FB909D" transform="translate(141,179)"/>
<path d="M0 0 C10.28629066 17.54034145 19.45467639 35.33681573 21 56 C18.63747911 58.36252089 17.83861704 58.33691457 14.60546875 58.67578125 C13.29545898 58.83530273 13.29545898 58.83530273 11.95898438 58.99804688 C10.12418198 59.20622389 8.28820186 59.40429132 6.45117188 59.59179688 C1.95825606 60.15629989 -0.4555858 60.57489068 -4.1015625 63.421875 C-6.19521447 65.8773027 -6.19521447 65.8773027 -6.5625 68.9375 C-5.38019043 75.37451874 -1.18417533 78.81364346 3.8125 82.625 C8.83173417 87.07765395 8.83173417 87.07765395 9.52734375 90.890625 C9.23763127 94.00809456 8.68186884 96.94507349 8 100 C6.62884877 107.78692602 6.62884877 107.78692602 8.625 115.125 C11.03041978 117.02401561 13.0769455 118.10684446 16 119 C14.4370177 125.62639371 11.91682847 131.72018997 9.0625 137.875 C8.72669922 138.61226318 8.39089844 139.34952637 8.04492188 140.10913086 C6.16655736 144.07703966 4.3994555 147.09487248 1 150 C0.55720703 149.55197021 0.11441406 149.10394043 -0.34179688 148.64233398 C-2.39176683 146.57129904 -4.44585433 144.50439303 -6.5 142.4375 C-7.54414063 141.38079102 -7.54414063 141.38079102 -8.609375 140.30273438 C-12.70056046 136.19260825 -16.86846545 132.3044923 -21.35351562 128.62524414 C-23.16846941 126.83370391 -24.1411537 125.40017657 -25 123 C-23.98828125 119.93359375 -23.98828125 119.93359375 -22.3125 116.4375 C-13.25914305 96.78120499 -10.79337709 68.93196185 -17.7890625 48.09375 C-18.18867188 47.0728125 -18.58828125 46.051875 -19 45 C-19.63035156 43.22109375 -19.63035156 43.22109375 -20.2734375 41.40625 C-22.5257996 35.14705934 -22.5257996 35.14705934 -25.77734375 29.3828125 C-26.38255859 28.20332031 -26.38255859 28.20332031 -27 27 C-25.69410641 23.06906412 -22.71784442 20.42830235 -19.84375 17.578125 C-19.34081421 17.07327576 -18.83787842 16.56842651 -18.31970215 16.04827881 C-17.25970014 14.98692003 -16.19718512 13.92806581 -15.13232422 12.87158203 C-13.49859954 11.24860876 -11.87586706 9.61518932 -10.25390625 7.98046875 C-9.22199524 6.94987854 -8.18946441 5.91990848 -7.15625 4.890625 C-6.66974976 4.40007629 -6.18324951 3.90952759 -5.68200684 3.40411377 C-2.22994349 0 -2.22994349 0 0 0 Z " fill="#FA8F9D" transform="translate(373,179)"/>
<path d="M0 0 C4.91364308 4.12237882 9.54472218 8.40313914 14.06785583 12.94760132 C14.7435394 13.62243045 15.41922296 14.29725959 16.11538178 14.99253809 C18.36242167 17.23794041 20.60588591 19.48688044 22.84936523 21.73583984 C24.46592586 23.35268274 26.0827071 24.96930507 27.69969177 26.58572388 C32.07741245 30.96315813 36.4520472 35.34366456 40.82612872 39.72473478 C45.40207383 44.30693924 49.98085876 48.8863042 54.55934143 53.4659729 C62.23998571 61.14937022 69.91888274 68.8345097 77.59643555 76.52099609 C85.50183436 84.435584 93.40829029 92.34911343 101.31616211 100.26123047 C101.80419032 100.7495214 102.29221853 101.23781234 102.79503547 101.74089997 C105.24351148 104.19068108 107.6920082 106.64044148 110.14051521 109.0901916 C130.4302218 129.3902528 150.71626442 149.69397269 171 170 C169.44805246 173.32759923 167.69378051 175.48580485 165 178 C162.15067949 176.70475033 160.0922206 175.34161197 157.88409042 173.13018608 C157.29091577 172.54099353 156.69774112 171.95180097 156.08659148 171.3447541 C155.44456353 170.69690047 154.80253559 170.04904684 154.14105225 169.38156128 C153.45159775 168.69381563 152.76214325 168.00606999 152.0517962 167.29748356 C149.73775626 164.98674357 147.43094714 162.66891713 145.12402344 160.35107422 C143.46871158 158.69519836 141.81295949 157.0397625 140.15679932 155.38473511 C135.65682209 150.88533282 131.16304746 146.37978102 126.67033672 141.8731246 C122.45144979 137.6430181 118.22796594 133.41750848 114.00449541 129.19197954 C105.63937902 120.82248618 97.27873848 112.44853647 88.92089844 104.07177734 C80.80214862 95.93466878 72.68130034 87.79966397 64.55761719 79.66748047 C64.05685282 79.16619066 63.55608846 78.66490085 63.04014942 78.14842044 C60.52794241 75.63360335 58.01569405 73.11882757 55.50342512 70.60407233 C34.66253554 49.74245019 13.82897636 28.87351671 -7 8 C-6.02133662 6.85373678 -5.04205413 5.70800212 -4.0625 4.5625 C-3.51722656 3.92441406 -2.97195312 3.28632813 -2.41015625 2.62890625 C-1.63204305 1.73008851 -0.84063472 0.84063472 0 0 Z " fill="#D0E2F4" transform="translate(157,162)"/>
<path d="M0 0 C4.91364308 4.12237882 9.54472218 8.40313914 14.06785583 12.94760132 C14.7435394 13.62243045 15.41922296 14.29725959 16.11538178 14.99253809 C18.36242167 17.23794041 20.60588591 19.48688044 22.84936523 21.73583984 C24.46592586 23.35268274 26.0827071 24.96930507 27.69969177 26.58572388 C32.07741245 30.96315813 36.4520472 35.34366456 40.82612872 39.72473478 C45.40207383 44.30693924 49.98085876 48.8863042 54.55934143 53.4659729 C62.23998571 61.14937022 69.91888274 68.8345097 77.59643555 76.52099609 C85.50183436 84.435584 93.40829029 92.34911343 101.31616211 100.26123047 C101.80419032 100.7495214 102.29221853 101.23781234 102.79503547 101.74089997 C105.24351148 104.19068108 107.6920082 106.64044148 110.14051521 109.0901916 C130.4302218 129.3902528 150.71626442 149.69397269 171 170 C169.44805246 173.32759923 167.69378051 175.48580485 165 178 C162.15067949 176.70475033 160.0922206 175.34161197 157.88409042 173.13018608 C157.29091577 172.54099353 156.69774112 171.95180097 156.08659148 171.3447541 C155.44456353 170.69690047 154.80253559 170.04904684 154.14105225 169.38156128 C153.45159775 168.69381563 152.76214325 168.00606999 152.0517962 167.29748356 C149.73775626 164.98674357 147.43094714 162.66891713 145.12402344 160.35107422 C143.46871158 158.69519836 141.81295949 157.0397625 140.15679932 155.38473511 C135.65682209 150.88533282 131.16304746 146.37978102 126.67033672 141.8731246 C122.45144979 137.6430181 118.22796594 133.41750848 114.00449541 129.19197954 C105.63937902 120.82248618 97.27873848 112.44853647 88.92089844 104.07177734 C80.80214862 95.93466878 72.68130034 87.79966397 64.55761719 79.66748047 C64.05685282 79.16619066 63.55608846 78.66490085 63.04014942 78.14842044 C60.52794241 75.63360335 58.01569405 73.11882757 55.50342512 70.60407233 C34.66253554 49.74245019 13.82897636 28.87351671 -7 8 C-6.02133662 6.85373678 -5.04205413 5.70800212 -4.0625 4.5625 C-3.51722656 3.92441406 -2.97195312 3.28632813 -2.41015625 2.62890625 C-1.63204305 1.73008851 -0.84063472 0.84063472 0 0 Z " fill="#CFE2F4" transform="translate(173,146)"/>
<path d="M0 0 C3.5751689 1.78758445 5.30075531 3.05595502 8.03417969 5.80712891 C8.81468689 6.58778717 9.59519409 7.36844543 10.39935303 8.17276001 C11.23178528 9.01551483 12.06421753 9.85826965 12.921875 10.7265625 C13.78186096 11.58937836 14.64184692 12.45219421 15.52789307 13.34115601 C18.2733231 16.09778029 21.0117169 18.86127799 23.75 21.625 C25.61021783 23.49524857 27.47088946 25.36504589 29.33203125 27.234375 C33.89329945 31.8176936 38.44881011 36.40667478 43 41 C38.22920967 48.1561855 25.94655596 49.74240083 17.921875 51.44140625 C-0.65871251 54.99357739 -22.06520918 53.01421351 -39 44 C-39.66 43.01 -40.32 42.02 -41 41 C-27.47 27.47 -13.94 13.94 0 0 Z " fill="#FB909D" transform="translate(256,294)"/>
<path d="M0 0 C3.18259851 1.40509099 5.31348466 3.06921342 7.75878906 5.53173828 C8.47923401 6.25233429 9.19967896 6.9729303 9.94195557 7.71536255 C10.70876648 8.49249603 11.47557739 9.26962952 12.265625 10.0703125 C13.05902283 10.86654022 13.85242065 11.66276794 14.66986084 12.48312378 C17.20130703 15.02575948 19.72570803 17.57526348 22.25 20.125 C23.96568617 21.85071753 25.68182662 23.57598355 27.3984375 25.30078125 C31.60424248 29.52863032 35.80428507 33.76213869 40 38 C38.57000073 41.25763629 36.82243678 43.43035227 34.31640625 45.94238281 C33.56222412 46.70286926 32.80804199 47.46335571 32.03100586 48.24688721 C31.21639893 49.05744568 30.40179199 49.86800415 29.5625 50.703125 C28.3086853 51.95980988 28.3086853 51.95980988 27.02954102 53.24188232 C25.26336443 55.00941903 23.49466312 56.77443602 21.72363281 58.53710938 C19.00353119 61.24648274 16.29428001 63.96637765 13.5859375 66.6875 C11.87043283 68.40168357 10.15430814 70.1152469 8.4375 71.828125 C7.62289307 72.6467804 6.80828613 73.46543579 5.96899414 74.30889893 C4.83772095 75.43071564 4.83772095 75.43071564 3.68359375 76.57519531 C3.01900146 77.23819641 2.35440918 77.90119751 1.66967773 78.58428955 C0 80 0 80 -2 80 C-10.93985703 54.95153265 -13.63715836 29.76661819 -2.3125 4.75 C-1.5519916 3.16168157 -0.78506071 1.57632743 0 0 Z " fill="#FA8F9D" transform="translate(176,214)"/>
<path d="M0 0 C9.77309856 9.21142623 11.45220446 26.10055207 12.1640625 38.96484375 C12.55633028 53.38959991 8.87801217 66.58064635 4 80 C0.72803548 78.56741228 -1.43203956 76.81174684 -3.94238281 74.28466797 C-4.70286926 73.52403046 -5.46335571 72.76339294 -6.24688721 71.97970581 C-7.05744568 71.15882477 -7.86800415 70.33794373 -8.703125 69.4921875 C-9.54091492 68.65156769 -10.37870483 67.81094788 -11.24188232 66.94485474 C-13.91598431 64.25955999 -16.58304724 61.56739345 -19.25 58.875 C-21.06204062 57.05292845 -22.87453518 55.23130823 -24.6875 53.41015625 C-29.13028036 48.94532748 -33.56730165 44.47483717 -38 40 C-36.59490901 36.81740149 -34.93078658 34.68651534 -32.46826172 32.24121094 C-31.74766571 31.52076599 -31.0270697 30.80032104 -30.28463745 30.05804443 C-29.11893723 28.90782806 -29.11893723 28.90782806 -27.9296875 27.734375 C-27.13345978 26.94097717 -26.33723206 26.14757935 -25.51687622 25.33013916 C-22.97424052 22.79869297 -20.42473652 20.27429197 -17.875 17.75 C-16.14928247 16.03431383 -14.42401645 14.31817338 -12.69921875 12.6015625 C-8.47136968 8.39575752 -4.23786131 4.19571493 0 0 Z " fill="#FA8F9D" transform="translate(336,214)"/>
<path d="M0 0 C-1.39080525 3.13738154 -3.01022204 5.25475281 -5.43994141 7.66699219 C-6.14051666 8.36741638 -6.84109192 9.06784058 -7.56289673 9.78948975 C-8.69578629 10.90689545 -8.69578629 10.90689545 -9.8515625 12.046875 C-10.62559418 12.81807678 -11.39962585 13.58927856 -12.19711304 14.3838501 C-14.66841923 16.84396856 -17.14659183 19.29703848 -19.625 21.75 C-21.30254052 23.41750894 -22.97962945 25.08547232 -24.65625 26.75390625 C-28.76560919 30.8412237 -32.88062647 34.92277696 -37 39 C-40.12265393 37.61222556 -42.25298689 35.99953492 -44.66699219 33.59179688 C-45.36741638 32.897677 -46.06784058 32.20355713 -46.78948975 31.48840332 C-47.90689545 30.36492493 -47.90689545 30.36492493 -49.046875 29.21875 C-50.20367767 28.0648175 -50.20367767 28.0648175 -51.3838501 26.88757324 C-53.01015129 25.26263173 -54.63393476 23.63516701 -56.25537109 22.00537109 C-58.74746268 19.50254825 -61.25006592 17.01059437 -63.75390625 14.51953125 C-65.33137112 12.94074532 -66.90821577 11.36133939 -68.484375 9.78125 C-69.23740906 9.0322644 -69.99044312 8.28327881 -70.76629639 7.51159668 C-71.45411194 6.81747681 -72.14192749 6.12335693 -72.85058594 5.40820312 C-73.46029236 4.79690552 -74.06999878 4.18560791 -74.69818115 3.55578613 C-76 2 -76 2 -76 0 C-49.44346064 -9.77220971 -26.53549861 -9.77217052 0 0 Z " fill="#F98F9D" transform="translate(295,173)"/>
<path d="M0 0 C3 1 3 1 4.54296875 4.0546875 C5.09154278 5.32795405 5.63969984 6.60140031 6.1875 7.875 C8.72402189 13.69246771 8.72402189 13.69246771 13.6875 17.25 C15.71538478 17.73233209 15.71538478 17.73233209 18 18 C19.04800781 18.19464844 20.09601563 18.38929688 21.17578125 18.58984375 C24.11189247 19.11772274 27.04661044 19.58160315 30 20 C26.49058007 24.18477221 22.91806547 28.19387925 19 32 C17.79216942 32.98915226 17.79216942 32.98915226 17.8671875 34.8984375 C17.8874229 41.31306019 18.32100417 47.62228913 19 54 C17.98679688 53.4946875 16.97359375 52.989375 15.9296875 52.46875 C14.57842351 51.81188556 13.22684411 51.15566971 11.875 50.5 C11.20984375 50.16613281 10.5446875 49.83226562 9.859375 49.48828125 C5.75867509 47.51833718 2.63870239 46.34983147 -2 47 C-5.18604731 48.2692543 -5.18604731 48.2692543 -8.25 50 C-13.83333333 53 -13.83333333 53 -16 53 C-15.84660156 51.72125 -15.69320312 50.4425 -15.53515625 49.125 C-14.32459219 39.94513178 -14.32459219 39.94513178 -16.31640625 31.16796875 C-18.09538264 29.21993197 -19.92753875 27.62686106 -22 26 C-23.00772566 24.85791092 -23.99035138 23.69280676 -24.9375 22.5 C-25.618125 21.675 -26.29875 20.85 -27 20 C-25.6875 19.70833333 -24.375 19.41666667 -23.0625 19.125 C-22.24523437 18.93808594 -21.42796875 18.75117188 -20.5859375 18.55859375 C-18.91203118 18.19700976 -17.22913822 17.87397022 -15.5390625 17.59765625 C-11.9017228 16.96323653 -9.58612133 16.50471559 -6.75 14.0625 C-4.15769025 9.52595793 -2.05180721 4.80156524 0 0 Z " fill="#D0E2F5" transform="translate(101,230)"/>
<path d="M0 0 C3.82960747 3.49695089 5.57470223 6.98370601 7.65625 11.66015625 C9.50357085 14.87685738 11.1915279 16.49379275 14.8203125 17.50952148 C16.95711842 17.96334076 19.09360406 18.33889536 21.25 18.6875 C22.36761719 18.88182617 22.36761719 18.88182617 23.5078125 19.08007812 C25.33685178 19.39664262 27.16822435 19.69967399 29 20 C23 27 23 27 21.44580078 28.45874023 C18.96567786 30.94140948 17.19709514 32.81011559 16.61181641 36.34350586 C16.63341049 38.91094224 16.83022508 41.38730911 17.125 43.9375 C17.19976562 44.81212891 17.27453125 45.68675781 17.3515625 46.58789062 C17.53867567 48.72799747 17.76533887 50.86458369 18 53 C13.73424908 51.65674226 10.07062744 50.04321002 6.22265625 47.8046875 C1.65875785 46.15237982 -2.40702438 46.51989581 -6.74609375 48.53125 C-7.98409519 49.17317667 -9.21463452 49.82968855 -10.4375 50.5 C-11.07365234 50.83386719 -11.70980469 51.16773438 -12.36523438 51.51171875 C-13.91693107 52.32840122 -15.45947571 53.1624334 -17 54 C-16.9278125 53.32195312 -16.855625 52.64390625 -16.78125 51.9453125 C-16.48410639 48.96562245 -16.23399299 45.98529764 -16 43 C-15.88011719 41.64068359 -15.88011719 41.64068359 -15.7578125 40.25390625 C-15.52626177 35.77952885 -15.60556339 33.62153647 -18.0625 29.75 C-19.42546905 28.34260214 -19.42546905 28.34260214 -21 27 C-21.62390625 26.45214844 -22.2478125 25.90429688 -22.890625 25.33984375 C-24.12773284 24.27623274 -25.37823963 23.22791195 -26.64453125 22.19921875 C-27.09183594 21.80347656 -27.53914063 21.40773437 -28 21 C-28 20.67 -28 20.34 -28 20 C-26.97519531 19.80664062 -25.95039063 19.61328125 -24.89453125 19.4140625 C-23.53380399 19.15130137 -22.17312967 18.88826602 -20.8125 18.625 C-20.13896484 18.49867188 -19.46542969 18.37234375 -18.77148438 18.2421875 C-12.02735469 17.31175663 -12.02735469 17.31175663 -6.86791992 13.43505859 C-5.71904627 11.44969538 -4.69035936 9.43780749 -3.6875 7.375 C-3.32849609 6.66859375 -2.96949219 5.9621875 -2.59960938 5.234375 C-1.71900178 3.49664267 -0.85758134 1.74921058 0 0 Z " fill="#D0E2F5" transform="translate(409,230)"/>
<path d="M0 0 C1.17539996 0.92652701 2.34010577 1.86663387 3.5 2.8125 C4.47453125 3.59560547 4.47453125 3.59560547 5.46875 4.39453125 C7 6 7 6 7 9 C5.85993195 10.50921154 5.85993195 10.50921154 4.2286377 12.13212585 C3.61440445 12.75048309 3.0001712 13.36884033 2.36732483 14.00593567 C1.68472092 14.67775375 1.002117 15.34957184 0.29882812 16.04174805 C-0.76918785 17.11042114 -0.76918785 17.11042114 -1.85877991 18.20068359 C-4.22173079 20.56153897 -6.595142 22.91158223 -8.96875 25.26171875 C-10.60607982 26.89345535 -12.24274999 28.52585413 -13.87878418 30.15888977 C-18.19261667 34.46125202 -22.51538166 38.75453076 -26.84002686 43.04602051 C-31.24900993 47.42434982 -35.64954309 51.81115338 -40.05078125 56.19726562 C-48.69224131 64.80652306 -57.34315538 73.40621426 -66 82 C-69.32759923 80.44805246 -71.48580485 78.69378051 -74 76 C-72.68634063 73.09702266 -71.27927877 71.03091891 -69.02609253 68.7855835 C-68.41752411 68.17426575 -67.80895569 67.562948 -67.1819458 66.93310547 C-66.18285187 65.94479736 -66.18285187 65.94479736 -65.16357422 64.93652344 C-64.46102509 64.23368225 -63.75847595 63.53084106 -63.03463745 62.80670166 C-60.71269689 60.48615375 -58.38375372 58.1727692 -56.0546875 55.859375 C-54.44285268 54.25127053 -52.83145903 52.64272375 -51.2204895 51.03375244 C-46.98012971 46.80102735 -42.73379794 42.57434285 -38.48620605 38.34887695 C-34.15255457 34.03568729 -29.82456212 29.71682751 -25.49609375 25.3984375 C-17.00293327 16.92672409 -8.50345472 8.46137967 0 0 Z " fill="#CFE1F4" transform="translate(356,162)"/>
<path d="M0 0 C1.17539996 0.92652701 2.34010577 1.86663387 3.5 2.8125 C4.47453125 3.59560547 4.47453125 3.59560547 5.46875 4.39453125 C7 6 7 6 7 9 C5.85993195 10.50921154 5.85993195 10.50921154 4.2286377 12.13212585 C3.61440445 12.75048309 3.0001712 13.36884033 2.36732483 14.00593567 C1.68472092 14.67775375 1.002117 15.34957184 0.29882812 16.04174805 C-0.76918785 17.11042114 -0.76918785 17.11042114 -1.85877991 18.20068359 C-4.22173079 20.56153897 -6.595142 22.91158223 -8.96875 25.26171875 C-10.60607982 26.89345535 -12.24274999 28.52585413 -13.87878418 30.15888977 C-18.19261667 34.46125202 -22.51538166 38.75453076 -26.84002686 43.04602051 C-31.24900993 47.42434982 -35.64954309 51.81115338 -40.05078125 56.19726562 C-48.69224131 64.80652306 -57.34315538 73.40621426 -66 82 C-69.32759923 80.44805246 -71.48580485 78.69378051 -74 76 C-72.68634063 73.09702266 -71.27927877 71.03091891 -69.02609253 68.7855835 C-68.41752411 68.17426575 -67.80895569 67.562948 -67.1819458 66.93310547 C-66.18285187 65.94479736 -66.18285187 65.94479736 -65.16357422 64.93652344 C-64.46102509 64.23368225 -63.75847595 63.53084106 -63.03463745 62.80670166 C-60.71269689 60.48615375 -58.38375372 58.1727692 -56.0546875 55.859375 C-54.44285268 54.25127053 -52.83145903 52.64272375 -51.2204895 51.03375244 C-46.98012971 46.80102735 -42.73379794 42.57434285 -38.48620605 38.34887695 C-34.15255457 34.03568729 -29.82456212 29.71682751 -25.49609375 25.3984375 C-17.00293327 16.92672409 -8.50345472 8.46137967 0 0 Z " fill="#CFE1F4" transform="translate(340,146)"/>
<path d="M0 0 C3.53068355 1.66089742 5.86305586 3.59458132 8.625 6.375 C9.78902344 7.53128906 9.78902344 7.53128906 10.9765625 8.7109375 C15.13970988 13.42059844 15.43945126 17.1481402 15.31640625 23.30859375 C14.71977021 28.38368302 12.09820164 31.00893998 8.4375 34.3125 C3.86299975 37.47946171 -0.61442943 37.61446107 -6 37 C-12.66986086 34.26059286 -17.11283977 29.18637413 -22 24 C-20.4608199 20.33247995 -18.24514548 18.01419427 -15.4296875 15.234375 C-14.08583984 13.90019531 -14.08583984 13.90019531 -12.71484375 12.5390625 C-11.77769531 11.61867188 -10.84054687 10.69828125 -9.875 9.75 C-8.92011363 8.80515144 -7.96568141 7.85984367 -7.01171875 6.9140625 C-4.67890913 4.60481662 -2.34155914 2.30036797 0 0 Z " fill="#FA8F9D" transform="translate(372,346)"/>
<path d="M0 0 C3.66752005 1.5391801 5.98580573 3.75485452 8.765625 6.5703125 C10.09980469 7.91416016 10.09980469 7.91416016 11.4609375 9.28515625 C12.38132813 10.22230469 13.30171875 11.15945313 14.25 12.125 C15.19484856 13.07988637 16.14015633 14.03431859 17.0859375 14.98828125 C19.39518338 17.32109087 21.69963203 19.65844086 24 22 C21.07177639 28.13559228 16.41883972 32.59267507 10.5625 36 C4.73402167 37.63606409 0.17356091 38.10728575 -5.3125 35.3125 C-9.06638338 32.0824143 -12.72830504 28.72585764 -13.23828125 23.609375 C-13.39837243 17.44165174 -13.26187243 13.78161297 -9 9 C-6.0559502 5.93940434 -3.06112926 2.94339352 0 0 Z " fill="#FA8F9D" transform="translate(140,346)"/>
<path d="M0 0 C3.32759923 1.55194754 5.48580485 3.30621949 8 6 C6.41219641 9.86466333 3.94066771 12.30059155 0.99951172 15.22753906 C0.23829514 15.98919373 0.23829514 15.98919373 -0.53829956 16.76623535 C-2.21093869 18.43748509 -3.89054217 20.10154556 -5.5703125 21.765625 C-6.73374278 22.92532377 -7.89673126 24.08546592 -9.05929565 25.24603271 C-12.115982 28.29509352 -15.17862744 31.33809963 -18.24255371 34.37988281 C-21.36975165 37.48659913 -24.49127507 40.59900545 -27.61328125 43.7109375 C-33.7366488 49.81287417 -39.8663236 55.90842598 -46 62 C-49.32759923 60.44805246 -51.48580485 58.69378051 -54 56 C-52.41219641 52.13533667 -49.94066771 49.69940845 -46.99951172 46.77246094 C-46.492034 46.26469116 -45.98455627 45.75692139 -45.46170044 45.23376465 C-43.78906131 43.56251491 -42.10945783 41.89845444 -40.4296875 40.234375 C-39.26625722 39.07467623 -38.10326874 37.91453408 -36.94070435 36.75396729 C-33.884018 33.70490648 -30.82137256 30.66190037 -27.75744629 27.62011719 C-24.63024835 24.51340087 -21.50872493 21.40099455 -18.38671875 18.2890625 C-12.2633512 12.18712583 -6.1336764 6.09157402 0 0 Z " fill="#D0E2F5" transform="translate(240,278)"/>
<path d="M0 0 C3.32759923 1.55194754 5.48580485 3.30621949 8 6 C6.41219641 9.86466333 3.94066771 12.30059155 0.99951172 15.22753906 C0.23829514 15.98919373 0.23829514 15.98919373 -0.53829956 16.76623535 C-2.21093869 18.43748509 -3.89054217 20.10154556 -5.5703125 21.765625 C-6.73374278 22.92532377 -7.89673126 24.08546592 -9.05929565 25.24603271 C-12.115982 28.29509352 -15.17862744 31.33809963 -18.24255371 34.37988281 C-21.36975165 37.48659913 -24.49127507 40.59900545 -27.61328125 43.7109375 C-33.7366488 49.81287417 -39.8663236 55.90842598 -46 62 C-49.32759923 60.44805246 -51.48580485 58.69378051 -54 56 C-52.41219641 52.13533667 -49.94066771 49.69940845 -46.99951172 46.77246094 C-46.492034 46.26469116 -45.98455627 45.75692139 -45.46170044 45.23376465 C-43.78906131 43.56251491 -42.10945783 41.89845444 -40.4296875 40.234375 C-39.26625722 39.07467623 -38.10326874 37.91453408 -36.94070435 36.75396729 C-33.884018 33.70490648 -30.82137256 30.66190037 -27.75744629 27.62011719 C-24.63024835 24.51340087 -21.50872493 21.40099455 -18.38671875 18.2890625 C-12.2633512 12.18712583 -6.1336764 6.09157402 0 0 Z " fill="#CFE2F4" transform="translate(224,262)"/>
<path d="M0 0 C3.66752005 1.5391801 5.98580573 3.75485452 8.765625 6.5703125 C10.09980469 7.91416016 10.09980469 7.91416016 11.4609375 9.28515625 C12.38132813 10.22230469 13.30171875 11.15945313 14.25 12.125 C15.19484856 13.07988637 16.14015633 14.03431859 17.0859375 14.98828125 C19.39518338 17.32109087 21.69963203 19.65844086 24 22 C22.39464713 25.41059403 20.59481099 27.61792484 17.875 30.25 C17.15054688 30.95640625 16.42609375 31.6628125 15.6796875 32.390625 C15.12539062 32.92171875 14.57109375 33.4528125 14 34 C10.33247995 32.4608199 8.01419427 30.24514548 5.234375 27.4296875 C4.34492188 26.53378906 3.45546875 25.63789063 2.5390625 24.71484375 C1.61867187 23.77769531 0.69828125 22.84054687 -0.25 21.875 C-1.19484856 20.92011363 -2.14015633 19.96568141 -3.0859375 19.01171875 C-5.39518338 16.67890913 -7.69963203 14.34155914 -10 12 C-8.39464713 8.58940597 -6.59481099 6.38207516 -3.875 3.75 C-3.15054688 3.04359375 -2.42609375 2.3371875 -1.6796875 1.609375 C-1.12539062 1.07828125 -0.57109375 0.5471875 0 0 Z " fill="#7AA9EF" transform="translate(160,326)"/>
<path d="M0 0 C3.41059403 1.60535287 5.61792484 3.40518901 8.25 6.125 C8.95640625 6.84945313 9.6628125 7.57390625 10.390625 8.3203125 C10.92171875 8.87460937 11.4528125 9.42890625 12 10 C10.4608199 13.66752005 8.24514548 15.98580573 5.4296875 18.765625 C4.53378906 19.65507812 3.63789063 20.54453125 2.71484375 21.4609375 C1.77769531 22.38132812 0.84054687 23.30171875 -0.125 24.25 C-1.07988637 25.19484856 -2.03431859 26.14015633 -2.98828125 27.0859375 C-5.32109087 29.39518338 -7.65844086 31.69963203 -10 34 C-11.2827496 33.05150389 -12.56364228 32.10049613 -13.84375 31.1484375 C-14.55724609 30.61911621 -15.27074219 30.08979492 -16.00585938 29.54443359 C-18.18977857 27.85301919 -20.12672658 26.02937954 -22 24 C-20.4608199 20.33247995 -18.24514548 18.01419427 -15.4296875 15.234375 C-14.08583984 13.90019531 -14.08583984 13.90019531 -12.71484375 12.5390625 C-11.77769531 11.61867188 -10.84054687 10.69828125 -9.875 9.75 C-8.92011363 8.80515144 -7.96568141 7.85984367 -7.01171875 6.9140625 C-4.67890913 4.60481662 -2.34155914 2.30036797 0 0 Z " fill="#7AA9EF" transform="translate(352,326)"/>
<path d="M0 0 C1.65584175 1.49970778 3.01953583 2.8771412 4.26171875 4.73828125 C4.26171875 8.17578125 4.26171875 8.17578125 3.26171875 11.73828125 C3.08511719 12.39828125 2.90851563 13.05828125 2.7265625 13.73828125 C2.27045893 15.41403955 1.77008148 17.07762966 1.26171875 18.73828125 C-5.14897412 13.46726711 -10.92418637 7.64699973 -16.73828125 1.73828125 C-15.73828125 -0.26171875 -15.73828125 -0.26171875 -13.59375 -1.18359375 C-12.71332031 -1.456875 -11.83289063 -1.73015625 -10.92578125 -2.01171875 C-10.05308594 -2.2953125 -9.18039062 -2.57890625 -8.28125 -2.87109375 C-4.56760896 -3.44154552 -2.92931687 -2.12622326 0 0 Z " fill="#D0E3F5" transform="translate(368.73828125,139.26171875)"/>
<path d="M0 0 C2.09476244 0.51673457 3.96115284 1.19963252 5.93359375 2.0703125 C6.92359375 2.4415625 7.91359375 2.8128125 8.93359375 3.1953125 C9.59359375 3.4840625 10.25359375 3.7728125 10.93359375 4.0703125 C5.66257961 10.48100537 -0.15768777 16.25621762 -6.06640625 22.0703125 C-8.12497987 18.03133894 -10.01063078 14.2455558 -10.12890625 9.6328125 C-8.34945678 5.34119907 -5.06881206 0.17247376 0 0 Z " fill="#D1E3F6" transform="translate(151.06640625,135.9296875)"/>
</svg>
