<?xml version="1.0" encoding="UTF-8"?>
<svg version="1.1" xmlns="http://www.w3.org/2000/svg" width="512" height="512">
<path d="M0 0 C17.3108053 13.65970625 28.35148394 33.32920317 31.28466797 55.11425781 C33.87634229 78.00651184 28.07406114 100.44990073 13.75 118.6875 C0.9688626 133.51620579 -15.29578886 144.89986623 -35 148 C-35.00831318 158.31007819 -34.98440442 168.61953533 -34.9197216 178.92942905 C-34.89068874 183.71716329 -34.8726228 188.50440866 -34.87988281 193.29223633 C-34.88648564 197.91564544 -34.86393727 202.53808936 -34.82144547 207.16129875 C-34.81033114 208.92223613 -34.80959903 210.68327159 -34.81957626 212.44421577 C-35.33136233 223.11704178 -35.33136233 223.11704178 -31.06542969 232.41967773 C-30.04439239 233.28070216 -29.02265427 234.1408967 -28 235 C-24.34494691 241.84744123 -24.53910819 248.79925349 -24.60888672 256.40869141 C-24.6249675 258.49578206 -24.60898183 260.58093698 -24.58984375 262.66796875 C-24.57536902 269.69303614 -24.64894272 275.7220699 -28 282 C-29.02078536 282.89154665 -30.04339707 283.7810047 -31.06741333 284.6688385 C-36.03586145 290.42819735 -34.83005283 298.59396334 -34.77294922 305.76733398 C-34.78112501 307.48264453 -34.79193029 309.19794426 -34.80516052 310.91322327 C-34.83355876 315.55751361 -34.82525715 320.20109377 -34.81029272 324.84541965 C-34.80090503 329.7035044 -34.82537045 334.56141674 -34.84622192 339.41944885 C-34.8805514 348.61326667 -34.8845012 357.80683571 -34.87749684 367.00070482 C-34.87100298 377.46990913 -34.89843659 387.93893889 -34.92869925 398.40809143 C-34.990178 419.93879953 -35.00463962 441.46919762 -35 463 C-46.22 463 -57.44 463 -69 463 C-69 449.14 -69 435.28 -69 421 C-71.97 421 -74.94 421 -78 421 C-94.49339115 417.52555577 -106.51348494 406.59510017 -117 394 C-115.66520631 404.62648886 -113.25904944 414.92422036 -110.74145508 425.32080078 C-110.06241606 428.12534669 -109.39090504 430.93161179 -108.72070312 433.73828125 C-106.7701404 441.8752233 -104.82250371 449.99985057 -102.47827148 458.03466797 C-102 460 -102 460 -102 463 C-194.73 463 -287.46 463 -383 463 C-385.31637448 384.24326754 -379.86218388 290.08786853 -332.3984375 223.01953125 C-330.90511789 221.27238541 -330.90511789 221.27238541 -331 220 C-337.59537306 219.03272419 -337.59537306 219.03272419 -344.125 219.8125 C-348.18720494 220.07742641 -349.9797844 218.47160338 -353.04296875 215.9296875 C-361.42951832 207.66031527 -364.25361811 198.12214082 -364.375 186.625 C-364.16321834 166.40646961 -354.79038359 149.28275774 -342.10327148 134.07275391 C-329.68052649 119.1738833 -325.22541729 105.46290372 -323.6875 86.1875 C-321.46461779 62.40068244 -316.31056908 41.10505212 -300 23 C-299.06220703 21.92298828 -299.06220703 21.92298828 -298.10546875 20.82421875 C-290.18196824 12.25521922 -279.26971279 6.63202587 -267.59375 5.8359375 C-259.94335621 5.59411471 -251.93258575 6.53370713 -245 10 C-243.56630722 9.99257436 -242.13263567 9.91827223 -240.703125 9.80859375 C-239.83357178 9.74945801 -238.96401855 9.69032227 -238.06811523 9.62939453 C-237.13813721 9.56606934 -236.20815918 9.50274414 -235.25 9.4375 C-219.75782335 8.57295482 -205.00635626 9.67095001 -192.6875 20.1875 C-179.76155409 32.7820114 -174.17501337 48.65314126 -173.87573242 66.55004883 C-173.85589449 70.8028222 -173.90392003 75.05430657 -173.96447754 79.30661011 C-175.02343965 112.91091481 -175.02343965 112.91091481 -162 143 C-152.87850886 155.98232031 -149.61272794 167.10582584 -151 183 C-152.37272279 188.88208158 -154.85866157 193.56285169 -159 198 C-158.401875 198.268125 -157.80375 198.53625 -157.1875 198.8125 C-151.22761893 202.04786401 -147.99934201 208.07993449 -145.75 214.265625 C-143.8763257 221.09672923 -143.71664267 227.61235603 -144.875 234.5625 C-145.66315878 241.47634857 -142.10935822 245.75052044 -138 251 C-137.50886719 251.66 -137.01773438 252.32 -136.51171875 253 C-132.69165435 257.82081367 -127.94158932 261.38714914 -123 265 C-122.030625 264.154375 -121.06125 263.30875 -120.0625 262.4375 C-118.70956575 261.29021176 -117.3553084 260.14448265 -116 259 C-115.32453125 258.4121875 -114.6490625 257.824375 -113.953125 257.21875 C-103.67021752 248.66217005 -91.29958039 244.51637889 -78 245 C-77.9175 243.80375 -77.835 242.6075 -77.75 241.375 C-77.21749148 237.07689552 -75.70682027 234.42333152 -73 231 C-72.47008957 230.60805954 -71.94017914 230.21611908 -71.39421082 229.81230164 C-69.18656118 226.94263014 -69.56085837 223.79301409 -69.56762695 220.31567383 C-69.5574353 219.5349501 -69.54724365 218.75422638 -69.53674316 217.94984436 C-69.50654471 215.36883431 -69.49733695 212.78819496 -69.48828125 210.20703125 C-69.47143961 208.41768656 -69.45329007 206.62835374 -69.43388367 204.83903503 C-69.3863215 200.12907622 -69.35655243 195.41916551 -69.33044434 190.70904541 C-69.30067011 185.9029388 -69.25412905 181.09699808 -69.20898438 176.29101562 C-69.12288058 166.86076374 -69.05556683 157.43047778 -69 148 C-69.81735123 147.80306046 -70.63470245 147.60612091 -71.4768219 147.4032135 C-72.55253952 147.1400383 -73.62825714 146.8768631 -74.73657227 146.60571289 C-75.80142349 146.34689835 -76.86627472 146.0880838 -77.96339417 145.82142639 C-81.87237253 144.76401619 -85.35429563 143.29965257 -88.9375 141.4375 C-89.60789307 141.09380371 -90.27828613 140.75010742 -90.96899414 140.39599609 C-112.41329641 129.00743921 -125.8428276 110.9000333 -132.90625 87.99609375 C-138.86076935 67.00500809 -135.30622239 44.40232471 -124.98828125 25.51171875 C-124.32780904 24.33985323 -123.66528799 23.16913824 -123 22 C-122.53980469 21.16082031 -122.07960938 20.32164063 -121.60546875 19.45703125 C-114.40762718 7.51861728 -103.16332897 -1.56599727 -91 -8 C-90.12085938 -8.47953125 -89.24171875 -8.9590625 -88.3359375 -9.453125 C-60.09481179 -23.61634816 -24.74601418 -18.92547282 0 0 Z M-40 18 C-40 19.98 -40 21.96 -40 24 C-38.02 24.99 -38.02 24.99 -36 26 C-35.67 33.59 -35.34 41.18 -35 49 C-25.1 49 -15.2 49 -5 49 C-9.98073663 35.71803565 -18.70173417 25.93731781 -31.69140625 19.8984375 C-34.43929455 18.82903935 -37.06012319 18.23209554 -40 18 Z M-87.92578125 30.71875 C-92.86470956 36.15064102 -96.28639274 42.21598184 -99 49 C-89.1 49 -79.2 49 -69 49 C-69 39.1 -69 29.2 -69 19 C-75.28818216 19 -83.56759441 26.6500657 -87.92578125 30.71875 Z M-99 83 C-92.96825526 96.57142567 -84.79084252 106.79125969 -71 113 C-70.34 113 -69.68 113 -69 113 C-69 103.1 -69 93.2 -69 83 C-78.9 83 -88.8 83 -99 83 Z M-35 83 C-35 92.9 -35 102.8 -35 113 C-21.74253657 108.58084552 -12.39707827 99.61876057 -5.99609375 87.28515625 C-4.86680486 85.10990435 -4.86680486 85.10990435 -5 83 C-14.9 83 -24.8 83 -35 83 Z " fill="#3F3E4E" transform="translate(432,33)"/>
<path d="M0 0 C3.43757695 1.47877747 5.60482138 3.44044357 8.25 6.0625 C20.45525699 17.22518717 36.76962123 24.39504794 53 27 C54.04026131 30.0562438 55.05367159 33.12075112 56.0625 36.1875 C56.50432617 37.48397461 56.50432617 37.48397461 56.95507812 38.80664062 C57.22900391 39.64775391 57.50292969 40.48886719 57.78515625 41.35546875 C58.04176025 42.12528076 58.29836426 42.89509277 58.56274414 43.68823242 C59.3266445 47.72696637 58.41435511 50.34424604 56.25 53.76953125 C55.13625 55.27580078 55.13625 55.27580078 54 56.8125 C21.09218767 102.71807137 10.28335285 161.92638564 10.66381836 217.33398438 C10.68749304 220.99892224 10.68433137 224.66312922 10.67773438 228.328125 C10.68331313 230.76042081 10.69042424 233.19271369 10.69921875 235.625 C10.69830734 236.66962402 10.69739594 237.71424805 10.69645691 238.79052734 C10.8104592 251.61178055 12.04683329 264.13224936 13 277 C-20 277 -53 277 -87 277 C-87.58342132 205.09332274 -87.58342132 205.09332274 -83.50830078 179.29492188 C-83.03014327 176.19539558 -82.63478055 173.09985036 -82.27734375 169.984375 C-75.31709518 110.21180557 -52.31567314 51.46994768 -9.625 8.5 C-8.71379395 7.58166382 -8.71379395 7.58166382 -7.78417969 6.64477539 C-7.20829102 6.07106201 -6.63240234 5.49734863 -6.0390625 4.90625 C-5.52553223 4.39384766 -5.01200195 3.88144531 -4.48291016 3.35351562 C-3 2 -3 2 0 0 Z " fill="#7087C9" transform="translate(147,219)"/>
<path d="M0 0 C4.14218164 1.8672433 8.35245134 1.19313856 12.73828125 0.390625 C25.71932918 -1.59324153 38.10613968 -0.58781447 48.95703125 7.25 C58.66448222 15.12444481 63.23893725 26.74457519 64.984375 38.89453125 C65.27350085 43.40543156 65.30837594 47.90656269 65.328125 52.42578125 C65.3427478 53.69748169 65.35737061 54.96918213 65.37243652 56.27941895 C65.42646021 60.99975626 65.4638719 65.72011317 65.50006104 70.44061279 C65.53655655 75.081649 65.58726128 79.72240203 65.640625 84.36328125 C65.64854065 86.17463562 65.64854065 86.17463562 65.65661621 88.02258301 C65.85047402 104.61576376 69.90675944 118.44755201 80.609375 131.33203125 C87.01118825 139.45140416 88.42958409 147.44615861 88.41796875 157.6328125 C87.75401747 162.62740096 85.83033093 166.59799759 81.984375 169.89453125 C75.93871904 168.13440356 70.74446041 165.1878647 65.26171875 162.171875 C64.54113281 161.78128906 63.82054687 161.39070312 63.078125 160.98828125 C62.43552734 160.63443359 61.79292969 160.28058594 61.13085938 159.91601562 C58.48672193 158.65770454 55.76563167 157.80305693 52.984375 156.89453125 C51.39964724 147.32864841 50.66064007 138.10015398 50.5703125 128.40234375 C50.54126328 126.4344136 50.54126328 126.4344136 50.5116272 124.42672729 C50.46101156 120.9910548 50.42101587 117.55534382 50.38348389 114.11950684 C50.34299305 110.59260097 50.29211018 107.06584524 50.2421875 103.5390625 C50.1462679 96.65766267 50.0616038 89.77616562 49.984375 82.89453125 C49.0555249 82.60030273 48.1266748 82.30607422 47.16967773 82.00292969 C32.39578192 76.86201706 21.05769306 64.13125147 14.109375 50.58203125 C11.7922836 45.64460494 10.06944999 41.08572863 9.484375 35.64453125 C9.36792523 31.87311474 9.36792523 31.87311474 6.984375 29.89453125 C-3.15226028 29.89453125 -12.72409106 35.59089183 -19.91796875 42.4453125 C-31.93210439 56.47299043 -34.7162568 72.24355291 -34.59204102 90.10546875 C-34.57814495 92.89053357 -34.612394 95.67224655 -34.65039062 98.45703125 C-34.70934428 112.04846016 -33.003286 122.29052185 -24.19140625 133.12890625 C-22.1805272 136.14856516 -22.37228869 138.42051518 -23.015625 141.89453125 C-25.55168165 147.57046757 -30.04062439 150.27512857 -35.03515625 153.78515625 C-49.70037554 164.16421053 -62.25686478 176.83421526 -72.80419922 191.34765625 C-77.90682468 198.34327129 -77.90682468 198.34327129 -81.015625 199.89453125 C-83.375 199.75 -83.375 199.75 -85.765625 199.08203125 C-86.56484375 198.86933594 -87.3640625 198.65664062 -88.1875 198.4375 C-88.79078125 198.25832031 -89.3940625 198.07914063 -90.015625 197.89453125 C-90.03625 196.86328125 -90.056875 195.83203125 -90.078125 194.76953125 C-91.2068142 190.10428254 -92.59686948 189.28657861 -96.23046875 186.49609375 C-101.15310606 182.0797233 -102.73733853 175.58182696 -103.21875 169.203125 C-103.56910658 147.74378471 -92.69503292 131.8947909 -79.625 115.984375 C-75.284032 110.49910421 -71.88917561 105.08575308 -69.078125 98.70703125 C-68.79557861 98.06596436 -68.51303223 97.42489746 -68.22192383 96.7644043 C-64.96540447 88.94016966 -63.79467276 81.31948171 -63.578125 72.89453125 C-62.5640893 48.33313807 -56.49601343 23.19984743 -37.82421875 5.859375 C-26.70364872 -3.24982236 -13.43288742 -7.14569011 0 0 Z " fill="#616173" transform="translate(182.015625,53.10546875)"/>
<path d="M0 0 C12.34252229 9.51260696 21.20287582 23.48082405 23.953125 38.9296875 C24.20628145 41.72928057 24.24070139 44.4951297 24.203125 47.3046875 C24.19188599 48.42375488 24.19188599 48.42375488 24.18041992 49.56542969 C23.84652461 66.73399076 17.2811371 81.1179838 5.640625 93.6796875 C-7.31036299 105.89980709 -22.93342997 110.23600117 -40.33203125 110.08203125 C-45.11469422 109.88589681 -49.44933952 109.23571975 -54.046875 107.9296875 C-54.90410156 107.69636719 -55.76132812 107.46304688 -56.64453125 107.22265625 C-72.63509055 102.18390447 -84.75363041 90.45710161 -92.43286133 75.81445312 C-100.22312284 59.81348422 -99.50387803 42.45369669 -94.046875 25.9296875 C-90.60762347 17.60858046 -85.35967172 11.26421501 -79.046875 4.9296875 C-78.43199219 4.29160156 -77.81710937 3.65351562 -77.18359375 2.99609375 C-55.74963162 -17.61171994 -23.35829541 -15.87166227 0 0 Z M-25.046875 0.9296875 C-25.046875 2.9096875 -25.046875 4.8896875 -25.046875 6.9296875 C-23.066875 7.9196875 -23.066875 7.9196875 -21.046875 8.9296875 C-20.716875 16.5196875 -20.386875 24.1096875 -20.046875 31.9296875 C-10.146875 31.9296875 -0.246875 31.9296875 9.953125 31.9296875 C4.97238837 18.64772315 -3.74860917 8.86700531 -16.73828125 2.828125 C-19.48616955 1.75872685 -22.10699819 1.16178304 -25.046875 0.9296875 Z M-72.97265625 13.6484375 C-77.91158456 19.08032852 -81.33326774 25.14566934 -84.046875 31.9296875 C-74.146875 31.9296875 -64.246875 31.9296875 -54.046875 31.9296875 C-54.046875 22.0296875 -54.046875 12.1296875 -54.046875 1.9296875 C-60.33505716 1.9296875 -68.61446941 9.5797532 -72.97265625 13.6484375 Z M-84.046875 65.9296875 C-78.01513026 79.50111317 -69.83771752 89.72094719 -56.046875 95.9296875 C-55.386875 95.9296875 -54.726875 95.9296875 -54.046875 95.9296875 C-54.046875 86.0296875 -54.046875 76.1296875 -54.046875 65.9296875 C-63.946875 65.9296875 -73.846875 65.9296875 -84.046875 65.9296875 Z M-20.046875 65.9296875 C-20.046875 75.8296875 -20.046875 85.7296875 -20.046875 95.9296875 C-6.78941157 91.51053302 2.55604673 82.54844807 8.95703125 70.21484375 C10.08632014 68.03959185 10.08632014 68.03959185 9.953125 65.9296875 C0.053125 65.9296875 -9.846875 65.9296875 -20.046875 65.9296875 Z " fill="#474454" transform="translate(417.046875,50.0703125)"/>
<path d="M0 0 C12.89764162 6.08708812 21.6617782 20.82076851 28.01953125 32.953125 C28.42042969 33.71238281 28.82132812 34.47164063 29.234375 35.25390625 C31.77151514 40.50140493 33.29000036 46.0605955 34.87475586 51.65039062 C37.1162599 59.49268421 39.72572125 67.20561557 42.34082031 74.92993164 C42.67307617 75.91340576 43.00533203 76.89687988 43.34765625 77.91015625 C43.64575195 78.78647705 43.94384766 79.66279785 44.25097656 80.56567383 C44.92795502 82.66865107 45.48370791 84.80983163 46.01953125 86.953125 C8.39953125 86.953125 -29.22046875 86.953125 -67.98046875 86.953125 C-69.92386733 68.16693875 -71.39591711 50.37109833 -71.16796875 31.640625 C-71.15284425 29.41211876 -71.13917002 27.1836022 -71.12695312 24.95507812 C-71.09467791 19.62085915 -71.04513684 14.28704497 -70.98046875 8.953125 C-67.54077892 10.26402901 -64.35497483 11.77137549 -61.13671875 13.5546875 C-46.89547472 21.79581275 -46.89547472 21.79581275 -30.98046875 21.953125 C-26.22204642 19.97044903 -22.56302557 17.1446558 -18.73046875 13.765625 C-17.59172748 12.78708314 -16.45239798 11.80922542 -15.3125 10.83203125 C-13.2243325 9.02989763 -11.13927917 7.22424378 -9.0546875 5.41796875 C-8.18457031 4.68707031 -7.31445312 3.95617187 -6.41796875 3.203125 C-5.65355469 2.54828125 -4.88914062 1.8934375 -4.1015625 1.21875 C-1.98046875 -0.046875 -1.98046875 -0.046875 0 0 Z " fill="#D8E6EF" transform="translate(237.98046875,409.046875)"/>
<path d="M0 0 C2.91415084 2.82584324 5.62748352 5.71316234 8.25 8.8125 C11.55137348 12.63514298 15.16202895 15.94384663 18.984375 19.23828125 C20.73248877 20.76618689 22.38231867 22.33624547 24 24 C23.7834375 24.50144531 23.566875 25.00289063 23.34375 25.51953125 C20.07654814 34.39845483 20.51455537 43.67386179 21 53 C22.05310277 54.27003323 22.05310277 54.27003323 24.4375 54.1875 C27.16734675 54.26839983 27.16734675 54.26839983 29 52 C29.20462317 49.71406683 29.31400733 47.41926263 29.375 45.125 C29.93415197 33.39266769 33.31408397 22.25176564 42.10546875 14.03125 C51.45594484 6.43499404 60.86621917 2.50474364 73 3 C73.5 5.625 73.5 5.625 73 9 C71.13938731 10.76758205 69.14571265 12.13410575 67.03125 13.5859375 C61.00459591 17.78141593 58.76968463 24.11586101 57 31 C56.44976203 36.4232833 56.45905371 41.81119331 56.50390625 47.25390625 C56.50375086 48.80606657 56.50225525 50.35822726 56.49949646 51.91038513 C56.49812059 55.14543044 56.51053415 58.38002802 56.53344727 61.61499023 C56.56185361 65.73584503 56.55907725 69.85595878 56.54635715 73.97686863 C56.53936212 77.17618504 56.54723219 80.37533384 56.55961418 83.57462883 C56.56408996 85.09308159 56.56449987 86.61155258 56.56054878 88.13000679 C56.53966937 103.20752116 59.8832482 113.73749013 68.1875 126.3125 C72.31088319 130.25262171 76.91674934 132.42775268 82 135 C82 142.26 82 149.52 82 157 C69.58711678 157 63.27883172 153.84999492 54 146 C52.7625 145.05640625 52.7625 145.05640625 51.5 144.09375 C48.89591039 141.91282495 46.92138378 139.65885534 44.8125 137 C41.68468252 133.08893992 38.50512289 129.2430827 35.25 125.4375 C29.30543384 118.31506315 23.94482649 110.79437577 18.58203125 103.22900391 C17.16634815 101.23437633 15.74147972 99.24682751 14.3125 97.26171875 C11.86586592 93.85006331 9.46109951 90.41067729 7.06640625 86.96240234 C5.45150105 84.64727242 3.82827787 82.33883717 2.19921875 80.03369141 C-0.4721869 76.25000565 -3.11931496 72.45011305 -5.75518799 68.64160156 C-6.83189963 67.09341526 -7.9158248 65.55022 -9.00701904 64.01220703 C-10.5531677 61.82979753 -12.07191075 59.63055101 -13.5859375 57.42578125 C-14.0612793 56.76697464 -14.53662109 56.10816803 -15.02636719 55.42939758 C-16.30615234 53.5324707 -16.30615234 53.5324707 -18 50 C-17.34057617 46.71728516 -17.34057617 46.71728516 -16 44 C-13.48035866 36.93549616 -11.83805336 30.73022346 -11.6875 23.1875 C-11.42918692 16.89757657 -10.34830619 14.05358398 -5.7890625 9.78515625 C-2.93695363 6.9392747 -1.63040562 3.65210859 0 0 Z " fill="#E6F0F5" transform="translate(281,286)"/>
<path d="M0 0 C1.58312988 0.0141394 1.58312988 0.0141394 3.19824219 0.02856445 C10.51246868 0.17052787 17.16945386 0.77837596 24.0625 3.375 C25.04863281 3.72691406 26.03476562 4.07882813 27.05078125 4.44140625 C46.5058266 11.93172231 59.21951293 25.25277447 68.3125 43.75 C76.43282913 62.20529347 75.89030297 80.68175821 69.0625 99.375 C64.75873434 110.09461054 58.36169414 118.43918865 50.0625 126.375 C48.91007812 127.48294922 48.91007812 127.48294922 47.734375 128.61328125 C42.80074207 132.93440533 37.43381817 135.91787676 31.5625 138.75 C30.87462402 139.08418945 30.18674805 139.41837891 29.47802734 139.76269531 C14.12694556 146.7888091 -6.89372396 147.18709257 -22.73144531 141.56933594 C-41.29512764 134.33197499 -56.19050425 121.3912002 -64.9375 103.375 C-72.34516386 85.65322582 -74.41712074 65.19650542 -67.5390625 46.90625 C-58.28000209 26.49115096 -44.19527222 11.71512318 -22.9375 3.375 C-15.24136589 0.70952077 -8.11576317 -0.11253824 0 0 Z M-42.9375 30.375 C-43.57171875 30.98859375 -44.2059375 31.6021875 -44.859375 32.234375 C-54.99319583 42.72691515 -59.87404589 57.38624341 -60.3125 71.75 C-59.7612825 89.38895987 -54.10628247 104.15533328 -41.76953125 116.87109375 C-25.81140659 130.98027707 -8.97075741 134.43723297 11.9140625 133.20703125 C27.42438579 131.21552448 40.19346905 121.43988743 50.14453125 109.9765625 C60.71662729 96.11076333 63.51013032 79.39550361 62.0625 62.375 C58.86117133 45.49027791 49.01227273 31.20937799 35.1328125 21.34765625 C9.75259414 5.04102741 -21.96958143 8.80368808 -42.9375 30.375 Z " fill="#FABE6A" transform="translate(378.9375,26.625)"/>
<path d="M0 0 C0.36351562 1.03898437 0.72703125 2.07796875 1.1015625 3.1484375 C8.59140456 24.12402613 20.32060692 38.05609811 40 49 C40.83130061 74.36426058 40.83130061 74.36426058 36 83 C35.443125 84.03125 34.88625 85.0625 34.3125 86.125 C27.78694849 94.23784782 20.78371402 101.77670731 10.1875 103.6875 C-0.14221926 102.90867196 -9.89075262 94.93669283 -17 88 C-25.65157173 77.77702034 -26.51356406 67.08626184 -26.44604492 54.22705078 C-26.43756553 51.76899518 -26.46630919 49.31329408 -26.49804688 46.85546875 C-26.56105178 32.92910007 -24.44734162 20.83122955 -15 10 C-5.05042017 0 -5.05042017 0 0 0 Z " fill="#FCD3CC" transform="translate(183,94)"/>
<path d="M0 0 C2.23479654 1.62816803 4.25531384 3.23661845 6.3125 5.0625 C6.88500488 5.56128662 7.45750977 6.06007324 8.04736328 6.57397461 C12.55707675 10.53572544 17.00211465 14.51329024 21 19 C21.67289062 19.74507813 22.34578125 20.49015625 23.0390625 21.2578125 C27.63558193 26.95310151 28.9271479 31.38556738 28.48828125 38.69140625 C27.03829224 48.51653181 23.81160167 57.63154773 15.671875 63.75 C6.65638581 69.50221396 -1.46873086 70.2959058 -11.9375 70.1953125 C-13.05817871 70.1924826 -14.17885742 70.18965271 -15.33349609 70.18673706 C-18.88910911 70.17560251 -22.44446398 70.15051014 -26 70.125 C-28.42056926 70.11496152 -30.8411425 70.10583719 -33.26171875 70.09765625 C-39.17456624 70.07568521 -45.08726467 70.04227491 -51 70 C-49.08232768 58.41087842 -49.08232768 58.41087842 -46.93359375 53.2734375 C-46.535354 52.31308594 -46.13711426 51.35273438 -45.72680664 50.36328125 C-45.30133545 49.37714844 -44.87586426 48.39101563 -44.4375 47.375 C-43.99204834 46.32957031 -43.54659668 45.28414063 -43.08764648 44.20703125 C-37.74281606 31.84728862 -31.7175312 20.23374308 -24.1875 9.0625 C-23.73125244 8.38123047 -23.27500488 7.69996094 -22.80493164 6.99804688 C-18.67222869 1.06828471 -18.67222869 1.06828471 -15 0 C-12.9296875 -0.16015625 -12.9296875 -0.16015625 -10.875 -0.0625 C-6.46777472 0.00858428 -4.31689149 -1.36995851 0 0 Z " fill="#EFF7FA" transform="translate(232,273)"/>
<path d="M0 0 C18.81 0 37.62 0 57 0 C57 5.43457691 56.93586752 9.48950454 56.20117188 14.61083984 C55.93745818 17.74276003 56.04934225 20.81565976 56.140625 23.95703125 C56.59066487 45.89786381 56.59066487 45.89786381 52.5 51.05859375 C49.90295812 53.49227922 46.99492087 55.26012459 43.86669922 56.93457031 C40.58482959 58.80771693 37.74727818 61.25888705 34.8125 63.625 C29.58700066 67.67300795 26.84063149 69.45495362 20 69 C16.74267578 67.73071289 16.74267578 67.73071289 13.4453125 65.97265625 C12.85829559 65.66428329 12.27127869 65.35591034 11.66647339 65.03819275 C9.81189706 64.0595801 7.96875558 63.06132154 6.125 62.0625 C4.86525926 61.39520677 3.60484762 60.72917847 2.34375 60.06445312 C-6.76063475 55.23936525 -6.76063475 55.23936525 -8 54 C-8.35281952 46.36626865 -7.35117632 39.04387955 -6.25 31.5 C-6.09273437 30.34757812 -5.93546875 29.19515625 -5.7734375 28.0078125 C-4.39946763 18.43229937 -2.23925354 9.51682756 0 0 Z " fill="#E2EEF4" transform="translate(177,353)"/>
<path d="M0 0 C2.81256281 -0.02684312 5.62487241 -0.04676188 8.4375 -0.0625 C9.64116211 -0.07506836 9.64116211 -0.07506836 10.86914062 -0.08789062 C12.91295221 -0.0965143 14.95683902 -0.0522815 17 0 C18 1 18 1 18.0625 4.5625 C18.041875 5.696875 18.02125 6.83125 18 8 C17.0409375 8.433125 17.0409375 8.433125 16.0625 8.875 C13.84793921 9.82823451 13.84793921 9.82823451 13 12 C12.75481544 16.64119958 12.81479479 21.29055844 12.8125 25.9375 C12.79413086 27.88946289 12.79413086 27.88946289 12.77539062 29.88085938 C12.77345703 31.12544922 12.77152344 32.37003906 12.76953125 33.65234375 C12.76542236 34.79695068 12.76131348 35.94155762 12.75708008 37.12084961 C12.78339853 40.19811276 12.78339853 40.19811276 15 43 C16.88814506 43.47359029 16.88814506 43.47359029 19.08251953 43.43237305 C20.34360031 43.46206429 20.34360031 43.46206429 21.63015747 43.49235535 C22.99272171 43.50194023 22.99272171 43.50194023 24.3828125 43.51171875 C25.77691849 43.53864555 25.77691849 43.53864555 27.19918823 43.56611633 C30.17441233 43.62039848 33.14947443 43.6541722 36.125 43.6875 C38.13934556 43.72065729 40.15366968 43.75514544 42.16796875 43.79101562 C47.11186256 43.87613515 52.05570682 43.94286061 57 44 C57 47.96 57 51.92 57 56 C55.77369873 56.01458252 54.54739746 56.02916504 53.28393555 56.04418945 C48.73822734 56.10212083 44.19301719 56.17935381 39.64770508 56.26245117 C37.67968829 56.29572486 35.71157551 56.32374915 33.7434082 56.34643555 C30.91576188 56.37993678 28.08899718 56.43224963 25.26171875 56.48828125 C24.38037766 56.49467117 23.49903656 56.5010611 22.59098816 56.50764465 C21.3600518 56.53733589 21.3600518 56.53733589 20.10424805 56.56762695 C19.02169991 56.58428154 19.02169991 56.58428154 17.9172821 56.60127258 C15.40069161 57.12463512 14.51601903 57.94314905 13 60 C12.53252587 61.90699025 12.53252587 61.90699025 12.56762695 64.01245117 C12.54783279 64.81305466 12.52803864 65.61365814 12.50764465 66.43852234 C12.49805977 67.72772331 12.49805977 67.72772331 12.48828125 69.04296875 C12.47033005 69.9265657 12.45237885 70.81016266 12.43388367 71.72053528 C12.37970004 74.5428083 12.34585939 77.36491144 12.3125 80.1875 C12.27933401 82.10093514 12.24484502 84.01434784 12.20898438 85.92773438 C12.12396901 90.61836715 12.05719638 95.30894884 12 100 C8.04 100 4.08 100 0 100 C-0.01458252 98.76846191 -0.02916504 97.53692383 -0.04418945 96.26806641 C-0.10205652 91.70933642 -0.17928932 87.15110643 -0.26245117 82.59277344 C-0.29575528 80.61792094 -0.32376997 78.642972 -0.34643555 76.66796875 C-0.37988122 73.83291423 -0.43219046 70.998748 -0.48828125 68.1640625 C-0.49467117 67.27756012 -0.5010611 66.39105774 -0.50764465 65.47769165 C-0.52743881 64.65699188 -0.54723297 63.83629211 -0.56762695 62.99072266 C-0.58428154 61.9048436 -0.58428154 61.9048436 -0.60127258 60.79702759 C-0.87490507 58.58351797 -0.87490507 58.58351797 -4 57 C-5.91448052 56.67539843 -5.91448052 56.67539843 -8.01245117 56.68115234 C-8.81305466 56.66128265 -9.61365814 56.64141296 -10.43852234 56.62094116 C-11.29798965 56.60938995 -12.15745697 56.59783875 -13.04296875 56.5859375 C-14.36836418 56.55688828 -14.36836418 56.55688828 -15.72053528 56.5272522 C-18.54275866 56.46747195 -21.36502286 56.42107734 -24.1875 56.375 C-26.10092925 56.33681878 -28.01434133 56.29776696 -29.92773438 56.2578125 C-34.61835021 56.16177168 -39.30904652 56.0777349 -44 56 C-44 52.04 -44 48.08 -44 44 C-42.15269287 43.970271 -42.15269287 43.970271 -40.26806641 43.93994141 C-35.70942339 43.86400818 -31.15110473 43.77527237 -26.59277344 43.68261719 C-24.61790356 43.64427651 -22.64296264 43.6094327 -20.66796875 43.578125 C-17.83307455 43.53258453 -14.9986717 43.47457285 -12.1640625 43.4140625 C-11.27756012 43.40251129 -10.39105774 43.39096008 -9.47769165 43.37905884 C-8.65699188 43.35918915 -7.83629211 43.33931946 -6.99072266 43.31884766 C-6.26680328 43.30552399 -5.54288391 43.29220032 -4.79702759 43.2784729 C-2.74846505 43.14212079 -2.74846505 43.14212079 -1 41 C-0.67110612 39.14463576 -0.67110612 39.14463576 -0.68115234 37.00927734 C-0.66128265 36.18857758 -0.64141296 35.36787781 -0.62094116 34.52230835 C-0.60361435 33.19255478 -0.60361435 33.19255478 -0.5859375 31.8359375 C-0.56657135 30.92872955 -0.5472052 30.02152161 -0.5272522 29.08682251 C-0.46736784 26.18297796 -0.42103584 23.27909396 -0.375 20.375 C-0.33682835 18.40883667 -0.29777711 16.4426902 -0.2578125 14.4765625 C-0.16165909 9.6511783 -0.077661 4.82571582 0 0 Z " fill="#F68940" transform="translate(374,49)"/>
<path d="M0 0 C3.96 0 7.92 0 12 0 C12 56.1 12 112.2 12 170 C8.04 170 4.08 170 0 170 C0 113.9 0 57.8 0 0 Z " fill="#FEB557" transform="translate(374,326)"/>
<path d="M0 0 C16.7978152 1.61517454 35.91661686 13.80030489 47 26 C52.84774071 34.48185815 52.59989536 41.87646106 50.875 51.75 C49.51014458 59.08609787 47.16560493 65.72989675 43 72 C42.01 72.66 41.02 73.32 40 74 C39.32195312 73.16597656 38.64390625 72.33195312 37.9453125 71.47265625 C27.80357643 59.04714398 27.80357643 59.04714398 14.875 49.8125 C13.18359375 48.6640625 13.18359375 48.6640625 12 47 C11.74575586 43.62548693 11.95426977 40.36305628 12.12890625 36.984375 C11.97933718 32.36133116 10.97938038 28.73823438 9.375 24.4375 C9.139021 23.77129639 8.90304199 23.10509277 8.65991211 22.41870117 C7.25783592 18.87867232 5.82669325 16.65444918 2.8125 14.4296875 C0 12 0 12 -0.5859375 8.88671875 C-0.51632813 7.83097656 -0.44671875 6.77523437 -0.375 5.6875 C-0.32085937 4.61886719 -0.26671875 3.55023438 -0.2109375 2.44921875 C-0.14132813 1.64097656 -0.07171875 0.83273438 0 0 Z " fill="#748BCC" transform="translate(225,218)"/>
<path d="M0 0 C4.22521012 1.65458341 8.26719532 3.57526787 12.3125 5.625 C12.95767578 5.94984375 13.60285156 6.2746875 14.26757812 6.609375 C15.84597541 7.40441956 17.42311694 8.20195634 19 9 C18.97679687 9.82757813 18.95359375 10.65515625 18.9296875 11.5078125 C18.61366476 32.4104597 21.9002485 52.5530678 26 73 C26.33 74.65 26.66 76.3 27 78 C19.08 78 11.16 78 3 78 C-0.41743244 51.94207761 -0.31812395 26.23933465 0 0 Z " fill="#AFC7DB" transform="translate(167,418)"/>
<path d="M0 0 C18.81 0 37.62 0 57 0 C57 2.97 57 5.94 57 9 C56.505 8.01 56.505 8.01 56 7 C55.01386719 7.3403125 54.02773437 7.680625 53.01171875 8.03125 C43.23828241 11.36458979 33.39870798 14.43425582 23.5 17.375 C21.70115356 17.91157227 21.70115356 17.91157227 19.8659668 18.45898438 C18.74488525 18.78962891 17.62380371 19.12027344 16.46875 19.4609375 C15.46263672 19.75790527 14.45652344 20.05487305 13.41992188 20.36083984 C11 21 11 21 9 21 C8.67 34.53 8.34 48.06 8 62 C3.89141096 60.63047032 0.39584778 59.4248387 -3.375 57.4375 C-4.24898437 57.00308594 -5.12296875 56.56867188 -6.0234375 56.12109375 C-8 54 -8 54 -8.3984375 50.12890625 C-8.06497794 43.88129422 -7.15298112 37.68609451 -6.25 31.5 C-6.09273437 30.34757812 -5.93546875 29.19515625 -5.7734375 28.0078125 C-4.39946763 18.43229937 -2.23925354 9.51682756 0 0 Z " fill="#AFC7DB" transform="translate(177,353)"/>
<path d="M0 0 C1.27746094 0.00128906 2.55492187 0.00257813 3.87109375 0.00390625 C7.84313266 0.4704632 10.22830463 1.24508664 13.5625 3.4375 C16.54942599 7.4038114 16.94700507 10.3674898 16.9609375 15.27734375 C16.96673828 17.2428418 16.96673828 17.2428418 16.97265625 19.24804688 C16.96637207 19.92601318 16.96008789 20.60397949 16.95361328 21.30249023 C16.93757194 23.36574735 16.95347288 25.42703827 16.97265625 27.49023438 C16.96878906 28.80185547 16.96492188 30.11347656 16.9609375 31.46484375 C16.95755371 32.65843506 16.95416992 33.85202637 16.95068359 35.08178711 C16.40915318 39.76313023 15.01516797 43.19536362 11.40625 46.28125 C7.55699888 47.84633012 4.18163099 47.95172843 0.0625 47.9375 C-1.05705078 47.98003906 -1.05705078 47.98003906 -2.19921875 48.0234375 C-6.34635008 48.03811761 -7.9756193 47.80005152 -11.34375 45.15625 C-16.13636952 38.93299779 -15.77858188 33.73395942 -15.75317383 26.02026367 C-15.75001524 24.0097016 -15.77348616 22.0006146 -15.79882812 19.99023438 C-15.79947266 18.71599609 -15.80011719 17.44175781 -15.80078125 16.12890625 C-15.80376221 14.96560791 -15.80674316 13.80230957 -15.80981445 12.60375977 C-15.26629074 7.98149152 -13.40696945 5.43423045 -10.21484375 2.15234375 C-6.62108234 -0.0665891 -4.19954844 -0.06343729 0 0 Z " fill="#FBC8C0" transform="translate(379.4375,267.5625)"/>
<path d="M0 0 C0.66 0 1.32 0 2 0 C2.15855469 0.59167969 2.31710937 1.18335938 2.48046875 1.79296875 C2.71378906 2.58316406 2.94710938 3.37335938 3.1875 4.1875 C3.40792969 4.96480469 3.62835938 5.74210937 3.85546875 6.54296875 C4.88461307 9.20944557 4.88461307 9.20944557 7.53605652 11.10746765 C10.88897448 15.04360651 10.6781794 17.73008053 10.56762695 22.73754883 C10.56872215 24.0407457 10.56872215 24.0407457 10.56983948 25.37026978 C10.56636453 28.23316551 10.52750834 31.09442085 10.48828125 33.95703125 C10.47895278 35.94527803 10.47183683 37.93353632 10.46684265 39.92179871 C10.44777559 45.14830399 10.39867691 50.37411165 10.34332275 55.6003418 C10.29212422 60.93593916 10.26932729 66.27164953 10.24414062 71.60742188 C10.19055821 82.07192065 10.1052486 92.53590226 10 103 C2.5599397 98.76450657 -1.93555731 92.44282468 -4.53874207 84.31866455 C-5.16295261 81.18086516 -5.15207977 78.17125478 -5.17700195 74.97167969 C-5.18357315 74.27193527 -5.19014435 73.57219086 -5.19691467 72.85124207 C-5.21658255 70.54145182 -5.22829618 68.23172643 -5.23828125 65.921875 C-5.24439454 64.73428967 -5.24439454 64.73428967 -5.25063133 63.52271271 C-5.27146516 59.33138798 -5.285778 55.14009572 -5.29516602 50.94873047 C-5.30621995 46.63353932 -5.34061544 42.3188653 -5.38033772 38.00385666 C-5.4065606 34.67341189 -5.41486289 31.34308927 -5.41844749 28.01255035 C-5.42329946 26.42262533 -5.43487363 24.83270526 -5.45348549 23.24288177 C-5.62229389 7.86664788 -5.62229389 7.86664788 -1 1 C-0.67 0.67 -0.34 0.34 0 0 Z " fill="#90A2BD" transform="translate(353,307)"/>
<path d="M0 0 C3.8382853 1.46591339 7.46584392 3.19623869 11.125 5.0625 C18.24402308 8.69302424 24.18281632 10.24029044 32 8 C32.99 7.67 33.98 7.34 35 7 C35.70125 7.9075 36.4025 8.815 37.125 9.75 C39.18932791 12.32301616 40.18428686 13.08692776 43.3125 14.5625 C46 17 46 17 46.37890625 20.13671875 C46.37533022 23.44454419 46.25729521 26.7028095 46 30 C45.30132812 30.32613281 44.60265625 30.65226562 43.8828125 30.98828125 C42.97273438 31.42527344 42.06265625 31.86226562 41.125 32.3125 C40.22007812 32.74175781 39.31515625 33.17101562 38.3828125 33.61328125 C35.73550524 34.9199388 35.73550524 34.9199388 34 38 C20.18168204 39.3818318 5.31501064 30.08361276 -5.05078125 21.671875 C-7.53024065 19.54520441 -9.83244964 17.44723428 -12 15 C-12 14.34 -12 13.68 -12 13 C-7.52941176 9 -7.52941176 9 -5 9 C-4.731875 8.443125 -4.46375 7.88625 -4.1875 7.3125 C-2.89877353 4.80287477 -1.47073522 2.40665764 0 0 Z " fill="#FBC1B7" transform="translate(169,198)"/>
<path d="M0 0 C4.29 0 8.58 0 13 0 C13 25.08 13 50.16 13 76 C8.71 76 4.42 76 0 76 C0 50.92 0 25.84 0 0 Z " fill="#FECE80" transform="translate(374,182)"/>
<path d="M0 0 C5.83032491 5.5234657 5.83032491 5.5234657 7 9 C6.2421875 10.98046875 6.2421875 10.98046875 4.875 13.1875 C0.96995365 20.33608213 -0.36575708 28.09314821 -2 36 C-2.26913208 37.13864502 -2.26913208 37.13864502 -2.54370117 38.30029297 C-3.09951536 41.58878587 -3.11184904 44.71547515 -3.09765625 48.05078125 C-3.09553383 49.03899117 -3.09553383 49.03899117 -3.09336853 50.04716492 C-3.087805 52.13565762 -3.07525947 54.22404011 -3.0625 56.3125 C-3.05748028 57.73502449 -3.0529182 59.15755066 -3.04882812 60.58007812 C-3.03784757 64.05342077 -3.02060835 67.52669961 -3 71 C-6.40772194 66.7629652 -9.69681532 62.47345992 -12.875 58.0625 C-13.66003906 57.02706055 -13.66003906 57.02706055 -14.4609375 55.97070312 C-15.85690548 54.012264 -17.05314976 52.21141055 -18 50 C-17.44921875 46.8671875 -17.44921875 46.8671875 -16 44 C-13.48035866 36.93549616 -11.83805336 30.73022346 -11.6875 23.1875 C-11.42918692 16.89757657 -10.34830619 14.05358398 -5.7890625 9.78515625 C-2.93695363 6.9392747 -1.63040562 3.65210859 0 0 Z " fill="#ADC6DA" transform="translate(281,286)"/>
<path d="M0 0 C0.495 0.99 0.495 0.99 1 2 C0.2590332 4.16381836 0.2590332 4.16381836 -0.94921875 6.83984375 C-1.38556641 7.82146484 -1.82191406 8.80308594 -2.27148438 9.81445312 C-2.73876953 10.84505859 -3.20605469 11.87566406 -3.6875 12.9375 C-8.96995709 24.68051612 -13.23730739 36.32346383 -16.625 48.75 C-17.22127072 50.91148136 -17.81762265 53.07294031 -18.4140625 55.234375 C-18.6713916 56.17506836 -18.9287207 57.11576172 -19.19384766 58.08496094 C-20.10938285 61.39552733 -21.05637973 64.69732907 -22 68 C-8.8 68 4.4 68 18 68 C18 68.33 18 68.66 18 69 C1.17 69 -15.66 69 -33 69 C-30.74720531 56.60962922 -30.74720531 56.60962922 -28.93359375 52.2734375 C-28.535354 51.31308594 -28.13711426 50.35273438 -27.72680664 49.36328125 C-27.30133545 48.37714844 -26.87586426 47.39101563 -26.4375 46.375 C-25.99204834 45.32957031 -25.54659668 44.28414063 -25.08764648 43.20703125 C-11.2820512 11.2820512 -11.2820512 11.2820512 0 0 Z " fill="#AFC6D8" transform="translate(214,274)"/>
<path d="M0 0 C4.29 0 8.58 0 13 0 C13 25.08 13 50.16 13 76 C8.71 76 4.42 76 0 76 C0 75.67 0 75.34 0 75 C3.96 75 7.92 75 12 75 C12 59.49 12 43.98 12 28 C10.02 27.34 8.04 26.68 6 26 C4.02 25.01 2.04 24.02 0 23 C0 15.41 0 7.82 0 0 Z " fill="#E08546" transform="translate(374,182)"/>
<path d="M0 0 C3.8382853 1.46591339 7.46584392 3.19623869 11.125 5.0625 C18.24402308 8.69302424 24.18281632 10.24029044 32 8 C32.99 7.67 33.98 7.34 35 7 C37 9 37 9 37 12 C21.17611552 18.73356787 8.95037153 17.8001351 -7 12 C-7 11.01 -7 10.02 -7 9 C-6.34 9 -5.68 9 -5 9 C-4.5978125 8.1646875 -4.5978125 8.1646875 -4.1875 7.3125 C-2.89877353 4.80287477 -1.47073522 2.40665764 0 0 Z " fill="#E48582" transform="translate(169,198)"/>
<path d="M0 0 C3.53528009 2.90495884 4.87686797 5.61649326 6.25 9.9375 C6.75273437 11.46697266 6.75273437 11.46697266 7.265625 13.02734375 C7.96625641 15.86341025 8.26511452 18.09874676 8 21 C6.4375 23.3125 6.4375 23.3125 4 25 C-2.00589005 25.73756545 -2.00589005 25.73756545 -4.57421875 23.83203125 C-8.18381839 19.19394294 -10.55515276 11.82968952 -10 5.9375 C-9 3 -9 3 -7.25 1.0625 C-4.50508782 -0.23370853 -2.99925788 -0.52487013 0 0 Z " fill="#F8F8F9" transform="translate(220,238)"/>
<path d="M0 0 C3.96 0 7.92 0 12 0 C12 7.59 12 15.18 12 23 C6 21 6 21 0 18 C0 12.06 0 6.12 0 0 Z " fill="#F78A40" transform="translate(374,326)"/>
<path d="M0 0 C8.03571429 0.53571429 8.03571429 0.53571429 10.75 3.25 C10.9375 5.6875 10.9375 5.6875 10.75 8.25 C8.75 10.25 8.75 10.25 6 10.296875 C4.9275 10.19890625 3.855 10.1009375 2.75 10 C1.6775 9.91234375 0.605 9.8246875 -0.5 9.734375 C-3.25 9.25 -3.25 9.25 -5.25 7.25 C-5.5 4.75 -5.5 4.75 -5.25 2.25 C-3.25 0.25 -3.25 0.25 0 0 Z " fill="#E88885" transform="translate(174.25,143.75)"/>
<path d="M0 0 C0.6875 2.3125 0.6875 2.3125 1 5 C-0.66740442 7.36645369 -1.7601789 7.94293414 -4.59375 8.6171875 C-5.5528125 8.70226562 -6.511875 8.78734375 -7.5 8.875 C-8.93859375 9.02582031 -8.93859375 9.02582031 -10.40625 9.1796875 C-13 9 -13 9 -14.86328125 7.67578125 C-16 6 -16 6 -15.6875 3.3125 C-15.460625 2.549375 -15.23375 1.78625 -15 1 C-9.69276568 -0.42705634 -5.46108889 -1.4002792 0 0 Z " fill="#E88885" transform="translate(213,145)"/>
</svg>
