<?xml version="1.0" encoding="UTF-8"?>
<svg version="1.1" xmlns="http://www.w3.org/2000/svg" width="512" height="512">
<path d="M0 0 C1.02609375 -0.03738281 2.0521875 -0.07476563 3.109375 -0.11328125 C7.25476745 0.44871847 9.07552391 1.56576045 12.25 4.3125 C14.35133266 7.26243354 16.06847992 10.39182505 17.8125 13.5625 C27.91435189 31.08612062 41.41752473 47.82806434 58.25 59.3125 C62.0757901 57.73865784 64.44508519 55.32853168 67.31884766 52.39135742 C68.05640793 51.64218803 68.05640793 51.64218803 68.80886841 50.87788391 C69.87387673 49.7952555 70.93666013 48.71043484 71.9974556 47.62367821 C73.6833352 45.89824386 75.37674521 44.18054669 77.07260132 42.46492004 C81.89281364 37.58681573 86.70343262 32.69942483 91.49853516 27.79663086 C94.43594775 24.7943451 97.38578606 21.80473782 100.3435173 18.82247353 C101.46206567 17.68976831 102.57594025 16.55242604 103.68477249 15.41020775 C110.85021741 8.03219204 117.63629945 1.43682909 128.15625 -0.3515625 C138.79981072 -0.23587162 145.73089914 1.66842245 153.4375 9.125 C154.72669101 10.50389615 155.99835359 11.89943619 157.25 13.3125 C157.78753906 13.91835937 158.32507813 14.52421875 158.87890625 15.1484375 C159.99522805 16.4234653 161.10557593 17.70374007 162.2109375 18.98828125 C164.79753345 21.93660422 167.45836714 24.81164606 170.125 27.6875 C174.44767547 32.35173835 178.72816805 37.04944337 182.97265625 41.78515625 C185.54809775 44.64332203 188.14685764 47.47960261 190.75 50.3125 C194.84169207 54.76582617 198.89822977 59.24909888 202.9375 63.75 C205.52615003 66.61850409 208.13585146 69.4672665 210.75 72.3125 C214.84166107 76.76585487 218.89822946 81.24909854 222.9375 85.75 C225.52615003 88.61850409 228.13585146 91.4672665 230.75 94.3125 C234.84166107 98.76585487 238.89822946 103.24909854 242.9375 107.75 C245.52615003 110.61850409 248.13585146 113.4672665 250.75 116.3125 C254.84166107 120.76585487 258.89822946 125.24909854 262.9375 129.75 C265.52615003 132.61850409 268.13585146 135.4672665 270.75 138.3125 C274.84166107 142.76585487 278.89822946 147.24909854 282.9375 151.75 C285.52615003 154.61850409 288.13585146 157.4672665 290.75 160.3125 C294.841082 164.76522461 298.89888119 169.24613482 302.93359375 173.75 C304.60185115 175.59549217 306.27927108 177.42790569 307.97265625 179.25 C328.20852482 201.03844814 328.20852482 201.03844814 327.76660156 215.39697266 C327.21805211 219.55464571 326.12802949 222.26959662 324.1953125 225.97265625 C323.88261414 226.57445709 323.56991577 227.17625793 323.2477417 227.79629517 C319.93291643 234.08651533 316.24612626 240.14673799 312.5 246.1875 C310.99161396 248.64128529 309.48790531 251.09792467 307.984375 253.5546875 C307.59765625 254.18558289 307.2109375 254.81647827 306.8125 255.4664917 C302.38350812 262.70409584 298.06813455 270.00843073 293.75 277.3125 C287.47096447 287.9246363 281.12706284 298.49351221 274.70800781 309.02148438 C268.98547907 318.41092817 263.35077535 327.84998474 257.75 337.3125 C251.10162411 348.54368472 244.38299752 359.72847422 237.59375 370.875 C232.44339111 379.33290818 227.33726738 387.8165094 222.25 396.3125 C216.47342233 405.95967321 210.66176035 415.58423674 204.8125 425.1875 C199.13136034 434.51569295 193.51846486 443.88201057 187.95370483 453.28009033 C184.7852271 458.62994405 181.609834 463.97569815 178.43334961 469.32080078 C177.64148328 470.65359333 176.84998202 471.98660285 176.05883789 473.31982422 C173.74598552 477.21650346 171.4247559 481.10794981 169.09106445 484.9921875 C168.37642839 486.18447358 167.66456799 487.37842877 166.95581055 488.57421875 C160.80397667 498.94644505 155.15826835 508.34307722 143.25 512.3125 C133.16503502 513.04225429 125.8855685 512.91660006 117.90234375 506.39453125 C112.55867435 501.72811207 107.59236048 496.68551092 102.609375 491.640625 C100.58885937 489.64687117 98.53504812 487.77621865 96.375 485.9375 C92.81713773 482.89819255 89.53558309 479.6388598 86.25 476.3125 C83.00548422 473.02781689 79.77077616 469.80515974 76.25 466.8125 C72.1604638 463.33639423 68.4403946 459.53000344 64.671875 455.71484375 C61.94691999 452.96924514 59.19976527 450.31980048 56.25 447.8125 C52.1604638 444.33639423 48.4403946 440.53000344 44.671875 436.71484375 C41.94691999 433.96924514 39.19976527 431.31980048 36.25 428.8125 C32.1604638 425.33639423 28.4403946 421.53000344 24.671875 417.71484375 C21.94691999 414.96924514 19.19976527 412.31980048 16.25 409.8125 C12.16440666 406.33974566 8.44758657 402.5374751 4.68286133 398.72583008 C1.85207388 395.87347815 -1.01365664 393.1225973 -4.0625 390.5 C-4.68769531 389.95859375 -5.31289062 389.4171875 -5.95703125 388.859375 C-7.13608741 387.84215008 -8.32086115 386.83150835 -9.51171875 385.828125 C-22.56957713 373.9733502 -25.56962962 357.38460273 -28.38549805 340.79516602 C-28.63182667 339.36781243 -28.87858398 337.94053278 -29.12573242 336.51332092 C-29.79017159 332.66658193 -30.44743114 328.81865242 -31.10240912 324.97029233 C-31.51367468 322.554919 -31.92623727 320.13977056 -32.3391819 317.72468376 C-33.63635381 310.1361686 -34.92915825 302.54692919 -36.21552628 294.95657498 C-37.69029082 286.25471022 -39.1793429 277.55545453 -40.68106622 268.85820252 C-41.84788016 262.09537767 -43.00174774 255.33042031 -44.14618713 248.56377357 C-44.82682284 244.54106461 -45.51251046 240.51939227 -46.21179771 236.49987984 C-55.07734597 185.45501875 -55.07734597 185.45501875 -41.75 163.3125 C-37.88399455 157.87735116 -33.61530325 152.8737218 -28.75 148.3125 C-37.45721254 128.64064945 -60.37091026 114.33905197 -78.375 104.0625 C-83.19862489 101.17314067 -86.79576653 98.68639691 -88.40625 92.9921875 C-89.23335436 87.79097354 -88.92234542 83.66910202 -86.2109375 79.1015625 C-83.34076138 75.58674789 -79.63360253 73.57176196 -75.75 71.3125 C-64.37748044 64.62898724 -54.43311765 57.27901319 -44.75 48.3125 C-43.93144531 47.57644531 -43.11289063 46.84039062 -42.26953125 46.08203125 C-31.62073211 36.05392715 -23.01944653 23.66169554 -16.08422852 10.84570312 C-12.23072745 3.8623394 -8.15270177 0.19266335 0 0 Z " fill="#AD5FC4" transform="translate(117.75,-0.3125)"/>
<path d="M0 0 C1.02609375 -0.03738281 2.0521875 -0.07476563 3.109375 -0.11328125 C7.25476745 0.44871847 9.07552391 1.56576045 12.25 4.3125 C14.35133266 7.26243354 16.06847992 10.39182505 17.8125 13.5625 C28.27169684 31.70600472 42.19842946 48.03536921 59.25 60.3125 C59.25 60.9725 59.25 61.6325 59.25 62.3125 C59.93320313 62.55355469 60.61640625 62.79460938 61.3203125 63.04296875 C64.82831963 64.56310517 67.9409032 66.53287549 71.125 68.625 C71.74415283 69.02944336 72.36330566 69.43388672 73.0012207 69.85058594 C74.2152655 70.64662848 75.42765642 71.44520044 76.63818359 72.24658203 C77.95779294 73.11925916 79.2845543 73.98111278 80.61328125 74.83984375 C84.20102736 77.24447872 86.70830664 79.23154698 88.25 83.3125 C88.90210655 88.17069378 88.80839565 92.05004026 86.8125 96.5625 C83.36108451 100.26645809 79.5483294 102.67488878 75.25 105.3125 C66.41240433 110.81515391 58.14177529 116.47455813 50.25 123.3125 C49.43144531 123.99699219 48.61289063 124.68148437 47.76953125 125.38671875 C34.15266422 137.0985233 23.86577277 151.52887085 14.9375 167 C12.42084221 171.291864 9.74374175 174.06562913 5.25 176.3125 C2.859375 176.55078125 2.859375 176.55078125 0 176.625 C-0.93328125 176.66238281 -1.8665625 176.69976562 -2.828125 176.73828125 C-6.73440953 176.16904995 -8.71828771 174.82660288 -11.75 172.3125 C-13.8046875 169.24609375 -13.8046875 169.24609375 -15.625 165.75 C-20.85235453 156.0882679 -27.14158657 147.71946947 -34.6015625 139.6484375 C-36.52370956 137.55853943 -38.35923772 135.42159792 -40.1875 133.25 C-50.6507872 121.329497 -63.85597372 112.13602167 -77.68823242 104.53125 C-82.71862301 101.66814631 -86.68364639 98.44767788 -88.59765625 92.8203125 C-89.14733918 86.72382904 -88.71458902 82.16753147 -84.75 77.3125 C-81.97673531 74.91913458 -78.91053174 73.15111996 -75.75 71.3125 C-64.37748044 64.62898724 -54.43311765 57.27901319 -44.75 48.3125 C-43.93144531 47.57644531 -43.11289063 46.84039062 -42.26953125 46.08203125 C-31.62073211 36.05392715 -23.01944653 23.66169554 -16.08422852 10.84570312 C-12.23072745 3.8623394 -8.15270177 0.19266335 0 0 Z " fill="#FEDB0A" transform="translate(117.75,-0.3125)"/>
<path d="M0 0 C3.62125195 3.03002714 7.12881539 6.06782581 10.4375 9.4375 C13.40408019 12.4500228 16.50683461 15.23147628 19.70703125 17.9921875 C22.46905749 20.41072496 25.17402855 22.88885914 27.875 25.375 C31.54359262 28.75086138 35.22422732 32.11064919 38.9375 35.4375 C43.90238091 39.89397711 48.80134952 44.41948062 53.69921875 48.94921875 C60.60216457 55.33287155 67.53322415 61.68604063 74.5 68 C75.66015625 69.051875 75.66015625 69.051875 76.84375 70.125 C83.67043382 76.0612468 85.34738741 75.54170479 96 78 C96 111.66 96 145.32 96 180 C85.17347734 178.45335391 79.30674466 172.76704165 71.9375 165.0625 C67.40490727 160.37837516 62.8208763 155.90042012 57.87719727 151.65014648 C55.1195484 149.22604079 52.56165365 146.6277833 50 144 C46.75784773 140.71326813 43.52049017 137.49241664 40 134.5 C35.9104638 131.02389423 32.1903946 127.21750344 28.421875 123.40234375 C25.69691999 120.65674514 22.94976527 118.00730048 20 115.5 C15.9104638 112.02389423 12.1903946 108.21750344 8.421875 104.40234375 C5.69691999 101.65674514 2.94976527 99.00730048 0 96.5 C-4.0895362 93.02389423 -7.8096054 89.21750344 -11.578125 85.40234375 C-14.30308001 82.65674514 -17.05023473 80.00730048 -20 77.5 C-24.08559334 74.02724566 -27.80241343 70.2249751 -31.56713867 66.41333008 C-34.98425991 62.97017776 -38.51456944 59.73178061 -42.1953125 56.5703125 C-47.66534349 51.81067515 -53.0209987 46.74929983 -56 40 C-54.64507675 37.2901535 -52.97029499 36.62809831 -50.375 35.0625 C-45.81948418 32.22186466 -41.48382217 29.20906811 -37.1875 26 C-29.83082045 20.519945 -22.27375107 15.35455715 -14.67651367 10.21484375 C-9.7362702 6.87235101 -4.83490931 3.49335481 0 0 Z " fill="#E36ECB" transform="translate(154,332)"/>
<path d="M0 0 C3.06881816 1.71904752 5.40357084 3.80714167 7 7 C7.04788357 8.51610012 7.03172534 10.03445886 6.9831543 11.55053711 C6.84134376 16.86151567 6.7741629 22.16898247 6.73364258 27.48168945 C6.70309021 29.76988399 6.64936944 32.05789633 6.5715332 34.3449707 C5.55448545 47.94007395 5.55448545 47.94007395 10.88696289 59.77172852 C13.77661212 62.26638646 16.90976112 64.20047388 20.25717163 66.02023315 C22.65777507 67.3697818 24.72361293 69.03961366 26.84765625 70.78515625 C28.25223761 71.87807541 29.65718062 72.97052997 31.0625 74.0625 C31.82361084 74.65409912 32.58472168 75.24569824 33.36889648 75.85522461 C41.32842709 82.03796203 49.3067643 88.19572538 57.33203125 94.29296875 C58.46112915 95.15233032 58.46112915 95.15233032 59.61303711 96.02905273 C61.07467884 97.14109942 62.5376424 98.25141184 64.00219727 99.35961914 C76.39695226 108.79390452 76.39695226 108.79390452 78 112 C78.23828125 113.953125 78.23828125 113.953125 78.3125 116.25 C78.34988281 116.99765625 78.38726562 117.7453125 78.42578125 118.515625 C77.22068262 125.54720967 71.4428677 129.31970701 66.0625 133.25 C64.52717742 134.39691279 62.99202272 135.54405034 61.45703125 136.69140625 C60.69986816 137.25230957 59.94270508 137.81321289 59.16259766 138.39111328 C56.16443285 140.62162876 53.20542523 142.90084737 50.25 145.1875 C47.14845796 147.57595574 44.04673642 149.96412696 40.94140625 152.34765625 C34.44459801 157.33584235 27.96665398 162.34777167 21.5 167.375 C20.73405518 167.97022461 19.96811035 168.56544922 19.17895508 169.17871094 C18.4495874 169.7462207 17.72021973 170.31373047 16.96875 170.8984375 C16.00098633 171.65133057 16.00098633 171.65133057 15.01367188 172.41943359 C14.34916016 172.94102051 13.68464844 173.46260742 13 174 C12.10410156 174.49016602 11.20820313 174.98033203 10.28515625 175.48535156 C6.57449482 179.56866489 7.37180288 184.0181294 7.46875 189.3359375 C7.46548706 190.44804596 7.46222412 191.56015442 7.4588623 192.70596313 C7.44568426 197.46353027 7.49045201 202.22016335 7.52978516 206.97753906 C7.55026484 210.45146541 7.5414251 213.92448741 7.53125 217.3984375 C7.55086792 218.47048431 7.57048584 219.54253113 7.59069824 220.64706421 C7.56168938 228.98802956 7.56168938 228.98802956 4.65429688 232.66259766 C1.48511093 235.45341685 -0.19102905 235.94007623 -4.375 236.25 C-8.32313087 235.97771511 -9.98150144 235.51541547 -13 233 C-16.20339291 227.93311298 -16.42786767 223.83816656 -16.38095093 218.04272461 C-16.3856309 217.15161704 -16.39031087 216.26050947 -16.39513266 215.34239864 C-16.40708015 212.36222808 -16.3976263 209.38251757 -16.38818359 206.40234375 C-16.3922494 204.26343518 -16.39759132 202.12452871 -16.40411377 199.98562622 C-16.41779205 194.17992632 -16.41248652 188.37438633 -16.40297651 182.56868362 C-16.39538263 176.49361998 -16.40242478 170.41857004 -16.40713501 164.34350586 C-16.41259334 154.14141379 -16.40539888 143.93938687 -16.39111328 133.73730469 C-16.37478667 121.94138461 -16.38007511 110.14562009 -16.3965925 98.34970379 C-16.41020512 88.22302004 -16.41212811 78.09638313 -16.40427649 67.96969318 C-16.39959876 61.92100283 -16.39897793 55.87238561 -16.40888596 49.82369995 C-16.41755002 44.1371927 -16.41154376 38.45088606 -16.39420319 32.76440048 C-16.39023538 30.67704476 -16.3913774 28.58967217 -16.39799118 26.50232315 C-16.40618497 23.65374572 -16.39591104 20.80581179 -16.38095093 17.95727539 C-16.38764309 17.13061843 -16.39433526 16.30396147 -16.40123022 15.4522543 C-16.34292458 9.73123159 -15.23111358 5.57436183 -11.375 1.125 C-7.61126311 -0.65782274 -4.07460964 -0.77544474 0 0 Z " fill="#834BA3" transform="translate(241,134)"/>
<path d="M0 0 C0 34.98 0 69.96 0 106 C-4.95 106.99 -9.9 107.98 -15 109 C-20.86520341 111.63934153 -24.8242691 114.42498145 -29.16601562 119.10253906 C-30.89861957 120.89511066 -32.68669644 122.4936146 -34.58984375 124.1015625 C-39.64560774 128.48519976 -44.30637796 133.23526248 -49 138 C-50.70581018 139.73165579 -52.41410866 141.46086426 -54.125 143.1875 C-54.87007813 143.94417969 -55.61515625 144.70085937 -56.3828125 145.48046875 C-58.42980871 147.45108451 -60.497801 149.30969454 -62.64941406 151.16040039 C-67.8067248 155.63991334 -72.63642633 160.43663211 -77.484375 165.24609375 C-77.96851112 165.72615435 -78.45264725 166.20621494 -78.95145416 166.70082283 C-81.50717337 169.23586248 -84.0597331 171.774036 -86.60986328 174.31469727 C-89.2260829 176.91980659 -91.85378962 179.51300815 -94.48415756 182.10381985 C-96.52414828 184.11756765 -98.55510914 186.14024518 -100.5838089 188.1653614 C-102.01310519 189.58749321 -103.45197472 190.99998298 -104.89105225 192.41221619 C-109.78303695 197.32056082 -113.35596887 201.56934527 -116 208 C-119.96 206.02 -123.92 204.04 -128 202 C-128 201.34 -128 200.68 -128 200 C-127.09765625 199.64550781 -126.1953125 199.29101562 -125.265625 198.92578125 C-121.37923705 196.63392807 -119.81358837 194.04171273 -117.75 190.1875 C-116.97597503 188.82808771 -116.19719474 187.47137372 -115.4140625 186.1171875 C-115.01735352 185.42979492 -114.62064453 184.74240234 -114.21191406 184.03417969 C-108.03358214 173.66394165 -100.36097935 164.65011985 -92 156 C-90.78183594 154.70449219 -90.78183594 154.70449219 -89.5390625 153.3828125 C-79.30474902 142.75104995 -67.80783142 134.94851339 -55.07104492 127.64135742 C-48.44767779 123.73429221 -48.44767779 123.73429221 -45 117 C-44.5880041 112.01859501 -45.30807504 108.04837115 -48.0625 103.875 C-48.701875 103.25625 -49.34125 102.6375 -50 102 C-48.92610076 99.76959388 -47.88532461 97.85003987 -46.375 95.875 C-44.3735192 91.69008559 -44.13073632 87.5516563 -45 83 C-47.9525632 77.05571494 -52.3146184 74.55492744 -57.875 71.375 C-59.45632497 70.44632628 -61.03706624 69.51665784 -62.6171875 68.5859375 C-63.36452148 68.14991211 -64.11185547 67.71388672 -64.88183594 67.26464844 C-67.65960066 65.60618587 -70.33122111 63.8278132 -73 62 C-71.4122398 58.16058932 -68.96855526 55.6962056 -66.06640625 52.76000977 C-65.56523788 52.25051788 -65.06406952 51.741026 -64.54771423 51.21609497 C-62.89140923 49.5357262 -61.22757361 47.86308397 -59.5625 46.19140625 C-58.40096815 45.02090119 -57.23951097 43.85032204 -56.078125 42.67967224 C-53.64060318 40.22566477 -51.19872421 37.77608282 -48.75439453 35.32885742 C-45.64025373 32.20935143 -42.54255996 29.07405214 -39.44871521 25.93443394 C-37.05327575 23.50907398 -34.6464842 21.09522018 -32.23654175 18.68427849 C-31.09069966 17.53425928 -29.94893425 16.38016184 -28.81155396 15.22177315 C-19.87475987 6.13324117 -13.3319003 0 0 0 Z " fill="#DD6DCD" transform="translate(250,0)"/>
<path d="M0 0 C1.00804688 -0.02835938 2.01609375 -0.05671875 3.0546875 -0.0859375 C7.13442699 0.52654247 8.98734765 1.67141023 12.125 4.375 C14.22698736 7.32444354 15.94349584 10.45435399 17.6875 13.625 C28.14669684 31.76850472 42.07342946 48.09786921 59.125 60.375 C59.125 61.035 59.125 61.695 59.125 62.375 C59.80820313 62.61605469 60.49140625 62.85710938 61.1953125 63.10546875 C64.70331963 64.62560517 67.8159032 66.59537549 71 68.6875 C71.61915283 69.09194336 72.23830566 69.49638672 72.8762207 69.91308594 C74.0902655 70.70912848 75.30265642 71.50770044 76.51318359 72.30908203 C77.83279294 73.18175916 79.1595543 74.04361278 80.48828125 74.90234375 C84.07602736 77.30697872 86.58330664 79.29404698 88.125 83.375 C88.77710655 88.23319378 88.68339565 92.11254026 86.6875 96.625 C83.23608451 100.32895809 79.4233294 102.73738878 75.125 105.375 C66.28740433 110.87765391 58.01677529 116.53705813 50.125 123.375 C49.30644531 124.05949219 48.48789063 124.74398437 47.64453125 125.44921875 C34.02766422 137.1610233 23.74077277 151.59137085 14.8125 167.0625 C12.29584221 171.354364 9.61874175 174.12812913 5.125 176.375 C0.02433533 176.88339958 -4.46979973 176.947489 -9.25 175 C-13.74277729 170.50722271 -16.78844787 165.87808362 -16.94921875 159.37109375 C-14.72563796 141.78459111 3.4390225 126.53088356 16.80517578 116.05859375 C24.06036829 110.57061297 31.65192055 105.6901727 39.48046875 101.06640625 C43.08556067 98.76063845 44.76338979 97.45983062 46.125 93.375 C46.51264757 88.97669108 46.62050444 84.8284797 45.1875 80.625 C41.98353159 77.12976173 38.14331997 74.85013986 34.125 72.375 C16.78663948 61.58834755 -9.14248323 44.5725503 -15.875 24.375 C-16.3711873 17.02450436 -16.25608764 10.86726187 -12 4.625 C-8.32367243 0.73241786 -5.29855118 0.06741159 0 0 Z " fill="#FDB124" transform="translate(117.875,-0.375)"/>
<path d="M0 0 C4.20992639 2.98039181 6.54362837 7.8748016 9.1875 12.1875 C17.37182135 25.34022836 29.10128153 35.88322204 42.21606445 43.9440918 C49.63529869 48.51688133 49.63529869 48.51688133 50.9375 53.8125 C51.48321508 56.95506616 50.94746386 58.10100073 49.4375 61.00390625 C46.69581342 64.373896 43.83025803 66.13890618 40.0625 68.125 C24.57320155 76.8707614 13.65151893 89.85763288 4.95703125 105.21484375 C2.86700448 108.18927306 1.26842267 109.47265097 -2 111 C-6.71779366 111.58972421 -9.21367801 110.81236702 -13 108 C-14.48894124 105.71943357 -15.78751004 103.51647254 -17.0625 101.125 C-26.07931611 85.1949687 -39.85492709 73.35972336 -55.70703125 64.484375 C-58 63 -58 63 -60 60 C-60.3359375 57.9140625 -60.3359375 57.9140625 -60.375 55.625 C-60.40335937 54.87476563 -60.43171875 54.12453125 -60.4609375 53.3515625 C-59.8085872 50.02347029 -58.33644763 48.42722178 -56 46 C-53.4765625 44.40234375 -53.4765625 44.40234375 -50.625 42.9375 C-34.98377192 34.09763419 -22.78279471 20.77982085 -14.31640625 4.98828125 C-10.777382 -0.35701058 -6.04638084 -1.42703044 0 0 Z " fill="#FEC915" transform="translate(432,355)"/>
<path d="M0 0 C3.06339935 2.48068752 4.93085946 5.85210001 7.0625 9.125 C13.158715 18.14800166 20.49837404 24.56931246 30.06640625 29.80859375 C32 31 32 31 33 33 C33.375 36.375 33.375 36.375 33 40 C31.125 42 31.125 42 28 44 C17.63646621 50.84282109 9.80344149 57.96868346 3.41015625 68.71484375 C2 71 2 71 0 73 C-3.375 73.375 -3.375 73.375 -7 73 C-10.20834032 70.31293741 -12.19258878 67.26453396 -14.3125 63.6875 C-19.66825815 55.19254747 -25.6454552 50.25740514 -34.20141602 45.19482422 C-40.10661475 41.62056129 -40.10661475 41.62056129 -41 38 C-40.91015625 34.96484375 -40.91015625 34.96484375 -40 32 C-37.99609375 30.12890625 -37.99609375 30.12890625 -35.4375 28.5625 C-24.61645356 21.52805018 -16.04841125 12.72593543 -9.2265625 1.75 C-6.64917154 -1.92729666 -3.99717755 -0.97890063 0 0 Z " fill="#FECC13" transform="translate(70,387)"/>
<path d="M0 0 C0.66 -0.01289062 1.32 -0.02578125 2 -0.0390625 C5.21119217 1.02715365 6.26356672 2.77527361 8 5.625 C8.50390625 9.21875 8.50390625 9.21875 8.5625 13.125 C8.64927613 18.22947832 8.85332389 21.50123864 12 25.625 C15.770769 27.5103845 20.36093195 27.04013572 24.51953125 27.24609375 C28.70952607 27.70224358 31.72256456 28.47530811 34.875 31.3125 C36.53583755 34.72644385 35.91952707 37.01257223 35 40.625 C33.8671875 42.30859375 33.8671875 42.30859375 32 43.625 C28.890625 44.03125 28.890625 44.03125 25.25 44.125 C19.74048475 44.41527405 15.71936548 44.72902573 11 47.625 C7.86147872 52.10860182 8.65374287 57.74686026 8.5390625 62.99609375 C7.92712484 67.11558714 7.02224442 68.8003228 4 71.625 C2 72.2890625 2 72.2890625 0 72.25 C-0.66 72.26289063 -1.32 72.27578125 -2 72.2890625 C-5.21119217 71.22284635 -6.26356672 69.47472639 -8 66.625 C-8.50390625 63.03125 -8.50390625 63.03125 -8.5625 59.125 C-8.64601818 52.31965554 -8.64601818 52.31965554 -12 46.625 C-17.40414498 44.07689175 -22.88851181 44.34376274 -28.7578125 44.26171875 C-32 43.625 -32 43.625 -34.43359375 41.30859375 C-36 38.625 -36 38.625 -35.9375 35 C-34.65909091 30.39772727 -34.65909091 30.39772727 -32 28.625 C-27.27987558 27.07741822 -22.23036521 27.29952741 -17.3125 27.1015625 C-13.86278766 26.60525955 -12.42012145 26.08002704 -10 23.625 C-8.44796024 18.96888072 -8.71387665 14.17227306 -8.57421875 9.2890625 C-7.77495326 4.18898747 -5.69410293 -0.11121295 0 0 Z " fill="#FECC13" transform="translate(447,97.375)"/>
<path d="M0 0 C4.88037245 2.78878426 8.29281879 4.88803745 12.375 8.4375 C18.16991403 13.42009637 24.22382824 18.01708658 30.38818359 22.53295898 C31.08766113 23.05575439 31.78713867 23.5785498 32.5078125 24.1171875 C33.13316895 24.57722168 33.75852539 25.03725586 34.40283203 25.51123047 C36.19678418 27.18342861 37.03813824 28.76086272 38 31 C22.75644007 43.48445602 22.75644007 43.48445602 15.0625 49.4375 C14.10472656 50.17871094 13.14695312 50.91992188 12.16015625 51.68359375 C8.19954591 54.58673582 4.08592342 57.27605105 0 60 C0 40.2 0 20.4 0 0 Z " fill="#AC63D5" transform="translate(249,221)"/>
<path d="M0 0 C0.495 0.639375 0.99 1.27875 1.5 1.9375 C2.83905961 3.57784803 4.19766207 5.20696382 5.66015625 6.73828125 C10.40938882 11.76057031 14.25116111 17.15291991 18 22.9375 C18.49314697 23.69579102 18.98629395 24.45408203 19.49438477 25.23535156 C23 30.73771068 23 30.73771068 23 33 C19.87305779 32.33602054 17.26278671 31.25409228 14.41015625 29.8203125 C13.54326172 29.38589844 12.67636719 28.95148438 11.78320312 28.50390625 C10.88537109 28.04886719 9.98753906 27.59382813 9.0625 27.125 C8.16853516 26.67769531 7.27457031 26.23039062 6.35351562 25.76953125 C2.82942266 23.99571163 -0.6242598 22.23164088 -3.984375 20.16015625 C-5.95295338 18.75407943 -5.95295338 18.75407943 -8.3125 19.3125 C-9.1478125 19.6528125 -9.1478125 19.6528125 -10 20 C-8.78142455 12.50107416 -5.06744995 5.63049994 0 0 Z " fill="#F871C6" transform="translate(80,158)"/>
</svg>
