<?xml version="1.0" encoding="UTF-8"?>
<svg version="1.1" xmlns="http://www.w3.org/2000/svg" width="512" height="512">
<path d="M0 0 C3.06406652 1.47380189 6.03578682 3.064291 9.01318359 4.70605469 C10.1156543 5.29660645 11.218125 5.8871582 12.35400391 6.49560547 C15.7086507 8.29813819 19.04992307 10.12338287 22.38818359 11.95605469 C24.22401565 12.95885192 26.05994629 13.9614687 27.89599609 14.96386719 C30.53068925 16.40382024 33.16436913 17.84546371 35.79492188 19.29296875 C44.04472473 23.81643629 52.4019206 28.12285082 60.76934814 32.42276001 C69.63113395 36.97941337 78.41521248 41.65696883 87.14208984 46.46777344 C94.33077423 50.41574401 101.59756127 54.20017096 108.88818359 57.95605469 C118.00946756 62.65518939 127.05339207 67.46678808 136.04052734 72.41699219 C143.26405939 76.37997494 150.56444209 80.18199901 157.88818359 83.95605469 C166.60798285 88.45890695 175.30995836 92.99041514 183.95068359 97.64355469 C184.87880859 98.13662109 185.80693359 98.6296875 186.76318359 99.13769531 C188.03355469 99.82702148 188.03355469 99.82702148 189.32958984 100.53027344 C190.06894775 100.92819092 190.80830566 101.3261084 191.57006836 101.73608398 C193.38818359 102.95605469 193.38818359 102.95605469 195.38818359 105.95605469 C195.63148711 108.65195457 195.76154008 111.25213036 195.80224609 113.95214844 C195.82170288 114.75860306 195.84115967 115.56505768 195.86120605 116.39595032 C195.9222287 119.06171078 195.96837306 121.7274756 196.01318359 124.39355469 C196.0505057 126.27604715 196.08810707 128.15853409 196.12597656 130.04101562 C196.46282501 147.68183063 196.56382253 165.31312365 196.38818359 182.95605469 C196.37722656 184.06770996 196.36626953 185.17936523 196.35498047 186.32470703 C194.65939289 352.06839283 194.65939289 352.06839283 136.49755859 409.85839844 C113.04778241 432.54803365 83.82584423 449.35986794 55.38818359 464.95605469 C54.49518555 465.4476709 53.6021875 465.93928711 52.68212891 466.44580078 C44.95577631 470.68849921 37.18933654 474.8527995 29.38818359 478.95605469 C28.71122437 479.31233948 28.03426514 479.66862427 27.33679199 480.03570557 C23.03295077 482.29609516 18.71739943 484.53194674 14.38769531 486.74240112 C12.98317661 487.46211205 11.58141397 488.18722971 10.18261719 488.91799927 C8.21458652 489.94405921 6.2368378 490.94842959 4.25537109 491.94824219 C3.12212402 492.52944824 1.98887695 493.1106543 0.82128906 493.70947266 C-4.94411409 495.80292654 -9.31957653 495.73492147 -14.84277344 493.31054688 C-16.36004577 492.55788645 -17.86870964 491.78769361 -19.36962891 491.00292969 C-20.18663269 490.59159286 -21.00363647 490.18025604 -21.84539795 489.75645447 C-24.48433598 488.42226769 -27.11059588 487.06507978 -29.73681641 485.70605469 C-31.55940078 484.77645388 -33.38248281 483.84782817 -35.20605469 482.92016602 C-47.8003849 476.49261693 -60.31278847 469.9342106 -72.61181641 462.95605469 C-73.6440332 462.37549316 -74.67625 461.79493164 -75.73974609 461.19677734 C-89.7353074 453.31325358 -103.48893483 445.23135908 -116.61181641 435.95605469 C-117.39105469 435.40594727 -118.17029297 434.85583984 -118.97314453 434.2890625 C-164.57189948 401.87262604 -193.32178535 361.87973757 -202.80322266 306.23339844 C-205.09411745 291.88040885 -206.68452143 277.45992777 -207.61181641 262.95605469 C-207.6950415 261.65563232 -207.7782666 260.35520996 -207.86401367 259.01538086 C-208.71811118 244.77655912 -208.94919166 230.52885128 -209.17431641 216.26855469 C-209.19516296 214.99393372 -209.21600952 213.71931274 -209.23748779 212.40606689 C-209.58276407 191.08450744 -209.841333 169.76797721 -209.63464355 148.44396973 C-209.61021047 145.78102519 -209.59194393 143.11807205 -209.57373047 140.45507812 C-209.53846962 135.77252765 -209.47884351 131.09080351 -209.40228271 126.40875244 C-209.37557694 124.6251047 -209.35514077 122.84135065 -209.34136963 121.05755615 C-209.32028345 118.60110386 -209.27408633 116.1463751 -209.22119141 113.69042969 C-209.2199527 112.9633078 -209.21871399 112.23618591 -209.21743774 111.48703003 C-209.12272037 108.25207106 -208.87000944 106.30563422 -206.92602539 103.67358398 C-204.36224069 101.77082785 -201.79933411 100.23364518 -198.97509766 98.74121094 C-197.85312988 98.1441333 -196.73116211 97.54705566 -195.57519531 96.93188477 C-194.35832826 96.29393144 -193.14136621 95.65615929 -191.92431641 95.01855469 C-190.66278825 94.35074108 -189.40156177 93.6823573 -188.140625 93.01342773 C-178.99794069 88.1724791 -169.81368987 83.41066386 -160.62426758 78.65917969 C-153.04148102 74.72901449 -145.54174437 70.66288628 -138.05957031 66.54516602 C-129.66008253 61.94149915 -121.15401813 57.55373519 -112.63964844 53.16723633 C-105.57856839 49.52023316 -98.57286276 45.79026873 -91.61181641 41.95605469 C-83.50972693 37.49334266 -75.33450367 33.19231747 -67.11181641 28.95605469 C-58.76545295 24.6556454 -50.46684571 20.28775555 -42.23681641 15.76855469 C-40.46602969 14.80102145 -38.69519678 13.83357274 -36.92431641 12.86621094 C-34.1970352 11.37542554 -31.47333135 9.87911591 -28.75634766 8.36962891 C-25.92473397 6.79953542 -23.08210044 5.25120408 -20.23681641 3.70605469 C-19.38684082 3.2275708 -18.53686523 2.74908691 -17.66113281 2.25610352 C-11.5317352 -1.03846299 -6.6635513 -2.66342731 0 0 Z " fill="#020100" transform="translate(262.61181640625,9.0439453125)"/>
<path d="M0 0 C3.06406652 1.47380189 6.03578682 3.064291 9.01318359 4.70605469 C10.1156543 5.29660645 11.218125 5.8871582 12.35400391 6.49560547 C15.7086507 8.29813819 19.04992307 10.12338287 22.38818359 11.95605469 C24.22401565 12.95885192 26.05994629 13.9614687 27.89599609 14.96386719 C30.53068925 16.40382024 33.16436913 17.84546371 35.79492188 19.29296875 C44.04472473 23.81643629 52.4019206 28.12285082 60.76934814 32.42276001 C69.63113395 36.97941337 78.41521248 41.65696883 87.14208984 46.46777344 C94.33077423 50.41574401 101.59756127 54.20017096 108.88818359 57.95605469 C118.00946756 62.65518939 127.05339207 67.46678808 136.04052734 72.41699219 C143.26405939 76.37997494 150.56444209 80.18199901 157.88818359 83.95605469 C166.60798285 88.45890695 175.30995836 92.99041514 183.95068359 97.64355469 C184.87880859 98.13662109 185.80693359 98.6296875 186.76318359 99.13769531 C188.03355469 99.82702148 188.03355469 99.82702148 189.32958984 100.53027344 C190.06894775 100.92819092 190.80830566 101.3261084 191.57006836 101.73608398 C193.38818359 102.95605469 193.38818359 102.95605469 195.38818359 105.95605469 C195.63148711 108.65195457 195.76154008 111.25213036 195.80224609 113.95214844 C195.82170288 114.75860306 195.84115967 115.56505768 195.86120605 116.39595032 C195.9222287 119.06171078 195.96837306 121.7274756 196.01318359 124.39355469 C196.0505057 126.27604715 196.08810707 128.15853409 196.12597656 130.04101562 C196.46282501 147.68183063 196.56382253 165.31312365 196.38818359 182.95605469 C196.37722656 184.06770996 196.36626953 185.17936523 196.35498047 186.32470703 C194.65939289 352.06839283 194.65939289 352.06839283 136.49755859 409.85839844 C113.04778241 432.54803365 83.82584423 449.35986794 55.38818359 464.95605469 C54.49518555 465.4476709 53.6021875 465.93928711 52.68212891 466.44580078 C44.95577631 470.68849921 37.18933654 474.8527995 29.38818359 478.95605469 C28.71122437 479.31233948 28.03426514 479.66862427 27.33679199 480.03570557 C23.03295077 482.29609516 18.71739943 484.53194674 14.38769531 486.74240112 C12.98317661 487.46211205 11.58141397 488.18722971 10.18261719 488.91799927 C8.21458652 489.94405921 6.2368378 490.94842959 4.25537109 491.94824219 C3.12212402 492.52944824 1.98887695 493.1106543 0.82128906 493.70947266 C-4.94411409 495.80292654 -9.31957653 495.73492147 -14.84277344 493.31054688 C-16.36004577 492.55788645 -17.86870964 491.78769361 -19.36962891 491.00292969 C-20.18663269 490.59159286 -21.00363647 490.18025604 -21.84539795 489.75645447 C-24.48433598 488.42226769 -27.11059588 487.06507978 -29.73681641 485.70605469 C-31.55940078 484.77645388 -33.38248281 483.84782817 -35.20605469 482.92016602 C-47.8003849 476.49261693 -60.31278847 469.9342106 -72.61181641 462.95605469 C-73.6440332 462.37549316 -74.67625 461.79493164 -75.73974609 461.19677734 C-89.7353074 453.31325358 -103.48893483 445.23135908 -116.61181641 435.95605469 C-117.39105469 435.40594727 -118.17029297 434.85583984 -118.97314453 434.2890625 C-164.57189948 401.87262604 -193.32178535 361.87973757 -202.80322266 306.23339844 C-205.09411745 291.88040885 -206.68452143 277.45992777 -207.61181641 262.95605469 C-207.6950415 261.65563232 -207.7782666 260.35520996 -207.86401367 259.01538086 C-208.71811118 244.77655912 -208.94919166 230.52885128 -209.17431641 216.26855469 C-209.19516296 214.99393372 -209.21600952 213.71931274 -209.23748779 212.40606689 C-209.58276407 191.08450744 -209.841333 169.76797721 -209.63464355 148.44396973 C-209.61021047 145.78102519 -209.59194393 143.11807205 -209.57373047 140.45507812 C-209.53846962 135.77252765 -209.47884351 131.09080351 -209.40228271 126.40875244 C-209.37557694 124.6251047 -209.35514077 122.84135065 -209.34136963 121.05755615 C-209.32028345 118.60110386 -209.27408633 116.1463751 -209.22119141 113.69042969 C-209.2199527 112.9633078 -209.21871399 112.23618591 -209.21743774 111.48703003 C-209.12272037 108.25207106 -208.87000944 106.30563422 -206.92602539 103.67358398 C-204.36224069 101.77082785 -201.79933411 100.23364518 -198.97509766 98.74121094 C-197.85312988 98.1441333 -196.73116211 97.54705566 -195.57519531 96.93188477 C-194.35832826 96.29393144 -193.14136621 95.65615929 -191.92431641 95.01855469 C-190.66278825 94.35074108 -189.40156177 93.6823573 -188.140625 93.01342773 C-178.99794069 88.1724791 -169.81368987 83.41066386 -160.62426758 78.65917969 C-153.04148102 74.72901449 -145.54174437 70.66288628 -138.05957031 66.54516602 C-129.66008253 61.94149915 -121.15401813 57.55373519 -112.63964844 53.16723633 C-105.57856839 49.52023316 -98.57286276 45.79026873 -91.61181641 41.95605469 C-83.50972693 37.49334266 -75.33450367 33.19231747 -67.11181641 28.95605469 C-58.76545295 24.6556454 -50.46684571 20.28775555 -42.23681641 15.76855469 C-40.46602969 14.80102145 -38.69519678 13.83357274 -36.92431641 12.86621094 C-34.1970352 11.37542554 -31.47333135 9.87911591 -28.75634766 8.36962891 C-25.92473397 6.79953542 -23.08210044 5.25120408 -20.23681641 3.70605469 C-19.38684082 3.2275708 -18.53686523 2.74908691 -17.66113281 2.25610352 C-11.5317352 -1.03846299 -6.6635513 -2.66342731 0 0 Z M-13.69775391 54.37792969 C-15.19967285 55.16466064 -15.19967285 55.16466064 -16.73193359 55.96728516 C-17.80604492 56.5410791 -18.88015625 57.11487305 -19.98681641 57.70605469 C-21.66759277 58.59188232 -21.66759277 58.59188232 -23.38232422 59.49560547 C-31.30310424 63.68428584 -39.16829662 67.97218389 -47.01757812 72.29296875 C-55.26831877 76.81533508 -63.62528293 81.12271182 -71.99298096 85.42276001 C-80.85476677 89.97941337 -89.63884529 94.65696883 -98.36572266 99.46777344 C-105.5544112 103.41574629 -112.82126064 107.20003419 -120.11181641 110.95605469 C-128.7878272 115.42765136 -137.42034189 119.96516355 -145.98681641 124.64355469 C-146.88980469 125.13662109 -147.79279297 125.6296875 -148.72314453 126.13769531 C-156.17850623 129.51014593 -156.17850623 129.51014593 -161.61181641 134.95605469 C-161.72075379 137.59081498 -161.769176 140.19949888 -161.77294922 142.83496094 C-161.77783482 143.6532157 -161.78272041 144.47147047 -161.78775406 145.31452084 C-161.8022567 148.04920448 -161.80898131 150.78383988 -161.81494141 153.51855469 C-161.82189333 155.44324271 -161.82893434 157.36793041 -161.83605957 159.2926178 C-161.8556568 165.5137655 -161.86024275 171.73487958 -161.86181641 177.95605469 C-161.86240555 179.00715801 -161.86299469 180.05826134 -161.86360168 181.14121628 C-164.71533991 284.87665581 -164.71533991 284.87665581 -118.48681641 373.51855469 C-110.76218859 381.18953926 -102.57103427 387.79422974 -93.61181641 393.95605469 C-92.88317383 394.45975586 -92.15453125 394.96345703 -91.40380859 395.48242188 C-71.04251612 409.48026263 -49.60256377 421.42405416 -27.66650391 432.75805664 C-26.74998047 433.23202881 -25.83345703 433.70600098 -24.88916016 434.19433594 C-23.99825684 434.65146973 -23.10735352 435.10860352 -22.18945312 435.57958984 C-20.50350397 436.47989116 -18.84126674 437.4264675 -17.20996094 438.42236328 C-16.4569873 438.88078613 -15.70401367 439.33920898 -14.92822266 439.81152344 C-14.2844165 440.22426514 -13.64061035 440.63700684 -12.97729492 441.06225586 C-8.14199751 442.88927865 -3.95389656 442.45204928 0.76123047 440.70947266 C1.8653125 440.1282666 2.96939453 439.54706055 4.10693359 438.94824219 C4.71865921 438.63115799 5.33038483 438.31407379 5.96064758 437.98738098 C7.94577754 436.95192309 9.91691865 435.89263795 11.88818359 434.83105469 C13.27279425 434.09958582 14.65780915 433.36888167 16.04321289 432.63891602 C27.46442841 426.58670544 38.68306336 420.20005728 49.75878906 413.53613281 C52.24351704 412.04298894 54.73816045 410.5680212 57.23583984 409.09667969 C68.07545855 402.65856822 78.3272409 395.54955565 88.38818359 387.95605469 C89.38205078 387.2096875 90.37591797 386.46332031 91.39990234 385.69433594 C124.36573705 359.82428628 139.07572172 326.96012417 144.38818359 285.95605469 C147.2949609 260.83043754 148.54365993 235.77112167 148.62646484 210.48730469 C148.63054037 209.41841507 148.6346159 208.34952545 148.63881493 207.24824524 C148.65942817 201.62204193 148.67385077 195.99586142 148.68334961 190.36962891 C148.69454451 184.5703611 148.72916109 178.77146331 148.76852131 172.97232819 C148.79458051 168.48914861 148.80303039 164.00606055 148.80663109 159.52281189 C148.81150115 157.38253695 148.82312704 155.2422662 148.84166908 153.10206604 C148.86589869 150.12795187 148.86512883 147.15484573 148.8581543 144.18066406 C148.87096436 143.30074295 148.88377441 142.42082184 148.89697266 141.51423645 C148.88250348 136.65282376 148.88250348 136.65282376 146.54853821 132.49331665 C143.73813347 130.49349297 140.8170933 128.83328751 137.75537109 127.26074219 C136.77089996 126.74355873 136.77089996 126.74355873 135.76654053 126.21592712 C133.60224702 125.08081821 131.43273686 123.95607289 129.26318359 122.83105469 C127.73591375 122.03196009 126.20906492 121.23206038 124.68261719 120.43139648 C121.50604004 118.76603605 118.32767304 117.10416828 115.14794922 115.44482422 C108.46414118 111.95391919 101.80048183 108.42506728 95.13772583 104.89419556 C93.00672827 103.76513448 90.87512523 102.63722349 88.7434082 101.50952148 C78.6028534 96.14280606 68.49023822 90.72546912 58.38427734 85.29394531 C49.77625846 80.67682664 41.11694231 76.1647944 32.43945312 71.67993164 C24.3863558 67.50552453 16.41032793 63.19993878 8.46484375 58.82446289 C6.10962439 57.52812533 3.75005064 56.24022892 1.38818359 54.95605469 C0.27830078 54.35019531 -0.83158203 53.74433594 -1.97509766 53.12011719 C-6.64538687 51.05827099 -9.43818294 52.12773641 -13.69775391 54.37792969 Z " fill="#F5BA5B" transform="translate(262.61181640625,9.0439453125)"/>
<path d="M0 0 C3.06406652 1.47380189 6.03578682 3.064291 9.01318359 4.70605469 C10.1156543 5.29660645 11.218125 5.8871582 12.35400391 6.49560547 C15.7086507 8.29813819 19.04992307 10.12338287 22.38818359 11.95605469 C24.22401565 12.95885192 26.05994629 13.9614687 27.89599609 14.96386719 C30.53068925 16.40382024 33.16436913 17.84546371 35.79492188 19.29296875 C44.04472473 23.81643629 52.4019206 28.12285082 60.76934814 32.42276001 C69.63113395 36.97941337 78.41521248 41.65696883 87.14208984 46.46777344 C94.33077423 50.41574401 101.59756127 54.20017096 108.88818359 57.95605469 C118.00946756 62.65518939 127.05339207 67.46678808 136.04052734 72.41699219 C143.26405939 76.37997494 150.56444209 80.18199901 157.88818359 83.95605469 C166.60798285 88.45890695 175.30995836 92.99041514 183.95068359 97.64355469 C184.87880859 98.13662109 185.80693359 98.6296875 186.76318359 99.13769531 C188.03355469 99.82702148 188.03355469 99.82702148 189.32958984 100.53027344 C190.06894775 100.92819092 190.80830566 101.3261084 191.57006836 101.73608398 C193.38818359 102.95605469 193.38818359 102.95605469 195.38818359 105.95605469 C195.63148711 108.65195457 195.76154008 111.25213036 195.80224609 113.95214844 C195.82170288 114.75860306 195.84115967 115.56505768 195.86120605 116.39595032 C195.9222287 119.06171078 195.96837306 121.7274756 196.01318359 124.39355469 C196.0505057 126.27604715 196.08810707 128.15853409 196.12597656 130.04101562 C196.46282501 147.68183063 196.56382253 165.31312365 196.38818359 182.95605469 C196.37722656 184.06770996 196.36626953 185.17936523 196.35498047 186.32470703 C194.65939289 352.06839283 194.65939289 352.06839283 136.49755859 409.85839844 C113.04778241 432.54803365 83.82584423 449.35986794 55.38818359 464.95605469 C54.49518555 465.4476709 53.6021875 465.93928711 52.68212891 466.44580078 C44.95577631 470.68849921 37.18933654 474.8527995 29.38818359 478.95605469 C28.71122437 479.31233948 28.03426514 479.66862427 27.33679199 480.03570557 C23.03295077 482.29609516 18.71739943 484.53194674 14.38769531 486.74240112 C12.98317661 487.46211205 11.58141397 488.18722971 10.18261719 488.91799927 C8.21458652 489.94405921 6.2368378 490.94842959 4.25537109 491.94824219 C3.12212402 492.52944824 1.98887695 493.1106543 0.82128906 493.70947266 C-4.94411409 495.80292654 -9.31957653 495.73492147 -14.84277344 493.31054688 C-16.36004577 492.55788645 -17.86870964 491.78769361 -19.36962891 491.00292969 C-20.18663269 490.59159286 -21.00363647 490.18025604 -21.84539795 489.75645447 C-24.48433598 488.42226769 -27.11059588 487.06507978 -29.73681641 485.70605469 C-31.55940078 484.77645388 -33.38248281 483.84782817 -35.20605469 482.92016602 C-47.8003849 476.49261693 -60.31278847 469.9342106 -72.61181641 462.95605469 C-73.6440332 462.37549316 -74.67625 461.79493164 -75.73974609 461.19677734 C-89.7353074 453.31325358 -103.48893483 445.23135908 -116.61181641 435.95605469 C-117.39105469 435.40594727 -118.17029297 434.85583984 -118.97314453 434.2890625 C-164.57189948 401.87262604 -193.32178535 361.87973757 -202.80322266 306.23339844 C-205.09411745 291.88040885 -206.68452143 277.45992777 -207.61181641 262.95605469 C-207.6950415 261.65563232 -207.7782666 260.35520996 -207.86401367 259.01538086 C-208.71811118 244.77655912 -208.94919166 230.52885128 -209.17431641 216.26855469 C-209.19516296 214.99393372 -209.21600952 213.71931274 -209.23748779 212.40606689 C-209.58276407 191.08450744 -209.841333 169.76797721 -209.63464355 148.44396973 C-209.61021047 145.78102519 -209.59194393 143.11807205 -209.57373047 140.45507812 C-209.53846962 135.77252765 -209.47884351 131.09080351 -209.40228271 126.40875244 C-209.37557694 124.6251047 -209.35514077 122.84135065 -209.34136963 121.05755615 C-209.32028345 118.60110386 -209.27408633 116.1463751 -209.22119141 113.69042969 C-209.2199527 112.9633078 -209.21871399 112.23618591 -209.21743774 111.48703003 C-209.12272037 108.25207106 -208.87000944 106.30563422 -206.92602539 103.67358398 C-204.36224069 101.77082785 -201.79933411 100.23364518 -198.97509766 98.74121094 C-197.85312988 98.1441333 -196.73116211 97.54705566 -195.57519531 96.93188477 C-194.35832826 96.29393144 -193.14136621 95.65615929 -191.92431641 95.01855469 C-190.66278825 94.35074108 -189.40156177 93.6823573 -188.140625 93.01342773 C-178.99794069 88.1724791 -169.81368987 83.41066386 -160.62426758 78.65917969 C-153.04148102 74.72901449 -145.54174437 70.66288628 -138.05957031 66.54516602 C-129.66008253 61.94149915 -121.15401813 57.55373519 -112.63964844 53.16723633 C-105.57856839 49.52023316 -98.57286276 45.79026873 -91.61181641 41.95605469 C-83.50972693 37.49334266 -75.33450367 33.19231747 -67.11181641 28.95605469 C-58.76545295 24.6556454 -50.46684571 20.28775555 -42.23681641 15.76855469 C-40.46602969 14.80102145 -38.69519678 13.83357274 -36.92431641 12.86621094 C-34.1970352 11.37542554 -31.47333135 9.87911591 -28.75634766 8.36962891 C-25.92473397 6.79953542 -23.08210044 5.25120408 -20.23681641 3.70605469 C-19.38684082 3.2275708 -18.53686523 2.74908691 -17.66113281 2.25610352 C-11.5317352 -1.03846299 -6.6635513 -2.66342731 0 0 Z M-13.37744141 16.81542969 C-13.95814392 17.11555969 -14.53884644 17.4156897 -15.137146 17.72491455 C-17.04766771 18.71426813 -18.95481954 19.70992592 -20.86181641 20.70605469 C-22.19249845 21.39755162 -23.52322803 22.08895709 -24.85400391 22.78027344 C-33.36814199 27.21333131 -41.81448217 31.75894749 -50.22021484 36.39453125 C-57.78327003 40.54771793 -65.43816067 44.51281057 -73.11181641 48.45605469 C-82.602139 53.33292771 -92.02081209 58.31626999 -101.36572266 63.46777344 C-108.55440704 67.41574401 -115.82119408 71.20017096 -123.11181641 74.95605469 C-132.22346404 79.65022491 -141.25845027 84.45570288 -150.2355957 89.40161133 C-158.85998571 94.13386374 -167.59173744 98.65256641 -176.34033203 103.14941406 C-177.41605469 103.70306641 -178.49177734 104.25671875 -179.60009766 104.82714844 C-181.01609253 105.55309204 -181.01609253 105.55309204 -182.46069336 106.29370117 C-185.09685057 107.68438796 -187.70502043 109.11009068 -190.3087616 110.55995178 C-191.11564013 111.00901414 -191.92251867 111.4580765 -192.75384808 111.9207468 C-193.6735424 112.43322421 -193.6735424 112.43322421 -194.61181641 112.95605469 C-194.68289891 128.67628945 -194.73527747 144.39647862 -194.76725292 160.11683559 C-194.78251519 167.42128941 -194.80327733 174.72564062 -194.83813477 182.0300293 C-194.99124266 214.77695551 -194.87624432 247.33216361 -191.61181641 279.95605469 C-191.49160126 281.1891185 -191.37138611 282.42218231 -191.24752808 283.69261169 C-187.12506956 325.34390494 -174.64410679 362.30557107 -145.61181641 392.95605469 C-144.74298828 393.88933594 -143.87416016 394.82261719 -142.97900391 395.78417969 C-135.51352654 403.63309993 -127.24098753 410.14174232 -118.52441406 416.54736328 C-116.92174422 417.7277826 -115.33334936 418.92755011 -113.74853516 420.13183594 C-89.42934371 438.3995956 -61.94899492 452.48523377 -34.92138672 466.26074219 C-29.33635663 469.12164872 -23.78977102 472.05451301 -18.24291992 474.98852539 C-16.36713815 475.98007534 -14.48959743 476.96829612 -12.61181641 477.95605469 C-12.00281494 478.34494873 -11.39381348 478.73384277 -10.76635742 479.13452148 C-6.89103979 480.61219218 -3.60374125 479.36338877 0.10693359 477.83959961 C1.02474609 477.37658447 1.94255859 476.91356934 2.88818359 476.43652344 C3.92894043 475.91493652 4.96969727 475.39334961 6.04199219 474.85595703 C7.14623535 474.29086426 8.25047852 473.72577148 9.38818359 473.14355469 C10.54012207 472.56041504 11.69206055 471.97727539 12.87890625 471.37646484 C22.95911891 466.2427278 32.90248902 460.87678593 42.79296875 455.38818359 C45.34110923 453.98203194 47.89946763 452.59674644 50.46240234 451.21777344 C78.46598276 436.10446994 105.29928296 418.97398312 128.38818359 396.95605469 C129.30212891 396.1065625 130.21607422 395.25707031 131.15771484 394.38183594 C174.15636588 353.22862056 180.07475586 290.75947102 181.47783279 234.35190964 C181.80129258 215.99019751 181.69278284 197.62162586 181.60426515 179.25815684 C181.56993247 172.00471585 181.55403966 164.75126332 181.53915441 157.49776053 C181.50829987 142.65043453 181.45599213 127.80326171 181.38818359 112.95605469 C180.42751984 112.45693069 180.42751984 112.45693069 179.44744873 111.94772339 C176.48438247 110.4073863 173.52221808 108.8653223 170.56005859 107.32324219 C169.55313965 106.80012451 168.5462207 106.27700684 167.50878906 105.73803711 C160.84063495 102.26470543 154.22213892 98.71133854 147.63818359 95.08105469 C138.30786355 89.95673128 128.87915156 85.04254072 119.41650391 80.16748047 C111.45766806 76.05681078 103.58166193 71.81667457 95.73583984 67.49511719 C88.51232971 63.53214646 81.21230636 59.72933728 73.88818359 55.95605469 C65.66547098 51.71983154 57.49035168 47.4186265 49.38818359 42.95605469 C40.04391199 37.81104813 30.6003684 32.87386931 21.11889648 27.98681641 C13.78683664 24.20742601 6.48094555 20.38530051 -0.76538086 16.44360352 C-6.40815157 13.41172165 -7.74904651 13.89643469 -13.37744141 16.81542969 Z " fill="#010000" transform="translate(262.61181640625,9.0439453125)"/>
<path d="M0 0 C3.99631654 1.59852661 7.68067888 3.30778092 11.49609375 5.2734375 C12.11757797 5.59325089 12.73906219 5.91306427 13.37937927 6.24256897 C15.40019406 7.28394745 17.41898343 8.3291746 19.4375 9.375 C20.12918274 9.73248322 20.82086548 10.08996643 21.5335083 10.45828247 C31.17125659 15.44137158 40.75939819 20.50425277 50.25561523 25.75341797 C55.75130569 28.79073433 61.28483563 31.7503303 66.83642578 34.68383789 C67.62296036 35.09982491 68.40949493 35.51581192 69.21986389 35.9444046 C71.14640273 36.96326396 73.07317754 37.98167712 75 39 C75.20599799 73.27713722 75.36458555 107.55413314 75.45958797 141.83175567 C75.47084433 145.8784794 75.48249323 149.92520192 75.49438477 153.97192383 C75.49674556 154.77755364 75.49910635 155.58318346 75.50153869 156.4132263 C75.54070123 169.45813729 75.61166231 182.50269135 75.69437516 195.54739059 C75.77853801 208.932399 75.82852867 222.31722048 75.84679645 235.70248264 C75.8591462 243.96221282 75.8981489 252.22093415 75.9712482 260.48035377 C76.0188216 266.14412592 76.03320152 271.80737654 76.0215124 277.47133399 C76.01574654 280.73974476 76.02949943 284.0060212 76.07284927 287.27420044 C76.11758261 290.8202017 76.10688956 294.36187454 76.08229065 297.90797424 C76.10850622 298.93814039 76.1347218 299.96830654 76.16173178 301.02968985 C76.08234407 305.2581672 75.97375621 307.91892927 73.07504833 311.13709438 C70.78996879 312.9424701 68.48955326 314.49248557 66 316 C64.56607931 316.95981034 63.13352935 317.92167584 61.703125 318.88671875 C60.22278797 319.8267021 58.73824356 320.76008557 57.25 321.6875 C56.0273645 322.45332397 56.0273645 322.45332397 54.7800293 323.23461914 C41.08151839 331.74420139 26.963879 339.52539271 12.8125 347.25 C11.76618408 347.82355225 10.71986816 348.39710449 9.6418457 348.98803711 C8.67335693 349.51276611 7.70486816 350.03749512 6.70703125 350.578125 C5.41502808 351.28050293 5.41502808 351.28050293 4.09692383 351.99707031 C2 353 2 353 0 353 C0 318.35 0 283.7 0 248 C8.415 246.02 8.415 246.02 17 244 C20.02700204 242.84319971 22.58942465 241.82438083 25.375 240.3125 C26.02799072 239.97001221 26.68098145 239.62752441 27.35375977 239.2746582 C44.4381177 229.99009196 56.30232472 214.83991787 61.9050293 196.28198242 C67.11342329 177.01737245 64.23370168 157.6231766 54.91015625 140.18359375 C44.05081828 122.08469713 28.84294318 112.78849493 9.28833008 106.5690918 C6.24116977 105.81128419 3.10841907 105.44405987 0 105 C0 70.35 0 35.7 0 0 Z " fill="#9A6548" transform="translate(263,80)"/>
<path d="M0 0 C0.66 0 1.32 0 2 0 C2 34.65 2 69.3 2 105 C-2.62 105.99 -7.24 106.98 -12 108 C-31.09439108 115.0649247 -46.76276027 126.61334446 -55.8125 145.375 C-56.57423072 147.23700842 -57.30261185 149.11294971 -58 151 C-58.5878125 152.5159375 -58.5878125 152.5159375 -59.1875 154.0625 C-65.38912047 172.32282694 -62.84706874 192.08488981 -54.8125 209.3125 C-45.39154042 226.91429285 -30.43595665 238.65108936 -11.7421875 245.12890625 C-7.17089061 246.41808671 -2.69955976 247.21674004 2 248 C2 282.65 2 317.3 2 353 C-22.61363839 343.15454464 -46.51145134 328.41947442 -68 313 C-68.85183963 312.53317432 -69.70367926 312.06634865 -70.58133221 311.58537674 C-74.34755234 307.55956635 -73.67591094 303.5928953 -73.60127258 298.26873779 C-73.60554471 297.16276096 -73.60981683 296.05678412 -73.61421841 294.91729283 C-73.62247775 291.19803529 -73.5949128 287.47989646 -73.56762695 283.76074219 C-73.56621712 281.10006156 -73.56678681 278.43945022 -73.56983948 275.77877808 C-73.57246218 270.04379366 -73.55676532 264.30909351 -73.52865028 258.5741806 C-73.48802727 250.28249406 -73.47499433 241.99094506 -73.46871033 233.69916978 C-73.45776523 220.24663421 -73.42448527 206.79425017 -73.37719727 193.34179688 C-73.3313072 180.27344522 -73.29591261 167.20513471 -73.2746582 154.13671875 C-73.27268778 152.92856188 -73.27268778 152.92856188 -73.27067754 151.6959978 C-73.26415239 147.65538136 -73.25783384 143.61476463 -73.25161803 139.5741477 C-73.19977832 106.04932191 -73.11170727 72.52467952 -73 39 C-72.3595575 38.66725067 -71.71911499 38.33450134 -71.05926514 37.9916687 C-68.09619887 36.45133161 -65.13403449 34.90926761 -62.171875 33.3671875 C-61.16495605 32.84406982 -60.15803711 32.32095215 -59.12060547 31.78198242 C-52.45245809 28.30865425 -45.83379635 24.7555654 -39.25 21.125 C-29.44124495 15.73406914 -19.52707656 10.56442978 -9.56933594 5.45556641 C-8.46750977 4.8888623 -7.36568359 4.3221582 -6.23046875 3.73828125 C-5.24457764 3.23337158 -4.25868652 2.72846191 -3.24291992 2.20825195 C-1.09273569 1.18846029 -1.09273569 1.18846029 0 0 Z " fill="#9A6548" transform="translate(247,80)"/>
<path d="M0 0 C10.90963426 9.39834293 19.34819452 23.37726956 20.46777344 37.95996094 C21.38824137 55.98135377 17.93734927 70.38078134 6.1328125 84.5546875 C-5.04834256 96.61567115 -18.96466035 102.69520253 -35.16796875 104.27734375 C-50.26404495 104.72824208 -64.82888492 99.43171688 -76.1875 89.4375 C-77.70847591 87.95877342 -79.2109225 86.46056234 -80.6875 84.9375 C-81.25984375 84.37417969 -81.8321875 83.81085938 -82.421875 83.23046875 C-87.14370245 78.22873916 -89.94115352 72.18361544 -92.6875 65.9375 C-93.03167969 65.18082031 -93.37585938 64.42414063 -93.73046875 63.64453125 C-98.55977936 50.83438808 -96.89199383 33.38123848 -91.43359375 21.12109375 C-83.4804195 5.53980687 -71.44877296 -5.6127965 -54.6875 -11.0625 C-35.4624135 -16.80584345 -15.71862459 -11.91467371 0 0 Z " fill="#F5BA5B" transform="translate(293.6875,211.0625)"/>
<path d="M0 0 C0 82.5 0 165 0 250 C-15.98458411 242.00770794 -27.25906223 221.32962242 -32.86523438 204.96411133 C-46.62221846 162.48339735 -45.32018415 116.42320923 -45.1373291 72.30078125 C-45.11648885 66.72137005 -45.10765569 61.1419393 -45.09765625 55.5625 C-45.07651199 44.70828389 -45.04259826 33.85415172 -45 23 C-44.05793701 22.51644043 -43.11587402 22.03288086 -42.14526367 21.53466797 C-38.59783372 19.71330897 -35.05135009 17.89011366 -31.50512695 16.06640625 C-29.97998763 15.28238856 -28.4546035 14.49884687 -26.92895508 13.71582031 C-18.86268978 9.57547278 -10.81801181 5.42006922 -2.8996582 1.00048828 C-1 0 -1 0 0 0 Z " fill="#9A6548" transform="translate(160,127)"/>
<path d="M0 0 C10.53757511 5.26878756 21.04499633 10.57262704 31.5 16 C32.82416442 16.68630275 34.14838304 17.37250094 35.47265625 18.05859375 C38.64905794 19.70453444 41.82474229 21.35185326 45 23 C45.04708162 34.50393029 45.08224295 46.00783636 45.10362434 57.51184464 C45.11390466 62.85802956 45.12776111 68.20414692 45.15087891 73.55029297 C45.70637071 205.61209188 45.70637071 205.61209188 5 247 C4.43152344 247.61359375 3.86304688 248.2271875 3.27734375 248.859375 C2 250 2 250 0 250 C0 167.5 0 85 0 0 Z " fill="#9A6548" transform="translate(352,127)"/>
<path d="M0 0 C7.47067865 4.90964032 12.40193198 11.43127755 15 20 C16.61466127 30.14711303 15.19821172 39.49803421 9.59765625 48.171875 C4.17979183 55.21907273 -4.23964592 59.68232691 -13 61 C-23.25351422 61.69515351 -32.13829573 58.67190611 -40 52 C-47.22293794 44.38279689 -49.58824764 36.47398799 -49.5559082 26.14453125 C-49.17402557 16.95367519 -45.32990786 9.85785058 -38.75 3.5 C-27.3107777 -5.65137784 -13.01865174 -6.97498541 0 0 Z " fill="#030201" transform="translate(273,228)"/>
<path d="M0 0 C4.73271491 3.41195726 9.46044182 8.07488871 10.6875 13.9375 C10.76262494 20.31238818 9.94621891 24.9689946 5.6875 29.9375 C0.56984075 34.66149316 -4.05112272 36.4817238 -10.96875 36.3203125 C-16.26359618 35.45548762 -20.03554566 32.2480584 -23.6875 28.5 C-26.98115923 23.30615275 -27.7244439 19.11587429 -26.84765625 13.109375 C-25.35488834 7.05113442 -21.05315976 3.54452373 -16.3125 -0.0625 C-11.53581234 -2.45084383 -4.92259935 -1.57894696 0 0 Z " fill="#C69340" transform="translate(264.3125,239.0625)"/>
</svg>
