<?xml version="1.0" encoding="UTF-8"?>
<svg version="1.1" xmlns="http://www.w3.org/2000/svg" width="512" height="512">
<path d="M0 0 C3.14535205 0.85230914 6.06189194 2.07528625 9.04296875 3.3828125 C10.3352816 3.92571426 10.3352816 3.92571426 11.65370178 4.47958374 C14.50455523 5.68049392 17.34564805 6.90295993 20.1875 8.125 C23.25166622 9.42120988 26.31824941 10.71159263 29.38485718 12.00201416 C31.54371206 12.91105978 33.70175819 13.82202816 35.85903931 14.73480225 C48.6023008 20.12162922 61.42735503 25.30574538 74.25 30.5 C87.54989769 35.88786453 100.83334907 41.31134561 114.0625 46.87109375 C115.66354584 47.53987549 115.66354584 47.53987549 117.29693604 48.22216797 C134.5008025 55.48875461 150.11383634 65.15758074 163.78125 77.9375 C165.75737093 79.77445749 167.78954621 81.47811165 169.875 83.1875 C175.33790276 87.94693037 179.83771714 93.6248971 184.46972656 99.17138672 C185.93736432 100.92515296 187.41536009 102.66943843 188.8984375 104.41015625 C193.12943681 109.37867595 197.32100466 114.37332228 201.4375 119.4375 C204.89275219 123.68393695 208.42728457 127.85268733 212 132 C217.09757566 137.92468982 222.12434085 143.88999676 227 150 C227.48726562 150.55945313 227.97453125 151.11890625 228.4765625 151.6953125 C229.625 153.125 229.625 153.125 231 156 C230.78024228 157.40478039 230.50293245 158.80106437 230.1875 160.1875 C229.52012216 163.80864274 229.89292351 164.83155039 231.921875 168.0234375 C234.19933783 170.77478234 236.52837758 173.42238207 239 176 C244.7628969 169.7799213 250.32280121 163.48129374 255.65234375 156.8828125 C258.22815134 153.71984078 260.85701325 150.60678889 263.5 147.5 C266.85465374 143.55365475 270.17222304 139.58357343 273.4375 135.5625 C277.39443418 130.69950576 281.46435942 125.94299797 285.55615234 121.19384766 C289.3521463 116.77908614 293.05222192 112.29399706 296.7265625 107.77734375 C301.080782 102.45801375 305.51595154 97.2101906 310 92 C310.83660156 91.02546875 311.67320312 90.0509375 312.53515625 89.046875 C318.19327205 82.62657244 324.22381653 77.21316878 331 72 C331.91265625 71.27167969 332.8253125 70.54335937 333.765625 69.79296875 C345.10249352 60.9495918 357.23901861 53.99952193 370.44921875 48.34765625 C371.44135376 47.91993927 372.43348877 47.49222229 373.45568848 47.05154419 C384.11074075 42.48231709 394.84407967 38.1060382 405.58990479 33.75558472 C410.28538071 31.85461073 414.97831213 29.94739098 419.67141724 28.04057312 C422.04277261 27.07714097 424.41425199 26.11401397 426.78585815 25.15119934 C437.57526025 20.77018911 448.35261418 16.36015929 459.125 11.9375 C459.91293945 11.61424744 460.70087891 11.29099487 461.51269531 10.95794678 C463.02465492 10.33765463 464.53651473 9.71711916 466.04826355 9.09631348 C467.45122248 8.52032948 468.85445997 7.9450234 470.25801086 7.3704834 C473.35991531 6.09820552 476.44907877 4.80639674 479.52807617 3.47900391 C480.58744385 3.02315918 481.64681152 2.56731445 482.73828125 2.09765625 C483.64102783 1.70199463 484.54377441 1.30633301 485.47387695 0.89868164 C489.57121293 -0.55896731 492.69172561 -0.54708246 497 0 C499.0653248 1.5282759 499.87621549 2.41584113 500.41189575 4.94380188 C500.37606433 10.96225763 499.02132844 15.56168006 496.6171875 21.04296875 C496.25525299 21.90451065 495.89331848 22.76605255 495.52041626 23.65370178 C494.31950608 26.50455523 493.09704007 29.34564805 491.875 32.1875 C490.57879012 35.25166622 489.28840737 38.31824941 487.99798584 41.38485718 C487.08894022 43.54371206 486.17797184 45.70175819 485.26519775 47.85903931 C479.87837078 60.6023008 474.69425462 73.42735503 469.5 86.25 C464.11213547 99.54989769 458.68865439 112.83334907 453.12890625 126.0625 C452.68305176 127.12986389 452.23719727 128.19722778 451.77783203 129.29693604 C444.51264321 146.49749311 434.84601876 162.08380708 422.0859375 175.76171875 C420.13555617 177.85454366 418.28368633 180.00298541 416.4375 182.1875 C412.93325085 186.19463685 409.07543428 189.58690827 405 193 C404.00613281 193.84691406 403.01226562 194.69382813 401.98828125 195.56640625 C395.98412486 200.68102461 389.92027545 205.71421043 383.8046875 210.6953125 C378.48387304 215.06756951 373.24733664 219.54007144 368 224 C360.99045825 229.95769961 353.95726514 235.87441115 346.8203125 241.6796875 C343.64229654 244.29428789 340.50764815 246.95641424 337.375 249.625 C332.35832945 253.89543802 327.25378458 258.02232847 322 262 C323.65185269 265.91725066 326.30421439 268.89091773 329.0625 272.0625 C330.06587484 273.23110957 331.06846857 274.40039022 332.0703125 275.5703125 C332.56821289 276.15071289 333.06611328 276.73111328 333.57910156 277.32910156 C335.56882016 279.66890123 337.50420597 282.05097953 339.4375 284.4375 C342.89274151 288.68392382 346.42697834 292.85296294 350 297 C354.31503363 302.00825522 358.54223907 307.07574246 362.7109375 312.20703125 C369.01989633 319.90482231 375.51785686 327.44804317 382 335 C382.53890869 334.44014404 383.07781738 333.88028809 383.63305664 333.3034668 C386.09880782 330.75417564 388.58037163 328.22084399 391.0625 325.6875 C391.91005859 324.80642578 392.75761719 323.92535156 393.63085938 323.01757812 C400.41529065 316.12836799 405.64919148 312.62861696 415.453125 311.9453125 C422.88107488 312.10480836 428.03603941 315.221906 433.33984375 320.23046875 C437.88226025 325.07215034 439.13457624 329.69796497 439.3125 336.1875 C439.34988281 337.06792969 439.38726562 337.94835937 439.42578125 338.85546875 C437.9420818 349.81306564 430.33606133 356.26610816 422.75 363.5625 C421.61082275 364.67655311 420.47279109 365.7917789 419.3359375 366.90820312 C416.57032014 369.6191757 413.78966355 372.31378701 411 375 C412.5885169 378.82798397 415.02072476 381.31176422 417.90185547 384.25585938 C418.39981125 384.76695755 418.89776703 385.27805573 419.41081238 385.80464172 C421.05705814 387.49022725 422.71116905 389.1677674 424.3671875 390.84375 C425.21905828 391.70784737 425.21905828 391.70784737 426.08813858 392.58940125 C429.09800843 395.64094948 432.11436463 398.68592154 435.13574219 401.72607422 C438.23718952 404.84957862 441.31458058 407.99569522 444.38702202 411.14769745 C446.76899713 413.58227479 449.16887422 415.99861397 451.57370377 418.41059875 C452.7150243 419.56159028 453.84964799 420.71926673 454.97698593 421.88395691 C461.15582052 428.2545057 466.46626416 433.08271375 475.35745239 435.27893066 C484.62978648 437.80906324 491.6843851 445.68857808 496.609375 453.578125 C501.49242521 463.39909116 501.62341969 474.97035973 499.18359375 485.53515625 C495.34661387 495.89633886 488.00166608 503.3727725 478.5546875 508.84375 C468.32035088 513.47580449 455.06224396 514.03532847 444.5 510.0625 C434.89705711 505.32753093 427.3266674 497.82598298 423 488 C422.82901291 487.00589867 422.82901291 487.00589867 422.65457153 485.99171448 C420.84030654 476.75052279 414.15046248 471.2659481 407.67578125 464.9921875 C406.44542707 463.77490906 405.21662412 462.55606093 403.98930359 461.33572388 C400.77417475 458.14716434 397.53858336 454.98020062 394.2980957 451.81744385 C390.98740853 448.57870602 387.69675243 445.31975179 384.40429688 442.0625 C377.95551935 435.68851736 371.48491789 429.33719516 365 423 C361.25594466 424.74360064 358.97530468 426.86163916 356.11328125 429.8671875 C355.1651662 430.84549097 354.2165831 431.82334103 353.26757812 432.80078125 C351.79227966 434.33153472 350.32123343 435.865787 348.85864258 437.40869141 C342.33877655 444.265088 336.61445158 449.90762633 326.99609375 451.49609375 C318.98183989 451.31256122 313.14285898 450.30717069 307.1875 444.6875 C301.48401586 438.43835223 299.77943728 432.37937815 300 424 C301.87437585 414.68117734 306.97092472 409.13596535 313.75 402.8125 C314.63816406 401.95591797 315.52632813 401.09933594 316.44140625 400.21679688 C318.61239711 398.12750998 320.79798191 396.05647505 323 394 C316.7799213 388.2371031 310.48129374 382.67719879 303.8828125 377.34765625 C300.71984078 374.77184866 297.60678889 372.14298675 294.5 369.5 C290.55365475 366.14534626 286.58357343 362.82777696 282.5625 359.5625 C277.70395043 355.60918237 272.9513591 351.54345748 268.20703125 347.45483398 C263.67114526 343.55399701 259.06598953 339.75209431 254.421875 335.98046875 C251.2337135 333.37337539 248.1121233 330.69717352 245 328 C240.85586014 329.70042103 237.75616765 332.64149405 234.4375 335.5625 C233.17664893 336.65855103 231.91492167 337.75359489 230.65234375 338.84765625 C229.72010986 339.65614014 229.72010986 339.65614014 228.76904297 340.48095703 C226.38119681 342.53135433 223.94585215 344.51933221 221.5 346.5 C217.2720752 349.93208013 213.1247211 353.44551171 209 357 C203.98685227 361.31934272 198.91462485 365.55097277 193.77734375 369.72265625 C190.10125706 372.73694393 186.48148918 375.81523278 182.85986328 378.89453125 C178.33737279 382.73261728 173.75463237 386.49002679 169.14453125 390.22265625 C166.96529769 391.97255709 166.96529769 391.97255709 165 394 C165.55461914 394.51796143 166.10923828 395.03592285 166.68066406 395.56958008 C169.2227148 397.96464691 171.73606225 400.38795481 174.25 402.8125 C175.12269531 403.62654297 175.99539062 404.44058594 176.89453125 405.27929688 C183.3393164 411.55189311 187.70300554 417.77527999 188.14306641 426.99853516 C187.92152867 434.39252506 185.36901827 439.47391794 180.32421875 444.75390625 C174.39164064 450.21293046 168.96777962 451.20135852 161.07421875 451.4609375 C150.15899788 449.82434784 143.73878579 442.34114957 136.4375 434.75 C135.32344689 433.61082275 134.2082211 432.47279109 133.09179688 431.3359375 C130.3808243 428.57032014 127.68621299 425.78966355 125 423 C121.17201603 424.5885169 118.68823578 427.02072476 115.74414062 429.90185547 C115.23304245 430.39981125 114.72194427 430.89776703 114.19535828 431.41081238 C112.50977275 433.05705814 110.8322326 434.71116905 109.15625 436.3671875 C108.58018509 436.93510136 108.00412018 437.50301521 107.41059875 438.08813858 C104.35905052 441.09800843 101.31407846 444.11436463 98.27392578 447.13574219 C95.15042138 450.23718952 92.00430478 453.31458058 88.85230255 456.38702202 C86.41772521 458.76899713 84.00138603 461.16887422 81.58940125 463.57370377 C80.43840972 464.7150243 79.28073327 465.84964799 78.11604309 466.97698593 C71.7454943 473.15582052 66.91728625 478.46626416 64.72106934 487.35745239 C62.19093676 496.62978648 54.31142192 503.6843851 46.421875 508.609375 C36.60090884 513.49242521 25.02964027 513.62341969 14.46484375 511.18359375 C3.28860881 507.04478158 -4.96745023 498.69416826 -10 488 C-13.8630365 478.65653109 -13.60735089 465.83746667 -10.0625 456.4375 C-5.30219013 446.87676529 2.19817221 439.31603117 12 435 C12.99410133 434.82901291 12.99410133 434.82901291 14.00828552 434.65457153 C23.24947721 432.84030654 28.7340519 426.15046248 35.0078125 419.67578125 C36.22509094 418.44542707 37.44393907 417.21662412 38.66427612 415.98930359 C41.85283566 412.77417475 45.01979938 409.53858336 48.18255615 406.2980957 C51.42129398 402.98740853 54.68024821 399.69675243 57.9375 396.40429688 C64.31148264 389.95551935 70.66280484 383.48491789 77 377 C75.25639936 373.25594466 73.13836084 370.97530468 70.1328125 368.11328125 C69.15450903 367.1651662 68.17665897 366.2165831 67.19921875 365.26757812 C65.66846528 363.79227966 64.134213 362.32123343 62.59130859 360.85864258 C55.734912 354.33877655 50.09237367 348.61445158 48.50390625 338.99609375 C48.68743878 330.98183989 49.69282931 325.14285898 55.3125 319.1875 C61.22752818 313.77771381 67.03132258 311.83545504 75 312 C82.82581891 313.111219 87.55722075 316.50158758 93 322 C94.12821343 323.11658589 95.25718371 324.23240732 96.38671875 325.34765625 C99.61212231 328.5446787 102.81071855 331.76696317 106 335 C111.7628969 328.7799213 117.32280121 322.48129374 122.65234375 315.8828125 C125.22815134 312.71984078 127.85701325 309.60678889 130.5 306.5 C133.85465374 302.55365475 137.17222304 298.58357343 140.4375 294.5625 C143.89277825 290.31603103 147.42804964 286.14799894 151 282 C152.51292866 280.23547994 154.02498845 278.47022026 155.53662109 276.70458984 C156.49758498 275.58522884 157.46136927 274.46828177 158.42822266 273.35400391 C159.7324963 271.84835895 161.0229031 270.3307346 162.3125 268.8125 C163.05113281 267.95269531 163.78976563 267.09289062 164.55078125 266.20703125 C165.26814453 265.11455078 165.26814453 265.11455078 166 264 C164.76145489 260.28436466 163.30982822 259.40541409 160.25 257 C159.25484375 256.2059375 158.2596875 255.411875 157.234375 254.59375 C156.70521484 254.17222656 156.17605469 253.75070313 155.63085938 253.31640625 C152.87810278 251.09442069 150.19169337 248.79524241 147.5 246.5 C143.53156357 243.12647908 139.53980846 239.78821619 135.5 236.5 C128.69586214 230.95807902 122.02024122 225.26691077 115.33398438 219.58398438 C109.75714362 214.84596338 104.17417216 210.12157211 98.5 205.5 C92.2630859 200.41437673 86.09951004 195.24942381 80 190 C79.02546875 189.16339844 78.0509375 188.32679688 77.046875 187.46484375 C70.62657244 181.80672795 65.21316878 175.77618347 60 169 C59.27167969 168.08734375 58.54335937 167.1746875 57.79296875 166.234375 C48.90604176 154.841677 41.95307967 142.65092619 36.27734375 129.375 C35.84736084 128.37720016 35.41737793 127.37940033 34.97436523 126.35136414 C30.34569459 115.56112462 25.91170889 104.69278074 21.5 93.8125 C20.64020526 91.69819639 19.78009144 89.5840225 18.91967773 87.4699707 C17.1562763 83.13694165 15.39395515 78.8034757 13.63232422 74.46972656 C9.84380189 65.15375698 6.03713713 55.84521191 2.22851562 46.53744507 C1.09321328 43.76256859 -0.04134549 40.98738906 -1.17578125 38.2121582 C-1.52855133 37.34981567 -1.88132141 36.48747314 -2.24478149 35.59899902 C-2.92095203 33.94565365 -3.59641458 32.29201852 -4.27108765 30.63806152 C-5.68503454 27.17801407 -7.1091028 23.72471186 -8.59228516 20.29370117 C-9.04780762 19.23513916 -9.50333008 18.17657715 -9.97265625 17.0859375 C-10.3581665 16.20856934 -10.74367676 15.33120117 -11.14086914 14.42724609 C-12.57295315 10.38127304 -12.53976393 7.25064095 -12 3 C-8.84083546 -1.26932131 -4.86876618 -0.61783148 0 0 Z " fill="#010101" transform="translate(12,0)"/>
<path d="M0 0 C-1.92954082 5.99813623 -4.06790897 11.86278307 -6.44921875 17.6953125 C-6.77887634 18.50903824 -7.10853394 19.32276398 -7.44818115 20.16114807 C-8.52507398 22.81694521 -9.60610838 25.47103184 -10.6875 28.125 C-11.44617928 29.99188876 -12.20472208 31.858833 -12.96313477 33.72583008 C-14.91992156 38.53983575 -16.88095829 43.35209769 -18.84350586 48.16375732 C-19.96371636 50.91101622 -21.08263741 53.65879663 -22.20117188 56.40673828 C-26.49101865 66.94193374 -30.80965855 77.46476602 -35.16271973 87.97399902 C-35.94122931 89.85779018 -36.7144829 91.74375111 -37.48730469 93.62988281 C-49.6297681 123.19911123 -67.04630958 146.99147306 -92.29296875 166.86328125 C-95.42660056 169.33672512 -98.46312812 171.90951811 -101.5 174.5 C-105.44583722 177.855233 -109.41644566 181.17223855 -113.4375 184.4375 C-117.68392382 187.89274151 -121.85296294 191.42697834 -126 195 C-131.01319488 199.31928956 -136.0853732 203.55097119 -141.22265625 207.72265625 C-144.34396267 210.28203972 -147.42453424 212.88589916 -150.5 215.5 C-154.44650481 218.85447127 -158.41642072 222.17221829 -162.4375 225.4375 C-166.68392382 228.89274151 -170.85296294 232.42697834 -175 236 C-180.01319488 240.31928956 -185.0853732 244.55097119 -190.22265625 248.72265625 C-193.34396267 251.28203972 -196.42453424 253.88589916 -199.5 256.5 C-203.44650481 259.85447127 -207.41642072 263.17221829 -211.4375 266.4375 C-215.68392382 269.89274151 -219.85296294 273.42697834 -224 277 C-229.01319488 281.31928956 -234.0853732 285.55097119 -239.22265625 289.72265625 C-242.34396367 292.28204054 -245.4245003 294.88593791 -248.5 297.5 C-253.34954051 301.62107792 -258.25160964 305.66991483 -263.1875 309.6875 C-266.31800681 312.26147227 -269.41134869 314.8761215 -272.5 317.5 C-274.66517774 319.33509854 -276.83188473 321.16837307 -279 323 C-279.79929932 323.67554932 -279.79929932 323.67554932 -280.61474609 324.36474609 C-282.13432586 325.64456474 -283.66076838 326.91622152 -285.1875 328.1875 C-286.06792969 328.92355469 -286.94835937 329.65960938 -287.85546875 330.41796875 C-290 332 -290 332 -292 332 C-292.50870533 328.813827 -293.00536581 325.62588525 -293.5 322.4375 C-293.64308594 321.54224609 -293.78617188 320.64699219 -293.93359375 319.72460938 C-294.06894531 318.84482422 -294.20429688 317.96503906 -294.34375 317.05859375 C-294.46943359 316.25736084 -294.59511719 315.45612793 -294.72460938 314.63061523 C-294.81548828 313.76251221 -294.90636719 312.89440918 -295 312 C-295.25143469 310.45382366 -295.25143469 310.45382366 -295.50794888 308.87641144 C-294.73811397 303.00141699 -291.29223162 300.36475178 -287.14820862 296.34680176 C-286.30361885 295.50046441 -285.45902907 294.65412705 -284.58884567 293.78214312 C-282.24289578 291.43827777 -279.88229772 289.11117628 -277.51426017 286.78975511 C-274.96365451 284.28172149 -272.43334703 281.75335855 -269.90063477 279.22727966 C-265.50970343 274.85314389 -261.10648616 270.49170004 -256.69500923 266.13829041 C-250.31267529 259.83940559 -243.95261171 253.51840772 -237.5983498 247.19121915 C-227.28298047 236.92044493 -216.95427131 226.66320396 -206.61499023 216.41650391 C-205.99619529 215.80324133 -205.37740034 215.18997876 -204.73985403 214.55813247 C-201.60439777 211.45079821 -198.46879299 208.34361387 -195.33312988 205.23648834 C-189.05952531 199.01985468 -182.78702118 192.80211138 -176.51538086 186.58349609 C-175.89763818 185.9709849 -175.2798955 185.3584737 -174.64343334 184.72740155 C-164.34637816 174.51677798 -154.06114895 164.2943167 -143.78391021 154.06374884 C-137.44357772 147.75342301 -131.09248787 141.45429846 -124.72716021 135.16918457 C-120.36713123 130.86282786 -116.01765679 126.54600477 -111.67635459 122.22077048 C-109.17048799 119.72496635 -106.65987651 117.2344563 -104.13591576 114.75694084 C-101.40063789 112.07182881 -98.68879203 109.36381605 -95.97877502 106.65319824 C-95.17626157 105.87293667 -94.37374811 105.0926751 -93.54691607 104.28876925 C-90.18318262 100.88954292 -88.22804964 98.8280921 -86.93882656 94.14667511 C-86.84436851 90.97068032 -86.84436851 90.97068032 -88 88 C-91.00383208 87.19540212 -92.95805906 86.71444059 -96 87 C-97.97387843 88.20107372 -97.97387843 88.20107372 -99.75303364 89.96572018 C-100.44735261 90.60992031 -101.14167157 91.25412044 -101.85703051 91.91784179 C-105.43654387 95.3957789 -108.96612505 98.91355261 -112.45146179 102.48597717 C-113.26427433 103.3141633 -114.07708687 104.14234943 -114.9145301 104.99563211 C-117.14953395 107.2735378 -119.38209067 109.55381128 -121.61382592 111.83491838 C-125.55463463 115.86047679 -129.50330947 119.87833384 -133.45021518 123.89791273 C-135.03152964 125.50852044 -136.61250761 127.11945796 -138.19345891 128.73042214 C-145.89582203 136.57739285 -153.61568695 144.40689509 -161.34590149 152.22642517 C-161.90629555 152.79332562 -162.46668962 153.36022606 -163.04406532 153.94430531 C-168.24360473 159.20385473 -173.44445369 164.46210786 -178.64673173 169.71894848 C-182.20724152 173.31682564 -185.76714956 176.91529714 -189.32641602 180.5144043 C-190.21303757 181.41092382 -190.21303757 181.41092382 -191.11757068 182.32555484 C-200.69479921 192.01206093 -210.23209191 201.73700658 -219.75576236 211.47614116 C-229.55236362 221.49249053 -239.39259932 231.46441857 -249.2738803 241.39724535 C-255.35812018 247.51605191 -261.4059459 253.66670838 -267.41076574 259.86349099 C-271.53212372 264.10998494 -275.6951432 268.31255097 -279.89270469 272.48372317 C-282.31074315 274.88906075 -284.69715817 277.31191581 -287.05189323 279.7801609 C-301.89730423 295.3059019 -301.89730423 295.3059019 -310.74222755 295.69338799 C-316.0028203 295.43343244 -320.9252962 294.33855453 -326 293 C-327.99653717 292.64651671 -329.99517187 292.30294436 -332 292 C-330.34814194 288.08273661 -327.69575715 285.10911994 -324.9375 281.9375 C-323.93544131 280.77018032 -322.93414971 279.60220174 -321.93359375 278.43359375 C-321.43585449 277.85335449 -320.93811523 277.27311523 -320.42529297 276.67529297 C-318.41474314 274.3120876 -316.45585357 271.90856471 -314.5 269.5 C-310.75147354 264.8946675 -306.92915754 260.35795556 -303.08374023 255.83374023 C-300.2045468 252.44045891 -297.36795763 249.01732214 -294.5625 245.5625 C-290.60556582 240.69950576 -286.53564058 235.94299797 -282.44384766 231.19384766 C-278.64836633 226.77968234 -274.94722087 222.29666802 -271.27734375 217.77734375 C-268.25580056 214.09240857 -265.16964049 210.46431679 -262.08349609 206.83349609 C-259.20442157 203.44026525 -256.36788508 200.0172328 -253.5625 196.5625 C-249.60556582 191.69950576 -245.53564058 186.94299797 -241.44384766 182.19384766 C-237.64836633 177.77968234 -233.94722087 173.29666802 -230.27734375 168.77734375 C-227.71795946 165.65603633 -225.11406209 162.5754997 -222.5 159.5 C-219.12716411 155.53096457 -215.78823355 151.53982979 -212.5 147.5 C-206.95807902 140.69586214 -201.26691077 134.02024122 -195.58398438 127.33398438 C-190.09729486 120.87593074 -184.66222871 114.38502384 -179.3125 107.8125 C-176.27313244 104.11597189 -173.17881472 100.467711 -170.07275391 96.82714844 C-167.26192381 93.52430129 -164.55308064 90.1622263 -161.875 86.75 C-151.25136797 73.77399231 -139.12163325 62.08464153 -125 53 C-124.42088867 52.62504395 -123.84177734 52.25008789 -123.24511719 51.86376953 C-100.08924942 37.20268668 -72.45188611 28.46508334 -47.1171875 18.27354431 C-40.78842695 15.72578227 -34.46841565 13.15716636 -28.15234375 10.578125 C-26.42572243 9.87404949 -24.699079 9.1700282 -22.97241211 8.46606445 C-20.50153204 7.45864626 -18.03108414 6.45023957 -15.56204224 5.43832397 C-13.31344355 4.51698503 -11.06317736 3.59984058 -8.8125 2.68359375 C-7.8140934 2.27243317 -7.8140934 2.27243317 -6.79551697 1.85296631 C-2.22766461 0 -2.22766461 0 0 0 Z " fill="#EAE8EA" transform="translate(490,22)"/>
<path d="M0 0 C8.17853779 2.13592918 15.86468325 5.31537591 23.6257019 8.6083374 C27.57793636 10.28489344 31.53735696 11.94433835 35.49609375 13.60546875 C36.75490105 14.13433685 36.75490105 14.13433685 38.03913879 14.67388916 C49.21308462 19.36056122 60.43933358 23.92047395 71.66424561 28.48342896 C81.5551349 32.50453581 91.42831969 36.5650995 101.2578125 40.734375 C102.10323105 41.08946136 102.9486496 41.44454773 103.81968689 41.81039429 C129.03539368 52.57795463 150.11553457 70.87171052 166.93359375 92.36328125 C169.37619602 95.48002328 171.92991917 98.48833057 174.5 101.5 C178.62095917 106.34722581 182.66798364 111.24848794 186.68359375 116.18359375 C189.7369095 119.89597259 192.84405312 123.56140602 195.97558594 127.20800781 C198.89131767 130.62029625 201.58456461 134.1359377 204.25 137.75 C206.86010889 141.05007619 207.60881874 141.87612594 211.75 143.1875 C214.38374676 143.03555307 216.48511903 142.68339157 219 142 C220.70363175 143.90423514 222.38711578 145.82117747 224.0625 147.75 C224.54783203 148.28882813 225.03316406 148.82765625 225.53320312 149.3828125 C226.91015625 150.984375 226.91015625 150.984375 229 154 C228.5011242 158.46916388 225.50597946 161.21160513 222.625 164.4375 C221.53199723 165.68440969 220.43956256 166.93181754 219.34765625 168.1796875 C218.79094238 168.81229492 218.23422852 169.44490234 217.66064453 170.09667969 C214.63282318 173.56696714 211.68885223 177.10853076 208.74267578 180.64819336 C205.9796748 183.93755612 203.05103866 186.97881432 200 190 C199.48077186 189.4752411 198.96154371 188.9504822 198.42658138 188.40982151 C185.79007619 175.64079538 173.13698544 162.88842382 160.46523952 150.15436649 C154.33766242 143.99585489 148.21582005 137.8318393 142.10717773 131.65454102 C136.78270258 126.27025196 131.44775476 120.89660268 126.09998089 115.53544992 C123.26884879 112.69649754 120.44323144 109.85250849 117.63009453 106.99571419 C114.98121617 104.30606381 112.31854256 101.63088301 109.644701 98.96605492 C108.66675196 97.98645731 107.69392088 97.00171883 106.72673035 96.0114975 C101.24697653 89.98355243 101.24697653 89.98355243 94.02137756 86.81394958 C90.94762552 86.77029324 90.94762552 86.77029324 88.5 88.5 C86.86482816 91.2252864 86.59025472 92.77901979 87.14021111 95.8992939 C89.19546416 100.92085519 93.74995119 104.51905306 97.56860352 108.24975586 C98.58480547 109.26426425 99.59968583 110.2800979 100.61334229 111.29714966 C103.36232009 114.04784631 106.12937977 116.77967314 108.90009046 119.50845408 C111.7949488 122.36576044 114.67278252 125.24011024 117.55247498 128.11268616 C123.0051807 133.54675624 128.47299747 138.96535302 133.94642633 144.37854058 C140.17823507 150.54324454 146.39297985 156.72502991 152.60635865 162.90830028 C165.38536112 175.62461675 178.18560726 188.31935252 191 201 C186.63449834 207.59504503 186.63449834 207.59504503 184.23046875 210.3671875 C183.73708008 210.93937012 183.24369141 211.51155273 182.73535156 212.10107422 C182.22456055 212.68646973 181.71376953 213.27186523 181.1875 213.875 C180.65995117 214.4848877 180.13240234 215.09477539 179.58886719 215.72314453 C178.06291749 217.48533108 176.53236872 219.24339484 175 221 C174.22785156 221.886875 173.45570313 222.77375 172.66015625 223.6875 C171.11073621 225.46188696 169.55819202 227.2333175 168 229 C162.45581893 224.97775099 157.19765097 220.68192724 151.98925781 216.23876953 C148.54702938 213.30368159 145.07590647 210.41260849 141.5625 207.5625 C136.69950576 203.60556582 131.94299797 199.53564058 127.19384766 195.44384766 C122.77968234 191.64836633 118.29666802 187.94722087 113.77734375 184.27734375 C110.09524075 181.25812286 106.46937107 178.17498055 102.84228516 175.09008789 C99.36737521 172.14028692 95.85537977 169.24328348 92.3125 166.375 C87.05054071 162.0773536 81.95825194 157.64517582 77 153 C76.49710449 152.53110352 75.99420898 152.06220703 75.47607422 151.57910156 C55.85768563 133.13650322 44.19899924 111.01489706 34.25 86.25 C33.45095697 84.28466564 32.65088068 82.31975111 31.84985352 80.35522461 C30.13968176 76.15630869 28.43614146 71.95478156 26.73681641 67.75146484 C24.08376064 61.19598486 21.40297832 54.65200159 18.71728897 48.10984421 C16.94856202 43.79997285 15.1834977 39.48860031 13.41809082 35.17736816 C12.43550702 32.77838606 11.45219659 30.37970144 10.46813965 27.98132324 C9.08828201 24.61537274 7.71339547 21.24743408 6.33984375 17.87890625 C5.92925217 16.87982742 5.51866058 15.8807486 5.09562683 14.85139465 C3.10166485 9.94747466 1.32493428 5.12707399 0 0 Z " fill="#FDDE9B" transform="translate(22,22)"/>
<path d="M0 0 C-1.92954082 5.99813623 -4.06790897 11.86278307 -6.44921875 17.6953125 C-6.77887634 18.50903824 -7.10853394 19.32276398 -7.44818115 20.16114807 C-8.52507398 22.81694521 -9.60610838 25.47103184 -10.6875 28.125 C-11.44617928 29.99188876 -12.20472208 31.858833 -12.96313477 33.72583008 C-14.91992156 38.53983575 -16.88095829 43.35209769 -18.84350586 48.16375732 C-19.96371636 50.91101622 -21.08263741 53.65879663 -22.20117188 56.40673828 C-26.49101865 66.94193374 -30.80965855 77.46476602 -35.16271973 87.97399902 C-35.94122931 89.85779018 -36.7144829 91.74375111 -37.48730469 93.62988281 C-49.6297681 123.19911123 -67.04630958 146.99147306 -92.29296875 166.86328125 C-95.42660056 169.33672512 -98.46312812 171.90951811 -101.5 174.5 C-105.44583722 177.855233 -109.41644566 181.17223855 -113.4375 184.4375 C-117.68392382 187.89274151 -121.85296294 191.42697834 -126 195 C-131.01319488 199.31928956 -136.0853732 203.55097119 -141.22265625 207.72265625 C-144.34396267 210.28203972 -147.42453424 212.88589916 -150.5 215.5 C-154.44650481 218.85447127 -158.41642072 222.17221829 -162.4375 225.4375 C-166.68392382 228.89274151 -170.85296294 232.42697834 -175 236 C-180.01319488 240.31928956 -185.0853732 244.55097119 -190.22265625 248.72265625 C-193.34396267 251.28203972 -196.42453424 253.88589916 -199.5 256.5 C-203.44650481 259.85447127 -207.41642072 263.17221829 -211.4375 266.4375 C-215.68392382 269.89274151 -219.85296294 273.42697834 -224 277 C-229.01319488 281.31928956 -234.0853732 285.55097119 -239.22265625 289.72265625 C-242.34396367 292.28204054 -245.4245003 294.88593791 -248.5 297.5 C-253.34954051 301.62107792 -258.25160964 305.66991483 -263.1875 309.6875 C-266.31800681 312.26147227 -269.41134869 314.8761215 -272.5 317.5 C-274.66517774 319.33509854 -276.83188473 321.16837307 -279 323 C-279.53286621 323.45036621 -280.06573242 323.90073242 -280.61474609 324.36474609 C-282.13432586 325.64456474 -283.66076838 326.91622152 -285.1875 328.1875 C-286.06792969 328.92355469 -286.94835937 329.65960938 -287.85546875 330.41796875 C-290 332 -290 332 -292 332 C-292.36447158 329.60533136 -292.7168294 327.2098929 -293.0625 324.8125 C-293.2181543 323.80219727 -293.2181543 323.80219727 -293.37695312 322.77148438 C-294.4074404 315.48700539 -294.4074404 315.48700539 -293 312 C-290.91751196 309.89991347 -288.91553927 308.09056918 -286.625 306.25 C-285.99013672 305.72341797 -285.35527344 305.19683594 -284.70117188 304.65429688 C-282.81053293 303.09048195 -280.90727821 301.54345029 -279 300 C-278.04867187 299.22140625 -277.09734375 298.4428125 -276.1171875 297.640625 C-274.36203869 296.20507045 -272.60418897 294.77281222 -270.84375 293.34375 C-267.52313406 290.60697862 -264.25956291 287.80893615 -261 285 C-255.98685227 280.68065728 -250.91462485 276.44902723 -245.77734375 272.27734375 C-242.65603733 269.71796028 -239.57546576 267.11410084 -236.5 264.5 C-232.55349519 261.14552873 -228.58357928 257.82778171 -224.5625 254.5625 C-220.31607618 251.10725849 -216.14703706 247.57302166 -212 244 C-206.98403597 239.67832458 -201.90824892 235.44520959 -196.76953125 231.26953125 C-191.45558334 226.91494206 -186.23473234 222.44921565 -181 218 C-173.98765442 212.0399173 -166.95039195 206.12241205 -159.8125 200.3125 C-156.1190609 197.2756723 -152.47701514 194.18039045 -148.83374023 191.08374023 C-145.44045891 188.2045468 -142.01732214 185.36795763 -138.5625 182.5625 C-134.31607618 179.10725849 -130.14703706 175.57302166 -126 172 C-120.98759127 167.68138778 -115.91468628 163.45203532 -110.78125 159.27734375 C-105.46145821 154.92139064 -100.21603352 150.47945626 -95 146 C-94.11054688 145.236875 -93.22109375 144.47375 -92.3046875 143.6875 C-68.18028065 122.51247204 -57.01071233 95.66761658 -45.08416748 66.63751221 C-43.88745454 63.72620463 -42.68817775 60.81595989 -41.48876953 57.90576172 C-39.21306589 52.38170437 -36.94305386 46.85533541 -34.67687988 41.32736206 C-33.77103377 39.11824272 -32.864222 36.90951908 -31.9564209 34.70120239 C-30.67153295 31.5731915 -29.39172021 28.44315126 -28.11328125 25.3125 C-27.7273732 24.37514511 -27.34146515 23.43779022 -26.94386292 22.47203064 C-25.39599749 18.6688339 -23.95053733 15.0118714 -23.02416992 11.00756836 C-22 8 -22 8 -19.96875 6.47094727 C-19.1540625 6.17244873 -18.339375 5.8739502 -17.5 5.56640625 C-16.613125 5.22802734 -15.72625 4.88964844 -14.8125 4.54101562 C-13.884375 4.21810547 -12.95625 3.89519531 -12 3.5625 C-11.071875 3.21251953 -10.14375 2.86253906 -9.1875 2.50195312 C-2.45034247 0 -2.45034247 0 0 0 Z " fill="#D9D6D9" transform="translate(490,22)"/>
<path d="M0 0 C8.17853779 2.13592918 15.86468325 5.31537591 23.6257019 8.6083374 C27.57793636 10.28489344 31.53735696 11.94433835 35.49609375 13.60546875 C36.75490105 14.13433685 36.75490105 14.13433685 38.03913879 14.67388916 C49.21308462 19.36056122 60.43933358 23.92047395 71.66424561 28.48342896 C81.5551349 32.50453581 91.42831969 36.5650995 101.2578125 40.734375 C102.10323105 41.08946136 102.9486496 41.44454773 103.81968689 41.81039429 C129.03539368 52.57795463 150.11553457 70.87171052 166.93359375 92.36328125 C169.37619602 95.48002328 171.92991917 98.48833057 174.5 101.5 C178.62095917 106.34722581 182.66798364 111.24848794 186.68359375 116.18359375 C189.7369095 119.89597259 192.84405312 123.56140602 195.97558594 127.20800781 C198.89131767 130.62029625 201.58456461 134.1359377 204.25 137.75 C206.86010889 141.05007619 207.60881874 141.87612594 211.75 143.1875 C214.38374676 143.03555307 216.48511903 142.68339157 219 142 C220.70363175 143.90423514 222.38711578 145.82117747 224.0625 147.75 C224.54783203 148.28882813 225.03316406 148.82765625 225.53320312 149.3828125 C226.91015625 150.984375 226.91015625 150.984375 229 154 C228.67003133 157.17325747 227.45154098 158.98453983 225.3828125 161.34765625 C224.85816406 161.95287109 224.33351562 162.55808594 223.79296875 163.18164062 C223.24253906 163.80232422 222.69210938 164.42300781 222.125 165.0625 C221.58230469 165.68705078 221.03960937 166.31160156 220.48046875 166.95507812 C218.06284125 169.72441427 215.62081141 172.42039632 213 175 C207.78688808 168.87093944 202.57933722 162.74085535 197.5 156.5 C193.75147354 151.8946675 189.92915754 147.35795556 186.08374023 142.83374023 C183.2045468 139.44045891 180.36795763 136.01732214 177.5625 132.5625 C174.10725849 128.31607618 170.57302166 124.14703706 167 120 C163.42697834 115.85296294 159.89274151 111.68392382 156.4375 107.4375 C145.95840637 94.5750746 135.77983487 82.26598865 122.3125 72.375 C121.61890381 71.86066406 120.92530762 71.34632812 120.21069336 70.81640625 C107.82924842 61.97151736 94.04483162 56.12287926 80 50.5 C78.31118395 49.81691946 76.6227144 49.1329817 74.93457031 48.44824219 C71.41921414 47.0229372 67.90239574 45.60132316 64.38476562 44.18164062 C58.97103785 41.99281915 53.57014193 39.77351004 48.171875 37.546875 C47.29301636 37.18464844 46.41415771 36.82242188 45.50866699 36.44921875 C42.09570573 35.04240001 38.68282782 33.63538632 35.27099609 32.22583008 C32.92633511 31.25777468 30.5806609 30.29223475 28.234375 29.328125 C27.50947876 29.02946533 26.78458252 28.73080566 26.03771973 28.4230957 C21.078343 26.39573348 16.0769049 24.56316931 10.97753906 22.91308594 C6.50473423 20.84786494 5.13402904 14.74569105 3.375 10.4375 C3.05015625 9.65697266 2.7253125 8.87644531 2.390625 8.07226562 C2.08382813 7.32525391 1.77703125 6.57824219 1.4609375 5.80859375 C1.18040527 5.12595459 0.89987305 4.44331543 0.61083984 3.73999023 C0 2 0 2 0 0 Z " fill="#FDCF8C" transform="translate(22,22)"/>
<path d="M0 0 C2.2109375 1.96875 2.2109375 1.96875 4.375 4.5 C5.14457031 5.39460938 5.91414063 6.28921875 6.70703125 7.2109375 C9.88745693 11.0794621 12.99206124 14.99586287 16 19 C15.60167969 19.45890625 15.20335937 19.9178125 14.79296875 20.390625 C13.70170987 21.65446741 12.6172961 22.92424585 11.5390625 24.19921875 C10.41350348 25.51617994 9.24864365 26.79983096 8.0625 28.0625 C6.47333204 30.96039451 7.12476795 32.90302504 8 36 C9.96346886 38.34609837 9.96346886 38.34609837 13.57470703 38.62866211 C19.64557114 38.45022787 22.86661119 34.10915725 26.8046875 29.94140625 C27.60987823 29.12252426 28.41506897 28.30364227 29.24465942 27.45994568 C31.80760867 24.84569138 34.34154703 22.2053193 36.875 19.5625 C39.43574528 16.9295298 42.00203931 14.30207829 44.5696106 11.67576599 C46.16418456 10.0405257 47.7535941 8.40023081 49.33737183 6.75453186 C50.05216705 6.01383957 50.76696228 5.27314728 51.50341797 4.51000977 C52.13214813 3.85492935 52.7608783 3.19984894 53.40866089 2.5249176 C55.60279522 0.42236508 56.76005812 0.02666021 59.8125 -0.3125 C63.8794044 0.08621612 65.35296205 0.88583771 68 4 C68.67715046 7.3857523 68.91482933 8.81486348 68 12 C66.69987202 13.85612583 66.69987202 13.85612583 64.99421692 15.71644592 C64.35759943 16.41284243 63.72098194 17.10923893 63.06507301 17.82673836 C59.54278507 21.53355804 55.96293713 25.17590317 52.3425293 28.78686523 C51.50591263 29.62523422 50.66929596 30.46360321 49.80732727 31.32737732 C47.06545301 34.07362218 44.31997404 36.81622964 41.57421875 39.55859375 C39.66050162 41.47253394 37.74738342 43.3870725 35.83418274 45.30152893 C31.83745705 49.30006641 27.83864383 53.29650707 23.83862305 57.29174805 C19.21335812 61.91154987 14.59173669 66.5349732 9.97194737 71.16025013 C5.99657638 75.14015388 2.01926671 79.11811234 -1.95968121 83.09444004 C-4.33270735 85.46590717 -6.70505248 87.83804494 -9.07564735 90.21194267 C-11.71119302 92.8500152 -14.34990084 95.48488261 -16.98950195 98.11889648 C-17.7754776 98.90689636 -18.56145325 99.69489624 -19.37124634 100.5067749 C-20.0874968 101.22020554 -20.80374725 101.93363617 -21.54170227 102.66868591 C-22.16496053 103.29156714 -22.78821878 103.91444838 -23.43036366 104.5562048 C-26.37025388 107.26039766 -29.07317956 107.4012083 -33.0234375 107.34375 C-35 107 -35 107 -37.5 104.875 C-39.3440701 101.3405323 -39.84682469 99.92618718 -39 96 C-33.06861544 87.51562903 -24.46058523 80.38580499 -17.125 73.125 C-14.47891394 70.5054633 -11.83613587 67.88265329 -9.1953125 65.2578125 C-8.58809357 64.65889191 -7.98087463 64.05997131 -7.35525513 63.44290161 C-3.15314761 59.44652605 -3.15314761 59.44652605 -1.75 54.0625 C-1.77674522 51.08755559 -1.77674522 51.08755559 -3.0625 49.125 C-6.30724958 47.24095186 -8.31547364 47.38591227 -12 48 C-14.65430029 50.07190042 -16.83901506 52.42520944 -19 55 C-23.71249579 51.9813967 -28.03358526 48.66650705 -32.3125 45.0625 C-32.94478516 44.55009766 -33.57707031 44.03769531 -34.22851562 43.50976562 C-34.82986328 43.00251953 -35.43121094 42.49527344 -36.05078125 41.97265625 C-36.59387939 41.52156494 -37.13697754 41.07047363 -37.6965332 40.60571289 C-39.94935864 37.83050538 -40.0605904 35.02101909 -39.85400391 31.53979492 C-39.72944824 30.69521729 -39.60489258 29.85063965 -39.4765625 28.98046875 C-39.3425 28.04009766 -39.2084375 27.09972656 -39.0703125 26.13085938 C-38.84988281 24.67389648 -38.84988281 24.67389648 -38.625 23.1875 C-38.34602357 21.26437084 -38.0673723 19.34119449 -37.7890625 17.41796875 C-37.65274414 16.50063965 -37.51642578 15.58331055 -37.37597656 14.63818359 C-37.030791 12.21605688 -36.73734408 9.79403323 -36.4609375 7.36328125 C-36 4 -36 4 -35 3 C-30.81418255 2.25446999 -26.59598724 1.72129631 -22.38183594 1.16064453 C-20.27143428 0.87787198 -18.16316065 0.58192261 -16.0546875 0.28515625 C-14.70844308 0.10335212 -13.36209177 -0.07766251 -12.015625 -0.2578125 C-10.79133789 -0.4242627 -9.56705078 -0.59071289 -8.30566406 -0.76220703 C-5.20949167 -0.98493021 -2.95562478 -0.89948093 0 0 Z " fill="#FCDE76" transform="translate(367,328)"/>
<path d="M0 0 C1.80407047 1.29079723 1.80407047 1.29079723 3.67945862 2.99613953 C4.38041216 3.6333663 5.0813657 4.27059307 5.80356026 4.92712975 C9.559464 8.47173012 13.23172195 12.09290144 16.87866211 15.74926758 C17.72678467 16.59563782 18.57490723 17.44200806 19.44873047 18.31402588 C21.74971531 20.611391 24.04847126 22.91095572 26.34605098 25.21172547 C28.75837478 27.62659932 31.17315812 30.03901182 33.58753967 32.451828 C37.63315565 36.49563206 41.67667458 40.54152398 45.71899414 44.58862305 C50.39332761 49.26841939 55.07128238 53.94457271 59.75109094 58.61889344 C63.77770341 62.64097319 67.80237067 66.6649916 71.82540709 70.69064826 C74.22481985 73.09162008 76.62490344 75.49191082 79.02674675 77.89045143 C81.69595218 80.55713006 84.36195283 83.22697099 87.02709961 85.89770508 C87.82445023 86.69303146 88.62180084 87.48835785 89.4433136 88.30778503 C90.16515839 89.03244965 90.88700317 89.75711426 91.63072205 90.5037384 C92.26097762 91.134371 92.8912332 91.7650036 93.54058743 92.41474628 C95.56934611 94.61843926 95.97781622 95.800346 96.3125 98.8125 C95.91034486 102.91448247 95.18026445 104.36270753 92 107 C88.85441862 107.84652177 86.16300379 107.74680107 83 107 C79.31415518 104.6437171 76.40010002 101.63029897 73.34936523 98.51391602 C72.43121536 97.61153702 71.51306549 96.70915802 70.5670929 95.7794342 C68.05880457 93.31205058 65.57967555 90.81719379 63.10611987 88.31504941 C60.50912037 85.69519831 57.89015746 83.09745102 55.27467346 80.49607849 C50.88676662 76.12452679 46.51813402 71.73438467 42.15991211 67.33325195 C37.12716676 62.2515282 32.06281518 57.20304355 26.98082584 52.17060333 C22.61156176 47.8422356 18.2601497 43.49650624 13.92306477 39.13589424 C11.33565601 36.53448343 8.74262072 33.93946566 6.13332939 31.35998726 C3.22461087 28.48219617 0.35420835 25.56888533 -2.51391602 22.65063477 C-3.81116104 21.38071686 -3.81116104 21.38071686 -5.13461304 20.08514404 C-11.50372679 13.50824904 -11.50372679 13.50824904 -11.6280365 8.05699158 C-11.39193437 5.15449776 -10.99338473 3.98915095 -9.4375 1.4375 C-5.88256781 -0.65899847 -4.08015234 -0.74802793 0 0 Z " fill="#FCDE75" transform="translate(88,328)"/>
<path d="M0 0 C2.2109375 1.96875 2.2109375 1.96875 4.375 4.5 C5.14457031 5.39460938 5.91414063 6.28921875 6.70703125 7.2109375 C9.88745693 11.0794621 12.99206124 14.99586287 16 19 C15.60167969 19.45890625 15.20335937 19.9178125 14.79296875 20.390625 C13.70170987 21.65446741 12.6172961 22.92424585 11.5390625 24.19921875 C10.41350348 25.51617994 9.24864365 26.79983096 8.0625 28.0625 C6.48654477 30.93630072 7.19498967 32.91412709 8 36 C8.33 36.66 8.66 37.32 9 38 C8.45730469 38.47050781 7.91460937 38.94101562 7.35546875 39.42578125 C6.64003906 40.04839844 5.92460937 40.67101562 5.1875 41.3125 C4.12595703 42.23482422 4.12595703 42.23482422 3.04296875 43.17578125 C1.01004134 44.90328992 1.01004134 44.90328992 -0.46484375 46.74609375 C-2 48 -2 48 -4.234375 48.046875 C-5.06453125 47.94890625 -5.8946875 47.8509375 -6.75 47.75 C-10.01890624 47.61579271 -11.50104691 47.65090915 -14.2109375 49.546875 C-15.92532235 51.29624729 -17.50573058 53.0604185 -19 55 C-23.71249579 51.9813967 -28.03358526 48.66650705 -32.3125 45.0625 C-32.94478516 44.55009766 -33.57707031 44.03769531 -34.22851562 43.50976562 C-34.82986328 43.00251953 -35.43121094 42.49527344 -36.05078125 41.97265625 C-36.59387939 41.52156494 -37.13697754 41.07047363 -37.6965332 40.60571289 C-39.94935864 37.83050538 -40.0605904 35.02101909 -39.85400391 31.53979492 C-39.72944824 30.69521729 -39.60489258 29.85063965 -39.4765625 28.98046875 C-39.3425 28.04009766 -39.2084375 27.09972656 -39.0703125 26.13085938 C-38.84988281 24.67389648 -38.84988281 24.67389648 -38.625 23.1875 C-38.34602357 21.26437084 -38.0673723 19.34119449 -37.7890625 17.41796875 C-37.65274414 16.50063965 -37.51642578 15.58331055 -37.37597656 14.63818359 C-37.030791 12.21605688 -36.73734408 9.79403323 -36.4609375 7.36328125 C-36 4 -36 4 -35 3 C-30.81418255 2.25446999 -26.59598724 1.72129631 -22.38183594 1.16064453 C-20.27143428 0.87787198 -18.16316065 0.58192261 -16.0546875 0.28515625 C-14.70844308 0.10335212 -13.36209177 -0.07766251 -12.015625 -0.2578125 C-10.79133789 -0.4242627 -9.56705078 -0.59071289 -8.30566406 -0.76220703 C-5.20949167 -0.98493021 -2.95562478 -0.89948093 0 0 Z " fill="#F7BA7E" transform="translate(367,328)"/>
<path d="M0 0 C1.92385717 0.11321261 3.84328562 0.30291459 5.7578125 0.5234375 C7.53285156 0.72453125 7.53285156 0.72453125 9.34375 0.9296875 C11.21546875 1.15011719 11.21546875 1.15011719 13.125 1.375 C14.34960938 1.51421875 15.57421875 1.6534375 16.8359375 1.796875 C20.22555434 2.18572715 23.61315579 2.58775371 27 3 C28.18480957 3.14356934 28.18480957 3.14356934 29.39355469 3.29003906 C33.87382491 3.87382491 33.87382491 3.87382491 35 5 C35.74553001 9.18581745 36.27870369 13.40401276 36.83935547 17.61816406 C37.12212802 19.72856572 37.41807739 21.83683935 37.71484375 23.9453125 C37.89664788 25.29155692 38.07766251 26.63790823 38.2578125 27.984375 C38.4242627 29.20866211 38.59071289 30.43294922 38.76220703 31.69433594 C38.98493021 34.79050833 38.89948093 37.04437522 38 40 C36.03125 42.2109375 36.03125 42.2109375 33.5 44.375 C32.15808594 45.52935547 32.15808594 45.52935547 30.7890625 46.70703125 C26.9205379 49.88745693 23.00413713 52.99206124 19 56 C14.09526099 51.88670129 9.4780472 47.61457539 4.97265625 43.0703125 C4.33887558 42.43511688 3.70509491 41.79992126 3.05210876 41.14547729 C1.05318594 39.14101284 -0.94220784 37.13307786 -2.9375 35.125 C-4.30250133 33.75497611 -5.6677336 32.38518226 -7.03320312 31.015625 C-10.35814211 27.67973457 -13.67992353 24.34072964 -17 21 C-14.81222922 17.65370314 -12.63861977 14.40969992 -10.01953125 11.38671875 C-9.23352539 10.4750293 -9.23352539 10.4750293 -8.43164062 9.54492188 C-7.89732422 8.93197266 -7.36300781 8.31902344 -6.8125 7.6875 C-5.99362305 6.73907227 -5.99362305 6.73907227 -5.15820312 5.77148438 C-1.23028274 1.23028274 -1.23028274 1.23028274 0 0 Z " fill="#C5C1C5" transform="translate(146,327)"/>
<path d="M0 0 C6.80643862 2.55573044 10.30883715 7.10865706 13.9375 13.3125 C15.96718747 20.35670944 16.01209079 26.57478288 12.9375 33.3125 C9.05023549 40.21102576 3.64658517 44.74363061 -4 47 C-11.08888411 47.89230709 -16.84466049 47.51248232 -22.953125 43.64453125 C-26.44895605 40.83585783 -29.26796569 37.54022453 -32 34 C-30.68623083 31.09456128 -29.27943508 29.03338941 -27.01904297 26.79199219 C-26.41857147 26.19167175 -25.81809998 25.59135132 -25.19943237 24.97283936 C-24.55354156 24.33727112 -23.90765076 23.70170288 -23.2421875 23.046875 C-22.57913605 22.38665344 -21.91608459 21.72643188 -21.23294067 21.04620361 C-19.11828168 18.94272176 -16.99676788 16.84630858 -14.875 14.75 C-13.43834443 13.32337739 -12.00214102 11.89629928 -10.56640625 10.46875 C-7.04949196 6.97386339 -3.52641453 3.48529938 0 0 Z " fill="#FDDE75" transform="translate(482,450)"/>
<path d="M0 0 C2.90543872 1.31376917 4.96661059 2.72056492 7.20800781 4.98095703 C7.80832825 5.58142853 8.40864868 6.18190002 9.02716064 6.80056763 C9.66272888 7.44645844 10.29829712 8.09234924 10.953125 8.7578125 C11.61334656 9.42086395 12.27356812 10.08391541 12.95379639 10.76705933 C15.05727824 12.88171832 17.15369142 15.00323212 19.25 17.125 C20.67662261 18.56165557 22.10370072 19.99785898 23.53125 21.43359375 C27.02613661 24.95050804 30.51470062 28.47358547 34 32 C31.44426956 38.80643862 26.89134294 42.30883715 20.6875 45.9375 C13.64329056 47.96718747 7.42521712 48.01209079 0.6875 44.9375 C-5.77979438 41.2829654 -10.23456769 36.35905725 -12.5234375 29.23046875 C-14.10963927 21.80652438 -13.70702654 15.57968222 -9.64453125 9.08203125 C-6.8566537 5.55248556 -3.54968273 2.73933332 0 0 Z " fill="#FBDC75" transform="translate(28,450)"/>
<path d="M0 0 C5.89009523 4.89877485 11.45676809 10.10781509 16.92749023 15.4675293 C17.93972867 16.45292746 18.95906142 17.43108684 19.98510742 18.40209961 C21.48515789 19.82301187 22.96089629 21.26566442 24.43359375 22.71484375 C25.31072021 23.56167725 26.18784668 24.40851074 27.09155273 25.28100586 C30.32914808 29.89365769 29.17852668 34.73689241 28.34375 40.05859375 C28.20839844 40.93837891 28.07304687 41.81816406 27.93359375 42.72460938 C27.79050781 43.61986328 27.64742188 44.51511719 27.5 45.4375 C27.35691406 46.35982422 27.21382813 47.28214844 27.06640625 48.23242188 C26.71563347 50.48906007 26.36006135 52.74482853 26 55 C22.1402227 53.1841514 19.13735361 50.72031108 15.9375 47.9375 C14.77018032 46.93544131 13.60220174 45.93414971 12.43359375 44.93359375 C11.85335449 44.43585449 11.27311523 43.93811523 10.67529297 43.42529297 C8.3120876 41.41474314 5.90856471 39.45585357 3.5 37.5 C-0.65214054 34.11497047 -4.77603279 30.69907433 -8.875 27.25 C-9.41060547 26.80205078 -9.94621094 26.35410156 -10.49804688 25.89257812 C-13.83953937 23.07096652 -16.95095492 20.1278027 -20 17 C-13.54915334 11.00734432 -7.06588535 5.26888241 0 0 Z " fill="#FADC99" transform="translate(288,299)"/>
<path d="M0 0 C4.35721101 1.58349949 6.82296744 4.97935787 9.6875 8.4375 C10.21714355 9.06640137 10.74678711 9.69530273 11.29248047 10.34326172 C15.15632849 14.94419152 18.97281347 19.584777 22.75390625 24.25390625 C24.41072412 26.27954619 26.08221557 28.28427337 27.77734375 30.27734375 C28.24124512 30.82503418 28.70514648 31.37272461 29.18310547 31.93701172 C30.49502653 33.48298878 31.81183649 35.02481318 33.12890625 36.56640625 C35 39 35 39 35 41 C31.813827 41.50870533 28.62588525 42.00536581 25.4375 42.5 C24.54224609 42.64308594 23.64699219 42.78617187 22.72460938 42.93359375 C21.40493164 43.13662109 21.40493164 43.13662109 20.05859375 43.34375 C19.25736084 43.46943359 18.45612793 43.59511719 17.63061523 43.72460938 C16.76251221 43.81548828 15.89440918 43.90636719 15 44 C13.31487305 44.20302734 13.31487305 44.20302734 11.59570312 44.41015625 C6.61337668 43.84183004 4.74517271 41.64607725 1.41015625 38.09375 C0.82076767 37.49445679 0.23137909 36.89516357 -0.37586975 36.27770996 C-2.24687099 34.36765409 -4.09201746 32.43469088 -5.9375 30.5 C-7.20474727 29.19762786 -8.47361136 27.89682684 -9.74414062 26.59765625 C-12.84845411 23.4163361 -15.92980934 20.21424931 -19 17 C-15.71732585 13.70123934 -12.39774633 10.48761725 -8.9375 7.375 C-8.10089844 6.61960937 -7.26429688 5.86421875 -6.40234375 5.0859375 C-4.32743249 3.28430724 -2.22330859 1.61228383 0 0 Z " fill="#FBCE8B" transform="translate(319,273)"/>
<path d="M0 0 C4.34993845 0.64443533 5.58100243 2.21512056 8.15234375 5.63671875 C11.20106106 10.28284705 11.86314839 13.93510836 11.375 19.5 C9.6240095 24.6435346 6.34247128 27.73343905 2.50390625 31.40234375 C-0.22284145 34.08906579 -2.64958641 36.98114883 -5.08203125 39.93359375 C-6.625 41.5 -6.625 41.5 -9.625 42.5 C-12.98355787 41.34354812 -14.89325109 39.58149438 -16.625 36.5 C-16.7346628 31.8228816 -15.8909379 27.39465083 -15.02441406 22.82177734 C-14.32568957 18.7601209 -13.96629978 14.66211526 -13.5625 10.5625 C-12.77281317 2.64781317 -12.77281317 2.64781317 -11.625 1.5 C-7.75712648 0.89981273 -3.87697786 0.53475557 0 0 Z " fill="#FBCE8B" transform="translate(343.625,329.5)"/>
<path d="M0 0 C1.17691406 0.14050781 2.35382813 0.28101563 3.56640625 0.42578125 C4.79746094 0.58949219 6.02851563 0.75320313 7.296875 0.921875 C8.51246094 1.07011719 9.72804687 1.21835937 10.98046875 1.37109375 C14.33885272 1.78494041 17.69289153 2.22396283 21.046875 2.671875 C21.83384766 2.77048828 22.62082031 2.86910156 23.43164062 2.97070312 C27.92913732 3.55413732 27.92913732 3.55413732 29.046875 4.671875 C31.32282855 17.48991893 31.32282855 17.48991893 28.7265625 21.9296875 C26.90831258 23.49605864 25.19363448 24.60732966 23.046875 25.671875 C22.221875 26.125625 21.396875 26.579375 20.546875 27.046875 C16.22550419 28.1272177 12.59052372 28.23690015 8.37890625 26.6953125 C3.61016167 23.7994043 0.03607355 19.97628859 -3.828125 15.984375 C-4.611875 15.18708984 -5.395625 14.38980469 -6.203125 13.56835938 C-8.12678861 11.6095068 -10.04307091 9.64398516 -11.953125 7.671875 C-7.09132614 -0.89415157 -7.09132614 -0.89415157 0 0 Z " fill="#D7D4D7" transform="translate(151.953125,327.328125)"/>
<path d="M0 0 C5.62303757 4.67466337 10.79741554 9.67765667 15.9375 14.875 C16.71673828 15.65875 17.49597656 16.4425 18.29882812 17.25 C20.20154085 19.16438581 22.10186171 21.08108034 24 23 C23.06122074 24.1065941 22.12079084 25.21178799 21.1796875 26.31640625 C20.65616699 26.93201416 20.13264648 27.54762207 19.59326172 28.18188477 C17.4984209 30.57236585 15.28027529 32.78679163 13 35 C9.33247995 33.4608199 7.01419427 31.24514548 4.234375 28.4296875 C3.34492187 27.53378906 2.45546875 26.63789063 1.5390625 25.71484375 C0.61867188 24.77769531 -0.30171875 23.84054687 -1.25 22.875 C-2.19484856 21.92011363 -3.14015633 20.96568141 -4.0859375 20.01171875 C-6.39518338 17.67890913 -8.69963203 15.34155914 -11 13 C-9.30413874 9.36696916 -7.26199512 7.05450954 -4.375 4.25 C-3.55773438 3.45078125 -2.74046875 2.6515625 -1.8984375 1.828125 C-0.95871094 0.92320312 -0.95871094 0.92320312 0 0 Z " fill="#C37E5B" transform="translate(56,432)"/>
<path d="M0 0 C1.1065941 0.93877926 2.21178799 1.87920916 3.31640625 2.8203125 C4.23981812 3.60559326 4.23981812 3.60559326 5.18188477 4.40673828 C7.57236585 6.5015791 9.78679163 8.71972471 12 11 C10.4608199 14.66752005 8.24514548 16.98580573 5.4296875 19.765625 C4.53378906 20.65507812 3.63789063 21.54453125 2.71484375 22.4609375 C1.77769531 23.38132812 0.84054687 24.30171875 -0.125 25.25 C-1.07988637 26.19484856 -2.03431859 27.14015633 -2.98828125 28.0859375 C-5.32109087 30.39518338 -7.65844086 32.69963203 -10 35 C-13.63303084 33.30413874 -15.94549046 31.26199512 -18.75 28.375 C-19.54921875 27.55773437 -20.3484375 26.74046875 -21.171875 25.8984375 C-21.77515625 25.27195312 -22.3784375 24.64546875 -23 24 C-18.32533663 18.37696243 -13.32234333 13.20258446 -8.125 8.0625 C-7.34125 7.28326172 -6.5575 6.50402344 -5.75 5.70117188 C-3.83561419 3.79845915 -1.91891966 1.89813829 0 0 Z " fill="#C37E5B" transform="translate(455,432)"/>
<path d="M0 0 C3.63303084 1.69586126 5.94549046 3.73800488 8.75 6.625 C9.54921875 7.44226563 10.3484375 8.25953125 11.171875 9.1015625 C11.77515625 9.72804688 12.3784375 10.35453125 13 11 C8.32533663 16.62303757 3.32234333 21.79741554 -1.875 26.9375 C-2.65875 27.71673828 -3.4425 28.49597656 -4.25 29.29882812 C-6.16438581 31.20154085 -8.08108034 33.10186171 -10 35 C-11.1065941 34.06122074 -12.21178799 33.12079084 -13.31640625 32.1796875 C-14.23981812 31.39440674 -14.23981812 31.39440674 -15.18188477 30.59326172 C-17.57236585 28.4984209 -19.78679163 26.28027529 -22 24 C-20.4608199 20.33247995 -18.24514548 18.01419427 -15.4296875 15.234375 C-14.08583984 13.90019531 -14.08583984 13.90019531 -12.71484375 12.5390625 C-11.77769531 11.61867188 -10.84054687 10.69828125 -9.875 9.75 C-8.92011363 8.80515144 -7.96568141 7.85984367 -7.01171875 6.9140625 C-4.67890913 4.60481662 -2.34155914 2.30036797 0 0 Z " fill="#CF8861" transform="translate(432,410)"/>
<path d="M0 0 C3.66752005 1.5391801 5.98580573 3.75485452 8.765625 6.5703125 C10.09980469 7.91416016 10.09980469 7.91416016 11.4609375 9.28515625 C12.38132812 10.22230469 13.30171875 11.15945313 14.25 12.125 C15.19484856 13.07988637 16.14015633 14.03431859 17.0859375 14.98828125 C19.39518338 17.32109087 21.69963203 19.65844086 24 22 C22.30413874 25.63303084 20.26199512 27.94549046 17.375 30.75 C16.14910156 31.94882812 16.14910156 31.94882812 14.8984375 33.171875 C14.27195312 33.77515625 13.64546875 34.3784375 13 35 C7.37696243 30.32533663 2.20258446 25.32234333 -2.9375 20.125 C-3.71673828 19.34125 -4.49597656 18.5575 -5.29882812 17.75 C-7.20154085 15.83561419 -9.10186171 13.91891966 -11 12 C-10.06122074 10.8934059 -9.12079084 9.78821201 -8.1796875 8.68359375 C-7.39440674 7.76018188 -7.39440674 7.76018188 -6.59326172 6.81811523 C-4.4984209 4.42763415 -2.28027529 2.21320837 0 0 Z " fill="#C27D5B" transform="translate(78,410)"/>
<path d="M0 0 C3.63303084 1.69586126 5.94549046 3.73800488 8.75 6.625 C9.54921875 7.44226563 10.3484375 8.25953125 11.171875 9.1015625 C11.77515625 9.72804688 12.3784375 10.35453125 13 11 C8.32533663 16.62303757 3.32234333 21.79741554 -1.875 26.9375 C-2.65875 27.71673828 -3.4425 28.49597656 -4.25 29.29882812 C-6.16438581 31.20154085 -8.08108034 33.10186171 -10 35 C-11.1065941 34.06122074 -12.21178799 33.12079084 -13.31640625 32.1796875 C-14.23981812 31.39440674 -14.23981812 31.39440674 -15.18188477 30.59326172 C-17.57236585 28.4984209 -19.78679163 26.28027529 -22 24 C-20.4608199 20.33247995 -18.24514548 18.01419427 -15.4296875 15.234375 C-14.08583984 13.90019531 -14.08583984 13.90019531 -12.71484375 12.5390625 C-11.77769531 11.61867188 -10.84054687 10.69828125 -9.875 9.75 C-8.92011363 8.80515144 -7.96568141 7.85984367 -7.01171875 6.9140625 C-4.67890913 4.60481662 -2.34155914 2.30036797 0 0 Z " fill="#C07C5A" transform="translate(409,387)"/>
<path d="M0 0 C3.66752005 1.5391801 5.98580573 3.75485452 8.765625 6.5703125 C10.09980469 7.91416016 10.09980469 7.91416016 11.4609375 9.28515625 C12.38132812 10.22230469 13.30171875 11.15945313 14.25 12.125 C15.19484856 13.07988637 16.14015633 14.03431859 17.0859375 14.98828125 C19.39518338 17.32109087 21.69963203 19.65844086 24 22 C22.30413874 25.63303084 20.26199512 27.94549046 17.375 30.75 C16.14910156 31.94882812 16.14910156 31.94882812 14.8984375 33.171875 C14.27195312 33.77515625 13.64546875 34.3784375 13 35 C7.37696243 30.32533663 2.20258446 25.32234333 -2.9375 20.125 C-3.71673828 19.34125 -4.49597656 18.5575 -5.29882812 17.75 C-7.20154085 15.83561419 -9.10186171 13.91891966 -11 12 C-10.06122074 10.8934059 -9.12079084 9.78821201 -8.1796875 8.68359375 C-7.39440674 7.76018188 -7.39440674 7.76018188 -6.59326172 6.81811523 C-4.4984209 4.42763415 -2.28027529 2.21320837 0 0 Z " fill="#CF8961" transform="translate(101,387)"/>
<path d="M0 0 C6.80643862 2.55573044 10.30883715 7.10865706 13.9375 13.3125 C15.99655872 20.45864497 15.99226108 26.63662298 12.8125 33.4375 C10.74757588 37.14846363 8.65263761 39.70405636 5 42 C5.0825 40.72125 5.165 39.4425 5.25 38.125 C5.16487962 27.24661575 -0.59995873 20.43166538 -8 13 C-11.56764285 14.51376081 -13.83706287 16.60513129 -16.546875 19.3515625 C-17.39121094 20.20234375 -18.23554688 21.053125 -19.10546875 21.9296875 C-20.41451172 23.26386719 -20.41451172 23.26386719 -21.75 24.625 C-22.63816406 25.5221875 -23.52632813 26.419375 -24.44140625 27.34375 C-26.63216969 29.55807004 -28.81812763 31.77692435 -31 34 C-31 31 -31 31 -29.82312012 29.46235657 C-29.27240845 28.91830673 -28.72169678 28.3742569 -28.15429688 27.8137207 C-27.53365356 27.19330399 -26.91301025 26.57288727 -26.27355957 25.93367004 C-25.59547241 25.27106674 -24.91738525 24.60846344 -24.21875 23.92578125 C-23.53067261 23.2419487 -22.84259521 22.55811615 -22.13366699 21.8535614 C-19.92936821 19.66608634 -17.71487856 17.48925714 -15.5 15.3125 C-14.00582867 13.83337066 -12.51233012 12.35356135 -11.01953125 10.87304688 C-7.35412108 7.24075507 -3.67953619 3.61797909 0 0 Z " fill="#F6CA5A" transform="translate(482,450)"/>
<path d="M0 0 C4.18423892 3.50897269 8.19588166 7.08060535 12 11 C10.63106975 16.64683729 6.47256076 19.6824412 2 23 C-3.80661954 26.39632463 -9.42167735 26.9642199 -16 26 C-21.9139039 23.98728481 -26.60253052 21.40506508 -30 16 C-28.72125 16.0825 -27.4425 16.165 -26.125 16.25 C-16.89202434 16.19211301 -10.46656078 12.08371271 -3.8125 6 C-2.0661914 4.07303879 -1.01904097 2.37776227 0 0 Z " fill="#F9CB59" transform="translate(50,471)"/>
<path d="M0 0 C2.875 1.5 2.875 1.5 5 4 C5.83672424 8.18362119 6.02443358 10.40780805 3.703125 14.015625 C1.89317907 16.12446108 -0.00721879 18.06309116 -2 20 C-2.74121094 20.7528125 -3.48242188 21.505625 -4.24609375 22.28125 C-6.1470014 24.20587664 -8.06475991 26.10999928 -10 28 C-10.66 27.01 -11.32 26.02 -12 25 C-15.35048678 20.43961522 -17.29121224 18.32762506 -23 17 C-8.22453704 -0.80632716 -8.22453704 -0.80632716 0 0 Z " fill="#FCCD5A" transform="translate(430,328)"/>
<path d="M0 0 C15.67346939 13.06122449 15.67346939 13.06122449 16.3125 18.8125 C15.91034486 22.91448247 15.18026445 24.36270753 12 27 C8.87817168 27.75998091 6.13081979 27.70247 3 27 C-0.15554097 24.91311444 -2.54946158 22.3091366 -5.0625 19.5 C-5.73732422 18.78457031 -6.41214844 18.06914062 -7.10742188 17.33203125 C-8.76059058 15.57334113 -10.389095 13.79733021 -12 12 C-11.01 11.34 -10.02 10.68 -9 10 C-5.0243843 6.9354629 -2.33238552 4.53519406 0 0 Z " fill="#FBCD5A" transform="translate(168,408)"/>
<path d="M0 0 C3.24717264 0.13134631 4.18840424 1.19404154 6.48046875 3.5546875 C7.39249857 4.65349027 8.2943233 5.7608181 9.1875 6.875 C9.90607178 7.74922607 9.90607178 7.74922607 10.63916016 8.64111328 C11.62362996 9.84080338 12.60409551 11.04379036 13.58056641 12.25 C14.88954809 13.86382538 16.21550925 15.4638391 17.54296875 17.0625 C21.56691914 21.9155055 25.42333517 26.80806719 29 32 C28 33 28 33 24.84936523 33.43164062 C19.6700113 32.85086446 17.87030216 30.77936018 14.41015625 27.09375 C13.82076767 26.49445679 13.23137909 25.89516357 12.62413025 25.27770996 C10.75312901 23.36765409 8.90798254 21.43469088 7.0625 19.5 C5.79525273 18.19762786 4.52638864 16.89682684 3.25585938 15.59765625 C0.15154589 12.4163361 -2.92980934 9.21424931 -6 6 C-4 4 -2 2 0 0 Z " fill="#F8DA97" transform="translate(306,284)"/>
<path d="M0 0 C3.84281736 1.92140868 5.80431927 3.5926816 8.75 6.625 C9.54921875 7.44226563 10.3484375 8.25953125 11.171875 9.1015625 C11.77515625 9.72804688 12.3784375 10.35453125 13 11 C9.32167983 15.52615993 5.58913637 19.39424999 1 23 C-3 19 -7 15 -11 11 C-7.37 7.37 -3.74 3.74 0 0 Z " fill="#C27D5B" transform="translate(432,410)"/>
<path d="M0 0 C4.18423892 3.50897269 8.19588166 7.08060535 12 11 C10.46356148 14.68069887 8.21849055 16.98775204 5.375 19.75 C4.55773437 20.54921875 3.74046875 21.3484375 2.8984375 22.171875 C2.27195312 22.77515625 1.64546875 23.3784375 1 24 C-3.52615993 20.32167983 -7.39424999 16.58913637 -11 12 C-10.28972656 11.30132812 -9.57945313 10.60265625 -8.84765625 9.8828125 C-7.92855469 8.97273438 -7.00945312 8.06265625 -6.0625 7.125 C-4.68771484 5.76761719 -4.68771484 5.76761719 -3.28515625 4.3828125 C-0.98812373 2.22317745 -0.98812373 2.22317745 0 0 Z " fill="#C27D5B" transform="translate(113,398)"/>
<path d="M0 0 C2.35043586 1.98070437 4.67822804 3.98581322 7 6 C8.2375 7.051875 8.2375 7.051875 9.5 8.125 C11 10 11 10 10.87890625 11.8203125 C9.66424569 14.83267069 7.77339805 16.51280187 5.4375 18.75 C4.61121094 19.54921875 3.78492188 20.3484375 2.93359375 21.171875 C2.29550781 21.77515625 1.65742187 22.3784375 1 23 C-2.45201639 21.52278578 -4.64961936 19.56205999 -7.25 16.875 C-7.95640625 16.15054687 -8.6628125 15.42609375 -9.390625 14.6796875 C-9.92171875 14.12539063 -10.4528125 13.57109375 -11 13 C-9.46356148 9.31930113 -7.21849055 7.01224796 -4.375 4.25 C-3.55773438 3.45078125 -2.74046875 2.6515625 -1.8984375 1.828125 C-0.95871094 0.92320312 -0.95871094 0.92320312 0 0 Z " fill="#D08962" transform="translate(56,432)"/>
<path d="M0 0 C3.45201639 1.47721422 5.64961936 3.43794001 8.25 6.125 C8.95640625 6.84945313 9.6628125 7.57390625 10.390625 8.3203125 C11.18726563 9.15175781 11.18726563 9.15175781 12 10 C10.53374144 13.34820898 8.66341553 15.69266359 6.125 18.3125 C5.44695312 19.03050781 4.76890625 19.74851562 4.0703125 20.48828125 C2 22 2 22 0.0390625 22.015625 C-2.7753245 20.61382305 -4.58017522 18.70305234 -6.75 16.4375 C-7.94882813 15.19806641 -7.94882813 15.19806641 -9.171875 13.93359375 C-9.77515625 13.29550781 -10.3784375 12.65742188 -11 12 C-7.49102731 7.81576108 -3.91939465 3.80411834 0 0 Z " fill="#CF8962" transform="translate(78,410)"/>
<path d="M0 0 C2.61471252 1.28192131 4.2526595 2.94146435 6.2578125 5.046875 C6.96421875 5.78035156 7.670625 6.51382812 8.3984375 7.26953125 C8.92953125 7.83542969 9.460625 8.40132813 10.0078125 8.984375 C8.47137398 12.66507387 6.22630305 14.97212704 3.3828125 17.734375 C2.56554687 18.53359375 1.74828125 19.3328125 0.90625 20.15625 C0.27976562 20.75953125 -0.34671875 21.3628125 -0.9921875 21.984375 C-4.79854247 18.77677249 -8.53782317 15.57691391 -11.9921875 11.984375 C-10.52592894 8.63616602 -8.65560303 6.29171141 -6.1171875 3.671875 C-5.10011719 2.59486328 -5.10011719 2.59486328 -4.0625 1.49609375 C-1.9921875 -0.015625 -1.9921875 -0.015625 0 0 Z " fill="#D28A63" transform="translate(399.9921875,400.015625)"/>
<path d="M0 0 C3.10442031 1.3904499 5.3656443 3.01571598 7.8125 5.375 C8.43769531 5.96023438 9.06289063 6.54546875 9.70703125 7.1484375 C11 9 11 9 10.984375 10.9296875 C9.62487897 13.78894502 7.71783339 15.56601872 5.4375 17.75 C4.61121094 18.54921875 3.78492188 19.3484375 2.93359375 20.171875 C2.29550781 20.77515625 1.65742188 21.3784375 1 22 C-2.10442031 20.6095501 -4.3656443 18.98428402 -6.8125 16.625 C-7.43769531 16.03976562 -8.06289063 15.45453125 -8.70703125 14.8515625 C-10 13 -10 13 -9.984375 11.0703125 C-8.62487897 8.21105498 -6.71783339 6.43398128 -4.4375 4.25 C-3.61121094 3.45078125 -2.78492188 2.6515625 -1.93359375 1.828125 C-1.29550781 1.22484375 -0.65742188 0.6215625 0 0 Z " fill="#D18A62" transform="translate(444,445)"/>
</svg>
