<?xml version="1.0" encoding="UTF-8"?>
<svg version="1.1" xmlns="http://www.w3.org/2000/svg" width="512" height="512">
<path d="M0 0 C0.8428656 -0.00832352 1.6857312 -0.01664703 2.55413818 -0.02522278 C5.33228201 -0.04926312 8.11019103 -0.05808564 10.88842773 -0.06469727 C12.82226125 -0.07366501 14.75609405 -0.08278688 16.68992615 -0.09205627 C20.73910203 -0.10853036 24.78819535 -0.11624406 28.83740234 -0.11914062 C34.02855998 -0.12453642 39.2189439 -0.16227245 44.40988255 -0.20788479 C48.40157421 -0.23760096 52.39307784 -0.24486292 56.38487053 -0.24586678 C58.29907734 -0.25007648 60.21328433 -0.26254074 62.12738228 -0.28338432 C64.80165133 -0.31019885 67.47410332 -0.30550469 70.1484375 -0.29296875 C70.93971542 -0.30780304 71.73099335 -0.32263733 72.54624939 -0.33792114 C76.40405951 -0.286345 78.13554359 -0.04273612 81.00108337 2.63243103 C84.68388216 9.16082399 83.06507263 19.06460695 81.38452148 26.11889648 C77.78640666 37.43446321 71.12079645 46.09630243 60.63452148 51.61889648 C53.03560495 55.17644168 46.85464788 56.34155939 38.50952148 56.30639648 C38.84040771 57.17135742 39.17129395 58.03631836 39.51220703 58.92749023 C43.91000459 70.50083861 48.02039328 82.17104596 52.11303711 93.85516357 C54.19594223 99.80113844 56.28477527 105.74503141 58.37280273 111.68920898 C58.79784088 112.89964874 59.22287903 114.1100885 59.66079712 115.35720825 C63.7241186 126.92574731 67.80664855 138.4874479 71.89926147 150.0456543 C72.63397759 152.12073607 73.36837775 154.19592973 74.10244751 156.27124023 C75.12276378 159.15563586 76.14409649 162.03966939 77.16577148 164.92358398 C77.46182785 165.76082001 77.75788422 166.59805603 78.06291199 167.46066284 C78.34242203 168.2487735 78.62193207 169.03688416 78.90991211 169.84887695 C79.17457275 170.595224 79.4392334 171.34157104 79.71191406 172.11053467 C80.51528389 174.32226074 81.36505857 176.51251655 82.21850586 178.70532227 C83.50952148 182.30639648 83.50952148 182.30639648 83.50952148 185.30639648 C84.2378418 185.56678711 84.96616211 185.82717773 85.71655273 186.09545898 C88.59341358 187.34276928 90.70855868 188.78199009 93.19702148 190.68139648 C97.85911526 194.14096607 102.60465788 197.41716604 107.44702148 200.61889648 C115.16812557 205.73655035 122.86404713 210.89035581 130.53762817 216.07894897 C131.8055562 216.93553551 133.07432922 217.79087268 134.34396362 218.64492798 C136.13961498 219.8531046 137.93231284 221.06554644 139.72436523 222.27905273 C140.76713623 222.98296143 141.80990723 223.68687012 142.88427734 224.41210938 C147.01875969 227.39541157 147.01875969 227.39541157 148.50952148 229.30639648 C149.27576524 236.20259026 149.27576524 236.20259026 147.04980469 239.40917969 C143.27592989 242.22770742 139.95745285 241.80790844 135.36889648 241.69702148 C134.48671448 241.69136169 133.60453247 241.6857019 132.69561768 241.67987061 C129.88302935 241.65751239 127.07172354 241.60731781 124.25952148 241.55639648 C122.35068574 241.53633073 120.44182999 241.51808009 118.53295898 241.50170898 C113.85798703 241.45764949 109.18397156 241.38862632 104.50952148 241.30639648 C104.67033203 241.92643555 104.83114258 242.54647461 104.99682617 243.18530273 C107.06427542 251.73863564 105.1423453 261.56731362 100.92749023 269.15405273 C97.951102 273.55703228 94.98297073 277.32409699 90.50952148 280.30639648 C91.11457902 283.64823258 91.93332686 286.73702428 93.10327148 289.92358398 C93.41135742 290.77823242 93.71944336 291.63288086 94.03686523 292.51342773 C94.68278934 294.28517939 95.33120853 296.05602351 95.98217773 297.82592773 C100.37187077 310.0399272 101.16036878 322.67536963 96.02905273 334.80639648 C92.73117295 341.71280579 88.82429288 347.99483882 84.50952148 354.30639648 C85.24364258 354.34079834 85.97776367 354.3752002 86.73413086 354.41064453 C110.80818409 355.62602997 131.3356263 358.5326699 148.55249023 376.93139648 C157.03677302 387.22769176 162.53658442 398.91537861 164.86108398 412.01342773 C165.05916656 413.06279007 165.25724915 414.1121524 165.46133423 415.1933136 C166.02888177 418.21491852 166.5832002 421.23867486 167.1342926 424.26331329 C167.81951519 427.99428076 168.52725256 431.72101569 169.23120117 435.44848633 C170.65735213 443.01684811 172.05984104 450.58935087 173.44753647 458.16485405 C174.25163323 462.55409745 175.05985451 466.94248514 175.87817383 471.32910156 C176.68395504 475.64864111 177.47983306 479.96989345 178.26854324 484.29258156 C178.56733342 485.92104944 178.86954043 487.54889448 179.17533493 489.17606163 C179.59884101 491.43361769 180.00953297 493.69315771 180.41723633 495.95361328 C180.77100845 497.87236519 180.77100845 497.87236519 181.13192749 499.82987976 C181.57506149 503.90982487 181.79319329 507.48533406 179.34873909 510.95312363 C176.67081264 512.92350775 174.63002945 512.68370378 171.32627201 512.68671322 C170.02345911 512.69515316 168.72064621 512.7035931 167.37835413 512.7122888 C165.92395229 512.70649295 164.46955157 512.70041189 163.01515198 512.69407654 C161.47685908 512.69824663 159.93856926 512.70372235 158.40028518 512.71039635 C154.16193782 512.72491249 149.92378388 512.72058711 145.68542564 512.71322954 C141.11887821 512.70851534 136.55237369 512.72099216 131.98583984 512.73124695 C123.03528471 512.74847474 114.08479965 512.74926673 105.13423223 512.74403404 C97.86173266 512.7399985 90.58925386 512.74142856 83.31675529 512.7467823 C82.28310691 512.74753072 81.24945853 512.74827915 80.18448747 512.74905025 C78.08487399 512.75058167 75.98526052 512.75212002 73.88564705 512.75366522 C54.17980326 512.76740466 34.47399912 512.76194243 14.76815622 512.75048 C-3.27383231 512.74054607 -21.31571832 512.75348852 -39.35769104 512.7774142 C-57.86741915 512.8017759 -76.37709944 512.81142029 -94.88684326 512.80476147 C-105.28498412 512.80126273 -115.68304608 512.80354436 -126.08117485 512.8210125 C-134.93294386 512.83569792 -143.78457845 512.83641803 -152.63634472 512.81894159 C-157.15531496 512.81039891 -161.67404469 512.80836123 -166.1930027 512.82359314 C-170.3264786 512.83735358 -174.45950599 512.83278964 -178.59295536 512.8133539 C-180.09157969 512.80956682 -181.59023921 512.81259309 -183.08883243 512.82296555 C-185.11964925 512.83602679 -187.15058647 512.82223552 -189.1813879 512.80696774 C-190.31132827 512.8068604 -191.44126863 512.80675306 -192.60544962 512.80664247 C-196.14941725 512.19214062 -197.32993176 511.13226566 -199.49047852 508.30639648 C-199.99384308 505.54524231 -199.99384308 505.54524231 -199.99841309 502.30957031 C-200.00969238 501.0813858 -200.02097168 499.85320129 -200.03259277 498.58779907 C-200.02481582 497.22967293 -200.01662316 495.87154912 -200.00805664 494.51342773 C-200.0134777 493.08091521 -200.02060027 491.64840825 -200.02929688 490.21591187 C-200.04753544 486.32743542 -200.04046075 482.43938339 -200.02778053 478.55089951 C-200.01765552 474.48216353 -200.02704482 470.41346396 -200.0333252 466.34472656 C-200.04060308 459.5118965 -200.03101029 452.67923936 -200.01196289 445.84643555 C-199.99019377 437.94602889 -199.99724505 430.04603512 -200.01926851 422.14563847 C-200.03741859 415.36334987 -200.03998279 408.58118561 -200.02951384 401.79888058 C-200.0232767 397.74773833 -200.02244919 393.69679019 -200.03565979 389.6456604 C-200.04721209 385.8369984 -200.03920458 382.02886889 -200.01608276 378.22026443 C-200.01079226 376.82225046 -200.01231538 375.4241917 -200.02113342 374.02619553 C-200.03205703 372.11855414 -200.01593187 370.21081487 -199.99841309 368.30322266 C-199.99690498 367.2354509 -199.99539688 366.16767914 -199.99384308 365.06755066 C-199.36389807 361.61205254 -198.26772056 360.40012751 -195.49047852 358.30639648 C-194.50047852 358.30639648 -193.51047852 358.30639648 -192.49047852 358.30639648 C-192.51327252 355.20060154 -192.5905567 352.09849165 -192.67797852 348.99389648 C-192.6837793 348.11282227 -192.68958008 347.23174805 -192.69555664 346.32397461 C-192.77902626 343.88480692 -192.90136472 341.67601942 -193.49047852 339.30639648 C-195.84113322 337.24392641 -195.84113322 337.24392641 -198.49047852 336.30639648 C-199.87273868 333.54187616 -199.58573238 331.26026018 -199.55297852 328.18139648 C-199.54395508 327.08569336 -199.53493164 325.98999023 -199.52563477 324.86108398 C-199.5140332 324.01803711 -199.50243164 323.17499023 -199.49047852 322.30639648 C-200.75891602 321.99702148 -200.75891602 321.99702148 -202.05297852 321.68139648 C-207.0777969 319.67146913 -210.97623972 317.05579935 -213.63500977 312.22827148 C-216.54298696 304.63300684 -215.35855191 297.7633873 -212.49047852 290.30639648 C-213.34319336 289.61416992 -213.34319336 289.61416992 -214.21313477 288.90795898 C-225.54302468 279.33713379 -234.25429231 266.1108269 -235.71142578 251.01782227 C-236.59525286 232.75956861 -233.31453098 218.16614392 -221.11547852 204.05639648 C-210.56808125 192.84321667 -197.46640635 186.04234736 -181.99438477 185.09155273 C-164.21506835 184.63660605 -149.66110407 189.67223405 -136.65844727 202.01733398 C-133.6134866 205.23237353 -130.95445388 208.63046576 -128.49047852 212.30639648 C-125.03931478 211.03842957 -122.20654803 209.58006032 -119.22485352 207.43530273 C-118.01055664 206.57195312 -118.01055664 206.57195312 -116.77172852 205.69116211 C-115.51875977 204.78914063 -115.51875977 204.78914063 -114.24047852 203.86889648 C-112.61280056 202.7000003 -110.98248168 201.53477481 -109.34985352 200.37280273 C-108.46056152 199.72545166 -107.57126953 199.07810059 -106.6550293 198.41113281 C-104.22028335 196.79178821 -101.90874993 195.45584439 -99.32202148 194.12939453 C-88.11202494 188.13763515 -83.7659199 182.0504341 -79.91821289 170.01928711 C-79.3168851 168.01094818 -78.71598639 166.00248073 -78.11547852 163.99389648 C-77.42984574 161.87006694 -76.73762107 159.74835577 -76.03930664 157.62866211 C-74.57120737 153.15563678 -73.13163003 148.6748319 -71.71020508 144.18676758 C-68.43792407 133.94014489 -64.80179963 123.82184317 -61.19317627 113.69000244 C-59.1886306 108.05052017 -57.20826302 102.40255749 -55.22485352 96.75561523 C-50.93766616 84.56787545 -46.64038602 72.38371392 -42.33154297 60.20361328 C-41.61936101 58.19009368 -40.90759089 56.17642835 -40.19628906 54.16259766 C-38.27873262 48.73453036 -36.351718 43.31000649 -34.41162109 37.88995361 C-33.47620765 35.26637054 -32.55277147 32.63874053 -31.62915039 30.01098633 C-31.0262149 28.32148882 -30.42272328 26.63218964 -29.81860352 24.94311523 C-29.55642029 24.1877095 -29.29423706 23.43230377 -29.02410889 22.65400696 C-26.60536632 15.95967192 -23.4780657 9.10822142 -17.49047852 4.93139648 C-16.53141602 4.23916992 -16.53141602 4.23916992 -15.55297852 3.53295898 C-10.41471924 0.47725177 -5.90102373 0.00496957 0 0 Z M-120.49047852 241.30639648 C-120.5768457 242.31057617 -120.66321289 243.31475586 -120.75219727 244.34936523 C-122.10408236 258.18110531 -125.83674244 269.21879714 -134.49047852 280.30639648 C-135.17110352 281.23452148 -135.85172852 282.16264648 -136.55297852 283.11889648 C-138.9816015 285.86089017 -141.62449912 288.02664014 -144.49047852 290.30639648 C-144.16821289 291.16362305 -143.84594727 292.02084961 -143.51391602 292.90405273 C-141.59041407 299.29859546 -140.93316785 307.29965549 -144.17797852 313.36889648 C-147.91584306 318.1169947 -150.84326969 320.04751295 -156.49047852 322.30639648 C-156.49047852 343.09639648 -156.49047852 363.88639648 -156.49047852 385.30639648 C-153.89962967 382.71554764 -151.69298669 380.36014062 -149.42797852 377.55639648 C-138.14333249 364.60798854 -122.31677932 357.90768546 -105.49047852 356.30639648 C-101.99242857 356.0679394 -98.49310173 355.89917266 -94.99047852 355.74389648 C-94.07266602 355.70071289 -93.15485352 355.6575293 -92.20922852 355.61303711 C-89.9697579 355.50806192 -87.73019759 355.405904 -85.49047852 355.30639648 C-88.08354254 350.57599944 -90.72647697 345.92629642 -93.61547852 341.36889648 C-100.09340679 330.56124752 -101.75055864 318.1434733 -99.43969727 305.80249023 C-97.95346659 300.32851304 -95.91646236 295.06028064 -93.79125977 289.80419922 C-93.48188477 289.02117432 -93.17250977 288.23814941 -92.85375977 287.43139648 C-92.4251062 286.38338867 -92.4251062 286.38338867 -91.98779297 285.31420898 C-91.39232489 282.91011988 -91.59193099 281.60123277 -92.49047852 279.30639648 C-93.21235352 278.77014648 -93.93422852 278.23389648 -94.67797852 277.68139648 C-100.57158767 272.70457097 -104.96383151 264.5990664 -105.90454102 256.93139648 C-106.00895508 255.13702148 -106.00895508 255.13702148 -106.11547852 253.30639648 C-106.19024414 252.11014648 -106.26500977 250.91389648 -106.34204102 249.68139648 C-106.46472334 246.89198794 -106.49047852 244.0985016 -106.49047852 241.30639648 C-111.11047852 241.30639648 -115.73047852 241.30639648 -120.49047852 241.30639648 Z " fill="#010101" transform="translate(292.490478515625,-0.306396484375)"/>
<path d="M0 0 C2.66433008 1.33216504 2.74447159 2.47151628 3.6875 5.25 C3.95949219 6.01828125 4.23148437 6.7865625 4.51171875 7.578125 C5.33549049 11.66403284 4.51674272 14.14867566 2.37109375 17.68359375 C1.08239437 19.51901408 -0.20927402 21.35235339 -1.50390625 23.18359375 C-3.2333939 26.43936554 -3.35510312 28.36394411 -3 32 C-2.67 32.99 -2.34 33.98 -2 35 C1.31544299 36.10514766 4.20410111 36.32107631 7.6875 36.5625 C8.86699219 36.64628906 10.04648438 36.73007812 11.26171875 36.81640625 C12.61716797 36.90728516 12.61716797 36.90728516 14 37 C14.24645264 37.76143311 14.49290527 38.52286621 14.74682617 39.30737305 C15.87817722 42.77271318 17.03254572 46.22995858 18.1875 49.6875 C18.76854492 51.48477539 18.76854492 51.48477539 19.36132812 53.31835938 C19.75126953 54.47529297 20.14121094 55.63222656 20.54296875 56.82421875 C20.89383545 57.88729248 21.24470215 58.95036621 21.60620117 60.0456543 C24.42173315 66.01355628 29.26556381 69.13278191 35 72 C42.95186281 72.75732027 47.9898543 70.58253302 55 67 C67.77784974 60.46988342 67.77784974 60.46988342 75 62 C79.80297861 63.75631307 84.28106285 66.12153764 88.828125 68.4453125 C95.68711627 71.79817136 101.25675848 73.54685799 108.70703125 71.1171875 C109.40183594 70.70726562 110.09664062 70.29734375 110.8125 69.875 C111.52019531 69.48054688 112.22789062 69.08609375 112.95703125 68.6796875 C119.19540189 63.55062559 120.88856383 56.05040485 123.25 48.625 C123.61351562 47.50738281 123.97703125 46.38976562 124.3515625 45.23828125 C125.24262823 42.49473677 126.12513857 39.74874584 127 37 C127.90363281 36.95101562 128.80726563 36.90203125 129.73828125 36.8515625 C131.50751953 36.73941406 131.50751953 36.73941406 133.3125 36.625 C135.07013672 36.52058594 135.07013672 36.52058594 136.86328125 36.4140625 C140.15699887 36.21386253 140.15699887 36.21386253 143 34 C144.15700424 30.71167215 144.5715134 29.34970353 144 26 C142.20389488 23.03742894 142.20389488 23.03742894 139.9375 20.0625 C136.04312548 14.6984224 136.04312548 14.6984224 135.83984375 11.40625 C136.36136404 9.12221953 137.04160384 7.13460963 138 5 C138.556875 3.4840625 138.556875 3.4840625 139.125 1.9375 C139.41375 1.298125 139.7025 0.65875 140 0 C143.15605202 1.57802601 143.62728129 4.76425131 144.78515625 7.921875 C145.04630722 8.61887512 145.30745819 9.31587524 145.57652283 10.03399658 C146.12869927 11.51229024 146.67739621 12.99188748 147.22290039 14.47265625 C148.05503126 16.72974168 148.89861705 18.98227719 149.74414062 21.234375 C150.27933465 22.67161869 150.81386135 24.10911109 151.34765625 25.546875 C151.59870621 26.21789246 151.84975616 26.88890991 152.1084137 27.58026123 C155.78728614 37.60797266 156.67853569 47.89102885 152.55859375 57.94140625 C149.44959118 64.04253159 145.57756141 69.6493304 141.76855469 75.32910156 C139.73219528 78.4044428 137.74030482 81.50700018 135.7578125 84.6171875 C135.39546509 85.18563385 135.03311768 85.7540802 134.65979004 86.3397522 C133.56435753 88.05951549 132.46959492 89.77970351 131.375 91.5 C129.98874997 93.67822638 128.60045638 95.85510266 127.2109375 98.03125 C126.31834229 99.43213867 126.31834229 99.43213867 125.40771484 100.86132812 C124 103 124 103 123 104 C123.28469203 109.02499694 123.28469203 109.02499694 126 113 C129.41571853 113.50031206 129.41571853 113.50031206 133 113 C136.34535156 110.28541261 137.55809962 107.73999033 139.125 103.80859375 C140.68359375 101.15185547 140.68359375 101.15185547 143 99 C148.2124118 97.75364288 153.15706787 97.77002445 158.49169922 97.97094727 C160.96719309 98.06130255 163.43319803 98.07350237 165.91015625 98.07226562 C182.25617744 98.25392686 195.09092717 102.76302081 207.24609375 114.09375 C218.9639186 126.32104549 221.11869257 140.94586442 224 157 C224.22586792 158.25351257 224.22586792 158.25351257 224.45629883 159.53234863 C226.03820642 168.31700951 227.60996173 177.10343171 229.14599609 185.89624023 C229.47491458 187.77588246 229.80385301 189.6555212 230.1328125 191.53515625 C230.29103485 192.44287277 230.4492572 193.35058929 230.61227417 194.28581238 C231.32630035 198.34428164 232.06399755 202.39190747 232.90917969 206.42529297 C233.1206514 207.43552773 233.1206514 207.43552773 233.33639526 208.46617126 C233.70904999 210.21553536 234.09392327 211.96228493 234.47998047 213.70874023 C235 217 235 217 235 225 C217.51 225 200.02 225 182 225 C180.81766287 219.67948293 179.76311029 214.88225615 179.125 209.5625 C178.16272802 202.13709415 177.14216392 194.72180837 176.0625 187.3125 C175.90475098 186.16531494 175.74700195 185.01812988 175.58447266 183.83618164 C175.34349854 182.20990845 175.34349854 182.20990845 175.09765625 180.55078125 C174.95851807 179.57794189 174.81937988 178.60510254 174.67602539 177.6027832 C173.93580455 174.75283941 172.9897072 173.15249574 171 171 C168.16431142 170.33740346 165.95760774 170.71832307 163 171 C160.8429016 172.75110304 160.8429016 172.75110304 160.75854492 174.83818054 C160.84551265 180.41510184 161.4034968 185.76965035 162.3125 191.26953125 C162.5122644 192.53466805 162.5122644 192.53466805 162.71606445 193.82536316 C163.13753504 196.48882824 163.56816063 199.15069817 164 201.8125 C164.43047005 204.49234458 164.85892261 207.17247962 165.28393555 209.85319519 C165.54754228 211.51318606 165.81448671 213.17265128 166.08520508 214.83149719 C166.63707767 218.28382389 167 221.49360648 167 225 C103.31 225 39.62 225 -26 225 C-23.89402174 208.15217391 -23.89402174 208.15217391 -22.5078125 201.6171875 C-20.72897889 192.44935275 -18.80222797 182.35319041 -20 173 C-21.7564331 170.84294485 -21.7564331 170.84294485 -23.875 170.734375 C-24.57625 170.73953125 -25.2775 170.7446875 -26 170.75 C-26.70125 170.74484375 -27.4025 170.7396875 -28.125 170.734375 C-30.2435669 170.84294485 -30.2435669 170.84294485 -32 173 C-32.59696147 174.90521948 -32.59696147 174.90521948 -32.96484375 177.12109375 C-33.12364014 177.96502686 -33.28243652 178.80895996 -33.44604492 179.6784668 C-33.6082251 180.58894775 -33.77040527 181.49942871 -33.9375 182.4375 C-34.10934814 183.37311768 -34.28119629 184.30873535 -34.45825195 185.27270508 C-37.52976964 202.09707138 -37.52976964 202.09707138 -39.625 219.0625 C-40 223 -40 223 -41 225 C-55.52 225 -70.04 225 -85 225 C-86.43021316 135.40509112 -86.43021316 135.40509112 -65.75 113.1875 C-49.87611027 98.69241138 -30.95763315 97.01065999 -10.4296875 97.875 C-1.41967508 98.48349084 -1.41967508 98.48349084 2.1796875 101.875 C4.5160498 105.15278399 5.8023299 108.79515356 7.06933594 112.59228516 C8.75067556 116.94206779 11.49977204 120.61045315 14.125 124.4375 C15.23642538 126.13106911 16.34306902 127.82778439 17.4453125 129.52734375 C18.01926758 130.40890137 18.59322266 131.29045898 19.18457031 132.19873047 C22.48014996 137.28392155 25.73846998 142.39293079 29 147.5 C34.8989187 156.73290693 40.83522291 165.93992546 46.8203125 175.1171875 C49.07492884 178.57445365 51.31787959 182.03899849 53.5546875 185.5078125 C54.14161377 186.41619873 54.72854004 187.32458496 55.33325195 188.26049805 C56.45367092 189.99498823 57.57212417 191.73075041 58.68823242 193.46801758 C63.13485723 201.34982587 63.13485723 201.34982587 70.3125 205.875 C78.62151684 203.90336889 82.76891593 193.33131399 87.02880859 186.42749023 C87.45887207 185.72825439 87.88893555 185.02901855 88.33203125 184.30859375 C90.97439667 180.02070669 93.69396048 175.78618398 96.4375 171.5625 C96.88899414 170.86672852 97.34048828 170.17095703 97.80566406 169.45410156 C98.72794395 168.03375132 99.65063606 166.61366867 100.57373047 165.19384766 C103.05235129 161.38130285 105.52669365 157.5659938 108 153.75 C108.45689209 153.04689697 108.91378418 152.34379395 109.38452148 151.61938477 C110.59613705 149.75031395 111.7989825 147.87589018 113 146 C113.59039062 145.08992187 114.18078125 144.17984375 114.7890625 143.2421875 C116.52370404 140.03030284 116.39811996 137.58307962 116 134 C115.01951062 131.93597315 115.01951062 131.93597315 113 131 C110.08617271 130.24939151 110.08617271 130.24939151 107 131 C102.74988385 135.5206428 99.50405153 140.64999225 96.1875 145.875 C95.68541016 146.65875 95.18332031 147.4425 94.66601562 148.25 C93.44035099 150.16437143 92.21845604 152.08103564 91 154 C89.89224637 150.6767391 90.087966 149.93611118 91.07421875 146.7109375 C91.32768066 145.86031738 91.58114258 145.00969727 91.84228516 144.13330078 C92.12120605 143.22306152 92.40012695 142.31282227 92.6875 141.375 C94.68060115 134.6587903 96.57473356 127.95786341 98.125 121.125 C99.65485858 114.39601267 101.36082003 107.73402976 103.16796875 101.07421875 C103.57982422 99.55248047 103.57982422 99.55248047 104 98 C104.19722656 97.28714844 104.39445313 96.57429688 104.59765625 95.83984375 C105.33546733 92.46596978 105.22280728 89.45351278 105 86 C101.32653229 83.55102153 99.33643601 83.68462284 95 84 C92.28045476 86.71954524 91.77294674 89.75592531 90.8125 93.375 C90.60181885 94.1494043 90.3911377 94.92380859 90.17407227 95.72167969 C87.83200462 104.43252779 85.68915219 113.19503272 83.52124023 121.95043945 C81.79895009 128.88436543 80.00088962 135.76747551 77.96875 142.6171875 C77.17581073 145.38608027 76.43424352 148.15593999 75.71875 150.9453125 C75.38447998 152.24553345 75.38447998 152.24553345 75.04345703 153.57202148 C74.60728586 155.27863279 74.1757516 156.98643786 73.74951172 158.69555664 C73.55115723 159.47020264 73.35280273 160.24484863 73.1484375 161.04296875 C72.97489746 161.73414795 72.80135742 162.42532715 72.62255859 163.13745117 C72 165 72 165 70 168 C66.22476399 153.89031904 62.50132235 139.76725068 58.81518555 125.6340332 C58.31383081 123.71301359 57.81139114 121.79227681 57.30786133 119.87182617 C55.97406264 114.77668953 54.66493759 109.67676999 53.390625 104.56640625 C52.99411743 102.99584473 52.99411743 102.99584473 52.58959961 101.39355469 C52.08284817 99.38437994 51.58330897 97.3733682 51.09204102 95.36035156 C50.86186279 94.45381836 50.63168457 93.54728516 50.39453125 92.61328125 C50.19706299 91.81704346 49.99959473 91.02080566 49.79614258 90.20043945 C48.87758447 87.66165864 47.84799881 85.96966864 46 84 C42.55514741 83.56939343 40.15493758 83.36664713 37.0625 85.0625 C33.47893932 91.5972283 37.53052248 100.9602114 39.25 107.5625 C39.57137939 108.8208667 39.89275879 110.0792334 40.22387695 111.37573242 C42.34455042 119.62779035 44.60264682 127.82441096 47 136 C47.78721889 138.72478 48.55493724 141.45433879 49.3125 144.1875 C49.65925781 145.41855469 50.00601563 146.64960938 50.36328125 147.91796875 C51 151 51 151 50 154 C49.64397705 153.43829102 49.2879541 152.87658203 48.92114258 152.29785156 C42.01771395 141.41222766 35.0803452 130.55141131 28.03833008 119.75488281 C22.96753879 111.97148876 17.96624582 104.14430566 12.96606445 96.31542969 C8.09806487 88.69964146 3.19179353 81.10980195 -1.75195312 73.54296875 C-3.17309657 71.36525885 -4.5872273 69.18314653 -6 67 C-6.46446533 66.29222412 -6.92893066 65.58444824 -7.4074707 64.85522461 C-9.75440554 61.2159605 -11.68873999 57.9131005 -12.8125 53.6875 C-13.16248047 52.45580078 -13.16248047 52.45580078 -13.51953125 51.19921875 C-15.34261977 39.06011712 -11.94393722 30.09346233 -7.5625 18.9375 C-6.94301384 17.31898904 -6.32516172 15.69985166 -5.70898438 14.08007812 C-1.39472854 2.78945708 -1.39472854 2.78945708 0 0 Z " fill="#8892D9" transform="translate(221,272)"/>
<path d="M0 0 C0.69308762 -0.00029205 1.38617523 -0.00058411 2.1002655 -0.00088501 C4.38370423 0.0005047 6.66681381 0.01604872 8.95019531 0.03173828 C10.5363141 0.03546969 12.12243521 0.03831606 13.70855713 0.04031372 C17.87773024 0.0479401 22.04676342 0.06758 26.21588135 0.08972168 C30.47235216 0.11020157 34.72884565 0.11932002 38.98535156 0.12939453 C47.33307194 0.15082687 55.68067871 0.18495076 64.02832031 0.22705078 C64.14798919 7.78824885 62.5226612 12.40070601 57.38378906 18.02783203 C48.90578097 25.74033149 40.91400669 25.60531788 30.02832031 25.22705078 C29.69058594 24.44458984 29.35285156 23.66212891 29.00488281 22.85595703 C28.55886719 21.84404297 28.11285156 20.83212891 27.65332031 19.78955078 C26.99203125 18.27554688 26.99203125 18.27554688 26.31738281 16.73095703 C25.27755745 14.10561531 25.27755745 14.10561531 23.02832031 13.22705078 C18.37909111 12.84668071 18.37909111 12.84668071 14.02832031 14.22705078 C11.7543222 18.77504701 14.09592309 24.75526035 15.61621094 29.33056641 C16.29735188 31.26775394 16.98734733 33.20184314 17.68457031 35.13330078 C18.05916885 36.19140961 18.4337674 37.24951843 18.81971741 38.33969116 C20.04844322 41.80485188 21.28843195 45.26587035 22.52832031 48.72705078 C23.38321762 51.13317518 24.23729328 53.53959166 25.09057617 55.94628906 C27.29160417 62.14885597 29.50155246 68.34819961 31.71453857 74.54650879 C34.97701422 83.68629073 38.22984556 92.82949497 41.47802734 101.97436523 C42.57188723 105.04883626 43.67088129 108.12143521 44.77050781 111.19384766 C45.44123808 113.07725517 46.11181935 114.96071575 46.78222656 116.84423828 C47.23409081 118.10015274 47.23409081 118.10015274 47.69508362 119.38143921 C49.43447159 124.28470932 50.84504328 129.15979825 52.02832031 134.22705078 C51.1246875 134.26443359 50.22105469 134.30181641 49.29003906 134.34033203 C48.11054688 134.40607422 46.93105469 134.47181641 45.71582031 134.53955078 C43.95818359 134.6265625 43.95818359 134.6265625 42.16503906 134.71533203 C39.08226015 134.98561734 39.08226015 134.98561734 37.13378906 136.55126953 C35.25442146 139.40020487 35.67562344 141.93521326 36.02832031 145.22705078 C37.59784204 147.35287427 38.50913377 148.1193708 41.11303711 148.65942383 C42.28346558 148.69869995 42.28346558 148.69869995 43.47753906 148.73876953 C44.32509766 148.77421875 45.17265625 148.80966797 46.04589844 148.84619141 C47.36750977 148.8800293 47.36750977 148.8800293 48.71582031 148.91455078 C49.60849609 148.94871094 50.50117188 148.98287109 51.42089844 149.01806641 C53.62324702 149.10050726 55.82519969 149.16966629 58.02832031 149.22705078 C59.03437624 151.8290228 60.03334556 154.4333444 61.02832031 157.03955078 C61.31449219 157.77753906 61.60066406 158.51552734 61.89550781 159.27587891 C62.16621094 159.98808594 62.43691406 160.70029297 62.71582031 161.43408203 C63.09287109 162.41598511 63.09287109 162.41598511 63.47753906 163.41772461 C64.02832031 165.22705078 64.02832031 165.22705078 64.02832031 168.22705078 C19.47832031 168.22705078 -25.07167969 168.22705078 -70.97167969 168.22705078 C-69.15715215 161.57378313 -67.47617876 155.54792938 -64.97167969 149.22705078 C-64.0534845 149.22118454 -63.13528931 149.2153183 -62.18927002 149.20927429 C-53.53725074 149.15137698 -44.88549043 149.0793173 -36.23372269 148.99133587 C-31.78571635 148.94660319 -27.33780223 148.90735355 -22.88964844 148.88061523 C-18.59712688 148.85461101 -14.30495961 148.81422932 -10.01265717 148.76386452 C-8.374849 148.74717624 -6.73697952 148.73567417 -5.09909821 148.72943687 C-2.80527077 148.71981685 -0.51235368 148.6917844 1.78125 148.65942383 C3.0869696 148.64832077 4.39268921 148.63721771 5.73797607 148.6257782 C9.20152777 148.20606132 10.66359814 147.76170393 13.02832031 145.22705078 C13.69498698 141.72705078 13.69498698 141.72705078 13.02832031 138.22705078 C10.72305896 135.80887323 9.29614438 135.2619199 5.96575928 134.82832336 C4.76662903 134.81722031 3.56749878 134.80611725 2.33203125 134.79467773 C1.66820435 134.78448608 1.00437744 134.77429443 0.32043457 134.76379395 C-1.86556465 134.73368981 -4.0511255 134.72440246 -6.23730469 134.71533203 C-7.75617933 134.69848334 -9.27504005 134.68033283 -10.79388428 134.66093445 C-14.78539681 134.6134486 -18.77685287 134.58363031 -22.76855469 134.55749512 C-26.84418897 134.52768231 -30.9196287 134.48115449 -34.99511719 134.43603516 C-42.98720907 134.35001822 -50.9793187 134.282666 -58.97167969 134.22705078 C-57.14372428 127.21621218 -55.08332712 120.36658852 -52.62792969 113.55126953 C-52.30624817 112.64753098 -51.98456665 111.74379242 -51.65313721 110.81266785 C-50.95862919 108.86282615 -50.26230804 106.91362947 -49.56433105 104.96502686 C-48.06167174 100.7698861 -46.56778195 96.57163918 -45.07342529 92.37353516 C-44.27995325 90.14453997 -43.48604115 87.9157014 -42.69171143 85.68701172 C-37.99595807 72.50578507 -33.35936522 59.30379407 -28.72167969 46.10205078 C-27.9163863 43.80996135 -27.11104882 41.51788741 -26.30566406 39.22583008 C-25.73114502 37.59042519 -25.73114502 37.59042519 -25.14501953 35.92198181 C-24.40577315 33.82017049 -23.66525531 31.71880584 -22.92333984 29.61793518 C-21.4111308 25.33543584 -19.90521218 21.05251182 -18.45800781 16.74755859 C-18.03455078 15.50586914 -17.61109375 14.26417969 -17.17480469 12.98486328 C-16.66675293 11.45949951 -16.66675293 11.45949951 -16.1484375 9.90332031 C-14.54808039 6.26366997 -12.62676403 3.32704585 -9.27539062 1.09967041 C-6.10989991 -0.09938164 -3.38319882 -0.01199716 0 0 Z " fill="#8892D8" transform="translate(294.9716796875,14.77294921875)"/>
<path d="M0 0 C2.66433008 1.33216504 2.74447159 2.47151628 3.6875 5.25 C3.95949219 6.01828125 4.23148438 6.7865625 4.51171875 7.578125 C5.33549049 11.66403284 4.51674272 14.14867566 2.37109375 17.68359375 C1.08239437 19.51901408 -0.20927402 21.35235339 -1.50390625 23.18359375 C-3.2333939 26.43936554 -3.35510312 28.36394411 -3 32 C-2.67 32.99 -2.34 33.98 -2 35 C1.31544299 36.10514766 4.20410111 36.32107631 7.6875 36.5625 C8.86699219 36.64628906 10.04648438 36.73007812 11.26171875 36.81640625 C12.61716797 36.90728516 12.61716797 36.90728516 14 37 C14.24645264 37.76143311 14.49290527 38.52286621 14.74682617 39.30737305 C15.87817722 42.77271318 17.03254572 46.22995858 18.1875 49.6875 C18.57486328 50.88568359 18.96222656 52.08386719 19.36132812 53.31835938 C19.75126953 54.47529297 20.14121094 55.63222656 20.54296875 56.82421875 C21.0692688 58.41882935 21.0692688 58.41882935 21.60620117 60.0456543 C24.42173315 66.01355628 29.26556381 69.13278191 35 72 C42.95186281 72.75732027 47.9898543 70.58253302 55 67 C67.77784974 60.46988342 67.77784974 60.46988342 75 62 C79.80297861 63.75631307 84.28106285 66.12153764 88.828125 68.4453125 C95.68711627 71.79817136 101.25675848 73.54685799 108.70703125 71.1171875 C109.40183594 70.70726562 110.09664063 70.29734375 110.8125 69.875 C111.52019531 69.48054688 112.22789062 69.08609375 112.95703125 68.6796875 C119.19540189 63.55062559 120.88856383 56.05040485 123.25 48.625 C123.61351562 47.50738281 123.97703125 46.38976562 124.3515625 45.23828125 C125.24262823 42.49473677 126.12513857 39.74874584 127 37 C127.90363281 36.95101562 128.80726563 36.90203125 129.73828125 36.8515625 C131.50751953 36.73941406 131.50751953 36.73941406 133.3125 36.625 C135.07013672 36.52058594 135.07013672 36.52058594 136.86328125 36.4140625 C140.15699887 36.21386253 140.15699887 36.21386253 143 34 C144.15700424 30.71167215 144.5715134 29.34970353 144 26 C142.20389488 23.03742894 142.20389488 23.03742894 139.9375 20.0625 C136.04312548 14.6984224 136.04312548 14.6984224 135.83984375 11.40625 C136.36136404 9.12221953 137.04160384 7.13460963 138 5 C138.556875 3.4840625 138.556875 3.4840625 139.125 1.9375 C139.41375 1.298125 139.7025 0.65875 140 0 C143.15605202 1.57802601 143.62728129 4.76425131 144.78515625 7.921875 C145.04630722 8.61887512 145.30745819 9.31587524 145.57652283 10.03399658 C146.12869927 11.51229024 146.67739621 12.99188748 147.22290039 14.47265625 C148.05503126 16.72974168 148.89861705 18.98227719 149.74414062 21.234375 C150.27933465 22.67161869 150.81386135 24.10911109 151.34765625 25.546875 C151.59870621 26.21789246 151.84975616 26.88890991 152.1084137 27.58026123 C155.78728614 37.60797266 156.67853569 47.89102885 152.55859375 57.94140625 C149.44959118 64.04253159 145.57756141 69.6493304 141.76855469 75.32910156 C139.73219528 78.4044428 137.74030482 81.50700018 135.7578125 84.6171875 C135.39546509 85.18563385 135.03311768 85.7540802 134.65979004 86.3397522 C133.56435753 88.05951549 132.46959492 89.77970351 131.375 91.5 C129.98874997 93.67822638 128.60045638 95.85510266 127.2109375 98.03125 C126.31834229 99.43213867 126.31834229 99.43213867 125.40771484 100.86132812 C124 103 124 103 123 104 C123.34819783 107.07574752 123.68439738 110.03818594 124.65209961 112.98730469 C125.32922444 116.90465 122.55074612 120.02088291 120.5625 123.25 C119.94084961 124.36761719 119.94084961 124.36761719 119.30664062 125.5078125 C118.00613761 127.63697187 116.86994001 129.34368561 115 131 C113.04248047 131.27148438 113.04248047 131.27148438 110.96484375 131.109375 C106.88558088 130.53395751 106.88558088 130.53395751 104.36328125 133.4453125 C103.54603552 134.61006742 102.76062804 135.79750692 102 137 C101.30076416 138.03398926 101.30076416 138.03398926 100.58740234 139.08886719 C99.08772593 141.33121697 97.63313795 143.59749295 96.1875 145.875 C95.43436523 147.050625 95.43436523 147.050625 94.66601562 148.25 C93.44035099 150.16437143 92.21845604 152.08103564 91 154 C89.89224637 150.6767391 90.087966 149.93611118 91.07421875 146.7109375 C91.32768066 145.86031738 91.58114258 145.00969727 91.84228516 144.13330078 C92.12120605 143.22306152 92.40012695 142.31282227 92.6875 141.375 C94.68060115 134.6587903 96.57473356 127.95786341 98.125 121.125 C99.65485858 114.39601267 101.36082003 107.73402976 103.16796875 101.07421875 C103.57982422 99.55248047 103.57982422 99.55248047 104 98 C104.19722656 97.28714844 104.39445312 96.57429688 104.59765625 95.83984375 C105.33546733 92.46596978 105.22280728 89.45351278 105 86 C101.32653229 83.55102153 99.33643601 83.68462284 95 84 C92.28045476 86.71954524 91.77294674 89.75592531 90.8125 93.375 C90.49647827 94.53660645 90.49647827 94.53660645 90.17407227 95.72167969 C87.83200462 104.43252779 85.68915219 113.19503272 83.52124023 121.95043945 C81.79895009 128.88436543 80.00088962 135.76747551 77.96875 142.6171875 C77.17581073 145.38608027 76.43424352 148.15593999 75.71875 150.9453125 C75.49590332 151.81212646 75.27305664 152.67894043 75.04345703 153.57202148 C74.60728586 155.27863279 74.1757516 156.98643786 73.74951172 158.69555664 C73.55115723 159.47020264 73.35280273 160.24484863 73.1484375 161.04296875 C72.97489746 161.73414795 72.80135742 162.42532715 72.62255859 163.13745117 C72 165 72 165 70 168 C66.22476399 153.89031904 62.50132235 139.76725068 58.81518555 125.6340332 C58.31383081 123.71301359 57.81139114 121.79227681 57.30786133 119.87182617 C55.97406264 114.77668953 54.66493759 109.67676999 53.390625 104.56640625 C53.12628662 103.51936523 52.86194824 102.47232422 52.58959961 101.39355469 C52.08284817 99.38437994 51.58330897 97.3733682 51.09204102 95.36035156 C50.86186279 94.45381836 50.63168457 93.54728516 50.39453125 92.61328125 C50.19706299 91.81704346 49.99959473 91.02080566 49.79614258 90.20043945 C48.87758447 87.66165864 47.84799881 85.96966864 46 84 C42.55514741 83.56939343 40.15493758 83.36664713 37.0625 85.0625 C33.47893932 91.5972283 37.53052248 100.9602114 39.25 107.5625 C39.57137939 108.8208667 39.89275879 110.0792334 40.22387695 111.37573242 C42.34455042 119.62779035 44.60264682 127.82441096 47 136 C47.78721889 138.72478 48.55493724 141.45433879 49.3125 144.1875 C49.65925781 145.41855469 50.00601563 146.64960938 50.36328125 147.91796875 C51 151 51 151 50 154 C49.64397705 153.43829102 49.2879541 152.87658203 48.92114258 152.29785156 C42.01771395 141.41222766 35.0803452 130.55141131 28.03833008 119.75488281 C22.96753879 111.97148876 17.96624582 104.14430566 12.96606445 96.31542969 C8.09806487 88.69964146 3.19179353 81.10980195 -1.75195312 73.54296875 C-3.17309657 71.36525885 -4.5872273 69.18314653 -6 67 C-6.46446533 66.29222412 -6.92893066 65.58444824 -7.4074707 64.85522461 C-9.75440554 61.2159605 -11.68873999 57.9131005 -12.8125 53.6875 C-13.04582031 52.86636719 -13.27914062 52.04523438 -13.51953125 51.19921875 C-15.34261977 39.06011712 -11.94393722 30.09346233 -7.5625 18.9375 C-6.94301384 17.31898904 -6.32516172 15.69985166 -5.70898438 14.08007812 C-1.39472854 2.78945708 -1.39472854 2.78945708 0 0 Z " fill="#DCDADF" transform="translate(221,272)"/>
<path d="M0 0 C1.49162175 -0.01030786 2.98321899 -0.02489252 4.47476196 -0.04336548 C8.48168103 -0.08003498 12.48589966 -0.05476102 16.49270225 -0.01518488 C20.70893076 0.01787795 24.92500748 -0.00007652 29.14131165 -0.01022339 C36.21492077 -0.01923069 43.28746615 0.0122621 50.36083984 0.06835938 C58.51397564 0.13252541 66.6651984 0.13239374 74.81847066 0.09792984 C82.69853066 0.0661019 90.57789584 0.07972324 98.4579258 0.11380386 C101.7955378 0.12747239 105.13258669 0.1255566 108.47019005 0.11071396 C112.40522849 0.09528454 116.33811307 0.11996153 120.27278519 0.17441177 C121.70812528 0.18807304 123.1436687 0.18848998 124.57900047 0.17398071 C135.03858161 0.08050326 140.71867788 2.39403792 148.5402832 9.26220703 C149.64800496 10.05170222 150.76961517 10.82266927 151.9128418 11.55981445 C153.87611593 12.83844637 155.83626649 14.1218804 157.79418945 15.40869141 C159.89670495 16.7836155 162.00090844 18.15596139 164.10668945 19.52587891 C165.12375977 20.19554687 166.14083008 20.86521484 167.1887207 21.55517578 C168.09799316 22.14838623 169.00726563 22.74159668 169.9440918 23.3527832 C172.5402832 25.26220703 172.5402832 25.26220703 177.5402832 30.26220703 C100.6502832 30.26220703 23.7602832 30.26220703 -55.4597168 30.26220703 C-52.06966733 26.87215757 -49.70670598 24.5557773 -45.86987305 22.06298828 C-45.00168945 21.49257812 -44.13350586 20.92216797 -43.23901367 20.33447266 C-41.89419922 19.46338867 -41.89419922 19.46338867 -40.5222168 18.57470703 C-38.76138541 17.42759847 -37.00230549 16.27779746 -35.24487305 15.12548828 C-33.92842285 14.27496289 -33.92842285 14.27496289 -32.58537769 13.40725517 C-29.4016161 11.28641858 -29.4016161 11.28641858 -26.3757658 8.74180794 C-17.81068009 1.78180984 -11.18936017 -0.19984103 0 0 Z " fill="#6B77C9" transform="translate(230.459716796875,195.73779296875)"/>
<path d="M0 0 C13.08552737 6.561194 20.38821488 15.76080088 25.5625 29.3125 C27.87713931 41.30654005 25.73329664 53.2364889 19.0390625 63.4921875 C13.4125838 70.98596918 7.23845569 76.81398245 -1.75 79.875 C-6.60415343 80.56296529 -11.35443449 80.57547121 -16.25 80.5 C-17.50425781 80.51933594 -18.75851563 80.53867187 -20.05078125 80.55859375 C-30.50149351 80.50387798 -38.45327317 77.7317068 -46.1640625 70.58203125 C-53.7642651 62.40151762 -58.91952827 51.59502051 -59.3125 40.375 C-58.70316183 27.0818068 -53.60410427 16.14324947 -43.9375 7.0625 C-31.94357289 -2.84654525 -14.60473378 -5.84939273 0 0 Z " fill="#D1ECF8" transform="translate(130.75,203.125)"/>
<path d="M0 0 C11.88284222 1.53326996 22.41337252 9.38777099 29.93359375 18.28125 C38.69903724 29.81385617 40.5017328 43.08009683 43 57 C43.15057861 57.83567505 43.30115723 58.6713501 43.45629883 59.53234863 C45.03820642 68.31700951 46.60996173 77.10343171 48.14599609 85.89624023 C48.47491458 87.77588246 48.80385301 89.6555212 49.1328125 91.53515625 C49.29103485 92.44287277 49.4492572 93.35058929 49.61227417 94.28581238 C50.32630035 98.34428164 51.06399755 102.39190747 51.90917969 106.42529297 C52.05016083 107.09878281 52.19114197 107.77227264 52.33639526 108.46617126 C52.70904999 110.21553536 53.09392327 111.96228493 53.47998047 113.70874023 C54 117 54 117 54 125 C36.51 125 19.02 125 1 125 C-4.22956052 101.46697766 -4.22956052 101.46697766 -1.77734375 96.546875 C0 94.6875 0 94.6875 1.984375 92.93359375 C9.48873992 85.73463903 12.85440097 72.98893777 13.27734375 62.8515625 C13.18277352 55.18420939 11.5662884 47.64874677 10.17407227 40.13232422 C9.6889894 37.50805754 9.21947453 34.88135203 8.75195312 32.25390625 C5.93748655 16.6408024 5.93748655 16.6408024 0 2 C0 1.34 0 0.68 0 0 Z " fill="#6F7CD1" transform="translate(402,372)"/>
<path d="M0 0 C13.2 0 26.4 0 40 0 C40 7.8814984 38.62008259 12.03596656 33.35546875 17.80078125 C24.87746066 25.51328071 16.88568638 25.37826709 6 25 C5.66226563 24.21753906 5.32453125 23.43507813 4.9765625 22.62890625 C4.53054688 21.61699219 4.08453125 20.60507812 3.625 19.5625 C3.18414062 18.55316406 2.74328125 17.54382813 2.2890625 16.50390625 C1.24923714 13.87856453 1.24923714 13.87856453 -1 13 C-5.6492292 12.61962993 -5.6492292 12.61962993 -10 14 C-12.27399812 18.54799623 -9.93239722 24.52820957 -8.41210938 29.10351562 C-7.73096843 31.04070316 -7.04097298 32.97479235 -6.34375 34.90625 C-5.96915146 35.96435883 -5.59455292 37.02246765 -5.20860291 38.11264038 C-3.97987709 41.5778011 -2.73988836 45.03881957 -1.5 48.5 C-0.64510269 50.9061244 0.20897297 53.31254088 1.06225586 55.71923828 C3.26328386 61.92180519 5.47323215 68.12114883 7.68621826 74.31945801 C10.9486939 83.45923994 14.20152524 92.60244419 17.44970703 101.74731445 C18.54356691 104.82178548 19.64256097 107.89438443 20.7421875 110.96679688 C21.41291777 112.85020439 22.08349904 114.73366497 22.75390625 116.6171875 C23.20577049 117.87310196 23.20577049 117.87310196 23.66676331 119.15438843 C25.40615127 124.05765854 26.81672296 128.93274747 28 134 C26.64455078 134.05607422 26.64455078 134.05607422 25.26171875 134.11328125 C24.08222656 134.17902344 22.90273438 134.24476563 21.6875 134.3125 C19.92986328 134.39951172 19.92986328 134.39951172 18.13671875 134.48828125 C14.85755224 135.02323868 13.90677999 135.37173569 12 138 C10.82425289 140.09989652 10.82425289 140.09989652 10 142 C7.69824219 141.49462891 7.69824219 141.49462891 5 140 C3.68122878 137.31285947 2.73037109 134.91214584 1.828125 132.0859375 C1.54842361 131.26462845 1.26872223 130.4433194 0.98054504 129.59712219 C0.05295752 126.8619494 -0.84794278 124.11868732 -1.75 121.375 C-2.39824039 119.45212709 -3.04875396 117.53001918 -3.70141602 115.60864258 C-4.73113399 112.57610095 -5.75926388 109.54310452 -6.78053284 106.50770569 C-10.35625385 95.88390419 -14.09089309 85.31818475 -17.84655762 74.75689697 C-18.90458554 71.78010574 -19.95915622 68.80211293 -21.01269531 65.82373047 C-21.34747894 64.87880737 -21.68226257 63.93388428 -22.02719116 62.96032715 C-22.68851217 61.09330048 -23.34870803 59.22587484 -24.00772095 57.35803223 C-25.71349966 52.54265317 -27.46416862 47.74949853 -29.28173828 42.97509766 C-29.65359756 41.98749954 -30.02545685 40.99990143 -30.40858459 39.9823761 C-31.11661981 38.1075421 -31.8350379 36.23658196 -32.56590271 34.37052917 C-34.58797378 28.99031942 -35.54373906 24.75572506 -35 19 C-33.20636089 16.1899654 -31.98119065 14.49059532 -29 13 C-27.00221788 12.73285472 -25.00169451 12.48604888 -23 12.25 C-14.54192064 10.99625815 -7.303322 7.89665607 -1 2 C-0.67 1.34 -0.34 0.68 0 0 Z " fill="#6F7CD1" transform="translate(319,15)"/>
<path d="M0 0 C3.15605202 1.57802601 3.62728129 4.76425131 4.78515625 7.921875 C5.04630722 8.61887512 5.30745819 9.31587524 5.57652283 10.03399658 C6.12869927 11.51229024 6.67739621 12.99188748 7.22290039 14.47265625 C8.05503126 16.72974168 8.89861705 18.98227719 9.74414062 21.234375 C10.27933465 22.67161869 10.81386135 24.10911109 11.34765625 25.546875 C11.59870621 26.21789246 11.84975616 26.88890991 12.1084137 27.58026123 C15.78728614 37.60797266 16.67853569 47.89102885 12.55859375 57.94140625 C9.44959118 64.04253159 5.57756141 69.6493304 1.76855469 75.32910156 C-0.26780472 78.4044428 -2.25969518 81.50700018 -4.2421875 84.6171875 C-4.60453491 85.18563385 -4.96688232 85.7540802 -5.34020996 86.3397522 C-6.43564247 88.05951549 -7.53040508 89.77970351 -8.625 91.5 C-10.01125003 93.67822638 -11.39954362 95.85510266 -12.7890625 98.03125 C-13.68165771 99.43213867 -13.68165771 99.43213867 -14.59228516 100.86132812 C-16 103 -16 103 -17 104 C-16.65180217 107.07574752 -16.31560262 110.03818594 -15.34790039 112.98730469 C-14.67077556 116.90465 -17.44925388 120.02088291 -19.4375 123.25 C-19.85193359 123.99507813 -20.26636719 124.74015625 -20.69335938 125.5078125 C-21.99386239 127.63697187 -23.13005999 129.34368561 -25 131 C-26.95751953 131.27148438 -26.95751953 131.27148438 -29.03515625 131.109375 C-33.11441912 130.53395751 -33.11441912 130.53395751 -35.63671875 133.4453125 C-36.45396448 134.61006742 -37.23937196 135.79750692 -38 137 C-38.69923584 138.03398926 -38.69923584 138.03398926 -39.41259766 139.08886719 C-40.91227407 141.33121697 -42.36686205 143.59749295 -43.8125 145.875 C-44.31458984 146.65875 -44.81667969 147.4425 -45.33398438 148.25 C-46.55964901 150.16437143 -47.78154396 152.08103564 -49 154 C-50.10775363 150.6767391 -49.912034 149.93611118 -48.92578125 146.7109375 C-48.67231934 145.86031738 -48.41885742 145.00969727 -48.15771484 144.13330078 C-47.87879395 143.22306152 -47.59987305 142.31282227 -47.3125 141.375 C-45.31939885 134.6587903 -43.42526644 127.95786341 -41.875 121.125 C-40.34514142 114.39601267 -38.63917997 107.73402976 -36.83203125 101.07421875 C-36.42017578 99.55248047 -36.42017578 99.55248047 -36 98 C-35.80277344 97.28585937 -35.60554688 96.57171875 -35.40234375 95.8359375 C-34.66231959 92.45912824 -34.78031983 89.45996265 -35 86 C-36.43353122 84.25801278 -36.43353122 84.25801278 -38 83 C-37.566875 82.30132812 -37.13375 81.60265625 -36.6875 80.8828125 C-35.8521875 79.51769531 -35.8521875 79.51769531 -35 78.125 C-34.443125 77.22007812 -33.88625 76.31515625 -33.3125 75.3828125 C-31.83917671 73.16142533 -31.83917671 73.16142533 -32 71 C-30.10258367 69.8118121 -28.13654379 68.81743148 -26.140625 67.8046875 C-20.30157799 62.88198729 -18.50316684 54.01092688 -16.25 47 C-15.77626953 45.55173828 -15.77626953 45.55173828 -15.29296875 44.07421875 C-14.52308029 41.71789347 -13.75889935 39.35988263 -13 37 C-12.09636719 36.95101562 -11.19273437 36.90203125 -10.26171875 36.8515625 C-8.49248047 36.73941406 -8.49248047 36.73941406 -6.6875 36.625 C-4.92986328 36.52058594 -4.92986328 36.52058594 -3.13671875 36.4140625 C0.15699887 36.21386253 0.15699887 36.21386253 3 34 C4.15700424 30.71167215 4.5715134 29.34970353 4 26 C2.20389488 23.03742894 2.20389488 23.03742894 -0.0625 20.0625 C-3.95687452 14.6984224 -3.95687452 14.6984224 -4.16015625 11.40625 C-3.63863596 9.12221953 -2.95839616 7.13460963 -2 5 C-1.62875 3.989375 -1.2575 2.97875 -0.875 1.9375 C-0.58625 1.298125 -0.2975 0.65875 0 0 Z " fill="#C2BEC4" transform="translate(361,272)"/>
<path d="M0 0 C11.89568138 5.3774998 18.93508763 12.31144947 24.0390625 24.4765625 C27.79277123 35.52720035 26.61212255 47.10427059 21.78125 57.6640625 C16.3563487 67.39874649 8.69221954 75.35876587 -2 79 C-6.85415343 79.68796529 -11.60443449 79.70047121 -16.5 79.625 C-17.75425781 79.64433594 -19.00851563 79.66367187 -20.30078125 79.68359375 C-32.01252677 79.62227571 -39.62358516 76.01222289 -48 68 C-48 67.67 -48 67.34 -48 67 C-47.14019531 66.91363281 -46.28039062 66.82726562 -45.39453125 66.73828125 C-29.44942001 64.84295178 -16.9149502 59.6005401 -6.51171875 47.0390625 C-3.18499682 42.55185618 -1.03359348 38.98201508 -0.9375 33.3125 C-2.39311459 28.77440745 -4.76440286 26.28211265 -8.88671875 23.91796875 C-11.11271254 22.95103984 -13.11138555 22.52582914 -15.5 22.125 C-18.46787898 21.48937518 -20.00948643 20.99352146 -22.5625 19.25 C-24.49243724 16.22922867 -24.58688021 14.52128126 -24 11 C-21.90794553 8.31438589 -20.71001434 7.14158644 -17.3359375 6.46875 C-9.96315529 6.546563 -4.67976542 7.85658098 2 11 C1.34 7.37 0.68 3.74 0 0 Z " fill="#AEE0F5" transform="translate(131,204)"/>
<path d="M0 0 C6.27 0 12.54 0 19 0 C19.99 1.98 20.98 3.96 22 6 C24.29308963 7.14654482 25.79909656 7.19729117 28.3515625 7.31640625 C29.62773437 7.37924805 29.62773437 7.37924805 30.9296875 7.44335938 C31.81914062 7.48267578 32.70859375 7.52199219 33.625 7.5625 C34.97078125 7.62727539 34.97078125 7.62727539 36.34375 7.69335938 C38.56234283 7.79956861 40.7810488 7.90161194 43 8 C44.00605593 10.60197202 45.00502525 13.20629362 46 15.8125 C46.28617188 16.55048828 46.57234375 17.28847656 46.8671875 18.04882812 C47.13789063 18.76103516 47.40859375 19.47324219 47.6875 20.20703125 C48.06455078 21.18893433 48.06455078 21.18893433 48.44921875 22.19067383 C49 24 49 24 49 27 C4.45 27 -40.1 27 -86 27 C-84.18547246 20.34673235 -82.50449907 14.3208786 -80 8 C-79.08180481 7.99413376 -78.16360962 7.98826752 -77.21759033 7.98222351 C-68.56557105 7.9243262 -59.91381074 7.85226652 -51.262043 7.76428509 C-46.81403667 7.71955241 -42.36612254 7.68030277 -37.91796875 7.65356445 C-33.62544719 7.62756023 -29.33327992 7.58717854 -25.04097748 7.53681374 C-23.40316931 7.52012546 -21.76529983 7.50862339 -20.12741852 7.50238609 C-17.83359108 7.49276607 -15.54067399 7.46473362 -13.24707031 7.43237305 C-11.94135071 7.42126999 -10.6356311 7.41016693 -9.29034424 7.39872742 C-5.78368733 6.973787 -4.43250754 6.50658381 -2 4 C-1.34 2.68 -0.68 1.36 0 0 Z " fill="#F7F28D" transform="translate(310,156)"/>
<path d="M0 0 C4.29 0 8.58 0 13 0 C13 57.75 13 115.5 13 175 C8.71 175 4.42 175 0 175 C-0.00546844 172.47305733 -0.00546844 172.47305733 -0.01104736 169.89506531 C-0.04793152 154.04658525 -0.10539332 138.19832089 -0.18390274 122.34999371 C-0.22373796 114.20150605 -0.25610757 106.05311559 -0.27099609 97.90454102 C-0.28398949 90.80348759 -0.31089456 83.70264764 -0.35461307 76.60171443 C-0.37728036 72.8406264 -0.39290756 69.07980216 -0.39188385 65.31863976 C-0.39100229 61.12317429 -0.42117489 56.92849058 -0.45410156 52.7331543 C-0.4490712 51.48159042 -0.44404083 50.23002655 -0.43885803 48.9405365 C-0.45277084 47.80050171 -0.46668365 46.66046692 -0.48101807 45.48588562 C-0.48470524 44.49311458 -0.48839241 43.50034353 -0.49219131 42.47748852 C-0.78249711 39.87407923 -0.78249711 39.87407923 -2.84493637 38.21963215 C-5.06715616 36.87092233 -5.06715616 36.87092233 -8 36 C-8 29.4 -8 22.8 -8 16 C-6.35 15.34 -4.7 14.68 -3 14 C-0.31907309 11.31907309 -0.61329743 9.60832637 -0.375 5.875 C-0.189375 2.966875 -0.189375 2.966875 0 0 Z " fill="#D8B3A7" transform="translate(108,322)"/>
<path d="M0 0 C0.33 0 0.66 0 1 0 C1.99 8.91 1.99 8.91 3 18 C-60.69 18 -124.38 18 -190 18 C-189.34 12.72 -188.68 7.44 -188 2 C-187.67 3.32 -187.34 4.64 -187 6 C-164.89428706 5.91600382 -142.78864713 5.82083508 -120.68303967 5.71247292 C-110.41834684 5.66241386 -100.15366174 5.61597028 -89.88891602 5.578125 C-80.93910405 5.5451185 -71.98935318 5.50523976 -63.03960878 5.45720994 C-58.30358653 5.43203085 -53.56760436 5.41022447 -48.83153343 5.39665604 C-44.36722788 5.38375739 -39.90306039 5.36162004 -35.43883133 5.33261681 C-33.80672137 5.32360169 -32.17458921 5.3178651 -30.54245567 5.31578636 C-21.83469866 5.30271798 -13.53219024 4.94469644 -5 3 C-3.33399447 2.66337788 -1.6674975 2.32915188 0 2 C0 1.34 0 0.68 0 0 Z " fill="#6F7CD2" transform="translate(385,479)"/>
<path d="M0 0 C4.10502059 0.06946403 8.21015998 0.07528005 12.31567764 0.08827949 C20.06499091 0.12226758 27.81256679 0.21225168 35.56112003 0.32312387 C44.39299867 0.44671338 53.22496687 0.50671421 62.05749702 0.56177366 C80.20337469 0.67629387 98.34764261 0.86937104 116.49219131 1.11533332 C116.69426042 6.48139062 115.95806746 8.90007854 112.49219131 13.11533332 C108.54598388 16.04130724 105.72281354 16.48762366 100.85466385 16.47609687 C99.87432842 16.47994178 99.87432842 16.47994178 98.87418824 16.48386437 C96.69215869 16.48879159 94.51082665 16.47232786 92.32886124 16.45590949 C90.76164135 16.45506298 89.19442027 16.45553882 87.62720108 16.45723701 C83.37752827 16.45809747 79.12810968 16.44046349 74.87849593 16.41951513 C70.43555729 16.40075684 65.99261278 16.39899856 61.54964066 16.39543891 C53.13845875 16.38611596 44.72739388 16.36149878 36.3162635 16.33139044 C26.73956271 16.29785423 17.16285632 16.28136238 7.58611143 16.26630414 C-12.11192725 16.23494945 -31.8098606 16.18218406 -51.50780869 16.11533332 C-50.90344482 15.51223995 -50.29908096 14.90914659 -49.67640305 14.28777766 C-48.04487252 12.65335062 -46.42474079 11.00753272 -44.81029892 9.35622382 C-32.06588664 -2.11373366 -16.04196757 -0.31787159 0 0 Z " fill="#8892D9" transform="translate(245.50780868530273,196.88466668128967)"/>
<path d="M0 0 C21.45 0 42.9 0 65 0 C65 7.26 65 14.52 65 22 C62.15986706 24.84013294 60.23545765 24.25444527 56.26171875 24.2734375 C54.86913324 24.29377115 53.47655521 24.31462259 52.08398438 24.3359375 C49.90350073 24.35827404 47.72331632 24.37490215 45.54272461 24.38085938 C32.90125365 24.4390145 21.94709077 26.18847685 11 33 C10.34 33 9.68 33 9 33 C7.48201178 28.81880372 5.98887181 24.6291436 4.5 20.4375 C4.07074219 19.25607422 3.64148438 18.07464844 3.19921875 16.85742188 C2.79316406 15.70693359 2.38710937 14.55644531 1.96875 13.37109375 C1.59169922 12.31849365 1.21464844 11.26589355 0.82617188 10.18139648 C0 7 0 7 0 0 Z " fill="#FBC8BB" transform="translate(229,241)"/>
<path d="M0 0 C11.67402425 1.76965649 23.2107494 2.54518627 35 3 C34.08013971 6.13047066 33.13616583 9.25314931 32.1875 12.375 C31.92646484 13.26445312 31.66542969 14.15390625 31.39648438 15.0703125 C31.00493164 16.34648437 31.00493164 16.34648437 30.60546875 17.6484375 C30.36981201 18.43395996 30.13415527 19.21948242 29.89135742 20.02880859 C29 22 29 22 26 24 C21.10245535 23.71556909 16.76776747 21.12610557 12.4375 19 C10.9378412 18.26745958 9.43658703 17.53817429 7.93359375 16.8125 C7.27415771 16.48894531 6.61472168 16.16539062 5.93530273 15.83203125 C-0.87887541 12.90245901 -9.10064195 12.82824777 -16.1328125 14.94140625 C-19.14726021 16.19677025 -22.07401443 17.55068005 -25 19 C-26.97442857 19.96805748 -28.95345724 20.92680286 -30.9375 21.875 C-31.79214844 22.30554688 -32.64679688 22.73609375 -33.52734375 23.1796875 C-36.67123486 24.22268455 -37.98477463 24.4583443 -41 23 C-42.54590092 20.35225455 -43.40869259 17.54389255 -44.3125 14.625 C-44.57611328 13.84382813 -44.83972656 13.06265625 -45.11132812 12.2578125 C-46.18296909 9.00670432 -47 6.44945904 -47 3 C-46.20416504 2.9498877 -45.40833008 2.89977539 -44.58837891 2.84814453 C-40.93343707 2.61403715 -37.27925468 2.36959047 -33.625 2.125 C-32.37332031 2.04636719 -31.12164062 1.96773438 -29.83203125 1.88671875 C-23.45172578 1.45245712 -17.3096753 0.85941331 -11.08227539 -0.62646484 C-7.30398494 -1.3042447 -3.75135278 -0.61572356 0 0 Z " fill="#FCC8BB" transform="translate(298,306)"/>
<path d="M0 0 C1.20540436 -0.0127597 2.41080872 -0.02551941 3.65274048 -0.03866577 C4.94860077 -0.04089142 6.24446106 -0.04311707 7.57958984 -0.04541016 C8.93614845 -0.0518464 10.2927057 -0.05857536 11.64926147 -0.06558228 C14.49211843 -0.07754018 17.33485406 -0.081265 20.17773438 -0.08007812 C23.79206819 -0.07987581 27.40560794 -0.10709216 31.01975441 -0.14162254 C33.82363333 -0.16404888 36.62732651 -0.1679108 39.43128586 -0.16685867 C41.40246173 -0.17031866 43.37357961 -0.19189301 45.34463501 -0.21395874 C57.28255384 -0.15396032 65.74832507 2.72326132 74.91552734 10.29052734 C75.90552734 10.95052734 76.89552734 11.61052734 77.91552734 12.29052734 C77.91552734 12.95052734 77.91552734 13.61052734 77.91552734 14.29052734 C73.89945382 14.34087349 69.8835085 14.37668153 65.8671875 14.40039062 C63.84807861 14.41510785 61.82905682 14.44055101 59.81005859 14.46630859 C50.16073899 14.51384219 40.16042224 14.37215898 30.91552734 11.29052734 C25.21752565 10.84826367 19.92134979 11.25876471 14.41162109 12.75537109 C5.47699095 14.67093342 -3.56311055 14.40991553 -12.64697266 14.35302734 C-14.05126793 14.348001 -15.45556495 14.34344011 -16.85986328 14.33935547 C-20.26811169 14.32764327 -23.67626906 14.31124106 -27.08447266 14.29052734 C-23.88343405 10.13845553 -21.32415587 7.46362382 -16.58447266 5.04052734 C-15.66666016 4.56099609 -14.74884766 4.08146484 -13.80322266 3.58740234 C-8.98932438 1.29111754 -5.39212494 0.03888539 0 0 Z " fill="#E7E7EA" transform="translate(266.08447265625,279.70947265625)"/>
<path d="M0 0 C14.85 0 29.7 0 45 0 C45 5.73230144 44.84634718 8.30394745 43.03125 13.37109375 C42.62519531 14.52158203 42.21914063 15.67207031 41.80078125 16.85742188 C41.37152344 18.03884766 40.94226563 19.22027344 40.5 20.4375 C40.07074219 21.64599609 39.64148438 22.85449219 39.19921875 24.09960938 C38.14254301 27.07004229 37.07590587 30.03648978 36 33 C33.52871472 32.01425829 31.06063955 31.02532419 28.60546875 30 C18.91054056 25.99046588 10.46205259 24.65387829 0 24 C0 16.08 0 8.16 0 0 Z " fill="#FCC9BC" transform="translate(309,241)"/>
<path d="M0 0 C7.74438889 1.09815625 15.00904613 5.60594925 20.16796875 11.44921875 C24.99405734 18.5856689 28.13393189 25.75555051 27.16796875 34.44921875 C24.70244889 37.92995268 23.31903176 39.23779901 19.10546875 40.01171875 C16.16796875 39.44921875 16.16796875 39.44921875 13.91796875 38.07421875 C11.70726042 34.75815625 11.37831422 31.80546508 10.71484375 27.921875 C9.66220302 23.16243514 7.51568402 20.32680079 3.48046875 17.69921875 C0.74735059 16.66785341 -1.61486126 16.05775141 -4.45703125 15.51171875 C-7.40393012 14.90047328 -8.85530465 14.43332472 -11.39453125 12.69921875 C-13.32446849 9.67844742 -13.41891146 7.97050001 -12.83203125 4.44921875 C-9.05684349 -0.38828929 -5.81410584 -0.20537036 0 0 Z " fill="#040505" transform="translate(119.83203125,210.55078125)"/>
<path d="M0 0 C14.85 0 29.7 0 45 0 C45 10 45 10 44 12 C29.48 12 14.96 12 0 12 C0 8.04 0 4.08 0 0 Z " fill="#6F7CD2" transform="translate(136,485)"/>
<path d="M0 0 C1.65 0 3.3 0 5 0 C5.28875 0.804375 5.5775 1.60875 5.875 2.4375 C6.73262568 5.1326468 6.73262568 5.1326468 9 6 C10.4465242 6.15067214 11.8987934 6.24861036 13.3515625 6.31640625 C14.62773437 6.37924805 14.62773437 6.37924805 15.9296875 6.44335938 C16.81914062 6.48267578 17.70859375 6.52199219 18.625 6.5625 C19.97078125 6.62727539 19.97078125 6.62727539 21.34375 6.69335938 C23.56234283 6.79956861 25.7810488 6.90161194 28 7 C29.00605593 9.60197202 30.00502525 12.20629362 31 14.8125 C31.28617188 15.55048828 31.57234375 16.28847656 31.8671875 17.04882812 C32.13789063 17.76103516 32.40859375 18.47324219 32.6875 19.20703125 C33.06455078 20.18893433 33.06455078 20.18893433 33.44921875 21.19067383 C34 23 34 23 34 26 C-10.55 26 -55.1 26 -101 26 C-100.67 25.34 -100.34 24.68 -100 24 C-60.4 24 -20.8 24 20 24 C15.05 20.04 15.05 20.04 10 16 C7.34375 12.98828125 7.34375 12.98828125 5.5 10.3125 C4.55640625 8.97638672 4.55640625 8.97638672 3.59375 7.61328125 C2.07811596 5.12808721 0.98497831 2.73331481 0 0 Z " fill="#D1C539" transform="translate(325,157)"/>
<path d="M0 0 C3.01193376 1.99023858 5.4661774 4.44138461 8 7 C8.66902344 7.64453125 9.33804688 8.2890625 10.02734375 8.953125 C15.84638535 14.61746815 15.84638535 14.61746815 16.3125 18.8125 C15.91378388 22.8794044 15.11416229 24.35296205 12 27 C7.92387391 27.64382781 5.47425476 27.95214492 1.95947266 25.68212891 C-0.1290398 23.83998804 -2.03529302 21.90859064 -3.9375 19.875 C-4.60845703 19.20984375 -5.27941406 18.5446875 -5.97070312 17.859375 C-9.57602727 14.14104272 -12.04757612 11.44746626 -12 6 C-9.22768548 0.05932602 -6.46699189 -0.83445057 0 0 Z " fill="#000000" transform="translate(50,167)"/>
<path d="M0 0 C2.44053024 1.79828544 3.63399544 3.18956132 4.875 5.9375 C5.08855019 9.46107811 3.8168232 11.96042027 1.65087891 14.71704102 C-0.05530015 16.6394999 -1.82365896 18.47905959 -3.625 20.3125 C-4.21667969 20.95767578 -4.80835938 21.60285156 -5.41796875 22.26757812 C-8.55537774 25.4693616 -10.69568895 27.41868722 -15.3046875 27.515625 C-19 27 -19 27 -21.5 25.4375 C-23.68071663 21.89383548 -23.75331723 20.10900306 -23 16 C-20.99156552 12.9991626 -18.55967598 10.53487292 -16 8 C-15.35546875 7.33097656 -14.7109375 6.66195312 -14.046875 5.97265625 C-9.33175832 1.12876537 -7.1132398 -0.61321033 0 0 Z " fill="#000000" transform="translate(186,167)"/>
<path d="M0 0 C0.78246094 -0.02835938 1.56492187 -0.05671875 2.37109375 -0.0859375 C4.5625 0.375 4.5625 0.375 6.17016602 2.06005859 C8.78538097 6.40820311 8.07416512 11.42898947 8.0625 16.375 C8.09085938 17.468125 8.11921875 18.56125 8.1484375 19.6875 C8.16795718 27.65152998 8.16795718 27.65152998 5.2578125 31.12890625 C1.58398259 32.82738703 -0.57942287 32.44668809 -4.4375 31.375 C-7.02205285 29.47966125 -7.40025506 28.48673483 -8.4375 25.375 C-8.66177843 22.42055573 -8.62264538 19.46211128 -8.625 16.5 C-8.63724609 15.69691406 -8.64949219 14.89382812 -8.66210938 14.06640625 C-8.67279735 9.74134026 -8.5482585 6.2706455 -6.4375 2.375 C-4.03403621 -0.02846379 -3.29849805 0.05416253 0 0 Z " fill="#000000" transform="translate(114.4375,138.625)"/>
<path d="M0 0 C0.66 0 1.32 0 2 0 C-0.13670365 9.4301446 -2.42691539 18.78878194 -5.06640625 28.09155273 C-6.21141395 32.13464166 -7.31611014 36.18323024 -8.359375 40.25390625 C-8.58181885 41.11967285 -8.8042627 41.98543945 -9.03344727 42.87744141 C-9.46052719 44.54909503 -9.88309604 46.22190946 -10.30053711 47.89599609 C-11.19166539 51.3736604 -11.99101348 53.98652022 -14 57 C-14.25394531 56.05640625 -14.50789063 55.1128125 -14.76953125 54.140625 C-14.93525635 53.52493652 -15.10098145 52.90924805 -15.27172852 52.27490234 C-15.63438656 50.91694035 -15.99290277 49.55786594 -16.34741211 48.19775391 C-17.19874562 44.93705089 -18.08851954 41.72135046 -19.109375 38.5078125 C-19.42390625 37.47398437 -19.7384375 36.44015625 -20.0625 35.375 C-20.36285156 34.45460938 -20.66320312 33.53421875 -20.97265625 32.5859375 C-21 30 -21 30 -18.90234375 27.71875 C-17.94457031 26.8215625 -16.98679687 25.924375 -16 25 C-14.00898319 22.13597975 -12.26342838 19.13320135 -10.5 16.125 C-7.21556139 10.57733478 -3.96606758 5.09340871 0 0 Z " fill="#C0BCC2" transform="translate(305,383)"/>
<path d="M0 0 C1.21720482 0.00607269 1.21720482 0.00607269 2.45899963 0.01226807 C3.29250443 0.01035461 4.12600922 0.00844116 4.98477173 0.00646973 C6.7492147 0.00510756 8.51366767 0.00880617 10.27809143 0.01715088 C12.97989951 0.02783668 15.68104063 0.01726375 18.38282776 0.00445557 C20.09571985 0.00577742 21.80861153 0.00834035 23.52149963 0.01226807 C24.73566811 0.00619537 24.73566811 0.00619537 25.97436523 0 C29.85278165 0.03242351 31.75571016 0.07726259 35.05665588 2.27789307 C35.36915588 4.77789307 35.36915588 4.77789307 35.05665588 7.27789307 C32.42480319 9.90974576 30.5179672 9.52661169 26.93519592 9.55578613 C26.09871521 9.55173767 25.2622345 9.54768921 24.40040588 9.54351807 C23.54233337 9.54543152 22.68426086 9.54734497 21.80018616 9.54931641 C19.98446866 9.5506785 18.16874143 9.54698034 16.3530426 9.53863525 C13.56782739 9.52793598 10.7832572 9.5385296 7.99806213 9.55133057 C6.23634195 9.55000898 4.47462218 9.54744659 2.71290588 9.54351807 C1.45818481 9.54959076 1.45818481 9.54959076 0.17811584 9.55578613 C-5.71342578 9.50781141 -5.71342578 9.50781141 -7.94334412 7.27789307 C-8.19334412 4.77789307 -8.19334412 4.77789307 -7.94334412 2.27789307 C-5.34510086 -0.32035019 -3.54006498 0.02971912 0 0 Z " fill="#EFEA88" transform="translate(100.94334411621094,297.72210693359375)"/>
<path d="M0 0 C7.87155963 -0.60550459 7.87155963 -0.60550459 11.5625 1.375 C14.08379137 5.97909728 13.84243151 11.11319648 12.38671875 16.1015625 C11.20244764 18.95595953 9.7134356 21.4298466 8 24 C7.34 24 6.68 24 6 24 C4.98295037 21.50580686 3.98650645 19.00625963 3 16.5 C2.71382813 15.80390625 2.42765625 15.1078125 2.1328125 14.390625 C0.17866937 9.36568554 -0.29122331 5.38763122 0 0 Z " fill="#E5A899" transform="translate(369,241)"/>
<path d="M0 0 C0.94902133 9.01570262 -2.42577436 15.92607959 -6 24 C-6.66 24 -7.32 24 -8 24 C-12.49272794 17.50158995 -14.34142729 11.91958033 -13 4 C-10.16924131 -1.29228798 -5.34004969 -0.41077305 0 0 Z " fill="#E5A899" transform="translate(214,241)"/>
</svg>
