<?xml version="1.0" encoding="UTF-8"?>
<svg version="1.1" xmlns="http://www.w3.org/2000/svg" width="512" height="512">
<path d="M0 0 C5.73556556 0.43062553 10.67160855 2.79385267 15.875 5.0625 C16.75414062 5.43955078 17.63328125 5.81660156 18.5390625 6.20507812 C20.69531564 7.13086072 22.84876979 8.06261911 25 9 C23.125 14.75 23.125 14.75 22 17 C23.58298026 17.4803318 25.16639978 17.95921612 26.75 18.4375 C28.07257813 18.83775391 28.07257813 18.83775391 29.421875 19.24609375 C31.60565835 19.88468494 33.78835498 20.46775833 36 21 C36.66 19.35 37.32 17.7 38 16 C43.58926503 16.60477903 48.23454862 18.59996068 53.3359375 20.81640625 C54.21528961 21.19232407 55.09464172 21.56824188 56.00064087 21.95555115 C58.79478527 23.15170386 61.58489862 24.35695111 64.375 25.5625 C66.2744804 26.37755742 68.17421733 27.19201725 70.07421875 28.00585938 C74.7191457 29.99699697 79.3604802 31.99629749 84 34 C83.33596304 38.10822 82.02583989 41.64808771 80.41796875 45.48046875 C80.16251785 46.09336258 79.90706696 46.70625641 79.64387512 47.33772278 C78.82939482 49.28948503 78.00868289 51.2385496 77.1875 53.1875 C76.38058551 55.11387821 75.57498025 57.04079985 74.76956177 58.96780396 C73.99345833 60.82439514 73.21622118 62.68051227 72.43896484 64.53662109 C70.58160211 69.00702282 68.77632451 73.49685575 67 78 C67.94875 78.309375 68.8975 78.61875 69.875 78.9375 C73 80 73 80 75 81 C73.36041242 86.23272633 71.61047965 91.15196636 69 96 C61.08090444 93.54234965 53.58014704 90.33181427 46 87 C45.82852951 87.5407869 45.65705902 88.08157379 45.48039246 88.63874817 C43.62816782 94.351553 41.47287984 99.86650138 39.11328125 105.38671875 C38.73868774 106.27094513 38.36409424 107.15517151 37.97814941 108.06619263 C36.75938558 110.94129672 35.53593968 113.81438292 34.3125 116.6875 C33.46601344 118.68237608 32.61990773 120.6774138 31.77416992 122.67260742 C30.04204868 126.75848399 28.3085304 130.84376369 26.57421875 134.92871094 C22.98938177 143.37757512 19.42918424 151.83679535 15.87069702 160.29678345 C14.82276589 162.78809428 13.77437771 165.27921226 12.72583008 167.77026367 C11.15026639 171.51338841 9.57502157 175.25664712 8 179 C8.54164795 179.1724675 9.0832959 179.344935 9.64135742 179.52262878 C15.315441 181.3665158 20.81685008 183.48274483 26.3125 185.80078125 C27.16626221 186.15963913 28.02002441 186.51849701 28.8996582 186.88822937 C30.69204403 187.64356008 32.48362068 188.40081362 34.27441406 189.15991211 C36.98906738 190.30787684 39.70918988 191.44213996 42.4296875 192.57617188 C44.18264591 193.31687052 45.93526178 194.05838047 47.6875 194.80078125 C48.48776611 195.13225662 49.28803223 195.46373199 50.11254883 195.80525208 C62.0123109 200.90120924 71.07854125 207.75944874 76 220 C78.71717743 228.47759357 77.73021713 238.38027823 74.31640625 246.46875 C69.45740788 255.81186853 62.90376072 261.22130793 53.17578125 265.13671875 C44.76493184 267.42306281 34.22457957 267.22040855 26.3125 263.46484375 C17.00035602 257.5661039 10.51275436 250.24779796 7.52734375 239.61328125 C6.73041391 235.66405117 6.80559733 232.01765514 7 228 C5.68 228 4.36 228 3 228 C2.83351456 228.52746323 2.66702911 229.05492645 2.49549866 229.59837341 C0.5178069 235.71133336 -1.82515889 241.615413 -4.31640625 247.53515625 C-4.73236557 248.53091171 -5.14832489 249.52666718 -5.57688904 250.55259705 C-6.90240375 253.72383915 -8.23233211 256.89320725 -9.5625 260.0625 C-10.42803465 262.13073374 -11.29327122 264.19909225 -12.15820312 266.26757812 C-13.88674853 270.40050495 -15.61690408 274.53275222 -17.34814453 278.66455078 C-21.58054711 288.77005631 -25.78969344 298.88527326 -30 309 C-32.31 308.34 -34.62 307.68 -37 307 C-38.98 311.29 -40.96 315.58 -43 320 C-41.35 320.33 -39.7 320.66 -38 321 C-36.71933873 323.9588815 -37.05608722 325.17139381 -38.07983398 328.29980469 C-38.62359193 329.59545106 -39.17979325 330.88592167 -39.74609375 332.171875 C-40.03605728 332.8542926 -40.32602081 333.53671021 -40.62477112 334.23980713 C-41.55174348 336.41459157 -42.49433878 338.58219425 -43.4375 340.75 C-44.06940148 342.22481435 -44.70027337 343.7000703 -45.33007812 345.17578125 C-46.87482627 348.78908351 -48.43361862 352.39602621 -50 356 C-49.31373535 356.26192139 -48.6274707 356.52384277 -47.92041016 356.79370117 C-42.60454512 358.98946184 -37.51747053 361.67180814 -32.39746094 364.28491211 C-31.04846456 364.97032082 -29.69654931 365.65001455 -28.34179688 366.32397461 C-26.37453354 367.30307451 -24.41715097 368.29982163 -22.4609375 369.30078125 C-21.29353027 369.89028564 -20.12612305 370.47979004 -18.92333984 371.0871582 C-13.03631425 374.93924151 -11.61412501 381.40782987 -9.3671875 387.7734375 C-8.84364433 389.23571777 -8.84364433 389.23571777 -8.30952454 390.72753906 C-7.15986449 393.94166077 -6.01753304 397.15833872 -4.875 400.375 C-4.07002494 402.6286351 -3.26443356 404.88205014 -2.45825195 407.13525391 C-1.21210461 410.61850666 0.0336001 414.10191176 1.27732849 417.58602905 C5.07252942 428.21749599 8.90675568 438.83460641 12.75216675 449.44799805 C13.80762467 452.36154186 14.86211619 455.27543353 15.91625977 458.18945312 C18.937325 466.54064357 21.96012696 474.89119973 24.9868927 483.24032593 C26.22371519 486.6528333 27.45932707 490.06577817 28.69467163 493.4788208 C29.26864469 495.0636299 29.84319987 496.6482283 30.41836548 498.23260498 C31.1983034 500.38111975 31.97633707 502.53031456 32.75390625 504.6796875 C33.19033447 505.88351074 33.6267627 507.08733398 34.07641602 508.32763672 C35 511 35 511 35 512 C-115.81 512 -266.62 512 -422 512 C-420.83171565 505.57443606 -419.71218163 499.47536386 -418.09228516 493.20532227 C-417.91310043 492.50788406 -417.73391571 491.81044586 -417.54930115 491.09187317 C-416.96714281 488.83216713 -416.37876559 486.57415432 -415.7890625 484.31640625 C-415.58627056 483.53714216 -415.38347862 482.75787807 -415.17454147 481.95499992 C-414.10471624 477.84483437 -413.03003572 473.73597575 -411.95117188 469.62817383 C-410.84060023 465.39577436 -409.74686346 461.15920913 -408.65677834 456.92149448 C-407.81150908 453.64796634 -406.95399052 450.37773813 -406.09309006 447.10828972 C-405.68424668 445.54700655 -405.28000072 443.98451177 -404.88051224 442.42080879 C-404.32211298 440.23987578 -403.7465031 438.06418876 -403.16650391 435.88891602 C-402.8438858 434.65190445 -402.5212677 433.41489288 -402.18887329 432.14039612 C-400.90089392 428.73821234 -399.90239576 427.16678797 -397 425 C-394.30299377 424.13916016 -394.30299377 424.13916016 -391.24047852 423.5390625 C-379.00451133 420.48037396 -379.00451133 420.48037396 -369.91005707 412.28076172 C-364.97965549 401.97882406 -363.86773834 389.83903832 -362.31958008 378.65240479 C-361.68056622 374.21636241 -360.91039816 369.80334561 -360.15039062 365.38671875 C-358.83337082 357.64969658 -357.63164172 349.90239395 -356.51475525 342.1340332 C-356 339 -356 339 -355 336 C-352.36 336.33 -349.72 336.66 -347 337 C-346.93941406 336.32453125 -346.87882812 335.6490625 -346.81640625 334.953125 C-346.69072266 333.61507812 -346.69072266 333.61507812 -346.5625 332.25 C-346.44068359 330.92742187 -346.44068359 330.92742187 -346.31640625 329.578125 C-346.03761535 327.30649548 -345.61209423 325.20148177 -345 323 C-347.31 322.67 -349.62 322.34 -352 322 C-351.30954299 314.33677963 -349.93748074 306.84045637 -348.47094727 299.29614258 C-348.06025537 297.17591192 -347.65978307 295.0539079 -347.25976562 292.93164062 C-346.99801154 291.57279792 -346.73566299 290.21406956 -346.47265625 288.85546875 C-346.23812744 287.63496826 -346.00359863 286.41446777 -345.76196289 285.15698242 C-344.21584275 278.7510614 -344.21584275 278.7510614 -340.99688721 276.76261902 C-340.16936951 276.41451675 -339.34185181 276.06641449 -338.48925781 275.70776367 C-337.54062363 275.30100403 -336.59198944 274.89424438 -335.61460876 274.47515869 C-334.57131912 274.04378601 -333.52802948 273.61241333 -332.453125 273.16796875 C-331.35831314 272.70267761 -330.26350128 272.23738647 -329.13551331 271.75799561 C-326.13691466 270.48649333 -323.13367454 269.22684584 -320.12781143 267.97263718 C-316.98746024 266.65961584 -313.85268645 265.33342089 -310.7175293 264.00805664 C-306.81214496 262.35787233 -302.90621383 260.70904626 -298.99760437 259.06651306 C-290.42329424 255.46130324 -281.87553686 251.79911745 -273.34478378 248.09207726 C-269.02485911 246.21635296 -264.7007721 244.35022524 -260.37756348 242.48208618 C-258.00445293 241.45392111 -255.63310261 240.42168352 -253.2635498 239.38534546 C-249.95818337 237.94126663 -246.64612354 236.51375842 -243.33203125 235.08984375 C-242.35432266 234.65774597 -241.37661407 234.22564819 -240.36927795 233.78045654 C-239.46729172 233.39649719 -238.56530548 233.01253784 -237.63598633 232.61694336 C-236.85669266 232.27851913 -236.07739899 231.94009491 -235.27449036 231.59141541 C-231.07509137 230.49948321 -227.24109365 232.17836265 -223.32554626 233.73924255 C-222.41572495 234.09953552 -221.50590363 234.45982849 -220.56851196 234.83103943 C-219.58289276 235.22638382 -218.59727356 235.62172821 -217.58178711 236.02905273 C-216.53409653 236.44538971 -215.48640594 236.86172668 -214.40696716 237.29067993 C-210.94542371 238.66750067 -207.48636315 240.05044531 -204.02734375 241.43359375 C-201.62281432 242.3917666 -199.2181545 243.34961228 -196.81336975 244.30714417 C-191.77451302 246.31452746 -186.73675559 248.32463162 -181.69995117 250.3371582 C-175.88068 252.66230773 -170.05975799 254.9832813 -164.23784441 257.30180591 C-158.63135008 259.53456002 -153.02568793 261.76939297 -147.4204731 264.00535774 C-145.03755442 264.95585273 -142.65448173 265.90596169 -140.27125359 266.85568047 C-136.94305372 268.18250622 -133.61579795 269.51167066 -130.28881836 270.84155273 C-129.30117493 271.23487289 -128.31353149 271.62819305 -127.29595947 272.03343201 C-125.93545723 272.5781012 -125.93545723 272.5781012 -124.54747009 273.1337738 C-123.76122222 273.44772819 -122.97497435 273.76168257 -122.16490078 274.08515072 C-120.06039426 274.97447844 -118.03078247 275.95446357 -116 277 C-115.82721527 276.45699249 -115.65443054 275.91398499 -115.47640991 275.35452271 C-113.6452864 269.71748136 -111.53711629 264.26066134 -109.2265625 258.8046875 C-108.86605301 257.94594025 -108.50554352 257.08719299 -108.1341095 256.2024231 C-106.96744845 253.42532484 -105.79623185 250.6501732 -104.625 247.875 C-103.81745777 245.95456663 -103.01025021 244.0339925 -102.20336914 242.11328125 C-100.18616344 237.31315657 -98.16555631 232.51447266 -96.14398193 227.71618652 C-93.51729718 221.47957952 -90.89675242 215.24039442 -88.277771 209.00054932 C-87.45214327 207.03486325 -86.62488036 205.06987177 -85.79736328 203.10498047 C-85.30606934 201.93596191 -84.81477539 200.76694336 -84.30859375 199.5625 C-83.88376709 198.55316406 -83.45894043 197.54382813 -83.02124023 196.50390625 C-82.28313688 194.69420317 -81.61804707 192.85414121 -81 191 C-84.49176495 192.09117655 -86.98494246 193.68995427 -89.8125 195.9375 C-98.62437496 202.59934262 -107.33362123 202.94741289 -118 202 C-127.41508671 199.81303104 -135.29646804 194.02004777 -140.74609375 186.10546875 C-146.10427658 177.1083954 -146.45836605 166.22377314 -144.4140625 156.09765625 C-141.20871086 146.79037374 -134.37956492 139.89044052 -125.75 135.4375 C-115.03738345 130.43544492 -106.10833615 131.45361038 -95.16119385 135.21279907 C-86.87872694 138.22963425 -78.79757243 141.8039717 -70.6875 145.25 C-68.67537253 146.09953251 -66.66300448 146.94849543 -64.65039062 147.796875 C-59.76413462 149.85802623 -54.88089302 151.92618327 -50 154 C-46.98569914 150.46526481 -45.37561928 146.48153171 -43.65625 142.22265625 C-43.33434189 141.43946014 -43.01243378 140.65626404 -42.68077087 139.84933472 C-41.98182326 138.147458 -41.28542369 136.44453309 -40.59127808 134.74069214 C-38.71981637 130.14778943 -36.82950004 125.562647 -34.94140625 120.9765625 C-34.54583023 120.01437302 -34.15025421 119.05218353 -33.74269104 118.06083679 C-29.04746991 106.65557869 -24.24402706 95.29618945 -19.4375 83.9375 C-18.58983001 81.9330299 -17.74217343 79.92855413 -16.89453125 77.92407227 C-14.93108074 73.28212403 -12.96605221 68.64084687 -11 64 C-13.44020435 62.3731971 -15.57281664 61.22330048 -18.23046875 60.0546875 C-19.03291016 59.70019531 -19.83535156 59.34570312 -20.66210938 58.98046875 C-21.49548828 58.61566406 -22.32886719 58.25085937 -23.1875 57.875 C-24.4549707 57.31619141 -24.4549707 57.31619141 -25.74804688 56.74609375 C-27.83093816 55.82820946 -29.91494102 54.91294686 -32 54 C-31.45509777 50.04228909 -30.6353752 46.73983108 -28.9375 43.125 C-28.57527344 42.34382813 -28.21304687 41.56265625 -27.83984375 40.7578125 C-27.56269531 40.17773438 -27.28554688 39.59765625 -27 39 C-23.44219804 39.60990891 -20.3171411 40.5783681 -17 42 C-16.90396484 41.34676758 -16.80792969 40.69353516 -16.70898438 40.02050781 C-15.77486429 36.04084744 -14.24154628 32.43183675 -12.65625 28.671875 C-12.32709595 27.88226379 -11.99794189 27.09265259 -11.65881348 26.27911377 C-10.96500396 24.61744943 -10.26895343 22.95671924 -9.57080078 21.296875 C-8.49875767 18.74704514 -7.43439242 16.19411198 -6.37109375 13.640625 C-5.6957611 12.02585398 -5.01999503 10.41126414 -4.34375 8.796875 C-3.86403748 7.64696075 -3.86403748 7.64696075 -3.37463379 6.47381592 C-1.11592081 1.11592081 -1.11592081 1.11592081 0 0 Z " fill="#010101" transform="translate(425,0)"/>
<path d="M0 0 C1.61948073 4.83330098 3.23679457 9.66732027 4.85229492 14.50195312 C5.39958371 16.13886014 5.94741543 17.77558576 6.49584961 19.41210938 C9.7253762 29.05036654 12.88383356 38.70304357 15.87792969 48.41723633 C17.40947312 53.30744517 19.04357034 58.15944068 20.69140625 63.01171875 C21.7631521 66.22355798 22.75570949 69.4563203 23.7421875 72.6953125 C26.83536819 82.79796379 30.15693746 92.82745666 33.43920898 102.86987305 C33.72675049 103.75006104 34.01429199 104.63024902 34.31054688 105.53710938 C34.59313858 106.40152649 34.87573029 107.2659436 35.16688538 108.15655518 C35.9854427 110.67369168 36.79154527 113.19459818 37.59741211 115.71582031 C38.3616679 118.09426802 39.15924449 120.40379983 40.07641602 122.72949219 C52.69005258 155.91978973 39.83979181 218.44707842 39 247 C-28.65 247 -96.3 247 -166 247 C-162.39390756 228.96953782 -162.39390756 228.96953782 -160.203125 221.6875 C-159.11248422 217.84395566 -158.54820727 214.01566111 -157.984375 210.0625 C-154.61944777 190.34749385 -154.61944777 190.34749385 -147.82470703 185.41650391 C-140.40502334 180.79217248 -128.83837793 175 -120 175 C-119.84917969 173.02966797 -119.84917969 173.02966797 -119.6953125 171.01953125 C-118.93747965 163.48477159 -117.36060508 156.10411903 -115.875 148.6875 C-115.24260814 145.49522166 -114.61351658 142.30229528 -113.984375 139.109375 C-113.82240631 138.28960678 -113.66043762 137.46983856 -113.49356079 136.62522888 C-112.30477564 130.59414115 -111.15090417 124.55700009 -110.015625 118.515625 C-109.85599274 117.66648026 -109.69636047 116.81733551 -109.53189087 115.94245911 C-108.90874651 112.62370978 -108.28665351 109.30477141 -107.66790771 105.98519897 C-107.24125216 103.69684012 -106.81218844 101.40894344 -106.3828125 99.12109375 C-106.25706848 98.44149597 -106.13132446 97.76189819 -106.00177002 97.06170654 C-105.47996736 94.28860884 -104.89403441 91.68210324 -104 89 C-106.64 88.67 -109.28 88.34 -112 88 C-110.515 80.575 -110.515 80.575 -109 73 C-106.03 73.33 -103.06 73.66 -100 74 C-99.97421875 73.28199219 -99.9484375 72.56398438 -99.921875 71.82421875 C-99.53331829 64.73305876 -98.57196969 57.89786136 -97.1875 50.9375 C-97.03442383 50.11660889 -96.88134766 49.29571777 -96.72363281 48.44995117 C-96.56088867 47.67111572 -96.39814453 46.89228027 -96.23046875 46.08984375 C-96.09020264 45.39753662 -95.94993652 44.70522949 -95.80541992 43.99194336 C-94.41395766 40.5506155 -91.92113879 38.50289411 -88.70445251 36.74674988 C-87.85959793 36.39228287 -87.01474335 36.03781586 -86.14428711 35.67260742 C-85.17528976 35.26035919 -84.20629242 34.84811096 -83.20793152 34.42337036 C-82.15833755 33.98846283 -81.10874359 33.5535553 -80.02734375 33.10546875 C-78.92775833 32.64059052 -77.82817291 32.17571228 -76.69526672 31.69674683 C-73.11309757 30.18457196 -69.52542334 28.68596425 -65.9375 27.1875 C-63.48298097 26.15453857 -61.02880083 25.12081806 -58.57519531 24.08569336 C-54.88800779 22.53074408 -51.20051478 20.97653891 -47.51101685 19.42707825 C-40.22847767 16.36735288 -32.9589713 13.27998886 -25.70703125 10.1484375 C-24.87924667 9.79125137 -24.0514621 9.43406525 -23.19859314 9.0660553 C-20.1406899 7.74570677 -17.08326514 6.42429608 -14.02804565 5.0977478 C-12.00439634 4.21961359 -9.97896806 3.34571458 -7.953125 2.47265625 C-6.84098633 1.99062744 -5.72884766 1.50859863 -4.58300781 1.01196289 C-2 0 -2 0 0 0 Z " fill="#8BA2B6" transform="translate(189,250)"/>
<path d="M0 0 C6.61099317 2.10967819 13.0478064 4.54165423 19.48046875 7.140625 C20.47590195 7.54019409 21.47133514 7.93976318 22.49693298 8.35144043 C24.62643124 9.20645397 26.7554734 10.06260419 28.88409424 10.9197998 C34.47394311 13.17069437 40.06717182 15.41316051 45.66015625 17.65625 C47.34428619 18.3320108 47.34428619 18.3320108 49.06243896 19.02142334 C59.73541614 23.30122833 70.42638005 27.53476864 81.125 31.75 C82.35662369 32.23539246 82.35662369 32.23539246 83.61312866 32.73059082 C88.0747727 34.48870616 92.53704226 36.24522227 97 38 C96.31150237 43.11241969 94.18378666 47.56767389 92.140625 52.25390625 C91.75436951 53.15060532 91.36811401 54.04730438 90.97015381 54.97117615 C89.73464604 57.83693776 88.49254316 60.69978275 87.25 63.5625 C86.0258386 66.39464136 84.80303913 69.22736566 83.58093262 72.06039429 C82.79296281 73.88484218 82.00303246 75.70844468 81.21105957 77.53115845 C79.56348216 81.32977895 77.92976687 85.12734111 76.41210938 88.97998047 C75.98220703 90.06811035 75.55230469 91.15624023 75.109375 92.27734375 C74.76358398 93.18605225 74.41779297 94.09476074 74.06152344 95.03100586 C73 97 73 97 70 98 C67.20307835 97.10417854 64.53322716 96.14841468 61.8125 95.0625 C60.68811523 94.62647461 60.68811523 94.62647461 59.54101562 94.18164062 C57.69075523 93.46274964 55.84493352 92.73245347 54 92 C53.85820312 92.77214844 53.71640625 93.54429687 53.5703125 94.33984375 C53 97 53 97 51.875 99.5625 C50.89590835 101.8723063 50.89590835 101.8723063 50.97753906 103.93725586 C52.67413509 107.36002087 56.09724895 108.125613 59.484375 109.44140625 C60.27041107 109.76131027 61.05644714 110.08121429 61.86630249 110.41081238 C63.58297853 111.10746611 65.30252147 111.79708605 67.0244751 112.48059082 C70.73750783 113.95449561 74.43687758 115.46137167 78.13760376 116.96585083 C80.09176811 117.75970505 82.04667945 118.55172269 84.00228882 119.3420105 C93.80289256 123.30577561 103.54129165 127.41189875 113.27334595 131.54055786 C117.05048981 133.14251829 120.82965293 134.73968468 124.60877991 136.33695984 C127.3371809 137.49017639 130.06535787 138.64392118 132.79345703 139.79785156 C134.09709198 140.34922791 134.09709198 140.34922791 135.42706299 140.91174316 C137.1176317 141.62679097 138.80818396 142.34187767 140.49871826 143.05700684 C145.01344489 144.96647736 149.52926862 146.87329949 154.04705811 148.7755127 C155.3742158 149.33489554 156.70092904 149.89533421 158.02716064 150.45690918 C159.82036395 151.21613136 161.61521513 151.97145799 163.41015625 152.7265625 C164.89721069 153.35425537 164.89721069 153.35425537 166.41430664 153.99462891 C168.60931745 154.84809454 170.70279586 155.50189302 173 156 C173.1546875 155.01 173.1546875 155.01 173.3125 154 C174.17634198 150.2305077 175.64213273 146.62097937 177 143 C170.07 140.03 163.14 137.06 156 134 C156.80019885 129.19880692 157.54883442 126.35886096 159.5625 122.125 C160.01753906 121.15820312 160.47257813 120.19140625 160.94140625 119.1953125 C161.46541016 118.10863281 161.46541016 118.10863281 162 117 C162.71042953 117.28780334 163.42085907 117.57560669 164.15281677 117.87213135 C165.98547667 118.5981119 167.82788534 119.30017882 169.68104553 119.97210693 C179.95584686 123.8111576 190.37848204 127.95213642 195.81591797 137.99414062 C198.72097404 144.55775914 200.8391129 151.36461861 202.84111786 158.24645615 C203.85298409 161.64581743 204.97305832 165.0090202 206.08642578 168.3762207 C207.67036907 173.1910509 209.22559319 178.01313823 210.74305344 182.84933567 C214.47212236 194.71052854 218.78601968 206.33607515 223.165802 217.97180176 C225.07563803 223.0507519 226.95886633 228.13933657 228.8359375 233.23046875 C229.15972885 234.09832504 229.4835202 234.96618134 229.81712341 235.8603363 C232 241.77275915 232 241.77275915 232 244 C167.65 244 103.3 244 37 244 C37 227.61079135 37.00722674 211.29481342 37.4291687 194.92385864 C37.63333262 186.67628719 37.77794657 178.42726092 37.93634033 170.17871094 C38.00019837 166.99009486 38.07156201 163.80171188 38.14404297 160.61328125 C38.2589672 155.41871103 38.33933816 150.22453153 38.39697266 145.02902222 C38.42352754 143.08525681 38.46073466 141.14160106 38.50976562 139.19827271 C38.81095465 126.9236098 37.41451191 117.36237997 32.77770996 106.00680542 C31.54191901 102.81796627 30.62624981 99.54024118 29.70703125 96.25 C26.22165483 84.05064058 22.22294348 72.0087058 18.31530762 59.9397583 C17.27977458 56.74023705 16.24636188 53.54003144 15.21289062 50.33984375 C14.90802577 49.39602341 14.90802577 49.39602341 14.59700203 48.43313599 C13.58268991 45.29283198 12.56890154 42.15235983 11.55563354 39.01171875 C9.58122617 32.89227125 7.6019345 26.77451403 5.61181641 20.66015625 C4.87259659 18.37764457 4.13349578 16.09509434 3.39453125 13.8125 C2.87822395 12.2351709 2.87822395 12.2351709 2.35148621 10.62597656 C1.88516533 9.18109863 1.88516533 9.18109863 1.40942383 7.70703125 C1.13592606 6.8663208 0.86242828 6.02561035 0.5806427 5.15942383 C0 3 0 3 0 0 Z " fill="#C5D1DA" transform="translate(206,253)"/>
<path d="M0 0 C3.02510364 1.51255182 3.24247338 3.74939321 4.42578125 6.87109375 C4.89306641 8.08603516 5.36035156 9.30097656 5.84179688 10.55273438 C6.33266864 11.84741477 6.82289937 13.14233838 7.3125 14.4375 C13.28645752 30.96481766 13.28645752 30.96481766 23.1875 45.25 C24.04730469 46.20390625 24.90710938 47.1578125 25.79296875 48.140625 C33.78712521 55.77759574 44.37681908 59.39928668 54.5 63.3125 C56.55280203 64.11613683 58.60462522 64.92223512 60.65637207 65.7285614 C62.49529283 66.44967243 64.33645383 67.16506289 66.17773438 67.88012695 C69 69 69 69 71 70 C71 70.66 71 71.32 71 72 C70.20416504 72.30703857 69.40833008 72.61407715 68.58837891 72.93041992 C65.5861977 74.09139413 62.58578125 75.25679574 59.58642578 76.42504883 C58.29738386 76.92612898 57.00768752 77.4255295 55.71728516 77.9230957 C37.78042376 84.84279398 22.29212749 91.82707005 14.0390625 110.265625 C12.29219434 114.31369634 10.63629559 118.39583415 9.00390625 122.49121094 C7.67859008 125.80321215 6.31408944 129.0984346 4.94921875 132.39428711 C3.62516227 135.59306863 2.31257643 138.79649316 1 142 C-2.02510364 140.48744818 -2.24247338 138.25060679 -3.42578125 135.12890625 C-4.12670898 133.30649414 -4.12670898 133.30649414 -4.84179688 131.44726562 C-5.33266864 130.15258523 -5.82289937 128.85766162 -6.3125 127.5625 C-12.09959663 111.32580539 -12.09959663 111.32580539 -21.86328125 97.375 C-23 96 -23 96 -23 94 C-23.57524414 93.72857178 -24.15048828 93.45714355 -24.74316406 93.17749023 C-27.01775875 91.99073448 -29.01602472 90.64056465 -31.109375 89.16015625 C-35.92239231 85.91835493 -40.8953716 83.63668713 -46.25 81.4375 C-47.16297852 81.05327881 -48.07595703 80.66905762 -49.01660156 80.27319336 C-55.21962561 77.67947039 -61.465733 75.23725704 -67.796875 72.97265625 C-70 72 -70 72 -71 70 C-70.1435791 69.66266846 -69.2871582 69.32533691 -68.40478516 68.9777832 C-65.1790526 67.70469699 -61.95499627 66.42752798 -58.73193359 65.14770508 C-57.34584928 64.59825034 -55.9591458 64.05035455 -54.57177734 63.50415039 C-35.53883564 56.00778238 -20.74650176 48.71475928 -12 29 C-8.48737138 20.55615755 -5.20849658 12.02380266 -1.99633789 3.46166992 C-1 1 -1 1 0 0 Z " fill="#010100" transform="translate(243,2)"/>
<path d="M0 0 C2.6553227 1.21127271 5.31841603 2.40516756 7.98046875 3.6015625 C8.69959946 3.92736298 9.41873016 4.25316345 10.15965271 4.58883667 C19.106113 8.62602992 28.18054003 12.35577119 37.24942017 16.10751343 C42.41880896 18.24657974 47.58441676 20.39473216 52.75 22.54296875 C53.78631058 22.97380264 54.82262115 23.40463654 55.89033508 23.848526 C68.75608207 29.20185376 81.59083372 34.62850235 94.42236328 40.06323242 C102.8511139 43.63218434 111.28389042 47.18905804 119.7421875 50.6875 C121.19590829 51.29038297 122.64960377 51.89332695 124.10327148 52.49633789 C126.73019489 53.58582306 129.36020537 54.66729797 131.99243164 55.74389648 C146.28920185 61.67148236 146.28920185 61.67148236 150.0625 67.3125 C150.46082031 67.89128906 150.85914063 68.47007812 151.26953125 69.06640625 C153.54206963 72.96865344 153.60645302 76.32998252 153.25 80.75 C151.07363252 88.2886223 147.01717124 92.97550634 140.296875 96.88671875 C136.04692848 98.67915803 131.46803171 98.4222528 127.09765625 97.09765625 C121.96840637 94.80376907 118.37079193 91.40419143 115.25 86.75 C113.05351297 80.16053892 113.43135511 72.09195101 116.25 65.75 C115.43576065 65.49157066 115.43576065 65.49157066 114.60507202 65.22792053 C108.95445437 63.39495552 103.49836652 61.27013471 98.0390625 58.93359375 C97.16927765 58.56478592 96.2994928 58.19597809 95.40335083 57.81599426 C93.53287902 57.02248799 91.66305393 56.22745581 89.79382324 55.43103027 C84.77954764 53.2947572 79.76040873 51.16995239 74.7421875 49.04296875 C73.71121948 48.6055838 72.68025146 48.16819885 71.61804199 47.71755981 C60.7590343 43.1123451 49.88129997 38.55223745 39 34 C37.25081035 33.26750499 35.50162406 32.53500195 33.75244141 31.80249023 C23.26691165 27.41424378 12.76563815 23.06558802 2.25 18.75 C-0.50445915 22.17328394 -0.50445915 22.17328394 -3.171875 25.6640625 C-7.25156276 30.91966026 -11.21473608 33.04412235 -17.7578125 34.0625 C-23.13823859 34.40009536 -27.3339877 32.76941153 -31.75 29.75 C-36.02711746 25.35728477 -38.8788425 20.56943664 -39.1875 14.375 C-38.95414909 8.589842 -37.03521132 4.13908456 -33.03125 -0.046875 C-22.77484336 -9.17333853 -11.29715135 -5.35508644 0 0 Z " fill="#FAEB8D" transform="translate(333.75,153.25)"/>
<path d="M0 0 C0.66 0 1.32 0 2 0 C0.30560039 5.44819796 -1.89902941 10.62852242 -4.140625 15.8671875 C-4.9727045 17.82550033 -5.80473409 19.78383437 -6.63671875 21.7421875 C-7.93653607 24.79410203 -9.23743147 27.84555129 -10.53955078 30.89648438 C-15.63222416 42.83846264 -20.59223817 54.78654916 -25 67 C-22.03 67.99 -22.03 67.99 -19 69 C-19.56825653 74.54050113 -21.62886517 79.03715966 -24 84 C-26.64 83.34 -29.28 82.68 -32 82 C-32.50337891 83.20309814 -33.00675781 84.40619629 -33.52539062 85.64575195 C-35.43370594 90.20655088 -37.34230345 94.76723166 -39.25097656 99.32788086 C-40.06941021 101.28357894 -40.88777222 103.23930701 -41.70605469 105.19506836 C-47.12096936 118.13698053 -52.54987753 131.07287331 -58 144 C-61.53899176 143.48910466 -64.64137681 142.92740593 -67.8671875 141.37109375 C-68.85332031 140.90219727 -68.85332031 140.90219727 -69.859375 140.42382812 C-70.52453125 140.09833984 -71.1896875 139.77285156 -71.875 139.4375 C-72.56335938 139.10814453 -73.25171875 138.77878906 -73.9609375 138.43945312 C-75.6438733 137.63304639 -77.32240293 136.81745506 -79 136 C-76.7834927 127.16030829 -73.13900535 118.94597977 -69.53689575 110.6076355 C-67.62571288 106.18318747 -65.7321352 101.75119819 -63.8359375 97.3203125 C-63.44054276 96.39772141 -63.04514801 95.47513031 -62.63777161 94.52458191 C-58.60688603 85.1083636 -54.65942813 75.65789498 -50.7180481 66.20394897 C-49.5692525 63.45366588 -48.41535473 60.70558411 -47.25952148 57.95825195 C-44.11054739 50.47012517 -40.97330174 42.98410469 -37.99609375 35.42578125 C-37.56288818 34.35465088 -37.12968262 33.28352051 -36.68334961 32.17993164 C-35.9365666 30.3309234 -35.21159389 28.47281616 -34.51782227 26.60327148 C-31.69865199 19.74475553 -27.24772221 16.73724745 -21 13 C-20.12005371 12.45537109 -19.24010742 11.91074219 -18.33349609 11.34960938 C-15.71697334 9.74700727 -13.08214987 8.1806764 -10.4375 6.625 C-8.66463077 5.57676093 -6.8924552 4.52734748 -5.12109375 3.4765625 C-4.3520874 3.02361816 -3.58308105 2.57067383 -2.79077148 2.10400391 C-1.04728899 1.12423448 -1.04728899 1.12423448 0 0 Z " fill="#FCDEB8" transform="translate(406,236)"/>
<path d="M0 0 C0.66 0.33 1.32 0.66 2 1 C2.76196289 3.63623047 2.76196289 3.63623047 3.47265625 7.1171875 C3.73240234 8.36371094 3.99214844 9.61023438 4.25976562 10.89453125 C4.52770182 12.2212819 4.79527599 13.54810572 5.0625 14.875 C5.59212765 17.4563412 6.1262227 20.03673059 6.66015625 22.6171875 C6.89355713 23.76815918 7.12695801 24.91913086 7.36743164 26.10498047 C7.9563256 29.04635569 7.9563256 29.04635569 9 32 C9.50854974 38.01419396 8.0870326 42.12487397 5.73046875 47.5078125 C5.20862503 48.74119606 5.20862503 48.74119606 4.67623901 49.99949646 C3.52493392 52.71310642 2.3562426 55.41886016 1.1875 58.125 C0.37368997 60.03455171 -0.43886985 61.94463667 -1.25024414 63.85522461 C-2.95474714 67.86458342 -4.66583663 71.87103688 -6.38183594 75.87548828 C-8.95513076 81.8861013 -11.50124882 87.90792694 -14.0390625 93.93359375 C-14.65208725 95.38896294 -14.65208725 95.38896294 -15.27749634 96.87373352 C-16.09388279 98.81207145 -16.91021827 100.75043084 -17.72650146 102.68881226 C-19.70453687 107.38267102 -21.68801651 112.07422501 -23.671875 116.765625 C-24.04508881 117.64824509 -24.41830261 118.53086517 -24.80282593 119.44023132 C-25.86846556 121.9601902 -26.93422822 124.48009701 -28 127 C-28.63347503 128.49804202 -29.26693913 129.99608866 -29.90039062 131.49414062 C-32.93203353 138.66342094 -35.96485437 145.83220175 -39 153 C-44.27920337 151.29365825 -49.45264619 149.48565622 -54.5625 147.3125 C-55.59503906 146.87550781 -56.62757813 146.43851563 -57.69140625 145.98828125 C-58.45324219 145.66214844 -59.21507812 145.33601562 -60 145 C-57.9668897 138.59526936 -55.60260585 132.39624556 -53 126.203125 C-52.61218353 125.27326279 -52.22436707 124.34340057 -51.82479858 123.38536072 C-50.55309637 120.33887897 -49.27665272 117.29441014 -48 114.25 C-47.10088391 112.09944479 -46.20196123 109.94880871 -45.30322266 107.7980957 C-38.59026245 91.74584076 -31.82818609 75.71431463 -25.04956055 59.68969727 C-16.64413466 39.81640351 -8.31843919 19.90983014 0 0 Z " fill="#FAEEDE" transform="translate(352,213)"/>
<path d="M0 0 C5.54050113 0.56825653 10.03715966 2.62886517 15 5 C14.67 7.64 14.34 10.28 14 13 C14.84296631 13.35304199 15.68593262 13.70608398 16.55444336 14.06982422 C19.67457044 15.38027328 22.79206596 16.69662245 25.90795898 18.01708984 C27.25818535 18.58784594 28.60942241 19.15621707 29.96166992 19.72216797 C31.902924 20.53511705 33.84040591 21.35651684 35.77734375 22.1796875 C36.94515381 22.67194824 38.11296387 23.16420898 39.31616211 23.67138672 C42 25 42 25 43 27 C42.11962891 29.58203125 42.11962891 29.58203125 40.7265625 32.8125 C40.2315625 33.97007813 39.7365625 35.12765625 39.2265625 36.3203125 C38.69282523 37.54692587 38.1589697 38.77348779 37.625 40 C37.09825751 41.2262617 36.57220709 42.45282092 36.046875 43.6796875 C32.28931052 52.42137897 32.28931052 52.42137897 31 55 C21.14456573 51.87713007 11.68014619 47.86324148 2.14990234 43.87573242 C0.03839098 42.99541777 -2.07591721 42.12178364 -4.19287109 41.25463867 C-7.25987233 39.99814836 -10.31807934 38.72219356 -13.375 37.44140625 C-14.32592529 37.05586075 -15.27685059 36.67031525 -16.2565918 36.27308655 C-17.12840088 35.90267746 -18.00020996 35.53226837 -18.8984375 35.15063477 C-19.66849121 34.83103287 -20.43854492 34.51143097 -21.23193359 34.18214417 C-23 33 -23 33 -23.81236267 31.0431366 C-24.09907025 27.92124843 -22.93557834 25.77368517 -21.69140625 22.921875 C-20.94213867 21.18164062 -20.94213867 21.18164062 -20.17773438 19.40625 C-19.64470703 18.1996875 -19.11167969 16.993125 -18.5625 15.75 C-18.02694835 14.51607865 -17.49243088 13.2817079 -16.95898438 12.046875 C-15.64944192 9.02666898 -14.32946719 6.01147579 -13 3 C-9.20088882 3.71840092 -5.65341173 4.72555405 -2 6 C-1.34 4.02 -0.68 2.04 0 0 Z " fill="#FBEC8D" transform="translate(446,17)"/>
<path d="M0 0 C2.49136131 2.31234134 4.26166825 4.78949517 6.125 7.625 C12.62515185 16.96726846 20.19251103 23.29882417 30 29 C27.14463198 32.02215354 24.1811839 34.34939325 20.75 36.6875 C12.29998176 42.76341192 6.47517714 50.227273 1 59 C-1.60976503 56.59098613 -3.77354069 54.03553038 -5.875 51.1875 C-6.91502905 49.79044606 -7.95667547 48.39459459 -9 47 C-9.45117188 46.39671875 -9.90234375 45.7934375 -10.3671875 45.171875 C-13.89313496 40.74950022 -17.90552162 37.76103807 -22.6328125 34.67578125 C-25.03068326 32.97827868 -26.98501233 31.13105839 -29 29 C-28.154375 28.443125 -27.30875 27.88625 -26.4375 27.3125 C-15.04568634 19.70169876 -7.30143133 11.65122021 0 0 Z " fill="#FAEB8D" transform="translate(243,43)"/>
<path d="M0 0 C1.0656443 0.43170502 1.0656443 0.43170502 2.15281677 0.87213135 C3.98547667 1.5981119 5.82788534 2.30017882 7.68104553 2.97210693 C17.95584686 6.8111576 28.37848204 10.95213642 33.81591797 20.99414062 C36.72097404 27.55775914 38.8391129 34.36461861 40.84111786 41.24645615 C41.85298409 44.64581743 42.97305832 48.0090202 44.08642578 51.3762207 C45.67036907 56.1910509 47.22559319 61.01313823 48.74305344 65.84933567 C52.47212236 77.71052854 56.78601968 89.33607515 61.165802 100.97180176 C63.07563803 106.0507519 64.95886633 111.13933657 66.8359375 116.23046875 C67.15972885 117.09832504 67.4835202 117.96618134 67.81712341 118.8603363 C70 124.77275915 70 124.77275915 70 127 C66.04 127 62.08 127 58 127 C53.00915291 114.40072179 48.31273031 101.71151597 43.74856567 88.95193481 C42.59703497 85.73436093 41.44148777 82.51825389 40.28491211 79.30249023 C36.62490306 69.1229545 32.97594215 58.93960371 29.34863281 48.74836731 C27.79673308 44.3924975 26.23828923 40.03898634 24.6786499 35.68588257 C23.9372499 33.61118288 23.19898452 31.53536024 22.46392822 29.45840454 C21.44323838 26.57493971 20.41226448 23.69535072 19.37890625 20.81640625 C19.07967758 19.96254333 18.78044891 19.10868042 18.47215271 18.22894287 C18.18945023 17.44771057 17.90674774 16.66647827 17.61547852 15.86157227 C17.37442886 15.18409439 17.13337921 14.50661652 16.88502502 13.80860901 C14.60519177 9.14961423 10.28834882 7.46288273 5.8125 5.3125 C5.15830078 4.99216797 4.50410156 4.67183594 3.83007812 4.34179688 C2.22272093 3.55571708 0.61171142 2.77711317 -1 2 C-0.67 1.34 -0.34 0.68 0 0 Z " fill="#89A0B3" transform="translate(368,370)"/>
<path d="M0 0 C-2.07227363 7.98078349 -5.19256692 15.43180382 -8.4927063 22.96636963 C-10.17281473 26.80502042 -11.83224989 30.65259321 -13.4921875 34.5 C-13.85029007 35.32936066 -14.20839264 36.15872131 -14.5773468 37.01321411 C-18.72821027 46.65101071 -22.7529228 56.34103839 -26.77737427 66.03213501 C-28.05890642 69.11635147 -29.34330835 72.19935686 -30.62866211 75.28198242 C-34.18403175 83.81102122 -37.73667099 92.34067766 -41.23423767 100.89361572 C-42.5171256 104.0247963 -43.81137321 107.15119055 -45.10836792 110.27655029 C-45.69768484 111.7048123 -46.28155148 113.13533668 -46.85964966 114.56817627 C-47.64285334 116.50842015 -48.44396389 118.44024827 -49.25 120.37109375 C-49.90742188 121.9787561 -49.90742188 121.9787561 -50.578125 123.61889648 C-52 126 -52 126 -53.96875 126.94165039 C-57.127769 127.03239625 -59.3087084 125.52914295 -62 124 C-59.7834927 115.16030829 -56.13900535 106.94597977 -52.53689575 98.6076355 C-50.62571288 94.18318747 -48.7321352 89.75119819 -46.8359375 85.3203125 C-46.44054276 84.39772141 -46.04514801 83.47513031 -45.63777161 82.52458191 C-41.60688603 73.1083636 -37.65942813 63.65789498 -33.7180481 54.20394897 C-32.5692525 51.45366588 -31.41535473 48.70558411 -30.25952148 45.95825195 C-27.11054739 38.47012517 -23.97330174 30.98410469 -20.99609375 23.42578125 C-20.56288818 22.35465088 -20.12968262 21.28352051 -19.68334961 20.17993164 C-18.9365666 18.3309234 -18.21159389 16.47281616 -17.51782227 14.60327148 C-14.85662386 8.12907165 -7.61709924 0 0 0 Z " fill="#F9EDDD" transform="translate(389,248)"/>
<path d="M0 0 C0.63800537 0.26627197 1.27601074 0.53254395 1.93334961 0.80688477 C14.9430369 6.23527812 27.95839875 11.64869079 41 17 C41 17.66 41 18.32 41 19 C38.69262695 20.64819336 38.69262695 20.64819336 35.48828125 22.58984375 C34.92304245 22.93503555 34.35780365 23.28022736 33.7754364 23.63587952 C31.95852062 24.74326848 30.13566286 25.84043282 28.3125 26.9375 C27.10181181 27.6731674 25.89152015 28.40948779 24.68164062 29.14648438 C21.45971562 31.1064747 18.23142286 33.05569872 15 35 C14.08887451 35.57177979 13.17774902 36.14355957 12.23901367 36.73266602 C10 38 10 38 8 38 C5.85161438 30.40268849 3.98075469 22.77880796 2.3125 15.0625 C1.97508789 13.54172852 1.97508789 13.54172852 1.63085938 11.99023438 C1.41880859 11.01505859 1.20675781 10.03988281 0.98828125 9.03515625 C0.70271362 7.72623413 0.70271362 7.72623413 0.41137695 6.39086914 C0 4 0 4 0 0 Z " fill="#FADCB6" transform="translate(366,200)"/>
<path d="M0 0 C4.95 0 9.9 0 15 0 C15.02324931 4.4251182 15.04307056 8.85001532 15.05493164 13.27514648 C15.05988838 14.77320076 15.06665574 16.27125039 15.07543945 17.76928711 C15.13327396 27.90393385 14.78219791 37.89301752 14 48 C9.05 48 4.1 48 -1 48 C-1.1525387 31.983437 -0.56615382 16.00395536 0 0 Z " fill="#020202" transform="translate(197,395)"/>
<path d="M0 0 C4.76849257 3.17899505 7.12444233 6.68424832 9 12 C9.87734619 18.03175509 8.17311411 22.91191616 5 28 C1.45678667 31.86382892 -2.77090604 35.47800361 -8.078125 36.3359375 C-13.808805 36.43900728 -18.28524817 35.38060143 -23 32 C-23.66 31.01 -24.32 30.02 -25 29 C-24.3709375 28.85304687 -23.741875 28.70609375 -23.09375 28.5546875 C-15.22064978 26.49155581 -9.65212673 23.41984762 -4.625 16.9375 C-1.4754091 11.24400876 -0.53209001 6.42708722 0 0 Z " fill="#F8BD73" transform="translate(478,215)"/>
<path d="M0 0 C10.40798659 0.56825214 20.67275755 1.60222605 31 3 C30.54554036 4.41791408 30.08625056 5.83428046 29.625 7.25 C29.24214844 8.43335937 29.24214844 8.43335937 28.8515625 9.640625 C28.04826333 11.86627958 27.10288338 13.90931672 26 16 C15.54094451 15.58426348 5.28441121 15.11435999 -5 13 C-4.54554036 11.58208592 -4.08625056 10.16571954 -3.625 8.75 C-3.24214844 7.56664063 -3.24214844 7.56664063 -2.8515625 6.359375 C-2.04826333 4.13372042 -1.10288338 2.09068328 0 0 Z " fill="#DE8E7B" transform="translate(417,98)"/>
<path d="M0 0 C7.12009126 -0.24693958 14.05931546 0.10447718 21.125 0.9375 C21.87128662 1.02435059 22.61757324 1.11120117 23.38647461 1.20068359 C28.73289631 1.86644816 28.73289631 1.86644816 31 3 C30.39254603 7.85963179 28.27241033 11.7405518 26 16 C19.48238847 15.47527704 12.98962883 14.79425748 6.5 14 C5.45875977 13.8755249 5.45875977 13.8755249 4.39648438 13.74853516 C1.45696738 13.38145612 -1.18054247 12.93981918 -4 12 C-3.33501617 7.61110675 -1.81242323 4.0188515 0 0 Z " fill="#E0907C" transform="translate(405,126)"/>
<path d="M0 0 C6.72036592 -0.56003049 13.34754149 0.57581615 20 1.5 C21.06089844 1.64308594 22.12179687 1.78617188 23.21484375 1.93359375 C25.81057243 2.2843679 28.40554555 2.63994284 31 3 C29.11311636 8.7162156 27.1473175 14.37607322 25 20 C21.20888468 19.37165495 17.99219548 18.26471197 14.48046875 16.71484375 C13.45888672 16.26689453 12.43730469 15.81894531 11.38476562 15.35742188 C10.32966797 14.88884766 9.27457031 14.42027344 8.1875 13.9375 C7.11306641 13.46505859 6.03863281 12.99261719 4.93164062 12.50585938 C2.28576624 11.34167464 -0.35798995 10.17292168 -3 9 C-2.5020163 5.26512223 -2.12508244 3.18762365 0 0 Z " fill="#DF8F7C" transform="translate(394,153)"/>
<path d="M0 0 C1.81552978 0.61614355 3.6273653 1.24318228 5.4375 1.875 C6.44683594 2.22304688 7.45617187 2.57109375 8.49609375 2.9296875 C11 4 11 4 12 6 C11.11962891 8.58203125 11.11962891 8.58203125 9.7265625 11.8125 C9.2315625 12.97007813 8.7365625 14.12765625 8.2265625 15.3203125 C7.69282523 16.54692587 7.1589697 17.77348779 6.625 19 C6.09825751 20.2262617 5.57220709 21.45282092 5.046875 22.6796875 C1.28931052 31.42137897 1.28931052 31.42137897 0 34 C-1.4589426 33.52269162 -2.91713496 33.04308958 -4.375 32.5625 C-5.18710937 32.29566406 -5.99921875 32.02882812 -6.8359375 31.75390625 C-9 31 -9 31 -11 30 C-10.40096831 24.33223858 -8.31968308 19.60305349 -6.0625 14.4375 C-5.34477297 12.76965133 -4.62731704 11.10168597 -3.91015625 9.43359375 C-3.5764502 8.66257324 -3.24274414 7.89155273 -2.89892578 7.09716797 C-1.89161918 4.74715066 -0.9302225 2.38156442 0 0 Z " fill="#FBBF75" transform="translate(477,38)"/>
<path d="M0 0 C5.74310268 0.99851965 10.87070442 3.19009331 16.25 5.375 C17.77753906 5.97441406 17.77753906 5.97441406 19.3359375 6.5859375 C20.30273438 6.9778125 21.26953125 7.3696875 22.265625 7.7734375 C23.15024414 8.12841309 24.03486328 8.48338867 24.94628906 8.84912109 C27 10 27 10 28 13 C26.5625 15.6875 26.5625 15.6875 25 18 C21.7082943 17.68791032 18.41664298 17.37525044 15.125 17.0625 C14.2071875 16.97548828 13.289375 16.88847656 12.34375 16.79882812 C6.22729765 16.21733442 0.11294453 15.61727613 -6 15 C-4.34230357 9.77203488 -2.61234882 4.85150496 0 0 Z " fill="#D46749" transform="translate(429,69)"/>
<path d="M0 0 C5.28 0 10.56 0 16 0 C16 5.28 16 10.56 16 16 C10.72 16 5.44 16 0 16 C0 10.72 0 5.44 0 0 Z " fill="#000000" transform="translate(133,150)"/>
<path d="M0 0 C5.28 0 10.56 0 16 0 C16 5.28 16 10.56 16 16 C10.72 16 5.44 16 0 16 C0 10.72 0 5.44 0 0 Z " fill="#000000" transform="translate(345,15)"/>
<path d="M0 0 C5.28 0 10.56 0 16 0 C16 4.95 16 9.9 16 15 C10.72 15 5.44 15 0 15 C0 10.05 0 5.1 0 0 Z " fill="#090A0A" transform="translate(313,442)"/>
<path d="M0 0 C4.95 0 9.9 0 15 0 C15 4.95 15 9.9 15 15 C10.05 15 5.1 15 0 15 C0 10.05 0 5.1 0 0 Z " fill="#040405" transform="translate(195,458)"/>
<path d="M0 0 C4.95 0 9.9 0 15 0 C15 4.95 15 9.9 15 15 C10.05 15 5.1 15 0 15 C0 10.05 0 5.1 0 0 Z " fill="#FEFEFE" transform="translate(329,427)"/>
<path d="M0 0 C4.29 0.33 8.58 0.66 13 1 C11.12270561 6.72127814 9.14779635 12.37481909 7 18 C2.61110675 17.33501617 -0.9811485 15.81242323 -5 14 C-4.34158873 8.89731263 -2.14106609 4.62746541 0 0 Z " fill="#D26649" transform="translate(412,155)"/>
<path d="M0 0 C1.9587043 0.14076315 3.91696093 0.2877676 5.875 0.4375 C7.51082031 0.55931641 7.51082031 0.55931641 9.1796875 0.68359375 C12 1 12 1 14 2 C13.38621882 6.91024946 11.27516294 10.66985117 9 15 C5.37 14.67 1.74 14.34 -2 14 C-3.03028034 9.87887865 -2.95669439 9.06133381 -1.5625 5.3125 C-0.4683046 2.72168298 -0.4683046 2.72168298 0 0 Z " fill="#D26649" transform="translate(422,127)"/>
<path d="M0 0 C4.29 0.33 8.58 0.66 13 1 C10.05357143 10.10714286 10.05357143 10.10714286 8 14 C3.48382401 14.07654536 -0.59085217 14.10228696 -5 13 C-4.54554036 11.58208592 -4.08625056 10.16571954 -3.625 8.75 C-3.24214844 7.56664063 -3.24214844 7.56664063 -2.8515625 6.359375 C-2 4 -2 4 0 0 Z " fill="#D26649" transform="translate(435,100)"/>
<path d="M0 0 C6.75 0.75 6.75 0.75 9 3 C5.7 3 2.4 3 -1 3 C-0.67 2.01 -0.34 1.02 0 0 Z " fill="#D08371" transform="translate(424,81)"/>
</svg>
