<?xml version="1.0" encoding="UTF-8"?>
<svg version="1.1" xmlns="http://www.w3.org/2000/svg" width="512" height="512">
<path d="M0 0 C7.36863928 5.04451905 12.27074731 10.5350978 15.75 18.75 C17.0605212 21.62047052 17.0605212 21.62047052 19.1875 23.8125 C22.93380963 24.91278357 26.40449671 25.19354292 30.296875 25.44921875 C42.52163527 26.59068733 52.82831265 34.24913043 60.55078125 43.4296875 C69.50487694 56.46548313 71.2562625 71.22983555 68.515625 86.57421875 C67.83297298 89.03756213 67.10623771 91.42815689 66.1875 93.8125 C66.83976562 94.35777344 67.49203125 94.90304688 68.1640625 95.46484375 C77.55512627 103.56775275 84.42088183 111.84022805 85.50390625 124.515625 C86.0101604 136.41044642 83.91129516 146.52183348 76.05859375 155.84375 C73.7641286 158.25796803 71.36683936 160.44489706 68.765625 162.5234375 C64.93733926 165.65050258 63.35390561 168.34018321 61.5 173 C61.06300781 174.08667969 60.62601562 175.17335937 60.17578125 176.29296875 C59.84964844 177.12441406 59.52351563 177.95585937 59.1875 178.8125 C59.8475 179.4725 60.5075 180.1325 61.1875 180.8125 C61.81554287 187.35024251 60.35093747 191.9168544 57.71484375 197.84375 C57.3541127 198.67910278 56.99338165 199.51445557 56.62171936 200.37512207 C55.85796155 202.1329485 55.08686064 203.88760075 54.30883789 205.63916016 C53.13232174 208.29596606 51.98769985 210.96492377 50.84570312 213.63671875 C50.09563405 215.35238742 49.34373895 217.06725915 48.58984375 218.78125 C48.2541185 219.56794067 47.91839325 220.35463135 47.57249451 221.16516113 C43.83439748 229.46345183 38.44508744 236.12284599 30.09765625 239.98046875 C24.54675651 241.56750452 18.89916942 241.1828532 13.1875 240.8125 C11.95547527 243.76935935 10.84602846 246.67224443 10.1875 249.8125 C11.3147922 252.17732528 11.3147922 252.17732528 13.1875 253.8125 C13.796875 255.91796875 13.796875 255.91796875 14.1875 257.8125 C18.14355926 259.0592352 18.14355926 259.0592352 22.1875 259.8125 C23.72916642 258.43764468 23.72916642 258.43764468 25.1875 256.8125 C32.14541875 256.17450745 37.77902476 257.95335157 44.328125 260.171875 C45.37272888 260.51752502 46.41733276 260.86317505 47.49359131 261.21929932 C49.69073139 261.94987171 51.88587956 262.68645909 54.07910156 263.42871094 C57.43503166 264.56166669 60.79875565 265.66868985 64.1640625 266.7734375 C66.30259822 267.48804433 68.44063731 268.20413945 70.578125 268.921875 C71.58232483 269.25121033 72.58652466 269.58054565 73.62115479 269.91986084 C83.14952354 273.18165662 83.14952354 273.18165662 85.1875 276.8125 C85.95513734 283.81370944 84.66482889 289.82568922 82.40527344 296.40551758 C82.10933792 297.30602844 81.8134024 298.20653931 81.50849915 299.13433838 C80.53599058 302.08035408 79.54212224 305.01862713 78.546875 307.95703125 C77.86042171 310.01550779 77.17499275 312.07432618 76.49053955 314.13346863 C75.05734469 318.43425462 73.61388039 322.73140797 72.16259766 327.02612305 C70.30469119 332.52593395 68.46960657 338.03303129 66.64171982 343.54288197 C65.23073336 347.78948606 63.80935461 352.03255266 62.38465118 356.27457237 C61.70405115 358.30417828 61.02630586 360.33474384 60.35149384 362.36628151 C59.40705277 365.20326284 58.44909802 368.03531713 57.48730469 370.86645508 C57.2118129 371.70238693 56.93632111 372.53831879 56.65248108 373.39958191 C54.94124426 378.3786136 53.18223575 383.31513213 48.1875 385.8125 C40.31041254 385.45212692 33.40128743 383.13837943 25.98046875 380.59375 C24.0815787 379.9552556 22.18268835 379.31676208 20.2837801 378.67832184 C17.64716807 377.78925318 15.0134585 376.89174575 12.37963867 375.9944458 C8.39137681 374.63770333 4.39920733 373.2925132 0.40725422 371.94667816 C-2.69624769 370.90030481 -5.79879252 369.85129748 -8.89961243 368.79699707 C-10.5673597 368.23136047 -10.5673597 368.23136047 -12.26879883 367.65429688 C-13.24536942 367.32200073 -14.22194 366.98970459 -15.22810364 366.64733887 C-17.41266981 365.94165735 -19.57778368 365.33267242 -21.8125 364.8125 C-21.95945312 365.63041016 -21.95945312 365.63041016 -22.109375 366.46484375 C-24.77658193 379.91584423 -24.77658193 379.91584423 -29.515625 384.4375 C-32.47403167 386.20851896 -35.36358603 387.02967834 -38.6875 387.9375 C-40.47800781 388.43636719 -40.47800781 388.43636719 -42.3046875 388.9453125 C-60.51099093 393.44620266 -80.56060998 391.14123327 -98.8125 387.8125 C-99.54839355 387.67859863 -100.28428711 387.54469727 -101.04248047 387.40673828 C-132.85053693 381.33368885 -170.97838589 366.66985129 -193.3125 342.125 C-195.5892453 339.48151052 -195.5892453 339.48151052 -198.625 339.875 C-200.74866723 340.62487034 -200.74866723 340.62487034 -201.8125 341.8125 C-202.22529139 344.06490521 -202.58255062 346.32131609 -202.921875 348.5859375 C-204.16869993 351.70299983 -205.87624696 352.25149279 -208.8125 353.8125 C-210.75978493 354.58420866 -212.72984372 355.2999991 -214.71484375 355.96875 C-215.84623779 356.3503125 -216.97763184 356.731875 -218.14331055 357.125 C-219.33351807 357.516875 -220.52372559 357.90875 -221.75 358.3125 C-222.96534424 358.7146875 -224.18068848 359.116875 -225.43286133 359.53125 C-262.41504398 371.57875763 -303.89195817 369.98998498 -339.8125 354.8125 C-343.6904388 352.81450788 -346.16717773 350.93164936 -347.8125 346.8125 C-348.30690768 344.43441668 -348.72779154 342.04062802 -349.1015625 339.640625 C-349.20971283 338.9582074 -349.31786316 338.27578979 -349.42929077 337.57269287 C-349.77159851 335.40355322 -350.10466963 333.23311195 -350.4375 331.0625 C-350.66866177 329.58714402 -350.90042596 328.1118823 -351.1328125 326.63671875 C-351.69969005 323.02971129 -352.25829561 319.42147896 -352.8125 315.8125 C-364.97820218 317.06389075 -377.05877692 318.6574322 -389.15136719 320.49121094 C-404.28371097 322.73413889 -404.28371097 322.73413889 -408.39775085 320.25396729 C-411.43888052 317.17918885 -411.9008435 314.50859448 -412.42895508 310.38183594 C-412.54179494 309.63794491 -412.6546348 308.89405388 -412.77089405 308.1276207 C-413.01182622 306.5224643 -413.24310045 304.91583435 -413.46567154 303.30802917 C-413.81097914 300.823443 -414.18411225 298.34460028 -414.56576538 295.86535645 C-415.38930394 290.48207753 -416.17182027 285.09323463 -416.94921875 279.703125 C-417.08989084 278.73097801 -417.23056293 277.75883102 -417.37549782 276.75722504 C-418.11772296 271.62683424 -418.85675375 266.49599566 -419.59301758 261.36474609 C-420.34811979 256.1066762 -421.11430288 250.85028281 -421.88296795 245.59418106 C-422.47850007 241.50784204 -423.065806 237.4203502 -423.65094948 233.3325119 C-423.92976546 231.39463183 -424.21159067 229.45718197 -424.49664879 227.52021027 C-428.15801968 202.59216892 -428.15801968 202.59216892 -426.8125 196.8125 C-423.76663819 193.70667338 -421.27096475 192.32421115 -416.99389648 191.71582031 C-415.6023661 191.5060556 -415.6023661 191.5060556 -414.182724 191.29205322 C-413.19301102 191.15958191 -412.20329803 191.0271106 -411.18359375 190.890625 C-410.15694107 190.74091248 -409.13028839 190.59119995 -408.07252502 190.43695068 C-404.80029134 189.96383118 -401.52537974 189.51326461 -398.25 189.0625 C-396.04211566 188.74489101 -393.83443025 188.42589578 -391.62695312 188.10546875 C-387.58631022 187.52613509 -383.54556332 186.9481169 -379.50170898 186.39160156 C-378.6907225 186.27931213 -377.87973602 186.16702271 -377.04417419 186.05133057 C-374.8125 185.8125 -374.8125 185.8125 -370.8125 185.8125 C-371.02455078 184.54132324 -371.23660156 183.27014648 -371.45507812 181.96044922 C-372.24266187 177.23126805 -373.02388667 172.50105454 -373.80322266 167.77050781 C-374.14101366 165.72562539 -374.48051438 163.68102461 -374.82177734 161.63671875 C-375.31280133 158.69343793 -375.79761046 155.74918959 -376.28125 152.8046875 C-376.43436646 151.8950827 -376.58748291 150.98547791 -376.74523926 150.04830933 C-377.47242258 145.58367757 -377.99550769 141.35501234 -377.8125 136.8125 C-378.76125 136.750625 -379.71 136.68875 -380.6875 136.625 C-390.86859323 135.06813263 -398.52170266 128.64526898 -404.8125 120.8125 C-410.98241196 110.79903632 -413.10457888 99.3398164 -410.8125 87.8125 C-408.60147791 80.19421144 -404.80716647 71.63191541 -398.18359375 66.95703125 C-395.07659811 64.14691493 -395.11184145 62.49562208 -394.8125 58.375 C-393.07847943 43.17867432 -386.14991354 30.54641143 -374.4375 20.6640625 C-360.85332153 11.08236518 -344.89935914 7.00697206 -328.4375 9.5625 C-324.58705772 10.2877188 -321.19938943 11.44345842 -317.5625 12.875 C-315.16687371 13.74778437 -315.16687371 13.74778437 -312.8125 13.8125 C-310.4941851 12.41509675 -308.88518055 10.75784106 -307.015625 8.8046875 C-299.97847639 2.44130844 -289.53986032 0.44647885 -280.296875 0.6015625 C-267.78640103 1.66377255 -258.11439438 7.71785178 -249.8125 16.8125 C-249.36132812 17.40289062 -248.91015625 17.99328125 -248.4453125 18.6015625 C-247.90648437 19.00117187 -247.36765625 19.40078125 -246.8125 19.8125 C-244.34166334 19.49957399 -244.34166334 19.49957399 -241.625 18.5 C-227.44457559 14.53908339 -213.26926302 16.35845699 -200.1875 22.9375 C-186.10368409 30.97336147 -176.90385768 42.4588745 -171.8125 57.8125 C-167.7308672 73.54379307 -170.14010682 88.21967677 -177.8046875 102.5546875 C-182.98896093 110.96652416 -189.36709654 116.64744874 -197.72265625 121.828125 C-200.15956674 123.70722786 -200.15956674 123.70722786 -200.12109375 127.046875 C-199.96833984 128.41585937 -199.96833984 128.41585937 -199.8125 129.8125 C-199.1525 129.4825 -198.4925 129.1525 -197.8125 128.8125 C-194.31081588 128.42342399 -192.2588534 128.5994677 -189.0625 130.125 C-186.65853689 132.99640038 -186.37185662 134.08187457 -185.78198242 137.66088867 C-185.61902679 138.6460849 -185.45607117 139.63128113 -185.28817749 140.64633179 C-184.47412883 146.06474036 -183.74092782 151.49026678 -183.05078125 156.92578125 C-182.89586716 158.1389653 -182.74095306 159.35214935 -182.5813446 160.60209656 C-182.25786523 163.14735903 -181.93609654 165.69283945 -181.6159668 168.23852539 C-181.12409786 172.13214133 -180.61977449 176.02402402 -180.11523438 179.91601562 C-179.80131533 182.3983405 -179.48813827 184.88075934 -179.17578125 187.36328125 C-179.02377762 188.52273758 -178.87177399 189.68219391 -178.71516418 190.87678528 C-178.58139877 191.96198959 -178.44763336 193.04719391 -178.30981445 194.1652832 C-178.189272 195.11361526 -178.06872955 196.06194733 -177.9445343 197.03901672 C-177.79631732 200.15242973 -178.07636067 202.78408499 -178.8125 205.8125 C-181.1875 208.1875 -181.1875 208.1875 -183.8125 209.8125 C-184.8025 209.8125 -185.7925 209.8125 -186.8125 209.8125 C-186.379375 211.4521875 -186.379375 211.4521875 -185.9375 213.125 C-185.06409684 216.59885065 -184.37174093 220.07944049 -183.7421875 223.60546875 C-183.47897705 225.07342896 -183.47897705 225.07342896 -183.21044922 226.57104492 C-183.07912598 227.3107251 -182.94780273 228.05040527 -182.8125 228.8125 C-182.60920074 228.22321716 -182.40590149 227.63393433 -182.19644165 227.02679443 C-177.55542629 213.57645184 -172.90375757 200.12986311 -168.2361145 186.68873596 C-166.23287471 180.91778354 -164.23705225 175.14453853 -162.26187134 169.36392212 C-161.5677332 167.33700165 -160.86811247 165.31209202 -160.16552734 163.28808594 C-159.36929194 160.9940415 -158.58255657 158.69666896 -157.80712891 156.39550781 C-157.46085449 155.40776367 -157.11458008 154.42001953 -156.7578125 153.40234375 C-156.47437988 152.57597412 -156.19094727 151.74960449 -155.89892578 150.89819336 C-154.56911618 148.34525776 -153.29370841 147.25093571 -150.8125 145.8125 C-147.0625 145.625 -147.0625 145.625 -143.8125 145.8125 C-143.63074219 145.19503906 -143.44898438 144.57757813 -143.26171875 143.94140625 C-141.55529553 138.19207263 -139.74595274 132.48944634 -137.8125 126.8125 C-138.616875 126.626875 -139.42125 126.44125 -140.25 126.25 C-149.795395 122.39834939 -156.77552203 114.75735404 -160.875 105.3828125 C-164.75676096 94.29739899 -164.75161483 83.87554591 -160.8125 72.8125 C-155.10579992 61.33871147 -146.99761223 53.91835304 -134.8125 49.8125 C-133.4925 49.8125 -132.1725 49.8125 -130.8125 49.8125 C-130.85890625 49.14605469 -130.9053125 48.47960937 -130.953125 47.79296875 C-131.45029653 35.09733854 -126.24499264 23.47369634 -117.6875 14.125 C-106.67113719 3.8608558 -93.58786725 -0.00428054 -78.83203125 0.43359375 C-73.79748875 0.7613288 -69.25978283 2.29533884 -64.58203125 4.1328125 C-61.16112092 4.9723589 -59.87096491 4.47438273 -56.8125 2.8125 C-55.4569518 1.88585572 -54.12364155 0.92597781 -52.8125 -0.0625 C-36.74428657 -10.86288069 -16.25451045 -9.60087843 0 0 Z M-370 230.3125 C-370.74958984 230.45558594 -371.49917969 230.59867188 -372.27148438 230.74609375 C-374.11895906 231.09911439 -375.96579321 231.45548419 -377.8125 231.8125 C-377.23109799 241.17230013 -375.84713823 250.33310833 -374.25 259.5625 C-374.01321108 260.95304661 -373.77688028 262.34367131 -373.54101562 263.734375 C-372.96932058 267.09454182 -372.39306552 270.4538565 -371.8125 273.8125 C-367.8525 273.1525 -363.8925 272.4925 -359.8125 271.8125 C-360.15474609 269.30076172 -360.15474609 269.30076172 -360.50390625 266.73828125 C-360.79469563 264.53391016 -361.08503682 262.32947992 -361.375 260.125 C-361.52646484 259.02220703 -361.67792969 257.91941406 -361.83398438 256.78320312 C-362.0418457 255.1831543 -362.0418457 255.1831543 -362.25390625 253.55078125 C-362.38482666 252.57149658 -362.51574707 251.59221191 -362.65063477 250.58325195 C-362.81430631 247.78158025 -362.49002354 245.52475876 -361.8125 242.8125 C-359.8325 242.1525 -357.8525 241.4925 -355.8125 240.8125 C-355.92708693 239.37413249 -356.05459116 237.93679034 -356.1875 236.5 C-356.25710938 235.69949219 -356.32671875 234.89898437 -356.3984375 234.07421875 C-356.70814426 231.54025559 -356.70814426 231.54025559 -358.8125 228.8125 C-362.64391968 228.8125 -366.25467382 229.58633195 -370 230.3125 Z M5.1875 283.8125 C3.20592508 289.53959073 1.23060909 295.26878775 -0.73901367 301 C-1.40950966 302.94817862 -2.08169284 304.89577744 -2.75561523 306.84277344 C-3.72566968 309.64626658 -4.68957759 312.45180937 -5.65234375 315.2578125 C-5.95341537 316.12366974 -6.254487 316.98952698 -6.56468201 317.88162231 C-8.03393225 322.18321022 -9.24181947 326.27929759 -9.8125 330.8125 C-6.36479356 332.45691892 -6.36479356 332.45691892 -2.625 332.5625 C-0.60808451 331.86342786 -0.60808451 331.86342786 1.1875 329.8125 C7.62245249 329.09750528 12.45650457 330.72816627 18.453125 333.03515625 C21.41049135 333.87589326 22.42982089 334.08915283 25.1875 332.8125 C26.58622009 330.21219415 26.58622009 330.21219415 27.546875 326.94921875 C27.94003906 325.75232422 28.33320313 324.55542969 28.73828125 323.32226562 C28.93502441 322.69489502 29.13176758 322.06752441 29.33447266 321.42114258 C29.93346669 319.51284943 30.55846192 317.61278188 31.18359375 315.71289062 C33.46111002 308.89849817 33.46111002 308.89849817 34.1875 301.8125 C32.99511719 301.41417969 31.80273438 301.01585937 30.57421875 300.60546875 C29.00765512 300.07077338 27.44125742 299.53559167 25.875 299 C25.08931641 298.73896484 24.30363281 298.47792969 23.49414062 298.20898438 C22.73681641 297.94794922 21.97949219 297.68691406 21.19921875 297.41796875 C20.50272217 297.18231201 19.80622559 296.94665527 19.08862305 296.70385742 C16.90718799 295.68107337 15.68349249 294.69966075 14.1875 292.8125 C13.5 289.125 13.5 289.125 13.1875 285.8125 C10.28149739 284.55585022 8.39145416 283.8125 5.1875 283.8125 Z " fill="#FCD040" transform="translate(426.8125,64.1875)"/>
<path d="M0 0 C3.04681152 2.70253903 5.89204645 5.55016364 8.3671875 8.7890625 C8.90601563 9.18867187 9.44484375 9.58828125 10 10 C12.47083666 9.68707399 12.47083666 9.68707399 15.1875 8.6875 C29.36792441 4.72658339 43.54323698 6.54595699 56.625 13.125 C70.70881591 21.16086147 79.90864232 32.6463745 85 48 C89.0816328 63.73129307 86.67239318 78.40717677 79.0078125 92.7421875 C73.82353907 101.15402416 67.44540346 106.83494874 59.08984375 112.015625 C56.65293326 113.89472786 56.65293326 113.89472786 56.69140625 117.234375 C56.84416016 118.60335937 56.84416016 118.60335937 57 120 C57.66 119.67 58.32 119.34 59 119 C62.50168412 118.61092399 64.5536466 118.7869677 67.75 120.3125 C70.15396311 123.18390038 70.44064338 124.26937457 71.03051758 127.84838867 C71.19347321 128.8335849 71.35642883 129.81878113 71.52432251 130.83383179 C72.33837117 136.25224036 73.07157218 141.67776678 73.76171875 147.11328125 C73.91663284 148.3264653 74.07154694 149.53964935 74.2311554 150.78959656 C74.55463477 153.33485903 74.87640346 155.88033945 75.1965332 158.42602539 C75.68840214 162.31964133 76.19272551 166.21152402 76.69726562 170.10351562 C77.01118467 172.5858405 77.32436173 175.06825934 77.63671875 177.55078125 C77.78872238 178.71023758 77.94072601 179.86969391 78.09733582 181.06428528 C78.23110123 182.14948959 78.36486664 183.23469391 78.50268555 184.3527832 C78.623228 185.30111526 78.74377045 186.24944733 78.8679657 187.22651672 C79.01618268 190.33992973 78.73613933 192.97158499 78 196 C75.625 198.375 75.625 198.375 73 200 C72.01 200 71.02 200 70 200 C70.433125 201.546875 70.433125 201.546875 70.875 203.125 C71.26230625 204.74711093 71.63545314 206.3726231 72 208 C72.23138672 208.99878174 72.46277344 209.99756348 72.70117188 211.02661133 C74.54122346 220.67080268 73.00988282 227.5086253 69.625 236.5625 C69.1334454 237.9520043 68.64493183 239.34258748 68.15917969 240.73413086 C66.4816907 245.50503777 64.74202617 250.2523544 63 255 C60.43613544 262.00888285 57.88536121 269.02230447 55.34979248 276.04147339 C54.26421912 279.0234414 53.15602946 281.99627892 52.04541016 284.96899414 C51.36807243 286.82411051 50.69144441 288.67948621 50.015625 290.53515625 C49.53520248 291.79265686 49.53520248 291.79265686 49.04507446 293.07556152 C46.75362157 299.46169715 46.62636605 304.14587831 48.9453125 310.65234375 C51.69333809 315.97550591 54.7946326 320.59060609 58.64453125 325.1875 C60 327 60 327 60 329 C59.21625 329.350625 58.4325 329.70125 57.625 330.0625 C54.5530209 332.32991314 54.59444711 332.90417778 54 336.5 C53.9175 337.2734375 53.835 338.046875 53.75 338.84375 C52.66434636 341.96500421 50.87965332 342.46936673 48 344 C46.05271507 344.77170866 44.08265628 345.4874991 42.09765625 346.15625 C40.96626221 346.5378125 39.83486816 346.919375 38.66918945 347.3125 C37.47898193 347.704375 36.28877441 348.09625 35.0625 348.5 C33.84715576 348.9021875 32.63181152 349.304375 31.37963867 349.71875 C-5.60254398 361.76625763 -47.07945817 360.17748498 -83 345 C-86.8779388 343.00200788 -89.35467773 341.11914936 -91 337 C-91.49440768 334.62191668 -91.91529154 332.22812802 -92.2890625 329.828125 C-92.39721283 329.1457074 -92.50536316 328.46328979 -92.61679077 327.76019287 C-92.95909851 325.59105322 -93.29216963 323.42061195 -93.625 321.25 C-93.85616177 319.77464402 -94.08792596 318.2993823 -94.3203125 316.82421875 C-94.88719005 313.21721129 -95.44579561 309.60897896 -96 306 C-108.16570218 307.25139075 -120.24627692 308.8449322 -132.33886719 310.67871094 C-147.47121097 312.92163889 -147.47121097 312.92163889 -151.58525085 310.44146729 C-154.62638052 307.36668885 -155.0883435 304.69609448 -155.61645508 300.56933594 C-155.72929494 299.82544491 -155.8421348 299.08155388 -155.95839405 298.3151207 C-156.19932622 296.7099643 -156.43060045 295.10333435 -156.65317154 293.49552917 C-156.99847914 291.010943 -157.37161225 288.53210028 -157.75326538 286.05285645 C-158.57680394 280.66957753 -159.35932027 275.28073463 -160.13671875 269.890625 C-160.27739084 268.91847801 -160.41806293 267.94633102 -160.56299782 266.94472504 C-161.30522296 261.81433424 -162.04425375 256.68349566 -162.78051758 251.55224609 C-163.53561979 246.2941762 -164.30180288 241.03778281 -165.07046795 235.78168106 C-165.66600007 231.69534204 -166.253306 227.6078502 -166.83844948 223.5200119 C-167.11726546 221.58213183 -167.39909067 219.64468197 -167.68414879 217.70771027 C-171.34551968 192.77966892 -171.34551968 192.77966892 -170 187 C-166.95413819 183.89417338 -164.45846475 182.51171115 -160.18139648 181.90332031 C-158.7898661 181.6935556 -158.7898661 181.6935556 -157.370224 181.47955322 C-156.38051102 181.34708191 -155.39079803 181.2146106 -154.37109375 181.078125 C-153.34444107 180.92841248 -152.31778839 180.77869995 -151.26002502 180.62445068 C-147.98779134 180.15133118 -144.71287974 179.70076461 -141.4375 179.25 C-139.22961566 178.93239101 -137.02193025 178.61339578 -134.81445312 178.29296875 C-130.77381022 177.71363509 -126.73306332 177.1356169 -122.68920898 176.57910156 C-121.8782225 176.46681213 -121.06723602 176.35452271 -120.23167419 176.23883057 C-118 176 -118 176 -114 176 C-114.21205078 174.72882324 -114.42410156 173.45764648 -114.64257812 172.14794922 C-115.43016187 167.41876805 -116.21138667 162.68855454 -116.99072266 157.95800781 C-117.32851366 155.91312539 -117.66801438 153.86852461 -118.00927734 151.82421875 C-118.50030133 148.88093793 -118.98511046 145.93668959 -119.46875 142.9921875 C-119.62186646 142.0825827 -119.77498291 141.17297791 -119.93273926 140.23580933 C-120.65992258 135.77117757 -121.18300769 131.54251234 -121 127 C-121.94875 126.938125 -122.8975 126.87625 -123.875 126.8125 C-134.05609323 125.25563263 -141.70920266 118.83276898 -148 111 C-154.16991196 100.98653632 -156.29207888 89.5273164 -154 78 C-151.78897791 70.38171144 -147.99466647 61.81941541 -141.37109375 57.14453125 C-138.26409811 54.33441493 -138.29934145 52.68312208 -138 48.5625 C-136.26597943 33.36617432 -129.33741354 20.73391143 -117.625 10.8515625 C-104.04082153 1.26986518 -88.08685914 -2.80552794 -71.625 -0.25 C-67.77455772 0.4752188 -64.38688943 1.63095842 -60.75 3.0625 C-58.35437371 3.93528437 -58.35437371 3.93528437 -56 4 C-53.6816851 2.60259675 -52.07268055 0.94534106 -50.203125 -1.0078125 C-36.08364238 -13.77542976 -14.12398861 -10.37042435 0 0 Z M-113.1875 220.5 C-113.93708984 220.64308594 -114.68667969 220.78617188 -115.45898438 220.93359375 C-117.30645906 221.28661439 -119.15329321 221.64298419 -121 222 C-120.41859799 231.35980013 -119.03463823 240.52060833 -117.4375 249.75 C-117.20071108 251.14054661 -116.96438028 252.53117131 -116.72851562 253.921875 C-116.15682058 257.28204182 -115.58056552 260.6413565 -115 264 C-111.04 263.34 -107.08 262.68 -103 262 C-103.34224609 259.48826172 -103.34224609 259.48826172 -103.69140625 256.92578125 C-103.98219563 254.72141016 -104.27253682 252.51697992 -104.5625 250.3125 C-104.71396484 249.20970703 -104.86542969 248.10691406 -105.02148438 246.97070312 C-105.2293457 245.3706543 -105.2293457 245.3706543 -105.44140625 243.73828125 C-105.57232666 242.75899658 -105.70324707 241.77971191 -105.83813477 240.77075195 C-106.00180631 237.96908025 -105.67752354 235.71225876 -105 233 C-103.02 232.34 -101.04 231.68 -99 231 C-99.11458693 229.56163249 -99.24209116 228.12429034 -99.375 226.6875 C-99.44460937 225.88699219 -99.51421875 225.08648437 -99.5859375 224.26171875 C-99.89564426 221.72775559 -99.89564426 221.72775559 -102 219 C-105.83141968 219 -109.44217382 219.77383195 -113.1875 220.5 Z " fill="#FDD040" transform="translate(170,74)"/>
<path d="M0 0 C7.94029764 5.66177745 11.061181 12.44433168 14.13671875 21.5546875 C15.13242865 24.58811693 15.13242865 24.58811693 18.3125 26.3125 C21.02581495 26.35304046 23.66900872 26.30259884 26.375 26.1875 C36.3061232 25.99295667 43.63758731 28.27446235 51.4921875 34.5390625 C56.7796909 39.69040702 60.92059394 46.32508364 61.6484375 53.73046875 C61.73858784 62.42997685 61.28906159 70.25754883 55.69921875 77.36328125 C53.56677777 80.36071237 53.92973777 82.74005253 54.3125 86.3125 C56.37693496 89.85622752 58.20865838 90.9102021 62.0625 92.125 C68.6044572 94.56032713 72.17669688 98.41883126 76.25 103.9375 C78.23065331 110.22898699 78.57269368 117.92636659 76.1875 124.1875 C71.80221493 131.49630845 67.57899639 135.7242679 59.3125 138.3125 C56.70485527 138.8718209 54.11719892 139.34961396 51.4765625 139.72265625 C48.92027173 140.41940698 47.90569822 141.21512512 46.3125 143.3125 C45.89414748 146.58959473 45.9000222 148.55583543 47.4921875 151.4765625 C49.19233155 153.53490834 49.19233155 153.53490834 51.84375 153.80859375 C59.07827746 153.66580702 65.43947356 152.58546937 72.3125 150.3125 C70.89442622 154.78488653 69.19945626 159.02396306 67.3125 163.3125 C66.70921875 163.27769531 66.1059375 163.24289063 65.484375 163.20703125 C64.68515625 163.17996094 63.8859375 163.15289062 63.0625 163.125 C62.27359375 163.09019531 61.4846875 163.05539063 60.671875 163.01953125 C57.51964726 163.41095026 56.6094761 164.06656781 54.3125 166.3125 C52.74859424 169.25289079 51.57760794 172.3297204 50.37890625 175.43359375 C49.64004387 177.27411661 48.90110935 179.11461051 48.16210938 180.95507812 C47.01493995 183.85457403 45.87266986 186.7559352 44.7331543 189.65844727 C43.62710961 192.46346045 42.5037337 195.26107077 41.37890625 198.05859375 C40.87865685 199.35874672 40.87865685 199.35874672 40.36830139 200.68516541 C38.10940365 206.28547764 35.87392168 209.53178916 30.3125 212.3125 C26.44035818 212.74273798 24.78753629 212.62919086 21.5 210.4375 C18.74222527 207.75851884 18.38112426 206.90724363 17.9375 203.0625 C17.95293242 198.81086731 19.28131778 195.44041527 20.8125 191.5 C23.422674 184.5469724 24.98081982 178.25817905 22.54296875 171.03125 C21.59386603 169.00448085 20.54409771 167.17907369 19.3125 165.3125 C18.714375 164.405 18.11625 163.4975 17.5 162.5625 C12.13016213 157.03923819 6.11052757 155.17982685 -1.4375 155.0625 C-7.23382515 155.11204124 -12.97461448 155.57295221 -17.27734375 159.91796875 C-18.6875 161.3125 -18.6875 161.3125 -20.6875 161.3125 C-22.85022998 165.5702447 -24.73700617 169.92748208 -26.625 174.3125 C-27.01397461 175.21226562 -27.40294922 176.11203125 -27.80371094 177.0390625 C-30.16744109 182.56747155 -32.41139393 188.1312017 -34.55078125 193.75 C-34.91144936 194.69166016 -34.91144936 194.69166016 -35.27940369 195.65234375 C-36.46743846 198.75597703 -37.64092141 201.86306805 -38.79272461 204.98046875 C-42.99551801 216.01543157 -42.99551801 216.01543157 -47.6875 219.3125 C-50.79837301 220.20431857 -53.54114403 220.03586782 -56.6875 219.3125 C-59.76338076 216.77489837 -60.52294879 214.97909875 -61.47241211 211.1328125 C-61.74026838 206.37524738 -60.57315738 203.51143071 -58.62890625 199.25 C-58.293181 198.4769754 -57.95745575 197.70395081 -57.61155701 196.90750122 C-56.50588145 194.3690445 -55.37777432 191.8412056 -54.25 189.3125 C-53.08262499 186.6446479 -51.92161554 183.97408573 -50.76107788 181.30325317 C-49.95922437 179.45843911 -49.15550839 177.61443354 -48.3500061 175.77120972 C-43.96833621 165.72574692 -39.81977442 155.58750724 -35.6875 145.4375 C-34.66578092 142.93159175 -33.64365384 140.4258514 -32.62086487 137.92037964 C-32.01489535 136.43521987 -31.40988882 134.94966669 -30.80601501 133.46365356 C-28.7970806 128.53166121 -28.7970806 128.53166121 -27.6875 126.3125 C-27.29817802 122.7307378 -27.25153282 120.94968279 -29.3125 117.9375 C-31.61210837 116.16204597 -31.61210837 116.16204597 -34.4375 115.625 C-38.6546517 116.51708978 -40.52500523 118.52190378 -43.609375 121.4296875 C-51.55169186 128.62554601 -59.60350387 130.81078121 -70.21484375 130.62109375 C-79.5931702 129.78769916 -85.94121408 124.43747895 -92.15625 117.7265625 C-95.71769383 113.27475772 -97.15359418 108.32366345 -98.6953125 102.88671875 C-99.52104039 100.00683491 -99.52104039 100.00683491 -102.6875 98.3125 C-106.38958623 98.26123471 -110.03756674 98.36436778 -113.73242188 98.56640625 C-120.86979926 98.7688006 -125.76726632 96.86191036 -131.1484375 92.1640625 C-137.09349793 85.24837995 -139.22450605 80.23868267 -138.98828125 71.05078125 C-138.13321185 63.26631831 -133.71940339 58.96644 -128.00390625 53.9765625 C-123.15786663 50.49525916 -118.89939225 50.04849635 -113.08984375 49.8515625 C-109.69341636 49.08943733 -108.63763863 48.21997941 -106.6875 45.3125 C-106.1785523 42.10540077 -106.23310017 38.92870857 -106.25 35.6875 C-105.99865536 25.3109543 -104.0845865 18.82955435 -97.0625 11 C-89.69182016 4.20795297 -81.89472073 1.47819368 -71.91015625 1.8828125 C-64.94306788 2.81175762 -59.26455527 5.11509362 -53.6875 9.3125 C-50.86118882 10.1485067 -50.86118882 10.1485067 -47.6875 9.3125 C-45.58332656 7.76439777 -43.73263967 6.05330565 -41.83203125 4.26171875 C-29.17073733 -7.24645186 -14.65656673 -8.97989982 0 0 Z " fill="#EFF0F0" transform="translate(418.6875,78.6875)"/>
<path d="M0 0 C3.04681152 2.70253903 5.89204645 5.55016364 8.3671875 8.7890625 C8.90601563 9.18867187 9.44484375 9.58828125 10 10 C12.47083666 9.68707399 12.47083666 9.68707399 15.1875 8.6875 C29.36792441 4.72658339 43.54323698 6.54595699 56.625 13.125 C70.70881591 21.16086147 79.90864232 32.6463745 85 48 C89.08166669 63.73142371 86.67011613 78.40086225 79.01171875 92.73828125 C72.96830879 102.53681973 64.08468144 111.23265729 53 115 C52.01 115 51.02 115 50 115 C49.79375 115.78375 49.5875 116.5675 49.375 117.375 C44.0185897 131.49644535 33.77743274 140.88265784 20.28515625 147.2890625 C7.52627235 152.62285156 -9.47189564 153.4676137 -22.40625 148.25390625 C-32.46360295 143.39184255 -44.0083609 136.43706357 -49 126 C-49.55004566 122.012169 -49.6232026 119.97219606 -47.4375 116.5625 C-44.01685857 114.36978113 -41.99048721 114.36992307 -38 115 C-35.5 117.0625 -35.5 117.0625 -33 120 C-26.99218342 127.00097867 -19.74289568 131.08570144 -11 134 C1.78300194 134.84026198 12.85289737 134.13905155 23.1640625 125.6796875 C29.36602962 120.00554737 33.0956189 114.37669125 36.4453125 106.63671875 C39.06691009 102.19054193 43.34214702 100.79462495 47.875 98.6875 C58.01603089 93.60193851 63.58573208 86.35765011 67.875 75.875 C70.83907783 65.78642185 70.02842364 55.01884214 65.48046875 45.6171875 C58.66500506 33.56874245 50.13962908 28.18275116 36.94921875 24.4140625 C27.7373395 22.45723043 18.10982786 24.87891465 9.8359375 29.10546875 C6.7695402 30.5995219 4.33511117 30.4168889 1 30 C-1.40402304 27.81452451 -2.75244431 25.45622045 -4.29296875 22.6171875 C-7.68951621 16.51615051 -10.68445123 13.05820492 -17 10 C-17.66 9.67 -18.32 9.34 -19 9 C-27.27992206 8.12081473 -33.90437705 8.33295063 -40.875 13.13671875 C-43.67730689 15.59388858 -45.80540576 18.25243611 -47.84375 21.36328125 C-49 23 -49 23 -51 24 C-56.17518334 24.53484428 -59.63695657 23.01261126 -64.0625 20.5625 C-73.12540147 15.63594968 -82.21848906 14.32613225 -92.38671875 16.8359375 C-104.12291496 20.9748564 -111.57048473 27.12983442 -117.625 37.97265625 C-120.33169367 43.93199601 -121.10915534 48.86661309 -121 55.375 C-121.3484779 62.19042346 -121.3484779 62.19042346 -124.109375 65.62109375 C-125.86982389 67.08205799 -127.65960125 68.50838405 -129.4765625 69.8984375 C-134.1279628 73.77220431 -136.36575388 78.61206864 -137.46875 84.50390625 C-137.8873126 91.19044382 -135.76049651 96.53361409 -132 102 C-126.33413335 108.24665025 -120.57018353 110.05917219 -112.40234375 111.2421875 C-109.23250714 112.24210344 -107.98980426 113.33096278 -106 116 C-105.30014605 118.55507025 -104.84374987 120.83330752 -104.5 123.4375 C-104.38599854 124.19812744 -104.27199707 124.95875488 -104.15454102 125.74243164 C-103.74944462 128.49242839 -103.3736276 131.2455516 -103 134 C-102.6655825 136.41669683 -102.33093299 138.83336157 -101.99609375 141.25 C-101.47159036 145.04324898 -100.95091979 148.83675173 -100.4453125 152.63256836 C-99.73345578 157.94002452 -98.99254917 163.22150004 -98 168.484375 C-97.21654977 172.64005098 -96.59379922 176.79633105 -96.03515625 180.98828125 C-95.79442383 182.78942383 -95.79442383 182.78942383 -95.54882812 184.62695312 C-95.222142 187.10268293 -94.90192302 189.57927396 -94.58789062 192.05664062 C-94.34522461 193.84811523 -94.34522461 193.84811523 -94.09765625 195.67578125 C-93.95851807 196.74739502 -93.81937988 197.81900879 -93.67602539 198.9230957 C-92.70557061 203.34008435 -91.24126552 206.86825791 -87.875 209.9375 C-83.67999337 211.48782854 -80.27472813 211.20589076 -76 210 C-72.69099991 208.44207799 -72.69099991 208.44207799 -71 205 C-69.08352669 192.37173672 -73.09258095 178.7174859 -75.375 166.375 C-75.79270278 164.07050006 -76.20937734 161.7658135 -76.625 159.4609375 C-77.39262471 155.21415153 -78.16567157 150.96844811 -78.94677734 146.72412109 C-79.12053894 145.77905701 -79.29430054 144.83399292 -79.47332764 143.86029053 C-79.83655656 141.88764048 -80.2009242 139.91519989 -80.56622314 137.94293213 C-80.74626892 136.96483582 -80.9263147 135.9867395 -81.11181641 134.97900391 C-81.27356354 134.10418365 -81.43531067 133.2293634 -81.60195923 132.32803345 C-82.82510429 125.17418687 -82.82510429 125.17418687 -80.375 121.6875 C-77.37566946 119.55639672 -75.69665479 118.9260669 -72 119 C-68.60063167 121.05360297 -66.5923946 122.46995742 -65.14501953 126.20825195 C-64.4683395 129.02344543 -63.96265397 131.82922602 -63.5 134.6875 C-63.30623779 135.7595166 -63.11247559 136.8315332 -62.9128418 137.93603516 C-62.48728393 140.31037653 -62.07342988 142.68683639 -61.66943359 145.06494141 C-60.94514112 149.32247098 -60.18840606 153.57343155 -59.42578125 157.82421875 C-58.26018922 164.33924404 -57.11247746 170.85714445 -55.98394775 177.37869263 C-55.15895529 182.13366946 -54.28635615 186.8782366 -53.37524414 191.61743164 C-51.87391202 201.14996264 -53.22016345 208.6919284 -58.1796875 216.96875 C-62.90647175 223.34571337 -70.33200571 227.10138094 -78.0234375 228.58203125 C-87.32778768 229.10707988 -94.44716412 225.03522392 -102 220 C-105.27887643 220.19993394 -105.27887643 220.19993394 -108.875 220.875 C-112.99426464 221.565917 -116.82811216 222.05795527 -121 222 C-120.81824219 223.09465576 -120.63648438 224.18931152 -120.44921875 225.31713867 C-119.77428056 229.38858109 -119.10461742 233.46087665 -118.43652344 237.53344727 C-118.14694128 239.2941003 -117.85593972 241.0545205 -117.56347656 242.81469727 C-117.14272352 245.34851791 -116.72712527 247.88313909 -116.3125 250.41796875 C-116.18125732 251.20149216 -116.05001465 251.98501556 -115.91479492 252.7922821 C-115.30164608 256.57143898 -114.83939396 260.155493 -115 264 C-113.948125 263.67 -112.89625 263.34 -111.8125 263 C-108.5690557 262.14926051 -106.28523991 261.90921617 -103 262 C-103.12640869 261.39526855 -103.25281738 260.79053711 -103.38305664 260.16748047 C-103.95391421 257.40547112 -104.50832218 254.64040218 -105.0625 251.875 C-105.26166016 250.92367188 -105.46082031 249.97234375 -105.66601562 248.9921875 C-106.63970904 244.07247339 -107.45001066 239.92691793 -106 235 C-104.3125 232.625 -104.3125 232.625 -102 231 C-98.09503158 230.51187895 -95.28165759 230.77316092 -92 233 C-89.96449092 236.05326361 -89.54102333 237.61883015 -88.94677734 241.15820312 C-88.76674164 242.20939331 -88.58670593 243.2605835 -88.4012146 244.34362793 C-88.21467316 245.47804321 -88.02813171 246.6124585 -87.8359375 247.78125 C-87.63900299 248.94628052 -87.44206848 250.11131104 -87.23916626 251.31164551 C-86.82402505 253.77571742 -86.4123627 256.24037758 -86.00390625 258.70556641 C-85.37731982 262.48600362 -84.74039839 266.2645842 -84.1015625 270.04296875 C-83.69991476 272.43479414 -83.29885327 274.82671806 -82.8984375 277.21875 C-82.7078476 278.35316528 -82.51725769 279.48758057 -82.32089233 280.65637207 C-82.14716095 281.70756226 -81.97342957 282.75875244 -81.79443359 283.84179688 C-81.64058197 284.76762573 -81.48673035 285.69345459 -81.32821655 286.64733887 C-81 289 -81 289 -81 292 C-80.19949219 292.25523437 -80.19949219 292.25523437 -79.3828125 292.515625 C-75.3494865 293.82750266 -71.4450826 295.22916365 -67.5625 296.9375 C-40.97211841 307.29375388 -7.66019113 305.2143858 19.78125 298.92578125 C24.56223219 297.83688174 29.11873513 297.1602125 34 298 C36.6875 300.0625 36.6875 300.0625 38 303 C37.9413554 306.40138697 37.87216689 308.84843314 35.77758789 311.61401367 C18.19601574 325.32237586 -26.02301086 321.70427917 -47.4765625 319.67041016 C-58.14479297 318.284553 -68.19180426 315.44007377 -78 311 C-77.15522205 322.46573777 -77.15522205 322.46573777 -71.84765625 332.01171875 C-68.89270017 333.06483843 -66.10483572 333.54912067 -63 334 C-61.10680303 334.51560254 -59.21375071 335.03205802 -57.32666016 335.56958008 C-26.34150267 344.11397199 5.35848831 340.71670513 35.21875 329.9609375 C39.53705623 328.44182091 43.41294327 327.15880622 48 327 C51.4375 329 51.4375 329 54 332 C54.572852 335.62806264 54.65287658 337.81742316 52.86254883 341.06030273 C50.36607563 343.66018208 48.0535484 344.34884691 44.63671875 345.47265625 C44.00828568 345.68184189 43.3798526 345.89102753 42.7323761 346.10655212 C41.39880802 346.54727932 40.0630502 346.98142791 38.7253418 347.40942383 C36.72741571 348.04970803 34.73763693 348.71127905 32.74804688 349.37695312 C-4.65933444 361.71769447 -46.61608631 360.37327321 -83 345 C-86.8779388 343.00200788 -89.35467773 341.11914936 -91 337 C-91.49440768 334.62191668 -91.91529154 332.22812802 -92.2890625 329.828125 C-92.39721283 329.1457074 -92.50536316 328.46328979 -92.61679077 327.76019287 C-92.95909851 325.59105322 -93.29216963 323.42061195 -93.625 321.25 C-93.85616177 319.77464402 -94.08792596 318.2993823 -94.3203125 316.82421875 C-94.88719005 313.21721129 -95.44579561 309.60897896 -96 306 C-108.16570218 307.25139075 -120.24627692 308.8449322 -132.33886719 310.67871094 C-147.47121097 312.92163889 -147.47121097 312.92163889 -151.58525085 310.44146729 C-154.62638052 307.36668885 -155.0883435 304.69609448 -155.61645508 300.56933594 C-155.72929494 299.82544491 -155.8421348 299.08155388 -155.95839405 298.3151207 C-156.19932622 296.7099643 -156.43060045 295.10333435 -156.65317154 293.49552917 C-156.99847914 291.010943 -157.37161225 288.53210028 -157.75326538 286.05285645 C-158.57680394 280.66957753 -159.35932027 275.28073463 -160.13671875 269.890625 C-160.27739084 268.91847801 -160.41806293 267.94633102 -160.56299782 266.94472504 C-161.30522296 261.81433424 -162.04425375 256.68349566 -162.78051758 251.55224609 C-163.53561979 246.2941762 -164.30180288 241.03778281 -165.07046795 235.78168106 C-165.66600007 231.69534204 -166.253306 227.6078502 -166.83844948 223.5200119 C-167.11726546 221.58213183 -167.39909067 219.64468197 -167.68414879 217.70771027 C-171.34551968 192.77966892 -171.34551968 192.77966892 -170 187 C-166.95413819 183.89417338 -164.45846475 182.51171115 -160.18139648 181.90332031 C-158.7898661 181.6935556 -158.7898661 181.6935556 -157.370224 181.47955322 C-156.38051102 181.34708191 -155.39079803 181.2146106 -154.37109375 181.078125 C-153.34444107 180.92841248 -152.31778839 180.77869995 -151.26002502 180.62445068 C-147.98779134 180.15133118 -144.71287974 179.70076461 -141.4375 179.25 C-139.22961566 178.93239101 -137.02193025 178.61339578 -134.81445312 178.29296875 C-130.77381022 177.71363509 -126.73306332 177.1356169 -122.68920898 176.57910156 C-121.8782225 176.46681213 -121.06723602 176.35452271 -120.23167419 176.23883057 C-118 176 -118 176 -114 176 C-114.21205078 174.72882324 -114.42410156 173.45764648 -114.64257812 172.14794922 C-115.43016187 167.41876805 -116.21138667 162.68855454 -116.99072266 157.95800781 C-117.32851366 155.91312539 -117.66801438 153.86852461 -118.00927734 151.82421875 C-118.50030133 148.88093793 -118.98511046 145.93668959 -119.46875 142.9921875 C-119.62186646 142.0825827 -119.77498291 141.17297791 -119.93273926 140.23580933 C-120.65992258 135.77117757 -121.18300769 131.54251234 -121 127 C-121.94875 126.938125 -122.8975 126.87625 -123.875 126.8125 C-134.05609323 125.25563263 -141.70920266 118.83276898 -148 111 C-154.16991196 100.98653632 -156.29207888 89.5273164 -154 78 C-151.78897791 70.38171144 -147.99466647 61.81941541 -141.37109375 57.14453125 C-138.26409811 54.33441493 -138.29934145 52.68312208 -138 48.5625 C-136.26597943 33.36617432 -129.33741354 20.73391143 -117.625 10.8515625 C-104.04082153 1.26986518 -88.08685914 -2.80552794 -71.625 -0.25 C-67.77455772 0.4752188 -64.38688943 1.63095842 -60.75 3.0625 C-58.35437371 3.93528437 -58.35437371 3.93528437 -56 4 C-53.6816851 2.60259675 -52.07268055 0.94534106 -50.203125 -1.0078125 C-36.08364238 -13.77542976 -14.12398861 -10.37042435 0 0 Z " fill="#020101" transform="translate(170,74)"/>
<path d="M0 0 C3 2.0625 3 2.0625 5 5 C4.64988075 10.57584445 2.97146285 15.56725651 1.1484375 20.796875 C0.85792511 21.6460701 0.56741272 22.4952652 0.26809692 23.37019348 C-0.69011891 26.16561841 -1.65740576 28.95780879 -2.625 31.75 C-3.30447225 33.72502916 -3.98350136 35.70021083 -4.66210938 37.67553711 C-6.76467454 43.78719159 -8.88056232 49.89417909 -11 56 C-11.32432007 56.93475159 -11.64864014 57.86950317 -11.98278809 58.83258057 C-13.84514708 64.19857243 -15.71148794 69.56316444 -17.58126831 74.92657471 C-18.19347445 76.68305015 -18.80523028 78.43968261 -19.41653442 80.19647217 C-22.65104079 89.49093179 -25.90964575 98.77527359 -29.24905396 108.03263855 C-30.68432392 112.0165204 -32.10737062 116.00471674 -33.52929688 119.99337769 C-34.21308717 121.90048125 -34.90294515 123.80542112 -35.59912109 125.70803833 C-36.5615977 128.33929223 -37.50353247 130.97708332 -38.44140625 133.6171875 C-38.73217545 134.39532303 -39.02294464 135.17345856 -39.32252502 135.97517395 C-40.48688323 139.30928785 -41.14277025 141.4536354 -40.23706055 144.91967773 C-25.02065224 170.50858936 19.47543301 183.79223723 46 191 C50.95987665 192.23996916 55.95746335 193.16350443 61 194 C62.0003125 194.20367187 63.000625 194.40734375 64.03125 194.6171875 C80.22406828 197.66377444 97.33859131 197.22046956 113 192 C114.07302112 189.50871858 114.9406804 187.12315237 115.75561523 184.54614258 C116.01297455 183.76559509 116.27033386 182.98504761 116.53549194 182.18084717 C117.09409547 180.48124805 117.64709869 178.77980061 118.19521904 177.07679176 C119.06365641 174.37880301 119.94639744 171.68588211 120.83302307 168.99382019 C122.71463332 163.27106688 124.57645869 157.54196837 126.4375 151.8125 C128.59115406 145.19072203 130.75285253 138.57168875 132.92839241 131.95706749 C133.79583789 129.30847896 134.65181856 126.65636969 135.50718689 124.00386047 C136.04262063 122.3693529 136.57853026 120.73500112 137.11499023 119.10083008 C137.46505379 117.9994294 137.46505379 117.9994294 137.82218933 116.8757782 C139.31786554 112.36704728 141.11543641 108.79162119 144 105 C147.1880384 103.4059808 150.53836793 103.48217389 154 104 C156.64361162 106.38777824 157.21230947 108.62215592 158 112 C161.95605926 113.2467352 161.95605926 113.2467352 166 114 C167.54166642 112.62514468 167.54166642 112.62514468 169 111 C175.95791875 110.36200745 181.59152476 112.14085157 188.140625 114.359375 C189.18522888 114.70502502 190.22983276 115.05067505 191.30609131 115.40679932 C193.50323139 116.13737171 195.69837956 116.87395909 197.89160156 117.61621094 C201.24753166 118.74916669 204.61125565 119.85618985 207.9765625 120.9609375 C210.11509822 121.67554433 212.25313731 122.39163945 214.390625 123.109375 C215.39482483 123.43871033 216.39902466 123.76804565 217.43365479 124.10736084 C226.96202354 127.36915662 226.96202354 127.36915662 229 131 C229.76763734 138.00120944 228.47732889 144.01318922 226.21777344 150.59301758 C225.92183792 151.49352844 225.6259024 152.39403931 225.32099915 153.32183838 C224.34849058 156.26785408 223.35462224 159.20612713 222.359375 162.14453125 C221.67292171 164.20300779 220.98749275 166.26182618 220.30303955 168.32096863 C218.86984469 172.62175462 217.42638039 176.91890797 215.97509766 181.21362305 C214.11719119 186.71343395 212.28210657 192.22053129 210.45421982 197.73038197 C209.04323336 201.97698606 207.62185461 206.22005266 206.19715118 210.46207237 C205.51655115 212.49167828 204.83880586 214.52224384 204.16399384 216.55378151 C203.21955277 219.39076284 202.26159802 222.22281713 201.29980469 225.05395508 C201.0243129 225.88988693 200.74882111 226.72581879 200.46498108 227.58708191 C198.75374426 232.5661136 196.99473575 237.50263213 192 240 C184.12291254 239.63962692 177.21378743 237.32587943 169.79296875 234.78125 C167.8940787 234.1427556 165.99518835 233.50426208 164.0962801 232.86582184 C161.45966807 231.97675318 158.8259585 231.07924575 156.19213867 230.1819458 C152.20387681 228.82520333 148.21170733 227.4800132 144.21975422 226.13417816 C141.11625231 225.08780481 138.01370748 224.03879748 134.91288757 222.98449707 C133.80105606 222.60740601 132.68922455 222.23031494 131.54370117 221.84179688 C130.56713058 221.50950073 129.59056 221.17720459 128.58439636 220.83483887 C126.39983019 220.12915735 124.23471632 219.52017242 122 219 C121.90203125 219.54527344 121.8040625 220.09054687 121.703125 220.65234375 C119.03591807 234.10334423 119.03591807 234.10334423 114.296875 238.625 C111.33846833 240.39601896 108.44891397 241.21717834 105.125 242.125 C103.33449219 242.62386719 103.33449219 242.62386719 101.5078125 243.1328125 C83.30150907 247.63370266 63.25189002 245.32873327 45 242 C44.26410645 241.86609863 43.52821289 241.73219727 42.77001953 241.59423828 C10.50047924 235.43307866 -20.71938148 220.90581645 -46 200 C-46.65097656 199.46503906 -47.30195313 198.93007813 -47.97265625 198.37890625 C-52.2405695 194.49439892 -55.45045376 189.76400397 -58.75 185.0625 C-59.22260254 184.39395996 -59.69520508 183.72541992 -60.18212891 183.03662109 C-64.59378947 176.56671173 -67.64902585 171.27196209 -66.46981812 163.2580719 C-65.58978013 159.02837324 -64.09282226 155.03252697 -62.60546875 150.984375 C-62.09114792 149.55190681 -62.09114792 149.55190681 -61.56643677 148.09049988 C-60.83046287 146.04225034 -60.09097616 143.99526022 -59.34829712 141.94943237 C-57.36746892 136.48979971 -55.41483934 131.02009646 -53.4609375 125.55078125 C-53.0703566 124.45903091 -52.6797757 123.36728058 -52.27735901 122.2424469 C-49.16272296 113.51376023 -46.19707986 104.74435347 -43.3125 95.9375 C-37.83778909 79.27341165 -32.0835516 62.70719587 -26.30971909 46.14497757 C-25.56951009 44.02012326 -24.83076219 41.89476639 -24.09243774 39.76925659 C-22.91505867 36.38057064 -21.73370632 32.99329431 -20.54940033 29.60702324 C-19.90214078 27.75401695 -19.25816824 25.8998635 -18.61431885 24.04566956 C-9.76699759 -1.17877557 -9.76699759 -1.17877557 0 0 Z M149 138 C147.01842508 143.72709073 145.04310909 149.45628775 143.07348633 155.1875 C142.40299034 157.13567862 141.73080716 159.08327744 141.05688477 161.03027344 C140.08683032 163.83376658 139.12292241 166.63930937 138.16015625 169.4453125 C137.85908463 170.31116974 137.558013 171.17702698 137.24781799 172.06912231 C135.77856775 176.37071022 134.57068053 180.46679759 134 185 C137.44770644 186.64441892 137.44770644 186.64441892 141.1875 186.75 C143.20441549 186.05092786 143.20441549 186.05092786 145 184 C151.43495249 183.28500528 156.26900457 184.91566627 162.265625 187.22265625 C165.22299135 188.06339326 166.24232089 188.27665283 169 187 C170.39872009 184.39969415 170.39872009 184.39969415 171.359375 181.13671875 C171.75253906 179.93982422 172.14570313 178.74292969 172.55078125 177.50976562 C172.74752441 176.88239502 172.94426758 176.25502441 173.14697266 175.60864258 C173.74596669 173.70034943 174.37096192 171.80028188 174.99609375 169.90039062 C177.27361002 163.08599817 177.27361002 163.08599817 178 156 C176.80761719 155.60167969 175.61523438 155.20335937 174.38671875 154.79296875 C172.82015512 154.25827338 171.25375742 153.72309167 169.6875 153.1875 C168.90181641 152.92646484 168.11613281 152.66542969 167.30664062 152.39648438 C166.54931641 152.13544922 165.79199219 151.87441406 165.01171875 151.60546875 C164.31522217 151.36981201 163.61872559 151.13415527 162.90112305 150.89135742 C160.71968799 149.86857337 159.49599249 148.88716075 158 147 C157.3125 143.3125 157.3125 143.3125 157 140 C154.09399739 138.74335022 152.20395416 138 149 138 Z " fill="#020200" transform="translate(283,210)"/>
<path d="M0 0 C6.40707696 3.18189295 10.21441826 8.23867882 13.54296875 14.44140625 C14.68023922 16.52088139 15.75771325 18.35905275 17.3125 20.1484375 C23.19381633 21.70878673 28.09065818 18.78073163 33.4453125 16.33984375 C43.82302114 12.02758062 54.18387091 14.05631885 64.3125 18.1484375 C74.90861271 23.56672206 81.14006765 32.05129068 85.39453125 42.91015625 C88.59600568 54.20386817 86.50835025 65.5306114 80.95703125 75.609375 C76.02454896 83.57011049 70.16903562 88.0553834 61.7421875 91.97265625 C60.94039062 92.36066406 60.13859375 92.74867188 59.3125 93.1484375 C58.45398438 93.55449219 57.59546875 93.96054688 56.7109375 94.37890625 C53.51173137 96.7392326 52.62922977 99.14147302 51.0625 102.7734375 C46.47257185 112.67230591 39.5117515 119.90159198 29.3125 124.1484375 C18.55745678 127.78067964 6.33855234 127.80943595 -3.96875 122.83984375 C-9.91550634 119.14020942 -14.77792975 114.32480652 -19.375 109.0859375 C-21.65689321 106.82545923 -21.65689321 106.82545923 -25.3125 106.6484375 C-28.56910068 106.88973346 -28.56910068 106.88973346 -30.5 108.3359375 C-31.91805737 110.50034086 -32.75372601 112.74111298 -33.6875 115.1484375 C-36.26868068 115.61965304 -38.84654145 116.05077711 -41.4375 116.4609375 C-42.16710937 116.59822266 -42.89671875 116.73550781 -43.6484375 116.87695312 C-45.796875 117.19921875 -45.796875 117.19921875 -49.6875 117.1484375 C-52.015625 114.75 -52.015625 114.75 -53.6875 112.1484375 C-56.93187905 111.13456905 -58.78186158 110.83024022 -62 111.9609375 C-63.83847822 113.05531075 -63.83847822 113.05531075 -64.6875 115.1484375 C-64.90039476 127.66720972 -61.55520229 140.31309289 -59.1875 152.5234375 C-58.56073251 155.78754993 -57.93598303 159.05203835 -57.31262207 162.31680298 C-56.92659617 164.33514713 -56.53829413 166.35305775 -56.14733887 168.37045288 C-52.58811446 186.852522 -52.58811446 186.852522 -53.6875 196.1484375 C-55.9375 199.3359375 -55.9375 199.3359375 -58.6875 201.1484375 C-59.326875 201.5815625 -59.96625 202.0146875 -60.625 202.4609375 C-63.53820222 203.43200491 -65.62722665 203.5156703 -68.6875 203.1484375 C-73.65625801 200.61534518 -75.56472167 198.22879463 -77.6875 193.1484375 C-78.34765625 189.484375 -78.34765625 189.484375 -78.75 185.5234375 C-78.90693422 184.08833041 -79.06580139 182.65343344 -79.2265625 181.21875 C-79.30293945 180.52040039 -79.37931641 179.82205078 -79.45800781 179.10253906 C-79.76152219 176.51814645 -80.17949898 173.96189418 -80.625 171.3984375 C-81.5314055 166.15828068 -82.34094591 160.90798702 -83.125 155.6484375 C-83.25253662 154.79427246 -83.38007324 153.94010742 -83.51147461 153.06005859 C-84.0320298 149.56736409 -84.55066731 146.07439154 -85.06689453 142.58105469 C-85.80375244 137.59501486 -86.55101977 132.6107593 -87.3125 127.62841797 C-87.56731324 125.94326636 -87.81713666 124.25735424 -88.0625 122.57080078 C-88.42615405 120.07399372 -88.80528193 117.57996094 -89.1875 115.0859375 C-89.29384766 114.32974121 -89.40019531 113.57354492 -89.50976562 112.79443359 C-89.94817521 110.01335288 -90.37460298 107.64581127 -91.88671875 105.2421875 C-94.48734954 103.66262867 -97.01745133 103.26479025 -100 102.7109375 C-108.5832705 100.85535241 -113.61896706 97.20550992 -118.6875 90.1484375 C-121.86195661 84.54023083 -122.65126562 79.46015747 -121.6875 73.1484375 C-119.73373828 66.71483829 -116.73283196 63.01209404 -111.4375 58.9609375 C-108.12357295 56.19933162 -106.84472082 54.90833813 -105.9609375 50.63671875 C-105.86143007 48.04690684 -105.80723145 45.45498343 -105.796875 42.86328125 C-105.5202162 33.46676285 -100.8639406 25.0582588 -94.6875 18.1484375 C-85.29579159 9.69151811 -75.5080014 5.37781319 -62.82421875 5.828125 C-56.14051047 6.51064565 -50.71142907 8.44856578 -44.9375 11.8359375 C-41.33984094 13.91979283 -38.9164221 15.10955616 -34.6875 14.1484375 C-31.95584154 11.87205545 -29.97273341 9.5559138 -27.9375 6.6484375 C-20.6290524 -1.47205984 -10.35677261 -3.28165178 0 0 Z " fill="#EFF0F0" transform="translate(153.6875,82.8515625)"/>
<path d="M0 0 C7.36863928 5.04451905 12.27074731 10.5350978 15.75 18.75 C17.0605212 21.62047052 17.0605212 21.62047052 19.1875 23.8125 C22.93380963 24.91278357 26.40449671 25.19354292 30.296875 25.44921875 C42.52163527 26.59068733 52.82831265 34.24913043 60.55078125 43.4296875 C69.50487694 56.46548313 71.2562625 71.22983555 68.515625 86.57421875 C67.83297298 89.03756213 67.10623771 91.42815689 66.1875 93.8125 C66.83976563 94.35777344 67.49203125 94.90304688 68.1640625 95.46484375 C77.55512627 103.56775275 84.42088183 111.84022805 85.50390625 124.515625 C86.00899339 136.38302658 83.95676689 146.60914106 76.015625 155.8515625 C75.41234375 156.49867188 74.8090625 157.14578125 74.1875 157.8125 C73.43726563 158.65941406 73.43726563 158.65941406 72.671875 159.5234375 C65.96189265 166.19953105 55.8092359 169.03005509 46.5625 169.4375 C42.71609939 169.25287277 41.55075489 169.09319696 38.4375 166.6875 C36.94895934 163.26385649 36.42095262 161.49192743 37.1875 157.8125 C41.3779126 152.82930664 45.24262765 152.2587308 51.5078125 151.31640625 C58.26444894 150.04584342 62.06765948 146.22789665 66.0234375 140.8125 C69.30941908 135.16678668 68.85126467 128.11826441 68.1875 121.8125 C65.86352509 115.52174033 60.99164887 110.56775908 54.91015625 107.76171875 C54.11480469 107.42785156 53.31945312 107.09398437 52.5 106.75 C46.67261905 104.27777778 46.67261905 104.27777778 45.1875 100.8125 C44.32996212 95.23850381 45.73299147 92.28028519 48.8984375 87.90234375 C53.244567 80.85634593 53.09127213 72.8024855 52.1875 64.8125 C49.42415918 56.16845523 44.92644466 49.77299065 36.84765625 45.60546875 C29.80253271 42.37407497 24.22189785 41.73018204 16.5234375 42.203125 C12.36789773 42.31936387 10.70232495 42.19793044 7.265625 39.625 C5.22840855 36.86786495 4.24015132 34.83318815 3.3125 31.5625 C0.01659142 21.88321118 -5.13062222 16.56533095 -14.1640625 11.90625 C-21.61219715 8.83032418 -30.26639483 8.60979 -37.875 11.25 C-42.96299122 13.50139547 -46.7120883 16.95142803 -50.68359375 20.7890625 C-53.28730397 23.26378157 -55.01676338 24.70640178 -58.625 25.1875 C-62.62735872 24.71663427 -64.50338844 23.08345891 -67.8125 20.8125 C-75.70020765 16.98086966 -84.66295957 16.16264724 -93.03125 18.84375 C-101.74867263 22.80621483 -108.57629148 28.77202212 -112.24291992 37.78051758 C-113.58290314 42.56092063 -113.20733415 47.67971305 -113.1640625 52.60546875 C-113.24347687 56.99311262 -113.37941283 59.19481829 -115.95703125 62.87109375 C-119.2300213 65.09636879 -121.20609001 65.48248159 -125.125 65.75 C-132.48753753 66.64847916 -136.61860272 69.0342556 -141.37109375 74.65625 C-146.04286161 80.90291977 -146.51304839 86.23845512 -145.8125 93.8125 C-144.04020764 100.96940036 -139.86740438 105.7420708 -133.8125 109.8125 C-128.59446032 112.6773061 -123.15464449 111.83930959 -117.40625 111.47070312 C-113.17153979 111.33307504 -111.38541799 111.39417893 -107.859375 113.96875 C-105.74951614 116.90000429 -104.90023324 119.01409893 -104.0625 122.5 C-101.72767425 130.1352568 -97.27267409 135.90335531 -90.5546875 140.28515625 C-82.2663137 144.55168077 -73.36882705 145.38563903 -64.36328125 142.8359375 C-59.19828031 140.76485471 -55.70712175 138.79215716 -51.8125 134.8125 C-51.1525 134.8125 -50.4925 134.8125 -49.8125 134.8125 C-49.52375 134.173125 -49.235 133.53375 -48.9375 132.875 C-47.8125 130.8125 -47.8125 130.8125 -45.8125 129.8125 C-41.75986402 129.27214854 -40.27519769 129.47050605 -36.9375 131.9375 C-34.36368996 135.41971359 -34.40662055 136.56732264 -34.8125 140.8125 C-35.69123765 143.39145453 -36.61872454 145.78834781 -37.71484375 148.26953125 C-38.02417847 148.99379303 -38.33351318 149.71805481 -38.65222168 150.46426392 C-39.32392325 152.03375957 -40.00048716 153.60118131 -40.68136597 155.16671753 C-41.76338432 157.65578924 -42.83191317 160.15025292 -43.89672852 162.64672852 C-45.40799677 166.18890259 -46.9232553 169.72932521 -48.44140625 173.26855469 C-52.04194094 181.67489411 -55.59255586 190.10194654 -59.11599731 198.54086304 C-60.23390073 201.21153877 -61.36178883 203.87785117 -62.48999023 206.54418945 C-63.18009495 208.1945859 -63.86965723 209.84520931 -64.55859375 211.49609375 C-64.87453491 212.23622711 -65.19047607 212.97636047 -65.51599121 213.73892212 C-67.8295063 219.33104483 -69.78813339 224.37341652 -67.4375 230.25 C-64.15648362 233.45289694 -62.45077807 233.45946861 -58.03125 233.4140625 C-54.86421268 232.55539393 -53.91883438 231.37928436 -51.8125 228.8125 C-50.21154331 225.57813642 -48.94368137 222.23009999 -47.66015625 218.859375 C-47.2781456 217.88518616 -46.89613495 216.91099731 -46.50254822 215.9072876 C-45.28339165 212.79614004 -44.07792832 209.67995482 -42.875 206.5625 C-41.67483175 203.45967305 -40.4714759 200.35827148 -39.25816345 197.26055908 C-38.50449296 195.33584787 -37.75825168 193.40820492 -37.02076721 191.47723389 C-34.1655345 184.17704395 -31.17435788 176.62595362 -24.25 172.375 C-23.50621094 171.90191406 -22.76242187 171.42882812 -21.99609375 170.94140625 C-15.86300758 167.77063362 -8.10844408 167.90621279 -1.4609375 169.30859375 C5.66972215 171.74513189 10.41349255 176.34277295 14.1875 182.8125 C17.16624442 189.36143629 17.23387997 195.50200169 15.06640625 202.359375 C14.15538738 204.76467129 13.24009915 207.16835536 12.3203125 209.5703125 C10.83987244 213.80743405 10.38450981 216.39605395 11.1875 220.8125 C13.60457996 224.22484817 14.99777614 225.58468054 19.125 226.375 C23.08348161 225.64793195 25.05332825 224.35412801 28.1875 221.8125 C29.80527522 219.26284589 30.86746264 216.56998839 31.94921875 213.7578125 C32.26655472 212.97864471 32.58389069 212.19947693 32.9108429 211.396698 C33.91662332 208.91701057 34.89639208 206.42801978 35.875 203.9375 C36.8698915 201.45666267 37.86998829 198.97798056 38.87129211 196.49972534 C39.49067081 194.96129066 40.10534996 193.42095264 40.71452332 191.87844849 C45.91413509 178.77593793 45.91413509 178.77593793 50.1875 176.8125 C53.80271694 176.70272621 56.98195204 177.17205264 60.1875 178.875 C62.12426286 182.62747804 61.69937525 187.01148659 60.57174683 190.97900391 C59.68883106 193.30336797 58.72528214 195.5719177 57.71484375 197.84375 C57.3541127 198.67910278 56.99338165 199.51445557 56.62171936 200.37512207 C55.85796155 202.1329485 55.08686064 203.88760075 54.30883789 205.63916016 C53.13232174 208.29596606 51.98769985 210.96492377 50.84570312 213.63671875 C50.09563405 215.35238742 49.34373895 217.06725915 48.58984375 218.78125 C48.2541185 219.56794067 47.91839325 220.35463135 47.57249451 221.16516113 C43.82484379 229.48466029 38.42812294 236.20456749 29.98828125 239.95703125 C22.37998508 242.28090414 15.37479425 241.84585584 8.25 238.3125 C0.90705762 233.75923442 -3.83073818 227.2515024 -5.8125 218.8125 C-6.41835557 212.45101657 -5.07056713 207.72753439 -2.8125 201.8125 C-0.94951317 196.81185115 0.33191787 192.6353974 -1.75 187.5 C-4.53537724 185.22105498 -6.9555003 184.98184704 -10.4609375 184.5 C-13.98180598 184.9678895 -15.27755703 186.30865335 -17.8125 188.8125 C-19.47301625 191.87006972 -20.66524497 195.07168438 -21.87890625 198.328125 C-22.23967758 199.25792175 -22.60044891 200.18771851 -22.97215271 201.14569092 C-24.12056859 204.11274408 -25.24854761 207.08704718 -26.375 210.0625 C-27.50878765 213.02207424 -28.64682242 215.97994583 -29.78855896 218.9364624 C-30.49639422 220.77310753 -31.19906594 222.61175411 -31.89564514 224.45269775 C-35.96385851 235.09543282 -39.61386386 242.77657249 -49.8125 248.8125 C-55.93301413 251.5327285 -62.41804808 251.78688256 -68.8125 249.8125 C-75.66131152 246.86751105 -81.30309722 241.81680194 -84.375 235 C-88.31310256 222.20116666 -83.8283849 212.52111648 -78.8125 200.8125 C-78.1191911 199.15518642 -77.4276274 197.4971417 -76.73779297 195.83837891 C-75.07585627 191.85353307 -73.39345311 187.87779998 -71.70202637 183.90539551 C-70.48096412 181.03245572 -69.27498399 178.15328249 -68.0703125 175.2734375 C-66.76885788 172.16440703 -65.45755562 169.06010719 -64.1328125 165.9609375 C-62.78861451 162.86627298 -62.78861451 162.86627298 -61.8125 159.8125 C-62.63363281 159.97105469 -63.45476562 160.12960938 -64.30078125 160.29296875 C-78.68099601 162.42040875 -90.83017058 160.90361649 -102.82421875 152.296875 C-103.48035156 151.80703125 -104.13648438 151.3171875 -104.8125 150.8125 C-105.84375 150.090625 -106.875 149.36875 -107.9375 148.625 C-113.80032932 143.58100159 -117.62296599 136.10021368 -119.8125 128.8125 C-120.62332031 128.85890625 -121.43414062 128.9053125 -122.26953125 128.953125 C-133.44530465 129.31741098 -142.07783521 127.12625111 -150.7421875 119.859375 C-159.48978269 111.21080919 -163.22834108 101.28280434 -164.0625 89.1875 C-163.82387194 77.79843359 -159.50163533 68.17519047 -151.96484375 59.74609375 C-146.25113594 54.31396497 -138.81390965 49.8125 -130.8125 49.8125 C-130.85890625 49.14605469 -130.9053125 48.47960937 -130.953125 47.79296875 C-131.45029653 35.09733854 -126.24499264 23.47369634 -117.6875 14.125 C-106.67113719 3.8608558 -93.58786725 -0.00428054 -78.83203125 0.43359375 C-73.79748875 0.7613288 -69.25978283 2.29533884 -64.58203125 4.1328125 C-61.16112092 4.9723589 -59.87096491 4.47438273 -56.8125 2.8125 C-55.4569518 1.88585572 -54.12364155 0.92597781 -52.8125 -0.0625 C-36.74428657 -10.86288069 -16.25451045 -9.60087843 0 0 Z " fill="#020202" transform="translate(426.8125,64.1875)"/>
<path d="M0 0 C1.357493 0.96694909 2.69769971 1.95990782 4 3 C3.31035156 3.47308594 2.62070312 3.94617188 1.91015625 4.43359375 C-8.31183334 11.62684568 -16.12234231 18.8917662 -22 30 C-22.39058594 30.71414062 -22.78117187 31.42828125 -23.18359375 32.1640625 C-24.90322262 35.42694805 -25.98081053 37.87934289 -26.5703125 41.5859375 C-28 45 -28 45 -29.68164062 45.90258789 C-31.98428169 46.55107265 -34.27070886 47.01330547 -36.625 47.4375 C-59.44858715 52.46631581 -80.88467767 67.10843321 -93.5625 86.8984375 C-97.94695478 93.09655842 -97.94695478 93.09655842 -100 100 C-107.52239018 101.58366109 -115.16772744 102.39378778 -122.046875 98.46484375 C-127.507548 94.369339 -132.89372448 88.914222 -134 82 C-134.68511366 74.83945719 -134.48295709 68.85407428 -130 63 C-123.29427671 55.95648841 -118.11835127 52.86841869 -108.40234375 52.5390625 C-105.00591636 51.77693733 -103.95013863 50.90747941 -102 48 C-101.4910523 44.79290077 -101.54560017 41.61620857 -101.5625 38.375 C-101.31115536 27.9984543 -99.3970865 21.51705435 -92.375 13.6875 C-85.00432016 6.89545297 -77.20722073 4.16569368 -67.22265625 4.5703125 C-60.25556788 5.49925762 -54.57705527 7.80259362 -49 12 C-46.17368882 12.8360067 -46.17368882 12.8360067 -43 12 C-40.89582656 10.45189777 -39.04513967 8.74080565 -37.14453125 6.94921875 C-26.43817998 -2.78205499 -13.54521337 -6.51779574 0 0 Z " fill="#CFD1D2" transform="translate(414,76)"/>
<path d="M0 0 C8.80288754 6.34043826 15.4186507 14.72648904 17.58203125 25.4921875 C18.92007691 37.90936834 17.85729499 48.88109459 10.39453125 59.2421875 C3.58210875 67.3274193 -4.72289951 73.55522767 -15.48876953 74.71533203 C-28.40007937 75.61089799 -39.16843729 74.04490094 -49.3515625 65.46484375 C-57.86959925 57.33325857 -62.42046403 48.68416257 -62.88867188 36.85693359 C-63.04371176 24.34263074 -60.22647828 14.71931927 -51.41796875 5.4921875 C-37.63784493 -7.66275112 -16.31305228 -10.17259803 0 0 Z " fill="#FED140" transform="translate(254.41796875,437.5078125)"/>
<path d="M0 0 C8.80288754 6.34043826 15.4186507 14.72648904 17.58203125 25.4921875 C18.92007691 37.90936834 17.85729499 48.88109459 10.39453125 59.2421875 C3.58210875 67.3274193 -4.72289951 73.55522767 -15.48876953 74.71533203 C-28.40007937 75.61089799 -39.16843729 74.04490094 -49.3515625 65.46484375 C-57.86959925 57.33325857 -62.42046403 48.68416257 -62.88867188 36.85693359 C-63.04371176 24.34263074 -60.22647828 14.71931927 -51.41796875 5.4921875 C-37.63784493 -7.66275112 -16.31305228 -10.17259803 0 0 Z " fill="#FED140" transform="translate(62.41796875,5.5078125)"/>
<path d="M0 0 C2.97 0.99 5.94 1.98 9 3 C8.9071875 4.60875 8.9071875 4.60875 8.8125 6.25 C9.01387869 10.2775738 9.34615777 11.15848292 12 14 C13.95481391 15.07984148 13.95481391 15.07984148 16.19604492 15.73925781 C17.03668991 16.01924622 17.8773349 16.29923462 18.74345398 16.58770752 C19.64666885 16.87329529 20.54988373 17.15888306 21.48046875 17.453125 C22.87245232 17.91075226 22.87245232 17.91075226 24.29255676 18.37762451 C27.25355043 19.34784769 30.22025198 20.2990975 33.1875 21.25 C35.19767059 21.9050085 37.20744178 22.56124409 39.21679688 23.21875 C44.14001215 24.82676856 49.06842976 26.41779974 54 28 C51.4694826 36.74342939 48.59275074 45.36807006 45.7109375 54 C45.20186769 55.52788427 44.69288689 57.0557982 44.18399048 58.58374023 C43.1242846 61.76432286 42.06350824 64.94454583 41.00195312 68.12451172 C39.64028301 72.20378743 38.28133945 76.28396546 36.92317772 80.3644104 C35.87596212 83.50966298 34.8273238 86.65443976 33.77824783 89.79907227 C33.27623058 91.30445675 32.7746593 92.80999003 32.2735405 94.31567383 C31.57622387 96.41015456 30.8769964 98.50398756 30.17724609 100.59765625 C29.58126114 102.38441772 29.58126114 102.38441772 28.97323608 104.20727539 C28 107 28 107 27 109 C20.01004325 107.58119958 13.37309664 105.59008295 6.62109375 103.3046875 C5.56841812 102.95238068 4.51574249 102.60007385 3.4311676 102.23709106 C0.09850131 101.12064437 -3.23201282 99.99792842 -6.5625 98.875 C-8.83384464 98.11286468 -11.10532769 97.35114171 -13.37695312 96.58984375 C-18.9195785 94.73132882 -24.46045476 92.86767432 -30 91 C-29.53838809 89.25304907 -29.07275988 87.50715912 -28.60546875 85.76171875 C-28.34660889 84.78936279 -28.08774902 83.81700684 -27.82104492 82.81518555 C-26.81743804 79.3740345 -25.51411967 76.24454216 -24 73 C-23.38511719 73.10699219 -22.77023437 73.21398437 -22.13671875 73.32421875 C-21.32847656 73.44410156 -20.52023437 73.56398438 -19.6875 73.6875 C-18.88699219 73.81511719 -18.08648437 73.94273437 -17.26171875 74.07421875 C-14.92010379 74.24374852 -14.92010379 74.24374852 -13.421875 72.546875 C-12.95265625 72.03640625 -12.4834375 71.5259375 -12 71 C-5.59614301 70.18496366 -0.63440947 71.91330355 5.36328125 74.125 C8.01153334 75.15748101 8.01153334 75.15748101 11 75 C14.3 64.77 17.6 54.54 21 44 C18.03 43.34 15.06 42.68 12 42 C10.16850132 41.41019534 8.3499897 40.77463589 6.5625 40.0625 C5.73878906 39.74410156 4.91507812 39.42570312 4.06640625 39.09765625 C2 38 2 38 0 35 C-0.07905064 32.66800612 -0.08798769 30.33167378 0 28 C-2.64 27.34 -5.28 26.68 -8 26 C-6.36231563 16.99273599 -3.13020303 8.57360642 0 0 Z " fill="#CBCDCE" transform="translate(440,322)"/>
<path d="M0 0 C0.99 0.495 0.99 0.495 2 1 C1.62875 2.670625 1.62875 2.670625 1.25 4.375 C0.28117084 12.74216091 4.83991496 19.12361559 9.75 25.5 C10.94882812 27.00046875 10.94882812 27.00046875 12.171875 28.53125 C14 31 14 31 14 33 C11.75 34.75 11.75 34.75 9 36 C6.875 35.3125 6.875 35.3125 5 34 C1.78962923 31.85975282 0.87769027 31.7834016 -2.7734375 32.43457031 C-6.61902464 33.41114705 -10.31596386 34.79333985 -14.04614258 36.13696289 C-48.18494647 48.37403609 -84.27187312 48.23240028 -118.35546875 35.7734375 C-121 34 -121 34 -122.2421875 30.8203125 C-122.55542969 28.99113281 -122.55542969 28.99113281 -122.875 27.125 C-123.09929687 25.91070312 -123.32359375 24.69640625 -123.5546875 23.4453125 C-123.92646233 20.56894931 -124.09896617 17.89201134 -124 15 C-123.42894531 15.18175781 -122.85789062 15.36351562 -122.26953125 15.55078125 C-115.25687385 17.72481653 -108.18605576 19.49667399 -101 21 C-100.25782227 21.17208984 -99.51564453 21.34417969 -98.75097656 21.52148438 C-90.08047232 23.35619858 -81.44315678 23.39427897 -72.625 23.375 C-71.41627731 23.37567978 -71.41627731 23.37567978 -70.18313599 23.37637329 C-52.29693028 23.34702813 -34.87098164 21.48497245 -17.37890625 17.61328125 C-16.41670166 17.40098877 -15.45449707 17.18869629 -14.46313477 16.9699707 C-11.51035097 15.80717855 -10.5211189 14.76075973 -9 12 C-8.74936268 8.33285151 -8.74936268 8.33285151 -9 5 C-7.54735962 4.1361871 -6.0876837 3.28419546 -4.625 2.4375 C-3.81289062 1.96183594 -3.00078125 1.48617188 -2.1640625 0.99609375 C-1.44992188 0.66738281 -0.73578125 0.33867187 0 0 Z " fill="#FAAD27" transform="translate(216,370)"/>
<path d="M0 0 C3.06018045 1.37769417 5.26803281 2.99226591 7.72265625 5.26953125 C31.22960821 26.23987876 65.58946948 39.33041774 96 46 C97.134375 46.32097656 98.26875 46.64195312 99.4375 46.97265625 C112.46461456 50.19667993 125.67708048 50.26793821 139 50.125 C140.66145283 50.11493256 142.32291169 50.10581347 143.984375 50.09765625 C147.98973681 50.07598111 151.99479835 50.04166743 156 50 C155.46247494 52.30024691 154.89690381 54.58664484 154.3125 56.875 C153.99925781 58.15117187 153.68601562 59.42734375 153.36328125 60.7421875 C152 64 152 64 149.54101562 65.40698242 C110.32599157 74.558913 64.27459405 59.68517427 30.8125 39.25 C19.31219139 31.9757935 8.76131265 23.28029572 1 12 C0.41992188 11.15953125 -0.16015625 10.3190625 -0.7578125 9.453125 C-2 7 -2 7 -1.1875 3.1875 C-0.795625 2.135625 -0.40375 1.08375 0 0 Z " fill="#FAAC27" transform="translate(234,371)"/>
<path d="M0 0 C5.82485779 3.51996782 10.54466582 8.98962934 12.5625 15.5 C13.36764105 23.33608208 13.68710392 31.11922577 8.5625 37.5 C3.75801361 42.54521222 -0.59927055 46.10562995 -7.70703125 46.8359375 C-16.22326573 46.92983204 -22.11345494 46.6177288 -28.40234375 40.62890625 C-34.7841668 33.72505269 -35.91792252 28.29832071 -35.7421875 18.9453125 C-35.04689797 11.08319245 -31.38995981 6.95041296 -25.53515625 1.9453125 C-18.47077988 -2.92213491 -7.84396301 -3.47595223 0 0 Z " fill="#000000" transform="translate(59.4375,465.5)"/>
<path d="M0 0 C5.82485779 3.51996782 10.54466582 8.98962934 12.5625 15.5 C13.36764105 23.33608208 13.68710392 31.11922577 8.5625 37.5 C3.75801361 42.54521222 -0.59927055 46.10562995 -7.70703125 46.8359375 C-16.22326573 46.92983204 -22.11345494 46.6177288 -28.40234375 40.62890625 C-34.7841668 33.72505269 -35.91792252 28.29832071 -35.7421875 18.9453125 C-35.04689797 11.08319245 -31.38995981 6.95041296 -25.53515625 1.9453125 C-18.47077988 -2.92213491 -7.84396301 -3.47595223 0 0 Z " fill="#000000" transform="translate(475.4375,17.5)"/>
<path d="M0 0 C3.17710961 0.94386746 6.30698134 1.97934927 9.44067383 3.05834961 C10.51961914 3.40639648 11.59856445 3.75444336 12.71020508 4.11303711 C13.74274414 4.46108398 14.7752832 4.80913086 15.83911133 5.16772461 C16.77158691 5.48193359 17.7040625 5.79614258 18.66479492 6.11987305 C21.52064367 7.53356755 22.61749562 8.46502678 24.06567383 11.30834961 C24.90175814 17.74486356 22.73377655 23.33517488 20.70629883 29.35131836 C20.18782379 30.9203466 20.18782379 30.9203466 19.65887451 32.52107239 C18.9276192 34.7239569 18.19103646 36.92507925 17.44946289 39.12451172 C16.31774164 42.48970095 15.21027801 45.86221644 14.10473633 49.23608398 C13.39003876 51.37914564 12.67394028 53.52174072 11.95629883 55.66381836 C11.6269635 56.67115524 11.29762817 57.67849213 10.95831299 58.71635437 C10.63828308 59.6544545 10.31825317 60.59255463 9.98852539 61.55908203 C9.71316956 62.38180099 9.43781372 63.20451996 9.15411377 64.0521698 C7.84259669 66.7707565 6.38822749 68.38927096 4.06567383 70.30834961 C-3.13370482 71.30108904 -9.41324605 68.91494427 -16.18432617 66.62084961 C-17.2594043 66.28118164 -18.33448242 65.94151367 -19.44213867 65.59155273 C-29.29217071 62.30616175 -29.29217071 62.30616175 -31.93432617 57.30834961 C-32.48580302 53.37907704 -32.52744232 51.27216336 -30.43432617 47.87084961 C-26.87083267 45.64366617 -23.9547278 45.63504563 -19.93432617 46.30834961 C-16.76386824 47.24060087 -13.67145436 48.29004882 -10.57104492 49.43334961 C-7.92279283 50.46583062 -7.92279283 50.46583062 -4.93432617 50.30834961 C-1.63432617 40.07834961 1.66567383 29.84834961 5.06567383 19.30834961 C2.09567383 18.64834961 -0.87432617 17.98834961 -3.93432617 17.30834961 C-5.76582485 16.71854495 -7.58433648 16.0829855 -9.37182617 15.37084961 C-10.19553711 15.05245117 -11.01924805 14.73405273 -11.86791992 14.40600586 C-13.93432617 13.30834961 -13.93432617 13.30834961 -15.93432617 10.30834961 C-16.34900443 6.50713224 -16.46009925 4.19987788 -14.49682617 0.87084961 C-9.95611452 -1.89787701 -4.99787779 -1.1780504 0 0 Z " fill="#010101" transform="translate(455.934326171875,346.691650390625)"/>
<path d="M0 0 C1.19287411 3.87684087 2 6.91621923 2 11 C1.26885986 11.12528076 0.53771973 11.25056152 -0.21557617 11.37963867 C-3.54350689 11.96179553 -6.865158 12.57428536 -10.1875 13.1875 C-11.33798828 13.38408203 -12.48847656 13.58066406 -13.67382812 13.78320312 C-18.42599142 14.67853824 -22.21101024 15.51890868 -26.36328125 18.05078125 C-28.13858206 21.2497123 -28.14473704 21.92685802 -27.72924805 25.39160156 C-27.62239182 26.28289261 -27.51553558 27.17418365 -27.40544128 28.09248352 C-26.6786471 33.30449858 -25.84230041 38.49433386 -24.96875 43.68359375 C-24.77277222 44.86091568 -24.57679443 46.03823761 -24.37487793 47.25123596 C-23.96291181 49.72138212 -23.549354 52.1912633 -23.13427734 54.66088867 C-22.49795941 58.44965008 -21.86776793 62.23939515 -21.23828125 66.02929688 C-20.83629931 68.43495632 -20.43396798 70.84055741 -20.03125 73.24609375 C-19.84268433 74.38042343 -19.65411865 75.51475311 -19.45983887 76.68345642 C-19.28295532 77.73207352 -19.10607178 78.78069061 -18.92382812 79.86108398 C-18.6918573 81.24480446 -18.6918573 81.24480446 -18.4552002 82.65647888 C-18.02532875 85.13990827 -18.02532875 85.13990827 -17 88 C-9.64927716 89.41856055 -3.55247856 88.32742377 3.64453125 86.69140625 C7 86 7 86 11 86 C12.43668294 89.8610854 13.11185208 92.896427 13 97 C7.96521269 97.7164787 2.92981274 98.42842471 -2.10620117 99.13623047 C-3.81829 99.37750658 -5.53020677 99.62000699 -7.24194336 99.86376953 C-9.70642278 100.21450869 -12.17149322 100.56079899 -14.63671875 100.90625 C-15.39836838 101.0156189 -16.16001801 101.12498779 -16.94474792 101.2376709 C-20.66664376 101.75487188 -24.24651767 102.04768614 -28 102 C-30.45563374 91.37680922 -32.17921386 80.75279881 -33.69921875 69.96484375 C-33.94122641 68.27042542 -34.18356784 66.57605474 -34.42622375 64.88172913 C-34.92925827 61.36177116 -35.42893967 57.8413595 -35.92602539 54.32055664 C-36.56244694 49.81417572 -37.20643556 45.30891497 -37.85277081 40.8039465 C-38.35212488 37.31876323 -38.84801876 33.83309464 -39.34281349 30.34726143 C-39.5790911 28.68497776 -39.81632267 27.02282939 -40.05454063 25.36082268 C-40.38575233 23.04562677 -40.71241502 20.72983353 -41.0378418 18.41381836 C-41.13598679 17.7337825 -41.23413177 17.05374664 -41.33525085 16.35310364 C-41.81893425 12.87417213 -42.10371379 9.51255794 -42 6 C-32.58701958 4.26051083 -23.16262745 2.67741378 -13.6875 1.3125 C-12.33652222 1.11563599 -12.33652222 1.11563599 -10.95825195 0.91479492 C-10.109646 0.79467041 -9.26104004 0.6745459 -8.38671875 0.55078125 C-7.63608154 0.44419189 -6.88544434 0.33760254 -6.11206055 0.2277832 C-4 0 -4 0 0 0 Z " fill="#C8CACB" transform="translate(59,266)"/>
<path d="M0 0 C3.34903861 1.23768818 4.85279734 2.10697303 6.875 5.0625 C7.26277131 10.31921534 6.38284354 14.42645938 4.73535156 19.40307617 C4.50769104 20.09993027 4.28003052 20.79678436 4.04547119 21.51475525 C3.2960695 23.79863113 2.53151023 26.0770725 1.765625 28.35546875 C1.2365517 29.94995038 0.70805729 31.5446242 0.18011475 33.13948059 C-0.92607931 36.47285833 -2.03994216 39.80354845 -3.15917969 43.13256836 C-4.59129119 47.394577 -6.00296103 51.66303422 -7.40884018 55.93375683 C-8.49494664 59.22490072 -9.59234605 62.5121932 -10.69312286 65.79845619 C-11.21820774 67.37089453 -11.73966275 68.94454992 -12.25737762 70.51943016 C-12.9826651 72.72038087 -13.72315409 74.91563414 -14.46777344 77.11010742 C-14.88524841 78.35918381 -15.30272339 79.60826019 -15.73284912 80.89518738 C-17.14485621 84.1076753 -18.42640092 85.85714463 -21.125 88.0625 C-23.89334551 88.8465041 -26.32857793 88.70298931 -29.125 88.0625 C-31.6875 86.125 -31.6875 86.125 -33.125 83.0625 C-32.88444241 74.39328426 -29.91089721 66.41850869 -27.20703125 58.265625 C-26.70695518 56.74353933 -26.20709625 55.22138231 -25.70744324 53.69915771 C-24.66225265 50.52333508 -23.60960512 47.35009471 -22.55249023 44.17822266 C-21.20270575 40.12387528 -19.87940677 36.06140825 -18.56245899 31.99629593 C-17.540261 28.85534909 -16.50037236 25.72047027 -15.45551109 22.58699799 C-14.96002257 21.09163958 -14.47085886 19.59416927 -13.9883213 18.0945816 C-13.31119723 15.99682273 -12.60962178 13.90879266 -11.90161133 11.82128906 C-11.50935867 10.63376038 -11.11710602 9.44623169 -10.71296692 8.22271729 C-8.4040505 3.62773644 -5.45517273 0.10910345 0 0 Z " fill="#050401" transform="translate(409.125,288.9375)"/>
<path d="M0 0 C3.0182722 0.05418801 4.04925828 0.22609892 6.6875 1.875 C8.7426706 5.21465222 8.42032866 7.41652445 8.1875 11.3125 C7.30328369 14.86076355 7.30328369 14.86076355 6.04785156 18.65307617 C5.82019104 19.34993027 5.59253052 20.04678436 5.35797119 20.76475525 C4.6085695 23.04863113 3.84401023 25.3270725 3.078125 27.60546875 C2.5490517 29.19995038 2.02055729 30.7946242 1.49261475 32.38948059 C0.38642069 35.72285833 -0.72744216 39.05354845 -1.84667969 42.38256836 C-3.27879119 46.644577 -4.69046103 50.91303422 -6.09634018 55.18375683 C-7.18244664 58.47490072 -8.27984605 61.7621932 -9.38062286 65.04845619 C-9.90570774 66.62089453 -10.42716275 68.19454992 -10.94487762 69.76943016 C-11.6701651 71.97038087 -12.41065409 74.16563414 -13.15527344 76.36010742 C-13.57274841 77.60918381 -13.99022339 78.85826019 -14.42034912 80.14518738 C-15.83235621 83.3576753 -17.11390092 85.10714463 -19.8125 87.3125 C-22.58084551 88.0965041 -25.01607793 87.95298931 -27.8125 87.3125 C-30.375 85.375 -30.375 85.375 -31.8125 82.3125 C-31.55962797 73.85643714 -28.71662673 66.14950706 -26.04296875 58.20703125 C-25.56021028 56.7547062 -25.07798593 55.3022035 -24.5962677 53.84953308 C-23.58913617 50.81933537 -22.57559121 47.79138225 -21.55737305 44.76489258 C-20.25732353 40.89897998 -18.97355836 37.02788856 -17.69454479 33.15497303 C-16.70331617 30.15954127 -15.70348306 27.16703618 -14.7010746 24.17532921 C-14.22442248 22.74935458 -13.75040844 21.32249515 -13.27916527 19.89472389 C-12.61823457 17.89658079 -11.94576791 15.90267977 -11.27026367 13.90942383 C-10.89133469 12.77741043 -10.5124057 11.64539703 -10.12199402 10.4790802 C-5.99161403 0.4911159 -5.99161403 0.4911159 0 0 Z " fill="#040301" transform="translate(303.8125,249.6875)"/>
<path d="M0 0 C3.96723761 0.74385705 5.38266628 1.43624028 8 4.5625 C8.59529114 6.77018738 8.59529114 6.77018738 9.03051758 9.41088867 C9.27495102 10.88868301 9.27495102 10.88868301 9.52432251 12.39633179 C10.33837117 17.81474036 11.07157218 23.24026678 11.76171875 28.67578125 C11.99408989 30.49555733 11.99408989 30.49555733 12.2311554 32.35209656 C12.55463477 34.89735903 12.87640346 37.44283945 13.1965332 39.98852539 C13.68840214 43.88214133 14.19272551 47.77402402 14.69726562 51.66601562 C15.01118467 54.1483405 15.32436173 56.63075934 15.63671875 59.11328125 C15.8647242 60.85246574 15.8647242 60.85246574 16.09733582 62.62678528 C16.29798393 64.25459175 16.29798393 64.25459175 16.50268555 65.9152832 C16.623228 66.86361526 16.74377045 67.81194733 16.8679657 68.78901672 C17.08374339 73.32159509 16.90296936 76.52674102 13.875 80 C11 81.5625 11 81.5625 7.4375 81.625 C3.28732063 80.34221729 2.35840693 79.14377169 0 75.5625 C-0.784729 72.61660767 -0.784729 72.61660767 -1.18847656 69.32275391 C-1.34834045 68.08441803 -1.50820435 66.84608215 -1.6729126 65.57022095 C-1.82929298 64.22655681 -1.98518512 62.88283577 -2.140625 61.5390625 C-2.31294467 60.15033743 -2.48661161 58.76177893 -2.66156006 57.37338257 C-3.02432057 54.46781889 -3.37634756 51.56123733 -3.71972656 48.65332031 C-4.15819505 44.94066256 -4.61460518 41.23051507 -5.07803726 37.52089882 C-5.5215747 33.96518569 -5.95660072 30.40844742 -6.390625 26.8515625 C-6.47314766 26.18019886 -6.55567032 25.50883522 -6.64069366 24.81712723 C-6.87478048 22.89898775 -7.10206339 20.9800217 -7.32910156 19.06103516 C-7.45915588 17.97247223 -7.58921021 16.8839093 -7.72320557 15.76235962 C-8.54084241 6.3101351 -8.54084241 6.3101351 -5.875 2.625 C-3 0.5625 -3 0.5625 0 0 Z " fill="#010000" transform="translate(232,192.4375)"/>
<path d="M0 0 C3.36361278 1.24307429 4.65306493 2.25243076 6.875 5.0625 C7.53090028 7.69202179 7.9571923 10.03413281 8.25390625 12.703125 C8.35125061 13.45436646 8.44859497 14.20560791 8.54888916 14.97961426 C8.86144343 17.42217033 9.14979159 19.86690401 9.4375 22.3125 C9.64720819 23.99399952 9.858397 25.67531503 10.07104492 27.35644531 C10.49184725 30.70274785 10.90328645 34.04998815 11.30664062 37.3984375 C11.79596955 41.44663468 12.31942329 45.48945377 12.859375 49.53125 C13.13571109 51.62496116 13.41177778 53.71870791 13.6875 55.8125 C13.81133057 56.73708008 13.93516113 57.66166016 14.06274414 58.61425781 C15.88458095 73.00127223 15.88458095 73.00127223 13.375 78.125 C10.35511564 80.46541038 8.59564723 80.65389361 4.875 80.7265625 C1.76958477 79.6954676 0.69603852 77.72358142 -1.125 75.0625 C-1.909729 72.11660767 -1.909729 72.11660767 -2.31347656 68.82275391 C-2.47334045 67.58441803 -2.63320435 66.34608215 -2.7979126 65.07022095 C-2.95429298 63.72655681 -3.11018512 62.38283577 -3.265625 61.0390625 C-3.43794467 59.65033743 -3.61161161 58.26177893 -3.78656006 56.87338257 C-4.14932057 53.96781889 -4.50134756 51.06123733 -4.84472656 48.15332031 C-5.28319505 44.44066256 -5.73960518 40.73051507 -6.20303726 37.02089882 C-6.6465747 33.46518569 -7.08160072 29.90844742 -7.515625 26.3515625 C-7.59814766 25.68019886 -7.68067032 25.00883522 -7.76569366 24.31712723 C-7.99978048 22.39898775 -8.22706339 20.4800217 -8.45410156 18.56103516 C-8.58415588 17.47247223 -8.71421021 16.3839093 -8.84820557 15.26235962 C-9.14678138 11.81069809 -9.34228038 8.5236316 -9.125 5.0625 C-6.17069028 1.68614603 -4.55909952 0.09118199 0 0 Z " fill="#040401" transform="translate(145.125,256.9375)"/>
<path d="M0 0 C3.36361278 1.24307429 4.65306493 2.25243076 6.875 5.0625 C7.53090028 7.69202179 7.9571923 10.03413281 8.25390625 12.703125 C8.35125061 13.45436646 8.44859497 14.20560791 8.54888916 14.97961426 C8.86144343 17.42217033 9.14979159 19.86690401 9.4375 22.3125 C9.64720819 23.99399952 9.858397 25.67531503 10.07104492 27.35644531 C10.49184725 30.70274785 10.90328645 34.04998815 11.30664062 37.3984375 C11.79596955 41.44663468 12.31942329 45.48945377 12.859375 49.53125 C13.13571109 51.62496116 13.41177778 53.71870791 13.6875 55.8125 C13.81133057 56.73708008 13.93516113 57.66166016 14.06274414 58.61425781 C15.88458095 73.00127223 15.88458095 73.00127223 13.375 78.125 C10.35511564 80.46541038 8.59564723 80.65389361 4.875 80.7265625 C1.76958477 79.6954676 0.69603852 77.72358142 -1.125 75.0625 C-1.909729 72.11660767 -1.909729 72.11660767 -2.31347656 68.82275391 C-2.47334045 67.58441803 -2.63320435 66.34608215 -2.7979126 65.07022095 C-2.95429298 63.72655681 -3.11018512 62.38283577 -3.265625 61.0390625 C-3.43794467 59.65033743 -3.61161161 58.26177893 -3.78656006 56.87338257 C-4.14932057 53.96781889 -4.50134756 51.06123733 -4.84472656 48.15332031 C-5.28319505 44.44066256 -5.73960518 40.73051507 -6.20303726 37.02089882 C-6.6465747 33.46518569 -7.08160072 29.90844742 -7.515625 26.3515625 C-7.59814766 25.68019886 -7.68067032 25.00883522 -7.76569366 24.31712723 C-7.99978048 22.39898775 -8.22706339 20.4800217 -8.45410156 18.56103516 C-8.58415588 17.47247223 -8.71421021 16.3839093 -8.84820557 15.26235962 C-9.14678138 11.81069809 -9.34228038 8.5236316 -9.125 5.0625 C-6.17069028 1.68614603 -4.55909952 0.09118199 0 0 Z " fill="#040401" transform="translate(193.125,232.9375)"/>
<path d="M0 0 C2.16796875 0.41015625 2.16796875 0.41015625 4.79296875 2.47265625 C7.70640253 8.69681024 4.21689533 15.82963186 2.11328125 21.9921875 C1.81106659 22.88757736 1.50885193 23.78296722 1.19747925 24.70549011 C0.5601452 26.58656677 -0.0804466 28.46654248 -0.72412109 30.34545898 C-1.70850726 33.22697686 -2.67498537 36.11410703 -3.640625 39.00195312 C-4.26324401 40.83239859 -4.88690559 42.66248984 -5.51171875 44.4921875 C-5.79933075 45.3567305 -6.08694275 46.2212735 -6.38327026 47.11201477 C-6.79852463 48.30917366 -6.79852463 48.30917366 -7.22216797 49.53051758 C-7.46119843 50.23332352 -7.70022888 50.93612946 -7.94650269 51.66023254 C-8.83203125 53.41015625 -8.83203125 53.41015625 -11.83203125 55.41015625 C-14.84724004 55.74517945 -16.93176883 55.97620344 -19.83203125 55.41015625 C-22.66972549 52.99811615 -23.71099849 51.53509268 -24.1105957 47.82104492 C-23.73711389 43.24793853 -22.37177226 39.27970707 -20.875 34.9609375 C-20.57137039 34.06650436 -20.26774078 33.17207123 -19.95491028 32.25053406 C-19.31289936 30.36722459 -18.66629294 28.4854762 -18.01538086 26.60522461 C-17.02078375 23.72628172 -16.04562474 20.84126105 -15.07226562 17.95507812 C-14.4451648 16.12330231 -13.81694757 14.29190823 -13.1875 12.4609375 C-12.89675095 11.59841873 -12.60600189 10.73589996 -12.30644226 9.84724426 C-11.88634636 8.64535713 -11.88634636 8.64535713 -11.45776367 7.41918945 C-11.21571701 6.71558792 -10.97367035 6.01198639 -10.72428894 5.2870636 C-8.30172794 0.19108898 -5.26493248 -0.19754233 0 0 Z " fill="#040301" transform="translate(343.83203125,313.58984375)"/>
<path d="M0 0 C3.38677089 2.45000447 4.78698584 3.86392446 5.5625 8 C4.85348631 11.78140634 3.633873 13.19930792 1 16 C-1.36708479 17.4765072 -3.62406956 18.75678069 -6.109375 19.98828125 C-6.79501526 20.33634323 -7.48065552 20.68440521 -8.18707275 21.04301453 C-9.63308312 21.77241662 -11.08219895 22.49569115 -12.53417969 23.21313477 C-14.73946075 24.30727102 -16.92816346 25.43040005 -19.1171875 26.55664062 C-20.53034407 27.26483146 -21.94438021 27.97127043 -23.359375 28.67578125 C-24.00549744 29.01007645 -24.65161987 29.34437164 -25.31732178 29.688797 C-30.08897578 32.00324918 -33.69762001 32.43459247 -39 32 C-41.5 30.5 -41.5 30.5 -43 28 C-43.54686219 25.22011721 -43.72991469 22.74791413 -43 20 C-39.87315978 16.29147801 -36.12621107 14.24901536 -31.85546875 12.109375 C-31.16745682 11.75989807 -30.47944489 11.41042114 -29.77058411 11.050354 C-28.31943301 10.31687306 -26.8661493 9.58759794 -25.41088867 8.86230469 C-23.19711952 7.7548124 -20.9961324 6.62439321 -18.79492188 5.4921875 C-17.37832368 4.7798174 -15.96102748 4.06883328 -14.54296875 3.359375 C-13.89168503 3.02194275 -13.24040131 2.6845105 -12.56938171 2.33685303 C-8.21388941 0.2020978 -4.82864443 -0.51527071 0 0 Z " fill="#000000" transform="translate(323,40)"/>
<path d="M0 0 C2.82051887 0.95119954 5.40965135 2.24831346 8.05078125 3.61328125 C8.7907988 3.98349899 9.53081635 4.35371674 10.29325867 4.7351532 C11.8470691 5.51623017 13.39747874 6.30410565 14.94458008 7.09838867 C17.31488337 8.31372203 19.69617418 9.504964 22.08007812 10.69335938 C23.5918481 11.45694456 25.10294081 12.22187241 26.61328125 12.98828125 C27.32470779 13.34465164 28.03613434 13.70102203 28.76911926 14.06819153 C32.09349825 15.78669603 33.88522717 16.82784076 36 20 C36.65753425 26.90410959 36.65753425 26.90410959 34.5 30.5 C31.04500719 32.57299569 27.8956273 32.46097781 24 32 C21.29974309 31.16656671 18.8653915 29.97236102 16.359375 28.67578125 C15.66990784 28.3325029 14.98044067 27.98922455 14.27008057 27.63554382 C12.82427111 26.91098928 11.38237243 26.1785824 9.94433594 25.4387207 C7.75165144 24.31334758 5.5455075 23.218732 3.3359375 22.12695312 C1.9261851 21.41584041 0.51729902 20.70300711 -0.890625 19.98828125 C-1.54484436 19.66410721 -2.19906372 19.33993317 -2.87310791 19.00593567 C-6.89528363 16.91182971 -9.51717719 14.80539463 -12 11 C-12.5625 8 -12.5625 8 -12 5 C-8.41547396 0.00338794 -5.97074519 -0.56062798 0 0 Z " fill="#000000" transform="translate(196,40)"/>
<path d="M0 0 C0.66 -0.0103125 1.32 -0.020625 2 -0.03125 C5.05368756 0.77988576 6.09111769 1.96980288 8 4.5 C8.60114553 7.49736221 8.56057764 10.45109277 8.53125 13.5 C8.5350769 14.37269531 8.53890381 15.24539063 8.54284668 16.14453125 C8.5455649 17.98699092 8.53820994 19.82948924 8.52148438 21.671875 C8.50007248 24.49045934 8.52128801 27.30649485 8.546875 30.125 C8.54423171 31.91667229 8.53910669 33.70834299 8.53125 35.5 C8.53934692 36.34175781 8.54744385 37.18351562 8.55578613 38.05078125 C8.46235399 43.88715618 8.46235399 43.88715618 6.09179688 47.02929688 C3.8272647 48.62144695 2.7390083 49.042797 0 49 C-0.99 49.01546875 -0.99 49.01546875 -2 49.03125 C-5.05368756 48.22011424 -6.09111769 47.03019712 -8 44.5 C-8.60114553 41.50263779 -8.56057764 38.54890723 -8.53125 35.5 C-8.5350769 34.62730469 -8.53890381 33.75460938 -8.54284668 32.85546875 C-8.5455649 31.01300908 -8.53820994 29.17051076 -8.52148438 27.328125 C-8.50007248 24.50954066 -8.52128801 21.69350515 -8.546875 18.875 C-8.54423171 17.08332771 -8.53910669 15.29165701 -8.53125 13.5 C-8.53934692 12.65824219 -8.54744385 11.81648437 -8.55578613 10.94921875 C-8.46235399 5.11284382 -8.46235399 5.11284382 -6.09179688 1.97070312 C-3.8272647 0.37855305 -2.7390083 -0.042797 0 0 Z " fill="#000000" transform="translate(256,-0.5)"/>
<path d="M0 0 C4.18421805 0.87171209 5.42961969 2.20639419 8 5.625 C8.68745025 9.14220473 8.60807733 12.55353546 8.5 16.125 C8.50386719 17.53072266 8.50386719 17.53072266 8.5078125 18.96484375 C8.43739363 23.92937377 8.31960315 27.65449427 5 31.625 C2.19084526 33.02957737 0.11189466 32.87395157 -3 32.625 C-6.1359157 30.84515595 -6.84102736 30.10191793 -8 26.625 C-8.3042547 23.17190178 -8.3234943 19.71492872 -8.375 16.25 C-8.41238281 15.30382812 -8.44976562 14.35765625 -8.48828125 13.3828125 C-8.54802825 8.65616069 -8.56587514 6.38202359 -5.6640625 2.5 C-3 0.625 -3 0.625 0 0 Z " fill="#040301" transform="translate(232,479.375)"/>
<path d="M0 0 C0.93714844 -0.00257813 1.87429688 -0.00515625 2.83984375 -0.0078125 C7.80437377 0.06260637 11.52949427 0.18039685 15.5 3.5 C16.90457737 6.30915474 16.74895157 8.38810534 16.5 11.5 C14.72015595 14.6359157 13.97691793 15.34102736 10.5 16.5 C7.04690178 16.8042547 3.58992872 16.8234943 0.125 16.875 C-0.82117188 16.91238281 -1.76734375 16.94976562 -2.7421875 16.98828125 C-7.46883931 17.04802825 -9.74297641 17.06587514 -13.625 14.1640625 C-15.5 11.5 -15.5 11.5 -16.125 8.5 C-14.28929376 -0.31138993 -7.47902301 -0.22632532 0 0 Z " fill="#040301" transform="translate(255.5,463.5)"/>
<path d="M0 0 C0.93714844 -0.00257813 1.87429687 -0.00515625 2.83984375 -0.0078125 C7.80437377 0.06260637 11.52949427 0.18039685 15.5 3.5 C16.90457737 6.30915474 16.74895157 8.38810534 16.5 11.5 C14.72015595 14.6359157 13.97691793 15.34102736 10.5 16.5 C7.04690178 16.8042547 3.58992872 16.8234943 0.125 16.875 C-0.82117188 16.91238281 -1.76734375 16.94976562 -2.7421875 16.98828125 C-7.46883931 17.04802825 -9.74297641 17.06587514 -13.625 14.1640625 C-15.5 11.5 -15.5 11.5 -16.125 8.5 C-14.28929376 -0.31138993 -7.47902301 -0.22632532 0 0 Z " fill="#040301" transform="translate(207.5,463.5)"/>
<path d="M0 0 C4.18421805 0.87171209 5.42961969 2.20639419 8 5.625 C8.68745025 9.14220473 8.60807733 12.55353546 8.5 16.125 C8.50386719 17.53072266 8.50386719 17.53072266 8.5078125 18.96484375 C8.43739363 23.92937377 8.31960315 27.65449427 5 31.625 C2.19084526 33.02957737 0.11189466 32.87395157 -3 32.625 C-6.1359157 30.84515595 -6.84102736 30.10191793 -8 26.625 C-8.3042547 23.17190178 -8.3234943 19.71492872 -8.375 16.25 C-8.41238281 15.30382812 -8.44976562 14.35765625 -8.48828125 13.3828125 C-8.54802825 8.65616069 -8.56587514 6.38202359 -5.6640625 2.5 C-3 0.625 -3 0.625 0 0 Z " fill="#040301" transform="translate(232,431.375)"/>
<path d="M0 0 C4.18421805 0.87171209 5.42961969 2.20639419 8 5.625 C8.68745025 9.14220473 8.60807733 12.55353546 8.5 16.125 C8.50386719 17.53072266 8.50386719 17.53072266 8.5078125 18.96484375 C8.43739363 23.92937377 8.31960315 27.65449427 5 31.625 C2.19084526 33.02957737 0.11189466 32.87395157 -3 32.625 C-6.1359157 30.84515595 -6.84102736 30.10191793 -8 26.625 C-8.3042547 23.17190178 -8.3234943 19.71492872 -8.375 16.25 C-8.41238281 15.30382813 -8.44976563 14.35765625 -8.48828125 13.3828125 C-8.54802825 8.65616069 -8.56587514 6.38202359 -5.6640625 2.5 C-3 0.625 -3 0.625 0 0 Z " fill="#040301" transform="translate(40,47.375)"/>
<path d="M0 0 C0.93714844 -0.00257812 1.87429687 -0.00515625 2.83984375 -0.0078125 C7.80437377 0.06260637 11.52949427 0.18039685 15.5 3.5 C16.90457737 6.30915474 16.74895157 8.38810534 16.5 11.5 C14.72015595 14.6359157 13.97691793 15.34102736 10.5 16.5 C7.04690178 16.8042547 3.58992872 16.8234943 0.125 16.875 C-0.82117187 16.91238281 -1.76734375 16.94976562 -2.7421875 16.98828125 C-7.46883931 17.04802825 -9.74297641 17.06587514 -13.625 14.1640625 C-15.5 11.5 -15.5 11.5 -16.125 8.5 C-14.28929376 -0.31138993 -7.47902301 -0.22632532 0 0 Z " fill="#040301" transform="translate(63.5,31.5)"/>
<path d="M0 0 C0.93714844 -0.00257812 1.87429687 -0.00515625 2.83984375 -0.0078125 C7.80437377 0.06260637 11.52949427 0.18039685 15.5 3.5 C16.90457737 6.30915474 16.74895157 8.38810534 16.5 11.5 C14.72015595 14.6359157 13.97691793 15.34102736 10.5 16.5 C7.04690178 16.8042547 3.58992872 16.8234943 0.125 16.875 C-0.82117187 16.91238281 -1.76734375 16.94976562 -2.7421875 16.98828125 C-7.46883931 17.04802825 -9.74297641 17.06587514 -13.625 14.1640625 C-15.5 11.5 -15.5 11.5 -16.125 8.5 C-14.28929376 -0.31138993 -7.47902301 -0.22632532 0 0 Z " fill="#040301" transform="translate(15.5,31.5)"/>
<path d="M0 0 C4.18421805 0.87171209 5.42961969 2.20639419 8 5.625 C8.68745025 9.14220473 8.60807733 12.55353546 8.5 16.125 C8.50386719 17.53072266 8.50386719 17.53072266 8.5078125 18.96484375 C8.43739363 23.92937377 8.31960315 27.65449427 5 31.625 C2.19084526 33.02957737 0.11189466 32.87395157 -3 32.625 C-6.1359157 30.84515595 -6.84102736 30.10191793 -8 26.625 C-8.3042547 23.17190178 -8.3234943 19.71492872 -8.375 16.25 C-8.41238281 15.30382813 -8.44976563 14.35765625 -8.48828125 13.3828125 C-8.54802825 8.65616069 -8.56587514 6.38202359 -5.6640625 2.5 C-3 0.625 -3 0.625 0 0 Z " fill="#040301" transform="translate(40,-0.625)"/>
<path d="M0 0 C5.28 0 10.56 0 16 0 C16 5.28 16 10.56 16 16 C10.72 16 5.44 16 0 16 C0 10.72 0 5.44 0 0 Z " fill="#000000" transform="translate(280,24)"/>
<path d="M0 0 C5.28 0 10.56 0 16 0 C16 5.28 16 10.56 16 16 C10.72 16 5.44 16 0 16 C0 10.72 0 5.44 0 0 Z " fill="#000000" transform="translate(216,24)"/>
<path d="M0 0 C4.0743356 0.84881992 5.54405875 2.30225596 8 5.625 C8.625 8.625 8.625 8.625 8 11.625 C5.54405875 14.94774404 4.0743356 16.40118008 0 17.25 C-4.0743356 16.40118008 -5.54405875 14.94774404 -8 11.625 C-8.625 8.625 -8.625 8.625 -8 5.625 C-5.54405875 2.30225596 -4.0743356 0.84881992 0 0 Z " fill="#E6E7E7" transform="translate(464,31.375)"/>
<path d="M0 0 C2.66589042 0.54323805 3.75768995 0.96351964 5.875 2.75 C7.21538506 5.84964046 7.42167869 7.71409302 6.875 11.0625 C4.41905875 14.38524404 2.9493356 15.83868008 -1.125 16.6875 C-5.1993356 15.83868008 -6.66905875 14.38524404 -9.125 11.0625 C-9.75 8.0625 -9.75 8.0625 -9.125 5.0625 C-6.50620524 1.2161452 -4.62486834 -0.35838463 0 0 Z " fill="#E6E7E7" transform="translate(49.125,479.9375)"/>
</svg>
