<?xml version="1.0" encoding="UTF-8"?>
<svg version="1.1" xmlns="http://www.w3.org/2000/svg" width="512" height="512">
<path d="M0 0 C1.12669133 -0.00538554 2.25338267 -0.01077108 3.41421616 -0.01631981 C7.18577092 -0.03061571 10.95697551 -0.02349137 14.72854614 -0.01637268 C17.43416249 -0.02043233 20.139761 -0.02893877 22.84536743 -0.03717041 C29.42948129 -0.05435037 36.01349968 -0.05520005 42.59763013 -0.04995751 C47.95065694 -0.04591283 53.30365559 -0.04736289 58.65668106 -0.05270576 C59.80036021 -0.0538284 59.80036021 -0.0538284 60.96714399 -0.05497371 C62.51617368 -0.05650522 64.06520336 -0.05804357 65.61423303 -0.05958868 C80.13499323 -0.07331098 94.65569953 -0.06787808 109.17645849 -0.05640347 C122.45223236 -0.04647283 135.72786682 -0.05940927 149.00361918 -0.08333766 C162.64427844 -0.10773798 176.2848728 -0.11733415 189.92555344 -0.11068493 C197.58009846 -0.10719459 205.2345363 -0.10941243 212.88906479 -0.12693596 C219.40567043 -0.14166969 225.92209343 -0.14227826 232.43869554 -0.12486505 C235.76148574 -0.1163617 239.08368246 -0.11636262 242.40649796 -0.1295166 C246.01381903 -0.14270574 249.62025593 -0.13119572 253.22753906 -0.11352539 C254.79190604 -0.1279329 254.79190604 -0.1279329 256.38787639 -0.14263147 C264.53287037 -0.06064612 270.26757917 2.04996678 276.99075317 6.57518005 C283.75983061 13.49810016 285.86213392 20.56516993 285.87218094 30.0841713 C285.87423357 30.74739826 285.87628621 31.41062522 285.87840104 32.09394997 C285.88406305 34.32007287 285.88261478 36.54613375 285.88119507 38.77226257 C285.88377916 40.38296128 285.88679244 41.99365935 285.89019847 43.60435653 C285.89826649 48.03370284 285.90005793 52.46303294 285.90079594 56.89238572 C285.90264682 61.6682518 285.9101943 66.44410948 285.91693115 71.2199707 C285.93051326 81.66415955 285.93653891 92.10834457 285.94094181 102.55254078 C285.94370425 109.07328943 285.94794159 115.59403659 285.95244598 122.11478424 C285.96463813 140.16726717 285.97493779 158.21974891 285.97832108 176.27223587 C285.97854064 177.42763221 285.97876021 178.58302854 285.97898643 179.77343689 C285.9792047 180.93160192 285.97942298 182.08976695 285.97964787 183.28302789 C285.98009134 185.62992366 285.9805379 187.97681944 285.98098755 190.32371521 C285.98120898 191.48785728 285.98143041 192.65199936 285.98165855 193.85141847 C285.98560715 212.71759581 286.00306332 231.58373454 286.02634707 250.44989696 C286.05005672 269.81738279 286.06252274 289.18484923 286.06368899 308.55234981 C286.06460593 319.4273646 286.07036309 330.30232908 286.08850861 341.17733002 C286.1039043 350.43694585 286.10903315 359.69649581 286.1007705 368.95612201 C286.09686223 373.68024298 286.09780232 378.40423128 286.11182785 383.12833595 C286.12455585 387.45497379 286.12337892 391.78137911 286.11123714 396.10801658 C286.10927825 397.67127619 286.11236747 399.23455222 286.1210815 400.79778877 C286.18364392 412.78202345 285.40925206 421.49302101 276.93215942 430.4384613 C271.46205517 435.30402641 265.29855052 437.50603104 258.02857018 437.52190113 C256.60464897 437.5285879 256.60464897 437.5285879 255.15196168 437.53540975 C254.11209631 437.53522539 253.07223094 437.53504102 252.00085449 437.53485107 C250.34022207 437.54036611 250.34022207 437.54036611 248.64604151 437.54599255 C244.92288736 437.55703752 241.19976111 437.56087463 237.47659302 437.56468201 C234.81245762 437.57094604 232.14832521 437.57757999 229.48419189 437.58459473 C221.47981323 437.6043455 213.47543332 437.61442368 205.47103637 437.62332252 C201.69973127 437.62770778 197.92842756 437.63307398 194.15712357 437.63831139 C181.61713897 437.65532244 169.07715524 437.66981597 156.53716087 437.67706013 C153.28389866 437.67896996 150.03063645 437.6808903 146.77737427 437.68284607 C145.96881216 437.68332981 145.16025005 437.68381355 144.32718606 437.68431195 C131.23296964 437.69260986 118.13884464 437.71794328 105.04466812 437.75042675 C91.59508378 437.78351932 78.14554586 437.80151088 64.69592059 437.80470437 C57.14691728 437.80686745 49.59804729 437.81558651 42.04908371 437.84116554 C35.61918841 437.86290265 29.18945882 437.87090824 22.75953095 437.86119876 C19.4812348 437.85666264 16.20335069 437.86069454 12.92508698 437.87796021 C9.3639555 437.89566395 5.80368601 437.88857922 2.24255371 437.87542725 C0.70283215 437.89188112 0.70283215 437.89188112 -0.8679949 437.90866739 C-9.84750539 437.82881451 -18.0388675 435.4624137 -24.72409058 429.2197113 C-31.10043414 421.61028349 -32.38199862 413.23293206 -32.38788128 403.55441475 C-32.38963432 402.90069871 -32.39138735 402.24698268 -32.39319351 401.57345706 C-32.39783058 399.39172836 -32.39539397 397.21006698 -32.39295959 395.02833557 C-32.39482872 393.44478453 -32.39712983 391.86123395 -32.39982492 390.27768409 C-32.40593668 385.93266544 -32.40581006 381.58766604 -32.40463054 377.24264407 C-32.40442638 372.55406826 -32.40994673 367.8654986 -32.41468811 363.17692566 C-32.42299155 353.99398256 -32.4257428 344.81104588 -32.42630049 335.62809934 C-32.42677575 328.16409711 -32.42883098 320.70009699 -32.43200111 313.23609543 C-32.44080646 292.07343146 -32.44542062 270.91077255 -32.44467064 249.74810673 C-32.44463068 248.60742276 -32.44459073 247.4667388 -32.44454956 246.29148865 C-32.44450868 245.14941188 -32.4444678 244.00733511 -32.44442568 242.83064996 C-32.44401913 224.31703456 -32.45359123 205.8034395 -32.46768793 187.28982998 C-32.48204874 168.27936485 -32.48895829 149.26890964 -32.48809415 130.25843894 C-32.4877621 119.58579326 -32.49051265 108.9131689 -32.5012722 98.24052811 C-32.51037326 89.15480935 -32.51255565 80.06912158 -32.50576278 70.98340024 C-32.50249573 66.34840505 -32.50244761 61.71346932 -32.51111603 57.07847977 C-32.51897361 52.83338153 -32.51755717 48.58838998 -32.5088319 44.34329437 C-32.50729529 42.80970577 -32.50911912 41.27610924 -32.51469197 39.74253 C-32.55559322 27.68606119 -32.33098375 16.84760301 -23.62252808 7.66111755 C-16.28590842 0.96748254 -9.6505089 -0.05537665 0 0 Z " fill="#C9B3EE" transform="translate(126.25924682617188,68.61231994628906)"/>
<path d="M0 0 C7.53707979 -0.09309011 15.0740992 -0.16396136 22.61162472 -0.20724869 C26.11246632 -0.2280352 29.61291173 -0.25618599 33.11352539 -0.30175781 C37.14733466 -0.35393628 41.18073428 -0.37301886 45.21484375 -0.390625 C46.45894516 -0.41127014 47.70304657 -0.43191528 48.98484802 -0.45318604 C57.94953629 -0.45548027 63.85430295 1.20962698 71.25 6.1875 C78.01907743 13.1104201 80.12138074 20.17748988 80.13142776 29.69649124 C80.1334804 30.35971821 80.13553303 31.02294517 80.13764787 31.70626992 C80.14330988 33.93239282 80.14186161 36.15845369 80.14044189 38.38458252 C80.14302598 39.99528123 80.14603927 41.60597929 80.1494453 43.21667647 C80.15751331 47.64602278 80.15930476 52.07535288 80.16004276 56.50470567 C80.16189364 61.28057175 80.16944113 66.05642943 80.17617798 70.83229065 C80.18976008 81.2764795 80.19578573 91.72066451 80.20018864 102.16486073 C80.20295108 108.68560937 80.20718842 115.20635654 80.21169281 121.72710419 C80.22388496 139.77958712 80.23418461 157.83206886 80.2375679 175.88455582 C80.23778747 177.03995215 80.23800703 178.19534849 80.23823325 179.38575684 C80.23845153 180.54392186 80.23866981 181.70208689 80.2388947 182.89534783 C80.23933817 185.24224361 80.23978473 187.58913938 80.24023438 189.93603516 C80.2404558 191.10017723 80.24067723 192.2643193 80.24090537 193.46373841 C80.24485398 212.32991575 80.26231015 231.19605448 80.2855939 250.06221691 C80.30930354 269.42970273 80.32176956 288.79716918 80.32293582 308.16466975 C80.32385276 319.03968455 80.32960992 329.91464902 80.34775543 340.78964996 C80.36315113 350.0492658 80.36827998 359.30881576 80.36001733 368.56844196 C80.35610906 373.29256293 80.35704915 378.01655123 80.37107468 382.7406559 C80.38380268 387.06729374 80.38262575 391.39369906 80.37048396 395.72033653 C80.36852507 397.28359614 80.37161429 398.84687216 80.38032833 400.41010872 C80.44289075 412.3943434 79.66849888 421.10534096 71.19140625 430.05078125 C65.72130199 434.91634635 59.55779735 437.11835099 52.287817 437.13422108 C50.8638958 437.14090784 50.8638958 437.14090784 49.41120851 437.14772969 C48.37134314 437.14754533 47.33147776 437.14736097 46.26010132 437.14717102 C44.59946889 437.15268605 44.59946889 437.15268605 42.90528834 437.1583125 C39.18213419 437.16935747 35.45900794 437.17319458 31.73583984 437.17700195 C29.07170445 437.18326598 26.40757203 437.18989993 23.74343872 437.19691467 C15.73906005 437.21666545 7.73468014 437.22674363 -0.2697168 437.23564246 C-4.0410219 437.24002772 -7.81232561 437.24539392 -11.58362961 437.25063133 C-24.12361421 437.26764239 -36.66359794 437.28213591 -49.2035923 437.28938007 C-52.45685451 437.2912899 -55.71011672 437.29321025 -58.96337891 437.29516602 C-59.77194101 437.29564976 -60.58050312 437.2961335 -61.41356711 437.2966319 C-74.50778353 437.30492981 -87.60190854 437.33026323 -100.69608505 437.36274669 C-114.1456694 437.39583927 -127.59520732 437.41383083 -141.04483259 437.41702431 C-148.5938359 437.4191874 -156.14270589 437.42790645 -163.69166946 437.45348549 C-170.12156476 437.47522259 -176.55129435 437.48322819 -182.98122223 437.47351871 C-186.25951837 437.46898258 -189.53740249 437.47301449 -192.8156662 437.49028015 C-196.37679767 437.5079839 -199.93706716 437.50089916 -203.49819946 437.48774719 C-205.03792103 437.50420106 -205.03792103 437.50420106 -206.60874808 437.52098733 C-215.5679696 437.44131488 -223.85861902 435.09851119 -230.47773743 428.78720093 C-237.56291483 420.46890168 -237.67921057 411.55799594 -237.48828125 401.1484375 C-237.47893612 399.63816508 -237.47182806 398.12787733 -237.46684265 396.61758423 C-237.4479059 392.67499694 -237.39892456 388.73335557 -237.34332275 384.7911377 C-237.29183896 380.75541982 -237.26926698 376.71954655 -237.24414062 372.68359375 C-237.19078906 364.78863221 -237.10564305 356.89443433 -237 349 C-235 351 -235 351 -233.8125 353.75 C-230.63855751 359.44120722 -226.14716944 362.91081534 -220 365 C-216.90885838 365.36245813 -216.90885838 365.36245813 -213.60546875 365.4140625 C-212.40341797 365.45273437 -211.20136719 365.49140625 -209.96289062 365.53125 C-208.71701172 365.5621875 -207.47113281 365.593125 -206.1875 365.625 C-204.92228516 365.66367187 -203.65707031 365.70234375 -202.35351562 365.7421875 C-199.23582149 365.83630657 -196.11813086 365.92194361 -193 366 C-193.02618408 365.26885986 -193.05236816 364.53771973 -193.0793457 363.78442383 C-193.18350144 360.46066918 -193.24838621 357.13725806 -193.3125 353.8125 C-193.35439453 352.66201172 -193.39628906 351.51152344 -193.43945312 350.32617188 C-193.45556641 349.21435547 -193.47167969 348.10253906 -193.48828125 346.95703125 C-193.51446533 345.93585205 -193.54064941 344.91467285 -193.56762695 343.86254883 C-192.73990209 339.68832346 -191.51857782 338.40573789 -188 336 C-184.24769301 335.26921134 -180.56331487 335.29925697 -176.75 335.3359375 C-175.65913086 335.33115387 -174.56826172 335.32637024 -173.44433594 335.32144165 C-171.14126135 335.31804387 -168.83813845 335.32723757 -166.53515625 335.34814453 C-163.01192583 335.3749094 -159.49188144 335.34838999 -155.96875 335.31640625 C-153.72915964 335.31971037 -151.48957126 335.32611663 -149.25 335.3359375 C-148.19780273 335.32581635 -147.14560547 335.31569519 -146.06152344 335.30526733 C-141.36146954 335.38050858 -138.77753371 335.46838114 -134.82739258 338.16918945 C-132.71780818 341.43714284 -132.412796 343.09904417 -132.51171875 346.95703125 C-132.52783203 348.06884766 -132.54394531 349.18066406 -132.56054688 350.32617188 C-132.60244141 351.47666016 -132.64433594 352.62714844 -132.6875 353.8125 C-132.71005859 354.98232422 -132.73261719 356.15214844 -132.75585938 357.35742188 C-132.81466363 360.23883048 -132.90434028 363.11957942 -133 366 C-125.08 366 -117.16 366 -109 366 C-109.05800781 364.25332031 -109.11601562 362.50664062 -109.17578125 360.70703125 C-109.22268228 358.40888089 -109.26818206 356.11070163 -109.3125 353.8125 C-109.35439453 352.66201172 -109.39628906 351.51152344 -109.43945312 350.32617188 C-109.45556641 349.21435547 -109.47167969 348.10253906 -109.48828125 346.95703125 C-109.51446533 345.93585205 -109.54064941 344.91467285 -109.56762695 343.86254883 C-108.73990209 339.68832346 -107.51857782 338.40573789 -104 336 C-100.24769301 335.26921134 -96.56331487 335.29925697 -92.75 335.3359375 C-91.11369629 335.32876205 -91.11369629 335.32876205 -89.44433594 335.32144165 C-87.14126135 335.31804387 -84.83813845 335.32723757 -82.53515625 335.34814453 C-79.01192583 335.3749094 -75.49188144 335.34838999 -71.96875 335.31640625 C-69.72915964 335.31971037 -67.48957126 335.32611663 -65.25 335.3359375 C-64.19780273 335.32581635 -63.14560547 335.31569519 -62.06152344 335.30526733 C-53.93102471 335.43542517 -53.93102471 335.43542517 -50.859375 338.47900391 C-50.24578125 339.31093262 -49.6321875 340.14286133 -49 341 C-48.67 341.33 -48.34 341.66 -48 342 C-47.91273777 343.78071246 -47.89300959 345.5648314 -47.90234375 347.34765625 C-47.90556641 348.42724609 -47.90878906 349.50683594 -47.91210938 350.61914062 C-47.92048828 351.75544922 -47.92886719 352.89175781 -47.9375 354.0625 C-47.94201172 355.20267578 -47.94652344 356.34285156 -47.95117188 357.51757812 C-47.9630024 360.34507418 -47.9809385 363.17254345 -48 366 C-40.41 366 -32.82 366 -25 366 C-25.02618408 362.69919434 -25.05236816 359.39838867 -25.0793457 355.99755859 C-25.16218474 345.09319276 -25.2174199 334.18881305 -25.25906086 323.28421593 C-25.28515713 316.67254368 -25.32055712 310.06119376 -25.37719727 303.44970703 C-25.43151387 297.06953385 -25.46142031 290.68967075 -25.47438622 284.30928421 C-25.48362656 281.87478376 -25.50167075 279.44030034 -25.52865028 277.00593185 C-25.56493412 273.59651737 -25.56994537 270.18838501 -25.56762695 266.77880859 C-25.59459152 265.26829422 -25.59459152 265.26829422 -25.62210083 263.7272644 C-25.58871825 259.19192885 -25.50541021 256.00497884 -22.58952332 252.38882446 C-18.4331664 248.55460254 -15.35004771 248.86634475 -9.9296875 248.90234375 C-9.13345978 248.9037587 -8.33723206 248.90517365 -7.51687622 248.90663147 C-4.9695462 248.91223655 -2.42230353 248.92478986 0.125 248.9375 C1.85025915 248.94251435 3.57551967 248.94707737 5.30078125 248.95117188 C9.53391504 248.96135747 13.76685954 248.9809318 18 249 C18 240.75 18 232.5 18 224 C14.08060547 224.08701172 14.08060547 224.08701172 10.08203125 224.17578125 C7.54356927 224.21480584 5.00514105 224.24514797 2.46655273 224.2746582 C0.70598324 224.29976061 -1.05448247 224.33385028 -2.81469727 224.37719727 C-5.34938179 224.43804115 -7.88268575 224.46625113 -10.41796875 224.48828125 C-11.59325386 224.52699089 -11.59325386 224.52699089 -12.7922821 224.56648254 C-17.049578 224.56865409 -18.53432039 224.37668017 -21.97387695 221.59448242 C-24.60925752 218.21983617 -25.12818017 216.63720113 -25.19287109 212.44604492 C-25.20893402 211.50133835 -25.22499695 210.55663177 -25.24154663 209.58329773 C-25.28597262 205.26086107 -25.32706033 200.93857833 -25.35009766 196.6159668 C-25.36666096 194.33558957 -25.39395565 192.05526434 -25.43212891 189.77514648 C-25.48686781 186.4891463 -25.50876757 183.20436334 -25.5234375 179.91796875 C-25.54610687 178.90010788 -25.56877625 177.88224701 -25.59213257 176.83354187 C-25.57088785 169.72102944 -25.57088785 169.72102944 -22.52978516 165.88012695 C-21.69495605 165.25968506 -20.86012695 164.63924316 -20 164 C-19.67 163.67 -19.34 163.34 -19 163 C-16.26105915 162.91141354 -13.5474673 162.88476521 -10.80859375 162.90234375 C-9.98875504 162.9037587 -9.16891632 162.90517365 -8.32423401 162.90663147 C-5.69528618 162.91224711 -3.06642227 162.92480221 -0.4375 162.9375 C1.34049357 162.94251299 3.11848846 162.94707624 4.89648438 162.95117188 C9.26435545 162.96222161 13.63216348 162.97949669 18 163 C17.96280212 144.10200879 17.90289547 125.20421892 17.81609726 106.30638885 C17.77632059 97.53140463 17.74392114 88.75650991 17.72900391 79.98144531 C17.71598025 72.33136734 17.68899745 64.68148641 17.64538693 57.03151941 C17.62278805 52.98243659 17.60708837 48.93359667 17.60811615 44.88444519 C17.60886371 41.06922903 17.59087531 37.25454947 17.55883217 33.4394722 C17.55034922 32.0431577 17.54857234 30.64678289 17.55419731 29.25045395 C17.58505949 20.40800273 17.18167278 13.94544864 11.2890625 6.9765625 C7.67480387 4.04103789 4.62047104 2.12694416 0 1 C0 0.67 0 0.34 0 0 Z " fill="#BE87EE" transform="translate(332,69)"/>
<path d="M0 0 C1.23403717 -0.00512655 1.23403717 -0.00512655 2.49300438 -0.01035666 C5.23552912 -0.01691832 7.9770639 0.00501166 10.71949768 0.0269165 C12.69094825 0.02804535 14.6624005 0.02741039 16.6338501 0.02514648 C21.97638825 0.02399988 27.31856642 0.04750075 32.66102099 0.07544231 C38.24771975 0.10046475 43.83442695 0.10279864 49.4211731 0.10754395 C59.99622731 0.11997121 70.57111592 0.15278957 81.14609724 0.1929419 C93.18711956 0.23766726 105.22814982 0.2596486 117.26923454 0.27972364 C142.03475094 0.32152236 166.80004036 0.39487177 191.56544495 0.48101807 C191.56544495 28.53101807 191.56544495 56.58101807 191.56544495 85.48101807 C165.59230556 85.54871974 139.61923753 85.60399098 113.64603233 85.63645458 C101.58642291 85.65192815 89.52687217 85.6730271 77.46730042 85.70733643 C66.95705553 85.73722371 56.44685315 85.75658951 45.93656695 85.76328355 C40.37066107 85.76719693 34.80487679 85.77640422 29.23900986 85.79820824 C24.0007545 85.81856269 18.76267088 85.82485393 13.52437973 85.82034111 C11.60149706 85.82116677 9.67860868 85.82713857 7.75576019 85.83863449 C5.13021087 85.85356227 2.50530983 85.84997064 -0.12025452 85.84178162 C-0.88096713 85.85052014 -1.64167974 85.85925866 -2.42544425 85.86826199 C-7.17298616 85.82824401 -10.40496718 84.99498773 -14.43455505 82.48101807 C-18.54940818 77.92131595 -19.55873145 75.45783792 -19.61155701 69.38238525 C-19.62439224 68.10055359 -19.63722748 66.81872192 -19.65045166 65.49804688 C-19.6586201 64.09133287 -19.66606364 62.68461449 -19.6728363 61.27789307 C-19.67691183 60.57009956 -19.68098736 59.86230606 -19.68518639 59.13306427 C-19.70605069 55.38495678 -19.72034937 51.63688592 -19.72972107 47.88873291 C-19.74077126 44.02390289 -19.77515315 40.15965091 -19.81489277 36.29502487 C-19.84108857 33.31808429 -19.8494156 30.34128062 -19.85300255 27.36423492 C-19.8578629 25.94011797 -19.86946132 24.51600691 -19.88804054 23.09200287 C-19.91248447 21.09388687 -19.90904203 19.09548941 -19.90452576 17.097229 C-19.910392 15.96186707 -19.91625824 14.82650513 -19.92230225 13.65673828 C-19.30025285 9.60657688 -18.08426869 7.60206539 -15.43455505 4.48101807 C-10.10654099 0.81815359 -6.38874385 -0.09822857 0 0 Z " fill="#BDF3E3" transform="translate(158.43455505371094,113.51898193359375)"/>
<path d="M0 0 C0.92468582 -0.00960754 1.84937164 -0.01921509 2.80207825 -0.02911377 C3.80413803 -0.03336365 4.80619781 -0.03761353 5.83862305 -0.04199219 C7.38141182 -0.0505423 7.38141182 -0.0505423 8.95536804 -0.05926514 C11.13511117 -0.06872338 13.31486865 -0.07525238 15.49462891 -0.07910156 C18.82634531 -0.08879735 22.1574424 -0.11980935 25.48901367 -0.15136719 C27.60554646 -0.15789812 29.72208367 -0.16314824 31.83862305 -0.16699219 C32.83461014 -0.17933899 33.83059723 -0.19168579 34.85676575 -0.20440674 C43.62125679 -0.17624925 43.62125679 -0.17624925 47.5378418 3.16113281 C49.7840302 6.53041542 49.79337677 7.66298987 49.81199646 11.60664368 C49.82197159 12.73800751 49.83194672 13.86937134 49.84222412 15.03501892 C49.84288879 16.27715652 49.84355347 17.51929413 49.84423828 18.79907227 C49.8525618 20.10660461 49.86088531 21.41413696 49.86946106 22.7612915 C49.89141936 26.35025378 49.9002069 29.93913084 49.9052875 33.5281527 C49.90893002 35.77101353 49.91516958 38.01385201 49.92228889 40.25670433 C49.94678965 48.08317419 49.95983628 55.90957774 49.96337891 63.73608398 C49.96701297 71.02810445 49.99689701 78.3197037 50.03878349 85.61159545 C50.07349414 91.87413293 50.08892749 98.13653089 50.08962494 104.3991639 C50.09041762 108.13861827 50.0991507 111.8776438 50.1276226 115.61699867 C50.15868483 119.78997046 50.14974007 123.96194121 50.13720703 128.13500977 C50.15204132 129.37107468 50.16687561 130.60713959 50.18215942 131.88066101 C50.10216571 141.21925727 50.10216571 141.21925727 47.32350159 144.92674255 C44.32866711 147.32891277 43.14211505 147.91702282 39.36791992 147.9375 C38.36337769 147.95641296 37.35883545 147.97532593 36.32385254 147.99481201 C35.24978149 147.98266663 34.17571045 147.97052124 33.0690918 147.95800781 C31.39949402 147.96661835 31.39949402 147.96661835 29.69616699 147.97540283 C27.34600791 147.97948054 24.99578068 147.96844522 22.64575195 147.94335938 C19.04964345 147.91123823 15.45802935 147.94305944 11.86206055 147.98144531 C9.57689438 147.97748037 7.29173101 147.96979285 5.0065918 147.95800781 C3.93252075 147.9701532 2.85844971 147.98229858 1.75183105 147.99481201 C0.2450177 147.96644257 0.2450177 147.96644257 -1.29223633 147.9375 C-2.17206177 147.93272644 -3.05188721 147.92795288 -3.95837402 147.92303467 C-6.91400056 147.02363712 -8.63105055 145.73687937 -10.48773575 143.25990677 C-12.65666269 138.58833197 -12.15094563 133.3230168 -12.10913086 128.27441406 C-12.11789246 126.9761972 -12.12665405 125.67798035 -12.13568115 124.34042358 C-12.15841638 120.79066352 -12.14966287 117.24163251 -12.13378572 113.6918602 C-12.12109637 109.97106766 -12.13287523 106.2503361 -12.14071655 102.52954102 C-12.14980436 96.2819502 -12.13784831 90.03465524 -12.11401367 83.78710938 C-12.08680371 76.57165345 -12.09561851 69.356904 -12.1231457 62.14146519 C-12.14586083 55.93826802 -12.14902522 49.7352831 -12.13595235 43.53205776 C-12.1281709 39.83071251 -12.1270798 36.12969897 -12.1436348 32.42837524 C-12.16080659 28.30111081 -12.13698515 24.17505761 -12.10913086 20.04785156 C-12.11925201 18.82585052 -12.12937317 17.60384949 -12.13980103 16.34481812 C-12.02437803 7.11798667 -12.02437803 7.11798667 -9.04672241 3.41821289 C-5.73248415 0.52391407 -4.2769458 0.03581311 0 0 Z " fill="#EE8BBD" transform="translate(318.462158203125,317.8388671875)"/>
<path d="M0 0 C13 0 13 0 16.27206421 1.69593811 C19.02080712 6.95193011 18.69488126 12.0193539 18.64697266 17.86499023 C18.65573425 19.17281464 18.66449585 20.48063904 18.67352295 21.82809448 C18.69628783 25.40890196 18.68749175 28.98898792 18.67162752 32.56980777 C18.65895095 36.32130267 18.67071374 40.07273662 18.67855835 43.82423401 C18.68765098 50.1248786 18.67567857 56.42523002 18.65185547 62.72583008 C18.62465639 70.00317924 18.63345046 77.27982772 18.6609875 84.55715984 C18.68370293 90.81129135 18.68686651 97.06521231 18.67379415 103.31937176 C18.66601135 107.05203005 18.6649251 110.78435941 18.68147659 114.51699638 C18.69864851 118.68028889 18.67482638 122.8423806 18.64697266 127.00561523 C18.65709381 128.23853806 18.66721497 129.47146088 18.67764282 130.741745 C18.56214585 140.05525609 18.56214585 140.05525609 15.78268433 143.7636261 C12.78951842 146.16915879 11.6050099 146.75588601 7.83007812 146.77636719 C6.82553589 146.79528015 5.82099365 146.81419312 4.78601074 146.8336792 C3.7119397 146.82153381 2.63786865 146.80938843 1.53125 146.796875 C-0.13834778 146.80548553 -0.13834778 146.80548553 -1.8416748 146.81427002 C-4.19183389 146.81834773 -6.54206111 146.8073124 -8.89208984 146.78222656 C-12.48819835 146.75010541 -16.07981244 146.78192663 -19.67578125 146.8203125 C-21.96094741 146.81634756 -24.24611078 146.80866004 -26.53125 146.796875 C-27.60532104 146.80902039 -28.67939209 146.82116577 -29.78601074 146.8336792 C-36.93538557 146.69907474 -36.93538557 146.69907474 -39.80290222 144.81613159 C-42.8394139 141.52102023 -43.60556902 138.52716749 -43.48828125 134.1640625 C-43.47216797 133.10058594 -43.45605469 132.03710938 -43.43945312 130.94140625 C-43.39755859 129.84699219 -43.35566406 128.75257813 -43.3125 127.625 C-43.28994141 126.50738281 -43.26738281 125.38976562 -43.24414062 124.23828125 C-43.18543378 121.4908011 -43.10336846 118.74610239 -43 116 C-42.35039307 115.98541748 -41.70078613 115.97083496 -41.03149414 115.95581055 C-38.0412806 115.88058338 -35.05209403 115.78417388 -32.0625 115.6875 C-31.04091797 115.66494141 -30.01933594 115.64238281 -28.96679688 115.61914062 C-19.49280836 115.28618895 -11.84748171 113.84748171 -5 107 C-3.62745412 104.85019503 -3.62745412 104.85019503 -3 103 C-3.78375 102.896875 -4.5675 102.79375 -5.375 102.6875 C-8 102 -8 102 -10 99 C-10.22128109 96.28715129 -10.32455875 93.71080614 -10.3125 91 C-10.32861328 90.27554688 -10.34472656 89.55109375 -10.36132812 88.8046875 C-10.36399672 85.91193115 -10.31134763 83.57548731 -8.91796875 81 C-7 80 -7 80 0 80 C0 53.6 0 27.2 0 0 Z " fill="#DF68BD" transform="translate(350,319)"/>
<path d="M0 0 C0.9447821 -0.00960754 1.88956421 -0.01921509 2.86297607 -0.02911377 C3.89207092 -0.03336365 4.92116577 -0.03761353 5.98144531 -0.04199219 C7.03358215 -0.04769226 8.08571899 -0.05339233 9.16973877 -0.05926514 C11.40253692 -0.06873333 13.63534915 -0.0752563 15.86816406 -0.07910156 C19.28117422 -0.08878661 22.69357719 -0.11978483 26.10644531 -0.15136719 C28.27310839 -0.15789895 30.43977579 -0.16314874 32.60644531 -0.16699219 C33.62744324 -0.17933899 34.64844116 -0.19168579 35.70037842 -0.20440674 C44.67472575 -0.17627517 44.67472575 -0.17627517 48.55957031 3.16113281 C50.68483823 6.34903469 50.8139438 7.17013672 50.83422852 10.82861328 C50.84852654 12.24555984 50.84852654 12.24555984 50.8631134 13.69113159 C50.862202 14.70990387 50.86129059 15.72867615 50.86035156 16.77832031 C50.86463669 17.82762726 50.86892181 18.8769342 50.87333679 19.95803833 C50.87908248 22.1788867 50.87957861 24.39975389 50.87524414 26.62060547 C50.87208906 30.01595277 50.89552406 33.41042484 50.92089844 36.80566406 C50.92317191 38.96321505 50.92387471 41.12076837 50.92285156 43.27832031 C50.93206131 44.29304413 50.94127106 45.30776794 50.95075989 46.35324097 C50.89143878 55.40966084 50.89143878 55.40966084 47.55957031 59.16113281 C44.55687619 60.99082515 42.27180219 61.42268188 38.77856445 61.4675293 C37.83400894 61.48351669 36.88945343 61.49950409 35.91627502 61.51597595 C34.39585854 61.52402 34.39585854 61.52402 32.84472656 61.53222656 C31.27288857 61.54576927 31.27288857 61.54576927 29.66929626 61.55958557 C27.45444597 61.57408435 25.23955287 61.58297388 23.0246582 61.58666992 C19.6377761 61.59857759 16.25270923 61.64777827 12.86621094 61.69824219 C10.71322503 61.70770527 8.56022795 61.71494085 6.40722656 61.71972656 C5.3956398 61.73925888 4.38405304 61.7587912 3.34181213 61.77891541 C-3.70015743 61.73375467 -3.70015743 61.73375467 -7.5559082 58.7512207 C-10.02109128 55.36307104 -10.56975577 53.72409347 -10.63330078 49.60717773 C-10.64936371 48.66247116 -10.66542664 47.71776459 -10.68197632 46.74443054 C-10.72640231 42.42199388 -10.76749002 38.09971114 -10.79052734 33.77709961 C-10.80709065 31.49672238 -10.83438534 29.21639715 -10.87255859 26.9362793 C-10.9272975 23.65027911 -10.94919726 20.36549615 -10.96386719 17.07910156 C-10.98653656 16.06124069 -11.00920593 15.04337982 -11.03256226 13.99467468 C-11.01131754 6.88216225 -11.01131754 6.88216225 -7.97021484 3.04125977 C-7.13538574 2.42081787 -6.30055664 1.80037598 -5.44042969 1.16113281 C-3.85100424 -0.42829263 -2.20362943 0.01801071 0 0 Z " fill="#A183E2" transform="translate(317.4404296875,231.8388671875)"/>
<path d="M0 0 C1.38218719 -0.02409439 1.38218719 -0.02409439 2.79229736 -0.04867554 C7.01337971 -0.09314606 11.23430448 -0.13420037 15.45556641 -0.15722656 C17.68060778 -0.17377565 19.90559622 -0.20105164 22.13037109 -0.23925781 C25.33947312 -0.29408573 28.54732829 -0.31591126 31.75683594 -0.33056641 C32.74766174 -0.35323578 33.73848755 -0.37590515 34.75933838 -0.39926147 C38.95100982 -0.38647179 42.58998541 -0.31885715 46.18530273 2.0065918 C49.72053316 6.76262647 49.36083426 10.91424851 49.24511719 16.69677734 C49.24374252 17.8122142 49.24236786 18.92765106 49.24095154 20.07688904 C49.23190066 22.43132115 49.20829062 24.78573615 49.17114258 27.13989258 C49.11635197 30.74608885 49.10961377 34.34997378 49.11035156 37.95654297 C49.09560531 40.24497443 49.07812002 42.53339022 49.05761719 44.82177734 C49.05260948 46.44062584 49.05260948 46.44062584 49.04750061 48.09217834 C49.01879128 49.599105 49.01879128 49.599105 48.98950195 51.13647461 C48.97806656 52.01852066 48.96663116 52.90056671 48.95484924 53.80934143 C48.46784256 56.70309367 47.56449667 58.07767168 45.55371094 60.19287109 C42.68566115 61.14888769 40.77936277 61.34577473 37.79443359 61.40161133 C36.3474559 61.43054726 36.3474559 61.43054726 34.87124634 61.46006775 C30.46986732 61.51784668 26.06864905 61.56705639 21.66699219 61.59790039 C19.34490113 61.6195156 17.0228923 61.65365949 14.70117188 61.70043945 C11.35216926 61.76729579 8.00484838 61.79487371 4.65527344 61.81396484 C3.61867584 61.8417955 2.58207825 61.86962616 1.5140686 61.89830017 C-3.27412445 61.88461792 -5.6788188 61.76336208 -9.59863281 58.84960938 C-12.52212081 54.36842243 -12.16140163 49.23477811 -12.11035156 44.06396484 C-12.11513519 42.9967067 -12.11991882 41.92944855 -12.12484741 40.82984924 C-12.12824143 38.57982911 -12.11907407 36.32975933 -12.09814453 34.07983398 C-12.07134752 30.63787951 -12.09792502 27.19917835 -12.12988281 23.75732422 C-12.12657915 21.56786391 -12.12017381 19.37840562 -12.11035156 17.18896484 C-12.12047272 16.16177841 -12.13059387 15.13459198 -12.14102173 14.07627869 C-12.02401575 6.93992342 -12.02401575 6.93992342 -9.02978516 3.06811523 C-5.68450738 0.63992788 -4.05861799 0.06424762 0 0 Z " fill="#A183E2" transform="translate(234.4462890625,317.80712890625)"/>
<path d="M0 0 C1.02049438 -0.00241196 2.04098877 -0.00482391 3.09240723 -0.00730896 C5.24409888 -0.00633204 7.39581615 0.00702435 9.54736328 0.03198242 C12.83322889 0.06629638 16.11640427 0.05263055 19.40234375 0.03320312 C21.49740724 0.0401019 23.5924638 0.04977456 25.6875 0.0625 C26.66577759 0.05754013 27.64405518 0.05258026 28.65197754 0.04747009 C34.49893871 0.14798991 37.88498971 0.74111802 42.34375 4.62890625 C43.54697231 7.03535088 43.48965427 8.58649842 43.52075195 11.2746582 C43.54000481 12.72174919 43.54000481 12.72174919 43.55964661 14.19807434 C43.56703354 15.24388168 43.57442047 16.28968903 43.58203125 17.3671875 C43.590103 18.44010544 43.59817474 19.51302338 43.60649109 20.61845398 C43.6203386 22.89234802 43.63105776 25.16626292 43.63891602 27.44018555 C43.6561287 30.91690487 43.70000988 34.39267345 43.74414062 37.86914062 C43.75426735 40.07681591 43.76278351 42.2844993 43.76953125 44.4921875 C43.78703934 45.53192215 43.80454742 46.5716568 43.82258606 47.64289856 C43.8008654 54.87565473 43.8008654 54.87565473 41.44213867 58.76245117 C38.3849641 61.48171814 36.69829342 61.76132139 32.69799805 61.82177734 C31.73327072 61.83784027 30.7685434 61.8539032 29.77458191 61.87045288 C25.36055163 61.91487138 20.94667216 61.95596625 16.5324707 61.97900391 C14.20359304 61.99556799 11.87476631 62.02286367 9.54614258 62.06103516 C6.19064932 62.11576627 2.83634809 62.13767272 -0.51953125 62.15234375 C-2.07913322 62.18634781 -2.07913322 62.18634781 -3.67024231 62.22103882 C-8.12336945 62.20801091 -10.90319455 62.06270632 -14.80859375 59.81298828 C-17.59536659 55.01051849 -17.39099961 50.62437651 -17.35546875 45.16015625 C-17.36262405 44.04709106 -17.36977936 42.93402588 -17.37715149 41.78723145 C-17.38492581 39.43710125 -17.3799222 37.0868988 -17.36303711 34.73681641 C-17.34381394 31.14086756 -17.38320076 27.54878354 -17.42773438 23.953125 C-17.42802474 21.66796645 -17.42488473 19.38280435 -17.41796875 17.09765625 C-17.43325119 16.02358521 -17.44853363 14.94951416 -17.46427917 13.84289551 C-17.3880794 8.96278288 -17.25773728 6.43140311 -14.2746582 2.45141602 C-9.91371737 -0.37460868 -5.02852037 -0.06814955 0 0 Z " fill="#A183E2" transform="translate(155.65625,317.37109375)"/>
<path d="M0 0 C0.94147888 -0.01606293 1.88295776 -0.03212585 2.85296631 -0.04867554 C7.1656423 -0.09313743 11.47816395 -0.13419979 15.79101562 -0.15722656 C18.06455732 -0.17377675 20.33804719 -0.20105415 22.61132812 -0.23925781 C25.88992296 -0.29407584 29.16729739 -0.31590984 32.44628906 -0.33056641 C33.45898865 -0.35323578 34.47168823 -0.37590515 35.51507568 -0.39926147 C39.75206983 -0.38660479 43.46851636 -0.34649141 47.10498047 2.0065918 C50.62237914 6.76167467 50.28721454 10.92238737 50.18847656 16.69677734 C50.18947357 17.8122142 50.19047058 18.92765106 50.1914978 20.07688904 C50.18682311 22.43129617 50.16740535 24.78571388 50.13427734 27.13989258 C50.08703224 30.74634968 50.09316463 34.34985447 50.10644531 37.95654297 C50.09529304 40.24497208 50.08107406 42.53338872 50.06347656 44.82177734 C50.06621078 46.44062584 50.06621078 46.44062584 50.06900024 48.09217834 C50.04993622 49.09679611 50.03087219 50.10141388 50.01123047 51.13647461 C50.00201569 52.01852066 49.9928009 52.90056671 49.98330688 53.80934143 C49.29557464 56.95328614 47.89721099 58.15850395 45.46191406 60.19287109 C43.07787864 61.38488881 41.5694029 61.33842797 38.90795898 61.36987305 C37.96325241 61.38270828 37.01854584 61.39554352 36.04521179 61.4087677 C35.02127823 61.41615463 33.99734467 61.42354156 32.94238281 61.43115234 C31.89166092 61.43922409 30.84093903 61.44729584 29.75837708 61.45561218 C27.53156183 61.46945924 25.30472529 61.4801786 23.07788086 61.48803711 C19.67358131 61.50524891 16.27025296 61.54913023 12.86621094 61.59326172 C10.70410871 61.60338854 8.54199822 61.61190468 6.37988281 61.61865234 C4.85309151 61.64491447 4.85309151 61.64491447 3.29545593 61.67170715 C-3.78811819 61.64998815 -3.78811819 61.64998815 -7.65795898 59.29125977 C-10.39760155 56.23357533 -10.66867368 54.55927729 -10.71508789 50.54711914 C-10.72792313 49.58239182 -10.74075836 48.61766449 -10.75398254 47.623703 C-10.76136948 46.57789566 -10.76875641 45.53208832 -10.77636719 44.45458984 C-10.78443893 43.38167191 -10.79251068 42.30875397 -10.80082703 41.20332336 C-10.81467454 38.92942932 -10.8253937 36.65551443 -10.83325195 34.3815918 C-10.85046464 30.90487248 -10.89434582 27.4291039 -10.93847656 23.95263672 C-10.94860328 21.74496143 -10.95711945 19.53727805 -10.96386719 17.32958984 C-10.98137527 16.28985519 -10.99888336 15.25012054 -11.016922 14.17887878 C-10.99520133 6.94612262 -10.99520133 6.94612262 -8.63647461 3.05932617 C-5.61324386 0.37025124 -3.95319653 0.06123968 0 0 Z " fill="#A183E2" transform="translate(233.5380859375,231.80712890625)"/>
<path d="M0 0 C1.0450621 -0.00241196 2.09012421 -0.00482391 3.16685486 -0.00730896 C5.36982021 -0.006332 7.57281057 0.00702535 9.77563477 0.03198242 C13.14489149 0.06633028 16.51152996 0.05262218 19.88085938 0.03320312 C22.02475073 0.04010079 24.16863533 0.04977244 26.3125 0.0625 C27.82046898 0.0550602 27.82046898 0.0550602 29.35890198 0.04747009 C33.77938454 0.12184361 36.37140332 0.18773883 40.20092773 2.53930664 C42.95616774 5.58727087 43.22041572 7.26113608 43.2668457 11.2746582 C43.28609856 12.72174919 43.28609856 12.72174919 43.30574036 14.19807434 C43.31312729 15.24388168 43.32051422 16.28968903 43.328125 17.3671875 C43.33619675 18.44010544 43.34426849 19.51302338 43.35258484 20.61845398 C43.36643235 22.89234802 43.37715151 25.16626292 43.38500977 27.44018555 C43.40222245 30.91690487 43.44610363 34.39267345 43.49023438 37.86914062 C43.5003611 40.07681591 43.50887726 42.2844993 43.515625 44.4921875 C43.53313309 45.53192215 43.55064117 46.5716568 43.56867981 47.64289856 C43.54703642 54.84992472 43.54703642 54.84992472 41.25073242 58.76245117 C38.07454307 61.50586634 35.46905794 61.75914928 31.42236328 61.82177734 C30.47773224 61.83784027 29.5331012 61.8539032 28.55984497 61.87045288 C24.25002845 61.91497358 19.9403637 61.95594915 15.63037109 61.97900391 C13.35682959 61.99558012 11.08334054 62.02289175 8.81005859 62.06103516 C5.53064975 62.11576335 2.25246005 62.13767021 -1.02734375 62.15234375 C-2.04206757 62.17501312 -3.05679138 62.1976825 -4.1022644 62.22103882 C-8.49801292 62.20786437 -11.19470155 62.04313152 -15.04663086 59.81298828 C-17.85579867 55.01314988 -17.64495492 50.63192202 -17.609375 45.16015625 C-17.6165303 44.04709106 -17.62368561 42.93402588 -17.63105774 41.78723145 C-17.63883206 39.43710125 -17.63382845 37.0868988 -17.61694336 34.73681641 C-17.59772019 31.14086756 -17.63710701 27.54878354 -17.68164062 23.953125 C-17.68193099 21.66796645 -17.67879098 19.38280435 -17.671875 17.09765625 C-17.68715744 16.02358521 -17.70243988 14.94951416 -17.71818542 13.84289551 C-17.64215557 8.9736653 -17.50716707 6.43077373 -14.54443359 2.45141602 C-10.12034586 -0.4151591 -5.09669641 -0.06735159 0 0 Z " fill="#A183E2" transform="translate(155.91015625,231.37109375)"/>
<path d="M0 0 C1.63630371 -0.00717545 1.63630371 -0.00717545 3.30566406 -0.01449585 C5.60873865 -0.01789363 7.91186155 -0.00869993 10.21484375 0.01220703 C13.73807417 0.0389719 17.25811856 0.01245249 20.78125 -0.01953125 C23.02084036 -0.01622713 25.26042874 -0.00982087 27.5 0 C29.0782959 -0.01518173 29.0782959 -0.01518173 30.68847656 -0.03067017 C35.16420524 0.04097995 37.99702202 0.22623052 41.91162109 2.50244141 C44.66718645 7.2414283 44.46594621 11.52022119 44.4140625 16.9140625 C44.41884613 18.00493164 44.42362976 19.09580078 44.42855835 20.21972656 C44.43195613 22.52280115 44.42276243 24.82592405 44.40185547 27.12890625 C44.3750906 30.65213667 44.40161001 34.17218106 44.43359375 37.6953125 C44.43028963 39.93490286 44.42388337 42.17449124 44.4140625 44.4140625 C44.42418365 45.46625977 44.43430481 46.51845703 44.44473267 47.60253906 C44.37308255 52.07826774 44.18783198 54.91108452 41.91162109 58.82568359 C37.1726342 61.58124895 32.89384131 61.38000871 27.5 61.328125 C26.40913086 61.33290863 25.31826172 61.33769226 24.19433594 61.34262085 C21.89126135 61.34601863 19.58813845 61.33682493 17.28515625 61.31591797 C13.76192583 61.2891531 10.24188144 61.31567251 6.71875 61.34765625 C4.47915964 61.34435213 2.23957126 61.33794587 0 61.328125 C-1.05219727 61.33824615 -2.10439453 61.34836731 -3.18847656 61.35879517 C-7.66420524 61.28714505 -10.49702202 61.10189448 -14.41162109 58.82568359 C-17.16718645 54.0866967 -16.96594621 49.80790381 -16.9140625 44.4140625 C-16.91884613 43.32319336 -16.92362976 42.23232422 -16.92855835 41.10839844 C-16.93195613 38.80532385 -16.92276243 36.50220095 -16.90185547 34.19921875 C-16.8750906 30.67598833 -16.90161001 27.15594394 -16.93359375 23.6328125 C-16.93028963 21.39322214 -16.92388337 19.15363376 -16.9140625 16.9140625 C-16.92418365 15.86186523 -16.93430481 14.80966797 -16.94473267 13.72558594 C-16.87308255 9.24985726 -16.68783198 6.41704048 -14.41162109 2.50244141 C-9.6726342 -0.25312395 -5.39384131 -0.05188371 0 0 Z " fill="#A183E2" transform="translate(239.25,404.3359375)"/>
<path d="M0 0 C1.63630371 -0.00717545 1.63630371 -0.00717545 3.30566406 -0.01449585 C5.60873865 -0.01789363 7.91186155 -0.00869993 10.21484375 0.01220703 C13.73807417 0.0389719 17.25811856 0.01245249 20.78125 -0.01953125 C23.02084036 -0.01622713 25.26042874 -0.00982087 27.5 0 C29.0782959 -0.01518173 29.0782959 -0.01518173 30.68847656 -0.03067017 C35.16420524 0.04097995 37.99702202 0.22623052 41.91162109 2.50244141 C44.66718645 7.2414283 44.46594621 11.52022119 44.4140625 16.9140625 C44.41884613 18.00493164 44.42362976 19.09580078 44.42855835 20.21972656 C44.43195613 22.52280115 44.42276243 24.82592405 44.40185547 27.12890625 C44.3750906 30.65213667 44.40161001 34.17218106 44.43359375 37.6953125 C44.43028963 39.93490286 44.42388337 42.17449124 44.4140625 44.4140625 C44.42418365 45.46625977 44.43430481 46.51845703 44.44473267 47.60253906 C44.37308255 52.07826774 44.18783198 54.91108452 41.91162109 58.82568359 C37.1726342 61.58124895 32.89384131 61.38000871 27.5 61.328125 C26.40913086 61.33290863 25.31826172 61.33769226 24.19433594 61.34262085 C21.89126135 61.34601863 19.58813845 61.33682493 17.28515625 61.31591797 C13.76192583 61.2891531 10.24188144 61.31567251 6.71875 61.34765625 C4.47915964 61.34435213 2.23957126 61.33794587 0 61.328125 C-1.05219727 61.33824615 -2.10439453 61.34836731 -3.18847656 61.35879517 C-7.66420524 61.28714505 -10.49702202 61.10189448 -14.41162109 58.82568359 C-17.16718645 54.0866967 -16.96594621 49.80790381 -16.9140625 44.4140625 C-16.91884613 43.32319336 -16.92362976 42.23232422 -16.92855835 41.10839844 C-16.93195613 38.80532385 -16.92276243 36.50220095 -16.90185547 34.19921875 C-16.8750906 30.67598833 -16.90161001 27.15594394 -16.93359375 23.6328125 C-16.93028963 21.39322214 -16.92388337 19.15363376 -16.9140625 16.9140625 C-16.92418365 15.86186523 -16.93430481 14.80966797 -16.94473267 13.72558594 C-16.87308255 9.24985726 -16.68783198 6.41704048 -14.41162109 2.50244141 C-9.6726342 -0.25312395 -5.39384131 -0.05188371 0 0 Z " fill="#A183E2" transform="translate(155.25,404.3359375)"/>
<path d="M0 0 C19.8 0 39.6 0 60 0 C60 8.25 60 16.5 60 25 C54.37356963 30.62643037 54.37356963 30.62643037 49.921875 30.64697266 C48.44509277 30.67061386 48.44509277 30.67061386 46.93847656 30.69473267 C45.8862793 30.68461151 44.83408203 30.67449036 43.75 30.6640625 C42.65913086 30.66884613 41.56826172 30.67362976 40.44433594 30.67855835 C38.14126135 30.68195613 35.83813845 30.67276243 33.53515625 30.65185547 C30.01192583 30.6250906 26.49188144 30.65161001 22.96875 30.68359375 C20.72915964 30.68028963 18.48957126 30.67388337 16.25 30.6640625 C15.19780273 30.67418365 14.14560547 30.68430481 13.06152344 30.69473267 C12.07700195 30.67897186 11.09248047 30.66321106 10.078125 30.64697266 C9.21606445 30.64299469 8.35400391 30.63901672 7.46582031 30.63491821 C5 30 5 30 0 25 C0 16.75 0 8.5 0 0 Z " fill="#9762E2" transform="translate(223,435)"/>
<path d="M0 0 C19.8 0 39.6 0 60 0 C60 8.25 60 16.5 60 25 C54.37356963 30.62643037 54.37356963 30.62643037 49.921875 30.64697266 C48.44509277 30.67061386 48.44509277 30.67061386 46.93847656 30.69473267 C45.8862793 30.68461151 44.83408203 30.67449036 43.75 30.6640625 C42.65913086 30.66884613 41.56826172 30.67362976 40.44433594 30.67855835 C38.14126135 30.68195613 35.83813845 30.67276243 33.53515625 30.65185547 C30.01192583 30.6250906 26.49188144 30.65161001 22.96875 30.68359375 C20.72915964 30.68028963 18.48957126 30.67388337 16.25 30.6640625 C15.19780273 30.67418365 14.14560547 30.68430481 13.06152344 30.69473267 C12.07700195 30.67897186 11.09248047 30.66321106 10.078125 30.64697266 C9.21606445 30.64299469 8.35400391 30.63901672 7.46582031 30.63491821 C5 30 5 30 0 25 C0 16.75 0 8.5 0 0 Z " fill="#9762E2" transform="translate(139,435)"/>
<path d="M0 0 C9.22222222 0 9.22222222 0 14 4 C17.59804525 8.09432735 18.12663627 11.49518279 18.16113281 16.8449707 C18.17074036 18.04664383 18.1803479 19.24831696 18.19024658 20.48640442 C18.19449646 21.78639877 18.19874634 23.08639313 18.203125 24.42578125 C18.20887993 25.77475485 18.21463762 27.12372845 18.22039795 28.47270203 C18.23089881 31.30138529 18.23674722 34.13004022 18.24023438 36.95874023 C18.24571246 40.57346261 18.26972915 44.18780704 18.29820633 47.80241108 C18.31688379 50.5897682 18.32204104 53.37703529 18.32357025 56.16444969 C18.32804834 58.14192954 18.34667094 60.11936109 18.36553955 62.09675598 C18.36253845 63.30788559 18.35953735 64.5190152 18.35644531 65.7668457 C18.36009094 66.82813187 18.36373657 67.88941803 18.36749268 68.98286438 C17.76070064 73.96466129 15.76078566 77.18487251 12.375 80.8125 C9 83 9 83 0 84 C0 56.28 0 28.56 0 0 Z " fill="#B1B6E3" transform="translate(350,115)"/>
<path d="M0 0 C1.32 0 2.64 0 4 0 C5.17495143 2.93425371 6.33850852 5.87289513 7.5 8.8125 C7.83386719 9.64587891 8.16773438 10.47925781 8.51171875 11.33789062 C8.98544922 12.54155273 8.98544922 12.54155273 9.46875 13.76953125 C9.76201172 14.50792236 10.05527344 15.24631348 10.35742188 16.00708008 C11 18 11 18 11 21 C12.28970703 21.40798828 12.28970703 21.40798828 13.60546875 21.82421875 C16.95345304 22.98387729 20.10901836 24.30052049 23.3125 25.8125 C24.36050781 26.29332031 25.40851563 26.77414063 26.48828125 27.26953125 C29 29 29 29 29.85546875 31.69921875 C29.90316406 32.45847656 29.95085937 33.21773437 30 34 C28.87980469 34.54269531 27.75960937 35.08539063 26.60546875 35.64453125 C25.13265508 36.36686662 23.66000746 37.08954062 22.1875 37.8125 C21.44951172 38.16892578 20.71152344 38.52535156 19.95117188 38.89257812 C19.23896484 39.24384766 18.52675781 39.59511719 17.79296875 39.95703125 C17.1383667 40.27647705 16.48376465 40.59592285 15.80932617 40.92504883 C12.31196756 43.00288852 10.72377039 45.07487955 9.53515625 48.94140625 C9.29216797 49.68970703 9.04917969 50.43800781 8.79882812 51.20898438 C8.30717564 52.78044656 7.82020679 54.3533816 7.33789062 55.92773438 C7.09361328 56.67474609 6.84933594 57.42175781 6.59765625 58.19140625 C6.38633057 58.87404541 6.17500488 59.55668457 5.95727539 60.26000977 C4.71231265 62.52291451 3.35330187 63.05632081 1 64 C-2.22830654 61.65970901 -2.65633576 58.8205934 -3.5847168 55.09619141 C-5.12414029 49.26396487 -6.50436015 44.49838371 -11.84375 41.20703125 C-14.63539438 39.76344932 -17.48865298 38.57878372 -20.41796875 37.4453125 C-23.47250043 36.21284061 -25.03013166 35.54029354 -27 33 C-26.4765625 30.66015625 -26.4765625 30.66015625 -25 28 C-23.20038735 27.30609901 -21.39085662 26.62667286 -19.53930664 26.08642578 C-14.64977588 24.62039389 -10.41923972 23.10945858 -7.48193359 18.74365234 C-4.96941496 13.63731927 -3.17419986 8.29848924 -1.59399414 2.83837891 C-1 1 -1 1 0 0 Z " fill="#CAB4EF" transform="translate(454,6)"/>
<path d="M0 0 C2.609375 1.12890625 2.609375 1.12890625 3.40039062 2.86767578 C4.08747586 5.30065949 4.72127857 7.74514222 5.359375 10.19140625 C7.06913238 15.83161629 8.5976513 20.01018454 13.8046875 23.1328125 C17.94610328 25.17428789 22.23010886 26.68192772 26.609375 28.12890625 C27.609375 29.12890625 27.609375 29.12890625 27.671875 31.69140625 C27.65125 32.49578125 27.630625 33.30015625 27.609375 34.12890625 C13.609375 41.12890625 13.609375 41.12890625 11.50268555 41.96704102 C9.02182726 43.48946585 8.71277156 44.69307774 7.86328125 47.4453125 C7.58291016 48.29158203 7.30253906 49.13785156 7.01367188 50.00976562 C6.45170622 51.79997177 5.89442355 53.59165459 5.34179688 55.38476562 C4.5544083 57.74693136 3.80700733 59.94498847 2.609375 62.12890625 C-0.11328125 63.21875 -0.11328125 63.21875 -2.390625 63.12890625 C-6.22124389 56.01489974 -6.22124389 56.01489974 -6.94921875 52.20703125 C-8.16851887 46.21200139 -8.16851887 46.21200139 -12.21484375 41.82666016 C-17.07808831 39.12328117 -22.21177719 37.13770482 -27.390625 35.12890625 C-28.390625 34.12890625 -28.390625 34.12890625 -28.453125 31.56640625 C-28.4325 30.76203125 -28.411875 29.95765625 -28.390625 29.12890625 C-25.7680018 27.79071127 -23.14275901 26.45819115 -20.515625 25.12890625 C-19.76925781 24.74734375 -19.02289063 24.36578125 -18.25390625 23.97265625 C-17.53847656 23.61171875 -16.82304687 23.25078125 -16.0859375 22.87890625 C-15.42609863 22.54375 -14.76625977 22.20859375 -14.08642578 21.86328125 C-12.390625 21.12890625 -12.390625 21.12890625 -10.390625 21.12890625 C-10.22046875 20.52304688 -10.0503125 19.9171875 -9.875 19.29296875 C-4.36292298 0.23525565 -4.36292298 0.23525565 0 0 Z " fill="#CAB4EF" transform="translate(28.390625,82.87109375)"/>
<path d="M0 0 C1.12496887 -0.01283524 2.24993774 -0.02567047 3.40899658 -0.03889465 C4.63495544 -0.04628159 5.86091431 -0.05366852 7.12402344 -0.0612793 C8.37592468 -0.06935104 9.62782593 -0.07742279 10.91766357 -0.08573914 C13.57421591 -0.09960184 16.23064321 -0.11061128 18.88720703 -0.11816406 C22.28474237 -0.12920917 25.6816192 -0.16357941 29.07892227 -0.20333576 C32.3230574 -0.23582829 35.56725038 -0.24028419 38.81152344 -0.2487793 C40.02938538 -0.26628738 41.24724731 -0.28379547 42.50201416 -0.30183411 C43.63959167 -0.29890854 44.77716919 -0.29598297 45.94921875 -0.29296875 C46.94769836 -0.29883499 47.94617798 -0.30470123 48.97491455 -0.31074524 C52.49440178 0.31156038 54.17171948 1.73795127 56.73339844 4.17700195 C57.86331898 6.43684305 58.031398 7.97426683 58.17089844 10.48950195 C58.23148437 11.24875977 58.29207031 12.00801758 58.35449219 12.7902832 C57.58643266 15.74175724 56.20683172 17.22428868 53.84147644 19.10560608 C49.23818586 21.44515259 43.89985422 20.86164484 38.85449219 20.8059082 C37.60966568 20.80832016 36.36483917 20.81073212 35.08229065 20.81321716 C31.7843303 20.8119894 28.48757073 20.78698257 25.18981934 20.753479 C23.17094796 20.7395023 21.15291798 20.74308822 19.1340332 20.75341797 C15.24879558 20.77218723 11.36470907 20.76276941 7.47949219 20.7434082 C6.27731552 20.74836807 5.07513885 20.75332794 3.83653259 20.75843811 C-4.48112843 20.64098076 -4.48112843 20.64098076 -8.50073242 18.26660156 C-11.27863467 14.97943644 -11.6534927 12.54454295 -11.62988281 8.21606445 C-11.02625553 4.82796295 -8.85100676 3.25713297 -6.26660156 1.17700195 C-4.55834089 -0.53125872 -2.33550469 0.02309983 0 0 Z " fill="#FEFEFE" transform="translate(226.2666015625,136.822998046875)"/>
<path d="M0 0 C3.42372679 2.44658472 5.90508266 5.50547782 7.79296875 9.28125 C8.95961465 24.02688917 8.95961465 24.02688917 3.79296875 30.28125 C-2.73126602 35.34086064 -8.1763494 35.89278181 -16.20703125 35.28125 C-21.71728255 33.5138109 -24.97085399 29.93012383 -28.20703125 25.28125 C-30.88028583 20.05096931 -30.46788145 14.89111971 -29.20703125 9.28125 C-26.51128333 4.08230759 -23.0482792 0.85972108 -17.95703125 -1.96875 C-11.47150415 -3.73753012 -5.88942727 -3.29149628 0 0 Z " fill="#A183E2" transform="translate(504.20703125,90.71875)"/>
<path d="M0 0 C12.55555556 0 12.55555556 0 16 3 C18.12526792 6.18790188 18.25437348 7.00900391 18.2746582 10.66748047 C18.28895622 12.08442703 18.28895622 12.08442703 18.30354309 13.52999878 C18.30263168 14.54877106 18.30172028 15.56754333 18.30078125 16.6171875 C18.30506638 17.66649445 18.3093515 18.71580139 18.31376648 19.79690552 C18.31951217 22.01775389 18.32000829 24.23862108 18.31567383 26.45947266 C18.31251875 29.85481996 18.33595375 33.24929203 18.36132812 36.64453125 C18.36360159 38.80208223 18.36430439 40.95963556 18.36328125 43.1171875 C18.372491 44.13191132 18.38170074 45.14663513 18.39118958 46.19210815 C18.33186847 55.24852803 18.33186847 55.24852803 15 59 C11 61 11 61 0 61 C0 40.87 0 20.74 0 0 Z " fill="#9762E2" transform="translate(350,232)"/>
<path d="M0 0 C0.79921875 -0.03738281 1.5984375 -0.07476562 2.421875 -0.11328125 C6.55310255 -0.17443429 9.425395 0.03660566 12.78125 2.5859375 C15.37073792 5.51140329 16.07176628 6.54746509 16 10.375 C16.01546875 11.2 16.0309375 12.025 16.046875 12.875 C15.09475175 15.86205335 13.64934468 17.50904945 11.15771484 19.39794922 C7.48334778 21.27980448 3.73084529 21.05320284 -0.3125 20.9375 C-1.14974609 20.94845703 -1.98699219 20.95941406 -2.84960938 20.97070312 C-6.94194974 20.92210051 -9.2215536 20.69752277 -12.77734375 18.52734375 C-15.3555707 15.71426841 -15.70589711 13.77192599 -16.125 10 C-15.75 6.375 -15.75 6.375 -13.375 3.5 C-9.01085211 -0.03288162 -5.44408381 0.09475462 0 0 Z " fill="#FDFEFE" transform="translate(178.75,136.625)"/>
<path d="M0 0 C1.66259766 1.27929688 1.66259766 1.27929688 3 3 C3.2981028 5.92257643 3.41882117 8.58345783 3.375 11.5 C3.38660156 12.27214844 3.39820313 13.04429687 3.41015625 13.83984375 C3.38079126 19.48770939 3.38079126 19.48770939 1.69775391 21.75195312 C0 23 0 23 -3.5625 22.875 C-7 22 -7 22 -9 19 C-9.22128109 16.28715129 -9.32455875 13.71080614 -9.3125 11 C-9.32861328 10.27554687 -9.34472656 9.55109375 -9.36132812 8.8046875 C-9.36618174 3.54336646 -9.36618174 3.54336646 -7.66796875 1.0234375 C-5.03802975 -0.59024873 -3.00464304 -0.37558038 0 0 Z " fill="#B84B97" transform="translate(349,399)"/>
<path d="M0 0 C3.4375 0.8125 3.4375 0.8125 5.4375 3.8125 C5.68519941 6.34421843 5.80764685 8.71908172 5.8125 11.25 C5.84085937 12.56871094 5.86921875 13.88742187 5.8984375 15.24609375 C5.4375 18.8125 5.4375 18.8125 3.57421875 21.2578125 C1.4375 22.8125 1.4375 22.8125 -1.125 23.25 C-4.02665795 22.7291896 -4.7564958 22.09233134 -6.5625 19.8125 C-6.95068359 17.85131836 -6.95068359 17.85131836 -6.9609375 15.65234375 C-6.96480469 14.85892578 -6.96867187 14.06550781 -6.97265625 13.24804688 C-6.96105469 12.42369141 -6.94945312 11.59933594 -6.9375 10.75 C-6.94910156 9.92177734 -6.96070313 9.09355469 -6.97265625 8.24023438 C-6.96878906 7.44810547 -6.96492188 6.65597656 -6.9609375 5.83984375 C-6.95755371 5.11531006 -6.95416992 4.39077637 -6.95068359 3.64428711 C-6.11927312 -0.27902912 -3.46078443 -0.18214655 0 0 Z " fill="#B94C97" transform="translate(330.5625,362.1875)"/>
<path d="M0 0 C2.4466605 3.66999075 2.8237551 6.73535118 2 11 C-0.71292348 14.2883921 -2.34816929 14.90851499 -6.5625 15.5 C-10 15 -10 15 -12.4375 13.5 C-14.63681993 9.98108811 -14.68957335 7.04605087 -14 3 C-12.68401819 0.43383546 -11.80721355 -0.59639323 -9.25 -1.875 C-5.84352407 -2.06424866 -3.17621447 -1.17637573 0 0 Z " fill="#A183E2" transform="translate(70,31)"/>
</svg>
