<?xml version="1.0" encoding="UTF-8"?>
<svg version="1.1" xmlns="http://www.w3.org/2000/svg" width="512" height="512">
<path d="M0 0 C5.87640147 4.5347573 9.46019201 9.94812993 10.7109375 17.3203125 C11.04073533 26.2935619 7.65840522 31.9268923 2.2109375 38.6953125 C-4.66152358 47.33750605 -7.19393383 56.36660688 -6.2890625 67.3203125 C-5.14349739 72.77162233 -3.50862259 77.72094095 -0.2890625 82.3203125 C-0.19109375 81.74925781 -0.093125 81.17820312 0.0078125 80.58984375 C3.59103309 61.160139 10.52107265 45.34827675 26.6484375 33.3828125 C41.29675684 23.83462342 57.07087049 21.60163281 74.12109375 23.75 C89.9833351 27.20852369 103.57614978 36.28240437 112.6484375 49.6953125 C121.4484013 64.67031201 124.12379377 81.16762315 120.9921875 98.23828125 C120.06503525 101.3674201 118.98780007 104.31841704 117.7109375 107.3203125 C117.38351562 108.17367187 117.05609375 109.02703125 116.71875 109.90625 C111.23388855 122.59749875 99.13910734 133.73728857 86.5859375 139.1328125 C78.39285965 142.29034628 70.36724396 143.98419952 61.7109375 145.3203125 C62.44699219 146.03316406 63.18304688 146.74601563 63.94140625 147.48046875 C79.47610867 162.6592727 79.47610867 162.6592727 79.77734375 173.76953125 C79.42172668 180.8064388 77.11753623 185.80641932 72.22265625 190.85546875 C66.20842795 196.18590882 60.73639162 196.74460743 52.9609375 196.65625 C48.40712352 196.18554327 45.56220516 194.73679417 41.7109375 192.3203125 C41.35322266 193.45726562 41.35322266 193.45726562 40.98828125 194.6171875 C39.50040005 197.76585352 38.19730647 198.74589508 35.2734375 200.5703125 C34.49097656 201.07046875 33.70851563 201.570625 32.90234375 202.0859375 C29.12613314 204.21300088 26.16071174 204.4560352 21.8984375 204.4453125 C20.88136719 204.44789063 19.86429687 204.45046875 18.81640625 204.453125 C15.7109375 204.3203125 15.7109375 204.3203125 12.90625 203.4296875 C7.67905237 203.25076142 4.46520681 206.4069711 0.3984375 209.4453125 C-0.48166992 210.08331787 -1.36177734 210.72132324 -2.26855469 211.37866211 C-4.95776044 213.33891589 -7.62580222 215.3249921 -10.2890625 217.3203125 C-11.05847168 217.89249512 -11.82788086 218.46467773 -12.62060547 219.05419922 C-27.05982367 229.82019847 -40.98586015 241.24208294 -54.67382812 252.94335938 C-56.33740793 254.36152596 -58.00802126 255.77106567 -59.6796875 257.1796875 C-66.60669454 263.03830167 -73.34860983 269.05545695 -79.92919922 275.30200195 C-82.72239629 277.95062131 -85.51708597 280.55199371 -88.4921875 282.99609375 C-89.41515625 283.76308594 -90.338125 284.53007812 -91.2890625 285.3203125 C-92.0934375 285.9596875 -92.8978125 286.5990625 -93.7265625 287.2578125 C-95.62316924 289.28747441 -95.62316924 289.28747441 -95.05859375 292.30078125 C-94.80464844 293.29722656 -94.55070312 294.29367187 -94.2890625 295.3203125 C-93.57040863 302.07094643 -94.53586841 307.58074828 -98.2890625 313.3203125 C-102.79343893 318.25725953 -107.37255719 322.01303349 -114.2265625 322.55078125 C-115.2371875 322.53660156 -116.2478125 322.52242188 -117.2890625 322.5078125 C-118.2996875 322.50136719 -119.3103125 322.49492187 -120.3515625 322.48828125 C-123.2890625 322.3203125 -123.2890625 322.3203125 -125.8125 321.56640625 C-129.55156139 321.19485914 -131.03499217 322.89050417 -133.9140625 325.1953125 C-134.43476318 325.60587891 -134.95546387 326.01644531 -135.49194336 326.43945312 C-137.10409735 327.71766268 -138.69760966 329.01645969 -140.2890625 330.3203125 C-141.22621094 331.07570313 -142.16335937 331.83109375 -143.12890625 332.609375 C-144.94961735 334.08788645 -146.76341588 335.57494978 -148.5703125 337.0703125 C-151.31428978 339.34119025 -154.08248155 341.58015713 -156.8515625 343.8203125 C-161.29016478 347.446745 -165.54762483 351.2317283 -169.78125 355.09375 C-172.26496786 357.29892007 -174.81700955 359.37542254 -177.4140625 361.4453125 C-182.28699224 365.38380259 -186.85834182 369.58282933 -191.4140625 373.8828125 C-192.10226074 374.53072754 -192.79045898 375.17864258 -193.49951172 375.84619141 C-196.40309613 378.58369721 -199.29828728 381.32869447 -202.171875 384.09765625 C-202.95304688 384.83113281 -203.73421875 385.56460937 -204.5390625 386.3203125 C-205.18359375 386.9390625 -205.828125 387.5578125 -206.4921875 388.1953125 C-208.2890625 389.3203125 -208.2890625 389.3203125 -210.2734375 389.1328125 C-212.34467459 388.29789522 -214.32068458 387.37480067 -216.2890625 386.3203125 C-216.77117187 386.825625 -217.25328125 387.3309375 -217.75 387.8515625 C-218.38164062 388.50125 -219.01328125 389.1509375 -219.6640625 389.8203125 C-220.29054687 390.47 -220.91703125 391.1196875 -221.5625 391.7890625 C-223.2890625 393.3203125 -223.2890625 393.3203125 -225.2890625 393.3203125 C-223.6390625 395.6303125 -221.9890625 397.9403125 -220.2890625 400.3203125 C-221.6189287 401.67788424 -222.95319321 403.03114746 -224.2890625 404.3828125 C-225.0315625 405.13691406 -225.7740625 405.89101563 -226.5390625 406.66796875 C-228.61049583 408.66584266 -230.69067689 410.53681374 -232.875 412.40234375 C-238.50698142 417.28837174 -243.68079381 422.64164109 -248.9140625 427.9453125 C-250.92407325 429.98217454 -252.93756036 432.01551025 -254.953125 434.046875 C-255.83436035 434.93971191 -256.7155957 435.83254883 -257.62353516 436.75244141 C-259.58788188 438.64482086 -261.49975784 440.30086527 -263.63037109 441.97802734 C-264.50773926 442.75098145 -265.38510742 443.52393555 -266.2890625 444.3203125 C-266.2578684 447.18765771 -266.2578684 447.18765771 -265.2890625 450.3203125 C-264.52724782 457.1508204 -265.76704868 462.41575992 -269.2890625 468.3203125 C-272.54540358 472.28072733 -276.32811192 475.77054186 -281.2890625 477.3203125 C-286.99595732 477.78460225 -292.81293407 478.14568864 -298.2890625 476.3203125 C-299.16643066 477.21339111 -300.04379883 478.10646973 -300.94775391 479.02661133 C-304.21640305 482.34971247 -307.49509503 485.66275102 -310.77685547 488.97290039 C-312.19366302 490.4047597 -313.60776195 491.8393046 -315.01904297 493.27661133 C-317.05243725 495.34654652 -319.09549632 497.40650948 -321.140625 499.46484375 C-321.76587067 500.10557327 -322.39111633 500.7463028 -323.03530884 501.40644836 C-328.54444464 506.91766414 -333.15429762 509.74889294 -341.1640625 509.7578125 C-348.20928594 509.57982791 -352.8834517 508.54266173 -358.03125 503.671875 C-362.72183473 498.53243049 -364.579856 494.039055 -364.6640625 487.0078125 C-364.69242187 485.93917969 -364.72078125 484.87054688 -364.75 483.76953125 C-363.68981022 475.83607725 -359.17778201 470.66092612 -353.51953125 465.3359375 C-352.20632316 464.0586524 -350.89317378 462.78130694 -349.58007812 461.50390625 C-347.51814783 459.52324768 -345.45212168 457.54698094 -343.3840332 455.57275391 C-341.37723168 453.64999326 -339.38551834 451.71254779 -337.39453125 449.7734375 C-336.45410225 448.89054047 -336.45410225 448.89054047 -335.49467468 447.98980713 C-333.56688042 446.16511045 -333.56688042 446.16511045 -331.2890625 443.3203125 C-331.56624475 441.28247508 -331.56624475 441.28247508 -332.2890625 439.3203125 C-332.93655242 431.89010027 -332.96244801 425.40749531 -328.2890625 419.3203125 C-322.86066249 413.37380056 -317.96627103 410.57087724 -309.7890625 410.1328125 C-306.2890625 410.3203125 -306.2890625 410.3203125 -303.0390625 411.265625 C-298.86911088 411.32643679 -298.47614358 411.08253658 -295.5703125 408.41796875 C-294.28896119 407.09284457 -293.02901128 405.74675616 -291.7890625 404.3828125 C-291.16386719 403.72990234 -290.53867187 403.07699219 -289.89453125 402.40429688 C-286.77581915 399.12093227 -283.7790129 395.743903 -280.8203125 392.31640625 C-276.54627944 387.39754227 -271.89926153 382.88050772 -267.25 378.3203125 C-263.27941041 374.3957143 -259.50359388 370.37985291 -255.88085938 366.13085938 C-254.25318822 364.27950826 -252.54918175 362.54548307 -250.7890625 360.8203125 C-248.49580214 358.56233307 -246.32478222 356.26034746 -244.2265625 353.8203125 C-240.69070909 349.7151947 -236.99552313 345.77054922 -233.2890625 341.8203125 C-228.52369283 336.73325099 -223.81320267 331.62447683 -219.2890625 326.3203125 C-218.41428978 325.2992844 -217.53926551 324.27847179 -216.6640625 323.2578125 C-215.14648379 321.48793476 -213.62960193 319.7174863 -212.11499023 317.94506836 C-209.43083839 314.80629893 -206.73459662 311.67948232 -204.01171875 308.57421875 C-197.7027947 301.37218646 -191.58506991 294.07704861 -185.75 286.484375 C-184.21567857 284.48916013 -182.65191542 282.57368998 -181.015625 280.65625 C-177.32059705 276.61261779 -177.32059705 276.61261779 -176.3515625 271.5078125 C-176.6609375 270.4559375 -176.9703125 269.4040625 -177.2890625 268.3203125 C-177.92377258 260.86246907 -177.92999323 254.45787474 -173.2890625 248.3203125 C-168.96275343 243.39997653 -163.82565769 240.2358296 -157.2890625 239.3203125 C-155.0757724 239.52176488 -152.86676284 239.7747667 -150.6640625 240.0703125 C-146.21100774 240.61966934 -146.21100774 240.61966934 -142.1484375 239.12109375 C-140.32558806 237.2941388 -138.812232 235.40237107 -137.2890625 233.3203125 C-136.27865044 232.14460876 -135.25726856 230.97826622 -134.2265625 229.8203125 C-133.65550781 229.15644531 -133.08445313 228.49257812 -132.49609375 227.80859375 C-130.13386735 225.14534027 -127.70434881 222.55609141 -125.26171875 219.96679688 C-119.81866762 214.19578177 -114.56434297 208.37671759 -109.61328125 202.171875 C-107.36657184 199.415408 -105.04765514 196.74471861 -102.69677734 194.07763672 C-95.66324465 186.09110696 -89.16059514 177.78684895 -82.77197266 169.27929688 C-81.43457341 167.51253831 -80.07860113 165.76372047 -78.70703125 164.0234375 C-73.66355161 157.602982 -68.82477766 151.0418341 -64.1015625 144.3828125 C-63.51181641 143.57730957 -62.92207031 142.77180664 -62.31445312 141.94189453 C-59.06478453 137.45441882 -59.06478453 137.45441882 -58.40625 132.12109375 C-58.69757813 131.19683594 -58.98890625 130.27257812 -59.2890625 129.3203125 C-59.89231314 121.90329641 -60.0053285 115.39152785 -55.2890625 109.3203125 C-52.26613027 106.24958688 -49.1663112 103.25893685 -45.2890625 101.3203125 C-45.7015625 100.1446875 -46.1140625 98.9690625 -46.5390625 97.7578125 C-47.97527119 93.44234736 -49.22751683 89.08498718 -50.4140625 84.6953125 C-50.91292969 82.85066406 -50.91292969 82.85066406 -51.421875 80.96875 C-56.57320048 59.2960563 -52.45577829 36.55329512 -41.0390625 17.5703125 C-31.72391125 3.81349973 -17.6804014 -10.66792152 0 0 Z " fill="#010101" transform="translate(377.2890625,2.6796875)"/>
<path d="M0 0 C3.40353022 1.47122616 5.61255749 3.36942513 8.21777344 5.99072266 C9.03832214 6.81142242 9.85887085 7.63212219 10.70428467 8.47769165 C11.58046448 9.36419403 12.45664429 10.25069641 13.359375 11.1640625 C14.26375305 12.07127045 15.1681311 12.97847839 16.09991455 13.91317749 C18.49796458 16.31884419 20.88994618 18.73045736 23.28070068 21.14337158 C25.72385171 23.60702344 28.17271206 26.06498577 30.62109375 28.5234375 C35.41933788 33.34373573 40.21182732 38.16969843 45 43 C43.56181501 46.04382971 42.49396578 47.66911734 39.68359375 49.55859375 C39.01062256 50.01999756 38.33765137 50.48140137 37.64428711 50.95678711 C36.91604736 51.44542236 36.18780762 51.93405762 35.4375 52.4375 C33.88354017 53.50769704 32.33150979 54.58070017 30.78125 55.65625 C29.58822266 56.48382813 29.58822266 56.48382813 28.37109375 57.328125 C13.15366744 68.05804009 -1.24659675 80.03259003 -15.40576172 92.10888672 C-18.85198751 95.04567982 -22.34886204 97.90989977 -25.875 100.75 C-29.58155656 103.76459448 -33.00817909 106.8855602 -36.32421875 110.3203125 C-38.77062881 112.77242514 -41.40580563 114.98922138 -44.03125 117.24609375 C-45.94216834 118.94847933 -47.72144212 120.72330947 -49.5 122.5625 C-53 126 -53 126 -61 132 C-69.58 123.42 -78.16 114.84 -87 106 C-80.25822075 98.13459087 -80.25822075 98.13459087 -77.66796875 95.38671875 C-77.10166748 94.78375977 -76.53536621 94.18080078 -75.9519043 93.55957031 C-75.07852417 92.63289551 -75.07852417 92.63289551 -74.1875 91.6875 C-66.26547847 83.23207552 -58.52929623 74.72136125 -51.2421875 65.70703125 C-49.10516218 63.12696409 -46.89264255 60.65285515 -44.625 58.1875 C-39.62397146 52.68550487 -35.08151827 46.86125839 -30.54052734 40.98193359 C-28.92225217 38.89997514 -27.28521934 36.83386459 -25.64453125 34.76953125 C-17.6835352 24.7107277 -10.28898235 14.37556934 -3.19824219 3.68554688 C-2 2 -2 2 0 0 Z " fill="#FBED8C" transform="translate(331,149)"/>
<path d="M0 0 C9.17535178 8.42378713 14.34477354 18.70982485 15.21875 31.1015625 C15.42034441 38.27496375 14.64948923 44.33019885 12 51 C11.61714844 52.01126953 11.61714844 52.01126953 11.2265625 53.04296875 C6.368703 64.20713209 -3.55876116 72.42428612 -14.58203125 77.09375 C-25.04413899 80.48177889 -37.39345792 80.60493419 -47.546875 76.2578125 C-61.07354756 69.32216192 -68.59240026 60.18503907 -74.140625 46.10546875 C-77.3227504 34.60642471 -75.16069126 21.57763202 -69.4921875 11.25390625 C-62.4567189 0.5043647 -53.26782361 -6.10626174 -41.25 -10.3125 C-25.98661712 -13.48211378 -12.13709 -9.44825776 0 0 Z " fill="#A3D5F3" transform="translate(469,52)"/>
<path d="M0 0 C5.61 0 11.22 0 17 0 C17.2475 1.959375 17.495 3.91875 17.75 5.9375 C19.44692404 16.93165578 24.47552269 27.76081204 33.33984375 34.87890625 C42.45172817 40.78450352 51.28392786 43.46913255 62 45 C62 50.28 62 55.56 62 61 C59.7725 61.37125 57.545 61.7425 55.25 62.125 C43.06614437 64.41072169 32.86577758 69.62678319 25.375 79.625 C19.80136754 87.9361245 17.57466723 96.08699034 17 106 C11.39 106 5.78 106 0 106 C-0.2475 104.040625 -0.495 102.08125 -0.75 100.0625 C-2.44692404 89.06834422 -7.47552269 78.23918796 -16.33984375 71.12109375 C-25.09168861 65.44884543 -33.7493491 62.70844182 -44 61 C-44 55.72 -44 50.44 -44 45 C-41.9375 44.62875 -39.875 44.2575 -37.75 43.875 C-24.40662558 41.01184679 -14.25189844 35.13833971 -6.609375 23.7421875 C-2.1569449 16.15576533 -0.50476236 8.7071507 0 0 Z " fill="#000001" transform="translate(376,278)"/>
<path d="M0 0 C5.28 0 10.56 0 16 0 C16.37125 2.0625 16.7425 4.125 17.125 6.25 C19.97629291 19.53810091 25.84240877 29.75095941 37.18359375 37.390625 C44.31818092 41.46753196 51.89399781 43.23528281 60 44 C61.75559942 45.75559942 61.13221919 48.03582442 61.13671875 50.37109375 C61.13285156 51.07363281 61.12898438 51.77617188 61.125 52.5 C61.12886719 53.20253906 61.13273437 53.90507813 61.13671875 54.62890625 C61.12661378 59.87338622 61.12661378 59.87338622 60 61 C58.17118904 61.29985375 56.33654532 61.56438087 54.5 61.8125 C43.75797022 63.53479694 33.05782686 68.7013757 26.12109375 77.33984375 C20.44884543 86.09168861 17.70844182 94.7493491 16 105 C10.72 105 5.44 105 0 105 C-0.37125 102.9375 -0.7425 100.875 -1.125 98.75 C-3.98865871 85.40426981 -9.86290699 75.25979352 -21.25390625 67.609375 C-28.52029045 63.35083973 -35.68886585 61.67025275 -44 61 C-45.75559942 59.24440058 -45.13221919 56.96417558 -45.13671875 54.62890625 C-45.13285156 53.92636719 -45.12898437 53.22382812 -45.125 52.5 C-45.12886719 51.79746094 -45.13273438 51.09492187 -45.13671875 50.37109375 C-45.12661378 45.12661378 -45.12661378 45.12661378 -44 44 C-42.17118904 43.70014625 -40.33654532 43.43561913 -38.5 43.1875 C-27.75797022 41.46520306 -17.05782686 36.2986243 -10.12109375 27.66015625 C-4.44884543 18.90831139 -1.70844182 10.2506509 0 0 Z " fill="#010001" transform="translate(233,0)"/>
<path d="M0 0 C3.4375 0.875 3.4375 0.875 5.375 2.0625 C7.00354686 4.84060936 6.78721416 6.68244815 6.4375 9.875 C4.93197544 12.35164537 3.46361362 14.49166532 1.6875 16.75 C0.76173628 17.98537666 -0.16019211 19.22363741 -1.078125 20.46484375 C-1.51447266 21.05378418 -1.95082031 21.64272461 -2.40039062 22.24951172 C-10.29033199 33.28548433 -10.61284225 45.85075615 -9.5625 58.875 C-7.50295305 70.38973975 -2.16474826 79.2975751 5.72167969 87.76000977 C6.24352215 88.32220246 6.76536461 88.88439516 7.30302048 89.463624 C13.15963341 95.72138951 19.25681794 101.73164993 25.37360382 107.73344231 C28.88770779 111.1854887 32.38554101 114.65399372 35.88671875 118.11914062 C40.30988499 122.49426988 44.73768366 126.86445854 49.18017578 131.2199707 C52.80552432 134.77517814 56.41613583 138.34477102 60.01729584 141.9244709 C61.38508892 143.27868692 62.75827761 144.62747604 64.13694 145.97062492 C66.05358346 147.83912397 67.95086073 149.72540073 69.84472656 151.61694336 C70.70009254 152.43759529 70.70009254 152.43759529 71.57273865 153.27482605 C74.1263154 155.86228197 75.3729397 157.44219107 75.91595459 161.08253479 C75.4375 163.875 75.4375 163.875 73.375 166.8125 C70.4375 168.875 70.4375 168.875 67.30249023 169.01586914 C61.78471877 168.00408374 58.38903098 163.56181483 54.66015625 159.68359375 C53.84880722 158.86375504 53.03745819 158.04391632 52.20152283 157.19923401 C49.619899 154.58409331 47.05994584 151.94884779 44.5 149.3125 C42.75073885 147.53313777 41.00010272 145.75512612 39.24804688 143.97851562 C34.9618016 139.62620814 30.69315037 135.25721638 26.4375 130.875 C20.90711507 135.36669928 20.90711507 135.36669928 16.4375 140.875 C17.16453125 141.56013672 17.8915625 142.24527344 18.640625 142.95117188 C21.34458146 145.50982015 24.02155396 148.09527692 26.69140625 150.68945312 C27.84833551 151.80626515 29.0123585 152.91577852 30.18359375 154.01757812 C31.87098256 155.60739683 33.53069716 157.22215297 35.1875 158.84375 C35.97495605 159.56927063 35.97495605 159.56927063 36.77832031 160.30944824 C39.59991964 163.12749928 40.77481801 165.17629816 40.86328125 169.09179688 C40.4375 172.875 40.4375 172.875 38.875 175.4375 C35.32392483 177.53172382 33.39116956 176.86804711 29.4375 175.875 C27.05048279 174.06008595 25.1285616 172.37877248 23.05908203 170.25708008 C22.16750648 169.37886597 22.16750648 169.37886597 21.25791931 168.48291016 C19.30518387 166.55141433 17.37502275 164.59901084 15.4453125 162.64453125 C14.09102678 161.2917484 12.73577714 159.9399299 11.37960815 158.58903503 C8.5441402 155.75789529 5.7195279 152.91646962 2.90234375 150.06713867 C-0.707277 146.41771978 -4.34092697 142.79339717 -7.9828167 139.17621326 C-10.78363212 136.38958681 -13.57217998 133.59094161 -16.35709 130.78842735 C-17.69238895 129.44728353 -19.03126813 128.10969443 -20.37377548 126.77576637 C-22.24848757 124.90905437 -24.10628245 123.02698415 -25.96044922 121.13989258 C-26.51625168 120.59264023 -27.07205414 120.04538788 -27.6446991 119.48155212 C-30.93245442 116.09250132 -32.46649589 113.6444831 -32.5625 108.875 C-31.0625 106 -31.0625 106 -28.5625 103.875 C-25.3125 103.125 -25.3125 103.125 -21.5625 103.875 C-15.30273339 108.36263789 -9.96200249 114.35217122 -4.5625 119.8125 C-3.40041016 120.98135742 -3.40041016 120.98135742 -2.21484375 122.17382812 C-0.32839243 124.0719242 1.55566245 125.97233149 3.4375 127.875 C6.3784769 126.46821502 8.42698284 125.11326794 10.6875 122.75 C11.595 121.80125 12.5025 120.8525 13.4375 119.875 C11.89724892 116.15817995 9.64433572 113.91874592 6.74609375 111.1640625 C5.80499756 110.25599854 4.86390137 109.34793457 3.89428711 108.41235352 C3.4000827 107.93694122 2.9058783 107.46152893 2.396698 106.97171021 C-13.43118437 91.66377391 -25.37411216 75.7120198 -25.85498047 52.72998047 C-25.99790589 33.23983271 -21.00403468 17.45933722 -7.5625 2.875 C-4.61107404 0.26039054 -4.09831259 -0.14380044 0 0 Z " fill="#D39AE3" transform="translate(365.5625,15.125)"/>
<path d="M0 0 C3.76603869 1.56282982 6.13639151 3.9063475 8.984375 6.7890625 C9.67506073 7.48399307 9.67506073 7.48399307 10.37969971 8.19296265 C11.84125078 9.66565898 13.29567168 11.14517403 14.75 12.625 C15.74302611 13.62806322 16.73651089 14.63067257 17.73046875 15.6328125 C20.15897941 18.08330835 22.58114675 20.5399667 25 23 C23.1783164 27.05867054 20.59258564 29.11435612 17.0625 31.6875 C15.87400059 32.57809492 14.68651573 33.47004522 13.5 34.36328125 C12.90703125 34.80752441 12.3140625 35.25176758 11.703125 35.70947266 C-0.2254422 44.74823502 -11.50101387 54.78550769 -22.56640625 64.8515625 C-25.19246999 67.16991733 -27.89486806 69.36790834 -30.625 71.5625 C-34.70367188 74.86100398 -38.43953523 78.30827471 -42.07421875 82.0859375 C-44.72396791 84.71956243 -47.60474874 87.04068554 -50.53125 89.359375 C-52.44466817 91.12970104 -52.44466817 91.12970104 -52 95 C-51.38655243 96.68698082 -50.72904086 98.35965807 -50 100 C-51.26451932 101.31858428 -52.53685475 102.62967631 -53.8125 103.9375 C-54.52019531 104.66839844 -55.22789062 105.39929688 -55.95703125 106.15234375 C-58 108 -58 108 -61 109 C-62.32 107.68 -63.64 106.36 -65 105 C-67.78341901 106.27998841 -69.91336497 107.63622691 -72.14453125 109.73046875 C-72.73161865 110.27888428 -73.31870605 110.8272998 -73.92358398 111.39233398 C-74.85859741 112.28094116 -74.85859741 112.28094116 -75.8125 113.1875 C-76.79295288 114.10994507 -76.79295288 114.10994507 -77.79321289 115.05102539 C-83.25032787 120.21594633 -88.55557501 125.52570393 -93.84472656 130.86157227 C-98.06915595 135.11017016 -102.37589298 139.18483842 -107 143 C-107.59683594 143.50144531 -108.19367188 144.00289062 -108.80859375 144.51953125 C-110.20027261 145.68622738 -111.59916618 146.8443121 -113 148 C-116.3 144.7 -119.6 141.4 -123 138 C-119.25464745 133.42234688 -115.26585356 129.21388813 -111.0625 125.0625 C-107.81975313 121.8590175 -104.62758729 118.67599736 -101.6875 115.1875 C-97.57767766 110.34704257 -92.99507795 105.97086858 -88.48706055 101.5065918 C-84.64942738 97.69195281 -80.96247269 93.82292686 -77.46875 89.6875 C-75.88737031 87.87059567 -74.21802804 86.1878872 -72.5 84.5 C-69.5545927 81.60000647 -66.84536291 78.56373569 -64.1484375 75.43359375 C-61.32379389 72.23404289 -58.4123506 69.11961192 -55.5 66 C-50.90852922 61.0736674 -46.39176986 56.10587878 -42 51 C-41.02654777 49.87976834 -40.05253227 48.76002604 -39.078125 47.640625 C-28.07211618 34.98947286 -17.27843297 22.25173511 -7 9 C-6.25878906 8.04867188 -5.51757812 7.09734375 -4.75390625 6.1171875 C-3.16690167 4.07994621 -1.58209011 2.04105823 0 0 Z " fill="#FBDE26" transform="translate(212,288)"/>
<path d="M0 0 C3.80635497 3.20760251 7.54563567 6.40746109 11 10 C9.67458519 13.07657882 8.45741133 14.69369373 5.68359375 16.55859375 C5.01062256 17.01999756 4.33765137 17.48140137 3.64428711 17.95678711 C2.55192749 18.68973999 2.55192749 18.68973999 1.4375 19.4375 C-0.11645983 20.50769704 -1.66849021 21.58070017 -3.21875 22.65625 C-4.41177734 23.48382813 -4.41177734 23.48382813 -5.62890625 24.328125 C-20.84633256 35.05804009 -35.24659675 47.03259003 -49.40576172 59.10888672 C-52.85198751 62.04567982 -56.34886204 64.90989977 -59.875 67.75 C-63.58155656 70.76459448 -67.00817909 73.8855602 -70.32421875 77.3203125 C-72.77062881 79.77242514 -75.40580563 81.98922138 -78.03125 84.24609375 C-79.94216834 85.94847933 -81.72144212 87.72330947 -83.5 89.5625 C-87.03319911 93.16913743 -90.90459062 96.05417922 -95 99 C-98.3 95.7 -101.6 92.4 -105 89 C-100.7791404 83.91282199 -96.34629881 79.30288947 -91.5 74.8125 C-90.45658447 73.83966064 -90.45658447 73.83966064 -89.39208984 72.84716797 C-83.77972224 67.64779312 -78.01683807 62.64630204 -72.17578125 57.70703125 C-69.33390852 55.29988778 -66.5647377 52.82202067 -63.8125 50.3125 C-45.04930535 33.31884241 -24.28841321 17.67905582 -3.23828125 3.63671875 C-0.90584721 2.19337519 -0.90584721 2.19337519 0 0 Z " fill="#FBDD26" transform="translate(365,182)"/>
<path d="M0 0 C7.29689977 7.09652439 9.04672596 16.59230506 9.3125 26.4375 C9.20796478 32.41691485 8.20234226 37.45584274 6 43 C5.61714844 44.01126953 5.61714844 44.01126953 5.2265625 45.04296875 C0.368703 56.20713209 -9.55876116 64.42428612 -20.58203125 69.09375 C-32.20412438 72.85742634 -45.04097536 72.38849052 -56 67 C-58.4093612 65.74882296 -60.69230741 64.43589761 -63 63 C-59.32478414 61.79620721 -56.0221683 62.07031373 -52.1875 62.25 C-38.45265749 62.50816104 -25.55613665 57.01303933 -15.5 47.6796875 C-10.39064345 42.31822454 -6.76563292 36.85964072 -4 30 C-3.69320312 29.29101562 -3.38640625 28.58203125 -3.0703125 27.8515625 C0.16916135 19.0587049 -0.24398016 9.26046225 0 0 Z " fill="#6C8FEB" transform="translate(475,60)"/>
<path d="M0 0 C4.07376031 1.61010527 6.76507069 4.53822271 9.75 7.625 C10.25660156 8.140625 10.76320313 8.65625 11.28515625 9.1875 C12.52803902 10.45383339 13.76465276 11.7263144 15 13 C11.05383161 17.11376627 6.82177917 20.68962024 2.375 24.25 C0.9361394 25.41138584 -0.50266256 26.57284433 -1.94140625 27.734375 C-3.29414861 28.82306855 -4.64700257 29.91162346 -6 31 C-17.85727595 40.56080749 -29.35453129 50.5136083 -40.5859375 60.80078125 C-43.35362296 63.32215166 -46.16835146 65.78419256 -48.9921875 68.2421875 C-58.95820583 76.96730083 -68.68185615 85.97765054 -78.31640625 95.06640625 C-79.04263184 95.7507373 -79.76885742 96.43506836 -80.51708984 97.14013672 C-81.9452084 98.48729107 -83.3713722 99.83652117 -84.79541016 101.18798828 C-85.44429199 101.80013184 -86.09317383 102.41227539 -86.76171875 103.04296875 C-87.33881592 103.58977295 -87.91591309 104.13657715 -88.51049805 104.69995117 C-90 106 -90 106 -92 107 C-90.66000502 103.993182 -89.20154709 102.00237391 -86.8125 99.75 C-84.2425351 97.25984768 -81.83113126 94.71526802 -79.5 92 C-77.2544206 89.39352391 -74.95448488 86.91065479 -72.5 84.5 C-69.5545927 81.60000647 -66.84536291 78.56373569 -64.1484375 75.43359375 C-61.32379389 72.23404289 -58.4123506 69.11961192 -55.5 66 C-50.90852922 61.0736674 -46.39176986 56.10587878 -42 51 C-41.02654777 49.87976834 -40.05253227 48.76002604 -39.078125 47.640625 C-28.07211618 34.98947286 -17.27843297 22.25173511 -7 9 C-6.25878906 8.04867188 -5.51757812 7.09734375 -4.75390625 6.1171875 C-3.16690167 4.07994621 -1.58209011 2.04105823 0 0 Z " fill="#F9EB8A" transform="translate(212,288)"/>
<path d="M0 0 C1.84999084 1.32463074 1.84999084 1.32463074 3.75415039 3.06323242 C4.80265671 4.0178688 4.80265671 4.0178688 5.87234497 4.99179077 C9.21634367 8.14805856 12.49967329 11.35683613 15.74609375 14.61328125 C16.79096703 15.65671944 16.79096703 15.65671944 17.85694885 16.72123718 C19.31267999 18.17629346 20.7671718 19.63259063 22.22045898 21.09008789 C24.45247268 23.32750895 26.68984135 25.55947677 28.92773438 27.79101562 C30.34667534 29.21061654 31.76530654 30.63052717 33.18359375 32.05078125 C33.85329697 32.71846024 34.52300018 33.38613922 35.21299744 34.0740509 C35.82776443 34.69197006 36.44253143 35.30988922 37.07592773 35.9465332 C37.61805405 36.48945511 38.16018036 37.03237701 38.71873474 37.5917511 C40.82405008 39.90572004 41.01988366 41.17895297 41.375 44.375 C41 48 41 48 38.8125 50.4375 C35.71136193 52.16035448 34.47040226 52.42629283 31 52 C28.86914062 50.57177734 28.86914062 50.57177734 26.65625 48.4609375 C25.78742188 47.63819336 24.91859375 46.81544922 24.0234375 45.96777344 C23.01393021 44.98024517 22.00624865 43.99084848 21 43 C20.42604492 42.43913696 19.85208984 41.87827393 19.26074219 41.30041504 C15.32617982 37.44986005 11.42472734 33.56733242 7.53808594 29.66845703 C5.47966359 27.60461 3.41586478 25.54624533 1.3515625 23.48828125 C0.03613705 22.17219605 -1.27897874 20.85580124 -2.59375 19.5390625 C-3.20827026 18.92656647 -3.82279053 18.31407043 -4.45593262 17.68301392 C-5.0241272 17.11166718 -5.59232178 16.54032043 -6.17773438 15.95166016 C-6.67607788 15.45252106 -7.17442139 14.95338196 -7.68786621 14.43911743 C-9 13 -9 13 -11 10 C-10.81989972 6.63812807 -10.58112046 4.00081858 -8.875 1.0625 C-5.64048218 -0.77039343 -3.66028566 -0.60004683 0 0 Z " fill="#CE96DD" transform="translate(226,258)"/>
<path d="M0 0 C2.67855894 2.56887657 4.87661006 5.15171595 7 8.1875 C11.42055825 14.01064238 17.03987829 17.86021103 23 22 C21.72657708 25.82026877 20.26245927 26.37177718 16.9375 28.5625 C11.89497 32.10341834 8.31180378 35.8673326 4.65625 40.80078125 C3.21346415 42.71655586 1.74170463 44.35918679 0 46 C-0.52207031 45.23816406 -1.04414063 44.47632813 -1.58203125 43.69140625 C-7.13079914 35.90758299 -13.24146889 28.37926555 -22 24 C-22 23.34 -22 22.68 -22 22 C-20.35578869 20.73339238 -18.6572705 19.53694454 -16.9375 18.375 C-9.75483116 13.27881337 -4.64285445 7.42856711 0 0 Z " fill="#D299E2" transform="translate(384,308)"/>
<path d="M0 0 C3.44500473 1.14833491 3.9164805 2.25268364 5.7890625 5.1953125 C10.655079 12.44724677 16.70575758 17.30350589 24 22 C21.40965243 24.69536166 18.78580449 26.95188815 15.75 29.125 C10.23532938 33.33404496 5.12840686 38.74318629 2 45 C1.34 45 0.68 45 0 45 C-1.26660762 43.35578869 -2.46305546 41.6572705 -3.625 39.9375 C-8.72118663 32.75483116 -14.57143289 27.64285445 -22 23 C-19.3911602 20.28515768 -16.74031692 18.00857612 -13.6875 15.8125 C-7.92475916 11.40961385 -3.99188489 5.98782733 0 0 Z " fill="#D399E2" transform="translate(240,30)"/>
<path d="M0 0 C3.18086518 1.50946511 5.29869906 3.07941825 7.75 5.625 C8.67039062 6.57246094 8.67039062 6.57246094 9.609375 7.5390625 C10.29773438 8.26222656 10.29773438 8.26222656 11 9 C9.37830814 13.01142753 6.56601974 15.79093951 3.58203125 18.82421875 C3.04656174 19.37108841 2.51109222 19.91795807 1.95939636 20.48139954 C0.82659258 21.63305131 -0.30911243 22.7818556 -1.44750977 23.92797852 C-3.17843266 25.67833088 -4.88684609 27.44883768 -6.59570312 29.22070312 C-7.70179619 30.33985653 -8.8091774 31.45773858 -9.91796875 32.57421875 C-10.42241013 33.10335373 -10.9268515 33.63248871 -11.44657898 34.17765808 C-15.09820574 37.78487503 -17.87351997 38.944372 -23 39 C-26 37 -26 37 -28 34 C-28.00032505 29.63880904 -27.2857755 26.9315774 -24.40795898 23.72680664 C-23.28595715 22.60574558 -22.14766927 21.50081653 -20.99609375 20.41015625 C-20.39821548 19.82076767 -19.80033722 19.23137909 -19.18434143 18.62413025 C-17.28240797 16.75562748 -15.36064778 14.90913571 -13.4375 13.0625 C-12.13990714 11.79501971 -10.84366694 10.52615303 -9.54882812 9.25585938 C-6.3813229 6.15430128 -3.19587286 3.07230882 0 0 Z " fill="#FADD25" transform="translate(56,458)"/>
<path d="M0 0 C4.36015743 1.37080707 7.381563 4.93602908 10.53515625 8.11083984 C12.26772718 9.85504248 14.02394876 11.57369465 15.78125 13.29296875 C18.28156509 15.75496363 20.77802786 18.22044375 23.25390625 20.70703125 C23.77154541 21.22579834 24.28918457 21.74456543 24.82250977 22.27905273 C26.89911065 24.57234951 27.0863578 25.86315772 27.4375 29.0234375 C27.0625 32.6484375 27.0625 32.6484375 24.875 35.0859375 C21.77102842 36.81036615 20.53617459 37.08134289 17.0625 36.6484375 C14.87890625 35.171875 14.87890625 35.171875 12.625 33.0234375 C11.77035156 32.21390625 10.91570312 31.404375 10.03515625 30.5703125 C9.04266408 29.59799155 8.05192311 28.62388132 7.0625 27.6484375 C6.47065918 27.07029297 5.87881836 26.49214844 5.26904297 25.89648438 C2.15096098 22.8449835 -0.95253829 19.77873558 -4.03125 16.6875 C-4.54365234 16.17396973 -5.05605469 15.66043945 -5.58398438 15.13134766 C-6.9375 13.6484375 -6.9375 13.6484375 -8.9375 10.6484375 C-8.75739972 7.28656557 -8.51862046 4.64925608 -6.8125 1.7109375 C-4.54371166 0.42529077 -2.61922586 -0.14187473 0 0 Z " fill="#CE96DE" transform="translate(68.9375,428.3515625)"/>
<path d="M0 0 C3.45201639 1.47721422 5.64961936 3.43794001 8.25 6.125 C8.95640625 6.84945312 9.6628125 7.57390625 10.390625 8.3203125 C11.18726563 9.15175781 11.18726563 9.15175781 12 10 C11.06409496 11.1055189 10.12620142 12.20935453 9.1875 13.3125 C8.66542969 13.92738281 8.14335937 14.54226562 7.60546875 15.17578125 C7.07566406 15.77777344 6.54585938 16.37976563 6 17 C5.52175781 17.59167969 5.04351562 18.18335937 4.55078125 18.79296875 C3 20 3 20 1.078125 19.94140625 C-1.62027893 18.71900898 -3.2113962 17.07803399 -5.25 14.9375 C-5.95640625 14.20402344 -6.6628125 13.47054687 -7.390625 12.71484375 C-7.92171875 12.14894531 -8.4528125 11.58304688 -9 11 C-7.59155282 7.78475695 -5.89655214 5.67816132 -3.375 3.25 C-2.74335938 2.63640625 -2.11171875 2.0228125 -1.4609375 1.390625 C-0.73777344 0.70226563 -0.73777344 0.70226563 0 0 Z " fill="#FBFDFE" transform="translate(443,60)"/>
<path d="M0 0 C1.12894876 0.93274109 2.25300876 1.87140122 3.375 2.8125 C4.00148438 3.33457031 4.62796875 3.85664063 5.2734375 4.39453125 C8.04299889 6.96984738 8.95809945 8.67078138 9.4375 12.4375 C9 16 9 16 6.8125 18.4375 C3.67952295 20.1780428 2.50660388 20.49504996 -1 20 C-3.67578125 18.06640625 -3.67578125 18.06640625 -6.3125 15.5625 C-7.19550781 14.73878906 -8.07851562 13.91507812 -8.98828125 13.06640625 C-11 11 -11 11 -11 10 C-9.63875 9.6596875 -9.63875 9.6596875 -8.25 9.3125 C-4.50226185 7.79899036 -3.19781232 6.33741871 -1 3 C-0.67 2.01 -0.34 1.02 0 0 Z " fill="#B466CF" transform="translate(258,290)"/>
<path d="M0 0 C1.12894876 0.93274109 2.25300876 1.87140122 3.375 2.8125 C4.00148438 3.33457031 4.62796875 3.85664063 5.2734375 4.39453125 C8.04299889 6.96984738 8.95809945 8.67078138 9.4375 12.4375 C9 16 9 16 6.8125 18.4375 C3.67892948 20.17837251 2.50716009 20.50028607 -1 20 C-3.67578125 18.03125 -3.67578125 18.03125 -6.3125 15.5 C-7.19550781 14.6646875 -8.07851562 13.829375 -8.98828125 12.96875 C-9.65214844 12.3190625 -10.31601563 11.669375 -11 11 C-10.01 10.67 -9.02 10.34 -8 10 C-3.90245515 6.98955889 -1.43820813 5.03372844 0 0 Z " fill="#B566CF" transform="translate(87,445)"/>
<path d="M0 0 C1.12588014 0.95729916 2.2506715 1.91587895 3.375 2.875 C4.00148438 3.40867188 4.62796875 3.94234375 5.2734375 4.4921875 C8.95438678 7.70677217 8.95438678 7.70677217 9.4375 10.8125 C9 14 9 14 6.9375 16.9375 C4 19 4 19 0.6875 19.3125 C-4.50070716 17.46585 -7.42216511 14.07966108 -11 10 C-10.39414062 9.72027344 -9.78828125 9.44054687 -9.1640625 9.15234375 C-5.15389466 7.01696557 -2.48880846 3.73321268 0 0 Z " fill="#B767D2" transform="translate(432,165)"/>
<path d="M0 0 C1.12588014 0.95729916 2.2506715 1.91587895 3.375 2.875 C4.00148438 3.40867188 4.62796875 3.94234375 5.2734375 4.4921875 C8.97321429 7.72321429 8.97321429 7.72321429 9.375 11.875 C9.28239711 14.86552865 9.0446108 15.92683828 7.4375 18.5625 C5 20 5 20 1.6875 20.1875 C-3.20286437 18.6126369 -5.7092162 15.83091245 -9 12 C-8.236875 11.2575 -7.47375 10.515 -6.6875 9.75 C-3.59109796 6.58158861 -1.40320511 4.20961534 0 0 Z " fill="#B868D3" transform="translate(397,172)"/>
<path d="M0 0 C0.33 0.99 0.66 1.98 1 3 C-8.57 12.57 -18.14 22.14 -28 32 C-28.66 31.67 -29.32 31.34 -30 31 C-29.23707642 30.24493164 -29.23707642 30.24493164 -28.45874023 29.47460938 C-26.11559272 27.15248022 -23.77653398 24.8262723 -21.4375 22.5 C-20.23770508 21.31277344 -20.23770508 21.31277344 -19.01367188 20.1015625 C-14.6654796 15.77111795 -10.46912469 11.37897062 -6.48632812 6.70898438 C-4.43469357 4.35000903 -2.24367378 2.17568366 0 0 Z " fill="#EBD33F" transform="translate(119,394)"/>
</svg>
