<?xml version="1.0" encoding="UTF-8"?>
<svg version="1.1" xmlns="http://www.w3.org/2000/svg" width="512" height="512">
<path d="M0 0 C1.22734863 0.34659668 1.22734863 0.34659668 2.47949219 0.70019531 C35.99780765 10.45030903 62.03958653 31.25450341 79.0234375 61.84326172 C88.46969548 79.14216554 100.1617019 105.89530775 96 126 C94.09375 128.34765625 94.09375 128.34765625 92 130 C91.34 130 90.68 130 90 130 C89.83749006 132.89809389 89.71892364 135.78704851 89.625 138.6875 C89.57472656 139.50412109 89.52445312 140.32074219 89.47265625 141.16210938 C89.24911013 145.70359735 89.24911013 145.70359735 91.34033203 149.52416992 C92.8831886 150.69654846 94.4411198 151.84901332 96 153 C104.05587369 178.94337819 80.74031148 224.57182412 69 247 C56.61230513 269.73752396 41.32607902 290.7913867 24 310 C23.10136791 311.0102436 22.20292211 312.02065296 21.3046875 313.03125 C15.96927189 318.95595032 10.43577918 324.66190124 4.8125 330.3125 C4.15918701 330.97048584 3.50587402 331.62847168 2.83276367 332.30639648 C-1.61517379 336.73976708 -6.2393117 340.90662394 -11 345 C-12.09457398 345.96130218 -13.1883686 346.92349275 -14.28125 347.88671875 C-22.20299632 354.80665457 -30.39640615 361.24538797 -38.88623047 367.45263672 C-41.04650673 369.03404477 -43.19709582 370.62806866 -45.34765625 372.22265625 C-55.91804051 380.01203382 -66.79039783 387.167249 -78 394 C-78.8132373 394.49935059 -79.62647461 394.99870117 -80.46435547 395.51318359 C-101.45182747 408.35320503 -123.23655641 420.08373185 -145.5 430.5625 C-146.45374512 431.02156738 -147.40749023 431.48063477 -148.39013672 431.95361328 C-149.2823291 432.36208496 -150.17452148 432.77055664 -151.09375 433.19140625 C-151.85365234 433.54404541 -152.61355469 433.89668457 -153.39648438 434.26000977 C-160.15178848 436.18005166 -165.29589844 434.95362928 -171.4453125 431.921875 C-172.12918533 431.59932236 -172.81305817 431.27676971 -173.51765442 430.94444275 C-175.72819657 429.89567048 -177.92664805 428.82406074 -180.125 427.75 C-181.65801072 427.01350862 -183.19129756 426.27759172 -184.72485352 425.54223633 C-196.70930561 419.76263727 -208.4465822 413.60028418 -220 407 C-221.59488746 406.10257196 -223.18993815 405.20543393 -224.78515625 404.30859375 C-255.99103306 386.6317044 -285.28408714 365.9446466 -312 342 C-312.54430664 341.51354004 -313.08861328 341.02708008 -313.64941406 340.52587891 C-325.82600773 329.59503875 -337.96097145 318.30772811 -348.078125 305.4140625 C-349.88091144 303.14958685 -351.7748792 301.05136896 -353.75 298.9375 C-386.28778448 262.64784375 -414.71063214 208.29543665 -416.375 158.8125 C-416.42398437 157.80832031 -416.47296875 156.80414063 -416.5234375 155.76953125 C-416 153 -416 153 -413.515625 151.23046875 C-410.65522152 148.69430355 -410.5985269 148.22276525 -410.3359375 144.59375 C-410.32269323 142.89583506 -410.33659429 141.19753219 -410.375 139.5 C-410.35566406 138.64535156 -410.33632813 137.79070312 -410.31640625 136.91015625 C-410.33527422 134.49128299 -410.43035045 132.3520008 -411 130 C-413.41501468 127.71857743 -413.41501468 127.71857743 -416 126 C-421.33853173 106.49865764 -407.85102553 77.14111637 -398.5625 60.4375 C-380.51124926 29.31745295 -353.52959755 9.36691946 -319.12109375 -0.23828125 C-305.14252004 -3.64982302 -305.14252004 -3.64982302 -299.5 -0.6875 C-298 1 -298 1 -298 4 C-291.4 4 -284.8 4 -278 4 C-277.34 2.35 -276.68 0.7 -276 -1 C-263.94438211 -7.02780895 -241.90158994 2.14002435 -229.9375 5.9375 C-205.40412632 14.17012841 -181.4436852 27.21866422 -161 43 C-158.3776089 41.73585091 -155.94047522 40.37081322 -153.5234375 38.75 C-124.29898869 19.36796368 -92.88939306 3.73723385 -58 -2 C-56.83339844 -2.19207031 -55.66679687 -2.38414063 -54.46484375 -2.58203125 C-37.2080887 -4.59891714 -16.74280033 -4.78931168 0 0 Z " fill="#FE5477" transform="translate(416,40)"/>
<path d="M0 0 C1.22734863 0.34659668 1.22734863 0.34659668 2.47949219 0.70019531 C35.99780765 10.45030903 62.03958653 31.25450341 79.0234375 61.84326172 C88.46969548 79.14216554 100.1617019 105.89530775 96 126 C94.09375 128.34765625 94.09375 128.34765625 92 130 C91.34 130 90.68 130 90 130 C89.83749006 132.89809389 89.71892364 135.78704851 89.625 138.6875 C89.57472656 139.50412109 89.52445312 140.32074219 89.47265625 141.16210938 C89.24911013 145.70359735 89.24911013 145.70359735 91.34033203 149.52416992 C92.8831886 150.69654846 94.4411198 151.84901332 96 153 C104.05587369 178.94337819 80.74031148 224.57182412 69 247 C56.61230513 269.73752396 41.32607902 290.7913867 24 310 C23.10136791 311.0102436 22.20292211 312.02065296 21.3046875 313.03125 C15.96927189 318.95595032 10.43577918 324.66190124 4.8125 330.3125 C4.15918701 330.97048584 3.50587402 331.62847168 2.83276367 332.30639648 C-1.61517379 336.73976708 -6.2393117 340.90662394 -11 345 C-12.09457398 345.96130218 -13.1883686 346.92349275 -14.28125 347.88671875 C-22.20299632 354.80665457 -30.39640615 361.24538797 -38.88623047 367.45263672 C-41.04650673 369.03404477 -43.19709582 370.62806866 -45.34765625 372.22265625 C-55.91804051 380.01203382 -66.79039783 387.167249 -78 394 C-78.8132373 394.49935059 -79.62647461 394.99870117 -80.46435547 395.51318359 C-101.45182747 408.35320503 -123.23655641 420.08373185 -145.5 430.5625 C-146.45374512 431.02156738 -147.40749023 431.48063477 -148.39013672 431.95361328 C-149.2823291 432.36208496 -150.17452148 432.77055664 -151.09375 433.19140625 C-151.85365234 433.54404541 -152.61355469 433.89668457 -153.39648438 434.26000977 C-160.15178848 436.18005166 -165.29589844 434.95362928 -171.4453125 431.921875 C-172.12918533 431.59932236 -172.81305817 431.27676971 -173.51765442 430.94444275 C-175.72819657 429.89567048 -177.92664805 428.82406074 -180.125 427.75 C-181.65801072 427.01350862 -183.19129756 426.27759172 -184.72485352 425.54223633 C-196.70930561 419.76263727 -208.4465822 413.60028418 -220 407 C-221.59488746 406.10257196 -223.18993815 405.20543393 -224.78515625 404.30859375 C-255.99103306 386.6317044 -285.28408714 365.9446466 -312 342 C-312.54430664 341.51354004 -313.08861328 341.02708008 -313.64941406 340.52587891 C-325.82600773 329.59503875 -337.96097145 318.30772811 -348.078125 305.4140625 C-349.88091144 303.14958685 -351.7748792 301.05136896 -353.75 298.9375 C-386.35847837 262.56899828 -416.96323128 205.69453295 -416.3359375 155.69921875 C-416 153 -416 153 -414 150.125 C-410.36183524 148.76068821 -408.43258522 149.11333679 -404.76953125 150.12890625 C-403 151 -403 151 -401 154 C-400.56803698 155.96328975 -400.22011269 157.94559149 -399.921875 159.93359375 C-399.73391357 161.12992432 -399.54595215 162.32625488 -399.35229492 163.55883789 C-399.1535376 164.83879639 -398.95478027 166.11875488 -398.75 167.4375 C-394.61672896 192.83072389 -386.05179247 216.29548055 -374 239 C-373.63712891 239.69770508 -373.27425781 240.39541016 -372.90039062 241.11425781 C-361.00977684 263.90289541 -345.36079836 284.12816919 -328 303 C-326.49934876 304.68692089 -324.99935807 306.37442962 -323.5 308.0625 C-317.3869665 314.84530934 -311.0101891 321.26190089 -304.07421875 327.203125 C-301.79842282 329.1746243 -299.59077333 331.21134395 -297.375 333.25 C-291.85771634 338.22653916 -286.05585971 342.80087372 -280.16821289 347.32666016 C-278.49189202 348.62037745 -276.82329145 349.92410185 -275.15795898 351.23193359 C-267.23083082 357.4336668 -259.07535739 363.19035327 -250.6875 368.75 C-250.04103516 369.17998291 -249.39457031 369.60996582 -248.72851562 370.05297852 C-237.36398044 377.59826186 -225.79560564 384.70599732 -213.89208984 391.37548828 C-210.85040871 393.08402671 -207.82596825 394.82104315 -204.80078125 396.55859375 C-202.80565443 397.68660776 -200.80959479 398.81297385 -198.8125 399.9375 C-197.89726562 400.46472656 -196.98203125 400.99195313 -196.0390625 401.53515625 C-195.18699219 402.00695312 -194.33492187 402.47875 -193.45703125 402.96484375 C-192.71428955 403.3837085 -191.97154785 403.80257324 -191.20629883 404.23413086 C-187.64708414 405.46963562 -185.11297711 404.49377963 -181.76196289 403.00708008 C-180.6287561 402.39449341 -180.6287561 402.39449341 -179.47265625 401.76953125 C-178.60914551 401.30345459 -177.74563477 400.83737793 -176.85595703 400.35717773 C-175.93411621 399.84743408 -175.01227539 399.33769043 -174.0625 398.8125 C-173.09683105 398.28148682 -172.13116211 397.75047363 -171.13623047 397.20336914 C-139.99169387 379.85069251 -109.75370967 358.73782841 -83.625 334.4140625 C-81.50993211 332.46895542 -79.36646725 330.58345566 -77.19140625 328.70703125 C-72.93264672 324.9927296 -68.92053599 321.06871564 -64.9375 317.0625 C-64.26912109 316.39798828 -63.60074219 315.73347656 -62.91210938 315.04882812 C-58.40299812 310.5309528 -54.14245212 305.85495148 -50 301 C-49.46093018 300.37295166 -48.92186035 299.74590332 -48.36645508 299.09985352 C-7.09110976 250.78462709 21.12896659 190.52490713 18 126 C15.14005558 89.86184264 0.41140984 55.47172079 -27.046875 31.34765625 C-32.41208403 27.082457 -38.10770556 23.48741613 -44 20 C-45.38445312 19.15501953 -45.38445312 19.15501953 -46.796875 18.29296875 C-52.71905812 14.95484379 -56.45053723 14.45673578 -63 16 C-64.87171875 16.37898438 -64.87171875 16.37898438 -66.78125 16.765625 C-94.57811087 22.59833459 -121.07836579 36.23405151 -144.1171875 52.61328125 C-144.97393066 53.21793213 -145.83067383 53.82258301 -146.71337891 54.44555664 C-148.36622096 55.62131753 -150.00731012 56.8138339 -151.63427734 58.02514648 C-157.13849924 61.96600737 -157.13849924 61.96600737 -161.16796875 62.125 C-164.60629641 60.75915398 -167.1249646 59.00684256 -170.0625 56.75 C-198.07357079 36.00077748 -231.17984463 18.8393677 -266.11206055 14.40234375 C-270.42415294 13.79801162 -272.56215511 13.34525603 -276.06640625 10.58203125 C-278 8 -278 8 -278.5625 4.9375 C-277.86911217 1.31647468 -276.82580243 0.30538787 -274 -2 C-246.94079816 -8.83551266 -206.38889696 14.31278728 -183.76171875 27.5859375 C-175.87905309 32.35596769 -168.29513643 37.36857903 -161 43 C-158.3776089 41.73585091 -155.94047522 40.37081322 -153.5234375 38.75 C-124.29898869 19.36796368 -92.88939306 3.73723385 -58 -2 C-56.83339844 -2.19207031 -55.66679687 -2.38414063 -54.46484375 -2.58203125 C-37.2080887 -4.59891714 -16.74280033 -4.78931168 0 0 Z " fill="#EC3B60" transform="translate(416,40)"/>
<path d="M0 0 C1.76953125 0.87109375 1.76953125 0.87109375 3.76953125 3.87109375 C4.20149427 5.8343835 4.54941856 7.81668524 4.84765625 9.8046875 C5.03561768 11.00101807 5.2235791 12.19734863 5.41723633 13.42993164 C5.61599365 14.70989014 5.81475098 15.98984863 6.01953125 17.30859375 C10.15280229 42.70181764 18.71773878 66.1665743 30.76953125 88.87109375 C31.13240234 89.56879883 31.49527344 90.26650391 31.86914062 90.98535156 C43.75975441 113.77398916 59.40873289 133.99926294 76.76953125 152.87109375 C78.27018249 154.55801464 79.77017318 156.24552337 81.26953125 157.93359375 C87.38256475 164.71640309 93.75934215 171.13299464 100.6953125 177.07421875 C102.97110843 179.04571805 105.17875792 181.0824377 107.39453125 183.12109375 C112.91181491 188.09763291 118.71367154 192.67196747 124.60131836 197.19775391 C126.27763923 198.4914712 127.9462398 199.7951956 129.61157227 201.10302734 C137.53864823 207.30471971 145.69384013 213.06202209 154.08203125 218.62109375 C155.05372253 219.26706512 155.05372253 219.26706512 156.04504395 219.92608643 C168.33653161 228.08200455 180.87390638 235.70289054 193.76953125 242.87109375 C195.33864258 243.74822021 195.33864258 243.74822021 196.93945312 244.64306641 C208.80194993 251.2458105 220.79048478 257.53918812 233.08203125 263.30859375 C234.08427734 263.78772217 235.08652344 264.26685059 236.11914062 264.76049805 C237.05177734 265.18758057 237.98441406 265.61466309 238.9453125 266.0546875 C239.75911377 266.43165771 240.57291504 266.80862793 241.41137695 267.19702148 C246.21535071 268.57022487 250.07283234 266.42339638 254.390625 264.3515625 C255.47923828 263.83037842 256.56785156 263.30919434 257.68945312 262.7722168 C258.85025391 262.20672119 260.01105469 261.64122559 261.20703125 261.05859375 C261.80733154 260.76731598 262.40763184 260.47603821 263.02612305 260.17593384 C302.44199842 241.02602657 340.14924833 218.06717405 373.76953125 189.87109375 C375.25453125 188.64712891 375.25453125 188.64712891 376.76953125 187.3984375 C390.14844279 176.30630694 403.37793876 164.46291478 414.71484375 151.26171875 C416.25703655 149.46738036 417.817445 147.68867166 419.38671875 145.91796875 C433.3122942 130.11362075 445.10022426 113.01305247 455.76953125 94.87109375 C456.15834473 94.21753906 456.5471582 93.56398438 456.94775391 92.890625 C472.21746667 66.95110374 481.93610016 36.28868911 485.08203125 6.40234375 C485.94556095 3.22298441 487.23243282 1.92693778 489.76953125 -0.12890625 C493.42347307 -1.37280134 495.06771164 -1.41878826 498.64453125 0.05859375 C502.59117406 5.28209158 501.28148441 11.02554697 500.45166016 17.25878906 C492.51945747 71.10839043 464.85567459 119.86407472 428.76953125 159.87109375 C427.87089916 160.88133735 426.97245336 161.89174671 426.07421875 162.90234375 C420.73880314 168.82704407 415.20531043 174.53299499 409.58203125 180.18359375 C408.92871826 180.84157959 408.27540527 181.49956543 407.60229492 182.17749023 C403.15435746 186.61086083 398.53021955 190.77771769 393.76953125 194.87109375 C392.67495727 195.83239593 391.58116265 196.7945865 390.48828125 197.7578125 C382.56653493 204.67774832 374.3731251 211.11648172 365.88330078 217.32373047 C363.72302452 218.90513852 361.57243543 220.49916241 359.421875 222.09375 C348.85149074 229.88312757 337.97913342 237.03834275 326.76953125 243.87109375 C325.95629395 244.37044434 325.14305664 244.86979492 324.30517578 245.38427734 C303.31770378 258.22429878 281.53297484 269.9548256 259.26953125 280.43359375 C258.31578613 280.89266113 257.36204102 281.35172852 256.37939453 281.82470703 C255.48720215 282.23317871 254.59500977 282.64165039 253.67578125 283.0625 C252.91587891 283.41513916 252.15597656 283.76777832 251.37304688 284.13110352 C244.61774277 286.05114541 239.47363281 284.82472303 233.32421875 281.79296875 C232.64034592 281.47041611 231.95647308 281.14786346 231.25187683 280.8155365 C229.04133468 279.76676423 226.8428832 278.69515449 224.64453125 277.62109375 C223.11152053 276.88460237 221.57823369 276.14868547 220.04467773 275.41333008 C208.06022564 269.63373102 196.32294905 263.47137793 184.76953125 256.87109375 C183.17464379 255.97366571 181.5795931 255.07652768 179.984375 254.1796875 C148.77849819 236.50279815 119.48544411 215.81574035 92.76953125 191.87109375 C92.22522461 191.38463379 91.68091797 190.89817383 91.12011719 190.39697266 C78.94352352 179.4661325 66.8085598 168.17882186 56.69140625 155.28515625 C54.88861981 153.0206806 52.99465205 150.92246271 51.01953125 148.80859375 C18.41105288 112.44009203 -12.19370003 55.5656267 -11.56640625 5.5703125 C-11.23046875 2.87109375 -11.23046875 2.87109375 -9.23046875 -0.00390625 C-5.59230399 -1.36821804 -3.66305397 -1.01556946 0 0 Z " fill="#010000" transform="translate(11.23046875,190.12890625)"/>
<path d="M0 0 C1.22734863 0.34659668 1.22734863 0.34659668 2.47949219 0.70019531 C35.99780765 10.45030903 62.03958653 31.25450341 79.0234375 61.84326172 C88.46969548 79.14216554 100.1617019 105.89530775 96 126 C94.2578125 128.3828125 94.2578125 128.3828125 92 130 C89.7109375 130.05859375 89.7109375 130.05859375 87.375 129.4375 C86.59898437 129.25058594 85.82296875 129.06367188 85.0234375 128.87109375 C83 128 83 128 81 125 C80.5769043 123.09326172 80.5769043 123.09326172 80.32421875 120.9296875 C80.1701355 119.7219165 80.1701355 119.7219165 80.01293945 118.48974609 C79.90554443 117.62687988 79.79814941 116.76401367 79.6875 115.875 C76.25567273 91.26066757 66.76919427 69.27345966 51 50 C50.50371094 49.35675781 50.00742187 48.71351562 49.49609375 48.05078125 C33.75059918 28.59582179 7.00203514 15.96987247 -17.62158203 13.19921875 C-49.9930199 10.48775362 -80.06563865 17.86062991 -109 32 C-109.77134277 32.3707666 -110.54268555 32.7415332 -111.33740234 33.12353516 C-123.86580694 39.19751003 -135.33574263 46.62892306 -146.83203125 54.4609375 C-147.74033691 55.07678711 -148.64864258 55.69263672 -149.58447266 56.32714844 C-151.01786978 57.31983462 -152.43625823 58.33583564 -153.81787109 59.39941406 C-156.36752107 61.3283875 -157.75550321 61.99872492 -160.99609375 62.015625 C-164.62166237 60.78981506 -167.02515368 59.08352505 -170.0625 56.75 C-198.07357079 36.00077748 -231.17984463 18.8393677 -266.11206055 14.40234375 C-270.42415294 13.79801162 -272.56215511 13.34525603 -276.06640625 10.58203125 C-278 8 -278 8 -278.5625 4.9375 C-277.86911217 1.31647468 -276.82580243 0.30538787 -274 -2 C-246.94079816 -8.83551266 -206.38889696 14.31278728 -183.76171875 27.5859375 C-175.87905309 32.35596769 -168.29513643 37.36857903 -161 43 C-158.3776089 41.73585091 -155.94047522 40.37081322 -153.5234375 38.75 C-124.29898869 19.36796368 -92.88939306 3.73723385 -58 -2 C-56.83339844 -2.19207031 -55.66679687 -2.38414063 -54.46484375 -2.58203125 C-37.2080887 -4.59891714 -16.74280033 -4.78931168 0 0 Z " fill="#020000" transform="translate(416,40)"/>
<path d="M0 0 C1.92453245 2.56604326 1.98263421 4.81089459 2.03125 7.96484375 C1.23213982 11.02614083 0.03156834 12.10132374 -2.5 14 C-5.29024885 14.78150124 -7.91229308 15.37507445 -10.75 15.875 C-29.62469462 19.67132668 -45.8789839 27.37162664 -60.5 40 C-61.24636719 40.60199219 -61.99273437 41.20398438 -62.76171875 41.82421875 C-85.85461701 61.04814976 -97.88148244 93.06663484 -101.04296875 122.21484375 C-101.49052651 124.94226839 -101.93001795 126.73282197 -103.5 129 C-105.26953125 129.96875 -105.26953125 129.96875 -107.3125 130.5 C-107.97894531 130.6959375 -108.64539063 130.891875 -109.33203125 131.09375 C-112.74498173 130.94616295 -114.18362637 129.40378396 -116.5 127 C-121.83853173 107.49865764 -108.35102553 78.14111637 -99.0625 61.4375 C-81.01124926 30.31745295 -54.02959755 10.36691946 -19.62109375 0.76171875 C-13.30905905 -0.77876531 -6.24087378 -2.49634951 0 0 Z " fill="#010000" transform="translate(116.5,39)"/>
</svg>
