<?xml version="1.0" encoding="UTF-8"?>
<svg version="1.1" xmlns="http://www.w3.org/2000/svg" width="512" height="512">
<path d="M0 0 C0.83199921 0.00215515 1.66399841 0.0043103 2.52120972 0.00653076 C14.94401283 0.05807334 27.05429246 0.39707254 39.1875 3.3125 C40.02410156 3.51117676 40.86070312 3.70985352 41.72265625 3.91455078 C91.83689994 16.23091958 132.67646429 48.26248131 159.26904297 92.09521484 C179.14772319 125.75545073 187.85626219 168.271608 178.65136719 206.54150391 C176.1744427 215.8909313 172.55174163 224.68447243 168.1875 233.3125 C167.47787109 234.72982422 167.47787109 234.72982422 166.75390625 236.17578125 C144.46504949 278.88098918 99.60603042 306.6811316 55.09375 321.40136719 C40.09229695 326.1044437 24.76780602 329.30081907 9.1875 331.3125 C8.50039948 331.40748779 7.81329895 331.50247559 7.1053772 331.6003418 C1.88057632 332.26664772 -2.991103 332.2455283 -8.23046875 331.85546875 C-27.68538055 330.32635621 -27.68538055 330.32635621 -44.8125 337.95703125 C-49.58480576 342.33538576 -53.53821457 347.41130166 -57.47436523 352.53833008 C-61.35784298 357.14603162 -66.01589216 360.70230171 -70.8125 364.3125 C-72.15163452 365.32836182 -72.15163452 365.32836182 -73.51782227 366.36474609 C-82.78592515 373.28582551 -93.11643828 377.60153111 -104.8125 376.3125 C-107.8125 374.875 -107.8125 374.875 -109.8125 372.3125 C-111.77724713 366.32149209 -112.19733173 360.19908355 -112.1875 353.9375 C-112.18878906 353.05336426 -112.19007813 352.16922852 -112.19140625 351.25830078 C-112.05608201 342.3253631 -110.73948047 333.60888364 -109.23583984 324.81494141 C-106.56981384 313.31336748 -106.56981384 313.31336748 -109.07861328 302.46191406 C-110.91325689 300.76847765 -112.80319466 299.39257539 -114.875 298 C-116.35008219 296.90735877 -117.82134407 295.80954426 -119.2890625 294.70703125 C-120.04219727 294.15225098 -120.79533203 293.5974707 -121.57128906 293.02587891 C-131.52405522 285.41710844 -140.27172923 276.2801855 -147.8125 266.3125 C-148.54726562 265.38179688 -149.28203125 264.45109375 -150.0390625 263.4921875 C-175.68746786 230.44011873 -187.57989515 189.53934532 -183.125 147.875 C-178.6037049 112.21028265 -162.88509781 79.96649138 -137.8125 54.3125 C-136.96429688 53.40242188 -136.11609375 52.49234375 -135.2421875 51.5546875 C-111.4619774 26.63870617 -78.23789871 11.06208867 -44.875 3.9375 C-44.20436523 3.79417236 -43.53373047 3.65084473 -42.84277344 3.50317383 C-28.63692955 0.73043852 -14.43774385 -0.06774117 0 0 Z " fill="#FEAB2A" transform="translate(256.8125,67.6875)"/>
<path d="M0 0 C0.83199921 0.00215515 1.66399841 0.0043103 2.52120972 0.00653076 C14.94401283 0.05807334 27.05429246 0.39707254 39.1875 3.3125 C40.02410156 3.51117676 40.86070312 3.70985352 41.72265625 3.91455078 C91.83689994 16.23091958 132.67646429 48.26248131 159.26904297 92.09521484 C179.14772319 125.75545073 187.85626219 168.271608 178.65136719 206.54150391 C176.1744427 215.8909313 172.55174163 224.68447243 168.1875 233.3125 C167.47787109 234.72982422 167.47787109 234.72982422 166.75390625 236.17578125 C144.46504949 278.88098918 99.60603042 306.6811316 55.09375 321.40136719 C40.09229695 326.1044437 24.76780602 329.30081907 9.1875 331.3125 C8.50039948 331.40748779 7.81329895 331.50247559 7.1053772 331.6003418 C1.88057632 332.26664772 -2.991103 332.2455283 -8.23046875 331.85546875 C-27.68538055 330.32635621 -27.68538055 330.32635621 -44.8125 337.95703125 C-49.58480576 342.33538576 -53.53821457 347.41130166 -57.47436523 352.53833008 C-61.35784298 357.14603162 -66.01589216 360.70230171 -70.8125 364.3125 C-72.15163452 365.32836182 -72.15163452 365.32836182 -73.51782227 366.36474609 C-82.78592515 373.28582551 -93.11643828 377.60153111 -104.8125 376.3125 C-107.8125 374.875 -107.8125 374.875 -109.8125 372.3125 C-111.77724713 366.32149209 -112.19733173 360.19908355 -112.1875 353.9375 C-112.18878906 353.05336426 -112.19007813 352.16922852 -112.19140625 351.25830078 C-112.05608201 342.3253631 -110.73948047 333.60888364 -109.23583984 324.81494141 C-106.56981384 313.31336748 -106.56981384 313.31336748 -109.07861328 302.46191406 C-110.91325689 300.76847765 -112.80319466 299.39257539 -114.875 298 C-116.35008219 296.90735877 -117.82134407 295.80954426 -119.2890625 294.70703125 C-120.04219727 294.15225098 -120.79533203 293.5974707 -121.57128906 293.02587891 C-131.52405522 285.41710844 -140.27172923 276.2801855 -147.8125 266.3125 C-148.54726562 265.38179688 -149.28203125 264.45109375 -150.0390625 263.4921875 C-175.68746786 230.44011873 -187.57989515 189.53934532 -183.125 147.875 C-178.6037049 112.21028265 -162.88509781 79.96649138 -137.8125 54.3125 C-136.96429688 53.40242188 -136.11609375 52.49234375 -135.2421875 51.5546875 C-111.4619774 26.63870617 -78.23789871 11.06208867 -44.875 3.9375 C-44.20436523 3.79417236 -43.53373047 3.65084473 -42.84277344 3.50317383 C-28.63692955 0.73043852 -14.43774385 -0.06774117 0 0 Z M-41.8125 31.3125 C-42.62090332 31.52680664 -43.42930664 31.74111328 -44.26220703 31.96191406 C-82.47230743 42.38078248 -117.47714657 65.84108173 -137.8125 100.3125 C-140.73558688 105.52573674 -143.34622927 110.87013882 -145.8125 116.3125 C-146.53759766 117.91158203 -146.53759766 117.91158203 -147.27734375 119.54296875 C-160.37477357 150.95291442 -157.47609376 188.33283794 -144.8125 219.3125 C-136.30928372 239.68554932 -121.69850328 257.25024309 -104.8125 271.3125 C-102.24210949 273.51172553 -99.68380258 275.72481416 -97.125 277.9375 C-96.48264404 278.48857422 -95.84028809 279.03964844 -95.1784668 279.60742188 C-85.48617589 287.96514821 -85.48617589 287.96514821 -83.8125 291.3125 C-83.78438613 292.96355081 -83.82420164 294.61600438 -83.8984375 296.265625 C-83.94170166 297.27052979 -83.98496582 298.27543457 -84.02954102 299.31079102 C-84.10773071 300.92038696 -84.10773071 300.92038696 -84.1875 302.5625 C-84.23640381 303.65554443 -84.28530762 304.74858887 -84.33569336 305.87475586 C-84.59865856 311.55017593 -84.92427967 317.21160101 -85.375 322.875 C-85.9394906 330.02815426 -85.90289176 337.14142054 -85.8125 344.3125 C-80.88218838 341.71860298 -77.13129793 338.11524031 -73.125 334.3125 C-72.41674072 333.64404053 -71.70848145 332.97558105 -70.97875977 332.28686523 C-64.51562639 326.13153518 -58.55889335 319.64711212 -52.72265625 312.89453125 C-51.77712891 311.80205078 -51.77712891 311.80205078 -50.8125 310.6875 C-50.008125 309.74003906 -50.008125 309.74003906 -49.1875 308.7734375 C-46.93860508 306.38398664 -45.83470473 306.31344554 -42.48144531 306.1706543 C-41.03454128 306.15541152 -39.58758878 306.14442853 -38.140625 306.13671875 C-36.52456181 306.11673946 -34.9085135 306.0955277 -33.29248047 306.07324219 C-32.43958435 306.06208374 -31.58668823 306.05092529 -30.70794678 306.03942871 C-12.47647158 305.7677001 5.20486473 304.51563974 23.1875 301.3125 C24.14172852 301.14266602 25.09595703 300.97283203 26.07910156 300.79785156 C53.86903395 295.58035435 80.81476208 283.55518336 103.1875 266.3125 C104.06535156 265.64605469 104.94320313 264.97960937 105.84765625 264.29296875 C130.29293602 245.27136437 146.36229592 222.07293017 152.1875 191.3125 C152.46400391 189.99572266 152.46400391 189.99572266 152.74609375 188.65234375 C157.38694406 153.53794542 145.05035139 117.38425836 123.81445312 89.51025391 C120.73453462 85.66035577 117.47973414 81.98126531 114.1875 78.3125 C113.39085937 77.3946875 112.59421875 76.476875 111.7734375 75.53125 C96.32163814 57.902393 76.53973498 45.61060493 55.1875 36.3125 C54.39472656 35.94382812 53.60195313 35.57515625 52.78515625 35.1953125 C39.48564106 29.32988529 24.20707248 27.2272536 9.76953125 27.07421875 C8.99810791 27.0644249 8.22668457 27.05463104 7.43188477 27.04454041 C-9.32532249 26.87549139 -25.51740741 26.89679539 -41.8125 31.3125 Z " fill="#4D4D4C" transform="translate(256.8125,67.6875)"/>
<path d="M0 0 C6.81603705 5.24106927 10.16506242 11.53117461 11.61938477 19.93237305 C12.96550813 30.7816611 11.808425 41.61885398 10.25 52.375 C9.98364746 54.31330688 9.98364746 54.31330688 9.71191406 56.29077148 C8.85603281 62.46548553 7.91511081 68.62052552 6.84375 74.76171875 C5.08978705 84.82048872 3.64281358 94.5794874 3.625 104.8125 C3.62258301 106.12069702 3.62258301 106.12069702 3.62011719 107.45532227 C3.69400546 111.55653183 3.85251612 114.40565366 6 118 C7.79428135 119.39693065 7.79428135 119.39693065 9.875 120.5 C17.41668284 125.04417187 17.41668284 125.04417187 18.59765625 129.00390625 C19.44461037 133.86361389 19.14597089 137.31215308 16.36328125 141.43359375 C11.44120554 147.08904464 5.62636989 149.52118689 -1.79296875 150.2890625 C-9.2313942 150.64731366 -13.98122384 149.34023301 -20 145 C-21.60875 143.8553125 -21.60875 143.8553125 -23.25 142.6875 C-30.35251431 135.74640647 -33.9591631 126.86413223 -34.3984375 116.94921875 C-34.41121167 115.19534162 -34.40263125 113.44120599 -34.375 111.6875 C-34.36557373 110.73456055 -34.35614746 109.78162109 -34.34643555 108.79980469 C-34.06862998 95.38102088 -31.70487622 82.40428601 -29.05029297 69.28173828 C-28.82744629 68.17813965 -28.60459961 67.07454102 -28.375 65.9375 C-28.15473145 64.84937012 -27.93446289 63.76124023 -27.70751953 62.64013672 C-25.79006918 52.76608051 -25.12467782 43.04223166 -25 33 C-26.07121094 33.6496875 -27.14242187 34.299375 -28.24609375 34.96875 C-32.59226594 37.44415474 -34.99761514 37.63522347 -40 37 C-43.13780801 35.37298844 -45.24513472 33.95178666 -47.4375 31.1875 C-48.74682984 26.09566174 -47.13528869 21.90709458 -44.75 17.4375 C-39.23962238 8.21191027 -31.51156176 0.81976649 -21.05859375 -2.56640625 C-13.87855932 -4.07870952 -6.52896403 -3.44012205 0 0 Z " fill="#4E4D4C" transform="translate(264,191)"/>
<path d="M0 0 C8.00012367 4.3626052 13.57692669 9.81424862 16.5234375 18.70703125 C17.83966673 26.35578558 17.69500923 33.15993668 13.41796875 39.78515625 C8.86140737 45.58756226 3.08928406 49.92872212 -4.125 51.75 C-11.44353618 52.61893572 -18.83548647 53.21268535 -25.375 49.25 C-30.41983819 45.18717229 -32.81811475 39.99400731 -34.125 33.75 C-35.15136532 23.60477359 -32.17606048 15.14212426 -26.1640625 7.01953125 C-18.98612918 -0.96970104 -10.11460293 -4.91409919 0 0 Z " fill="#4E4E4C" transform="translate(262.125,124.25)"/>
</svg>
