<?xml version="1.0" encoding="UTF-8"?>
<svg version="1.1" xmlns="http://www.w3.org/2000/svg" width="512" height="512">
<path d="M0 0 C1.0415625 0.75796875 2.083125 1.5159375 3.15625 2.296875 C26.11895748 19.31124585 44.81734565 40.58655457 58 66 C58.3619043 66.69254883 58.72380859 67.38509766 59.09667969 68.09863281 C80.65795196 109.91610461 85.65357744 160.57320719 71.73876953 205.69238281 C56.32369667 253.84283513 24.72800701 293.09993572 -20 317 C-21.03511719 317.58136719 -22.07023437 318.16273438 -23.13671875 318.76171875 C-64.28646253 340.85054382 -115.78151325 343.56737616 -160.16796875 330.8515625 C-180.61716479 324.5887157 -200.09274118 315.14124087 -217 302 C-219.85779017 303.29719924 -221.91008536 304.6636826 -224.11621094 306.88916016 C-224.69651062 307.4696109 -225.2768103 308.05006165 -225.87469482 308.64810181 C-226.48838928 309.27211884 -227.10208374 309.89613586 -227.734375 310.5390625 C-228.37240051 311.17991791 -229.01042603 311.82077332 -229.66778564 312.48104858 C-231.69994069 314.52437821 -233.72502218 316.57455982 -235.75 318.625 C-237.1284453 320.0134786 -238.50734636 321.4015049 -239.88671875 322.7890625 C-243.26311894 326.18748697 -246.63319288 329.59207254 -250 333 C-248.60240095 336.54518884 -248.60240095 336.54518884 -247 340 C-246.76171875 341.953125 -246.76171875 341.953125 -246.6875 344.25 C-246.65011719 344.99765625 -246.61273438 345.7453125 -246.57421875 346.515625 C-247.86350535 354.03843488 -255.45078418 359.74638309 -260.56689453 364.85742188 C-261.54671861 365.84323758 -262.52613383 366.8294598 -263.50517273 367.8160553 C-266.15562384 370.48411121 -268.81247098 373.14570666 -271.47109842 375.80561256 C-273.13535743 377.47129711 -274.79818249 379.13839944 -276.46050644 380.80601501 C-282.27004953 386.63404168 -288.0847169 392.45689837 -293.90429688 398.27490234 C-299.3120303 403.68143554 -304.70852194 409.09901057 -310.09982789 414.52192068 C-314.74252914 419.1908562 -319.39299368 423.85196342 -324.04946792 428.50716257 C-326.82438501 431.28157204 -329.59617337 434.05893248 -332.36017227 436.84422302 C-334.963097 439.46665039 -337.57563915 442.07911521 -340.19555092 444.68456841 C-341.60059708 446.08655901 -342.99583583 447.4983575 -344.39064026 448.91053772 C-354.39427511 458.81634009 -364.74629524 464.93506541 -379.0625 465.375 C-390.85077498 465.00994374 -401.15406863 460.36890363 -409.3125 451.8125 C-417.75575103 441.71136364 -419.80986522 430.8378635 -419 418 C-416.84330456 405.27915233 -408.83414355 396.24037259 -399.94311523 387.44140625 C-398.93474273 386.4292417 -397.92722914 385.41622084 -396.92050171 384.40242004 C-394.20868672 381.67675667 -391.48461528 378.9636699 -388.75759768 376.25322723 C-385.89620499 373.40577382 -383.04506953 370.5480801 -380.19239807 367.69189453 C-375.4071357 362.903939 -370.61389163 358.12409121 -365.81567383 353.34912109 C-360.2723664 347.83248621 -354.74167047 342.30344952 -349.21754879 336.76760769 C-343.89050231 331.4297807 -338.55500963 326.10047558 -333.21550179 320.77511597 C-330.94775217 318.51311686 -328.68293851 316.24823733 -326.42043877 313.98098755 C-323.75883571 311.31460973 -321.08989639 308.65579784 -318.4151268 306.00263023 C-317.43579876 305.02886086 -316.45899752 304.05254258 -315.4849453 303.07349586 C-314.15396462 301.73654847 -312.81280375 300.40975899 -311.47117615 299.08349609 C-310.72402061 298.33877045 -309.97686506 297.5940448 -309.20706844 296.82675171 C-305.06644471 293.39963032 -301.14054229 292.63437053 -295.921875 292.72265625 C-293.2070351 293.11443193 -291.31328791 294.58632405 -289 296 C-286.06519609 294.89372962 -284.07291382 293.31916744 -281.88378906 291.11083984 C-281.30348938 290.5303891 -280.7231897 289.94993835 -280.12530518 289.35189819 C-279.51161072 288.72788116 -278.89791626 288.10386414 -278.265625 287.4609375 C-277.62759949 286.82008209 -276.98957397 286.17922668 -276.33221436 285.51895142 C-274.30005931 283.47562179 -272.27497782 281.42544018 -270.25 279.375 C-268.8715547 277.9865214 -267.49265364 276.5984951 -266.11328125 275.2109375 C-262.73688106 271.81251303 -259.36680712 268.40792746 -256 265 C-257.3575042 261.47485054 -258.79146919 258.71017222 -261.0625 255.6875 C-277.69368743 232.25891854 -287.01828283 204.30170193 -291 176 C-291.14248169 175.00613281 -291.14248169 175.00613281 -291.2878418 173.9921875 C-293.46927694 157.05261645 -292.96628683 138.82239296 -290 122 C-289.87109375 121.25524414 -289.7421875 120.51048828 -289.609375 119.74316406 C-282.77448602 81.50259309 -264.59696766 48.94727525 -238 21 C-237.34773437 20.29488281 -236.69546875 19.58976562 -236.0234375 18.86328125 C-176.69846451 -43.36482872 -68.52130592 -50.42860155 0 0 Z " fill="#F8C21D" transform="translate(426,40)"/>
<path d="M0 0 C2.49259665 2.20858264 4.93059518 4.46361345 7.35546875 6.74609375 C7.94714844 7.27332031 8.53882813 7.80054688 9.1484375 8.34375 C24.44479648 22.55010715 34.74885983 42.88832473 40.35546875 62.74609375 C40.57589844 63.4525 40.79632813 64.15890625 41.0234375 64.88671875 C49.72389309 94.97852003 43.07539887 128.18079543 29.04296875 155.43359375 C23.17991398 165.94843484 15.57519286 175.00594018 7.35546875 183.74609375 C6.54916016 184.64908203 6.54916016 184.64908203 5.7265625 185.5703125 C-14.91875941 207.76791425 -47.47161359 218.74435741 -77.0390625 220.0234375 C-87.66157216 220.30317823 -97.32561399 219.37168492 -107.64453125 216.74609375 C-108.8046875 216.50246094 -109.96484375 216.25882813 -111.16015625 216.0078125 C-132.95514214 211.03081897 -151.65458817 199.03472354 -167.64453125 183.74609375 C-168.31742188 183.13636719 -168.9903125 182.52664063 -169.68359375 181.8984375 C-191.51744488 161.41289192 -203.78459164 129.41398804 -204.7734375 99.8984375 C-205.44264863 64.56573198 -193.09617424 33.31937174 -168.64453125 7.74609375 C-168.03480469 7.07320312 -167.42507812 6.4003125 -166.796875 5.70703125 C-152.56643551 -9.4600189 -132.45353559 -19.66106547 -112.64453125 -25.25390625 C-111.938125 -25.47433594 -111.23171875 -25.69476563 -110.50390625 -25.921875 C-72.74605029 -36.83882031 -29.38962881 -25.04847241 0 0 Z " fill="#FEFEFE" transform="translate(399.64453125,97.25390625)"/>
<path d="M0 0 C1.0415625 0.75796875 2.083125 1.5159375 3.15625 2.296875 C26.11895748 19.31124585 44.81734565 40.58655457 58 66 C58.3619043 66.69254883 58.72380859 67.38509766 59.09667969 68.09863281 C80.65795196 109.91610461 85.65357744 160.57320719 71.73876953 205.69238281 C56.32369667 253.84283513 24.72800701 293.09993572 -20 317 C-21.03511719 317.58136719 -22.07023437 318.16273438 -23.13671875 318.76171875 C-64.28646253 340.85054382 -115.78151325 343.56737616 -160.16796875 330.8515625 C-180.61716479 324.5887157 -200.09274118 315.14124087 -217 302 C-219.85779017 303.29719924 -221.91008536 304.6636826 -224.11621094 306.88916016 C-224.69651062 307.4696109 -225.2768103 308.05006165 -225.87469482 308.64810181 C-226.48838928 309.27211884 -227.10208374 309.89613586 -227.734375 310.5390625 C-228.37240051 311.17991791 -229.01042603 311.82077332 -229.66778564 312.48104858 C-231.69994069 314.52437821 -233.72502218 316.57455982 -235.75 318.625 C-237.1284453 320.0134786 -238.50734636 321.4015049 -239.88671875 322.7890625 C-243.26311894 326.18748697 -246.63319288 329.59207254 -250 333 C-248.60240095 336.54518884 -248.60240095 336.54518884 -247 340 C-246.76171875 341.953125 -246.76171875 341.953125 -246.6875 344.25 C-246.65011719 344.99765625 -246.61273438 345.7453125 -246.57421875 346.515625 C-247.86350535 354.03843488 -255.45078418 359.74638309 -260.56689453 364.85742188 C-261.54671861 365.84323758 -262.52613383 366.8294598 -263.50517273 367.8160553 C-266.15562384 370.48411121 -268.81247098 373.14570666 -271.47109842 375.80561256 C-273.13535743 377.47129711 -274.79818249 379.13839944 -276.46050644 380.80601501 C-282.27004953 386.63404168 -288.0847169 392.45689837 -293.90429688 398.27490234 C-299.3120303 403.68143554 -304.70852194 409.09901057 -310.09982789 414.52192068 C-314.74252914 419.1908562 -319.39299368 423.85196342 -324.04946792 428.50716257 C-326.82438501 431.28157204 -329.59617337 434.05893248 -332.36017227 436.84422302 C-334.963097 439.46665039 -337.57563915 442.07911521 -340.19555092 444.68456841 C-341.60059708 446.08655901 -342.99583583 447.4983575 -344.39064026 448.91053772 C-354.39427511 458.81634009 -364.74629524 464.93506541 -379.0625 465.375 C-390.85077498 465.00994374 -401.15406863 460.36890363 -409.3125 451.8125 C-417.75575103 441.71136364 -419.80986522 430.8378635 -419 418 C-416.84330456 405.27915233 -408.83414355 396.24037259 -399.94311523 387.44140625 C-398.93474273 386.4292417 -397.92722914 385.41622084 -396.92050171 384.40242004 C-394.20868672 381.67675667 -391.48461528 378.9636699 -388.75759768 376.25322723 C-385.89620499 373.40577382 -383.04506953 370.5480801 -380.19239807 367.69189453 C-375.4071357 362.903939 -370.61389163 358.12409121 -365.81567383 353.34912109 C-360.2723664 347.83248621 -354.74167047 342.30344952 -349.21754879 336.76760769 C-343.89050231 331.4297807 -338.55500963 326.10047558 -333.21550179 320.77511597 C-330.94775217 318.51311686 -328.68293851 316.24823733 -326.42043877 313.98098755 C-323.75883571 311.31460973 -321.08989639 308.65579784 -318.4151268 306.00263023 C-317.43579876 305.02886086 -316.45899752 304.05254258 -315.4849453 303.07349586 C-314.15396462 301.73654847 -312.81280375 300.40975899 -311.47117615 299.08349609 C-310.72402061 298.33877045 -309.97686506 297.5940448 -309.20706844 296.82675171 C-305.06644471 293.39963032 -301.14054229 292.63437053 -295.921875 292.72265625 C-293.2070351 293.11443193 -291.31328791 294.58632405 -289 296 C-286.06519609 294.89372962 -284.07291382 293.31916744 -281.88378906 291.11083984 C-281.30348938 290.5303891 -280.7231897 289.94993835 -280.12530518 289.35189819 C-279.51161072 288.72788116 -278.89791626 288.10386414 -278.265625 287.4609375 C-277.62759949 286.82008209 -276.98957397 286.17922668 -276.33221436 285.51895142 C-274.30005931 283.47562179 -272.27497782 281.42544018 -270.25 279.375 C-268.8715547 277.9865214 -267.49265364 276.5984951 -266.11328125 275.2109375 C-262.73688106 271.81251303 -259.36680712 268.40792746 -256 265 C-257.3575042 261.47485054 -258.79146919 258.71017222 -261.0625 255.6875 C-277.69368743 232.25891854 -287.01828283 204.30170193 -291 176 C-291.14248169 175.00613281 -291.14248169 175.00613281 -291.2878418 173.9921875 C-293.46927694 157.05261645 -292.96628683 138.82239296 -290 122 C-289.87109375 121.25524414 -289.7421875 120.51048828 -289.609375 119.74316406 C-282.77448602 81.50259309 -264.59696766 48.94727525 -238 21 C-237.34773437 20.29488281 -236.69546875 19.58976562 -236.0234375 18.86328125 C-176.69846451 -43.36482872 -68.52130592 -50.42860155 0 0 Z M-148 -13 C-148.96389648 -12.72091797 -149.92779297 -12.44183594 -150.92089844 -12.15429688 C-163.9297517 -8.29709204 -176.14077336 -3.58696864 -188 3 C-189.01578125 3.54011719 -190.0315625 4.08023438 -191.078125 4.63671875 C-228.39320355 25.2398303 -257.39793908 61.75823344 -269.69140625 102.46484375 C-270.23940331 104.37021722 -270.77987288 106.27777301 -271.3125 108.1875 C-271.55516602 109.05342773 -271.79783203 109.91935547 -272.04785156 110.81152344 C-275.66960486 124.48402633 -276.40544317 138.00468896 -276.375 152.0625 C-276.37512085 152.92173065 -276.3752417 153.7809613 -276.37536621 154.66622925 C-276.34900575 167.83680489 -275.49233094 180.24286493 -272 193 C-271.68804687 194.26457031 -271.37609375 195.52914062 -271.0546875 196.83203125 C-259.74394317 239.93642245 -230.5225784 276.9733515 -192.50390625 299.73828125 C-178.4616879 307.88730698 -163.80422363 314.17613281 -148 318 C-147.33307129 318.18191895 -146.66614258 318.36383789 -145.97900391 318.55126953 C-103.21281472 330.05738775 -56.10402572 320.1092901 -18.43554688 298.44921875 C-12.6465707 295.00461544 -7.23125813 291.24097881 -2 287 C-1.3925293 286.50918945 -0.78505859 286.01837891 -0.15917969 285.51269531 C18.87415756 269.95054234 33.70289564 251.84362517 45 230 C45.47131348 229.09628662 45.47131348 229.09628662 45.95214844 228.17431641 C58.48629093 203.79494106 63.31547437 178.23247825 63.4375 151 C63.44703201 149.91679474 63.44703201 149.91679474 63.45675659 148.81170654 C63.67292057 109.39799414 47.9540754 69.03284217 21.078125 40.23046875 C19.16973109 38.18217378 17.36375274 36.07964403 15.5625 33.9375 C3.26452914 19.93069948 -12.56060207 9.50214159 -29 1 C-29.90371338 0.52868652 -29.90371338 0.52868652 -30.82568359 0.04785156 C-65.34771939 -17.70092624 -110.33466327 -24.09795385 -148 -13 Z " fill="#241F1F" transform="translate(426,40)"/>
<path d="M0 0 C23.07496798 3.0277402 44.51884262 16.13359373 58.75 34.41015625 C63.14062585 40.49374413 66.64154689 46.90234779 70 53.59765625 C74.55331101 42.82259995 74.3937404 31.41170816 74.625 19.91015625 C74.66327461 18.32224644 74.70233147 16.73435528 74.7421875 15.14648438 C74.83713316 11.29703037 74.92152982 7.44747989 75 3.59765625 C79.41779942 7.19139835 82.90793708 10.61479164 86.25 15.22265625 C86.71744629 15.86654297 87.18489258 16.51042969 87.66650391 17.17382812 C96.41824142 29.58120557 102.87925164 43.00258278 107 57.59765625 C107.22042969 58.3040625 107.44085938 59.01046875 107.66796875 59.73828125 C116.36842434 89.83008253 109.71993012 123.03235793 95.6875 150.28515625 C89.82444523 160.79999734 82.21972411 169.85750268 74 178.59765625 C73.19369141 179.50064453 73.19369141 179.50064453 72.37109375 180.421875 C51.72577184 202.61947675 19.17291766 213.59591991 -10.39453125 214.875 C-21.01704091 215.15474073 -30.68108274 214.22324742 -41 211.59765625 C-42.16015625 211.35402344 -43.3203125 211.11039063 -44.515625 210.859375 C-66.31061089 205.88238147 -85.01005692 193.88628604 -101 178.59765625 C-101.67289063 177.98792969 -102.34578125 177.37820313 -103.0390625 176.75 C-116.74692611 163.88863792 -127.0272145 145.6457379 -132 127.59765625 C-128.84891766 129.1002557 -125.95852931 130.87357543 -123 132.72265625 C-94.5228699 149.27110958 -58.98906891 154.84598404 -26.7109375 147.625 C-25.48632812 147.28597656 -24.26171875 146.94695312 -23 146.59765625 C-21.95247559 146.31559326 -21.95247559 146.31559326 -20.88378906 146.02783203 C-0.34572288 140.34891668 20.54081914 129.50689823 35 113.59765625 C35.78375 112.83453125 36.5675 112.07140625 37.375 111.28515625 C38.24125 110.39828125 39.1075 109.51140625 40 108.59765625 C40.96873047 107.623125 40.96873047 107.623125 41.95703125 106.62890625 C48.57584241 99.6739383 59.59819178 87.41165401 60.1875 77.41796875 C59.29817006 59.29787132 46.84792352 43.62979704 34.0625 31.84765625 C21.51263023 21.38126095 6.57090989 16.06549511 -9.66772461 15.44238281 C-13.88443076 15.20274093 -15.57464385 14.93198287 -19.01171875 12.23046875 C-21 9.59765625 -21 9.59765625 -21.5625 6.53515625 C-19.56820553 -3.87949264 -7.93682453 -0.85995034 0 0 Z " fill="#DEE0E5" transform="translate(333,102.40234375)"/>
<path d="M0 0 C1.27488281 0.28875 2.54976562 0.5775 3.86328125 0.875 C39.30527189 10.03186955 69.14026089 34.76605069 87.58325195 65.90966797 C104.74526983 95.73760697 111.2918689 132.31230004 103 166 C92.2219818 205.22275735 69.63765522 237.26959486 34.1875 257.6875 C22.47242878 264.20996817 10.17446506 269.36178848 -3 272 C-4.18851563 272.27714844 -5.37703125 272.55429687 -6.6015625 272.83984375 C-24.98314999 276.86424201 -44.7476296 276.49619795 -63 272 C-63.72590332 271.82839355 -64.45180664 271.65678711 -65.19970703 271.47998047 C-89.94173131 265.53232737 -113.4930833 253.77836875 -131 235 C-131.78375 234.236875 -132.5675 233.47375 -133.375 232.6875 C-159.3379034 206.10643224 -173.71314497 171.00397515 -173.28149414 133.69506836 C-172.27180057 93.69566928 -155.62436257 59.2516451 -127.05078125 31.703125 C-121.456712 26.47969107 -115.4710333 22.06872475 -109 18 C-108.44135254 17.64502441 -107.88270508 17.29004883 -107.30712891 16.92431641 C-74.70588029 -3.49727865 -37.2043796 -8.4606914 0 0 Z M-121 47 C-121.67289063 47.60972656 -122.34578125 48.21945313 -123.0390625 48.84765625 C-138.20611265 63.07809574 -148.40715922 83.19099566 -154 103 C-154.22042969 103.70640625 -154.44085938 104.4128125 -154.66796875 105.140625 C-163.41919122 135.40801098 -156.84067047 169.62331723 -142.22070312 196.85449219 C-136.72328397 206.51675609 -129.66558329 214.98278445 -122 223 C-121.39027344 223.67289063 -120.78054687 224.34578125 -120.15234375 225.0390625 C-100.81521595 245.64890996 -69.59940335 259.26477419 -41.42578125 260.203125 C-4.68917388 260.77578388 27.1248457 249.29699325 54 224 C54.59167969 223.47277344 55.18335938 222.94554687 55.79296875 222.40234375 C75.93359907 203.69691274 88.99758434 173.85599583 90.91015625 146.66015625 C92.11936118 110.85717539 82.97875418 78.73298055 58.5625 51.75 C56.73617139 49.80274572 54.87513232 47.90161724 53 46 C52.14921875 45.13632813 51.2984375 44.27265625 50.421875 43.3828125 C28.06886154 21.89982651 -4.06934353 10.55155724 -34.77954102 10.76733398 C-67.9434278 11.4302819 -97.09047324 24.1391367 -121 47 Z " fill="#262221" transform="translate(353,57)"/>
<path d="M0 0 C2.21292645 0.95784016 3.53807241 2.09534119 5.25618649 3.78774452 C5.89977612 4.41542229 6.54336575 5.04310005 7.20645809 5.68979836 C7.88891094 6.37204979 8.57136379 7.05430122 9.27449703 7.75722694 C9.98148235 8.45659874 10.68846767 9.15597054 11.41687679 9.87653542 C12.90754291 11.35640177 14.39425557 12.84025955 15.87728024 14.32778358 C18.15616456 16.60764231 20.4555374 18.86534188 22.75691891 21.12246132 C24.20157701 22.56191428 25.64498052 24.0026277 27.08699703 25.44472694 C27.77957104 26.12090569 28.47214504 26.79708443 29.18570614 27.49375343 C29.81353497 28.13088768 30.44136379 28.76802193 31.08821774 29.42446327 C31.64685009 29.98104118 32.20548244 30.53761909 32.78104305 31.111063 C33.84871578 32.80019569 33.84871578 32.80019569 33.64822102 34.64960194 C32.62568962 37.40011506 31.19950064 38.82413047 29.12430477 40.89882851 C28.32384228 41.70630531 27.52337978 42.51378212 26.69866085 43.34572792 C25.8140115 44.22273354 24.92936214 45.09973915 24.01790524 46.00332069 C23.09105419 46.9338224 22.16420315 47.86432411 21.20926571 48.82302284 C18.66630917 51.37538951 16.11402891 53.91824037 13.55971837 56.45923805 C10.88581947 59.12181743 8.2196416 61.79210844 5.55237484 64.46132851 C1.06919098 68.94539556 -3.41993812 73.42344182 -7.91275883 77.89785194 C-13.10010231 83.06405968 -18.27859682 88.23900546 -23.45225781 93.41891289 C-28.4339597 98.40632053 -33.42133207 103.38801878 -38.41148663 108.36696815 C-40.53229587 110.48314416 -42.65122258 112.6011788 -44.76866055 114.72072792 C-47.73109896 117.68540909 -50.70183554 120.64163841 -53.67350101 123.59707069 C-54.54802921 124.47407631 -55.42255741 125.35108192 -56.32358646 126.25466347 C-63.31451368 133.18478573 -69.62352353 139.07203936 -79.96378422 139.11269569 C-87.29394205 138.96879076 -93.25926728 137.47529367 -98.76456547 132.34707069 C-104.74880442 125.67169429 -105.731465 119.59874374 -105.91300297 110.74160194 C-104.77210061 100.975303 -96.21944779 93.28599468 -89.62931156 86.74477577 C-88.67844676 85.78683563 -87.72842295 84.8280601 -86.77916813 83.86852455 C-84.22461073 81.29166647 -81.65770987 78.72746298 -79.08752489 76.16620278 C-76.93860371 74.02242103 -74.79595292 71.87242584 -72.65323794 69.72244376 C-67.60298095 64.65525569 -62.54261571 59.59832703 -57.47550297 54.54799843 C-52.24823565 49.33772169 -47.03767868 44.11115072 -41.83502901 38.87630159 C-37.35901833 34.37364173 -32.87341685 29.88070261 -28.37981284 25.3956005 C-25.69933585 22.72005704 -23.02257433 20.04104957 -20.35481739 17.35281754 C-17.8525812 14.83229256 -15.33859967 12.32411745 -12.81489468 9.82509422 C-11.44759598 8.46522395 -10.0926548 7.09296428 -8.73806095 5.720438 C-7.92506031 4.92009132 -7.11205967 4.11974464 -6.27442265 3.29514503 C-5.57059137 2.59190007 -4.8667601 1.88865511 -4.14160061 1.16409969 C-2.15128422 -0.19980431 -2.15128422 -0.19980431 0 0 Z " fill="#A1A4A6" transform="translate(128.15128421783447,350.1998043060303)"/>
<path d="M0 0 C4.1105224 1.79380688 7.05611194 5.49449861 10.17666435 8.62600994 C10.93012138 9.3511076 11.68357841 10.07620525 12.45986748 10.82327557 C13.16691826 11.52774822 13.87396904 12.23222088 14.6024456 12.95804119 C15.25253593 13.60104168 15.90262627 14.24404217 16.57241631 14.90652752 C17.86416435 16.81350994 17.86416435 16.81350994 17.70474052 18.87430096 C16.34774457 22.00489023 14.09433477 24.40163046 11.86416435 26.93850994 C11.36650566 27.51399578 10.86884697 28.08948162 10.35610771 28.68240643 C8.86626782 30.3994737 7.36630556 32.10720411 5.86416435 33.81350994 C5.10232841 34.68878338 4.34049248 35.56405682 3.5555706 36.46585369 C-5.57170776 46.79893764 -15.1949704 56.39857005 -26.13583565 64.81350994 C-26.69109932 65.24518475 -27.24636299 65.67685955 -27.81845284 66.12161541 C-37.10730863 73.30632347 -46.70644333 79.41962808 -57.13583565 84.81350994 C-57.73831123 85.12771893 -58.34078682 85.44192791 -58.96151924 85.76565838 C-66.78757591 89.78926063 -74.80374599 92.87955014 -83.13583565 95.68850994 C-84.02037422 95.98708904 -84.9049128 96.28566814 -85.81625557 96.5932951 C-90.59946552 98.15209891 -95.13099984 99.28310615 -100.13583565 99.81350994 C-98.67924486 96.47038028 -96.84031277 94.26083543 -94.27771187 91.6812315 C-93.47298439 90.86652889 -92.66825691 90.05182629 -91.83914375 89.21243572 C-90.5128495 87.88514446 -90.5128495 87.88514446 -89.15976143 86.53103924 C-88.21976218 85.58341614 -87.2801665 84.63539258 -86.34094429 83.68699932 C-83.7921425 81.11627751 -81.23682039 78.55213574 -78.67958117 75.98980975 C-77.08282658 74.38941096 -75.4873778 72.787722 -73.89236259 71.18558979 C-68.32998189 65.59873064 -62.76191823 60.01760092 -57.1890583 54.44119549 C-51.98983362 49.23832895 -46.80390791 44.0224573 -41.62381566 38.80054826 C-37.17738663 34.31948445 -32.72144303 29.84803302 -28.25801265 25.3839038 C-25.59148926 22.71658576 -22.92913152 20.045402 -20.27643394 17.36432743 C-17.3216022 14.37859433 -14.34729934 11.41303935 -11.37069893 8.44900799 C-10.49055122 7.55402599 -9.61040352 6.659044 -8.70358467 5.73694134 C-7.89321754 4.93633785 -7.08285042 4.13573437 -6.24792671 3.31087017 C-5.54627451 2.60720664 -4.84462231 1.90354311 -4.12170792 1.17855644 C-2.13583565 -0.18649006 -2.13583565 -0.18649006 0 0 Z " fill="#C4C7CD" transform="translate(128.135835647583,350.1864900588989)"/>
<path d="M0 0 C23.03072501 3.02193494 44.42535683 16.09115512 58.6875 34.28515625 C68.28678701 47.73102697 76.51133444 63.75306699 77 80.59765625 C77.07347656 81.68304688 77.14695312 82.7684375 77.22265625 83.88671875 C77.27292969 85.04945313 77.32320313 86.2121875 77.375 87.41015625 C77.42398438 88.48910156 77.47296875 89.56804687 77.5234375 90.6796875 C77 93.59765625 77 93.59765625 74.703125 95.984375 C72 97.59765625 72 97.59765625 68.375 97.59765625 C65 96.59765625 65 96.59765625 63.34375 95.0859375 C61.36679854 91.42512913 61.38398172 87.88745916 61.125 83.78515625 C59.28578669 62.58367531 49.61926797 46.1836718 34.0625 31.84765625 C21.51263023 21.38126095 6.57090989 16.06549511 -9.66772461 15.44238281 C-13.88443076 15.20274093 -15.57464385 14.93198287 -19.01171875 12.23046875 C-21 9.59765625 -21 9.59765625 -21.5625 6.53515625 C-19.56820553 -3.87949264 -7.93682453 -0.85995034 0 0 Z " fill="#262223" transform="translate(333,102.40234375)"/>
<path d="M0 0 C1.11674511 0.95042087 2.23252489 1.90197608 3.34790039 2.85400391 C3.9693544 3.38377838 4.59080841 3.91355286 5.23109436 4.4593811 C7.39444368 6.34353861 9.42699013 8.32921803 11.4375 10.375 C12.11683594 11.06335938 12.79617187 11.75171875 13.49609375 12.4609375 C13.99238281 12.96882813 14.48867187 13.47671875 15 14 C11.10023279 18.66874537 7.04785356 23.09127809 2.7265625 27.37109375 C2.15795502 27.93828629 1.58934753 28.50547882 1.00350952 29.08985901 C-0.78696236 30.87479913 -2.58090484 32.65620256 -4.375 34.4375 C-5.60049323 35.65796939 -6.82575572 36.87867053 -8.05078125 38.09960938 C-11.03119774 41.06908756 -14.01472894 44.03540257 -17 47 C-21.00374431 45.16307611 -23.71957934 42.50882084 -26.75 39.375 C-27.25660156 38.859375 -27.76320312 38.34375 -28.28515625 37.8125 C-29.52803902 36.54616661 -30.76465276 35.2736856 -32 34 C-30.68623083 31.09456128 -29.27943508 29.03338941 -27.01904297 26.79199219 C-26.41857147 26.19167175 -25.81809998 25.59135132 -25.19943237 24.97283936 C-24.55354156 24.33727112 -23.90765076 23.70170288 -23.2421875 23.046875 C-22.57913605 22.38665344 -21.91608459 21.72643188 -21.23294067 21.04620361 C-19.11828168 18.94272176 -16.99676788 16.84630858 -14.875 14.75 C-13.43834443 13.32337739 -12.00214102 11.89629928 -10.56640625 10.46875 C-7.04949196 6.97386339 -3.52641453 3.48529938 0 0 Z " fill="#EF9C1E" transform="translate(181,316)"/>
</svg>
