<?xml version="1.0" encoding="UTF-8"?>
<svg version="1.1" xmlns="http://www.w3.org/2000/svg" width="512" height="512">
<path d="M0 0 C2.875 2.5625 2.875 2.5625 5 5 C5.7425 5.845625 6.485 6.69125 7.25 7.5625 C8.92003202 9.88861602 9.4232207 11.27183391 10 14 C11.14275391 13.38511719 11.14275391 13.38511719 12.30859375 12.7578125 C26.96378127 5.11003674 40.29288906 4.18345631 56.19140625 8.73828125 C65.77591797 11.75301542 74.34114342 16.80880502 79.53515625 25.59765625 C83 32.30536212 83 32.30536212 83 35 C84.19625 34.525625 85.3925 34.05125 86.625 33.5625 C99.3917009 28.83904347 113.79702238 30.45212311 126.34375 35.2890625 C135.88163471 39.79306361 143.18278631 45.48962104 148 55 C149.18591323 58.5577397 149.16896783 61.43288187 149.1875 65.1875 C149.20167969 66.45980469 149.21585937 67.73210937 149.23046875 69.04296875 C149.13259951 73.18533667 148.60685785 77.21997623 148.05418396 81.32485962 C147.00207774 89.45181678 146.39165002 97.57961626 145.90258789 105.75927734 C145.80909242 107.25953452 145.7151294 108.75976262 145.6207428 110.25996399 C145.42052891 113.45543876 145.22324403 116.65107514 145.02827644 119.84687424 C144.71848463 124.91944132 144.40001914 129.99144253 144.08018494 135.06338501 C143.17275743 149.47423404 142.2772036 163.88581075 141.38891602 178.29785156 C140.89657011 186.28468122 140.39741111 194.27105788 139.89125437 202.25702441 C139.6249188 206.46455757 139.36209077 210.67224218 139.10801888 214.88053513 C135.38858622 276.39625704 135.38858622 276.39625704 115.50390625 294.96875 C106.80838319 302.02284047 98.94254528 304.63306299 88 308 C88 317.57 88 327.14 88 337 C90.31 337.33 92.62 337.66 95 338 C100.44347155 340.53402986 103.41488489 343.21984652 107 348 C108.010625 347.505 109.02125 347.01 110.0625 346.5 C114.42969369 344.663494 118.30316268 344.01375991 122.890625 345.69140625 C126.1230638 347.31441649 127.82985009 348.7584969 129.9375 351.75 C131.22282859 355.68159334 131.73458784 358.91079438 131 363 C128.77915243 367.35944153 126.57923841 370.16830464 122 372 C116.22236177 372.77035176 112.04575904 372.10508248 107 369 C106.57589844 369.54269531 106.15179688 370.08539063 105.71484375 370.64453125 C101.81381261 375.40293188 98.91419203 378.18024861 93 380 C92.01 380 91.02 380 90 380 C90.08302368 381.33901367 90.08302368 381.33901367 90.16772461 382.70507812 C91.15228082 398.76123305 92.09435426 414.82101136 92.67288208 430.89770508 C92.72417965 432.29611705 92.77907519 433.69440181 92.83761597 435.0925293 C92.91790429 437.04044716 92.98276588 438.98898256 93.046875 440.9375 C93.08651367 442.03964844 93.12615234 443.14179688 93.16699219 444.27734375 C93 447 93 447 91 450 C88.22947693 450.37473011 88.22947693 450.37473011 84.62280273 450.3742218 C83.96096953 450.37819621 83.29913633 450.38217061 82.61724758 450.38626546 C80.38914751 450.39592604 78.16167648 450.38404836 75.93359375 450.37231445 C74.34050254 450.37474119 72.74741286 450.37845936 71.15432739 450.38337708 C66.81965818 450.39280593 62.48521397 450.38334401 58.15056229 450.37004495 C53.62177737 450.35875463 49.09300392 450.36283608 44.56420898 450.36479187 C36.95780751 450.36567562 29.35149503 450.35457769 21.74511719 450.33618164 C12.94163753 450.31501278 4.13828828 450.31150365 -4.66521168 450.3177436 C-13.12170451 450.32343151 -21.57815126 450.31779838 -30.03463745 450.30657005 C-33.63907724 450.30191645 -37.24348892 450.3010535 -40.84793091 450.3031559 C-45.08978772 450.30503481 -49.33151115 450.29696567 -53.57333755 450.2810955 C-55.13344903 450.2768405 -56.69357401 450.27601023 -58.25368881 450.27878571 C-60.37687485 450.28199077 -62.49965813 450.27296867 -64.62280273 450.26069641 C-65.81300522 450.25864354 -67.0032077 450.25659067 -68.22947693 450.25447559 C-71 450 -71 450 -73 448 C-73.24050903 445.177948 -73.24050903 445.177948 -73.22705078 441.53076172 C-73.22734283 440.86722687 -73.22763489 440.20369202 -73.22793579 439.52005005 C-73.22654056 437.32313028 -73.21097067 435.12654814 -73.1953125 432.9296875 C-73.19158305 431.40797104 -73.18873576 429.88625219 -73.18673706 428.36453247 C-73.17909523 424.35643908 -73.15944213 420.3484903 -73.1373291 416.3404541 C-73.11688244 412.25172888 -73.10773788 408.16298034 -73.09765625 404.07421875 C-73.07619667 396.04941276 -73.04205421 388.02472436 -73 380 C-74.88138672 379.80470703 -74.88138672 379.80470703 -76.80078125 379.60546875 C-82.55952403 379.00769586 -85.80149381 376.25298375 -89.75 372.125 C-93.84989223 366.43070523 -94.89747834 360.88445414 -94 354 C-92.16126013 347.32768646 -88.8292935 342.73024204 -83 339 C-79.26459107 337.38864713 -77.10130359 337 -73 337 C-73 328.09 -73 319.18 -73 310 C-75.97 309.34 -78.94 308.68 -82 308 C-84.71171771 306.93190981 -87.22544814 305.86415927 -89.8125 304.5625 C-90.49828125 304.21759521 -91.1840625 303.87269043 -91.890625 303.51733398 C-99.00887659 299.74694723 -104.45245483 294.77244565 -110 289 C-110.71414062 288.28199219 -111.42828125 287.56398438 -112.1640625 286.82421875 C-121.39414822 277.0609209 -128.03503377 264.99961733 -134.9375 253.5625 C-141.497622 242.69928399 -148.26946983 232.05267441 -156.06640625 222.02734375 C-167.20329103 207.6844124 -175.94759776 193.7729423 -174 175 C-171.75592004 166.12453769 -164.28457813 158.82044693 -158.56982422 151.91259766 C-156.14476801 148.95802684 -153.79036874 145.94964714 -151.4375 142.9375 C-150.53006238 141.77985818 -149.6225104 140.622306 -148.71484375 139.46484375 C-148.26737793 138.89362793 -147.81991211 138.32241211 -147.35888672 137.73388672 C-145.53310466 135.40425966 -143.70467837 133.07672426 -141.87426758 130.75073242 C-140.96352632 129.59050404 -140.05576887 128.42792679 -139.15112305 127.26293945 C-136.77479083 124.21059277 -134.35085488 121.22200486 -131.828125 118.2890625 C-131.31314453 117.67546875 -130.79816406 117.061875 -130.26757812 116.4296875 C-129.28442691 115.2605347 -128.28393925 114.10565767 -127.26367188 112.96875 C-124.80234574 110.00226086 -123.97876927 108.42931564 -124.17089844 104.54418945 C-125.05341816 98.88406341 -126.73344932 93.42870509 -128.34375 87.94140625 C-129.01956876 85.59310975 -129.69534882 83.24480212 -130.37109375 80.89648438 C-131.43555913 77.22488931 -132.50246913 73.55401681 -133.57080078 69.88354492 C-134.60538324 66.32122973 -135.63111951 62.7564509 -136.65625 59.19140625 C-136.97605835 58.10364395 -137.2958667 57.01588165 -137.62536621 55.89515686 C-140.68372018 45.24167969 -142.68511629 35.40325583 -137.125 25.25 C-130.04551504 14.42255242 -120.40544351 9.1914419 -108 6 C-94.24478918 3.34796707 -80.82025096 5.27254911 -69 13 C-68.525625 11.845 -68.05125 10.69 -67.5625 9.5 C-63.14543043 0.80437524 -55.72109434 -3.60411937 -46.89453125 -7.08984375 C-31.17368751 -12.03310501 -13.29716745 -9.67289345 0 0 Z " fill="#212020" transform="translate(256,35)"/>
<path d="M0 0 C6.40097231 0.27483399 9.20736957 3.31918286 13.45703125 7.76171875 C23.46728016 19.71385695 25.67565693 32.93136559 25 48 C24.3595 54.39584996 21.93947458 59.63541809 19.0234375 65.32421875 C17.85558232 68.37758058 17.81962494 70.75799562 18 74 C23.08936674 75.9832959 27.80569265 76.46294313 33.1875 76.875 C60.05753201 79.31190616 88.54511102 86.52006582 109 105 C109.76828125 105.67546875 110.5365625 106.3509375 111.328125 107.046875 C123.01831772 117.94181651 131.24226727 133.83889429 132.10668945 149.99389648 C132.55160457 165.80699518 131.22834559 181.37754434 120.77734375 194.1953125 C114.07727544 200.99845879 105.8581469 204.76895461 97 208 C96.05640625 208.35449219 95.1128125 208.70898438 94.140625 209.07421875 C87.62685977 210.99432119 80.99290702 211.16549797 74.25 211.203125 C73.43362061 211.20882507 72.61724121 211.21452515 71.77612305 211.22039795 C70.05502595 211.22979008 68.33391133 211.23635871 66.61279297 211.24023438 C64.03449371 211.24987108 61.45701683 211.28092123 58.87890625 211.3125 C36.23914051 211.45767899 13.50655142 206.8200051 -3.1875 190.375 C-13.38045779 179.86701372 -20.459271 167.08573637 -28.05004883 154.67089844 C-34.50399221 144.12771101 -41.07292347 133.78204647 -48.5625 123.9375 C-67.22470865 99.35235634 -67.22470865 99.35235634 -66.48828125 87.25390625 C-64.48872677 78.02396277 -56.359911 70.36220598 -50.49609375 63.27734375 C-47.05300511 59.09993352 -43.76431832 54.8177556 -40.5 50.5 C-35.70308875 44.1701895 -30.77599908 37.96706876 -25.74536133 31.82177734 C-22.17708244 27.46012638 -18.66033034 23.06301129 -15.1875 18.625 C-14.74011475 18.05338135 -14.29272949 17.4817627 -13.83178711 16.89282227 C-12.96792023 15.78891224 -12.1040688 14.68499011 -11.24023438 13.58105469 C-9.31663986 11.12885034 -7.3793369 8.68777367 -5.4375 6.25 C-4.81746094 5.47140625 -4.19742188 4.6928125 -3.55859375 3.890625 C-2 2 -2 2 0 0 Z " fill="#FED4B2" transform="translate(158,128)"/>
<path d="M0 0 C3.76604823 1.41226809 7.28587752 3.13179599 10.83984375 5 C17.23644053 7.96117319 22.79443751 8.36560059 29.75 8.375 C30.6884375 8.39949219 31.626875 8.42398438 32.59375 8.44921875 C38.7513554 8.47473369 43.40863668 7.42781437 49.01269531 4.86181641 C51 4 51 4 53 4 C53.32871094 4.94359375 53.32871094 4.94359375 53.6640625 5.90625 C58.06881104 17.79548996 64.3731237 24.06827813 75.31640625 30.32421875 C81.72623237 33.2564827 88.18941097 33.40856064 95.125 33.5 C96.05538086 33.51861084 96.98576172 33.53722168 97.94433594 33.55639648 C108.91846173 33.45608277 116.43070313 28.44981193 125 22 C125.27615522 34.73382384 124.62419687 47.24887828 123.5703125 59.9375 C122.95514588 67.36954689 122.47013685 74.80756569 122 82.25 C121.91621094 83.5388208 121.83242188 84.8276416 121.74609375 86.15551758 C121.36021189 92.12295793 120.98934055 98.0901226 120.67625427 104.0617981 C118.35357039 148.1824212 118.35357039 148.1824212 103.703125 163.48828125 C94.23099899 171.89587934 82.18226055 178.14199615 69.31347656 178.11352539 C68.17259583 178.11344986 67.03171509 178.11337433 65.85626221 178.11329651 C64.63010193 178.10813522 63.40394165 178.10297394 62.140625 178.09765625 C60.88111023 178.0962413 59.62159546 178.09482635 58.32391357 178.09336853 C54.98334881 178.08872073 51.64285279 178.07974281 48.30230713 178.06866455 C44.8903462 178.05841598 41.47837815 178.05386354 38.06640625 178.04882812 C31.3775852 178.03779963 24.68879657 178.02106189 18 178 C18.61848564 177.17732384 18.61848564 177.17732384 19.24946594 176.33802795 C19.7901622 175.6181218 20.33085846 174.89821564 20.88793945 174.15649414 C21.42401321 173.44304337 21.96008698 172.72959259 22.5124054 171.99452209 C35.0922929 155.12778737 38.11369392 137.28885782 35.72314453 116.60449219 C32.69307567 96.91119355 21.74862675 78.14702319 6 66 C-18.07740058 49.22733162 -46.18000808 42.02113019 -75 39 C-74.85175781 38.28714844 -74.70351562 37.57429688 -74.55078125 36.83984375 C-74.19577816 35.00943775 -73.89691258 33.16681108 -73.66796875 31.31640625 C-72.8686544 26.73497034 -72.26123231 23.88842688 -68.34375 21.12890625 C-66.23541702 20.1243169 -64.10261711 19.16958475 -61.94921875 18.265625 C-56.63720337 15.98603164 -52.97861191 12.13163545 -49 8 C-48.47535156 8.2165625 -47.95070312 8.433125 -47.41015625 8.65625 C-36.40384356 12.61192977 -22.77527482 12.80801504 -12 8 C-7.47987127 5.81421005 -3.44045965 3.71008815 0 0 Z " fill="#DCA09A" transform="translate(263,156)"/>
<path d="M0 0 C0.48726562 0.433125 0.97453125 0.86625 1.4765625 1.3125 C7.45560917 6.00876939 12.16048461 6.63029487 19.66796875 6.50390625 C24.95807674 5.70387819 28.88198341 3.32609032 33 0 C33.41507813 0.433125 33.83015625 0.86625 34.2578125 1.3125 C39.7735838 6.29746486 44.34823125 6.62558634 51.6328125 6.50390625 C56.94330831 5.70918008 60.86707792 3.33812937 65 0 C65.41507812 0.433125 65.83015625 0.86625 66.2578125 1.3125 C71.7735838 6.29746486 76.34823125 6.62558634 83.6328125 6.50390625 C88.94330831 5.70918008 92.86707792 3.33812937 97 0 C97.41507812 0.433125 97.83015625 0.86625 98.2578125 1.3125 C103.7735838 6.29746486 108.34823125 6.62558634 115.6328125 6.50390625 C120.92406844 5.71205936 124.88343444 3.32491834 129 0 C129.763125 0.639375 130.52625 1.27875 131.3125 1.9375 C133.88246713 4.14232781 133.88246713 4.14232781 137 5 C137.29070586 10.91810638 137.57520722 16.83647059 137.85449219 22.75512695 C137.94988214 24.75943625 138.04683177 26.76367206 138.14550781 28.76782227 C138.28883722 31.68486828 138.42613817 34.60215209 138.5625 37.51953125 C138.60624756 38.38391312 138.64999512 39.24829498 138.69506836 40.13887024 C139.11889858 49.44794506 139 58.6443941 139 68 C91.15 68 43.3 68 -6 68 C-6 47.21 -6 26.42 -6 5 C-4.02 3.35 -2.04 1.7 0 0 Z " fill="#FDD3B2" transform="translate(199,407)"/>
<path d="M0 0 C8.33368002 5.59443563 13.63428579 13.30592459 16 23 C16.20907091 25.8295781 16.33370123 28.56572944 16.35400391 31.39453125 C16.3671463 32.20360931 16.3802887 33.01268738 16.39382935 33.84628296 C16.43298828 36.50169327 16.45654211 39.15687984 16.4765625 41.8125 C16.48471355 42.72407867 16.49286461 43.63565735 16.50126266 44.57485962 C16.54283994 49.39397248 16.57151235 54.21297366 16.59033203 59.03222656 C16.61251284 63.99930286 16.68140643 68.96459988 16.76067543 73.93104553 C16.81300988 77.76244381 16.8297147 81.59341613 16.83689499 85.42514038 C16.84661651 87.25601309 16.86981693 89.08686741 16.90697098 90.91738892 C17.17900546 105.19998702 17.17900546 105.19998702 14.256073 109.66249084 C12.2410347 111.46578797 10.39640147 112.76501693 8 114 C7.11054688 114.51433594 6.22109375 115.02867187 5.3046875 115.55859375 C-4.80651385 119.21618266 -14.81202162 119.05984156 -25.109375 116.14453125 C-28.2974594 114.21455454 -28.78426424 110.85101477 -29.66674805 107.36987305 C-29.86308838 106.42668213 -30.05942871 105.48349121 -30.26171875 104.51171875 C-30.48996338 103.42914795 -30.71820801 102.34657715 -30.95336914 101.23120117 C-31.19563232 100.06177979 -31.43789551 98.8923584 -31.6875 97.6875 C-32.22064495 95.15610053 -32.75452827 92.62485648 -33.2890625 90.09375 C-33.42746048 89.43606125 -33.56585846 88.7783725 -33.70845032 88.10075378 C-35.14140888 81.29971395 -36.62567628 74.51017716 -38.11633301 67.72158813 C-38.56168034 65.69123683 -39.00522116 63.66049874 -39.44824219 61.62963867 C-40.79458784 55.46271724 -42.15409341 49.29939422 -43.5546875 43.14453125 C-43.90744751 41.57602417 -43.90744751 41.57602417 -44.26733398 39.97583008 C-44.69731674 38.06651868 -45.13376384 36.15864496 -45.57836914 34.25268555 C-47.6684057 24.91197345 -47.60023646 17.61175219 -43 9 C-33.52792627 -5.74863654 -14.89173389 -7.97687172 0 0 Z " fill="#F1BBA0" transform="translate(243,40)"/>
<path d="M0 0 C5.98846709 3.62233426 10.39821974 7.43898891 13 14 C13.6537317 20.45608818 12.53859461 26.72705016 11.3203125 33.046875 C11.14748749 33.97993469 10.97466248 34.91299438 10.79660034 35.87432861 C10.24694663 38.83435433 9.68647961 41.792197 9.125 44.75 C8.57410665 47.68680811 8.02553272 50.62403644 7.47827148 53.56152344 C7.12546011 55.45503609 6.77115207 57.34827053 6.4152832 59.24121094 C5.28853915 65.27861361 4.30308787 71.30981333 3.51220703 77.40136719 C2.35132833 83.29097293 -0.36075718 88.84965986 -4.8125 92.9375 C-14.03506046 98.90503912 -24.03111387 99.37394589 -34.71875 97.53125 C-43.53468143 94.92372098 -50.0335576 89.8635338 -54.90625 82.1484375 C-60.23353038 71.68413676 -55.98844658 58.23064444 -53.8125 47.375 C-53.48775563 45.73049108 -53.16354169 44.08587733 -52.83984375 42.44116211 C-52.35313442 39.96989206 -51.86539179 37.49886805 -51.37295532 35.0287323 C-50.39558515 30.10629832 -49.49882193 25.17974708 -48.66796875 20.23046875 C-48.46776123 19.08980957 -48.26755371 17.94915039 -48.0612793 16.77392578 C-47.69865729 14.69914114 -47.3562106 12.62068324 -47.03833008 10.53857422 C-45.98968981 4.77988817 -44.5741351 1.5803576 -39.76782227 -1.90429688 C-28.38515506 -8.95931834 -11.28845047 -5.77514799 0 0 Z " fill="#F2BBA1" transform="translate(382,82)"/>
<path d="M0 0 C4.0866514 3.3714874 7.40553386 7.1354535 9.5 12.0625 C10.00188872 19.43935982 8.70117981 26.13577371 7.1640625 33.33203125 C6.92464935 34.48942307 6.68523621 35.64681488 6.43856812 36.83927917 C5.67573519 40.51965127 4.90091493 44.19736589 4.125 47.875 C3.35851979 51.54236132 2.59459978 55.210238 1.83285522 58.87858582 C1.35973365 61.15328319 0.88355781 63.42734835 0.40371704 65.70063782 C-0.90696228 71.96089638 -2.015291 78.19173944 -2.8487854 84.53495789 C-3.77820227 88.14227915 -5.53219138 89.87049466 -8.54296875 91.94921875 C-17.43948564 97.01011159 -27.32235235 97.43250743 -37.32421875 95.5234375 C-42.18099422 94.02270213 -46.86609459 91.69640541 -50.5 88.0625 C-50.61635238 85.50818834 -50.66799714 82.98054365 -50.67700195 80.42504883 C-50.68357315 79.6249942 -50.69014435 78.82493958 -50.69691467 78.00064087 C-50.71670112 75.34027014 -50.728324 72.67995608 -50.73828125 70.01953125 C-50.74235678 69.11223455 -50.7464323 68.20493786 -50.75063133 67.27014732 C-50.77151798 62.46517538 -50.78580666 57.66023218 -50.79516602 52.85522461 C-50.80621715 47.89296165 -50.84059454 42.93114877 -50.88033772 37.96904469 C-50.90650036 34.15399854 -50.91485769 30.33905947 -50.91844749 26.5239315 C-50.92331683 24.69511575 -50.9349407 22.86630488 -50.95348549 21.03757668 C-50.97786271 18.47366544 -50.97691439 15.91091575 -50.9699707 13.34692383 C-50.98278076 12.59395523 -50.99559082 11.84098663 -51.00878906 11.06520081 C-50.95814218 5.92176945 -49.72080058 3.03543593 -46.5 -0.9375 C-44.5 -2.58203125 -44.5 -2.58203125 -42.5 -3.75 C-41.51 -4.34748047 -41.51 -4.34748047 -40.5 -4.95703125 C-27.98681048 -11.09142689 -11.20084548 -6.70353631 0 0 Z " fill="#F3BCA1" transform="translate(319.5,58.9375)"/>
<path d="M0 0 C5.71045434 3.47844935 10.14630518 9.06111684 11.88354492 15.55566406 C12.03799072 16.33651367 12.19243652 17.11736328 12.3515625 17.921875 C12.53444824 18.82615234 12.71733398 19.73042969 12.90576172 20.66210938 C13.10057129 21.65017578 13.29538086 22.63824219 13.49609375 23.65625 C13.93857643 25.83885194 14.3826708 28.02112758 14.828125 30.203125 C15.18511475 31.95399414 15.18511475 31.95399414 15.54931641 33.74023438 C16.73620762 39.47089627 17.98713426 45.18734734 19.24356079 50.90307617 C19.68491823 52.91227947 20.12428011 54.92191062 20.56323242 56.93164062 C21.96615229 63.34619795 23.38349965 69.75702309 24.83560181 76.16064453 C25.50430594 79.11363944 26.16643736 82.06809015 26.82794189 85.02270508 C27.14619902 86.435403 27.46772905 87.84736791 27.79266357 89.25854492 C28.24354152 91.21739874 28.68259014 93.17896402 29.12109375 95.140625 C29.37503906 96.25663086 29.62898438 97.37263672 29.890625 98.52246094 C30.293902 101.30488376 30.35304324 102.82794367 29.30859375 105.40625 C26.27301714 108.7791129 22.97432536 111.73125666 19.30859375 114.40625 C18.64859375 114.40625 17.98859375 114.40625 17.30859375 114.40625 C17.1384375 113.29507813 16.96828125 112.18390625 16.79296875 111.0390625 C14.68417599 97.84128699 11.45982735 88.20373716 3.30859375 77.40625 C2.38046875 76.045 2.38046875 76.045 1.43359375 74.65625 C-3.57970121 69.34805534 -9.19657654 65.54996727 -16.63671875 65.25390625 C-22.45640911 65.6854042 -25.28674927 68.92730982 -28.94140625 73.09375 C-29.6065625 73.90199219 -30.27171875 74.71023437 -30.95703125 75.54296875 C-31.529375 76.15785156 -32.10171875 76.77273437 -32.69140625 77.40625 C-33.35140625 77.40625 -34.01140625 77.40625 -34.69140625 77.40625 C-38.55503563 65.15312993 -42.21812593 52.84601319 -45.58911133 40.44830322 C-45.9463057 39.1383886 -46.30693298 37.8294048 -46.67114258 36.52142334 C-51.11647858 20.51381141 -51.11647858 20.51381141 -48.62890625 13.34375 C-38.31682452 -2.29069649 -17.07876842 -7.27862277 0 0 Z " fill="#F2BBA0" transform="translate(175.69140625,53.59375)"/>
<path d="M0 0 C1.61523224 0.00748482 3.23047372 0.01316711 4.84571838 0.01715088 C9.04287974 0.0322314 13.23946394 0.07135487 17.43640137 0.1159668 C21.74072467 0.15730533 26.04514366 0.1752432 30.34960938 0.1953125 C38.75546959 0.2378717 47.1608656 0.30590151 55.56640625 0.390625 C55.71495578 4.87453536 55.82370929 9.35713618 55.89599609 13.84277344 C55.92613302 15.36776683 55.96705233 16.89258737 56.01904297 18.41699219 C56.09201118 20.61176141 56.12588765 22.80423751 56.15234375 25 C56.18331146 25.6793158 56.21427917 26.35863159 56.2461853 27.05853271 C56.24755859 28.99902344 56.24755859 28.99902344 55.56640625 32.390625 C52.52978516 34.85253906 52.52978516 34.85253906 49.56640625 36.390625 C48.84453125 35.771875 48.12265625 35.153125 47.37890625 34.515625 C41.26253097 29.89436368 35.04306557 29.39309144 27.56640625 30.390625 C25.17424484 31.483858 23.26237742 32.69051829 21.1875 34.296875 C19.56640625 35.390625 19.56640625 35.390625 16.56640625 35.390625 C14.54720288 34.08655616 12.54715652 32.75239081 10.56640625 31.390625 C5.0811409 29.56220322 -1.54785566 29.08059152 -6.89453125 31.5078125 C-8.98438796 32.84439776 -8.98438796 32.84439776 -10.8125 34.296875 C-12.43359375 35.390625 -12.43359375 35.390625 -15.43359375 35.390625 C-17.45279712 34.08655616 -19.45284348 32.75239081 -21.43359375 31.390625 C-26.9188591 29.56220322 -33.54785566 29.08059152 -38.89453125 31.5078125 C-40.98438796 32.84439776 -40.98438796 32.84439776 -42.8125 34.296875 C-44.43359375 35.390625 -44.43359375 35.390625 -47.43359375 35.390625 C-49.45279712 34.08655616 -51.45284348 32.75239081 -53.43359375 31.390625 C-58.9188591 29.56220322 -65.54785566 29.08059152 -70.89453125 31.5078125 C-72.98438796 32.84439776 -72.98438796 32.84439776 -74.8125 34.296875 C-76.43359375 35.390625 -76.43359375 35.390625 -79.43359375 35.390625 C-82.09057617 33.79785156 -82.09057617 33.79785156 -84.43359375 31.390625 C-85.0012207 28.36621094 -85.0012207 28.36621094 -84.921875 24.875 C-84.90576172 23.62460937 -84.88964844 22.37421875 -84.87304688 21.0859375 C-84.83115234 19.78398437 -84.78925781 18.48203125 -84.74609375 17.140625 C-84.72353516 15.82320313 -84.70097656 14.50578125 -84.67773438 13.1484375 C-84.61878969 9.89469096 -84.53654428 6.64322829 -84.43359375 3.390625 C-83.59489746 3.49346802 -83.59489746 3.49346802 -82.73925781 3.59838867 C-73.80791667 4.55728026 -64.88393383 4.64624333 -55.91064453 4.68579102 C-54.0996926 4.69730199 -52.28877436 4.7177399 -50.47802734 4.74731445 C-47.8119488 4.79064368 -45.14685847 4.8062438 -42.48046875 4.81640625 C-41.69557068 4.83391434 -40.91067261 4.85142242 -40.10198975 4.86946106 C-34.857117 4.84989466 -30.42643013 3.88519596 -25.39526367 2.38842773 C-16.89979415 -0.08421219 -8.7895685 -0.12191563 0 0 Z " fill="#FCD2B1" transform="translate(277.43359375,343.609375)"/>
<path d="M0 0 C4.77236378 4.21150907 7.55573919 8.6704765 8.21484375 15.09375 C8.49140086 21.55412409 7.5984908 27.09216505 3.1953125 32.01953125 C-0.45682054 35.40292243 -2.97800616 37.30881966 -8 38 C-8 39.98 -8 41.96 -8 44 C-7.31292969 43.96519531 -6.62585938 43.93039062 -5.91796875 43.89453125 C-5.01691406 43.86746094 -4.11585938 43.84039062 -3.1875 43.8125 C-1.84751953 43.76029297 -1.84751953 43.76029297 -0.48046875 43.70703125 C2 44 2 44 3.8359375 45.28515625 C5 47 5 47 4.8125 50.625 C4.544375 51.73875 4.27625 52.8525 4 54 C1.47524538 55.26237731 -0.31200466 55.09856404 -3.125 55.0625 C-4.03507812 55.05347656 -4.94515625 55.04445313 -5.8828125 55.03515625 C-6.58148438 55.02355469 -7.28015625 55.01195312 -8 55 C-7.94779297 56.03060547 -7.94779297 56.03060547 -7.89453125 57.08203125 C-7.86746094 57.98308594 -7.84039062 58.88414062 -7.8125 59.8125 C-7.76029297 61.15248047 -7.76029297 61.15248047 -7.70703125 62.51953125 C-8 65 -8 65 -9.28515625 66.8359375 C-11 68 -11 68 -14.625 67.8125 C-15.73875 67.544375 -16.8525 67.27625 -18 67 C-19.26237731 64.47524538 -19.09856404 62.68799534 -19.0625 59.875 C-19.05347656 58.96492188 -19.04445313 58.05484375 -19.03515625 57.1171875 C-19.02355469 56.41851562 -19.01195312 55.71984375 -19 55 C-20.03060547 55.05220703 -20.03060547 55.05220703 -21.08203125 55.10546875 C-21.98308594 55.13253906 -22.88414062 55.15960938 -23.8125 55.1875 C-25.15248047 55.23970703 -25.15248047 55.23970703 -26.51953125 55.29296875 C-29 55 -29 55 -30.80078125 53.64453125 C-32.50731102 51.30430639 -32.42408618 49.8272412 -32 47 C-30.80078125 45.35546875 -30.80078125 45.35546875 -29 44 C-26.51953125 43.70703125 -26.51953125 43.70703125 -23.8125 43.8125 C-22.91144531 43.83957031 -22.01039063 43.86664063 -21.08203125 43.89453125 C-20.05142578 43.94673828 -20.05142578 43.94673828 -19 44 C-19 42.02 -19 40.04 -19 38 C-19.680625 37.95875 -20.36125 37.9175 -21.0625 37.875 C-26.22892861 36.33606382 -29.78534944 32.70051078 -32.875 28.375 C-35.5430501 22.74244979 -35.99426055 16.64162902 -34.3515625 10.625 C-31.68715649 3.88428051 -27.64067776 -0.25880629 -21.125 -3.375 C-13.29405356 -4.94118929 -6.84265221 -4.38598572 0 0 Z M-23.4375 12.75 C-24.33322752 16.33291009 -24.16588948 19.53662242 -23 23 C-19.94269301 26.49406513 -18.07684775 27.80770576 -13.5 28.625 C-8.92315225 27.80770576 -7.05730699 26.49406513 -4 23 C-2.57770535 19.05889304 -2.57171362 16.07071596 -4.125 12.1875 C-6.84812871 9.0105165 -9.28865173 7.30716507 -13.4375 6.5625 C-17.6660457 7.28444683 -20.73109705 9.45524858 -23.4375 12.75 Z " fill="#1D1D1D" transform="translate(387,412)"/>
<path d="M0 0 C2.87029869 1.79393668 4.49131638 2.98263276 6 6 C6.54399285 10.539219 6.62289461 13.9544269 4.25 17.9375 C0.78133288 21.11711152 -0.6332667 22.04969939 -5.4375 21.875 C-9.29943186 20.92645533 -11.17092464 19.74586726 -14 17 C-15.72869779 13.54260443 -15.48966895 9.78024432 -15 6 C-11.10231905 -0.23628951 -6.98983895 -0.90541955 0 0 Z " fill="#C072A2" transform="translate(348,383)"/>
<path d="M0 0 C2.87029869 1.79393668 4.49131638 2.98263276 6 6 C6.54399285 10.539219 6.62289461 13.9544269 4.25 17.9375 C0.78133288 21.11711152 -0.6332667 22.04969939 -5.4375 21.875 C-9.29943186 20.92645533 -11.17092464 19.74586726 -14 17 C-15.72869779 13.54260443 -15.48966895 9.78024432 -15 6 C-11.10231905 -0.23628951 -6.98983895 -0.90541955 0 0 Z " fill="#C072A2" transform="translate(188,383)"/>
<path d="M0 0 C2.87029869 1.79393668 4.49131638 2.98263276 6 6 C6.55512815 10.63213493 6.6364242 13.98172127 4.125 18 C0.59185943 21.32530877 -2.04661263 21.33074386 -6.73828125 21.29296875 C-10.0542278 20.86344199 -11.74987627 19.39075646 -14 17 C-15.72869779 13.54260443 -15.48966895 9.78024432 -15 6 C-11.10231905 -0.23628951 -6.98983895 -0.90541955 0 0 Z " fill="#C274A4" transform="translate(316,383)"/>
<path d="M0 0 C2.87029869 1.79393668 4.49131638 2.98263276 6 6 C6.55512815 10.63213493 6.6364242 13.98172127 4.125 18 C0.59185943 21.32530877 -2.04661263 21.33074386 -6.73828125 21.29296875 C-10.0542278 20.86344199 -11.74987627 19.39075646 -14 17 C-15.72869779 13.54260443 -15.48966895 9.78024432 -15 6 C-11.10231905 -0.23628951 -6.98983895 -0.90541955 0 0 Z " fill="#C274A4" transform="translate(284,383)"/>
<path d="M0 0 C2.87029869 1.79393668 4.49131638 2.98263276 6 6 C6.55512815 10.63213493 6.6364242 13.98172127 4.125 18 C0.59185943 21.32530877 -2.04661263 21.33074386 -6.73828125 21.29296875 C-10.0542278 20.86344199 -11.74987627 19.39075646 -14 17 C-15.72869779 13.54260443 -15.48966895 9.78024432 -15 6 C-11.10231905 -0.23628951 -6.98983895 -0.90541955 0 0 Z " fill="#C274A4" transform="translate(252,383)"/>
<path d="M0 0 C2.87029869 1.79393668 4.49131638 2.98263276 6 6 C6.55512815 10.63213493 6.6364242 13.98172127 4.125 18 C0.59185943 21.32530877 -2.04661263 21.33074386 -6.73828125 21.29296875 C-10.0542278 20.86344199 -11.74987627 19.39075646 -14 17 C-15.72869779 13.54260443 -15.48966895 9.78024432 -15 6 C-11.10231905 -0.23628951 -6.98983895 -0.90541955 0 0 Z " fill="#C274A4" transform="translate(220,383)"/>
<path d="M0 0 C1.32 0 2.64 0 4 0 C4 1.65 4 3.3 4 5 C2.35 5 0.7 5 -1 5 C-0.67 3.35 -0.34 1.7 0 0 Z " fill="#BD71A1" transform="translate(372,391)"/>
</svg>
