<?xml version="1.0" encoding="UTF-8"?>
<svg version="1.1" xmlns="http://www.w3.org/2000/svg" width="512" height="512">
<path d="M0 0 C3.63787055 1.69202954 6.86016835 3.8975512 10.16015625 6.16796875 C11.10886093 6.79979568 12.05756561 7.43162262 13.03501892 8.08259583 C16.05600024 10.1005556 19.05906288 12.14354436 22.0625 14.1875 C24.08547653 15.54397758 26.10955497 16.89881335 28.13476562 18.25195312 C33.44206131 21.80734293 38.73683341 25.37954747 44 29 C44.70712128 29.48360992 45.41424255 29.96721985 46.14279175 30.46548462 C50.88048769 33.76097538 50.88048769 33.76097538 52 36 C52.10996562 38.94028802 52.15503828 41.84928993 52.14282227 44.78973389 C52.14033509 45.683952 52.13784792 46.5781701 52.13528538 47.49948573 C52.05784256 57.48173182 51.4112503 67.40948749 50.71484375 77.36425781 C50.57633762 79.41640402 50.43842634 81.46859045 50.30105591 83.52081299 C49.93103067 89.02400542 49.55281886 94.5266065 49.17299271 100.02912998 C48.77574752 105.80495877 48.38623056 111.58130893 47.99584961 117.35760498 C47.25750628 128.26542857 46.51233985 139.17277455 45.76464367 150.07996058 C44.91287397 162.51029664 44.0688296 174.9411536 43.2253933 187.37205744 C41.4921144 212.91528847 39.74926646 238.45785921 38 264 C38.69180611 263.98332275 39.38361221 263.96664551 40.09638214 263.94946289 C41.00112022 263.9364917 41.90585831 263.92352051 42.8380127 263.91015625 C43.7360688 263.893479 44.63412491 263.87680176 45.55939484 263.85961914 C48 264 48 264 50.59179688 265.4375 C52.69334573 269.26167766 52.57261767 272.69940844 52.53125 277 C52.53699036 278.30904297 52.53699036 278.30904297 52.54284668 279.64453125 C52.5455649 281.48699092 52.53820994 283.32948924 52.52148438 285.171875 C52.50007248 287.99045934 52.52128801 290.80649485 52.546875 293.625 C52.54423171 295.41667229 52.53910669 297.20834299 52.53125 299 C52.53934692 299.84175781 52.54744385 300.68351562 52.55578613 301.55078125 C52.54317749 302.33839844 52.53056885 303.12601562 52.51757812 303.9375 C52.51439575 304.62714844 52.51121338 305.31679688 52.50793457 306.02734375 C51.73993509 309.01000935 50.45122347 310.17257542 48 312 C44.97558594 312.45410156 44.97558594 312.45410156 41.484375 312.390625 C40.23398438 312.37773437 38.98359375 312.36484375 37.6953125 312.3515625 C35.74238281 312.30128906 35.74238281 312.30128906 33.75 312.25 C32.43257813 312.23195313 31.11515625 312.21390625 29.7578125 312.1953125 C26.50447692 312.14816271 23.25260375 312.08236044 20 312 C20.01490195 320.61517163 20.05661537 329.22962709 20.13209057 337.84446049 C20.16630885 341.84519435 20.1914624 345.84554845 20.19555664 349.84643555 C20.19985085 353.71121977 20.2284047 357.57514812 20.27343178 361.43966484 C20.28637126 362.91031334 20.29072703 364.38106446 20.28615379 365.85176277 C20.2593388 376.89277034 20.2593388 376.89277034 26 386 C29.51046132 394.04214774 29.41166849 405.27955148 26.4375 413.5 C21.74382188 423.17969606 14.92116148 428.09371163 5 432 C-4.03513867 434.20858945 -12.19751832 432.99935043 -20.42578125 428.74609375 C-27.40538286 424.44102856 -32.90810353 418.4478007 -35.52734375 410.52734375 C-37.26859077 401.21670884 -37.29117379 391.14026737 -32 383 C-31.48982834 382.4391571 -30.97965668 381.87831421 -30.45402527 381.30047607 C-28.50536577 378.21741785 -28.60179194 376.03066191 -28.56762695 372.39550781 C-28.5574353 371.74143448 -28.54724365 371.08736115 -28.53674316 370.41346741 C-28.50664289 368.25993247 -28.49735231 366.10684254 -28.48828125 363.953125 C-28.47143226 362.45667038 -28.45328172 360.9602299 -28.43388367 359.46380615 C-28.38640098 355.53147803 -28.35658067 351.59920722 -28.33044434 347.66668701 C-28.30062992 343.65137413 -28.25410266 339.63625867 -28.20898438 335.62109375 C-28.12297104 327.74749287 -28.05561724 319.87387398 -28 312 C-28.82725586 312.02094727 -29.65451172 312.04189453 -30.50683594 312.06347656 C-34.2544337 312.14661619 -38.00183749 312.19865531 -41.75 312.25 C-43.70292969 312.30027344 -43.70292969 312.30027344 -45.6953125 312.3515625 C-46.94570312 312.36445313 -48.19609375 312.37734375 -49.484375 312.390625 C-50.63647461 312.41157227 -51.78857422 312.43251953 -52.97558594 312.45410156 C-56 312 -56 312 -58.37487793 310.22949219 C-60.11638524 307.84033201 -60.50417936 306.84113211 -60.51757812 303.9375 C-60.53649109 302.75607422 -60.53649109 302.75607422 -60.55578613 301.55078125 C-60.54768921 300.70902344 -60.53959229 299.86726563 -60.53125 299 C-60.5350769 298.12730469 -60.53890381 297.25460937 -60.54284668 296.35546875 C-60.5455649 294.51300908 -60.53820994 292.67051076 -60.52148438 290.828125 C-60.50007248 288.00954066 -60.52128801 285.19350515 -60.546875 282.375 C-60.54423171 280.58332771 -60.53910669 278.79165701 -60.53125 277 C-60.54339539 275.73736328 -60.54339539 275.73736328 -60.55578613 274.44921875 C-60.46258306 268.62715356 -60.46258306 268.62715356 -58.12792969 265.46191406 C-55.46680206 263.63368641 -53.94679728 263.58174751 -50.75 263.75 C-49.85796875 263.78609375 -48.9659375 263.8221875 -48.046875 263.859375 C-47.37140625 263.90578125 -46.6959375 263.9521875 -46 264 C-46.10828125 262.85337891 -46.10828125 262.85337891 -46.21875 261.68359375 C-46.7595037 255.44239476 -47.16414199 249.20021683 -47.3125 242.9375 C-47.34988281 241.70902344 -47.38726562 240.48054687 -47.42578125 239.21484375 C-47 236 -47 236 -45.16796875 233.56640625 C-43 232 -43 232 -40 232 C-40.33 226.72 -40.66 221.44 -41 216 C-42.98 215.67 -44.96 215.34 -47 215 C-49.55314957 211.17027564 -49.62400365 207.70782071 -49.98974609 203.24243164 C-50.07086828 202.32260278 -50.15199047 201.40277391 -50.23557091 200.45507145 C-51.3260302 187.73904568 -52.16790825 175.00270694 -53.02014971 162.26893115 C-53.16593347 160.09317031 -53.3125335 157.91746593 -53.45939255 155.74177742 C-53.97469556 148.10678226 -54.48685455 140.47158357 -54.99609375 132.83618164 C-55.46625084 125.78809639 -55.94361046 118.74052358 -56.42426455 111.69314712 C-56.84098716 105.57813046 -57.25245452 99.46277395 -57.66004407 93.3471418 C-57.90170065 89.72260078 -58.14531734 86.09822139 -58.39436722 82.47418022 C-60.15038382 56.85933202 -60.15038382 56.85933202 -60.43115234 44.39086914 C-60.46590479 43.59641356 -60.50065723 42.80195799 -60.53646278 41.983428 C-60.56938376 38.07935609 -60.21369101 36.2692153 -57.75799561 33.17544556 C-55.35953913 31.28359646 -52.99653067 29.47345006 -50.44091797 27.80200195 C-49.57006561 27.22823318 -48.69921326 26.65446442 -47.80197144 26.06330872 C-46.87474274 25.46104965 -45.94751404 24.85879059 -44.9921875 24.23828125 C-44.02975128 23.60641403 -43.06731506 22.97454681 -42.07571411 22.3235321 C-39.01245645 20.31422159 -35.94385565 18.31324759 -32.875 16.3125 C-30.80302424 14.95562949 -28.73140564 13.59821342 -26.66015625 12.24023438 C-22.10924736 9.25768794 -17.55493399 6.28042413 -12.99752808 3.30781555 C-8.4476716 0.32894725 -5.46040421 -1.06312147 0 0 Z " fill="#42210B" transform="translate(180,48)"/>
<path d="M0 0 C5.91600339 3.57504721 10.36609374 8.97805172 12.5625 15.5 C12.80859566 18.34852314 12.80859566 18.34852314 12.80300903 21.53010559 C12.80575836 22.74020294 12.80850769 23.95030029 12.81134033 25.19706726 C12.8005545 27.17583611 12.8005545 27.17583611 12.78955078 29.19458008 C12.78898636 30.60416658 12.78930384 32.01375368 12.79043579 33.42333984 C12.79100909 37.24322156 12.77925852 41.06297741 12.76528788 44.8828299 C12.75277669 48.87733969 12.75160971 52.87185243 12.74923706 56.86637878 C12.74302344 64.42754909 12.7266142 71.98866148 12.70653808 79.5498063 C12.68417543 88.15918198 12.67318473 96.76856044 12.66314721 105.37795794 C12.64224787 123.08533811 12.60707417 140.7926644 12.5625 158.5 C13.59310547 158.48259766 14.62371094 158.46519531 15.68554688 158.44726562 C17.05077716 158.43319109 18.41601187 158.41954161 19.78125 158.40625 C20.45897461 158.39368164 21.13669922 158.38111328 21.83496094 158.36816406 C28.67599144 158.31822953 32.6311964 159.70299915 37.5234375 164.37109375 C43.91266591 171.26885258 45.04288584 176.70363152 44.8671875 186.0546875 C44.17189797 193.91680755 40.51495981 198.04958704 34.66015625 203.0546875 C29.93265551 206.31199713 25.58679378 206.79782322 19.96166992 206.79052734 C19.21301163 206.79724457 18.46435333 206.80396179 17.69300842 206.81088257 C15.22626037 206.82982768 12.75978496 206.83378512 10.29296875 206.8359375 C8.57049957 206.8423684 6.84803148 206.84909698 5.12556458 206.85610962 C1.51687082 206.86807405 -2.09172727 206.87179136 -5.70043945 206.87060547 C-10.31044705 206.87040245 -14.91983699 206.89769022 -19.52969837 206.93214989 C-23.08748659 206.95445764 -26.64512715 206.95844181 -30.20297813 206.95738602 C-31.90174167 206.95973669 -33.60050961 206.96853003 -35.29920387 206.98405075 C-53.15181352 207.13188205 -53.15181352 207.13188205 -60.6796875 200.53515625 C-61.48792969 199.55869141 -61.48792969 199.55869141 -62.3125 198.5625 C-62.86679687 197.91410156 -63.42109375 197.26570312 -63.9921875 196.59765625 C-68.47162097 190.09642443 -68.11213728 183.12859083 -67.4375 175.5 C-65.75664417 168.84040667 -60.97371678 164.31452553 -55.4375 160.5 C-50.4375 158.5 -50.4375 158.5 -35.4375 158.5 C-35.9325 110.98 -35.9325 110.98 -36.4375 62.5 C-41.0575 62.5 -45.6775 62.5 -50.4375 62.5 C-57.79992998 60.01129127 -63.08722976 55.16920354 -66.609375 48.171875 C-68.61594404 41.69785035 -68.7136327 33.32722423 -65.9375 27.0625 C-59.39984223 17.03159056 -48.51122344 12.66310152 -38.125 7.625 C-36.54829706 6.8474301 -34.97212029 6.06879231 -33.39648438 5.2890625 C-22.91577633 0.12510438 -11.7345805 -5.24360191 0 0 Z " fill="#42210B" transform="translate(427.4375,121.5)"/>
<path d="M0 0 C2.61412396 1.24399243 5.0068731 2.61084058 7.44970703 4.16308594 C8.36300781 4.74316406 9.27630859 5.32324219 10.21728516 5.92089844 C11.16152344 6.52675781 12.10576172 7.13261719 13.07861328 7.75683594 C13.98804688 8.33175781 14.89748047 8.90667969 15.83447266 9.49902344 C17.73887776 10.71465763 19.62839946 11.95386133 21.50390625 13.21362305 C23.81191949 14.71679525 26.08217182 16.06793386 28.48535156 17.39575195 C38.01182491 22.94145379 38.01182491 22.94145379 39.59594727 28.77001953 C39.64535242 33.02420362 39.23785273 36.9937933 38.64111328 41.19433594 C38.47918122 42.72397491 38.32510099 44.25446336 38.1784668 45.78564453 C37.86655048 48.9827402 37.52080775 52.17358615 37.15332031 55.36474609 C36.35530969 62.58982127 36.04201309 69.84183574 35.69067383 77.09963989 C34.87278573 93.7565369 34.87278573 93.7565369 34.14501953 99.65527344 C33.25069902 106.98158869 33.03103458 114.38945579 32.64111328 121.75683594 C31.72700285 139.02852401 31.72700285 139.02852401 30.89111328 145.77441406 C30.22285196 152.41004016 29.99354558 159.0977929 29.64111328 165.75683594 C28.72676605 183.03299821 28.72676605 183.03299821 27.88671875 189.81396484 C27.31707819 195.47979334 27.11943457 201.18474503 26.82489014 206.87069702 C26.15366734 219.73118397 25.2825794 232.47684973 23.64111328 245.25683594 C18.03111328 245.25683594 12.42111328 245.25683594 6.64111328 245.25683594 C6.63746765 242.92296814 6.63382202 240.58910034 6.63006592 238.18450928 C6.59387655 216.22917965 6.53572293 194.27398725 6.45721054 172.31876755 C6.41737384 161.03038031 6.3850049 149.74206326 6.37011719 138.45361328 C6.35712466 128.61644606 6.33022151 118.77943297 6.28650022 108.94235253 C6.26383136 103.73198734 6.24820584 98.52181262 6.24922943 93.31139374 C6.24997285 88.40953101 6.23215074 83.5080902 6.19994545 78.60633659 C6.19141039 76.80519725 6.18972084 75.00401077 6.19531059 73.20285988 C6.20191804 70.74710836 6.18410979 68.29271213 6.16009521 65.83709717 C6.16785563 65.1211412 6.17561605 64.40518524 6.18361163 63.66753364 C6.12521137 60.30379098 5.84812673 58.5309016 3.79617691 55.81431961 C1.66740735 54.0327762 1.66740735 54.0327762 -1.35888672 53.75683594 C-5.12884823 54.38516286 -6.06844081 55.22450831 -8.35888672 58.25683594 C-8.75530156 60.92087268 -8.90673099 63.17433292 -8.87786865 65.83709717 C-8.88912053 66.98766015 -8.88912053 66.98766015 -8.90059972 68.16146684 C-8.92091148 70.7335697 -8.91276768 73.30479396 -8.90478516 75.87695312 C-8.9135183 77.71989313 -8.92400317 79.56282554 -8.93611145 81.40574646 C-8.96402382 86.41160838 -8.96737498 91.41722352 -8.96639156 96.42315197 C-8.96951616 101.65359746 -8.99512492 106.88393106 -9.01837158 112.11431885 C-9.05896984 122.02003019 -9.07928129 131.92567564 -9.09234548 141.83145738 C-9.10820256 153.10829927 -9.14661274 164.38502882 -9.18693876 175.66180563 C-9.26939008 198.86011466 -9.32264951 222.05841267 -9.35888672 245.25683594 C-14.96888672 245.25683594 -20.57888672 245.25683594 -26.35888672 245.25683594 C-26.46845703 243.51015625 -26.57802734 241.76347656 -26.69091797 239.96386719 C-26.85038664 237.66564229 -27.01058081 235.36746765 -27.17138672 233.06933594 C-27.24164063 231.91884766 -27.31189453 230.76835937 -27.38427734 229.58300781 C-27.46484375 228.47119141 -27.54541016 227.359375 -27.62841797 226.21386719 C-27.73053589 224.68209839 -27.73053589 224.68209839 -27.8347168 223.11938477 C-28.44446093 219.78950586 -29.22121786 217.88919555 -31.35888672 215.25683594 C-33.33888672 214.59683594 -35.31888672 213.93683594 -37.35888672 213.25683594 C-37.68888672 207.97683594 -38.01888672 202.69683594 -38.35888672 197.25683594 C-36.37888672 196.26683594 -34.39888672 195.27683594 -32.35888672 194.25683594 C-30.83369483 191.20645217 -31.21556953 188.0372233 -31.23388672 184.69433594 C-31.23001953 184.01564453 -31.22615234 183.33695313 -31.22216797 182.63769531 C-31.2304703 178.23330951 -31.58094162 173.9592836 -32.109375 169.58911133 C-32.63781202 164.64962128 -32.75826981 159.67909481 -32.96435547 154.71777344 C-33.17906222 149.9349955 -33.56384495 145.22189398 -34.12695312 140.46826172 C-34.52022917 136.71847812 -34.64500771 132.96027502 -34.79638672 129.19433594 C-35.13872822 121.52936781 -35.68772443 113.89974249 -36.35888672 106.25683594 C-37.099648 97.82136611 -37.67696563 89.39993411 -38.01708984 80.93847656 C-38.1742193 77.20905713 -38.41544741 73.52693136 -38.85498047 69.81933594 C-39.52981222 64.10344268 -39.72797373 58.37746094 -39.96435547 52.62988281 C-40.24344761 46.38880515 -40.88574486 40.30936404 -41.84326172 34.13183594 C-42.14019569 30.91796237 -42.12578116 28.40110316 -41.35888672 25.25683594 C-38.2705282 21.67076675 -34.43165607 19.59856352 -30.35888672 17.25683594 C-28.38775959 16.03267826 -26.42906069 14.78990705 -24.46948242 13.54736328 C-22.42755655 12.26072362 -20.37086754 11.00053255 -18.31201172 9.74121094 C-15.7580308 8.16324212 -13.28084614 6.52473591 -10.84326172 4.77246094 C-9.79654297 4.02480469 -8.74982422 3.27714844 -7.67138672 2.50683594 C-6.76001953 1.83136719 -5.84865234 1.15589844 -4.90966797 0.45996094 C-2.35888672 -0.74316406 -2.35888672 -0.74316406 0 0 Z " fill="#E4E4E4" transform="translate(177.35888671875,66.7431640625)"/>
<path d="M0 0 C0.87269531 -0.0038269 1.74539063 -0.00765381 2.64453125 -0.01159668 C4.48699092 -0.0143149 6.32948924 -0.00695994 8.171875 0.00976562 C10.99045934 0.03117752 13.80649485 0.00996199 16.625 -0.015625 C18.41667229 -0.01298171 20.20834299 -0.00785669 22 0 C22.84175781 -0.00809692 23.68351562 -0.01619385 24.55078125 -0.02453613 C28.31082437 0.03565687 30.37797303 0.10595491 33.53808594 2.26660156 C35.22575346 4.88096427 35.4697632 6.21048533 35.390625 9.296875 C35.37773437 10.18632812 35.36484375 11.07578125 35.3515625 11.9921875 C35.31804687 12.91257813 35.28453125 13.83296875 35.25 14.78125 C35.23195313 15.71710938 35.21390625 16.65296875 35.1953125 17.6171875 C35.14825673 19.92292015 35.08253713 22.22655945 35 24.53125 C35.87736816 24.4998291 35.87736816 24.4998291 36.77246094 24.46777344 C39.43146465 24.38444885 42.09019355 24.33254103 44.75 24.28125 C46.13058594 24.23097656 46.13058594 24.23097656 47.5390625 24.1796875 C48.42851562 24.16679687 49.31796875 24.15390625 50.234375 24.140625 C51.05131836 24.11967773 51.86826172 24.09873047 52.70996094 24.07714844 C56.04934123 24.73932833 57.07540969 25.71638775 59 28.53125 C59.58463093 31.53309559 59.56059442 34.4805981 59.53125 37.53125 C59.53699036 38.84029297 59.53699036 38.84029297 59.54284668 40.17578125 C59.5455649 42.01824092 59.53820994 43.86073924 59.52148438 45.703125 C59.50007248 48.52170934 59.52128801 51.33774485 59.546875 54.15625 C59.54423171 55.94792229 59.53910669 57.73959299 59.53125 59.53125 C59.53934692 60.37300781 59.54744385 61.21476562 59.55578613 62.08203125 C59.49559313 65.84207437 59.42529509 67.90922303 57.26464844 71.06933594 C54.65028573 72.75700346 53.32076467 73.0010132 50.234375 72.921875 C49.34492188 72.90898437 48.45546875 72.89609375 47.5390625 72.8828125 C46.61867188 72.84929687 45.69828125 72.81578125 44.75 72.78125 C43.81414062 72.76320313 42.87828125 72.74515625 41.9140625 72.7265625 C39.60832985 72.67950673 37.30469055 72.61378713 35 72.53125 C35.0314209 73.40861816 35.0314209 73.40861816 35.06347656 74.30371094 C35.14680115 76.96271465 35.19870897 79.62144355 35.25 82.28125 C35.28351563 83.20164062 35.31703125 84.12203125 35.3515625 85.0703125 C35.37089844 86.40449219 35.37089844 86.40449219 35.390625 87.765625 C35.4220459 88.99104004 35.4220459 88.99104004 35.45410156 90.24121094 C34.79192167 93.58059123 33.81486225 94.60665969 31 96.53125 C27.99815441 97.11588093 25.0506519 97.09184442 22 97.0625 C21.12730469 97.0663269 20.25460937 97.07015381 19.35546875 97.07409668 C17.51300908 97.0768149 15.67051076 97.06945994 13.828125 97.05273438 C11.00954066 97.03132248 8.19350515 97.05253801 5.375 97.078125 C3.58332771 97.07548171 1.79165701 97.07035669 0 97.0625 C-1.26263672 97.07464539 -1.26263672 97.07464539 -2.55078125 97.08703613 C-6.31082437 97.02684313 -8.37797303 96.95654509 -11.53808594 94.79589844 C-13.22575346 92.18153573 -13.4697632 90.85201467 -13.390625 87.765625 C-13.37128906 86.43144531 -13.37128906 86.43144531 -13.3515625 85.0703125 C-13.30128906 83.68972656 -13.30128906 83.68972656 -13.25 82.28125 C-13.23195313 81.34539062 -13.21390625 80.40953125 -13.1953125 79.4453125 C-13.14825673 77.13957985 -13.08253713 74.83594055 -13 72.53125 C-13.87736816 72.5626709 -13.87736816 72.5626709 -14.77246094 72.59472656 C-17.43146465 72.67805115 -20.09019355 72.72995897 -22.75 72.78125 C-23.67039062 72.81476563 -24.59078125 72.84828125 -25.5390625 72.8828125 C-26.87324219 72.90214844 -26.87324219 72.90214844 -28.234375 72.921875 C-29.05131836 72.94282227 -29.86826172 72.96376953 -30.70996094 72.98535156 C-34.04934123 72.32317167 -35.07540969 71.34611225 -37 68.53125 C-37.58463093 65.52940441 -37.56059442 62.5819019 -37.53125 59.53125 C-37.5350769 58.65855469 -37.53890381 57.78585938 -37.54284668 56.88671875 C-37.5455649 55.04425908 -37.53820994 53.20176076 -37.52148438 51.359375 C-37.50007248 48.54079066 -37.52128801 45.72475515 -37.546875 42.90625 C-37.54423171 41.11457771 -37.53910669 39.32290701 -37.53125 37.53125 C-37.53934692 36.68949219 -37.54744385 35.84773438 -37.55578613 34.98046875 C-37.49559313 31.22042563 -37.42529509 29.15327697 -35.26464844 25.99316406 C-32.65028573 24.30549654 -31.32076467 24.0614868 -28.234375 24.140625 C-26.90019531 24.15996094 -26.90019531 24.15996094 -25.5390625 24.1796875 C-24.15847656 24.22996094 -24.15847656 24.22996094 -22.75 24.28125 C-21.81414062 24.29929688 -20.87828125 24.31734375 -19.9140625 24.3359375 C-17.60832985 24.38299327 -15.30469055 24.44871287 -13 24.53125 C-13.02094727 23.94633789 -13.04189453 23.36142578 -13.06347656 22.75878906 C-13.14680115 20.09978535 -13.19870897 17.44105645 -13.25 14.78125 C-13.28351563 13.86085937 -13.31703125 12.94046875 -13.3515625 11.9921875 C-13.36445313 11.10273438 -13.37734375 10.21328125 -13.390625 9.296875 C-13.41157227 8.47993164 -13.43251953 7.66298828 -13.45410156 6.82128906 C-12.0147908 -0.43717057 -6.06389171 -0.05832897 0 0 Z " fill="#42210B" transform="translate(293,175.46875)"/>
<path d="M0 0 C3.06689601 2.49088034 4.78934349 4.0125134 5.62526989 7.93105412 C5.62543763 9.02002711 5.62560537 10.10900011 5.6257782 11.23097229 C5.64437393 13.11317474 5.64437393 13.11317474 5.66334534 15.03340149 C5.65190455 16.41623301 5.64000252 17.79906077 5.62768555 19.18188477 C5.63286581 20.6441031 5.64026694 22.106315 5.64971924 23.56851196 C5.6652722 26.71270862 5.66511927 29.85637212 5.65271568 33.00058174 C5.63317161 37.97157716 5.64837249 42.94209862 5.66816711 47.91307068 C5.69531008 55.77407713 5.69880899 63.63489037 5.69239408 71.49593443 C5.68145132 85.57769124 5.70602978 99.65939006 5.74614173 113.74108738 C5.75922307 118.68333797 5.76046581 123.62541175 5.7520088 128.56767094 C5.74838664 131.64020463 5.7526808 134.71269305 5.7588501 137.7852211 C5.75993647 139.21066008 5.75756873 140.63610648 5.7515049 142.06153297 C5.74362829 144.00634353 5.74905597 145.95119446 5.75517273 147.89601135 C5.75420939 148.98460732 5.75324606 150.0732033 5.75225353 151.19478703 C6.00115667 154.01309693 6.45055694 155.65286214 8 158 C10.38473896 159.19236948 11.95227215 159.15513183 14.61328125 159.2109375 C15.53173828 159.23929688 16.45019531 159.26765625 17.39648438 159.296875 C19.32858982 159.34863938 21.26090878 159.39300369 23.19335938 159.4296875 C32.09151911 159.72815827 32.09151911 159.72815827 36 163 C37.40457737 165.80915474 37.24895157 167.88810534 37 171 C35.22015595 174.1359157 34.47691793 174.84102736 31 176 C28.80364887 176.11471388 26.60400451 176.16938102 24.40478516 176.19287109 C23.40668068 176.20513733 23.40668068 176.20513733 22.38841248 176.21765137 C20.18863821 176.24244353 17.98892812 176.25900377 15.7890625 176.2734375 C15.03680767 176.27876118 14.28455284 176.28408485 13.50950241 176.28956985 C9.52913177 176.31627229 5.54879221 176.33565797 1.56835938 176.35009766 C-1.72391483 176.3634468 -5.01557066 176.3913201 -8.30761719 176.43212891 C-12.28579142 176.48143965 -16.26340408 176.50621609 -20.24187088 176.51332474 C-21.75615192 176.5200366 -23.27042045 176.53525729 -24.78452682 176.55921555 C-26.90568026 176.59086941 -29.02466809 176.59090568 -31.14599609 176.58349609 C-32.35162201 176.59158295 -33.55724792 176.5996698 -34.79940796 176.60800171 C-38.93320538 175.82272328 -40.41305052 174.24921872 -43 171 C-43.625 168 -43.625 168 -43 165 C-40.91894312 162.07094489 -39.29610187 160.25894694 -35.68554688 159.53759766 C-32.92752587 159.35458399 -30.20150955 159.30304069 -27.4375 159.3125 C-25.5611085 159.29587213 -23.68476612 159.27142917 -21.80859375 159.23828125 C-20.56807251 159.2388855 -20.56807251 159.2388855 -19.30249023 159.23950195 C-16.7301867 158.97193438 -15.15076147 158.43135754 -13 157 C-12.01229214 154.03687641 -11.86752397 152.08822776 -11.85282898 148.99659729 C-11.84567368 147.96331299 -11.83851837 146.93002869 -11.83114624 145.86543274 C-11.82845734 144.73236191 -11.82576843 143.59929108 -11.82299805 142.43188477 C-11.81642685 141.23818268 -11.80985565 140.04448059 -11.80308533 138.81460571 C-11.78334248 134.85687907 -11.77168829 130.89916566 -11.76171875 126.94140625 C-11.75767067 125.5785158 -11.75355373 124.21562555 -11.74936867 122.85273552 C-11.73032633 116.45191685 -11.71609112 110.05110968 -11.7077567 103.65026814 C-11.69797574 96.26068714 -11.67163023 88.87140501 -11.63125581 81.48192936 C-11.6011157 75.76974912 -11.58629 70.05765469 -11.58297569 64.34539646 C-11.58062351 60.93357032 -11.57164148 57.52206383 -11.54651451 54.11032295 C-11.5222865 50.30580656 -11.52305829 46.50207893 -11.5300293 42.69750977 C-11.51081421 41.00093987 -11.51081421 41.00093987 -11.49121094 39.27009583 C-11.49815475 38.2339917 -11.50509857 37.19788757 -11.51225281 36.13038635 C-11.50986445 35.23092568 -11.5074761 34.33146502 -11.50501537 33.40474796 C-12.1617693 30.21408791 -13.49402534 29.01375846 -16 27 C-20.45103558 26.04620666 -23.10369374 27.47979493 -26.9375 29.5625 C-30.41897086 31.40809901 -31.88421046 31.99816207 -35.9375 32.0625 C-39 31 -39 31 -40.9375 29.375 C-42.43699866 26.02317947 -42.45377473 23.63019782 -42 20 C-38.97314191 16.21198025 -35.08281887 14.2347464 -30.8203125 12.109375 C-30.12992889 11.75989807 -29.43954529 11.41042114 -28.72824097 11.050354 C-27.27285449 10.31693898 -25.81537611 9.58766208 -24.35595703 8.86230469 C-22.13197754 7.75347884 -19.9195143 6.62374404 -17.70703125 5.4921875 C-16.28710815 4.77995303 -14.86655505 4.06897288 -13.4453125 3.359375 C-12.78886749 3.02194275 -12.13242249 2.6845105 -11.45608521 2.33685303 C-7.48650476 0.39147884 -4.40376772 -0.80810006 0 0 Z " fill="#F5CE78" transform="translate(419,136)"/>
<path d="M0 0 C0.06607673 0.99152793 0.13215345 1.98305586 0.20023251 3.00463009 C1.8088876 27.14226432 3.41982746 51.27974523 5.03315639 75.41706753 C5.8133002 87.08974111 6.59270439 98.76246319 7.37036133 110.43530273 C8.0482504 120.61057141 8.7275334 130.78574591 9.40848309 140.96081024 C9.76891512 146.34727968 10.12865394 151.73379338 10.48672295 157.12042046 C10.82399002 162.19377975 11.16312531 167.26701076 11.50367355 172.34015083 C11.62811516 174.19882777 11.75188305 176.05754996 11.87491417 177.9163208 C12.04350875 180.4619139 12.21456876 183.00733024 12.38621521 185.55271912 C12.4338847 186.28134751 12.48155418 187.00997591 12.5306682 187.76068395 C12.83207179 192.18336571 13.26436441 196.57583182 13.79174191 200.97743946 C14.10195637 203.99017972 14.11173421 206.97714549 14.09765625 210.00390625 C14.09443359 211.23818359 14.09121094 212.47246094 14.08789062 213.74414062 C14.07532227 215.63422852 14.07532227 215.63422852 14.0625 217.5625 C14.05798828 218.85736328 14.05347656 220.15222656 14.04882812 221.48632812 C14.03712612 224.65757226 14.01919359 227.82879236 14 231 C8.39 231 2.78 231 -3 231 C-3.10957031 229.25332031 -3.21914062 227.50664062 -3.33203125 225.70703125 C-3.49149992 223.40880635 -3.65169409 221.11063172 -3.8125 218.8125 C-3.88275391 217.66201172 -3.95300781 216.51152344 -4.02539062 215.32617188 C-4.10595703 214.21435547 -4.18652344 213.10253906 -4.26953125 211.95703125 C-4.37164917 210.42526245 -4.37164917 210.42526245 -4.47583008 208.86254883 C-5.08557422 205.53266992 -5.86233114 203.63235961 -8 201 C-9.98 200.34 -11.96 199.68 -14 199 C-14.33 193.72 -14.66 188.44 -15 183 C-13.02 182.01 -11.04 181.02 -9 180 C-7.47480812 176.94961623 -7.85668281 173.78038736 -7.875 170.4375 C-7.87113281 169.75880859 -7.86726562 169.08011719 -7.86328125 168.38085938 C-7.87158358 163.97647357 -8.22205491 159.70244767 -8.75048828 155.33227539 C-9.2789253 150.39278534 -9.39938309 145.42225888 -9.60546875 140.4609375 C-9.8201755 135.67815957 -10.20495823 130.96505804 -10.76806641 126.21142578 C-11.16134245 122.46164219 -11.28612099 118.70343908 -11.4375 114.9375 C-11.7798415 107.27253188 -12.32883771 99.64290655 -13 92 C-13.74076128 83.56453017 -14.31807891 75.14309817 -14.65820312 66.68164062 C-14.81533258 62.95222119 -15.05656069 59.27009542 -15.49609375 55.5625 C-16.17092551 49.84660674 -16.36908701 44.12062501 -16.60546875 38.37304688 C-16.88456089 32.13196921 -17.52685814 26.05252811 -18.484375 19.875 C-18.78391266 16.63294532 -18.81170756 14.16608446 -18 11 C-14.77007172 7.53738392 -11.10963413 5.30161695 -7 3 C-6.09636719 2.43410156 -5.19273437 1.86820312 -4.26171875 1.28515625 C-2 0 -2 0 0 0 Z " fill="#CACACA" transform="translate(154,81)"/>
<path d="M0 0 C5.28 0 10.56 0 16 0 C16.04898438 1.25296875 16.09796875 2.5059375 16.1484375 3.796875 C16.22348583 5.44793821 16.29903277 7.09897881 16.375 8.75 C16.4059375 9.575 16.436875 10.4 16.46875 11.25 C16.52675781 12.44882813 16.52675781 12.44882813 16.5859375 13.671875 C16.6173584 14.4050293 16.6487793 15.13818359 16.68115234 15.89355469 C17.04357812 18.2878959 17.73647048 19.93995853 19 22 C21.29308963 23.14654482 22.79909656 23.19729117 25.3515625 23.31640625 C26.20234375 23.35830078 27.053125 23.40019531 27.9296875 23.44335938 C28.81914062 23.48267578 29.70859375 23.52199219 30.625 23.5625 C31.5221875 23.60568359 32.419375 23.64886719 33.34375 23.69335938 C35.56231239 23.79956715 37.78113565 23.90029959 40 24 C40 29.28 40 34.56 40 40 C38.01226562 40.03867188 38.01226562 40.03867188 35.984375 40.078125 C34.23955056 40.13440966 32.49476017 40.19175692 30.75 40.25 C29.87730469 40.26417969 29.00460937 40.27835938 28.10546875 40.29296875 C24.38467991 40.43498359 21.71563093 40.5985485 18.4375 42.4375 C16.21206067 46.4045875 16.32278245 50.27057075 16.25 54.75 C16.20552734 56.08224609 16.20552734 56.08224609 16.16015625 57.44140625 C16.08964939 59.62711897 16.04253766 61.81356411 16 64 C10.72 64 5.44 64 0 64 C-0.04898437 62.66324219 -0.09796875 61.32648438 -0.1484375 59.94921875 C-0.22347182 58.19529162 -0.29901936 56.44138639 -0.375 54.6875 C-0.4059375 53.80642578 -0.436875 52.92535156 -0.46875 52.01757812 C-0.50742187 51.17001953 -0.54609375 50.32246094 -0.5859375 49.44921875 C-0.63306885 48.27879028 -0.63306885 48.27879028 -0.68115234 47.0847168 C-0.89587889 44.69844232 -0.89587889 44.69844232 -3 42 C-5.65918166 41.11360611 -7.48064641 40.82010975 -10.23046875 40.68359375 C-11.03291016 40.64169922 -11.83535156 40.59980469 -12.66210938 40.55664062 C-13.49548828 40.51732422 -14.32886719 40.47800781 -15.1875 40.4375 C-16.4549707 40.37272461 -16.4549707 40.37272461 -17.74804688 40.30664062 C-19.83184433 40.20068482 -21.91590103 40.0998498 -24 40 C-24 34.72 -24 29.44 -24 24 C-22.74703125 23.95101562 -21.4940625 23.90203125 -20.203125 23.8515625 C-18.55206179 23.77651417 -16.90102119 23.70096723 -15.25 23.625 C-14.425 23.5940625 -13.6 23.563125 -12.75 23.53125 C-11.55117188 23.47324219 -11.55117188 23.47324219 -10.328125 23.4140625 C-9.22839355 23.36693115 -9.22839355 23.36693115 -8.10644531 23.31884766 C-5.68519718 22.95234904 -4.05485874 22.33201878 -2 21 C-1.11360611 18.34081834 -0.82010975 16.51935359 -0.68359375 13.76953125 C-0.64169922 12.96708984 -0.59980469 12.16464844 -0.55664062 11.33789062 C-0.51732422 10.50451172 -0.47800781 9.67113281 -0.4375 8.8125 C-0.39431641 7.96751953 -0.35113281 7.12253906 -0.30664062 6.25195312 C-0.20068482 4.16815567 -0.0998498 2.08409897 0 0 Z " fill="#F6CF78" transform="translate(296,192)"/>
<path d="M0 0 C5.82485779 3.51996782 10.54466582 8.98962934 12.5625 15.5 C13.36764105 23.33608208 13.68710392 31.11922577 8.5625 37.5 C3.75801361 42.54521222 -0.59927055 46.10562995 -7.70703125 46.8359375 C-16.22326573 46.92983204 -22.11345494 46.6177288 -28.40234375 40.62890625 C-34.7841668 33.72505269 -35.91792252 28.29832071 -35.7421875 18.9453125 C-35.04689797 11.08319245 -31.38995981 6.95041296 -25.53515625 1.9453125 C-18.47077988 -2.92213491 -7.84396301 -3.47595223 0 0 Z M-16.8125 17.125 C-18.92456506 20.21186432 -19.04945145 21.8282913 -18.4375 25.5 C-16.9375 28 -16.9375 28 -14.4375 29.5 C-10.7657913 30.11195145 -9.14936432 29.98706506 -6.0625 27.875 C-3.95043494 24.78813568 -3.82554855 23.1717087 -4.4375 19.5 C-5.9375 17 -5.9375 17 -8.4375 15.5 C-12.1092087 14.88804855 -13.72563568 15.01293494 -16.8125 17.125 Z " fill="#42200A" transform="translate(323.4375,337.5)"/>
<path d="M0 0 C5.82485779 3.51996782 10.54466582 8.98962934 12.5625 15.5 C13.36764105 23.33608208 13.68710392 31.11922577 8.5625 37.5 C3.75801361 42.54521222 -0.59927055 46.10562995 -7.70703125 46.8359375 C-16.22326573 46.92983204 -22.11345494 46.6177288 -28.40234375 40.62890625 C-34.7841668 33.72505269 -35.91792252 28.29832071 -35.7421875 18.9453125 C-35.04689797 11.08319245 -31.38995981 6.95041296 -25.53515625 1.9453125 C-18.47077988 -2.92213491 -7.84396301 -3.47595223 0 0 Z M-16.8125 17.125 C-18.92456506 20.21186432 -19.04945145 21.8282913 -18.4375 25.5 C-16.9375 28 -16.9375 28 -14.4375 29.5 C-10.7657913 30.11195145 -9.14936432 29.98706506 -6.0625 27.875 C-3.95043494 24.78813568 -3.82554855 23.1717087 -4.4375 19.5 C-5.9375 17 -5.9375 17 -8.4375 15.5 C-12.1092087 14.88804855 -13.72563568 15.01293494 -16.8125 17.125 Z " fill="#42200A" transform="translate(75.4375,169.5)"/>
<path d="M0 0 C5.82485779 3.51996782 10.54466582 8.98962934 12.5625 15.5 C13.36764105 23.33608208 13.68710392 31.11922577 8.5625 37.5 C3.75801361 42.54521222 -0.59927055 46.10562995 -7.70703125 46.8359375 C-16.22326573 46.92983204 -22.11345494 46.6177288 -28.40234375 40.62890625 C-34.7841668 33.72505269 -35.91792252 28.29832071 -35.7421875 18.9453125 C-35.04689797 11.08319245 -31.38995981 6.95041296 -25.53515625 1.9453125 C-18.47077988 -2.92213491 -7.84396301 -3.47595223 0 0 Z M-16.8125 17.125 C-18.92456506 20.21186432 -19.04945145 21.8282913 -18.4375 25.5 C-16.9375 28 -16.9375 28 -14.4375 29.5 C-10.7657913 30.11195145 -9.14936432 29.98706506 -6.0625 27.875 C-3.95043494 24.78813568 -3.82554855 23.1717087 -4.4375 19.5 C-5.9375 17 -5.9375 17 -8.4375 15.5 C-12.1092087 14.88804855 -13.72563568 15.01293494 -16.8125 17.125 Z " fill="#42200A" transform="translate(347.4375,89.5)"/>
<path d="M0 0 C26.4 0 52.8 0 80 0 C80 5.28 80 10.56 80 16 C53.6 16 27.2 16 0 16 C0 10.72 0 5.44 0 0 Z " fill="#334049" transform="translate(136,328)"/>
<path d="M0 0 C0.66 -0.0103125 1.32 -0.020625 2 -0.03125 C4.98174986 0.76077731 6.16411059 2.04673186 8 4.5 C8.390625 7.515625 8.390625 7.515625 8.25 10.75 C8.21390625 11.82765625 8.1778125 12.9053125 8.140625 14.015625 C8.09421875 14.83546875 8.0478125 15.6553125 8 16.5 C8.81984375 16.45359375 9.6396875 16.4071875 10.484375 16.359375 C11.56203125 16.32328125 12.6396875 16.2871875 13.75 16.25 C15.35101563 16.18039063 15.35101563 16.18039063 16.984375 16.109375 C20 16.5 20 16.5 22.359375 18.265625 C24.09023982 20.62289805 24.54492653 21.62470206 24.5 24.5 C24.5103125 25.16 24.520625 25.82 24.53125 26.5 C23.73922269 29.48174986 22.45326814 30.66411059 20 32.5 C16.984375 32.890625 16.984375 32.890625 13.75 32.75 C12.67234375 32.71390625 11.5946875 32.6778125 10.484375 32.640625 C9.66453125 32.59421875 8.8446875 32.5478125 8 32.5 C8.04640625 33.31984375 8.0928125 34.1396875 8.140625 34.984375 C8.19476563 36.60085938 8.19476563 36.60085938 8.25 38.25 C8.29640625 39.31734375 8.3428125 40.3846875 8.390625 41.484375 C8 44.5 8 44.5 6.234375 46.859375 C3.87710195 48.59023982 2.87529794 49.04492653 0 49 C-0.99 49.01546875 -0.99 49.01546875 -2 49.03125 C-4.98174986 48.23922269 -6.16411059 46.95326814 -8 44.5 C-8.390625 41.484375 -8.390625 41.484375 -8.25 38.25 C-8.21390625 37.17234375 -8.1778125 36.0946875 -8.140625 34.984375 C-8.09421875 34.16453125 -8.0478125 33.3446875 -8 32.5 C-8.81984375 32.54640625 -9.6396875 32.5928125 -10.484375 32.640625 C-12.10085937 32.69476563 -12.10085937 32.69476563 -13.75 32.75 C-14.81734375 32.79640625 -15.8846875 32.8428125 -16.984375 32.890625 C-20 32.5 -20 32.5 -22.359375 30.734375 C-24.09023982 28.37710195 -24.54492653 27.37529794 -24.5 24.5 C-24.51546875 23.51 -24.51546875 23.51 -24.53125 22.5 C-23.73922269 19.51825014 -22.45326814 18.33588941 -20 16.5 C-16.984375 16.109375 -16.984375 16.109375 -13.75 16.25 C-12.67234375 16.28609375 -11.5946875 16.3221875 -10.484375 16.359375 C-9.25460938 16.42898437 -9.25460938 16.42898437 -8 16.5 C-8.04640625 15.68015625 -8.0928125 14.8603125 -8.140625 14.015625 C-8.17671875 12.93796875 -8.2128125 11.8603125 -8.25 10.75 C-8.29640625 9.68265625 -8.3428125 8.6153125 -8.390625 7.515625 C-8 4.5 -8 4.5 -6.234375 2.140625 C-3.87710195 0.40976018 -2.87529794 -0.04492653 0 0 Z " fill="#42210A" transform="translate(88,239.5)"/>
<path d="M0 0 C0.66 -0.0103125 1.32 -0.020625 2 -0.03125 C4.98174986 0.76077731 6.16411059 2.04673186 8 4.5 C8.390625 7.515625 8.390625 7.515625 8.25 10.75 C8.21390625 11.82765625 8.1778125 12.9053125 8.140625 14.015625 C8.09421875 14.83546875 8.0478125 15.6553125 8 16.5 C8.81984375 16.45359375 9.6396875 16.4071875 10.484375 16.359375 C11.56203125 16.32328125 12.6396875 16.2871875 13.75 16.25 C15.35101563 16.18039063 15.35101563 16.18039063 16.984375 16.109375 C20 16.5 20 16.5 22.359375 18.265625 C24.09023982 20.62289805 24.54492653 21.62470206 24.5 24.5 C24.5103125 25.16 24.520625 25.82 24.53125 26.5 C23.73922269 29.48174986 22.45326814 30.66411059 20 32.5 C16.984375 32.890625 16.984375 32.890625 13.75 32.75 C12.67234375 32.71390625 11.5946875 32.6778125 10.484375 32.640625 C9.66453125 32.59421875 8.8446875 32.5478125 8 32.5 C8.04640625 33.31984375 8.0928125 34.1396875 8.140625 34.984375 C8.19476563 36.60085937 8.19476563 36.60085937 8.25 38.25 C8.29640625 39.31734375 8.3428125 40.3846875 8.390625 41.484375 C8 44.5 8 44.5 6.234375 46.859375 C3.87710195 48.59023982 2.87529794 49.04492653 0 49 C-0.99 49.01546875 -0.99 49.01546875 -2 49.03125 C-4.98174986 48.23922269 -6.16411059 46.95326814 -8 44.5 C-8.390625 41.484375 -8.390625 41.484375 -8.25 38.25 C-8.21390625 37.17234375 -8.1778125 36.0946875 -8.140625 34.984375 C-8.09421875 34.16453125 -8.0478125 33.3446875 -8 32.5 C-8.81984375 32.54640625 -9.6396875 32.5928125 -10.484375 32.640625 C-12.10085937 32.69476563 -12.10085937 32.69476563 -13.75 32.75 C-14.81734375 32.79640625 -15.8846875 32.8428125 -16.984375 32.890625 C-20 32.5 -20 32.5 -22.359375 30.734375 C-24.09023982 28.37710195 -24.54492653 27.37529794 -24.5 24.5 C-24.51546875 23.51 -24.51546875 23.51 -24.53125 22.5 C-23.73922269 19.51825014 -22.45326814 18.33588941 -20 16.5 C-16.984375 16.109375 -16.984375 16.109375 -13.75 16.25 C-12.67234375 16.28609375 -11.5946875 16.3221875 -10.484375 16.359375 C-9.25460938 16.42898437 -9.25460938 16.42898437 -8 16.5 C-8.04640625 15.68015625 -8.0928125 14.8603125 -8.140625 14.015625 C-8.17671875 12.93796875 -8.2128125 11.8603125 -8.25 10.75 C-8.29640625 9.68265625 -8.3428125 8.6153125 -8.390625 7.515625 C-8 4.5 -8 4.5 -6.234375 2.140625 C-3.87710195 0.40976018 -2.87529794 -0.04492653 0 0 Z " fill="#42210A" transform="translate(80,79.5)"/>
<path d="M0 0 C0.66 -0.0103125 1.32 -0.020625 2 -0.03125 C4.98174986 0.76077731 6.16411059 2.04673186 8 4.5 C8.390625 7.515625 8.390625 7.515625 8.25 10.75 C8.21390625 11.82765625 8.1778125 12.9053125 8.140625 14.015625 C8.09421875 14.83546875 8.0478125 15.6553125 8 16.5 C8.81984375 16.45359375 9.6396875 16.4071875 10.484375 16.359375 C11.56203125 16.32328125 12.6396875 16.2871875 13.75 16.25 C15.35101563 16.18039063 15.35101563 16.18039063 16.984375 16.109375 C20 16.5 20 16.5 22.359375 18.265625 C24.09023982 20.62289805 24.54492653 21.62470206 24.5 24.5 C24.5103125 25.16 24.520625 25.82 24.53125 26.5 C23.73922269 29.48174986 22.45326814 30.66411059 20 32.5 C16.984375 32.890625 16.984375 32.890625 13.75 32.75 C12.67234375 32.71390625 11.5946875 32.6778125 10.484375 32.640625 C9.66453125 32.59421875 8.8446875 32.5478125 8 32.5 C8.04640625 33.31984375 8.0928125 34.1396875 8.140625 34.984375 C8.19476563 36.60085937 8.19476563 36.60085937 8.25 38.25 C8.29640625 39.31734375 8.3428125 40.3846875 8.390625 41.484375 C8 44.5 8 44.5 6.234375 46.859375 C3.87710195 48.59023982 2.87529794 49.04492653 0 49 C-0.99 49.01546875 -0.99 49.01546875 -2 49.03125 C-4.98174986 48.23922269 -6.16411059 46.95326814 -8 44.5 C-8.390625 41.484375 -8.390625 41.484375 -8.25 38.25 C-8.21390625 37.17234375 -8.1778125 36.0946875 -8.140625 34.984375 C-8.09421875 34.16453125 -8.0478125 33.3446875 -8 32.5 C-8.81984375 32.54640625 -9.6396875 32.5928125 -10.484375 32.640625 C-12.10085938 32.69476563 -12.10085938 32.69476563 -13.75 32.75 C-14.81734375 32.79640625 -15.8846875 32.8428125 -16.984375 32.890625 C-20 32.5 -20 32.5 -22.359375 30.734375 C-24.09023982 28.37710195 -24.54492653 27.37529794 -24.5 24.5 C-24.51546875 23.51 -24.51546875 23.51 -24.53125 22.5 C-23.73922269 19.51825014 -22.45326814 18.33588941 -20 16.5 C-16.984375 16.109375 -16.984375 16.109375 -13.75 16.25 C-12.67234375 16.28609375 -11.5946875 16.3221875 -10.484375 16.359375 C-9.25460937 16.42898437 -9.25460937 16.42898437 -8 16.5 C-8.04640625 15.68015625 -8.0928125 14.8603125 -8.140625 14.015625 C-8.17671875 12.93796875 -8.2128125 11.8603125 -8.25 10.75 C-8.29640625 9.68265625 -8.3428125 8.6153125 -8.390625 7.515625 C-8 4.5 -8 4.5 -6.234375 2.140625 C-3.87710195 0.40976018 -2.87529794 -0.04492653 0 0 Z " fill="#42210A" transform="translate(280,31.5)"/>
<path d="M0 0 C5.28 0 10.56 0 16 0 C16 18.81 16 37.62 16 57 C10.72 57 5.44 57 0 57 C0 38.19 0 19.38 0 0 Z " fill="#4F575F" transform="translate(168,360)"/>
<path d="M0 0 C1.47265625 1.56640625 1.47265625 1.56640625 3.0625 3.5625 C7.9186623 9.3091313 13.75695393 13.83796928 20 18 C20.2487793 20.24658203 20.2487793 20.24658203 20.07421875 23.0078125 C20.01943359 23.99394531 19.96464844 24.98007813 19.90820312 25.99609375 C19.79895508 27.54490234 19.79895508 27.54490234 19.6875 29.125 C19.62626953 30.16527344 19.56503906 31.20554688 19.50195312 32.27734375 C19.34839354 34.85241983 19.17595744 37.42635737 19 40 C13.72 40 8.44 40 3 40 C2.95101563 38.66324219 2.90203125 37.32648438 2.8515625 35.94921875 C2.77652818 34.19529162 2.70098064 32.44138639 2.625 30.6875 C2.5940625 29.80642578 2.563125 28.92535156 2.53125 28.01757812 C2.49257813 27.17001953 2.45390625 26.32246094 2.4140625 25.44921875 C2.36693115 24.27879028 2.36693115 24.27879028 2.31884766 23.0847168 C2.10412111 20.69844232 2.10412111 20.69844232 0 18 C-2.65918166 17.11360611 -4.48064641 16.82010975 -7.23046875 16.68359375 C-8.03291016 16.64169922 -8.83535156 16.59980469 -9.66210938 16.55664062 C-10.49548828 16.51732422 -11.32886719 16.47800781 -12.1875 16.4375 C-13.03248047 16.39431641 -13.87746094 16.35113281 -14.74804688 16.30664062 C-16.83184433 16.20068482 -18.91590103 16.0998498 -21 16 C-21 10.72 -21 5.44 -21 0 C-18.06281233 -0.19461488 -15.12550068 -0.38097593 -12.1875 -0.5625 C-11.35412109 -0.61857422 -10.52074219 -0.67464844 -9.66210938 -0.73242188 C-8.85966797 -0.78076172 -8.05722656 -0.82910156 -7.23046875 -0.87890625 C-6.49207764 -0.9260376 -5.75368652 -0.97316895 -4.99291992 -1.02172852 C-3 -1 -3 -1 0 0 Z " fill="#F8B059" transform="translate(293,216)"/>
<path d="M0 0 C5.27011062 1.82426906 7.83751204 4.57251686 11 9 C12.89917882 13.52881104 12.50964051 18.58433192 10.875 23.125 C8.07984174 27.41090933 4.95224283 30.34925239 0 32 C-4.66694522 32.54225459 -8.07771048 32.4698456 -12.3125 30.3125 C-16.44673697 26.7551333 -19.58789927 23.54676857 -20.23828125 17.94921875 C-20.42001793 12.41103242 -19.74513006 9.35244845 -16 5 C-10.58420856 0.22894564 -7.09115125 -0.64682799 0 0 Z " fill="#333F47" transform="translate(180,432)"/>
<path d="M0 0 C5.94 0 11.88 0 18 0 C17.67 5.28 17.34 10.56 17 16 C11.39 16 5.78 16 0 16 C0 10.72 0 5.44 0 0 Z " fill="#CBCBCB" transform="translate(184,296)"/>
</svg>
