<?xml version="1.0" encoding="UTF-8"?>
<svg version="1.1" xmlns="http://www.w3.org/2000/svg" width="512" height="512">
<path d="M0 0 C1.6015625 0.94921875 1.6015625 0.94921875 3.375 2.3125 C4.3222998 3.01995361 5.26959961 3.72740723 6.24560547 4.45629883 C9.56940589 7.24553949 11.41239855 10.47573711 13.21875 14.375 C13.55314087 15.07052979 13.88753174 15.76605957 14.23205566 16.48266602 C17.98344248 24.39396763 21.36788661 32.46809812 24.72729492 40.55160522 C26.76447826 45.45220986 28.82088507 50.34475523 30.875 55.23828125 C31.31122681 56.27866043 31.74745361 57.31903961 32.19689941 58.39094543 C38.17257645 72.62426084 44.27878351 86.8019745 50.37231445 100.98510742 C57.42667863 117.40533575 64.42923729 133.84603574 71.375 150.3125 C78.71425035 151.01666481 86.05370715 151.71865497 93.39324951 152.41976929 C96.13195912 152.68151511 98.87060191 152.94394539 101.60919189 153.2069397 C119.21497816 154.89735893 136.82408708 156.54226052 154.44020462 158.12165451 C160.30849964 158.6488591 166.17629137 159.18164591 172.04410362 159.71419334 C177.82178649 160.23777247 183.60023088 160.75170523 189.37935638 161.2590971 C193.02449681 161.5814403 196.66877554 161.9128281 200.3128891 162.24656105 C202.01325287 162.40038845 203.71396145 162.55045891 205.41501617 162.69644737 C228.53624448 164.6855665 228.53624448 164.6855665 237.375 173.3125 C243.62461864 181.50058596 244.11573098 189.27148003 243.375 199.3125 C241.8034061 205.46221525 238.92617711 208.95809624 234.375 213.3125 C233.83625244 213.82893066 233.29750488 214.34536133 232.74243164 214.87744141 C225.74824805 221.54869644 218.67476004 228.00646008 211.1171875 234.0390625 C207.92458359 236.68592215 204.90059132 239.47816643 201.875 242.3125 C197.13638177 246.75087137 192.25380167 250.90392657 187.1875 254.96875 C183.39335871 258.13053441 179.81216235 261.49795364 176.20874023 264.87329102 C172.883452 267.97030084 169.48780061 270.90871684 165.9375 273.75 C161.56247573 277.25893504 157.45482591 280.97097653 153.375 284.8125 C149.25315267 288.69306846 145.09866155 292.44464155 140.6875 296 C139.39005859 297.05767578 139.39005859 297.05767578 138.06640625 298.13671875 C136.65926017 299.27428096 135.24990454 300.40947353 133.81982422 301.51806641 C132.2315441 302.75650935 130.67795676 304.03018507 129.125 305.3125 C128.19171875 306.055 127.2584375 306.7975 126.296875 307.5625 C123.54239328 311.50387222 124.60364636 314.80484089 125.375 319.3125 C126.20421097 323.51207771 127.15253008 327.67968726 128.11889648 331.84960938 C128.39868347 333.07517044 128.67847046 334.30073151 128.96673584 335.56343079 C129.72883912 338.90121077 130.49708358 342.23754957 131.26647449 345.57365608 C132.0739736 349.07996382 132.87567005 352.58759789 133.67799377 356.09509277 C135.19800223 362.7361127 136.72306916 369.37595992 138.25003058 376.0153842 C140.1508269 384.28140119 142.04517228 392.54889418 143.93945312 400.81640625 C145.87535971 409.26485703 147.81185029 417.71317084 149.75254822 426.16052246 C150.0512206 427.46087093 150.34989109 428.76121984 150.64855957 430.06156921 C151.19772936 432.45214522 151.74715267 434.84266302 152.29689026 437.23310852 C152.99195634 440.25903859 153.68441887 443.28554355 154.375 446.3125 C154.57634111 447.1915802 154.77768223 448.0706604 154.98512459 448.97637939 C155.16611639 449.77585999 155.34710819 450.57534058 155.53358459 451.39904785 C155.68938523 452.08466042 155.84518587 452.77027298 156.00570774 453.47666168 C158.0467062 463.6229431 155.79292144 472.13679038 150.1875 480.625 C144.1118197 486.43065006 137.49836987 489.41895652 129.125 489.5625 C128.23296875 489.58828125 127.3409375 489.6140625 126.421875 489.640625 C111.00058299 487.97987048 95.68683422 475.12039007 82.77709961 467.2421875 C73.61991532 461.65675726 64.41663661 456.15312904 55.1875 450.6875 C52.48427509 449.08610609 49.78113984 447.48456097 47.078125 445.8828125 C46.42268204 445.49443207 45.76723907 445.10605164 45.0919342 444.7059021 C38.86142771 441.01195824 32.64774074 437.29042105 26.4375 433.5625 C25.44685547 432.97065918 24.45621094 432.37881836 23.43554688 431.76904297 C18.67595841 428.92092643 13.93462925 426.04892743 9.23231506 423.10736084 C7.50440545 422.0281357 5.77235101 420.95590752 4.03881836 419.88574219 C1.85650628 418.53568797 -0.31767479 417.17237174 -2.48217773 415.79394531 C-3.46130127 415.19163086 -4.4404248 414.58931641 -5.44921875 413.96875 C-6.30604248 413.43056641 -7.16286621 412.89238281 -8.0456543 412.33789062 C-11.40399593 411.0028187 -13.16955965 411.32714325 -16.625 412.3125 C-19.43458357 413.66403854 -19.43458357 413.66403854 -22.2109375 415.4609375 C-23.28988281 416.12673828 -24.36882812 416.79253906 -25.48046875 417.47851562 C-26.33777588 418.01665894 -26.33777588 418.01665894 -27.21240234 418.56567383 C-29.67725642 420.11251957 -32.15526363 421.63769915 -34.63287354 423.16400146 C-35.9467643 423.97342453 -37.26002711 424.7838677 -38.57269287 425.59527588 C-45.20301773 429.68792223 -51.901884 433.66144659 -58.61099243 437.62316895 C-69.38997483 443.98847695 -80.12707635 450.41641055 -90.8125 456.9375 C-101.81425106 463.64973686 -112.89742753 470.21128098 -124.03588867 476.69384766 C-131.20810208 480.87220469 -131.20810208 480.87220469 -138.28125 485.21484375 C-145.20235788 489.55670699 -151.58134702 490.13307417 -159.625 489.3125 C-166.66264631 487.48902021 -172.9620703 484.35031189 -177.0625 478.1328125 C-183.48391841 467.00478628 -182.23829441 456.10045187 -179.33349609 443.91381836 C-179.08954102 442.8435289 -178.84558594 441.77323944 -178.59423828 440.67051697 C-177.79124552 437.16150682 -176.9699497 433.65706001 -176.1484375 430.15234375 C-175.57871549 427.67853745 -175.01018453 425.20445657 -174.44277954 422.7301178 C-173.0995064 416.88491934 -171.74482937 411.04248307 -170.38430369 405.2012859 C-168.71017009 398.01104252 -167.05212834 390.81711934 -165.39453125 383.62304688 C-163.69061837 376.22921934 -161.98573514 368.83564602 -160.26889038 361.44480896 C-158.97580022 355.87783411 -157.69283682 350.30859969 -156.41484833 344.73814011 C-155.86543124 342.35527095 -155.31151319 339.97343695 -154.75409698 337.5924263 C-153.88360832 333.87302183 -153.0259796 330.15083923 -152.17041016 326.42797852 C-151.90003119 325.28679786 -151.62965221 324.1456172 -151.35107994 322.96985531 C-151.10959032 321.90811376 -150.8681007 320.8463722 -150.61929321 319.75245667 C-150.40261805 318.82030618 -150.18594288 317.88815569 -149.9627018 316.92775822 C-149.59324017 314.06654289 -149.7954977 312.06863514 -150.625 309.3125 C-152.74922621 306.84645919 -152.74922621 306.84645919 -155.5 304.5625 C-155.99322754 304.1298584 -156.48645508 303.6972168 -156.99462891 303.25146484 C-161.14908172 299.63562555 -165.44468315 296.19243377 -169.73046875 292.734375 C-174.1815192 289.01014926 -178.39663659 285.04227289 -182.640625 281.0859375 C-187.25853761 276.78144486 -192.03261607 272.66937595 -196.8359375 268.57421875 C-198.03662041 267.54966908 -199.23713621 266.52492354 -200.4375 265.5 C-201.04368164 264.98268311 -201.64986328 264.46536621 -202.27441406 263.93237305 C-206.0157082 260.72747771 -209.68615383 257.46040722 -213.3125 254.125 C-216.78636309 250.93513156 -220.32410025 247.89201106 -224 244.9375 C-228.2031489 241.54863635 -232.18699214 238.00007073 -236.125 234.3125 C-242.44470978 228.39611635 -249.05188717 222.8852444 -255.875 217.5546875 C-261.77663464 212.74843202 -265.24497265 207.07255469 -268.625 200.3125 C-269.40182879 190.81299369 -269.63998424 182.24683851 -263.625 174.3125 C-258.41038605 168.62493269 -252.33078055 165.21976774 -244.61499023 164.29907227 C-243.98826385 164.22347108 -243.36153746 164.14786989 -242.71581936 164.06997776 C-231.14038752 162.73047037 -219.51985207 161.7641276 -207.91483235 160.71949458 C-204.30826976 160.39409111 -200.70205761 160.06484907 -197.09580994 159.73597717 C-190.28139913 159.11506039 -183.46672507 158.49708883 -176.65192932 157.88041264 C-164.43794812 156.7751023 -152.22435474 155.66552452 -140.01097006 154.55364329 C-135.73402767 154.16440813 -131.45694799 153.77672908 -127.17974579 153.39035976 C-125.16077106 153.20780498 -123.14185224 153.0246455 -121.12295532 152.8412323 C-118.67112009 152.61852513 -116.2191965 152.3967875 -113.76716614 152.17623901 C-111.64498477 151.98288536 -109.52339435 151.78286273 -107.4026432 151.57440662 C-105.65642818 151.40975435 -103.90758514 151.26934239 -102.15678978 151.16401958 C-98.09041904 150.89736561 -98.09041904 150.89736561 -94.95129395 148.51902771 C-94.63285522 147.73085159 -94.3144165 146.94267548 -93.98632812 146.13061523 C-93.60300827 145.22819595 -93.21968842 144.32577667 -92.82475281 143.39601135 C-92.43914688 142.39778854 -92.05354095 141.39956573 -91.65625 140.37109375 C-91.00515007 138.80324379 -91.00515007 138.80324379 -90.34089661 137.20372009 C-88.90589872 133.73053192 -87.51628731 130.24090071 -86.125 126.75 C-85.12743741 124.31643535 -84.12632267 121.88432404 -83.12182617 119.45361328 C-81.55108257 115.65017512 -79.98344881 111.84559777 -78.43095398 108.03466797 C-74.77686203 99.06690937 -71.03121013 90.14261759 -67.20703125 81.24609375 C-66.9432304 80.63237097 -66.67942955 80.01864819 -66.40763474 79.38632774 C-65.09480739 76.33377479 -63.7800088 73.28207989 -62.46435547 70.23074341 C-60.5154397 65.70806061 -58.57435382 61.18204795 -56.63485718 56.65531921 C-55.71065998 54.50004723 -54.7847615 52.3455039 -53.85708618 50.19172668 C-51.63277484 45.02366689 -49.4254193 39.84979464 -47.26583195 34.65438652 C-46.20497643 32.10500234 -45.13581935 29.55913635 -44.06606102 27.01347733 C-43.31717346 25.22196573 -42.58005328 23.42554921 -41.84333801 21.6289978 C-38.60393388 13.93456431 -35.04967062 5.64450089 -27.4375 1.375 C-26.78394531 0.99472656 -26.13039062 0.61445313 -25.45703125 0.22265625 C-18.66297189 -3.15264403 -6.84994238 -3.31147312 0 0 Z " fill="#FEC006" transform="translate(268.625,12.6875)"/>
<path d="M0 0 C1.6015625 0.94921875 1.6015625 0.94921875 3.375 2.3125 C4.3222998 3.01995361 5.26959961 3.72740723 6.24560547 4.45629883 C9.56940589 7.24553949 11.41239855 10.47573711 13.21875 14.375 C13.55314087 15.07052979 13.88753174 15.76605957 14.23205566 16.48266602 C17.98344248 24.39396763 21.36788661 32.46809812 24.72729492 40.55160522 C26.76447826 45.45220986 28.82088507 50.34475523 30.875 55.23828125 C31.31122681 56.27866043 31.74745361 57.31903961 32.19689941 58.39094543 C38.17257645 72.62426084 44.27878351 86.8019745 50.37231445 100.98510742 C57.42667863 117.40533575 64.42923729 133.84603574 71.375 150.3125 C78.71425035 151.01666481 86.05370715 151.71865497 93.39324951 152.41976929 C96.13195912 152.68151511 98.87060191 152.94394539 101.60919189 153.2069397 C119.21497816 154.89735893 136.82408708 156.54226052 154.44020462 158.12165451 C160.30849964 158.6488591 166.17629137 159.18164591 172.04410362 159.71419334 C177.82178649 160.23777247 183.60023088 160.75170523 189.37935638 161.2590971 C193.02449681 161.5814403 196.66877554 161.9128281 200.3128891 162.24656105 C202.01325287 162.40038845 203.71396145 162.55045891 205.41501617 162.69644737 C228.53624448 164.6855665 228.53624448 164.6855665 237.375 173.3125 C243.62461864 181.50058596 244.11573098 189.27148003 243.375 199.3125 C241.8034061 205.46221525 238.92617711 208.95809624 234.375 213.3125 C233.83625244 213.82893066 233.29750488 214.34536133 232.74243164 214.87744141 C225.74824805 221.54869644 218.67476004 228.00646008 211.1171875 234.0390625 C207.92458359 236.68592215 204.90059132 239.47816643 201.875 242.3125 C197.13638177 246.75087137 192.25380167 250.90392657 187.1875 254.96875 C183.39335871 258.13053441 179.81216235 261.49795364 176.20874023 264.87329102 C172.883452 267.97030084 169.48780061 270.90871684 165.9375 273.75 C161.56247573 277.25893504 157.45482591 280.97097653 153.375 284.8125 C149.25315267 288.69306846 145.09866155 292.44464155 140.6875 296 C139.39005859 297.05767578 139.39005859 297.05767578 138.06640625 298.13671875 C136.65926017 299.27428096 135.24990454 300.40947353 133.81982422 301.51806641 C132.2315441 302.75650935 130.67795676 304.03018507 129.125 305.3125 C128.19171875 306.055 127.2584375 306.7975 126.296875 307.5625 C123.54239328 311.50387222 124.60364636 314.80484089 125.375 319.3125 C126.20421097 323.51207771 127.15253008 327.67968726 128.11889648 331.84960938 C128.39868347 333.07517044 128.67847046 334.30073151 128.96673584 335.56343079 C129.72883912 338.90121077 130.49708358 342.23754957 131.26647449 345.57365608 C132.0739736 349.07996382 132.87567005 352.58759789 133.67799377 356.09509277 C135.19800223 362.7361127 136.72306916 369.37595992 138.25003058 376.0153842 C140.1508269 384.28140119 142.04517228 392.54889418 143.93945312 400.81640625 C145.87535971 409.26485703 147.81185029 417.71317084 149.75254822 426.16052246 C150.0512206 427.46087093 150.34989109 428.76121984 150.64855957 430.06156921 C151.19772936 432.45214522 151.74715267 434.84266302 152.29689026 437.23310852 C152.99195634 440.25903859 153.68441887 443.28554355 154.375 446.3125 C154.57634111 447.1915802 154.77768223 448.0706604 154.98512459 448.97637939 C155.16611639 449.77585999 155.34710819 450.57534058 155.53358459 451.39904785 C155.68938523 452.08466042 155.84518587 452.77027298 156.00570774 453.47666168 C158.0467062 463.6229431 155.79292144 472.13679038 150.1875 480.625 C144.1118197 486.43065006 137.49836987 489.41895652 129.125 489.5625 C128.23296875 489.58828125 127.3409375 489.6140625 126.421875 489.640625 C111.00058299 487.97987048 95.68683422 475.12039007 82.77709961 467.2421875 C73.61991532 461.65675726 64.41663661 456.15312904 55.1875 450.6875 C52.48427509 449.08610609 49.78113984 447.48456097 47.078125 445.8828125 C46.42268204 445.49443207 45.76723907 445.10605164 45.0919342 444.7059021 C38.86142771 441.01195824 32.64774074 437.29042105 26.4375 433.5625 C25.44685547 432.97065918 24.45621094 432.37881836 23.43554688 431.76904297 C18.67595841 428.92092643 13.93462925 426.04892743 9.23231506 423.10736084 C7.50440545 422.0281357 5.77235101 420.95590752 4.03881836 419.88574219 C1.85650628 418.53568797 -0.31767479 417.17237174 -2.48217773 415.79394531 C-3.46130127 415.19163086 -4.4404248 414.58931641 -5.44921875 413.96875 C-6.30604248 413.43056641 -7.16286621 412.89238281 -8.0456543 412.33789062 C-11.40399593 411.0028187 -13.16955965 411.32714325 -16.625 412.3125 C-19.43458357 413.66403854 -19.43458357 413.66403854 -22.2109375 415.4609375 C-23.28988281 416.12673828 -24.36882812 416.79253906 -25.48046875 417.47851562 C-26.33777588 418.01665894 -26.33777588 418.01665894 -27.21240234 418.56567383 C-29.67725642 420.11251957 -32.15526363 421.63769915 -34.63287354 423.16400146 C-35.9467643 423.97342453 -37.26002711 424.7838677 -38.57269287 425.59527588 C-45.20301773 429.68792223 -51.901884 433.66144659 -58.61099243 437.62316895 C-69.38997483 443.98847695 -80.12707635 450.41641055 -90.8125 456.9375 C-101.81425106 463.64973686 -112.89742753 470.21128098 -124.03588867 476.69384766 C-131.20810208 480.87220469 -131.20810208 480.87220469 -138.28125 485.21484375 C-145.20235788 489.55670699 -151.58134702 490.13307417 -159.625 489.3125 C-166.66264631 487.48902021 -172.9620703 484.35031189 -177.0625 478.1328125 C-183.48391841 467.00478628 -182.23829441 456.10045187 -179.33349609 443.91381836 C-179.08954102 442.8435289 -178.84558594 441.77323944 -178.59423828 440.67051697 C-177.79124552 437.16150682 -176.9699497 433.65706001 -176.1484375 430.15234375 C-175.57871549 427.67853745 -175.01018453 425.20445657 -174.44277954 422.7301178 C-173.0995064 416.88491934 -171.74482937 411.04248307 -170.38430369 405.2012859 C-168.71017009 398.01104252 -167.05212834 390.81711934 -165.39453125 383.62304688 C-163.69061837 376.22921934 -161.98573514 368.83564602 -160.26889038 361.44480896 C-158.97580022 355.87783411 -157.69283682 350.30859969 -156.41484833 344.73814011 C-155.86543124 342.35527095 -155.31151319 339.97343695 -154.75409698 337.5924263 C-153.88360832 333.87302183 -153.0259796 330.15083923 -152.17041016 326.42797852 C-151.90003119 325.28679786 -151.62965221 324.1456172 -151.35107994 322.96985531 C-151.10959032 321.90811376 -150.8681007 320.8463722 -150.61929321 319.75245667 C-150.40261805 318.82030618 -150.18594288 317.88815569 -149.9627018 316.92775822 C-149.59324017 314.06654289 -149.7954977 312.06863514 -150.625 309.3125 C-152.74922621 306.84645919 -152.74922621 306.84645919 -155.5 304.5625 C-155.99322754 304.1298584 -156.48645508 303.6972168 -156.99462891 303.25146484 C-161.14908172 299.63562555 -165.44468315 296.19243377 -169.73046875 292.734375 C-174.1815192 289.01014926 -178.39663659 285.04227289 -182.640625 281.0859375 C-187.25853761 276.78144486 -192.03261607 272.66937595 -196.8359375 268.57421875 C-198.03662041 267.54966908 -199.23713621 266.52492354 -200.4375 265.5 C-201.04368164 264.98268311 -201.64986328 264.46536621 -202.27441406 263.93237305 C-206.0157082 260.72747771 -209.68615383 257.46040722 -213.3125 254.125 C-216.78636309 250.93513156 -220.32410025 247.89201106 -224 244.9375 C-228.2031489 241.54863635 -232.18699214 238.00007073 -236.125 234.3125 C-242.44470978 228.39611635 -249.05188717 222.8852444 -255.875 217.5546875 C-261.77663464 212.74843202 -265.24497265 207.07255469 -268.625 200.3125 C-269.40182879 190.81299369 -269.63998424 182.24683851 -263.625 174.3125 C-258.41038605 168.62493269 -252.33078055 165.21976774 -244.61499023 164.29907227 C-243.98826385 164.22347108 -243.36153746 164.14786989 -242.71581936 164.06997776 C-231.14038752 162.73047037 -219.51985207 161.7641276 -207.91483235 160.71949458 C-204.30826976 160.39409111 -200.70205761 160.06484907 -197.09580994 159.73597717 C-190.28139913 159.11506039 -183.46672507 158.49708883 -176.65192932 157.88041264 C-164.43794812 156.7751023 -152.22435474 155.66552452 -140.01097006 154.55364329 C-135.73402767 154.16440813 -131.45694799 153.77672908 -127.17974579 153.39035976 C-125.16077106 153.20780498 -123.14185224 153.0246455 -121.12295532 152.8412323 C-118.67112009 152.61852513 -116.2191965 152.3967875 -113.76716614 152.17623901 C-111.64498477 151.98288536 -109.52339435 151.78286273 -107.4026432 151.57440662 C-105.65642818 151.40975435 -103.90758514 151.26934239 -102.15678978 151.16401958 C-98.09041904 150.89736561 -98.09041904 150.89736561 -94.95129395 148.51902771 C-94.63285522 147.73085159 -94.3144165 146.94267548 -93.98632812 146.13061523 C-93.60300827 145.22819595 -93.21968842 144.32577667 -92.82475281 143.39601135 C-92.43914688 142.39778854 -92.05354095 141.39956573 -91.65625 140.37109375 C-91.00515007 138.80324379 -91.00515007 138.80324379 -90.34089661 137.20372009 C-88.90589872 133.73053192 -87.51628731 130.24090071 -86.125 126.75 C-85.12743741 124.31643535 -84.12632267 121.88432404 -83.12182617 119.45361328 C-81.55108257 115.65017512 -79.98344881 111.84559777 -78.43095398 108.03466797 C-74.77686203 99.06690937 -71.03121013 90.14261759 -67.20703125 81.24609375 C-66.9432304 80.63237097 -66.67942955 80.01864819 -66.40763474 79.38632774 C-65.09480739 76.33377479 -63.7800088 73.28207989 -62.46435547 70.23074341 C-60.5154397 65.70806061 -58.57435382 61.18204795 -56.63485718 56.65531921 C-55.71065998 54.50004723 -54.7847615 52.3455039 -53.85708618 50.19172668 C-51.63277484 45.02366689 -49.4254193 39.84979464 -47.26583195 34.65438652 C-46.20497643 32.10500234 -45.13581935 29.55913635 -44.06606102 27.01347733 C-43.31717346 25.22196573 -42.58005328 23.42554921 -41.84333801 21.6289978 C-38.60393388 13.93456431 -35.04967062 5.64450089 -27.4375 1.375 C-26.78394531 0.99472656 -26.13039062 0.61445313 -25.45703125 0.22265625 C-18.66297189 -3.15264403 -6.84994238 -3.31147312 0 0 Z M-13.625 38.3125 C-13.98060753 39.14740463 -13.98060753 39.14740463 -14.34339905 39.99917603 C-15.07706046 41.72168542 -15.81072357 43.44419409 -16.54438782 45.16670227 C-17.43151535 47.24953202 -18.31863034 49.3323671 -19.20573425 51.41520691 C-21.47632314 56.74629483 -23.74701453 62.07733899 -26.01817131 67.40818501 C-27.35202826 70.53902047 -28.68580059 73.66989198 -30.01953125 76.80078125 C-30.42624117 77.75551488 -30.42624117 77.75551488 -30.84116745 78.72953606 C-34.34688073 86.95943907 -37.84947374 95.1906598 -41.34837341 103.42346191 C-43.37159886 108.18382238 -45.39595556 112.94370142 -47.42037964 117.70355225 C-48.37286443 119.94391477 -49.32480981 122.18450672 -50.27615356 124.425354 C-52.92741902 130.66998953 -55.59049744 136.90934046 -58.26831055 143.14263916 C-59.21031186 145.34359463 -60.14694537 147.54685217 -61.0793457 149.75189209 C-62.53666525 153.19748375 -64.00917992 156.63624901 -65.484375 160.07421875 C-65.92565735 161.12760941 -66.3669397 162.18100006 -66.82159424 163.26631165 C-70.60815548 172.01955779 -75.05362032 177.34990671 -84.01248169 181.38885498 C-86.58227159 182.29739355 -88.71779766 182.68215628 -91.42529297 182.90332031 C-92.83503387 183.02454002 -92.83503387 183.02454002 -94.27325439 183.14820862 C-95.29425232 183.22820602 -96.31525024 183.30820343 -97.3671875 183.390625 C-98.99826447 183.52844643 -98.99826447 183.52844643 -100.66229248 183.66905212 C-103.02973582 183.8685234 -105.39746829 184.06458548 -107.76544189 184.25765991 C-113.51433753 184.72692396 -119.2614369 185.21701946 -125.00854111 185.70767784 C-126.35394858 185.82245729 -127.6993799 185.93695752 -129.04483414 186.05118752 C-146.44706105 187.5292711 -163.82996045 189.20434615 -181.21380615 190.88269043 C-185.00967442 191.24914353 -188.80559167 191.61507968 -192.6015625 191.98046875 C-193.79220306 192.09508453 -194.98284363 192.20970032 -196.20956421 192.32778931 C-207.34200434 193.39299465 -218.48145291 194.37124452 -229.625 195.3125 C-228.85027344 196.25851074 -228.07554687 197.20452148 -227.27734375 198.17919922 C-226.84156006 198.71133026 -226.40577637 199.2434613 -225.95678711 199.79171753 C-224.05553692 201.96277621 -221.90003481 203.66879916 -219.625 205.4375 C-215.23088994 208.94804407 -211.04988541 212.60150223 -206.9375 216.4375 C-206.10206665 217.21601318 -206.10206665 217.21601318 -205.24975586 218.01025391 C-204.18013782 219.00712073 -203.110556 220.00402641 -202.04101562 221.00097656 C-197.93594624 224.80312013 -193.67118115 228.42129896 -189.4140625 232.05078125 C-188.21337959 233.07533092 -187.01286379 234.10007646 -185.8125 235.125 C-185.20631836 235.64231689 -184.60013672 236.15963379 -183.97558594 236.69262695 C-180.2342918 239.89752229 -176.56384617 243.16459278 -172.9375 246.5 C-169.46363691 249.68986844 -165.92589975 252.73298894 -162.25 255.6875 C-156.8125772 260.07477676 -151.72044006 264.77451657 -146.61328125 269.53515625 C-142.01799554 273.81846056 -137.31623679 277.9548423 -132.42578125 281.8984375 C-124.38873646 288.43447928 -117.69002802 294.09484059 -116.28125 304.96484375 C-115.6644351 317.93337701 -119.49599779 330.02701828 -122.68017578 342.49169922 C-124.16220082 348.48490124 -125.42827687 354.51924041 -126.6875 360.5625 C-128.70347454 370.15896378 -130.89082308 379.69349444 -133.22802734 389.21630859 C-135.98642219 400.58103856 -138.40382969 412.01959699 -140.82177734 423.46069336 C-142.37178222 430.75758821 -143.96219545 437.98205838 -146.1027832 445.13525391 C-146.78049124 447.58761368 -146.78049124 447.58761368 -146.625 451.3125 C-142.5216234 449.81231509 -138.85407164 447.79934413 -135.12109375 445.55859375 C-134.49445328 445.18618057 -133.86781281 444.8137674 -133.22218323 444.43006897 C-131.1667596 443.20702248 -129.11458311 441.97864179 -127.0625 440.75 C-125.61664865 439.88783266 -124.17068352 439.0258561 -122.72460938 438.1640625 C-112.51972413 432.07524806 -102.35903771 425.9153319 -92.2109375 419.73242188 C-80.05352936 412.33161447 -67.81065815 405.07600645 -55.56108093 397.82910156 C-51.58762219 395.47759701 -47.61852657 393.1189449 -43.65342712 390.75337219 C-41.13610265 389.25156455 -38.61755185 387.75182051 -36.09890747 386.25222778 C-34.91821001 385.54851298 -33.73808424 384.843838 -32.55856323 384.13815308 C-30.94034503 383.17021288 -29.31983901 382.20610055 -27.69921875 381.2421875 C-26.78744873 380.69804199 -25.87567871 380.15389648 -24.9362793 379.59326172 C-18.87730877 376.23577155 -12.35198169 376.52950112 -5.625 377.3125 C-0.57073057 379.00723726 3.8461259 381.5532659 8.375 384.3125 C9.09945312 384.75255371 9.82390625 385.19260742 10.5703125 385.64599609 C13.92452827 387.69680736 17.26648288 389.76601892 20.59570312 391.85717773 C28.12160528 396.58069942 35.75921617 401.09366833 43.4375 405.5625 C53.72261704 411.55348556 63.93251324 417.65286007 74.08865356 423.85980225 C84.69064356 430.33576249 95.38928384 436.63777956 106.13671875 442.86914062 C106.72638428 443.21220245 107.3160498 443.55526428 107.92358398 443.90872192 C109.51563057 444.83481718 111.10931832 445.7580895 112.703125 446.68115234 C115.375 448.3125 115.375 448.3125 117.609375 450.02587891 C119.28028166 451.50880964 119.28028166 451.50880964 121.375 451.3125 C120.68297582 444.02377783 118.95706527 437.09429232 117.1875 430 C116.5449214 427.3819653 115.90369703 424.76366177 115.265625 422.14453125 C115.10445694 421.48356445 114.94328888 420.82259766 114.77723694 420.14160156 C113.24782367 413.84143888 111.82769579 407.51960212 110.4375 401.1875 C108.15509736 390.80041185 105.81467168 380.42820924 103.4375 370.0625 C100.4466166 357.01671049 97.48163764 343.96537497 94.54516602 330.90722656 C94.27373779 329.70163086 94.00230957 328.49603516 93.72265625 327.25390625 C93.48554932 326.19888916 93.24844238 325.14387207 93.00415039 324.05688477 C92.62810357 322.41655015 92.23404947 320.77994661 91.8034668 319.15307617 C89.93925729 311.14494198 90.55352649 301.56012217 94.375 294.3125 C97.87134573 289.17724222 102.44972677 285.72461331 107.28125 281.8671875 C110.6169547 279.16065984 113.74414835 276.25118373 116.875 273.3125 C120.74930249 269.68257922 124.66404636 266.19498125 128.8125 262.875 C133.18751972 259.36606861 137.29520909 255.65405495 141.375 251.8125 C146.28808115 247.1863141 151.32621721 242.83979313 156.59765625 238.62109375 C159.7994267 235.9597065 162.8373641 233.15789173 165.875 230.3125 C169.74972764 226.68299392 173.66399743 223.19502041 177.8125 219.875 C182.8789481 215.80997283 187.62166335 211.46089134 192.34155273 207.00415039 C195.82950512 203.71559677 199.39061013 200.56145826 203.08105469 197.50073242 C203.72155762 196.91255737 203.72155762 196.91255737 204.375 196.3125 C204.375 195.9825 204.375 195.6525 204.375 195.3125 C203.64723421 195.25011045 202.91946842 195.18772089 202.16964912 195.12344074 C184.43050059 193.60128573 166.69346015 192.05644714 148.95846748 190.48659229 C140.38176326 189.7279518 131.80452277 188.97689604 123.22558594 188.24389648 C115.74486241 187.6047106 108.26556244 186.95108702 100.78759754 186.28037089 C96.83098419 185.92599428 92.87404517 185.57869309 88.91531754 185.24869728 C85.18230986 184.93728668 81.45151242 184.60646534 77.72148323 184.26125717 C75.713563 184.08036518 73.70386233 183.91958098 71.69416809 183.75959778 C62.59502397 182.89035567 55.51591401 180.78362117 48.4453125 174.85668945 C38.95892289 163.1989458 34.14961869 146.30913273 28.375 132.625 C27.34570587 130.19502307 26.31591631 127.76525594 25.28564453 125.33569336 C23.74491745 121.70219767 22.20449973 118.06857495 20.665802 114.43421936 C16.85375725 105.43101917 13.01050373 96.44166509 9.14700317 87.46044922 C2.11906383 71.12114179 -4.77766561 54.72825363 -11.625 38.3125 C-12.285 38.3125 -12.945 38.3125 -13.625 38.3125 Z " fill="#000000" transform="translate(268.625,12.6875)"/>
</svg>
