<?xml version="1.0" encoding="UTF-8"?>
<svg version="1.1" xmlns="http://www.w3.org/2000/svg" width="512" height="512">
<path d="M0 0 C7.87815067 4.82473467 11.74111722 11.94823107 14.5625 20.5 C15.3875 20.335 16.2125 20.17 17.0625 20 C30.36963928 18.0989801 41.84057136 21.51464964 52.890625 29.09765625 C61.20791633 35.81180555 66.51561854 46.06633874 68.5625 56.5 C69.56890748 74.03471489 65.38564791 85.22933485 54.5 99.125 C54.03561523 99.71974121 53.57123047 100.31448242 53.09277344 100.92724609 C50.57455039 104.10669269 47.98487397 107.15337326 45.20703125 110.109375 C36.54473731 119.57023194 33.31984802 128.36406832 30.16015625 140.703125 C25.4717058 158.68284869 13.69690767 172.29691371 1.67578125 185.95703125 C1.16619873 186.53928467 0.65661621 187.12153809 0.1315918 187.72143555 C-0.95786226 188.95633096 -2.05884908 190.18110935 -3.16870117 191.39770508 C-3.71888916 192.01154053 -4.26907715 192.62537598 -4.8359375 193.2578125 C-5.33657715 193.80711426 -5.8372168 194.35641602 -6.35302734 194.92236328 C-7.73320862 196.6017071 -7.73320862 196.6017071 -7.375 199.5625 C-7.065625 200.531875 -6.75625 201.50125 -6.4375 202.5 C-6.08709223 204.49707924 -5.75144487 206.49686502 -5.4375 208.5 C-1.73767292 206.86672916 1.96100311 205.23088089 5.65869141 203.59277344 C6.91327051 203.03739936 8.16814655 202.48269549 9.42333984 201.92871094 C17.92341839 198.1902937 17.92341839 198.1902937 26.28515625 194.15625 C33.17442492 190.67466488 40.79948468 190.48171911 48.1875 192.625 C56.60163566 195.82968819 60.09217061 200.94896779 63.94018555 208.86547852 C66.69379811 215.03448231 68.95906254 221.3659501 71.22549438 227.72698975 C72.82636262 232.21724185 74.45351258 236.69798323 76.078125 241.1796875 C76.42837234 242.14742096 76.77861969 243.11515442 77.13948059 244.11221313 C81.78041213 256.90523213 86.58348827 269.6378068 91.375 282.375 C92.24229041 284.68065596 93.10955972 286.98631987 93.97680664 289.29199219 C94.60956764 290.97301025 94.60956764 290.97301025 95.25511169 292.68798828 C96.09446329 294.92288282 96.93088546 297.15887985 97.76429749 299.39599609 C99.925438 305.19157389 102.13422046 310.96165556 104.42333984 316.70800781 C104.88810226 317.89903107 105.35286469 319.09005432 105.83171082 320.31716919 C106.71068695 322.56884123 107.60717706 324.813797 108.52534485 327.04977417 C112.1760261 336.51161312 113.65413115 346.45203886 109.5 356 C105.61529466 363.42933547 98.29576943 367.50273562 91.00390625 371.0234375 C90.21475327 371.41447662 89.42560028 371.80551575 88.61253357 372.20840454 C86.1212732 373.44017801 83.62339155 374.65776685 81.125 375.875 C79.42206613 376.71391081 77.7195874 377.55374619 76.01757812 378.39453125 C71.87106622 380.44040528 67.71856067 382.47359873 63.5625 384.5 C63.5625 388.29750909 64.93570616 391.14761099 66.40625 394.57421875 C66.69479858 395.2580513 66.98334717 395.94188385 67.28063965 396.6464386 C68.2029253 398.82894961 69.13260431 401.00822201 70.0625 403.1875 C70.68929175 404.66711037 71.31559979 406.14692575 71.94140625 407.62695312 C73.4761691 411.2537044 75.01756991 414.87756878 76.5625 418.5 C77.48474365 418.5093457 78.4069873 418.51869141 79.35717773 418.52832031 C82.81868654 418.57265127 86.27901459 418.63440298 89.73999023 418.70751953 C91.23043703 418.73553484 92.72102703 418.75684494 94.21166992 418.77099609 C105.16154374 418.88111886 114.54423285 419.80529593 122.94140625 427.5625 C128.51745178 434.22688213 135.5625 448.51091546 135.5625 457.5 C134.40991699 457.95101074 133.25733398 458.40202148 132.06982422 458.86669922 C130.90834618 459.32119194 130.90834618 459.32119194 129.72340393 459.78486633 C127.95024348 460.47870992 126.17708054 461.17254716 124.40391541 461.86637878 C119.32089621 463.85535325 114.23792441 465.84444869 109.1550293 467.83374023 C99.65496078 471.55165307 90.15479076 475.2692984 80.65266418 478.98194885 C77.78466414 480.10260834 74.91685719 481.22376085 72.04907227 482.3449707 C68.26774691 483.8232703 64.48556852 485.29936006 60.70288086 486.77416992 C50.87567429 490.60992824 41.07035981 494.4938657 31.2890625 498.4453125 C28.31599163 499.64092421 25.34254806 500.8356042 22.36898804 502.02999878 C20.47157084 502.79551703 18.57603987 503.56572888 16.68252563 504.34085083 C14.07272743 505.40917001 11.45713096 506.46190957 8.83984375 507.51171875 C8.07125031 507.83153717 7.30265686 508.15135559 6.51077271 508.48086548 C3.4927626 509.67748569 0.96316356 510.50297167 -2.30126953 510.47875977 C-5.23622035 509.13404916 -5.70397821 507.79917677 -6.89453125 504.828125 C-7.28552002 503.8594751 -7.67650879 502.8908252 -8.0793457 501.89282227 C-8.46566162 500.85569092 -8.85197754 499.81855957 -9.25 498.75 C-9.84590942 497.17786743 -9.84590942 497.17786743 -10.45385742 495.57397461 C-13.74068579 486.47377534 -15.51579082 479.18348917 -12.09765625 469.8359375 C-8.57113277 463.11243507 -2.07746722 458.14330053 3.53369141 453.13891602 C5.07619232 451.75400291 6.58158523 450.3362666 8.0859375 448.91015625 C8.99263184 448.08652588 9.89932617 447.26289551 10.83349609 446.41430664 C12.75099264 443.18228796 12.74663193 442.69863714 12.01855469 439.20898438 C11.56290892 437.63044386 11.07699058 436.06035338 10.5625 434.5 C10.23477097 433.42050331 10.23477097 433.42050331 9.90042114 432.31919861 C9.21573579 430.11515504 8.48569312 427.93095624 7.7421875 425.74609375 C7.47866486 424.95977066 7.21514221 424.17344757 6.94363403 423.36329651 C6.11252403 420.88657143 5.27513545 418.41202477 4.4375 415.9375 C3.86807042 414.24428153 3.29905625 412.5509233 2.73046875 410.85742188 C1.34593627 406.73665217 -0.04422572 402.61782181 -1.4375 398.5 C-5.97154529 397.92322557 -10.50644095 397.35386203 -15.04223633 396.79101562 C-16.58154703 396.5989844 -18.12061732 396.40501487 -19.65942383 396.20898438 C-21.88560842 395.92574375 -24.1125967 395.649746 -26.33984375 395.375 C-27.0152269 395.28750488 -27.69061005 395.20000977 -28.38645935 395.10986328 C-37.0323755 394.06079406 -43.78773127 394.06532094 -51.84375 397.62109375 C-52.6289502 397.95194473 -53.41415039 398.28279572 -54.22314453 398.62367249 C-56.80108229 399.71367333 -59.36893443 400.82561609 -61.9375 401.9375 C-63.76425233 402.71393957 -65.59174115 403.48864842 -67.41992188 404.26171875 C-71.21512557 405.86815352 -75.00706074 407.48196817 -78.796875 409.10107422 C-86.64192627 412.44607584 -94.52436904 415.69998747 -102.40722656 418.95462036 C-106.66911392 420.71541435 -110.92815055 422.48307791 -115.1875 424.25 C-116.8958199 424.95836572 -118.60415323 425.66669907 -120.3125 426.375 C-121.158125 426.725625 -122.00375 427.07625 -122.875 427.4375 C-171.56249977 447.6249999 -171.56249977 447.6249999 -174.12481689 448.68742371 C-175.83376093 449.39601051 -177.54270462 450.10459815 -179.25164795 450.81318665 C-183.51313466 452.58014888 -187.7746274 454.34709656 -192.03613281 456.11401367 C-198.94278348 458.97768339 -205.84943144 461.84135954 -212.75585938 464.70556641 C-214.0807563 465.25500916 -214.0807563 465.25500916 -215.43241882 465.81555176 C-217.21371389 466.55431855 -218.9949742 467.29316914 -220.77619934 468.03210449 C-225.12486487 469.83596872 -229.47415487 471.63829227 -233.82495117 473.43701172 C-240.95332764 476.38544225 -248.07914703 479.33771441 -255.17697144 482.3591156 C-257.90197129 483.51871275 -260.63012025 484.67078793 -263.35852051 485.82235718 C-265.19659727 486.60233874 -267.02954234 487.39437904 -268.86230469 488.18676758 C-269.94543945 488.6433374 -271.02857422 489.09990723 -272.14453125 489.5703125 C-273.0775708 489.97008301 -274.01061035 490.36985352 -274.97192383 490.78173828 C-277.6648454 491.56622935 -278.89139417 491.64720044 -281.4375 490.5 C-283.140625 487.62890625 -283.140625 487.62890625 -284.6875 484.0625 C-285.20828125 482.88816406 -285.7290625 481.71382813 -286.265625 480.50390625 C-287.4375 477.5 -287.4375 477.5 -287.4375 475.5 C-286.4475 475.17 -285.4575 474.84 -284.4375 474.5 C-284.36786744 460.98244063 -284.31462134 447.46492422 -284.28206348 433.94722176 C-284.26643423 427.669828 -284.24524582 421.39255731 -284.21118164 415.11523438 C-284.17849077 409.05277172 -284.16062639 402.99042717 -284.15286827 396.92788315 C-284.14734223 394.61952736 -284.13655134 392.31117774 -284.12030983 390.00287247 C-284.09840657 386.75975018 -284.0955385 383.51711061 -284.09692383 380.27392578 C-284.086138 379.32805099 -284.07535217 378.38217621 -284.0642395 377.40763855 C-284.09372132 370.9934531 -285.28706801 365.53707936 -287.4375 359.5 C-256.80218046 346.9660734 -226.13483689 334.51406367 -195.43766785 322.13243103 C-185.95436017 318.30668424 -176.47595846 314.46890926 -167 310.625 C-166.26569763 310.32713593 -165.53139526 310.02927185 -164.77484131 309.72238159 C-161.86168578 308.54061309 -158.94856674 307.35875474 -156.03552246 306.17671204 C-152.26308814 304.64601016 -148.49040039 303.11593683 -144.71728516 301.58691406 C-143.92346939 301.26512177 -143.12965363 300.94332947 -142.31178284 300.61178589 C-140.70291196 299.96020217 -139.09364955 299.30958434 -137.48399353 298.65994263 C-133.53652508 297.06533848 -129.59705735 295.45531859 -125.67163086 293.80712891 C-118.63641078 290.87137971 -111.72354335 288.19301914 -104.359375 286.203125 C-94.10033314 283.38592387 -94.10033314 283.38592387 -85.4375 277.5 C-80.98837983 268.88037628 -80.0632392 259.39044068 -78.97607422 249.87744141 C-77.78781433 242.42576989 -74.44108363 237.86624264 -68.4375 233.5 C-68.6540625 232.88511719 -68.870625 232.27023438 -69.09375 231.63671875 C-69.3721875 230.82847656 -69.650625 230.02023438 -69.9375 229.1875 C-70.35515625 227.98673828 -70.35515625 227.98673828 -70.78125 226.76171875 C-71.4375 224.5 -71.4375 224.5 -71.4375 221.5 C-72.50895264 221.42483154 -72.50895264 221.42483154 -73.60205078 221.34814453 C-126.57271029 217.5846419 -126.57271029 217.5846419 -147.23681641 202.44970703 C-150.7410086 200.31511673 -153.08563592 199.79053348 -157.13671875 199.33984375 C-158.41957764 199.18789551 -159.70243652 199.03594727 -161.02416992 198.87939453 C-162.02920059 198.77138519 -162.02920059 198.77138519 -163.05453491 198.66119385 C-165.14968072 198.43483349 -167.24129675 198.18717636 -169.33325195 197.93310547 C-172.10302326 197.59747783 -174.87329632 197.26717401 -177.64453125 196.94384766 C-195.35078004 194.87188832 -209.84263912 192.38049547 -222.4375 178.5 C-230.37318262 168.12372065 -234.51326984 156.62439204 -233.4375 143.5 C-231.21994737 129.40893724 -225.3818388 118.30635766 -213.85546875 109.53515625 C-211.74740641 108.12424838 -209.62988915 106.77500646 -207.4375 105.5 C-207.7984375 104.60539062 -208.159375 103.71078125 -208.53125 102.7890625 C-212.10581707 93.4753294 -214.20192428 86.04721814 -210.9375 76.3125 C-206.32033631 66.17377973 -197.70544209 63.14625564 -187.85958862 59.40588379 C-180.10897651 56.5070824 -172.31301008 53.73290463 -164.51748657 50.95773315 C-159.83223258 49.28977177 -155.14924196 47.61549542 -150.46604919 45.9417572 C-148.03856451 45.07429185 -145.61096161 44.20715719 -143.1832428 43.34034729 C-131.19786732 39.060542 -119.22305028 34.75164126 -107.25 30.4375 C-105.20761287 29.7018711 -103.16521378 28.96627541 -101.12280273 28.23071289 C-97.01426021 26.75098783 -92.90578396 25.27107897 -88.79736328 23.79101562 C-78.69133484 20.15038582 -68.58478866 16.51119398 -58.4781189 12.87234497 C-54.28404866 11.36219652 -50.09008346 9.85175666 -45.89628601 8.34085083 C-43.9840707 7.65271986 -42.07141496 6.9658113 -40.15827942 6.28024292 C-36.15434757 4.84489535 -32.15534075 3.40156846 -28.17529297 1.90112305 C-26.95471191 1.44648682 -25.73413086 0.99185059 -24.4765625 0.5234375 C-23.46803223 0.13978027 -22.45950195 -0.24387695 -21.42041016 -0.63916016 C-14.55048917 -2.6217548 -6.66039911 -2.86178999 0 0 Z M20.5625 38.5 C22.59747016 46.2896854 24.97171948 53.92079606 27.5 61.5625 C30.8329169 71.77413618 33.5162275 81.95900414 35.5625 92.5 C38.81249337 89.31806931 41.87262847 86.08547133 44.75 82.5625 C45.76126953 81.34240234 45.76126953 81.34240234 46.79296875 80.09765625 C51.29738468 73.48521343 51.42778355 66.24201067 50.5625 58.5 C48.36883706 51.13337377 43.98789494 45.66032766 37.5625 41.5 C31.90555221 38.73086472 26.79414453 38.16009212 20.5625 38.5 Z M-207.98046875 129.953125 C-213.43260829 135.60462736 -214.653883 140.73389915 -214.9375 148.5 C-214.63061576 157.70652732 -211.69903423 164.09126747 -205.3984375 170.77734375 C-196.87495419 178.26510498 -184.26543943 178.66531205 -173.4375 178.5 C-174.86718945 175.43893193 -176.59875463 172.63067372 -178.40357971 169.77857971 C-184.22974112 160.47203827 -188.41398322 150.72688886 -192.5 140.5625 C-193.18052121 138.89602681 -193.86215684 137.23000826 -194.54492188 135.56445312 C-196.18861123 131.54806739 -197.81732263 127.52592443 -199.4375 123.5 C-202.37305454 123.5 -205.96018156 128.09180175 -207.98046875 129.953125 Z " fill="#020100" transform="translate(292.4375,1.5)"/>
<path d="M0 0 C3.42556254 2.76858443 4.78349696 5.35739534 6.15063477 9.49609375 C6.52104385 10.59824219 6.89145294 11.70039063 7.27308655 12.8359375 C7.65863205 14.02445313 8.04417755 15.21296875 8.44140625 16.4375 C8.85035629 17.66855469 9.25930634 18.89960937 9.6806488 20.16796875 C10.54601424 22.77481917 11.40343021 25.38409878 12.25463867 27.99560547 C13.33493176 31.30950752 14.42922016 34.61855341 15.52897739 37.92604065 C16.58856463 41.11557313 17.63998075 44.30776708 18.69140625 47.5 C19.27276085 49.25848267 19.27276085 49.25848267 19.86585999 51.05249023 C26.36982915 71.01767359 26.36982915 71.01767359 26.3984375 80.05859375 C26.40230469 81.26966797 26.40617188 82.48074219 26.41015625 83.72851562 C26.39275391 85.56446289 26.39275391 85.56446289 26.375 87.4375 C26.38660156 88.65759766 26.39820313 89.87769531 26.41015625 91.13476562 C26.34074378 112.89557549 18.02452614 132.59083221 4 149 C3.55881836 149.51933105 3.11763672 150.03866211 2.66308594 150.57373047 C1.1949739 152.30166302 -0.27684115 154.02636853 -1.75 155.75 C-2.25055908 156.33620117 -2.75111816 156.92240234 -3.2668457 157.52636719 C-5.96081725 160.6678409 -8.68822475 163.77032489 -11.47265625 166.83203125 C-12.03178711 167.4569043 -12.59091797 168.08177734 -13.16699219 168.72558594 C-14.24252483 169.92622505 -15.33003694 171.11626765 -16.43066406 172.29394531 C-19.28530292 175.44208861 -19.28530292 175.44208861 -19.984375 179.48828125 C-19.65953125 180.31714844 -19.3346875 181.14601562 -19 182 C-18.60683594 183.06476563 -18.21367187 184.12953125 -17.80859375 185.2265625 C-16.89235955 187.49757036 -15.9756908 189.76840295 -15.05859375 192.0390625 C-14 195 -14 195 -14 198 C-17.68428336 199.63236282 -21.37296329 201.25455012 -25.0625 202.875 C-26.10083984 203.33519531 -27.13917969 203.79539063 -28.20898438 204.26953125 C-29.73168945 204.93662109 -29.73168945 204.93662109 -31.28515625 205.6171875 C-32.67553101 206.22989502 -32.67553101 206.22989502 -34.09399414 206.85498047 C-37.31723651 208.12499699 -40.6688734 209.04824954 -44 210 C-46.64 203.4 -49.28 196.8 -52 190 C-54.89523438 189.76925781 -57.79046875 189.53851563 -60.7734375 189.30078125 C-63.64360191 189.05988325 -66.51319966 188.81304613 -69.3828125 188.56567383 C-71.34486437 188.39966144 -73.30743254 188.23961931 -75.27050781 188.08618164 C-91.81574288 186.78644081 -108.09717432 184.57524612 -122.8125 176.375 C-123.5960083 175.94968994 -124.3795166 175.52437988 -125.18676758 175.08618164 C-143.58190002 164.74398334 -156.65429517 148.94730481 -164.65234375 129.5390625 C-164.99152328 128.72387146 -165.33070282 127.90868042 -165.68016052 127.06878662 C-166.79386911 124.3820532 -167.89838466 121.69171346 -169 119 C-169.3840802 118.06246887 -169.7681604 117.12493774 -170.16387939 116.15899658 C-172.59107946 110.21790435 -174.98325115 104.26371986 -177.34887695 98.29785156 C-178.16755238 96.241858 -178.99290681 94.18851306 -179.82446289 92.13769531 C-181.04573373 89.12381829 -182.24569936 86.10221979 -183.44140625 83.078125 C-183.81519913 82.16766418 -184.188992 81.25720337 -184.57411194 80.31915283 C-186.5771891 75.17659018 -187.63640104 71.4988695 -186 66 C-183.85030621 63.3509949 -181.77385885 62.32486301 -178.58764648 61.20092773 C-177.68610336 60.87811829 -176.78456024 60.55530884 -175.85569763 60.22271729 C-174.87077835 59.87980652 -173.88585907 59.53689575 -172.87109375 59.18359375 C-171.83602188 58.8154657 -170.80095001 58.44733765 -169.73451233 58.0680542 C-166.30486844 56.85011658 -162.87118088 55.64400419 -159.4375 54.4375 C-157.02179902 53.58143371 -154.60643893 52.72440489 -152.19140625 51.86645508 C-148.46331793 50.54246153 -144.73508335 49.21890714 -141.00534058 47.89958191 C-130.15396537 44.06069488 -119.32057933 40.17322426 -108.4932251 36.2671814 C-105.48523181 35.18217299 -102.47681446 34.09834867 -99.46826172 33.01489258 C-92.97846064 30.67765044 -86.48916593 28.33900492 -80 26 C-79.37042641 25.77307213 -78.74085281 25.54614426 -78.09220123 25.31233978 C-68.42976037 21.82949944 -58.76758101 18.34593418 -49.10562134 14.86175919 C-47.08295468 14.13237605 -45.06027634 13.40302533 -43.03759766 12.67367554 C-39.24504092 11.30609926 -35.45259045 9.93822853 -31.66015625 8.5703125 C-30.54145645 8.16691147 -29.42275665 7.76351044 -28.27015686 7.34788513 C-27.20913254 6.96511917 -26.14810822 6.58235321 -25.05493164 6.18798828 C-24.04367218 5.82433167 -23.03241272 5.46067505 -21.99050903 5.08599854 C-19.96492408 4.35041062 -17.94356918 3.60308719 -15.92623901 2.84515381 C-14.95598785 2.48230286 -13.98573669 2.1194519 -12.98608398 1.74560547 C-12.13086655 1.42139618 -11.27564911 1.09718689 -10.39451599 0.76315308 C-6.63134733 -0.43620151 -3.92509711 -0.55089082 0 0 Z " fill="#F2A321" transform="translate(285,18)"/>
<path d="M0 0 C4.34361808 2.82187433 5.60348925 7.42908415 7.25 12.125 C7.6521875 13.21748047 7.6521875 13.21748047 8.0625 14.33203125 C10 19.67992666 10 19.67992666 10 22 C4.78739043 23.7146092 -0.42706046 25.42345129 -5.64331055 27.12695312 C-7.41791888 27.7073976 -9.1920117 28.28942062 -10.96557617 28.87304688 C-13.51347436 29.71118066 -16.06316647 30.54363866 -18.61328125 31.375 C-19.80405022 31.76872803 -19.80405022 31.76872803 -21.01887512 32.17041016 C-24.11767929 33.17573524 -26.72027089 34 -30 34 C-28.68 39.28 -27.36 44.56 -26 50 C-24.90534424 49.63124756 -23.81068848 49.26249512 -22.68286133 48.88256836 C-18.61472859 47.51566875 -14.54149778 46.1645562 -10.46655273 44.81811523 C-8.70470794 44.23353477 -6.94426846 43.6447008 -5.18530273 43.05151367 C-2.65447047 42.19884976 -0.1189531 41.36168761 2.41796875 40.52734375 C3.20149216 40.25969711 3.98501556 39.99205048 4.7922821 39.71629333 C12.21099949 37.30823873 12.21099949 37.30823873 16 39 C17.31787109 40.96191406 17.31787109 40.96191406 18.2734375 43.515625 C18.79744141 44.89814453 18.79744141 44.89814453 19.33203125 46.30859375 C19.67621094 47.27925781 20.02039063 48.24992187 20.375 49.25 C20.74238281 50.20519531 21.10976563 51.16039062 21.48828125 52.14453125 C24.77508777 61.06231952 24.77508777 61.06231952 23 65 C20.37573492 66.32953689 18.0935222 67.24172051 15.31640625 68.11328125 C14.54570297 68.37255905 13.77499969 68.63183685 12.98094177 68.89897156 C10.51416454 69.72318603 8.03886415 70.51761472 5.5625 71.3125 C3.89717146 71.86599159 2.23244843 72.42130859 0.56835938 72.97851562 C-11.54818254 77 -11.54818254 77 -14 77 C-12.35 81.62 -10.7 86.24 -9 91 C-4.72172098 91 -1.49344153 89.96103456 2.46875 88.55859375 C3.94132627 88.05250161 5.41398507 87.54664952 6.88671875 87.04101562 C9.19878762 86.23924584 11.50960151 85.4341327 13.81884766 84.62426758 C16.0532738 83.84324078 18.29185569 83.07523763 20.53125 82.30859375 C21.21989136 82.06282089 21.90853271 81.81704803 22.61804199 81.56382751 C25.24148169 80.67119616 27.54734764 79.98882106 30.33300781 80.05761719 C32.82692263 81.4674753 33.19908439 83.09966007 34.140625 85.76953125 C34.66269531 87.22649414 34.66269531 87.22649414 35.1953125 88.71289062 C35.71738281 90.24719727 35.71738281 90.24719727 36.25 91.8125 C36.61351562 92.82376953 36.97703125 93.83503906 37.3515625 94.87695312 C40 102.40906955 40 102.40906955 40 107 C35.21463074 108.57218899 30.42742755 110.13861184 25.63842773 111.69970703 C24.00932875 112.2316511 22.38074336 112.76517079 20.75268555 113.30029297 C18.41327835 114.06892478 16.07208626 114.83188251 13.73046875 115.59375 C13.00224411 115.83436157 12.27401947 116.07497314 11.52372742 116.32287598 C8.56424163 117.2806755 6.13199482 118 3 118 C3.28875 118.90363281 3.5775 119.80726563 3.875 120.73828125 C4.24625 121.91777344 4.6175 123.09726562 5 124.3125 C5.556875 126.07013672 5.556875 126.07013672 6.125 127.86328125 C7 131 7 131 7 134 C8.03406982 133.63648438 9.06813965 133.27296875 10.13354492 132.8984375 C13.97930612 131.54880742 17.82856705 130.20941372 21.67895508 128.87304688 C23.343336 128.29379372 25.0067615 127.71178759 26.66918945 127.12695312 C29.06214058 126.28566448 31.4583794 125.45441252 33.85546875 124.625 C34.5952446 124.36251465 35.33502045 124.1000293 36.09721375 123.82958984 C39.83899461 122.54600176 43.03173433 121.67300128 47 122 C52.04885701 131.93993725 52.04885701 131.93993725 51 138 C47.01863631 142.92892824 42.32081308 145.02660019 36.6875 147.5625 C23.99348698 153.44347504 11.50583664 159.71201612 -0.9881897 166.00393677 C-2.74968304 166.8907912 -4.51154607 167.77691183 -6.27381897 168.66221619 C-7.89985601 169.47911303 -9.52501103 170.29776861 -11.14915466 171.11842346 C-11.87627151 171.48362595 -12.60338837 171.84882843 -13.35253906 172.22509766 C-13.98710022 172.54499664 -14.62166138 172.86489563 -15.27545166 173.19448853 C-22.74135123 176.68170175 -31.5497124 174.86880924 -39.4765625 173.9765625 C-40.93079117 173.81720718 -40.93079117 173.81720718 -42.41439819 173.65463257 C-44.4500411 173.43009429 -46.48540988 173.20305795 -48.52050781 172.97363281 C-51.62220608 172.62531376 -54.72503091 172.28875377 -57.828125 171.953125 C-59.8151829 171.73247871 -61.80216492 171.51114784 -63.7890625 171.2890625 C-64.70902008 171.19001617 -65.62897766 171.09096985 -66.57681274 170.98892212 C-67.44816864 170.88896942 -68.31952454 170.78901672 -69.21728516 170.68603516 C-69.9740152 170.60165192 -70.73074524 170.51726868 -71.51040649 170.43032837 C-72.74275528 170.21731583 -72.74275528 170.21731583 -74 170 C-75.18012665 169.82765839 -76.3602533 169.65531677 -77.57614136 169.47775269 C-81.19595368 167.91542552 -81.51730339 167.75586862 -82.98742676 164.41003418 C-83.54228945 162.84000858 -84.06583636 161.25870578 -84.56445312 159.66992188 C-84.85968872 158.8078714 -85.15492432 157.94582092 -85.45910645 157.05764771 C-86.42822545 154.20335274 -87.35535395 151.33733036 -88.28125 148.46875 C-88.94432046 146.47709962 -89.6093476 144.4860997 -90.27624512 142.49572754 C-91.66903449 138.31829599 -93.04189201 134.13499397 -94.40039062 129.94628906 C-96.13757245 124.59335922 -97.91666504 119.25556891 -99.71027374 113.92131805 C-101.08922315 109.80821544 -102.44861332 105.68885731 -103.80198669 101.567276 C-104.4506229 99.59769682 -105.10449937 97.62983505 -105.7638092 95.6638031 C-106.68550586 92.90351371 -107.58127081 90.13606257 -108.47070312 87.36523438 C-108.74382324 86.56276276 -109.01694336 85.76029114 -109.29833984 84.9335022 C-111.15801234 79.00461068 -110.98524932 74.099662 -110 68 C-109.86231201 66.9903418 -109.72462402 65.98068359 -109.58276367 64.94042969 C-109.13266265 62.20750319 -108.66531315 59.47821937 -108.1875 56.75 C-108.03474609 55.79609375 -107.88199219 54.8421875 -107.72460938 53.859375 C-107.56154297 52.93125 -107.39847656 52.003125 -107.23046875 51.046875 C-107.09020264 50.22026367 -106.94993652 49.39365234 -106.80541992 48.54199219 C-105.43401043 44.21367585 -103.84172909 41.09498435 -99.82572937 38.70730591 C-96.98559268 37.36477336 -94.1152833 36.1587408 -91.203125 34.98046875 C-90.1174826 34.52388885 -89.03184021 34.06730896 -87.91329956 33.59689331 C-84.36589338 32.10957387 -80.80843718 30.64820713 -77.25 29.1875 C-74.80383598 28.16954089 -72.35836427 27.14991661 -69.91357422 26.12866211 C-66.2046978 24.57987181 -62.49516254 23.03278589 -58.78182983 21.4947052 C-51.09028659 18.30534939 -43.43412519 15.04594396 -35.8046875 11.7109375 C-33.96850719 10.91232607 -32.13224678 10.11389879 -30.29589844 9.31567383 C-27.7334959 8.20150665 -25.17306434 7.08378839 -22.61828613 5.95223999 C-20.29531935 4.9249355 -17.96524539 3.915742 -15.6328125 2.91015625 C-14.97054657 2.61132538 -14.30828064 2.31249451 -13.62594604 2.00460815 C-8.80497727 -0.04521788 -5.14007312 -0.38572795 0 0 Z " fill="#EDCABD" transform="translate(336,209)"/>
<path d="M0 0 C7.04431045 20.52460322 14.05657567 41.05988949 20.93890381 61.63946533 C21.56308271 63.50516486 22.18828673 65.37052174 22.81451416 67.23553467 C23.68930872 69.8422069 24.56011341 72.4501761 25.4296875 75.05859375 C25.82241852 76.22606895 25.82241852 76.22606895 26.2230835 77.41712952 C28 82.77077979 28 82.77077979 28 85 C7.76382416 93.56338792 -12.49873815 102.05965946 -32.8125 110.4375 C-33.77034393 110.83253723 -34.72818787 111.22757446 -35.71505737 111.63458252 C-39.5919557 113.23332276 -43.46893039 114.83187759 -47.34602356 116.43014526 C-56.76020322 120.31168029 -66.1692758 124.2054925 -75.57601929 128.10501099 C-77.27613911 128.80973035 -78.97635008 129.51422987 -80.67666626 130.21847534 C-83.04899852 131.20108238 -85.42099863 132.1844879 -87.79296875 133.16796875 C-88.92001976 133.63438026 -88.92001976 133.63438026 -90.06983948 134.11021423 C-94.15322754 135.80369165 -98.2253609 137.52050306 -102.28759766 139.26416016 C-103.15733719 139.63583817 -104.02707672 140.00751617 -104.923172 140.39045715 C-106.59693013 141.10679779 -108.26881462 141.82753686 -109.93852234 142.55326843 C-110.68882217 142.87382706 -111.43912201 143.19438568 -112.2121582 143.5246582 C-112.87270706 143.81008987 -113.53325592 144.09552155 -114.21382141 144.38960266 C-116 145 -116 145 -119 145 C-119 110.35 -119 75.7 -119 40 C-117 43 -117 43 -117 46 C-93.22117108 36.90240507 -69.58670701 27.46063346 -45.97589111 17.93676758 C-42.1953641 16.41247498 -38.41393939 14.89041628 -34.63250256 13.36838245 C-30.97524249 11.89617533 -27.31834768 10.42306293 -23.66158485 8.9496212 C-21.92446429 8.24970247 -20.18727095 7.54996437 -18.45000267 6.85041237 C-16.0538034 5.88526805 -13.65805724 4.9190082 -11.26245117 3.95239258 C-10.55158356 3.66626602 -9.84071594 3.38013947 -9.10830688 3.08534241 C-1.469692 0 -1.469692 0 0 0 Z " fill="#494955" transform="translate(128,331)"/>
<path d="M0 0 C7.61216139 21.64266866 15.16875836 43.30169989 22.4375 65.0625 C22.72184906 65.91055206 23.00619812 66.75860413 23.29916382 67.63235474 C24.09741737 70.01549133 24.8913547 72.40001445 25.68359375 74.78515625 C25.92035828 75.49148193 26.1571228 76.19780762 26.40106201 76.92553711 C28 81.76920473 28 81.76920473 28 84 C13.42522218 90.50870983 -1.21120002 96.81440473 -15.98706055 102.85058594 C-22.33230907 105.44951126 -28.59436811 108.14234725 -34.77978516 111.10400391 C-37 112 -37 112 -40 112 C-40.35602295 110.90163818 -40.7120459 109.80327637 -41.07885742 108.67163086 C-42.77974888 103.426274 -44.48345499 98.18183307 -46.1875 92.9375 C-46.49802307 91.98125732 -46.80854614 91.02501465 -47.128479 90.03979492 C-50.64995618 79.20051309 -54.19536074 68.37026788 -57.82421875 57.56640625 C-58.12581406 56.66752182 -58.42740936 55.76863739 -58.73814392 54.84251404 C-60.18136801 50.54381382 -61.63014599 46.24709253 -63.08666992 41.95288086 C-63.60739986 40.40613462 -64.12799664 38.85934354 -64.6484375 37.3125 C-64.88837936 36.6113356 -65.12832123 35.9101712 -65.37553406 35.1877594 C-66.33550182 32.32305846 -67 30.04505632 -67 27 C-64.2100561 25.82905995 -61.41821403 24.66309073 -58.625 23.5 C-57.8309375 23.16613281 -57.036875 22.83226562 -56.21875 22.48828125 C-55.45820313 22.17246094 -54.69765625 21.85664063 -53.9140625 21.53125 C-53.2123291 21.23798828 -52.5105957 20.94472656 -51.78759766 20.64257812 C-50 20 -50 20 -48 20 C-47.45826772 21.62519684 -46.91653774 23.25039444 -46.37481689 24.87559509 C-45.88783351 26.33651423 -45.40081248 27.79742083 -44.91375732 29.25831604 C-43.5598006 33.31962717 -42.20652266 37.38116241 -40.85449219 41.44311523 C-38.3907029 48.84308915 -35.92322933 56.24153324 -33.421875 63.62890625 C-33.04998047 64.73105469 -32.67808594 65.83320313 -32.29492188 66.96875 C-31.61239954 68.98952641 -30.92635417 71.00911728 -30.23632812 73.02734375 C-29.93662109 73.91679687 -29.63691406 74.80625 -29.328125 75.72265625 C-29.0693457 76.48328369 -28.81056641 77.24391113 -28.54394531 78.02758789 C-28 80 -28 80 -28 83 C-23.05 81.35 -18.1 79.7 -13 78 C-14.48407246 70.57426417 -16.69843901 63.54387789 -19.1328125 56.37890625 C-19.52951141 55.1977977 -19.92621033 54.01668915 -20.33493042 52.79978943 C-21.3806187 49.68753487 -22.42988191 46.57652103 -23.48144531 43.46624756 C-24.97022642 39.06217213 -26.45546284 34.65691712 -27.93649292 30.25022888 C-28.72359168 27.90876016 -29.51365202 25.56828454 -30.30691528 23.22889709 C-30.83779251 21.65101662 -30.83779251 21.65101662 -31.37939453 20.04125977 C-31.84999802 18.64968407 -31.84999802 18.64968407 -32.33010864 17.22999573 C-33 15 -33 15 -33 13 C-28.62365215 11.14405793 -24.24537765 9.29276764 -19.86523438 7.44580078 C-18.37478328 6.81654974 -16.8848711 6.18602066 -15.39550781 5.55419922 C-13.25725741 4.64736466 -11.11712448 3.74511211 -8.9765625 2.84375 C-7.97491562 2.4172113 -7.97491562 2.4172113 -6.95303345 1.98205566 C-2.22774341 0 -2.22774341 0 0 0 Z " fill="#65697D" transform="translate(211,297)"/>
<path d="M0 0 C5.94 0 11.88 0 18 0 C18.0825 2.041875 18.165 4.08375 18.25 6.1875 C19.18838838 18.91358898 22.71746764 30.39035227 32.25 39.25 C40.68619125 45.88500009 49.56746161 48.05668403 60 50 C60 55.61 60 61.22 60 67 C57.9375 67.37125 55.875 67.7425 53.75 68.125 C42.02750438 70.66151574 31.96716127 75.30147626 25.31640625 85.609375 C19.32704576 96.00816875 18.63003271 105.23938935 18 117 C12.06 117 6.12 117 0 117 C-0.0825 114.421875 -0.165 111.84375 -0.25 109.1875 C-0.80111937 98.25575042 -3.59640542 88.36728561 -11 80 C-20.23539194 71.81147703 -29.14009054 69.17153272 -41 67 C-41 61.39 -41 55.78 -41 50 C-38.56625 49.46375 -36.1325 48.9275 -33.625 48.375 C-26.54193443 46.70095161 -21.03932111 44.09643874 -15 40 C-14.29359375 39.69320312 -13.5871875 39.38640625 -12.859375 39.0703125 C-10.48313931 37.70247935 -10.07452336 36.49378963 -9 34 C-7.49849675 31.5641374 -5.97299602 29.14503625 -4.4375 26.73046875 C-1.26198584 20.69871767 -0.65034991 14.73418906 -0.375 8.0625 C-0.189375 4.0715625 -0.189375 4.0715625 0 0 Z " fill="#000000" transform="translate(448,203)"/>
<path d="M0 0 C5.94 0 11.88 0 18 0 C18.0825 2.3925 18.165 4.785 18.25 7.25 C18.99865305 20.90526466 23.29431122 30.9334833 33.375 40.3125 C40.91570926 46.3517406 49.71836569 48.04597172 59 50 C59 55.61 59 61.22 59 67 C56.56625 67.53625 54.1325 68.0725 51.625 68.625 C41.3983743 71.08199937 32.5556997 75.50434835 26 84 C21.10771814 92.06706051 18.78797664 100.06527892 18.375 109.4375 C18.189375 113.1809375 18.189375 113.1809375 18 117 C12.06 117 6.12 117 0 117 C-0.0825 114.6075 -0.165 112.215 -0.25 109.75 C-0.97165624 96.37548633 -5.01002813 86.39927783 -14.875 77.25 C-22.90587185 70.60792554 -30.8033659 68.96089117 -41 67 C-41 61.39 -41 55.78 -41 50 C-38.56625 49.46375 -36.1325 48.9275 -33.625 48.375 C-23.3983743 45.91800063 -14.5556997 41.49565165 -8 33 C-3.10771814 24.93293949 -0.78797664 16.93472108 -0.375 7.5625 C-0.189375 3.8190625 -0.189375 3.8190625 0 0 Z " fill="#000000" transform="translate(415,37)"/>
<path d="M0 0 C5.94 0 11.88 0 18 0 C18.1546875 3.650625 18.1546875 3.650625 18.3125 7.375 C19.06632415 20.46112278 22.60407258 30.14625352 32.3125 39.3125 C40.33266864 46.0382321 48.88938703 47.8714499 59 50 C59 55.61 59 61.22 59 67 C56.545625 67.556875 54.09125 68.11375 51.5625 68.6875 C42.55495996 70.86750666 35.19507955 73.80031296 29 81 C28.50757812 81.56332031 28.01515625 82.12664062 27.5078125 82.70703125 C18.95160506 93.15752343 18.41568064 104.00997998 18 117 C12.06 117 6.12 117 0 117 C-0.0825 114.793125 -0.165 112.58625 -0.25 110.3125 C-1.033897 96.79212905 -4.9126689 86.50910773 -14.875 77.25 C-22.90587185 70.60792554 -30.8033659 68.96089117 -41 67 C-41 61.39 -41 55.78 -41 50 C-38.56625 49.46375 -36.1325 48.9275 -33.625 48.375 C-22.26852274 45.62835453 -13.83052733 40.7297067 -7 31 C-2.64379122 23.10030797 -0.96038114 16.13512022 -0.4375 7.1875 C-0.293125 4.815625 -0.14875 2.44375 0 0 Z " fill="#000000" transform="translate(50,203)"/>
<path d="M0 0 C1.20612442 0.00894287 1.20612442 0.00894287 2.43661499 0.01806641 C17.09589353 0.21969003 17.09589353 0.21969003 21.6875 3.875 C23 7.5625 23 7.5625 23.6875 10.875 C12.60442287 16.20493405 1.25023533 20.77395552 -10.1640625 25.3359375 C-12.15617777 26.13434124 -14.14823197 26.93289737 -16.14022827 27.7315979 C-20.28607626 29.39290195 -24.43296518 31.05157428 -28.58056641 32.70849609 C-33.90145642 34.83451649 -39.2191408 36.96843265 -44.53603554 39.10442162 C-48.63513674 40.74993897 -52.73612702 42.39070464 -56.83768845 44.03007889 C-58.80079097 44.81552542 -60.76324093 45.60260496 -62.72502518 46.39133835 C-65.45357571 47.48767105 -68.18465638 48.57744116 -70.91650391 49.66552734 C-71.72686096 49.99272766 -72.53721802 50.31992798 -73.37213135 50.65704346 C-78.96989626 52.875 -78.96989626 52.875 -82.3125 52.875 C-84.68752145 49.16402898 -84.96228656 46.20691039 -84.3125 41.875 C-82.31280007 38.86953383 -79.87140062 36.40881336 -77.3125 33.875 C-76.73757813 33.27558594 -76.16265625 32.67617188 -75.5703125 32.05859375 C-72.03424269 28.4166048 -68.30010227 25.06537574 -64.42529297 21.78881836 C-62.31457394 19.95842768 -62.31457394 19.95842768 -60.69970703 17.98803711 C-54.80701471 11.15914648 -47.47815917 8.55047125 -39.125 5.875 C-38.39793854 5.6355365 -37.67087708 5.396073 -36.92178345 5.14935303 C-24.62974424 1.19141149 -12.88238155 -0.1202362 0 0 Z " fill="#E4801B" transform="translate(380.3125,437.125)"/>
<path d="M0 0 C2.53954033 1.75170742 3.32649657 3.36573748 4.6496582 6.14453125 C5.11307617 7.10931396 5.57649414 8.07409668 6.05395508 9.06811523 C6.52897461 10.09751221 7.00399414 11.12690918 7.4934082 12.1875 C7.98389648 13.23687744 8.47438477 14.28625488 8.97973633 15.36743164 C12.30541777 22.60011738 15.20770196 29.59725726 16.9934082 37.375 C17.28731445 38.550625 17.5812207 39.72625 17.8840332 40.9375 C22.68343485 62.57843832 21.098625 84.04957462 9.9074707 103.44921875 C6.91501646 108.0233988 3.57676208 112.25181619 -0.0065918 116.375 C-3.35480078 114.90874144 -5.69925539 113.03841553 -8.3190918 110.5 C-9.03709961 109.82195312 -9.75510742 109.14390625 -10.49487305 108.4453125 C-12.0065918 106.375 -12.0065918 106.375 -11.9128418 104.3515625 C-10.90442642 102.1521738 -9.72378712 100.49936086 -8.1940918 98.625 C3.11339089 83.93609306 3.56009647 66.55464286 1.3684082 48.75 C-0.9004451 36.46037793 -5.20831308 24.80814841 -11.55395508 14.05712891 C-12.4389735 12.53366649 -13.23129013 10.95711967 -14.0065918 9.375 C-12.71346505 5.49561975 -11.08532669 4.7679256 -7.6940918 2.5625 C-6.72858398 1.91667969 -5.76307617 1.27085938 -4.76831055 0.60546875 C-2.0065918 -0.625 -2.0065918 -0.625 0 0 Z " fill="#030301" transform="translate(265.006591796875,42.625)"/>
<path d="M0 0 C1.45800781 2.65209961 1.45800781 2.65209961 2.953125 6.15234375 C3.21760437 6.76767471 3.48208374 7.38300568 3.75457764 8.01698303 C4.31102622 9.31858321 4.86210536 10.62249004 5.40820312 11.9284668 C6.24766324 13.93192309 7.10675763 15.92607252 7.96875 17.91992188 C11.01096415 25.07474416 11.01096415 25.07474416 12 28 C11 30 11 30 8.43969727 31.05322266 C7.32651123 31.4197998 6.2133252 31.78637695 5.06640625 32.1640625 C3.86048828 32.56367188 2.65457031 32.96328125 1.41210938 33.375 C0.78071045 33.57996094 0.14931152 33.78492188 -0.5012207 33.99609375 C-2.42869913 34.62214147 -4.35222766 35.2592708 -6.27539062 35.8984375 C-15.70595323 39 -15.70595323 39 -18 39 C-19.43024742 35.06948228 -20.85423081 31.13676931 -22.27246094 27.2019043 C-22.75577135 25.86371832 -23.24078598 24.52614657 -23.72753906 23.18920898 C-24.42702345 21.26705444 -25.12034277 19.34277196 -25.8125 17.41796875 C-26.23144531 16.26063232 -26.65039062 15.1032959 -27.08203125 13.91088867 C-28 11 -28 11 -28 8 C-27.45214844 7.93683594 -26.90429688 7.87367188 -26.33984375 7.80859375 C-19.61957256 6.77050308 -14.08851117 4.37961462 -8.09155273 1.30053711 C-3.30291979 -1.10097326 -3.30291979 -1.10097326 0 0 Z " fill="#F0A121" transform="translate(339,394)"/>
<path d="M0 0 C0.66 0 1.32 0 2 0 C3.47265625 1.64453125 3.47265625 1.64453125 5.0625 3.8125 C5.58972656 4.52019531 6.11695312 5.22789062 6.66015625 5.95703125 C8 8 8 8 9 11 C10.31252882 11.70674629 11.65278717 12.36184656 13 13 C15.37467937 14.6102976 17.68932404 16.29944634 20 18 C18.55901187 21.52582203 16.84359196 23.08238114 13.75 25.25 C8.7159445 29.00930274 4.82176043 33.35647914 2 39 C1.34 39 0.68 39 0 39 C-1.33203125 37.42578125 -1.33203125 37.42578125 -2.8125 35.3125 C-7.4010396 29.02122522 -12.72651852 24.52998291 -19 20 C-16.52401964 17.42085379 -13.92763003 15.10037556 -11.1875 12.8125 C-7.337784 9.50246381 -4.39924756 5.83755649 -1.4453125 1.72265625 C-0.96835937 1.15417969 -0.49140625 0.58570313 0 0 Z " fill="#EDBC64" transform="translate(58,242)"/>
<path d="M0 0 C0.66 0 1.32 0 2 0 C3.26171875 1.50390625 3.26171875 1.50390625 4.6875 3.5625 C9.28229853 9.87895054 14.32468392 14.92968532 21 19 C20.34 19.515625 19.68 20.03125 19 20.5625 C18.01 21.366875 17.02 22.17125 16 23 C15.37222656 23.49757813 14.74445313 23.99515625 14.09765625 24.5078125 C9.49419036 28.30721813 6.29071396 32.15045346 3.2265625 37.27734375 C2.82179688 37.84582031 2.41703125 38.41429687 2 39 C1.34 39 0.68 39 0 39 C-1.22065556 37.37245925 -2.37576021 35.69557477 -3.5 34 C-7.59041825 28.18769612 -12.24801384 24.11361305 -18 20 C-16.33333333 18.33333333 -14.66666667 16.66666667 -13 15 C-12.278125 14.236875 -11.55625 13.47375 -10.8125 12.6875 C-9 11 -9 11 -7 11 C-6.773125 10.484375 -6.54625 9.96875 -6.3125 9.4375 C-4.51782382 6.10452995 -2.50034985 2.85296329 0 0 Z " fill="#EDBC64" transform="translate(423,76)"/>
<path d="M0 0 C3.39790141 1.1326338 3.71444272 1.70783693 5.625 4.5625 C8.61319177 8.72649655 12.05780488 11.92486668 15.94921875 15.23828125 C17.7203768 16.75979036 19.37602593 18.3244712 21 20 C20.43152344 20.42410156 19.86304688 20.84820312 19.27734375 21.28515625 C12.30749908 26.57944561 6.4129833 32.11928804 1 39 C0.19949219 37.948125 0.19949219 37.948125 -0.6171875 36.875 C-5.84183281 30.22216445 -11.13923146 24.99876456 -18 20 C-15.29744604 17.21555046 -12.59919771 14.66586173 -9.5625 12.25 C-5.44218706 8.79833434 -2.76771361 4.56216529 0 0 Z " fill="#EFBD64" transform="translate(456,242)"/>
<path d="M0 0 C8.41961359 6.79674914 13.42797352 16.92488406 15.671875 27.40234375 C15.74114468 30.16204783 15.7660486 32.89430417 15.734375 35.65234375 C15.72986328 36.39742187 15.72535156 37.1425 15.72070312 37.91015625 C15.70896746 39.74092015 15.6910335 41.57164248 15.671875 43.40234375 C15.341875 43.40234375 15.011875 43.40234375 14.671875 43.40234375 C14.61580078 42.06042969 14.61580078 42.06042969 14.55859375 40.69140625 C13.79330857 26.61616119 10.50700669 14.91807864 0.82421875 4.32421875 C-8.33958084 -3.85833915 -18.23994701 -6.96042631 -30.265625 -6.72265625 C-31.14025391 -6.71363281 -32.01488281 -6.70460938 -32.91601562 -6.6953125 C-35.05350564 -6.67195195 -37.19085286 -6.63608872 -39.328125 -6.59765625 C-38.998125 -7.25765625 -38.668125 -7.91765625 -38.328125 -8.59765625 C-24.54891697 -11.9584387 -11.43337997 -7.84606109 0 0 Z " fill="#D57A19" transform="translate(345.328125,30.59765625)"/>
</svg>
