<?xml version="1.0" encoding="UTF-8"?>
<svg version="1.1" xmlns="http://www.w3.org/2000/svg" width="512" height="512">
<path d="M0 0 C6.2381269 1.67019345 12.63596477 2.31465686 19.04296875 3.0234375 C16.6472555 6.82112645 14.35479965 9.94142022 10.91796875 12.8359375 C10.23476563 13.41988281 9.5515625 14.00382812 8.84765625 14.60546875 C7.04296875 16.0234375 7.04296875 16.0234375 5.04296875 17.0234375 C6.18572266 17.46042969 6.18572266 17.46042969 7.3515625 17.90625 C22.78166325 24.03205779 33.55537893 34.00479954 44.5 46.2265625 C45.75876953 47.61101562 45.75876953 47.61101562 47.04296875 49.0234375 C47.82414062 49.88839844 48.6053125 50.75335938 49.41015625 51.64453125 C52.50738289 54.44306393 55.6007009 56.08422809 59.35546875 57.8359375 C60.00064453 58.14724609 60.64582031 58.45855469 61.31054688 58.77929688 C62.88356219 59.53667462 64.46266001 60.28139808 66.04296875 61.0234375 C63.05005539 64.16942756 60.31294883 66.72056121 56.48046875 68.7734375 C55.73667969 69.18078125 54.99289062 69.588125 54.2265625 70.0078125 C49.60391059 72.15788316 45.33339741 72.14787093 40.29296875 72.0859375 C39.59558594 72.08142578 38.89820313 72.07691406 38.1796875 72.07226562 C36.46741072 72.0605377 34.75517842 72.04260403 33.04296875 72.0234375 C33.78353516 73.41755859 33.78353516 73.41755859 34.5390625 74.83984375 C35.18673795 76.08826165 35.83384306 77.33697555 36.48046875 78.5859375 C36.96870117 79.49956055 36.96870117 79.49956055 37.46679688 80.43164062 C39.64668096 84.67904364 40.60816244 88.26506417 41.04296875 93.0234375 C38.00124156 93.050542 34.95975878 93.07032714 31.91796875 93.0859375 C31.06203125 93.09431641 30.20609375 93.10269531 29.32421875 93.11132812 C28.06738281 93.11616211 28.06738281 93.11616211 26.78515625 93.12109375 C26.02058105 93.12633057 25.25600586 93.13156738 24.46826172 93.13696289 C21.6049562 93.0029346 18.86040691 92.53812753 16.04296875 92.0234375 C16.05312012 92.89669678 16.06327148 93.76995605 16.07373047 94.66967773 C16.13903636 104.83673943 15.74467413 114.93678471 15.16796875 125.0859375 C15.12317383 125.89171234 15.07837891 126.69748718 15.03222656 127.52767944 C14.4860626 137.30597542 13.89561069 147.07878544 13.04296875 156.8359375 C12.97223145 157.67455322 12.90149414 158.51316895 12.82861328 159.37719727 C12.75497559 160.15377686 12.68133789 160.93035645 12.60546875 161.73046875 C12.54488281 162.3747583 12.48429687 163.01904785 12.421875 163.68286133 C11.85416684 167.18970292 10.93213381 170.58444765 10.04296875 174.0234375 C17.10727355 176.02270515 24.17326671 178.01591572 31.24047852 180.00488281 C33.64549636 180.68251734 36.05012122 181.36154822 38.4543457 182.04199219 C41.90604435 183.01863284 45.35911554 183.99027721 48.8125 184.9609375 C49.89070511 185.26717041 50.96891022 185.57340332 52.07978821 185.88891602 C53.08059921 186.16920654 54.08141022 186.44949707 55.11254883 186.73828125 C55.99413162 186.98698975 56.87571442 187.23569824 57.78401184 187.49194336 C60.14290512 188.13795204 60.14290512 188.13795204 63.04296875 188.0234375 C63.31971436 187.3528833 63.59645996 186.6823291 63.8815918 185.99145508 C65.15183318 182.93415194 66.44091339 179.88514146 67.73046875 176.8359375 C68.16552734 175.78083984 68.60058594 174.72574219 69.04882812 173.63867188 C71.82417271 167.12175163 74.00740093 162.59504694 80.078125 158.7265625 C82.32209619 157.92355094 84.09982523 157.75693391 86.48046875 157.7734375 C87.59228516 157.76570313 87.59228516 157.76570313 88.7265625 157.7578125 C91.42178299 158.06687657 93.57333397 158.92582204 96.04296875 160.0234375 C95.55505058 172.51414275 93.20464089 184.73690768 91.04296875 197.0234375 C91.70296875 196.6934375 92.36296875 196.3634375 93.04296875 196.0234375 C109.43570448 194.2388473 125.6337114 201.76936466 139.16796875 210.5234375 C142.70292919 213.59731615 144.18610741 215.71551919 146.04296875 220.0234375 C146.29296875 223.9609375 146.29296875 223.9609375 146.04296875 227.0234375 C146.80609375 227.11109375 147.56921875 227.19875 148.35546875 227.2890625 C153.43766145 228.3011941 158.1753288 230.01747189 163.04296875 231.7734375 C164.01492188 232.10859375 164.986875 232.44375 165.98828125 232.7890625 C172.36852867 235.08386539 177.63317385 237.35635831 181.48046875 243.2109375 C182.63638163 248.99050189 181.95985377 254.22241336 179.29296875 259.4609375 C174.97413745 264.37960648 171.21317433 265.48047648 164.86865234 266.05688477 C159.88928749 265.99794464 155.54061501 264.30969113 150.91796875 262.5859375 C149.96148437 262.24755859 149.005 261.90917969 148.01953125 261.56054688 C145.68698635 260.73249344 143.36261576 259.88682254 141.04296875 259.0234375 C141.18798891 261.54431977 141.33398702 264.06514003 141.48046875 266.5859375 C141.53944336 267.61364258 141.53944336 267.61364258 141.59960938 268.66210938 C141.8086535 272.24802011 142.02964272 275.83216486 142.27929688 279.41552734 C144.66350343 313.64143982 144.73575376 348.03111743 141.60546875 382.2109375 C141.54411743 382.88295197 141.48276611 383.55496643 141.41955566 384.24734497 C139.21424218 407.85216407 139.21424218 407.85216407 137.04296875 410.0234375 C126.58371524 409.22285266 117.76416021 403.03128781 109.84765625 396.50390625 C107.90207263 394.85810762 107.90207263 394.85810762 105.04296875 393.0234375 C106.11647076 399.03987874 107.23556812 405.04540121 108.41015625 411.04296875 C111.08650338 424.80716589 113.55039394 438.56143838 115.41796875 452.4609375 C115.66909424 454.30619019 115.66909424 454.30619019 115.92529297 456.1887207 C116.75520246 462.62565592 117.04296875 468.44632411 117.04296875 475.0234375 C-12.64703125 475.0234375 -142.33703125 475.0234375 -275.95703125 475.0234375 C-269.81639204 442.27336172 -253.04831809 414.26848011 -226.70703125 393.3359375 C-223.03472652 390.24786307 -220.03431616 386.69250796 -216.95703125 383.0234375 C-218.53306095 379.37727148 -220.79210323 376.75477904 -223.39453125 373.7734375 C-235.36128028 359.68794222 -246.28433451 343.33345275 -252.95703125 326.0234375 C-252.71611842 323.73476565 -252.57272268 322.63912893 -250.95703125 321.0234375 C-249.87164062 321.00925781 -248.78625 320.99507813 -247.66796875 320.98046875 C-236.99594167 320.75649257 -231.45460597 318.0115332 -224.00268555 310.40478516 C-222.8228858 309.16407919 -221.6515716 307.91523077 -220.49023438 306.65722656 C-218.65293772 304.69939388 -216.69549451 302.94195049 -214.64453125 301.2109375 C-211.71300482 298.68639088 -208.82818516 296.11659768 -205.95703125 293.5234375 C-200.63368432 288.72435958 -195.26839786 283.982658 -189.8046875 279.34375 C-183.23036557 273.75455981 -176.76714703 268.08206956 -170.45727539 262.19506836 C-166.82979917 258.8123185 -163.13684671 255.52823963 -159.34765625 252.328125 C-157.82737167 251.05270139 -157.82737167 251.05270139 -156.95703125 249.0234375 C-157.6325 248.85328125 -158.30796875 248.683125 -159.00390625 248.5078125 C-168.71318466 245.87003166 -168.71318466 245.87003166 -170.95703125 242.0234375 C-170.63801156 236.28817239 -168.88442465 232.20551377 -166.08203125 227.3359375 C-165.68564453 226.64113281 -165.28925781 225.94632813 -164.88085938 225.23046875 C-160.75806766 218.27605419 -155.71792991 212.6495783 -149.95703125 207.0234375 C-149.2403125 206.28609375 -148.52359375 205.54875 -147.78515625 204.7890625 C-143.49658943 200.62947514 -138.86129328 197.61340993 -133.64453125 194.7734375 C-133.06477539 194.45600586 -132.48501953 194.13857422 -131.88769531 193.81152344 C-127.94060299 191.76814576 -123.9216735 190.29286726 -119.69848633 188.90722656 C-118.08385246 188.37551849 -118.08385246 188.37551849 -116.43659973 187.83306885 C-115.61834213 187.5658905 -114.80008453 187.29871216 -113.95703125 187.0234375 C-115.25363426 186.64903786 -115.25363426 186.64903786 -116.57643127 186.26707458 C-119.2489312 185.49532482 -121.92140492 184.72348464 -124.59385681 183.9515686 C-127.82051889 183.01959352 -131.04731706 182.08809127 -134.27418518 181.15682983 C-143.43105345 178.5134121 -152.5853103 175.86132538 -161.73583984 173.19604492 C-165.57885091 172.07774987 -169.42214119 170.96041916 -173.265625 169.84375 C-174.23657608 169.5615819 -175.20752716 169.2794138 -176.207901 168.98869514 C-188.8328126 165.32406412 -201.47934236 161.75360626 -214.16142273 158.29203796 C-220.53417677 156.55244053 -226.89814516 154.78169028 -233.2601862 153.00335407 C-238.42488193 151.56276306 -243.59874543 150.16471226 -248.78299236 148.79626846 C-252.0140596 147.93224324 -255.23275134 147.02769451 -258.44947624 146.111866 C-259.92888863 145.69952809 -261.41303118 145.30370441 -262.90185738 144.92676926 C-272.87915373 142.38941894 -277.95662112 138.91224091 -283.23727417 130.20024109 C-284.08855392 128.62772331 -284.08855392 128.62772331 -284.95703125 127.0234375 C-285.49530548 126.05191238 -286.03357971 125.08038727 -286.58816528 124.079422 C-289.03620168 119.52393089 -290.75568145 115.04726395 -291.95703125 110.0234375 C-285.11639848 106.12025292 -278.31628208 103.2692001 -270.76953125 101.0859375 C-269.66665771 100.75106323 -269.66665771 100.75106323 -268.54150391 100.40942383 C-257.6308109 97.41597728 -247.13704792 101.45070055 -236.63671875 104.44921875 C-235.00505345 104.90948266 -233.37320764 105.36910705 -231.74119568 105.82814026 C-227.34899472 107.06538589 -222.95928176 108.31125072 -218.56998062 109.55873871 C-213.97151072 110.8640679 -209.37079605 112.16143502 -204.77026367 113.45947266 C-197.20791917 115.59406749 -189.64681063 117.73298736 -182.08642578 119.87451172 C-172.47634765 122.59609313 -162.86244817 125.30390161 -153.24643707 128.0044384 C-149.2743569 129.11995179 -145.30247598 130.23617428 -141.33056641 131.35229492 C-139.79958099 131.78250156 -138.26859547 132.21270786 -136.73760986 132.64291382 C-135.62291195 132.95615412 -135.62291195 132.95615412 -134.48569489 133.2757225 C-133.02340478 133.68660822 -131.5610994 134.09743956 -130.09877777 134.50821304 C-109.68728009 140.24216028 -89.30844137 146.07951753 -68.95703125 152.0234375 C-69.28703125 148.7234375 -69.61703125 145.4234375 -69.95703125 142.0234375 C-71.07078125 143.0134375 -71.07078125 143.0134375 -72.20703125 144.0234375 C-76.99737559 147.18665775 -82.46446106 146.9879505 -87.95703125 146.0234375 C-92.84014758 143.59901308 -95.33495303 140.06902083 -97.38305664 135.05053711 C-98.449447 131.2843784 -98.18288004 127.46951913 -98.14453125 123.5859375 C-98.19951245 117.15921497 -98.19951245 117.15921497 -100.6171875 111.359375 C-102.67500961 109.44008574 -102.67500961 109.44008574 -104.88671875 107.7734375 C-110.47881938 103.0465298 -113.39283468 94.01123701 -114.19433594 86.92553711 C-115.14161934 71.24523104 -112.63656199 57.21016008 -101.95703125 45.0234375 C-94.27207442 36.78539666 -85.31075044 31.66610085 -73.95703125 31.0234375 C-73.70308594 30.14558594 -73.44914063 29.26773438 -73.1875 28.36328125 C-68.76499339 16.35933474 -58.23975061 6.56106638 -46.95703125 1.0234375 C-32.05438188 -5.7088083 -15.37770185 -4.17185695 0 0 Z M18.04296875 225.0234375 C19.68299782 233.01857921 26.10823441 238.53526888 32.23046875 243.4609375 C37.79206061 248.15763614 41.12628106 254.80856614 42.04296875 262.0234375 C41.84149744 264.25323483 41.63259028 266.48236746 41.41796875 268.7109375 C41.41796875 272.87496692 41.50636844 275.2301017 43.85546875 278.703125 C46.75669764 281.40091406 49.82533436 283.72791968 53.04296875 286.0234375 C54.40162387 287.048288 55.75829718 288.07576954 57.11328125 289.10546875 C65.02429762 295.03385862 73.20262255 300.53176996 81.54296875 305.8359375 C82.36216797 306.35784668 83.18136719 306.87975586 84.02539062 307.41748047 C84.78400391 307.8920166 85.54261719 308.36655273 86.32421875 308.85546875 C86.99517578 309.27546143 87.66613281 309.6954541 88.35742188 310.12817383 C90.01926214 311.17979763 90.01926214 311.17979763 92.04296875 311.0234375 C93.69296875 292.2134375 95.34296875 273.4034375 97.04296875 254.0234375 C90.21599516 249.22528191 90.21599516 249.22528191 83.04296875 245.0234375 C82.37118612 249.10594632 81.70642933 253.18956867 81.04296875 257.2734375 C80.75679688 259.01173828 80.75679688 259.01173828 80.46484375 260.78515625 C80.284375 261.90019531 80.10390625 263.01523437 79.91796875 264.1640625 C79.75039063 265.19047852 79.5828125 266.21689453 79.41015625 267.27441406 C78.95470584 270.22199597 78.95470584 270.22199597 79.04296875 274.0234375 C78.05296875 273.5284375 78.05296875 273.5284375 77.04296875 273.0234375 C75.10804535 272.73477094 73.16999844 272.46683106 71.23046875 272.2109375 C66.46661771 271.44073404 63.34673227 270.76770282 60.04296875 267.0234375 C57.94566695 263.63848552 57.67043755 260.66796511 57.41015625 256.7265625 C57.32636719 255.52128906 57.24257813 254.31601562 57.15625 253.07421875 C57.07761719 251.81996094 56.99898438 250.56570313 56.91796875 249.2734375 C56.83160156 248.00371094 56.74523437 246.73398437 56.65625 245.42578125 C56.44419599 242.29209419 56.24007315 239.15809456 56.04296875 236.0234375 C47.33085275 233.02372992 38.58901836 230.24890322 29.73046875 227.7109375 C28.80532471 227.44458496 27.88018066 227.17823242 26.92700195 226.90380859 C26.06163818 226.65840332 25.19627441 226.41299805 24.3046875 226.16015625 C23.143927 225.83084106 23.143927 225.83084106 21.9597168 225.49487305 C20.04826109 224.94382489 20.04826109 224.94382489 18.04296875 225.0234375 Z " fill="#EBB4AB" transform="translate(310.95703125,19.9765625)"/>
<path d="M0 0 C1.6316653 0.46026391 3.26351111 0.9198883 4.89552307 1.37892151 C9.28772403 2.61616714 13.67743699 3.86203197 18.06673813 5.10951996 C22.66520803 6.41484915 27.2659227 7.71221627 31.86645508 9.01025391 C39.42879958 11.14484874 46.98990812 13.28376861 54.55029297 15.42529297 C64.1603711 18.14687438 73.77427058 20.85468286 83.39028168 23.55521965 C87.36236185 24.67073304 91.33424277 25.78695553 95.30615234 26.90307617 C96.83713776 27.33328281 98.36812328 27.76348911 99.89910889 28.19369507 C100.64224083 28.40252193 101.38537277 28.6113488 102.15102386 28.82650375 C103.61331397 29.23738947 105.07561935 29.64822081 106.53794098 30.05899429 C126.94943866 35.79294153 147.32827738 41.63029878 167.6796875 47.57421875 C167.70744263 48.63378784 167.73519775 49.69335693 167.76379395 50.78503418 C167.8570593 54.31893286 167.95370998 57.85271366 168.05200195 61.38647461 C168.09481938 62.94666481 168.13652097 64.5068861 168.17700195 66.06713867 C167.83430164 83.9189304 167.83430164 83.9189304 172.6796875 100.57421875 C174.97281523 116.33947192 162.51735222 136.2343938 153.87890625 148.69140625 C147.80033707 156.65940634 141.12316969 164.05813297 132.6796875 169.57421875 C147.07721411 200.86115158 172.69815252 222.99166436 202.6796875 238.57421875 C203.39656738 238.94949707 204.11344727 239.32477539 204.85205078 239.71142578 C205.8978833 240.24872314 205.8978833 240.24872314 206.96484375 240.796875 C207.58367432 241.115354 208.20250488 241.43383301 208.84008789 241.76196289 C213.62614657 243.87519676 218.68058594 244.51533569 223.74609375 242.92578125 C237.68791362 237.08967061 248.47884033 227.75235611 257.734375 215.9921875 C259.30027244 214.04582101 260.86921979 212.28790045 262.6796875 210.57421875 C263.53042765 227.90411063 260.4728266 245.30112319 258.109375 262.42578125 C253.23342917 298.15316615 256.05140564 334.5175591 255.6796875 370.57421875 C158.3296875 370.57421875 60.9796875 370.57421875 -39.3203125 370.57421875 C-33.17967329 337.82414297 -16.41159934 309.81926136 9.9296875 288.88671875 C13.60199223 285.79864432 16.60240259 282.24328921 19.6796875 278.57421875 C18.1036578 274.92805273 15.84461552 272.30556029 13.2421875 269.32421875 C1.27543847 255.23872347 -9.64761576 238.884234 -16.3203125 221.57421875 C-16.07939967 219.2855469 -15.93600393 218.18991018 -14.3203125 216.57421875 C-13.23492187 216.56003906 -12.14953125 216.54585937 -11.03125 216.53125 C-0.35922292 216.30727382 5.18211278 213.56231445 12.6340332 205.95556641 C13.81383295 204.71486044 14.98514715 203.46601202 16.14648438 202.20800781 C17.98378103 200.25017513 19.94122424 198.49273174 21.9921875 196.76171875 C24.92371393 194.23717213 27.80853359 191.66737893 30.6796875 189.07421875 C36.00303443 184.27514083 41.36832089 179.53343925 46.83203125 174.89453125 C53.40635318 169.30534106 59.86957172 163.63285081 66.17944336 157.74584961 C69.80691958 154.36309975 73.49987204 151.07902088 77.2890625 147.87890625 C78.80934708 146.60348264 78.80934708 146.60348264 79.6796875 144.57421875 C79.00421875 144.4040625 78.32875 144.23390625 77.6328125 144.05859375 C67.92353409 141.42081291 67.92353409 141.42081291 65.6796875 137.57421875 C65.99870719 131.83895364 67.7522941 127.75629502 70.5546875 122.88671875 C70.95107422 122.19191406 71.34746094 121.49710937 71.75585938 120.78125 C75.87865109 113.82683544 80.91878884 108.20035955 86.6796875 102.57421875 C87.39640625 101.836875 88.113125 101.09953125 88.8515625 100.33984375 C93.14012932 96.18025639 97.77542547 93.16419118 102.9921875 90.32421875 C103.57194336 90.00678711 104.15169922 89.68935547 104.74902344 89.36230469 C108.69611576 87.31892701 112.71504525 85.84364851 116.93823242 84.45800781 C118.014655 84.10353577 119.09107758 83.74906372 120.20011902 83.3838501 C121.42750542 82.98308258 121.42750542 82.98308258 122.6796875 82.57421875 C121.81528549 82.32461899 120.95088348 82.07501923 120.06028748 81.81785583 C117.38778755 81.04610607 114.71531383 80.27426589 112.04286194 79.50234985 C108.81619986 78.57037477 105.58940169 77.63887252 102.36253357 76.70761108 C93.2056653 74.06419335 84.05140845 71.41210663 74.90087891 68.74682617 C71.05786784 67.62853112 67.21457756 66.51120041 63.37109375 65.39453125 C61.91466713 64.9712791 61.91466713 64.9712791 60.42881775 64.53947639 C47.80390615 60.87484537 35.15737639 57.30438751 22.47529602 53.84281921 C16.10254198 52.10322178 9.73857359 50.33247153 3.37653255 48.55413532 C-1.78816318 47.11354431 -6.96202668 45.71549351 -12.14627361 44.34704971 C-15.37734085 43.48302449 -18.59603259 42.57847576 -21.81275749 41.66264725 C-23.29216988 41.25030934 -24.77631243 40.85448566 -26.26513863 40.47755051 C-36.24243498 37.94020019 -41.31990237 34.46302216 -46.60055542 25.75102234 C-47.16807526 24.70267715 -47.73559509 23.65433197 -48.3203125 22.57421875 C-49.12772385 21.11693108 -49.12772385 21.11693108 -49.95144653 19.63020325 C-52.39948293 15.07471214 -54.1189627 10.5980452 -55.3203125 5.57421875 C-48.47967973 1.67103417 -41.67956333 -1.18001865 -34.1328125 -3.36328125 C-33.39756348 -3.58653076 -32.66231445 -3.80978027 -31.90478516 -4.03979492 C-20.99409215 -7.03324147 -10.50032917 -2.9985182 0 0 Z " fill="#E7D5C7" transform="translate(74.3203125,124.42578125)"/>
<path d="M0 0 C11.80012402 1.10088621 22.01826311 9.94567446 31 17 C32.49676021 18.12930681 33.99633916 19.25489774 35.5 20.375 C38 22.25 40.5 24.125 43 26 C41.08539961 27.77311263 39.16842507 29.54353362 37.25 31.3125 C36.71117187 31.81201172 36.17234375 32.31152344 35.6171875 32.82617188 C35.08867187 33.31279297 34.56015625 33.79941406 34.015625 34.30078125 C33.29294434 34.96847534 33.29294434 34.96847534 32.55566406 35.6496582 C31 37 31 37 28.80834961 38.39526367 C26.80128163 39.82699187 26.80128163 39.82699187 26.71606445 42.0234375 C27.73038589 49.14958198 29.33440483 56.04656577 31.1875 63 C31.49776123 64.18174805 31.80802246 65.36349609 32.12768555 66.58105469 C34.35918565 74.94306831 36.87163464 83.1636891 39.73828125 91.328125 C43.58874898 102.53382055 44.16595199 112.49246691 44.125 124.25 C44.12378143 124.93397858 44.12256287 125.61795715 44.12130737 126.32266235 C44.0973761 137.9480754 43.87671842 149.56657936 43.5625 161.1875 C43.5429425 161.93704956 43.52338501 162.68659912 43.50323486 163.4588623 C43.44507399 165.63287164 43.38174128 167.8066642 43.31640625 169.98046875 C43.26141968 171.83514771 43.26141968 171.83514771 43.20532227 173.72729492 C42.92829265 179.49221213 42.44265918 185.24543063 42 191 C73.68 191 105.36 191 138 191 C138 202.22 138 213.44 138 225 C53.19 225 -31.62 225 -119 225 C-112.85936079 192.24992422 -96.09128684 164.24504261 -69.75 143.3125 C-66.07769527 140.22442557 -63.07728491 136.66907046 -60 133 C-61.5760297 129.35383398 -63.83507198 126.73134154 -66.4375 123.75 C-78.40424903 109.66450472 -89.32730326 93.31001525 -96 76 C-95.75908717 73.71132815 -95.61569143 72.61569143 -94 71 C-92.37191406 70.97873047 -92.37191406 70.97873047 -90.7109375 70.95703125 C-80.03891042 70.73305507 -74.49757472 67.9880957 -67.0456543 60.38134766 C-65.86585455 59.14064169 -64.69454035 57.89179327 -63.53320312 56.63378906 C-61.69590647 54.67595638 -59.73846326 52.91851299 -57.6875 51.1875 C-54.75597357 48.66295338 -51.87115391 46.09316018 -49 43.5 C-43.67665307 38.70092208 -38.31136661 33.9592205 -32.84765625 29.3203125 C-26.27360411 23.73135167 -19.81402037 18.05593371 -13.50024414 12.17382812 C-9.85639302 8.77977311 -6.15953562 5.46127971 -2.390625 2.20703125 C-1.57158034 1.49611889 -0.76688674 0.76688674 0 0 Z " fill="#EBB3AA" transform="translate(154,270)"/>
<path d="M0 0 C1.97606083 2.44613698 3.92434077 4.89724882 5.7890625 7.4296875 C10.47233111 13.66740271 15.3389261 17.96914148 22 22 C22.66902344 22.43441406 23.33804688 22.86882812 24.02734375 23.31640625 C29.47476528 26.51356367 34.79802185 26.9820536 41 26 C47.825832 23.84047605 51.79637216 19.55090542 55.625 13.6484375 C57.62844081 9.7895373 58.37701339 6.29168557 59 2 C65.91992269 1.4895139 71.30199414 1.77705202 77 6 C80.88650723 9.65546221 83.85739664 13.71145996 86.625 18.25 C89.37832819 22.58948465 92.79463141 25.64803102 96.625 29 C101.65490799 33.43398392 105.30561021 37.31229485 107 44 C107.19980469 44.76699219 107.39960938 45.53398437 107.60546875 46.32421875 C108.08713682 49.59097745 107.79655643 52.58380657 107.5625 55.875 C107.3701643 60.96616404 107.3701643 60.96616404 109.8125 65.1875 C112.00627577 66.90572253 112.00627577 66.90572253 114.34765625 68.1796875 C116 70 116 70 115.875 73.7265625 C113.33684186 87.69201587 107.66901987 100.78466501 100.2578125 112.83203125 C98.83272177 114.8705832 98.83272177 114.8705832 99 117 C101.22696459 118.79441135 101.22696459 118.79441135 104.1328125 120.67578125 C104.94274658 121.21832802 104.94274658 121.21832802 105.76904297 121.77183533 C107.54924646 122.95996221 109.33663605 124.13669828 111.125 125.3125 C111.73180603 125.71472778 112.33861206 126.11695557 112.96380615 126.53137207 C122.86850366 133.09533539 132.95701081 139.27720056 143.2578125 145.203125 C146.53424559 147.11981482 149.79894814 149.05079657 153.015625 151.06640625 C153.74297852 151.51701416 154.47033203 151.96762207 155.21972656 152.43188477 C158.02537579 154.90318002 158.41692746 157.73977235 159.1953125 161.28515625 C160.42416669 165.43104782 162.81587168 168.64981708 165.28125 172.1640625 C170.00714303 179.961786 171.51370316 188.87138579 173.375 197.6875 C173.52518585 198.39221436 173.6753717 199.09692871 173.83010864 199.82299805 C176.36350456 211.81484127 178.30261196 223.85500864 179.9375 236 C180.04495544 236.78877533 180.15241089 237.57755066 180.26312256 238.39022827 C181.33408344 246.34158802 182 253.9313711 182 262 C149.66 262 117.32 262 84 262 C83.95875 246.386875 83.9175 230.77375 83.875 214.6875 C83.85679199 209.79639404 83.83858398 204.90528809 83.81982422 199.8659668 C83.81079102 193.79455566 83.81079102 193.79455566 83.80911255 190.93318176 C83.80608405 188.97650741 83.79914124 187.01983627 83.78884888 185.06318665 C83.70726392 168.70507438 84.54439356 152.67564703 87.5625 136.5625 C89.52911129 125.33504878 90.16552923 114.40312468 90 103 C89.64808594 103.4846875 89.29617188 103.969375 88.93359375 104.46875 C87.31485661 106.66651322 85.66441546 108.83663225 84 111 C83.51660156 111.63550781 83.03320312 112.27101563 82.53515625 112.92578125 C74.20083317 123.16872794 62.54214642 131.81928453 50 136 C33.88726668 137.64415646 14.03489303 122.72439669 2 113 C-2.16207718 109.49919938 -6.08947108 105.77733652 -10 102 C-10.92554688 101.13761719 -11.85109375 100.27523437 -12.8046875 99.38671875 C-24.18524351 88.50587554 -32.57491733 75.80767523 -40 62 C-36.86867139 58.80759938 -33.65885599 55.82834356 -30.25 52.9375 C-15.44088532 39.59832707 -6.92489829 21.68458997 -1 3 C-0.67 2.01 -0.34 1.02 0 0 Z " fill="#BF4275" transform="translate(246,233)"/>
<path d="M0 0 C1.6316653 0.46026391 3.26351111 0.9198883 4.89552307 1.37892151 C9.28772403 2.61616714 13.67743699 3.86203197 18.06673813 5.10951996 C22.66520803 6.41484915 27.2659227 7.71221627 31.86645508 9.01025391 C39.42879958 11.14484874 46.98990812 13.28376861 54.55029297 15.42529297 C64.1603711 18.14687438 73.77427058 20.85468286 83.39028168 23.55521965 C87.36236185 24.67073304 91.33424277 25.78695553 95.30615234 26.90307617 C96.83713776 27.33328281 98.36812328 27.76348911 99.89910889 28.19369507 C100.64224083 28.40252193 101.38537277 28.6113488 102.15102386 28.82650375 C103.61331397 29.23738947 105.07561935 29.64822081 106.53794098 30.05899429 C126.94943866 35.79294153 147.32827738 41.63029878 167.6796875 47.57421875 C167.70744263 48.63378784 167.73519775 49.69335693 167.76379395 50.78503418 C167.8570593 54.31893286 167.95370998 57.85271366 168.05200195 61.38647461 C168.09481938 62.94666481 168.13652097 64.5068861 168.17700195 66.06713867 C167.83430164 83.9189304 167.83430164 83.9189304 172.6796875 100.57421875 C174.97281523 116.33947192 162.51735222 136.2343938 153.87890625 148.69140625 C147.50332675 157.04873782 140.22885725 165.79963388 130.6796875 170.57421875 C128.5078125 170.8125 128.5078125 170.8125 125.9296875 170.88671875 C125.08921875 170.92410156 124.24875 170.96148437 123.3828125 171 C117.58787058 170.08721291 113.13942967 165.39656325 108.6796875 161.82421875 C98.04019185 153.55363159 86.84941316 147.92240816 74.25561523 143.27490234 C73.43134033 142.96504395 72.60706543 142.65518555 71.7578125 142.3359375 C70.65034668 141.93314575 70.65034668 141.93314575 69.52050781 141.5222168 C67.6796875 140.57421875 67.6796875 140.57421875 65.6796875 137.57421875 C65.91654471 131.85481365 67.76498327 127.7342457 70.5546875 122.88671875 C70.95107422 122.19191406 71.34746094 121.49710937 71.75585938 120.78125 C75.87865109 113.82683544 80.91878884 108.20035955 86.6796875 102.57421875 C87.39640625 101.836875 88.113125 101.09953125 88.8515625 100.33984375 C93.14012932 96.18025639 97.77542547 93.16419118 102.9921875 90.32421875 C103.57194336 90.00678711 104.15169922 89.68935547 104.74902344 89.36230469 C108.69611576 87.31892701 112.71504525 85.84364851 116.93823242 84.45800781 C118.014655 84.10353577 119.09107758 83.74906372 120.20011902 83.3838501 C121.42750542 82.98308258 121.42750542 82.98308258 122.6796875 82.57421875 C121.81528549 82.32461899 120.95088348 82.07501923 120.06028748 81.81785583 C117.38778755 81.04610607 114.71531383 80.27426589 112.04286194 79.50234985 C108.81619986 78.57037477 105.58940169 77.63887252 102.36253357 76.70761108 C93.2056653 74.06419335 84.05140845 71.41210663 74.90087891 68.74682617 C71.05786784 67.62853112 67.21457756 66.51120041 63.37109375 65.39453125 C61.91466713 64.9712791 61.91466713 64.9712791 60.42881775 64.53947639 C47.80390615 60.87484537 35.15737639 57.30438751 22.47529602 53.84281921 C16.10254198 52.10322178 9.73857359 50.33247153 3.37653255 48.55413532 C-1.78816318 47.11354431 -6.96202668 45.71549351 -12.14627361 44.34704971 C-15.37734085 43.48302449 -18.59603259 42.57847576 -21.81275749 41.66264725 C-23.29216988 41.25030934 -24.77631243 40.85448566 -26.26513863 40.47755051 C-36.24243498 37.94020019 -41.31990237 34.46302216 -46.60055542 25.75102234 C-47.16807526 24.70267715 -47.73559509 23.65433197 -48.3203125 22.57421875 C-49.12772385 21.11693108 -49.12772385 21.11693108 -49.95144653 19.63020325 C-52.39948293 15.07471214 -54.1189627 10.5980452 -55.3203125 5.57421875 C-48.47967973 1.67103417 -41.67956333 -1.18001865 -34.1328125 -3.36328125 C-33.39756348 -3.58653076 -32.66231445 -3.80978027 -31.90478516 -4.03979492 C-20.99409215 -7.03324147 -10.50032917 -2.9985182 0 0 Z " fill="#96AFE3" transform="translate(74.3203125,124.42578125)"/>
<path d="M0 0 C6.2381269 1.67019345 12.63596477 2.31465686 19.04296875 3.0234375 C16.6472555 6.82112645 14.35479965 9.94142022 10.91796875 12.8359375 C10.23476563 13.41988281 9.5515625 14.00382812 8.84765625 14.60546875 C7.04296875 16.0234375 7.04296875 16.0234375 5.04296875 17.0234375 C5.80480469 17.31476562 6.56664062 17.60609375 7.3515625 17.90625 C22.78166325 24.03205779 33.55537893 34.00479954 44.5 46.2265625 C45.75876953 47.61101562 45.75876953 47.61101562 47.04296875 49.0234375 C47.82414063 49.88839844 48.6053125 50.75335938 49.41015625 51.64453125 C52.50738289 54.44306393 55.6007009 56.08422809 59.35546875 57.8359375 C60.00064453 58.14724609 60.64582031 58.45855469 61.31054688 58.77929688 C62.88356219 59.53667462 64.46266001 60.28139808 66.04296875 61.0234375 C63.05005539 64.16942756 60.31294883 66.72056121 56.48046875 68.7734375 C55.73667969 69.18078125 54.99289062 69.588125 54.2265625 70.0078125 C49.60391059 72.15788316 45.33339741 72.14787093 40.29296875 72.0859375 C39.59558594 72.08142578 38.89820313 72.07691406 38.1796875 72.07226562 C36.46741072 72.0605377 34.75517842 72.04260403 33.04296875 72.0234375 C33.78353516 73.41755859 33.78353516 73.41755859 34.5390625 74.83984375 C35.18673795 76.08826165 35.83384306 77.33697555 36.48046875 78.5859375 C36.80595703 79.19501953 37.13144531 79.80410156 37.46679688 80.43164062 C39.64668096 84.67904364 40.60816244 88.26506417 41.04296875 93.0234375 C18.69869026 93.91522689 -4.16166854 90.38850365 -21.421875 74.796875 C-23.31693921 72.91180234 -25.16205118 71.00357311 -26.95703125 69.0234375 C-27.08658203 70.69019531 -27.08658203 70.69019531 -27.21875 72.390625 C-28.26551784 84.09599112 -30.22718856 93.57575719 -39.26171875 101.8671875 C-40.95703125 103.0234375 -40.95703125 103.0234375 -43.58203125 103.2109375 C-46.38848155 101.80771235 -48.61213866 100.10034237 -50.95703125 98.0234375 C-51.199375 98.75949219 -51.44171875 99.49554688 -51.69140625 100.25390625 C-54.52894191 108.51550047 -57.15825627 113.54329017 -64.95703125 118.0234375 C-65.94703125 118.0234375 -66.93703125 118.0234375 -67.95703125 118.0234375 C-68.11558594 117.42015625 -68.27414063 116.816875 -68.4375 116.1953125 C-69.94895648 111.01794777 -71.12808469 107.92080543 -75.95703125 105.0234375 C-80.01777655 103.66985573 -83.71172077 103.20312574 -87.828125 104.70703125 C-92.28636846 107.01764775 -94.49430641 109.68904179 -96.95703125 114.0234375 C-103.90871421 111.0441448 -108.62055694 104.5696652 -111.39453125 97.7109375 C-116.42576416 83.70019474 -115.21184852 68.41983095 -108.95703125 55.0234375 C-102.89243775 43.97775107 -93.9288495 36.06085421 -81.95703125 32.0234375 C-79.23290867 31.44767658 -76.74659924 31.18133757 -73.95703125 31.0234375 C-73.57611328 29.70666016 -73.57611328 29.70666016 -73.1875 28.36328125 C-68.76499339 16.35933474 -58.23975061 6.56106638 -46.95703125 1.0234375 C-32.05438188 -5.7088083 -15.37770185 -4.17185695 0 0 Z " fill="#434356" transform="translate(310.95703125,19.9765625)"/>
<path d="M0 0 C4.66423095 2.57821811 8.95558171 5.32678451 13.25 8.5 C18.65515491 12.41978 24.16859485 16.12045188 29.8125 19.6875 C30.58754883 20.17968018 31.36259766 20.67186035 32.16113281 21.17895508 C36.92993797 24.17346465 41.7621001 27.01667095 46.66796875 29.78125 C47.80065186 30.43005127 48.93333496 31.07885254 50.1003418 31.74731445 C52.32434332 33.01655252 54.56123423 34.26353152 56.81176758 35.48510742 C65.34241355 40.3827414 65.34241355 40.3827414 67.03515625 45.63671875 C67.36312981 47.08972509 67.68546417 48.54402566 68 50 C69.38975053 52.77850392 69.38975053 52.77850392 70.9375 55.125 C71.9619471 56.7477242 72.98246207 58.37293446 74 60 C74.66257812 61.00675781 75.32515625 62.01351562 76.0078125 63.05078125 C78.8199136 68.03669069 79.77403938 73.50830315 80.9375 79.0625 C81.18983398 80.23409668 81.44216797 81.40569336 81.70214844 82.61279297 C86.34186906 104.64418906 91 127.4221901 91 150 C58.66 150 26.32 150 -7 150 C-7.04125 134.386875 -7.0825 118.77375 -7.125 102.6875 C-7.14320801 97.79639404 -7.16141602 92.90528809 -7.18017578 87.8659668 C-7.18920898 81.79455566 -7.18920898 81.79455566 -7.19088745 78.93318176 C-7.19391595 76.97650741 -7.20085876 75.01983627 -7.21115112 73.06318665 C-7.30035501 55.17744813 -5.81180834 38.00823226 -2.73046875 20.40234375 C-1.57311181 13.63520964 -0.78956197 6.81809987 0 0 Z " fill="#772249" transform="translate(337,345)"/>
<path d="M0 0 C4.00617394 0.66027682 7.49443813 1.90896818 11.25 3.4375 C20.3402844 6.9834283 29.71692635 10.23858992 39.24609375 6.48046875 C39.95306396 6.20485107 40.66003418 5.9292334 41.38842773 5.64526367 C41.92024658 5.43232666 42.45206543 5.21938965 43 5 C43.31773215 7.52026377 43.62915668 10.04108263 43.9375 12.5625 C44.02451172 13.24763672 44.11152344 13.93277344 44.20117188 14.63867188 C48.7192218 51.95441757 47.98644796 90.80115184 44.5625 128.1875 C44.50114868 128.85951447 44.43979736 129.53152893 44.37658691 130.22390747 C42.17127343 153.82872657 42.17127343 153.82872657 40 156 C28.74384082 155.13841745 19.41743933 148.0528935 11 141 C10.18789063 140.40832031 9.37578125 139.81664062 8.5390625 139.20703125 C5.54169187 136.60162447 3.48330884 133.69740392 1.375 130.375 C0.9934375 129.80910156 0.611875 129.24320313 0.21875 128.66015625 C-2.07144373 125.09851014 -3.21064367 122.16666743 -4.04296875 118.0078125 C-5.67748323 112.15931537 -9.24195523 110.21403384 -14.33984375 107.29614258 C-15.99693359 106.407052 -15.99693359 106.407052 -17.6875 105.5 C-19.97318328 104.20275108 -22.25834027 102.90457441 -24.54296875 101.60546875 C-25.65462402 100.98720215 -26.7662793 100.36893555 -27.91162109 99.73193359 C-31.84162568 97.5280243 -35.68568953 95.2098408 -39.5 92.8125 C-40.10996826 92.43174316 -40.71993652 92.05098633 -41.34838867 91.65869141 C-49.11038621 86.75193019 -56.5513687 81.365227 -64 76 C-62.70218899 72.47261623 -61.07801858 69.26078703 -59.2331543 65.98925781 C-52.83485399 54.58196826 -49.2361311 42.65511432 -46 30 C-41.33741228 33.03438248 -36.76231708 36.15939477 -32.27050781 39.44238281 C-23.50319892 45.83364572 -14.31551526 51.44831114 -5 57 C-5.0097435 56.32630371 -5.019487 55.65260742 -5.02952576 54.95849609 C-5.08263545 48.45970508 -4.78400994 42.09136098 -4.16015625 35.625 C-4.07374374 34.69324951 -3.98733124 33.76149902 -3.89830017 32.80151367 C-3.71662865 30.85523887 -3.53248998 28.90919286 -3.34594727 26.96337891 C-3.0605942 23.98007527 -2.78464045 20.99600423 -2.50976562 18.01171875 C-2.33128019 16.11192732 -2.15226309 14.21218574 -1.97265625 12.3125 C-1.8491555 10.97662842 -1.8491555 10.97662842 -1.72315979 9.61376953 C-1.60314857 8.37602783 -1.60314857 8.37602783 -1.48071289 7.11328125 C-1.41187393 6.38923096 -1.34303497 5.66518066 -1.27210999 4.91918945 C-1 3 -1 3 0 0 Z " fill="#D4DCEC" transform="translate(408,274)"/>
<path d="M0 0 C3.07134339 0.74369007 5.58510133 1.94503792 8.421875 3.3515625 C9.97717172 4.0143018 11.53611068 4.66852766 13.09765625 5.31640625 C33.59925783 13.97606124 33.59925783 13.97606124 41.421875 20.3515625 C42.25390625 22.58203125 42.25390625 22.58203125 42.421875 24.3515625 C41.98359375 24.72925781 41.5453125 25.10695313 41.09375 25.49609375 C36.26806349 29.68424037 31.54429941 33.9760904 26.84448242 38.30419922 C24.08908865 40.83716702 21.31545234 43.34104847 18.484375 45.7890625 C14.77081156 49.00800755 11.15697203 52.33018549 7.546875 55.6640625 C6.97461182 56.19249756 6.40234863 56.72093262 5.81274414 57.26538086 C3.6518889 59.26600525 1.50435794 61.26907956 -0.578125 63.3515625 C0.22625 64.1971875 1.030625 65.0428125 1.859375 65.9140625 C5.01581627 69.56810745 7.38056365 73.50763476 9.796875 77.6640625 C13.5279756 84.03537131 17.59745643 89.74412311 22.421875 95.3515625 C23.40790207 96.51011889 24.39355255 97.66899586 25.37890625 98.828125 C27.88555697 101.76883448 30.40496743 104.69820313 32.93066406 107.62255859 C35.43487606 110.52609974 37.92819977 113.43897185 40.421875 116.3515625 C38.73771484 117.09599609 38.73771484 117.09599609 37.01953125 117.85546875 C25.28462392 123.14102619 16.3550222 129.02718257 7.421875 138.3515625 C6.09090782 139.6872578 4.75810373 141.02113086 3.421875 142.3515625 C-10.28995452 134.49997547 -22.32108404 125.7257165 -33.82421875 114.89453125 C-35.6876455 113.17383506 -37.61493228 111.52023645 -39.59375 109.93359375 C-42.82000827 107.14228914 -45.31400096 104.22786106 -47.890625 100.8515625 C-48.3642749 100.23700195 -48.8379248 99.62244141 -49.32592773 98.98925781 C-76.43899798 63.52985577 -76.43899798 63.52985577 -75.328125 52.9765625 C-74.578125 51.3515625 -74.578125 51.3515625 -73.578125 50.3515625 C-71.95003906 50.33029297 -71.95003906 50.33029297 -70.2890625 50.30859375 C-59.61703542 50.08461757 -54.07569972 47.3396582 -46.6237793 39.73291016 C-45.44397955 38.49220419 -44.27266535 37.24335577 -43.11132812 35.98535156 C-41.27403147 34.02751888 -39.31658826 32.27007549 -37.265625 30.5390625 C-34.33409857 28.01451588 -31.44927891 25.44472268 -28.578125 22.8515625 C-21.01646562 16.03574206 -21.01646562 16.03574206 -17.828125 13.3359375 C-16.00482723 11.72789016 -14.29622535 10.08314558 -12.578125 8.3671875 C-4.59043062 0.62596781 -4.59043062 0.62596781 0 0 Z " fill="#DDE1EC" transform="translate(133.578125,290.6484375)"/>
<path d="M0 0 C3.81186075 1.58161122 6.24913788 4.01538101 9.1875 6.875 C17.92843182 15.13585849 27.89123254 22.28281327 38.4375 28.0625 C47.74567305 33.49491499 55.05084548 42.63208346 58 53 C58.51765844 56.40707222 58.92756901 59.79292529 59.2746582 63.21948242 C60.26980364 72.54436375 63.84468543 79.81672817 71 86 C73.53430019 87.5174989 76.06714567 88.79379451 78.765625 89.9921875 C81 91 81 91 84 93 C36.48 93 -11.04 93 -60 93 C-53.85936079 60.24992422 -37.09128684 32.24504261 -10.75 11.3125 C-7.07472561 8.22192835 -4.09881537 4.65369966 -1 1 C-0.67 0.67 -0.34 0.34 0 0 Z " fill="#D9558B" transform="translate(95,402)"/>
<path d="M0 0 C0.75023437 -0.01417969 1.50046875 -0.02835938 2.2734375 -0.04296875 C5.00273303 0.22452035 7.13204369 1.07315734 9.625 2.1875 C9.13708183 14.67820525 6.78667214 26.90097018 4.625 39.1875 C5.285 38.8575 5.945 38.5275 6.625 38.1875 C23.01773573 36.4029098 39.21574265 43.93342716 52.75 52.6875 C56.28496044 55.76137865 57.76813866 57.87958169 59.625 62.1875 C59.875 66.125 59.875 66.125 59.625 69.1875 C60.388125 69.27515625 61.15125 69.3628125 61.9375 69.453125 C67.0196927 70.4652566 71.75736005 72.18153439 76.625 73.9375 C77.59695313 74.27265625 78.56890625 74.6078125 79.5703125 74.953125 C85.95055992 77.24792789 91.2152051 79.52042081 95.0625 85.375 C96.21841288 91.15456439 95.54188502 96.38647586 92.875 101.625 C88.55453377 106.54553098 84.77771413 107.65438419 78.42871094 108.23413086 C72.60034801 108.13719449 67.3865592 105.5855933 62.04101562 103.4609375 C56.85256921 101.31781048 56.85256921 101.31781048 51.6015625 102.43359375 C50.94929688 103.01238281 50.29703125 103.59117187 49.625 104.1875 C37.68583146 108.71615013 22.54215481 101.35331897 11.35546875 97.04296875 C6.47918738 94.6175932 2.08666118 91.31066283 -2.375 88.1875 C-4.025 97.4275 -5.675 106.6675 -7.375 116.1875 C-21.96195652 114.86141304 -21.96195652 114.86141304 -26.6875 109.625 C-32.83314515 100.747957 -30.91811735 85.70812403 -31.26220703 75.25537109 C-31.37126997 72.2889537 -31.52615487 69.32745798 -31.68359375 66.36328125 C-32.16506183 54.64115186 -30.76386403 46.30856853 -25.26806641 35.953125 C-23.9061857 33.26063695 -22.90324367 30.45868824 -21.875 27.625 C-20.02126166 22.7406434 -18.02655627 17.9465984 -15.875 13.1875 C-15.46604492 12.25248657 -15.46604492 12.25248657 -15.04882812 11.29858398 C-13.11745847 7.11376038 -10.86354994 4.19030248 -7.375 1.1875 C-4.61989615 0.26913205 -2.85183812 0.02433309 0 0 Z " fill="#ECB9AF" transform="translate(397.375,177.8125)"/>
<path d="M0 0 C1.6316653 0.46026391 3.26351111 0.9198883 4.89552307 1.37892151 C9.28772403 2.61616714 13.67743699 3.86203197 18.06673813 5.10951996 C22.66520803 6.41484915 27.2659227 7.71221627 31.86645508 9.01025391 C39.42879958 11.14484874 46.98990812 13.28376861 54.55029297 15.42529297 C64.1603711 18.14687438 73.77427058 20.85468286 83.39028168 23.55521965 C87.36236185 24.67073304 91.33424277 25.78695553 95.30615234 26.90307617 C96.83713776 27.33328281 98.36812328 27.76348911 99.89910889 28.19369507 C100.64224083 28.40252193 101.38537277 28.6113488 102.15102386 28.82650375 C103.61331397 29.23738947 105.07561935 29.64822081 106.53794098 30.05899429 C126.9494824 35.79295381 147.32743969 41.6330488 167.6796875 47.57421875 C167.6796875 55.16421875 167.6796875 62.75421875 167.6796875 70.57421875 C156.42962666 68.32420658 156.42962666 68.32420658 152.6550293 67.24902344 C151.80261154 67.00827087 150.95019379 66.76751831 150.07194519 66.51947021 C149.18324234 66.26425598 148.29453949 66.00904175 147.37890625 65.74609375 C146.4218428 65.4746051 145.46477936 65.20311646 144.47871399 64.92340088 C141.44049559 64.06062506 138.40382981 63.19252343 135.3671875 62.32421875 C133.3744491 61.75746027 131.38161118 61.1910516 129.38867188 60.625 C121.74001896 58.45086246 114.09465549 56.26524677 106.44970703 54.078125 C92.36729349 50.04988425 78.27457884 46.05856223 64.1796875 42.07421875 C55.34556759 39.57698999 46.51207385 37.07757236 37.6796875 34.57421875 C36.6905838 34.29414978 35.7014801 34.01408081 34.68240356 33.7255249 C17.50816663 28.85918011 17.50816663 28.85918011 9.80078125 26.45703125 C8.83978516 26.16054687 7.87878906 25.8640625 6.88867188 25.55859375 C5.00227844 24.97366555 3.11954508 24.37683057 1.24023438 23.76953125 C-6.64232091 21.37212136 -15.49712451 19.72223484 -23.3828125 22.94921875 C-28.99569033 26.20065327 -33.6764607 31.10109679 -38.3203125 35.57421875 C-47.08541564 27.29691265 -52.16341356 17.1010537 -55.3203125 5.57421875 C-48.47967973 1.67103417 -41.67956333 -1.18001865 -34.1328125 -3.36328125 C-33.39756348 -3.58653076 -32.66231445 -3.80978027 -31.90478516 -4.03979492 C-20.99409215 -7.03324147 -10.50032917 -2.9985182 0 0 Z " fill="#DEE6ED" transform="translate(74.3203125,124.42578125)"/>
<path d="M0 0 C10.60693521 3.23053864 19.48028134 10.18468717 28.078125 16.9375 C29.57488521 18.06680681 31.07446416 19.19239774 32.578125 20.3125 C35.078125 22.1875 37.578125 24.0625 40.078125 25.9375 C38.16352461 27.71061263 36.24655007 29.48103362 34.328125 31.25 C33.78929687 31.74951172 33.25046875 32.24902344 32.6953125 32.76367188 C32.16679687 33.25029297 31.63828125 33.73691406 31.09375 34.23828125 C30.61196289 34.68341064 30.13017578 35.12854004 29.63378906 35.5871582 C28.078125 36.9375 28.078125 36.9375 25.88647461 38.33276367 C23.87940663 39.76449187 23.87940663 39.76449187 23.79418945 41.9609375 C24.80851089 49.08708198 26.41252983 55.98406577 28.265625 62.9375 C28.57588623 64.11924805 28.88614746 65.30099609 29.20581055 66.51855469 C31.43731065 74.88056831 33.94975964 83.1011891 36.81640625 91.265625 C40.77278148 102.77953434 41.24803782 113.10595089 41.203125 125.1875 C41.20190643 125.89460114 41.20068787 126.60170227 41.19943237 127.33023071 C41.13705624 158.16541481 41.13705624 158.16541481 39.078125 166.9375 C36.4009968 164.2603718 35.69627238 161.37343383 34.46875 157.8359375 C29.87026347 148.25145153 21.54707482 141.26934731 14.04101562 133.97851562 C7.91651285 127.9602949 2.38112502 121.6888069 -2.921875 114.9375 C-3.61470581 114.07161255 -3.61470581 114.07161255 -4.3215332 113.18823242 C-9.39199043 106.81378706 -13.770359 100.14733136 -17.828125 93.10058594 C-19.93871951 89.454122 -22.20330392 86.15702126 -24.921875 82.9375 C-23.46354167 81.625 -22.00520833 80.3125 -20.546875 79 C-19.6290625 78.17371094 -18.71125 77.34742188 -17.765625 76.49609375 C-15.99584423 74.90377726 -14.22517137 73.31245102 -12.453125 71.72265625 C-8.39998834 68.08404493 -4.36209549 64.43046537 -0.35302734 60.7434082 C3.60703526 57.10206416 7.5675291 53.46068147 11.578125 49.875 C12.1659375 49.34777344 12.75375 48.82054687 13.359375 48.27734375 C15.17392828 46.86281699 16.99092364 45.89413396 19.078125 44.9375 C17.60317911 40.42111396 14.08044685 38.82292783 10.140625 36.6875 C9.44203369 36.30126465 8.74344238 35.9150293 8.02368164 35.51708984 C0.32446667 31.36464713 -7.71181934 28.04673118 -15.82080078 24.79003906 C-18.87444362 23.5509825 -21.89774246 22.2467526 -24.921875 20.9375 C-22.08022325 17.03022885 -18.87130814 14.01519362 -15.203125 10.921875 C-13.55145294 9.48514656 -11.95295905 7.98652694 -10.390625 6.453125 C-9.5346875 5.62296875 -8.67875 4.7928125 -7.796875 3.9375 C-7.01054687 3.15375 -6.22421875 2.37 -5.4140625 1.5625 C-2.921875 -0.0625 -2.921875 -0.0625 0 0 Z " fill="#B43A6B" transform="translate(156.921875,270.0625)"/>
<path d="M0 0 C1.42504265 1.77682517 2.58002815 3.54042741 3.7109375 5.51708984 C9.50334663 15.43576229 15.54314021 24.35887067 23.3984375 32.74365234 C23.92808105 33.31567383 24.45772461 33.88769531 25.00341797 34.47705078 C38.31204808 48.72214217 53.15590579 58.78204687 70.3984375 67.74365234 C71.11531738 68.11893066 71.83219727 68.49420898 72.57080078 68.88085938 C73.26802246 69.23905762 73.96524414 69.59725586 74.68359375 69.96630859 C75.6118396 70.4440271 75.6118396 70.4440271 76.55883789 70.93139648 C81.34489657 73.04463036 86.39933594 73.68476928 91.46484375 72.09521484 C105.40666362 66.2591042 116.19759033 56.9217897 125.453125 45.16162109 C127.01902244 43.2152546 128.58796979 41.45733404 130.3984375 39.74365234 C130.46058719 44.41178456 130.44066306 49.07538217 130.3984375 53.74365234 C130.41777344 54.85095703 130.43710937 55.95826172 130.45703125 57.09912109 C130.31624004 64.50473873 130.31624004 64.50473873 127.90234375 67.76318359 C125.83359436 69.60715941 123.6710587 71.15924588 121.3984375 72.74365234 C120.67527344 73.37658203 119.95210937 74.00951172 119.20703125 74.66162109 C110.53796979 82.24521631 98.15782835 89.85934615 86.3984375 90.74365234 C85.23183594 90.83517578 84.06523437 90.92669922 82.86328125 91.02099609 C72.5390517 91.55132847 63.98085121 89.40520628 54.3984375 85.74365234 C53.39973633 85.37409424 53.39973633 85.37409424 52.38085938 84.99707031 C35.51985107 78.70461991 18.92679333 70.40326753 4.3984375 59.74365234 C3.8734668 59.35854492 3.34849609 58.9734375 2.80761719 58.57666016 C-3.99688736 53.55001678 -10.42289648 48.27631176 -16.578125 42.45849609 C-18.58426311 40.54268923 -18.58426311 40.54268923 -21.6015625 39.74365234 C-22.41699219 37.78173828 -22.41699219 37.78173828 -23.0234375 35.22802734 C-23.24386719 34.30634766 -23.46429688 33.38466797 -23.69140625 32.43505859 C-23.90925781 31.46439453 -24.12710938 30.49373047 -24.3515625 29.49365234 C-24.58488281 28.53845703 -24.81820312 27.58326172 -25.05859375 26.59912109 C-26.98636594 18.29931147 -26.98636594 18.29931147 -25.6015625 13.74365234 C-23.70526967 11.69531183 -21.8901021 9.92450456 -19.7890625 8.11865234 C-19.25474609 7.64169922 -18.72042969 7.16474609 -18.16992188 6.67333984 C-5.6393803 -4.42381875 -5.6393803 -4.42381875 0 0 Z " fill="#C6AB99" transform="translate(206.6015625,295.25634765625)"/>
<path d="M0 0 C3.67289183 1.98871636 7.33810645 3.99110535 11 6 C12.58554687 6.86939209 12.58554687 6.86939209 14.203125 7.75634766 C17.48683437 9.57815199 20.74422492 11.44129831 24 13.3125 C25.11761719 13.92544922 26.23523438 14.53839844 27.38671875 15.16992188 C36.37529681 20.39067017 36.37529681 20.39067017 38.06640625 25.66015625 C38.38537279 27.10507778 38.69747185 28.55154751 39 30 C40.38975053 32.77850392 40.38975053 32.77850392 41.9375 35.125 C42.9619471 36.7477242 43.98246207 38.37293446 45 40 C45.66257812 41.00675781 46.32515625 42.01351562 47.0078125 43.05078125 C49.8199136 48.03669069 50.77403938 53.50830315 51.9375 59.0625 C52.18983398 60.23409668 52.44216797 61.40569336 52.70214844 62.61279297 C62.30676536 108.21965963 62.30676536 108.21965963 62 130 C57.9799737 130.09941096 53.96043037 130.17172063 49.93945312 130.21972656 C48.57376632 130.23975319 47.20816431 130.26698332 45.84277344 130.30175781 C43.87212898 130.35066432 41.90084017 130.37091347 39.9296875 130.390625 C38.74616699 130.41157227 37.56264648 130.43251953 36.34326172 130.45410156 C30.96783827 129.72397979 27.94132755 127.22118168 24.6875 123 C21.96562339 118.16110824 21.81467804 113.78590675 21.578125 108.3125 C21.121615 99.4582518 20.04805836 90.76556217 18.75 82 C18.64051025 81.24775146 18.53102051 80.49550293 18.41821289 79.72045898 C14.83830998 55.19877024 10.01377568 31.05337097 1.87915039 7.60766602 C0 2.1840215 0 2.1840215 0 0 Z " fill="#CB4B7F" transform="translate(366,365)"/>
<path d="M0 0 C0.49077652 17.54071636 -0.77990003 32.8342486 -13.31640625 46.4453125 C-16.58946288 49.46776387 -20.1336529 51.80421858 -24 54 C-24.71542969 54.41636719 -25.43085938 54.83273437 -26.16796875 55.26171875 C-36.00598592 60.08759636 -48.6659514 59.2625476 -59 56.4375 C-67.68277908 53.30600591 -75.07959348 48.58874847 -79.85546875 40.5234375 C-82.01739102 35.7568785 -83.37419358 31.26749425 -83 26 C-81.24255131 22.64487068 -78.82533937 20.47553545 -76 18 C-74.91476754 16.81423532 -73.83139202 15.62676812 -72.75 14.4375 C-55.71400382 -2.25625519 -22.09629415 -12.10163787 0 0 Z " fill="#DEE3EC" transform="translate(235,211)"/>
<path d="M0 0 C1.34111343 0.00539291 1.34111343 0.00539291 2.70932007 0.01089478 C3.64580887 0.01074875 4.58229767 0.01060272 5.54716492 0.01045227 C8.65845007 0.01115179 11.76967617 0.01894602 14.88095093 0.02676392 C17.0318651 0.02862796 19.18277971 0.03005192 21.33369446 0.03105164 C27.00711225 0.03487792 32.68050463 0.04470914 38.35391235 0.05575562 C44.13831234 0.06596736 49.92271641 0.07054875 55.7071228 0.07559204 C67.06585975 0.08633132 78.42457113 0.103929 89.78329468 0.12442017 C89.78329468 11.34442017 89.78329468 22.56442017 89.78329468 34.12442017 C57.77329468 34.12442017 25.76329468 34.12442017 -7.21670532 34.12442017 C-7.21670532 0.01226071 -7.21670532 0.01226071 0 0 Z " fill="#484758" transform="translate(202.21670532226563,460.8755798339844)"/>
<path d="M0 0 C14.79703342 2.95261905 32.21037527 10.39135297 44 20 C44.83203125 22.23046875 44.83203125 22.23046875 45 24 C44.56171875 24.37769531 44.1234375 24.75539063 43.671875 25.14453125 C38.84618849 29.33267787 34.12242441 33.6245279 29.42260742 37.95263672 C26.06464949 41.03952739 22.65952059 44.05901907 19.20703125 47.0390625 C17.36484988 48.67583249 15.55906186 50.33807356 13.76171875 52.0234375 C13.18349365 52.56427979 12.60526855 53.10512207 12.00952148 53.66235352 C10.85813042 54.74217205 9.71034784 55.82585439 8.56665039 56.91381836 C2.82545646 62.29363589 2.82545646 62.29363589 0 63 C-2.375 62.0234375 -2.375 62.0234375 -5 60.375 C-19.79469617 51.85154644 -36.33305287 50.80685242 -53 49 C-49.8611903 44.19369765 -46.62689037 40.56891357 -42.23828125 36.8828125 C-39.77334094 34.8093374 -37.38665779 32.66302319 -35 30.5 C-31.37976277 27.23295665 -27.73016435 24.00479224 -24.05078125 20.8046875 C-21.73911203 18.77041859 -19.4646857 16.6977769 -17.1875 14.625 C-12.63263693 10.50864859 -7.92738012 6.60753289 -3.15234375 2.75 C-1.14403815 1.17822462 -1.14403815 1.17822462 0 0 Z " fill="#ECB6AD" transform="translate(131,291)"/>
<path d="M0 0 C0.75023437 -0.01417969 1.50046875 -0.02835938 2.2734375 -0.04296875 C5.00273303 0.22452035 7.13204369 1.07315734 9.625 2.1875 C9.28090112 10.84158687 8.19285141 19.42809977 7 28 C6.87206055 29.07306396 6.74412109 30.14612793 6.61230469 31.25170898 C5.61581931 38.00315968 3.99194536 41.5048559 -0.76782227 46.35351562 C-5.93613513 52.25118633 -4.64300239 61.69123063 -4.5625 69 C-4.56185547 70.13115234 -4.56121094 71.26230469 -4.56054688 72.42773438 C-4.61878928 78.404424 -4.61878928 78.404424 -3.375 84.1875 C-3.02932675 91.43943665 -4.04590628 98.13306233 -5.375 105.25 C-5.56578125 106.30638672 -5.7565625 107.36277344 -5.953125 108.45117188 C-6.42011728 111.0313042 -6.89419968 113.60991158 -7.375 116.1875 C-9.13717522 116.05271553 -10.89879809 115.91069658 -12.66015625 115.765625 C-14.13174194 115.64815918 -14.13174194 115.64815918 -15.63305664 115.52832031 C-20.55166656 114.91694292 -23.40131131 113.26645233 -26.6875 109.625 C-32.83314515 100.747957 -30.91811735 85.70812403 -31.26220703 75.25537109 C-31.37126997 72.2889537 -31.52615487 69.32745798 -31.68359375 66.36328125 C-32.16506183 54.64115186 -30.76386403 46.30856853 -25.26806641 35.953125 C-23.9061857 33.26063695 -22.90324367 30.45868824 -21.875 27.625 C-20.02126166 22.7406434 -18.02655627 17.9465984 -15.875 13.1875 C-15.46604492 12.25248657 -15.46604492 12.25248657 -15.04882812 11.29858398 C-13.11745847 7.11376038 -10.86354994 4.19030248 -7.375 1.1875 C-4.61989615 0.26913205 -2.85183812 0.02433309 0 0 Z " fill="#EAA147" transform="translate(397.375,177.8125)"/>
<path d="M0 0 C7.2546458 0.80607176 12.41355588 7.07710503 16.8828125 12.24609375 C22.62572416 19.71611722 24.34218147 27.00646041 25.27441406 36.21923828 C26.27058151 45.54434834 29.84422277 52.81632836 37 59 C39.53430019 60.5174989 42.06714567 61.79379451 44.765625 62.9921875 C47 64 47 64 50 66 C21.29 66 -7.42 66 -37 66 C-34 64 -34 64 -31.0625 62.5625 C-26.5653355 58.79956644 -25.66637537 54.50368599 -24 49 C-18.97329377 32.82314542 -12.2698433 12.2698433 0 0 Z " fill="#772249" transform="translate(129,429)"/>
<path d="M0 0 C5.83126455 3.79494995 11.553917 7.72669705 17.08782959 11.94569397 C20.49075025 14.46574003 23.70540277 16.38477234 27.65405273 17.93408203 C32.85839234 20.13574364 37.51683634 22.41952505 41 27 C43.87491196 35.97845212 42.35627488 45.95486256 41.625 55.1875 C41.48636876 57.78667381 41.35607466 60.38630653 41.234375 62.98632812 C40.91918045 69.33271166 40.5003579 75.6656686 40 82 C38.11423266 81.0686775 36.22981408 80.13462377 34.34594727 79.19946289 C32.77164696 78.41968834 32.77164696 78.41968834 31.1655426 77.62416077 C26.28369501 75.11940682 21.61019534 72.30926493 16.9375 69.4375 C15.95740967 68.83832764 14.97731934 68.23915527 13.9675293 67.62182617 C3.02239648 60.87119292 -7.7364917 53.75543882 -18 46 C-16.70218899 42.47261623 -15.07801858 39.26078703 -13.2331543 35.98925781 C-6.83485399 24.58196826 -3.2361311 12.65511432 0 0 Z " fill="#EBB3AA" transform="translate(362,304)"/>
<path d="M0 0 C1.33895632 1.66215268 2.67130142 3.32963607 4 5 C4.53753906 5.55945313 5.07507813 6.11890625 5.62890625 6.6953125 C7.24108173 9.4052371 7.21491555 11.42726997 7.16015625 14.53295898 C7.05079879 21.04048704 7.44499772 25.43330199 12 30.4375 C13.64369056 31.98313681 15.31031939 33.50477719 17 35 C18.3987088 36.49731907 19.79456769 37.99730567 21.1875 39.5 C28.71796249 46.92495688 40.09939916 57.04760108 51.0078125 58.21484375 C60.3537228 57.79336152 67.46845684 49.87619188 73.73828125 43.7578125 C76 42 76 42 80 42 C79.02758012 50.16523991 72.3964254 59.59095179 66 64.6875 C59.15311647 69.08520187 51.10076085 71.6678037 43 70 C29.13209438 64.9523238 16.58572511 55.85610907 6.0234375 45.75 C4.02435095 43.79622811 4.02435095 43.79622811 1 43 C0.62875 44.258125 0.2575 45.51625 -0.125 46.8125 C-4.44872899 59.64291441 -13.30429913 73.67919476 -25 81 C-27.52904689 80.74280348 -28.65762413 80.38743019 -30.35620117 78.46533203 C-30.94365112 77.49635986 -30.94365112 77.49635986 -31.54296875 76.5078125 C-31.97673828 75.80269531 -32.41050781 75.09757812 -32.85742188 74.37109375 C-33.29634766 73.62988281 -33.73527344 72.88867188 -34.1875 72.125 C-34.86329102 71.02478516 -34.86329102 71.02478516 -35.55273438 69.90234375 C-37.35684681 66.93245551 -38.89646891 64.31059327 -40 61 C-39.16597656 60.33355469 -38.33195313 59.66710937 -37.47265625 58.98046875 C-18.55277989 43.60313334 -6.33303483 23.49647704 0 0 Z " fill="#78234A" transform="translate(246,233)"/>
<path d="M0 0 C3.77126626 0.97750436 7.54193664 1.95728811 11.3125 2.9375 C12.38435547 3.21529297 13.45621094 3.49308594 14.56054688 3.77929688 C15.58857422 4.04677734 16.61660156 4.31425781 17.67578125 4.58984375 C19.0975769 4.95903931 19.0975769 4.95903931 20.5480957 5.33569336 C22.38206843 5.83258072 24.19741361 6.39913787 26 7 C25.40841661 11.12610696 23.93713752 13.93667972 21.9375 17.5625 C16.84168983 28.88517127 18.50775185 41.86040328 19 54 C10.37710724 51.8885119 1.79411612 49.66110556 -6.75 47.25 C-7.91660156 46.940625 -9.08320313 46.63125 -10.28515625 46.3125 C-17.81614596 44.16322547 -22.49551985 41.50448015 -28 36 C-31.34392667 34.06404246 -34.09577725 33.94351442 -37.875 33.75 C-42.58901977 33.33612029 -45.15855315 32.11346461 -48.53125 28.8203125 C-53.70516231 22.40796374 -55.13180535 16.04012619 -55 8 C-47.08817679 9.43861557 -39.37622563 11.43376589 -31.625 13.5625 C-29.32558387 14.18903347 -27.0261073 14.81534521 -24.7265625 15.44140625 C-23.72189941 15.71670166 -22.71723633 15.99199707 -21.68212891 16.27563477 C-19.4599874 16.87577074 -17.23544088 17.45194142 -15 18 C-14.41992188 17.28714844 -13.83984375 16.57429688 -13.2421875 15.83984375 C-12.46101563 14.88207031 -11.67984375 13.92429688 -10.875 12.9375 C-9.72644531 11.52791016 -9.72644531 11.52791016 -8.5546875 10.08984375 C-5.7562127 6.68109915 -2.88103081 3.33901238 0 0 Z " fill="#9EB6EA" transform="translate(348,202)"/>
<path d="M0 0 C2.78437395 0.87927598 5.52190728 1.79316556 8.203125 2.953125 C27.51326786 11.30008998 47.06564515 9.07112626 66.1875 1.625 C67.02667969 1.26664062 67.86585938 0.90828125 68.73046875 0.5390625 C71 0 71 0 72.93359375 0.48046875 C76.07735059 2.79222945 78.39879449 5.69048048 80.875 8.6875 C81.37902344 9.28755859 81.88304687 9.88761719 82.40234375 10.50585938 C83.4187442 11.7159218 84.43275426 12.92799617 85.44433594 14.14208984 C87.93595053 17.11779403 90.4675702 20.05902289 93 23 C91.87722656 23.49628906 90.75445312 23.99257813 89.59765625 24.50390625 C77.86274892 29.78946369 68.9331472 35.67562007 60 45 C58.66903282 46.3356953 57.33622873 47.66956836 56 49 C42.28817048 41.14841297 30.25704096 32.374154 18.75390625 21.54296875 C16.01666646 18.9539798 16.01666646 18.9539798 12.98828125 16.59765625 C9.70028015 13.73945921 7.2125611 10.72874529 4.625 7.25 C4.17511719 6.66089844 3.72523437 6.07179688 3.26171875 5.46484375 C0 1.15223689 0 1.15223689 0 0 Z " fill="#9EB6EB" transform="translate(81,384)"/>
<path d="M0 0 C3.55000094 1.33998247 6.77051321 2.93065536 10.0625 4.8125 C23.96070802 12.45092532 37.05802671 16.69424722 53 16 C53.556875 17.0725 54.11375 18.145 54.6875 19.25 C56.22847918 22.01161144 57.10213318 23.07427867 59.75 25 C62 27 62 27 62.5625 30.25 C61.4054036 37.96397599 57.29560657 44.71104063 51.06640625 49.48046875 C45.19086127 53.21945192 39.86590464 54.18645944 33 53 C21.15564335 49.07588184 12.07654872 39.94042613 5 30 C3.81474702 27.62949403 3.79301167 25.89018332 3.625 23.25 C3.33422658 19.90372233 3.06489172 18.11940076 1.4375 15.125 C-0.80887784 10.24156991 -0.23124643 5.29297396 0 0 Z " fill="#EBB7AF" transform="translate(243,207)"/>
<path d="M0 0 C3.22025626 2.59257919 3.85263088 5.25635502 4.875 9.1875 C6.51532506 15.29913583 8.32922355 21.3159883 10.33740234 27.31713867 C13.42195359 36.86496948 13.16192457 46.31729164 13.125 56.25 C13.12378143 56.95710114 13.12256287 57.66420227 13.12130737 58.39273071 C13.05893124 89.22791481 13.05893124 89.22791481 11 98 C8.3228718 95.3228718 7.61814738 92.43593383 6.390625 88.8984375 C1.95553446 79.65451283 -5.93052517 72.91640259 -13.20654297 65.90991211 C-14.61804789 64.54679211 -16.02009148 63.17389642 -17.421875 61.80078125 C-18.25299805 60.99809814 -19.08412109 60.19541504 -19.94042969 59.3684082 C-22.04422745 56.94914052 -23.13640303 55.07658448 -24 52 C-22.98046875 50.140625 -22.98046875 50.140625 -21.1875 48.25 C-10.26516262 35.28509952 -2.33571976 16.75274866 0 0 Z " fill="#78244A" transform="translate(185,339)"/>
<path d="M0 0 C10.60693521 3.23053864 19.48028134 10.18468717 28.078125 16.9375 C29.57488521 18.06680681 31.07446416 19.19239774 32.578125 20.3125 C35.078125 22.1875 37.578125 24.0625 40.078125 25.9375 C33.48047823 32.01833111 26.87588123 38.0794336 20.078125 43.9375 C19.37945312 43.35484375 18.68078125 42.7721875 17.9609375 42.171875 C7.84422156 34.33073473 -4.01384833 29.55498887 -15.78857422 24.80615234 C-18.85170845 23.55888391 -21.88663001 22.25102147 -24.921875 20.9375 C-22.08022325 17.03022885 -18.87130814 14.01519362 -15.203125 10.921875 C-13.55145294 9.48514656 -11.95295905 7.98652694 -10.390625 6.453125 C-9.5346875 5.62296875 -8.67875 4.7928125 -7.796875 3.9375 C-7.01054687 3.15375 -6.22421875 2.37 -5.4140625 1.5625 C-2.921875 -0.0625 -2.921875 -0.0625 0 0 Z " fill="#D57370" transform="translate(156.921875,270.0625)"/>
<path d="M0 0 C4.00617394 0.66027682 7.49443813 1.90896818 11.25 3.4375 C20.3402844 6.9834283 29.71692635 10.23858992 39.24609375 6.48046875 C39.95306396 6.20485107 40.66003418 5.9292334 41.38842773 5.64526367 C41.92024658 5.43232666 42.45206543 5.21938965 43 5 C44.90889447 18.64025561 45.57255778 32.24018306 46 46 C41.03203808 45.44205966 37.02513187 43.82470853 32.625 41.5625 C31.93599609 41.21268066 31.24699219 40.86286133 30.53710938 40.50244141 C19.78168072 34.93214347 9.54976629 28.44881771 0 21 C-0.66 20.67 -1.32 20.34 -2 20 C-1.85919445 17.22882696 -1.71256882 14.45817359 -1.5625 11.6875 C-1.52318359 10.90181641 -1.48386719 10.11613281 -1.44335938 9.30664062 C-1.40146484 8.54931641 -1.35957031 7.79199219 -1.31640625 7.01171875 C-1.27974854 6.31522217 -1.24309082 5.61872559 -1.20532227 4.90112305 C-1 3 -1 3 0 0 Z " fill="#9FB7EB" transform="translate(408,274)"/>
<path d="M0 0 C12.54 0 25.08 0 38 0 C38 11.22 38 22.44 38 34 C25.46 34 12.92 34 0 34 C0 22.78 0 11.56 0 0 Z " fill="#E89D46" transform="translate(292,461)"/>
<path d="M0 0 C2.00643023 2.00643023 2.52255591 3.1303428 3.5625 5.6875 C10.37698826 19.31647651 31.48252345 26.19164049 45 31 C46.66963872 31.65918796 48.33733863 32.32340605 50 33 C50.06058594 33.72445312 50.12117188 34.44890625 50.18359375 35.1953125 C50.61483433 40.17116533 51.07047641 45.08680391 52 50 C37.57364896 50.96712968 24.64294911 46.72497293 12 40 C10.99727051 39.61593994 9.99454102 39.23187988 8.96142578 38.83618164 C5.34027683 37.22010299 2.80888637 35.81546263 0 33 C-1.50589736 27.29358187 -1.14262761 21.90437907 -0.75 16.0625 C-0.68974438 14.50476271 -0.63500216 12.9468018 -0.5859375 11.38867188 C-0.45425492 7.58689253 -0.24770457 3.7959137 0 0 Z " fill="#D57470" transform="translate(243,174)"/>
<path d="M0 0 C6.39012388 0.60435108 12.05047702 2.56234749 18.0625 4.75 C19.02994141 5.08515625 19.99738281 5.4203125 20.99414062 5.765625 C27.34831004 8.06199834 32.60483095 10.35517753 36.4375 16.1875 C37.59341288 21.96706439 36.91688502 27.19897586 34.25 32.4375 C29.91531951 37.37421945 26.15413506 38.44564702 19.79003906 39.02026367 C14.99437562 38.98543342 10.87907693 37.43667478 6.4375 35.75 C5.53708984 35.43675781 4.63667969 35.12351562 3.70898438 34.80078125 C-1.14409764 33.03535821 -1.14409764 33.03535821 -3 32 C-4 29 -4 29 -3.10205078 27.17871094 C-2.55653564 26.10024902 -2.55653564 26.10024902 -2 25 C-1.54557907 22.19904391 -1.54557907 22.19904391 -1.3671875 19.140625 C-1.28339844 18.02558594 -1.19960938 16.91054688 -1.11328125 15.76171875 C-1.03464844 14.60285156 -0.95601563 13.44398438 -0.875 12.25 C-0.78863281 11.07566406 -0.70226562 9.90132813 -0.61328125 8.69140625 C-0.40132918 5.79472797 -0.19719673 2.89771402 0 0 Z " fill="#3A3A4D" transform="translate(456,247)"/>
<path d="M0 0 C4.23242604 4.23242604 4.17014924 10.61846957 4.3125 16.3125 C3.97000965 29.82530111 -0.51053692 36.89104189 -10 46 C-10.74765625 46.74378906 -11.4953125 47.48757813 -12.265625 48.25390625 C-21.58348653 57.0713641 -35.47364921 66.99904832 -48.6875 67.5625 C-55.92719898 67.20103143 -61.81495678 64.02301062 -67 59 C-67 58.01 -67 57.02 -67 56 C-66.33057373 56.03665771 -65.66114746 56.07331543 -64.97143555 56.11108398 C-48.7602177 57.4985894 -48.7602177 57.4985894 -34.4296875 51.36328125 C-33.22699219 50.19345703 -33.22699219 50.19345703 -32 49 C-30.94105471 48.05492343 -29.88109078 47.11098745 -28.8203125 46.16796875 C-16.14382691 34.52228594 -8.30047715 20.85858737 -2 5 C-1.608125 4.02289063 -1.21625 3.04578125 -0.8125 2.0390625 C-0.544375 1.36617188 -0.27625 0.69328125 0 0 Z " fill="#79234A" transform="translate(350,272)"/>
<path d="M0 0 C1.4540625 1.2684375 1.4540625 1.2684375 2.9375 2.5625 C4.29023178 3.71002696 5.64449878 4.85574573 7 6 C7.66386719 6.57621094 8.32773437 7.15242188 9.01171875 7.74609375 C19.36095251 16.33538387 31.17772468 19.88430693 44 23 C44 28.28 44 33.56 44 39 C29.53527668 36.77465795 18.56582401 31.23830326 6 24 C5.75765625 24.72058594 5.5153125 25.44117187 5.265625 26.18359375 C2.19588319 33.01471674 -4.27908209 39.63954105 -11 43 C-13.625 43.5 -13.625 43.5 -16 43 C-18.3125 41 -18.3125 41 -20 39 C-23.43595166 40.52708963 -26.11912454 42.59927045 -29 45 C-29.66 44.67 -30.32 44.34 -31 44 C-30.13375 43.071875 -30.13375 43.071875 -29.25 42.125 C-26.30761693 38.03835685 -24.71808732 33.70646259 -23 29 C-21.60026042 30.33463542 -20.20052083 31.66927083 -18.80078125 33.00390625 C-16.98039092 34.21706633 -16.98039092 34.21706633 -14.51953125 33.87890625 C-11.56932873 32.84976584 -10.38114638 31.74756581 -8.375 29.375 C-7.52035156 28.39660156 -7.52035156 28.39660156 -6.6484375 27.3984375 C-2.49331945 21.35283921 -1.44149404 15.72379917 -0.8125 8.5625 C-0.73064453 7.73556641 -0.64878906 6.90863281 -0.56445312 6.05664062 C-0.36616145 4.03873118 -0.18164598 2.01947588 0 0 Z " fill="#D37270" transform="translate(283,88)"/>
<path d="M0 0 C9.7791754 2.36005774 19.41961588 4.91590374 29 8 C24.2318928 14.52576241 19.1505761 20.77352578 14 27 C0.5258297 23.80979203 -12.72942071 19.94261198 -26 16 C-26 15.34 -26 14.68 -26 14 C-25.13117188 14.11859375 -24.26234375 14.2371875 -23.3671875 14.359375 C-16.38195437 15.20549896 -16.38195437 15.20549896 -9.625 13.75 C-5.68920829 9.62678964 -2.86141819 4.91012589 0 0 Z " fill="#E8ECEC" transform="translate(319,194)"/>
<path d="M0 0 C1.32451032 0.87797837 2.63427808 1.77822214 3.9375 2.6875 C4.66839844 3.18636719 5.39929688 3.68523437 6.15234375 4.19921875 C8.51427317 6.50122607 8.82442401 7.72099976 9 11 C6.12064566 25.80810802 -0.27011026 39.20636115 -8 52 C-12.24063852 52 -13.10254985 51.85982093 -16 49 C-17.61465137 44.58095415 -16.8825417 40.0730969 -15.06542969 35.8046875 C-13.01183784 31.63907525 -10.75105858 27.59534097 -8.484375 23.54296875 C-4.31802449 16.07646245 -1.88041535 8.30516778 0 0 Z " fill="#D47371" transform="translate(353,296)"/>
<path d="M0 0 C1.17369141 0.28617188 1.17369141 0.28617188 2.37109375 0.578125 C3.15613281 0.75859375 3.94117188 0.9390625 4.75 1.125 C6.80859375 1.828125 6.80859375 1.828125 8.80859375 3.828125 C8.25303819 8.38368056 8.25303819 8.38368056 6.80859375 9.828125 C-0.2209741 10.28908027 -0.2209741 10.28908027 -3.69140625 8.640625 C-5.19140625 6.828125 -5.19140625 6.828125 -5.62890625 4.265625 C-5.48453125 3.46125 -5.34015625 2.656875 -5.19140625 1.828125 C-2.19140625 -0.171875 -2.19140625 -0.171875 0 0 Z " fill="#D57572" transform="translate(286.19140625,137.171875)"/>
<path d="M0 0 C2 2 2 2 2.25 4.5 C2 7 2 7 0 9 C-2.34765625 9.44921875 -2.34765625 9.44921875 -5.0625 9.6875 C-5.96097656 9.77386719 -6.85945313 9.86023438 -7.78515625 9.94921875 C-8.88150391 9.97435547 -8.88150391 9.97435547 -10 10 C-11 9 -11 9 -11.0625 5.9375 C-11.041875 4.968125 -11.02125 3.99875 -11 3 C-7.20148423 0.87989818 -4.39867782 -0.61092748 0 0 Z " fill="#D57572" transform="translate(319,137)"/>
</svg>
