<?xml version="1.0" encoding="UTF-8"?>
<svg version="1.1" xmlns="http://www.w3.org/2000/svg" width="512" height="512">
<path d="M0 0 C1.75570312 -0.04253906 1.75570312 -0.04253906 3.546875 -0.0859375 C11.10102812 0.85434738 16.37506733 4.9433828 21.875 9.9375 C26.53653105 14.05483934 31.25971163 18.01776109 36.1875 21.8125 C41.91092581 26.24023825 47.39463326 30.89731727 52.83764648 35.6640625 C56.59087604 38.94819989 60.38198346 42.16411444 64.25 45.3125 C65.54550781 46.37984375 65.54550781 46.37984375 66.8671875 47.46875 C68.3573457 48.66087656 69.8801151 49.81451089 71.4453125 50.90625 C73.36505273 52.30525098 74.85040943 53.45283503 76.25 55.375 C76.578125 57.68359375 76.578125 57.68359375 76.625 60.25 C76.6949364 63.800617 76.96145962 65.03294448 79.29296875 67.796875 C81.54761203 69.76837703 83.82373058 71.62024353 86.25 73.375 C86.95125 73.024375 87.6525 72.67375 88.375 72.3125 C91.93120147 71.15286908 93.67388134 71.28444285 97.25 72.375 C99.4853009 73.98189153 101.42122937 75.53373575 103.4375 77.375 C104.58649019 78.38626876 105.73624122 79.39667365 106.88671875 80.40625 C107.45438965 80.91027344 108.02206055 81.41429688 108.60693359 81.93359375 C110.93707605 83.97774844 113.33942153 85.9267726 115.75 87.875 C119.73386622 91.11513432 123.65742281 94.41616911 127.5625 97.75 C132.04304763 101.56913346 136.60308258 105.26044449 141.25 108.875 C146.00672438 112.58797074 150.72961087 116.33574227 155.375 120.1875 C155.90738281 120.61933594 156.43976563 121.05117187 156.98828125 121.49609375 C162.54113926 126.14964571 165.95987517 131.22067141 167.25 138.375 C167.45267734 145.89658126 166.1480717 151.58158186 161.25 157.375 C157.10237967 161.74561067 152.79395626 164.13742062 146.70709229 164.54547119 C143.56569638 164.60651456 140.43091609 164.59962377 137.2890625 164.5703125 C136.14335785 164.5674826 134.9976532 164.56465271 133.81723022 164.56173706 C130.16971245 164.55057135 126.52244315 164.52547299 122.875 164.5 C120.39713897 164.48996555 117.91927408 164.48084051 115.44140625 164.47265625 C109.37751986 164.4506438 103.31377769 164.41720194 97.25 164.375 C97.27094727 165.46441895 97.29189453 166.55383789 97.31347656 167.67626953 C97.38611865 171.73521678 97.43188718 175.79410706 97.46972656 179.85351562 C97.4897871 181.60719479 97.51704251 183.36080753 97.55175781 185.11425781 C97.60052302 187.64144318 97.62302392 190.16774091 97.640625 192.6953125 C97.66127014 193.47367462 97.68191528 194.25203674 97.70318604 195.0539856 C97.70532341 200.29134881 96.80120841 203.28454495 93.25 207.375 C88.6528908 211.0420147 85.61822247 211.8761887 79.77331543 211.88293457 C79.0414664 211.88917453 78.30961738 211.8954145 77.55559111 211.90184355 C75.11420261 211.9177417 72.67381698 211.90518251 70.23242188 211.89257812 C68.47774169 211.89800068 66.72306607 211.90512409 64.96839905 211.91381836 C60.21012501 211.93203879 55.45219826 211.92498947 50.69391823 211.91230202 C45.71191097 211.90216774 40.72993324 211.91156889 35.7479248 211.91784668 C27.38186307 211.92512183 19.01594262 211.91553884 10.64990234 211.89648438 C0.98065159 211.8747159 -8.68826179 211.88176737 -18.35750437 211.90379 C-26.66256296 211.92194775 -34.96752004 211.92450048 -43.27259207 211.91403532 C-48.23143131 211.90780246 -53.19011201 211.90695908 -58.14894104 211.92018127 C-62.81120645 211.93174458 -67.4730373 211.92370525 -72.13525581 211.90060425 C-73.84526918 211.89531973 -75.55531918 211.89682656 -77.26531792 211.90565491 C-79.60180908 211.91660463 -81.93691243 211.90285544 -84.27331543 211.88293457 C-85.57999931 211.88142647 -86.8866832 211.87991837 -88.23296356 211.87836456 C-93.29147821 211.15438087 -96.47958406 209.03968296 -99.5625 205 C-101.92626069 199.77484479 -101.87029356 194.44839125 -101.84765625 188.7890625 C-101.8462413 188.08727875 -101.84482635 187.385495 -101.84336853 186.66244507 C-101.8378129 184.44158496 -101.82526892 182.22082916 -101.8125 180 C-101.80747926 178.48567855 -101.80291736 176.9713555 -101.79882812 175.45703125 C-101.78785807 171.76298748 -101.77062449 168.06900394 -101.75 164.375 C-102.37116699 164.38388245 -102.99233398 164.39276489 -103.63232422 164.4019165 C-110.12148804 164.49069343 -116.61047816 164.55086 -123.10009766 164.59472656 C-125.5191143 164.61479065 -127.93808276 164.64204843 -130.35693359 164.67675781 C-133.84224368 164.72550341 -137.32691016 164.74802164 -140.8125 164.765625 C-141.88677246 164.78627014 -142.96104492 164.80691528 -144.06787109 164.82818604 C-152.16226186 164.83058253 -157.430776 163.2516608 -163.5625 157.9375 C-168.71367346 151.90326823 -170.16064164 146.83616168 -170.01171875 139.0234375 C-169.1921249 130.72963705 -164.88585548 125.96756981 -158.69921875 120.73828125 C-154.95955005 117.74159309 -151.21087215 114.75815034 -147.42529297 111.81958008 C-142.54400092 108.02862225 -137.76174051 104.1272734 -133 100.1875 C-127.82839155 95.91018691 -122.64141587 91.65958426 -117.38671875 87.484375 C-113.90592895 84.69974316 -110.45481217 81.87925028 -107 79.0625 C-101.97649233 74.96922803 -96.92330246 70.92118008 -91.8125 66.9375 C-85.81160708 62.25780195 -79.94036601 57.43141518 -74.07983398 52.57763672 C-68.99112617 48.37238913 -63.83650766 44.26362044 -58.63232422 40.20263672 C-52.66415268 35.54123855 -46.82164176 30.73082268 -40.97802734 25.91455078 C-33.42416624 19.69748479 -25.81412502 13.57574125 -18 7.6875 C-16.99900269 6.9298938 -16.99900269 6.9298938 -15.9777832 6.15698242 C-15.350896 5.68881104 -14.72400879 5.22063965 -14.078125 4.73828125 C-13.5305957 4.32876221 -12.98306641 3.91924316 -12.41894531 3.49731445 C-8.20411393 0.66296983 -5.11251606 0.05581349 0 0 Z " fill="#CBF39E" transform="translate(260.75,-0.375)"/>
<path d="M0 0 C2.11380425 0.00316292 4.22621221 -0.0203163 6.33984375 -0.0456543 C7.68359199 -0.04792712 9.02734398 -0.04863086 10.37109375 -0.04760742 C11.593125 -0.05058838 12.81515625 -0.05356934 14.07421875 -0.05664062 C17.12109375 0.31567383 17.12109375 0.31567383 19.04296875 1.58837891 C20.12109375 3.31567383 20.12109375 3.31567383 20.12109375 7.31567383 C25.07109375 7.31567383 30.02109375 7.31567383 35.12109375 7.31567383 C35.45109375 5.66567383 35.78109375 4.01567383 36.12109375 2.31567383 C38.68101299 -0.24424541 39.62566155 0.06100149 43.18060303 0.04824829 C44.25169312 0.03971832 45.3227832 0.03118835 46.42633057 0.0223999 C47.60660828 0.02330627 48.78688599 0.02421265 50.00292969 0.02514648 C51.24204102 0.01842926 52.48115234 0.01171204 53.7578125 0.00479126 C57.16302169 -0.01098748 60.56798701 -0.01756598 63.97321606 -0.01884031 C66.8159772 -0.02073796 69.65871487 -0.02809436 72.50146699 -0.0351845 C79.21095099 -0.0514836 85.9203813 -0.05635226 92.62988281 -0.05493164 C99.54749311 -0.05373133 106.46479084 -0.07480724 113.38232207 -0.10641897 C119.32212469 -0.13259392 125.26182535 -0.14329836 131.20168519 -0.14202082 C134.74882369 -0.14151133 138.29568481 -0.14718636 141.84276581 -0.16837692 C145.80252712 -0.19138515 149.76186245 -0.18223082 153.72167969 -0.17016602 C154.89386047 -0.18140503 156.06604126 -0.19264404 157.27374268 -0.20422363 C163.34690223 -0.1571532 167.49921757 -0.06269077 172.12109375 4.31567383 C176.42114554 9.2400577 176.69923425 13.1537534 176.63867188 19.39111328 C176.64568115 20.28461487 176.65269043 21.17811646 176.65991211 22.09869385 C176.67746735 25.04243369 176.66587503 27.985206 176.65234375 30.92895508 C176.65504008 32.98390384 176.65892368 35.03885136 176.66394043 37.09379578 C176.66983275 41.3985917 176.66128359 45.70305527 176.64257812 50.0078125 C176.61983207 55.50890602 176.63288605 61.00921699 176.65686798 66.51028156 C176.67136988 70.75440795 176.6666991 74.99835102 176.65635681 79.24248314 C176.65369942 81.26974773 176.65692432 83.29702929 176.66627502 85.32427406 C176.67650816 88.16730985 176.66084355 91.00910654 176.63867188 93.85205078 C176.6467688 94.67988571 176.65486572 95.50772064 176.66320801 96.36064148 C176.56781525 103.00994227 174.98703926 109.21907491 170.37116241 114.20644093 C165.09822692 119.03932446 160.44583005 120.56321285 153.27165222 120.58309937 C152.25690629 120.58989603 152.25690629 120.58989603 151.22166044 120.59683001 C148.9617498 120.60945928 146.70208062 120.60785462 144.44213867 120.60620117 C142.81893098 120.61218738 141.19572613 120.61899314 139.57252502 120.6265564 C135.16745052 120.64421499 130.76245373 120.64891174 126.35734725 120.65018797 C123.60355749 120.6516103 120.84978744 120.65588146 118.09600258 120.6611824 C108.48415499 120.67968278 98.87236285 120.68785308 89.26049805 120.6862793 C80.30875342 120.68507815 71.35725 120.70617515 62.40556639 120.73776662 C54.71367295 120.76394227 47.02185822 120.77464604 39.32992059 120.77336848 C34.73873782 120.77285919 30.1477694 120.77852396 25.55663109 120.79972458 C21.23666225 120.81912851 16.91711175 120.81921683 12.59712791 120.80469131 C11.01533393 120.80260473 9.43351362 120.80729521 7.85176468 120.81941223 C-1.3252581 120.8851365 -8.67986592 120.8924352 -15.90234375 114.53442383 C-16.57136719 113.68364258 -16.57136719 113.68364258 -17.25390625 112.81567383 C-17.94613281 111.96489258 -17.94613281 111.96489258 -18.65234375 111.09692383 C-23.08642871 104.65761574 -23.02885121 97.65603037 -23.02416992 90.02880859 C-23.02752853 89.23109039 -23.03088715 88.43337219 -23.03434753 87.61148071 C-23.04379065 84.99333102 -23.04579712 82.37524571 -23.046875 79.75708008 C-23.05009161 77.925369 -23.05345598 76.09365818 -23.05696106 74.26194763 C-23.06293529 70.42983403 -23.06480266 66.59774293 -23.06420898 62.765625 C-23.06410732 57.86889302 -23.07777116 52.97230591 -23.09498119 48.07560825 C-23.10612811 44.29480839 -23.10812738 40.51404329 -23.10759926 36.73322868 C-23.10877486 34.92842038 -23.11317296 33.12361105 -23.12093163 31.31881905 C-23.13078841 28.78975531 -23.12783146 26.26100292 -23.12182617 23.73193359 C-23.12744568 22.99558182 -23.13306519 22.25923004 -23.13885498 21.50056458 C-23.10129785 15.23948018 -22.61895045 9.36803365 -18.44140625 4.44067383 C-12.46386556 -0.51631114 -7.40849768 -0.02328089 0 0 Z " fill="#CBF39E" transform="translate(181.87890625,391.684326171875)"/>
<path d="M0 0 C1.75570312 -0.04253906 1.75570312 -0.04253906 3.546875 -0.0859375 C11.10102812 0.85434738 16.37506733 4.9433828 21.875 9.9375 C26.53653105 14.05483934 31.25971163 18.01776109 36.1875 21.8125 C41.91092581 26.24023825 47.39463326 30.89731727 52.83764648 35.6640625 C56.59087604 38.94819989 60.38198346 42.16411444 64.25 45.3125 C65.11238281 46.02277344 65.97476563 46.73304687 66.86328125 47.46484375 C68.3674363 48.66866015 69.9038526 49.83418545 71.48046875 50.94140625 C74.24821292 52.96887553 75.95250169 54.24917308 76.84765625 57.63671875 C77.00191471 60.09298808 76.90417805 62.00418453 76.25 64.375 C74.1875 66.5 74.1875 66.5 71.25 67.375 C64.86689333 67.17624458 61.95227897 65.03299187 57.5 60.875 C56.26261815 59.76722372 55.02432867 58.66046046 53.78515625 57.5546875 C53.18203613 57.0090918 52.57891602 56.46349609 51.95751953 55.90136719 C49.67512003 53.86110958 47.31713207 51.92550381 44.9375 50 C40.23878699 46.18013316 35.55169604 42.34677628 30.875 38.5 C30.14845215 37.9028418 29.4219043 37.30568359 28.67333984 36.69042969 C23.08454182 32.08700857 17.5651881 27.40828148 12.08203125 22.6796875 C6.75127467 18.21005732 6.75127467 18.21005732 0.3671875 15.73828125 C-4.336655 16.69909118 -7.08559336 19.43464277 -10.625 22.5625 C-12.138746 23.85484273 -13.65308287 25.14649363 -15.16796875 26.4375 C-15.93157715 27.09621094 -16.69518555 27.75492188 -17.48193359 28.43359375 C-20.91614652 31.3731913 -24.42261413 34.22029279 -27.9375 37.0625 C-28.5987085 37.5997168 -29.25991699 38.13693359 -29.94116211 38.69042969 C-34.71551782 42.56264225 -39.54418709 46.36099518 -44.39135742 50.14135742 C-49.81436551 54.38867879 -55.11540752 58.7788846 -60.42016602 63.17236328 C-65.50887383 67.37761087 -70.66349234 71.48637956 -75.86767578 75.54736328 C-80.22440345 78.95015461 -84.51517612 82.42620943 -88.78515625 85.9375 C-97.3519227 92.98053329 -105.94147631 99.99279655 -114.6875 106.8125 C-120.68265978 111.48791644 -126.56456407 116.29206366 -132.39599609 121.17016602 C-135.83895831 124.03772367 -139.30120095 126.81545953 -142.94140625 129.4296875 C-143.92173828 130.14705078 -143.92173828 130.14705078 -144.921875 130.87890625 C-146.14446637 131.76553759 -147.38218788 132.63182506 -148.63671875 133.47265625 C-150.91867471 135.14356713 -152.55763338 136.55618819 -153.21826172 139.36816406 C-153.34119701 142.28006921 -153.25029693 144.64220231 -151.5766449 147.09364319 C-148.9910303 148.90740287 -147.10773629 148.74678282 -143.96508789 148.74389648 C-142.77698013 148.75077988 -141.58887238 148.75766327 -140.36476135 148.76475525 C-139.08036667 148.75859695 -137.79597198 148.75243866 -136.47265625 148.74609375 C-134.45901667 148.75902551 -132.44537693 148.7719796 -130.43174648 148.78626347 C-125.46179532 148.81631101 -120.49175089 148.81277387 -115.52172852 148.81079102 C-112.73335876 148.81074981 -109.94537706 148.82130363 -107.15708923 148.84254456 C-104.52952128 148.86131268 -101.90176667 148.86306424 -99.27418518 148.84629822 C-98.08292526 148.85633377 -96.89166534 148.86636932 -95.66430664 148.87670898 C-94.0923629 148.87645973 -94.0923629 148.87645973 -92.48866272 148.87620544 C-89.75 149.375 -89.75 149.375 -85.75 153.375 C-85.75 167.565 -85.75 181.755 -85.75 196.375 C-30.31 196.375 25.13 196.375 82.25 196.375 C82.25 182.185 82.25 167.995 82.25 153.375 C86.25 149.375 86.25 149.375 88.98193359 148.88293457 C90.54935303 148.88770813 90.54935303 148.88770813 92.1484375 148.89257812 C93.93048584 148.88236633 93.93048584 148.88236633 95.74853516 148.87194824 C97.66738525 148.88892761 97.66738525 148.88892761 99.625 148.90625 C101.63646688 148.89548 103.64793394 148.88468819 105.65939331 148.87259674 C109.90451397 148.85353856 114.14964372 148.870039 118.39477539 148.88006592 C121.89175513 148.88695288 125.38832142 148.88613336 128.88525391 148.8651123 C131.50729018 148.85107313 134.12949363 148.85485066 136.75146484 148.87805176 C138.53351318 148.86783997 138.53351318 148.86783997 140.3515625 148.85742188 C141.91898193 148.86219543 141.91898193 148.86219543 143.51806641 148.86706543 C146.95785259 148.2475043 148.12494889 147.09824463 150.25 144.375 C151.16828794 141.50628132 151.16828794 141.50628132 150.25 138.375 C146.48744228 133.26609575 141.00067993 129.48877318 136.05078125 125.60546875 C132.91714035 123.1099193 129.86163375 120.53496007 126.8125 117.9375 C122.03285031 113.87264852 117.21290823 109.86476546 112.34765625 105.90234375 C108.36773856 102.65517257 104.40227403 99.3906324 100.4375 96.125 C99.71981445 95.53420654 99.00212891 94.94341309 98.26269531 94.3347168 C96.89232167 93.20599529 95.52383273 92.07498067 94.1574707 90.94140625 C92.93110873 89.93432338 91.6933869 88.94083426 90.44213867 87.96484375 C87.45799311 85.60849443 86.32607603 84.6256034 85.1875 80.875 C85.25790654 76.93223363 85.59533381 75.28656937 88.25 72.375 C92.10367674 70.88607944 93.76938336 71.16643051 97.5625 72.8125 C101.31712337 75.21151537 104.53387276 78.17797134 107.8125 81.1796875 C111.20803438 84.23784507 114.75987698 87.08737243 118.30859375 89.96484375 C121.42804892 92.52089134 124.49634307 95.13064442 127.5625 97.75 C132.0429094 101.56928883 136.60309051 105.26045066 141.25 108.875 C146.00672438 112.58797074 150.72961087 116.33574227 155.375 120.1875 C155.90738281 120.61933594 156.43976563 121.05117187 156.98828125 121.49609375 C162.54113926 126.14964571 165.95987517 131.22067141 167.25 138.375 C167.45267734 145.89658126 166.1480717 151.58158186 161.25 157.375 C157.10237967 161.74561067 152.79395626 164.13742062 146.70709229 164.54547119 C143.56569638 164.60651456 140.43091609 164.59962377 137.2890625 164.5703125 C136.14335785 164.5674826 134.9976532 164.56465271 133.81723022 164.56173706 C130.16971245 164.55057135 126.52244315 164.52547299 122.875 164.5 C120.39713897 164.48996555 117.91927408 164.48084051 115.44140625 164.47265625 C109.37751986 164.4506438 103.31377769 164.41720194 97.25 164.375 C97.27094727 165.46441895 97.29189453 166.55383789 97.31347656 167.67626953 C97.38611865 171.73521678 97.43188718 175.79410706 97.46972656 179.85351562 C97.4897871 181.60719479 97.51704251 183.36080753 97.55175781 185.11425781 C97.60052302 187.64144318 97.62302392 190.16774091 97.640625 192.6953125 C97.66127014 193.47367462 97.68191528 194.25203674 97.70318604 195.0539856 C97.70532341 200.29134881 96.80120841 203.28454495 93.25 207.375 C88.6528908 211.0420147 85.61822247 211.8761887 79.77331543 211.88293457 C79.0414664 211.88917453 78.30961738 211.8954145 77.55559111 211.90184355 C75.11420261 211.9177417 72.67381698 211.90518251 70.23242188 211.89257812 C68.47774169 211.89800068 66.72306607 211.90512409 64.96839905 211.91381836 C60.21012501 211.93203879 55.45219826 211.92498947 50.69391823 211.91230202 C45.71191097 211.90216774 40.72993324 211.91156889 35.7479248 211.91784668 C27.38186307 211.92512183 19.01594262 211.91553884 10.64990234 211.89648438 C0.98065159 211.8747159 -8.68826179 211.88176737 -18.35750437 211.90379 C-26.66256296 211.92194775 -34.96752004 211.92450048 -43.27259207 211.91403532 C-48.23143131 211.90780246 -53.19011201 211.90695908 -58.14894104 211.92018127 C-62.81120645 211.93174458 -67.4730373 211.92370525 -72.13525581 211.90060425 C-73.84526918 211.89531973 -75.55531918 211.89682656 -77.26531792 211.90565491 C-79.60180908 211.91660463 -81.93691243 211.90285544 -84.27331543 211.88293457 C-85.57999931 211.88142647 -86.8866832 211.87991837 -88.23296356 211.87836456 C-93.29147821 211.15438087 -96.47958406 209.03968296 -99.5625 205 C-101.92626069 199.77484479 -101.87029356 194.44839125 -101.84765625 188.7890625 C-101.8462413 188.08727875 -101.84482635 187.385495 -101.84336853 186.66244507 C-101.8378129 184.44158496 -101.82526892 182.22082916 -101.8125 180 C-101.80747926 178.48567855 -101.80291736 176.9713555 -101.79882812 175.45703125 C-101.78785807 171.76298748 -101.77062449 168.06900394 -101.75 164.375 C-102.37116699 164.38388245 -102.99233398 164.39276489 -103.63232422 164.4019165 C-110.12148804 164.49069343 -116.61047816 164.55086 -123.10009766 164.59472656 C-125.5191143 164.61479065 -127.93808276 164.64204843 -130.35693359 164.67675781 C-133.84224368 164.72550341 -137.32691016 164.74802164 -140.8125 164.765625 C-141.88677246 164.78627014 -142.96104492 164.80691528 -144.06787109 164.82818604 C-152.16226186 164.83058253 -157.430776 163.2516608 -163.5625 157.9375 C-168.71367346 151.90326823 -170.16064164 146.83616168 -170.01171875 139.0234375 C-169.1921249 130.72963705 -164.88585548 125.96756981 -158.69921875 120.73828125 C-154.95955005 117.74159309 -151.21087215 114.75815034 -147.42529297 111.81958008 C-142.54400092 108.02862225 -137.76174051 104.1272734 -133 100.1875 C-127.82839155 95.91018691 -122.64141587 91.65958426 -117.38671875 87.484375 C-113.90592895 84.69974316 -110.45481217 81.87925028 -107 79.0625 C-101.97649233 74.96922803 -96.92330246 70.92118008 -91.8125 66.9375 C-85.81160708 62.25780195 -79.94036601 57.43141518 -74.07983398 52.57763672 C-68.99112617 48.37238913 -63.83650766 44.26362044 -58.63232422 40.20263672 C-52.66415268 35.54123855 -46.82164176 30.73082268 -40.97802734 25.91455078 C-33.42416624 19.69748479 -25.81412502 13.57574125 -18 7.6875 C-16.99900269 6.9298938 -16.99900269 6.9298938 -15.9777832 6.15698242 C-15.350896 5.68881104 -14.72400879 5.22063965 -14.078125 4.73828125 C-13.5305957 4.32876221 -12.98306641 3.91924316 -12.41894531 3.49731445 C-8.20411393 0.66296983 -5.11251606 0.05581349 0 0 Z " fill="#000100" transform="translate(260.75,-0.375)"/>
<path d="M0 0 C2.11380425 0.00316292 4.22621221 -0.0203163 6.33984375 -0.0456543 C7.68359199 -0.04792712 9.02734398 -0.04863086 10.37109375 -0.04760742 C11.593125 -0.05058838 12.81515625 -0.05356934 14.07421875 -0.05664062 C17.12109375 0.31567383 17.12109375 0.31567383 19.01171875 1.62744141 C20.94964899 4.57655839 20.59118552 6.90750847 20.12109375 10.31567383 C18.296875 13.02270508 18.296875 13.02270508 15.12109375 15.31567383 C11.33112715 15.92625877 7.63469513 15.78728873 3.80859375 15.62817383 C2.26848633 15.59433594 2.26848633 15.59433594 0.69726562 15.55981445 C-1.82962415 15.50104957 -4.3535088 15.41895232 -6.87890625 15.31567383 C-6.84088364 26.32941777 -6.78157202 37.34282087 -6.69500351 48.35629654 C-6.65547757 53.47021019 -6.62331422 58.58395033 -6.60791016 63.69799805 C-6.59277725 68.63245975 -6.55839175 73.56644459 -6.51059723 78.50069427 C-6.49574863 80.38412077 -6.48786325 82.26761533 -6.4870224 84.15110016 C-6.48466141 86.78753122 -6.45765302 89.42263507 -6.42480469 92.05883789 C-6.42983505 92.83926956 -6.43486542 93.61970123 -6.44004822 94.42378235 C-6.37660542 97.71020215 -6.23315108 99.83781888 -4.24737167 102.51651573 C-1.14956359 104.86970461 0.66595403 104.8138198 4.53552246 104.81015015 C5.4980922 104.81739339 5.4980922 104.81739339 6.48010778 104.82478297 C8.6284299 104.83604664 10.77555964 104.81874228 12.92382812 104.80151367 C14.4647097 104.80365974 16.00558969 104.80753775 17.54646301 104.8130188 C21.73040495 104.82271525 25.91392038 104.80740526 30.09781075 104.78711271 C34.47482953 104.76954902 38.851835 104.77306666 43.22888184 104.77383423 C50.57958108 104.77196096 57.93011524 104.75459373 65.28076172 104.72729492 C73.78091701 104.69584383 82.28089147 104.68529872 90.78110075 104.68676603 C98.95568064 104.68798659 107.13020161 104.6777757 115.30476379 104.6611824 C118.78473877 104.65411904 122.26469289 104.65045624 125.74467468 104.64939499 C129.84212044 104.64738639 133.93941429 104.63517909 138.03680992 104.61506271 C139.54125221 104.60921946 141.04571198 104.60676062 142.55016518 104.60791779 C144.60249345 104.60889902 146.65439606 104.59759036 148.70666504 104.58309937 C149.85555458 104.57974768 151.00444412 104.57639599 152.1881485 104.57294273 C155.0696092 104.32018989 156.73145841 103.90956045 159.12109375 102.31567383 C160.70039182 99.15707768 160.30105715 95.75619308 160.32641602 92.28588867 C160.33631561 91.45654312 160.34621521 90.62719757 160.35641479 89.77272034 C160.38807039 87.02404664 160.41280324 84.27535564 160.4375 81.52661133 C160.45806602 79.62374414 160.4790624 77.72088156 160.50047302 75.81802368 C160.55573002 70.80391158 160.60512328 65.789758 160.65332031 60.77557373 C160.70350887 55.66129861 160.75920873 50.54708389 160.81445312 45.43286133 C160.92207906 35.3938504 161.02351417 25.35478708 161.12109375 15.31567383 C160.50117931 15.31843921 159.88126488 15.32120459 159.24256516 15.32405376 C144.16140444 15.39029551 129.08028832 15.43994554 113.99901962 15.47111034 C106.70583625 15.48658185 99.41274997 15.50767669 92.11962891 15.54199219 C85.76323038 15.57188599 79.40690217 15.59124677 73.0504353 15.59793931 C69.68444189 15.60185164 66.31864962 15.61105176 62.95272064 15.632864 C59.19589691 15.65456268 55.43949325 15.65764385 51.68261719 15.65625 C50.56555893 15.66703583 49.44850067 15.67782166 48.29759216 15.68893433 C47.27398087 15.68481033 46.25036957 15.68068634 45.19573975 15.67643738 C44.30713131 15.67920276 43.41852287 15.68196814 42.50298691 15.68481731 C39.61848669 15.23778027 38.24781203 14.28091829 36.12109375 12.31567383 C35.40625 10.41333008 35.40625 10.41333008 35.18359375 8.37817383 C35.09207031 7.70915039 35.00054687 7.04012695 34.90625 6.35083008 C35.2039882 3.53043734 36.17760965 2.36033199 38.12109375 0.31567383 C40.4725008 -0.18769073 40.4725008 -0.18769073 43.30085754 -0.19226074 C44.3733223 -0.20354004 45.44578705 -0.21481934 46.55075073 -0.22644043 C48.31577438 -0.21429504 48.31577438 -0.21429504 50.11645508 -0.2019043 C51.35571243 -0.20891357 52.59496979 -0.21592285 53.8717804 -0.22314453 C57.27306529 -0.23775179 60.67337913 -0.23430135 64.07460999 -0.22162819 C67.6352585 -0.21150418 71.19586537 -0.22089281 74.7565155 -0.22717285 C80.73952686 -0.23445389 86.72234086 -0.22485274 92.70532227 -0.20581055 C99.6155998 -0.18407052 106.52540473 -0.19107006 113.43567067 -0.21311617 C119.37127333 -0.23129298 125.30673401 -0.23381652 131.24235553 -0.22336149 C134.78609275 -0.21713516 138.32960823 -0.21626635 141.87333107 -0.22950745 C145.82825564 -0.24325178 149.78265537 -0.22417881 153.73754883 -0.2019043 C154.90815857 -0.21000122 156.07876831 -0.21809814 157.28485107 -0.22644043 C163.35087008 -0.16314235 167.50358489 -0.05310209 172.12109375 4.31567383 C176.42114554 9.2400577 176.69923425 13.1537534 176.63867188 19.39111328 C176.64568115 20.28461487 176.65269043 21.17811646 176.65991211 22.09869385 C176.67746735 25.04243369 176.66587503 27.985206 176.65234375 30.92895508 C176.65504008 32.98390384 176.65892368 35.03885136 176.66394043 37.09379578 C176.66983275 41.3985917 176.66128359 45.70305527 176.64257812 50.0078125 C176.61983207 55.50890602 176.63288605 61.00921699 176.65686798 66.51028156 C176.67136988 70.75440795 176.6666991 74.99835102 176.65635681 79.24248314 C176.65369942 81.26974773 176.65692432 83.29702929 176.66627502 85.32427406 C176.67650816 88.16730985 176.66084355 91.00910654 176.63867188 93.85205078 C176.6467688 94.67988571 176.65486572 95.50772064 176.66320801 96.36064148 C176.56781525 103.00994227 174.98703926 109.21907491 170.37116241 114.20644093 C165.09822692 119.03932446 160.44583005 120.56321285 153.27165222 120.58309937 C152.25690629 120.58989603 152.25690629 120.58989603 151.22166044 120.59683001 C148.9617498 120.60945928 146.70208062 120.60785462 144.44213867 120.60620117 C142.81893098 120.61218738 141.19572613 120.61899314 139.57252502 120.6265564 C135.16745052 120.64421499 130.76245373 120.64891174 126.35734725 120.65018797 C123.60355749 120.6516103 120.84978744 120.65588146 118.09600258 120.6611824 C108.48415499 120.67968278 98.87236285 120.68785308 89.26049805 120.6862793 C80.30875342 120.68507815 71.35725 120.70617515 62.40556639 120.73776662 C54.71367295 120.76394227 47.02185822 120.77464604 39.32992059 120.77336848 C34.73873782 120.77285919 30.1477694 120.77852396 25.55663109 120.79972458 C21.23666225 120.81912851 16.91711175 120.81921683 12.59712791 120.80469131 C11.01533393 120.80260473 9.43351362 120.80729521 7.85176468 120.81941223 C-1.3252581 120.8851365 -8.67986592 120.8924352 -15.90234375 114.53442383 C-16.57136719 113.68364258 -16.57136719 113.68364258 -17.25390625 112.81567383 C-17.94613281 111.96489258 -17.94613281 111.96489258 -18.65234375 111.09692383 C-23.08642871 104.65761574 -23.02885121 97.65603037 -23.02416992 90.02880859 C-23.02752853 89.23109039 -23.03088715 88.43337219 -23.03434753 87.61148071 C-23.04379065 84.99333102 -23.04579712 82.37524571 -23.046875 79.75708008 C-23.05009161 77.925369 -23.05345598 76.09365818 -23.05696106 74.26194763 C-23.06293529 70.42983403 -23.06480266 66.59774293 -23.06420898 62.765625 C-23.06410732 57.86889302 -23.07777116 52.97230591 -23.09498119 48.07560825 C-23.10612811 44.29480839 -23.10812738 40.51404329 -23.10759926 36.73322868 C-23.10877486 34.92842038 -23.11317296 33.12361105 -23.12093163 31.31881905 C-23.13078841 28.78975531 -23.12783146 26.26100292 -23.12182617 23.73193359 C-23.12744568 22.99558182 -23.13306519 22.25923004 -23.13885498 21.50056458 C-23.10129785 15.23948018 -22.61895045 9.36803365 -18.44140625 4.44067383 C-12.46386556 -0.51631114 -7.40849768 -0.02328089 0 0 Z " fill="#000000" transform="translate(181.87890625,391.684326171875)"/>
<path d="M0 0 C8.02252717 5.17007306 9.46732292 17.33847815 11.38298035 26.07060242 C11.68865135 27.49217012 11.99180109 28.9142822 12.29248047 30.33691406 C12.75550024 32.52600433 13.23036187 34.71228273 13.70703125 36.8984375 C16 47.53409072 16 47.53409072 16 51 C16.65742188 51.14695312 17.31484375 51.29390625 17.9921875 51.4453125 C24.54986787 52.99143226 30.97090813 54.85522008 37.375 56.9375 C38.13538574 57.17807129 38.89577148 57.41864258 39.67919922 57.66650391 C44.86689586 59.38660486 49.96483292 61.31727976 53.375 65.8125 C54.31707395 69.10975883 54.41260656 71.5812599 54 75 C50.31862103 81.57389102 44.00071516 83.90029141 37 86 C35.30651355 86.37509017 33.60956265 86.73474624 31.91015625 87.08203125 C24.15756461 88.72306385 24.15756461 88.72306385 17 92 C14.2630758 96.34372901 13.75485087 100.52857431 13.28955078 105.52392578 C12.73865604 110.23486543 11.5671795 114.82174439 10.5 119.4375 C10.30929932 120.34822266 10.11859863 121.25894531 9.92211914 122.19726562 C8.40772109 129.19840004 6.56965207 136.15254771 1.6875 141.5625 C-1.85698493 143.45838729 -4.03130326 143.56695668 -8 143 C-13.71115852 140.07801192 -15.11338043 134.77149049 -17 129 C-18.64155975 122.8874495 -19.92425481 116.68681091 -21.25 110.5 C-21.6164473 108.8279626 -21.98362923 107.15608603 -22.3515625 105.484375 C-22.69858191 103.89597852 -23.04496006 102.30744178 -23.390625 100.71875 C-23.55306702 99.97298706 -23.71550903 99.22722412 -23.88287354 98.4588623 C-25 93.23704863 -25 93.23704863 -25 91 C-25.59643311 90.89478027 -26.19286621 90.78956055 -26.80737305 90.68115234 C-33.32523228 89.46343997 -39.52758436 87.72449666 -45.8125 85.625 C-46.72708984 85.33367187 -47.64167969 85.04234375 -48.58398438 84.7421875 C-54.28108084 82.85282314 -59.1646548 81.08671692 -62.375 75.6875 C-63.24285376 71.95572881 -63.10137947 69.69286057 -62 66 C-56.52293919 58.04568201 -44.83665464 56.20047017 -35.984375 53.9765625 C-34.73140625 53.65429688 -33.4784375 53.33203125 -32.1875 53 C-31.04667969 52.731875 -29.90585937 52.46375 -28.73046875 52.1875 C-25.86250132 51.2851276 -25.86250132 51.2851276 -24.9284668 48.88769531 C-23.83962855 45.50121654 -23.09388374 42.09495037 -22.4140625 38.609375 C-22.12011192 37.16269531 -21.82583047 35.71608281 -21.53125 34.26953125 C-21.07749971 32.0149595 -20.62694292 29.75986685 -20.18261719 27.50341797 C-18.35045496 18.24307697 -16.58341773 9.44148619 -11.3125 1.4375 C-7.64055031 -0.84506332 -4.18865507 -0.82572053 0 0 Z " fill="#010100" transform="translate(445,280)"/>
<path d="M0 0 C8.02252717 5.17007306 9.46732292 17.33847815 11.38298035 26.07060242 C11.68865135 27.49217012 11.99180109 28.9142822 12.29248047 30.33691406 C12.75550024 32.52600433 13.23036187 34.71228273 13.70703125 36.8984375 C16 47.53409072 16 47.53409072 16 51 C16.65742187 51.14695312 17.31484375 51.29390625 17.9921875 51.4453125 C24.54986787 52.99143226 30.97090813 54.85522008 37.375 56.9375 C38.13538574 57.17807129 38.89577148 57.41864258 39.67919922 57.66650391 C44.86689586 59.38660486 49.96483292 61.31727976 53.375 65.8125 C54.31707395 69.10975883 54.41260656 71.5812599 54 75 C48.22343095 84.50338779 36.36632903 86.18234776 26.2890625 88.79882812 C25.391875 89.04181641 24.4946875 89.28480469 23.5703125 89.53515625 C22.76352051 89.745354 21.95672852 89.95555176 21.12548828 90.17211914 C18.61354547 91.15052462 17.56895842 91.79591096 16 94 C15.30849846 96.40254106 14.77190933 98.67843815 14.31640625 101.125 C14.17476547 101.82713623 14.03312469 102.52927246 13.88719177 103.25268555 C13.43475046 105.49978845 12.9972348 107.74940952 12.5625 110 C7.48082168 136.13026952 7.48082168 136.13026952 2.1875 141.1875 C-1.64809194 143.36852287 -3.65464055 143.71105882 -8 143 C-13.71115852 140.07801192 -15.11338043 134.77149049 -17 129 C-18.64155975 122.8874495 -19.92425481 116.68681091 -21.25 110.5 C-21.6164473 108.8279626 -21.98362923 107.15608603 -22.3515625 105.484375 C-22.69858191 103.89597852 -23.04496006 102.30744178 -23.390625 100.71875 C-23.55306702 99.97298706 -23.71550903 99.22722412 -23.88287354 98.4588623 C-25 93.23704863 -25 93.23704863 -25 91 C-25.59643311 90.89478027 -26.19286621 90.78956055 -26.80737305 90.68115234 C-33.32523228 89.46343997 -39.52758436 87.72449666 -45.8125 85.625 C-46.72708984 85.33367187 -47.64167969 85.04234375 -48.58398438 84.7421875 C-54.28108084 82.85282314 -59.1646548 81.08671692 -62.375 75.6875 C-63.24285376 71.95572881 -63.10137947 69.69286057 -62 66 C-56.52293919 58.04568201 -44.83665464 56.20047017 -35.984375 53.9765625 C-34.73140625 53.65429688 -33.4784375 53.33203125 -32.1875 53 C-31.04667969 52.731875 -29.90585937 52.46375 -28.73046875 52.1875 C-25.86250132 51.2851276 -25.86250132 51.2851276 -24.9284668 48.88769531 C-23.83962855 45.50121654 -23.09388374 42.09495037 -22.4140625 38.609375 C-22.12011192 37.16269531 -21.82583047 35.71608281 -21.53125 34.26953125 C-21.07749971 32.0149595 -20.62694292 29.75986685 -20.18261719 27.50341797 C-18.35045496 18.24307697 -16.58341773 9.44148619 -11.3125 1.4375 C-7.64055031 -0.84506332 -4.18865507 -0.82572053 0 0 Z " fill="#010100" transform="translate(65,220)"/>
<path d="M0 0 C2.55365293 2.77400757 4.56592839 5.84864503 6.625 9 C7.21893555 9.87760986 7.81287109 10.75521973 8.42480469 11.65942383 C9.66758231 13.49815042 10.90315987 15.34176208 12.13183594 17.18994141 C14.57081883 20.85861536 17.04115443 24.50533455 19.52099609 28.14648438 C20.65758362 29.8168604 21.78830662 31.49124474 22.91259766 33.16992188 C23.42097168 33.92208984 23.9293457 34.67425781 24.453125 35.44921875 C24.89817383 36.11268311 25.34322266 36.77614746 25.80175781 37.4597168 C26.93792241 39.14869721 26.93792241 39.14869721 29 40 C29.34804687 38.96552734 29.34804687 38.96552734 29.703125 37.91015625 C31.27541172 34.38198274 33.42555676 31.49114791 35.75 28.4375 C41.13302162 21.24638459 46.29235369 13.91359871 51.40332031 6.52709961 C52.25748535 5.29745483 52.25748535 5.29745483 53.12890625 4.04296875 C53.63494385 3.31102295 54.14098145 2.57907715 54.66235352 1.82495117 C56.39478707 -0.53860803 57.48711877 -1.83366014 60.3125 -2.75 C63.58706334 -3.05461054 65.15671868 -2.64611024 68 -1 C70.22285326 1.66742391 71.01983726 3.15939595 70.9375 6.6484375 C69.62773981 11.33083017 67.0473492 14.54257379 64.125 18.375 C62.93589771 19.97537322 61.74842777 21.57696044 60.5625 23.1796875 C59.964375 23.98374023 59.36625 24.78779297 58.75 25.61621094 C56.12702774 29.18913241 53.61960225 32.83678305 51.125 36.5 C50.23573407 37.80212225 49.34641309 39.10420691 48.45703125 40.40625 C48.04275879 41.01339844 47.62848633 41.62054688 47.20166016 42.24609375 C44.50134424 46.18739191 41.75107402 50.09403825 39 54 C40.78558322 57.9679627 43.2751853 61.44250881 45.75 65 C46.22808105 65.69134033 46.70616211 66.38268066 47.19873047 67.0949707 C50.55796207 71.94486803 53.93882217 76.77969336 57.32250977 81.61254883 C58.52218215 83.3263433 59.72059196 85.04102229 60.91772461 86.7565918 C63.53232675 90.4996738 66.15630128 94.2313733 68.85546875 97.9140625 C69.27618652 98.49647705 69.6969043 99.0788916 70.13037109 99.67895508 C71.21983805 101.1844535 72.32222743 102.68057802 73.42578125 104.17578125 C75.29587763 107.53081769 75.79370237 110.17900912 76 114 C74.5625 116.9375 74.5625 116.9375 72 119 C66.67164179 119.84577114 66.67164179 119.84577114 64 119 C58.74022067 114.69490664 55.23627244 108.81938286 51.4375 103.25 C50.01610763 101.18586549 48.59422793 99.12206648 47.171875 97.05859375 C46.46998047 96.03749512 45.76808594 95.01639648 45.04492188 93.96435547 C42.12146803 89.72646428 39.15987771 85.5161645 36.1875 81.3125 C35.70273193 80.62510742 35.21796387 79.93771484 34.71850586 79.22949219 C32.5208766 76.11982513 30.30830389 73.02916956 28 70 C21.83088793 78.30941626 15.78616907 86.692301 9.875 95.1875 C-3.74566948 114.74566948 -3.74566948 114.74566948 -8 119 C-14.9273743 119.67039106 -14.9273743 119.67039106 -18.5 117.4375 C-20.64655732 113.94934435 -20.50265688 112.08206035 -20 108 C-18.25071498 104.6270839 -16.02410295 101.66107051 -13.75 98.625 C-13.11537842 97.7494043 -12.48075684 96.87380859 -11.8269043 95.97167969 C-10.52213108 94.17161059 -9.21115326 92.37602274 -7.89404297 90.58496094 C-5.15085376 86.84109817 -2.48107256 83.0472082 0.1875 79.25 C0.66767578 78.57090576 1.14785156 77.89181152 1.64257812 77.19213867 C6.83528768 69.84543573 11.92238216 62.42651586 17 55 C12.98965974 48.4620157 8.74404556 42.1321847 4.3125 35.875 C3.80710693 35.15916748 3.30171387 34.44333496 2.78100586 33.70581055 C0.0870253 29.90207334 -2.63803042 26.12508236 -5.40625 22.375 C-5.95579346 21.62105957 -6.50533691 20.86711914 -7.0715332 20.09033203 C-8.12152505 18.65089616 -9.18203886 17.2190561 -10.25463867 15.79638672 C-13.31185027 11.58128916 -14.89456161 8.37735767 -15 3 C-13.34949116 0.18802198 -12.04360904 -1.4242157 -9.1875 -3 C-5.66760743 -3 -2.9081164 -1.8784789 0 0 Z " fill="#000000" transform="translate(179,243)"/>
<path d="M0 0 C0.82185791 -0.0157608 1.64371582 -0.03152161 2.49047852 -0.04776001 C3.37276123 -0.03763885 4.25504395 -0.0275177 5.1640625 -0.01708984 C6.08437256 -0.02187347 7.00468262 -0.0266571 7.95288086 -0.03158569 C9.90301214 -0.03498709 11.85320025 -0.02576788 13.80322266 -0.00488281 C16.75166507 0.02163629 19.69621497 -0.00449359 22.64453125 -0.03662109 C36.95252973 -0.06433241 47.89063606 1.76911492 58.58984375 12.03759766 C67.12118514 22.16004179 68.68496319 32.88678709 67.7890625 45.64697266 C65.44056929 56.92256959 58.84860988 64.65603602 49.609375 71.13916016 C40.64921264 75.92949627 32.19409951 76.02173939 22.2265625 75.83447266 C20.82228003 75.81939377 19.41798184 75.80571104 18.01367188 75.79345703 C14.60506135 75.75831672 11.1972698 75.70911388 7.7890625 75.64697266 C7.81000977 76.89833008 7.83095703 78.1496875 7.85253906 79.43896484 C7.92495644 84.0830541 7.97086868 88.72709348 8.00878906 93.37158203 C8.02890055 95.38143304 8.05619365 97.39122557 8.09082031 99.40087891 C8.13935884 102.29034861 8.16203572 105.17904457 8.1796875 108.06884766 C8.20033264 108.96690125 8.22097778 109.86495483 8.24224854 110.79022217 C8.24449214 117.0323768 8.24449214 117.0323768 5.88964844 120.21020508 C3.63697388 121.75099887 2.49440814 122.21475653 -0.2109375 122.20947266 C-1.2009375 122.24234375 -1.2009375 122.24234375 -2.2109375 122.27587891 C-5.51108023 121.23813871 -6.41720161 119.58869952 -8.2109375 116.64697266 C-8.80846479 113.09009826 -8.75731444 109.56903592 -8.72851562 105.96923828 C-8.7355249 104.89389328 -8.74253418 103.81854828 -8.74975586 102.71061707 C-8.76735341 99.15788918 -8.75570614 95.60595857 -8.7421875 92.05322266 C-8.74488189 89.58369799 -8.74876386 87.11417435 -8.75378418 84.64465332 C-8.75968165 79.46970517 -8.75110784 74.29503323 -8.73242188 69.12011719 C-8.7096327 62.48531356 -8.72275438 55.85115714 -8.74671173 49.21637726 C-8.76116268 44.1171582 -8.75656683 39.01809269 -8.74620056 33.91886902 C-8.74353136 31.47242659 -8.7468098 29.02597024 -8.75611877 26.57954407 C-8.76627225 23.16088913 -8.75079848 19.74328375 -8.72851562 16.32470703 C-8.73661255 15.31260666 -8.74470947 14.30050629 -8.75305176 13.25773621 C-8.70100112 8.9493609 -8.59341286 6.32298129 -6.44177246 2.52005005 C-4.02460611 0.49052311 -3.10160127 0.01716449 0 0 Z M7.7890625 15.64697266 C7.7890625 30.16697266 7.7890625 44.68697266 7.7890625 59.64697266 C12.0790625 59.72947266 16.3690625 59.81197266 20.7890625 59.89697266 C22.79419922 59.95159668 22.79419922 59.95159668 24.83984375 60.00732422 C33.53724556 60.08804861 38.70424305 58.98909766 45.5390625 53.39697266 C50.23246498 47.66059185 52.52541919 42.6180876 52.16796875 35.10009766 C51.18476591 28.73461947 48.00923335 23.87988279 42.90356445 19.99487305 C35.52841629 15.29354606 27.12712797 15.25118318 18.6640625 15.45947266 C13.2809375 15.55228516 13.2809375 15.55228516 7.7890625 15.64697266 Z " fill="#000000" transform="translate(290.2109375,240.35302734375)"/>
<path d="M0 0 C0.72903534 -0.00394272 1.45807068 -0.00788544 2.209198 -0.01194763 C4.60802934 -0.01863642 7.00493831 0.01044885 9.40356445 0.04077148 C11.0731418 0.04502309 12.74272505 0.04735033 14.41230774 0.0478363 C17.9051913 0.05399409 21.39743163 0.07666177 24.89013672 0.11230469 C29.3728107 0.15768207 33.85490423 0.17233648 38.33778667 0.1760416 C41.78212737 0.18046344 45.22634565 0.19575352 48.67063332 0.21491814 C50.32408452 0.22381049 51.97754881 0.23053556 53.63101768 0.23507881 C55.93652863 0.24409378 58.24150743 0.26645681 60.546875 0.29296875 C61.8597197 0.30360855 63.17256439 0.31424835 64.52519226 0.32521057 C67.5793457 0.59936523 67.5793457 0.59936523 69.5793457 2.59936523 C70.15756577 6.31649421 69.91835976 8.06325684 67.89624023 11.26098633 C63.4562996 15.41408839 56.73436546 14.26009092 51.0715332 14.20092773 C49.05873996 14.21315856 47.04594666 14.22540454 45.03315926 14.23856163 C42.22107709 14.25108592 39.40924673 14.24143316 36.59716797 14.23138428 C31.66750067 14.21523663 26.73799873 14.21792436 21.80838013 14.2449646 C19.18525766 14.25711231 16.56201589 14.25429011 13.93893433 14.23526001 C12.75405426 14.23891571 11.56917419 14.24257141 10.34838867 14.24633789 C9.30423798 14.24235992 8.26008728 14.23838196 7.18429565 14.23428345 C4.18907931 14.38750995 4.18907931 14.38750995 1.5793457 17.59936523 C1.2493457 31.78936523 0.9193457 45.97936523 0.5793457 60.59936523 C-54.8606543 60.59936523 -110.3006543 60.59936523 -167.4206543 60.59936523 C-167.4206543 56.30936523 -167.4206543 52.01936523 -167.4206543 47.59936523 C-164.5930378 47.59056587 -164.5930378 47.59056587 -161.70829773 47.58158875 C-143.97619033 47.52447029 -126.24420563 47.4519447 -108.51222515 47.36365032 C-99.39520611 47.31865076 -90.2782265 47.27924578 -81.16113281 47.25292969 C-73.21631292 47.22998321 -65.27161736 47.19662295 -57.32689601 47.15066367 C-53.11872139 47.12668605 -48.91067025 47.10798712 -44.70242882 47.10175133 C-40.74367332 47.09572087 -36.78523397 47.07579564 -32.82659531 47.04508972 C-31.37173848 47.0362766 -29.91684039 47.03259366 -28.46195793 47.03435707 C-26.47925638 47.03600185 -24.49656811 47.01759447 -22.51396179 46.99809265 C-21.40320125 46.99348369 -20.2924407 46.98887472 -19.14802074 46.98412609 C-16.42428847 46.80849635 -16.42428847 46.80849635 -14.56188679 45.30878925 C-12.54130834 42.28221459 -13.04384326 38.68759175 -13.0847168 35.16967773 C-13.0722032 33.47045517 -13.05916603 31.7712364 -13.0456543 30.07202148 C-13.04172538 27.39691752 -13.04566621 24.72218742 -13.06030273 22.04711914 C-13.06888507 19.46240651 -13.04717019 16.87925322 -13.0222168 14.29467773 C-13.03556061 13.49869171 -13.04890442 12.70270569 -13.06265259 11.88259888 C-13.04771255 10.75650711 -13.04771255 10.75650711 -13.0324707 9.60766602 C-13.03605087 8.62529465 -13.03605087 8.62529465 -13.03970337 7.62307739 C-11.03050895 1.0548886 -6.18170088 -0.02383248 0 0 Z " fill="#B1E29D" transform="translate(342.420654296875,135.400634765625)"/>
<path d="M0 0 C4.29 0 8.58 0 13 0 C13.06947901 11.01350011 13.12280064 22.02694816 13.15543652 33.04062271 C13.17109929 38.1546019 13.19234883 43.26843126 13.22631836 48.38232422 C13.25888984 53.3165713 13.2768484 58.25067417 13.28463173 63.18502045 C13.2901792 65.06851217 13.30101195 66.95199592 13.31719017 68.83542633 C13.33893507 71.47151307 13.34196816 74.10700222 13.34057617 76.74316406 C13.351362 77.52359573 13.36214783 78.3040274 13.3732605 79.10810852 C13.35493835 82.31005433 13.21018338 84.61335935 11.66621399 87.45355225 C8.40699384 90.47850205 4.93762488 90.13340115 0.71255493 90.15390015 C-0.60536545 90.16250061 -1.92328583 90.17110107 -3.28114319 90.17996216 C-4.74520835 90.18439726 -6.20927392 90.18869563 -7.67333984 90.19287109 C-9.21245 90.2007731 -10.75155831 90.20904211 -12.29066467 90.21765137 C-17.34740432 90.24385425 -22.40415219 90.2591746 -27.4609375 90.2734375 C-29.20146312 90.27879739 -30.94198868 90.2841749 -32.68251419 90.28956985 C-39.92103801 90.31119365 -47.1595596 90.32993158 -54.39810753 90.34119225 C-64.77484645 90.35744106 -75.15121152 90.39064694 -85.5278095 90.44759309 C-92.82300462 90.48626587 -100.11809962 90.50582161 -107.41339457 90.51111281 C-111.77152817 90.51476918 -116.12926287 90.52682083 -120.48728561 90.55921555 C-124.58648036 90.58925059 -128.68503386 90.59562468 -132.78431511 90.58383179 C-134.28837027 90.58361068 -135.7924548 90.5919463 -137.2964077 90.60948563 C-139.35124114 90.63214447 -141.40374252 90.62390224 -143.45858765 90.60800171 C-144.60785421 90.61131186 -145.75712078 90.614622 -146.94121361 90.61803246 C-150.99603656 89.79874929 -152.49840458 88.23741343 -155 85 C-155.62296556 82.14432587 -155.25085388 79.96007574 -155 77 C-154.2245518 76.99761165 -153.4491036 76.99522329 -152.65015697 76.99276257 C-133.79720433 76.93367216 -114.94438328 76.85816052 -96.09157085 76.76428509 C-86.97455182 76.71928552 -77.8575722 76.67988054 -68.74047852 76.65356445 C-60.79565862 76.63061798 -52.85096306 76.59725771 -44.90624171 76.55129844 C-40.69806709 76.52732082 -36.49001595 76.50862189 -32.28177452 76.50238609 C-28.32301902 76.49635564 -24.36457967 76.47643041 -20.40594101 76.44572449 C-18.95108418 76.43691137 -17.49618609 76.43322842 -16.04130363 76.43499184 C-14.05860209 76.43663662 -12.07591381 76.41822923 -10.0933075 76.39872742 C-8.98254695 76.39411845 -7.8717864 76.38950949 -6.72736645 76.38476086 C-3.99648712 76.21414459 -3.99648712 76.21414459 -2.14408875 74.6708374 C-0.25673712 71.91453226 -0.59593561 69.24771741 -0.56762695 65.95825195 C-0.5574353 65.24580322 -0.54724365 64.53335449 -0.53674316 63.79931641 C-0.50656049 61.44555858 -0.49733953 59.09220735 -0.48828125 56.73828125 C-0.4714384 55.10587709 -0.4532887 53.47348594 -0.43388367 51.84111023 C-0.3863344 47.54544131 -0.35655708 43.24982509 -0.33044434 38.95397949 C-0.30066354 34.57012522 -0.25412475 30.18645264 -0.20898438 25.80273438 C-0.12289527 17.20191207 -0.05557512 8.60107333 0 0 Z " fill="#B2E39D" transform="translate(330,407)"/>
<path d="M0 0 C5.62185506 4.30610175 8.41932762 9.47972966 9.5 16.453125 C9.91269204 24.1422293 7.75790583 30.57462694 2.6640625 36.41015625 C-3.14039462 41.63728833 -9.43028356 43.42639187 -17.06640625 43.1953125 C-23.14723486 42.31113166 -28.67783303 39.51624629 -32.8515625 34.96875 C-37.03943582 28.49658214 -38.90380866 22.52296312 -37.9140625 14.78125 C-36.4488862 8.56844817 -33.50846163 3.30944534 -28.17578125 -0.44140625 C-19.01298826 -5.91553739 -8.98946612 -5.72390496 0 0 Z " fill="#010100" transform="translate(126.9140625,204.21875)"/>
<path d="M0 0 C6.39815159 4.59253826 10.21551137 10.06654918 11.625 17.8125 C11.88224387 24.44939182 10.45464797 30.34854366 6.625 35.8125 C0.88618108 41.55131892 -4.34051662 43.94917044 -12.3125 44.25 C-19.40612383 44.05492534 -23.71535373 41.98857422 -29.125 37.5625 C-34.55308775 30.92817053 -36.06415913 25.59065001 -35.75390625 16.93359375 C-35.0060577 10.77348045 -32.64268191 6.74796415 -28.1875 2.5 C-19.94236053 -3.90705105 -9.23067062 -5.37152019 0 0 Z " fill="#000000" transform="translate(498.375,234.1875)"/>
<path d="M0 0 C1.17426264 2.34852528 1.11508173 3.73774065 1.09765625 6.3515625 C1.09443359 7.20234375 1.09121094 8.053125 1.08789062 8.9296875 C1.07532227 10.26386719 1.07532227 10.26386719 1.0625 11.625 C1.05798828 12.5221875 1.05347656 13.419375 1.04882812 14.34375 C1.03702591 16.56256648 1.02056155 18.78125018 1 21 C1.96421875 20.95359375 2.9284375 20.9071875 3.921875 20.859375 C5.18515625 20.82328125 6.4484375 20.7871875 7.75 20.75 C9.00296875 20.70359375 10.2559375 20.6571875 11.546875 20.609375 C15 21 15 21 17.39453125 22.86328125 C19.29369885 25.39088387 19.92277544 26.83379292 20 30 C18.37844371 33.48634601 17.23546708 34.84302194 14 37 C10.86328125 37.1953125 10.86328125 37.1953125 7.3125 37.125 C6.13300781 37.10695312 4.95351563 37.08890625 3.73828125 37.0703125 C2.38283203 37.03550781 2.38283203 37.03550781 1 37 C1.02618408 37.55461914 1.05236816 38.10923828 1.0793457 38.68066406 C1.18354003 41.20348569 1.24838891 43.72585489 1.3125 46.25 C1.35439453 47.12269531 1.39628906 47.99539062 1.43945312 48.89453125 C1.56313477 55.37544952 1.56313477 55.37544952 -1.328125 58.58203125 C-4.56138483 60.29792791 -6.3877311 60.5379975 -10 60 C-13.1359157 58.22015595 -13.84102736 57.47691793 -15 54 C-15.07973476 52.66474283 -15.10771338 51.32587917 -15.09765625 49.98828125 C-15.09443359 49.23095703 -15.09121094 48.47363281 -15.08789062 47.69335938 C-15.07951172 46.90767578 -15.07113281 46.12199219 -15.0625 45.3125 C-15.05798828 44.51521484 -15.05347656 43.71792969 -15.04882812 42.89648438 C-15.0370585 40.93095743 -15.01912348 38.96546915 -15 37 C-16.21236328 37.05220703 -16.21236328 37.05220703 -17.44921875 37.10546875 C-18.51785156 37.13253906 -19.58648437 37.15960938 -20.6875 37.1875 C-22.27111328 37.23970703 -22.27111328 37.23970703 -23.88671875 37.29296875 C-27.39065615 36.96323813 -29.19698511 36.08584712 -32 34 C-33.54586876 30.90826248 -33.29359521 28.40570448 -33 25 C-31.43359375 22.7890625 -31.43359375 22.7890625 -29 21 C-25.546875 20.609375 -25.546875 20.609375 -21.75 20.75 C-20.48671875 20.78609375 -19.2234375 20.8221875 -17.921875 20.859375 C-16.47554688 20.92898437 -16.47554688 20.92898437 -15 21 C-15.04640625 19.75863281 -15.0928125 18.51726562 -15.140625 17.23828125 C-15.17815421 15.59637829 -15.21455314 13.95444923 -15.25 12.3125 C-15.28351563 11.49587891 -15.31703125 10.67925781 -15.3515625 9.83789062 C-15.41874864 5.68914624 -15.36178955 3.57425734 -13.09765625 -0.01953125 C-8.41939372 -4.43643833 -5.4950948 -2.79938792 0 0 Z " fill="#000000" transform="translate(424,198)"/>
<path d="M0 0 C2.38012202 2.15792032 3.8270892 3.86035463 4.31811523 7.09667969 C4.39337113 9.51399013 4.34917053 11.89617194 4.25 14.3125 C4.23195312 15.14845703 4.21390625 15.98441406 4.1953125 16.84570312 C4.14841126 18.89763228 4.07667411 20.94896756 4 23 C4.96421875 22.95359375 5.9284375 22.9071875 6.921875 22.859375 C8.18515625 22.82328125 9.4484375 22.7871875 10.75 22.75 C12.00296875 22.70359375 13.2559375 22.6571875 14.546875 22.609375 C18 23 18 23 20.421875 24.796875 C22.72087891 28.0063755 22.5498843 30.15080991 22 34 C20.421875 36.203125 20.421875 36.203125 18 38 C14.546875 38.390625 14.546875 38.390625 10.75 38.25 C9.48671875 38.21390625 8.2234375 38.1778125 6.921875 38.140625 C5.95765625 38.09421875 4.9934375 38.0478125 4 38 C4.04640625 39.24136719 4.0928125 40.48273438 4.140625 41.76171875 C4.17815421 43.40362171 4.21455314 45.04555077 4.25 46.6875 C4.30027344 47.91243164 4.30027344 47.91243164 4.3515625 49.16210938 C4.4176198 53.24114757 4.33448826 55.43985914 2.19921875 59.015625 C-0.86149876 61.77733813 -2.91235845 62.07171301 -7 62 C-9.703125 60.63671875 -9.703125 60.63671875 -12 58 C-12.62097612 54.56580811 -12.47069426 51.22540621 -12.3125 47.75 C-12.28994141 46.81414062 -12.26738281 45.87828125 -12.24414062 44.9140625 C-12.18530595 42.60774326 -12.10317146 40.30469162 -12 38 C-13.04800781 38.03480469 -14.09601563 38.06960938 -15.17578125 38.10546875 C-16.55467147 38.13360937 -17.93357902 38.16090924 -19.3125 38.1875 C-20.00279297 38.21263672 -20.69308594 38.23777344 -21.40429688 38.26367188 C-26.51178054 38.33769338 -26.51178054 38.33769338 -28.92578125 36.66796875 C-30.58388797 34.09338123 -30.87817824 32.04554405 -31 29 C-29.86220128 26.67268444 -28.83159286 24.83159286 -27 23 C-24.46950598 22.92686433 -21.96695163 22.90752473 -19.4375 22.9375 C-18.72658203 22.94201172 -18.01566406 22.94652344 -17.28320312 22.95117188 C-15.52209987 22.96299136 -13.76103964 22.98092737 -12 23 C-12.01571045 22.40985107 -12.0314209 21.81970215 -12.04760742 21.21166992 C-12.10997939 18.53704414 -12.14899657 15.86257136 -12.1875 13.1875 C-12.21263672 12.25873047 -12.23777344 11.32996094 -12.26367188 10.37304688 C-12.27333984 9.48037109 -12.28300781 8.58769531 -12.29296875 7.66796875 C-12.3086792 6.84578857 -12.32438965 6.0236084 -12.34057617 5.17651367 C-11.91656115 2.46676893 -11.15876456 1.6434649 -9 0 C-5.39297148 -1.20234284 -3.64185324 -1.0405295 0 0 Z " fill="#000000" transform="translate(123,343)"/>
<path d="M0 0 C1.86480289 2.79720434 2.3589135 4.00565721 2.9296875 7.16796875 C3.08566406 7.97943359 3.24164063 8.79089844 3.40234375 9.62695312 C3.71370488 11.31370701 4.02109741 13.00119904 4.32421875 14.68945312 C5.64889712 21.52285496 7.53681645 28.31318131 13 33 C15.46188533 33.95362685 17.85813887 34.79237936 20.375 35.5625 C24.64375946 36.90899346 28.8674505 38.26879683 33 40 C28.97478642 42.68347572 24.59614177 43.69082232 19.98046875 44.96875 C15.55898407 46.26967101 12.35787687 47.68605797 9 51 C6.13285323 57.6517805 4.87268233 64.80007131 3.44506836 71.87939453 C2.21407097 77.78592903 2.21407097 77.78592903 0 80 C-0.13575439 79.33468262 -0.27150879 78.66936523 -0.41137695 77.98388672 C-1.03641246 74.94573275 -1.67433016 71.91042104 -2.3125 68.875 C-2.52583984 67.82828125 -2.73917969 66.7815625 -2.95898438 65.703125 C-4.86845659 56.38222647 -4.86845659 56.38222647 -10.2890625 48.7578125 C-13.28418582 46.81572966 -15.94455693 45.84465018 -19.375 44.875 C-20.51066406 44.54757812 -21.64632813 44.22015625 -22.81640625 43.8828125 C-23.86699219 43.59148437 -24.91757812 43.30015625 -26 43 C-27.43766295 42.58389593 -28.8752052 42.16737395 -30.3125 41.75 C-31.199375 41.5025 -32.08625 41.255 -33 41 C-32 39 -32 39 -30.12988281 38.30151367 C-29.32905273 38.09244385 -28.52822266 37.88337402 -27.703125 37.66796875 C-26.38828125 37.30541992 -26.38828125 37.30541992 -25.046875 36.93554688 C-23.1997852 36.44152775 -21.35083496 35.95440679 -19.5 35.47460938 C-14.11010791 33.97347715 -10.37552408 32.73483917 -7 28 C-5.80904522 25.16420515 -5.03695756 22.29767399 -4.3125 19.3125 C-4.10536377 18.51537598 -3.89822754 17.71825195 -3.68481445 16.89697266 C-2.2528652 11.30230086 -1.00897393 5.68694396 0 0 Z " fill="#EDD3A2" transform="translate(440,311)"/>
<path d="M0 0 C1.84712202 2.77068304 2.36776181 4.00484205 2.96484375 7.1328125 C3.12533203 7.93976563 3.28582031 8.74671875 3.45117188 9.578125 C3.61166016 10.41859375 3.77214844 11.2590625 3.9375 12.125 C4.89770133 17.13543326 5.92923939 22.09723396 7.37890625 26.9921875 C7.59232666 27.71519043 7.80574707 28.43819336 8.02563477 29.18310547 C10.2804354 33.38762222 16.15815955 34.1195676 20.4375 35.5 C24.67947248 36.87645125 28.87977938 38.2852261 33 40 C28.97478642 42.68347572 24.59614177 43.69082232 19.98046875 44.96875 C15.55898407 46.26967101 12.35787687 47.68605797 9 51 C6.13285323 57.6517805 4.87268233 64.80007131 3.44506836 71.87939453 C2.21407097 77.78592903 2.21407097 77.78592903 0 80 C-0.13575439 79.33468262 -0.27150879 78.66936523 -0.41137695 77.98388672 C-1.03641246 74.94573275 -1.67433016 71.91042104 -2.3125 68.875 C-2.52583984 67.82828125 -2.73917969 66.7815625 -2.95898438 65.703125 C-4.86845659 56.38222647 -4.86845659 56.38222647 -10.2890625 48.7578125 C-13.28418582 46.81572966 -15.94455693 45.84465018 -19.375 44.875 C-20.51066406 44.54757812 -21.64632812 44.22015625 -22.81640625 43.8828125 C-23.86699219 43.59148437 -24.91757812 43.30015625 -26 43 C-27.43766295 42.58389593 -28.8752052 42.16737395 -30.3125 41.75 C-31.199375 41.5025 -32.08625 41.255 -33 41 C-32 39 -32 39 -30.12988281 38.30151367 C-29.32905273 38.09244385 -28.52822266 37.88337402 -27.703125 37.66796875 C-26.38828125 37.30541992 -26.38828125 37.30541992 -25.046875 36.93554688 C-23.1997852 36.44152775 -21.35083496 35.95440679 -19.5 35.47460938 C-14.11010791 33.97347715 -10.37552408 32.73483917 -7 28 C-5.80904522 25.16420515 -5.03695756 22.29767399 -4.3125 19.3125 C-4.10536377 18.51537598 -3.89822754 17.71825195 -3.68481445 16.89697266 C-2.2528652 11.30230086 -1.00897393 5.68694396 0 0 Z " fill="#EDD4A2" transform="translate(60,251)"/>
<path d="M0 0 C0.66 0.33 1.32 0.66 2 1 C3.57682621 1.09835376 5.15767089 1.13551788 6.73754883 1.1418457 C7.72229691 1.14888016 8.70704498 1.15591461 9.72163391 1.16316223 C10.78931503 1.16732651 11.85699615 1.17149078 12.95703125 1.17578125 C15.20638956 1.19897989 17.45573855 1.22309725 19.70507812 1.24804688 C23.26023589 1.28317349 26.8150511 1.31250963 30.37036133 1.32592773 C33.79550918 1.34139384 37.21964925 1.38159845 40.64453125 1.42578125 C41.70613968 1.42387283 42.76774811 1.42196442 43.86152649 1.41999817 C48.13180989 1.49082964 51.24973384 1.64875834 55.1472168 3.47338867 C57.8103134 7.10501164 57.89622083 10.58466785 58 15 C50.63731904 15.09273534 43.27476427 15.16378235 35.91161728 15.20724869 C32.4924632 15.22811201 29.07370906 15.25640505 25.65478516 15.30175781 C21.72303069 15.35358618 17.79143743 15.37295578 13.859375 15.390625 C12.02013458 15.42159271 12.02013458 15.42159271 10.14373779 15.45318604 C9.00285706 15.45348816 7.86197632 15.45379028 6.68652344 15.45410156 C5.68280701 15.46298401 4.67909058 15.47186646 3.6449585 15.48101807 C0.27971122 14.86900667 -0.89467638 13.63708022 -3 11 C-3.70882303 8.09215119 -3.33971789 6.057461 -3 3 C-1.5 1 -1.5 1 0 0 Z " fill="#AFE09B" transform="translate(110,134)"/>
<path d="M0 0 C2.562964 2.23225897 2.93752331 3.58051369 3.4375 6.9375 C2.87499856 10.87501007 2.03727005 12.41832046 -1 15 C-3.8229596 15.71730941 -6.1770404 15.71730941 -9 15 C-12.02791041 12.42627616 -12.86162709 10.84753406 -13.5 6.9375 C-12.88967138 3.35181933 -11.80986461 2.23136307 -9 0 C-5.8168485 -1.59157575 -3.38676935 -0.77242108 0 0 Z " fill="#000000" transform="translate(55,174)"/>
<path d="M0 0 C2.4375 1.5 2.4375 1.5 4 4 C4.61014545 6.8089715 4.65360928 9.19636021 4 12 C1.9375 14.5625 1.9375 14.5625 -1 16 C-4.49672962 15.93971156 -6.8982551 15.69777177 -9.875 13.8125 C-11.52261692 11.15800608 -11.87533099 9.11672513 -12 6 C-9.1840965 -0.03407893 -6.51096853 -0.56129039 0 0 Z " fill="#000000" transform="translate(402,412)"/>
<path d="M0 0 C2.81972931 2.36493426 2.97850831 3.8280665 3.4375 7.5 C3 11 3 11 1.4375 13.4375 C-1.91852406 15.58879747 -4.08421671 15.48947291 -8 15 C-10.375 13.9375 -10.375 13.9375 -12 12 C-13 8.625 -13 8.625 -13 5 C-9.2639274 -0.92618413 -6.74205685 -1.53766209 0 0 Z " fill="#000000" transform="translate(476,172)"/>
<path d="M0 0 C2.875 1.5625 2.875 1.5625 5 4 C5.80740332 8.44071826 5.50331836 10.26790056 2.9375 14 C0 16 0 16 -3.5625 16.125 C-7.66488116 14.78240253 -9.00630003 13.82125828 -11 10 C-11 6.1862249 -10.84985071 3.97575452 -8.3125 1.0625 C-5.24716836 -0.34589562 -3.34404315 -0.47772045 0 0 Z " fill="#ECD3A1" transform="translate(489,247)"/>
<path d="M0 0 C2.4375 1.5625 2.4375 1.5625 4 4 C4.56288002 7.94016013 4.60396028 10.05782196 2.4375 13.4375 C-0.94217804 15.60396028 -3.05983987 15.56288002 -7 15 C-9.4375 13.4375 -9.4375 13.4375 -11 11 C-11.56288002 7.05983987 -11.60396028 4.94217804 -9.4375 1.5625 C-6.05782196 -0.60396028 -3.94016013 -0.56288002 0 0 Z " fill="#F0D6A4" transform="translate(116,216)"/>
<path d="M0 0 C0.99 0.66 1.98 1.32 3 2 C3.65975009 6.37084437 3.46225618 8.32762738 0.9375 12 C-2 14 -2 14 -5.6875 14 C-9 13 -9 13 -11 10 C-10.278125 9.79375 -9.55625 9.5875 -8.8125 9.375 C-4.65471282 7.34230405 -2.08589756 4.17179512 0 0 Z " fill="#E5C382" transform="translate(491,249)"/>
<path d="M0 0 C1.5 1.0625 1.5 1.0625 3 3 C3.49573337 6.89504791 3.58016848 9.09493717 1.4375 12.4375 C-1.90506283 14.58016848 -4.10495209 14.49573337 -8 14 C-9.9375 12.5 -9.9375 12.5 -11 11 C-5.25 8 -5.25 8 -3 8 C-1.92474806 5.34771188 -0.90543849 2.71631546 0 0 Z " fill="#EBC886" transform="translate(117,217)"/>
</svg>
