<?xml version="1.0" encoding="UTF-8"?>
<svg version="1.1" xmlns="http://www.w3.org/2000/svg" width="512" height="512">
<path d="M0 0 C6.10660873 5.61710102 10.87319301 12.6842402 15.8659668 19.27978516 C19.69243106 24.32863032 23.61234889 29.28554247 27.625 34.1875 C33.05411764 40.82128672 38.38119052 47.52627976 43.65722656 54.28222656 C45.93233918 57.19271608 48.21663043 60.09598707 50.5 63 C53.24054626 66.48651101 55.98009632 69.97378158 58.71484375 73.46484375 C63.44612756 79.5013093 68.20218208 85.51623932 73 91.5 C78.25965762 98.05975966 83.46535319 104.66008838 88.64990234 111.27929688 C90.43590491 113.55556199 92.22958569 115.82572428 94.02294922 118.09619141 C95.38353094 119.82332927 96.73718618 121.55571398 98.08984375 123.2890625 C100.18310517 125.97035128 102.30698045 128.62482799 104.44140625 131.2734375 C116.06632478 145.85222877 116.06632478 145.85222877 118 155 C118.16757812 155.74121094 118.33515625 156.48242188 118.5078125 157.24609375 C120.42697269 168.69980511 115.91070705 179.68728242 111.75 190.125 C111.4958646 190.76436273 111.2417292 191.40372545 110.97989273 192.06246281 C107.28418011 201.35677485 103.52046046 210.61902291 99.68554497 219.85684013 C93.35439249 235.1252972 87.18614322 250.4574536 81.05859375 265.80859375 C80.62747158 266.88846054 80.19634941 267.96832733 79.75216293 269.08091736 C75.73022001 279.15680614 71.71354396 289.23479286 67.69799805 299.31323242 C65.4730381 304.89705293 63.24551877 310.47984715 61.01652718 316.0620594 C59.77765758 319.16698664 58.54179284 322.27309842 57.30601501 325.3792572 C42.58287757 362.30311131 42.58287757 362.30311131 28.03106976 368.86297894 C17.39123144 372.85421677 5.27919659 373.79605671 -5.92114258 375.36010742 C-7.45082783 375.57696047 -8.98046404 375.79415962 -10.51005554 376.01167297 C-14.61707142 376.59438527 -18.72486556 377.17140658 -22.83293748 377.74662185 C-25.41108432 378.10778763 -27.98907544 378.47004579 -30.56702232 378.83263588 C-39.59323157 380.10192942 -48.62016543 381.36593773 -57.64770508 382.62573242 C-66.01120979 383.79302879 -74.37286979 384.97294629 -82.73379785 386.15854377 C-89.95772782 387.18225541 -97.18297082 388.19632967 -104.40925521 389.20328599 C-108.70515576 389.8021022 -113.00043411 390.40471112 -117.2943821 391.01738548 C-121.33711979 391.59393184 -125.38138642 392.15830388 -129.42703438 392.71404839 C-130.89557864 392.91777505 -132.36356842 393.1255555 -133.83086014 393.33811569 C-141.77001743 394.48549478 -149.59086421 395.18692871 -157.61308289 395.24433899 C-158.35418393 395.25316768 -159.09528497 395.26199637 -159.85884362 395.27109259 C-170.36061245 395.20953024 -178.06151036 390.83322481 -185.5078125 383.63671875 C-192.77963559 375.94317551 -199.30973144 367.66546831 -205.79785156 359.31079102 C-209.62864732 354.4038602 -213.64980423 349.68133708 -217.72363281 344.97558594 C-221.27549186 340.86693644 -224.70880243 336.68225808 -228.078125 332.421875 C-231.66377294 327.90337556 -235.34152315 323.45955713 -239 319 C-240.39596765 317.29177642 -241.79179898 315.58344143 -243.1875 313.875 C-247.11445511 309.07462405 -251.05606968 304.28643525 -255 299.5 C-260.34685204 293.01094999 -265.68056318 286.51155167 -271 280 C-272.49985696 278.16654964 -273.9998594 276.33321829 -275.5 274.5 C-284.5 263.5 -284.5 263.5 -286.73828125 260.7578125 C-288.268891 258.89147315 -289.80823207 257.03226608 -291.35546875 255.1796875 C-301.97649578 242.40599001 -310.02195944 231.01577884 -308.53237915 213.66824341 C-307.84696571 210.23300392 -306.65605956 207.05613612 -305.39599609 203.80029297 C-305.1291803 203.10058758 -304.8623645 202.40088219 -304.58746338 201.6799736 C-301.45630324 193.50805995 -298.20101036 185.38534402 -294.9375 177.265625 C-294.24563503 175.54043834 -293.55390771 173.81519647 -292.86230469 172.08990479 C-290.97733733 167.38932813 -289.08986492 162.68976152 -287.20159912 157.99050903 C-285.97733502 154.94359199 -284.75350938 151.89649914 -283.52978516 148.84936523 C-277.81095814 134.60996695 -272.08705221 120.37261311 -266.3616333 106.13586426 C-262.73250263 97.11159625 -259.10387789 88.08712484 -255.47546387 79.06256866 C-254.23283545 75.97212523 -252.98996873 72.88177772 -251.74707031 69.79144287 C-251.35853378 68.82495945 -250.96999725 67.85847603 -250.56968689 66.86270523 C-249.81095615 64.97616431 -249.05150334 63.08991361 -248.29127502 61.20397568 C-246.43126572 56.58515912 -244.58862307 51.96056169 -242.77612305 47.32287598 C-242.41782913 46.41142948 -242.05953522 45.49998299 -241.69038391 44.5609169 C-241.01824588 42.84907626 -240.35095684 41.13531996 -239.68962097 39.41927719 C-237.34794301 33.47233821 -234.5985403 28.52504765 -230 24 C-229.15308594 23.15115234 -229.15308594 23.15115234 -228.2890625 22.28515625 C-217.38977762 12.19961888 -203.26316281 11.53313336 -189.19604492 9.84521484 C-187.49987937 9.63838917 -185.80375932 9.43119013 -184.10768127 9.22364807 C-179.52129322 8.6636937 -174.93422996 8.10947255 -170.34697127 7.55670118 C-166.50760669 7.09358879 -162.66856521 6.62782755 -158.82951337 6.16213095 C-149.76664786 5.06287363 -140.70320715 3.96845252 -131.6394043 2.87695312 C-122.31198228 1.75361298 -112.98562696 0.62171304 -103.6597473 -0.51435435 C-95.63204004 -1.49194655 -87.60367184 -2.46397364 -79.57476312 -3.43164861 C-74.78869841 -4.00855238 -70.00291228 -4.58755617 -65.2177639 -5.17201614 C-60.7147636 -5.72178622 -56.21097268 -6.26456346 -51.70650291 -6.80215645 C-50.06158904 -6.99962707 -48.41696011 -7.19948974 -46.77266312 -7.40203285 C-29.56997071 -9.51800077 -14.60422169 -10.92289218 0 0 Z M-40.37588501 5.78378296 C-41.08479271 5.86812643 -41.79370042 5.95246989 -42.52409017 6.03936923 C-44.88195143 6.32094946 -47.23905049 6.6084529 -49.59619141 6.89599609 C-51.29348253 7.09998327 -52.99081542 7.30362315 -54.68818665 7.50694275 C-59.28556045 8.05882268 -63.88226987 8.61605828 -68.47883272 9.17464781 C-72.31835144 9.64081924 -76.15816296 10.10455389 -79.99796903 10.56835139 C-89.05478863 11.66241058 -98.1110503 12.76100587 -107.16699219 13.86230469 C-116.50874036 14.9982691 -125.851449 16.12607051 -135.19465697 17.24995935 C-143.22088814 18.21575024 -151.24646647 19.18683874 -159.27154863 20.16213095 C-164.06280079 20.74434408 -168.85428145 21.3244821 -173.6464119 21.89942551 C-178.1500531 22.43997025 -182.65284395 22.98711415 -187.15506554 23.53935432 C-188.80716403 23.74087186 -190.45955018 23.94004693 -192.11223412 24.1367054 C-194.3683446 24.40554255 -196.62326219 24.68282531 -198.87808228 24.96224976 C-200.14014307 25.11526739 -201.40220387 25.26828503 -202.70250893 25.42593956 C-205.73192965 25.95333161 -208.21138177 26.73094781 -211 28 C-208.41665257 30.01958182 -205.88503051 31.68226262 -202.95329285 33.14697266 C-201.75802223 33.74775383 -201.75802223 33.74775383 -200.53860474 34.360672 C-199.6727475 34.79079086 -198.80689026 35.22090973 -197.91479492 35.6640625 C-196.99530563 36.12475632 -196.07581635 36.58545013 -195.12846375 37.06010437 C-192.08107373 38.58565406 -189.0308352 40.10541159 -185.98046875 41.625 C-183.84395482 42.69266011 -181.70758939 43.7606174 -179.57136536 44.82885742 C-175.07932726 47.07409342 -170.58595748 49.31663423 -166.09155273 51.55712891 C-160.39721275 54.39589839 -154.70544348 57.23977374 -149.01461315 60.08557129 C-144.59063881 62.29742066 -140.16561341 64.50716049 -135.74025917 66.71624756 C-133.64618263 67.76171868 -131.55233118 68.80764082 -129.4587307 69.85406494 C-117.64990741 75.75404117 -105.80939262 81.57456612 -93.880229 87.22798157 C-87.02514354 90.48187971 -80.23733023 93.85509069 -73.50426197 97.3547821 C-69.46267496 99.44785171 -69.46267496 99.44785171 -65 100 C-64.51345947 98.82123291 -64.02691895 97.64246582 -63.52563477 96.42797852 C-61.63375886 91.84470634 -59.74151404 87.26158655 -57.84912109 82.67852783 C-56.9924583 80.6038027 -56.13585009 78.52905504 -55.27929688 76.45428467 C-50.54929786 64.99781504 -45.81424337 53.54350526 -41.05859375 42.09765625 C-40.67047012 41.16319168 -40.2823465 40.22872711 -39.88246155 39.26594543 C-38.03867808 34.82705011 -36.19348759 30.38874898 -34.34594727 25.95141602 C-33.67849272 24.34523789 -33.01109073 22.73903792 -32.34375 21.1328125 C-31.89962013 20.06843712 -31.89962013 20.06843712 -31.44651794 18.9825592 C-29.52705055 14.35751532 -27.73661581 9.69687581 -26 5 C-30.8686647 4.92152091 -35.54312385 5.20107399 -40.37588501 5.78378296 Z M-13 9 C-21.03802808 28.02382415 -29.05089628 47.05809659 -36.97390747 66.13015747 C-37.68795447 67.84860643 -38.4026735 69.56677633 -39.11813354 71.28463745 C-43.91026466 82.79484976 -48.53026803 94.36074474 -53 106 C-45.20508257 109.2609244 -37.26370477 112.04719108 -29.26953125 114.76953125 C-27.21772962 115.4684145 -25.16733834 116.17129147 -23.1171875 116.875 C-11.74467672 120.76799929 -0.33691897 124.55505211 11.06871796 128.34952545 C23.26929204 132.40982695 35.45546678 136.51121038 47.6328125 140.640625 C49.25747064 141.19126169 50.88213493 141.74188022 52.50680542 142.29248047 C59.07537344 144.51897583 65.64364407 146.7463372 72.21044922 148.97802734 C76.32294737 150.3755077 80.43642147 151.77008002 84.55056381 153.1627121 C86.09555241 153.68631789 87.64016717 154.21102815 89.18439102 154.73688507 C91.30576014 155.45918562 93.42834733 156.1777872 95.55126953 156.89550781 C96.75284698 157.30343567 97.95442444 157.71136353 99.19241333 158.13165283 C101.82864933 159.09849212 101.82864933 159.09849212 104 159 C102.21711587 152.17494272 99.54965925 147.53574032 94.9375 142.25 C93.76030306 140.85275401 92.58453725 139.45430111 91.41015625 138.0546875 C90.83023926 137.36987305 90.25032227 136.68505859 89.65283203 135.97949219 C87.30989995 133.1735109 85.08417821 130.28671037 82.875 127.375 C75.21525332 117.34320273 67.37840224 107.45529357 59.4831543 97.6081543 C54.73505738 91.68128303 50.04200303 85.71215367 45.35888672 79.73388672 C43.07546697 76.82033173 40.78749197 73.91035807 38.5 71 C37.58331177 69.83335027 36.6666451 68.66668361 35.75 67.5 C35.069375 66.63375 35.069375 66.63375 34.375 65.75 C30.25 60.5 30.25 60.5 28.87524414 58.75024414 C27.95784991 57.5826959 27.04036933 56.41521551 26.12280273 55.24780273 C23.84155755 52.3451721 21.56178786 49.44140726 19.28515625 46.53515625 C13.98929131 39.77819915 8.6666878 33.04382731 3.28735352 26.35302734 C1.03626964 23.5529437 -1.19708541 20.74504285 -3.39453125 17.90234375 C-4.08933594 17.00644531 -4.78414063 16.11054687 -5.5 15.1875 C-6.38171875 14.03314453 -6.38171875 14.03314453 -7.28125 12.85546875 C-9.08478791 10.9084676 -10.62257907 10.11050583 -13 9 Z M-215 43 C-218.31969062 81.566994 -221.35429318 120.15377322 -224.3125 158.75 C-224.40388245 159.94225189 -224.49526489 161.13450378 -224.5894165 162.36288452 C-225.72952764 177.24167519 -226.86630452 192.12071917 -228 207 C-226.58438535 206.22348244 -225.17000037 205.44472295 -223.75611877 204.66505432 C-222.5744631 204.01491788 -222.5744631 204.01491788 -221.36893559 203.35164738 C-217.69512723 201.25547665 -214.21149049 198.90356804 -210.71484375 196.52734375 C-209.12916601 195.46014668 -207.54304898 194.39360208 -205.95654297 193.32763672 C-204.73363556 192.50474152 -204.73363556 192.50474152 -203.48602295 191.66522217 C-199.38460351 188.91795285 -195.25671998 186.21128781 -191.12890625 183.50390625 C-189.40389987 182.37095845 -187.67896635 181.2378997 -185.95410156 180.10473633 C-184.63641785 179.23916611 -184.63641785 179.23916611 -183.29211426 178.35610962 C-164.91992332 166.28387696 -146.64336235 154.07855434 -128.46313477 141.71899414 C-119.580341 135.69041401 -110.63316947 129.82120654 -101.50097656 124.17749023 C-96.93001927 121.34872692 -92.45638293 118.38028315 -88 115.375 C-87.21367187 114.84777344 -86.42734375 114.32054687 -85.6171875 113.77734375 C-83.74327919 112.52045403 -81.87087251 111.26140182 -80 110 C-82.65146704 107.92102642 -85.26230632 106.244109 -88.27449036 104.73913574 C-89.12182236 104.3133725 -89.96915436 103.88760925 -90.84216309 103.44894409 C-91.76412476 102.99077301 -92.68608643 102.53260193 -93.63598633 102.06054688 C-94.61399704 101.57059235 -95.59200775 101.08063782 -96.59965515 100.57583618 C-99.84183783 98.95288967 -103.08687183 97.33573513 -106.33203125 95.71875 C-108.60306663 94.58382908 -110.87395359 93.44861113 -113.1446991 92.31311035 C-117.91920798 89.92663901 -122.69500008 87.54276471 -127.47192383 85.16113281 C-132.93215114 82.43879922 -138.39034393 79.71242465 -143.84731466 76.98356962 C-149.14611745 74.33385815 -154.44610361 71.68652253 -159.74664879 69.04029846 C-161.97469824 67.92784271 -164.2025213 66.8149334 -166.43009377 65.70152283 C-177.8536301 59.99378288 -189.29790518 54.33187617 -200.8034668 48.79101562 C-201.77125218 48.3222274 -202.73903757 47.85343918 -203.73614979 47.37044525 C-204.63236388 46.94128059 -205.52857798 46.51211594 -206.45195007 46.06994629 C-207.23637828 45.6929081 -208.02080648 45.3158699 -208.82900524 44.92740631 C-210.87787718 44.05216847 -212.82615252 43.4695853 -215 43 Z M-231 56 C-244.39883713 88.691311 -257.63709324 121.44383071 -270.74090576 154.25445557 C-272.5405289 158.75904035 -274.34215968 163.26282108 -276.14379215 167.76660252 C-277.89884809 172.15437809 -279.65300746 176.54251163 -281.40685844 180.93076897 C-282.23312642 182.9980164 -283.05959501 185.06518365 -283.88627815 187.13226509 C-285.02669633 189.98439702 -286.165979 192.83697984 -287.30493164 195.68969727 C-287.80266586 196.93369293 -287.80266586 196.93369293 -288.31045532 198.20281982 C-289.21330054 200.46610794 -290.10835041 202.73228107 -291 205 C-291.29324095 205.73625044 -291.5864819 206.47250088 -291.88860893 207.23106194 C-293.49662072 211.35862611 -294.3337416 214.55011206 -294 219 C-280.07671471 219.09552602 -266.16297828 219.18166395 -252.25 218.5625 C-251.32300293 218.52326416 -250.39600586 218.48402832 -249.44091797 218.44360352 C-245.39313406 218.62313804 -245.39313406 218.62313804 -242 217 C-241.77185855 215.24863782 -241.60780564 213.48889652 -241.46887207 211.72821045 C-241.37638687 210.5844696 -241.28390167 209.44072876 -241.18861389 208.2623291 C-241.04207619 206.36275452 -241.04207619 206.36275452 -240.89257812 204.42480469 C-240.78607234 203.08613003 -240.67916488 201.74748729 -240.57188416 200.40887451 C-240.28058995 196.75973301 -239.99496622 193.11016676 -239.71031761 189.46050167 C-239.41107533 185.63594708 -239.10669129 181.81180185 -238.80285645 177.98760986 C-238.22666737 170.72543586 -237.6551701 163.46290042 -237.08531427 156.20022702 C-236.44073551 147.98821542 -235.7908626 139.7766256 -235.14056873 131.56506491 C-234.12609837 118.75295565 -233.11458089 105.94061578 -232.10742188 93.12792969 C-231.96088417 91.26479126 -231.96088417 91.26479126 -231.81138611 89.36401367 C-231.62850701 87.03548398 -231.446306 84.7069009 -231.26487732 82.37825775 C-231.08350175 80.06498522 -230.89882017 77.75197018 -230.71131897 75.4391861 C-230.6200322 74.29774895 -230.52874542 73.1563118 -230.43469238 71.98028564 C-230.35259773 70.96863972 -230.27050308 69.95699379 -230.18592072 68.91469193 C-229.9111712 64.60742479 -229.91236528 60.31357566 -230 56 C-230.33 56 -230.66 56 -231 56 Z M-70.50976562 119.15039062 C-71.55420837 119.85766296 -71.55420837 119.85766296 -72.61975098 120.57922363 C-73.37429565 121.09964233 -74.12884033 121.62006104 -74.90625 122.15625 C-76.54640934 123.2689159 -78.18705234 124.3808691 -79.828125 125.4921875 C-80.68148437 126.07258789 -81.53484375 126.65298828 -82.4140625 127.25097656 C-86.55252211 130.0500631 -90.72928307 132.79010275 -94.90625 135.53125 C-96.63421211 136.66782049 -98.36207471 137.80454228 -100.08984375 138.94140625 C-100.9701123 139.52035645 -101.85038086 140.09930664 -102.75732422 140.69580078 C-119.4001036 151.64382817 -136.00272453 162.64985059 -152.56768799 173.71520996 C-168.48232646 184.34410786 -184.44995844 194.89128765 -200.4375 205.41015625 C-202.184907 206.55987886 -203.9323032 207.70961789 -205.6796875 208.859375 C-206.50176697 209.40025757 -207.32384644 209.94114014 -208.1708374 210.49841309 C-214.46366509 214.64114981 -220.74012903 218.80762397 -227 223 C-223.91754784 226.35583583 -220.3379645 227.74007987 -216.1796875 229.4140625 C-215.38599762 229.74066864 -214.59230774 230.06727478 -213.77456665 230.40377808 C-211.14415531 231.4844366 -208.5095946 232.55458525 -205.875 233.625 C-204.01985622 234.38527255 -202.16504346 235.14635326 -200.31054688 235.90820312 C-196.45407835 237.49175077 -192.59620221 239.0717953 -188.73730469 240.64941406 C-180.82128851 243.88870713 -172.92279024 247.17002859 -165.02423096 250.45159912 C-160.76700075 252.21977484 -156.50842759 253.98471047 -152.25 255.75 C-150.54166035 256.45831809 -148.83332701 257.16665142 -147.125 257.875 C-146.279375 258.225625 -145.43375 258.57625 -144.5625 258.9375 C-142 260 -139.4375 261.0625 -136.875 262.125 C-135.60663048 262.65090729 -135.60663048 262.65090729 -134.31263733 263.18743896 C-132.60384237 263.89596643 -130.89505127 264.60450322 -129.18626404 265.31304932 C-124.92252517 267.0809887 -120.65871988 268.84876752 -116.39477539 270.61621094 C-108.62273313 273.83798016 -100.85124002 277.0610474 -93.08213806 280.28990173 C-71.42668782 289.28981079 -49.74482669 298.21803359 -28 307 C-26.59027156 304.18054312 -27.31465071 302.53672574 -27.92686462 299.45469666 C-28.15793915 298.27431824 -28.38901367 297.09393982 -28.62709045 295.87779236 C-28.89181555 294.56165154 -29.15666667 293.24553606 -29.42163086 291.92944336 C-29.69479165 290.54752823 -29.96736027 289.16549593 -30.23937988 287.78335571 C-30.98396315 284.00897422 -31.73684481 280.23628916 -32.49109721 276.46382976 C-33.28634539 272.47877045 -34.07386574 268.49218467 -34.86219788 264.50575256 C-36.36672098 256.90375049 -37.87799102 249.30310618 -39.39174134 241.70293671 C-41.24641164 232.38962313 -43.09309463 223.07472992 -44.93945312 213.75976562 C-45.59439567 210.45601302 -46.24940334 207.15227333 -46.90444946 203.84854126 C-47.06494675 203.0390464 -47.22544404 202.22955154 -47.39080489 201.39552653 C-48.51074527 195.74762226 -49.63207169 190.09999425 -50.7539978 184.45248413 C-55.21824345 161.97781025 -59.64476266 139.49608946 -64 117 C-67.28027187 117 -67.90882082 117.36707766 -70.50976562 119.15039062 Z M-49 122 C-48.25412059 130.4422981 -46.59462455 138.68219697 -44.94897461 146.98461914 C-44.6332427 148.59177523 -44.31783708 150.19899544 -44.00273132 151.80627441 C-43.15075059 156.14716737 -42.29423464 160.48715417 -41.4368751 164.8269875 C-40.54002409 169.37082549 -39.64738349 173.91549046 -38.75428772 178.46006775 C-37.06440131 187.05580856 -35.37075318 195.65080363 -33.67573792 204.24553436 C-31.74537607 214.03458225 -29.81923117 223.82445835 -27.8934325 233.6144048 C-23.93363225 253.7438588 -19.96856198 273.87227169 -16 294 C-13.14564287 292.63310388 -11.27101312 291.47789514 -9.22265625 289.05078125 C-8.71605469 288.4578125 -8.20945312 287.86484375 -7.6875 287.25390625 C-7.15125 286.61324219 -6.615 285.97257813 -6.0625 285.3125 C-4.89730883 283.94386276 -3.73193932 282.57537734 -2.56640625 281.20703125 C-1.67719482 280.15636475 -1.67719482 280.15636475 -0.77001953 279.08447266 C1.96146056 275.86773099 4.73132355 272.68471482 7.5 269.5 C8.58354432 268.25018289 9.66687704 267.00018229 10.75 265.75 C56.25 213.25 56.25 213.25 57.8762207 211.3737793 C58.95573309 210.12806323 60.03499884 208.88213339 61.11401367 207.63598633 C63.87878823 204.44361335 66.64820465 201.25546245 69.42578125 198.07421875 C72.14897379 194.95359362 74.85756762 191.82091639 77.5546875 188.67773438 C78.89155145 187.12588825 80.2420713 185.58583448 81.59375 184.046875 C82.3259375 183.18578125 83.058125 182.3246875 83.8125 181.4375 C84.43769531 180.71433594 85.06289063 179.99117187 85.70703125 179.24609375 C87.42169557 176.26744728 87.44062108 174.38699635 87 171 C84.96670923 166.90926055 82.01499733 165.98502791 77.92404175 164.59248352 C77.08930328 164.3234874 76.25456482 164.05449127 75.39453125 163.77734375 C74.50790802 163.47954514 73.62128479 163.18174652 72.70779419 162.87492371 C69.74667244 161.88338958 66.77969501 160.91069356 63.8125 159.9375 C61.71966637 159.2401698 59.62730867 158.54140983 57.53540039 157.84130859 C53.05373087 156.34264204 48.56998422 154.85041426 44.08496094 153.36181641 C36.87178658 150.96296887 29.67274237 148.52351143 22.4765625 146.07421875 C20.66961159 145.45921509 20.66961159 145.45921509 18.82615662 144.83178711 C16.40151501 144.00634955 13.97690855 143.18080876 11.55233765 142.35516357 C-8.60666981 135.49486193 -28.78121788 128.68225456 -49 122 Z M95 189 C93.2950965 190.74448161 91.63973486 192.50810557 90 194.3125 C89.5037915 194.85575928 89.00758301 195.39901855 88.49633789 195.95874023 C84.58545783 200.27568507 80.89841325 204.74742596 77.24609375 209.28515625 C74.11832821 213.06567286 70.78726117 216.64480875 67.46484375 220.25390625 C65.07292703 222.91875166 62.80745116 225.64831825 60.5625 228.4375 C56.90493736 232.97236161 53.05382973 237.25536183 49.08837891 241.51708984 C45.28601193 245.62779276 41.75729408 249.92275584 38.24609375 254.28515625 C35.11832821 258.06567286 31.78726117 261.64480875 28.46484375 265.25390625 C26.07292703 267.91875166 23.80745116 270.64831825 21.5625 273.4375 C18.34056683 277.43224254 14.99342389 281.24552109 11.5 285 C7.20027429 289.62147896 3.16047347 294.3899236 -0.78125 299.32421875 C-3.82232643 302.99171409 -7.11403298 306.40440744 -10.4453125 309.80859375 C-12.18646071 311.82846201 -12.18646071 311.82846201 -12.04296875 314.03125 C-10.57899663 316.79470299 -8.66821736 318.16381075 -6.1875 320.0625 C-1.95742356 323.39512167 2.06811116 326.82196799 6 330.5 C10.67900059 334.8602199 15.51428082 338.95250635 20.52734375 342.9296875 C23.17761441 345.14871349 25.58943563 347.52475143 28 350 C33.48766738 347.87564594 34.78819872 343.2600782 37.07308197 338.14353561 C40.77331518 329.58659595 44.14859762 320.89341861 47.5703125 312.22265625 C48.49653433 309.88768503 49.42329237 307.55292645 50.35055542 305.21836853 C52.53916705 299.70512464 54.72336417 294.19014683 56.90506351 288.67416519 C61.00686543 278.30391093 65.1172722 267.9370662 69.23009491 257.57117844 C70.16343569 255.2183786 71.09636477 252.86541539 72.02887726 250.51228714 C77.74877134 236.08111796 83.50283848 221.66914199 89.58377075 207.38551331 C92.13384629 201.3468998 94.2674176 195.32385515 96 189 C95.67 189 95.34 189 95 189 Z M-291 232 C-288.15695216 236.33161766 -285.13992879 240.33763034 -281.75 244.25 C-277.7212536 248.95400021 -273.78799967 253.71446614 -269.9375 258.56640625 C-263.45615446 266.70728986 -256.78178554 274.69659046 -250.16479492 282.72729492 C-245.43023628 288.47433947 -240.71081214 294.23346913 -236 300 C-234.50014304 301.83345036 -233.0001406 303.66678171 -231.5 305.5 C-213.5 327.5 -213.5 327.5 -211.23828125 330.265625 C-209.77905388 332.04827624 -208.31819398 333.82959275 -206.85546875 335.609375 C-200.5000529 343.35038602 -194.2450375 351.1699276 -188 359 C-187.67 358.34 -187.34 357.68 -187 357 C-187.94005089 354.40317434 -188.95120206 351.9161619 -190.05859375 349.390625 C-190.39350327 348.60974014 -190.72841278 347.82885529 -191.07347107 347.02430725 C-192.18785939 344.42981748 -193.31285836 341.84005967 -194.4375 339.25 C-195.22177599 337.4277189 -196.00512956 335.60504055 -196.78759766 333.78198242 C-197.99675535 330.96513569 -199.20649713 328.14855532 -200.41906738 325.33317566 C-203.96254426 317.10528146 -207.44933371 308.8544309 -210.9161377 300.59399414 C-211.87844597 298.30430075 -212.8444586 296.01620372 -213.81152344 293.72851562 C-217.1658367 285.78667193 -220.48621791 277.83262629 -223.75146484 269.85368347 C-225.46573084 265.67119413 -227.19367509 261.49442363 -228.92315674 257.31820679 C-229.76143983 255.28392864 -230.5933475 253.24701082 -231.41864014 251.20742798 C-232.56910936 248.36577895 -233.74103799 245.53389611 -234.91796875 242.703125 C-235.2569368 241.84984116 -235.59590485 240.99655731 -235.94514465 240.11741638 C-236.27415268 239.3377803 -236.60316071 238.55814423 -236.94213867 237.75488281 C-237.35939461 236.73433807 -237.35939461 236.73433807 -237.78507996 235.69317627 C-239.51221767 233.2861466 -241.18775593 232.81904075 -244 232 C-246.39996058 231.71559891 -246.39996058 231.71559891 -248.88208008 231.77294922 C-249.82267776 231.77310028 -250.76327545 231.77325134 -251.7323761 231.77340698 C-252.7346373 231.78372955 -253.7368985 231.79405212 -254.76953125 231.8046875 C-255.80567062 231.8075174 -256.84181 231.81034729 -257.90934753 231.81326294 C-261.21051707 231.82443546 -264.51141281 231.84953495 -267.8125 231.875 C-270.05403253 231.88503357 -272.29556933 231.89415876 -274.53710938 231.90234375 C-280.0248326 231.92436522 -285.51239674 231.95781379 -291 232 Z M-221 242 C-216.00902862 254.64823658 -210.84047939 267.20255773 -205.44763184 279.68460083 C-203.47079203 284.26110509 -201.50303211 288.84151068 -199.53515625 293.421875 C-198.94889969 294.78597252 -198.94889969 294.78597252 -198.35079956 296.17762756 C-195.20472211 303.50548193 -192.10025835 310.8500368 -189.02520752 318.20794678 C-188.25545674 320.04944567 -187.48393574 321.89020429 -186.71240234 323.73095703 C-184.19493706 329.73943551 -181.68744764 335.75176642 -179.19656372 341.77131653 C-177.92579326 344.83644763 -176.64685619 347.89813034 -175.36633301 350.959198 C-174.75374244 352.42882363 -174.14469126 353.8999303 -173.53942871 355.37258911 C-172.70068342 357.41244654 -171.84980487 359.44683831 -170.99609375 361.48046875 C-170.51325928 362.64473389 -170.0304248 363.80899902 -169.53295898 365.00854492 C-167.94344134 368.11037 -166.84717092 369.98501726 -164 372 C-158.85654977 372.63586201 -155.53969231 371.69270568 -151 369.32421875 C-149.87891846 368.74978027 -148.75783691 368.1753418 -147.6027832 367.58349609 C-147.01663239 367.27498718 -146.43048157 366.96647827 -145.8265686 366.64862061 C-143.32081689 365.33012121 -140.79919383 364.04333994 -138.27839661 362.75390625 C-136.99516476 362.09700103 -135.71276488 361.43846809 -134.43119812 360.77832031 C-129.1065213 358.03750115 -123.72810325 355.43012716 -118.3125 352.875 C-106.38103399 347.21831009 -94.52275397 341.41326133 -82.66201782 335.61010742 C-71.64162608 330.218329 -60.62256112 324.83012768 -49.47021484 319.71459961 C-45.55181371 318.13335345 -45.55181371 318.13335345 -43 315 C-43.99290039 314.59386475 -44.98580078 314.18772949 -46.00878906 313.76928711 C-63.98403745 306.41465223 -81.95209765 299.04394345 -99.875 291.5625 C-100.60252472 291.258815 -101.33004944 290.95513 -102.07962036 290.64224243 C-103.18018265 290.18281754 -103.18018265 290.18281754 -104.30297852 289.71411133 C-105.79963672 289.08934299 -107.29630016 288.46458721 -108.79296875 287.83984375 C-109.91128838 287.37300926 -109.91128838 287.37300926 -111.05220032 286.89674377 C-120.09128173 283.12499333 -129.13935073 279.37493235 -138.1875 275.625 C-139.89908891 274.91552824 -141.61067746 274.20605559 -143.32226562 273.49658203 C-151.30523577 270.1878168 -159.28873479 266.88032905 -167.2724762 263.57342529 C-170.92881391 262.05883028 -174.58497888 260.54381854 -178.24111938 259.02874756 C-180.77279553 257.97984451 -183.30472599 256.93155722 -185.83666992 255.88330078 C-187.43019922 255.22303833 -189.02370547 254.56272027 -190.6171875 253.90234375 C-191.38349991 253.58513367 -192.14981232 253.26792358 -192.93934631 252.94110107 C-197.08297358 251.22263575 -201.21796467 249.48566386 -205.34472656 247.72705078 C-206.21920441 247.35528214 -207.09368225 246.98351349 -207.99465942 246.60047913 C-209.67851064 245.88358694 -211.36108609 245.1636888 -213.04220581 244.44041443 C-216.88354518 242.65234756 -216.88354518 242.65234756 -221 242 Z M-29.83984375 324.53515625 C-30.63213379 324.92098877 -31.42442383 325.30682129 -32.24072266 325.7043457 C-33.13065918 326.15253662 -34.0205957 326.60072754 -34.9375 327.0625 C-35.90478027 327.5371167 -36.87206055 328.0117334 -37.86865234 328.50073242 C-40.18265864 329.63704092 -42.49404524 330.7778106 -44.80322266 331.92382812 C-49.6964802 334.34902062 -54.60414465 336.74456954 -59.51171875 339.140625 C-61.42033464 340.07266051 -63.32894457 341.00470824 -65.23754883 341.93676758 C-66.20463776 342.40901764 -67.17172668 342.8812677 -68.16812134 343.36782837 C-71.13312497 344.8164697 -74.09734393 346.26670365 -77.0612793 347.7175293 C-97.97262643 357.95338142 -118.8959621 368.16570159 -140 378 C-140 378.33 -140 378.66 -140 379 C-130.37501811 378.43265057 -120.91985438 377.42091874 -111.37548828 376.05053711 C-109.97448407 375.85293756 -108.57342013 375.65576109 -107.17230225 375.45896912 C-103.41643993 374.93025007 -99.66142737 374.39571342 -95.90655375 373.86002421 C-91.96462987 373.29869474 -88.02193068 372.74286363 -84.07931519 372.18641663 C-76.63479846 371.13488826 -69.19097874 370.07850922 -61.74740493 369.02032906 C-53.26410395 367.81458636 -44.78002821 366.61433948 -36.29588723 365.41452396 C-18.86306362 362.94907408 -1.43121164 360.47682065 16 358 C7.22297765 349.20922214 -1.81512869 340.7604201 -11.52734375 333.0078125 C-14.54373599 330.55848294 -17.40569656 327.96271941 -20.24609375 325.3125 C-23.64959917 322.76555608 -26.09408991 322.67400637 -29.83984375 324.53515625 Z " fill="#000000" transform="translate(354,68)"/>
<path d="M0 0 C2.9375 0.9375 2.9375 0.9375 4.21484375 3.09375 C6.50824838 12.11860714 -1.03792002 26.03705431 -5.0625 33.9375 C-15.35266342 50.68892882 -29.98418773 61.89378189 -49.05615234 66.51953125 C-54.90089553 67.73712681 -61.66261659 69.129741 -67.390625 67.12109375 C-69.0625 65.9375 -69.0625 65.9375 -70.0625 63.0625 C-70.0625 59.9375 -70.0625 59.9375 -68.4375 57.7734375 C-65.45206511 55.46561777 -63.80193872 55.47416116 -60.0625 55.4375 C-44.97878291 54.69346014 -32.29578867 47.84961379 -22.0625 36.9375 C-14.57125649 27.2352487 -10.50753553 15.97784105 -7.0546875 4.3359375 C-5.53351986 0.65878422 -3.90628415 -0.07972008 0 0 Z " fill="#000000" transform="translate(455.0625,427.0625)"/>
<path d="M0 0 C2 2 2 2 2.3125 5.5 C2.209375 6.655 2.10625 7.81 2 9 C-1.64206489 11.42804326 -4.71072303 11.47133345 -8.9375 11.8125 C-23.38003566 13.26287328 -36.68208131 19.63922665 -46 31 C-52.34973653 39.39478089 -55.67777718 48.01438556 -58.65429688 58.01611328 C-58.91919922 58.89122559 -59.18410156 59.76633789 -59.45703125 60.66796875 C-59.68366455 61.45453857 -59.91029785 62.2411084 -60.14379883 63.05151367 C-61 65 -61 65 -64 67 C-66.85920531 67.35740066 -68.33994405 67.51060932 -70.65625 65.71875 C-72 64 -72 64 -72 60.1875 C-69.19584032 41.78147315 -58.81538402 23.73966427 -44.3125 12.1875 C-30.92192182 2.65696094 -16.32155392 -1.37189823 0 0 Z " fill="#000000" transform="translate(126,26)"/>
<path d="M0 0 C1.89453125 1.859375 1.89453125 1.859375 3 4 C2.875 6.625 2.875 6.625 2 9 C-1.4635487 11.30903247 -3.52114152 11.43689746 -7.625 11.875 C-17.6125015 13.22105216 -25.22459454 16.31823548 -32 24 C-36.34378336 30.24996488 -38.04548299 37.29518586 -39.56933594 44.64233398 C-40.69096956 49.7939797 -40.69096956 49.7939797 -44 52 C-49.55555556 51.44444444 -49.55555556 51.44444444 -51 50 C-52.41116074 36.58240612 -48.23891537 24.53500654 -40 14 C-30.35443563 3.21004664 -14.30554691 -2.30924013 0 0 Z " fill="#000000" transform="translate(134,52)"/>
<path d="M0 0 C2.4375 0.75 2.4375 0.75 4.4375 2.75 C5.51849132 14.20850796 1.74702096 25.29374593 -4.5625 34.75 C-7 37.5625 -7 37.5625 -9.5625 39.75 C-10.27792969 40.46736328 -10.27792969 40.46736328 -11.0078125 41.19921875 C-18.90971167 48.7766438 -29.4690308 51.91786614 -40.1875 52 C-40.868125 52.020625 -41.54875 52.04125 -42.25 52.0625 C-44.2265625 52.078125 -44.2265625 52.078125 -47.5625 51.75 C-49.71752531 48.51746204 -50.03106135 47.49849077 -49.5625 43.75 C-48.48828125 42.15234375 -48.48828125 42.15234375 -46.5625 40.75 C-43.3046875 40.16015625 -43.3046875 40.16015625 -39.4375 39.8125 C-29.15166878 38.664709 -21.59799549 35.53701433 -14.5625 27.75 C-10.36516759 21.825107 -9.18318444 14.70136939 -7.5625 7.75 C-5.28240172 -0.51535627 -5.28240172 -0.51535627 0 0 Z " fill="#000000" transform="translate(426.5625,416.25)"/>
</svg>
