<?xml version="1.0" encoding="UTF-8"?>
<!DOCTYPE svg PUBLIC "-//W3C//DTD SVG 1.1//EN" "http://www.w3.org/Graphics/SVG/1.1/DTD/svg11.dtd">
<svg xmlns="http://www.w3.org/2000/svg" version="1.1" width="512px" height="512px" style="shape-rendering:geometricPrecision; text-rendering:geometricPrecision; image-rendering:optimizeQuality; fill-rule:evenodd; clip-rule:evenodd" xmlns:xlink="http://www.w3.org/1999/xlink">
<g><path style="opacity:1" fill="#56a1fe" d="M 458.5,229.5 C 373.721,179.269 288.387,129.769 202.5,81C 200.5,79.6667 198.5,78.3333 196.5,77C 197.252,76.3292 197.586,75.4959 197.5,74.5C 197.328,73.5084 197.662,72.8417 198.5,72.5C 199.906,72.0269 200.573,71.0269 200.5,69.5C 200.328,68.5084 200.662,67.8417 201.5,67.5C 202.906,67.0269 203.573,66.0269 203.5,64.5C 203.328,63.5084 203.662,62.8417 204.5,62.5C 205.906,62.0269 206.573,61.0269 206.5,59.5C 206.328,58.5084 206.662,57.8417 207.5,57.5C 208.906,57.0269 209.573,56.0269 209.5,54.5C 222.474,22.5127 245.807,10.346 279.5,18C 341.83,54.1627 403.83,90.8294 465.5,128C 485.111,144.603 490.611,165.103 482,189.5C 474.392,203.061 466.559,216.394 458.5,229.5 Z"/></g>
<g><path style="opacity:0.6" fill="#d27eb4" d="M 209.5,54.5 C 209.573,56.0269 208.906,57.0269 207.5,57.5C 207.427,55.9731 208.094,54.9731 209.5,54.5 Z"/></g>
<g><path style="opacity:0.573" fill="#d47bb2" d="M 206.5,59.5 C 206.573,61.0269 205.906,62.0269 204.5,62.5C 204.427,60.9731 205.094,59.9731 206.5,59.5 Z"/></g>
<g><path style="opacity:0.533" fill="#d57db8" d="M 203.5,64.5 C 203.573,66.0269 202.906,67.0269 201.5,67.5C 201.427,65.9731 202.094,64.9731 203.5,64.5 Z"/></g>
<g><path style="opacity:0.502" fill="#d784af" d="M 200.5,69.5 C 200.573,71.0269 199.906,72.0269 198.5,72.5C 198.427,70.9731 199.094,69.9731 200.5,69.5 Z"/></g>
<g><path style="opacity:1" fill="#d0dbfe" d="M 197.5,74.5 C 197.586,75.4959 197.252,76.3292 196.5,77C 198.5,78.3333 200.5,79.6667 202.5,81C 288.387,129.769 373.721,179.269 458.5,229.5C 450.573,244.368 441.906,258.701 432.5,272.5C 425.518,262.899 416.851,261.065 406.5,267C 392.623,289.251 379.123,311.751 366,334.5C 364.933,336.692 363.433,338.358 361.5,339.5C 282.201,293.889 202.868,248.222 123.5,202.5C 122.702,202.043 122.369,201.376 122.5,200.5C 122.328,199.508 122.662,198.842 123.5,198.5C 124.906,198.027 125.573,197.027 125.5,195.5C 125.328,194.508 125.662,193.842 126.5,193.5C 127.906,193.027 128.573,192.027 128.5,190.5C 128.328,189.508 128.662,188.842 129.5,188.5C 130.906,188.027 131.573,187.027 131.5,185.5C 131.328,184.508 131.662,183.842 132.5,183.5C 133.906,183.027 134.573,182.027 134.5,180.5C 136.332,176.164 138.665,172.164 141.5,168.5C 143.408,167.514 144.408,165.848 144.5,163.5C 145.079,160.669 146.412,158.336 148.5,156.5C 149.906,156.027 150.573,155.027 150.5,153.5C 150.328,152.508 150.662,151.842 151.5,151.5C 152.906,151.027 153.573,150.027 153.5,148.5C 153.328,147.508 153.662,146.842 154.5,146.5C 155.906,146.027 156.573,145.027 156.5,143.5C 156.328,142.508 156.662,141.842 157.5,141.5C 158.906,141.027 159.573,140.027 159.5,138.5C 161.332,134.164 163.665,130.164 166.5,126.5C 168.408,125.514 169.408,123.848 169.5,121.5C 170.079,118.669 171.412,116.336 173.5,114.5C 174.906,114.027 175.573,113.027 175.5,111.5C 175.328,110.508 175.662,109.842 176.5,109.5C 177.906,109.027 178.573,108.027 178.5,106.5C 178.328,105.508 178.662,104.842 179.5,104.5C 180.906,104.027 181.573,103.027 181.5,101.5C 181.328,100.508 181.662,99.8417 182.5,99.5C 183.906,99.0269 184.573,98.0269 184.5,96.5C 186.332,92.1638 188.665,88.1638 191.5,84.5C 193.408,83.5144 194.408,81.8477 194.5,79.5C 194.75,77.326 195.75,75.6594 197.5,74.5 Z"/></g>
<g><path style="opacity:1" fill="#e69acb" d="M 194.5,79.5 C 194.408,81.8477 193.408,83.5144 191.5,84.5C 191.75,82.326 192.75,80.6594 194.5,79.5 Z"/></g>
<g><path style="opacity:0.545" fill="#ec7aa6" d="M 184.5,96.5 C 184.573,98.0269 183.906,99.0269 182.5,99.5C 182.427,97.9731 183.094,96.9731 184.5,96.5 Z"/></g>
<g><path style="opacity:0.518" fill="#ee75a5" d="M 181.5,101.5 C 181.573,103.027 180.906,104.027 179.5,104.5C 179.427,102.973 180.094,101.973 181.5,101.5 Z"/></g>
<g><path style="opacity:0.486" fill="#ed77ac" d="M 178.5,106.5 C 178.573,108.027 177.906,109.027 176.5,109.5C 176.427,107.973 177.094,106.973 178.5,106.5 Z"/></g>
<g><path style="opacity:0.463" fill="#ed80a3" d="M 175.5,111.5 C 175.573,113.027 174.906,114.027 173.5,114.5C 173.427,112.973 174.094,111.973 175.5,111.5 Z"/></g>
<g><path style="opacity:1" fill="#e69acc" d="M 169.5,121.5 C 169.408,123.848 168.408,125.514 166.5,126.5C 166.75,124.326 167.75,122.659 169.5,121.5 Z"/></g>
<g><path style="opacity:0.545" fill="#ec7aa6" d="M 159.5,138.5 C 159.573,140.027 158.906,141.027 157.5,141.5C 157.427,139.973 158.094,138.973 159.5,138.5 Z"/></g>
<g><path style="opacity:0.518" fill="#ee75a5" d="M 156.5,143.5 C 156.573,145.027 155.906,146.027 154.5,146.5C 154.427,144.973 155.094,143.973 156.5,143.5 Z"/></g>
<g><path style="opacity:0.49" fill="#ed77ac" d="M 153.5,148.5 C 153.573,150.027 152.906,151.027 151.5,151.5C 151.427,149.973 152.094,148.973 153.5,148.5 Z"/></g>
<g><path style="opacity:0.463" fill="#ed80a3" d="M 150.5,153.5 C 150.573,155.027 149.906,156.027 148.5,156.5C 148.427,154.973 149.094,153.973 150.5,153.5 Z"/></g>
<g><path style="opacity:1" fill="#e69acc" d="M 144.5,163.5 C 144.408,165.848 143.408,167.514 141.5,168.5C 141.75,166.326 142.75,164.659 144.5,163.5 Z"/></g>
<g><path style="opacity:0.545" fill="#ec7aa6" d="M 134.5,180.5 C 134.573,182.027 133.906,183.027 132.5,183.5C 132.427,181.973 133.094,180.973 134.5,180.5 Z"/></g>
<g><path style="opacity:0.518" fill="#ee75a5" d="M 131.5,185.5 C 131.573,187.027 130.906,188.027 129.5,188.5C 129.427,186.973 130.094,185.973 131.5,185.5 Z"/></g>
<g><path style="opacity:0.49" fill="#ed77ac" d="M 128.5,190.5 C 128.573,192.027 127.906,193.027 126.5,193.5C 126.427,191.973 127.094,190.973 128.5,190.5 Z"/></g>
<g><path style="opacity:0.463" fill="#ed80a3" d="M 125.5,195.5 C 125.573,197.027 124.906,198.027 123.5,198.5C 123.427,196.973 124.094,195.973 125.5,195.5 Z"/></g>
<g><path style="opacity:0.998" fill="#ee5e91" d="M 122.5,200.5 C 122.369,201.376 122.702,202.043 123.5,202.5C 202.868,248.222 282.201,293.889 361.5,339.5C 361.5,339.833 361.5,340.167 361.5,340.5C 337.221,381.799 312.888,423.132 288.5,464.5C 234.837,465.5 181.171,465.833 127.5,465.5C 100.029,449.597 72.6961,433.43 45.5,417C 24.3642,397.689 20.1975,375.189 33,349.5C 62.6966,299.663 92.53,249.996 122.5,200.5 Z"/></g>
<g><path style="opacity:1" fill="#676768" d="M 356.5,209.5 C 358.857,209.337 361.19,209.503 363.5,210C 377.5,218 391.5,226 405.5,234C 410.013,239.766 409.013,244.433 402.5,248C 400.833,248.667 399.167,248.667 397.5,248C 383.331,239.414 368.997,231.081 354.5,223C 351.397,217.886 352.064,213.386 356.5,209.5 Z"/></g>
<g><path style="opacity:1" fill="#676768" d="M 289.5,224.5 C 293.131,224.16 296.464,224.994 299.5,227C 325.5,242 351.5,257 377.5,272C 384.059,276.916 384.059,281.916 377.5,287C 375.5,287.667 373.5,287.667 371.5,287C 342.423,271.049 313.923,254.215 286,236.5C 284.745,231.738 285.912,227.738 289.5,224.5 Z"/></g>
<g><path style="opacity:1" fill="#bfd1fd" d="M 432.5,272.5 C 417.252,300.003 401.252,327.003 384.5,353.5C 376.968,348.902 369.302,344.568 361.5,340.5C 361.5,340.167 361.5,339.833 361.5,339.5C 363.433,338.358 364.933,336.692 366,334.5C 379.123,311.751 392.623,289.251 406.5,267C 416.851,261.065 425.518,262.899 432.5,272.5 Z"/></g>
<g><path style="opacity:0.99" fill="#d54f82" d="M 361.5,340.5 C 369.302,344.568 376.968,348.902 384.5,353.5C 360.419,395.331 336.086,436.997 311.5,478.5C 256.863,479.83 202.196,479.83 147.5,478.5C 140.833,474.167 134.167,469.833 127.5,465.5C 181.171,465.833 234.837,465.5 288.5,464.5C 312.888,423.132 337.221,381.799 361.5,340.5 Z"/></g>
<g><path style="opacity:0.963" fill="#686566" d="M 147.5,478.5 C 202.196,479.83 256.863,479.83 311.5,478.5C 352.168,478.333 392.835,478.5 433.5,479C 439.811,481.588 441.644,486.088 439,492.5C 438.097,493.701 436.931,494.535 435.5,495C 314.166,496.847 192.833,496.847 71.5,495C 66.6945,491.911 65.5278,487.744 68,482.5C 69.3189,480.513 71.1523,479.346 73.5,479C 98.1644,478.5 122.831,478.333 147.5,478.5 Z"/></g>
</svg>
