<?xml version="1.0" encoding="UTF-8"?>
<svg version="1.1" xmlns="http://www.w3.org/2000/svg" width="512" height="512">
<path d="M0 0 C1.99650797 1.43348531 3.83688752 2.93656159 5.66796875 4.57421875 C6.51359375 5.31671875 7.35921875 6.05921875 8.23046875 6.82421875 C15.21171439 14.70049588 20.3883423 23.93845223 25.69052124 32.98095703 C27.76998186 36.52722297 29.86232974 40.06587785 31.953125 43.60546875 C32.36097733 44.29672852 32.76882965 44.98798828 33.18904114 45.70019531 C37.92253118 53.71505672 42.77428684 61.65635139 47.66796875 69.57421875 C51.41676149 67.56890202 53.61954891 65.7259526 55.98046875 62.19921875 C56.57601563 61.32136719 57.1715625 60.44351563 57.78515625 59.5390625 C59.10796238 57.45605451 60.37998327 55.34034619 61.61328125 53.203125 C65.84566479 45.89188991 69.32978274 40.42691928 77.69921875 37.98046875 C83.8640606 36.70835853 89.17951536 37.69655186 94.66796875 40.57421875 C99.14041634 44.21458306 101.74587597 48.69859204 104.66796875 53.57421875 C105.8702548 55.49468453 107.07884779 57.41121304 108.29296875 59.32421875 C108.86273438 60.2265625 109.4325 61.12890625 110.01953125 62.05859375 C111.59989068 64.56047652 111.59989068 64.56047652 113.36328125 66.67578125 C115.36198193 69.58407026 114.92177554 72.14782703 114.66796875 75.57421875 C114.33796875 76.23421875 114.00796875 76.89421875 113.66796875 77.57421875 C114.36921875 77.84234375 115.07046875 78.11046875 115.79296875 78.38671875 C118.83295115 79.64236365 121.74074615 81.07656998 124.66796875 82.57421875 C126.15296875 81.58421875 126.15296875 81.58421875 127.66796875 80.57421875 C131.04296875 80.13671875 131.04296875 80.13671875 134.66796875 80.57421875 C138.61474064 83.62399703 141.04336323 86.87141329 142.66796875 91.57421875 C143.40073687 97.9099821 143.48409702 104.11923921 140.20703125 109.75390625 C136.2775196 114.40150125 130.72509994 118.46654893 124.66796875 119.57421875 C124.66796875 120.23421875 124.66796875 120.89421875 124.66796875 121.57421875 C125.23128906 121.82300781 125.79460937 122.07179688 126.375 122.328125 C140.45609433 129.98037217 149.88965074 146.4785079 158.96533203 159.19384766 C161.74641375 163.08193867 164.55259424 166.95182633 167.35546875 170.82421875 C171.54237648 176.61751416 175.71757782 182.41880689 179.85571289 188.24707031 C182.1721715 191.50384575 184.51893879 194.73526395 186.89453125 197.94921875 C201.44084331 217.68824543 211.96808986 236.74638194 212.10546875 261.88671875 C212.13833984 262.90572266 212.17121094 263.92472656 212.20507812 264.97460938 C212.2523026 272.03681427 211.1807225 278.36280797 209.49438477 285.19213867 C209.27208694 286.10752159 209.04978912 287.02290451 208.820755 287.96602631 C206.34788678 298.04842946 203.63548946 308.06420449 200.88671875 318.07421875 C200.34522455 320.0532733 199.80384524 322.03235928 199.26257324 324.01147461 C198.13895314 328.11624413 197.01252635 332.22023099 195.88427734 336.32373047 C194.44857046 341.54716844 193.02229599 346.7731318 191.59835052 351.99978638 C190.48761785 356.07112435 189.3707557 360.1407626 188.25221252 364.20996094 C187.72387791 366.13563895 187.19764534 368.06189514 186.6736908 369.98876953 C178.74790486 399.10689262 168.17546394 423.51449679 141.23046875 439.57421875 C135.37212092 442.85386372 129.31722606 445.74685058 123.23046875 448.57421875 C122.39008057 448.97253906 121.54969238 449.37085938 120.68383789 449.78125 C115.86029529 451.95816627 112.06149592 453.3082103 106.66796875 452.57421875 C105.82621094 452.04183594 104.98445313 451.50945312 104.1171875 450.9609375 C101.68265028 449.2417796 101.68265028 449.2417796 98.625 450.09375 C92.69986383 452.21093925 92.69986383 452.21093925 88.5859375 456.59375 C88.19322691 458.57198374 87.92606604 460.57396473 87.66796875 462.57421875 C84.45965172 465.70889078 80.24929818 467.2517495 76.18359375 469.0078125 C75.45033875 469.32702164 74.71708374 469.64623077 73.96160889 469.97511292 C72.40616378 470.64948162 70.84942727 471.32087843 69.29150391 471.98950195 C66.96203798 472.99273933 64.64124042 474.0143066 62.3203125 475.03710938 C37.04730022 486.01662846 11.05084035 489.50659394 -15.33203125 479.57421875 C-36.36099304 470.58187874 -49.8529064 456.24179328 -62.65869141 437.953125 C-65.34573556 434.1330844 -68.09079861 430.35545744 -70.83203125 426.57421875 C-71.91566191 425.07443353 -72.99899485 423.57443316 -74.08203125 422.07421875 C-74.88640625 420.96046875 -74.88640625 420.96046875 -75.70703125 419.82421875 C-78.14453125 416.44921875 -78.14453125 416.44921875 -80.58203125 413.07421875 C-81.11876465 412.33115479 -81.65549805 411.58809082 -82.20849609 410.82250977 C-83.2873511 409.32849838 -84.36580433 407.83419679 -85.44384766 406.33959961 C-88.21740817 402.49544642 -90.99862702 398.65720472 -93.79296875 394.828125 C-103.65523596 381.29637225 -112.10875889 368.22064377 -118.33203125 352.57421875 C-139.69657633 365.02065985 -161.05286295 377.48220788 -182.33203125 390.07421875 C-193.94114021 396.94358475 -205.57368233 403.77257929 -217.22024536 410.57821655 C-220.85150203 412.70200705 -224.47189871 414.8431583 -228.0859375 416.99609375 C-229.75129746 417.98047656 -231.41666168 418.96485218 -233.08203125 419.94921875 C-233.80092529 420.38314941 -234.51981934 420.81708008 -235.26049805 421.26416016 C-246.0603544 427.6124904 -257.13279372 429.58690731 -269.4921875 426.8828125 C-281.32521079 422.90518583 -291.01402927 415.51579389 -296.70703125 404.38671875 C-308.3377396 380.16125938 -299.19854084 339.20235665 -297.77281618 313.22973657 C-297.44672165 307.26682499 -297.12734723 301.30355412 -296.80751102 295.3403044 C-296.13643101 282.83480918 -295.4557487 270.32985168 -294.77147298 257.82507249 C-294.18614076 247.12456719 -293.60873715 236.42365797 -293.03710938 225.72241211 C-292.36943988 213.223316 -291.69724629 200.72447737 -291.01763666 188.22602433 C-290.65929362 181.63500047 -290.30276712 175.04388965 -289.95103836 168.45250893 C-289.62090134 162.27209539 -289.2838286 156.09209765 -288.94146538 149.9123497 C-288.81731657 147.65143407 -288.6955278 145.39038737 -288.57632256 143.1292057 C-288.41274508 140.03388543 -288.24046512 136.93916371 -288.06607056 133.84443665 C-288.02131391 132.95922295 -287.97655727 132.07400926 -287.93044436 131.16197091 C-287.09391049 116.84966514 -284.12969559 104.65637521 -273.33203125 94.57421875 C-264.02740127 87.05894069 -253.59232168 83.93095568 -241.65039062 84.76049805 C-233.00696609 85.96358158 -225.82854713 89.28181784 -218.14453125 93.19921875 C-216.86842202 93.83515955 -215.59147671 94.46942526 -214.3137207 95.10205078 C-211.80274129 96.3464756 -209.29518083 97.59738437 -206.79003906 98.85351562 C-202.23171213 101.12173705 -197.6347647 103.29974142 -193.01953125 105.44921875 C-191.97212769 105.93962646 -191.97212769 105.93962646 -190.90356445 106.43994141 C-189.3804541 107.15293738 -187.85638429 107.86388347 -186.33203125 108.57421875 C-185.24552682 100.20174346 -184.33513805 91.82486208 -183.6015625 83.4140625 C-183.50647652 82.33095543 -183.50647652 82.33095543 -183.4094696 81.22596741 C-183.08915075 77.56477973 -182.77637036 73.90314074 -182.47338867 70.24047852 C-181.06286885 53.64126192 -177.88738755 41.25880034 -165.33203125 29.57421875 C-159.95696505 25.15622369 -154.10380997 23.04474131 -147.45043945 21.24902344 C-146.67071179 21.03589382 -145.89098413 20.82276421 -145.08762836 20.60317612 C-134.7501349 17.82258533 -124.31034015 15.46949232 -113.875 13.08984375 C-111.67060184 12.58405924 -109.46628302 12.0779288 -107.26203918 11.57147217 C-101.51930242 10.25304995 -95.77542813 8.93965159 -90.03131104 7.6272583 C-85.32870743 6.55191277 -80.62694246 5.47292745 -75.92521191 4.39377213 C-70.30458076 3.103772 -64.68359792 1.81530826 -59.0625 0.52734375 C-57.9958077 0.28290779 -56.92911541 0.03847183 -55.83009911 -0.21337128 C-52.81815339 -0.90315908 -49.80597355 -1.59191372 -46.79370117 -2.28027344 C-45.90488251 -2.48388992 -45.01606384 -2.68750641 -44.10031128 -2.89729309 C-29.34723233 -6.26450297 -13.57048963 -8.29686552 0 0 Z " fill="#020202" transform="translate(300.33203125,16.42578125)"/>
<path d="M0 0 C8.35952202 6.0473138 13.87108549 16.18597892 19.734375 24.56640625 C22.90687665 29.0950844 26.13268783 33.58362593 29.375 38.0625 C29.91181396 38.80459717 30.44862793 39.54669434 31.00170898 40.3112793 C33.20980965 43.36213124 35.41992065 46.41151933 37.63134766 49.45996094 C40.39774082 53.27397758 43.1580029 57.09195361 45.90234375 60.921875 C47.81501556 63.58835385 49.76156441 66.22074051 51.75390625 68.828125 C52.58606736 69.94782017 53.41810718 71.06760549 54.25 72.1875 C54.96800781 73.12722656 55.68601562 74.06695312 56.42578125 75.03515625 C60.24412527 82.83957517 57.19132375 90.87901908 54.8125 98.75 C54.16476643 100.97080081 53.51897576 103.19216911 52.875 105.4140625 C52.54886719 106.53200195 52.22273437 107.64994141 51.88671875 108.80175781 C50.43461237 113.88562408 49.12132376 119.00272799 47.8125 124.125 C45.95653682 131.34074145 43.98435235 138.50019467 41.83154297 145.63256836 C40.04501558 151.61209687 38.48773694 157.64300268 36.9375 163.6875 C33.34567404 177.54511423 33.34567404 177.54511423 31.375 184.25 C31.02308594 185.46945312 30.67117188 186.68890625 30.30859375 187.9453125 C27.6643087 194.07764308 23.23243911 196.78715707 17.29296875 199.42578125 C16.64442429 199.71729568 15.99587982 200.00881012 15.3276825 200.30915833 C13.202793 201.25993169 11.07075435 202.19316326 8.9375 203.125 C7.46284254 203.77735563 5.98839894 204.43019488 4.51416016 205.08349609 C-1.94322964 207.93480601 -8.4215892 210.73767255 -14.89916992 213.54272461 C-15.75582748 213.91374802 -16.61248505 214.28477142 -17.49510193 214.66703796 C-19.21660766 215.41257801 -20.93825594 216.15778898 -22.66004944 216.90266418 C-27.28319585 218.90624939 -31.89360358 220.93448794 -36.48777771 223.00364685 C-38.42201355 223.87389493 -40.35938593 224.73669536 -42.2980957 225.59692383 C-44.60778939 226.62399737 -46.91154498 227.66457949 -49.20776367 228.72143555 C-55.51824049 231.50116187 -61.13041693 233.45190775 -68.0625 232.125 C-72.81806275 229.78063007 -75.5480402 226.65041771 -78.6875 222.4375 C-79.10862061 221.87571045 -79.52974121 221.3139209 -79.96362305 220.73510742 C-84.40261209 214.76755651 -88.66318758 208.66944912 -92.9296875 202.578125 C-96.08052746 198.08595568 -99.28302904 193.63247009 -102.5 189.1875 C-103.30219971 188.07834229 -103.30219971 188.07834229 -104.12060547 186.94677734 C-106.93097433 183.06346575 -109.74603816 179.18358133 -112.5625 175.3046875 C-113.13814697 174.51054443 -113.71379395 173.71640137 -114.30688477 172.89819336 C-115.39441511 171.39791898 -116.48332815 169.89864537 -117.57397461 168.40063477 C-118.57636076 167.01724825 -119.57122857 165.62837955 -120.55810547 164.23388672 C-121.60599722 162.76493363 -122.6801771 161.3145301 -123.77392578 159.87939453 C-126.87906144 155.63040509 -128.85837946 152.52336675 -128.40771484 147.17089844 C-127.75521543 143.3038934 -126.89075253 139.53741256 -125.875 135.75 C-125.64941406 134.88004395 -125.42382812 134.01008789 -125.19140625 133.11376953 C-123.11369438 125.15930736 -120.91834165 117.23664014 -118.68310547 109.32519531 C-117.65427966 105.67776094 -116.63944978 102.02645428 -115.625 98.375 C-115.31731689 97.26886353 -115.31731689 97.26886353 -115.00341797 96.14038086 C-113.6304941 91.19626468 -112.27608396 86.24732185 -110.93066406 81.2956543 C-109.9207448 77.5814473 -108.90495573 73.86885357 -107.88916016 70.15625 C-107.31056027 68.03460317 -106.73496289 65.91213628 -106.16162109 63.7890625 C-105.23979245 60.37824818 -104.30814372 56.97023381 -103.375 53.5625 C-103.08963379 52.49765381 -102.80426758 51.43280762 -102.51025391 50.33569336 C-102.23487793 49.33675049 -101.95950195 48.33780762 -101.67578125 47.30859375 C-101.43641846 46.42743896 -101.19705566 45.54628418 -100.95043945 44.63842773 C-98.98659055 39.07949881 -96.24047029 35.84962373 -91.0625 33.125 C-87.35804531 31.40768798 -83.59097668 29.85882914 -79.8125 28.3125 C-77.48204522 27.34361405 -75.15267341 26.37212039 -72.82421875 25.3984375 C-72.20856552 25.14111343 -71.59291229 24.88378937 -70.95860291 24.6186676 C-63.87547877 21.64639455 -56.8557225 18.5320838 -49.83456421 15.41693115 C-47.63276501 14.44094199 -45.42957879 13.4681605 -43.22583008 12.49658203 C-42.51346695 12.18250397 -41.80110382 11.8684259 -41.06715393 11.54483032 C-39.6653291 10.92680841 -38.26350415 10.30878676 -36.86167908 9.69076538 C-32.89736412 7.94105369 -28.94248003 6.17183798 -24.9921875 4.390625 C-23.32847666 3.65545368 -21.66445043 2.92099534 -20 2.1875 C-19.30011963 1.86370361 -18.60023926 1.53990723 -17.87915039 1.20629883 C-11.95391408 -1.36737736 -6.23608675 -1.78173907 0 0 Z " fill="#E9C1FE" transform="translate(381.0625,195.875)"/>
<path d="M0 0 C3.04180989 2.82521425 5.11067332 5.58756073 7.14453125 9.19921875 C7.73169922 10.23159668 8.31886719 11.26397461 8.92382812 12.32763672 C9.54708984 13.4363916 10.17035156 14.54514648 10.8125 15.6875 C12.14849005 18.03996441 13.489906 20.38931278 14.83203125 22.73828125 C15.17436798 23.33846069 15.51670471 23.93864014 15.86941528 24.55700684 C20.06752199 31.89875036 24.43849353 39.13527706 28.81176758 46.3737793 C29.96260067 48.27985162 31.10882238 50.18871718 32.25 52.10058594 C33.49641341 54.16565369 34.77033413 56.21422459 36.0625 58.25097656 C36.7225 59.31541992 37.3825 60.37986328 38.0625 61.4765625 C38.67222656 62.43900879 39.28195313 63.40145508 39.91015625 64.39306641 C41 67 41 67 40.24829102 69.21801758 C39.83635498 69.80607178 39.42441895 70.39412598 39 71 C38.31148322 72.35364997 37.62397813 73.70781502 36.9375 75.0625 C36.59589844 75.73410156 36.25429687 76.40570313 35.90234375 77.09765625 C34.23825146 80.60593739 33.81643703 83.56301634 33.62695312 87.3984375 C33.57019409 88.50388916 33.51343506 89.60934082 33.45495605 90.74829102 C33.39763306 91.94510498 33.34031006 93.14191895 33.28125 94.375 C33.21844849 95.60984131 33.15564697 96.84468262 33.09094238 98.11694336 C32.92401681 101.40710966 32.76048128 104.69741971 32.59893799 107.987854 C32.37258941 112.59120601 32.14210528 117.19434598 31.90905762 121.79736328 C31.78535091 124.24483585 31.6638885 126.69242324 31.54504395 129.14013672 C31.23691905 135.27814201 30.81741388 141.38493668 30.23086548 147.50253296 C29.89562144 151.12915116 29.6705078 154.75859461 29.46484375 158.39453125 C29.42154938 159.1412912 29.378255 159.88805115 29.33364868 160.65744019 C28.83265276 169.43552227 28.39732137 178.21666165 28 187 C27.94360352 188.22170898 27.88720703 189.44341797 27.82910156 190.70214844 C26.90418253 204.6022904 26.90418253 204.6022904 32.00390625 217.1953125 C33 219 33 219 32.765625 220.74902344 C31.76724476 223.68431227 30.31895431 226.14701494 28.74609375 228.8203125 C28.41360626 229.38779205 28.08111877 229.95527161 27.73855591 230.53994751 C26.64350387 232.40480954 25.54079437 234.26500425 24.4375 236.125 C23.6696996 237.4273258 22.90204194 238.72973576 22.13452148 240.03222656 C16.39353297 249.75074168 10.51029107 259.37714418 4.56616211 268.97265625 C-0.7577 277.57134772 -5.93008994 286.24953023 -11 295 C-16.34058497 289.8426704 -19.76425308 284.89559814 -20.12765408 277.34909344 C-20.09288542 268.34623883 -19.66799491 259.38779222 -19.14672852 250.40356445 C-19.05556929 248.78366687 -18.96481649 247.16374637 -18.87443638 245.54380512 C-18.68289998 242.11540599 -18.48974551 238.68710348 -18.2955513 235.25885391 C-17.85401858 227.436032 -17.43534258 219.61197768 -17.01504219 211.78799188 C-16.76908997 207.21360682 -16.52161993 202.6393038 -16.2743988 198.06498718 C-15.50722043 183.86020355 -14.7415194 169.65534021 -13.97603512 155.4504652 C-13.39750731 144.71554972 -12.81841874 133.98066503 -12.23803711 123.24584961 C-11.72527874 113.76177619 -11.21356887 104.27764685 -10.70307738 94.79345113 C-10.43498268 89.81327626 -10.16640809 84.83312846 -9.89655876 79.85304832 C-9.59606457 74.30600555 -9.29710835 68.75888199 -8.99975586 63.21166992 C-8.953438 62.34842964 -8.90712015 61.48518935 -8.85939872 60.59579027 C-8.26217021 49.42556405 -7.70778265 38.25547661 -7.31398678 27.07583141 C-6.55913641 6.55913641 -6.55913641 6.55913641 0 0 Z " fill="#98D67F" transform="translate(35,126)"/>
<path d="M0 0 C5.27154764 3.89910956 10.4285766 7.90699232 15.5 12.0625 C19.83423042 15.60873556 24.17304378 19.14618082 28.55859375 22.62890625 C29.29207031 23.21470459 30.02554688 23.80050293 30.78125 24.40405273 C32.19508397 25.53246257 33.61293212 26.65586512 35.03515625 27.77368164 C35.67195313 28.28406982 36.30875 28.79445801 36.96484375 29.3203125 C37.5280835 29.76648926 38.09132324 30.21266602 38.67163086 30.67236328 C40 32 40 32 41 35 C40.4765625 36.875 40.4765625 36.875 39.625 39 C37.74082605 44.31698403 37.25395985 49.38979601 37 55 C36.94714844 55.99128906 36.89429688 56.98257813 36.83984375 58.00390625 C36.5240864 63.36194131 36.5240864 63.36194131 38.296875 68.28515625 C40.01647029 70.3611263 40.01647029 70.3611263 43.5 70.5 C46.92059168 70.33668551 46.92059168 70.33668551 48.65625 68.546875 C50.66006586 64.74894494 50.71265122 60.98839445 51 56.75 C52.07724334 41.15445442 52.07724334 41.15445442 58.125 35.7578125 C64.54495868 31.42609768 72.53808559 30.39876843 80 28.875 C82.2694336 28.39213144 84.53757479 27.90350702 86.80566406 27.41436768 C88.30814571 27.09169333 89.81140755 26.77263035 91.31542969 26.45721436 C95.03675264 25.67117196 98.73052202 24.83194613 102.41015625 23.86816406 C103.11970459 23.6826297 103.82925293 23.49709534 104.56030273 23.30593872 C106.49320269 22.79280144 108.4225329 22.26627016 110.3515625 21.73876953 C115.6832332 20.6591633 121.33367153 19.85736027 126.125 22.9375 C135.04729167 29.43914921 140.10501564 41.80458405 145.625 51.1875 C146.89760094 53.34855239 148.17097683 55.50913382 149.44638062 57.66853333 C150.23390755 59.00207512 151.01984461 60.33655766 151.80386353 61.67216492 C153.52149992 64.58227802 155.26193255 67.37262989 157.20849609 70.1418457 C158.93630503 72.89838144 159.62384392 74.80267333 160 78 C153.64099374 81.29619234 147.24933126 84.39348194 140.65234375 87.18359375 C140.02300934 87.45039948 139.39367493 87.7172052 138.74526978 87.99209595 C136.16232442 89.0839601 133.57773153 90.17154534 130.98803711 91.24731445 C120.05072035 95.80281201 110.05785738 101.05647885 101.0625 108.875 C95.69277079 113.54089136 95.69277079 113.54089136 92 114 C89.80488586 113.27882385 89.80488586 113.27882385 87.38793945 112.07250977 C86.47254898 111.62299957 85.55715851 111.17348938 84.61402893 110.71035767 C83.6237822 110.2091037 82.63353546 109.70784973 81.61328125 109.19140625 C80.57554062 108.67806732 79.53779999 108.16472839 78.46861267 107.63583374 C75.0777127 105.95560454 71.69522207 104.25912442 68.3125 102.5625 C65.98662125 101.40638802 63.66012106 100.25152545 61.33300781 99.09790039 C57.8404068 97.36604686 54.34835484 95.63316034 50.85861206 93.89555359 C44.19343539 90.5768799 37.51595993 87.28725802 30.80859375 84.0546875 C30.0589888 83.69336227 29.30938385 83.33203705 28.5370636 82.95976257 C25.80098463 81.64254409 23.06400954 80.32723086 20.32510376 79.01589966 C11.07855624 74.58592955 2.01297014 69.88242122 -7 65 C-7.09795685 57.66925879 -6.8474878 50.44852951 -6.23046875 43.14453125 C-6.14879959 42.15805099 -6.06713043 41.17157074 -5.98298645 40.15519714 C-5.80979426 38.08868384 -5.63404132 36.02238366 -5.45581055 33.95629883 C-5.18736426 30.81090954 -4.93624578 27.66442533 -4.68554688 24.51757812 C-4.51408218 22.49730547 -4.34159134 20.4771196 -4.16796875 18.45703125 C-4.09595749 17.52663528 -4.02394623 16.59623932 -3.94975281 15.63764954 C-3.43475673 9.93125659 -2.24980353 5.27597211 0 0 Z " fill="#AAEAF2" transform="translate(137,69)"/>
<path d="M0 0 C3.38663314 1.05881604 6.42389243 2.60710965 9.5625 4.25 C11.56219128 5.25061719 13.56222125 6.25055769 15.5625 7.25 C16.70460937 7.82878906 17.84671875 8.40757812 19.0234375 9.00390625 C23.70041297 11.36340735 28.41268249 13.64961956 33.125 15.9375 C34.0201683 16.37229675 34.91533661 16.80709351 35.83763123 17.25506592 C37.66807009 18.14404617 39.49855025 19.03294139 41.32907104 19.92175293 C53.58754696 25.87847797 65.82555586 31.87313201 78 38 C73.14287979 49.44402624 66.38486614 54.9550266 55.4609375 60.5546875 C51.47189732 62.89745713 49.07344016 65.85311968 47 70 C46.47160505 76.21880209 46.27506544 81.73371321 50 87 C52.34346271 89.17477572 52.34346271 89.17477572 55 91 C56.67096058 92.32794815 58.3382245 93.6605756 60 95 C59.42483643 95.33507568 58.84967285 95.67015137 58.25708008 96.01538086 C47.75037017 102.13750636 37.24583889 108.26319994 26.75880432 114.41897583 C23.66795967 116.23323399 20.57603577 118.04558221 17.48120117 119.85302734 C12.0262653 123.04038037 6.58223576 126.24107824 1.18359375 129.5234375 C-0.115177 130.30328003 -0.115177 130.30328003 -1.44018555 131.09887695 C-3.00259403 132.03807668 -4.55816753 132.98879714 -6.10473633 133.95385742 C-10.54529261 136.60230781 -13.681132 137.66816625 -19 137 C-21.36497439 135.13291495 -22.66030715 133.67938569 -24 131 C-24.45601301 121.74060204 -23.79099128 112.43087019 -23.25 103.1875 C-23.06380425 99.97142799 -22.87916826 96.7552691 -22.6953125 93.5390625 C-22.64289398 92.62804276 -22.59047546 91.71702301 -22.53646851 90.77839661 C-22.14446142 83.85444269 -21.79713145 76.92896163 -21.46543121 70.00192165 C-21.15381797 63.49852985 -20.82938381 56.99584602 -20.49785614 50.49343967 C-20.28826816 46.36827725 -20.08544006 42.24300429 -19.89758301 38.11679077 C-19.71752904 34.16718702 -19.51985452 30.21883275 -19.30960464 26.27072525 C-19.23414283 24.79468256 -19.16507193 23.31829756 -19.10277939 21.84164047 C-19.01544654 19.79426742 -18.90518716 17.74931184 -18.78955078 15.70336914 C-18.73340607 14.54922012 -18.67726135 13.39507111 -18.61941528 12.20594788 C-17.71988544 7.55019288 -15.46145911 4.37750489 -12.04077148 1.15332031 C-8.1945053 -1.02035614 -4.27322217 -0.57862478 0 0 Z " fill="#C7EEB8" transform="translate(101,201)"/>
<path d="M0 0 C10.25831991 -1.3692249 18.07062081 2.56029002 27 7 C28.01868164 7.5043457 29.03736328 8.00869141 30.08691406 8.52832031 C34.67691893 10.8066391 39.26333881 13.09125672 43.83374023 15.40869141 C52.14213931 19.61695927 60.52326908 23.6571369 68.93101501 27.66307068 C78.71011138 32.32701598 88.44120705 37.08645449 98.16690063 41.86053467 C113.66836184 49.46933393 129.18568461 57.04216471 144.74731445 64.52709961 C153.87869881 68.92521516 162.95664216 73.42384302 172 78 C171.39750704 81.21065325 170.12532488 83.91196749 168.67602539 86.82397461 C164.31423824 95.6015969 161.51095289 104.54632024 159 114 C154.25 112.125 154.25 112.125 152 111 C150.21381309 111.0798204 148.42868992 111.18410722 146.64453125 111.30078125 C139.2024518 111.35065371 134.10155307 108.71284487 127.6875 105.1875 C125.3811914 103.97729137 123.07388134 102.76898952 120.765625 101.5625 C119.62287109 100.95664063 118.48011719 100.35078125 117.30273438 99.7265625 C112.57256008 97.25378067 107.76567657 94.96130017 102.9375 92.6875 C96.06125058 89.42854082 89.20469327 86.13231427 82.3671875 82.79296875 C80.85555682 82.05573173 79.34391944 81.31850845 77.83227539 80.58129883 C75.58336896 79.48433107 73.33512504 78.38610277 71.08883667 77.28378296 C68.99444576 76.25613225 66.89783579 75.23313912 64.80078125 74.2109375 C64.17263519 73.90105392 63.54448914 73.59117035 62.89730835 73.27189636 C58.52259975 71.14668302 55.50340235 69.88973883 50.64453125 70.24609375 C46.17116135 70.46953424 43.29253394 70.33386352 39 69 C35.39335988 64.93068425 33.41418011 60.39137403 31.18261719 55.46875 C29.08095976 51.08147504 26.5148956 46.97197035 24 42.8125 C22.90071188 40.96060312 21.8031253 39.10769541 20.70703125 37.25390625 C18.30614101 33.20330458 18.30614101 33.20330458 15.90472412 29.15301514 C13.54909207 25.17967644 11.19829366 21.20353498 8.8527832 17.22421265 C8.07771475 15.91109843 7.30102835 14.59893784 6.52270508 13.28775024 C5.43166965 11.449393 4.34609719 9.60791453 3.26171875 7.765625 C2.63225342 6.70118164 2.00278809 5.63673828 1.35424805 4.54003906 C0 2 0 2 0 0 Z " fill="#B0E39A" transform="translate(49,117)"/>
<path d="M0 0 C4.19716127 2.95782447 6.69926761 7.72956612 8.84130859 12.29760742 C9.25255517 15.95586055 8.24686874 18.93749717 7.20068359 22.44604492 C6.85643154 25.17761016 7.06325772 26.89201564 7.54443359 29.56323242 C8.31926233 35.19551023 8.47038452 40.12548047 5.84130859 45.29760742 C-1.1238902 51.96931296 -10.49482878 55.9497256 -19.05175781 60.20336914 C-24.95892775 63.16922265 -30.60554706 66.56775988 -36.27429199 69.96060181 C-39.29632701 71.76364813 -42.33599091 73.53648773 -45.37353516 75.31323242 C-51.30990356 78.79454381 -57.23619992 82.29275135 -63.15869141 85.79760742 C-74.76083512 92.66289688 -86.38627721 99.48818792 -98.02424622 106.2925415 C-101.71625858 108.45159959 -105.40343807 110.61869489 -109.08837891 112.78979492 C-110.79917624 113.79263824 -112.51010298 114.79526085 -114.22119141 115.79760742 C-114.98197998 116.2482959 -115.74276855 116.69898438 -116.52661133 117.16333008 C-117.22117432 117.5685791 -117.9157373 117.97382813 -118.63134766 118.39135742 C-119.22181885 118.73875977 -119.81229004 119.08616211 -120.4206543 119.4440918 C-124.2193142 121.30953849 -127.72321312 121.40993454 -131.90869141 121.36010742 C-132.83584961 121.34906982 -133.76300781 121.33803223 -134.71826172 121.32666016 C-135.52360352 121.31707275 -136.32894531 121.30748535 -137.15869141 121.29760742 C-133.72957497 114.05610843 -129.80389184 107.21916006 -125.59991455 100.40213013 C-123.73005937 97.36903429 -121.87436342 94.3272948 -120.01806641 91.28588867 C-119.6280545 90.64737473 -119.2380426 90.00886078 -118.83621216 89.35099792 C-114.08583871 81.56019023 -109.43400811 73.71090315 -104.78369141 65.86010742 C-104.37173523 65.16479919 -103.95977905 64.46949097 -103.53533936 63.75311279 C-101.24736505 59.89104347 -101.24736505 59.89104347 -98.96124268 56.02787781 C-98.02811472 54.45049596 -97.09345051 52.8740232 -96.15869141 51.29760742 C-95.36773071 49.86989014 -95.36773071 49.86989014 -94.56079102 48.41333008 C-93.86675171 47.36604736 -93.86675171 47.36604736 -93.15869141 46.29760742 C-90.87353516 45.94213867 -90.87353516 45.94213867 -88.09619141 46.11010742 C-78.49593356 45.64040507 -71.15686483 40.16920871 -63.15869141 35.29760742 C-61.22595189 34.1386296 -59.2923199 32.98113912 -57.35791016 31.82495117 C-54.23397852 29.95502365 -51.11211777 28.08197847 -47.99560547 26.19970703 C-39.06853195 20.81106738 -30.05931047 15.58012223 -21.01220703 10.39648438 C-19.99964844 9.81600342 -18.98708984 9.23552246 -17.94384766 8.63745117 C-16.97334473 8.08557129 -16.0028418 7.53369141 -15.00292969 6.96508789 C-13.08475897 5.84052943 -11.19217276 4.67131134 -9.32617188 3.4621582 C-8.00383545 2.60920166 -8.00383545 2.60920166 -6.65478516 1.73901367 C-5.88191162 1.22153564 -5.10903809 0.70405762 -4.31274414 0.17089844 C-2.15869141 -0.70239258 -2.15869141 -0.70239258 0 0 Z " fill="#8BC770" transform="translate(174.15869140625,306.702392578125)"/>
<path d="M0 0 C6.70342767 13.40685535 -1.86306159 36.43354084 -5.98291016 49.63085938 C-7.59816003 54.98142305 -8.94888432 60.39341411 -10.3125 65.8125 C-12.80393547 75.57871135 -15.48703405 85.26231218 -18.37207031 94.91894531 C-20.2967721 101.41992128 -22.02794754 107.95067116 -23.67578125 114.52709961 C-27.481177 129.69943877 -31.46841782 145.22593895 -41 158 C-43.2109375 159.32421875 -43.2109375 159.32421875 -45 160 C-51.4362162 152.54008782 -57.85989414 145.08138232 -64.015625 137.38671875 C-65.92314085 135.0174555 -65.92314085 135.0174555 -67.921875 133.08203125 C-71.95463367 129.04002313 -71.95463367 129.04002313 -72.08789062 125.98510742 C-71.36774412 120.83686263 -70.34115998 115.92360756 -68.875 110.9375 C-68.65908203 110.18001465 -68.44316406 109.4225293 -68.22070312 108.64208984 C-66.93547911 104.15370598 -65.61071038 99.67698545 -64.2890625 95.19921875 C-63.69233 93.17459064 -63.09598121 91.14984939 -62.5 89.125 C-62.20029297 88.10776855 -61.90058594 87.09053711 -61.59179688 86.04248047 C-59.46551973 78.76148679 -57.56190681 71.44739184 -55.77124023 64.07763672 C-54.34252545 58.23976401 -52.70058127 52.49553773 -50.95361328 46.74609375 C-48.69088258 39.18114336 -46.83350114 31.51542953 -44.96704102 23.84472656 C-44.72526123 22.85569336 -44.48348145 21.86666016 -44.234375 20.84765625 C-43.91291504 19.5174646 -43.91291504 19.5174646 -43.58496094 18.16040039 C-43 16 -43 16 -42 14 C-39.17090187 12.82660815 -36.36168575 11.76035419 -33.4765625 10.7421875 C-32.61944672 10.43427277 -31.76233093 10.12635803 -30.87924194 9.80911255 C-29.0629917 9.15848247 -27.24545418 8.51143656 -25.42675781 7.86767578 C-22.64054137 6.88050638 -19.85913337 5.88064084 -17.078125 4.87890625 C-15.31537642 4.24923731 -13.55236399 3.62030642 -11.7890625 2.9921875 C-10.95460602 2.6922287 -10.12014954 2.3922699 -9.26040649 2.08322144 C-8.09437393 1.67246872 -8.09437393 1.67246872 -6.90478516 1.25341797 C-6.22163239 1.01074188 -5.53847961 0.7680658 -4.83462524 0.51803589 C-3 0 -3 0 0 0 Z " fill="#CD90FC" transform="translate(496,266)"/>
<path d="M0 0 C2.50080528 1.77791626 4.10947624 3.7514317 6 6.171875 C10.16478998 11.40721631 14.46317925 16.50063774 18.83789062 21.56152344 C27 31.02586522 27 31.02586522 27 33.421875 C20.5699694 37.35011895 14.21461158 40.98276844 7.2421875 43.86328125 C6.25299316 44.27852051 5.26379883 44.69375977 4.24462891 45.12158203 C2.27179193 45.93702989 0.28692434 46.72404397 -1.70947266 47.47998047 C-4.41211167 48.60659526 -6.68658491 49.62302834 -9 51.421875 C-9.91465913 53.77168843 -10.22133425 55.86667588 -10.51318359 58.36450195 C-11 60.421875 -11 60.421875 -13.93359375 62.6484375 C-15.66802734 63.34066406 -15.66802734 63.34066406 -17.4375 64.046875 C-18.59121094 64.53414063 -19.74492187 65.02140625 -20.93359375 65.5234375 C-24 66.421875 -24 66.421875 -27 65.421875 C-27 64.761875 -27 64.101875 -27 63.421875 C-33.47879621 62.13743837 -37.19231578 62.74150323 -43.12109375 65.5 C-43.86529068 65.8272406 -44.60948761 66.1544812 -45.37623596 66.49163818 C-47.73826436 67.53417883 -50.08785083 68.60176645 -52.4375 69.671875 C-54.78561037 70.72241547 -57.13602679 71.76752156 -59.48805237 72.80926514 C-60.94456611 73.45638586 -62.39851434 74.1093272 -63.84922791 74.76934814 C-74.46706572 79.54597554 -84.0976145 81.60090461 -95.75 81.546875 C-97.02423828 81.55267578 -97.02423828 81.55267578 -98.32421875 81.55859375 C-99.14019531 81.55730469 -99.95617187 81.55601562 -100.796875 81.5546875 C-101.53260742 81.55355957 -102.26833984 81.55243164 -103.02636719 81.55126953 C-105 81.421875 -105 81.421875 -108 80.421875 C-106.56366582 72.55772231 -104.60340127 64.88141269 -102.5 57.171875 C-102.19191406 56.0271875 -101.88382812 54.8825 -101.56640625 53.703125 C-100.17187587 48.55593132 -98.72117919 43.47104226 -97 38.421875 C-96.37883301 38.38408936 -95.75766602 38.34630371 -95.11767578 38.30737305 C-83.83933673 37.05236499 -74.07326501 31.91962431 -63.875 27.234375 C-61.8809588 26.33071612 -59.88624064 25.42854965 -57.89086914 24.52783203 C-53.86338935 22.70873018 -49.8387556 20.88354187 -45.81591797 19.05419922 C-37.38818025 15.22978171 -28.91307507 11.51370687 -20.4375 7.796875 C-17.70634547 6.59790728 -14.97599508 5.39713034 -12.24609375 4.1953125 C-10.57051392 3.45933838 -10.57051392 3.45933838 -8.86108398 2.70849609 C-7.12767346 1.92898646 -5.41124438 1.10754206 -3.73461914 0.21240234 C-2 -0.578125 -2 -0.578125 0 0 Z " fill="#DDACFD" transform="translate(414,404.578125)"/>
<path d="M0 0 C1.5546875 1.48022461 1.5546875 1.48022461 2.875 3.40234375 C3.63006836 4.47645508 3.63006836 4.47645508 4.40039062 5.57226562 C4.92826172 6.35279297 5.45613281 7.13332031 6 7.9375 C7.15587352 9.59271088 8.31213421 11.24765146 9.46875 12.90234375 C10.34853516 14.17634033 10.34853516 14.17634033 11.24609375 15.47607422 C13.94298165 19.35698 16.7224711 23.17662448 19.5 27 C20.57987348 28.49446921 21.65929881 29.98926235 22.73828125 31.484375 C24.94301203 34.53718117 27.14886583 37.58917179 29.35546875 40.640625 C29.90759033 41.4044751 30.45971191 42.1683252 31.02856445 42.95532227 C32.12680847 44.47443861 33.22559639 45.9931619 34.32495117 47.51147461 C36.82457776 50.96790334 39.31123394 54.4315561 41.7578125 57.92578125 C49.64198252 69.64660445 49.64198252 69.64660445 60 79 C57.12499019 93.26552488 52.68183141 107.2340181 48 121 C27.47534645 114.78859169 14.83703348 96.25197095 3.16796875 79.5234375 C0.01238952 75.00262316 -3.20383963 70.52768371 -6.4375 66.0625 C-6.97656982 65.31742187 -7.51563965 64.57234375 -8.07104492 63.8046875 C-9.71323833 61.53588374 -11.35644297 59.26781608 -13 57 C-16.8024732 51.75326399 -20.59909895 46.50247219 -24.3828125 41.2421875 C-25.47582682 39.72675218 -26.57227589 38.21378919 -27.671875 36.703125 C-29.30955956 34.45322192 -30.93681353 32.19608156 -32.5625 29.9375 C-33.29545288 28.93867798 -33.29545288 28.93867798 -34.04321289 27.91967773 C-37.41482768 23.20577523 -39.82744088 18.3681834 -42 13 C-33.76106913 9.49829218 -25.46793521 6.20547294 -17.0625 3.125 C-15.96615234 2.70992188 -14.86980469 2.29484375 -13.74023438 1.8671875 C-12.1537207 1.28710938 -12.1537207 1.28710938 -10.53515625 0.6953125 C-9.590354 0.34484863 -8.64555176 -0.00561523 -7.67211914 -0.36669922 C-4.63662416 -1.08612124 -2.93728485 -1.0303082 0 0 Z " fill="#CD90FC" transform="translate(243,360)"/>
<path d="M0 0 C15.59245112 5.51136372 25.17828584 21.77302569 34.29443359 34.60498047 C37.00963995 38.41777381 39.75580666 42.2080464 42.5 46 C43.57957572 47.49468432 44.65900242 48.98947629 45.73828125 50.484375 C47.94301203 53.53718117 50.14886583 56.58917179 52.35546875 59.640625 C55.06993171 63.3946948 57.78128914 67.15099032 60.49072266 70.90869141 C61.92250772 72.89262393 63.35762546 74.87411 64.79296875 76.85546875 C81 99.29689892 81 99.29689892 81 105 C68.13 109.62 55.26 114.24 42 119 C36.37868481 113.37868481 36.37868481 113.37868481 34.34375 110.42578125 C33.88532715 109.76747314 33.4269043 109.10916504 32.95458984 108.4309082 C32.4745752 107.7318335 31.99456055 107.03275879 31.5 106.3125 C30.44104161 104.79101377 29.38111249 103.27020281 28.3203125 101.75 C27.77536133 100.96753906 27.23041016 100.18507813 26.66894531 99.37890625 C23.94396402 95.49473163 21.16016476 91.65363773 18.375 87.8125 C14.56654873 82.55345046 10.76828156 77.28791134 7 72 C5.78590617 70.30026864 4.57143175 68.60080966 3.35693359 66.90136719 C2.37678045 65.52795361 1.39812633 64.1534698 0.42041016 62.77832031 C-1.27816134 60.39095219 -2.9824637 58.00775405 -4.6875 55.625 C-5.21021484 54.88765625 -5.73292969 54.1503125 -6.27148438 53.390625 C-12.08839221 44.55893873 -12.08839221 44.55893873 -20 38 C-17.47182771 24.14884329 -17.47182771 24.14884329 -13.1875 20.8046875 C-9.73003608 17.98759069 -7.81940784 14.84040319 -5.75 10.9375 C-5.41226562 10.32583984 -5.07453125 9.71417969 -4.7265625 9.08398438 C-3.08238038 6.09014881 -1.49987595 3.06862375 0 0 Z " fill="#DDACFD" transform="translate(410,147)"/>
<path d="M0 0 C-1.68166885 5.40595548 -3.86472944 10.543967 -6.09765625 15.73828125 C-6.49198349 16.65965378 -6.88631073 17.58102631 -7.29258728 18.53031921 C-8.12266382 20.46806859 -8.95395058 22.40529993 -9.78637695 24.34204102 C-11.06498524 27.31828494 -12.3383962 30.29671521 -13.61132812 33.27539062 C-14.41896104 35.15898703 -15.22689319 37.04245516 -16.03515625 38.92578125 C-16.41744888 39.82049637 -16.79974152 40.71521149 -17.19361877 41.63703918 C-17.5474614 42.45846909 -17.90130402 43.27989899 -18.26586914 44.1262207 C-18.57738419 44.85202835 -18.88889923 45.577836 -19.20985413 46.32563782 C-20 48 -20 48 -21 49 C-23.17485935 49.30950359 -25.35613353 49.57408747 -27.5390625 49.8203125 C-35.99402548 50.86070626 -44.12661786 52.78886724 -52.375 54.875 C-53.83077365 55.23729411 -55.28674894 55.59877886 -56.74291992 55.95947266 C-58.88715542 56.49071497 -61.03124201 57.02247262 -63.17454529 57.5574646 C-69.77892972 59.20449917 -76.40851106 60.72562316 -83.05078125 62.2109375 C-85.94204937 62.85743996 -85.94204937 62.85743996 -88.10546875 64.1640625 C-90.85557973 65.37751353 -92.17857116 65.00074525 -95 64 C-97.1034137 62.43184288 -99.00084383 60.87582295 -100.9375 59.125 C-102.08921316 58.11627867 -103.24292598 57.10983674 -104.3984375 56.10546875 C-104.99108398 55.58903809 -105.58373047 55.07260742 -106.19433594 54.54052734 C-109.07833806 52.08000092 -112.06620065 49.75889343 -115.0625 47.4375 C-121.49827044 42.43390241 -127.77127761 37.25904949 -134 32 C-128.21082169 25.70864895 -118.61015878 24.90748066 -110.61096191 23.24026489 C-107.03543946 22.49361543 -103.4648128 21.72439342 -99.89453125 20.953125 C-99.15596893 20.79364883 -98.41740662 20.63417267 -97.65646362 20.46986389 C-89.98788958 18.80109049 -82.36911669 16.94210689 -74.75 15.0625 C-61.29593153 11.74938878 -47.7977459 8.67444947 -34.26464844 5.70141602 C-33.55023087 5.54446259 -32.83581329 5.38750916 -32.0997467 5.22579956 C-30.70525313 4.91986859 -29.31059307 4.61469534 -27.91575623 4.31033325 C-22.51708051 3.12822244 -17.14200844 1.85751804 -11.77368164 0.54492188 C-7.76879092 -0.24188528 -4.06746647 -0.20682033 0 0 Z " fill="#8CD5E6" transform="translate(281,26)"/>
<path d="M0 0 C6.90024374 3.87175306 10.74425646 12.56248842 14.30102539 19.37695312 C17.16753595 24.6958812 20.74278843 27.81244156 26.22949219 30.25097656 C26.35449219 36.00097656 26.35449219 36.00097656 25.22949219 38.25097656 C23.4021261 38.54481293 21.56066384 38.75149933 19.71777344 38.92285156 C10.86126341 40.17170747 3.44467267 43.75602637 -4.58300781 47.50097656 C-6.15714495 48.22069584 -7.73211168 48.93860318 -9.30786133 49.65478516 C-11.72859736 50.75551731 -14.14864929 51.85756097 -16.56596375 52.96578979 C-24.73359621 56.70980465 -32.96592549 60.29963201 -41.20800781 63.87597656 C-43.12002921 64.70624766 -45.03175353 65.5371722 -46.94261169 66.37011719 C-48.7267324 67.14766349 -50.51203508 67.9224959 -52.29736328 68.69726562 C-54.68920747 69.76725694 -57.0399987 70.85892036 -59.38818359 72.015625 C-60.53657715 72.57540039 -61.6849707 73.13517578 -62.86816406 73.71191406 C-64.39389038 74.47834229 -64.39389038 74.47834229 -65.95043945 75.26025391 C-69.11849458 76.37322834 -70.62476724 76.33658417 -73.77050781 75.25097656 C-75.73535156 73.34472656 -75.73535156 73.34472656 -77.70800781 70.75097656 C-78.47113281 69.77 -79.23425781 68.78902344 -80.02050781 67.77832031 C-80.4471875 67.22515137 -80.87386719 66.67198242 -81.31347656 66.10205078 C-82.97106324 63.99618246 -84.67794789 61.9371161 -86.39550781 59.87988281 C-87.02465088 59.12578125 -87.65379395 58.37167969 -88.30200195 57.59472656 C-89.5574427 56.09212142 -90.81440454 54.59078566 -92.07299805 53.09082031 C-92.65251221 52.39214844 -93.23202637 51.69347656 -93.82910156 50.97363281 C-94.6072522 50.04176147 -94.6072522 50.04176147 -95.40112305 49.09106445 C-96.791186 47.22319059 -97.79605647 45.36107327 -98.77050781 43.25097656 C-91.73747852 38.11476525 -84.27613815 34.50523527 -76.33300781 31.00097656 C-75.00221005 30.40691138 -73.67156679 29.81249999 -72.34106445 29.21777344 C-58.74331439 23.16230471 -45.05442722 17.31205124 -31.36450195 11.46875 C-30.50886154 11.10352234 -29.65322113 10.73829468 -28.77165222 10.36199951 C-27.10052455 9.6505545 -25.42835572 8.94154938 -23.75508118 8.23516846 C-20.00623675 6.65008897 -16.27955181 5.03930658 -12.59130859 3.31738281 C-11.95197891 3.02472534 -11.31264923 2.73206787 -10.65394592 2.43054199 C-8.9702398 1.65605499 -7.29489798 0.86345396 -5.62036133 0.06933594 C-2.77050781 -0.74902344 -2.77050781 -0.74902344 0 0 Z " fill="#CD90FC" transform="translate(350.7705078125,141.7490234375)"/>
<path d="M0 0 C4.70176439 3.5263233 8.11253021 7.47590588 11.71484375 12.10546875 C14.7635188 15.96712381 17.95004392 19.70314198 21.14331055 23.4453125 C22.43340175 24.95969591 23.7168424 26.47973719 25 28 C25.78890625 28.84949219 26.5778125 29.69898438 27.390625 30.57421875 C29 33 29 33 28.68920898 35.32763672 C28.01165341 37.95481467 27.32213971 40.57328539 26.58203125 43.18359375 C26.30037109 44.18181152 26.01871094 45.1800293 25.72851562 46.20849609 C25.42623047 47.27406738 25.12394531 48.33963867 24.8125 49.4375 C24.17265157 51.70948748 23.53333795 53.98162565 22.89453125 56.25390625 C22.57436035 57.39230957 22.25418945 58.53071289 21.92431641 59.70361328 C18.30272177 72.61929493 14.83951858 85.57112509 11.5 98.5625 C9.17360009 107.61096114 6.750722 116.62058854 4.12890625 125.58813477 C3.9071875 126.34795654 3.68546875 127.10777832 3.45703125 127.890625 C3.21049805 128.67163574 2.96396484 129.45264648 2.70996094 130.25732422 C1.90061288 133.12968048 1.90061288 133.12968048 1.56347656 136.68408203 C0.23751081 146.22461958 0.23751081 146.22461958 -3.63937378 149.30078125 C-8.73157537 152.1655762 -14.2998031 153.7299661 -19.875 155.375 C-21.54217925 155.91894843 -23.20757764 156.46838732 -24.87109375 157.0234375 C-31.19767678 159.09682091 -37.38770487 161.06914924 -44 162 C-45.27830028 157.07087411 -45.18379939 152.18003707 -45.1875 147.125 C-45.19974609 146.25230469 -45.21199219 145.37960937 -45.22460938 144.48046875 C-45.23629614 139.29933437 -45.0355891 134.80678049 -43 130 C-41.046875 128.90625 -41.046875 128.90625 -38.75 128.5 C-32.16307538 126.7217408 -29.63768005 122.84780726 -26.32421875 117.0859375 C-25.45216797 115.52746094 -25.45216797 115.52746094 -24.5625 113.9375 C-20.14793578 106.2216095 -15.5367971 102.82324169 -7.875 98.5 C-2.08960258 95.21678697 1.13908366 92.45598749 4.3125 86.5625 C5.81080142 80.97792199 5.45383299 76.10984943 2.72265625 71.0390625 C-0.38127718 67.36501885 -4.58828748 65.31679242 -8.71875 62.94921875 C-18.95557696 56.86805606 -18.95557696 56.86805606 -20.65185547 52.20996094 C-21.07894915 49.4988445 -20.64964282 47.6541074 -19.9609375 45 C-19.71287354 44.03618408 -19.46480957 43.07236816 -19.20922852 42.0793457 C-18.93393311 41.06316162 -18.6586377 40.04697754 -18.375 39 C-18.09648193 37.95996826 -17.81796387 36.91993652 -17.53100586 35.84838867 C-14.18852101 23.66258392 -9.70393769 8.73354392 0 0 Z " fill="#DCACFC" transform="translate(240,196)"/>
<path d="M0 0 C3.95840685 4.30190496 6.65072245 9.39014227 9.46875 14.47265625 C12.08403951 18.99911886 14.7330797 21.94474593 19 25 C21.9690253 25.49483755 23.28815995 25.4802589 25.7890625 23.79296875 C28 23 28 23 30.796875 24.0546875 C38.68827832 28.91896521 38.68827832 28.91896521 39.609375 32.11328125 C39.50549615 34.08326935 39.2565214 36.04402436 39 38 C39.96873032 39.35622245 40.96434215 40.69417053 42 42 C41.79446516 44.97786521 41.54217692 46.49817113 39.3203125 48.5546875 C38.59585938 48.99039063 37.87140625 49.42609375 37.125 49.875 C36.31417969 50.3803125 35.50335938 50.885625 34.66796875 51.40625 C33.78753906 51.9321875 32.90710938 52.458125 32 53 C20.72303841 59.76298687 13.51277405 66.4967947 6.859375 77.8515625 C2.11515152 85.88484848 2.11515152 85.88484848 0 88 C-2.76171875 88.5546875 -2.76171875 88.5546875 -6 88 C-8.09637306 85.65403974 -9.39330424 82.91674582 -10.8125 80.125 C-18.32037557 66.50606291 -27.32255298 58.24242996 -40.94555664 50.95996094 C-45.88252074 48.29678971 -45.88252074 48.29678971 -47.1875 45 C-47 42 -47 42 -45.30859375 39.984375 C-42.92375592 37.93446363 -40.68719008 36.64379683 -37.875 35.25 C-23.97025139 27.84400873 -15.39866786 17.44804268 -8.4453125 3.58984375 C-6.30868726 -0.23875768 -4.23856103 -0.60550872 0 0 Z " fill="#FDE997" transform="translate(386,70)"/>
<path d="M0 0 C9.3815086 4.10456625 14.1519124 16.76002803 19.125 25.25 C19.96732539 26.67999949 20.81018391 28.10968506 21.65356445 29.5390625 C22.91509061 31.67729492 24.17628738 33.81571281 25.4356842 35.9552002 C28.98790282 41.98935009 32.57785882 47.99999414 36.1875 54 C36.68588379 54.82918945 37.18426758 55.65837891 37.69775391 56.51269531 C38.79778846 58.34222646 39.89875997 60.17119421 41 62 C40.22140625 62.76054688 39.4428125 63.52109375 38.640625 64.3046875 C32.84678088 70.21852247 30.63156836 75.22217972 30.71484375 83.359375 C31.26748407 88.47697581 33.29843626 92.58203022 37.25 95.875 C38.11625 96.431875 38.11625 96.431875 39 97 C39 97.66 39 98.32 39 99 C28.605 103.455 28.605 103.455 18 108 C15.5879637 104.7839516 13.69357006 101.8012958 11.75 98.3125 C7.76454539 91.24146912 3.61184446 84.27333758 -0.5625 77.3125 C-1.18737305 76.26811768 -1.81224609 75.22373535 -2.45605469 74.14770508 C-9.99221768 60.61372913 -9.99221768 60.61372913 -20 49 C-18.1247145 42.25452614 -15.83139029 35.88624022 -12.98828125 29.4921875 C-12.61519333 28.64069122 -12.24210541 27.78919495 -11.85771179 26.91189575 C-10.68138345 24.23051397 -9.49710513 21.55273388 -8.3125 18.875 C-7.50662972 17.04190034 -6.70128642 15.20856891 -5.89648438 13.375 C-3.93706263 8.91396805 -1.97051003 4.45614451 0 0 Z " fill="#8CD5E6" transform="translate(294,33)"/>
<path d="M0 0 C5.27154764 3.89910956 10.4285766 7.90699232 15.5 12.0625 C19.83423042 15.60873556 24.17304378 19.14618082 28.55859375 22.62890625 C29.29207031 23.21470459 30.02554688 23.80050293 30.78125 24.40405273 C32.19508397 25.53246257 33.61293212 26.65586512 35.03515625 27.77368164 C35.67195313 28.28406982 36.30875 28.79445801 36.96484375 29.3203125 C37.5280835 29.76648926 38.09132324 30.21266602 38.67163086 30.67236328 C40 32 40 32 41 35 C40.4765625 36.875 40.4765625 36.875 39.625 39 C37.74082605 44.31698403 37.25395985 49.38979601 37 55 C36.94714844 55.99128906 36.89429688 56.98257813 36.83984375 58.00390625 C36.50955055 63.37226596 36.50955055 63.37226596 38.34765625 68.26953125 C40.44566717 70.46673891 42.03197554 70.67913249 45 71 C44.01 71.33 43.02 71.66 42 72 C42 77.61 42 83.22 42 89 C30.45579553 84.03801738 19.1702808 78.68488992 7.9375 73.0625 C7.25612976 72.72217743 6.57475952 72.38185486 5.8727417 72.03121948 C-5.81170969 66.18829031 -5.81170969 66.18829031 -7 65 C-7.42800137 57.71643568 -6.84348106 50.40109954 -6.23046875 43.14453125 C-6.14879959 42.15805099 -6.06713043 41.17157074 -5.98298645 40.15519714 C-5.80979426 38.08868384 -5.63404132 36.02238366 -5.45581055 33.95629883 C-5.18736426 30.81090954 -4.93624578 27.66442533 -4.68554688 24.51757812 C-4.51408218 22.49730547 -4.34159134 20.4771196 -4.16796875 18.45703125 C-4.09595749 17.52663528 -4.02394623 16.59623932 -3.94975281 15.63764954 C-3.43475673 9.93125659 -2.24980353 5.27597211 0 0 Z " fill="#A9E8F1" transform="translate(137,69)"/>
<path d="M0 0 C4.27596666 2.82399088 6.76157522 7.70470098 8.89306641 12.25024414 C9.30431298 15.90849726 8.29862655 18.89013389 7.25244141 22.39868164 C6.90818935 25.13024688 7.11501553 26.84465236 7.59619141 29.51586914 C8.36607089 35.16582793 8.59301776 40.08138396 5.89306641 45.25024414 C-1.33571468 51.97425224 -10.6903211 56.11642273 -19.48046875 60.43041992 C-24.2491384 62.7868191 -28.76743467 65.52619278 -33.29443359 68.31274414 C-39.79893105 72.25024414 -39.79893105 72.25024414 -42.10693359 72.25024414 C-42.58994563 70.54299406 -43.06815317 68.8343844 -43.54443359 67.12524414 C-43.9446875 65.69825195 -43.9446875 65.69825195 -44.35302734 64.24243164 C-45.10714476 61.24940604 -45.62152827 58.29803612 -46.10693359 55.25024414 C-46.27531738 54.19522705 -46.44370117 53.14020996 -46.6171875 52.05322266 C-47.83075438 43.14208367 -48.87482285 33.94967047 -46.10693359 25.25024414 C-40.63921574 18.41652734 -32.29600136 15.16814539 -24.44287109 11.76879883 C-19.45879039 9.4999916 -14.92384254 6.59580317 -10.29443359 3.68774414 C-8.79919451 2.75152818 -7.29352266 1.83163107 -5.77490234 0.93383789 C-4.85100708 0.37007446 -4.85100708 0.37007446 -3.90844727 -0.20507812 C-2.10693359 -0.74975586 -2.10693359 -0.74975586 0 0 Z " fill="#7EB561" transform="translate(174.10693359375,306.749755859375)"/>
<path d="M0 0 C6.76118759 4.64744157 6.76118759 4.64744157 8.57421875 8.046875 C8.57421875 9.036875 8.57421875 10.026875 8.57421875 11.046875 C7.77951172 11.39878906 6.98480469 11.75070313 6.16601562 12.11328125 C-40.8159056 32.79001336 -40.8159056 32.79001336 -77.42578125 68.046875 C-79.07578125 67.716875 -80.72578125 67.386875 -82.42578125 67.046875 C-82.42578125 61.436875 -82.42578125 55.826875 -82.42578125 50.046875 C-80.44578125 49.056875 -78.46578125 48.066875 -76.42578125 47.046875 C-74.44882413 44.08143932 -74.14789126 43.23448554 -73.8984375 39.87890625 C-73.82818359 39.06744141 -73.75792969 38.25597656 -73.68554688 37.41992188 C-73.55555519 35.73260411 -73.42789432 34.04510492 -73.30273438 32.35742188 C-72.67848682 25.22075391 -71.88703823 18.78959989 -66.30078125 13.8046875 C-59.88082257 9.47297268 -51.88769566 8.44564343 -44.42578125 6.921875 C-42.15634765 6.43900644 -39.88820646 5.95038202 -37.62011719 5.46124268 C-36.11763554 5.13856833 -34.6143737 4.81950535 -33.11035156 4.50408936 C-29.38902861 3.71804696 -25.69525923 2.87882113 -22.015625 1.91503906 C-21.30607666 1.7295047 -20.59652832 1.54397034 -19.86547852 1.35281372 C-17.93257856 0.83967644 -16.00324835 0.31314516 -14.07421875 -0.21435547 C-9.33818772 -1.17335104 -4.59997138 -1.80739616 0 0 Z " fill="#C9F5FC" transform="translate(261.42578125,90.953125)"/>
<path d="M0 0 C4.97510722 1.28021867 9.37487319 2.99973599 13.9375 5.375 C15.32138696 6.08117542 16.70551891 6.78687086 18.08984375 7.4921875 C18.85409668 7.88374023 19.61834961 8.27529297 20.40576172 8.67871094 C25.58765943 11.31793834 30.79660726 13.9034905 36 16.5 C38.10426072 17.55189521 40.20843488 18.60396359 42.3125 19.65625 C43.66794922 20.33397461 43.66794922 20.33397461 45.05078125 21.02539062 C45.69402344 21.34701172 46.33726562 21.66863281 47 22 C46.27786995 25.19055669 45.13556685 27.89138878 43.67602539 30.82397461 C39.31423824 39.6015969 36.51095289 48.54632024 34 58 C29.25 56.125 29.25 56.125 27 55 C25.23728117 55.09494524 23.47564576 55.21036455 21.71484375 55.3359375 C13.89570758 55.39898563 8.29684376 52.30887645 1.5625 48.625 C-0.70642681 47.42854056 -2.97593573 46.23318419 -5.24609375 45.0390625 C-6.23279053 44.50490723 -7.2194873 43.97075195 -8.23608398 43.42041016 C-10.78262833 42.11170995 -13.32410074 41.0127334 -16 40 C-12.29206326 25.84440623 -7.43267037 12.67771081 0 0 Z " fill="#99D67F" transform="translate(174,173)"/>
<path d="M0 0 C4.32932633 1.51045385 5.65920097 4.32097518 7.875 8.1875 C13.07062297 16.91978006 17.54366445 22.05810225 26.296875 27.35546875 C29.66737589 29.40601915 32.82004752 31.66803485 36 34 C34.49038707 38.30908502 31.73364701 39.61459318 27.875 41.8125 C15.83406613 49.00308645 9.9980477 57.05456203 3 69 C0.671875 68.80859375 0.671875 68.80859375 -2 68 C-3.484375 65.84765625 -3.484375 65.84765625 -4.75 63.0625 C-10.70338154 51.42703025 -18.92408366 45.25896658 -30 39 C-30.99 38.34 -31.98 37.68 -33 37 C-32.9375 34.76171875 -32.9375 34.76171875 -32 32 C-29.66783144 30.39663412 -27.49187885 29.10716499 -25 27.8125 C-14.31418567 21.80930445 -8.20666139 14.08154905 -2.3125 3.37109375 C-1 1 -1 1 0 0 Z " fill="#FCE897" transform="translate(195,242)"/>
<path d="M0 0 C8.97093415 3.93828425 13.72956546 15.95028689 18.51538086 24.05566406 C19.82009061 26.26284102 21.13515456 28.46361311 22.45117188 30.6640625 C23.2870828 32.07254625 24.12239116 33.48138781 24.95703125 34.890625 C25.34864944 35.54484436 25.74026764 36.19906372 26.14375305 36.87310791 C27.89549955 39.85554655 29.45205344 42.5532917 30 46 C25.10968962 48.12415118 20.21666561 50.24187618 15.32104492 52.35375977 C13.65687637 53.07271297 11.99345555 53.79339959 10.33081055 54.51586914 C7.93734287 55.55554284 5.541233 56.58890113 3.14453125 57.62109375 C2.4047554 57.94403915 1.66497955 58.26698456 0.90278625 58.59971619 C-2.71699295 60.15149629 -6.07063313 61.42998884 -10 62 C-10.38671875 61.39671875 -10.7734375 60.7934375 -11.171875 60.171875 C-15.07616197 54.17198187 -15.07616197 54.17198187 -20 49 C-18.1247145 42.25452614 -15.83139029 35.88624022 -12.98828125 29.4921875 C-12.61519333 28.64069122 -12.24210541 27.78919495 -11.85771179 26.91189575 C-10.68138345 24.23051397 -9.49710513 21.55273388 -8.3125 18.875 C-7.50662972 17.04190034 -6.70128642 15.20856891 -5.89648438 13.375 C-3.93706263 8.91396805 -1.97051003 4.45614451 0 0 Z " fill="#A9E8F1" transform="translate(294,33)"/>
<path d="M0 0 C3.04218216 1.43641085 6.08365123 2.87432554 9.125 4.3125 C9.9809375 4.71662109 10.836875 5.12074219 11.71875 5.53710938 C16.17134691 7.64353022 20.60584463 9.77410818 25 12 C20.32142371 23.47309161 13.28614388 29.00563213 2.4609375 34.5546875 C-1.52810268 36.89745713 -3.92655984 39.85311968 -6 44 C-6.52839495 50.21880209 -6.72493456 55.73371321 -3 61 C-0.65653729 63.17477572 -0.65653729 63.17477572 2 65 C3.67096058 66.32794815 5.3382245 67.6605756 7 69 C3.12681398 71.27393792 -0.74886311 73.54359634 -4.625 75.8125 C-5.71941406 76.45509766 -6.81382812 77.09769531 -7.94140625 77.75976562 C-9.00488281 78.38173828 -10.06835938 79.00371094 -11.1640625 79.64453125 C-12.62513428 80.50075073 -12.62513428 80.50075073 -14.11572266 81.37426758 C-17.03259238 83.0183708 -19.9932255 84.52781145 -23 86 C-21.36315861 78.28108808 -19.3630461 70.68084156 -17.3125 63.0625 C-16.95575687 61.73253947 -16.59915101 60.40254212 -16.24267578 59.07250977 C-15.51555711 56.36087633 -14.78725615 53.64956427 -14.05810547 50.93847656 C-13.07742381 47.29085315 -12.10262534 43.64167622 -11.12890625 39.9921875 C-7.55491831 26.62118697 -3.85255547 13.29343316 0 0 Z " fill="#AFE29A" transform="translate(154,227)"/>
</svg>
