<?xml version="1.0" encoding="UTF-8"?>
<svg version="1.1" xmlns="http://www.w3.org/2000/svg" width="512" height="512">
<path d="M0 0 C5.89883735 4.70339191 11.59125157 9.64199092 17.25390625 14.625 C49.29424318 42.76730845 85.04270093 62.6603721 129.10697937 60.77088928 C132.5041227 60.54004453 135.83996003 60.01769462 139.1875 59.41796875 C139.91770355 59.28773315 140.6479071 59.15749756 141.40023804 59.02331543 C149.57099127 57.48697373 157.44987417 55.0925336 165.37890625 52.625 C195.41241469 43.32518036 195.41241469 43.32518036 205.25390625 44.625 C207.75390625 46.5 207.75390625 46.5 209.25390625 48.625 C209.25390625 49.285 209.25390625 49.945 209.25390625 50.625 C215.52390625 50.625 221.79390625 50.625 228.25390625 50.625 C228.91390625 48.975 229.57390625 47.325 230.25390625 45.625 C234.04016335 43.1008286 235.7404056 43.30746729 240.25390625 43.625 C243.366738 44.25687082 246.3948106 45.10586311 249.44140625 46 C250.23482422 46.22171875 251.02824219 46.4434375 251.84570312 46.671875 C257.77984957 48.36592184 257.77984957 48.36592184 260.2668457 49.72509766 C264.14505374 51.48146513 268.90480981 49.88667819 272.97265625 49.09765625 C288.5912399 46.84783646 304.0163051 48.57745187 317.25390625 57.625 C333.84276323 70.41846297 342.80508569 87.75568087 345.97106934 108.39404297 C346.81422553 115.04467853 346.74425011 121.74522821 346.69140625 128.4375 C346.68902954 129.23571167 346.68665283 130.03392334 346.6842041 130.85632324 C346.61549518 145.71591975 345.17991793 160.03261556 342.25390625 174.625 C342.07778809 175.51735352 341.90166992 176.40970703 341.72021484 177.32910156 C338.5647253 192.91286955 338.5647253 192.91286955 333.19140625 198.9375 C328.87052165 201.4197103 325.107586 201.76315486 320.25390625 200.625 C317.18694145 198.63468307 314.71433965 196.31910585 312.25390625 193.625 C315.02380668 203.10815665 321.97796882 209.44823439 328.87890625 216.1875 C338.53971975 225.67626596 344.25314872 234.50441037 344.61035156 248.42089844 C344.61645849 251.02668446 344.60668581 253.62902857 344.58203125 256.234375 C344.57959182 257.66529689 344.57841868 259.09622142 344.57841492 260.52714539 C344.57415516 264.35184192 344.55052132 268.17616569 344.52122116 272.00074387 C344.49801417 275.18293441 344.48285506 278.36514591 344.46728039 281.5473814 C344.43522052 288.00833516 344.39302209 294.469123 344.33888721 300.92992878 C344.272086 308.93237573 344.24782553 316.93324581 344.26272583 324.9359436 C344.26644171 329.83945573 344.241012 334.74249101 344.20715332 339.64587402 C344.19679116 341.89414141 344.19754594 344.14249214 344.21032715 346.39074707 C344.27775615 360.65279035 343.69445736 374.23253796 333.76928711 385.42749023 C328.86886261 389.70864339 325.13603265 389.9331304 318.7265625 389.92578125 C317.90063095 389.93006638 317.0746994 389.9343515 316.22373962 389.93876648 C314.47965409 389.94450066 312.73554464 389.94501676 310.99145508 389.94067383 C308.32917301 389.93751515 305.66800404 389.96097905 303.00585938 389.98632812 C301.30859515 389.98860141 299.61132794 389.98930448 297.9140625 389.98828125 C296.72478905 390.00209587 296.72478905 390.00209587 295.51148987 390.01618958 C290.91580136 389.97789449 288.01636985 389.53862311 284.25390625 386.625 C281.14578483 383.34420516 279.84864717 381.07234043 279.25390625 376.625 C279.96327277 366.57564093 283.94994731 358.63840374 291.37158203 352.0065918 C298.39252381 344.35493145 297.60095676 336.38136782 297.37109375 326.45703125 C297.36257586 324.60863077 297.35793442 322.76020879 297.35696411 320.91178894 C297.34469121 317.05550761 297.29958497 313.20157664 297.22802734 309.34594727 C297.13729123 304.41979203 297.10796196 299.49575105 297.10055351 294.56883717 C297.09167123 290.75867645 297.06102349 286.94895291 297.02280045 283.13898277 C297.00512933 281.32305145 296.99162449 279.50707436 296.9824791 277.69108009 C296.96426236 275.14979391 296.9193854 272.61035739 296.86669922 270.06958008 C296.86536987 269.33016174 296.86404053 268.59074341 296.8626709 267.82891846 C296.68209524 261.47590956 294.60992927 256.23934048 290.33447266 251.49511719 C289.35486572 250.7163623 289.35486572 250.7163623 288.35546875 249.921875 C287.6284375 249.3340625 286.90140625 248.74625 286.15234375 248.140625 C285.02699219 247.26664062 285.02699219 247.26664062 283.87890625 246.375 C283.13640625 245.776875 282.39390625 245.17875 281.62890625 244.5625 C277.62851668 241.36784261 273.56294543 238.38825687 269.25390625 235.625 C268.72023438 236.29144531 268.1865625 236.95789063 267.63671875 237.64453125 C263.62907034 242.60208941 259.57224797 247.43438744 255.25390625 252.125 C251.14011716 256.5948512 247.28303328 261.21544893 243.46875 265.94140625 C240.59788765 269.41985851 237.56585969 272.73470018 234.52734375 276.06640625 C231.29458255 279.70465124 228.24577521 283.48279763 225.19921875 287.27734375 C223.25390625 289.625 223.25390625 289.625 221.62109375 290.98608398 C220.05004768 292.54268774 220.05004768 292.54268774 220.11279297 294.75048828 C220.21865723 295.55728027 220.32452148 296.36407227 220.43359375 297.1953125 C220.53800781 298.0925 220.64242188 298.9896875 220.75 299.9140625 C220.87503906 300.84992188 221.00007813 301.78578125 221.12890625 302.75 C223.2143664 318.97533833 223.2143664 318.97533833 220.01171875 324.9375 C215.65743299 329.43762308 211.01751409 333.41365745 206.11328125 337.30859375 C202.35555566 340.35276216 198.80514918 343.59857452 195.25 346.875 C191.57135817 350.10011065 188.53775459 349.97554321 183.7890625 349.88671875 C179.8568492 349.48077377 178.08138433 348.38672278 175.25390625 345.625 C168.15026568 334.42538841 166.45777299 322.27457491 169.25390625 309.3125 C169.434375 308.50941406 169.61484375 307.70632813 169.80078125 306.87890625 C170.93644674 301.22994945 170.22852559 296.26818978 169.19140625 290.6875 C167.19183634 278.88263172 167.19183634 278.88263172 170.72265625 273.3046875 C172.80567104 270.64969734 175.00501753 268.14101193 177.25390625 265.625 C178.12097222 264.60607315 178.98412895 263.58380933 179.84375 262.55859375 C183.65884351 258.00961598 187.4838354 253.47652177 191.4375 249.046875 C191.95078857 248.46333252 192.46407715 247.87979004 192.99291992 247.27856445 C193.98141415 246.15590717 194.97996412 245.04200485 195.98950195 243.93823242 C198.49447109 241.11863926 198.49447109 241.11863926 199.42578125 237.56640625 C197.98446527 235.1786261 196.0864297 233.7331422 193.90722656 232.03076172 C191.05369194 229.60449881 188.89074998 226.65537123 186.62890625 223.6875 C186.16484375 223.09259766 185.70078125 222.49769531 185.22265625 221.88476562 C182.39626768 218.23201768 179.77183357 214.49646102 177.25390625 210.625 C171.96188703 211.20306192 167.31643456 212.54846137 162.31640625 214.375 C154.89999106 216.96492173 147.44394451 218.84461027 139.75390625 220.4375 C138.76398682 220.64407227 137.77406738 220.85064453 136.75415039 221.06347656 C125.53017947 223.30732795 114.54036769 223.83702922 103.11962891 223.86523438 C100.81373287 223.87475304 98.50880575 223.90577272 96.203125 223.9375 C82.42151086 224.03117838 68.90469677 222.40865944 55.25390625 220.625 C55.25026062 221.72889572 55.24661499 222.83279144 55.24285889 223.97013855 C55.20591846 234.37307173 55.14815613 244.77570864 55.07000351 255.17841625 C55.0304935 260.52659012 54.99832225 265.87459848 54.98291016 271.22290039 C54.96776688 276.3842911 54.93336255 281.54522687 54.88559723 286.70641518 C54.87075942 288.67554076 54.86286386 290.64473128 54.8620224 292.61391258 C54.85965822 295.37225225 54.83262311 298.12932903 54.79980469 300.88745117 C54.80735023 302.1088102 54.80735023 302.1088102 54.81504822 303.35484314 C54.7436457 307.23337229 54.47367994 309.24977163 52.4697876 312.6710968 C50.25390625 314.625 50.25390625 314.625 46.25390625 314.625 C46.27670026 317.73079494 46.35398444 320.83290484 46.44140625 323.9375 C46.44720703 324.81857422 46.45300781 325.69964844 46.45898438 326.60742188 C46.54245962 329.04675397 46.6658364 331.25500423 47.25390625 333.625 C49.5869984 335.76118264 49.5869984 335.76118264 52.25390625 336.625 C55.729469 340.10056275 54.02144662 353.27554804 54.06738281 358.32885742 C54.0000797 370.09099851 51.80213767 378.35080262 43.59960938 387.17431641 C42.05594554 388.78949757 42.05594554 388.78949757 40.14453125 391.41796875 C37.27700457 394.76539142 35.28426479 395.53182375 30.86572266 395.93139648 C29.52921302 395.96472996 28.19235272 395.98558722 26.85546875 395.99609375 C26.1428891 396.00512222 25.43030945 396.0141507 24.69613647 396.02345276 C23.1916726 396.03792845 21.68714615 396.04683534 20.18261719 396.05053711 C17.89278972 396.0624279 15.60566492 396.11162551 13.31640625 396.16210938 C11.85027349 396.1715756 10.38412427 396.17880969 8.91796875 396.18359375 C8.23964996 396.20312607 7.56133118 396.22265839 6.86245728 396.24278259 C1.2797993 396.19036674 -0.95077439 394.407188 -4.74609375 390.625 C-7.30770727 386.72689247 -6.9222987 382.90628996 -6.34375 378.4375 C-4.55669931 370.02784967 -0.85027045 363.06403613 4.703125 356.5625 C7.6382936 352.8953876 8.5101179 350.26742971 8.30459595 345.56622314 C8.26527451 344.54575897 8.22595306 343.5252948 8.18544006 342.47390747 C8.13149582 341.36006683 8.07755157 340.2462262 8.02197266 339.09863281 C7.97349686 337.92096344 7.92502106 336.74329407 7.87507629 335.52993774 C7.74015195 332.30206666 7.59566407 329.07479183 7.44704866 325.8475275 C7.29362118 322.46434202 7.15273309 319.08063544 7.0105896 315.69696045 C6.73925194 309.28177909 6.45718927 302.86711773 6.17103136 296.45258212 C5.75241763 287.05795907 5.35010728 277.66263523 4.94750023 268.26731491 C4.88788949 266.87683837 4.82827155 265.48636214 4.76864624 264.09588623 C4.73952884 263.41646933 4.71041144 262.73705244 4.6804117 262.03704715 C4.47988813 257.36772732 4.27454128 252.69863907 4.0675354 248.02960205 C4.0129567 246.78526398 3.95837799 245.5409259 3.90214539 244.25888062 C3.80063014 241.94526126 3.69782397 239.63169801 3.59342957 237.31820679 C3.35064933 231.74701347 3.20123671 226.20147221 3.25390625 220.625 C-35.24256526 227.77882475 -35.24256526 227.77882475 -65.40380859 248.99946594 C-68.33525402 254.23318595 -70.34682307 259.8243361 -71.87402344 265.61572266 C-72.6755532 268.38158377 -73.5829491 270.1183789 -75.16796875 272.47265625 C-78.39193793 278.5088029 -75.70166064 286.47317066 -74.49609375 292.875 C-69.88609239 318.43851437 -69.88609239 318.43851437 -73.734375 325.03125 C-77.29289969 328.09591977 -80.94198215 330.6618094 -84.93359375 333.125 C-86.06970093 333.83619995 -86.06970093 333.83619995 -87.22875977 334.56176758 C-88.7263547 335.4975442 -90.22620618 336.42972117 -91.72851562 337.35791016 C-93.42164133 338.42123571 -95.08066888 339.53859004 -96.73046875 340.66796875 C-101.63304436 343.954568 -105.50134164 345.54328552 -111.48046875 345.1484375 C-115.39888452 344.24314834 -117.07232389 342.6329911 -119.74609375 339.625 C-123.60281297 332.82982805 -123.62773697 322.31077248 -122.4465332 314.69311523 C-121.48438616 308.28617164 -122.37849929 302.86604267 -123.68359375 296.5625 C-128.03595742 273.42946502 -122.7748424 258.19841605 -112.74609375 237.375 C-111.93036433 235.66696514 -111.11525601 233.9586335 -110.30078125 232.25 C-108.12882352 227.70200871 -105.95268343 223.15630946 -103.74609375 218.625 C-103.389104 217.89172989 -103.03211426 217.15845978 -102.66430664 216.40296936 C-102.31489014 215.69353683 -101.96547363 214.98410431 -101.60546875 214.25317383 C-101.29448242 213.62051102 -100.98349609 212.98784821 -100.66308594 212.33601379 C-95.84275638 203.34177101 -87.61500013 198.01846934 -78.74609375 193.625 C-77.83730469 193.17382812 -76.92851563 192.72265625 -75.9921875 192.2578125 C-70.86316281 189.72932779 -65.71756789 187.23558395 -60.55078125 184.78515625 C-59.2356958 184.16072632 -59.2356958 184.16072632 -57.89404297 183.52368164 C-55.74609375 182.625 -55.74609375 182.625 -53.74609375 182.625 C-54.21015625 181.14 -54.21015625 181.14 -54.68359375 179.625 C-56.98986418 172.24493463 -56.84612593 164.65826954 -56.703125 157.01953125 C-56.68072815 154.96290036 -56.65927369 152.90625903 -56.63867188 150.84960938 C-56.60172999 147.6483874 -56.55878364 144.44771281 -56.49926758 141.24682617 C-55.71506278 120.57746726 -55.71506278 120.57746726 -64.74609375 102.625 C-65.03457202 104.23348489 -65.32258725 105.8420536 -65.60888672 107.45092773 C-65.87183294 108.92730613 -66.13654285 110.40337129 -66.40283203 111.87915039 C-67.22583018 116.49271512 -67.9769818 121.10964548 -68.66015625 125.74609375 C-68.81967773 126.79216797 -68.97919922 127.83824219 -69.14355469 128.91601562 C-69.45469101 130.96607951 -69.75287738 133.01816385 -70.03613281 135.07226562 C-71.46342748 144.30189899 -74.47097863 152.44115214 -81.74609375 158.625 C-82.44734375 159.305625 -83.14859375 159.98625 -83.87109375 160.6875 C-91.39943753 165.76094907 -99.74459704 167.88368386 -108.74609375 166.625 C-118.84678387 164.07252831 -125.61154511 159.92719067 -131.38671875 151.296875 C-135.54990339 143.1140638 -136.56655168 134.61694139 -137.65298462 125.61853027 C-139.23812678 112.5919199 -141.42972156 99.91102617 -144.50875854 87.15484619 C-148.77997043 69.44461944 -151.22745443 52.60509346 -146.74609375 34.625 C-147.6753064 34.18607422 -147.6753064 34.18607422 -148.62329102 33.73828125 C-157.28716735 29.19460372 -161.64034444 18.93951015 -165.05859375 10.3125 C-166.24740788 3.93613332 -167.5984758 -3.47810297 -163.97265625 -9.1484375 C-158.77045228 -14.35064147 -152.83024976 -14.29233774 -145.74609375 -14.375 C-137.57816825 -13.84550663 -130.74861563 -11.88309789 -123.40234375 -8.30078125 C-120.20003683 -7.1846831 -118.94625315 -7.29871321 -115.74609375 -8.375 C-113.27313273 -9.58187265 -110.85606759 -10.82544681 -108.43359375 -12.125 C-72.98598653 -30.51731495 -31.22054163 -24.04907206 0 0 Z " fill="#010100" transform="translate(165.74609375,69.375)"/>
<path d="M0 0 C9.16731003 -0.60113508 16.66192351 1.62528178 24.3125 6.75 C26.77999089 8.36490257 28.09995128 9.02039822 31.0625 9.625 C34.5477427 8.883459 36.42450447 7.48774248 39.09375 5.19140625 C46.17084039 0.76822476 58.57607148 2.15573883 66.58203125 3.68359375 C78.49871318 7.09037945 87.23698165 13.39604633 96 22 C96.67804688 22.65355469 97.35609375 23.30710937 98.0546875 23.98046875 C112.25101816 38.71842648 119.78067386 59.66214992 126.828125 78.4609375 C127.06700943 79.09729126 127.30589386 79.73364502 127.55201721 80.38928223 C128.71315525 83.49154255 129.85808944 86.59787662 130.98217773 89.71386719 C138.46607217 110.07645727 149.53053186 126.8394033 169.29296875 136.9609375 C173.63774984 138.62863125 177.45193677 139.03814487 182 138 C187.38983445 134.83640152 188.52238854 129.39707534 190.0859375 123.6640625 C190.53839844 121.85035156 190.53839844 121.85035156 191 120 C191.45246094 118.34097656 191.45246094 118.34097656 191.9140625 116.6484375 C196.50921552 96.93651938 195.58749945 75.36551013 190 56 C189.64731066 54.3373217 189.30489403 52.67210302 189 51 C189.63164062 51.36351562 190.26328125 51.72703125 190.9140625 52.1015625 C196.29664224 55.12635515 201.71130061 57.82345879 207.3984375 60.2109375 C208.03740967 60.48188232 208.67638184 60.75282715 209.3347168 61.03198242 C210.88874206 61.69051698 212.44421886 62.34562448 214 63 C214.00142502 63.6373407 214.00285004 64.2746814 214.00431824 64.93133545 C214.02413554 71.61627226 214.07866501 78.30031067 214.15258789 84.98486328 C214.17566281 87.47340429 214.1901387 89.9620415 214.19555664 92.45068359 C214.20492281 96.04584995 214.24608388 99.6395248 214.29296875 103.234375 C214.28706978 104.88043732 214.28706978 104.88043732 214.28105164 106.55975342 C214.4765279 117.11015988 217.66065616 126.52993455 225.04296875 134.25 C232.08242821 140.54476615 238.96467762 144.21558451 248.54931641 144.30639648 C249.83150055 144.32238388 251.11368469 144.33837128 252.4347229 144.35484314 C253.82366534 144.36122321 255.21261263 144.36661489 256.6015625 144.37109375 C258.0439767 144.38007556 259.48639002 144.38919765 260.92880249 144.39845276 C263.94979097 144.41490684 266.97066916 144.42263561 269.99169922 144.42553711 C273.83135382 144.43090032 277.66994606 144.46850833 281.50930214 144.51428127 C284.48993543 144.54428169 287.47032075 144.55126567 290.45109177 144.55226326 C291.86467703 144.55642453 293.27826592 144.56869088 294.69169998 144.58978081 C306.76077711 144.75545366 317.27884433 142.5834152 326.25 134.0234375 C334.42271791 124.57373242 336.29414517 115.55071041 336.4140625 103.3828125 C336.43342865 102.17051971 336.4527948 100.95822693 336.4727478 99.709198 C336.53239315 95.84786961 336.57886945 91.98651117 336.625 88.125 C336.66319356 85.50259137 336.70224609 82.88019509 336.7421875 80.2578125 C336.83808247 73.83865161 336.92317405 67.41941591 337 61 C338.26457031 60.75765625 339.52914063 60.5153125 340.83203125 60.265625 C342.49236013 59.92793099 344.15250726 59.58934253 345.8125 59.25 C346.64587891 59.09273437 347.47925781 58.93546875 348.33789062 58.7734375 C353.10937356 57.83045518 353.10937356 57.83045518 357.01171875 55.109375 C358.19738526 52.7543712 358.19738526 52.7543712 359 49 C365.27 49 371.54 49 378 49 C378.99 50.98 379.98 52.96 381 55 C383.90745601 56.93830401 385.01605982 57.30833856 388.3125 57.8125 C406.31252519 61.22358349 422.15241355 70.21336186 432.75 85.3125 C441.50174862 98.2719638 445.55001353 111.14361454 445.25 126.75 C445.23904297 127.92667236 445.22808594 129.10334473 445.21679688 130.31567383 C445.11276933 138.71194073 444.77048135 147.09020209 444.36523438 155.47631836 C444.03252836 162.58790946 443.82482803 169.69338282 443.75 176.8125 C443.72873047 177.78469482 443.70746094 178.75688965 443.68554688 179.75854492 C443.60970212 195.4218415 450.63325157 208.30660009 461.3203125 219.31640625 C463.47344198 221.4726744 465.63619105 223.61721723 467.8125 225.75 C477.77520477 235.52065263 477.77520477 235.52065263 478.13701439 241.12068844 C478.14258669 242.0042278 478.14815899 242.88776716 478.15390015 243.79808044 C478.16250061 244.81145981 478.17110107 245.82483917 478.17996216 246.868927 C478.18635208 248.54340408 478.18635208 248.54340408 478.19287109 250.25170898 C478.20104858 251.42426743 478.20922607 252.59682587 478.21765137 253.80491638 C478.24254764 257.70196163 478.25918998 261.59899924 478.2734375 265.49609375 C478.27879849 266.83994109 478.284176 268.18378837 478.28956985 269.52763557 C478.31120915 275.12334862 478.32994031 280.7190588 478.34119225 286.31480312 C478.35739148 294.31740602 478.39045795 302.31952023 478.44759309 310.32193893 C478.48643579 315.9560747 478.50584232 321.59008064 478.51111281 327.2243467 C478.51474974 330.58463108 478.529127 333.94398302 478.55921555 337.30419731 C478.5909527 341.06441775 478.59088942 344.82342015 478.58349609 348.58374023 C478.59990143 349.68184021 478.61630676 350.77994019 478.63320923 351.91131592 C478.56504466 360.42326287 476.85415097 363.52086786 473 372 C464.09 372 455.18 372 446 372 C446.93390739 367.33046307 447.32151419 366.12585592 450.125 362.6875 C450.96417969 361.64142578 450.96417969 361.64142578 451.8203125 360.57421875 C454 358 454 358 455.71266174 356.74183655 C459.4618745 353.56720147 461.13458328 350.53706058 461.65838623 345.68962097 C462.00499781 340.08207492 461.94755699 334.47471993 461.89453125 328.859375 C461.89670985 326.76962954 461.90111526 324.67988534 461.90763855 322.59014893 C461.91343546 318.21547365 461.8945264 313.84180344 461.85766602 309.46728516 C461.81230028 303.8877052 461.82472723 298.31008429 461.85547352 292.73046494 C461.87336351 288.41492147 461.86196435 284.09982825 461.84183311 279.78430939 C461.83535988 277.72883239 461.83736275 275.67330915 461.84833717 273.61785126 C461.89685022 260.46907278 461.42895008 250.59030881 452.578125 240.140625 C451.80984375 239.51671875 451.0415625 238.8928125 450.25 238.25 C449.38375 237.52941406 448.5175 236.80882812 447.625 236.06640625 C446.75875 235.38449219 445.8925 234.70257813 445 234 C444.21625 233.36964844 443.4325 232.73929688 442.625 232.08984375 C441.00706071 230.79389566 439.3844601 229.50375061 437.7578125 228.21875 C427.82700701 220.22909345 418.24193385 211.7750592 409 203 C408.38366699 202.41766602 407.76733398 201.83533203 407.13232422 201.23535156 C398.69664084 193.20949053 391.0397161 185.04412719 384.33618164 175.49560547 C381.35070583 171.33667939 379.02062226 168.70179534 374 167 C369.24689819 166.41724422 366.82955093 167.30504047 362.9375 170 C361.98101562 170.64066406 361.02453125 171.28132812 360.0390625 171.94140625 C359.03617187 172.62074219 358.03328125 173.30007812 357 174 C310.67399866 203.9511294 255.69982002 214.28573179 201.56640625 202.6875 C198.62360004 202.04268664 195.69584503 201.37918576 192.77880859 200.6262207 C176.21230596 196.64971222 161.53125554 199.20954099 145.6875 204.5625 C143.96795971 205.1205878 142.2475697 205.67606385 140.52636719 206.22900391 C137.1726516 207.31064778 133.82409969 208.40613524 130.47998047 209.51708984 C125.79811156 211.07180463 121.09829028 212.56544752 116.39160156 214.04321289 C113.84674861 214.84453581 111.30786899 215.66268576 108.76953125 216.484375 C105.40567754 217.56693061 102.02875684 218.5874811 98.63671875 219.578125 C97.32525879 219.96895264 97.32525879 219.96895264 95.98730469 220.36767578 C94.35250303 220.85323254 92.71403104 221.32669347 91.07128906 221.78466797 C90.34522461 222.00268066 89.61916016 222.22069336 88.87109375 222.4453125 C87.92641235 222.71625732 87.92641235 222.71625732 86.96264648 222.99267578 C81.72370589 225.68155112 78.94123037 230.42601715 76.22265625 235.4453125 C75.88882431 236.05583466 75.55499237 236.66635681 75.21104431 237.29537964 C74.15330042 239.23424471 73.10771407 241.17935713 72.0625 243.125 C71.36603702 244.40668648 70.66877711 245.68794025 69.97070312 246.96875 C68.94204789 248.85629918 67.91686407 250.74526779 66.90322876 252.64093018 C65.37983394 255.48890778 63.82232822 258.29594678 62.15966797 261.06542969 C58.62137385 267.02455256 57.04424074 271.09991824 58 278 C58.13148437 278.98210449 58.26296875 279.96420898 58.3984375 280.97607422 C59.05466846 285.43588978 59.81834843 289.8752065 60.578125 294.31835938 C61.1066604 297.5405377 61.57086341 300.76320082 62 304 C62.14493896 304.92748047 62.28987793 305.85496094 62.43920898 306.81054688 C62.69102929 309.48120059 62.74177257 311.41935768 62 314 C59.42311868 316.91444603 56.41836789 318.70519029 53.0625 320.625 C52.21236328 321.15222656 51.36222656 321.67945313 50.48632812 322.22265625 C44.32974838 326 44.32974838 326 43 326 C43.02094727 325.31711914 43.04189453 324.63423828 43.06347656 323.93066406 C43.39972902 311.22542893 43.49749529 299.07027288 40.42285156 286.67285156 C37.70977159 275.60290495 39.12318025 268.27412105 44 258 C44.82488506 256.19143641 45.64976512 254.38287053 46.47445679 252.57421875 C47.64524103 250.02167211 48.83605775 247.47875041 50.02905273 244.93652344 C50.93590597 243.00339797 51.83834754 241.0682592 52.74023438 239.1328125 C53.91705241 236.61043486 55.10574913 234.09419809 56.30419922 231.58203125 C57.39444466 229.27911142 58.46072479 226.96460935 59.49658203 224.63671875 C66.27030808 209.93093432 78.16642044 205.70181284 92.18408203 199.33129883 C94.54095756 198.25442175 96.88769048 197.15746128 99.234375 196.05859375 C99.9542157 195.7396666 100.6740564 195.42073944 101.41571045 195.09214783 C106.09554892 192.89094145 108.55255043 190.74300188 111 186 C111.45430758 181.45692424 111.00465849 177.83857221 109.98217773 173.42089844 C108.85545399 167.89768082 108.79399878 162.63350865 108.91015625 157.015625 C108.93058363 154.92448155 108.95075798 152.83333561 108.97070312 150.7421875 C109.01401317 147.4995623 109.06238139 144.25711214 109.11645508 141.01464844 C109.41728323 121.53046855 109.0935532 102.72421889 94.77734375 87.6875 C89.91566298 83.07157452 85.98790865 80.17325342 79.08203125 79.8203125 C76.78375168 79.9040239 76.78375168 79.9040239 74.0625 81.3125 C71.96330845 84.0478102 71.59359297 85.16429482 71.00390625 88.44140625 C70.83979248 89.33077881 70.67567871 90.22015137 70.5065918 91.13647461 C70.3394165 92.08143799 70.17224121 93.02640137 70 94 C69.7366687 95.42421265 69.7366687 95.42421265 69.46801758 96.87719727 C68.92918783 99.79176524 68.40075256 102.70804693 67.875 105.625 C67.69324219 106.62917969 67.51148437 107.63335937 67.32421875 108.66796875 C66.88199574 111.11183276 66.44060236 113.55584338 66 116 C65.07960938 115.6390625 64.15921875 115.278125 63.2109375 114.90625 C50.91798094 110.31092052 39.83271493 109.68833163 27 113 C25.41570133 107.85441458 24.41971798 102.81854172 23.625 97.5 C22.69805259 91.59351784 21.53557642 85.88758042 19.9375 80.125 C15.92148667 65.61503611 13.70691978 50.9489207 18.3203125 36.33984375 C19.29224384 32.99394217 19.43233189 30.45865514 19 27 C17.02012983 24.65905928 14.70043791 23.04231328 12.1875 21.3125 C6.20578611 16.87303278 1.67816871 11.38394234 0 4 C0 2.68 0 1.36 0 0 Z " fill="#C37943" transform="translate(16,71)"/>
<path d="M0 0 C0.83724609 0.67482422 0.83724609 0.67482422 1.69140625 1.36328125 C-44.21720782 34.61558219 -98.71200472 45.09564575 -154.30859375 36.36328125 C-159.41217304 35.3729775 -164.49544887 34.28899867 -169.52978516 32.98950195 C-186.09628779 29.01299347 -200.77733821 31.57282224 -216.62109375 36.92578125 C-218.34063404 37.48386905 -220.06102405 38.0393451 -221.78222656 38.59228516 C-225.13594215 39.67392903 -228.48449406 40.76941649 -231.82861328 41.88037109 C-236.51048219 43.43508588 -241.21030347 44.92872877 -245.91699219 46.40649414 C-248.46184514 47.20781706 -251.00072476 48.02596701 -253.5390625 48.84765625 C-256.90291621 49.93021186 -260.27983691 50.95076235 -263.671875 51.94140625 C-264.54618164 52.20195801 -265.42048828 52.46250977 -266.32128906 52.73095703 C-267.95609072 53.21651379 -269.59456271 53.68997472 -271.23730469 54.14794922 C-271.96336914 54.36596191 -272.68943359 54.58397461 -273.4375 54.80859375 C-274.0672876 54.98922363 -274.6970752 55.16985352 -275.34594727 55.35595703 C-280.58488786 58.04483237 -283.36736338 62.7892984 -286.0859375 67.80859375 C-286.41976944 68.41911591 -286.75360138 69.02963806 -287.09754944 69.65866089 C-288.15529333 71.59752596 -289.20087968 73.54263838 -290.24609375 75.48828125 C-290.94255673 76.76996773 -291.63981664 78.0512215 -292.33789062 79.33203125 C-293.36654586 81.21958043 -294.39172968 83.10854904 -295.40536499 85.00421143 C-296.92875981 87.85218903 -298.48626553 90.65922803 -300.14892578 93.42871094 C-303.6872199 99.38783381 -305.26435301 103.46319949 -304.30859375 110.36328125 C-304.11136719 111.83643799 -304.11136719 111.83643799 -303.91015625 113.33935547 C-303.25392529 117.79917103 -302.49024532 122.23848775 -301.73046875 126.68164062 C-301.20193335 129.90381895 -300.73773034 133.12648207 -300.30859375 136.36328125 C-300.16365479 137.29076172 -300.01871582 138.21824219 -299.86938477 139.17382812 C-299.61756446 141.84448184 -299.56682118 143.78263893 -300.30859375 146.36328125 C-302.88547507 149.27772728 -305.89022586 151.06847154 -309.24609375 152.98828125 C-310.52129883 153.77912109 -310.52129883 153.77912109 -311.82226562 154.5859375 C-317.97884537 158.36328125 -317.97884537 158.36328125 -319.30859375 158.36328125 C-319.27717285 157.33895996 -319.27717285 157.33895996 -319.24511719 156.29394531 C-318.90886473 143.58871018 -318.81109846 131.43355413 -321.88574219 119.03613281 C-324.59882216 107.9661862 -323.1854135 100.6374023 -318.30859375 90.36328125 C-317.48370869 88.55471766 -316.65882863 86.74615178 -315.83413696 84.9375 C-314.66335272 82.38495336 -313.472536 79.84203166 -312.27954102 77.29980469 C-311.37268778 75.36667922 -310.47024621 73.43154045 -309.56835938 71.49609375 C-308.39154134 68.97371611 -307.20284462 66.45747934 -306.00439453 63.9453125 C-304.91414909 61.64239267 -303.84786896 59.3278906 -302.81201172 57 C-297.01673626 44.41843544 -288.60328282 40.0763055 -276.30859375 34.42578125 C-275.04370282 33.8325899 -273.77937485 33.23819659 -272.515625 32.64257812 C-269.4519196 31.20427368 -266.38311121 29.77828705 -263.30859375 28.36328125 C-262.97859375 29.02328125 -262.64859375 29.68328125 -262.30859375 30.36328125 C-261.51763306 30.0844812 -261.51763306 30.0844812 -260.71069336 29.80004883 C-221.92633411 16.14239872 -221.92633411 16.14239872 -211.30859375 15.36328125 C-210.65632813 15.29753906 -210.0040625 15.23179687 -209.33203125 15.1640625 C-203.40514275 14.83224828 -197.94087332 16.30179012 -192.23901367 17.72265625 C-186.73064406 19.0778285 -181.22297243 20.15892569 -175.62109375 21.05078125 C-174.89873535 21.16977783 -174.17637695 21.28877441 -173.43212891 21.41137695 C-126.88713378 28.5828842 -82.33337983 21.15952614 -40.53417969 -0.07763672 C-39.39625977 -0.65529785 -38.25833984 -1.23295898 -37.0859375 -1.828125 C-35.58921509 -2.60458374 -35.58921509 -2.60458374 -34.06225586 -3.39672852 C-23.41268456 -8.19229307 -9.48787011 -6.72659488 0 0 Z " fill="#A8683A" transform="translate(378.30859375,238.63671875)"/>
<path d="M0 0 C0.07637583 6.54696132 0.12873618 13.09380673 0.16479492 19.64111328 C0.17983512 21.86609185 0.20027246 24.09104101 0.22631836 26.31591797 C0.26291135 29.52318606 0.2797745 32.73006045 0.29296875 35.9375 C0.30845261 36.92427734 0.32393646 37.91105469 0.33988953 38.92773438 C0.34154301 45.78978152 -0.28862087 51.80424719 -4.90234375 57.2421875 C-5.57394531 57.78101563 -6.24554688 58.31984375 -6.9375 58.875 C-7.94103516 59.70644531 -7.94103516 59.70644531 -8.96484375 60.5546875 C-13.10891757 63.49769578 -15.98553911 64.25619562 -21.11035156 64.30639648 C-22.96312714 64.33037758 -22.96312714 64.33037758 -24.85333252 64.35484314 C-26.19909247 64.36122155 -27.54485739 64.36661375 -28.890625 64.37109375 C-30.27821954 64.38006733 -31.66581313 64.38918931 -33.05340576 64.39845276 C-35.96189723 64.41492964 -38.8702738 64.42264004 -41.77880859 64.42553711 C-45.48889263 64.43090949 -49.19788191 64.46854529 -52.90765762 64.51428127 C-55.77490074 64.54416883 -58.64188443 64.55126322 -61.50926971 64.55226326 C-62.87592312 64.55644508 -64.24257876 64.56879702 -65.60907745 64.58978081 C-73.63409888 64.70316989 -79.84327851 64.54838611 -86 59 C-89.45430593 55.53630167 -92.70118453 51.76733233 -93.24050903 46.77264404 C-93.23606781 45.96434143 -93.23162659 45.15603882 -93.22705078 44.32324219 C-93.22689972 43.40258972 -93.22674866 42.48193726 -93.22659302 41.53338623 C-93.21627045 40.54783752 -93.20594788 39.56228882 -93.1953125 38.546875 C-93.1924826 37.53151672 -93.18965271 36.51615845 -93.18673706 35.47003174 C-93.17555001 32.22990084 -93.15044791 28.99004724 -93.125 25.75 C-93.1149683 23.55208733 -93.10584278 21.35417032 -93.09765625 19.15625 C-93.07561551 13.77073886 -93.04215251 8.38538924 -93 3 C-87.2801864 3.93696569 -81.62231705 5.09564952 -75.94921875 6.28125 C-52.97338456 10.66047099 -27.87026927 9.69249208 -6.1640625 0.734375 C-4 0 -4 0 0 0 Z " fill="#FDBC85" transform="translate(338,137)"/>
<path d="M0 0 C29.69989423 -1.32326261 53.73655 10.46809607 75.43359375 30.21484375 C92.13796147 46.24314937 102.50781244 68.76224462 103.23828125 91.921875 C103.45844415 105.83596623 102.66792065 118.55641582 99 132 C86.52166677 127.46650483 77.54849083 117.76193153 72.015625 105.91796875 C68.96324692 98.98719424 66.33163883 91.88982266 63.6640625 84.8046875 C51.12770059 51.55846562 37.87716128 18.86877555 4 3 C2.66484892 2.33698129 1.33089361 1.67152395 0 1 C0 0.67 0 0.34 0 0 Z " fill="#613C21" transform="translate(93,62)"/>
<path d="M0 0 C2.42944406 1.25029966 3.47123755 2.67378807 5.0546875 4.8984375 C14.38413112 17.3831418 25.818839 28.02207866 36.8671875 38.9609375 C33.03213466 44.20234706 29.03375847 49.21290657 24.7421875 54.0859375 C23.59470683 55.39943805 22.44757938 56.71324725 21.30078125 58.02734375 C20.7269873 58.6836377 20.15319336 59.33993164 19.56201172 60.01611328 C16.95863357 63.00351034 14.38037207 66.01216234 11.8046875 69.0234375 C10.81772191 70.17709495 9.83074274 71.33074078 8.84375 72.484375 C8.35551758 73.05510742 7.86728516 73.62583984 7.36425781 74.21386719 C5.83431991 75.99929374 4.30047949 77.78129895 2.765625 79.5625 C-10.589408 92.99777647 -10.589408 92.99777647 -16.2578125 109.7109375 C-16.26675537 110.3797998 -16.27569824 111.04866211 -16.28491211 111.73779297 C-16.29837225 115.20398282 -16.08561065 118.18936513 -15.37890625 121.609375 C-14.61580817 125.49027383 -14.28241504 128.07907139 -15.1328125 131.9609375 C-20.13296081 138.74828012 -27.87603783 143.85253005 -35.1328125 147.9609375 C-38.45913841 140.95189363 -38.19602453 131.99876359 -36.1328125 124.5859375 C-34.2254802 117.67185791 -35.29132234 112.19051356 -36.8828125 105.3359375 C-37.70200495 100.57859862 -37.73440931 97.24935436 -34.91015625 93.19921875 C-32.38006148 90.11476087 -29.58471227 87.30980024 -26.72070312 84.53662109 C-24.4869468 82.32003694 -22.53483646 79.91659245 -20.5703125 77.4609375 C-18.13121619 74.43108758 -15.67909704 71.41939638 -13.16796875 68.44921875 C-12.1556755 67.22443293 -11.14394994 65.99917769 -10.1328125 64.7734375 C-9.65126709 64.21527344 -9.16972168 63.65710938 -8.67358398 63.08203125 C-5.15423632 58.75443361 -4.32402402 55.54663152 -4.1328125 49.9609375 C-5.71494894 44.79262514 -8.94245392 42.15769825 -12.953125 38.80078125 C-19.61333989 33.17898696 -26.05246997 26.74816747 -30.1328125 18.9609375 C-28.92372179 15.33366538 -27.606048 14.92479271 -24.31958008 13.25756836 C-23.65982178 12.93280518 -23.00006348 12.60804199 -22.3203125 12.2734375 C-16.01156136 9.07330249 -10.33856388 5.5153531 -4.62109375 1.33203125 C-2.1328125 -0.0390625 -2.1328125 -0.0390625 0 0 Z " fill="#925A32" transform="translate(387.1328125,254.0390625)"/>
<path d="M0 0 C2.20805524 -0.0544452 4.41650554 -0.09299283 6.625 -0.125 C7.85476562 -0.14820313 9.08453125 -0.17140625 10.3515625 -0.1953125 C13.96247193 -0.002009 16.61911639 0.7952215 20 2 C19.99666908 3.71555084 19.99666908 3.71555084 19.99327087 5.46575928 C19.97301142 16.23673013 19.9580143 27.00769713 19.94818783 37.77868271 C19.94296615 43.3163304 19.93588142 48.85396272 19.92456055 54.39160156 C19.91370635 59.73431805 19.90771777 65.07701974 19.90512276 70.4197464 C19.90327309 72.45951826 19.89966124 74.4992893 19.89426994 76.53905487 C19.88702596 79.39291645 19.88601049 82.24671666 19.88647461 85.10058594 C19.88287933 85.94647278 19.87928406 86.79235962 19.87557983 87.66387939 C19.69285452 92.98005371 19.69285452 92.98005371 21 98 C23.97 98.99 23.97 98.99 27 100 C27 106.6 27 113.2 27 120 C24.525 120.99 24.525 120.99 22 122 C19.72518497 123.83358053 19.72518497 123.83358053 19.83984375 126.57519531 C19.87207031 127.64866211 19.90429688 128.72212891 19.9375 129.828125 C20.25155297 155.82041914 20.25155297 155.82041914 12.453125 163.8671875 C6.23573717 168.60479114 -2.75844547 166.93679248 -10 166 C-7.49086238 157.72341334 -2.5472231 151.49817563 3 145 C4.94465889 141.11068223 4.16385749 136.25835496 4.15234375 131.984375 C4.15040512 130.83434998 4.14846649 129.68432495 4.14646912 128.49945068 C4.06058159 114.13122573 3.35860552 99.79005863 2.66760254 85.44116211 C2.35502996 78.92469549 2.05472627 72.40764287 1.75390625 65.890625 C1.72119188 65.18483433 1.68847752 64.47904366 1.6547718 63.75186539 C1.17472812 53.35998863 0.7574007 42.96735114 0.40625 32.5703125 C0.3650856 31.36691223 0.3239212 30.16351196 0.2815094 28.92364502 C-0.02999954 19.28028582 -0.10935224 9.64729753 0 0 Z " fill="#925B32" transform="translate(185,284)"/>
<path d="M0 0 C7.89423077 6.76648352 7.89423077 6.76648352 10.875 10.75 C11.44992187 11.50796875 12.02484375 12.2659375 12.6171875 13.046875 C14.83669308 16.18176989 15.12990251 17.99303439 15.15390015 21.79808044 C15.16250061 22.81145981 15.17110107 23.82483917 15.17996216 24.868927 C15.18422211 25.98524506 15.18848206 27.10156311 15.19287109 28.25170898 C15.20513733 30.01054665 15.20513733 30.01054665 15.21765137 31.80491638 C15.24254764 35.70196163 15.25918998 39.59899924 15.2734375 43.49609375 C15.27879849 44.83994109 15.284176 46.18378837 15.28956985 47.52763557 C15.31120915 53.12334862 15.32994031 58.7190588 15.34119225 64.31480312 C15.35739148 72.31740602 15.39045795 80.31952023 15.44759309 88.32193893 C15.48643579 93.9560747 15.50584232 99.59008064 15.51111281 105.2243467 C15.51474974 108.58463108 15.529127 111.94398302 15.55921555 115.30419731 C15.5909527 119.06441775 15.59088942 122.82342015 15.58349609 126.58374023 C15.59990143 127.68184021 15.61630676 128.77994019 15.63320923 129.91131592 C15.56504466 138.42326287 13.85415097 141.52086786 10 150 C1.09 150 -7.82 150 -17 150 C-16.06609261 145.33046307 -15.67848581 144.12585592 -12.875 140.6875 C-12.03582031 139.64142578 -12.03582031 139.64142578 -11.1796875 138.57421875 C-9 136 -9 136 -7.28761292 134.71052551 C-3.63126368 131.56648642 -1.87698625 128.61370607 -1.34399414 123.84013367 C-1.00067029 118.47957193 -1.05546236 113.11868572 -1.09765625 107.75 C-1.08826512 105.76601528 -1.07580361 103.78204293 -1.06040955 101.7980957 C-1.02824669 96.59633585 -1.03760328 91.39545957 -1.05578613 86.19366455 C-1.06696157 80.87771007 -1.03862363 75.5619797 -1.01367188 70.24609375 C-0.97057619 59.83057158 -0.9713685 49.4155548 -1 39 C-0.67 39 -0.34 39 0 39 C0 26.13 0 13.26 0 0 Z " fill="#A7673A" transform="translate(479,293)"/>
<path d="M0 0 C5.72184498 0.95364083 11.37422018 2.09492585 17.05078125 3.28125 C26.32362802 5.0436467 35.44872925 5.15291591 44.875 5.125 C46.82212891 5.13080078 46.82212891 5.13080078 48.80859375 5.13671875 C56.2629479 5.1291967 63.59225173 4.84709599 71 4 C71.58689315 14.655422 69.33242303 21.8071304 62.703125 30.2109375 C57.99758931 35.15390848 51.50531475 38.66516685 44.64752197 39.17483521 C41.80721084 39.23094619 38.97352978 39.22472129 36.1328125 39.1953125 C35.09808807 39.1924826 34.06336365 39.18965271 32.99728394 39.18673706 C29.70640286 39.17558048 26.41579822 39.15048397 23.125 39.125 C20.88802478 39.11496437 18.65104527 39.10583953 16.4140625 39.09765625 C10.94251726 39.0773612 5.47156651 39.03820333 0 39 C0 26.13 0 13.26 0 0 Z " fill="#FCD0A3" transform="translate(245,140)"/>
<path d="M0 0 C11.97647545 -0.7984317 21.90166612 3.29653264 31 11 C43.01360047 22.0408393 48.34130608 37.64822546 49.19091797 53.58007812 C49.62790923 68.07875913 49.65084791 82.70014821 47 97 C46.84982422 97.84224121 46.69964844 98.68448242 46.54492188 99.55224609 C46.04588172 102.32974703 45.52820502 105.10290363 45 107.875 C44.8340332 108.75115967 44.66806641 109.62731934 44.49707031 110.5300293 C44.25102051 111.74879761 44.25102051 111.74879761 44 112.9921875 C43.855625 113.71776855 43.71125 114.44334961 43.5625 115.19091797 C43 117 43 117 41 119 C32.19071932 109.17524028 27.93144139 97.84620188 27.75390625 84.75390625 C27.72092461 83.09439662 27.6877138 81.43489154 27.65429688 79.77539062 C27.6072758 77.18240977 27.56291267 74.58944118 27.52319336 71.99633789 C27.2353424 52.52566466 27.2353424 52.52566466 22.25 33.8125 C21.85530518 32.80098877 21.85530518 32.80098877 21.45263672 31.76904297 C17.5131283 21.97306461 11.74717315 14.06335682 5 6 C4.46503906 5.35289062 3.93007813 4.70578125 3.37890625 4.0390625 C2.25891288 2.68745576 1.1306786 1.34268084 0 0 Z " fill="#613B21" transform="translate(448,133)"/>
<path d="M0 0 C2.26953125 1.37109375 2.26953125 1.37109375 4 3 C4.71957384 6.20086294 4.14447482 8.95478946 3 12 C-0.2345818 15.80539036 -4.25405212 19.72630258 -9.390625 20.23828125 C-15.48116678 20.39636908 -19.2740193 20.26490941 -24 16 C-28.11335311 11.65812727 -29.90312637 7.61558791 -30.125 1.625 C-30.08375 0.75875 -30.0425 -0.1075 -30 -1 C-19.51468548 -5.3494638 -10.1220432 -5.39481447 0 0 Z " fill="#915A32" transform="translate(75,200)"/>
<path d="M0 0 C1.85702103 8.02373237 3.30305843 15.9718832 3.9375 24.1875 C4.00702881 24.90542725 4.07655762 25.62335449 4.14819336 26.36303711 C4.37550351 29.9798037 4.31069747 31.6126922 2.00390625 34.48828125 C1.34261719 34.98714844 0.68132813 35.48601562 0 36 C-2.29533911 32.55699133 -2.90593168 29.42618989 -3.625 25.4375 C-3.82065552 24.36266357 -3.82065552 24.36266357 -4.02026367 23.26611328 C-5.32979548 15.67885855 -6.32912476 8.21310365 -3 1 C-1 0 -1 0 0 0 Z " fill="#BD7541" transform="translate(60,334)"/>
<path d="M0 0 C1.9375 1.125 1.9375 1.125 3 3 C3.5 6.4375 3.5 6.4375 3 10 C0.9375 12.5 0.9375 12.5 -2 14 C-5.6875 13.9375 -5.6875 13.9375 -9 13 C-11.52185169 9.21722246 -11.72956472 6.44203329 -11 2 C-7.94260267 -2.03576448 -4.55750868 -1.16009312 0 0 Z " fill="#050301" transform="translate(63,137)"/>
<path d="M0 0 C2 1 2 1 3 3 C0.36 3.66 -2.28 4.32 -5 5 C-4 2 -4 2 -2.0625 0.75 C-1.381875 0.5025 -0.70125 0.255 0 0 Z " fill="#B8723F" transform="translate(121,264)"/>
</svg>
