<?xml version="1.0" encoding="UTF-8"?>
<svg version="1.1" xmlns="http://www.w3.org/2000/svg" width="512" height="512">
<path d="M0 0 C1.86039283 -0.00015521 3.72078597 -0.00164776 5.58117676 -0.00440979 C9.4575856 -0.00578685 13.33362127 0.00665703 17.20996094 0.02954102 C22.18118563 0.05808305 27.15179862 0.05513623 32.12306976 0.0424509 C35.95431773 0.03550722 39.78542362 0.04326531 43.61665344 0.05570793 C45.45070349 0.06022404 47.28476876 0.06055784 49.11882019 0.05664253 C51.67263327 0.05373913 54.22559174 0.07018913 56.77929688 0.09204102 C57.53669159 0.08753937 58.2940863 0.08303772 59.07443237 0.07839966 C62.00477954 0.12015985 64.14262516 0.16732869 66.64855957 1.77134705 C67.65625 3.49609375 67.65625 3.49609375 67.65625 7.49609375 C74.25625 7.49609375 80.85625 7.49609375 87.65625 7.49609375 C87.98625 5.84609375 88.31625 4.19609375 88.65625 2.49609375 C91.2553186 -0.10297485 92.30643737 0.24326361 95.92606068 0.23603153 C97.61293844 0.22543315 97.61293844 0.22543315 99.33389455 0.21462065 C100.57986856 0.21703573 101.82584257 0.21945082 103.10957336 0.22193909 C105.08298455 0.21408407 105.08298455 0.21408407 107.09626263 0.20607036 C110.76077616 0.19183959 114.42520509 0.19022803 118.0897423 0.19066727 C122.03752258 0.18902337 125.98526756 0.17596437 129.93302917 0.16447449 C138.57400337 0.14158584 147.21495306 0.13369877 155.85595345 0.12864804 C161.25289734 0.12539353 166.64983407 0.11887228 172.04677391 0.11164665 C186.99118604 0.0920706 201.9355915 0.07567398 216.88001728 0.07277012 C217.83718278 0.07258255 218.79434827 0.07239498 219.78051878 0.07220173 C221.72095978 0.07183547 223.66140078 0.07147177 225.60184179 0.07111061 C226.56508214 0.0709278 227.5283225 0.07074499 228.52075195 0.07055664 C229.4851701 0.07037609 230.44958825 0.07019554 231.44323119 0.07000952 C247.05104517 0.06647211 262.65872081 0.03948134 278.26648686 0.00205875 C294.29358623 -0.0360611 310.32061707 -0.05538766 326.34776276 -0.05568939 C335.34504784 -0.05627337 344.34216819 -0.06472577 353.33941078 -0.09368706 C361.00592945 -0.11825091 368.67222342 -0.12545066 376.33877084 -0.11043953 C380.24729899 -0.10328928 384.1553839 -0.10404541 388.06386185 -0.12685013 C391.65022759 -0.14757363 395.23581319 -0.14471719 398.82217171 -0.12397528 C400.7172855 -0.11887608 402.612418 -0.13815776 404.50742799 -0.15863699 C416.78973258 -0.03947822 426.69095453 3.5095713 435.50390625 12.1796875 C444.50534612 21.86726254 448.28195719 31.46356294 448.1709137 44.75387573 C448.17785922 45.83215987 448.18480475 46.91044401 448.19196075 48.02140343 C448.21013899 51.60546744 448.19999161 55.18886264 448.18969727 58.77294922 C448.19676036 61.35443616 448.20550702 63.93591896 448.21580505 66.51739502 C448.23737047 72.78415648 448.23733733 79.05073583 448.22917951 85.31752215 C448.2228615 90.4148967 448.22403299 95.51221842 448.23045158 100.60959244 C448.23135324 101.33704402 448.23225489 102.0644956 448.23318387 102.81399117 C448.23503521 104.2921478 448.23689777 105.77030442 448.23877143 107.24846102 C448.25532421 121.08837461 448.24665255 134.92818606 448.22978585 148.76809348 C448.21509438 161.40722705 448.2297139 174.04612277 448.25855602 186.68522571 C448.28800679 199.68871531 448.29890558 212.69209537 448.28937382 225.69561684 C448.28835135 227.16873239 448.28735674 228.64184795 448.2863903 230.11496353 C448.28591391 230.83961452 448.28543752 231.56426551 448.2849467 232.31087562 C448.28278988 237.39599208 448.29254756 242.48100396 448.30716133 247.56609726 C448.32659404 254.42320019 448.31950916 261.27985548 448.29496193 268.13694 C448.289967 270.64707598 448.29340928 273.15724577 448.30611038 275.66735458 C448.38394987 292.37841258 448.36277761 305.74950802 435.97265625 318.34375 C425.72456401 327.86600772 415.86856402 331.13317725 401.875 330.9921875 C400.69909302 330.99364273 399.52318604 330.99509796 398.31164551 330.99659729 C395.84771219 330.99494841 393.38376748 330.98350187 390.91992188 330.96264648 C387.13888357 330.93345969 383.35922973 330.94210567 379.578125 330.95507812 C377.1770765 330.94884686 374.77603241 330.94046073 372.375 330.9296875 C370.67821106 330.93409096 370.67821106 330.93409096 368.94714355 330.93858337 C367.90175415 330.9258992 366.85636475 330.91321503 365.77929688 330.90014648 C364.85983276 330.8947435 363.94036865 330.88934052 362.99304199 330.8837738 C360.65625 330.49609375 360.65625 330.49609375 358.83605957 329.22084045 C357.65625 327.49609375 357.65625 327.49609375 357.65625 323.49609375 C352.70625 323.49609375 347.75625 323.49609375 342.65625 323.49609375 C342.32625 325.14609375 341.99625 326.79609375 341.65625 328.49609375 C338.96230194 331.19004181 337.60928399 330.74936409 333.83983135 330.75615597 C331.97007532 330.76675435 331.97007532 330.76675435 330.06254643 330.77756685 C328.66642773 330.77531512 327.27030934 330.77286857 325.87419128 330.77024841 C324.40092407 330.77469728 322.92765925 330.78001016 321.45439798 330.78611714 C317.39083136 330.80035122 313.32734103 330.8019594 309.26375306 330.80152023 C304.88652267 330.80316382 300.50932415 330.81622219 296.1321106 330.82771301 C286.55108368 330.85060334 276.97007886 330.8584888 267.38902831 330.86353946 C261.40580079 330.86679355 255.42257972 330.87331451 249.43935585 330.88054085 C232.87363358 330.90011653 216.30791732 330.91651356 199.74218273 330.91941738 C198.1506349 330.91969874 198.1506349 330.91969874 196.52693458 330.91998577 C194.37590555 330.92035203 192.22487652 330.92071573 190.0738475 330.92107689 C188.47216969 330.9213511 188.47216969 330.9213511 186.83813477 330.92163086 C185.7690451 330.92181141 184.69995544 330.92199196 183.59846912 330.92217798 C166.29319805 330.92571608 148.9880517 330.95271134 131.68282386 330.99012875 C113.91550612 331.02823747 96.14825018 331.04757507 78.38089067 331.04787689 C68.40551368 331.04846109 58.43028523 331.05692806 48.45494652 331.08587456 C39.95583425 331.11042339 31.45692462 331.11764813 22.95778646 331.10262703 C18.62396852 331.09547093 14.29055038 331.09625879 9.95677757 331.11903763 C5.98184836 331.13972912 2.00762371 331.13693348 -1.96729871 331.11616278 C-3.39815251 331.11268705 -4.8290582 331.11749591 -6.25984404 331.13186722 C-18.30124374 331.24492774 -28.44620329 329.14727095 -37.78125 321.18359375 C-47.09407057 312.02171031 -52.72492931 302.61625848 -52.88338572 289.22710431 C-52.87102457 287.747652 -52.87102457 287.747652 -52.8584137 286.23831177 C-52.86535922 285.16002763 -52.87230475 284.08174349 -52.87946075 282.97078407 C-52.89763899 279.38672006 -52.88749161 275.80332486 -52.87719727 272.21923828 C-52.88426036 269.63775134 -52.89300702 267.05626854 -52.90330505 264.47479248 C-52.92487047 258.20803102 -52.92483733 251.94145167 -52.91667951 245.67466535 C-52.9103615 240.5772908 -52.91153299 235.47996908 -52.91795158 230.38259506 C-52.91885324 229.65514348 -52.91975489 228.9276919 -52.92068387 228.17819633 C-52.92253521 226.7000397 -52.92439777 225.22188308 -52.92627143 223.74372648 C-52.94282421 209.90381289 -52.93415255 196.06400144 -52.91728585 182.22409402 C-52.90259438 169.58496045 -52.9172139 156.94606473 -52.94605602 144.30696179 C-52.97550679 131.30347219 -52.98640558 118.30009213 -52.97687382 105.29657066 C-52.97585135 103.82345511 -52.97485674 102.35033955 -52.9738903 100.87722397 C-52.97341391 100.15257298 -52.97293752 99.42792199 -52.9724467 98.68131188 C-52.97028988 93.59619542 -52.98004756 88.51118354 -52.99466133 83.42609024 C-53.01409404 76.56898731 -53.00700916 69.71233202 -52.98246193 62.8552475 C-52.977467 60.34511152 -52.98090928 57.83494173 -52.99361038 55.32483292 C-53.07144987 38.61377492 -53.05027761 25.24267948 -40.66015625 12.6484375 C-28.21425079 1.08402956 -16.3704496 -0.11164304 0 0 Z " fill="#74EDFE" transform="translate(58.34375,75.50390625)"/>
<path d="M0 0 C6.6 0 13.2 0 20 0 C20.99 1.98 21.98 3.96 23 6 C25.43013664 7.21506832 26.98043135 7.13031739 29.69704628 7.1386652 C30.69379612 7.14413964 31.69054595 7.14961409 32.71750033 7.15525442 C33.82059491 7.15623253 34.92368949 7.15721064 36.06021118 7.15821838 C37.80849309 7.16562535 37.80849309 7.16562535 39.59209383 7.17318195 C42.83702556 7.18592471 46.08193401 7.19419079 49.32688332 7.20060861 C52.82246258 7.2085983 56.31801988 7.22230098 59.81358337 7.23532104 C65.87314798 7.25710415 71.93271478 7.27524191 77.99229813 7.29092598 C86.75351171 7.31360793 95.51470098 7.34175306 104.27589397 7.37124526 C118.48925714 7.41894173 132.70263023 7.46220034 146.91601562 7.50268555 C160.7255938 7.54203002 174.53516314 7.58345373 188.34472656 7.62768555 C189.19549486 7.63040982 190.04626315 7.63313409 190.9228123 7.63594092 C195.19073145 7.64962022 199.45865046 7.66334053 203.72656941 7.67708123 C239.15102899 7.79107829 274.57550622 7.89706608 310 8 C310 26.15 310 44.3 310 63 C302.82507813 63.01417969 295.65015625 63.02835938 288.2578125 63.04296875 C283.70047206 63.06303606 279.14323152 63.08456329 274.5859375 63.11132812 C267.35933548 63.15363133 260.1329868 63.19065591 252.90625 63.19555664 C247.07696988 63.19984882 241.24825777 63.22838877 235.41915512 63.27343178 C233.20016671 63.28637724 230.98111023 63.29072499 228.76208878 63.28615379 C225.64302198 63.28122698 222.52560208 63.30743386 219.40673828 63.34057617 C218.49826645 63.33195053 217.58979462 63.32332489 216.65379333 63.31443787 C209.92465525 63.43356057 204.60050021 65.21740108 199 69 C193.61296375 74.65388268 190.75752752 80.18916989 190.73257446 88.08343506 C190.72404449 89.30576843 190.71551453 90.52810181 190.70672607 91.78747559 C190.70742504 93.13403333 190.70834807 94.48059098 190.70947266 95.82714844 C190.70348523 97.25169222 190.69667919 98.67623275 190.68911743 100.10076904 C190.67146929 103.9646078 190.66676248 107.82835792 190.66548586 111.69223309 C190.66406272 114.10900222 190.65978998 116.52574895 190.65449142 118.94251251 C190.63599317 127.38193691 190.62782032 135.82129819 190.62939453 144.26074219 C190.63059501 152.11389712 190.60951073 159.96677681 190.5779072 167.81986213 C190.55170568 174.57250242 190.5410289 181.32505306 190.54230535 188.07774377 C190.54281396 192.10614467 190.53718715 196.13430103 190.51594925 200.16265106 C190.49650195 203.95488263 190.49648618 207.74663809 190.51098251 211.53888702 C190.5130639 212.92514242 190.50840983 214.31142811 190.4962616 215.69763184 C190.41808047 225.24237374 191.8101662 231.60181972 196.625 239.75 C203.13050624 245.91311117 210.49893295 247.74399837 219.22314453 247.65942383 C220.19020828 247.66990753 221.15727203 247.68039124 222.15364075 247.69119263 C225.31369963 247.7197306 228.47264896 247.71367599 231.6328125 247.70703125 C233.83813841 247.72015912 236.04345233 247.73546667 238.24874878 247.75285339 C244.02565903 247.79258834 249.8022539 247.80288647 255.57928467 247.80688477 C261.48524472 247.81623784 267.39102115 247.85366505 273.296875 247.88867188 C284.86457484 247.95313071 296.43213626 247.98646681 308 248 C306.86953606 254.24165194 304.05542609 258.62488363 299 262.5546875 C293.37134981 266.15787644 288.57164084 268.2508371 281.79374218 268.24609566 C280.53673132 268.25007775 279.27972046 268.25405985 277.98461837 268.25816262 C276.59229915 268.25245688 275.19998069 268.2465657 273.80766296 268.24050903 C272.32666841 268.24138118 270.84567415 268.24313234 269.36468154 268.24568737 C265.29417539 268.25016302 261.22377433 268.24215421 257.15328157 268.23213124 C252.76409875 268.2235022 248.37492195 268.22641652 243.98573303 268.22793579 C236.38087749 268.22898499 228.77605625 268.22270475 221.17120934 268.21146011 C210.17585319 268.19521279 199.18051364 268.18999789 188.18514679 268.18748413 C170.34632218 268.18310582 152.50751585 268.16979303 134.66870117 268.15087891 C117.33894948 268.13252362 100.00920279 268.11838833 82.67944336 268.10986328 C81.60051726 268.10932729 80.52159117 268.10879129 79.40997034 268.10823905 C70.9721822 268.10408026 62.53439395 268.10016639 54.09660566 268.09632993 C12.73105366 268.07745923 -28.63445258 268.03722341 -70 268 C-70 182.2 -70 96.4 -70 8 C-48.55 7.67 -27.1 7.34 -5 7 C-0.9254644 3.52174919 -0.9254644 3.52174919 0 0 Z " fill="#BFF5FE" transform="translate(126,83)"/>
<path d="M0 0 C1.10822617 -0.00525696 2.21645233 -0.01051392 3.35826111 -0.01593018 C7.01063255 -0.02910075 10.66256575 -0.02040091 14.31494141 -0.01025391 C16.86170536 -0.01227576 19.40846874 -0.01518813 21.95523071 -0.01895142 C27.28971408 -0.02337105 32.62404157 -0.01724425 37.95849609 -0.00292969 C44.10643207 0.01337836 50.25406924 0.00811811 56.40199792 -0.0084089 C62.33777283 -0.02372099 68.27345578 -0.02202623 74.20924759 -0.0132637 C76.72495186 -0.01126756 79.24066379 -0.01370031 81.7563591 -0.02070236 C85.27918173 -0.02835486 88.80143808 -0.01665791 92.32421875 0 C93.35619888 -0.00607269 94.38817902 -0.01214539 95.45143127 -0.0184021 C104.07332266 0.05679935 111.80490759 1.44823691 118.23439884 7.5598917 C124.99992189 15.50370438 125.51219023 23.70686074 125.42260742 33.78295898 C125.42775594 35.20824572 125.43504421 36.63352607 125.44429016 38.05879211 C125.46269261 41.90190016 125.4499379 45.7443081 125.43019986 49.58738637 C125.41372216 53.62438112 125.42263872 57.66133468 125.42771912 61.698349 C125.43222943 68.47438645 125.41643519 75.25014689 125.38842773 82.02612305 C125.35636757 89.84249945 125.35639999 97.65837684 125.3736425 105.47478873 C125.38954495 113.01828921 125.38275104 120.56160802 125.36570549 128.10510063 C125.35886128 131.3046704 125.35984017 134.50409339 125.36725044 137.70366096 C125.37495177 141.47550614 125.36266324 145.24678815 125.33540154 149.01853752 C125.32531084 151.05038092 125.33465963 153.08229223 125.34472656 155.11413574 C125.2531521 163.9401092 123.7993092 170.54500256 118.54150391 177.70068359 C113.05186482 183.06555816 106.63879631 185.49096455 99.01193237 185.54208374 C98.0532576 185.5506842 97.09458282 185.55928467 96.1068573 185.56814575 C94.53899223 185.57453568 94.53899223 185.57453568 92.93945312 185.58105469 C91.28018044 185.59332092 91.28018044 185.59332092 89.58738708 185.60583496 C85.92366067 185.63066261 82.25997296 185.64719945 78.59619141 185.66162109 C77.34359653 185.66694477 76.09100166 185.67226845 74.80044937 185.67775345 C69.53320333 185.69897768 64.26596307 185.71810654 58.99868584 185.72937584 C51.47218756 185.74558914 43.94620756 185.77871159 36.41990459 185.83577669 C30.47510322 185.87929949 24.53041606 185.89513639 18.58545303 185.90150833 C16.06495604 185.9082129 13.54446634 185.92341406 11.02407455 185.94739914 C7.48896012 185.97911813 3.95514204 185.97907631 0.41992188 185.97167969 C-0.61317612 185.98808502 -1.64627411 186.00449036 -2.7106781 186.02139282 C-10.56351218 185.95443498 -17.18781234 184.00788083 -23.12596321 178.66194725 C-30.68699947 170.77146201 -30.65373885 161.57625535 -30.62841797 151.23632812 C-30.63576789 149.8129612 -30.64435679 148.38960022 -30.65408325 146.96624756 C-30.67621094 143.11901184 -30.67923436 139.27199086 -30.67733574 135.42470026 C-30.67721563 132.20423689 -30.68579608 128.98381835 -30.69411325 125.76336753 C-30.71331583 118.16089919 -30.71624264 110.55854063 -30.70947266 102.95605469 C-30.70283394 95.13288885 -30.72569635 87.31019475 -30.76278639 79.48712456 C-30.79354974 72.752228 -30.80483626 66.01748267 -30.80094957 59.28251731 C-30.79888892 55.26805571 -30.80425471 51.25396138 -30.82884216 47.2395668 C-30.8512172 43.46196624 -30.84914359 39.68512916 -30.82891464 35.90752411 C-30.82391678 33.87461153 -30.84344517 31.841684 -30.86392212 29.80886841 C-30.78497559 21.14106464 -29.48271814 14.03053563 -23.45308685 7.48158455 C-16.39741673 0.81228734 -9.3421662 -0.05475921 0 0 Z " fill="#010101" transform="translate(346.20849609375,145.61181640625)"/>
<path d="M0 0 C1.86039283 -0.00015521 3.72078597 -0.00164776 5.58117676 -0.00440979 C9.4575856 -0.00578685 13.33362127 0.00665703 17.20996094 0.02954102 C22.18118563 0.05808305 27.15179862 0.05513623 32.12306976 0.0424509 C35.95431773 0.03550722 39.78542362 0.04326531 43.61665344 0.05570793 C45.45070349 0.06022404 47.28476876 0.06055784 49.11882019 0.05664253 C51.67263327 0.05373913 54.22559174 0.07018913 56.77929688 0.09204102 C57.53669159 0.08753937 58.2940863 0.08303772 59.07443237 0.07839966 C64.14074601 0.15059938 64.14074601 0.15059938 66.61730957 1.81040955 C68.45033956 4.78450662 68.1227765 7.11377659 67.65625 10.49609375 C66.00625 12.14609375 64.35625 13.79609375 62.65625 15.49609375 C41.20625 15.49609375 19.75625 15.49609375 -2.34375 15.49609375 C-2.34375 114.49609375 -2.34375 213.49609375 -2.34375 315.49609375 C22.14199219 315.43808594 46.62773438 315.38007813 71.85546875 315.3203125 C87.32747571 315.29477799 102.79946978 315.27047223 118.27148438 315.25195312 C126.39607798 315.24216341 134.52067111 315.23206089 142.64526367 315.22143555 C143.66358282 315.2201168 144.68190197 315.21879806 145.73107928 315.21743935 C162.1822074 315.19567855 178.63324835 315.15625165 195.08432474 315.11032977 C211.96107865 315.06361171 228.83778685 315.0358082 245.71460277 315.02565128 C256.13288171 315.01878246 266.5509144 314.99706946 276.96911756 314.95651142 C284.10826326 314.93013044 291.2472812 314.9220822 298.38647213 314.92858686 C302.508678 314.93179702 306.63045285 314.92679376 310.75258255 314.90006638 C314.5248526 314.87578547 318.29640065 314.87447179 322.06870351 314.89159928 C324.08317422 314.89472183 326.0976361 314.87311026 328.11198443 314.85068721 C337.85577795 314.9319072 337.85577795 314.9319072 340.96931171 317.80711079 C343.16717429 321.31050808 343.25807505 323.43377465 342.65625 327.49609375 C341.49621665 329.18308687 341.49621665 329.18308687 339.65625 330.49609375 C336.99669468 330.87444258 336.99669468 330.87444258 333.71678352 330.8792038 C331.84404092 330.89278876 331.84404092 330.89278876 329.93346512 330.90664816 C328.54028796 330.90154328 327.14711183 330.89615115 325.75393677 330.89050293 C324.27980453 330.89538893 322.80567613 330.90157738 321.33155429 330.90896082 C317.27020816 330.92542219 313.20905534 330.92302982 309.14768744 330.91758585 C304.77114805 330.91492304 300.39466108 330.92943383 296.0181427 330.94168091 C287.43755555 330.96277343 278.85703592 330.9672734 270.27642591 330.96549302 C263.29910179 330.96418657 256.32179876 330.96798358 249.34447861 330.97541809 C247.33627506 330.97751727 245.32807152 330.97961487 243.31986797 330.98171091 C242.32034681 330.98275444 241.32082565 330.98379797 240.29101597 330.98487312 C221.36891402 331.00379308 202.4468508 331.00272077 183.5247433 330.99590379 C166.22599729 330.99033498 148.92739969 331.01112234 131.62868835 331.04426426 C113.8658529 331.07803083 96.10308846 331.09316536 78.34022033 331.08854723 C68.36821918 331.08630451 58.39635497 331.09151587 48.42438126 331.11643982 C39.92894423 331.137492 31.43371911 331.14100682 22.93827327 331.12214023 C18.60648003 331.11300398 14.27508144 331.11177378 9.94331932 331.13249588 C5.97027022 331.15129077 1.99793659 331.1466082 -1.97508599 331.12395006 C-3.40523272 331.11978541 -4.83543521 331.12389185 -6.26552282 331.137546 C-18.30293413 331.2445615 -28.44943186 329.14469841 -37.78125 321.18359375 C-47.09407057 312.02171031 -52.72492931 302.61625848 -52.88338572 289.22710431 C-52.87102457 287.747652 -52.87102457 287.747652 -52.8584137 286.23831177 C-52.86535922 285.16002763 -52.87230475 284.08174349 -52.87946075 282.97078407 C-52.89763899 279.38672006 -52.88749161 275.80332486 -52.87719727 272.21923828 C-52.88426036 269.63775134 -52.89300702 267.05626854 -52.90330505 264.47479248 C-52.92487047 258.20803102 -52.92483733 251.94145167 -52.91667951 245.67466535 C-52.9103615 240.5772908 -52.91153299 235.47996908 -52.91795158 230.38259506 C-52.91885324 229.65514348 -52.91975489 228.9276919 -52.92068387 228.17819633 C-52.92253521 226.7000397 -52.92439777 225.22188308 -52.92627143 223.74372648 C-52.94282421 209.90381289 -52.93415255 196.06400144 -52.91728585 182.22409402 C-52.90259438 169.58496045 -52.9172139 156.94606473 -52.94605602 144.30696179 C-52.97550679 131.30347219 -52.98640558 118.30009213 -52.97687382 105.29657066 C-52.97585135 103.82345511 -52.97485674 102.35033955 -52.9738903 100.87722397 C-52.97341391 100.15257298 -52.97293752 99.42792199 -52.9724467 98.68131188 C-52.97028988 93.59619542 -52.98004756 88.51118354 -52.99466133 83.42609024 C-53.01409404 76.56898731 -53.00700916 69.71233202 -52.98246193 62.8552475 C-52.977467 60.34511152 -52.98090928 57.83494173 -52.99361038 55.32483292 C-53.07144987 38.61377492 -53.05027761 25.24267948 -40.66015625 12.6484375 C-28.21425079 1.08402956 -16.3704496 -0.11164304 0 0 Z " fill="#000000" transform="translate(58.34375,75.50390625)"/>
<path d="M0 0 C1.12657623 -0.00905664 2.25315245 -0.01811328 3.41386735 -0.02744436 C4.65692852 -0.02211644 5.89998969 -0.01678851 7.18071938 -0.01129913 C8.49718126 -0.01739024 9.81364314 -0.02348134 11.16999781 -0.02975702 C14.83229513 -0.04621262 18.49437798 -0.04382721 22.15669942 -0.03838205 C26.10378958 -0.03571851 30.05082169 -0.05023148 33.99788857 -0.06247711 C41.73625596 -0.08356704 49.47454849 -0.08806974 57.21294121 -0.08628923 C63.50615096 -0.08498256 69.79933731 -0.08878089 76.09254265 -0.09621429 C77.9041518 -0.09831349 79.71576094 -0.10041109 81.5273701 -0.10250711 C82.42906002 -0.10355064 83.33074994 -0.10459417 84.25976379 -0.10566932 C101.32913762 -0.12458849 118.39846852 -0.12351732 135.46784849 -0.11669999 C151.06913797 -0.11113218 166.67026284 -0.13191442 182.27151386 -0.16506046 C198.2941316 -0.19883687 214.31667061 -0.21396028 230.33932459 -0.20934343 C239.33323301 -0.20710158 248.32698957 -0.21229916 257.32086754 -0.23723602 C264.98371192 -0.25830104 272.64632134 -0.26179053 280.30917554 -0.24293643 C284.21567825 -0.23380767 288.12174353 -0.23254639 292.02821159 -0.25329208 C295.6126983 -0.27211608 299.19639287 -0.26737297 302.78085048 -0.24474627 C304.6749135 -0.23863641 306.56900828 -0.25686162 308.46298158 -0.27628279 C320.74209106 -0.15052164 330.64389974 3.39860803 339.45479774 12.0667038 C348.45623762 21.75427883 352.23284869 31.35057923 352.12180519 44.64089203 C352.12875072 45.71917617 352.13569625 46.79746031 352.14285225 47.90841973 C352.16103049 51.49248374 352.15088311 55.07587894 352.14058876 58.65996552 C352.14765186 61.24145246 352.15639851 63.82293525 352.16669655 66.40441132 C352.18826197 72.67117278 352.18822882 78.93775212 352.180071 85.20453845 C352.173753 90.301913 352.17492448 95.39923471 352.18134308 100.49660873 C352.18224473 101.22406031 352.18314639 101.9515119 352.18407537 102.70100746 C352.18592671 104.1791641 352.18778927 105.65732071 352.18966293 107.13547732 C352.2062157 120.97539091 352.19754404 134.81520235 352.18067735 148.65510978 C352.16598587 161.29424335 352.18060539 173.93313907 352.20944751 186.57224201 C352.23889829 199.57573161 352.24979707 212.57911166 352.24026531 225.58263314 C352.23924284 227.05574868 352.23824823 228.52886425 352.2372818 230.00197983 C352.23680541 230.72663082 352.23632902 231.4512818 352.23583819 232.19789191 C352.23368137 237.28300838 352.24343905 242.36802026 352.25805283 247.45311356 C352.27748553 254.31021648 352.27040066 261.16687177 352.24585342 268.0239563 C352.2408585 270.53409227 352.24430078 273.04426207 352.25700188 275.55437088 C352.33484137 292.26542887 352.31366911 305.63652432 339.92354774 318.2307663 C329.6754555 327.75302401 319.81945552 331.02019354 305.82589149 330.8792038 C304.64998451 330.88065903 303.47407753 330.88211426 302.262537 330.88361359 C299.79860369 330.88196471 297.33465897 330.87051817 294.87081337 330.84966278 C291.08977507 330.82047599 287.31012123 330.82912196 283.52901649 330.84209442 C281.127968 330.83586315 278.72692391 330.82747702 276.32589149 330.8167038 C274.62910255 330.82110725 274.62910255 330.82110725 272.89803505 330.82559967 C271.85264565 330.8129155 270.80725624 330.80023132 269.73018837 330.78716278 C268.81072426 330.7817598 267.89126015 330.77635681 266.94393349 330.7707901 C264.14290002 330.30609114 263.25103339 329.67125728 261.60714149 327.38311005 C260.98973842 323.21563931 261.05036063 321.18590867 263.47359657 317.69194794 C267.99977241 314.35700092 271.75972376 314.72566174 277.24386024 314.8167038 C278.27847893 314.81106918 279.31309761 314.80543457 280.37906837 314.79962921 C283.68472013 314.78318272 286.98903646 314.79869949 290.29464149 314.82061005 C293.58227374 314.83726667 296.86900909 314.846191 300.15665627 314.83087921 C302.19912976 314.82168695 304.24179398 314.83046588 306.28406715 314.86051178 C314.65650485 314.82876231 322.14202976 312.98062102 328.48214149 307.25811005 C334.8439128 300.01458239 336.20181671 291.85107543 336.12180519 282.49114227 C336.13222348 280.91469995 336.13222348 280.91469995 336.14285225 279.30641031 C336.16104813 275.8089702 336.15087825 272.31221408 336.14058876 268.81475067 C336.14765089 266.29750819 336.15639713 263.78026995 336.16669655 261.26303864 C336.18683517 255.15019308 336.18822687 249.03759746 336.180071 242.92473161 C336.17375608 237.95411852 336.17492166 232.98355962 336.18134308 228.01294708 C336.18269556 226.94940852 336.18269556 226.94940852 336.18407537 225.86438432 C336.18592667 224.42374796 336.18778924 222.98311162 336.18966293 221.54247528 C336.2062181 208.05221866 336.19754134 194.56206681 336.18067735 181.0718165 C336.16597923 168.74421699 336.1806143 156.4168612 336.20944751 144.08929306 C336.23887558 131.41242252 336.24980408 118.73566431 336.24026531 106.05876112 C336.23924282 104.62359844 336.23824821 103.18843573 336.2372818 101.75327301 C336.23656721 100.694244 336.23656721 100.694244 336.23583819 99.61382046 C336.23367873 94.65254014 336.24345299 89.69136678 336.25805283 84.73011017 C336.2774512 78.04537528 336.27043905 71.36116449 336.24585342 64.67642403 C336.24084893 62.22630603 336.24432578 59.77615347 336.25700188 57.32606316 C336.27296407 53.97521649 336.25794959 50.62585505 336.23533058 47.27507782 C336.24716631 46.31105372 336.25900204 45.34702962 336.27119642 44.35379267 C336.16493125 36.57789347 333.94305063 30.04961259 328.64670473 24.22839117 C320.60402466 16.48657225 312.29436461 15.94511913 301.60624123 16.01802826 C300.30436401 16.01490926 299.00248679 16.01179026 297.66115874 16.00857675 C294.06309284 16.00027156 290.46528339 16.01045231 286.86724102 16.02366543 C282.98108137 16.03460165 279.09494714 16.02809783 275.20878029 16.02353668 C268.47976817 16.01779773 261.75082817 16.02240853 255.02182388 16.03355026 C245.28743175 16.04921611 235.55313656 16.04363532 225.81874295 16.03193383 C210.01717002 16.0130509 194.21561028 16.00382163 178.41402626 16.0042038 C177.46884633 16.00422124 176.52366639 16.00423868 175.54984464 16.00425665 C164.99885253 16.00470911 154.44786515 16.0080421 143.89687538 16.01512909 C142.94761795 16.01576147 141.99836052 16.01639386 141.02033771 16.0170454 C140.07199339 16.01767797 139.12364907 16.01831053 138.14656705 16.01896226 C136.23409252 16.02023204 134.32161798 16.02149745 132.40914345 16.02275848 C131.46420766 16.02338667 130.51927187 16.02401487 129.54570166 16.02466209 C113.79866965 16.03461017 98.05171637 16.02530676 82.30470103 16.00057447 C72.59221839 15.98612885 62.88001248 15.98823571 53.1675457 16.01153646 C46.51715716 16.02626286 39.86693118 16.0231552 33.2165492 16.00590755 C29.37783236 15.99655302 25.53956633 15.99547295 21.70088387 16.01613808 C17.5426097 16.03834974 13.38537571 16.02215874 9.22709084 16.00215912 C7.40114025 16.02123855 7.40114025 16.02123855 5.53830177 16.04070342 C-2.58559089 15.9560979 -2.58559089 15.9560979 -6.65035534 13.07098198 C-8.91910349 9.5713588 -8.99934033 7.47686237 -8.39285851 3.38311005 C-6.03136198 0.04711892 -3.94474964 0.00635009 0 0 Z " fill="#000000" transform="translate(154.39285850524902,75.61688995361328)"/>
<path d="M0 0 C1.39001221 -0.00856522 1.39001221 -0.00856522 2.80810547 -0.01730347 C3.8330159 -0.01842133 4.85792633 -0.01953918 5.91389465 -0.02069092 C6.98704926 -0.02565582 8.06020386 -0.03062073 9.1658783 -0.03573608 C12.73529185 -0.05040493 16.30466092 -0.05716848 19.87409973 -0.06268311 C22.34694419 -0.06843184 24.81978864 -0.07418961 27.29263306 -0.07995605 C32.48718983 -0.09048029 37.68173106 -0.09631325 42.876297 -0.09979248 C49.53341015 -0.1044864 56.19028906 -0.12928285 62.84734631 -0.15776443 C67.95943805 -0.1763895 73.07148048 -0.18159641 78.18360329 -0.18312836 C80.63760305 -0.18615704 83.09160191 -0.19419279 85.54556847 -0.20731354 C88.9810021 -0.22436651 92.41593588 -0.22249501 95.85139465 -0.21600342 C96.86618393 -0.2252182 97.88097321 -0.23443298 98.92651367 -0.243927 C104.25001812 -0.21241315 108.15696193 0.04412773 112.70613098 3.14044189 C114.98838916 6.56382916 114.95880101 7.78964131 114.96682739 11.81373596 C114.9739122 12.99558472 114.98099701 14.17743347 114.98829651 15.39509583 C114.98581909 16.69333786 114.98334167 17.9915799 114.98078918 19.3291626 C114.98513603 20.7090177 114.99031909 22.08887039 114.99627686 23.46871948 C115.00968372 27.21885223 115.01024348 30.96888429 115.00771356 34.71903634 C115.0066446 37.85014318 115.01152547 40.98122958 115.01631898 44.11233205 C115.02742081 51.50119341 115.02784832 58.89000395 115.02180481 66.27886963 C115.01576866 73.89796836 115.02806527 81.51688225 115.04937488 89.13594943 C115.06700053 95.67873668 115.07299057 102.22146515 115.06973714 108.76427525 C115.06792506 112.67127866 115.07055247 116.57815033 115.08445168 120.48513222 C115.09704051 124.16154288 115.09507613 127.8376661 115.08204079 131.51407242 C115.07855259 133.50245667 115.08984632 135.49084974 115.10160828 137.47920227 C115.09459396 138.6695105 115.08757965 139.85981873 115.08035278 141.0861969 C115.08052052 142.11655217 115.08068827 143.14690744 115.08086109 144.2084856 C114.63264919 147.71537673 113.5148933 150.11781049 111.70613098 153.14044189 C107.99516022 155.35311611 104.64776893 155.35893943 100.39363098 155.26544189 C99.32499817 155.24739502 98.25636536 155.22934814 97.15534973 155.21075439 C96.34710754 155.18755127 95.53886536 155.16434814 94.70613098 155.14044189 C94.70202209 154.26420166 94.69791321 153.38796143 94.69367981 152.48516846 C94.66640232 149.17433533 94.61701424 145.8652573 94.55354309 142.55499268 C94.53061669 141.13355592 94.51602809 139.71195541 94.51057434 138.29034424 C94.444136 123.80678571 90.85808735 112.25880385 80.45613098 101.76544189 C79.21098553 100.55210672 77.96261521 99.34203118 76.70613098 98.14044189 C77.08124817 97.70473877 77.45636536 97.26903564 77.84284973 96.82012939 C78.91913931 95.56762112 79.99041241 94.31079152 81.05769348 93.05059814 C82.41546333 91.47725821 83.83451273 89.95701714 85.26863098 88.45294189 C92.78367367 79.45434709 94.48165793 67.42083391 93.70613098 56.14044189 C92.36849004 48.89400908 89.39475352 40.76816736 84.04988098 35.51153564 C82.70613098 34.14044189 82.70613098 34.14044189 82.70613098 32.14044189 C82.11702942 31.85942627 81.52792786 31.57841064 80.92097473 31.28887939 C78.89416176 30.23793933 77.13566093 29.0711154 75.26863098 27.76544189 C65.5542702 21.69171354 54.28712474 19.49995779 43.04988098 21.64825439 C31.83854733 24.6587051 22.83370743 30.60426927 16.35456848 40.23809814 C10.82778173 49.96890989 9.06318439 60.58464475 11.43659973 71.49981689 C14.54599165 82.51594828 19.40693257 89.39726919 27.70613098 97.14044189 C27.1434552 97.79399658 27.1434552 97.79399658 26.56941223 98.46075439 C25.49625494 99.70961755 24.42613849 100.96109778 23.35847473 102.21466064 C21.95266818 103.85310657 20.5196649 105.46815393 19.08113098 107.07794189 C10.8783199 117.65525093 10.41513788 129.26700662 10.08113098 142.26544189 C10.04245911 143.50809814 10.00378723 144.75075439 9.96394348 146.03106689 C9.87051831 149.06738509 9.78474979 152.10371039 9.70613098 155.14044189 C-2.77921927 155.90071356 -2.77921927 155.90071356 -6.30168152 154.13262939 C-10.06266356 150.37164736 -10.42042926 146.51657105 -10.44776917 141.4604187 C-10.45636963 140.27712479 -10.46497009 139.09383087 -10.47383118 137.87467957 C-10.4802211 135.92495995 -10.4802211 135.92495995 -10.48674011 133.93585205 C-10.49464291 132.55437515 -10.50291198 131.1729003 -10.51152039 129.79142761 C-10.53771411 125.25413986 -10.55304271 120.71684299 -10.56730652 116.17950439 C-10.57266679 114.61728281 -10.5780443 113.05506128 -10.58343887 111.49283981 C-10.60506133 104.99548708 -10.62379898 98.49813681 -10.63506126 92.00075722 C-10.65130852 82.6890087 -10.68451191 73.37767688 -10.74146211 64.06608546 C-10.78014486 57.51823023 -10.79969179 50.97048655 -10.80498183 44.42252004 C-10.80863686 40.51149775 -10.82067389 36.60092016 -10.85308456 32.69002151 C-10.88313746 29.01104293 -10.8894876 25.33277881 -10.87770081 21.65370369 C-10.87737456 19.66148828 -10.90185735 17.66931714 -10.92707825 15.67726135 C-10.85897726 5.94380769 -10.85897726 5.94380769 -7.81990051 2.86148071 C-6.98631012 2.2935379 -6.15271973 1.72559509 -5.29386902 1.14044189 C-3.72497576 -0.42845137 -2.18056609 0.00800957 0 0 Z " fill="#FCF1EF" transform="translate(341.2938690185547,160.85955810546875)"/>
<path d="M0 0 C1.45135849 -0.00430527 1.45135849 -0.00430527 2.93203735 -0.00869751 C4.97097359 -0.01073129 7.00992964 -0.00524963 9.04882812 0.00732422 C12.14758608 0.02335228 15.24503288 0.00746988 18.34375 -0.01171875 C20.33333618 -0.00973551 22.32292155 -0.00589018 24.3125 0 C25.22840912 -0.00607269 26.14431824 -0.01214539 27.08798218 -0.0184021 C35.42627067 0.07144004 43.05133618 1.6563969 49.23168945 7.58447266 C56.3725267 15.90182972 56.55019507 24.60516512 56.38598633 35.03930664 C56.35157118 37.46032679 56.36539663 39.87770417 56.38476562 42.29882812 C56.37707678 50.26821319 56.25560626 57.49421382 51.7890625 64.3984375 C51.25212769 65.24607666 51.25212769 65.24607666 50.7043457 66.11083984 C46.82907901 71.43212581 41.07485336 74.04298953 34.7890625 75.3984375 C33.31610772 75.50525992 31.839405 75.56633431 30.36279297 75.59130859 C29.49443817 75.60737152 28.62608337 75.62343445 27.73141479 75.63998413 C23.75780329 75.68483883 19.78435303 75.72551843 15.81054688 75.74853516 C13.72351905 75.7650526 11.6365468 75.79228657 9.54980469 75.83056641 C6.52249145 75.88573931 3.49650042 75.90727296 0.46875 75.921875 C-0.451409 75.94454437 -1.37156799 75.96721375 -2.3196106 75.99057007 C-9.9055718 75.96620283 -16.41348579 73.81103476 -22.1321106 68.67196655 C-27.95890371 62.57732882 -29.67738168 55.27674854 -29.6796875 47.09375 C-29.68730103 46.3297287 -29.69491455 45.5657074 -29.70275879 44.77853394 C-29.71348963 43.17351523 -29.7164417 41.5684271 -29.71191406 39.96337891 C-29.71094236 37.53557406 -29.75262516 35.11094333 -29.796875 32.68359375 C-29.87157893 23.03049618 -29.36258374 14.94978043 -22.45507812 7.50634766 C-15.76400476 1.1199643 -8.91817627 -0.05886939 0 0 Z " fill="#010201" transform="translate(105.2109375,145.6015625)"/>
<path d="M0 0 C0.7349293 -0.0060911 1.46985859 -0.01218221 2.22705847 -0.01845789 C4.69063749 -0.03511214 7.15370102 -0.03030876 9.61732483 -0.0255127 C11.38318418 -0.03285161 13.14903873 -0.04143732 14.91488647 -0.05117798 C19.71239537 -0.07342084 24.50973265 -0.0763233 29.30728602 -0.07443047 C33.31089481 -0.0743109 37.31446706 -0.08286937 41.3180657 -0.09120798 C50.76224451 -0.11045184 60.20633491 -0.11332221 69.65052795 -0.10656738 C79.39704642 -0.09992469 89.14318662 -0.12279789 98.88962835 -0.15988111 C107.2549206 -0.19055579 115.62009102 -0.2019406 123.98543841 -0.1980443 C128.98290015 -0.19597458 133.98006756 -0.20149043 138.97747612 -0.22593689 C143.67669081 -0.24816479 148.3752895 -0.24635934 153.07450676 -0.22600937 C154.79946367 -0.22259235 156.52446172 -0.22771818 158.24936295 -0.24199295 C160.60405677 -0.26013562 162.95664966 -0.24747648 165.3112793 -0.22705078 C167.28764578 -0.22811954 167.28764578 -0.22811954 169.30393887 -0.2292099 C173.59797828 0.55488787 175.10648971 1.95377049 177.71913147 5.39440918 C177.78303063 9.10056056 177.72589265 11.34082918 175.1077795 14.08069611 C171.79065389 15.905055 169.21758551 15.7781199 165.43826294 15.78881836 C164.70333364 15.79490946 163.96840435 15.80100057 163.21120447 15.80727625 C160.74762545 15.8239305 158.28456191 15.81912712 155.82093811 15.81433105 C154.05507876 15.82166997 152.2892242 15.83025568 150.52337646 15.83999634 C145.72586757 15.8622392 140.92853029 15.86514166 136.13097692 15.86324883 C132.12736813 15.86312926 128.12379588 15.87168773 124.12019724 15.88002634 C114.67601843 15.8992702 105.23192803 15.90214057 95.78773499 15.89538574 C86.04121652 15.88874305 76.29507632 15.91161625 66.54863459 15.94869947 C58.18334234 15.97937415 49.81817192 15.99075896 41.45282453 15.98686266 C36.45536279 15.98479294 31.45819538 15.99030879 26.46078682 16.01475525 C21.76157213 16.03698315 17.06297344 16.0351777 12.36375618 16.01482773 C10.63879927 16.0114107 8.91380122 16.01653654 7.18889999 16.03081131 C4.83420617 16.04895397 2.48161328 16.03629484 0.12698364 16.01586914 C-1.19059402 16.01658165 -2.50817167 16.01729416 -3.86567593 16.01802826 C-8.15971534 15.23393049 -9.66822677 13.83504787 -12.28086853 10.39440918 C-12.34476769 6.6882578 -12.28762971 4.44798918 -9.66951656 1.70812225 C-6.35239095 -0.11623664 -3.77932257 0.01069846 0 0 Z " fill="#000000" transform="translate(173.28086853027344,110.6055908203125)"/>
<path d="M0 0 C7.18145633 4.29194781 12.06907348 10.318723 14.3203125 18.38671875 C14.78229078 23.42385292 14.6987929 28.39669869 14.5703125 33.44921875 C14.4878125 38.04859375 14.4053125 42.64796875 14.3203125 47.38671875 C-3.8296875 47.38671875 -21.9796875 47.38671875 -40.6796875 47.38671875 C-40.7828125 42.80796875 -40.8859375 38.22921875 -40.9921875 33.51171875 C-41.03770752 32.08875488 -41.08322754 30.66579102 -41.13012695 29.19970703 C-41.24023352 19.03722624 -39.18875836 12.13747184 -32.4296875 4.51171875 C-23.22537025 -3.86124081 -11.28149925 -5.1691757 0 0 Z " fill="#5FD042" transform="translate(406.6796875,268.61328125)"/>
<path d="M0 0 C0.89439285 -0.00570007 1.78878571 -0.01140015 2.71028137 -0.01727295 C4.60933239 -0.02674117 6.50839997 -0.03326413 8.4074707 -0.03710938 C11.30254255 -0.04677653 14.19689302 -0.07776639 17.09179688 -0.109375 C18.9361937 -0.1159087 20.78059561 -0.12115773 22.625 -0.125 C23.48772018 -0.1373468 24.35044037 -0.1496936 25.23930359 -0.16241455 C30.27902038 -0.14390593 33.80722242 0.34534784 38.14453125 3.203125 C41.37193913 8.04423682 40.47756084 13.68071922 40.46020508 19.34448242 C40.45705737 21.49775382 40.48046497 23.64963404 40.50585938 25.80273438 C40.50813387 27.18228995 40.50883517 28.56184918 40.5078125 29.94140625 C40.51079346 31.18962158 40.51377441 32.43783691 40.5168457 33.72387695 C40.10141525 37.60604049 39.31633986 39.96185395 37.14453125 43.203125 C32.86453857 45.94852809 27.7946175 45.54330064 22.86328125 45.57421875 C21.97217651 45.58324722 21.08107178 45.5922757 20.16296387 45.60157776 C18.28364406 45.61604973 16.40427422 45.62495939 14.52490234 45.62866211 C11.65376164 45.64058666 8.78475189 45.68982395 5.9140625 45.74023438 C4.08464587 45.74969625 2.25521609 45.75693241 0.42578125 45.76171875 C-0.429552 45.78125107 -1.28488525 45.80078339 -2.1661377 45.82090759 C-6.62892846 45.78718577 -8.29824955 45.65967506 -11.87304688 42.73071289 C-12.52724609 41.89660889 -13.18144531 41.06250488 -13.85546875 40.203125 C-14.18546875 39.873125 -14.51546875 39.543125 -14.85546875 39.203125 C-15.14694072 34.57351699 -15.16953817 29.94112827 -15.20556641 25.30322266 C-15.2220937 23.74350022 -15.24934165 22.18385251 -15.28759766 20.62451172 C-15.34252807 18.37427539 -15.36426531 16.12581762 -15.37890625 13.875 C-15.40157562 13.18210876 -15.424245 12.48921753 -15.44760132 11.77532959 C-15.43048854 7.82995675 -14.97342162 6.34241151 -12.38525391 3.28613281 C-11.5504248 2.59874023 -10.7155957 1.91134766 -9.85546875 1.203125 C-7.72684343 -0.92550032 -2.94792331 0.01435348 0 0 Z " fill="#F09C70" transform="translate(105.85546875,160.796875)"/>
<path d="M0 0 C7.03968228 4.20721753 12.30103014 10.37269187 14.3203125 18.38671875 C15.49072926 27.39648944 14.13096851 35.31169762 8.625 42.64453125 C2.41201231 49.46121005 -4.50441028 52.49045489 -13.6796875 52.94921875 C-21.63084562 52.6430124 -27.68980857 49.45395104 -33.5546875 44.19921875 C-39.50876492 37.66803217 -41.4606112 30.0584542 -41.125 21.34375 C-39.89139421 13.15217474 -35.20579207 6.35710546 -28.6796875 1.38671875 C-19.88793672 -4.32199033 -9.41946545 -4.31599301 0 0 Z " fill="#F3C1A7" transform="translate(406.6796875,198.61328125)"/>
<path d="M0 0 C1.2183252 -0.01134979 2.43665039 -0.02269958 3.69189453 -0.03439331 C5.03898687 -0.03175007 6.38607859 -0.02877886 7.73316956 -0.0255127 C9.15420703 -0.03285342 10.57523853 -0.04143966 11.9962616 -0.05117798 C15.85372822 -0.07340206 19.71098129 -0.07632425 23.56850314 -0.07443047 C26.78923728 -0.07431081 30.00992609 -0.08287288 33.23064762 -0.09120798 C40.82901249 -0.1104451 48.42726748 -0.1133247 56.02565002 -0.10656738 C63.86360035 -0.09992529 71.70108022 -0.12279665 79.53893512 -0.15988111 C86.26942676 -0.1905703 92.99976698 -0.20193904 99.73032719 -0.1980443 C103.74971851 -0.19597605 107.76874372 -0.20146737 111.78806877 -0.22593689 C115.56806403 -0.24818915 119.34729397 -0.24633986 123.12729263 -0.22600937 C124.5136137 -0.22259657 125.89998613 -0.22770028 127.28623772 -0.24199295 C139.06675233 -0.35506209 139.06675233 -0.35506209 142.40737915 2.70629883 C144.04786682 5.39440918 144.04786682 5.39440918 144.11036682 9.01940918 C142.92442204 12.78652789 142.38528913 13.49277343 139.04786682 15.39440918 C136.30512333 15.77751923 136.30512333 15.77751923 133.09573364 15.78881836 C131.26824585 15.80584305 131.26824585 15.80584305 129.40383911 15.82321167 C128.05674678 15.82056843 126.70965505 15.81759722 125.36256409 15.81433105 C123.94152661 15.82167178 122.52049511 15.83025802 121.09947205 15.83999634 C117.24200542 15.86222042 113.38475236 15.86514261 109.5272305 15.86324883 C106.30649636 15.86312917 103.08580755 15.87169124 99.86508602 15.88002634 C92.26672116 15.89926346 84.66846616 15.90214305 77.07008362 15.89538574 C69.23213329 15.88874365 61.39465342 15.91161501 53.55679852 15.94869947 C46.82630689 15.97938866 40.09596666 15.9907574 33.36540645 15.98686266 C29.34601514 15.98479441 25.32698993 15.99028573 21.30766487 16.01475525 C17.52766961 16.03700751 13.74843967 16.03515822 9.96844101 16.01482773 C8.58211994 16.01141493 7.19574751 16.01651864 5.80949593 16.03081131 C-5.97101869 16.14388045 -5.97101869 16.14388045 -9.31164551 13.08251953 C-10.95213318 10.39440918 -10.95213318 10.39440918 -11.01463318 6.76940918 C-9.14170101 0.82009522 -5.92065491 0.02084455 0 0 Z " fill="#000000" transform="translate(326.95213317871094,350.6055908203125)"/>
<path d="M0 0 C0.9000325 -0.00701431 1.800065 -0.01402863 2.72737122 -0.02125549 C3.70723495 -0.01361176 4.68709869 -0.00596802 5.69665527 0.00190735 C6.73444626 -0.00174332 7.77223724 -0.00539398 8.84147644 -0.00915527 C12.27448858 -0.01726616 15.70702953 -0.00364578 19.14001465 0.01094055 C21.52368164 0.01145909 23.90734906 0.01094163 26.29101562 0.00942993 C31.28778463 0.00951968 36.28439238 0.01995456 41.28112793 0.03804016 C47.69058248 0.06072724 54.09980133 0.06127164 60.50928497 0.05452251 C65.43172302 0.05118326 70.3541072 0.05781184 75.27653503 0.06765175 C77.64006773 0.07150478 80.00360642 0.07265154 82.36714172 0.0710659 C85.66850226 0.07069563 88.96955905 0.08330522 92.27087402 0.0995636 C93.74066963 0.09584747 93.74066963 0.09584747 95.24015808 0.09205627 C96.14019058 0.09914108 97.04022308 0.10622589 97.9675293 0.11352539 C98.74770164 0.11557826 99.52787399 0.11763113 100.33168793 0.11974621 C102.78777916 0.41017046 104.39006546 1.07029425 106.48376465 2.3742218 C108.00868463 5.42406176 107.71939013 8.0165587 107.48376465 11.3742218 C105.94113652 13.47780561 104.80268147 14.21476339 102.48376465 15.3742218 C101.0635169 15.47646835 99.63865465 15.51795908 98.21476746 15.52812195 C97.31892944 15.53672241 96.42309143 15.54532288 95.50010681 15.55418396 C94.02188194 15.56057388 94.02188194 15.56057388 92.51379395 15.5670929 C90.95995499 15.57935913 90.95995499 15.57935913 89.37472534 15.59187317 C85.9358173 15.61675055 82.49695058 15.63324841 79.0579834 15.6476593 C77.88557413 15.65298298 76.71316486 15.65830666 75.50522804 15.66379166 C69.30089598 15.69053224 63.09658411 15.70990507 56.89221191 15.72431946 C50.47590576 15.7409778 44.0601122 15.7857636 37.64400005 15.8366909 C32.71724337 15.87030462 27.79060928 15.88189045 22.86374855 15.88754654 C20.49820853 15.89427425 18.13267699 15.90953541 15.76724815 15.93343735 C12.4583768 15.96496709 9.15090035 15.96514352 5.84191895 15.9577179 C4.86250839 15.97412323 3.88309784 15.99052856 2.87400818 16.00743103 C-1.73316722 15.96505039 -3.8541514 15.86073754 -7.65971375 13.0643158 C-9.51623535 10.3742218 -9.51623535 10.3742218 -9.57873535 6.7492218 C-7.96073123 1.60967929 -5.29811224 -0.00113913 0 0 Z " fill="#000000" transform="translate(155.5162353515625,350.6257781982422)"/>
<path d="M0 0 C0.72407043 -0.00846954 1.44814087 -0.01693909 2.19415283 -0.02566528 C4.58347218 -0.04903062 6.9721474 -0.05005762 9.36157227 -0.04882812 C11.02539833 -0.05592995 12.68922194 -0.06362898 14.3530426 -0.07189941 C17.83910939 -0.08534307 21.32494971 -0.08691354 24.81103516 -0.08105469 C29.27469379 -0.07515818 33.73726489 -0.10574761 38.20071316 -0.14617157 C41.63660011 -0.17204247 45.07222496 -0.17492659 48.50819588 -0.17127991 C50.15362342 -0.1729717 51.79906298 -0.18262008 53.44439507 -0.20042419 C55.74752102 -0.22260415 58.04844299 -0.21292015 60.3515625 -0.1953125 C61.66076157 -0.19736694 62.96996063 -0.19942139 64.3188324 -0.20153809 C68.61882799 0.57945299 70.12409099 1.9758487 72.74047852 5.41992188 C72.80437714 9.12604228 72.74860197 11.36678584 70.12779236 14.10461426 C66.82264688 15.92560777 64.24707028 15.81560992 60.48095703 15.83984375 C59.39485138 15.85254807 59.39485138 15.85254807 58.2868042 15.86550903 C55.89748485 15.88887437 53.50880963 15.88990137 51.11938477 15.88867188 C49.4555587 15.8957737 47.79173509 15.90347273 46.12791443 15.91174316 C42.64184764 15.92518682 39.15600732 15.92675729 35.66992188 15.92089844 C31.20626324 15.91500193 26.74369214 15.94559136 22.28024387 15.98601532 C18.84435693 16.01188622 15.40873207 16.01477034 11.97276115 16.01112366 C10.32733362 16.01281545 8.68189405 16.02246383 7.03656197 16.04026794 C4.73343601 16.0624479 2.43251404 16.0527639 0.12939453 16.03515625 C-1.17980453 16.03721069 -2.4890036 16.03926514 -3.83787537 16.04138184 C-8.13787096 15.26039076 -9.64313396 13.86399505 -12.25952148 10.41992188 C-12.32342011 6.71380147 -12.26764494 4.47305791 -9.64683533 1.73522949 C-6.34168985 -0.08576402 -3.76611325 0.02423383 0 0 Z " fill="#000101" transform="translate(158.259521484375,280.580078125)"/>
<path d="M0 0 C0.72407043 -0.00846954 1.44814087 -0.01693909 2.19415283 -0.02566528 C4.58347218 -0.04903062 6.9721474 -0.05005762 9.36157227 -0.04882812 C11.02539833 -0.05592995 12.68922194 -0.06362898 14.3530426 -0.07189941 C17.83910939 -0.08534307 21.32494971 -0.08691354 24.81103516 -0.08105469 C29.27469379 -0.07515818 33.73726489 -0.10574761 38.20071316 -0.14617157 C41.63660011 -0.17204247 45.07222496 -0.17492659 48.50819588 -0.17127991 C50.15362342 -0.1729717 51.79906298 -0.18262008 53.44439507 -0.20042419 C55.74752102 -0.22260415 58.04844299 -0.21292015 60.3515625 -0.1953125 C61.66076157 -0.19736694 62.96996063 -0.19942139 64.3188324 -0.20153809 C68.61882799 0.57945299 70.12409099 1.9758487 72.74047852 5.41992188 C72.80437714 9.12604228 72.74860197 11.36678584 70.12779236 14.10461426 C66.82264688 15.92560777 64.24707028 15.81560992 60.48095703 15.83984375 C59.39485138 15.85254807 59.39485138 15.85254807 58.2868042 15.86550903 C55.89748485 15.88887437 53.50880963 15.88990137 51.11938477 15.88867188 C49.4555587 15.8957737 47.79173509 15.90347273 46.12791443 15.91174316 C42.64184764 15.92518682 39.15600732 15.92675729 35.66992188 15.92089844 C31.20626324 15.91500193 26.74369214 15.94559136 22.28024387 15.98601532 C18.84435693 16.01188622 15.40873207 16.01477034 11.97276115 16.01112366 C10.32733362 16.01281545 8.68189405 16.02246383 7.03656197 16.04026794 C4.73343601 16.0624479 2.43251404 16.0527639 0.12939453 16.03515625 C-1.17980453 16.03721069 -2.4890036 16.03926514 -3.83787537 16.04138184 C-8.13787096 15.26039076 -9.64313396 13.86399505 -12.25952148 10.41992188 C-12.32342011 6.71380147 -12.26764494 4.47305791 -9.64683533 1.73522949 C-6.34168985 -0.08576402 -3.76611325 0.02423383 0 0 Z " fill="#000101" transform="translate(158.259521484375,245.580078125)"/>
<path d="M0 0 C4.08578117 0.24034007 6.4355318 0.55914952 9.70117188 3.10961914 C12.55511196 6.69795779 12.61982787 8.51837792 12.59375 13.05859375 C12.59379028 13.72536636 12.59383057 14.39213898 12.59387207 15.07911682 C12.58853216 16.48358631 12.57101416 17.88805657 12.54199219 19.29223633 C12.50018229 21.4281875 12.50092362 23.56097455 12.5078125 25.69726562 C12.41452978 37.87680287 12.41452978 37.87680287 9 43 C4.72000732 45.74540309 -0.34991375 45.34017564 -5.28125 45.37109375 C-6.17235474 45.38012222 -7.06345947 45.3891507 -7.98156738 45.39845276 C-9.86088719 45.41292473 -11.74025703 45.42183439 -13.61962891 45.42553711 C-16.49076961 45.43746166 -19.35977936 45.48669895 -22.23046875 45.53710938 C-24.05988538 45.54657125 -25.88931516 45.55380741 -27.71875 45.55859375 C-28.57408325 45.57812607 -29.4294165 45.59765839 -30.31066895 45.61778259 C-34.70410301 45.58458485 -36.47436299 45.4006024 -40.08007812 42.65258789 C-42 40 -42 40 -42 37 C-40.83597656 37.0314209 -40.83597656 37.0314209 -39.6484375 37.06347656 C-36.09909252 37.14712759 -32.54995565 37.19881629 -29 37.25 C-27.16888672 37.30027344 -27.16888672 37.30027344 -25.30078125 37.3515625 C-18.01300762 37.43034924 -13.15404285 37.01701842 -7 33 C-2.51459491 28.39655794 -0.79934455 23.84711241 -0.5859375 17.48046875 C-0.54726562 16.45888672 -0.50859375 15.43730469 -0.46875 14.38476562 C-0.4378125 13.32966797 -0.406875 12.27457031 -0.375 11.1875 C-0.33632812 10.11306641 -0.29765625 9.03863281 -0.2578125 7.93164062 C-0.16381387 5.28792912 -0.07815427 2.6442195 0 0 Z " fill="#EA824C" transform="translate(134,161)"/>
<path d="M0 0 C0.87032364 -0.00761353 1.74064728 -0.01522705 2.63734436 -0.02307129 C4.47556697 -0.03386262 6.31385084 -0.03672932 8.15209961 -0.03222656 C10.95986494 -0.03125443 13.76489493 -0.07288003 16.57226562 -0.1171875 C18.3606714 -0.12239494 20.14908665 -0.12508269 21.9375 -0.125 C22.77409653 -0.14139526 23.61069305 -0.15779053 24.47264099 -0.17468262 C28.79016281 -0.12366772 30.54330448 0.09793146 34.09985352 2.77929688 C36.03515625 5.46875 36.03515625 5.46875 36.09765625 9.09375 C34.88988586 12.93019713 34.51470308 13.62934199 31.03515625 15.46875 C28.04800335 15.93044739 25.08870909 15.93677506 22.0703125 15.9375 C21.19998886 15.94511353 20.32966522 15.95272705 19.43296814 15.96057129 C17.59474553 15.97136262 15.75646166 15.97422932 13.91821289 15.96972656 C11.11044756 15.96875443 8.30541757 16.01038003 5.49804688 16.0546875 C3.7096411 16.05989494 1.92122585 16.06258269 0.1328125 16.0625 C-1.12208229 16.0870929 -1.12208229 16.0870929 -2.40232849 16.11218262 C-6.71985031 16.06116772 -8.47299198 15.83956854 -12.02954102 13.15820312 C-13.96484375 10.46875 -13.96484375 10.46875 -14.02734375 6.84375 C-11.74178053 -0.41627435 -6.66155999 0.00159994 0 0 Z " fill="#000101" transform="translate(89.96484375,350.53125)"/>
<path d="M0 0 C0.87032364 -0.00761353 1.74064728 -0.01522705 2.63734436 -0.02307129 C4.47556697 -0.03386262 6.31385084 -0.03672932 8.15209961 -0.03222656 C10.95986494 -0.03125443 13.76489493 -0.07288003 16.57226562 -0.1171875 C18.3606714 -0.12239494 20.14908665 -0.12508269 21.9375 -0.125 C22.77409653 -0.14139526 23.61069305 -0.15779053 24.47264099 -0.17468262 C28.79016281 -0.12366772 30.54330448 0.09793146 34.09985352 2.77929688 C36.03515625 5.46875 36.03515625 5.46875 36.09765625 9.09375 C34.88988586 12.93019713 34.51470308 13.62934199 31.03515625 15.46875 C28.04800335 15.93044739 25.08870909 15.93677506 22.0703125 15.9375 C21.19998886 15.94511353 20.32966522 15.95272705 19.43296814 15.96057129 C17.59474553 15.97136262 15.75646166 15.97422932 13.91821289 15.96972656 C11.11044756 15.96875443 8.30541757 16.01038003 5.49804688 16.0546875 C3.7096411 16.05989494 1.92122585 16.06258269 0.1328125 16.0625 C-1.12208229 16.0870929 -1.12208229 16.0870929 -2.40232849 16.11218262 C-6.71985031 16.06116772 -8.47299198 15.83956854 -12.02954102 13.15820312 C-13.96484375 10.46875 -13.96484375 10.46875 -14.02734375 6.84375 C-11.74178053 -0.41627435 -6.66155999 0.00159994 0 0 Z " fill="#010101" transform="translate(159.96484375,315.53125)"/>
<path d="M0 0 C0.87032364 -0.00761353 1.74064728 -0.01522705 2.63734436 -0.02307129 C4.47556697 -0.03386262 6.31385084 -0.03672932 8.15209961 -0.03222656 C10.95986494 -0.03125443 13.76489493 -0.07288003 16.57226562 -0.1171875 C18.3606714 -0.12239494 20.14908665 -0.12508269 21.9375 -0.125 C22.77409653 -0.14139526 23.61069305 -0.15779053 24.47264099 -0.17468262 C28.79016281 -0.12366772 30.54330448 0.09793146 34.09985352 2.77929688 C36.03515625 5.46875 36.03515625 5.46875 36.09765625 9.09375 C34.88988586 12.93019713 34.51470308 13.62934199 31.03515625 15.46875 C28.04800335 15.93044739 25.08870909 15.93677506 22.0703125 15.9375 C21.19998886 15.94511353 20.32966522 15.95272705 19.43296814 15.96057129 C17.59474553 15.97136262 15.75646166 15.97422932 13.91821289 15.96972656 C11.11044756 15.96875443 8.30541757 16.01038003 5.49804688 16.0546875 C3.7096411 16.05989494 1.92122585 16.06258269 0.1328125 16.0625 C-1.12208229 16.0870929 -1.12208229 16.0870929 -2.40232849 16.11218262 C-6.71985031 16.06116772 -8.47299198 15.83956854 -12.02954102 13.15820312 C-13.96484375 10.46875 -13.96484375 10.46875 -14.02734375 6.84375 C-11.74178053 -0.41627435 -6.66155999 0.00159994 0 0 Z " fill="#010101" transform="translate(89.96484375,315.53125)"/>
<path d="M0 0 C0.87032364 -0.00761353 1.74064728 -0.01522705 2.63734436 -0.02307129 C4.47556697 -0.03386262 6.31385084 -0.03672932 8.15209961 -0.03222656 C10.95986494 -0.03125443 13.76489493 -0.07288003 16.57226562 -0.1171875 C18.3606714 -0.12239494 20.14908665 -0.12508269 21.9375 -0.125 C22.77409653 -0.14139526 23.61069305 -0.15779053 24.47264099 -0.17468262 C28.79016281 -0.12366772 30.54330448 0.09793146 34.09985352 2.77929688 C36.03515625 5.46875 36.03515625 5.46875 36.09765625 9.09375 C34.88988586 12.93019713 34.51470308 13.62934199 31.03515625 15.46875 C28.04800335 15.93044739 25.08870909 15.93677506 22.0703125 15.9375 C21.19998886 15.94511353 20.32966522 15.95272705 19.43296814 15.96057129 C17.59474553 15.97136262 15.75646166 15.97422932 13.91821289 15.96972656 C11.11044756 15.96875443 8.30541757 16.01038003 5.49804688 16.0546875 C3.7096411 16.05989494 1.92122585 16.06258269 0.1328125 16.0625 C-1.12208229 16.0870929 -1.12208229 16.0870929 -2.40232849 16.11218262 C-6.71985031 16.06116772 -8.47299198 15.83956854 -12.02954102 13.15820312 C-13.96484375 10.46875 -13.96484375 10.46875 -14.02734375 6.84375 C-11.74178053 -0.41627435 -6.66155999 0.00159994 0 0 Z " fill="#010101" transform="translate(89.96484375,280.53125)"/>
<path d="M0 0 C0.87032364 -0.00761353 1.74064728 -0.01522705 2.63734436 -0.02307129 C4.47556697 -0.03386262 6.31385084 -0.03672932 8.15209961 -0.03222656 C10.95986494 -0.03125443 13.76489493 -0.07288003 16.57226562 -0.1171875 C18.3606714 -0.12239494 20.14908665 -0.12508269 21.9375 -0.125 C22.77409653 -0.14139526 23.61069305 -0.15779053 24.47264099 -0.17468262 C28.79016281 -0.12366772 30.54330448 0.09793146 34.09985352 2.77929688 C36.03515625 5.46875 36.03515625 5.46875 36.09765625 9.09375 C34.88988586 12.93019713 34.51470308 13.62934199 31.03515625 15.46875 C28.04800335 15.93044739 25.08870909 15.93677506 22.0703125 15.9375 C21.19998886 15.94511353 20.32966522 15.95272705 19.43296814 15.96057129 C17.59474553 15.97136262 15.75646166 15.97422932 13.91821289 15.96972656 C11.11044756 15.96875443 8.30541757 16.01038003 5.49804688 16.0546875 C3.7096411 16.05989494 1.92122585 16.06258269 0.1328125 16.0625 C-1.12208229 16.0870929 -1.12208229 16.0870929 -2.40232849 16.11218262 C-6.71985031 16.06116772 -8.47299198 15.83956854 -12.02954102 13.15820312 C-13.96484375 10.46875 -13.96484375 10.46875 -14.02734375 6.84375 C-11.74178053 -0.41627435 -6.66155999 0.00159994 0 0 Z " fill="#010101" transform="translate(89.96484375,245.53125)"/>
<path d="M0 0 C6.6 0 13.2 0 20 0 C20 6.6 20 13.2 20 20 C13.4 20 6.8 20 0 20 C0 13.4 0 6.8 0 0 Z " fill="#00CCFF" transform="translate(21,336)"/>
<path d="M0 0 C6.6 0 13.2 0 20 0 C20 6.6 20 13.2 20 20 C13.4 20 6.8 20 0 20 C0 13.4 0 6.8 0 0 Z " fill="#FFF4F4" transform="translate(21,301)"/>
<path d="M0 0 C6.6 0 13.2 0 20 0 C20 6.6 20 13.2 20 20 C13.4 20 6.8 20 0 20 C0 13.4 0 6.8 0 0 Z " fill="#00CCFF" transform="translate(21,266)"/>
<path d="M0 0 C6.6 0 13.2 0 20 0 C20 6.6 20 13.2 20 20 C13.4 20 6.8 20 0 20 C0 13.4 0 6.8 0 0 Z " fill="#FFF4F4" transform="translate(21,231)"/>
<path d="M0 0 C6.6 0 13.2 0 20 0 C20 6.6 20 13.2 20 20 C13.4 20 6.8 20 0 20 C0 13.4 0 6.8 0 0 Z " fill="#00CCFF" transform="translate(21,196)"/>
<path d="M0 0 C6.6 0 13.2 0 20 0 C20 6.6 20 13.2 20 20 C13.4 20 6.8 20 0 20 C0 13.4 0 6.8 0 0 Z " fill="#FFF4F4" transform="translate(21,161)"/>
<path d="M0 0 C6.6 0 13.2 0 20 0 C20 6.6 20 13.2 20 20 C13.4 20 6.8 20 0 20 C0 13.4 0 6.8 0 0 Z " fill="#00CCFF" transform="translate(21,126)"/>
<path d="M0 0 C6.27 0 12.54 0 19 0 C19 6.27 19 12.54 19 19 C13.74257661 17.24752554 11.72443106 16.35631539 7.8125 12.875 C6.97332031 12.15054687 6.13414063 11.42609375 5.26953125 10.6796875 C3 8 3 8 0 0 Z " fill="#FBF0F0" transform="translate(22,371)"/>
<path d="M0 0 C0 6.27 0 12.54 0 19 C-6.27 19 -12.54 19 -19 19 C-16.44399025 11.33197075 -12.18975693 5.59933794 -5.125 1.4375 C-2 0 -2 0 0 0 Z " fill="#FAEFEF" transform="translate(41,92)"/>
<path d="M0 0 C6.6 0 13.2 0 20 0 C20 1.65 20 3.3 20 5 C13.4 5 6.8 5 0 5 C0 3.35 0 1.7 0 0 Z " fill="#27AAE1" transform="translate(21,351)"/>
</svg>
