<?xml version="1.0" encoding="UTF-8"?>
<svg version="1.1" xmlns="http://www.w3.org/2000/svg" width="512" height="512">
<path d="M0 0 C3.31548061 1.38707072 4.85421798 2.79591027 6.8125 5.7890625 C7.58025757 6.94172607 7.58025757 6.94172607 8.36352539 8.11767578 C9.17358032 9.35880127 9.17358032 9.35880127 10 10.625 C14.20104942 16.91915598 18.47465166 23.10630314 23.0625 29.125 C27.38117419 34.81293945 31.60972889 40.55560869 35.75 46.375 C36.27601807 47.10734863 36.80203613 47.83969727 37.34399414 48.59423828 C37.82344482 49.27212402 38.30289551 49.95000977 38.796875 50.6484375 C39.43641113 51.54828369 39.43641113 51.54828369 40.08886719 52.46630859 C41 54 41 54 41 56 C64.76 56 88.52 56 113 56 C111.55245717 59.61885707 110.46023626 62.05013591 108.34887695 65.14990234 C107.8163884 65.9369455 107.28389984 66.72398865 106.73527527 67.53488159 C106.15876724 68.37673004 105.58225922 69.21857849 104.98828125 70.0859375 C104.38707962 70.97185577 103.78587799 71.85777405 103.16645813 72.77053833 C101.88203383 74.66280737 100.59571605 76.5537923 99.30767822 78.44360352 C97.30822072 81.38128729 95.31838709 84.32525766 93.33154297 87.27148438 C82.55041582 103.25175875 82.55041582 103.25175875 77.88340759 109.89273071 C76.76375597 111.48941971 75.65726859 113.095316 74.55151367 114.70166016 C73.31597694 116.49632776 72.05870255 118.27633335 70.7746582 120.03662109 C65.82042054 127.32566623 67.13943569 133.06616188 68.60247803 141.4541626 C69.21529004 144.65744741 69.8524067 147.85423979 70.51327705 151.0479393 C70.95154983 153.16621378 71.38237307 155.28589299 71.81150818 157.40603638 C72.72193769 161.89704279 73.64185582 166.38607839 74.5625 170.875 C75.63369511 176.10299473 76.7009183 181.33176027 77.76057243 186.56210709 C78.18415814 188.64406249 78.61369921 190.7247291 79.04359436 192.8053894 C79.42915749 194.70358932 79.42915749 194.70358932 79.82250977 196.64013672 C80.05043716 197.75057343 80.27836456 198.86101013 80.51319885 200.00509644 C80.95756448 202.73892768 81.09667652 205.23801427 81 208 C77.14339314 207.34700455 73.73851669 206.22254587 70.1081543 204.77514648 C68.93119995 204.30830444 67.75424561 203.8414624 66.54162598 203.36047363 C65.302445 202.8641266 64.06330886 202.36766759 62.82421875 201.87109375 C61.68907837 201.41996216 60.55393799 200.96883057 59.38439941 200.50402832 C55.15024843 198.81983208 50.91904935 197.12822223 46.6875 195.4375 C37.220625 191.663125 27.75375 187.88875 18 184 C17.505 239.44 17.505 239.44 17 296 C18.98 296 20.96 296 23 296 C27.77054673 298.4806843 30.72954418 301.10978747 33 306 C33.75381535 311.5997712 33.77303575 316.33499991 31.375 321.5 C27.84698425 325.21370079 25.08761438 327.93364551 19.8046875 328.1015625 C18.41636719 328.05128906 18.41636719 328.05128906 17 328 C17.00368717 328.64383951 17.00737434 329.28767902 17.01117325 329.95102882 C17.0995549 345.62538797 17.16572438 361.29966031 17.20724869 376.97420692 C17.22786389 384.55434754 17.25596436 392.1343217 17.30175781 399.71435547 C17.34165774 406.32201035 17.36744039 412.92954467 17.37635398 419.53731668 C17.38156347 423.03534075 17.39378531 426.53301996 17.42292023 430.03093338 C17.45519976 433.93816791 17.45595737 437.84506668 17.45410156 441.75244141 C17.46848267 442.90906281 17.48286377 444.0656842 17.49768066 445.25735474 C17.46556119 451.49841532 17.22010357 455.27397546 13 460 C9.18069828 463.62833663 6.11720994 464.31000458 1 464.5 C-4.11720994 464.31000458 -7.18069828 463.62833663 -11 460 C-14.77696721 455.42788179 -15 454.24601419 -15 448 C-33.48 448 -51.96 448 -71 448 C-71 437.44 -71 426.88 -71 416 C-63.08 416 -55.16 416 -47 416 C-47 405.44 -47 394.88 -47 384 C-54.92 384 -62.84 384 -71 384 C-71 373.44 -71 362.88 -71 352 C-52.52 352 -34.04 352 -15 352 C-15 344.08 -15 336.16 -15 328 C-16.98 328 -18.96 328 -21 328 C-25.77054673 325.5193157 -28.72954418 322.89021253 -31 318 C-31.75381535 312.4002288 -31.77303575 307.66500009 -29.375 302.5 C-26.72702719 299.7126602 -24.41820176 297.77746491 -21 296 C-19.02 296 -17.04 296 -15 296 C-15.33 259.04 -15.66 222.08 -16 184 C-35.61323402 191.89279976 -35.61323402 191.89279976 -55.22192383 199.796875 C-57.67512828 200.78166035 -60.12848685 201.76606191 -62.58203125 202.75 C-63.21952805 203.00813477 -63.85702484 203.26626953 -64.51383972 203.53222656 C-66.39115523 204.29192531 -68.27133282 205.04453969 -70.15161133 205.796875 C-71.74045891 206.43641113 -71.74045891 206.43641113 -73.36140442 207.08886719 C-76 208 -76 208 -79 208 C-78.46021215 200.22802619 -77.06195851 192.71077851 -75.48672295 185.08835602 C-75.04911985 182.96975838 -74.61802416 180.84992307 -74.18849182 178.72967529 C-73.12209081 173.47187412 -72.04576417 168.21611813 -70.96801758 162.96063232 C-70.05321666 158.49871465 -69.14306548 154.03590106 -68.23942757 149.57170868 C-67.81636699 147.49134918 -67.38650031 145.41247188 -66.95640564 143.33355713 C-66.69936356 142.06493835 -66.44232147 140.79631958 -66.17749023 139.48925781 C-65.83559914 137.82240936 -65.83559914 137.82240936 -65.48680115 136.12188721 C-64.66417764 130.84634954 -64.36081662 127.20462248 -67.39233398 122.67651367 C-67.91860382 121.87595047 -68.44487366 121.07538727 -68.98709106 120.25056458 C-69.56756195 119.39830795 -70.14803284 118.54605133 -70.74609375 117.66796875 C-71.34461151 116.76628464 -71.94312927 115.86460052 -72.55978394 114.93559265 C-74.5060538 112.01066447 -76.47149526 109.09919113 -78.4375 106.1875 C-79.77029423 104.19169872 -81.10191723 102.1951148 -82.43237305 100.19775391 C-88.14586255 91.63584605 -93.91094739 83.10899063 -99.7109375 74.60546875 C-100.32174919 73.70966347 -100.32174919 73.70966347 -100.94490051 72.79576111 C-102.76185109 70.13438918 -104.58723779 67.47944741 -106.42553711 64.83276367 C-107.04436768 63.93662354 -107.66319824 63.0404834 -108.30078125 62.1171875 C-108.82841064 61.36034668 -109.35604004 60.60350586 -109.8996582 59.82373047 C-111 58 -111 58 -111 56 C-87.24 56 -63.48 56 -39 56 C-38.34 54.35 -37.68 52.7 -37 51 C-35.87768555 49.26513672 -35.87768555 49.26513672 -34.63671875 47.6796875 C-34.16878906 47.07189453 -33.70085937 46.46410156 -33.21875 45.83789062 C-32.7134375 45.19013672 -32.208125 44.54238281 -31.6875 43.875 C-27.09133096 37.87537788 -22.72534641 31.76593868 -18.5 25.5 C-12.61124588 16.78182785 -6.39410235 8.35265622 0 0 Z M0 50 C-1.51208516 52.2467294 -2.89210477 54.48378825 -4.24609375 56.82421875 C-4.65787369 57.52263382 -5.06965363 58.22104889 -5.49391174 58.94062805 C-6.81541141 61.18557439 -8.12656219 63.43637286 -9.4375 65.6875 C-10.31767835 67.18724885 -11.1985295 68.68660306 -12.08007812 70.18554688 C-13.70661542 72.95287807 -15.32893918 75.72259053 -16.94702148 78.49487305 C-17.48632042 79.39516487 -17.48632042 79.39516487 -18.03651428 80.31364441 C-19.13215044 82.16900302 -19.13215044 82.16900302 -20.31787109 84.92382812 C-22 87 -22 87 -25.27807617 87.65942383 C-26.61583869 87.70045484 -27.95459923 87.71472082 -29.29296875 87.70703125 C-29.99899734 87.72215256 -30.70502594 87.73727386 -31.43244934 87.75285339 C-33.68445609 87.79579489 -35.93512434 87.80457333 -38.1875 87.8125 C-39.71553054 87.83563972 -41.24352912 87.86100398 -42.77148438 87.88867188 C-46.51444153 87.95158634 -50.25656064 87.9838713 -54 88 C-50.85555242 92.92705528 -47.55431388 97.65116947 -43.9140625 102.2265625 C-43.21152344 103.1134375 -42.50898438 104.0003125 -41.78515625 104.9140625 C-40.33211815 106.73758591 -38.86834331 108.55260015 -37.39453125 110.359375 C-36.69972656 111.24367187 -36.00492188 112.12796875 -35.2890625 113.0390625 C-34.65693848 113.82490723 -34.02481445 114.61075195 -33.37353516 115.42041016 C-30.5339156 120.75340345 -32.12619074 126.47219602 -33.3125 132.140625 C-33.44567627 132.78948669 -33.57885254 133.43834839 -33.71606445 134.10687256 C-34.13757918 136.15598477 -34.56819542 138.20303375 -35 140.25 C-35.43040222 142.31150147 -35.8588021 144.37337955 -36.28393555 146.43597412 C-36.66818052 148.29705176 -37.05853866 150.15686415 -37.44921875 152.01660156 C-38.09077374 154.98605546 -38.09077374 154.98605546 -38 158 C-33.82657863 156.47526564 -30.08248521 154.4148768 -26.2734375 152.15625 C-25.64394196 151.78649048 -25.01444641 151.41673096 -24.36587524 151.0357666 C-23.04211928 150.25739341 -21.71932987 149.47737433 -20.39746094 148.69580078 C-18.37635083 147.50079869 -16.3525294 146.31050497 -14.328125 145.12109375 C-13.03890313 144.36224986 -11.74983527 143.60314424 -10.4609375 142.84375 C-9.85776703 142.48849243 -9.25459656 142.13323486 -8.63314819 141.76721191 C-6.04242255 140.23479633 -3.5054616 138.67030773 -1 137 C3.99724619 137.25725962 7.3326848 139.1061679 11.53515625 141.7109375 C12.13629745 142.0797403 12.73743866 142.44854309 13.35679626 142.82852173 C15.26444046 144.00166321 17.16347935 145.1879613 19.0625 146.375 C20.3412431 147.16495963 21.62053546 147.95403087 22.90039062 148.7421875 C25.25620436 150.19424181 27.60786913 151.65227868 29.95727539 153.11474609 C30.96137451 153.73687988 31.96547363 154.35901367 33 155 C33.91579834 155.5770166 34.83159668 156.1540332 35.77514648 156.74853516 C37.8650806 158.1634189 37.8650806 158.1634189 40 158 C38.78957791 149.2722197 37.18669813 140.67916933 35.32128906 132.06933594 C32.80625268 120.05516401 32.80625268 120.05516401 35.19091797 115.94970703 C36.87663111 113.63463339 38.65697721 111.44177223 40.5 109.25 C41.78506609 107.66374146 43.06892426 106.07650357 44.3515625 104.48828125 C44.97708008 103.72338379 45.60259766 102.95848633 46.24707031 102.17041016 C48.54905293 99.32018377 50.72239903 96.40218328 52.875 93.4375 C53.49117188 92.59058594 54.10734375 91.74367187 54.7421875 90.87109375 C56.09298245 89.23744298 56.09298245 89.23744298 56 88 C55.11965088 88.12157471 54.23930176 88.24314941 53.33227539 88.3684082 C29.38735236 91.14061574 29.38735236 91.14061574 22.36743164 85.74523926 C15.83181767 79.03660778 12.10836875 69.8636558 8.48291016 61.36279297 C6.66297646 57.23573227 4.62656999 53.66226899 2 50 C1.34 50 0.68 50 0 50 Z " fill="#F2C837" transform="translate(255,24)"/>
<path d="M0 0 C0.7734375 0.38285156 1.546875 0.76570312 2.34375 1.16015625 C4.65375 2.15015625 6.96375 3.14015625 9.34375 4.16015625 C9.34375 41.78015625 9.34375 79.40015625 9.34375 118.16015625 C11.32375 118.16015625 13.30375 118.16015625 15.34375 118.16015625 C20.11429673 120.64084055 23.07329418 123.26994372 25.34375 128.16015625 C26.09756535 133.75992745 26.11678575 138.49515616 23.71875 143.66015625 C20.19073425 147.37385704 17.43136438 150.09380176 12.1484375 150.26171875 C11.22289062 150.22820312 10.29734375 150.1946875 9.34375 150.16015625 C9.34743717 150.80399576 9.35112434 151.44783527 9.35492325 152.11118507 C9.4433049 167.78554422 9.50947438 183.45981656 9.55099869 199.13436317 C9.57161389 206.71450379 9.59971436 214.29447795 9.64550781 221.87451172 C9.68540774 228.4821666 9.71119039 235.08970092 9.72010398 241.69747293 C9.72531347 245.195497 9.73753531 248.69317621 9.76667023 252.19108963 C9.79894976 256.09832416 9.79970737 260.00522293 9.79785156 263.91259766 C9.81223267 265.06921906 9.82661377 266.22584045 9.84143066 267.41751099 C9.80931119 273.65857157 9.56385357 277.43413171 5.34375 282.16015625 C1.52444828 285.78849288 -1.53904006 286.47016083 -6.65625 286.66015625 C-11.77345994 286.47016083 -14.83694828 285.78849288 -18.65625 282.16015625 C-22.43321721 277.58803804 -22.65625 276.40617044 -22.65625 270.16015625 C-41.13625 270.16015625 -59.61625 270.16015625 -78.65625 270.16015625 C-78.65625 259.60015625 -78.65625 249.04015625 -78.65625 238.16015625 C-70.73625 238.16015625 -62.81625 238.16015625 -54.65625 238.16015625 C-54.65625 227.60015625 -54.65625 217.04015625 -54.65625 206.16015625 C-62.57625 206.16015625 -70.49625 206.16015625 -78.65625 206.16015625 C-78.65625 195.60015625 -78.65625 185.04015625 -78.65625 174.16015625 C-60.17625 174.16015625 -41.69625 174.16015625 -22.65625 174.16015625 C-22.65625 166.24015625 -22.65625 158.32015625 -22.65625 150.16015625 C-24.63625 150.16015625 -26.61625 150.16015625 -28.65625 150.16015625 C-33.42679673 147.67947195 -36.38579418 145.05036878 -38.65625 140.16015625 C-39.41006535 134.56038505 -39.42928575 129.82515634 -37.03125 124.66015625 C-34.38327719 121.87281645 -32.07445176 119.93762116 -28.65625 118.16015625 C-26.67625 118.16015625 -24.69625 118.16015625 -22.65625 118.16015625 C-22.65625 80.54015625 -22.65625 42.92015625 -22.65625 4.16015625 C-5.98958333 -2.50651042 -5.98958333 -2.50651042 0 0 Z " fill="#F4DC66" transform="translate(262.65625,201.83984375)"/>
<path d="M0 0 C18.48 0 36.96 0 56 0 C56 31.68 56 63.36 56 96 C37.52 96 19.04 96 0 96 C0 85.44 0 74.88 0 64 C7.92 64 15.84 64 24 64 C24 53.44 24 42.88 24 32 C16.08 32 8.16 32 0 32 C0 21.44 0 10.88 0 0 Z " fill="#F2C837" transform="translate(184,376)"/>
<path d="M0 0 C10.56 0 21.12 0 32 0 C32.09033402 16.32474665 32.16400142 32.64927964 32.20724869 48.97420692 C32.22786389 56.55434754 32.25596436 64.1343217 32.30175781 71.71435547 C32.34165774 78.32201035 32.36744039 84.92954467 32.37635398 91.53731668 C32.38156347 95.03534075 32.39378531 98.53301996 32.42292023 102.03093338 C32.45519976 105.93816791 32.45595737 109.84506668 32.45410156 113.75244141 C32.47567322 115.4873735 32.47567322 115.4873735 32.49768066 117.25735474 C32.46556119 123.49841532 32.22010357 127.27397546 28 132 C24.18069828 135.62833663 21.11720994 136.31000458 16 136.5 C10.88279006 136.31000458 7.81930172 135.62833663 4 132 C-1.00003439 126.40054377 -0.54439178 121.01416513 -0.45410156 113.75244141 C-0.45468567 112.52261536 -0.45526978 111.29278931 -0.45587158 110.0256958 C-0.45356782 106.66626491 -0.43355576 103.30782611 -0.40557575 99.94857073 C-0.38051285 96.43322219 -0.37821627 92.9178594 -0.37347412 89.4024353 C-0.36105861 82.75138974 -0.3282566 76.10060824 -0.28807616 69.44967878 C-0.24331383 61.87535594 -0.22136024 54.30102027 -0.20129442 46.72659802 C-0.15952239 31.15088655 -0.08618823 15.57553865 0 0 Z " fill="#F5DC67" transform="translate(240,352)"/>
<path d="M0 0 C0.95390625 -0.0038269 1.9078125 -0.00765381 2.890625 -0.01159668 C4.90105245 -0.01431036 6.91151553 -0.00698737 8.921875 0.00976562 C11.99038787 0.03118291 15.05655952 0.00994534 18.125 -0.015625 C20.08333848 -0.01298163 22.0416755 -0.00785645 24 0 C25.36898437 -0.01214539 25.36898437 -0.01214539 26.765625 -0.02453613 C32.34723968 0.05719316 35.57473138 0.80813314 40 4.53125 C43.62833663 8.35055172 44.31000458 11.41404006 44.5 16.53125 C44.31000458 21.64845994 43.62833663 24.71194828 40 28.53125 C34.73573631 32.96023965 30.57725694 33.12085225 24 33.0625 C22.56914062 33.06824036 22.56914062 33.06824036 21.109375 33.07409668 C19.09894755 33.07681036 17.08848447 33.06948737 15.078125 33.05273438 C12.00961213 33.03131709 8.94344048 33.05255466 5.875 33.078125 C3.91666152 33.07548163 1.9583245 33.07035645 0 33.0625 C-1.36898437 33.07464539 -1.36898437 33.07464539 -2.765625 33.08703613 C-8.34723968 33.00530684 -11.57473138 32.25436686 -16 28.53125 C-19.62833663 24.71194828 -20.31000458 21.64845994 -20.5 16.53125 C-20.31000458 11.41404006 -19.62833663 8.35055172 -16 4.53125 C-10.73573631 0.10226035 -6.57725694 -0.05835225 0 0 Z " fill="#F1C737" transform="translate(244,319.46875)"/>
<path d="M0 0 C2.57552221 0.69278193 3.80084494 1.70112153 5.76293945 3.49951172 C6.80200439 4.4499939 6.80200439 4.4499939 7.86206055 5.41967773 C11.98586657 9.34938555 16.03738054 13.34517789 20.0559082 17.38232422 C20.91764648 18.24019531 21.77938477 19.09806641 22.66723633 19.98193359 C23.48514648 20.80113281 24.30305664 21.62033203 25.14575195 22.46435547 C25.88559326 23.20532471 26.62543457 23.94629395 27.38769531 24.7097168 C30.29665457 27.83616067 30.47307438 30.33651555 30.38793945 34.59326172 C30.1184082 36.56982422 30.1184082 36.56982422 28.6184082 39.06982422 C25.79477203 40.76400593 23.53970528 41.32198636 20.23681641 41.13964844 C17.6612942 40.4468665 16.43597147 39.43852691 14.47387695 37.64013672 C13.78116699 37.00648193 13.08845703 36.37282715 12.37475586 35.7199707 C8.25094984 31.79026289 4.19943587 27.79447054 0.1809082 23.75732422 C-0.68083008 22.89945313 -1.54256836 22.04158203 -2.43041992 21.15771484 C-3.65728516 19.92891602 -3.65728516 19.92891602 -4.90893555 18.67529297 C-5.64877686 17.93432373 -6.38861816 17.19335449 -7.15087891 16.42993164 C-10.05983817 13.30348777 -10.23625797 10.80313289 -10.15112305 6.54638672 C-9.8815918 4.56982422 -9.8815918 4.56982422 -8.3815918 2.06982422 C-5.55795562 0.37564251 -3.30288887 -0.18233793 0 0 Z " fill="#F1C737" transform="translate(409.881591796875,223.43017578125)"/>
<path d="M0 0 C2.5 1.5 2.5 1.5 4 4 C4.60744643 7.31334415 4.84274854 8.86695412 4 12 C2.74658203 13.81567383 2.74658203 13.81567383 1.0703125 15.64453125 C0.43665771 16.33724121 -0.19699707 17.02995117 -0.84985352 17.74365234 C-4.77956133 21.86745836 -8.77535368 25.91897234 -12.8125 29.9375 C-13.67037109 30.79923828 -14.52824219 31.66097656 -15.41210938 32.54882812 C-16.23130859 33.36673828 -17.05050781 34.18464844 -17.89453125 35.02734375 C-18.63550049 35.76718506 -19.37646973 36.50702637 -20.13989258 37.26928711 C-23.26633645 40.17824637 -25.76669133 40.35466617 -30.0234375 40.26953125 C-32 40 -32 40 -34.5 38.5 C-36.19418171 35.67636382 -36.75216215 33.42129708 -36.56982422 30.1184082 C-35.87704229 27.54288599 -34.86870269 26.31756326 -33.0703125 24.35546875 C-32.11983032 23.31640381 -32.11983032 23.31640381 -31.15014648 22.25634766 C-27.22043867 18.13254164 -23.22464632 14.08102766 -19.1875 10.0625 C-18.32962891 9.20076172 -17.47175781 8.33902344 -16.58789062 7.45117188 C-15.76869141 6.63326172 -14.94949219 5.81535156 -14.10546875 4.97265625 C-13.36449951 4.23281494 -12.62353027 3.49297363 -11.86010742 2.73071289 C-8.32697114 -0.55664806 -4.64355339 -0.63321183 0 0 Z " fill="#F1C837" transform="translate(108,224)"/>
<path d="M0 0 C2.5 1.5 2.5 1.5 4 4 C4.60744643 7.31334415 4.84274854 8.86695412 4 12 C2.74658203 13.81567383 2.74658203 13.81567383 1.0703125 15.64453125 C0.43665771 16.33724121 -0.19699707 17.02995117 -0.84985352 17.74365234 C-4.77956133 21.86745836 -8.77535368 25.91897234 -12.8125 29.9375 C-13.67037109 30.79923828 -14.52824219 31.66097656 -15.41210938 32.54882812 C-16.23130859 33.36673828 -17.05050781 34.18464844 -17.89453125 35.02734375 C-18.63550049 35.76718506 -19.37646973 36.50702637 -20.13989258 37.26928711 C-23.26633645 40.17824637 -25.76669133 40.35466617 -30.0234375 40.26953125 C-32 40 -32 40 -34.5 38.5 C-36.19418171 35.67636382 -36.75216215 33.42129708 -36.56982422 30.1184082 C-35.87704229 27.54288599 -34.86870269 26.31756326 -33.0703125 24.35546875 C-32.11983032 23.31640381 -32.11983032 23.31640381 -31.15014648 22.25634766 C-27.22043867 18.13254164 -23.22464632 14.08102766 -19.1875 10.0625 C-18.32962891 9.20076172 -17.47175781 8.33902344 -16.58789062 7.45117188 C-15.76869141 6.63326172 -14.94949219 5.81535156 -14.10546875 4.97265625 C-13.36449951 4.23281494 -12.62353027 3.49297363 -11.86010742 2.73071289 C-8.32697114 -0.55664806 -4.64355339 -0.63321183 0 0 Z " fill="#F1C837" transform="translate(436,40)"/>
<path d="M0 0 C2.57552221 0.69278193 3.80084494 1.70112153 5.76293945 3.49951172 C6.80200439 4.4499939 6.80200439 4.4499939 7.86206055 5.41967773 C11.98586657 9.34938555 16.03738054 13.34517789 20.0559082 17.38232422 C20.91764648 18.24019531 21.77938477 19.09806641 22.66723633 19.98193359 C23.48514648 20.80113281 24.30305664 21.62033203 25.14575195 22.46435547 C25.88559326 23.20532471 26.62543457 23.94629395 27.38769531 24.7097168 C30.29665457 27.83616067 30.47307438 30.33651555 30.38793945 34.59326172 C30.1184082 36.56982422 30.1184082 36.56982422 28.6184082 39.06982422 C25.79477203 40.76400593 23.53970528 41.32198636 20.23681641 41.13964844 C17.6612942 40.4468665 16.43597147 39.43852691 14.47387695 37.64013672 C13.78116699 37.00648193 13.08845703 36.37282715 12.37475586 35.7199707 C8.25094984 31.79026289 4.19943587 27.79447054 0.1809082 23.75732422 C-0.68083008 22.89945313 -1.54256836 22.04158203 -2.43041992 21.15771484 C-3.65728516 19.92891602 -3.65728516 19.92891602 -4.90893555 18.67529297 C-5.64877686 17.93432373 -6.38861816 17.19335449 -7.15087891 16.42993164 C-10.05983817 13.30348777 -10.23625797 10.80313289 -10.15112305 6.54638672 C-9.8815918 4.56982422 -9.8815918 4.56982422 -8.3815918 2.06982422 C-5.55795562 0.37564251 -3.30288887 -0.18233793 0 0 Z " fill="#F1C737" transform="translate(81.881591796875,39.43017578125)"/>
<path d="M0 0 C0.87269531 -0.0038269 1.74539063 -0.00765381 2.64453125 -0.01159668 C4.48699092 -0.0143149 6.32948924 -0.00695994 8.171875 0.00976562 C10.99045934 0.03117752 13.80649485 0.00996199 16.625 -0.015625 C18.41667229 -0.01298171 20.20834299 -0.00785669 22 0 C22.84175781 -0.00809692 23.68351562 -0.01619385 24.55078125 -0.02453613 C30.38715618 0.06889601 30.38715618 0.06889601 33.52929688 2.43945312 C35.12144695 4.7039853 35.542797 5.7922417 35.5 8.53125 C35.5103125 9.19125 35.520625 9.85125 35.53125 10.53125 C34.72011424 13.58493756 33.53019712 14.62236769 31 16.53125 C28.00263779 17.13239553 25.04890723 17.09182764 22 17.0625 C21.12730469 17.0663269 20.25460937 17.07015381 19.35546875 17.07409668 C17.51300908 17.0768149 15.67051076 17.06945994 13.828125 17.05273438 C11.00954066 17.03132248 8.19350515 17.05253801 5.375 17.078125 C3.58332771 17.07548171 1.79165701 17.07035669 0 17.0625 C-0.84175781 17.07059692 -1.68351562 17.07869385 -2.55078125 17.08703613 C-8.38715618 16.99360399 -8.38715618 16.99360399 -11.52929688 14.62304688 C-13.12144695 12.3585147 -13.542797 11.2702583 -13.5 8.53125 C-13.51546875 7.54125 -13.51546875 7.54125 -13.53125 6.53125 C-11.69061453 -0.39820116 -5.94975317 -0.05723107 0 0 Z " fill="#F2C836" transform="translate(445,143.46875)"/>
<path d="M0 0 C0.87269531 -0.0038269 1.74539062 -0.00765381 2.64453125 -0.01159668 C4.48699092 -0.0143149 6.32948924 -0.00695994 8.171875 0.00976562 C10.99045934 0.03117752 13.80649485 0.00996199 16.625 -0.015625 C18.41667229 -0.01298171 20.20834299 -0.00785669 22 0 C22.84175781 -0.00809692 23.68351562 -0.01619385 24.55078125 -0.02453613 C30.38715618 0.06889601 30.38715618 0.06889601 33.52929688 2.43945312 C35.12144695 4.7039853 35.542797 5.7922417 35.5 8.53125 C35.5103125 9.19125 35.520625 9.85125 35.53125 10.53125 C34.72011424 13.58493756 33.53019712 14.62236769 31 16.53125 C28.00263779 17.13239553 25.04890723 17.09182764 22 17.0625 C21.12730469 17.0663269 20.25460938 17.07015381 19.35546875 17.07409668 C17.51300908 17.0768149 15.67051076 17.06945994 13.828125 17.05273438 C11.00954066 17.03132248 8.19350515 17.05253801 5.375 17.078125 C3.58332771 17.07548171 1.79165701 17.07035669 0 17.0625 C-0.84175781 17.07059692 -1.68351562 17.07869385 -2.55078125 17.08703613 C-8.38715618 16.99360399 -8.38715618 16.99360399 -11.52929688 14.62304688 C-13.12144695 12.3585147 -13.542797 11.2702583 -13.5 8.53125 C-13.51546875 7.54125 -13.51546875 7.54125 -13.53125 6.53125 C-11.69061453 -0.39820116 -5.94975317 -0.05723107 0 0 Z " fill="#F2C836" transform="translate(45,143.46875)"/>
</svg>
