<?xml version="1.0" encoding="UTF-8"?>
<svg version="1.1" xmlns="http://www.w3.org/2000/svg" width="512" height="512">
<path d="M0 0 C7.43686239 1.02074582 14.69901016 12.54155692 19.1875 18.4375 C27.77790854 31.2370174 27.06155268 49.22746588 28.52587891 64.1184082 C28.75247159 66.39618876 28.9793731 68.67393861 29.20655823 70.95166016 C29.81905291 77.10121312 30.42725381 83.25118388 31.034657 89.40124154 C31.67141882 95.8410016 32.31216715 102.28036498 32.95248413 108.71977234 C34.02559034 119.51697916 35.09626032 130.3144246 36.16503906 141.11206055 C37.26527759 152.22745898 38.36700213 163.34270849 39.47070312 174.45776367 C39.53887858 175.14434424 39.60705403 175.83092482 39.6772954 176.53831086 C40.01936365 179.98311547 40.36146088 183.4279172 40.70357251 186.8727175 C43.53604056 215.39386678 46.36339095 243.91552188 49.1875 272.4375 C53.8075 272.4375 58.4275 272.4375 63.1875 272.4375 C63.579375 270.931875 63.97125 269.42625 64.375 267.875 C66.3271654 261.45555378 68.84566335 256.61840057 74.6875 253.0625 C77.6574699 251.6835854 80.00939563 250.99834195 83.1875 250.4375 C83.5175 249.7775 83.8475 249.1175 84.1875 248.4375 C83.506875 248.23125 82.82625 248.025 82.125 247.8125 C73.2377726 243.65252122 68.7871289 236.10941759 64.8125 227.4375 C62.76725663 217.62033182 64.74385335 209.29086549 69.80078125 200.6953125 C74.89396952 193.08376285 80.5023842 187.3726651 89.5625 184.75 C93.12804061 184.32553088 96.59703922 184.37664473 100.1875 184.4375 C99.5275 183.1175 98.8675 181.7975 98.1875 180.4375 C96.89457031 180.45296875 95.60164063 180.4684375 94.26953125 180.484375 C89.43516905 180.48058854 84.68284419 180.17354996 79.875 179.6875 C79.09060547 179.625625 78.30621094 179.56375 77.49804688 179.5 C76.73943359 179.42265625 75.98082031 179.3453125 75.19921875 179.265625 C74.18541138 179.1713623 74.18541138 179.1713623 73.15112305 179.07519531 C70.29894623 178.14893821 69.08669678 176.74890195 67.1875 174.4375 C66.46524048 171.47828674 66.46524048 171.47828674 66.15087891 167.98266602 C66.02460114 166.66931778 65.89832336 165.35596954 65.76821899 164.00282288 C65.64922741 162.56576148 65.53120158 161.12861984 65.4140625 159.69140625 C65.28149709 158.2003424 65.14788267 156.70937148 65.01327515 155.2184906 C64.73444986 152.08299607 64.46886107 148.94672687 64.21240234 145.80932617 C63.88776946 141.85113244 63.53025072 137.89675983 63.16320801 133.94230461 C58.01679577 77.97658532 58.01679577 77.97658532 71.32861328 61.35717773 C79.01771564 53.41661931 90.23086889 53.13548977 100.5625 52.125 C102.12127992 51.95679451 103.67987686 51.78688424 105.23828125 51.61523438 C116.15533628 50.4375 116.15533628 50.4375 121.1875 50.4375 C121.30867188 49.45394531 121.42984375 48.47039063 121.5546875 47.45703125 C123.71584742 32.4757502 128.94731108 20.07623937 140.75 10.1875 C154.80581356 0.09614667 172.98859976 -1.33218495 189.68359375 0.90625 C201.4731326 3.48185797 211.89661605 9.54952419 218.68359375 19.66796875 C227.00810151 34.01971655 228.54230612 50.4149721 224.5 66.4375 C221.9285935 74.93313633 218.16401426 82.15046127 213.1875 89.4375 C212.0029869 92.99103929 211.92108106 95.70763478 212.1875 99.4375 C213.10416667 101.52083333 213.10416667 101.52083333 215.1875 102.4375 C221.09278109 103.31700995 225.74193161 101.35383878 231.22265625 99.21484375 C234.62751975 98.3221325 236.81211182 98.50179733 240.1875 99.4375 C242.30407736 103.67065472 241.62402643 107.93413561 240.3515625 112.31640625 C236.0870914 123.52137561 229.18691673 131.47104845 218.1875 136.4375 C207.54750603 140.19781915 197.33041593 141.06972033 186.76171875 136.7578125 C179.20407245 132.88150833 174.52286186 127.18183806 171.1875 119.4375 C167.02549309 104.81306233 171.4602123 90.50323252 177 77 C178.86770876 71.39687373 179.04695761 66.17331764 177.0625 60.5625 C174.79711766 56.78686277 173.37958514 55.72737235 169.1875 54.4375 C165.41373449 54.65365256 165.41373449 54.65365256 162.1875 55.4375 C157.76526402 65.72435831 157.78453994 76.90504882 157.8125 87.9375 C157.81204681 88.63594025 157.81159363 89.33438049 157.81112671 90.0539856 C157.83855931 104.50189344 159.78431207 117.81454532 164.55322266 131.46459961 C165.50088448 134.41227288 165.78637743 136.37657093 165.1875 139.4375 C162.67653656 143.18025682 159.93441396 145.93955736 156.1875 148.4375 C156.39246094 149.16195312 156.59742188 149.88640625 156.80859375 150.6328125 C157.07800781 151.59960938 157.34742188 152.56640625 157.625 153.5625 C158.02525391 154.98949219 158.02525391 154.98949219 158.43359375 156.4453125 C159.1856761 159.43026111 159.72267499 162.39582956 160.1875 165.4375 C161.02152344 164.89480469 161.85554688 164.35210937 162.71484375 163.79296875 C173.6557082 156.78565995 184.44800201 151.71825644 197.8125 154 C208.98857094 157.04259582 217.32514162 166.45346763 223.25 176 C225.52304665 180.44384553 226.11700719 184.5216527 225.1875 189.4375 C223.625 192.25 223.625 192.25 222.1875 194.4375 C222.67627085 198.22761779 224.56918737 201.58053653 226.1875 205 C228.74050714 210.40672906 230.33788226 214.36934961 230.375 220.375 C230.38917969 221.41527344 230.40335937 222.45554688 230.41796875 223.52734375 C230.1875 226.4375 230.1875 226.4375 229.11914062 228.32543945 C227.92188826 231.03965072 228.29956441 232.29897939 229.05078125 235.140625 C229.27830078 236.03910156 229.50582031 236.93757812 229.74023438 237.86328125 C230.11631836 239.26126953 230.11631836 239.26126953 230.5 240.6875 C233.043557 250.43665916 234.35082 259.33998879 234.25 269.4375 C234.24548828 270.30761719 234.24097656 271.17773438 234.23632812 272.07421875 C234.2246736 274.19534293 234.20674357 276.3164311 234.1875 278.4375 C234.94675781 278.69789063 235.70601563 278.95828125 236.48828125 279.2265625 C239.26559369 280.47253479 240.47947311 281.48501658 242.375 283.8125 C242.86355469 284.39773438 243.35210937 284.98296875 243.85546875 285.5859375 C255.22692548 301.39259583 247.73948302 335.29313525 244.92163086 353.20629883 C238.52786082 390.92728504 225.56517308 428.93768134 199.1875 457.4375 C198.66172363 458.01242187 198.13594727 458.58734375 197.59423828 459.1796875 C185.05883587 472.74828851 170.36550245 483.43722178 153.1875 490.4375 C152.17662827 490.84990433 151.16575653 491.26230865 150.12425232 491.68721008 C139.84088588 495.50536347 130.65628988 496.17321877 119.7578125 496.14453125 C117.93485427 496.15795235 116.11191056 496.17347773 114.28898621 496.19090271 C109.33386784 496.23177594 104.37913051 496.2417309 99.42386246 496.24519348 C94.15773873 496.25332873 88.89176842 496.28738827 83.62573242 496.31738281 C74.46224121 496.36524215 65.29885464 496.39199871 56.13525391 496.40673828 C45.75980984 496.42343925 35.38459521 496.45978642 25.00927734 496.51123047 C10.53348605 496.58269235 -3.94227402 496.63294055 -18.4181931 496.66982812 C-23.1361426 496.68237402 -27.85404223 496.70124257 -32.57196045 496.72232056 C-38.97780478 496.74981271 -45.38350249 496.76162045 -51.78940392 496.7618885 C-54.15191447 496.76434242 -56.51442632 496.77189565 -58.87690163 496.78503227 C-81.17284769 496.90254542 -102.68416414 494.40763353 -120.30078125 479.0625 C-127.58294203 471.23464759 -131.13278343 465.30178559 -131.12109375 454.7109375 C-130.82402924 451.55979755 -130.37844678 449.98258796 -128.6875 447.375 C-128.06875 446.405625 -127.45 445.43625 -126.8125 444.4375 C-127.94403071 441.269214 -129.98716357 438.79189312 -132 436.125 C-153.07017457 406.27558603 -152.25958215 367.38212863 -151.8125 332.4375 C-152.35084473 332.91453369 -152.88918945 333.39156738 -153.44384766 333.88305664 C-154.15589355 334.51074951 -154.86793945 335.13844238 -155.6015625 335.78515625 C-156.65657959 336.71726929 -156.65657959 336.71726929 -157.73291016 337.66821289 C-164.51403167 343.4375 -164.51403167 343.4375 -167.8125 343.4375 C-167.94205078 345.05205078 -167.94205078 345.05205078 -168.07421875 346.69921875 C-169.69546891 364.41076568 -175.32001011 378.44097914 -188.8125 390.4375 C-189.8025 391.0975 -190.7925 391.7575 -191.8125 392.4375 C-192.28691911 398.23806426 -191.43231601 403.48532095 -190.125 409.125 C-189.94493408 409.90883057 -189.76486816 410.69266113 -189.5793457 411.50024414 C-185.69080856 427.76366457 -178.72157261 443.22630486 -164.515625 452.80078125 C-157.53538552 457.02725573 -150.08976019 459.02141137 -142.18359375 460.82421875 C-139.8125 461.4375 -139.8125 461.4375 -138.8125 462.4375 C-138.625 465.875 -138.625 465.875 -138.8125 469.4375 C-141.21068933 471.83568933 -141.83449171 471.75864553 -145.125 471.8125 C-161.56181903 471.45621057 -173.98134823 462.59273074 -184.94140625 451.23046875 C-197.6668209 436.61242883 -202.40803107 417.19868523 -204.8125 398.4375 C-205.9675 398.7675 -207.1225 399.0975 -208.3125 399.4375 C-212.86365757 400.4432407 -217.3533052 400.69447883 -222 400.75 C-222.67675781 400.76740234 -223.35351562 400.78480469 -224.05078125 400.80273438 C-230.0825569 400.79682087 -233.95922901 399.07014349 -238.4375 395.125 C-243.19080213 389.74626338 -245.96893969 385.48335616 -245.875 378.25 C-245.86597656 377.34894531 -245.85695312 376.44789063 -245.84765625 375.51953125 C-245.83605469 374.83246094 -245.82445312 374.14539063 -245.8125 373.4375 C-247.765625 373.30729167 -249.71875 373.17708333 -251.671875 373.046875 C-254.73757333 372.17415796 -255.95387859 371.02009467 -257.8125 368.4375 C-258.88817407 351.94383087 -252.35745791 332.12887137 -247.24462891 316.59765625 C-242.97905117 303.39540216 -242.16127423 291.74318798 -242.6875 277.9375 C-243.21934685 262.20659262 -242.95388756 249.48783686 -234.8125 235.5 C-234.43802734 234.84032227 -234.06355469 234.18064453 -233.67773438 233.50097656 C-230.29847801 227.78790421 -226.20700539 222.82159631 -221.7109375 217.95336914 C-217.60026518 213.4761529 -216.65104837 210.76016524 -216.78515625 204.796875 C-216.80606323 203.4504895 -216.80606323 203.4504895 -216.82739258 202.0769043 C-216.84310303 201.12340088 -216.85881348 200.16989746 -216.875 199.1875 C-216.95317429 186.426329 -215.87586621 174.46620862 -212.4375 162.125 C-212.1422644 161.03868286 -212.1422644 161.03868286 -211.84106445 159.93041992 C-210.94391497 156.94669394 -210.06604631 154.71725679 -207.9609375 152.39453125 C-205.06677133 151.10531177 -203.78227273 151.37492077 -200.8125 152.4375 C-197.23061855 154.79854726 -194.04551959 157.62263121 -190.8125 160.4375 C-190.20148438 160.9634375 -189.59046875 161.489375 -188.9609375 162.03125 C-182.92236631 167.64053887 -178.46616297 174.68641146 -173.8125 181.4375 C-171.14005985 175.48380936 -169.13300761 169.43716055 -167.23828125 163.19726562 C-165.23146449 156.91389014 -162.52525654 151.15025654 -157.8125 146.4375 C-155 146 -155 146 -151.8125 146.4375 C-139.1370043 157.49828287 -134.61538349 175.69285152 -130.8125 191.4375 C-129.72453125 191.66824219 -128.6365625 191.89898437 -127.515625 192.13671875 C-118.52485442 194.10569545 -110.14024445 196.40947041 -101.8125 200.4375 C-100.91402344 200.86675781 -100.01554688 201.29601562 -99.08984375 201.73828125 C-66.83226124 218.21517591 -50.39471076 249.00468021 -35.87109375 280.47753906 C-31.790952 289.30306307 -26.95167487 297.7762517 -18.8125 303.4375 C-15.87918548 299.00807728 -16.42511739 293.74884711 -16.33398438 288.63671875 C-16.21695219 285.37694416 -16.03730901 282.86303134 -14.5 279.953125 C-10.70200294 276.54196097 -4.37938765 277.40584777 0.46484375 277.421875 C1.35292725 277.42413086 2.24101074 277.42638672 3.15600586 277.42871094 C3.82639893 277.43161133 4.49679199 277.43451172 5.1875 277.4375 C5.06896416 276.26265832 4.95042831 275.08781664 4.82830048 273.8773737 C2.0085611 245.9263605 -0.80239805 217.97447427 -3.60269222 190.02150616 C-3.94811749 186.57349444 -4.29361613 183.12549006 -4.63916016 179.67749023 C-4.74233637 178.64793113 -4.74233637 178.64793113 -4.84759694 177.59757286 C-5.95837629 166.51525583 -7.07508483 155.43354403 -8.19402438 144.35204829 C-9.34386416 132.96319498 -10.48711443 121.57369758 -11.62474203 110.18361706 C-12.26316782 103.79368901 -12.90450103 97.40408404 -13.55299377 91.01516914 C-14.16441718 84.99051843 -14.76780014 78.96511432 -15.3652668 72.93906403 C-15.58485094 70.73831755 -15.80726501 68.53785111 -16.03286552 66.33771324 C-18.55867643 41.6694593 -18.40012556 23.94374179 -4.8125 2.4375 C-2.8125 0.4375 -2.8125 0.4375 0 0 Z " fill="#3D3D50" transform="translate(260.8125,7.5625)"/>
<path d="M0 0 C3.85406028 1.2673518 7.46304825 2.94974913 11.125 4.6875 C13.1790416 5.61759526 15.23503382 6.54339495 17.29296875 7.46484375 C18.77289307 8.1297583 18.77289307 8.1297583 20.28271484 8.80810547 C36.80703639 16.05624004 55.27539003 19.98872685 73 23 C73.29158401 34.01763022 72.38741165 44.69031692 71.1875 55.625 C71.00488354 57.33855387 70.82292485 59.05217795 70.64160156 60.76586914 C70.18826299 65.03549831 69.72676144 69.30419819 69.26287842 73.57269287 C68.85873206 77.30440789 68.46246426 81.03695061 68.06640625 84.76953125 C67.38480335 91.1804753 66.69602821 97.59060659 66 104 C56.89976719 103.58996652 48.52223735 101.89939595 39.75 99.5 C39.10602264 99.32659088 38.46204529 99.15318176 37.79855347 98.97451782 C23.50876812 95.11230071 9.56677087 90.23685861 -3.98046875 84.25390625 C-6.95691552 83.01789149 -8.82148971 82.62605761 -12 83 C-13.31120653 84.10796961 -13.31120653 84.10796961 -13.375 86.875 C-13.25125 87.90625 -13.1275 88.9375 -13 90 C-8.73521661 93.19858754 -3.54921113 94.92786919 1.375 96.875 C2.18066406 97.20113281 2.98632812 97.52726562 3.81640625 97.86328125 C16.8371512 103.05139203 30.02941995 106.94373735 43.625 110.25 C45.05612081 110.60363603 46.48711099 110.95780115 47.91796875 111.3125 C55.9271334 113.29778074 55.9271334 113.29778074 64 115 C63.50220998 123.90872485 62.13747458 132.57594659 60.49755859 141.33398438 C59.9344116 144.35143541 59.38297121 147.37092175 58.83203125 150.390625 C57.57462283 157.26419613 56.29098425 164.13266667 55 171 C54.8232373 171.94939453 54.64647461 172.89878906 54.46435547 173.87695312 C52.36342531 185.10655832 49.76635973 196.06676869 46.56835938 207.03466797 C45.74276871 209.88948106 44.96414455 212.75654394 44.1875 215.625 C43.95417969 216.48351562 43.72085938 217.34203125 43.48046875 218.2265625 C43.24263672 219.10441406 43.24263672 219.10441406 43 220 C18.62964002 210.95938259 -1.213946 187.06268307 -12.08251953 164.04248047 C-16.63353931 153.91107242 -20.07196222 143.44186233 -22.8125 132.6875 C-23.00739014 131.92477783 -23.20228027 131.16205566 -23.40307617 130.3762207 C-26.65995457 116.84201779 -27.34681162 103.67387522 -27.31567383 89.81640625 C-27.31252768 86.9006558 -27.33600693 83.9859374 -27.36132812 81.0703125 C-27.4249427 62.85614151 -24.62771826 45.57807906 -20.5625 27.875 C-20.27235775 26.557386 -19.98264496 25.23967735 -19.69335938 23.921875 C-15.46752544 5.2867944 -15.46752544 5.2867944 -11.12670898 1.26391602 C-7.45471661 -0.91837127 -4.14100624 -0.64164235 0 0 Z " fill="#E3EEFE" transform="translate(351,270)"/>
<path d="M0 0 C8.00663263 8.59971653 11.84606319 21.68238199 12.375 33.25 C12.0607806 36.39219398 11.59768143 38.28498432 10.50390625 41.1484375 C8.85866713 45.96243072 8.49678211 50.31368768 8.5625 55.375 C8.57494751 56.6276062 8.57494751 56.6276062 8.58764648 57.90551758 C8.7714995 64.63872547 10.10940297 69.90424098 13 76 C13.53187151 77.27492729 14.05744433 78.55249284 14.578125 79.83203125 C19.37186409 91.47160963 25.05423011 101.11561878 33.73461914 110.32055664 C50.85997736 128.66267814 58.79723374 151.26572745 65.21337891 175.1394043 C70.69496377 195.37469517 80.290541 212.32403796 95.7097168 226.65112305 C98.79504317 229.5559825 100.79647747 231.90050138 102 236 C87.28692753 255.10882992 65.56238568 272.89335508 41 277 C32.83230879 273.80949562 27.50707382 262.61219064 24.11572266 255.02050781 C16.42826422 236.45172476 14.76382246 216.73412417 14.54003906 196.83544922 C14.51339527 195.03179422 14.47242897 193.22829269 14.41699219 191.42529297 C13.86668131 173.23519777 13.86668131 173.23519777 20.29101562 165.28466797 C25.14609716 158.79411754 24.79542104 150.72026305 24 143 C23.02460715 139.03734338 21.58954282 135.26042447 20.171875 131.4375 C19.13995146 128.41052427 18.57643427 125.85471121 18.3125 122.6875 C18.39632693 118.96641297 18.39632693 118.96641297 16 117 C12.95817107 116.74994614 12.95817107 116.74994614 10 117 C8.76405059 118.00606926 8.76405059 118.00606926 8.94995117 120.05029297 C8.98064697 120.93861816 9.01134277 121.82694336 9.04296875 122.7421875 C9.4113676 137.46481125 9.20626011 148.03652754 -0.734375 159.65234375 C-6.74030687 165.87573178 -13.54004034 170.56994453 -21.06640625 174.7734375 C-23.14402918 175.8582839 -23.14402918 175.8582839 -24 178 C-24.13196275 180.10260645 -24.23054204 182.20735132 -24.3125 184.3125 C-25.05150744 195.24085245 -27.69419443 205.56179457 -35 214 C-36.3037162 215.03831683 -37.63074289 216.04978278 -39 217 C-39.10994612 214.70945587 -39.18645107 212.41730061 -39.25 210.125 C-39.29640625 208.84882813 -39.3428125 207.57265625 -39.390625 206.2578125 C-39.27761647 202.93512862 -38.49671882 200.5231422 -37.15234375 197.4921875 C-34.18436994 190.60464561 -33.35070701 183.36563398 -32.3125 176 C-32.09621464 174.52675873 -31.87982412 173.05353289 -31.66333008 171.58032227 C-30.19892453 161.40890312 -29.159054 151.28067221 -29 141 C-29.76183594 140.92523438 -30.52367188 140.85046875 -31.30859375 140.7734375 C-40.32715473 139.62500651 -46.62303637 137.15626293 -52.4375 130 C-55.71381652 123.70947228 -57.01470679 118.06153093 -56 111 C-53.97836432 105.16900122 -51.41744564 100.25046738 -46 97 C-39.11353042 93.67255541 -30.22295409 93.68134853 -22.97265625 95.9453125 C-17.02837105 98.78784287 -12.18444215 102.01069363 -9.6875 108.3125 C-9.3471875 109.6428125 -9.3471875 109.6428125 -9 111 C-6.69 111 -4.38 111 -2 111 C2.91942412 102.89612723 3.44033224 94.01151832 1.55615234 84.83935547 C-0.63292134 76.04575812 -3.0595948 68.39773655 -10.9375 63.125 C-16.50877561 59.10245586 -20.25315887 54.32518427 -21.44921875 47.3984375 C-22.08711048 39.30453258 -22.08711048 39.30453258 -18.91015625 35.4921875 C-16.25 33.25 -16.25 33.25 -13.578125 31.328125 C-7.8033893 26.11336367 -5.98107673 18.37987487 -3.8125 11.125 C-3.29952521 9.43969323 -2.78526522 7.75477695 -2.26953125 6.0703125 C-2.04885986 5.33570801 -1.82818848 4.60110352 -1.60083008 3.84423828 C-1 2 -1 2 0 0 Z " fill="#D68682" transform="translate(106,169)"/>
<path d="M0 0 C5.7109375 0.703125 5.7109375 0.703125 8.3125 3.375 C17.71100192 17.99489187 7.81797223 48.12402652 4.4675293 63.53710938 C-2.90261702 96.14671957 -16.18722087 153.76578198 -44.8125 175.25 C-54.7078909 180.68276363 -70.42039865 178.79102743 -81 176 C-92.89887607 172.19297618 -104.82633555 165.27099925 -111 154 C-111.76981041 149.80103412 -111.65581412 148.05381433 -109.41015625 144.4453125 C-106.46958822 141.46185126 -103.68805457 140.62627284 -99.75 139.625 C-66.25540176 130.09035082 -41.0299931 107.30357741 -24.06591797 77.30786133 C-17.62267889 65.44421914 -13.19867466 52.79961468 -9 40 C-8.48083008 38.44261108 -8.48083008 38.44261108 -7.95117188 36.85375977 C-5.38351309 28.88906114 -3.68235491 20.92579285 -2.25 12.6875 C-1.91935547 10.84381836 -1.91935547 10.84381836 -1.58203125 8.96289062 C-1.04749494 5.97645948 -0.52026326 2.98894456 0 0 Z " fill="#7E90BE" transform="translate(252,315)"/>
<path d="M0 0 C1.70703125 0.1015625 1.70703125 0.1015625 4 1 C5.72312127 3.10249755 7.20868069 5.11413621 8.6875 7.375 C9.09033203 7.96539063 9.49316406 8.55578125 9.90820312 9.1640625 C12.55201385 13.09656489 14.01756175 16.2946179 14.48402405 20.98500061 C14.60755076 22.20149072 14.60755076 22.20149072 14.73357296 23.44255638 C14.82028539 24.33171053 14.90699781 25.22086468 14.99633789 26.13696289 C15.0910843 27.08023752 15.18583071 28.02351215 15.28344822 28.99537086 C15.59985027 32.154143 15.9112618 35.31338683 16.22265625 38.47265625 C16.44579309 40.7113573 16.66921825 42.95002963 16.89291382 45.18867493 C17.49518912 51.22535592 18.09304891 57.26246685 18.69001389 63.29967499 C19.18643741 68.31450583 19.68543808 73.3290788 20.18446827 78.34365082 C23.61903225 112.85913753 27.01514788 147.37844125 30.36157227 181.90258789 C30.5105109 183.43789188 30.65945192 184.97319563 30.80839539 186.50849915 C31.0965302 189.47887397 31.38375915 192.44933459 31.67048645 195.41984558 C32.45750898 203.55254584 33.27176042 211.68197008 34.10986328 219.80957031 C34.38966108 222.54069428 34.66915058 225.27184966 34.94859505 228.0030098 C35.21505423 230.59024919 35.48700766 233.17687152 35.75914001 235.76351929 C36.56184417 243.53065085 37.22539789 251.1799316 37 259 C36.25218262 259.07669922 35.50436523 259.15339844 34.73388672 259.23242188 C33.8729541 259.32072266 33.01202148 259.40902344 32.125 259.5 C28.33066499 259.88916257 24.59935419 260.02455205 20.78857422 260.01367188 C19.89097382 260.011698 18.99337341 260.00972412 18.068573 260.00769043 C17.38594391 260.00515259 16.70331482 260.00261475 16 260 C14.22504589 242.42945408 12.45142965 224.85877365 10.67931652 207.28794098 C9.85607606 199.12565541 9.03243176 190.963411 8.20776367 182.80126953 C7.48722506 175.66973714 6.76751847 168.5381213 6.04872686 161.4064126 C5.66970302 157.64608183 5.29032014 153.88578823 4.90993309 150.12559509 C3.22230072 133.44028261 1.57743769 116.75226806 0.03691387 100.05265808 C-0.78912637 91.12141007 -1.68190872 82.19894359 -2.60546875 73.27734375 C-2.74514878 71.9215418 -2.88473392 70.56573006 -3.02422333 69.20990849 C-3.54561785 64.14232595 -4.06770746 59.07485777 -4.60131836 54.00854492 C-8.69376326 15.05883993 -8.69376326 15.05883993 -3.5 6.0625 C-3.16613281 5.46244141 -2.83226562 4.86238281 -2.48828125 4.24414062 C-1.68700693 2.81329362 -0.84786733 1.40373953 0 0 Z " fill="#8091BF" transform="translate(261,24)"/>
<path d="M0 0 C7.59881171 -0.0760761 15.19752516 -0.128611 22.79663086 -0.16479492 C25.38162913 -0.17987962 27.96660182 -0.20035002 30.55151367 -0.22631836 C34.2674796 -0.26271442 37.98310707 -0.27972985 41.69921875 -0.29296875 C42.85459641 -0.30845261 44.00997406 -0.32393646 45.20036316 -0.33988953 C46.28110611 -0.34011612 47.36184906 -0.34034271 48.4753418 -0.34057617 C49.42354294 -0.34723801 50.37174408 -0.35389984 51.34867859 -0.36076355 C55.18280525 0.16094353 57.68026803 2.07793382 60.78979492 4.25048828 C62.72770187 7.05198943 62.37113563 9.63263504 62.36328125 12.9921875 C62.36464081 13.68595993 62.36600037 14.37973236 62.36740112 15.0945282 C62.36592248 17.3551106 62.34068984 19.61460361 62.3125 21.875 C62.30183878 23.43221028 62.29117798 24.98942057 62.28051758 26.54663086 C62.16693192 38.11445704 61.57117355 49.53140297 60 61 C59.89816406 61.81887695 59.79632813 62.63775391 59.69140625 63.48144531 C59.38614178 65.88870064 59.04496906 68.28749598 58.6875 70.6875 C58.59428467 71.40172119 58.50106934 72.11594238 58.4050293 72.85180664 C58.07421875 74.82421875 58.07421875 74.82421875 57 78 C54.82421875 79.35546875 54.82421875 79.35546875 52 80 C50.97132813 80.28101563 49.94265625 80.56203125 48.8828125 80.8515625 C38.9929252 82.88711103 29.26230494 83.30023372 19.1875 83.3125 C17.8773291 83.31781738 16.5671582 83.32313477 15.21728516 83.32861328 C7.29056375 83.27148556 -0.23109628 82.58462052 -8 81 C-7.34331368 71.39024186 -6.3736174 61.83354983 -5.32901001 52.25994873 C-3.85693163 38.74137068 -2.51202326 25.23693481 -1.59594727 11.66723633 C-1.52947998 10.70197021 -1.4630127 9.7367041 -1.39453125 8.7421875 C-1.34143799 7.9157373 -1.28834473 7.08928711 -1.23364258 6.23779297 C-1.00765732 4.07334066 -0.54843814 2.10172266 0 0 Z " fill="#E2EDFD" transform="translate(435,295)"/>
<path d="M0 0 C-0.06856201 0.59973633 -0.13712402 1.19947266 -0.20776367 1.81738281 C-1.10161167 10.45657978 -1.28196961 19.07354399 -1.3125 27.75 C-1.31742462 28.89870575 -1.31742462 28.89870575 -1.32244873 30.07061768 C-1.34142131 43.80640924 -1.29834123 58.97053712 4.1953125 71.7890625 C5.24049115 74.66076695 5.03275731 76.13791921 4 79 C-5.85086071 90.03855313 -22.35631829 97.42289059 -35.4375 103.6875 C-36.34346924 104.12175293 -37.24943848 104.55600586 -38.18286133 105.00341797 C-44.60611873 108 -44.60611873 108 -48 108 C-48.33 94.8 -48.66 81.6 -49 68 C-45.04 66.35 -41.08 64.7 -37 63 C-32.31312489 58.50059989 -30.173317 54.5564257 -29.734375 48.08203125 C-29.72910885 46.65885438 -29.73454549 45.2356027 -29.75 43.8125 C-29.74226563 43.08869141 -29.73453125 42.36488281 -29.7265625 41.61914062 C-29.60343312 37.34649341 -29.60343312 37.34649341 -32 34 C-37.51457838 33.66611889 -42.26963476 34.29229179 -47.67578125 35.53125 C-48.71353951 35.76430847 -48.71353951 35.76430847 -49.77226257 36.0020752 C-51.95425218 36.49337247 -54.1334129 36.99600003 -56.3125 37.5 C-58.50981493 38.00209212 -60.7076441 38.5017188 -62.90629578 38.9979248 C-64.88828306 39.44613617 -66.86862889 39.90158788 -68.84887695 40.35742188 C-72 41 -72 41 -75 41 C-74.16677077 19.96814491 -74.16677077 19.96814491 -69.375 10.9375 C-62.79566075 5.5701443 -53.58175375 5.23344216 -45.44921875 4.39453125 C-44.27285355 4.26559982 -43.09648834 4.1366684 -41.88447571 4.00382996 C-38.15308703 3.59742759 -34.42036951 3.20504047 -30.6875 2.8125 C-28.16071337 2.53797251 -25.63401943 2.26259039 -23.10742188 1.98632812 C-13.84336506 0.98357919 -13.84336506 0.98357919 -9.26831055 0.50317383 C-8.34503464 0.40563309 -7.42175873 0.30809235 -6.47050476 0.20759583 C-4.32013857 0.02690115 -2.1579447 0 0 0 Z " fill="#E1ECFC" transform="translate(409,66)"/>
<path d="M0 0 C-4.07979678 24.8539344 -17.23258612 48.69437632 -33 68 C-33.82371094 69.00933594 -34.64742188 70.01867187 -35.49609375 71.05859375 C-48.3803231 85.97383463 -65.58505464 97.17583961 -84 104 C-83.01675458 98.38515116 -81.7321831 92.941275 -80.10546875 87.4765625 C-78.10423657 80.53720134 -76.49780762 73.57582347 -75.0625 66.5 C-74.80944092 65.26459473 -74.55638184 64.02918945 -74.2956543 62.75634766 C-70.23958119 42.61435832 -67.19562437 22.29187554 -64 2 C-63.42307907 2.00444122 -62.84615814 2.00888245 -62.25175476 2.01345825 C-56.20000711 2.0580037 -50.14830669 2.08799484 -44.09643555 2.10986328 C-41.84348659 2.11986707 -39.59055043 2.13347436 -37.33764648 2.15087891 C-34.08313825 2.17537598 -30.82880297 2.18653966 -27.57421875 2.1953125 C-26.08446785 2.21079636 -26.08446785 2.21079636 -24.56462097 2.22659302 C-18.68512452 2.22751803 -13.24033711 1.66268993 -7.48762512 0.43063354 C-4.94206484 -0.01002917 -2.57797899 -0.07294313 0 0 Z " fill="#E2ECFC" transform="translate(489,385)"/>
<path d="M0 0 C0.21914062 0.90621094 0.43828125 1.81242188 0.6640625 2.74609375 C3.36824664 13.13411819 6.37507763 20.45802706 15.1875 27 C20.16373051 30.75832424 21.93571616 33.91837806 23 40 C23.12632813 40.70125 23.25265625 41.4025 23.3828125 42.125 C23.63726951 43.74308563 23.82672549 45.37121965 24 47 C21.84707106 45.92851916 19.70099355 44.84618418 17.5625 43.74609375 C16.716875 43.31425781 15.87125 42.88242188 15 42.4375 C14.154375 42.00308594 13.30875 41.56867188 12.4375 41.12109375 C5.40340545 37.88586116 -2.83156004 37.87869468 -10.23828125 39.87109375 C-20.41598972 43.81544074 -27.33626572 49.38531259 -31.921875 59.42578125 C-34.78881981 68.93032653 -34.56375525 78.93189212 -30.125 87.875 C-29.1085891 89.59847936 -28.06990901 91.30921115 -27 93 C-26.64164063 93.74507813 -26.28328125 94.49015625 -25.9140625 95.2578125 C-24.68061705 97.60873845 -23.41033111 97.92874173 -21 99 C-19.576875 99.99 -19.576875 99.99 -18.125 101 C-15.10371329 102.93362349 -12.43212548 104.01939272 -9 105 C-9.60027871 113.25383233 -11.58533562 121.07336559 -13.54638672 129.08544922 C-14.0946722 131.39957987 -14.54927041 133.72763953 -15 136.0625 C-16.54776623 142.91500349 -19.38039435 148.34264035 -24.9375 152.75 C-28.68887711 155.02356188 -32.74877747 156.04996796 -37 157 C-38.16789062 157.28037109 -38.16789062 157.28037109 -39.359375 157.56640625 C-42.64323098 158.10561929 -45.79814274 158.13206339 -49.125 158.125 C-50.34445313 158.12757813 -51.56390625 158.13015625 -52.8203125 158.1328125 C-56 158 -56 158 -59 157 C-58.37274809 149.55443836 -56.91664526 142.40246471 -55.26342773 135.12011719 C-54.82166407 133.16554616 -54.39407629 131.20778838 -53.96679688 129.25 C-53.67406107 127.93961389 -53.37910804 126.62972129 -53.08203125 125.3203125 C-52.93088867 124.65296082 -52.77974609 123.98560913 -52.62402344 123.29803467 C-51.75470142 119.63649283 -50.7240277 116.1172816 -49.42773438 112.58300781 C-44.7339935 99.65703348 -44.38648933 88.16061521 -44.875 74.5 C-45.65934017 49.79525538 -45.65934017 49.79525538 -41 41 C-40.54238281 39.9790625 -40.08476563 38.958125 -39.61328125 37.90625 C-35.83270871 30.91275846 -31.27517462 24.93683742 -26 19 C-25.37351563 18.28972656 -24.74703125 17.57945312 -24.1015625 16.84765625 C-18.48336665 10.86202565 -11.81472735 6.49343172 -5 2 C-2 0 -2 0 0 0 Z " fill="#E1ECFC" transform="translate(74,213)"/>
<path d="M0 0 C7.69263535 6.41052946 13.13074202 13.53706757 14.07763672 23.74755859 C15.03104389 40.34905788 11.15472833 51.54248345 2.53125 65.78125 C-0.90795565 71.77529413 -1.17608696 77.93250536 0.34765625 84.64453125 C2.24041674 89.84678911 5.99705434 93.12352717 10.875 95.5625 C13.42657655 95.6341735 15.94972971 95.65558442 18.5 95.625 C19.55960938 95.61823242 19.55960938 95.61823242 20.640625 95.61132812 C22.38545275 95.59953875 24.130237 95.58160324 25.875 95.5625 C23.53796 99.29759072 21.47676997 102.25186666 17.875 104.8125 C17.215 105.29203125 16.555 105.7715625 15.875 106.265625 C9.25515262 110.55818229 1.66501364 111.63242471 -6.125 110.5625 C-12.0249282 108.12776935 -15.84781609 104.22434518 -19.19140625 98.84765625 C-23.73854231 87.71763703 -18.81288792 75.29201481 -14.75390625 64.86328125 C-11.52265452 56.54929089 -10.30852364 47.05997535 -13.8125 38.625 C-17.19457252 32.09653946 -22.14626166 27.84002892 -29.125 25.5625 C-35.315921 24.58809431 -39.50923088 25.47650225 -44.86328125 28.5390625 C-51.89002064 31.71869241 -60.51270649 31.86102131 -68.125 31.5625 C-66.62776484 19.9195266 -64.04653586 10.64817495 -55.125 2.5625 C-40.07024814 -8.62102995 -15.98913929 -11.1923975 0 0 Z " fill="#FD6983" transform="translate(462.125,25.4375)"/>
<path d="M0 0 C3.96582953 1.32194318 4.91750562 3.43633878 7.20703125 6.796875 C9.0209793 9.2082963 9.0209793 9.2082963 12.046875 11.27734375 C15.57762228 14.12445616 16.4322597 17.52444355 17.4375 21.8125 C19.63496091 29.72568749 22.17984305 35.23936466 29.578125 39.4765625 C33.03733886 41.12886856 36.43759102 42.66940382 40.20263672 43.46606445 C43.73551857 44.31824058 46.22518714 44.93619497 48.42236328 47.95288086 C49.58700222 50.45285194 50.50811413 52.94465744 51.375 55.5625 C51.69082031 56.41908203 52.00664062 57.27566406 52.33203125 58.15820312 C53.27467875 60.75732869 54.14815422 63.3698164 55 66 C55.29422852 66.89315918 55.58845703 67.78631836 55.89160156 68.70654297 C57.24672157 72.98032202 58.16287389 76.47999966 58 81 C38.94175023 82.27804245 19.88047415 82.11876488 0.79089355 82.06866455 C-3.59447745 82.05828047 -7.97985452 82.0538352 -12.36523438 82.04882812 C-20.91017252 82.03822772 -29.45508171 82.02124918 -38 82 C-36.32026697 77.58929163 -34.06292126 73.81784275 -31.5 69.875 C-21.40863326 53.94174694 -13.85594495 37.4420805 -7.1015625 19.84667969 C-5.7182692 16.27194566 -4.28171401 12.71991194 -2.83447266 9.1706543 C-1.67616429 6.15762922 -0.81445238 3.12206745 0 0 Z " fill="#864E4E" transform="translate(258,411)"/>
<path d="M0 0 C0 3.82027219 -1.26088494 5.22540002 -3.375 8.375 C-8.15748016 15.51919876 -9.32491152 20.32877009 -9.25 28.8125 C-9.25773437 29.67681641 -9.26546875 30.54113281 -9.2734375 31.43164062 C-9.26109636 35.51964341 -9.06451819 39.25528858 -8.0078125 43.21484375 C-5.30588234 53.36279074 -6.55157374 63.55395904 -11 73 C-12.75914462 75.92531914 -14.72897464 78.45780743 -17 81 C-17.49757813 81.60070312 -17.99515625 82.20140625 -18.5078125 82.8203125 C-20.67604267 85.26099044 -22.24358368 86.87099877 -25.51953125 87.4296875 C-30.65914404 86.7951674 -34.9880839 84.73085519 -39.6875 82.625 C-40.63689453 82.2125 -41.58628906 81.8 -42.56445312 81.375 C-46.24786938 79.75878055 -49.64550279 78.23633147 -53 76 C-53.6774847 72.06403903 -53.46260516 68.04965554 -53.4375 64.0625 C-53.45748047 62.97130859 -53.47746094 61.88011719 -53.49804688 60.75585938 C-53.48961282 46.57820967 -48.08126853 36.42304921 -38.41015625 26.28515625 C-27.16526551 15.53386839 -14.2687946 6.2683722 0 0 Z " fill="#E2EDFD" transform="translate(409,185)"/>
<path d="M0 0 C2.58226654 3.87339981 2.68261722 7.48308451 3.11367798 12.00065613 C3.20930853 12.93270837 3.30493909 13.86476061 3.40346754 14.82505685 C3.72312403 17.96098548 4.03070332 21.09798233 4.33837891 24.23510742 C4.56456087 26.47877053 4.79147141 28.7223603 5.01905823 30.96588135 C5.63613197 37.07066356 6.24266727 43.176452 6.847157 49.28249145 C7.48089254 55.66815685 8.12350716 62.05292893 8.76498413 68.43782043 C9.84155336 79.16672372 10.91167674 89.89624974 11.97753906 100.6262207 C13.07346026 111.6587244 14.1751144 122.69063547 15.28320312 133.72192383 C15.35137858 134.40063442 15.41955403 135.07934501 15.4897954 135.77862259 C15.55785479 136.45617166 15.62591418 137.13372073 15.69603598 137.83180159 C17.02170904 151.02964093 18.34124099 164.22808937 19.65891981 177.42672944 C20.03900547 181.22989813 20.42019755 185.03295459 20.8016243 188.835989 C21.4013039 194.81831771 21.99689746 200.80103987 22.58935356 206.78408813 C22.80729139 208.9787826 23.0265657 211.17334483 23.24728203 213.36776161 C23.54863453 216.36629745 23.84508042 219.36527964 24.14028931 222.36442566 C24.22841688 223.23010373 24.31654445 224.0957818 24.40734255 224.98769253 C25.88356694 240.17902035 25.88356694 240.17902035 22 245 C17.56756757 249 17.56756757 249 15 249 C13.35541388 232.73329385 11.71218349 216.46645135 10.07046795 200.19945526 C9.30776748 192.64251063 8.54466094 185.08560747 7.78051758 177.52880859 C7.11270676 170.92465437 6.44574004 164.32041548 5.7796939 157.71608305 C5.42862082 154.23520846 5.07718878 150.75437116 4.72473717 147.27363586 C3.10180003 131.24294579 1.52897537 115.2088203 0.04809093 99.16442871 C-0.78202142 90.19595914 -1.67801289 81.2361775 -2.60546875 72.27734375 C-2.74513164 70.92171988 -2.88469895 69.56608617 -3.02416992 68.21044254 C-3.54558062 63.14268182 -4.06768872 58.0750357 -4.60131836 53.00854492 C-8.7914034 13.12955321 -8.7914034 13.12955321 -1 1 C-0.67 0.67 -0.34 0.34 0 0 Z " fill="#E0EBFB" transform="translate(261,25)"/>
<path d="M0 0 C11.24746245 9.55600601 22.03968467 19.20829409 31 31 C32.04994141 32.27423828 32.04994141 32.27423828 33.12109375 33.57421875 C44.76033813 48.1180874 52.49934959 65.42192939 59.7277832 82.46118164 C68.96579848 104.02523246 80.84729387 118.38200775 102 129 C99.21400472 138.23632919 93.75253866 146.32994845 88 154 C87.30390625 153.29875 86.6078125 152.5975 85.890625 151.875 C83.94791055 149.92955318 81.97742056 148.01877509 79.984375 146.125 C61.92891986 128.80186014 53.36956597 109.65714797 46.80712891 85.87548828 C40.75777245 64.32396971 32.54632487 46.23277784 17.296875 29.58984375 C0 10.08673469 0 10.08673469 0 0 Z " fill="#864F4F" transform="translate(121,250)"/>
<path d="M0 0 C5.7109375 0.703125 5.7109375 0.703125 8.3125 3.375 C13.79759733 11.90737362 11.08844152 25.08909883 9.8125 34.6875 C9.71163086 35.54851318 9.61076172 36.40952637 9.50683594 37.29663086 C8.60010513 43.46594418 8.60010513 43.46594418 5.515625 46.2109375 C4.68546875 46.80132812 3.8553125 47.39171875 3 48 C1.68766874 50.78733393 1.68766874 50.78733393 0.9375 53.9375 C0.61265625 55.09507812 0.2878125 56.25265625 -0.046875 57.4453125 C-0.36140625 58.61835938 -0.6759375 59.79140625 -1 61 C-6.30146907 79.92717468 -13.95187303 97.90425226 -28 112 C-28.69867188 112.721875 -29.39734375 113.44375 -30.1171875 114.1875 C-39.83401585 123.58399335 -52.24598983 128.04994244 -65.625 128.125 C-67.08359017 128.09358421 -68.5421403 128.05583292 -70 128 C-67.51501427 125.31621542 -64.73407231 123.35352638 -61.75 121.25 C-34.19462373 100.96760409 -19.43398717 71.80789802 -9 40 C-8.48083008 38.44261108 -8.48083008 38.44261108 -7.95117188 36.85375977 C-5.38351309 28.88906114 -3.68235491 20.92579285 -2.25 12.6875 C-1.91935547 10.84381836 -1.91935547 10.84381836 -1.58203125 8.96289062 C-1.04749494 5.97645948 -0.52026326 2.98894456 0 0 Z " fill="#E0EBFC" transform="translate(252,315)"/>
<path d="M0 0 C8.27475384 6.51010893 13.97085193 13.58216385 15.28710938 24.34838867 C15.40016176 26.71976162 15.41727363 29.0638961 15.375 31.4375 C15.36412354 32.27297363 15.35324707 33.10844727 15.34204102 33.96923828 C15.02024276 46.42100935 10.05452091 55.65416314 3.65625 66.21875 C0.21704435 72.21279413 -0.05108696 78.37000536 1.47265625 85.08203125 C3.36541674 90.28428911 7.12205434 93.56102717 12 96 C14.55157655 96.0716735 17.07472971 96.09308442 19.625 96.0625 C20.68460937 96.05573242 20.68460937 96.05573242 21.765625 96.04882812 C23.51045275 96.03703875 25.255237 96.01910324 27 96 C24.66296 99.73509072 22.60176997 102.68936666 19 105.25 C18.34 105.72953125 17.68 106.2090625 17 106.703125 C10.38015262 110.99568229 2.79001364 112.06992471 -5 111 C-10.8999282 108.56526935 -14.72281609 104.66184518 -18.06640625 99.28515625 C-22.56599668 88.27151439 -17.77877907 76.09805307 -13.7265625 65.7890625 C-12.41231041 62.42640905 -11.64891792 59.27472221 -11.0859375 55.7109375 C-10.25395665 51.04586968 -8.57966471 49.16746089 -5 46 C-3.18125997 42.86252823 -3.18125997 42.86252823 -1.75 39.5 C-0.99976563 37.84484375 -0.99976563 37.84484375 -0.234375 36.15625 C2.17980999 29.98327066 2.1829566 24.16749271 2.1875 17.625 C2.20586914 16.24441406 2.20586914 16.24441406 2.22460938 14.8359375 C2.2360736 9.48596454 1.76282486 5.05854092 0 0 Z " fill="#C15077" transform="translate(461,25)"/>
<path d="M0 0 C4.3321117 3.19635208 7.70753484 7.38102845 11.0859375 11.5390625 C11.96572266 12.60060547 11.96572266 12.60060547 12.86328125 13.68359375 C14.0859375 15.5390625 14.0859375 15.5390625 13.8359375 18.2265625 C13.0859375 20.5390625 13.0859375 20.5390625 12.0859375 21.5390625 C9.87995826 21.78987932 7.67091171 22.01380101 5.4609375 22.2265625 C-11.33692575 24.21003672 -25.17862388 32.72490359 -37.50048828 43.9831543 C-40.65873364 46.79819775 -41.50522105 47.5390625 -45.9140625 47.5390625 C-49.45828522 44.20003162 -51.30321471 39.63951415 -51.7890625 34.8515625 C-51.26138765 25.05188679 -41.91220414 15.85803621 -35.16015625 9.46875 C-25.48667185 1.15796514 -12.52407243 -6.8808145 0 0 Z " fill="#E1ECFC" transform="translate(460.9140625,174.4609375)"/>
<path d="M0 0 C15.62602643 -1.59449249 31.93750336 8.68305704 43.7421875 17.96875 C44.15726563 18.3090625 44.57234375 18.649375 45 19 C42.92517994 31.86388436 35.46056067 41.18755753 25.9765625 49.84765625 C24 51 24 51 22.11083984 50.77001953 C19.59188718 49.85112331 18.20364167 48.6638226 16.25 46.83203125 C15.5590625 46.18556641 14.868125 45.53910156 14.15625 44.87304688 C13.4446875 44.19306641 12.733125 43.51308594 12 42.8125 C11.2884375 42.15185547 10.576875 41.49121094 9.84375 40.81054688 C2.62416348 33.988307 -2.30033947 27.17624783 -3.2890625 17.03515625 C-3.46676012 10.62996487 -2.68318582 5.81356927 0 0 Z " fill="#E1ECFC" transform="translate(127,211)"/>
<path d="M0 0 C3.6048121 1.37616138 5.43961376 3.84057956 7.70703125 6.875 C9.19383631 8.96172277 9.19383631 8.96172277 11.3059082 10.12866211 C14.03158096 12.51142872 14.27318479 14.44044758 15.0234375 17.95703125 C15.29599365 19.17543701 15.5685498 20.39384277 15.84936523 21.64916992 C15.98623749 22.29050873 16.12310974 22.93184753 16.26412964 23.59262085 C18.51534119 34.1087143 21.14806939 44.24551513 25.24609375 54.20703125 C26.3125 56.8828125 26.3125 56.8828125 26.3125 58.8828125 C15.33570358 59.68927101 4.95365838 57.22379513 -4.6875 51.8828125 C-12.69152662 44.25106618 -13.41312908 33.52125032 -13.84765625 23.0078125 C-13.8811511 21.59122526 -13.91107198 20.1745492 -13.9375 18.7578125 C-13.95901123 18.08862793 -13.98052246 17.41944336 -14.00268555 16.72998047 C-14.04242529 10.64905011 -12.3524099 6.44421234 -9.0625 1.3828125 C-5.853157 -0.64414098 -3.70141705 -0.57225856 0 0 Z " fill="#E1ECFC" transform="translate(295.6875,389.1171875)"/>
<path d="M0 0 C4.74973644 3.65687673 8.16139771 7.50247475 11.625 12.375 C12.0890625 13.00921875 12.553125 13.6434375 13.03125 14.296875 C14.38916576 16.1764759 15.70483468 18.07669445 17 20 C17.41604492 20.61391602 17.83208984 21.22783203 18.26074219 21.86035156 C19.97032894 24.5707436 21.02183218 26.42564569 20.8984375 29.671875 C16.57529578 40.87445092 5.73391855 49.96214672 -5 55 C-5.99 55 -6.98 55 -8 55 C-9.55173007 52.85885308 -10.9078107 50.7671534 -12.25 48.5 C-15.71679082 42.85459357 -19.38055722 37.78283143 -24 33 C-22.51237248 29.34189955 -20.48706677 27.57801615 -17.4375 25.125 C-9.56313198 18.24348708 -4.5228525 9.34344764 0 0 Z " fill="#E0EBFB" transform="translate(181,239)"/>
<path d="M0 0 C0.66 0 1.32 0 2 0 C2.29245605 0.65073486 2.58491211 1.30146973 2.88623047 1.97192383 C4.21305258 4.92003731 5.54397643 7.86628117 6.875 10.8125 C7.33519531 11.83666016 7.79539063 12.86082031 8.26953125 13.91601562 C8.71425781 14.89892578 9.15898437 15.88183594 9.6171875 16.89453125 C10.22989502 18.25348511 10.22989502 18.25348511 10.85498047 19.63989258 C12.01978732 22.17688342 12.01978732 22.17688342 14 25 C14 31.78198783 9.64815021 37.03235139 5.31640625 41.88671875 C-0.55599276 47.50654145 -7.71902918 50.5882269 -15 54 C-16.6948693 50.22989721 -18.38541249 46.45788771 -20.07202148 42.68408203 C-20.6460387 41.40132763 -21.22122225 40.11909448 -21.79760742 38.83740234 C-22.6272755 36.99194566 -23.4523648 35.14443264 -24.27734375 33.296875 C-24.77484131 32.18666992 -25.27233887 31.07646484 -25.78491211 29.93261719 C-26.75215692 27.59816979 -27.49389647 25.46496018 -28 23 C-26.99839844 22.41992188 -25.99679688 21.83984375 -24.96484375 21.2421875 C-15.45654771 15.68005527 -7.57299305 10.77254326 -1.26171875 1.5390625 C-0.63716797 0.77722656 -0.63716797 0.77722656 0 0 Z " fill="#E1ECFC" transform="translate(207,280)"/>
<path d="M0 0 C1.29315061 0.95632999 2.58446853 1.91513851 3.875 2.875 C4.59429687 3.40867187 5.31359375 3.94234375 6.0546875 4.4921875 C8 6 8 6 10 8 C9.92126153 10.65288091 9.71847973 13.1286472 9.375 15.75 C9.23058472 16.89529175 9.23058472 16.89529175 9.08325195 18.0637207 C7.42146615 30.19084551 3.23631284 41.57584489 -1 53 C-12.32830007 50.16792498 -22.33314349 42.6010162 -29 33 C-30.03146537 31.01604456 -31.0378636 29.01848794 -32 27 C-30.94941406 26.443125 -29.89882812 25.88625 -28.81640625 25.3125 C-16.47154066 18.65395043 -7.65178492 12.00665929 0 0 Z " fill="#E0EBFB" transform="translate(229,316)"/>
<path d="M0 0 C4.18629799 -0.26273837 8.37047047 -0.42164781 12.5625 -0.5625 C13.74392578 -0.63791016 14.92535156 -0.71332031 16.14257812 -0.79101562 C24.77876609 -1.00873465 24.77876609 -1.00873465 28.22387695 1.83691406 C30.00492983 4.1439949 31.51013213 6.49730275 33 9 C39.46169465 17.19714154 47.01176018 23.68740692 55.32421875 29.91796875 C56.20722656 30.60503906 57.09023438 31.29210937 58 32 C58 32.33 58 32.66 58 33 C42.16 33 26.32 33 10 33 C8.02 26.07 6.04 19.14 4 12 C2.68 8.7 1.36 5.4 0 2 C0 1.34 0 0.68 0 0 Z " fill="#7D8FBD" transform="translate(317,459)"/>
<path d="M0 0 C1.18335938 0.0009668 1.18335938 0.0009668 2.390625 0.00195312 C9.44762699 0.05559588 9.44762699 0.05559588 12.75 1.1875 C16.3100455 6.60251658 18.85428151 12.69984612 17.75 19.1875 C13.98636463 21.69659025 10.32558464 22.16856449 5.953125 22.9140625 C5.08612976 23.06660492 4.21913452 23.21914734 3.3258667 23.37631226 C1.49063587 23.6973859 -0.34522201 24.01489278 -2.18164062 24.32910156 C-4.97706607 24.80856643 -7.76979479 25.30184039 -10.5625 25.796875 C-12.34881338 26.10760528 -14.13526761 26.41752715 -15.921875 26.7265625 C-17.16599152 26.94682602 -17.16599152 26.94682602 -18.4352417 27.17153931 C-30.48053866 29.20834308 -30.48053866 29.20834308 -34.28125 27.015625 C-34.7659375 26.49484375 -35.250625 25.9740625 -35.75 25.4375 C-36.2553125 24.92703125 -36.760625 24.4165625 -37.28125 23.890625 C-38.25 22.1875 -38.25 22.1875 -38.21875 20.2890625 C-34.88279793 13.05219874 -24.27997423 5.62695846 -17.25 2.1875 C-11.37566019 0.36614385 -6.12385168 -0.09696098 0 0 Z " fill="#E1ECFC" transform="translate(462.25,211.8125)"/>
<path d="M0 0 C-0.47254497 5.06298184 -0.97364983 10.01434881 -2 15 C-11.46709816 16.45188886 -20.91810054 17.56466182 -30.45336914 18.43261719 C-32.59239528 18.62772688 -34.73076515 18.82914522 -36.86914062 19.03125 C-52.36238383 20.46982244 -52.36238383 20.46982244 -55.375 18.25 C-56.24125 17.5075 -57.1075 16.765 -58 16 C-60.29364981 14.58262976 -62.63520492 13.29831887 -65 12 C-65 9.36 -65 6.72 -65 4 C-58.31540924 3.42079606 -51.62995758 2.85240826 -44.94384766 2.29101562 C-42.67639068 2.0994086 -40.40913023 1.90545901 -38.14208984 1.70898438 C-25.39991264 0.60635006 -12.79621287 -0.34558414 0 0 Z " fill="#F4863E" transform="translate(321,292)"/>
<path d="M0 0 C3.43256078 3.26093275 5.39399121 6.51437906 5.95800781 11.18920898 C6.03330091 14.13492599 5.99025641 17.05121916 5.890625 19.99609375 C5.87257813 21.01380859 5.85453125 22.03152344 5.8359375 23.08007812 C5.78910497 25.5739103 5.72353927 28.06574422 5.640625 30.55859375 C1.49480613 30.58746126 -2.65098716 30.60534702 -6.796875 30.62109375 C-8.57288086 30.63366211 -8.57288086 30.63366211 -10.38476562 30.64648438 C-11.50947266 30.64970703 -12.63417969 30.65292969 -13.79296875 30.65625 C-15.35615845 30.66410522 -15.35615845 30.66410522 -16.95092773 30.67211914 C-19.359375 30.55859375 -19.359375 30.55859375 -20.359375 29.55859375 C-20.57448297 28.10661495 -20.73022755 26.6457274 -20.859375 25.18359375 C-20.941875 24.27996094 -21.024375 23.37632812 -21.109375 22.4453125 C-21.191875 21.49269531 -21.274375 20.54007812 -21.359375 19.55859375 C-21.52534794 17.70436486 -21.6920088 15.8501974 -21.859375 13.99609375 C-21.94058594 13.09117187 -22.02179688 12.18625 -22.10546875 11.25390625 C-22.47329374 7.3493025 -22.91226246 3.45486017 -23.359375 -0.44140625 C-7.48116231 -4.08558621 -7.48116231 -4.08558621 0 0 Z " fill="#DFEAFA" transform="translate(468.359375,255.44140625)"/>
<path d="M0 0 C0.28230469 0.58394531 0.56460937 1.16789063 0.85546875 1.76953125 C4.57446775 9.01713681 9.76542589 15.41992118 14.6875 21.875 C15.25831299 22.62483154 15.82912598 23.37466309 16.41723633 24.1472168 C16.96404053 24.85918213 17.51084473 25.57114746 18.07421875 26.3046875 C18.81031372 27.2635083 18.81031372 27.2635083 19.5612793 28.24169922 C20.95223512 29.94162521 22.41925115 31.47697265 24 33 C20.30872983 43.70852856 8.64768129 56.12005223 -1 62 C-3.1484375 62.14453125 -3.1484375 62.14453125 -5.375 61.8125 C-6.15488281 61.69648438 -6.93476563 61.58046875 -7.73828125 61.4609375 C-10.59123144 60.87950724 -13.28391121 60.04464954 -16 59 C-15.319375 58.505 -14.63875 58.01 -13.9375 57.5 C-5.84675679 50.6142611 -0.04355734 42.55837956 2 32 C2.35058321 25.88670521 2.69378724 19.69035384 1 13.75 C-0.24468783 9.08242064 -0.17694374 4.7971414 0 0 Z " fill="#7E90BD" transform="translate(399,214)"/>
<path d="M0 0 C1.32 0.33 2.64 0.66 4 1 C3.39972129 9.25383233 1.41466438 17.07336559 -0.54638672 25.08544922 C-1.0946722 27.39957987 -1.54927041 29.72763953 -2 32.0625 C-3.54776623 38.91500349 -6.38039435 44.34264035 -11.9375 48.75 C-15.68887711 51.02356188 -19.74877747 52.04996796 -24 53 C-24.77859375 53.18691406 -25.5571875 53.37382812 -26.359375 53.56640625 C-29.64323098 54.10561929 -32.79814274 54.13206339 -36.125 54.125 C-37.34445313 54.12757813 -38.56390625 54.13015625 -39.8203125 54.1328125 C-43 54 -43 54 -46 53 C-45.47462276 47.9697924 -44.89405214 42.98114761 -44 38 C-43.67 38.66 -43.34 39.32 -43 40 C-39.99800175 39.93947584 -37.00063578 39.85224389 -34 39.75 C-32.74123047 39.72873047 -32.74123047 39.72873047 -31.45703125 39.70703125 C-24.15235776 39.42390437 -18.9236106 37.44767399 -13.3125 32.75 C-5.44474335 23.39374885 -1.4327968 12.10090341 0 0 Z " fill="#8898C1" transform="translate(61,317)"/>
<path d="M0 0 C0.65192688 2.49854767 1.29663064 4.9986137 1.9375 7.5 C2.21110352 8.54414063 2.21110352 8.54414063 2.49023438 9.609375 C4.53033462 17.62140507 5.14969193 25.26371577 5.0625 33.5 C5.05798828 34.32242188 5.05347656 35.14484375 5.04882812 35.9921875 C5.03718489 37.99482396 5.01925556 39.99742227 5 42 C1.7 42 -1.6 42 -5 42 C-5.02578125 40.56527344 -5.0515625 39.13054687 -5.078125 37.65234375 C-5.13442975 35.74736641 -5.19177654 33.84241966 -5.25 31.9375 C-5.27126953 30.52307617 -5.27126953 30.52307617 -5.29296875 29.08007812 C-5.50830142 22.90003041 -6.35191692 19.04293837 -10 14 C-14.54686643 10.79652592 -18.617027 10.60405453 -24 11 C-25.33611328 11.08121094 -25.33611328 11.08121094 -26.69921875 11.1640625 C-30.37125375 11.42628765 -30.37125375 11.42628765 -34 12 C-34.33 12.66 -34.66 13.32 -35 14 C-35.33 11.36 -35.66 8.72 -36 6 C-31.95865397 5.18589977 -27.91686821 4.37400341 -23.875 3.5625 C-22.73289062 3.33240234 -21.59078125 3.10230469 -20.4140625 2.86523438 C-19.30546875 2.64287109 -18.196875 2.42050781 -17.0546875 2.19140625 C-15.53077393 1.88505249 -15.53077393 1.88505249 -13.97607422 1.57250977 C-9.26362102 0.66597139 -4.81105884 -0.14150173 0 0 Z " fill="#7E90BD" transform="translate(479,243)"/>
<path d="M0 0 C0.33 0 0.66 0 1 0 C1 6.93 1 13.86 1 21 C-10.43623607 24.43087082 -10.43623607 24.43087082 -15.8125 24.4375 C-16.87082031 24.45683594 -17.92914063 24.47617187 -19.01953125 24.49609375 C-22.69752151 23.88389878 -24.34200073 22.56340854 -27 20 C-29.27119759 15.99836615 -29.05832603 12.52291886 -29 8 C-28.06800781 7.91363281 -27.13601562 7.82726562 -26.17578125 7.73828125 C-12.0765336 6.42962283 -12.0765336 6.42962283 0 0 Z " fill="#864F4F" transform="translate(55,373)"/>
<path d="M0 0 C8.7278964 6.87089716 15.31321326 14.94310156 20 25 C16.91702588 26.62568217 13.83355811 28.25042584 10.75 29.875 C9.87730469 30.33519531 9.00460938 30.79539063 8.10546875 31.26953125 C7.26113281 31.71425781 6.41679688 32.15898437 5.546875 32.6171875 C4.77182617 33.02565918 3.99677734 33.43413086 3.19824219 33.85498047 C1.14268653 34.92567749 -0.923735 35.97013947 -3 37 C-3.08832196 32.89597283 -3.14083048 28.79219544 -3.1875 24.6875 C-3.21263672 23.53958984 -3.23777344 22.39167969 -3.26367188 21.20898438 C-3.32788247 13.65353819 -2.41795059 7.16480287 0 0 Z " fill="#854E4F" transform="translate(59,174)"/>
<path d="M0 0 C5.76635428 2.62608293 10.14202158 4.91933291 12.4453125 11.0546875 C13.0384545 12.984887 13.59727494 14.92589924 14.125 16.875 C14.75399551 18.93116801 15.39210563 20.98456876 16.0390625 23.03515625 C16.35520508 24.04336426 16.67134766 25.05157227 16.99707031 26.09033203 C18.93685963 31.71798759 21.73213303 36.87781739 24.53125 42.11328125 C26 45 26 45 26 47 C20.39 47 14.78 47 9 47 C10.98 46.505 10.98 46.505 13 46 C12.62488281 45.13761719 12.24976563 44.27523437 11.86328125 43.38671875 C5.95408632 29.43488434 2.10761319 15.00820525 0 0 Z " fill="#7E8FBC" transform="translate(309,402)"/>
<path d="M0 0 C1.8871875 0.0309375 1.8871875 0.0309375 3.8125 0.0625 C4.19625599 4.54477002 4.19625599 4.54477002 2.4921875 6.84375 C1.89664062 7.4109375 1.30109375 7.978125 0.6875 8.5625 C-7.46757035 17.37789994 -10.21639416 28.5298018 -12.1875 40.0625 C-17.1433526 35.22992731 -21.26653989 30.92267821 -21.8125 23.8125 C-21.45716668 16.87165587 -17.77431459 10.82956344 -13.11328125 5.84375 C-8.88298109 2.0278785 -5.84490042 -0.09581804 0 0 Z " fill="#7C8EBB" transform="translate(357.1875,202.9375)"/>
<path d="M0 0 C5.12649705 9.47625213 6.21614444 20.40892228 6 31 C-3.69083823 30.64335748 -12.64741039 29.81640482 -22 27 C-18.43075647 22.77326424 -14.77013861 18.67419721 -11 14.625 C-6.79653582 10.03420755 -3.22887814 5.31583596 0 0 Z " fill="#7C8EBB" transform="translate(432,253)"/>
<path d="M0 0 C0.50615298 1.26839526 1.00469099 2.53983102 1.5 3.8125 C1.7784375 4.52019531 2.056875 5.22789062 2.34375 5.95703125 C3 8 3 8 3 11 C2.37996094 11.18433594 1.75992188 11.36867187 1.12109375 11.55859375 C-10.95096044 15.51232329 -21.54712932 22.31939253 -31.14453125 30.56640625 C-33 32 -33 32 -35 32 C-35.33 27.38 -35.66 22.76 -36 18 C-34.51113281 17.27296875 -34.51113281 17.27296875 -32.9921875 16.53125 C-24.28655617 12.24795436 -9.09346225 0 0 0 Z " fill="#7D8EBB" transform="translate(407,164)"/>
<path d="M0 0 C-0.99 0.66 -1.98 1.32 -3 2 C-6.75532155 5.53442028 -8.05220794 7.52207945 -8.5625 12.625 C-8.64628906 13.44226563 -8.73007812 14.25953125 -8.81640625 15.1015625 C-8.90728516 16.04128906 -8.90728516 16.04128906 -9 17 C-11.22595848 17.27711526 -13.45611221 17.52066929 -15.6875 17.75 C-16.92886719 17.88921875 -18.17023438 18.0284375 -19.44921875 18.171875 C-23.72229087 17.96503763 -24.94899908 16.88382279 -28 14 C-29.25038931 13.21639045 -30.51898445 12.4601654 -31.8125 11.75 C-32.864375 11.1725 -33.91625 10.595 -35 10 C-35 7.36 -35 4.72 -35 2 C-10.01734161 -0.38776806 -10.01734161 -0.38776806 0 0 Z " fill="#F6BC60" transform="translate(291,294)"/>
<path d="M0 0 C5.85433831 7.4743059 5.83214953 15.77444105 5 25 C3.3658321 31.51900493 0.1829322 36.7995978 -4 42 C-4.33 42 -4.66 42 -5 42 C-5.26628514 35.8458545 -4.86676142 29.85299341 -4.125 23.75 C-4.04652832 23.07710938 -3.96805664 22.40421875 -3.88720703 21.7109375 C-3.35662618 17.58849743 -2.33256016 13.92245532 -1 10 C-0.73366136 8.21603365 -0.52077069 6.42283846 -0.375 4.625 C-0.30023438 3.75101562 -0.22546875 2.87703125 -0.1484375 1.9765625 C-0.09945312 1.32429688 -0.05046875 0.67203125 0 0 Z " fill="#885051" transform="translate(126,301)"/>
<path d="M0 0 C0 3.3 0 6.6 0 10 C-7.5481251 12.703806 -14.96682611 14.33710758 -23 13 C-26.33084711 10.83011205 -27.73344239 9.79967284 -29 6 C-27.33324219 5.85304688 -27.33324219 5.85304688 -25.6328125 5.703125 C-17.89086459 4.94938392 -10.9130487 4.15467469 -3.78515625 0.8046875 C-2 0 -2 0 0 0 Z " fill="#D38481" transform="translate(56,384)"/>
<path d="M0 0 C0.33 0 0.66 0 1 0 C1.31906521 7.87913808 0.26641852 15.46378063 -0.91650391 23.22875977 C-1.24847817 25.42742091 -1.56024337 27.62834407 -1.87109375 29.83007812 C-3.01860963 37.63127139 -4.53010431 44.84361224 -8 52 C-8.33 52 -8.66 52 -9 52 C-9.48691054 43.0913405 -7.87630336 34.8786402 -6.11914062 26.19433594 C-5.62368275 23.74348404 -5.14275882 21.2901127 -4.6640625 18.8359375 C-4.35240325 17.26025014 -4.03993155 15.68472321 -3.7265625 14.109375 C-3.51237167 13.0216983 -3.51237167 13.0216983 -3.29385376 11.91204834 C-2.46233473 7.8254562 -1.40493202 3.92642742 0 0 Z " fill="#854F50" transform="translate(76,319)"/>
<path d="M0 0 C2.375 0.5 2.375 0.5 4.25 1.6875 C5.375 3.5 5.375 3.5 5.375 5.8125 C3.95977381 9.6159204 2.2984681 11.64297436 -0.625 14.5 C-3.64729316 15.14763425 -4.86918158 14.95349105 -7.5 13.375 C-8.625 11.5 -8.625 11.5 -8.625 8.625 C-7.15846073 4.04206479 -4.88946105 0.93132592 0 0 Z " fill="#3F3D50" transform="translate(73.625,275.5)"/>
<path d="M0 0 C10.3246625 6.22127099 10.3246625 6.22127099 13 12 C13.88230638 15.97802874 14.50280319 19.95700491 15 24 C11.52957275 22.29068509 8.69787779 20.84370902 6 18 C5.59712693 15.76470428 5.49489018 13.58761122 5.37890625 11.3203125 C4.73969542 7.4059699 2.43534954 5.05979814 0 2 C0 1.34 0 0.68 0 0 Z " fill="#8898C0" transform="translate(83,236)"/>
<path d="M0 0 C3 4.07142857 3 4.07142857 3 7 C2.09290283 6.99214478 2.09290283 6.99214478 1.16748047 6.98413086 C-1.59666894 6.96322642 -4.36080165 6.95029721 -7.125 6.9375 C-8.07632812 6.92912109 -9.02765625 6.92074219 -10.0078125 6.91210938 C-14.79018487 6.89550392 -19.29771569 6.99462945 -24 8 C-17.33143368 2.39840429 -8.59371965 0 0 0 Z " fill="#7D8EBA" transform="translate(471,206)"/>
<path d="M0 0 C2.9375 0.875 2.9375 0.875 4.9375 3.875 C4.6133631 7.19740324 4.32973697 8.48276303 1.9375 10.875 C-0.90852594 11.23987512 -2.4489306 11.27699375 -4.875 9.6875 C-6.48775784 7.22592224 -6.4959014 5.76434264 -6.0625 2.875 C-4.29035152 -0.0785808 -3.47140412 -0.14168996 0 0 Z " fill="#48495B" transform="translate(200.0625,309.125)"/>
<path d="M0 0 C1.875 1.1875 1.875 1.1875 3 3 C2.75546876 6.34192692 2.39456443 7.60543557 0 10 C-3 10.3125 -3 10.3125 -6 10 C-8 7 -8 7 -7.75 3.875 C-7.37875 2.451875 -7.37875 2.451875 -7 1 C-4.45132831 -0.27433584 -2.82594567 -0.27570202 0 0 Z " fill="#434356" transform="translate(224,345)"/>
<path d="M0 0 C2.5625 0.3125 2.5625 0.3125 4.4375 1.4375 C5.5625 3.3125 5.5625 3.3125 5.375 6.4375 C5.106875 7.38625 4.83875 8.335 4.5625 9.3125 C1.77386993 10.70681504 -0.35828868 10.56910094 -3.4375 10.3125 C-5.4375 7.3125 -5.4375 7.3125 -5.1875 4.75 C-4.19253762 1.51637226 -3.41216263 0.43745675 0 0 Z " fill="#434356" transform="translate(177.4375,270.6875)"/>
<path d="M0 0 C3 0.25 3 0.25 5 2.25 C4.42307692 8.82692308 4.42307692 8.82692308 3 10.25 C0.0625 10.4375 0.0625 10.4375 -3 10.25 C-5 8.25 -5 8.25 -5.25 5.25 C-4.90584825 1.120179 -4.129821 0.34415175 0 0 Z " fill="#414154" transform="translate(150,237.75)"/>
<path d="M0 0 C2.5 1.75 2.5 1.75 4 3 C3.67 3.66 3.34 4.32 3 5 C2.113125 4.38125 1.22625 3.7625 0.3125 3.125 C-5.1963711 -0.40899278 -8.98299082 -1.2593715 -15.5625 -1.1875 C-16.86316406 -1.18105469 -18.16382812 -1.17460937 -19.50390625 -1.16796875 C-22.22520835 -1.03722463 -24.42745903 -0.81823822 -27 0 C-20.47841795 -7.49981935 -7.3973683 -4.96121576 0 0 Z " fill="#895252" transform="translate(88,266)"/>
</svg>
