<?xml version="1.0" encoding="UTF-8"?>
<!DOCTYPE svg PUBLIC "-//W3C//DTD SVG 1.1//EN" "http://www.w3.org/Graphics/SVG/1.1/DTD/svg11.dtd">
<svg xmlns="http://www.w3.org/2000/svg" version="1.1" width="512px" height="512px" style="shape-rendering:geometricPrecision; text-rendering:geometricPrecision; image-rendering:optimizeQuality; fill-rule:evenodd; clip-rule:evenodd" xmlns:xlink="http://www.w3.org/1999/xlink">
<g><path style="opacity:0.989" fill="#000100" d="M 58.5,-0.5 C 156.167,-0.5 253.833,-0.5 351.5,-0.5C 366.124,3.9584 375.624,13.6251 380,28.5C 380.333,103.833 380.667,179.167 381,254.5C 396,258.833 405.667,268.5 410,283.5C 410.5,291.827 410.666,300.16 410.5,308.5C 455.136,310.665 486.636,331.999 505,372.5C 507.662,380.163 509.828,387.829 511.5,395.5C 511.5,405.167 511.5,414.833 511.5,424.5C 501.513,472.487 472.513,501.487 424.5,511.5C 415.167,511.5 405.833,511.5 396.5,511.5C 391.472,509.09 386.472,509.09 381.5,511.5C 263.833,511.5 146.167,511.5 28.5,511.5C 13.8333,506.833 4.16667,497.167 -0.5,482.5C -0.5,444.833 -0.5,407.167 -0.5,369.5C 1.34032,367.331 3.67365,365.998 6.5,365.5C 9.66418,366.01 12.1642,367.676 14,370.5C 14.3333,406.833 14.6667,443.167 15,479.5C 17.3513,486.519 21.8513,491.686 28.5,495C 137.777,496.66 247.111,496.994 356.5,496C 321.167,471.488 305.667,437.655 310,394.5C 317.402,357.612 338.235,331.612 372.5,316.5C 379.778,313.097 387.444,311.097 395.5,310.5C 395.666,302.493 395.5,294.493 395,286.5C 389.198,272.487 378.698,266.82 363.5,269.5C 319.499,269.667 275.499,269.5 231.5,269C 226.195,267.014 221.195,264.514 216.5,261.5C 213.103,257.59 210.269,253.256 208,248.5C 205.844,240.876 203.844,233.21 202,225.5C 200.268,217.435 195.435,212.268 187.5,210C 182.511,209.501 177.511,209.334 172.5,209.5C 125.499,209.333 78.4988,209.5 31.5,210C 23.3333,212.833 17.8333,218.333 15,226.5C 14.6667,264.5 14.3333,302.5 14,340.5C 12.4583,343.892 9.95832,345.892 6.5,346.5C 3.70516,345.937 1.37183,344.604 -0.5,342.5C -0.5,302.833 -0.5,263.167 -0.5,223.5C 4.15093,208.683 13.9843,199.017 29,194.5C 29.3333,139.167 29.6667,83.8333 30,28.5C 34.3761,13.6251 43.8761,3.9584 58.5,-0.5 Z"/></g>
<g><path style="opacity:1" fill="#f6f5f6" d="M 333.5,14.5 C 337.348,18.8548 340.181,23.8548 342,29.5C 342.5,104.499 342.667,179.499 342.5,254.5C 306.165,254.667 269.832,254.5 233.5,254C 229.096,252.223 225.596,249.39 223,245.5C 220.18,235.889 217.514,226.222 215,216.5C 210.148,204.979 201.648,197.813 189.5,195C 141.168,194.5 92.8345,194.333 44.5,194.5C 44.3333,140.166 44.5,85.8323 45,31.5C 47.8333,23.3333 53.3333,17.8333 61.5,15C 152.166,14.5 242.833,14.3333 333.5,14.5 Z"/></g>
<g><path style="opacity:1" fill="#e1d7eb" d="M 333.5,14.5 C 348.741,11.8285 359.241,17.4951 365,31.5C 365.5,105.833 365.667,180.166 365.5,254.5C 357.833,254.5 350.167,254.5 342.5,254.5C 342.667,179.499 342.5,104.499 342,29.5C 340.181,23.8548 337.348,18.8548 333.5,14.5 Z"/></g>
<g><path style="opacity:1" fill="#000000" d="M 239.5,50.5 C 240.154,54.6826 238.488,57.516 234.5,59C 188.168,59.5 141.835,59.6667 95.5,59.5C 95.5,69.5 95.5,79.5 95.5,89.5C 168.5,89.5 241.5,89.5 314.5,89.5C 314.5,79.5 314.5,69.5 314.5,59.5C 297.83,59.6666 281.163,59.4999 264.5,59C 261.037,56.8504 259.704,53.6838 260.5,49.5C 261.023,47.2921 262.356,45.7921 264.5,45C 282.833,44.3333 301.167,44.3333 319.5,45C 324.235,46.0681 327.402,48.9014 329,53.5C 329.667,67.5 329.667,81.5 329,95.5C 327.402,100.099 324.235,102.932 319.5,104C 242.833,104.667 166.167,104.667 89.5,104C 85.3333,102.5 82.5,99.6667 81,95.5C 80.3333,81.5 80.3333,67.5 81,53.5C 82.5,49.3333 85.3333,46.5 89.5,45C 137.833,44.3333 186.167,44.3333 234.5,45C 237.079,46.0757 238.746,47.909 239.5,50.5 Z"/></g>
<g><path style="opacity:1" fill="#e1dee2" d="M 260.5,49.5 C 259.704,53.6838 261.037,56.8504 264.5,59C 281.163,59.4999 297.83,59.6666 314.5,59.5C 314.5,69.5 314.5,79.5 314.5,89.5C 241.5,89.5 168.5,89.5 95.5,89.5C 95.5,79.5 95.5,69.5 95.5,59.5C 141.835,59.6667 188.168,59.5 234.5,59C 238.488,57.516 240.154,54.6826 239.5,50.5C 245.882,52.3993 252.549,53.0659 259.5,52.5C 259.263,51.209 259.596,50.209 260.5,49.5 Z"/></g>
<g><path style="opacity:1" fill="#000000" d="M 85.5,134.5 C 165.167,134.333 244.834,134.5 324.5,135C 329.453,137.64 330.62,141.473 328,146.5C 327.097,147.701 325.931,148.535 324.5,149C 244.833,149.667 165.167,149.667 85.5,149C 78.9022,144.129 78.9022,139.295 85.5,134.5 Z"/></g>
<g><path style="opacity:1" fill="#000000" d="M 85.5,164.5 C 165.167,164.333 244.834,164.5 324.5,165C 329.453,167.64 330.62,171.473 328,176.5C 327.097,177.701 325.931,178.535 324.5,179C 244.833,179.667 165.167,179.667 85.5,179C 78.9022,174.129 78.9022,169.295 85.5,164.5 Z"/></g>
<g><path style="opacity:1" fill="#010101" d="M 235.5,194.5 C 265.169,194.333 294.835,194.5 324.5,195C 329.453,197.64 330.62,201.473 328,206.5C 327.097,207.701 325.931,208.535 324.5,209C 294.833,209.667 265.167,209.667 235.5,209C 228.902,204.129 228.902,199.295 235.5,194.5 Z"/></g>
<g><path style="opacity:1" fill="#f6df7e" d="M 172.5,209.5 C 174.563,212.618 176.396,215.952 178,219.5C 180.489,228.457 182.823,237.457 185,246.5C 191.874,258.858 202.374,263.858 216.5,261.5C 221.195,264.514 226.195,267.014 231.5,269C 275.499,269.5 319.499,269.667 363.5,269.5C 367.089,273.672 369.922,278.339 372,283.5C 372.5,294.495 372.667,305.495 372.5,316.5C 338.235,331.612 317.402,357.612 310,394.5C 305.667,437.655 321.167,471.488 356.5,496C 247.111,496.994 137.777,496.66 28.5,495C 21.8513,491.686 17.3513,486.519 15,479.5C 14.6667,443.167 14.3333,406.833 14,370.5C 12.1642,367.676 9.66418,366.01 6.5,365.5C 6.5,359.167 6.5,352.833 6.5,346.5C 9.95832,345.892 12.4583,343.892 14,340.5C 14.3333,302.5 14.6667,264.5 15,226.5C 17.8333,218.333 23.3333,212.833 31.5,210C 78.4988,209.5 125.499,209.333 172.5,209.5 Z"/></g>
<g><path style="opacity:1" fill="#edce6d" d="M 172.5,209.5 C 177.511,209.334 182.511,209.501 187.5,210C 195.435,212.268 200.268,217.435 202,225.5C 203.844,233.21 205.844,240.876 208,248.5C 210.269,253.256 213.103,257.59 216.5,261.5C 202.374,263.858 191.874,258.858 185,246.5C 182.823,237.457 180.489,228.457 178,219.5C 176.396,215.952 174.563,212.618 172.5,209.5 Z"/></g>
<g><path style="opacity:1" fill="#010101" d="M 235.5,224.5 C 265.169,224.333 294.835,224.5 324.5,225C 329.453,227.64 330.62,231.473 328,236.5C 327.097,237.701 325.931,238.535 324.5,239C 294.833,239.667 265.167,239.667 235.5,239C 228.902,234.129 228.902,229.295 235.5,224.5 Z"/></g>
<g><path style="opacity:1" fill="#eecf6e" d="M 363.5,269.5 C 378.698,266.82 389.198,272.487 395,286.5C 395.5,294.493 395.666,302.493 395.5,310.5C 387.444,311.097 379.778,313.097 372.5,316.5C 372.667,305.495 372.5,294.495 372,283.5C 369.922,278.339 367.089,273.672 363.5,269.5 Z"/></g>
<g><path style="opacity:1" fill="#bde49e" d="M 419.5,324.5 C 462.751,348.68 479.918,385.347 471,434.5C 462.646,462.006 445.813,482.34 420.5,495.5C 379.363,498.348 349.529,481.348 331,444.5C 315.023,397.425 327.856,360.592 369.5,334C 385.148,325.637 401.814,322.471 419.5,324.5 Z"/></g>
<g><path style="opacity:1" fill="#a2d6a4" d="M 419.5,324.5 C 459.022,331.187 484.188,353.853 495,392.5C 500.831,432.327 486.997,463.16 453.5,485C 443.202,490.822 432.202,494.322 420.5,495.5C 445.813,482.34 462.646,462.006 471,434.5C 479.918,385.347 462.751,348.68 419.5,324.5 Z"/></g>
<g><path style="opacity:1" fill="#030201" d="M 119.5,342.5 C 129.506,342.334 139.506,342.5 149.5,343C 166.034,350.231 171.534,362.398 166,379.5C 162.285,386.881 156.451,391.715 148.5,394C 142.509,394.499 136.509,394.666 130.5,394.5C 130.941,403.276 130.441,411.942 129,420.5C 126.441,423.349 123.274,424.183 119.5,423C 117.741,421.992 116.574,420.492 116,418.5C 115.333,394.5 115.333,370.5 116,346.5C 117.032,344.973 118.199,343.64 119.5,342.5 Z"/></g>
<g><path style="opacity:1" fill="#030301" d="M 257.5,342.5 C 268.172,342.333 278.839,342.5 289.5,343C 295.353,346.451 296.019,350.785 291.5,356C 283.585,357.401 275.585,357.901 267.5,357.5C 267.5,363.5 267.5,369.5 267.5,375.5C 274.508,375.334 281.508,375.5 288.5,376C 294.078,381.459 293.411,386.126 286.5,390C 280.175,390.5 273.842,390.666 267.5,390.5C 267.951,400.938 267.451,411.271 266,421.5C 260.536,424.916 256.203,423.916 253,418.5C 252.333,394.833 252.333,371.167 253,347.5C 254.025,345.313 255.525,343.646 257.5,342.5 Z"/></g>
<g><path style="opacity:1" fill="#030201" d="M 184.5,344.5 C 228.244,338.74 246.077,357.407 238,400.5C 233.741,411.759 225.908,419.259 214.5,423C 204.833,423.667 195.167,423.667 185.5,423C 183.951,421.786 182.785,420.286 182,418.5C 181.333,395.167 181.333,371.833 182,348.5C 182.662,347.016 183.496,345.683 184.5,344.5 Z"/></g>
<g><path style="opacity:1" fill="#050504" d="M 395.5,349.5 C 405.506,349.334 415.506,349.5 425.5,350C 430,351.833 433.167,355 435,359.5C 435.5,380.497 435.667,401.497 435.5,422.5C 441.245,422.211 446.912,422.711 452.5,424C 458.491,428.257 459.991,433.757 457,440.5C 444.53,453.971 431.696,467.138 418.5,480C 412.254,483.564 406.254,483.231 400.5,479C 387.269,466.438 374.769,453.272 363,439.5C 360.561,431.642 363.061,426.142 370.5,423C 375.489,422.501 380.489,422.334 385.5,422.5C 385.333,401.164 385.5,379.831 386,358.5C 387.871,354.006 391.038,351.006 395.5,349.5 Z"/></g>
<g><path style="opacity:1" fill="#f0da7b" d="M 130.5,356.5 C 136.762,355.872 142.762,356.705 148.5,359C 155.837,366.978 154.837,373.644 145.5,379C 140.511,379.499 135.511,379.666 130.5,379.5C 130.5,371.833 130.5,364.167 130.5,356.5 Z"/></g>
<g><path style="opacity:1" fill="#f5de7e" d="M 210.5,359.5 C 217.318,360.815 221.818,364.815 224,371.5C 226.513,381.433 225.846,391.1 222,400.5C 215.196,408.032 206.696,410.698 196.5,408.5C 196.5,392.167 196.5,375.833 196.5,359.5C 201.167,359.5 205.833,359.5 210.5,359.5 Z"/></g>
<g><path style="opacity:1" fill="#4b4426" d="M 210.5,359.5 C 205.833,359.5 201.167,359.5 196.5,359.5C 196.5,375.833 196.5,392.167 196.5,408.5C 195.503,392.008 195.17,375.342 195.5,358.5C 200.695,358.179 205.695,358.513 210.5,359.5 Z"/></g>
<g><path style="opacity:1" fill="#fdfdfd" d="M 400.5,365.5 C 406.833,365.5 413.167,365.5 419.5,365.5C 419.17,385.674 419.503,405.674 420.5,425.5C 421.056,431.225 424.056,435.058 429.5,437C 432.833,437.333 436.167,437.667 439.5,438C 429.986,447.681 420.319,457.181 410.5,466.5C 400.681,457.181 391.014,447.681 381.5,438C 390.404,439.156 396.571,435.656 400,427.5C 400.5,406.836 400.667,386.169 400.5,365.5 Z"/></g>
<g><path style="opacity:1" fill="#b3b3b3" d="M 400.5,365.5 C 406.979,364.509 413.646,364.176 420.5,364.5C 420.5,384.833 420.5,405.167 420.5,425.5C 419.503,405.674 419.17,385.674 419.5,365.5C 413.167,365.5 406.833,365.5 400.5,365.5 Z"/></g>
</svg>
