<?xml version="1.0" encoding="UTF-8"?>
<svg version="1.1" xmlns="http://www.w3.org/2000/svg" width="512" height="512">
<path d="M0 0 C1.04172363 0.20399414 2.08344727 0.40798828 3.15673828 0.61816406 C51.82787435 10.46562997 96.16911305 32.48973717 132 67 C132.9890332 67.94818604 132.9890332 67.94818604 133.99804688 68.91552734 C142.95338942 77.54637138 151.41229184 86.27601839 158.76904297 96.3203125 C159.99785707 97.9970759 161.24944508 99.65487153 162.50390625 101.3125 C169.51320955 110.7079491 175.37167531 120.73000668 181 131 C181.36335449 131.66193359 181.72670898 132.32386719 182.10107422 133.00585938 C199.75171428 165.62025412 211.00784875 203.57304723 211.203125 240.79296875 C211.21013931 241.69355515 211.21715363 242.59414154 211.22438049 243.52201843 C211.24177809 246.41056381 211.24823227 249.29890416 211.25 252.1875 C211.25101212 253.66805878 211.25101212 253.66805878 211.25204468 255.17852783 C211.23631228 269.64968559 210.87100014 283.76994611 208 298 C207.82307617 298.90186035 207.64615234 299.8037207 207.46386719 300.73291016 C206.16498713 307.20599895 204.65342874 313.60888488 203 320 C202.79036621 320.82000488 202.58073242 321.64000977 202.36474609 322.48486328 C194.27302651 353.42525679 179.3219852 382.59530381 160 408 C159.29488281 408.93585938 158.58976562 409.87171875 157.86328125 410.8359375 C124.40505184 453.86335625 124.40505184 453.86335625 108.0625 457.125 C104.9688083 456.99872687 103.65803735 456.41761992 101 455 C96.20421969 455.13321612 91.30455111 457.55708099 88 461 C87.62618324 463.36026163 87.80935996 465.40201164 88.01953125 467.77734375 C87.99679253 470.36500952 87.52704002 471.43576023 86 473.5 C82.76144254 476.19879788 81.03281437 476.94382345 76.92578125 477.18359375 C74.07228748 476.91155682 72.26832673 475.68504271 70 474 C66.99526041 472.63001754 66.99526041 472.63001754 64.15234375 474.21484375 C63.09144531 474.78332031 62.03054688 475.35179687 60.9375 475.9375 C55.18223235 479 55.18223235 479 53 479 C53.0825 480.216875 53.165 481.43375 53.25 482.6875 C53.45758837 485.7494285 53.0487709 486.9206724 51.41015625 489.5859375 C34.77444421 506.2486118 -9.37625972 509.08857604 -31.9140625 509.203125 C-32.83830521 509.21013931 -33.76254791 509.21715363 -34.71479797 509.22438049 C-37.6849153 509.24180807 -40.65483341 509.24823363 -43.625 509.25 C-44.6382132 509.25067474 -45.65142639 509.25134949 -46.69534302 509.25204468 C-61.35464261 509.23650453 -75.58532646 508.91191178 -90 506 C-90.88977539 505.82839355 -91.77955078 505.65678711 -92.69628906 505.47998047 C-118.79434649 500.35112092 -143.51550963 491.40843078 -167 479 C-167.65323242 478.65743164 -168.30646484 478.31486328 -168.97949219 477.96191406 C-198.64098821 462.27596767 -226.74505807 438.83435334 -247 412 C-247.48146484 411.36787598 -247.96292969 410.73575195 -248.45898438 410.08447266 C-272.47845218 378.37611617 -289.03962928 341.96917884 -297 303 C-297.19899902 302.05737305 -297.39799805 301.11474609 -297.60302734 300.14355469 C-303.55923781 270.84543833 -303.83217563 237.34049226 -298 208 C-297.80664062 207.02256836 -297.61328125 206.04513672 -297.4140625 205.03808594 C-287.20201862 155.38044664 -264.93719337 111.68243707 -230 75 C-229.42975098 74.40106934 -228.85950195 73.80213867 -228.27197266 73.18505859 C-219.74471462 64.295329 -210.94812134 56.26449038 -201 49 C-200.33210449 48.50902832 -199.66420898 48.01805664 -198.97607422 47.51220703 C-167.75749959 24.67941515 -132.96132316 8.75449251 -95 1 C-94.05737305 0.80100098 -93.11474609 0.60200195 -92.14355469 0.39697266 C-62.80836927 -5.56677383 -29.38277827 -5.7786989 0 0 Z " fill="#010101" transform="translate(301,3)"/>
<path d="M0 0 C-2.45889858 4.36952923 -5.39270221 8.20996962 -8.5 12.125 C-8.98597656 12.74503906 -9.47195312 13.36507812 -9.97265625 14.00390625 C-12.66658116 17.41718985 -12.66658116 17.41718985 -14 19 C-14.40419159 19.48141953 -14.80838318 19.96283905 -15.224823 20.45884705 C-17.5539865 22.48095369 -19.78888507 23.20347791 -22.70556641 24.20483398 C-23.87753571 24.61213242 -25.049505 25.01943085 -26.25698853 25.43907166 C-27.53849222 25.87480734 -28.82001743 26.31047977 -30.1015625 26.74609375 C-31.42123123 27.20217502 -32.74059341 27.65914415 -34.05966187 28.11695862 C-37.53561886 29.321286 -41.01485595 30.5158178 -44.49511719 31.7076416 C-50.04411905 33.60914792 -55.58876484 35.52324235 -61.13199997 37.44148445 C-63.05646922 38.10553404 -64.98275291 38.76408365 -66.90933228 39.42198181 C-78.47613379 42.6445531 -78.47613379 42.6445531 -87.91455078 49.35424805 C-88.29595215 50.25183838 -88.67735352 51.14942871 -89.0703125 52.07421875 C-89.53727539 53.13560059 -90.00423828 54.19698242 -90.48535156 55.29052734 C-90.9903754 56.52696064 -91.49524802 57.7634557 -92 59 C-92.61974526 60.44452187 -93.24194787 61.88799119 -93.86621094 63.33056641 C-95.5755427 67.31243808 -97.22886603 71.31492589 -98.86132812 75.32885742 C-99.88236795 77.83055255 -100.92143626 80.32428843 -101.9609375 82.81835938 C-102.61830237 84.42662809 -103.27459162 86.03533697 -103.9296875 87.64453125 C-104.23897186 88.38008743 -104.54825623 89.11564362 -104.86691284 89.87348938 C-106.67608137 94.39089831 -107.52278224 98.0535894 -107 103 C-106.09444216 105.1959264 -106.09444216 105.1959264 -104.61328125 106.98828125 C-104.09290283 107.68614746 -103.57252441 108.38401367 -103.03637695 109.10302734 C-102.46749756 109.83215332 -101.89861816 110.5612793 -101.3125 111.3125 C-100.12461939 112.89424549 -98.93713137 114.47628587 -97.75 116.05859375 C-97.13382813 116.86796387 -96.51765625 117.67733398 -95.8828125 118.51123047 C-92.79838873 122.58833315 -89.80681747 126.7315373 -86.8125 130.875 C-86.26053955 131.62950439 -85.7085791 132.38400879 -85.13989258 133.16137695 C-84.62579834 133.86866943 -84.1117041 134.57596191 -83.58203125 135.3046875 C-82.90491089 136.2325708 -82.90491089 136.2325708 -82.21411133 137.17919922 C-80.96317278 139.05522971 -79.96505847 140.96424639 -79 143 C-79.6290625 143.73863281 -80.258125 144.47726563 -80.90625 145.23828125 C-85.07588667 150.16871675 -89.14633603 155.09665923 -92.875 160.375 C-96.02564771 164.81658247 -99.46304148 168.86410723 -103.0625 172.9375 C-108.24617926 178.87508092 -112.53467179 184.87628909 -116 192 C-116.43183594 192.84820312 -116.86367187 193.69640625 -117.30859375 194.5703125 C-122.9749995 208.02067356 -121.8761498 226.42162101 -116.546875 239.8046875 C-109.12540217 255.13490158 -98.82486984 264.48253801 -83.28515625 271.16796875 C-71.62831727 274.99371097 -58.42236226 273.76634605 -46.78125 270.6796875 C-42.96514462 269.74709995 -39.90512959 269.56609671 -36 270 C-34.34375 271.08203125 -34.34375 271.08203125 -33 273 C-32.4453125 276.22265625 -32.4453125 276.22265625 -32.125 280.0625 C-31.02997133 290.18513466 -27.46477095 297.00733634 -20.453125 304.30859375 C-17.46551902 307.78610286 -17.68030802 311.71844751 -17.69921875 316.07421875 C-18.03626888 319.35279727 -18.91499277 322.07816832 -20 325.1875 C-24.60955579 339.36437121 -21.4801148 350.81903277 -16 364 C-15.6896582 364.75829102 -15.37931641 365.51658203 -15.05957031 366.29785156 C-13.43365459 370.26071036 -11.77301148 374.20678464 -10.078125 378.140625 C-8.65350616 381.44863825 -7.2722286 384.77036507 -5.921875 388.109375 C-0.13762659 403.45683262 -0.13762659 403.45683262 11 415 C18.56514106 417.52171369 26.85697815 416.4982481 34.140625 413.51953125 C46.72778891 406.83045097 57.73086698 396.82184651 62 383 C62.27328125 381.86433594 62.5465625 380.72867187 62.828125 379.55859375 C64.11517164 375.65026212 65.77066766 373.34990356 68.375 370.1875 C71.1983982 366.64802255 73.46013999 363.40612023 74.875 359.0625 C76.75485799 353.60739809 80.22384489 349.94145817 83.98925781 345.69580078 C91.05682743 337.66272928 93.2855544 330.63670684 93.234375 320.09375 C93.01476354 317.19487868 92.5100462 315.01866152 91.5 312.3125 C89.78639745 307.71805837 89.10011504 303.86349656 90 299 C94.16444573 290.416079 101.69680308 284.08237642 108.47753906 277.58398438 C121.39406652 265.17797889 121.39406652 265.17797889 126.375 248.5 C126.22070579 243.90974732 125.2910102 241.36936759 122 238 C116.59485299 234.89626324 110.81898132 233.71727446 104.75 232.5625 C98.00591078 231.16264581 94.3774879 229.6114225 90.484375 223.69775391 C84.78210504 214.2034078 80.6753069 204.19596325 76.47680664 193.97338867 C70.30476363 179.00119677 64.74029028 166.58563959 49 160 C44.04007907 158.18450152 39.04783815 156.55230937 34 155 C33.21238281 154.74992188 32.42476563 154.49984375 31.61328125 154.2421875 C23.92096975 152.02655214 16.88302233 151.93080505 9.7890625 155.734375 C7.60995995 157.27592353 5.83910862 159.07177158 4 161 C-6.37790058 155.68282195 -6.37790058 155.68282195 -7.84765625 151.70703125 C-7.94837267 150.16529533 -7.99743372 148.61923199 -7.9921875 147.07421875 C-8.0040203 143.93260997 -8.97887867 142.35797488 -11 140 C-17.13375031 135.61874978 -22.47487344 134.85355282 -29.828125 134.68359375 C-30.57713074 134.66281265 -31.32613647 134.64203156 -32.09783936 134.62062073 C-34.48180288 134.55542912 -36.86587312 134.49638217 -39.25 134.4375 C-40.86980254 134.39428584 -42.48959443 134.35067063 -44.109375 134.30664062 C-48.07280832 134.19977904 -52.0363486 134.09842667 -56 134 C-54.84678326 127.66087725 -52.11627342 124.26743775 -46.90625 120.4765625 C-40.55780986 116.81562868 -34.58334735 116.44101901 -27.41796875 116.43359375 C-23.37228129 115.9203694 -21.75864011 114.97004991 -19 112 C-18.22003113 109.83728572 -18.22003113 109.83728572 -18.375 107.5625 C-18.36210937 106.82128906 -18.34921875 106.08007812 -18.3359375 105.31640625 C-19.36708414 101.71952414 -21.03959196 100.24367767 -24 98 C-26.94896491 97.51453645 -29.19947249 97.32903888 -32.125 97.4375 C-32.87982666 97.45409668 -33.63465332 97.47069336 -34.41235352 97.48779297 C-40.83895482 97.75262356 -46.23281541 99.09370225 -52 102 C-52.84949219 102.4125 -53.69898438 102.825 -54.57421875 103.25 C-60.66418912 106.53280179 -64.7976684 110.70860567 -69.1875 116.0234375 C-69.785625 116.67570312 -70.38375 117.32796875 -71 118 C-71.66 118 -72.32 118 -73 118 C-74.20507813 116.57885742 -74.20507813 116.57885742 -75.53125 114.60546875 C-76.01207031 113.89712891 -76.49289063 113.18878906 -76.98828125 112.45898438 C-77.73658203 111.33459961 -77.73658203 111.33459961 -78.5 110.1875 C-79.24830078 109.08051758 -79.24830078 109.08051758 -80.01171875 107.95117188 C-81.34795655 105.97189202 -82.6761839 103.98760153 -84 102 C-84.66 101.01 -85.32 100.02 -86 99 C-85.51973653 91.96685513 -82.85852113 85.75637038 -80.23706055 79.30151367 C-79.4389876 77.31620061 -78.67978416 75.31855261 -77.91992188 73.31835938 C-77.40598212 72.04072439 -76.88977988 70.7639967 -76.37109375 69.48828125 C-75.6893811 67.76411987 -75.6893811 67.76411987 -74.99389648 66.00512695 C-70.23033735 58.825667 -59.5391913 56.99812324 -51.7421875 54.41015625 C-50.46732226 53.98033101 -49.19276064 53.54960432 -47.91848755 53.11802673 C-42.54768855 51.30019095 -37.17305198 49.49403411 -31.79345703 47.70239258 C-28.48650887 46.60035691 -25.18417412 45.48533645 -21.88431168 44.36227226 C-20.03202147 43.73612177 -18.17484217 43.12449397 -16.31759644 42.51319885 C-8.46513982 39.83470949 -3.06204554 37.20231585 1.9375 30.390625 C2.43185547 29.72579102 2.92621094 29.06095703 3.43554688 28.37597656 C4.20995117 27.32361816 4.20995117 27.32361816 5 26.25 C5.56267578 25.52006836 6.12535156 24.79013672 6.70507812 24.03808594 C9.72457661 20.12076316 12.55960321 16.17121065 15.21875 12 C22.84061345 0.62682229 22.84061345 0.62682229 28.44140625 -0.484375 C34.02625431 -0.51766769 39.25477016 0.77559845 44.59375 2.31591797 C47.69443522 3.19742365 50.82902796 3.74248003 54 4.3125 C56.33880427 4.85180075 58.67177713 5.4167085 61 6 C61.74088867 6.18369141 62.48177734 6.36738281 63.24511719 6.55664062 C103.94388234 16.84152713 139.86601195 38.05551148 170 67 C170.8971875 67.8559375 171.794375 68.711875 172.71875 69.59375 C178.63628347 75.36517153 183.9138642 81.48902473 189 88 C190.05960937 89.33417969 190.05960937 89.33417969 191.140625 90.6953125 C207.65459536 112.02090732 220.44757107 136.42153745 229 162 C229.46599609 163.36318359 229.46599609 163.36318359 229.94140625 164.75390625 C232.40614673 172.34707535 232.40614673 172.34707535 231 176 C229.3777546 177.70993434 227.70586575 179.37347684 226 181 C221.56731586 186.06592473 219.92597158 190.36387033 219 197 C217.35677544 194.53516316 216.45299562 192.77319224 215.484375 190.05078125 C211.19369344 178.20871724 211.19369344 178.20871724 204 168 C203.12607459 166.9317539 202.25671694 165.85976321 201.390625 164.78515625 C200.42814384 163.60590447 199.46459373 162.42752439 198.5 161.25 C198.04915039 160.69401123 197.59830078 160.13802246 197.13378906 159.56518555 C192.39606945 153.91840529 186.67524603 149.47506983 179.14086914 148.70947266 C175.78100854 148.66034648 172.42274638 148.62869868 169.0625 148.625 C167.89525391 148.60050781 166.72800781 148.57601562 165.52539062 148.55078125 C156.92617934 148.48449617 156.92617934 148.48449617 150 153 C147.95368359 155.92834934 147.72800049 158.34407806 147.75 161.875 C147.74484375 162.69742188 147.7396875 163.51984375 147.734375 164.3671875 C148.04567857 167.45275528 148.93354753 170.09687939 150 173 C140.08066452 181.59371 129.60079464 188.15287841 117 192 C116.39414062 190.84886719 115.78828125 189.69773438 115.1640625 188.51171875 C114.56368164 187.37234863 114.56368164 187.37234863 113.95117188 186.20996094 C113.05624664 184.50775779 112.16438847 182.8039391 111.27539062 181.09863281 C108.97805479 176.70211845 106.64372056 172.340757 104.1796875 168.03515625 C96.64131875 154.66211996 96.64131875 154.66211996 96.5625 146.5 C95.89705718 136.49653984 87.82093186 130.50905643 80.8671875 124.01953125 C74.94600175 118.87262306 69.01590103 116.1387207 61.5625 113.8125 C56.09489051 112.09489051 56.09489051 112.09489051 55 111 C50.3856318 110.58051198 47.63727677 111.06997149 44 114 C42.2700452 116.90946943 41.99336662 118.6749642 42.0625 122.0625 C43.2773883 125.86915 44.70622837 126.77173033 48 129 C49.81253223 129.63959932 51.62818254 130.27493066 53.47045898 130.82299805 C60.62728239 132.98993231 66.04328613 135.98364317 71.4375 141.1875 C71.98664063 141.69144287 72.53578125 142.19538574 73.1015625 142.71459961 C76.30283015 146.0398238 77.23196424 148.30762749 77.3515625 152.921875 C77.72467847 161.17609971 82.09209051 167.95779107 85.9375 175.0625 C86.71496879 176.53183626 87.49092239 178.00197522 88.26538086 179.47290039 C92.81645646 188.08287394 97.45009236 196.65779549 102.30639648 205.09985352 C105 209.80368005 105 209.80368005 105 212 C114.84664959 215.28221653 123.13504734 211.02850381 132 207 C133.18335938 206.47019531 134.36671875 205.94039062 135.5859375 205.39453125 C146.9816771 200.00396229 166.06045092 189.87909815 172 178 C172.06996014 176.29297265 172.08440154 174.58331997 172.0625 172.875 C172.04896484 171.50988281 172.04896484 171.50988281 172.03515625 170.1171875 C172.02355469 169.41851562 172.01195312 168.71984375 172 168 C174.6875 167.6875 174.6875 167.6875 178 168 C179.98524543 169.60965845 181.35896196 171.07393956 183 173 C183.71671875 173.73992187 184.4334375 174.47984375 185.171875 175.2421875 C185.96078125 176.06976563 186.7496875 176.89734375 187.5625 177.75 C188.30628906 178.52859375 189.05007813 179.3071875 189.81640625 180.109375 C196.45479626 188.89722582 199.2330143 200.85074146 202.79101562 211.16894531 C203.55732554 213.38515921 204.33977747 215.59511588 205.125 217.8046875 C205.35429199 218.48280487 205.58358398 219.16092224 205.81982422 219.85958862 C207.19713754 223.69002748 208.34661325 226.06304519 212 228 C216.16415951 228.69402658 218.49131625 228.95775991 222.0859375 226.67578125 C224.18906129 224.88288836 226.0999924 223.0062192 228 221 C228.85658203 220.13761719 228.85658203 220.13761719 229.73046875 219.2578125 C233.53881154 215.17677356 235.32306974 211.31027916 237 206 C239.07106986 209.10660479 239.26028232 209.85491832 239.32226562 213.39086914 C239.34118362 214.28322266 239.36010162 215.17557617 239.3795929 216.0949707 C239.38838974 217.06523193 239.39718658 218.03549316 239.40625 219.03515625 C239.42032394 220.04852051 239.43439789 221.06188477 239.44889832 222.10595703 C240.19658159 292.14106648 218.97774127 353.03276802 169.29345703 403.87353516 C163.88664502 409.34680491 158.37638665 414.34019293 152.2421875 419 C149.77827916 421.1977719 148.36829178 422.99521306 147 426 C146.84872584 428.67835235 146.84872584 428.67835235 147.3125 431.3125 C147.43238281 432.19550781 147.55226563 433.07851563 147.67578125 433.98828125 C147.83626953 434.98408203 147.83626953 434.98408203 148 436 C147.2059375 436.40089844 146.411875 436.80179687 145.59375 437.21484375 C142.46044128 438.95952701 139.6981179 440.63155567 137 443 C136.38427678 445.50625365 136.59216229 447.30290462 136.9140625 449.84765625 C137.01760205 452.44085131 136.53497209 453.43521497 135 455.5 C131.76144254 458.19879788 130.03281437 458.94382345 125.92578125 459.18359375 C123.07228748 458.91155682 121.26832673 457.68504271 119 456 C115.99904863 454.62316953 115.99904863 454.62316953 113.22265625 456.25 C111.11787812 457.41556317 109.01370971 458.58222806 106.91015625 459.75 C104 461 104 461 101.73046875 460.81640625 C100 460 100 460 98.25 457.9375 C95.49760272 455.56738012 93.72378041 455.67558006 90.18066406 455.76635742 C86.66178092 456.14338062 83.50778965 457.38477783 80.25 458.6875 C25.74948319 479.05784756 -38.3571552 475.22152031 -91.22558594 452.0234375 C-95.91264845 449.8571296 -100.46017005 447.45658925 -105 445 C-106.09006348 444.42378906 -106.09006348 444.42378906 -107.20214844 443.8359375 C-117.71892864 438.27482558 -127.50761967 432.17269896 -137 425 C-136.07052064 416.46063985 -135.03728027 407.95657631 -133.70288086 399.47021484 C-133.44259166 397.73983702 -133.20558014 396.00579776 -132.99194336 394.26904297 C-131.23744119 380.18247892 -131.23744119 380.18247892 -127.48187256 376.51916504 C-123.62703464 373.85850115 -119.47856614 372.34940566 -115 371 C-111.95072841 370.35897871 -111.95072841 370.35897871 -111.0625 368.3125 C-110.711875 367.549375 -110.36125 366.78625 -110 366 C-109.34 365.030625 -108.68 364.06125 -108 363.0625 C-104.43998206 357.61122253 -103.658914 353.21043627 -103.6875 346.75 C-103.67138672 346.03714844 -103.65527344 345.32429688 -103.63867188 344.58984375 C-103.6350793 340.6020907 -104.08459942 337.45877078 -105.5234375 333.73046875 C-107.94235481 327.10371041 -107.10059124 320.2644477 -106.79492188 313.32617188 C-106.5637354 304.09562884 -108.47364987 297.14160431 -114 289.6875 C-119.9770619 283.49919059 -127.33216156 281.39488633 -135.5859375 280.0078125 C-148.97157925 277.74223855 -157.34487409 274.97988508 -167.21826172 265.62158203 C-170.31688111 262.80149023 -173.68987049 260.35469719 -177.0625 257.875 C-178.39853738 256.88815605 -179.73447588 255.90117821 -181.0703125 254.9140625 C-181.72290039 254.43356445 -182.37548828 253.95306641 -183.04785156 253.45800781 C-184.98990841 252.00753714 -186.89845149 250.52055909 -188.8046875 249.0234375 C-190.01527046 248.09849413 -191.22619245 247.17399425 -192.4375 246.25 C-192.96802979 245.81929199 -193.49855957 245.38858398 -194.04516602 244.94482422 C-197.88123333 242.07445937 -200.90329901 241.39873856 -205.54418945 241.63183594 C-210.18137223 242.32702151 -214.48550526 243.89423851 -218.875 245.5 C-220.7252076 246.16006029 -222.57671797 246.81648343 -224.4296875 247.46875 C-225.23647949 247.76201172 -226.04327148 248.05527344 -226.87451172 248.35742188 C-229 249 -229 249 -232 249 C-232 240.09 -232 231.18 -232 222 C-229.36 223.98 -226.72 225.96 -224 228 C-220.70293593 228.79739097 -220.70293593 228.79739097 -217.4140625 228.515625 C-216.2065332 228.46083984 -214.99900391 228.40605469 -213.75488281 228.34960938 C-207.56459965 227.77324491 -201.48836636 226.87286321 -195.375 225.75 C-194.13621094 225.54503906 -192.89742187 225.34007812 -191.62109375 225.12890625 C-190.43386719 224.91621094 -189.24664062 224.70351562 -188.0234375 224.484375 C-186.96044434 224.29584961 -185.89745117 224.10732422 -184.80224609 223.91308594 C-181.52496852 222.84521539 -180.08931661 221.72347482 -178 219 C-176.81881424 215.01877121 -177.36267758 211.33111989 -179.140625 207.61767578 C-180.66846733 205.18468739 -182.29209475 202.87240339 -184 200.5625 C-185.1284483 198.98292654 -186.25362825 197.40101133 -187.375 195.81640625 C-187.87773437 195.13006104 -188.38046875 194.44371582 -188.8984375 193.73657227 C-190 192 -190 192 -190 190 C-188.53466797 188.81420898 -188.53466797 188.81420898 -186.4921875 187.49609375 C-185.75226563 187.00173828 -185.01234375 186.50738281 -184.25 185.99804688 C-182.69556308 184.97666933 -181.13582637 183.96330133 -179.5703125 182.95898438 C-173.78667983 179.0650041 -170.45797988 175.01122973 -167 169 C-166.4009082 167.97672607 -165.80181641 166.95345215 -165.18457031 165.89916992 C-163.51338333 163.01217562 -161.86245129 160.11567988 -160.22393799 157.21014404 C-158.81351117 154.71280565 -157.39118242 152.22232092 -155.96954346 149.73135376 C-153.39859711 145.22630982 -150.83908397 140.71543043 -148.30859375 136.1875 C-144.38786558 129.27951011 -140.16168798 123.83733987 -134.36328125 118.390625 C-125.27536357 109.19755786 -121.7553938 98.75265997 -121.5 86.125 C-121.60272006 72.97277767 -126.48560867 64.60118312 -135.4765625 55.3984375 C-137.95278425 52.90786356 -137.95278425 52.90786356 -141 51 C-139.66580804 47.90927305 -138.38994558 46.24074984 -135.6484375 44.30078125 C-134.97031006 43.81834961 -134.29218262 43.33591797 -133.59350586 42.83886719 C-132.86139893 42.33516602 -132.12929199 41.83146484 -131.375 41.3125 C-130.61517822 40.78430664 -129.85535645 40.25611328 -129.07250977 39.71191406 C-121.6462765 34.62728588 -113.9565263 30.19212697 -106 26 C-105.36803711 25.6601709 -104.73607422 25.3203418 -104.08496094 24.97021484 C-71.59289139 7.55839592 -36.65056779 -0.32307063 0 0 Z " fill="#77D0F8" transform="translate(252,21)"/>
<path d="M0 0 C1.78473143 0.45953296 3.56326205 0.94397269 5.33398438 1.45483398 C8.4346696 2.33633967 11.56926234 2.88139604 14.74023438 3.45141602 C17.07903864 3.99071676 19.41201151 4.55562451 21.74023438 5.13891602 C22.48112305 5.32260742 23.22201172 5.50629883 23.98535156 5.69555664 C64.68411671 15.98044314 100.60624633 37.1944275 130.74023438 66.13891602 C131.63742187 66.99485352 132.53460938 67.85079102 133.45898438 68.73266602 C139.37651785 74.50408755 144.65409857 80.62794075 149.74023438 87.13891602 C150.79984375 88.4730957 150.79984375 88.4730957 151.88085938 89.83422852 C168.39482973 111.15982333 181.18780545 135.56045347 189.74023438 161.13891602 C190.20623047 162.50209961 190.20623047 162.50209961 190.68164062 163.89282227 C193.1463811 171.48599136 193.1463811 171.48599136 191.74023438 175.13891602 C190.11798898 176.84885035 188.44610013 178.51239286 186.74023438 180.13891602 C182.30755023 185.20484075 180.66620596 189.50278634 179.74023438 196.13891602 C178.09700982 193.67407918 177.19323 191.91210825 176.22460938 189.18969727 C171.93392782 177.34763325 171.93392782 177.34763325 164.74023438 167.13891602 C163.86630897 166.07066991 162.99695131 164.99867922 162.13085938 163.92407227 C161.16837822 162.74482049 160.2048281 161.5664404 159.24023438 160.38891602 C158.78938477 159.83292725 158.33853516 159.27693848 157.87402344 158.70410156 C153.13630382 153.05732131 147.41548041 148.61398585 139.88110352 147.84838867 C136.52124291 147.7992625 133.16298076 147.76761469 129.80273438 147.76391602 C128.63548828 147.73942383 127.46824219 147.71493164 126.265625 147.68969727 C117.66641372 147.62341219 117.66641372 147.62341219 110.74023438 152.13891602 C108.69391797 155.06726536 108.46823486 157.48299407 108.49023438 161.01391602 C108.48507812 161.83633789 108.47992188 162.65875977 108.47460938 163.50610352 C108.78591295 166.5916713 109.67378191 169.2357954 110.74023438 172.13891602 C100.82089889 180.73262602 90.34102902 187.29179442 77.74023438 191.13891602 C77.134375 189.9877832 76.52851563 188.83665039 75.90429688 187.65063477 C75.50404297 186.89105469 75.10378906 186.13147461 74.69140625 185.34887695 C73.79648102 183.64667381 72.90462285 181.94285512 72.015625 180.23754883 C69.71828917 175.84103446 67.38395494 171.47967301 64.91992188 167.17407227 C57.38155313 153.80103598 57.38155313 153.80103598 57.30273438 145.63891602 C56.63729155 135.63545585 48.56116624 129.64797244 41.60742188 123.15844727 C35.68623613 118.01153907 29.7561354 115.27763672 22.30273438 112.95141602 C16.83512489 111.23380653 16.83512489 111.23380653 15.74023438 110.13891602 C11.09256606 109.71640071 8.47891164 110.33490807 4.74023438 113.13891602 C4.08023438 114.12891602 3.42023438 115.11891602 2.74023438 116.13891602 C2.11117187 115.94555664 1.48210937 115.75219727 0.83398438 115.55297852 C-0.94910621 115.01053228 -2.7358266 114.47992087 -4.52539062 113.95922852 C-6.19603197 113.45803611 -7.85679869 112.91972556 -9.49414062 112.31860352 C-11.75582835 111.48429667 -11.75582835 111.48429667 -15.25976562 111.13891602 C-17.31703694 112.73435091 -19.31851219 114.4041789 -21.25976562 116.13891602 C-24.69968567 116.55407878 -27.18732347 116.43681661 -30.50976562 115.51391602 C-33.08050923 113.49404604 -34.01883171 111.11715741 -35.25976562 108.13891602 C-35.25976562 107.47891602 -35.25976562 106.81891602 -35.25976562 106.13891602 C-42.18976563 106.13891602 -49.11976563 106.13891602 -56.25976562 106.13891602 C-56.58976562 106.79891602 -56.91976562 107.45891602 -57.25976562 108.13891602 C-57.65039062 106.15323893 -58.04101562 104.16756185 -58.43164062 102.18188477 C-59.57321496 99.36564241 -60.55474157 98.55023291 -63.25976562 97.13891602 C-66.04774948 96.81418757 -68.53936514 96.66293852 -71.32226562 96.70141602 C-72.081604 96.70898926 -72.84094238 96.7165625 -73.62329102 96.72436523 C-80.10468111 96.91282972 -85.44172536 98.20699022 -91.25976562 101.13891602 C-92.10925781 101.55141602 -92.95875 101.96391602 -93.83398438 102.38891602 C-99.92395474 105.67171781 -104.05743402 109.84752168 -108.44726562 115.16235352 C-109.34445313 116.14075195 -109.34445313 116.14075195 -110.25976562 117.13891602 C-110.91976562 117.13891602 -111.57976562 117.13891602 -112.25976562 117.13891602 C-113.46484375 115.71777344 -113.46484375 115.71777344 -114.79101562 113.74438477 C-115.27183594 113.03604492 -115.75265625 112.32770508 -116.24804688 111.59790039 C-116.74691406 110.84831055 -117.24578125 110.0987207 -117.75976562 109.32641602 C-118.25863281 108.58842773 -118.7575 107.85043945 -119.27148438 107.09008789 C-120.60772217 105.11080804 -121.93594952 103.12651754 -123.25976562 101.13891602 C-123.91976562 100.14891602 -124.57976562 99.15891602 -125.25976562 98.13891602 C-124.77950215 91.10577115 -122.11828676 84.8952864 -119.49682617 78.44042969 C-118.69875323 76.45511663 -117.93954979 74.45746863 -117.1796875 72.45727539 C-116.66574775 71.17964041 -116.14954551 69.90291272 -115.63085938 68.62719727 C-114.94914673 66.90303589 -114.94914673 66.90303589 -114.25366211 65.14404297 C-109.49010297 57.96458301 -98.79895693 56.13703925 -91.00195312 53.54907227 C-89.72708789 53.11924702 -88.45252626 52.68852033 -87.17825317 52.25694275 C-81.80745418 50.43910697 -76.4328176 48.63295013 -71.05322266 46.84130859 C-67.74627449 45.73927292 -64.44393975 44.62425247 -61.1440773 43.50118828 C-59.29178709 42.87503779 -57.4346078 42.26340999 -55.57736206 41.65211487 C-47.72490545 38.97362551 -42.32181117 36.34123186 -37.32226562 29.52954102 C-36.82791016 28.86470703 -36.33355469 28.19987305 -35.82421875 27.51489258 C-35.04981445 26.46253418 -35.04981445 26.46253418 -34.25976562 25.38891602 C-33.69708984 24.65898438 -33.13441406 23.92905273 -32.5546875 23.17700195 C-29.53518902 19.25967917 -26.70016242 15.31012667 -24.04101562 11.13891602 C-17.11631852 0.80603466 -12.5534039 -2.77965056 0 0 Z " fill="#A4DB68" transform="translate(291.259765625,21.861083984375)"/>
<path d="M0 0 C1.24716797 0.01353516 2.49433594 0.02707031 3.77929688 0.04101562 C6.83248967 0.0761098 9.8847599 0.12527733 12.9375 0.1875 C13.07901489 1.1000354 13.07901489 1.1000354 13.22338867 2.03100586 C14.09077276 7.11008612 14.09077276 7.11008612 16.86328125 11.31640625 C17.65089844 11.78949219 18.43851562 12.26257813 19.25 12.75 C20.14332031 13.30300781 21.03664063 13.85601562 21.95703125 14.42578125 C22.94058594 15.00714844 23.92414063 15.58851563 24.9375 16.1875 C25.99324219 16.88230469 27.04898438 17.57710937 28.13671875 18.29296875 C36.86820937 23.96585437 45.30099558 28.42842552 55.9375 27.1875 C59.27956844 25.38792469 61.43521568 23.86917157 63.6875 20.8125 C65.9375 19.1875 65.9375 19.1875 68.0546875 19.27734375 C70.73262914 19.78206484 73.31501201 20.44734221 75.9375 21.1875 C76.81664062 21.41050781 77.69578125 21.63351563 78.6015625 21.86328125 C86.39605267 23.97085488 91.32800402 26.69984671 95.5612793 33.65209961 C98.34870297 38.78734794 100.46222574 44.22918943 102.6875 49.625 C113.09361134 76.84498868 113.09361134 76.84498868 134.296875 95.29296875 C138.76465507 96.80646229 143.27764454 97.54907348 147.9375 98.1875 C143.89144972 104.02481507 139.43467138 108.68709664 134.125 113.375 C123.94681325 122.6672147 115.10496716 132.59742742 113.66796875 146.86328125 C113.47775269 151.84412404 114.05689745 156.04427637 115.5 160.8125 C116.97606233 165.88871435 117.96812625 170.14594517 115.9375 175.1875 C113.86005122 177.91202299 111.61049325 180.32920345 109.22265625 182.78515625 C104.83580665 187.39697249 102.2279969 192.24370935 100.0625 198.1875 C98.67762625 201.88049668 97.14821355 204.32683208 94.4375 207.1875 C90.00997535 211.88937981 87.87564744 217.26313678 86.3828125 223.5078125 C84.1994195 232.09183704 77.42172975 237.19555769 70.125 241.75 C66.94880622 243.18240112 65.32599277 243.31981805 61.9375 243.1875 C57.82801376 235.25449693 54.1934861 227.25531322 50.9375 218.9375 C50.51033691 217.85210937 50.08317383 216.76671875 49.64306641 215.6484375 C48.79498186 213.48862749 47.94936157 211.32784791 47.10644531 209.16601562 C46.07770152 206.54473863 45.02556376 203.93496688 43.9609375 201.328125 C39.95762649 191.38734449 38.23966424 184.54281782 42.18359375 174.42578125 C45.64010399 164.16370681 45.11810425 152.81130553 40.64453125 143.0390625 C38.7866219 139.93546107 36.64047467 137.52749893 34.1875 134.875 C29.29061983 129.31072894 29.2842529 124.99205988 29.2109375 117.78515625 C28.78566314 112.18976079 26.65199755 108.32446186 22.9375 104.1875 C16.90800001 99.2842651 11.57190169 97.99335687 3.875 98 C3.10567139 97.99935547 2.33634277 97.99871094 1.54370117 97.99804688 C-3.35212307 98.04344067 -7.77108098 98.59949702 -12.5390625 99.73046875 C-23.59540922 101.73293402 -33.28957798 100.31490504 -42.75 94.4375 C-50.7518346 88.73184402 -55.62658008 81.80731933 -58.0625 72.1875 C-59.67946686 59.91374485 -58.55506402 48.77620581 -51.1484375 38.54296875 C-48.85428202 35.69404476 -46.46342786 32.94693745 -44.0625 30.1875 C-42.0387956 27.72714854 -40.05018568 25.2394835 -38.0625 22.75 C-37.29510498 21.80048462 -37.29510498 21.80048462 -36.51220703 20.83178711 C-34.10818036 17.8403564 -31.78058379 14.83611567 -29.61328125 11.66796875 C-28.87464844 10.60191406 -28.13601562 9.53585938 -27.375 8.4375 C-26.75238281 7.49390625 -26.12976563 6.5503125 -25.48828125 5.578125 C-18.63088665 -1.17988707 -9.00311319 -0.18666742 0 0 Z " fill="#A4DB68" transform="translate(209.0625,174.8125)"/>
<path d="M0 0 C2.46400593 1.58142741 4.65507226 3.40822148 6.875 5.3125 C8.19742296 6.40842056 9.52170507 7.50210087 10.84765625 8.59375 C11.52844238 9.15707031 12.20922852 9.72039062 12.91064453 10.30078125 C16.3084801 13.06415301 19.80364734 15.69242769 23.3125 18.3125 C23.93302246 18.77889893 24.55354492 19.24529785 25.19287109 19.72583008 C26.44596146 20.66161359 27.70670635 21.58722231 28.97436523 22.50317383 C30.40768952 23.56231703 31.80845301 24.6661942 33.18383789 25.79956055 C40.23500475 31.32155869 47.08671925 32.75596101 55.8125 34.1875 C58.38380657 34.62606696 60.95297498 35.07740738 63.51953125 35.54296875 C64.64464111 35.72883545 65.76975098 35.91470215 66.92895508 36.10620117 C70.42122659 37.12259405 72.36859412 38.51926645 75 41 C76.29884069 43.59768137 76.06478978 45.40840898 75.9921875 48.3125 C75.96705078 49.92705078 75.96705078 49.92705078 75.94140625 51.57421875 C75.89773771 53.82700175 75.84588886 56.07964368 75.78515625 58.33203125 C75.70246666 64.66906065 76.25532421 69.89420245 78.30566406 75.89599609 C79.13351091 78.40456997 79.43306521 80.67379921 79.4375 83.3125 C79.45683594 84.09238281 79.47617188 84.87226563 79.49609375 85.67578125 C78.77659678 89.04665286 77.45762786 90.5895586 75 93 C71.8518006 94.44872893 68.76491068 95.57754439 65.48828125 96.671875 C60.86750073 98.33203567 58.68026401 99.91424431 56 104 C55.21011759 106.68171054 54.6055243 109.16644546 54.11328125 111.8984375 C53.9659404 112.65162262 53.81859955 113.40480774 53.66679382 114.18081665 C53.20171873 116.57648895 52.75704985 118.97544389 52.3125 121.375 C52.00324801 122.9794168 51.6927132 124.58358689 51.38085938 126.1875 C50.11166207 132.77438062 48.90499224 139.35180868 48 146 C45.15094559 144.7040639 43.07840212 143.33419618 40.86328125 141.12890625 C40.00440308 140.27631226 40.00440308 140.27631226 39.12817383 139.40649414 C38.52900146 138.79797607 37.9298291 138.18945801 37.3125 137.5625 C36.68819092 136.93142334 36.06388184 136.30034668 35.4206543 135.65014648 C30.25178783 130.36640147 25.48516012 124.87930403 21 119 C20.58186035 118.45827148 20.1637207 117.91654297 19.73291016 117.35839844 C-3.52463698 87.10067749 -27 45.17738968 -27 6 C-23.63262723 4.7900607 -20.25516807 3.61116947 -16.875 2.4375 C-15.44800781 1.92413086 -15.44800781 1.92413086 -13.9921875 1.40039062 C-4.70634191 -1.7916188 -4.70634191 -1.7916188 0 0 Z " fill="#A4DA68" transform="translate(50,284)"/>
<path d="M0 0 C6.98857453 2.02379548 11.69532832 5.80319735 15.9375 11.6875 C18.69545542 17.69010886 19.0149115 24.62162145 17.52734375 31.0390625 C15.22843103 36.46865537 10.92010207 40.56580123 6.76855469 44.64208984 C-2.63425414 54.18847632 -8.60690364 67.44822199 -15.15087891 79.07226562 C-26.77372843 99.69327165 -26.77372843 99.69327165 -34.1875 105.0625 C-34.7441333 105.47314697 -35.3007666 105.88379395 -35.87426758 106.30688477 C-37.57177491 107.55416582 -39.28303311 108.77968462 -41 110 C-43.06362556 111.47759597 -45.1262203 112.95663327 -47.1875 114.4375 C-48.06792969 115.05496094 -48.94835937 115.67242187 -49.85546875 116.30859375 C-52.21932522 117.99337705 -52.21932522 117.99337705 -54 121 C-54.27835769 129.76826737 -50.09790839 135.13698438 -45 142 C-45.33 142.66 -45.66 143.32 -46 144 C-50.02157012 145.07199582 -53.85893167 145.39888618 -58 145 C-60.31479902 143.55377009 -61.71820451 142.09027429 -63.40234375 139.95703125 C-65.34151681 137.58166278 -67.56902269 135.85511128 -70 134 C-66.3032946 96.05218742 -47.54968271 56.55032302 -24 27 C-23.51273438 26.37883301 -23.02546875 25.75766602 -22.5234375 25.11767578 C-15.50625426 16.17984109 -8.26116609 7.81416913 0 0 Z " fill="#A3D967" transform="translate(93,85)"/>
<path d="M0 0 C5.95752907 3.82383124 7.34097982 7.56176049 8.875 14.3125 C9.08640625 15.12912109 9.2978125 15.94574219 9.515625 16.78710938 C11.66556908 25.54743346 11.21896089 32.50103192 8.4375 41.0625 C7.88376902 42.82801666 7.33039832 44.59364634 6.77734375 46.359375 C6.34010986 47.73706055 6.34010986 47.73706055 5.89404297 49.14257812 C4.98421052 52.05046424 4.11376226 54.96759629 3.25390625 57.890625 C-7.950607 95.88214927 -7.950607 95.88214927 -21 103 C-25.74078582 104.58026194 -29.73917851 105.03493687 -34.3125 102.94140625 C-41.31871314 98.57435786 -46.33420968 92.86528225 -49 85 C-50.15059774 77.66039758 -48.38085287 71.81311457 -45.77905273 64.98217773 C-43.98902396 59.91691283 -43.76911956 55.52550294 -44 50.1875 C-44.25569573 43.03122584 -43.60775034 37.70329938 -39 32 C-34.88029757 27.95998234 -30.37912454 25.14415935 -25.25 22.5625 C-19.71062441 19.61458882 -17.58497826 15.37190356 -14.98828125 9.84765625 C-11.69243181 2.85211811 -8.44129053 -1.33283535 0 0 Z " fill="#010202" transform="translate(399,319)"/>
<path d="M0 0 C3.4886665 1.89464654 6.39767907 4.07867247 7.6171875 7.96875 C7.87732373 11.94730403 7.03467502 13.94040232 5 17.4375 C1.76182893 20.20343779 0.07747696 20.95666627 -4.0703125 21.16796875 C-7.09083116 20.90504911 -8.74196569 19.99238322 -11 18 C-13.28231054 14.08746765 -13.55752891 10.46023131 -13 6 C-9.04790298 1.21588255 -6.25347281 -0.82593037 0 0 Z " fill="#010203" transform="translate(382,459)"/>
<path d="M0 0 C2.75329021 1.79562405 4.52627461 3.05254922 6 6 C6.47844415 9.0826338 6.55149629 11.92434762 6 15 C2.91708171 18.68446332 1.15229497 19.86092992 -3.625 20.4375 C-8.74193548 19.77419355 -8.74193548 19.77419355 -11 18 C-13.27796642 14.62232566 -13.99077767 12.52567307 -14.0625 8.4375 C-11.90469718 1.45637324 -7.07642757 -1.15796087 0 0 Z " fill="#030503" transform="translate(270,118)"/>
<path d="M0 0 C-1.40505094 6.79571666 -3.24881953 13.3344266 -5.375 19.9375 C-5.81199219 21.32485352 -5.81199219 21.32485352 -6.2578125 22.74023438 C-8.24027378 28.94412087 -10.50047972 34.9862946 -13 41 C-13.99 41 -14.98 41 -16 41 C-15.65141188 36.29406041 -14.99985838 32.81110402 -12.9375 28.5625 C-10.50011424 23.02220116 -10.77622669 17.81273177 -11.23608398 11.88891602 C-11.34765625 9.7578125 -11.34765625 9.7578125 -11 6 C-8.07340273 2.99613284 -4.36437571 0 0 0 Z " fill="#9ED264" transform="translate(386,359)"/>
</svg>
