<?xml version="1.0" encoding="UTF-8"?>
<svg version="1.1" xmlns="http://www.w3.org/2000/svg" width="512" height="512">
<path d="M0 0 C0.77153142 -0.00367669 1.54306285 -0.00735338 2.33797401 -0.01114148 C4.92559436 -0.02216227 7.51317453 -0.02601947 10.10081482 -0.02983093 C11.9554558 -0.0360969 13.81009553 -0.04274382 15.66473389 -0.04974365 C21.75857165 -0.07077434 27.85240963 -0.08114659 33.9462738 -0.09111023 C36.0460607 -0.09515846 38.14584746 -0.0992754 40.24563408 -0.10346031 C50.11331139 -0.1225115 59.98098124 -0.13674147 69.8486734 -0.14507228 C81.22776317 -0.15483831 92.60665808 -0.18114163 103.98567921 -0.22157317 C112.78755911 -0.2517709 121.58938328 -0.26654472 130.39131397 -0.26985329 C135.64492149 -0.27220001 140.89832083 -0.28111105 146.15187263 -0.30631447 C151.09887697 -0.3296635 156.04553708 -0.33380097 160.99258232 -0.32355309 C162.80210391 -0.32305924 164.61164283 -0.32933478 166.42111206 -0.34310913 C180.01474495 -0.44074638 190.77287469 0.82655814 201.37986755 10.14717102 C201.98572693 10.64861633 202.5915863 11.15006165 203.21580505 11.66670227 C209.32644789 17.1502704 213.78982252 25.05956814 215.37986755 33.14717102 C215.4795319 35.25298207 215.52338228 37.36166023 215.5337677 39.46980286 C215.54236816 40.77056763 215.55096863 42.0713324 215.55982971 43.41151428 C215.56426469 44.85139425 215.56856307 46.29127465 215.57273865 47.7311554 C215.58064346 49.24920335 215.58891264 50.76724944 215.59751892 52.28529358 C215.6237043 57.27048457 215.63904723 62.25568378 215.65330505 67.24092102 C215.65866695 68.96055099 215.66404446 70.68018092 215.66943741 72.39981079 C215.69106471 79.55772424 215.70979792 86.71563546 215.7210598 93.8735733 C215.73727552 104.11107237 215.770397 114.34819051 215.82746065 124.58554602 C215.86626287 131.79424708 215.88570485 139.00284672 215.89098036 146.21164942 C215.89462096 150.51130885 215.90650298 154.81056167 215.9390831 159.11010742 C215.96934394 163.16173387 215.97541222 167.21271157 215.96369934 171.26442719 C215.96348007 172.74296752 215.9716622 174.22153955 215.98935318 175.69997406 C216.14894018 189.81727746 212.37479798 200.72960111 202.60643005 211.01435852 C195.00994658 218.23876934 185.68427835 222.36670096 175.21279907 222.10513306 C174.40554886 222.0842009 173.59829865 222.06326874 172.7665863 222.04170227 C170.11514334 222.01765287 167.46375636 222.00419413 164.8122406 221.99067688 C163.00168478 221.97022499 161.19123014 221.93028326 159.38157654 221.86958313 C147.78682594 221.50455335 140.12708764 222.45665599 131.33047485 230.4335022 C130.23494941 231.47390075 129.14681943 232.52214614 128.0664978 233.57832336 C125.16345985 236.27863323 121.95817147 238.56901142 118.75486755 240.89717102 C118.03436218 241.43358215 117.31385681 241.96999329 116.57151794 242.5226593 C115.68967834 243.17597229 115.68967834 243.17597229 114.7900238 243.84248352 C111.45879722 246.32451342 108.16286497 248.84893737 104.8759613 251.38935852 C103.93381775 252.11542297 102.99167419 252.84148743 102.02098083 253.58955383 C100.1681613 255.01922815 98.31873765 256.45331684 96.47312927 257.89228821 C95.62379822 258.54616516 94.77446716 259.20004211 93.8993988 259.87373352 C93.14763367 260.45719543 92.39586853 261.04065735 91.62132263 261.64179993 C86.40094968 265.14782537 81.53361285 265.97792664 75.37986755 265.14717102 C69.18041466 263.12798302 65.75857555 259.90661719 62.29051208 254.42549133 C61.03214367 251.27720876 61.15587456 248.57834481 61.18455505 245.19404602 C61.1887999 244.20371368 61.1887999 244.20371368 61.19313049 243.19337463 C61.20428341 241.09445205 61.22937809 238.9959636 61.25486755 236.89717102 C61.26490371 235.47009387 61.27402845 234.04301 61.2822113 232.61592102 C61.30250132 229.12603779 61.34165679 225.63708764 61.37986755 222.14717102 C56.09986755 222.14717102 50.81986755 222.14717102 45.37986755 222.14717102 C45.41467224 223.6192804 45.44947693 225.09138977 45.4853363 226.60810852 C45.51349834 228.57945117 45.54079589 230.5508063 45.56736755 232.52217102 C45.60507263 233.97043274 45.60507263 233.97043274 45.64353943 235.44795227 C45.75008422 246.03140105 43.33090686 255.00236627 36.37986755 263.14717102 C30.64792391 268.6137469 24.39486419 273.05896756 16.27049255 273.20185852 C12.51071568 273.34913089 9.84189048 273.63362331 6.37986755 275.14717102 C3.51670977 278.60586563 1.99672829 282.86929256 0.25486755 286.96357727 C-6.35299122 302.44116209 -22.39486941 313.85740267 -37.62013245 320.14717102 C-47.25931686 323.54690273 -57.08160425 325.28587997 -67.3037262 325.24482727 C-68.004095 325.24341232 -68.70446381 325.24199738 -69.42605591 325.24053955 C-71.63662711 325.23499579 -73.84709248 325.22245428 -76.05763245 325.20967102 C-77.5673966 325.20464873 -79.07716235 325.20008711 -80.58692932 325.19599915 C-84.26473608 325.18590083 -87.94231749 325.16631523 -91.62013245 325.14717102 C-91.62013245 330.42717102 -91.62013245 335.70717102 -91.62013245 341.14717102 C-90.46513245 341.06467102 -89.31013245 340.98217102 -88.12013245 340.89717102 C-77.09938982 340.93188202 -66.51721615 344.62552917 -57.07325745 350.07295227 C-54.74833454 351.31870925 -54.74833454 351.31870925 -52.54981995 350.99482727 C-50.28384339 349.9994489 -48.48313131 348.74666464 -46.49513245 347.27217102 C-36.21610287 340.34173941 -24.31939948 339.5141327 -12.3115387 341.76826477 C-1.12619842 345.04095861 8.34076778 352.15879619 14.37986755 362.14717102 C19.97037264 373.75558985 21.60478921 386.42961594 17.56736755 398.83467102 C16.53841801 401.62190217 15.55825252 403.89740713 13.82992554 406.31730652 C11.98854634 409.91085497 11.96883999 413.03434345 12.01097107 416.9757843 C12.00720459 417.74888443 12.00343811 418.52198456 11.9995575 419.31851196 C11.99313736 420.99248672 11.99344348 422.66649795 11.99974251 424.34047318 C12.00888192 426.99893095 11.99859427 429.65668764 11.98312378 432.31510925 C11.94311833 439.87174917 11.94181109 447.42833341 11.94407654 454.98506165 C11.94412793 459.61402457 11.92480956 464.24261172 11.89474297 468.87147141 C11.88400323 471.47438006 11.89600035 474.07654425 11.90856934 476.6794281 C11.88575397 486.79827192 11.0227822 495.16238267 5.62986755 504.02217102 C-0.08049622 509.41529237 -5.68386676 512.26048406 -13.56590271 512.30107117 C-14.8080957 512.30967163 -16.0502887 512.31827209 -17.3301239 512.32713318 C-18.70918232 512.33156823 -20.08824119 512.33586661 -21.46730042 512.34004211 C-22.91774186 512.34794455 -24.36818135 512.35621359 -25.81861877 512.36482239 C-30.58316678 512.39102036 -35.3477235 512.40634513 -40.11231995 512.42060852 C-41.75254955 512.42596861 -43.39277909 512.43134612 -45.03300858 512.43674088 C-51.85462368 512.45836395 -58.67623643 512.47710173 -65.49787712 512.48836327 C-75.27555841 512.50461125 -85.0528429 512.53781579 -94.8303746 512.59476411 C-101.70519103 512.63344223 -108.57990122 512.65299325 -115.45482361 512.65828383 C-119.56145658 512.66193949 -123.66766611 512.6739833 -127.77418137 512.70638657 C-131.63700396 512.73643117 -135.49914608 512.74279243 -139.36206055 512.73100281 C-140.7790391 512.73078178 -142.19604891 512.73911101 -143.61291885 512.75665665 C-155.65875517 512.8976968 -155.65875517 512.8976968 -159.00175476 509.79820251 C-160.62013245 507.14717102 -160.62013245 507.14717102 -160.62013245 504.14717102 C-165.90013245 504.14717102 -171.18013245 504.14717102 -176.62013245 504.14717102 C-177.28013245 506.12717102 -177.94013245 508.10717102 -178.62013245 510.14717102 C-182.10336859 512.46932845 -183.50105982 512.40886885 -187.61695862 512.43769836 C-189.46984749 512.45683792 -189.46984749 512.45683792 -191.36016846 512.47636414 C-192.71114444 512.47942281 -194.06212253 512.48165003 -195.4131012 512.48310852 C-196.80212542 512.48953835 -198.19114828 512.49626685 -199.58016968 512.50328064 C-202.49464553 512.51525964 -205.40900285 512.51896114 -208.32350159 512.51777649 C-212.04131101 512.51757395 -215.7583504 512.5448044 -219.4759779 512.57932091 C-222.34750793 512.60167118 -225.21885556 512.60561147 -228.09046364 512.60455704 C-229.45988414 512.60690355 -230.8293104 512.61567321 -232.19864464 512.63122177 C-241.46378717 512.72652275 -247.88924346 512.2773122 -255.08106995 505.99873352 C-255.71271057 505.2639679 -256.3443512 504.52920227 -256.99513245 503.77217102 C-257.64224182 503.04256165 -258.2893512 502.31295227 -258.95606995 501.56123352 C-262.53352795 496.37140007 -262.90441964 491.17853193 -262.84376526 485.03730774 C-262.84417313 484.24616074 -262.84458099 483.45501373 -262.84500122 482.63989258 C-262.84519806 480.92936143 -262.8411854 479.21882565 -262.83339691 477.50831223 C-262.82312104 474.79078372 -262.82858974 472.07371043 -262.83882141 469.35618591 C-262.86670089 461.63213598 -262.87940812 453.9083419 -262.85011292 446.1842804 C-262.83328745 441.45027992 -262.84584982 436.71709339 -262.87656403 431.98317337 C-262.8826273 430.19005288 -262.87790896 428.39685908 -262.86168671 426.60380173 C-262.76542626 415.49570875 -263.72131687 407.87587135 -269.62013245 398.14717102 C-273.84278935 387.2821206 -271.96876335 375.65411152 -267.62013245 365.14717102 C-265.91117439 361.86071322 -263.95913902 359.01504389 -261.62013245 356.14717102 C-261.05681213 355.44849915 -260.49349182 354.74982727 -259.9131012 354.02998352 C-252.81884203 346.11428381 -242.8120632 341.65908208 -232.2724762 340.90888977 C-220.44436747 340.67257635 -211.03928617 342.65643146 -201.55763245 350.07295227 C-199.71338044 351.32935393 -199.71338044 351.32935393 -197.7412262 350.99482727 C-194.97981493 349.89127986 -192.3458329 348.59554133 -189.68263245 347.27217102 C-180.23316918 342.8603004 -171.05028764 340.61682415 -160.62013245 341.14717102 C-160.62013245 335.86717102 -160.62013245 330.58717102 -160.62013245 325.14717102 C-162.67231995 325.18197571 -164.72450745 325.2167804 -166.83888245 325.25263977 C-193.97385637 325.5795072 -218.70370431 323.33597426 -239.51441956 303.79096985 C-245.22152997 298.17414753 -249.74527188 292.18452224 -253.62013245 285.14717102 C-254.05196838 284.36857727 -254.48380432 283.58998352 -254.9287262 282.78779602 C-256.528859 279.75363417 -257.62013245 277.62129384 -257.62013245 274.14717102 C-258.4915387 274.1445929 -259.36294495 274.14201477 -260.26075745 274.13935852 C-270.66096483 273.80168945 -278.62939337 271.41009398 -286.62013245 264.58467102 C-287.28013245 263.78029602 -287.94013245 262.97592102 -288.62013245 262.14717102 C-289.64106995 261.06435852 -289.64106995 261.06435852 -290.68263245 259.95967102 C-296.66531587 251.27513057 -297.25661922 242.60153626 -297.14161682 232.36079407 C-297.12013301 230.08473102 -297.14152013 227.81181143 -297.16700745 225.5358429 C-297.18213162 217.71514621 -296.85878024 210.96946096 -292.62013245 204.14717102 C-292.16251526 203.34924133 -291.70489807 202.55131165 -291.2334137 201.72920227 C-284.94188435 193.17045514 -277.00959747 188.99418703 -266.62013245 187.14717102 C-265.20333871 187.20672102 -263.78665166 187.26891384 -262.37013245 187.33467102 C-258.43344726 186.53183987 -258.43344726 186.53183987 -256.8193512 183.29170227 C-255.57966186 180.8287207 -254.46014185 178.31811454 -253.33888245 175.79951477 C-251.1639768 170.97177044 -248.04830783 167.14670897 -244.62013245 163.14717102 C-244.17411682 162.55806946 -243.7281012 161.9689679 -243.26856995 161.36201477 C-233.44166228 148.74794324 -216.26248067 139.79612245 -200.62013245 137.14717102 C-199.05755197 136.98758395 -197.49354504 136.84166101 -195.9287262 136.70576477 C-195.08664612 136.63140198 -194.24456604 136.55703918 -193.37696838 136.48042297 C-191.70098655 136.3445799 -190.02297269 136.23135192 -188.34376526 136.14399719 C-182.40767025 135.70154392 -179.91274551 134.24551985 -175.62013245 130.14717102 C-171.77082583 127.44499942 -167.45609727 127.84441798 -162.93946838 127.84077454 C-162.0641597 127.83245102 -161.18885101 127.8241275 -160.28701782 127.81555176 C-157.39280243 127.79145401 -154.49881254 127.7826791 -151.60450745 127.77607727 C-149.58914625 127.76710947 -147.57378573 127.7579876 -145.5584259 127.74871826 C-141.33174523 127.73222541 -137.10514378 127.72452783 -132.87843323 127.72163391 C-127.47354022 127.7162555 -122.06939649 127.67859885 -116.66471481 127.63288975 C-112.50043551 127.60308128 -108.33633562 127.5959095 -104.17195892 127.59490776 C-102.18011805 127.59071158 -100.18827635 127.57830153 -98.19654083 127.55739021 C-95.40326627 127.53040263 -92.61171489 127.53532349 -89.81837463 127.54780579 C-89.00250381 127.5329715 -88.186633 127.51813721 -87.34603882 127.50285339 C-80.37517358 127.59114061 -75.52075168 130.24655179 -70.62013245 135.14717102 C-66.82686006 135.65169493 -63.05684818 135.98014701 -59.24317932 136.2702179 C-54.60033517 136.678906 -50.29074974 137.42250755 -45.79762268 138.68843079 C-44.82324753 138.96091141 -43.84887238 139.23339203 -42.8449707 139.51412964 C-42.11077408 139.72303329 -41.37657745 139.93193695 -40.62013245 140.14717102 C-40.62901489 138.8310936 -40.63789734 137.51501617 -40.64704895 136.15905762 C-40.72830353 123.72738963 -40.7881789 111.29577586 -40.82738113 98.86390209 C-40.84821326 92.4732674 -40.87645136 86.0828479 -40.92189026 79.69233704 C-40.96550341 73.51963512 -40.98930243 67.34713959 -40.99964142 61.17429543 C-41.007005 58.82488572 -41.02138413 56.47548671 -41.04305267 54.12616539 C-41.07229162 50.82327151 -41.07607981 47.5212194 -41.07423401 44.21821594 C-41.08861511 43.25723495 -41.10299622 42.29625397 -41.11781311 41.30615234 C-41.05436081 30.74239027 -37.56465404 22.05013749 -30.62013245 14.14717102 C-30.11868713 13.54131165 -29.61724182 12.93545227 -29.1006012 12.31123352 C-21.43610775 3.77026516 -11.20809742 -0.00286943 0 0 Z " fill="#262727" transform="translate(296.62013244628906,-0.14717102050781253)"/>
<path d="M0 0 C0.74213185 -0.0060911 1.48426369 -0.01218221 2.24888438 -0.01845789 C4.71911594 -0.03501822 7.18882807 -0.03032219 9.65910339 -0.0255127 C11.43699679 -0.03285715 13.21488541 -0.04144448 14.99276733 -0.05117798 C19.81109477 -0.07336469 24.62925104 -0.07632603 29.44762254 -0.07443047 C33.47576366 -0.07431062 37.50386871 -0.08288077 41.53199977 -0.09120798 C51.03923595 -0.11043238 60.54638435 -0.11332961 70.05363464 -0.10656738 C79.84726275 -0.09992935 89.64051396 -0.12278366 99.43406564 -0.15988111 C107.85469757 -0.19061555 116.2752085 -0.20193402 124.69589537 -0.1980443 C129.71974048 -0.19598043 134.74329234 -0.20139995 139.76708412 -0.22593689 C144.49425862 -0.24826294 149.22082221 -0.24627761 153.94799995 -0.22600937 C155.67730945 -0.22260951 157.40666054 -0.22764407 159.13591385 -0.24199295 C169.48823602 -0.32192791 178.47016197 -0.07180796 186.44408894 7.38419342 C194.42723491 15.70139627 194.76271495 23.52534122 194.73600769 34.61633301 C194.74335517 36.05925653 194.75194337 37.50217419 194.76167297 38.94508362 C194.78382869 42.85022706 194.78682258 46.75515911 194.78492546 50.66035676 C194.78480546 53.92799095 194.79338176 57.19558084 194.80170298 60.46320266 C194.82091642 68.17736232 194.82382871 75.89141379 194.81706238 83.60559082 C194.81042601 91.54518076 194.83327414 99.4843056 194.87037611 107.42380124 C194.90113842 114.256341 194.912426 121.08873165 194.9085393 127.92133921 C194.90647818 131.99505839 194.91185144 136.06841569 194.93643188 140.14206886 C194.9588045 143.976286 194.9567352 147.80975086 194.93650436 151.6439724 C194.93311253 153.04432137 194.93810411 154.44472202 194.95248795 155.84500122 C195.04422429 165.44444534 194.06887175 173.28235332 187.32630157 180.53460407 C181.32639345 186.2547268 175.54980884 188.75619392 167.32608032 188.63026428 C166.46555557 188.60528366 165.60503082 188.58030304 164.71842957 188.55456543 C162.84539472 188.54271556 160.97234523 188.53301991 159.09928894 188.52526855 C156.18463303 188.49864958 153.27300834 188.45744164 150.35929871 188.37756348 C136.06539876 188.02365172 127.9687541 189.74907264 117.31608582 199.39440918 C115.78072767 200.58993609 114.236417 201.77414891 112.67936707 202.94128418 C111.32733737 204.0067512 109.97706848 205.07445648 108.62858582 206.14440918 C99.96703912 212.95099343 91.12843209 219.50004246 82.22868347 225.99084473 C80.8647163 226.99179536 79.52265495 228.02288465 78.19645691 229.07336426 C76.31608582 230.39440918 76.31608582 230.39440918 74.31608582 230.39440918 C74.30674011 229.25898682 74.29739441 228.12356445 74.2877655 226.95373535 C74.24791011 222.74337445 74.18216452 218.53374773 74.10856628 214.32385254 C74.08033067 212.50135729 74.05912902 210.67873899 74.04508972 208.8560791 C74.02369542 206.23670335 73.97706603 203.61881103 73.92546082 200.99987793 C73.92423218 200.18415817 73.92300354 199.36843842 73.92173767 198.52799988 C73.80879412 194.13611538 73.80879412 194.13611538 71.7540741 190.37097168 C68.38682767 189.02218481 65.26237932 189.06928491 61.69889832 189.16394043 C60.18978505 189.16603984 58.6806691 189.1666442 57.17155457 189.16589355 C54.8053096 189.18037276 52.44106502 189.20690965 50.07536316 189.26037598 C36.78156881 189.52237046 36.78156881 189.52237046 33.08683777 186.67858887 C31.63038597 184.64958476 30.49106594 182.59340196 29.31608582 180.39440918 C26.83001282 178.34691993 26.83001282 178.34691993 24.25358582 177.01940918 C23.02962097 176.32718262 23.02962097 176.32718262 21.78092957 175.62097168 C16.87861252 173.18146684 14.05185359 172.36024925 8.56608582 172.83190918 C5.37858582 172.63659668 5.37858582 172.63659668 2.31608582 171.39440918 C-1.31132986 167.08344896 -3.33370562 161.56101769 -5.65901184 156.48083496 C-10.2553577 147.12390982 -19.11591362 139.10640956 -27.68391418 133.39440918 C-28.06702423 131.41148376 -28.06702423 131.41148376 -28.07832336 128.93127441 C-28.08967316 127.99217728 -28.10102295 127.05308014 -28.11271667 126.08552551 C-28.10978607 125.05179306 -28.10685547 124.01806061 -28.10383606 122.95300293 C-28.1123056 121.86662033 -28.12077515 120.78023773 -28.12950134 119.66093445 C-28.1529945 116.05114177 -28.15389002 112.4417727 -28.15266418 108.83190918 C-28.15976203 106.32523425 -28.16746046 103.81856096 -28.17573547 101.31188965 C-28.18921122 96.04590514 -28.19091743 90.78003004 -28.18489075 85.51403809 C-28.17827296 79.44617649 -28.20101562 73.37892635 -28.23820448 67.3111887 C-28.27274528 61.46136657 -28.27922593 55.61178252 -28.27511597 49.76187134 C-28.27680554 47.28046862 -28.28643222 44.79905776 -28.30426025 42.31771851 C-28.32651437 38.83498565 -28.31671098 35.35370165 -28.29914856 31.87097168 C-28.3124118 30.85343307 -28.32567505 29.83589447 -28.33934021 28.78752136 C-28.24643721 20.81693638 -26.1888229 14.18581988 -20.69412994 8.24197388 C-14.53996881 2.41474921 -8.44192949 -0.06605262 0 0 Z " fill="#47BBA5" transform="translate(300.6839141845703,16.6055908203125)"/>
<path d="M0 0 C1.15965019 -0.00744736 1.15965019 -0.00744736 2.34272766 -0.01504517 C4.89239404 -0.02961045 7.44199812 -0.03646075 9.99169922 -0.04199219 C11.30468302 -0.04623325 11.30468302 -0.04623325 12.64419174 -0.05056 C17.27988739 -0.06553305 21.9155521 -0.07477331 26.55126953 -0.07910156 C31.3155512 -0.08457134 36.07954494 -0.10857312 40.84373665 -0.13707352 C44.52772823 -0.15579944 48.21165197 -0.16091085 51.8956871 -0.16243744 C53.65057823 -0.16544404 55.40546873 -0.17340434 57.16031265 -0.18662262 C75.21869039 -0.31289494 90.42817265 2.85431296 103.98388672 15.80175781 C107.24059638 19.3143518 109.81007028 23.00283971 112.17138672 27.16113281 C112.56068359 27.84175781 112.94998047 28.52238281 113.35107422 29.22363281 C117.30295041 36.60816059 118.47145 43.79600804 118.46191406 52.06811523 C118.46863129 52.91956619 118.47534851 53.77101715 118.48226929 54.64826965 C118.5011311 57.43777433 118.5051664 60.22703726 118.50732422 63.01660156 C118.51375659 64.96617225 118.52048528 66.91574198 118.52749634 68.86531067 C118.53943673 72.9394454 118.54318012 77.0134955 118.54199219 81.08764648 C118.54178831 86.30653642 118.56917554 91.52488601 118.60353661 96.74364758 C118.62576626 100.7645365 118.62983106 104.78529408 118.62877274 108.80623817 C118.63113134 110.73076567 118.63996949 112.65529664 118.65543747 114.57976341 C118.67503309 117.26767504 118.66928673 119.95440332 118.65722656 122.64233398 C118.66846558 123.43465424 118.67970459 124.22697449 118.69128418 125.04330444 C118.64850999 128.79482662 118.31202426 130.94191867 116.26602173 134.13105774 C113.34203554 136.96492209 111.81135922 137.28636161 107.85769653 137.29916382 C106.95199921 137.30461716 106.04630188 137.3100705 105.11315918 137.31568909 C104.11675415 137.31673141 103.12034912 137.31777374 102.09375 137.31884766 C101.0464975 137.32392838 99.999245 137.32900909 98.92025757 137.33424377 C96.64052295 137.34496343 94.36077771 137.35357732 92.08102798 137.36036301 C88.4755828 137.37212288 84.87025898 137.39156778 81.26486206 137.41348267 C71.01190206 137.47520004 60.75895405 137.5291846 50.50585938 137.5625 C44.2400161 137.58341101 37.97439307 137.61868616 31.70867538 137.6632576 C29.31725528 137.67744691 26.9257962 137.68614661 24.53433609 137.68931198 C21.19192612 137.69420449 17.85010368 137.71732025 14.5078125 137.74462891 C13.51545593 137.74162277 12.52309937 137.73861664 11.50067139 137.73551941 C10.13366592 137.75215889 10.13366592 137.75215889 8.73904419 137.76913452 C7.5538277 137.77409974 7.5538277 137.77409974 6.34466743 137.77916527 C3.51639597 138.27625149 2.19317712 139.12685149 0.17138672 141.16113281 C-0.15861328 142.81113281 -0.48861328 144.46113281 -0.82861328 146.16113281 C-6.76861328 146.16113281 -12.70861328 146.16113281 -18.82861328 146.16113281 C-19.81861328 143.85113281 -20.80861328 141.54113281 -21.82861328 139.16113281 C-24.32771768 137.91158061 -26.08525512 138.01931618 -28.87939453 137.98535156 C-29.88808594 137.96150391 -30.89677734 137.93765625 -31.93603516 137.91308594 C-34.06083533 137.87035687 -36.18589615 137.83897678 -38.31103516 137.81933594 C-46.09327123 137.60632757 -46.09327123 137.60632757 -49.99658203 135.24316406 C-53.353058 131.42866153 -52.98277344 128.07744657 -52.98974609 123.21411133 C-52.99719345 121.98196648 -52.99719345 121.98196648 -53.00479126 120.72492981 C-53.01943975 117.99662444 -53.02622242 115.26837737 -53.03173828 112.54003906 C-53.03749137 110.64110818 -53.04324909 108.74217731 -53.04901123 106.84324646 C-53.05953147 102.85260752 -53.06536617 98.86198876 -53.06884766 94.87133789 C-53.07430802 89.78076569 -53.09827871 84.69046427 -53.12681961 79.59997654 C-53.14554088 75.67149609 -53.15065681 71.7430793 -53.15218353 67.81455803 C-53.15519364 65.9396512 -53.1631661 64.06474504 -53.17636871 62.18988228 C-53.29239277 44.43326226 -50.85963077 28.61877019 -38.01220703 15.18847656 C-27.34134109 5.28117884 -14.53454746 0.02249883 0 0 Z " fill="#E3E9EE" transform="translate(137.82861328125,357.8388671875)"/>
<path d="M0 0 C0.226875 1.2375 0.45375 2.475 0.6875 3.75 C2.33023352 11.20730108 5.52412392 18.22526005 9 25 C8.12859375 25.08636719 7.2571875 25.17273438 6.359375 25.26171875 C-8.71122915 27.03952811 -22.47360775 32.57736558 -32.3359375 44.56640625 C-40.88710484 57.07198665 -44.82578869 69.89456071 -42.53515625 85.08203125 C-39.33107167 99.54780958 -32.28129926 111.1270559 -19.875 119.3125 C-5.41293938 128.46157549 10.67588384 127.57860435 27.13671875 127.49609375 C29.66868634 127.49624899 32.20065416 127.4977421 34.73262024 127.50050354 C40.01690379 127.50188191 45.30098085 127.4898645 50.58520508 127.46655273 C56.66566329 127.43991143 62.74573977 127.43821494 68.82623643 127.4499411 C74.71772661 127.4607736 80.60907922 127.45438652 86.50055885 127.44038582 C88.98948583 127.4358912 91.47842398 127.43551699 93.96735191 127.43945122 C97.4507133 127.44238148 100.93346411 127.42577068 104.41674805 127.40405273 C105.43054031 127.40855438 106.44433258 127.41305603 107.48884583 127.41769409 C122.42247702 127.26402183 136.00586752 121.77041863 146.8125 111.4140625 C152.96851104 104.6204646 156.29869435 96.67188378 159 88 C159.19335938 87.39929688 159.38671875 86.79859375 159.5859375 86.1796875 C162.08701347 73.01364609 159.5729747 60.64764653 152.75 49.25 C145.79089204 39.05307549 138.18122673 33.94271671 127 29 C126.175 28.62875 125.35 28.2575 124.5 27.875 C121.41704602 26.79596611 118.41955047 26.33205764 115.1875 25.875 C114.02605469 25.70742187 112.86460937 25.53984375 111.66796875 25.3671875 C110.78753906 25.24601562 109.90710938 25.12484375 109 25 C110.30941384 20.92020596 111.80442291 16.99644562 113.5 13.0625 C115.32360688 8.74286481 116.86365488 4.54538046 118 0 C134.9342869 -0.62462534 148.92666611 5.89148218 161.40625 17.17578125 C173.17526443 29.16647232 178.32976558 44.06303582 178.265625 60.5859375 C178.26753845 61.68289948 178.2694519 62.77986145 178.27142334 63.9100647 C178.27277908 66.22129548 178.2691255 68.53253403 178.26074219 70.84375 C178.25005492 74.3569474 178.26064798 77.86963108 178.2734375 81.3828125 C178.2721154 83.63802195 178.26955195 85.89323108 178.265625 88.1484375 C178.26967346 89.18729095 178.27372192 90.22614441 178.27789307 91.29647827 C178.1676148 108.6924339 172.6271446 123.14355377 161 136 C148.12205137 148.70878017 132.97435773 153.30310511 115.33886719 153.29052734 C113.9680088 153.29652095 112.59715377 153.3033284 111.2263031 153.31088257 C107.52152554 153.32846651 103.81684052 153.33323475 100.11202526 153.33451414 C97.79153432 153.33594078 95.47106652 153.34022008 93.15058136 153.34550858 C85.0383608 153.36398469 76.92620574 153.37218235 68.81396484 153.37060547 C61.27947101 153.36940518 53.74526413 153.3904915 46.21084285 153.4220928 C39.71966365 153.4483379 33.22857771 153.45896931 26.73734593 153.45769465 C22.87041567 153.45718737 19.00374062 153.46273968 15.13686371 153.48405075 C11.49559988 153.50357245 7.85483108 153.50346399 4.21354866 153.48901749 C2.25974725 153.48596639 0.30594504 153.50250836 -1.64778137 153.51989746 C-18.98415143 153.39782015 -32.87768197 146.07948298 -45 134 C-45.56460938 133.45859375 -46.12921875 132.9171875 -46.7109375 132.359375 C-60.52203591 117.89060524 -61.49988497 98.63634961 -61.39111328 79.81884766 C-61.37503748 76.50771883 -61.39101699 73.1978104 -61.41015625 69.88671875 C-61.42568647 56.14480342 -60.7180706 44.1313287 -54.25 31.75 C-53.89711914 31.06671631 -53.54423828 30.38343262 -53.18066406 29.67944336 C-46.03696847 16.25372435 -34.13135962 7.38122174 -20 2 C-18.88625 1.566875 -17.7725 1.13375 -16.625 0.6875 C-11.09802363 -0.36071966 -5.60751595 -0.15178239 0 0 Z " fill="#E2E8ED" transform="translate(112,154)"/>
<path d="M0 0 C0.92639282 -0.00571014 1.85278564 -0.01142029 2.80725098 -0.01730347 C3.81149612 -0.01842133 4.81574127 -0.01953918 5.85041809 -0.02069092 C6.91773163 -0.02565582 7.98504517 -0.03062073 9.08470154 -0.03573608 C12.61314033 -0.05033178 16.14153415 -0.05715588 19.66999817 -0.06268311 C22.12754314 -0.06843725 24.5850881 -0.07419495 27.04263306 -0.07995605 C32.19649972 -0.09045906 37.35035082 -0.09630613 42.50422668 -0.09979248 C49.09356445 -0.10527176 55.68269502 -0.1292909 62.27196789 -0.15776443 C67.34990023 -0.17643145 72.42778309 -0.18159862 77.50574684 -0.18312836 C79.93411197 -0.18614687 82.3624764 -0.1941482 84.79080772 -0.20731354 C88.19625262 -0.22445655 91.60119701 -0.22247327 95.00666809 -0.21600342 C96.00079208 -0.2252182 96.99491608 -0.23443298 98.01916504 -0.243927 C109.52855662 -0.17577378 118.72820622 3.14522887 127.22859192 10.95684814 C133.65465807 17.72472633 136.42494503 24.70642548 136.81452942 34.01544189 C136.46890578 44.28380859 132.72529389 52.73987912 125.63874817 60.16387939 C119.09384549 65.5840443 111.13487934 69.24239589 102.59980774 69.28761292 C101.66926575 69.29476822 100.73872375 69.30192352 99.77998352 69.30929565 C98.25890991 69.31332901 98.25890991 69.31332901 96.70710754 69.31744385 C95.63339905 69.32401505 94.55969055 69.33058624 93.45344543 69.33735657 C89.8967227 69.3570802 86.34004224 69.36875232 82.78327942 69.37872314 C81.56627853 69.38279867 80.34927765 69.3868742 79.09539795 69.39107323 C72.64956329 69.41193346 66.2037499 69.42623345 59.75788879 69.43560791 C53.11822768 69.44564396 46.47887193 69.48102745 39.83931732 69.52077961 C34.7192678 69.5470021 29.59929777 69.55530495 24.47918701 69.55888939 C22.03292575 69.56374348 19.58666775 69.5753236 17.14047241 69.59392738 C13.70408437 69.61842998 10.26855727 69.61733271 6.83210754 69.6104126 C5.83425232 69.62322266 4.83639709 69.63603271 3.80830383 69.64923096 C-7.49415881 69.56688683 -17.67642221 66.24402022 -25.74797058 58.14044189 C-32.16976717 50.56384856 -35.45527887 41.67545834 -35.09562683 31.71466064 C-33.72353977 21.55504972 -28.80442237 13.13651507 -20.81047058 6.82794189 C-14.39827741 2.32472226 -7.87436234 0.02924455 0 0 Z " fill="#2A55AD" transform="translate(119.74797058105469,195.85955810546875)"/>
<path d="M0 0 C1.12061577 0.00607269 1.12061577 0.00607269 2.26387024 0.01226807 C3.05098892 0.00876343 3.8381076 0.00525879 4.64907837 0.00164795 C7.25839482 -0.0071753 9.86744151 -0.00131819 12.47676086 0.00543213 C14.2851517 0.00408565 16.09354217 0.00214526 17.90193176 -0.00036621 C21.69497621 -0.00331828 25.48792656 0.0009828 29.28096008 0.01031494 C34.15041849 0.02170953 39.01965644 0.0151505 43.88910675 0.00317001 C47.62421845 -0.00404637 51.35927762 -0.00176168 55.09439087 0.0034256 C56.89019802 0.00476271 58.68600989 0.00311224 60.48181152 -0.00153351 C62.9887206 -0.00659513 65.49526935 0.0011062 68.00215149 0.01226807 C68.74922867 0.0082196 69.49630585 0.00417114 70.26602173 0 C75.40448217 0.04252844 75.40448217 0.04252844 77.63301086 2.27105713 C79.38184187 12.41427697 73.24952571 21.9764794 67.67988586 30.13043213 C64.85782306 33.08174971 62.15205247 34.10229714 58.10472107 34.55194092 C57.21316315 34.56559692 56.32160522 34.57925293 55.4030304 34.59332275 C53.87586899 34.62214539 53.87586899 34.62214539 52.31785583 34.65155029 C51.22818512 34.66005005 50.1385144 34.6685498 49.01582336 34.67730713 C47.88530548 34.68870728 46.7547876 34.70010742 45.5900116 34.71185303 C43.20122505 34.73072157 40.81238681 34.74380851 38.42353821 34.75152588 C34.77759286 34.77095279 31.13389669 34.83302682 27.48847961 34.89605713 C25.16427421 34.90911705 22.84005274 34.91961805 20.51582336 34.92730713 C18.88738998 34.96434753 18.88738998 34.96434753 17.22605896 35.00213623 C10.98531063 34.96557066 7.40881841 34.29453946 2.93113708 29.80386353 C-2.65890592 23.20323137 -7.41060889 14.69002292 -7.67948914 5.89605713 C-7.1856202 0.16717749 -5.29842012 0.04385234 0 0 Z " fill="#CCD5DB" transform="translate(135.3669891357422,144.72894287109375)"/>
<path d="M0 0 C4.49365002 1.73280494 7.68487181 5.57770649 11.01022339 8.94073486 C11.84376846 9.76616791 12.67731354 10.59160095 13.53611755 11.44204712 C15.29072992 13.18820876 17.03773406 14.94204444 18.77755737 16.70294189 C21.44424887 19.39422354 24.14379878 22.04904255 26.84811401 24.70245361 C28.55007875 26.40478878 30.25001973 28.10915018 31.94772339 29.81573486 C33.16158974 31.0036412 33.16158974 31.0036412 34.39997864 32.21554565 C37.64970084 35.54819506 39.75228355 37.78672173 40.95578003 42.33673096 C39.58022872 47.36175506 36.63906402 50.14991577 33.01412964 53.77667236 C31.84151781 55.0265977 30.67034793 56.27787752 29.5007019 57.53057861 C26.2523263 60.91968056 22.97156784 64.27682712 19.68087769 67.62481689 C18.27173902 69.06583652 16.87072635 70.51484504 15.47775269 71.97149658 C13.44767598 74.09271376 11.39263186 76.18662627 9.33053589 78.27667236 C8.71569839 78.92966309 8.1008609 79.58265381 7.46739197 80.25543213 C4.3560152 83.35314652 2.24645411 85.17708033 -2.25564575 85.31573486 C-5.98587036 84.77667236 -5.98587036 84.77667236 -8.98587036 82.65167236 C-10.98587036 79.77667236 -10.98587036 79.77667236 -11.73587036 76.96417236 C-9.64309599 68.06988131 1.04733239 60.62609042 7.45162964 54.27667236 C8.47985944 53.25347098 9.5078559 52.23003504 10.53561401 51.20635986 C13.02577302 48.72709237 15.51905797 46.25099699 18.01412964 43.77667236 C16.40462994 39.71183979 13.4982371 37.03944333 10.42037964 34.05792236 C9.87305176 33.51816772 9.32572388 32.97841309 8.7618103 32.42230225 C7.01732405 30.70218831 5.26656842 28.98868136 3.51412964 27.27667236 C1.20626191 25.02204849 -1.09488422 22.76087221 -3.39212036 20.49542236 C-3.92236816 19.98177124 -4.45261597 19.46812012 -4.99893188 18.93890381 C-7.55335909 16.41864397 -9.79493193 14.20556759 -10.98587036 10.77667236 C-10.91113475 6.59147789 -10.5946555 4.49289017 -7.86087036 1.27667236 C-4.89658333 -0.26991217 -3.27473964 -0.57370122 0 0 Z " fill="#262827" transform="translate(428.9858703613281,68.22332763671875)"/>
<path d="M0 0 C2.5 2.125 2.5 2.125 4 5 C4.1997296 8.52855634 3.85998068 10.82625607 1.73730469 13.72338867 C-3.60705442 19.69692023 -9.24555089 25.35929487 -14.9375 31 C-15.9175531 31.97502386 -16.8973724 32.9502828 -17.87695312 33.92578125 C-20.24902313 36.28616618 -22.6234086 38.64416905 -25 41 C-23.36809981 45.17801612 -20.29694558 47.9394367 -17.15234375 51.0078125 C-16.58044815 51.57450653 -16.00855255 52.14120056 -15.41932678 52.72506714 C-13.59674775 54.52987272 -11.76760926 56.32783318 -9.9375 58.125 C-8.10471379 59.93017315 -6.27340471 61.73678389 -4.44496155 63.5463562 C-3.30807969 64.67097536 -2.16853542 65.79291063 -1.02610779 66.91189575 C3.82712909 71.70346815 3.82712909 71.70346815 4.375 75.8125 C4 79 4 79 2 81.875 C-1.10510321 84.0744481 -2.98426306 84.68607415 -6.77664185 84.56707764 C-11.51530554 83.35845985 -14.56801318 79.41159152 -17.83984375 75.9765625 C-18.64740616 75.16005219 -19.45496857 74.34354187 -20.28700256 73.50228882 C-22.85650306 70.89471116 -25.39657001 68.26039461 -27.9375 65.625 C-29.67333216 63.85760726 -31.41094384 62.09196038 -33.15039062 60.328125 C-36.31655447 57.10348908 -39.478416 53.87509628 -42.61694336 50.62353516 C-43.24789413 49.97067535 -43.87884491 49.31781555 -44.52891541 48.64517212 C-46.57157887 46.36078073 -47.00106852 44.99433045 -47.57763672 41.93505859 C-46.69542334 35.92511978 -43.02735851 33.13785377 -38.7578125 29.0390625 C-37.91910614 28.2078891 -37.08039978 27.3767157 -36.21627808 26.52035522 C-33.5351549 23.87175581 -30.83042469 21.24874787 -28.125 18.625 C-26.30965785 16.83619699 -24.49583647 15.04584923 -22.68359375 13.25390625 C-19.36970819 9.99034708 -16.0531955 6.72977027 -12.71533203 3.49072266 C-11.70939499 2.51312485 -11.70939499 2.51312485 -10.68313599 1.51577759 C-7.1115119 -1.70071103 -4.56046384 -1.10080162 0 0 Z " fill="#262827" transform="translate(346,69)"/>
<path d="M0 0 C4.45850936 0.79616239 5.90783917 1.93313458 8.5 5.625 C8.88084317 10.9798206 8.04747141 15.85904947 6.97119141 21.06713867 C6.80859329 21.88103561 6.64599518 22.69493256 6.47846985 23.53349304 C5.94291609 26.2047286 5.39755182 28.87384825 4.8515625 31.54296875 C4.47478007 33.40659555 4.09843374 35.27031057 3.72250366 37.1341095 C2.93491716 41.03097868 2.1425474 44.9268354 1.34667969 48.82202148 C0.32709185 53.81377271 -0.68126441 58.8077132 -1.68616295 63.80243969 C-2.46089154 67.64742113 -3.2411602 71.49126178 -4.0231514 75.33477211 C-4.39715132 77.1760406 -4.76951474 79.01764228 -5.1402092 80.85957909 C-5.658706 83.43124001 -6.18454905 86.00129053 -6.71240234 88.57104492 C-6.94006035 89.71117035 -6.94006035 89.71117035 -7.1723175 90.87432861 C-8.96990119 99.53207228 -8.96990119 99.53207228 -12.25 101.875 C-15.22188924 102.86562975 -17.38504443 103.01436945 -20.5 102.625 C-22.80275556 100.7579009 -24.17823871 99.26852259 -25.5 96.625 C-25.49600334 86.77892623 -22.96932063 76.84471605 -21.078125 67.2265625 C-20.90876183 66.36028606 -20.73939865 65.49400963 -20.56490326 64.60148239 C-19.67075557 60.02975349 -18.76987442 55.45941326 -17.86328125 50.89013672 C-16.9306411 46.18262176 -16.02139652 41.47089847 -15.11726761 36.7578373 C-14.41462113 33.11782249 -13.69484186 29.48134851 -12.9703598 25.84562302 C-12.62747338 24.10938971 -12.29101475 22.37187375 -11.96121979 20.63310623 C-11.49908307 18.20534706 -11.01283447 15.78360733 -10.52050781 13.36181641 C-10.32541122 12.29261459 -10.32541122 12.29261459 -10.12637329 11.20181274 C-8.84318312 5.1172012 -6.31119259 1.12699868 0 0 Z " fill="#262828" transform="translate(392.5,59.375)"/>
<path d="M0 0 C6.02571927 2.68012324 9.7017478 6.51044738 13.01953125 12.1484375 C13.39207031 12.74269531 13.76460938 13.33695312 14.1484375 13.94921875 C16.50453285 19.89756709 15.88273117 28.06902196 14.1796875 34.14453125 C10.98999489 41.20051793 6.14120806 44.93680604 -0.54296875 48.5234375 C-3.72041393 49.33816703 -6.71226575 49.18657289 -9.98046875 49.1484375 C-10.23570312 47.51648438 -10.23570312 47.51648438 -10.49609375 45.8515625 C-12.53972768 33.24723437 -15.01455014 22.30434152 -22.39453125 11.62109375 C-23.95266693 9.19178369 -25.00196523 6.85627644 -25.98046875 4.1484375 C-18.2587293 -2.15502328 -9.5378729 -2.72510654 0 0 Z " fill="#B1BFC7" transform="translate(282.98046875,359.8515625)"/>
<path d="M0 0 C2.36093071 1.18551727 4.59580179 2.42230765 6.80078125 3.875 C5.27494608 7.12306496 3.41682578 10.01778046 1.42578125 13 C-5.54203607 23.91431967 -8.96360619 36.02462936 -10.19921875 48.875 C-17.03631248 49.4854548 -20.908059 48.268458 -26.19921875 43.875 C-31.19790541 39.00398118 -34.80173192 34.74356364 -35.53515625 27.60546875 C-35.64301953 17.8222695 -34.50850264 12.20623578 -27.82421875 5.0625 C-20.39534718 -2.34876761 -9.71725578 -3.41705698 0 0 Z " fill="#B1BFC7" transform="translate(78.19921875,360.125)"/>
<path d="M0 0 C0.94875 0.309375 1.8975 0.61875 2.875 0.9375 C7.50938425 2.27928271 12.20552041 2.63342007 17 3 C17.01030746 3.8054425 17.02061493 4.61088501 17.03123474 5.44073486 C17.12923237 13.03309169 17.23175005 20.62536767 17.33933926 28.21759415 C17.39449193 32.1207832 17.44789956 36.02397985 17.49731445 39.92724609 C17.5450711 43.69444955 17.59741776 47.46156387 17.65294075 51.22866058 C17.67331317 52.66553272 17.69203457 54.10242926 17.70907402 55.53934479 C17.7332312 57.55265433 17.76381483 59.56588365 17.79467773 61.57910156 C17.81799416 63.29785492 17.81799416 63.29785492 17.84178162 65.05133057 C17.97539254 67.54139804 18.27673381 69.62652159 19 72 C16.93867858 72.10864945 14.87568679 72.18588321 12.8125 72.25 C11.08966797 72.31960938 11.08966797 72.31960938 9.33203125 72.390625 C5.36020138 71.9249943 3.81228515 70.77629613 1 68 C-0.40607756 65.18784488 -0.11950486 62.8595578 -0.11352539 59.71435547 C-0.11367142 59.07032776 -0.11381744 58.42630005 -0.1139679 57.76275635 C-0.1132704 55.63086598 -0.10548566 53.49906263 -0.09765625 51.3671875 C-0.09579149 49.89031014 -0.09436786 48.41343216 -0.09336853 46.93655396 C-0.08954792 43.04687801 -0.07972152 39.15723933 -0.06866455 35.26757812 C-0.05844064 31.29948429 -0.05386881 27.33138445 -0.04882812 23.36328125 C-0.03809885 15.57550384 -0.02102789 7.78775714 0 0 Z " fill="#CBD3D9" transform="translate(51,423)"/>
<path d="M0 0 C0.04634803 8.53623448 0.08188171 17.07241635 0.10362434 25.60874557 C0.1140599 29.57254227 0.12821492 33.53625286 0.15087891 37.5 C0.17261545 41.32550147 0.18457034 45.15092012 0.18975449 48.97647858 C0.19344879 50.43571527 0.20066283 51.89494744 0.21146011 53.35414886 C0.225986 55.39863365 0.22797751 57.44277657 0.22705078 59.48730469 C0.231492 60.65090515 0.23593323 61.81450562 0.24050903 63.0133667 C0.00154818 65.98077469 -0.27187682 67.59765486 -2 70 C-6 72 -6 72 -18 72 C-17.67 49.56 -17.34 27.12 -17 4 C-1 0 -1 0 0 0 Z " fill="#CCD5DB" transform="translate(290,423)"/>
<path d="M0 0 C9.26860841 1.15857605 9.26860841 1.15857605 14 6 C18.14760026 11.7878802 17.47782669 17.43129985 17.4375 24.3125 C17.4674707 26.10977539 17.4674707 26.10977539 17.49804688 27.94335938 C17.49410266 35.10210792 16.93706327 39.95839745 13 46 C8.41594544 49.97284728 6.37766884 50.08890445 0 51 C0 34.17 0 17.34 0 0 Z " fill="#CAD3D9" transform="translate(307,205)"/>
<path d="M0 0 C0 16.83 0 33.66 0 51 C-7.93127527 49.86696068 -7.93127527 49.86696068 -11.3125 46.75 C-11.96863281 46.16734375 -12.62476563 45.5846875 -13.30078125 44.984375 C-18.18696894 39.27820639 -17.40208458 32.28238942 -17.4375 25.1875 C-17.48680664 23.46176758 -17.48680664 23.46176758 -17.53710938 21.70117188 C-17.58189292 14.59687306 -16.9629032 9.34853707 -12 4 C-8.03126866 0.81349814 -5.21082514 0 0 0 Z " fill="#CBD4DA" transform="translate(34,205)"/>
<path d="M0 0 C11.55 0 23.1 0 35 0 C35 5.94 35 11.88 35 18 C30.17612933 18.0229102 25.35244611 18.04283686 20.52856445 18.05493164 C18.88630536 18.05997174 17.24405077 18.06680378 15.60180664 18.07543945 C13.24624521 18.08751926 10.89074291 18.09323139 8.53515625 18.09765625 C7.79660904 18.10281754 7.05806183 18.10797882 6.2971344 18.11329651 C4.53101912 18.1134925 2.76502854 18.06194719 1 18 C0.67 17.67 0.34 17.34 0 17 C0 11.39 0 5.78 0 0 Z " fill="#C1C9CF" transform="translate(153,324)"/>
<path d="M0 0 C4.4297642 0.79102932 5.89210172 1.98974785 8.5 5.625 C9.2446324 9.59637281 8.87266878 11.06599683 6.625 14.4375 C4.12980912 17.00607884 3.21830363 17.52922618 -0.3125 18 C-3.5 17.625 -3.5 17.625 -6.375 15.5625 C-8.5 12.625 -8.5 12.625 -9.125 9.125 C-8.11027445 3.44253693 -5.68246307 1.01472555 0 0 Z " fill="#26272A" transform="translate(213.5,221.375)"/>
<path d="M0 0 C2.875 1.4375 2.875 1.4375 5 4 C5.71534153 7.14404141 5.71534153 9.85595859 5 13 C2.46228253 16.06018871 0.88265681 16.83450185 -3 17.5625 C-7.17033126 16.78056289 -8.55871269 15.44652326 -11 12 C-11.75517074 8.92450628 -11.51878636 7.26835406 -11 4 C-7.72794548 0.1505241 -4.96702569 -0.82783761 0 0 Z " fill="#262729" transform="translate(131,222)"/>
</svg>
