<?xml version="1.0" encoding="UTF-8"?>
<svg version="1.1" xmlns="http://www.w3.org/2000/svg" width="512" height="512">
<path d="M0 0 C1.0974009 -0.0060911 2.1948018 -0.01218221 3.32545727 -0.01845789 C6.99793546 -0.03508964 10.67006699 -0.03031165 14.34257507 -0.0255127 C16.9776071 -0.03285295 19.61261327 -0.04134647 22.24763489 -0.05117798 C28.65962319 -0.07220721 35.07152102 -0.07677426 41.48353974 -0.07499009 C46.69735254 -0.07368111 51.91113718 -0.07749355 57.12494469 -0.08491516 C58.62829993 -0.08701442 60.13165517 -0.08911202 61.63501042 -0.09120798 C62.38334014 -0.09225151 63.13166987 -0.09329504 63.90267625 -0.09437019 C78.04814841 -0.11326271 92.19356868 -0.1122255 106.33904823 -0.10540086 C119.26821525 -0.09982707 132.19718402 -0.12064551 145.12630472 -0.15376133 C158.41327749 -0.18752859 171.70015537 -0.20266282 184.98717183 -0.1980443 C192.44224866 -0.19580255 199.8971423 -0.20099941 207.35218239 -0.22593689 C213.69970614 -0.24698943 220.04694626 -0.25050318 226.39448182 -0.2316373 C229.63033916 -0.2225031 232.86556076 -0.22399483 236.10139656 -0.24199295 C239.6165803 -0.26019302 243.13036583 -0.24742825 246.64550781 -0.22705078 C248.16465057 -0.24582755 248.16465057 -0.24582755 249.71448308 -0.26498365 C257.45951523 -0.16900409 263.9796666 1.86619068 269.89515096 7.04055452 C276.17254507 13.52091789 278.46924926 21.87420404 278.46641541 30.69326782 C278.44577026 31.6697226 278.42512512 32.64617737 278.40385437 33.65222168 C278.39819458 34.68128632 278.39253479 35.71035095 278.38670349 36.77059937 C278.3645164 40.02069892 278.31435352 43.26964929 278.26322937 46.51940918 C278.24314153 48.73814313 278.22489479 50.95689456 278.20854187 53.17565918 C278.16471001 58.58229373 278.09797806 63.98826932 278.01322937 69.39440918 C278.93683699 69.39072201 279.8604446 69.38703484 280.81204033 69.38323593 C303.30582701 69.2943602 325.79959086 69.2286694 348.29351616 69.18716049 C359.17150495 69.16655253 370.04937762 69.13846565 380.92729187 69.09265137 C390.41065523 69.05272959 399.89393447 69.02696353 409.37737954 69.0180552 C414.39684791 69.01284952 419.41607566 69.000651 424.43546677 68.97148895 C429.16489744 68.94423549 433.89398954 68.93598421 438.62349129 68.94197845 C440.35442129 68.94088265 442.08536322 68.93298811 443.81622505 68.91758728 C454.29154394 68.82899237 463.58615825 69.15230821 472.32572937 75.64440918 C477.74204339 81.18668399 481.13086818 86.77319948 481.15024376 94.62499905 C481.1553183 95.71532482 481.16039284 96.80565059 481.16562116 97.92901653 C481.1663678 99.73277983 481.1663678 99.73277983 481.16712952 101.57298279 C481.17151177 102.84679214 481.17589402 104.12060148 481.18040907 105.43301111 C481.19237806 108.97580075 481.19802373 112.51857676 481.20259023 116.06138265 C481.20854482 119.8794471 481.22015476 123.69749525 481.23088074 127.51554871 C481.25540391 136.73797012 481.27002964 145.96039693 481.2829408 155.18284091 C481.28665212 157.78640415 481.29062538 160.38996685 481.29469347 162.99352956 C481.31992402 179.15328106 481.34198206 195.3130334 481.35442162 211.47280025 C481.35735141 215.21579428 481.36031306 218.95878827 481.36332703 222.70178223 C481.36407308 223.63210829 481.36481913 224.56243435 481.36558779 225.52095211 C481.37825181 240.60452289 481.41148945 255.68797607 481.45312886 270.77149182 C481.49550474 286.24825675 481.51911141 301.72496138 481.52434218 317.20178419 C481.52776072 325.89528872 481.53956818 334.58860928 481.57244492 343.28205681 C481.60038665 350.68273491 481.61147064 358.08319135 481.60024945 365.48391812 C481.59504807 369.26173377 481.59804447 373.03908477 481.622715 376.8168335 C481.64920908 380.90783203 481.63719821 384.99779927 481.62123108 389.08885193 C481.63511317 390.28913007 481.64899525 391.48940822 481.66329801 392.72605842 C481.58580496 400.73733605 481.58580496 400.73733605 478.60022926 404.16350651 C476.01322937 405.39440918 476.01322937 405.39440918 474.01322937 405.39440918 C474.01322937 411.66440918 474.01322937 417.93440918 474.01322937 424.39440918 C475.33322937 424.72440918 476.65322937 425.05440918 478.01322937 425.39440918 C479.73698425 426.57835388 479.73698425 426.57835388 481.01322937 428.39440918 C481.40763855 431.11756897 481.40763855 431.11756897 481.43315125 434.45129395 C481.44906311 435.70011856 481.46497498 436.94894318 481.48136902 438.23561096 C481.48263708 439.60234521 481.48281262 440.96908085 481.48197937 442.33581543 C481.48908447 443.74247032 481.49678398 445.14912233 481.50505066 446.55577087 C481.51850818 449.50898267 481.52006125 452.46192723 481.51420593 455.41516113 C481.50834245 459.17557339 481.53875277 462.93467987 481.57932281 466.69484043 C481.60536263 469.60423019 481.60806205 472.51331367 481.60443115 475.42280388 C481.60611077 476.8073241 481.6156404 478.19186027 481.63357544 479.57626534 C481.74533056 489.27856539 480.84263057 497.20263994 474.02336121 504.53358459 C466.64106825 511.57593498 459.89680645 512.84027993 450.01300049 512.78208923 C448.91418846 512.78747477 447.81537642 512.79286031 446.68326706 512.79840904 C443.00611215 512.81270166 439.32931656 512.80558144 435.65214539 512.79846191 C433.01386884 512.80416478 430.37561799 512.8110282 427.73735046 512.81925964 C421.3180052 512.83643731 414.89875786 512.83728984 408.47939558 512.83204674 C403.2607993 512.82800198 398.04223191 512.82945222 392.82363701 512.834795 C392.08032305 512.83554342 391.33700909 512.83629184 390.57117046 512.83706294 C389.06103404 512.83859445 387.55089763 512.8401328 386.04076122 512.84167791 C371.88580778 512.85539914 357.73090964 512.84996785 343.57595747 512.8384927 C330.63253279 512.82856006 317.68925106 512.84150215 304.74584842 512.86542689 C291.44758738 512.88982191 278.1493929 512.89942482 264.85110992 512.89277416 C257.38830307 512.88928292 249.92560615 512.89150776 242.46281624 512.90902519 C236.11013854 512.92375221 229.75764821 512.92437617 223.40497417 512.90695428 C220.16539697 512.89844593 216.92622299 512.8984613 213.68665123 512.91160583 C210.17093201 512.92478164 206.65612194 512.91329698 203.14044189 512.89561462 C202.12185437 512.90521963 201.10326685 512.91482464 200.05381304 512.9247207 C190.96857528 512.83072857 184.48290867 509.86408848 178.01322937 503.39440918 C174.1774204 497.60959457 171.88092108 492.61309161 171.89970398 485.62585449 C171.89977951 484.68518127 171.89985504 483.74450806 171.89993286 482.77532959 C171.90509415 481.7679071 171.91025543 480.76048462 171.91557312 479.72253418 C171.91769554 478.1662027 171.91769554 478.1662027 171.91986084 476.57843018 C171.9254549 473.26706042 171.93800634 469.95575847 171.95072937 466.64440918 C171.95574514 464.39831641 171.96030791 462.15222257 171.96440125 459.90612793 C171.97542238 454.40219858 171.99215463 448.89830872 172.01322937 443.39440918 C171.08962175 443.39809635 170.16601414 443.40178352 169.21441841 443.40558243 C146.72063173 443.49445816 124.22686788 443.56014896 101.73294258 443.60165787 C90.85495379 443.62226583 79.97708112 443.65035271 69.09916687 443.69616699 C59.61580351 443.73608877 50.13252427 443.76185483 40.6490792 443.77076316 C35.62961083 443.77596884 30.61038308 443.78816736 25.59099197 443.81732941 C20.8615613 443.84458287 16.1324692 443.85283415 11.40296745 443.8468399 C9.67203745 443.84793571 7.94109552 443.85583025 6.21023369 443.87123108 C-4.2650852 443.95982599 -13.55969951 443.63651015 -22.29927063 437.14440918 C-27.66328242 431.65565293 -31.10765759 426.0718362 -31.11819839 418.28596497 C-31.12203954 417.22288966 -31.12588068 416.15981436 -31.12983823 415.06452465 C-31.12897175 413.89246125 -31.12810526 412.72039785 -31.12721252 411.51281738 C-31.13018365 410.27097089 -31.13315477 409.02912439 -31.13621593 407.74964619 C-31.14340467 404.29612238 -31.14607589 400.84264831 -31.14681339 397.38912058 C-31.14866262 393.66719408 -31.15620917 389.94527841 -31.16294861 386.22335815 C-31.17653629 378.0830996 -31.18255696 369.94284598 -31.18695927 361.80257797 C-31.18972023 356.72280523 -31.19395724 351.64303439 -31.19846344 346.56326294 C-31.21065529 332.50664896 -31.22095567 318.45003651 -31.22433853 304.39341736 C-31.2245581 303.49362359 -31.22477766 302.59382981 -31.22500388 301.66676956 C-31.22522216 300.76479605 -31.22544044 299.86282254 -31.22566533 298.9335165 C-31.2261088 297.10570208 -31.22655536 295.27788766 -31.227005 293.45007324 C-31.22722643 292.54340979 -31.22744786 291.63674633 -31.227676 290.70260823 C-31.23162699 275.99992162 -31.24909051 261.29728449 -31.27236453 246.59461701 C-31.29605114 231.50997003 -31.30853911 216.42534791 -31.30970645 201.34068203 C-31.31062458 192.86691532 -31.31641175 184.3932131 -31.33452606 175.91946411 C-31.3498906 168.70653807 -31.35506908 161.49369647 -31.34678796 154.28075719 C-31.34286881 150.5983665 -31.34387226 146.91614606 -31.35784531 143.23377609 C-31.37283278 139.24777656 -31.36475547 135.26201946 -31.35426331 131.27600098 C-31.36231971 130.10393758 -31.37037611 128.93187418 -31.37867665 127.72429371 C-31.37208681 126.6612184 -31.36549696 125.5981431 -31.35870743 124.50285339 C-31.35930452 123.58213893 -31.3599016 122.66142447 -31.36051679 121.71280956 C-30.98677063 119.39440918 -30.98677063 119.39440918 -29.71352458 117.63763142 C-27.98677063 116.39440918 -27.98677063 116.39440918 -23.98677063 115.39440918 C-23.98677063 109.12440918 -23.98677063 102.85440918 -23.98677063 96.39440918 C-25.96677063 95.73440918 -27.94677063 95.07440918 -29.98677063 94.39440918 C-31.4352248 91.49750085 -31.14619467 88.95326041 -31.17964172 85.7166748 C-31.18781921 85.0301886 -31.1959967 84.34370239 -31.204422 83.63641357 C-31.22928785 81.35783759 -31.24580223 79.07932434 -31.26020813 76.80065918 C-31.26553181 76.02063034 -31.27085548 75.2406015 -31.27634048 74.43693542 C-31.30308768 70.30167626 -31.32245039 66.16644732 -31.33686829 62.03112793 C-31.35016368 58.62069615 -31.37793113 55.21086896 -31.41889954 51.80065918 C-31.46846635 47.67448912 -31.49301965 43.54886408 -31.50009537 39.42240906 C-31.50677241 37.85644078 -31.52190113 36.29048295 -31.54598618 34.72468567 C-31.69212906 24.64172409 -31.23872201 16.02125258 -23.99662781 8.26220703 C-16.63506699 1.21137576 -9.87023905 -0.05158438 0 0 Z " fill="#030203" transform="translate(30.986770629882813,-0.3944091796875)"/>
<path d="M0 0 C0.91703164 -0.00384115 1.83406328 -0.00768229 2.77888376 -0.01163983 C4.30000844 -0.01034011 4.30000844 -0.01034011 5.85186291 -0.00901413 C6.9240182 -0.01198525 7.99617349 -0.01495637 9.10081834 -0.01801753 C12.71748186 -0.02673548 16.33411241 -0.02821538 19.95078564 -0.02970505 C22.53406883 -0.03433102 25.11735134 -0.03935538 27.70063305 -0.04475021 C34.73574821 -0.05834461 41.77085767 -0.06436003 48.80598378 -0.06876087 C53.19713446 -0.07152153 57.58828292 -0.07575857 61.97943211 -0.08026505 C74.13246332 -0.09245936 86.28549277 -0.10275822 98.43852997 -0.10614014 C99.60576053 -0.10646949 99.60576053 -0.10646949 100.7965715 -0.10680549 C101.57660933 -0.10702377 102.35664715 -0.10724204 103.16032249 -0.10746694 C104.74103026 -0.10791041 106.32173803 -0.10835697 107.90244579 -0.10880661 C108.68653492 -0.10902804 109.47062405 -0.10924947 110.27847346 -0.10947761 C122.98495273 -0.11342603 135.69137466 -0.13088067 148.39783178 -0.15416613 C161.43713462 -0.17786906 174.47640868 -0.19034151 187.51573342 -0.19150805 C194.83933901 -0.19242544 202.16286992 -0.19819348 209.48645496 -0.21632767 C216.37367013 -0.23332096 223.26074119 -0.23498919 230.14797115 -0.22618866 C232.67920403 -0.2254155 235.21044438 -0.22979751 237.74165821 -0.23964691 C241.19067367 -0.25228305 244.63917972 -0.24653473 248.08819103 -0.23606491 C249.59927747 -0.24814952 249.59927747 -0.24814952 251.1408909 -0.26047826 C259.88960572 -0.19814127 259.88960572 -0.19814127 263.66050243 3.13142776 C266.18695294 6.71731837 267.03559697 9.14361888 267.03688335 13.51440907 C267.0444898 14.58781656 267.05209624 15.66122405 267.05993319 16.76715904 C267.05303925 17.94049654 267.04614532 19.11383403 267.03904247 20.3227272 C267.0435726 21.57374409 267.04810273 22.82476097 267.05277014 24.11368746 C267.06498503 27.5836313 267.05861463 31.05333096 267.04926515 34.52327454 C267.04247118 38.2663292 267.053 42.00933876 267.06154919 45.75238419 C267.07411825 52.23753172 267.07608784 58.72261259 267.07119274 65.20776939 C267.06438903 74.58857663 267.07689407 83.96928319 267.09469992 93.35007244 C267.12335279 108.57544493 267.14086392 123.80080657 267.14927197 139.02620316 C267.14977914 139.93745453 267.15028632 140.8487059 267.15080887 141.78757095 C267.15484119 149.18213922 267.15833513 156.57670773 267.16180611 163.97127628 C267.16486355 170.43652549 267.16813571 176.90177454 267.1717329 183.36702347 C267.17248683 184.73269159 267.17248683 184.73269159 267.17325598 186.12594897 C267.18199364 201.29543389 267.20241607 216.46488141 267.231215 231.63434118 C267.24841434 240.99416952 267.25497118 250.35389218 267.24790895 259.71373426 C267.24373655 266.12349839 267.25005694 272.53319578 267.26470768 278.94294436 C267.27278296 282.64369202 267.27584782 286.34427432 267.26588535 290.04502106 C267.25518683 294.05252259 267.26743253 298.05962272 267.28196239 302.06711197 C267.27506846 303.24268018 267.26817452 304.4182484 267.26107168 305.62943989 C267.26867813 306.70023964 267.27628457 307.77103938 267.28412151 308.87428761 C267.2843939 309.79961373 267.28466628 310.72493985 267.28494692 311.67830616 C267.74124428 314.65883199 268.54037703 316.00215058 270.66050243 318.13142776 C271.98050243 318.46142776 273.30050243 318.79142776 274.66050243 319.13142776 C274.66050243 326.06142776 274.66050243 332.99142776 274.66050243 340.13142776 C272.68050243 340.79142776 270.70050243 341.45142776 268.66050243 342.13142776 C267.34478495 344.76286274 267.52865433 346.73243315 267.51865673 349.67927933 C267.51162228 350.84098648 267.50458782 352.00269363 267.4973402 353.19960403 C267.49109379 355.09171616 267.49109379 355.09171616 267.48472118 357.02205276 C267.46746367 358.99696518 267.45018255 360.97187772 267.43151855 362.94677734 C267.3859374 367.8248665 267.34821669 372.70284443 267.3345747 377.5811348 C267.32642922 380.31471666 267.30782809 383.04784165 267.27764416 385.78126907 C267.24950504 388.35654386 267.23658266 390.93203983 267.24050426 393.50746536 C267.08519848 404.56675474 267.08519848 404.56675474 262.66050243 409.13142776 C257.89691313 413.01946361 253.04855521 412.55442194 247.19103527 412.51910782 C245.59226643 412.52718613 245.59226643 412.52718613 243.96119922 412.53542763 C240.38371793 412.54975433 236.80660419 412.54259168 233.22910595 412.5354805 C230.66670464 412.54118158 228.10430587 412.54814481 225.54191113 412.55627823 C219.30075159 412.5723858 213.05972816 412.57430442 206.81855411 412.56906532 C201.74577354 412.56502406 196.67302272 412.56646665 191.60024357 412.57181358 C190.51730432 412.57293622 190.51730432 412.57293622 189.41248752 412.57408153 C187.94583257 412.575613 186.47917763 412.57715135 185.01252269 412.5786965 C171.25822827 412.59242475 157.50399074 412.58698156 143.74969762 412.57551128 C131.16691857 412.56557843 118.58428655 412.57851985 106.00153018 412.60244548 C93.08076581 412.62682867 80.16006994 412.63644628 67.23928303 412.62979275 C59.98554263 412.6262988 52.73191533 412.62854412 45.47819233 412.64604378 C38.65817483 412.66229305 31.83848335 412.65759632 25.01845837 412.63873863 C22.51344832 412.63504304 20.00841759 412.63818928 17.50342655 412.64862442 C14.08760833 412.66176895 10.67273055 412.65034369 7.25695324 412.63263321 C6.26230338 412.64223822 5.26765352 412.65184322 4.24286276 412.66173929 C-1.42120156 412.60118699 -4.94820284 412.08756046 -9.33949757 408.13142776 C-11.64897543 404.63686764 -11.59285917 401.58159641 -11.59955978 397.45590019 C-11.60526829 396.44624697 -11.60526829 396.44624697 -11.61109212 395.4161967 C-11.62143595 393.15043018 -11.61749666 390.88491287 -11.61365223 388.61912918 C-11.61810311 386.98240488 -11.62341666 385.34568273 -11.62952095 383.70896375 C-11.64372915 379.20314348 -11.64536371 374.6973921 -11.64492404 370.19155264 C-11.64656975 365.33527919 -11.65963154 360.47903433 -11.67111683 355.62277603 C-11.693984 345.00104837 -11.7018891 334.37934066 -11.70694327 323.75759172 C-11.71019791 317.12815585 -11.71671893 310.4987258 -11.72394466 303.86929321 C-11.74351184 285.52175012 -11.75991569 267.17421245 -11.7628212 248.82665825 C-11.76300877 247.65216644 -11.76319634 246.47767463 -11.76338959 245.26759215 C-11.76375585 242.88652031 -11.76411954 240.50544846 -11.7644807 238.12437661 C-11.76466351 236.94237732 -11.76484632 235.76037803 -11.76503468 234.54256058 C-11.76521522 233.35912238 -11.76539577 232.17568419 -11.76558179 230.95638423 C-11.76912506 211.77122432 -11.79615648 192.58617654 -11.83353256 173.40105553 C-11.87158067 153.71381785 -11.89097841 134.02663587 -11.89128071 114.33936059 C-11.89186602 103.28162715 -11.90040577 92.22402751 -11.92927837 81.16632843 C-11.95374537 71.75249119 -11.96110679 62.33883654 -11.94603085 52.92497613 C-11.93884306 48.12013915 -11.93979962 43.31566308 -11.96244144 38.51086617 C-11.9829634 34.11389119 -11.98049507 29.71755616 -11.9595666 25.32058863 C-11.95605867 23.72841343 -11.96103664 22.13619267 -11.97527104 20.54407723 C-11.99336253 18.38148483 -11.98069561 16.22116054 -11.96032333 14.05863762 C-11.96113779 12.85709246 -11.96195225 11.65554731 -11.96279138 10.41759169 C-11.12375801 5.99399383 -9.4771427 4.32166749 -6.33949757 1.13142776 C-3.99348589 -0.04157807 -2.6148825 0.00409755 0 0 Z " fill="#020202" transform="translate(230.33949756622314,84.86857223510742)"/>
<path d="M0 0 C1.40948202 -0.03136966 2.81973653 -0.03518595 4.2294569 -0.01751995 C5.00789414 -0.0274366 5.78633138 -0.03735325 6.58835763 -0.04757041 C9.19954432 -0.07456148 11.8093712 -0.06575996 14.42066479 -0.05699444 C16.29166044 -0.06867984 18.16264407 -0.08244851 20.03361034 -0.09814739 C25.11850871 -0.13380412 30.20295164 -0.1372591 35.28795552 -0.13283658 C39.53247682 -0.1316482 43.77690295 -0.14508718 48.02140015 -0.15821952 C58.03622902 -0.18856837 68.05082517 -0.19186234 78.06568432 -0.17906475 C88.39632457 -0.16638753 98.7260301 -0.20154375 109.05649215 -0.25994855 C117.92545567 -0.30826178 126.79411974 -0.32562275 135.66321152 -0.31847399 C140.96047422 -0.31459272 146.25703344 -0.32271906 151.55417347 -0.36108112 C156.53767792 -0.39592066 161.51968812 -0.3921142 166.50318813 -0.35874271 C168.33051306 -0.35296529 170.15794018 -0.36079822 171.98513508 -0.38334942 C185.83078566 -0.54222344 185.83078566 -0.54222344 190.08349705 2.38565731 C191.9398756 4.52352619 191.9398756 4.52352619 193.27078056 6.64764595 C194.72574964 8.92085286 196.23139113 9.99678732 198.48194408 11.45008564 C200.24732494 12.86341572 200.24732494 12.86341572 201.54444408 14.63758564 C201.84351635 17.35511494 201.84351635 17.35511494 201.73585033 20.33680439 C201.70821606 21.32897968 201.68058178 22.32115498 201.6521101 23.34339619 C201.59881542 24.47901997 201.59881542 24.47901997 201.54444408 25.63758564 C200.34956371 25.64169453 199.15468334 25.64580341 197.92359447 25.65003681 C193.455881 25.67194252 188.98903396 25.72634964 184.52173901 25.79017353 C182.59474067 25.81325425 180.66761795 25.82772577 178.74048901 25.83314228 C175.95691335 25.84250489 173.17526722 25.88365261 170.39210033 25.93055439 C169.54172695 25.92662174 168.69135357 25.92268909 167.8152113 25.91863728 C160.64451393 26.09037548 154.90272677 28.41584382 149.68447399 33.42193317 C144.45832647 39.12453919 142.09609663 44.6126077 142.11207104 52.38709736 C142.10187939 53.13899845 142.09168774 53.89089954 142.08118725 54.66558552 C142.05116822 57.13289161 142.04180856 59.59980877 142.03272533 62.06727314 C142.01587038 63.78506976 141.99771903 65.50285411 141.97832775 67.22062397 C141.9309102 71.72832625 141.90104762 76.23597876 141.87488842 80.74384785 C141.8450412 85.34915207 141.79852519 89.95428496 141.75342846 94.55946064 C141.66748922 103.58541253 141.6001023 112.61139977 141.54444408 121.63758564 C137.79610508 120.1765384 134.40963106 118.50631719 130.93116283 116.47742939 C129.85511791 115.85231464 128.77907299 115.2271999 127.67042065 114.58314228 C125.96837475 113.58915424 125.96837475 113.58915424 124.23194408 112.57508564 C123.05878891 111.8953678 121.88528433 111.21625267 120.71143627 110.53773212 C115.62323272 107.59541622 110.54282929 104.64112545 105.48585033 101.64539814 C104.08884297 100.83007453 102.69171937 100.01495002 101.29444408 99.20008564 C100.68302563 98.8293996 100.07160717 98.45871357 99.44166088 98.07679462 C95.57311641 95.83953111 92.97440834 95.24879466 88.54444408 95.63758564 C85.59215213 96.85061979 85.59215213 96.85061979 82.67725658 98.64539814 C81.55601391 99.2956496 80.43477123 99.94590107 79.27955151 100.61585712 C78.07602448 101.33116772 76.87265912 102.04675037 75.66944408 102.76258564 C74.42053811 103.49300982 73.17093522 104.2222436 71.92066479 104.95032978 C69.36516791 106.44119507 66.81411522 107.93925544 64.26661205 109.44373798 C60.81802885 111.47943358 57.35714982 113.49330091 53.89210033 115.50086689 C48.9707576 118.35351889 44.05904949 121.22196808 39.15479565 124.10389423 C37.46248657 125.09819704 35.76918636 126.09081559 34.07471752 127.0814333 C31.91551193 128.34468221 29.76045543 129.61466097 27.60694408 130.88758564 C26.99165844 131.24650898 26.3763728 131.60543232 25.74244213 131.97523212 C22.59634714 133.75978172 22.59634714 133.75978172 20.54444408 136.63758564 C20.425567 139.1433273 20.36614181 141.62216998 20.35157299 144.12904072 C20.3433955 144.90158695 20.33521801 145.67413319 20.32679272 146.47008991 C20.30193479 149.03242432 20.28542186 151.59470332 20.27100658 154.15711689 C20.26302107 155.46891202 20.26302107 155.46891202 20.25487423 156.80720806 C20.22814106 161.43596108 20.20876661 166.0646871 20.19434643 170.69349384 C20.17769691 175.47545867 20.13291748 180.25673452 20.08197498 185.0384388 C20.04832556 188.7144726 20.03677157 192.39034238 20.03111935 196.06651592 C20.02440058 197.82919487 20.00916221 199.59186279 19.98522854 201.35439205 C19.9536217 203.82281546 19.9535327 206.28937448 19.96094799 208.75794697 C19.94454266 209.48488758 19.92813732 210.21182819 19.91123486 210.96079731 C19.95911223 214.85796345 20.41105309 216.47568259 22.92205334 219.52340412 C25.47201962 221.57919676 27.95548899 223.27033606 30.80616283 224.87977314 C31.83016186 225.46371845 32.85416088 226.04766376 33.90919018 226.64930439 C35.00569897 227.2641872 36.10220776 227.87907001 37.23194408 228.51258564 C38.97403828 229.50314478 40.71612529 230.49371686 42.45777416 231.48505878 C44.26867328 232.51455013 46.08148013 233.5406193 47.89454174 234.56629658 C53.75691764 237.88733829 59.58608842 241.26591543 65.41944408 244.63758564 C66.9753828 245.53453144 66.9753828 245.53453144 68.56275463 246.44959736 C69.56475903 247.02725849 70.56676342 247.60491962 71.59913158 248.20008564 C73.06431225 249.03733173 73.06431225 249.03733173 74.55909252 249.89149189 C76.64678116 251.11255414 78.71113718 252.37399636 80.75635815 253.66492939 C81.80275463 254.31590595 82.84915112 254.96688251 83.92725658 255.63758564 C84.86198803 256.23571064 85.79671947 256.83383564 86.75977612 257.45008564 C90.25241307 258.93949351 91.92420781 258.6825383 95.54444408 257.63758564 C98.29954607 256.42353236 98.29954607 256.42353236 101.00147533 254.82899189 C102.0241853 254.25108906 103.04689526 253.67318623 104.10059643 253.07777119 C105.17519115 252.45813496 106.24978588 251.83849873 107.35694408 251.20008564 C109.01524242 250.25806293 109.01524242 250.25806293 110.70704174 249.29700947 C118.01706912 245.13174717 125.29390962 240.90664746 132.50464916 236.57142353 C135.16949344 234.97715681 137.5871187 233.62336077 140.54444408 232.63758564 C140.54444408 272.23758564 140.54444408 311.83758564 140.54444408 352.63758564 C104.5448783 353.04061598 104.5448783 353.04061598 89.44092846 353.12586689 C79.01814516 353.18516895 68.59617118 353.25482081 58.17408276 353.39198017 C50.58305521 353.49183365 42.9926851 353.55620964 35.40101904 353.57847059 C31.38299225 353.59147895 27.36684576 353.62191619 23.34942341 353.69488621 C19.56246128 353.76310867 15.77814083 353.78363703 11.99062252 353.76866245 C10.60584457 353.77139879 9.22097228 353.79109795 7.8367281 353.82964039 C-2.62135642 354.10638507 -2.62135642 354.10638507 -7.19924068 350.44048405 C-9.60132313 347.75413227 -9.60132313 347.75413227 -11.60004997 345.07814312 C-13.2717994 342.58333868 -13.2717994 342.58333868 -15.53901726 341.32377887 C-17.45555592 339.63758564 -17.45555592 339.63758564 -17.96385658 337.19143665 C-17.96775842 336.2101816 -17.97166027 335.22892656 -17.97568035 334.21793652 C-17.98981153 333.0854101 -18.00394272 331.95288368 -18.01850212 330.78603828 C-18.01367195 329.53635769 -18.00884178 328.28667709 -18.00386524 326.99912739 C-18.01276638 325.66238011 -18.02339329 324.32564339 -18.03560269 322.98892224 C-18.0640296 319.30748331 -18.06728805 315.62638151 -18.06640887 311.94484854 C-18.0696996 307.97734048 -18.09582234 304.0099725 -18.11879444 300.04253864 C-18.16454104 291.36263891 -18.18034123 282.68283682 -18.19044733 274.00283289 C-18.19695731 268.58328988 -18.21000003 263.16377532 -18.22445011 257.74424839 C-18.26359147 242.74060383 -18.29639325 227.73698577 -18.30220318 212.73328686 C-18.30257832 211.77268262 -18.30295346 210.81207839 -18.30333997 209.82236493 C-18.30407247 207.87494477 -18.30479987 205.9275246 -18.30552219 203.98010443 C-18.30588781 203.01339159 -18.30625343 202.04667875 -18.30663013 201.05067158 C-18.30699123 200.08277908 -18.30735233 199.11488657 -18.30772437 198.11766399 C-18.31480554 182.43912808 -18.36883078 166.76114196 -18.44362591 151.08279668 C-18.51979399 134.98786213 -18.55851816 118.89320031 -18.5591222 102.79808152 C-18.56029149 93.76049142 -18.57728134 84.7235567 -18.63511753 75.68613529 C-18.68414952 67.98895555 -18.69871049 60.29266999 -18.66862248 52.5953763 C-18.65428286 48.66861943 -18.6559927 44.74362789 -18.70144367 40.81706905 C-18.74269879 37.21844568 -18.7373718 33.62293967 -18.69569398 30.02434887 C-18.68542269 28.11331828 -18.72421785 26.20221605 -18.76501739 24.29159343 C-18.66712515 19.26876581 -18.53767252 15.9604625 -15.28785443 11.98759198 C-12.62871456 9.61256313 -12.62871456 9.61256313 -9.99045765 7.62351048 C-7.33487352 5.70843922 -7.33487352 5.70843922 -5.34820575 2.92899865 C-3.45555592 0.63758564 -3.45555592 0.63758564 0 0 Z " fill="#FD75A7" transform="translate(62.45555591583252,44.36241436004639)"/>
<path d="M0 0 C0.91703164 -0.00384115 1.83406328 -0.00768229 2.77888376 -0.01163983 C4.30000844 -0.01034011 4.30000844 -0.01034011 5.85186291 -0.00901413 C6.9240182 -0.01198525 7.99617349 -0.01495637 9.10081834 -0.01801753 C12.71748186 -0.02673548 16.33411241 -0.02821538 19.95078564 -0.02970505 C22.53406883 -0.03433102 25.11735134 -0.03935538 27.70063305 -0.04475021 C34.73574821 -0.05834461 41.77085767 -0.06436003 48.80598378 -0.06876087 C53.19713446 -0.07152153 57.58828292 -0.07575857 61.97943211 -0.08026505 C74.13246332 -0.09245936 86.28549277 -0.10275822 98.43852997 -0.10614014 C99.60576053 -0.10646949 99.60576053 -0.10646949 100.7965715 -0.10680549 C101.57660933 -0.10702377 102.35664715 -0.10724204 103.16032249 -0.10746694 C104.74103026 -0.10791041 106.32173803 -0.10835697 107.90244579 -0.10880661 C108.68653492 -0.10902804 109.47062405 -0.10924947 110.27847346 -0.10947761 C122.98495273 -0.11342603 135.69137466 -0.13088067 148.39783178 -0.15416613 C161.43713462 -0.17786906 174.47640868 -0.19034151 187.51573342 -0.19150805 C194.83933901 -0.19242544 202.16286992 -0.19819348 209.48645496 -0.21632767 C216.37367013 -0.23332096 223.26074119 -0.23498919 230.14797115 -0.22618866 C232.67920403 -0.2254155 235.21044438 -0.22979751 237.74165821 -0.23964691 C241.19067367 -0.25228305 244.63917972 -0.24653473 248.08819103 -0.23606491 C249.59927747 -0.24814952 249.59927747 -0.24814952 251.1408909 -0.26047826 C259.88960572 -0.19814127 259.88960572 -0.19814127 263.66050243 3.13142776 C266.18695294 6.71731837 267.03559697 9.14361888 267.03688335 13.51440907 C267.0444898 14.58781656 267.05209624 15.66122405 267.05993319 16.76715904 C267.05303925 17.94049654 267.04614532 19.11383403 267.03904247 20.3227272 C267.0435726 21.57374409 267.04810273 22.82476097 267.05277014 24.11368746 C267.06498503 27.5836313 267.05861463 31.05333096 267.04926515 34.52327454 C267.04247118 38.2663292 267.053 42.00933876 267.06154919 45.75238419 C267.07411825 52.23753172 267.07608784 58.72261259 267.07119274 65.20776939 C267.06438903 74.58857663 267.07689407 83.96928319 267.09469992 93.35007244 C267.12335279 108.57544493 267.14086392 123.80080657 267.14927197 139.02620316 C267.14977914 139.93745453 267.15028632 140.8487059 267.15080887 141.78757095 C267.15484119 149.18213922 267.15833513 156.57670773 267.16180611 163.97127628 C267.16486355 170.43652549 267.16813571 176.90177454 267.1717329 183.36702347 C267.17248683 184.73269159 267.17248683 184.73269159 267.17325598 186.12594897 C267.18199364 201.29543389 267.20241607 216.46488141 267.231215 231.63434118 C267.24841434 240.99416952 267.25497118 250.35389218 267.24790895 259.71373426 C267.24373655 266.12349839 267.25005694 272.53319578 267.26470768 278.94294436 C267.27278296 282.64369202 267.27584782 286.34427432 267.26588535 290.04502106 C267.25518683 294.05252259 267.26743253 298.05962272 267.28196239 302.06711197 C267.27506846 303.24268018 267.26817452 304.4182484 267.26107168 305.62943989 C267.26867813 306.70023964 267.27628457 307.77103938 267.28412151 308.87428761 C267.2843939 309.79961373 267.28466628 310.72493985 267.28494692 311.67830616 C267.74124428 314.65883199 268.54037703 316.00215058 270.66050243 318.13142776 C271.98050243 318.46142776 273.30050243 318.79142776 274.66050243 319.13142776 C274.66050243 326.06142776 274.66050243 332.99142776 274.66050243 340.13142776 C272.68050243 340.79142776 270.70050243 341.45142776 268.66050243 342.13142776 C267.34478495 344.76286274 267.52865433 346.73243315 267.51865673 349.67927933 C267.51162228 350.84098648 267.50458782 352.00269363 267.4973402 353.19960403 C267.49109379 355.09171616 267.49109379 355.09171616 267.48472118 357.02205276 C267.46746367 358.99696518 267.45018255 360.97187772 267.43151855 362.94677734 C267.3859374 367.8248665 267.34821669 372.70284443 267.3345747 377.5811348 C267.32642922 380.31471666 267.30782809 383.04784165 267.27764416 385.78126907 C267.24950504 388.35654386 267.23658266 390.93203983 267.24050426 393.50746536 C267.08519848 404.56675474 267.08519848 404.56675474 262.66050243 409.13142776 C257.89691313 413.01946361 253.04855521 412.55442194 247.19103527 412.51910782 C245.59226643 412.52718613 245.59226643 412.52718613 243.96119922 412.53542763 C240.38371793 412.54975433 236.80660419 412.54259168 233.22910595 412.5354805 C230.66670464 412.54118158 228.10430587 412.54814481 225.54191113 412.55627823 C219.30075159 412.5723858 213.05972816 412.57430442 206.81855411 412.56906532 C201.74577354 412.56502406 196.67302272 412.56646665 191.60024357 412.57181358 C190.51730432 412.57293622 190.51730432 412.57293622 189.41248752 412.57408153 C187.94583257 412.575613 186.47917763 412.57715135 185.01252269 412.5786965 C171.25822827 412.59242475 157.50399074 412.58698156 143.74969762 412.57551128 C131.16691857 412.56557843 118.58428655 412.57851985 106.00153018 412.60244548 C93.08076581 412.62682867 80.16006994 412.63644628 67.23928303 412.62979275 C59.98554263 412.6262988 52.73191533 412.62854412 45.47819233 412.64604378 C38.65817483 412.66229305 31.83848335 412.65759632 25.01845837 412.63873863 C22.51344832 412.63504304 20.00841759 412.63818928 17.50342655 412.64862442 C14.08760833 412.66176895 10.67273055 412.65034369 7.25695324 412.63263321 C6.26230338 412.64223822 5.26765352 412.65184322 4.24286276 412.66173929 C-1.42120156 412.60118699 -4.94820284 412.08756046 -9.33949757 408.13142776 C-11.64897543 404.63686764 -11.59285917 401.58159641 -11.59955978 397.45590019 C-11.60526829 396.44624697 -11.60526829 396.44624697 -11.61109212 395.4161967 C-11.62143595 393.15043018 -11.61749666 390.88491287 -11.61365223 388.61912918 C-11.61810311 386.98240488 -11.62341666 385.34568273 -11.62952095 383.70896375 C-11.64372915 379.20314348 -11.64536371 374.6973921 -11.64492404 370.19155264 C-11.64656975 365.33527919 -11.65963154 360.47903433 -11.67111683 355.62277603 C-11.693984 345.00104837 -11.7018891 334.37934066 -11.70694327 323.75759172 C-11.71019791 317.12815585 -11.71671893 310.4987258 -11.72394466 303.86929321 C-11.74351184 285.52175012 -11.75991569 267.17421245 -11.7628212 248.82665825 C-11.76300877 247.65216644 -11.76319634 246.47767463 -11.76338959 245.26759215 C-11.76375585 242.88652031 -11.76411954 240.50544846 -11.7644807 238.12437661 C-11.76466351 236.94237732 -11.76484632 235.76037803 -11.76503468 234.54256058 C-11.76521522 233.35912238 -11.76539577 232.17568419 -11.76558179 230.95638423 C-11.76912506 211.77122432 -11.79615648 192.58617654 -11.83353256 173.40105553 C-11.87158067 153.71381785 -11.89097841 134.02663587 -11.89128071 114.33936059 C-11.89186602 103.28162715 -11.90040577 92.22402751 -11.92927837 81.16632843 C-11.95374537 71.75249119 -11.96110679 62.33883654 -11.94603085 52.92497613 C-11.93884306 48.12013915 -11.93979962 43.31566308 -11.96244144 38.51086617 C-11.9829634 34.11389119 -11.98049507 29.71755616 -11.9595666 25.32058863 C-11.95605867 23.72841343 -11.96103664 22.13619267 -11.97527104 20.54407723 C-11.99336253 18.38148483 -11.98069561 16.22116054 -11.96032333 14.05863762 C-11.96113779 12.85709246 -11.96195225 11.65554731 -11.96279138 10.41759169 C-11.12375801 5.99399383 -9.4771427 4.32166749 -6.33949757 1.13142776 C-3.99348589 -0.04157807 -2.6148825 0.00409755 0 0 Z M3.66050243 18.13142776 C3.20639249 21.00601803 3.20639249 21.00601803 3.2801857 24.34591198 C3.27174576 25.65569167 3.26330582 26.96547136 3.25461012 28.31494135 C3.26040597 29.77720368 3.26648703 31.23946491 3.27282238 32.70172501 C3.26865231 34.24826748 3.2631766 35.7948069 3.25650257 37.3413406 C3.24198618 41.60249079 3.24631189 45.86344859 3.25366938 50.12460959 C3.25838352 54.71569703 3.24590681 59.30674178 3.23565197 63.8978157 C3.21842406 72.89649767 3.21763221 81.89510994 3.22286487 90.89380413 C3.22690039 98.20539596 3.22547039 105.51696713 3.22011662 112.82855797 C3.21936819 113.86775707 3.21861977 114.90695618 3.21784867 115.97764616 C3.21631725 118.08853364 3.2147789 120.19942111 3.2132337 122.31030858 C3.19949422 142.12202255 3.20495651 161.93369707 3.21641891 181.74541015 C3.22635286 199.88439637 3.21341039 218.02328062 3.18948472 236.16225111 C3.16512312 254.77142025 3.1554786 273.38054183 3.16213745 291.9897266 C3.16563621 302.44375865 3.16335441 312.89771223 3.14588642 323.35173225 C3.13120113 332.25107817 3.13048072 341.15029037 3.14795733 350.04963356 C3.15650011 354.59290654 3.15853744 359.1359403 3.14330578 363.67920113 C3.12954564 367.83488125 3.13410889 371.99011527 3.15354501 376.14576901 C3.15733219 377.65246866 3.15430556 379.15920332 3.14393336 380.66587203 C3.13087276 382.70758068 3.144663 384.74940907 3.15993118 386.79110241 C3.16003852 387.9271183 3.16014586 389.06313419 3.16025645 390.23357481 C3.7789719 393.81770431 4.74998021 394.99880946 7.66050243 397.13142776 C9.69031698 397.72126802 9.69031698 397.72126802 11.87127876 397.63758564 C12.70869101 397.64863333 13.54610325 397.65968102 14.40889162 397.67106348 C15.3237663 397.66282272 16.23864097 397.65458195 17.18123913 397.64609146 C18.64502745 397.65650975 18.64502745 397.65650975 20.13838726 397.66713852 C23.41739259 397.68547527 26.69567987 397.6751254 29.97471142 397.66487503 C32.32184423 397.67193011 34.66897248 397.68067338 37.01609325 397.69098282 C43.39829418 397.71353259 49.78024778 397.71052393 56.16247344 397.70166135 C62.15872121 397.6959155 68.15494011 397.70558578 74.15118051 397.7139492 C86.75233308 397.73053234 99.35337373 397.72180429 111.95451958 397.70496362 C123.48403545 397.69026772 135.0132907 397.70489243 146.542773 397.73373378 C158.37983214 397.76312413 170.21677098 397.77410105 182.05386502 397.76455158 C188.70006785 397.75947543 195.34610625 397.76187944 201.99228764 397.7823391 C208.24109319 397.80065361 214.48941332 397.79478872 220.73819256 397.77013969 C223.03398742 397.76511847 225.329819 397.76865531 227.6255846 397.78128815 C230.75521345 397.79714942 233.88323026 397.78233204 237.0127821 397.75961685 C237.92542605 397.77145258 238.83807001 397.78328831 239.77836984 397.7954827 C240.61838983 397.78306066 241.45840982 397.77063862 242.32388496 397.75784016 C243.40682253 397.75743562 243.40682253 397.75743562 244.51163763 397.75702292 C247.93854261 396.75935422 249.47468564 394.89024246 251.66050243 392.13142776 C252.40207887 389.07715848 252.40207887 389.07715848 252.28691483 385.70208263 C252.30554788 383.74189014 252.30554788 383.74189014 252.32455736 381.7420978 C252.31305637 380.29357793 252.30108416 378.84506174 252.28869152 377.39654922 C252.29373605 375.85652577 252.30096416 374.31650818 252.31018966 372.7765041 C252.32915233 368.54253949 252.31685588 364.30915094 252.29946673 360.07520068 C252.28611717 355.51003926 252.30152108 350.94496349 252.31328869 346.37981033 C252.33168725 337.43615793 252.32313839 328.49272369 252.30520047 319.54907804 C252.2911872 312.28233869 252.28727892 305.01565865 252.29064274 297.74890709 C252.2913589 296.19884099 252.2913589 296.19884099 252.29208953 294.61746042 C252.29311584 292.51833 252.2941712 290.41919959 252.2952553 288.3200692 C252.30382673 269.75039044 252.28713248 251.18081718 252.25742626 232.61116409 C252.22858363 214.58117111 252.22150672 196.55133008 252.23691845 178.52132034 C252.25366843 158.89876424 252.25772744 139.27628032 252.24020809 119.65372235 C252.23836365 117.5625258 252.23652892 115.47132924 252.23470402 113.38013268 C252.23379193 112.35115733 252.23287984 111.32218199 252.23194011 110.26202558 C252.22632754 103.001205 252.22964856 95.74041958 252.23624897 88.47960091 C252.24396959 79.63518566 252.23727542 70.79092017 252.21207393 61.94653516 C252.19954976 57.43161097 252.19346757 52.91692026 252.20461559 48.40198708 C252.21462015 44.27227559 252.20627988 40.1430308 252.18303441 36.01337636 C252.17785402 34.51616422 252.17947473 33.01891062 252.18842907 31.52171629 C252.19955787 29.49280566 252.18384673 27.46380012 252.16666031 25.43493176 C252.16546883 24.30607553 252.16427734 23.17721931 252.16304976 22.01415533 C251.54013553 18.44097541 250.56293685 17.25879784 247.66050243 15.13142776 C245.61416242 14.54349637 245.61416242 14.54349637 243.41290474 14.63085651 C242.56729231 14.62104222 241.72167988 14.61122793 240.85044283 14.60111624 C239.46441161 14.61552375 239.46441161 14.61552375 238.05037975 14.63022232 C237.06494263 14.62468792 236.07950551 14.61915353 235.06420666 14.61345142 C231.75287054 14.59980755 228.44228326 14.61483476 225.13096142 14.62971878 C222.76088165 14.625937 220.3908041 14.62043813 218.02073193 14.6133461 C212.24629415 14.60081041 206.47209759 14.60697491 200.69767027 14.62202168 C193.97569908 14.63887172 187.25378248 14.63567285 180.5317967 14.6319276 C168.54023057 14.62604777 156.54876942 14.64022598 144.55723095 14.66487503 C132.91591489 14.68880156 121.27473906 14.69587739 109.63340282 14.68538284 C96.96125625 14.67397953 84.28917455 14.67203588 71.61702877 14.68648094 C70.26643376 14.68800681 68.91583874 14.68952716 67.56524372 14.69104195 C66.56842099 14.69217867 66.56842099 14.69217867 65.55146043 14.69333835 C60.86351348 14.69808531 56.17559547 14.69622688 51.48764896 14.69197655 C45.18148857 14.68721659 38.87552312 14.69726781 32.56939983 14.7189312 C30.25019329 14.72451238 27.93096806 14.72495225 25.61176014 14.71997833 C22.45550167 14.71405639 19.29984552 14.72647131 16.14364147 14.74374771 C14.75426417 14.73473264 14.75426417 14.73473264 13.33681864 14.72553545 C12.07231161 14.73819536 12.07231161 14.73819536 10.78225899 14.75111103 C10.05346564 14.75214016 9.3246723 14.75316929 8.57379431 14.75422961 C5.97309296 15.26694791 5.15136442 15.93588051 3.66050243 18.13142776 Z " fill="#ECF0F2" transform="translate(230.33949756622314,84.86857223510742)"/>
<path d="M0 0 C1.06105678 -0.00538554 2.12211355 -0.01077108 3.21532357 -0.01631981 C6.77665189 -0.0306462 10.33761096 -0.02348392 13.8989563 -0.01637268 C16.44988301 -0.02207381 19.00080718 -0.02903706 21.55172729 -0.03717041 C27.76514854 -0.05327822 33.97843307 -0.05519646 40.19186889 -0.04995751 C45.24271108 -0.04591593 50.2935234 -0.04735921 55.34436417 -0.05270576 C56.42270728 -0.0538284 56.42270728 -0.0538284 57.52283511 -0.05497371 C58.98328733 -0.05650519 60.44373954 -0.05804354 61.90419175 -0.05958868 C75.60081249 -0.0733173 89.29737612 -0.06787372 102.99399556 -0.05640347 C115.52113384 -0.04647283 128.04812439 -0.05940813 140.57523988 -0.08333766 C153.44063854 -0.10772803 166.30596839 -0.11733656 179.1713897 -0.11068493 C186.39330409 -0.10719229 193.61510489 -0.10942757 200.8370018 -0.12693596 C207.62829565 -0.14319622 214.41926225 -0.13847726 221.21056366 -0.11963081 C223.70386577 -0.11593788 226.19718868 -0.11907377 228.69047165 -0.1295166 C232.09280327 -0.1426794 235.49419348 -0.13121947 238.89648438 -0.11352539 C239.88433044 -0.1231304 240.87217651 -0.1327354 241.88995731 -0.14263147 C247.972727 -0.07749707 251.6219784 0.77659551 256.57522583 4.38768005 C258.70886234 7.58813481 258.82194811 8.37397442 258.80227661 12.04270935 C258.80212555 12.9834581 258.80197449 13.92420685 258.80181885 14.89346313 C258.79149628 15.90604691 258.78117371 16.91863068 258.77053833 17.9618988 C258.76629349 19.52035271 258.76629349 19.52035271 258.76196289 21.11029053 C258.75075865 24.43203702 258.72565347 27.75351491 258.70022583 31.07518005 C258.69019635 33.3258272 258.68107045 35.57647858 258.67288208 37.82713318 C258.65081848 43.34741913 258.61628682 48.86750403 258.57522583 54.38768005 C253.95522583 54.38768005 249.33522583 54.38768005 244.57522583 54.38768005 C244.56104614 53.29068787 244.54686646 52.19369568 244.53225708 51.0634613 C244.48533875 49.60899307 244.43709145 48.15456728 244.38772583 46.70018005 C244.38192505 45.97894958 244.37612427 45.25771912 244.37014771 44.51463318 C244.20337109 40.45640233 243.92710977 38.81696656 241.26663208 35.5712738 C240.37846802 34.85068787 239.49030396 34.13010193 238.57522583 33.38768005 C237.91780396 32.8256488 237.26038208 32.26361755 236.58303833 31.68455505 C235.96171021 31.1740863 235.34038208 30.66361755 234.70022583 30.13768005 C230.89929 26.86945114 227.96663488 23.25031107 225.02053833 19.20799255 C223.68997588 17.26905855 223.68997588 17.26905855 221.57522583 16.38768005 C218.93036115 16.26376085 216.31032227 16.20013777 213.66410828 16.1799469 C212.42361982 16.16490673 212.42361982 16.16490673 211.15807098 16.14956272 C208.37080202 16.11732795 205.58351895 16.09248564 202.7961731 16.06785583 C200.80389646 16.04686728 198.81162253 16.02562096 196.8193512 16.00413513 C178.60879107 15.81617238 160.39731892 15.71352805 142.18600559 15.63199043 C128.724634 15.57043488 115.26493527 15.4669535 101.80433995 15.30929577 C92.34012637 15.20217526 82.87637283 15.14493375 73.41158146 15.12385929 C67.7591331 15.10979701 62.10887414 15.07343096 56.45709419 14.98262405 C51.13341842 14.8979737 45.81297935 14.87523707 40.48871803 14.89898682 C38.54037289 14.89701479 36.59189853 14.87294837 34.64415359 14.82455063 C23.529846 14.27969564 23.529846 14.27969564 14.08213615 19.23478317 C12.10179936 21.42972453 10.41352457 23.72636422 8.7808218 26.18743706 C6.1051735 30.06970962 3.06989917 32.43679755 -0.74508667 35.1181488 C-2.56515136 36.29852467 -2.56515136 36.29852467 -3.42477417 38.38768005 C-3.52369796 40.21730466 -3.55760293 42.05057087 -3.56178856 43.88286304 C-3.5668631 45.05766596 -3.57193764 46.23246887 -3.57716596 47.44287187 C-3.57766372 48.74488516 -3.57816148 50.04689846 -3.57867432 51.3883667 C-3.58268757 52.77658833 -3.58712556 54.16480878 -3.59195387 55.55302781 C-3.60394038 59.38118558 -3.60957261 63.20933073 -3.61413503 67.0375036 C-3.62008319 71.16099209 -3.63169491 75.28446543 -3.64242554 79.40794373 C-3.66696634 89.37236001 -3.6815785 99.33678132 -3.6944856 109.30121854 C-3.6981961 112.11416049 -3.70216944 114.92710195 -3.70623827 117.7400434 C-3.73147169 135.19699504 -3.75353121 152.65394743 -3.76596642 170.11091328 C-3.76889625 174.155887 -3.7718579 178.20086069 -3.77487183 182.24583435 C-3.77561788 183.25122897 -3.77636393 184.2566236 -3.77713259 185.29248472 C-3.78979263 201.58791298 -3.82302354 217.88323229 -3.86467366 234.17860959 C-3.9070564 250.89723126 -3.93065715 267.61579709 -3.93588698 284.33447236 C-3.9393051 293.7261007 -3.95110747 303.11755873 -3.98398972 312.50913429 C-4.01194106 320.50561598 -4.02301123 328.50189245 -4.01179425 336.4984192 C-4.00659506 340.58012861 -4.00957542 344.66140795 -4.0342598 348.74305534 C-4.05666093 352.47825042 -4.05608476 356.21270426 -4.03705592 359.94791152 C-4.03290824 361.94239582 -4.0534689 363.93688395 -4.07484281 365.93125802 C-4.28161936 372.85268354 -4.28161936 372.85268354 -1.02715492 378.60171795 C0.26102355 379.48576919 0.26102355 379.48576919 1.57522583 380.38768005 C2.68704224 381.35641052 2.68704224 381.35641052 3.82131958 382.3447113 C4.54448364 382.95701599 5.26764771 383.56932068 6.01272583 384.20018005 C9.70245917 387.43484628 12.60993103 390.78293464 15.38381958 394.8212738 C16.50746543 396.53761957 16.50746543 396.53761957 18.57522583 397.38768005 C20.55145857 397.49353804 22.53128284 397.53433481 24.51031494 397.54589844 C25.77518738 397.55568726 27.04005981 397.56547607 28.34326172 397.57556152 C29.75277672 397.5814661 31.16229212 397.58727652 32.57180786 397.59300232 C34.04991939 397.60257821 35.52802816 397.61258812 37.00613403 397.6230011 C41.02653095 397.65008759 45.04693964 397.67107684 49.06737757 397.69100308 C53.26613175 397.71283958 57.46484945 397.74023968 61.66357422 397.76705933 C69.61791393 397.81701787 77.57227386 397.86194495 85.52665317 397.90508169 C94.58096487 397.95442708 103.63523998 398.0093552 112.68951631 398.06476128 C131.3180524 398.17862985 149.94662352 398.28526022 168.57522583 398.38768005 C168.57522583 403.00768005 168.57522583 407.62768005 168.57522583 412.38768005 C145.06216288 412.50337665 121.54916838 412.59262826 98.03587818 412.64674091 C87.11847563 412.67253312 76.20125309 412.70770318 65.28396606 412.76487732 C55.76952057 412.81468102 46.25520541 412.84696367 36.74063319 412.85812253 C31.70170406 412.8646464 26.66314786 412.88000059 21.62433815 412.91633034 C16.88256155 412.95024183 12.14131185 412.96074281 7.39942551 412.95321846 C5.65832215 412.95459518 3.91720135 412.96455665 2.17620277 412.98370743 C-0.20052732 413.00857104 -2.57526587 413.00261143 -4.95204163 412.98895264 C-5.64173906 413.00351684 -6.33143649 413.01808105 -7.04203385 413.0330866 C-10.76985645 412.9751408 -12.32808215 412.46550803 -15.26681995 410.10010052 C-18.4838144 406.05652929 -19.6743578 403.43683078 -19.67810726 398.24989223 C-19.68372266 397.20572626 -19.68933805 396.16156028 -19.69512361 395.0857529 C-19.69114252 393.93994804 -19.68716143 392.79414317 -19.68305969 391.61361694 C-19.6867354 390.39541734 -19.6904111 389.17721773 -19.69419819 387.92210299 C-19.70246237 384.53919066 -19.7018033 381.15648956 -19.69747126 377.77358377 C-19.69499715 374.12597005 -19.70406048 370.47838369 -19.71185303 366.83078003 C-19.72390281 360.50987213 -19.7290062 354.18898945 -19.72973442 347.8680706 C-19.73105905 338.72578353 -19.74616139 329.58355779 -19.76522959 320.44129235 C-19.79607774 305.60466289 -19.82024125 290.76803188 -19.83810425 275.93138123 C-19.83917693 275.04322696 -19.84024961 274.1550727 -19.84135479 273.24000467 C-19.85317909 263.32733744 -19.86338406 253.4146696 -19.87179565 243.5019989 C-19.87486964 239.90586851 -19.8779584 236.30973814 -19.881073 232.71360779 C-19.88183834 231.82623021 -19.88260368 230.93885263 -19.88339221 230.02458482 C-19.8964613 215.24272572 -19.92108236 200.46091105 -19.9548164 185.67908484 C-19.97513567 176.55655721 -19.98539178 167.43412453 -19.98282719 158.31157411 C-19.98179425 152.06486014 -19.99139462 145.81822135 -20.00946622 139.57153361 C-20.01953773 135.96408211 -20.02461111 132.35679689 -20.01669884 128.74933624 C-20.00823558 124.84437601 -20.02270047 120.93969735 -20.039505 117.03475952 C-20.03329319 115.88672393 -20.02708137 114.73868834 -20.02068132 113.5558638 C-20.02890446 112.51430557 -20.03712761 111.47274733 -20.04559994 110.39962673 C-20.04641439 109.49768092 -20.04722885 108.5957351 -20.04806799 107.66645759 C-20.50865493 104.88026709 -21.15378284 104.03110289 -23.42477417 102.38768005 C-24.74477417 102.05768005 -26.06477417 101.72768005 -27.42477417 101.38768005 C-27.42477417 94.45768005 -27.42477417 87.52768005 -27.42477417 80.38768005 C-24.45477417 79.89268005 -24.45477417 79.89268005 -21.42477417 79.38768005 C-20.3471037 75.87928294 -20.29404189 72.62894489 -20.28292847 68.97019958 C-20.27589401 67.66849823 -20.26885956 66.36679688 -20.26161194 65.02565002 C-20.25979605 64.33250828 -20.25798016 63.63936653 -20.25610924 62.92522049 C-20.24891611 60.74723572 -20.23322897 58.56947265 -20.21476746 56.39155579 C-20.16242865 50.2006787 -20.11433062 44.00992605 -20.09884644 37.8188324 C-20.08874374 34.02736012 -20.05936586 30.23645118 -20.01752663 26.44520187 C-20.00524774 25.00442141 -20.00008969 23.5635613 -20.00232506 22.12273026 C-20.00468771 20.10307596 -19.98026465 18.08344477 -19.95480347 16.06394958 C-19.94893723 14.91685516 -19.94307098 13.76976074 -19.93702698 12.58790588 C-19.17546012 7.83012634 -17.12861366 4.79883064 -13.43386173 1.73877048 C-8.97850646 -0.26169901 -4.83161738 -0.02926335 0 0 Z " fill="#89C8FD" transform="translate(34.424774169921875,14.612319946289063)"/>
<path d="M0 0 C72.27 0 144.54 0 219 0 C219 20.79 219 41.58 219 63 C146.73 63 74.46 63 0 63 C0 42.21 0 21.42 0 0 Z " fill="#FAE058" transform="translate(248,404)"/>
<path d="M0 0 C1.72648126 0.89455159 3.42630006 1.84219279 5.09765625 2.8359375 C6.06638672 3.40699219 7.03511719 3.97804687 8.03320312 4.56640625 C9.03287109 5.16324219 10.03253906 5.76007813 11.0625 6.375 C13.01095453 7.52993609 14.96020942 8.68352274 16.91015625 9.8359375 C18.49594482 10.77324707 18.49594482 10.77324707 20.11376953 11.72949219 C28.36050639 16.56965816 36.69017669 21.26930249 45 26 C45.39519086 35.7349684 45.69655623 45.46801084 45.88080692 55.20938683 C45.96928443 59.73412026 46.08904103 64.25334286 46.2824707 68.77490234 C47.49217749 97.82056152 47.49217749 97.82056152 43.49810791 104.51870728 C39.69797316 108.26446247 35.312566 109.87347436 30.24874878 111.29602051 C26.77679472 112.38292914 23.89373637 114.23273634 20.828125 116.15234375 C18.63585906 117.41483102 16.44315912 118.67656499 14.25 119.9375 C12.02581133 121.21704762 9.80184418 122.49698038 7.578125 123.77734375 C6.62325195 124.32640381 5.66837891 124.87546387 4.68457031 125.44116211 C1.97950291 126.96311955 1.97950291 126.96311955 -0.53613281 128.76391602 C-3 130 -3 130 -5.52026367 129.84057617 C-8.10881394 128.96311446 -10.305261 127.91117119 -12.67578125 126.55078125 C-14.02446289 125.78302368 -14.02446289 125.78302368 -15.40039062 124.99975586 C-16.36138672 124.44296143 -17.32238281 123.88616699 -18.3125 123.3125 C-19.31345703 122.73959229 -20.31441406 122.16668457 -21.34570312 121.57641602 C-24.56929743 119.72695642 -27.78570152 117.86556488 -31 116 C-32.09231934 115.36610352 -33.18463867 114.73220703 -34.31005859 114.07910156 C-40.33680588 110.57681932 -46.35607781 107.0620127 -52.3671875 103.53295898 C-55.56745304 101.66959963 -58.78287172 99.83408918 -62 98 C-62.30205905 89.40304003 -62.53258967 80.80831596 -62.67355824 72.20735168 C-62.74124362 68.21265518 -62.83289958 64.22160234 -62.98071289 60.22900391 C-63.12264935 56.37071462 -63.19981693 52.51591159 -63.23340416 48.6552124 C-63.25731239 47.18757183 -63.30401524 45.72010972 -63.37449074 44.25396729 C-63.58887655 39.60639579 -63.53405458 35.46007048 -62 31 C-58.06695592 27.27472044 -53.94330703 25.24099898 -49 23 C-47.71981255 22.27404555 -46.44724763 21.53396963 -45.19189453 20.76586914 C-44.18239746 20.19473389 -43.17290039 19.62359863 -42.1328125 19.03515625 C-40.98699707 18.38401855 -39.84118164 17.73288086 -38.66064453 17.06201172 C-36.86809377 16.04758287 -35.07494416 15.03421939 -33.28167725 14.02105713 C-24.57922549 9.11443627 -24.57922549 9.11443627 -16.0625 3.89453125 C-15.37784668 3.45939209 -14.69319336 3.02425293 -13.98779297 2.57592773 C-12.27483383 1.47159667 -10.57797011 0.34240415 -8.8828125 -0.7890625 C-5.08003826 -2.38643379 -3.76637831 -1.50362143 0 0 Z " fill="#FCE259" transform="translate(159,157)"/>
<path d="M0 0 C8.49927211 6.76078463 15.20046575 15.04478182 16.75 26.1875 C17.68840824 41.85673518 14.29643553 57.04551769 11.1640625 72.29296875 C9.32674075 81.25118114 7.54342089 90.22039556 5.75 99.1875 C-11.08 99.1875 -27.91 99.1875 -45.25 99.1875 C-47.50562701 89.03717846 -47.50562701 89.03717846 -48.3984375 84.24609375 C-48.59735596 83.1797168 -48.79627441 82.11333984 -49.0012207 81.01464844 C-49.87519619 76.26542117 -50.7430784 71.51514833 -51.60205078 66.76318359 C-52.02070626 64.45284897 -52.44328379 62.14322008 -52.87060547 59.83447266 C-59.22361233 25.39668609 -59.22361233 25.39668609 -51.25 12.1875 C-37.85987942 -5.68267961 -20.2456148 -11.29082364 0 0 Z " fill="#F3F6F7" transform="translate(380.25,289.8125)"/>
<path d="M0 0 C30.36 0 60.72 0 92 0 C92.04125 8.353125 92.0825 16.70625 92.125 25.3125 C92.14320801 27.92712158 92.16141602 30.54174316 92.18017578 33.2355957 C92.18602471 35.34065547 92.19111931 37.44571753 92.1953125 39.55078125 C92.20554443 40.61727905 92.21577637 41.68377686 92.22631836 42.78259277 C92.22791123 49.73149842 91.48506342 56.21123638 90 63 C89.34 63 88.68 63 88 63 C86.80792498 61.51513462 85.67189358 59.98511557 84.5625 58.4375 C77.63819255 49.60088381 68.59065693 45.19264536 58 42 C57.39027344 41.80792969 56.78054688 41.61585938 56.15234375 41.41796875 C42.51746439 38.77017911 29.80761244 42.03812804 18.24609375 49.4375 C11.92035024 53.83801722 7.39041656 58.66364789 3 65 C0.50575579 60.34407747 -0.12519658 56.58885358 -0.11352539 51.31347656 C-0.11340454 50.1567041 -0.11328369 48.99993164 -0.11315918 47.80810547 C-0.10804321 46.59783691 -0.10292725 45.38756836 -0.09765625 44.140625 C-0.09614563 42.46589111 -0.09614563 42.46589111 -0.09460449 40.75732422 C-0.08937401 36.58820569 -0.07541274 32.41910181 -0.0625 28.25 C-0.041875 18.9275 -0.02125 9.605 0 0 Z " fill="#FDE3C0" transform="translate(314,229)"/>
<path d="M0 0 C21.78 0 43.56 0 66 0 C66 25.08 66 50.16 66 76 C51.4161083 73.75632435 51.4161083 73.75632435 46.39453125 72.74609375 C45.30849609 72.53146484 44.22246094 72.31683594 43.10351562 72.09570312 C40.89748547 71.65449709 38.69175856 71.21177228 36.48632812 70.76757812 C30.00009208 69.48887406 23.5935198 68.50505528 17 68 C14.60586328 62.04570609 13.02152102 56.2064936 11.6875 49.9375 C9.73229079 41.01941369 7.54637806 32.18865547 5.14331055 23.38061523 C3.05593489 15.60597999 1.59143504 7.95717519 0 0 Z " fill="#8C9BA7" transform="translate(401,115)"/>
<path d="M0 0 C20.79 0 41.58 0 63 0 C62.36695436 5.06436509 61.72849116 9.63173871 60.58203125 14.53515625 C60.15881592 16.35176758 60.15881592 16.35176758 59.72705078 18.20507812 C59.42524902 19.47802734 59.12344727 20.75097656 58.8125 22.0625 C58.49979263 23.39386973 58.18713038 24.72525006 57.87451172 26.05664062 C55.68168249 35.34751143 53.34891893 44.59869562 50.86645508 53.81665039 C50.63466553 54.68153076 50.40287598 55.54641113 50.1640625 56.4375 C49.86169678 57.54931641 49.86169678 57.54931641 49.55322266 58.68359375 C48.89551691 61.43748257 48.44003376 64.20389974 48 67 C47.00782471 67.16604736 46.01564941 67.33209473 44.9934082 67.50317383 C41.24842565 68.13101596 37.50434811 68.76412442 33.76049805 69.39868164 C32.15200959 69.67058629 30.54329135 69.94113575 28.93432617 70.21020508 C26.59749928 70.60125402 24.26159287 70.99746793 21.92578125 71.39453125 C21.22729568 71.51029007 20.52881012 71.62604889 19.80915833 71.74531555 C13.11269257 72.8927235 6.66068649 74.4629185 0 76 C0 50.92 0 25.84 0 0 Z " fill="#8C9BA7" transform="translate(249,115)"/>
<path d="M0 0 C2.64120969 0.0011947 5.28241981 0.00164435 7.92362976 0.00138855 C13.43128879 0.00231865 18.93889199 0.01091616 24.4465332 0.0246582 C30.78482182 0.04041582 37.12304967 0.04565454 43.46135646 0.04492265 C49.60482854 0.04430946 55.74827801 0.04954985 61.89174461 0.05771446 C64.48673574 0.06088182 67.08172862 0.06286399 69.67672157 0.06360817 C73.30575141 0.06579 76.93470699 0.07457253 80.5637207 0.08520508 C81.62112457 0.08475189 82.67852844 0.08429871 83.76797485 0.08383179 C93.2004226 0.12399286 102.4788105 0.85672197 111.76171875 2.54296875 C112.47440918 2.67050537 113.18709961 2.79804199 113.92138672 2.92944336 C123.94742638 4.78354376 133.7839352 7.39908855 143.57421875 10.23046875 C143.57421875 12.54046875 143.57421875 14.85046875 143.57421875 17.23046875 C71.30421875 17.23046875 -0.96578125 17.23046875 -75.42578125 17.23046875 C-75.42578125 14.92046875 -75.42578125 12.61046875 -75.42578125 10.23046875 C-68.28928712 7.50351571 -61.15202338 5.61224125 -53.67578125 4.10546875 C-52.90395508 3.94723633 -52.13212891 3.78900391 -51.33691406 3.62597656 C-48.70608992 3.11439763 -46.06987696 2.66871083 -43.42578125 2.23046875 C-42.41121353 2.05880692 -41.39664581 1.88714508 -40.35133362 1.71028137 C-26.93753597 -0.26440286 -13.5314003 -0.0406512 0 0 Z " fill="#F572A2" transform="translate(323.42578125,196.76953125)"/>
<path d="M0 0 C19.14 0 38.28 0 58 0 C59.485 5.878125 60.97 11.75625 62.5 17.8125 C62.96986328 19.66464111 63.43972656 21.51678223 63.92382812 23.42504883 C64.2932495 24.89397239 64.66240808 26.36296208 65.03125 27.83203125 C65.22557617 28.59398804 65.41990234 29.35594482 65.62011719 30.14099121 C66.37766839 33.16969294 67 35.86474088 67 39 C41.92 39 16.84 39 -9 39 C-8.31338465 34.19369258 -7.54402427 29.76070402 -6.40625 25.078125 C-6.09816406 23.80582031 -5.79007812 22.53351563 -5.47265625 21.22265625 C-5.31297363 20.57055176 -5.15329102 19.91844727 -4.98876953 19.24658203 C-4.49805665 17.24206159 -4.01230718 15.23638713 -3.52734375 13.23046875 C-1.14773261 3.44319784 -1.14773261 3.44319784 0 0 Z " fill="#FB74A6" transform="translate(328,115)"/>
<path d="M0 0 C1.41133756 -0.0067786 2.82266627 -0.0156831 4.23397827 -0.02655029 C8.06056324 -0.04932219 11.88647333 -0.04051657 15.71306992 -0.02465487 C19.7199458 -0.01198469 23.72676439 -0.02373907 27.73364258 -0.03158569 C34.46218223 -0.04067905 41.19044736 -0.02870277 47.91894531 -0.00488281 C55.69503561 0.02232811 63.47047042 0.0135137 71.24654484 -0.01401484 C77.92613105 -0.03671404 84.60552008 -0.03990211 91.28513241 -0.02682149 C95.27317485 -0.01903134 99.2609093 -0.0179731 103.24893188 -0.03450394 C106.99862941 -0.04896154 110.74748293 -0.03890486 114.49708939 -0.01003265 C115.87210311 -0.00342852 117.24718803 -0.00530822 118.62217331 -0.01634598 C130.30741136 -0.10149238 130.30741136 -0.10149238 133.61450195 2.9960022 C135.67664129 6.25294506 136.01753173 7.86314378 135.29296875 11.64697266 C133.17000734 14.39782902 131.98730808 15.51969062 128.53181458 16.15313053 C127.46404282 16.15593745 126.39627106 16.15874437 125.29614258 16.16163635 C124.06795807 16.17436081 122.83977356 16.18708527 121.57437134 16.20019531 C120.21624563 16.19401311 118.8581218 16.18740709 117.5 16.18041992 C116.06748567 16.18747839 114.63497879 16.1962231 113.20248413 16.20652771 C109.31402457 16.22903874 105.4259717 16.22607836 101.53747177 16.21720624 C98.29178125 16.21209838 95.04616729 16.21938716 91.80048466 16.22667831 C84.14459104 16.24368237 76.48889673 16.24010601 68.83300781 16.22338867 C60.93253794 16.20646048 53.0326203 16.22230995 45.13221073 16.25461155 C38.34991648 16.28129192 31.56779431 16.28858789 24.78545284 16.28009647 C20.73425477 16.2751634 16.68338912 16.27740318 12.63223267 16.29788399 C8.82348778 16.31621748 5.01553861 16.31031222 1.2068367 16.28568459 C-0.19118221 16.2806694 -1.58926151 16.28418499 -2.98723221 16.29683304 C-4.89483729 16.31272723 -6.80263502 16.2948154 -8.71020508 16.27516174 C-10.31186272 16.27428228 -10.31186272 16.27428228 -11.94587708 16.27338505 C-15.67026352 15.42844787 -16.69999624 13.81038537 -18.70703125 10.64697266 C-19.26953125 8.14697266 -19.26953125 8.14697266 -18.70703125 5.64697266 C-14.26986429 -1.26815037 -7.49492022 -0.06016582 0 0 Z " fill="#080702" transform="translate(299.70703125,426.35302734375)"/>
<path d="M0 0 C7.26 0 14.52 0 22 0 C22.59860693 23.74474159 20.20083399 47.46124607 10.93041992 69.51196289 C9.17658945 73.82851958 8.4277221 77.35444997 9 82 C10.48404956 83.89141127 10.48404956 83.89141127 12.625 85.1875 C18.32421465 89.77121 22.37156878 95.68051455 23.24902344 103.10791016 C23.49604707 107.75746654 23.31809165 112.35821816 23 117 C19.73256344 118.3417678 16.46053092 119.67194359 13.1875 121 C12.25873047 121.3815625 11.32996094 121.763125 10.37304688 122.15625 C9.48037109 122.5171875 8.58769531 122.878125 7.66796875 123.25 C6.43469849 123.75273437 6.43469849 123.75273437 5.17651367 124.265625 C3 125 3 125 0 125 C0 83.75 0 42.5 0 0 Z " fill="#8B9AA6" transform="translate(249,229)"/>
<path d="M0 0 C1.00366336 5.4431196 2.00035922 10.88745258 2.99072266 16.33300781 C3.32834471 18.18394063 3.66784189 20.03453246 4.00927734 21.88476562 C4.5007507 24.5498981 4.98538651 27.21619878 5.46875 29.8828125 C5.62186646 30.70492218 5.77498291 31.52703186 5.93273926 32.37405396 C6.07288452 33.1544101 6.21302979 33.93476624 6.35742188 34.73876953 C6.48177612 35.41827667 6.60613037 36.09778381 6.73425293 36.79788208 C7.06198652 39.51365241 7 42.26452604 7 45 C-16.1 45 -39.2 45 -63 45 C-63 39.06 -63 33.12 -63 27 C-56.74247637 24.16602517 -50.42511955 21.52525518 -44.06176758 18.93847656 C-32.1446981 14.08673541 -20.42576855 9.00496328 -8.88232422 3.30249023 C-7.99947754 2.86751221 -7.11663086 2.43253418 -6.20703125 1.984375 C-5.4385083 1.59991211 -4.66998535 1.21544922 -3.87817383 0.81933594 C-2 0 -2 0 0 0 Z " fill="#FB74A6" transform="translate(312,344)"/>
<path d="M0 0 C4.29 0 8.58 0 13 0 C13.0093457 1.70873291 13.01869141 3.41746582 13.02832031 5.17797852 C13.0641448 10.88576866 13.11812636 16.59324004 13.18390274 22.30075169 C13.22306079 25.75414726 13.25540124 29.20729994 13.27099609 32.66088867 C12.86413335 56.68303316 12.86413335 56.68303316 20.75 78.9375 C24.36263779 85.44466715 23.40211515 92.79767092 23 100 C20.79283537 101.27289905 18.58432515 102.5433605 16.375 103.8125 C15.75753906 104.16892578 15.14007813 104.52535156 14.50390625 104.89257812 C3.85794151 111 3.85794151 111 1 111 C0.98582031 110.27296875 0.97164063 109.5459375 0.95703125 108.796875 C0.41772638 97.42774538 -2.91665889 88.48222587 -10.7421875 80.1328125 C-12 78 -12 78 -11.83984375 75.1796875 C-10.92777417 71.72654965 -9.84381357 68.37944275 -8.6875 65 C-1.90353671 43.79178591 -0.95654631 22.07444477 0 0 Z " fill="#EFF1F2" transform="translate(286,228)"/>
<path d="M0 0 C3.96 0 7.92 0 12 0 C12.03738281 1.40507812 12.07476562 2.81015625 12.11328125 4.2578125 C13.14377553 37.85403629 13.14377553 37.85403629 22.71875 69.78515625 C24.10900795 73.2735169 24.31653948 74.53905342 23 78 C21.51171875 80.2890625 21.51171875 80.2890625 19.6875 82.625 C13.54791457 91.13469233 11.4021702 99.60390021 11 110 C6.32307114 109.42877205 2.7329502 107.3633273 -1.25 105 C-1.88679688 104.63132812 -2.52359375 104.26265625 -3.1796875 103.8828125 C-7.82573342 101.17426658 -7.82573342 101.17426658 -9 100 C-9.34872453 97.13569 -9.60989421 94.31268108 -9.8125 91.4375 C-9.88919922 90.65052734 -9.96589844 89.86355469 -10.04492188 89.05273438 C-10.4066906 83.76568067 -9.64743483 80.46349305 -7.03540039 75.86450195 C-5.53229454 73.15777727 -4.69442263 70.33394041 -3.8125 67.375 C-3.48894531 66.31023437 -3.16539062 65.24546875 -2.83203125 64.1484375 C-1.51838546 59.17755249 -0.87753575 54.40721649 -0.79467773 49.27001953 C-0.77473251 48.16933136 -0.75478729 47.06864319 -0.73423767 45.93460083 C-0.71752518 44.76251068 -0.70081268 43.59042053 -0.68359375 42.3828125 C-0.6524221 40.56437332 -0.6524221 40.56437332 -0.62062073 38.709198 C-0.55539018 34.8478547 -0.49636349 30.98644509 -0.4375 27.125 C-0.39428959 24.50259739 -0.3506745 21.88020141 -0.30664062 19.2578125 C-0.19973593 12.83860913 -0.09839401 6.41933924 0 0 Z " fill="#F2F5F6" transform="translate(421,229)"/>
<path d="M0 0 C4.43009248 1.62955145 8.48832191 3.83524808 12.62109375 6.08984375 C21.8935596 11.07097892 31.42131238 15.35263574 41.0625 19.5625 C42.71965563 20.29173945 44.37655785 21.02155503 46.03320312 21.75195312 C50.01884653 23.50897915 54.00934312 25.25422149 58 27 C58 32.61 58 38.22 58 44 C36.22 44 14.44 44 -8 44 C-4.3490566 22.09433962 -4.3490566 22.09433962 -2.875 13.5625 C-2.70613281 12.57185547 -2.53726562 11.58121094 -2.36328125 10.56054688 C-2.19957031 9.61373047 -2.03585937 8.66691406 -1.8671875 7.69140625 C-1.72394043 6.85810791 -1.58069336 6.02480957 -1.43310547 5.16625977 C-1 3 -1 3 0 0 Z " fill="#FB74A6" transform="translate(409,345)"/>
<path d="M0 0 C6.27 0 12.54 0 19 0 C19 41.91 19 83.82 19 127 C2 120 2 120 -1 118 C-1.33760374 115.39649727 -1.47429802 113.10345972 -1.4375 110.5 C-1.43137695 109.77965576 -1.42525391 109.05931152 -1.41894531 108.31713867 C-1.17940612 100.08896729 1.16906256 93.0024356 7 87 C8.08294223 86.20779842 9.16629391 85.41615632 10.25 84.625 C13.30675795 82.26472847 13.30675795 82.26472847 13.375 78.85546875 C12.93097256 74.2903116 11.56428945 70.85526347 9.75 66.6875 C1.01456188 45.31636393 -0.37192184 22.8731934 0 0 Z " fill="#8B99A5" transform="translate(448,229)"/>
<path d="M0 0 C4.35393904 -0.11673963 8.70747211 -0.18743418 13.0625 -0.25 C14.29162109 -0.28351562 15.52074219 -0.31703125 16.78710938 -0.3515625 C23.73207375 -0.42644082 28.45258935 -0.37497918 34 4 C36.13363651 7.20045476 36.24672228 7.98629436 36.22705078 11.6550293 C36.22689972 12.59577805 36.22674866 13.53652679 36.22659302 14.50578308 C36.21627045 15.51836685 36.20594788 16.53095062 36.1953125 17.57421875 C36.1924826 18.61318802 36.18965271 19.65215729 36.18673706 20.72261047 C36.17553282 24.04435697 36.15042764 27.36583485 36.125 30.6875 C36.11497052 32.93814715 36.10584462 35.18879852 36.09765625 37.43945312 C36.07559265 42.95973908 36.04106099 48.47982398 36 54 C31.38 54 26.76 54 22 54 C21.98582031 52.90300781 21.97164063 51.80601563 21.95703125 50.67578125 C21.91011292 49.22131302 21.86186562 47.76688723 21.8125 46.3125 C21.80669922 45.59126953 21.80089844 44.87003906 21.79492188 44.12695312 C21.62847793 40.07681722 21.35481085 38.43251985 18.69921875 35.1953125 C17.80847656 34.47085938 16.91773438 33.74640625 16 33 C15.319375 32.40316406 14.63875 31.80632813 13.9375 31.19140625 C13.298125 30.65386719 12.65875 30.11632812 12 29.5625 C10.66258593 28.37959779 9.32899946 27.1923483 8 26 C7.46375 25.53980469 6.9275 25.07960938 6.375 24.60546875 C4.16027239 22.42220034 3.04668399 20.59848879 2.8046875 17.49609375 C2.84999353 15.68636968 2.95013348 13.87678548 3.1171875 12.07421875 C2.95223577 7.74698504 1.50548217 4.03075326 0 0 Z " fill="#5FB6FD" transform="translate(257,15)"/>
<path d="M0 0 C27.72 0 55.44 0 84 0 C84.99 4.29 85.98 8.58 87 13 C57.3 13 27.6 13 -3 13 C-1 3 -1 3 0 0 Z " fill="#F7DE57" transform="translate(315,169)"/>
</svg>
