<?xml version="1.0" encoding="UTF-8"?>
<svg version="1.1" xmlns="http://www.w3.org/2000/svg" width="512" height="512">
<path d="M0 0 C0.92151043 -0.00921108 1.84302086 -0.01842217 2.79245585 -0.02791238 C5.88183952 -0.05254875 8.97004716 -0.04142048 12.05949402 -0.03033447 C14.27383429 -0.04038339 16.48816589 -0.05253007 18.70248413 -0.06661987 C24.71917497 -0.09799246 30.73546632 -0.09734295 36.75221848 -0.08911419 C41.77459446 -0.08495806 46.79689166 -0.0959214 51.8192541 -0.10675836 C64.34666276 -0.13335389 76.87387788 -0.12884751 89.40127852 -0.11033824 C100.27245188 -0.0952439 111.14311807 -0.11941737 122.01420382 -0.16237065 C133.18347194 -0.20616599 144.35255591 -0.22330731 155.52192229 -0.21359468 C161.78992718 -0.20840983 168.05749444 -0.21347993 174.32543373 -0.24456024 C180.2214964 -0.27260065 186.11657192 -0.26671742 192.01260567 -0.23484421 C194.17491437 -0.22879056 196.33729457 -0.23464237 198.49953079 -0.25335312 C201.45566087 -0.27702568 204.4085026 -0.25739877 207.36450195 -0.22705078 C208.64346343 -0.25251972 208.64346343 -0.25251972 209.94826251 -0.27850318 C216.87316472 -0.13118567 220.19043129 2.76878458 224.87272644 7.64837646 C226.05436701 8.76772567 226.05436701 8.76772567 227.25987911 9.909688 C227.9148969 10.56432876 228.56991468 11.21896952 229.24478149 11.89344788 C230.01160751 12.65745407 230.77843353 13.42146027 231.5684967 14.20861816 C232.37972992 15.02187561 233.19096313 15.83513306 234.02677917 16.67303467 C234.90416245 17.54866562 235.78154572 18.42429657 236.68551636 19.32646179 C239.06708066 21.70440495 241.44640679 24.08454223 243.8245647 26.46588922 C246.32097064 28.96484421 248.81983502 31.461339 251.31829834 33.95823669 C255.50514978 38.14327586 259.68990355 42.33040384 263.87345886 46.51873779 C268.71138727 51.36212839 273.55293634 56.20187733 278.39633983 61.03979236 C282.56307843 65.20199837 286.72787208 69.366143 290.89103466 73.53192586 C293.37428431 76.01673473 295.85820535 78.50086232 298.34388542 80.98324013 C301.10693096 83.74286991 303.86589222 86.50656021 306.62443542 89.27069092 C307.44983826 90.09406952 308.27524109 90.91744812 309.12565613 91.76577759 C310.246287 92.8906382 310.246287 92.8906382 311.38955688 94.03822327 C312.04193549 94.6909789 312.6943141 95.34373453 313.36646175 96.01627064 C316.78455294 99.71992683 316.03537625 103.93941857 316.04972839 108.70037842 C316.05629959 109.63873535 316.06287079 110.57709229 316.06964111 111.54388428 C316.08939855 114.65814284 316.10104183 117.77235314 316.11100769 120.88665771 C316.11508322 121.94874136 316.11915874 123.010825 316.12335777 124.105093 C316.14422841 129.72588279 316.15852614 135.34664809 316.16789246 140.96746826 C316.17896219 146.77836984 316.213366 152.58888904 316.25306416 158.39965534 C316.2791864 162.86318177 316.28758037 167.32661648 316.29117393 171.79021263 C316.29605083 173.9324521 316.30769603 176.07468718 316.32621193 178.21685219 C316.3505108 181.21427496 316.34965518 184.2107002 316.34269714 187.20819092 C316.3555072 188.09409409 316.36831726 188.97999725 316.3815155 189.89274597 C316.34669035 194.00605355 316.2023286 196.11800567 313.98397827 199.68760681 C311.85809745 201.66196276 310.72318411 202.34297029 307.87272644 202.64837646 C307.89547854 206.58716585 307.97271886 210.52303534 308.06022644 214.46087646 C308.06602722 215.58042725 308.071828 216.69997803 308.07780457 217.85345459 C308.10680847 218.92659912 308.13581238 219.99974365 308.16569519 221.10540771 C308.18140564 222.09516602 308.19711609 223.08492432 308.21330261 224.10467529 C308.64088491 226.8820371 308.64088491 226.8820371 311.33488464 228.38543701 C312.17237244 228.80220703 313.00986023 229.21897705 313.87272644 229.64837646 C316.43905161 233.07014336 316.23707695 236.49478068 315.87272644 240.64837646 C314.01337936 244.83190739 313.11452657 245.5274764 308.87272644 247.64837646 C308.54272644 255.89837646 308.21272644 264.14837646 307.87272644 272.64837646 C309.19272644 272.97837646 310.51272644 273.30837646 311.87272644 273.64837646 C314.59602872 275.85267012 315.72951802 277.65491343 316.23177719 281.13917732 C316.38184963 284.40039842 316.38985548 287.63793698 316.35856628 290.90252686 C316.36236298 292.14528885 316.36615967 293.38805084 316.37007141 294.66847229 C316.37620548 298.06952629 316.36448663 301.46960536 316.34416533 304.87054372 C316.32656879 308.43209668 316.33011989 311.99363399 316.33088684 315.55522156 C316.32901523 321.53468618 316.31166928 327.51394751 316.28434753 333.49334717 C316.25288379 340.40473291 316.24235192 347.31589619 316.24381864 354.22734839 C316.24516992 361.58930518 316.23128694 368.95117631 316.21292543 376.31310725 C316.20866472 378.43314296 316.20724335 380.55316483 316.2064476 382.67320442 C316.20406405 386.62342303 316.18463487 390.57345699 316.16325378 394.52362061 C316.16416016 395.69827881 316.16506653 396.87293701 316.16600037 398.08319092 C316.1574704 399.15847549 316.14894043 400.23376007 316.14015198 401.34162903 C316.13680029 402.27536378 316.1334486 403.20909853 316.12999535 404.17112827 C315.74876799 407.84197521 314.6792712 409.92584905 311.94299316 412.37709045 C307.25610419 414.31776106 302.77168707 414.04019322 297.74845886 413.98895264 C296.62606812 413.98939072 295.50367737 413.9898288 294.34727478 413.99028015 C290.64073742 413.98819165 286.93465345 413.96485686 283.22819519 413.94134521 C280.65701545 413.9357495 278.08583252 413.93147929 275.51464844 413.92848206 C269.44089082 413.91820153 263.36732006 413.89456202 257.29363281 413.86443359 C250.37710553 413.83087093 243.46057038 413.8143989 236.54398191 413.79934728 C222.32014292 413.76801178 208.09644045 413.71526296 193.87272644 413.64837646 C193.8838295 414.81491257 193.89493256 415.98144867 193.90637207 417.18333435 C194.0077126 428.17465073 194.08267497 439.16587237 194.1317873 450.15754986 C194.15788537 455.80858004 194.19328802 461.4592332 194.24992371 467.11004639 C194.30423485 472.56302917 194.33414539 478.01564923 194.34711266 483.46888161 C194.35635407 485.54974898 194.37440046 487.63059641 194.40137672 489.71130943 C194.43765464 492.62525769 194.44267226 495.53770565 194.44035339 498.45184326 C194.45832977 499.3128363 194.47630615 500.17382935 194.49482727 501.06091309 C194.48795395 501.85871689 194.48108063 502.65652069 194.47399902 503.47850037 C194.47860799 504.16707973 194.48321695 504.85565908 194.48796558 505.56510448 C193.40785007 509.22250244 192.01421446 510.44906138 188.87272644 512.64837646 C184.65235881 513.40179405 180.47183922 513.31795075 176.19462585 513.27656555 C174.23952961 513.28720713 174.23952961 513.28720713 172.24493647 513.2980637 C168.62855351 513.31700973 165.01284587 513.30473966 161.39647985 513.28734076 C157.49592201 513.27398205 153.59546397 513.28939843 149.69491577 513.30116272 C142.05435281 513.31955494 134.41404535 513.31101653 126.77349031 513.2930745 C120.56463272 513.27905657 114.35584455 513.27515395 108.14697266 513.27851677 C106.8221439 513.27923293 106.8221439 513.27923293 105.47055092 513.27996356 C103.67638423 513.28098988 101.88221756 513.28204524 100.0880509 513.28312933 C84.21821059 513.29169959 68.34849374 513.27501084 52.47868347 513.24530029 C37.07465936 513.2164621 21.67081311 513.20937892 6.26676941 513.22479248 C-10.50173784 513.24154834 -27.27016062 513.24559514 -44.03867006 513.22808212 C-45.82628662 513.22623771 -47.61390319 513.22440298 -49.40151978 513.22257805 C-50.28109245 513.22166596 -51.16066513 513.22075387 -52.06689152 513.21981414 C-58.26925888 513.21420491 -64.47158506 513.21751952 -70.6739502 513.224123 C-78.23120232 513.23184945 -85.78827927 513.22512853 -93.34549606 513.19994796 C-97.20234522 513.18743681 -101.05892143 513.18132576 -104.91578102 513.19248962 C-109.09383241 513.20435496 -113.27116427 513.18530388 -117.44917297 513.16304016 C-118.67241067 513.17128093 -119.89564837 513.1795217 -121.15595388 513.18801218 C-129.35050077 513.10704194 -129.35050077 513.10704194 -133.35715485 510.74120998 C-136.41263052 507.12868283 -136.25318521 504.85190895 -136.25590801 500.16650581 C-136.25853757 499.15181765 -136.25853757 499.15181765 -136.26122025 498.11663073 C-136.26590873 495.82747952 -136.26340747 493.53839103 -136.26098633 491.24923706 C-136.26285287 489.60044104 -136.26515294 487.95164547 -136.26785165 486.3028506 C-136.27399548 481.75445721 -136.27383304 477.20608212 -136.27265728 472.65768552 C-136.27245392 467.75916333 -136.2779658 462.86064712 -136.28271484 457.96212769 C-136.29103612 448.35839801 -136.29377035 438.75467448 -136.29432722 429.15094151 C-136.29480169 421.34781789 -136.29685296 413.54469631 -136.30002785 405.74157333 C-136.30883849 383.63863989 -136.31344659 361.53571132 -136.31269737 339.43277611 C-136.31265742 338.24015958 -136.31261746 337.04754305 -136.31257629 335.81878662 C-136.31253541 334.62472096 -136.31249453 333.43065529 -136.31245241 332.20040582 C-136.31204584 312.84244667 -136.32161722 293.48450696 -136.33571466 274.12655343 C-136.35006166 254.26989151 -136.35698577 234.41323908 -136.35612088 214.55657184 C-136.35578833 203.40055132 -136.35856085 192.24455118 -136.36929893 181.08853531 C-136.37838193 171.59082752 -136.38059738 162.09314934 -136.37378951 152.59543909 C-136.37051312 147.74642087 -136.37050773 142.89745954 -136.37914276 138.04844666 C-136.38695955 133.61343524 -136.38562612 129.17852628 -136.37685863 124.7435175 C-136.37531293 123.13517176 -136.37717964 121.52681855 -136.3827187 119.9184816 C-136.38972869 117.73950512 -136.38452501 115.56089307 -136.37616253 113.3819294 C-136.3763799 112.16942737 -136.37659727 110.95692534 -136.37682122 109.70768082 C-136.04784048 105.67457467 -135.19606883 103.6058359 -132.19754028 100.91966248 C-127.51065131 98.97899187 -123.02623419 99.25655971 -118.00300598 99.30780029 C-116.88061523 99.30736221 -115.75822449 99.30692413 -114.6018219 99.30647278 C-110.89528454 99.30856128 -107.18920057 99.33189607 -103.48274231 99.35540771 C-100.91156257 99.36100343 -98.34037964 99.36527364 -95.76919556 99.36827087 C-89.69543794 99.3785514 -83.62186718 99.40219091 -77.54817992 99.43231934 C-70.63165265 99.465882 -63.7151175 99.48235403 -56.79852903 99.49740565 C-42.57469004 99.52874115 -28.35098757 99.58148997 -14.12727356 99.64837646 C-14.13837662 98.48184036 -14.14947968 97.31530426 -14.16091919 96.11341858 C-14.26225972 85.1221022 -14.33722209 74.13088056 -14.38633442 63.13920307 C-14.41243249 57.48817289 -14.44783514 51.83751973 -14.50447083 46.18670654 C-14.55878197 40.73372376 -14.58869251 35.2811037 -14.60165977 29.82787132 C-14.61090118 27.74700395 -14.62894758 25.66615652 -14.65592384 23.5854435 C-14.69220176 20.67149523 -14.69721937 17.75904728 -14.69490051 14.84490967 C-14.71287689 13.98391663 -14.73085327 13.12292358 -14.74937439 12.23583984 C-14.73906441 11.03913414 -14.73906441 11.03913414 -14.72854614 9.81825256 C-14.73315511 9.1296732 -14.73776407 8.44109385 -14.7425127 7.73164845 C-12.51697368 0.19571199 -6.64377062 -0.07568464 0 0 Z " fill="#010100" transform="translate(166.1272735595703,-0.64837646484375)"/>
<path d="M0 0 C65.01 0 130.02 0 197 0 C197.33 28.38 197.66 56.76 198 86 C200.50056593 90.97621743 200.50056593 90.97621743 204 93 C246.57 93.495 246.57 93.495 290 94 C290 186.07 290 278.14 290 373 C194.3 373 98.6 373 0 373 C0 249.91 0 126.82 0 0 Z " fill="#FDCC61" transform="translate(50,119)"/>
<path d="M0 0 C65.01 0 130.02 0 197 0 C197.33 28.71 197.66 57.42 198 87 C202.91000477 92.16899867 202.91000477 92.16899867 209.14323425 92.68556213 C209.93877213 92.67693649 210.73431 92.66831085 211.55395508 92.65942383 C212.40324585 92.66990753 213.25253662 92.68039124 214.12756348 92.69119263 C216.92525894 92.71991601 219.72171491 92.71365441 222.51953125 92.70703125 C224.46296233 92.72014794 226.40637978 92.73545208 228.34977722 92.75285339 C233.45766383 92.79271956 238.56519394 92.8028949 243.67321777 92.80688477 C248.8883751 92.81621312 254.10332269 92.85362483 259.31835938 92.88867188 C269.54556311 92.95326425 279.77261015 92.98649084 290 93 C290.00364563 94.03094788 290.00729126 95.06189575 290.01104736 96.12408447 C290.04797467 105.83568281 290.10572239 115.5469634 290.18390274 125.25831985 C290.22342671 130.2511655 290.25559101 135.24383347 290.27099609 140.23681641 C290.28613033 145.05457423 290.32051812 149.87184376 290.36830902 154.68938446 C290.38315626 156.52815255 290.39104293 158.36699034 290.39188385 160.20581818 C290.39424526 162.77999546 290.42125673 165.35281421 290.45410156 167.92675781 C290.4490712 168.68848801 290.44404083 169.4502182 290.43885803 170.23503113 C290.50658661 173.66153838 290.73276317 175.63970563 292.79974365 178.42645264 C295.69586539 180.4976589 298.5559369 181.20521621 302 182 C302.00410889 182.7113208 302.00821777 183.4226416 302.01245117 184.15551758 C302.04532549 187.37535997 302.1159621 190.59329441 302.1875 193.8125 C302.19330078 194.93205078 302.19910156 196.05160156 302.20507812 197.20507812 C302.23408203 198.27822266 302.26308594 199.35136719 302.29296875 200.45703125 C302.3086792 201.44678955 302.32438965 202.43654785 302.34057617 203.45629883 C302.76815847 206.23366063 302.76815847 206.23366063 305.4621582 207.73706055 C306.299646 208.15383057 307.13713379 208.57060059 308 209 C310.56632517 212.42176689 310.36435051 215.84640421 310 220 C308.14065292 224.18353093 307.24180013 224.87909994 303 227 C302.67 235.25 302.34 243.5 302 252 C299.36 252.66 296.72 253.32 294 254 C289.76607876 258.18922513 289.52177824 262.18842285 289.43885803 267.85418701 C289.4438884 268.87989807 289.44891876 269.90560913 289.45410156 270.96240234 C289.44376389 272.05567841 289.43342621 273.14895447 289.42277527 274.27536011 C289.39334287 277.87903617 289.39184794 281.48215067 289.390625 285.0859375 C289.37564374 287.58844067 289.35891671 290.09093395 289.34051514 292.59341431 C289.30128648 298.50059839 289.27962883 304.40768034 289.26654124 310.31496489 C289.24630002 318.88495735 289.1903842 327.45473053 289.13883972 336.02458191 C289.07000941 348.01642641 289.03857238 360.00784802 289 372 C255.67 372 222.34 372 188 372 C188 341.31 188 310.62 188 279 C214.25 278.625 214.25 278.625 222.52441406 278.52197266 C224.68816363 278.48676792 226.85190171 278.4508468 229.015625 278.4140625 C230.13952637 278.40270264 231.26342773 278.39134277 232.42138672 278.37963867 C233.49694824 278.35957764 234.57250977 278.3395166 235.68066406 278.31884766 C237.07964935 278.29886215 237.07964935 278.29886215 238.50689697 278.2784729 C241.13517081 277.98490178 242.76688005 277.39366017 245 276 C247.3020949 272.77706714 247.47510654 269.88003676 247 266 C244.84909549 262.66238955 243.79587201 261.26529067 240 260 C238.29785889 259.88465811 236.59178591 259.82358959 234.88598633 259.79467773 C233.84513382 259.77473251 232.80428131 259.75478729 231.73188782 259.73423767 C230.60993515 259.71752518 229.48798248 259.70081268 228.33203125 259.68359375 C226.60710701 259.6524221 226.60710701 259.6524221 224.84733582 259.62062073 C221.16911875 259.55516658 217.49082952 259.49625926 213.8125 259.4375 C211.32095604 259.39431087 208.82941941 259.35069645 206.33789062 259.30664062 C200.22533335 259.1986881 194.11272233 259.09958334 188 259 C188 245.8 188 232.6 188 219 C191.69574219 218.96261719 195.39148438 218.92523438 199.19921875 218.88671875 C202.78025213 218.8405021 206.36118105 218.78926879 209.94213867 218.73754883 C212.43002978 218.70430343 214.91799624 218.67627034 217.40600586 218.65356445 C220.98323668 218.6200123 224.55977719 218.56769408 228.13671875 218.51171875 C229.24834885 218.50532883 230.35997894 218.4989389 231.5052948 218.49235535 C232.54599625 218.47256119 233.58669769 218.45276703 234.65893555 218.43237305 C235.5716069 218.42126999 236.48427826 218.41016693 237.42460632 218.39872742 C240.56377903 217.91271464 242.43816534 216.85662422 245 215 C247.48038907 211.2794164 247.46337203 209.40203429 247 205 C245.13291495 202.63502561 243.67938569 201.33969285 241 200 C239.30536742 199.88097188 237.60628878 199.82285313 235.90771484 199.79467773 C234.84676605 199.77473251 233.78581726 199.75478729 232.69271851 199.73423767 C231.54373077 199.71752518 230.39474304 199.70081268 229.2109375 199.68359375 C228.03737701 199.66281265 226.86381653 199.64203156 225.6546936 199.62062073 C221.89485696 199.55508017 218.13494878 199.49621924 214.375 199.4375 C211.83072168 199.39431908 209.28645067 199.35070493 206.7421875 199.30664062 C200.49486793 199.19939418 194.24747674 199.0976362 188 199 C187.98476288 198.4180336 187.96952576 197.8360672 187.9538269 197.23646545 C187.87648992 194.58540457 187.77829353 191.93550775 187.6796875 189.28515625 C187.65608154 188.36947876 187.63247559 187.45380127 187.6081543 186.51037598 C187.39620476 179.97309408 187.39620476 179.97309408 184.125 174.4375 C182.776433 173.26067118 181.39716457 172.11870023 180 171 C178.49997613 169.55568684 177.03709062 168.07926832 175.57568359 166.59594727 C174.578232 165.58513838 173.57216884 164.58274523 172.55712891 163.58959961 C171.35312487 162.41147682 170.17402848 161.20799676 169 160 C169 159.67 169 159.34 169 159 C169.87616974 158.99635437 170.75233948 158.99270874 171.65505981 158.98895264 C179.92388958 158.95104035 188.19232624 158.89415091 196.46087837 158.81609726 C200.71156452 158.77663681 204.96204396 158.74444146 209.21289062 158.72900391 C213.31747233 158.71382765 217.42148569 158.67936559 221.52581406 158.63169098 C223.08939542 158.61688705 224.65305792 158.60895955 226.21670914 158.60811615 C228.4121744 158.6057416 230.60607518 158.57862684 232.80126953 158.54589844 C234.04925323 158.53701599 235.29723694 158.52813354 236.58303833 158.51898193 C240.6347742 157.90358793 242.82942846 156.5525678 246 154 C247.34500327 151.00455448 247.46220167 148.24118919 247 145 C244.83653764 142.19334613 243.15193199 140.575966 240 139 C237.35918385 139.17008304 234.75433985 139.40466085 232.12451172 139.68334961 C155.69833363 147.04027584 155.69833363 147.04027584 132.66436768 129.11732483 C117.28478098 116.30728718 104.37304991 100.45530009 92.74067688 84.23950195 C91.19412241 81.91716696 91.19412241 81.91716696 89 81 C86.19367598 80.87732078 83.4105648 80.81426341 80.60302734 80.79467773 C79.73466751 80.78477814 78.86630768 80.77487854 77.97163391 80.76467896 C75.09309645 80.73301842 72.21454247 80.70828855 69.3359375 80.68359375 C67.34338953 80.66302815 65.35084595 80.64203179 63.35830688 80.62062073 C58.10745808 80.56535933 52.85656964 80.51596801 47.60565186 80.46777344 C41.30889539 80.40876848 35.01221155 80.34251817 28.71551514 80.27747345 C19.14372102 80.17941276 9.57188086 80.0905917 0 80 C0 53.6 0 27.2 0 0 Z " fill="#FEE3B1" transform="translate(172,20)"/>
<path d="M0 0 C0.74884909 -0.00367669 1.49769818 -0.00735338 2.26923966 -0.01114148 C4.79182498 -0.02220114 7.31436914 -0.02602601 9.8369751 -0.02983093 C11.64032116 -0.03609387 13.44366593 -0.04274052 15.24700928 -0.04974365 C20.15622356 -0.06716939 25.06542808 -0.07770975 29.97466564 -0.08594918 C33.04048775 -0.09109613 36.10630681 -0.097172 39.17212677 -0.10346031 C48.76055203 -0.12251699 58.34896956 -0.13674697 67.93741012 -0.14507228 C79.01263953 -0.15484671 90.08766919 -0.18116964 101.16282821 -0.22157317 C109.71830725 -0.2517155 118.27372899 -0.26653938 126.82926011 -0.26985329 C131.94133497 -0.27220598 137.05319655 -0.28119478 142.16521454 -0.30631447 C146.97511028 -0.32956716 151.78465189 -0.33383971 156.59458923 -0.32355309 C158.35944546 -0.32305693 160.12431895 -0.3294009 161.88912201 -0.34310913 C164.30020446 -0.36078854 166.71001059 -0.35374222 169.12109375 -0.34057617 C169.81818695 -0.35154542 170.51528015 -0.36251466 171.23349738 -0.37381631 C176.19177292 -0.30852677 179.00172867 1.03683173 182.81451416 4.14717102 C185.15360723 7.65581062 185.22742473 9.01806535 184.81451416 13.14717102 C183.14689094 16.64123872 182.07445394 17.97387783 178.81451416 20.14717102 C176.29005676 20.34664461 173.87525994 20.42980315 171.35018921 20.42132568 C170.58344592 20.42656236 169.81670263 20.43179904 169.0267247 20.43719441 C166.44958788 20.45223307 163.87264893 20.4529004 161.29547119 20.4535675 C159.45094465 20.46118638 157.6064213 20.4696134 155.76190186 20.47879028 C150.74536875 20.50076856 145.72889662 20.50953861 140.7123208 20.51461673 C137.57965906 20.51825625 134.44701339 20.52449418 131.31435776 20.53161812 C120.3897608 20.5561238 109.46521141 20.56916701 98.54058838 20.57270813 C88.35047437 20.57634468 78.16066133 20.60624579 67.97063935 20.64811271 C59.22746275 20.68277834 50.48438608 20.69825592 41.7411412 20.69895416 C36.51673575 20.69974823 31.29263673 20.7085462 26.06830215 20.73695183 C21.15490792 20.76306873 16.24207558 20.76537342 11.3286438 20.74929619 C9.52466485 20.74747663 7.72065406 20.75421801 5.91674423 20.7701149 C3.45476215 20.79048939 0.99476206 20.78007641 -1.4671936 20.76190186 C-2.18208132 20.77510182 -2.89696903 20.78830179 -3.63352001 20.80190176 C-7.51004801 20.73648071 -9.07884701 20.23404605 -12.1263752 17.75132847 C-14.8300413 14.33200166 -14.90976379 12.50863253 -14.68548584 8.30342102 C-13.88549331 4.85345324 -11.92955589 3.23789106 -9.18548584 1.14717102 C-6.23215833 -0.32949273 -3.23819776 -0.00084559 0 0 Z " fill="#040301" transform="translate(110.18548583984375,321.8528289794922)"/>
<path d="M0 0 C0.76845214 -0.00779995 1.53690428 -0.01559991 2.32864285 -0.02363622 C4.90000488 -0.04355789 7.46988713 -0.02779202 10.04125977 -0.01205444 C11.88608666 -0.01883052 13.7309068 -0.0277336 15.57571411 -0.03860474 C20.58402707 -0.06140583 25.59182525 -0.05255834 30.60014725 -0.03670931 C35.84021649 -0.02405456 41.08024153 -0.03578924 46.3203125 -0.04364014 C55.12027911 -0.05273792 63.92003594 -0.04074534 72.7199707 -0.01693726 C82.89539749 0.0102742 93.07032338 0.00146014 103.24573803 -0.02606928 C111.98049553 -0.04875561 120.7151022 -0.05196275 129.44987965 -0.03887594 C134.66750614 -0.03107883 139.88489716 -0.03004704 145.10250854 -0.04655838 C150.00778538 -0.06099688 154.91241613 -0.05099266 159.81762314 -0.0220871 C161.61835532 -0.01547298 163.41914184 -0.01737953 165.21985245 -0.02840042 C167.6774141 -0.04205526 170.1329027 -0.02494343 172.59033203 0 C173.3038555 -0.01115361 174.01737898 -0.02230722 174.75252438 -0.03379881 C178.56730953 0.04136548 180.19071907 0.55162143 183.21031189 2.95975685 C185.85092513 6.34803541 186.37039439 8.34690071 186.29516602 12.63491821 C184.24519315 16.65893903 182.54210477 19.08095214 178.29516602 20.63491821 C175.78243061 20.827944 173.38116921 20.91345526 170.86917114 20.90234375 C170.1186132 20.90687486 169.36805526 20.91140598 168.59475315 20.9160744 C166.07832438 20.92874043 163.56211143 20.92709662 161.0456543 20.92544556 C159.24201173 20.93142942 157.43837173 20.93823464 155.63473511 20.94580078 C150.73388529 20.96348215 145.83310529 20.96815705 140.93222666 20.96943235 C136.84173369 20.97133086 132.751257 20.97868782 128.6607703 20.98577654 C119.01041075 21.00206612 109.36008852 21.00694497 99.7097168 21.00552368 C89.75310561 21.00432199 79.79671111 21.02542795 69.84015477 21.05701101 C61.29311926 21.08315734 52.74615459 21.09389167 44.19907939 21.09261286 C39.09375385 21.09210276 33.98862084 21.09781278 28.88333511 21.11896896 C24.08160363 21.13832372 19.2802489 21.13849475 14.47850418 21.1239357 C12.71687775 21.12184309 10.95522791 21.1265754 9.19364166 21.13865662 C6.78702716 21.15409162 4.3817146 21.14481358 1.97512817 21.12939453 C1.27939921 21.13968166 0.58367026 21.14996878 -0.1331414 21.16056764 C-5.07388315 21.09070105 -7.89639265 19.7231008 -11.70483398 16.63491821 C-12.84107517 14.36243584 -12.96930242 12.85189058 -13.07983398 10.32241821 C-13.12881836 9.5631604 -13.17780273 8.80390259 -13.22827148 8.02163696 C-11.7183914 1.1370345 -6.18031334 -0.09660901 0 0 Z " fill="#040301" transform="translate(108.704833984375,382.3650817871094)"/>
<path d="M0 0 C1.13045731 -0.00445668 1.13045731 -0.00445668 2.28375214 -0.0090034 C4.82249522 -0.01771178 7.36119127 -0.01920045 9.89994812 -0.02069092 C11.71476849 -0.02531759 13.52958788 -0.03034205 15.34440613 -0.03573608 C20.28454814 -0.0488769 25.22467655 -0.05530835 30.16483331 -0.05974674 C33.24940885 -0.06267485 36.33398064 -0.06677916 39.41855431 -0.07125092 C49.064111 -0.08493048 58.70965918 -0.0945948 68.35522491 -0.09845281 C79.49947821 -0.10293438 90.64360891 -0.12048498 101.78782493 -0.1494534 C110.39509341 -0.17105255 119.00232736 -0.18115615 127.60962266 -0.18249393 C132.75348155 -0.18354325 137.89722526 -0.18947811 143.04105568 -0.20731354 C147.87963267 -0.22376361 152.71800753 -0.22596465 157.55660248 -0.21717453 C159.33316017 -0.2164025 161.1097286 -0.22076865 162.88625908 -0.23063278 C165.31064529 -0.24330524 167.73431054 -0.23750143 170.15869141 -0.22705078 C170.86258839 -0.23510719 171.56648538 -0.24316359 172.29171258 -0.25146413 C177.64439132 -0.1974592 180.82717628 1.19779701 184.58232117 4.95294189 C186.23272984 7.99316839 186.31710144 9.71994021 185.76982117 13.14044189 C183.69547075 16.56590177 181.65205531 18.84636385 177.76982117 20.14044189 C175.31040864 20.24218828 172.87905281 20.2882537 170.41938782 20.28761292 C169.28764887 20.29312795 169.28764887 20.29312795 168.13304651 20.29875439 C165.59741377 20.30979348 163.061822 20.31363541 160.52616882 20.31744385 C158.71120066 20.32370821 156.89623378 20.33035498 155.08126831 20.33735657 C150.14532171 20.35476588 145.20938478 20.36531763 140.27341509 20.3735621 C137.19101194 20.37871124 134.10861181 20.38478693 131.02621078 20.39107323 C121.38599921 20.41012308 111.7457953 20.424356 102.10556853 20.4326852 C90.96977918 20.44246505 79.83418822 20.46880497 68.6984688 20.50918609 C60.09542724 20.53931512 51.49244266 20.55415092 42.88934934 20.55746621 C37.7488172 20.55981989 32.60849705 20.5688219 27.46802139 20.59392738 C22.63349273 20.61715767 17.79931642 20.62146171 12.96474648 20.611166 C11.18979408 20.61066934 9.41482464 20.61702805 7.639925 20.63072205 C5.21759901 20.64836661 2.79654781 20.64137246 0.3742218 20.62818909 C-0.6806005 20.64464296 -0.6806005 20.64464296 -1.75673234 20.66142923 C-6.50259757 20.59902052 -8.89364576 19.48862974 -12.23017883 16.14044189 C-13.8310451 12.93870936 -13.72934973 9.61467131 -13.23017883 6.14044189 C-9.47569151 0.25841175 -6.57089232 -0.00801245 0 0 Z " fill="#000000" transform="translate(109.23017883300781,261.85955810546875)"/>
<path d="M0 0 C4.35175414 3.73007497 8.44342249 7.31542236 12.47631836 11.33105469 C13.22399979 12.0736982 13.22399979 12.0736982 13.98678589 12.8313446 C15.60707885 14.44226096 17.22369159 16.05680516 18.83984375 17.671875 C19.97319964 18.80201317 21.1066288 19.93207788 22.24012756 21.06207275 C24.60106592 23.41705627 26.95996194 25.77406387 29.31762695 28.13232422 C32.34458267 31.15938231 35.37840453 34.17945895 38.41396236 37.19788742 C40.74984469 39.52268791 43.08120511 41.85198185 45.41128731 44.1825943 C46.52888427 45.29900896 47.64810829 46.41379726 48.76896477 47.52693939 C50.32722054 49.07545608 51.87908202 50.63010863 53.42944336 52.18652344 C54.31433945 53.06999451 55.19923553 53.95346558 56.11094666 54.8637085 C58 57 58 57 58 59 C38.86 59 19.72 59 0 59 C0 39.53 0 20.06 0 0 Z " fill="#F8DEAD" transform="translate(267,134)"/>
<path d="M0 0 C4.35838361 3.73575738 8.44531995 7.31952694 12.47631836 11.34692383 C12.97477264 11.84362579 13.47322693 12.34032776 13.98678589 12.8520813 C15.60696858 14.46791979 17.22353393 16.0873195 18.83984375 17.70703125 C19.97312581 18.83963878 21.10655621 19.9720979 22.24012756 21.10441589 C24.60092083 23.46374284 26.95991548 25.82484934 29.31762695 28.18725586 C32.34628288 31.22164787 35.37945932 34.25147547 38.41396236 37.28001881 C40.74822754 39.61068293 43.08012131 41.94370793 45.41128731 44.27747154 C46.52976564 45.39661838 47.64899121 46.51501893 48.76896477 47.63266945 C50.32488249 49.18606392 51.87758661 50.74259888 53.42944336 52.30004883 C54.31433945 53.18574051 55.19923553 54.07143219 56.11094666 54.98396301 C58 57 58 57 58 58 C38.86 58 19.72 58 0 58 C0 38.86 0 19.72 0 0 Z " fill="#FDCD61" transform="translate(389,35)"/>
<path d="M0 0 C2.63112918 3.34870986 2.36141398 6.87988064 2 11 C0.73001681 13.85746217 -0.2838003 15.48137263 -2.8125 17.3125 C-6.8825176 18.59164839 -9.88864886 18.53041759 -13.75 16.6875 C-16.32523785 14.75607162 -17.79585233 13.14752479 -18.37109375 9.9140625 C-18.494274 5.66796687 -18.40748002 3.59269822 -15.9375 0 C-10.25380521 -3.86974964 -5.68258983 -3.8324443 0 0 Z " fill="#040302" transform="translate(480,229)"/>
</svg>
