<?xml version="1.0" encoding="UTF-8"?>
<svg version="1.1" xmlns="http://www.w3.org/2000/svg" width="512" height="512">
<path d="M0 0 C0.87206589 -0.00570007 1.74413177 -0.01140015 2.6426239 -0.01727295 C4.48219617 -0.02666286 6.3217848 -0.03323281 8.16137695 -0.03710938 C10.90412897 -0.04671705 13.64609812 -0.07775747 16.38867188 -0.109375 C32.24992945 -0.20545463 48.06923252 1.17829803 63.26171875 6.015625 C64.08873291 6.27134277 64.91574707 6.52706055 65.76782227 6.79052734 C71.9519294 8.78823497 77.39233175 11.31715672 82.63671875 15.203125 C83.58546875 15.8425 84.53421875 16.481875 85.51171875 17.140625 C91.20802443 22.66939228 92.10987312 27.65506008 92.34375 35.34960938 C92.35792969 36.43564453 92.37210938 37.52167969 92.38671875 38.640625 C92.41636719 39.75373047 92.44601562 40.86683594 92.4765625 42.01367188 C92.54686007 44.74356072 92.59975538 47.47261539 92.63671875 50.203125 C93.76207031 49.80480469 94.88742187 49.40648437 96.046875 48.99609375 C111.78736648 43.52511342 127.27718721 40.08779417 144 40 C145.30809883 39.99144989 145.30809883 39.99144989 146.6426239 39.98272705 C148.48219617 39.97333714 150.3217848 39.96676719 152.16137695 39.96289062 C154.90412897 39.95328295 157.64609812 39.92224253 160.38867188 39.890625 C176.24992945 39.79454537 192.06923252 41.17829803 207.26171875 46.015625 C208.08873291 46.27134277 208.91574707 46.52706055 209.76782227 46.79052734 C215.9519294 48.78823497 221.39233175 51.31715672 226.63671875 55.203125 C227.58546875 55.8425 228.53421875 56.481875 229.51171875 57.140625 C234.61896726 62.09766032 235.88767508 66.01206989 236.11773682 73.04319763 C236.14414727 75.86338772 236.11943944 78.68161979 236.09082031 81.50170898 C236.089691 83.05937165 236.09032732 84.61703644 236.09259033 86.17469788 C236.09373517 90.38921301 236.07026353 94.60327019 236.0422945 98.81767917 C236.01724221 103.22722964 236.01493584 107.63679131 236.01019287 112.04640198 C235.99777432 120.3902717 235.96496794 128.73393108 235.92479491 137.0777083 C235.88004227 146.5794739 235.85808139 156.08124968 235.83801317 165.58309448 C235.79623427 185.12322377 235.72590408 204.66315746 235.63671875 224.203125 C236.95838295 224.19537552 236.95838295 224.19537552 238.30674744 224.18746948 C239.46872147 224.18345123 240.6306955 224.17943298 241.82788086 224.17529297 C242.97711533 224.17012665 244.12634979 224.16496033 245.31040955 224.15963745 C249.67636015 224.21671708 253.89050342 224.65316234 258.19921875 225.328125 C259.03565918 225.45791748 259.87209961 225.58770996 260.73388672 225.72143555 C273.92634911 227.93248338 287.7361026 231.12602301 298.63671875 239.203125 C299.58546875 239.8425 300.53421875 240.481875 301.51171875 241.140625 C306.17754927 245.66922521 307.85831191 249.58253172 308.15811157 255.99557495 C308.18786856 258.3209342 308.19567758 260.64663833 308.18603516 262.97216797 C308.19625702 264.24620483 308.20647888 265.5202417 308.2170105 266.83288574 C308.24368653 270.31242125 308.24495969 273.79152091 308.2398839 277.27113867 C308.23773712 280.18348148 308.24752998 283.09573742 308.25709474 286.00806153 C308.27924954 292.88320801 308.28018037 299.75813592 308.26806641 306.63330078 C308.25599102 313.70848204 308.28060463 320.7828674 308.32320654 327.8579129 C308.35852039 333.94821682 308.37042848 340.03826836 308.36393106 346.12867081 C308.36031754 349.7592174 308.36545296 353.38919632 308.39336014 357.01964951 C308.42334787 361.07205019 308.40450796 365.1228474 308.38134766 369.17529297 C308.39663513 370.36623566 308.41192261 371.55717834 308.42767334 372.78421021 C308.33020467 380.51663135 306.77613614 385.35626482 301.63671875 391.203125 C286.57205165 405.24519052 258.90366464 408.30319201 239.2734375 408.40625 C238.40137161 408.41195007 237.52930573 408.41765015 236.6308136 408.42352295 C234.79124133 408.43291286 232.9516527 408.43948281 231.11206055 408.44335938 C228.36930853 408.45296705 225.62733938 408.48400747 222.88476562 408.515625 C206.78910194 408.61358105 190.93029495 407.17547139 175.57421875 402.078125 C174.73568359 401.81386719 173.89714844 401.54960937 173.03320312 401.27734375 C169.890605 400.28281872 166.76374873 399.24546833 163.63671875 398.203125 C163.33121094 398.77160156 163.02570313 399.34007812 162.7109375 399.92578125 C155.23038789 412.54789172 142.09186299 416.54939497 128.63671875 420.203125 C117.60607126 422.95510097 106.62262782 424.34666716 95.2734375 424.40625 C94.40137161 424.41195007 93.52930573 424.41765015 92.6308136 424.42352295 C90.79124133 424.43291286 88.9516527 424.43948281 87.11206055 424.44335938 C84.36930853 424.45296705 81.62733938 424.48400747 78.88476562 424.515625 C63.02350805 424.61170463 47.20420498 423.22795197 32.01171875 418.390625 C31.18470459 418.13490723 30.35769043 417.87918945 29.50561523 417.61572266 C23.3215081 415.61801503 17.88110575 413.08909328 12.63671875 409.203125 C11.68796875 408.56375 10.73921875 407.924375 9.76171875 407.265625 C6.96155115 404.54781527 5.52732415 401.61649835 3.63671875 398.203125 C2.43917969 398.60144531 1.24164063 398.99976563 0.0078125 399.41015625 C-16.04100262 404.6653565 -31.76730191 408.31721449 -48.7265625 408.40625 C-49.59862839 408.41195007 -50.47069427 408.41765015 -51.3691864 408.42352295 C-53.20875867 408.43291286 -55.0483473 408.43948281 -56.88793945 408.44335938 C-59.63069147 408.45296705 -62.37266062 408.48400747 -65.11523438 408.515625 C-80.97649195 408.61170463 -96.79579502 407.22795197 -111.98828125 402.390625 C-112.81529541 402.13490723 -113.64230957 401.87918945 -114.49438477 401.61572266 C-120.6784919 399.61801503 -126.11889425 397.08909328 -131.36328125 393.203125 C-132.31203125 392.56375 -133.26078125 391.924375 -134.23828125 391.265625 C-138.03499233 387.58058189 -140.12410193 383.85845293 -140.87223244 378.68074226 C-140.87633818 377.43049704 -140.88044392 376.18025181 -140.88467407 374.89212036 C-140.89232517 374.19011847 -140.89997626 373.48811659 -140.90785921 372.76484191 C-140.92837234 370.43031887 -140.92056448 368.09679323 -140.91259766 365.76220703 C-140.92129893 364.08120826 -140.93166758 362.40021742 -140.943573 360.71923828 C-140.97030135 356.16538494 -140.9715162 351.6118641 -140.9664464 347.05794764 C-140.96430332 343.25089481 -140.97408309 339.44390875 -140.98365724 335.63687027 C-141.00582997 326.65223096 -141.0067325 317.66775889 -140.99462891 308.68310547 C-140.98255063 299.42673451 -141.00717129 290.17097166 -141.04976904 280.91470444 C-141.08504284 272.95606278 -141.09699722 264.99761432 -141.09049356 257.0388974 C-141.08687393 252.29057579 -141.09207846 247.54268795 -141.11992264 242.79443741 C-141.14513906 238.32733479 -141.14113726 233.86117743 -141.11510086 229.39408875 C-141.11038283 227.75950165 -141.11579062 226.12484742 -141.13234711 224.49033737 C-141.21789967 215.38408867 -140.9923271 208.18046121 -134.36328125 201.203125 C-123.27464128 190.86719072 -104.83881749 187.53172267 -90.36328125 185.203125 C-89.54730469 185.07164062 -88.73132813 184.94015625 -87.890625 184.8046875 C-83.45147015 184.20850336 -79.06652227 184.16955147 -74.58984375 184.18359375 C-72.83921631 184.18782349 -72.83921631 184.18782349 -71.05322266 184.19213867 C-69.72170166 184.1975769 -69.72170166 184.1975769 -68.36328125 184.203125 C-68.36881201 183.39713143 -68.37434277 182.59113787 -68.38004112 181.76072025 C-68.5126707 162.1297375 -68.61189548 142.49884442 -68.67415428 122.86750889 C-68.70506417 113.37382965 -68.74718967 103.88044989 -68.81591797 94.38696289 C-68.87580802 86.1103493 -68.91445124 77.83395264 -68.92781222 69.55712837 C-68.93561982 65.17636277 -68.95390881 60.79621764 -68.99766159 56.41565132 C-69.03855497 52.28771181 -69.05091697 48.16064504 -69.04192734 44.0325222 C-69.04357056 42.52206292 -69.05540662 41.01157278 -69.0785141 39.50128937 C-69.20774827 30.61463583 -68.64856498 23.97971376 -62.36328125 17.203125 C-47.29861415 3.16105948 -19.63022714 0.10305799 0 0 Z " fill="#020100" transform="translate(172.36328125,47.796875)"/>
<path d="M0 0 C0.41507812 0.37511719 0.83015625 0.75023438 1.2578125 1.13671875 C-0.62914236 5.56736277 -3.58416991 7.04977481 -7.7421875 9.13671875 C-8.63679688 9.62914063 -9.53140625 10.1215625 -10.453125 10.62890625 C-14.29690588 12.39101958 -17.99532338 13.33005465 -22.1171875 14.19921875 C-22.91608398 14.3684082 -23.71498047 14.53759766 -24.53808594 14.71191406 C-54.16386575 20.81099368 -96.85700325 23.75702978 -123.7421875 6.13671875 C-124.77269135 5.16818284 -125.7835788 4.17646361 -126.7421875 3.13671875 C-124.43721992 -2.31875728 -119.94513915 -4.52624207 -114.63671875 -6.7421875 C-112.35650196 -7.53548697 -110.06755437 -8.21425541 -107.7421875 -8.86328125 C-106.88238281 -9.11980469 -106.02257812 -9.37632813 -105.13671875 -9.640625 C-75.93772452 -17.73579444 -24.66262949 -20.48339729 0 0 Z " fill="#FBC500" transform="translate(246.7421875,77.86328125)"/>
<path d="M0 0 C0.97066406 0.495 1.94132812 0.99 2.94140625 1.5 C5.15765468 2.83183005 6.73606456 4.07514374 8.4375 6 C7.20733843 9.82716933 4.94401696 11.12381089 1.484375 12.97265625 C0.80890625 13.31167969 0.1334375 13.65070313 -0.5625 14 C-1.45710938 14.49242187 -2.35171875 14.98484375 -3.2734375 15.4921875 C-7.11721838 17.25430083 -10.81563588 18.1933359 -14.9375 19.0625 C-15.73639648 19.23168945 -16.53529297 19.40087891 -17.35839844 19.57519531 C-46.98417825 25.67427493 -89.67731575 28.62031103 -116.5625 11 C-117.59300385 10.03146409 -118.6038913 9.03974486 -119.5625 8 C-117.25753242 2.54452397 -112.76545165 0.33703918 -107.45703125 -1.87890625 C-105.17681446 -2.67220572 -102.88786687 -3.35097416 -100.5625 -4 C-99.70269531 -4.25652344 -98.84289062 -4.51304687 -97.95703125 -4.77734375 C-69.49584814 -12.66796141 -26.70358131 -13.95125881 0 0 Z " fill="#FBC500" transform="translate(455.5625,297)"/>
<path d="M0 0 C0.97066406 0.495 1.94132812 0.99 2.94140625 1.5 C5.15765468 2.83183005 6.73606456 4.07514374 8.4375 6 C7.20733843 9.82716933 4.94401696 11.12381089 1.484375 12.97265625 C0.80890625 13.31167969 0.1334375 13.65070313 -0.5625 14 C-1.45710938 14.49242187 -2.35171875 14.98484375 -3.2734375 15.4921875 C-7.11721838 17.25430083 -10.81563588 18.1933359 -14.9375 19.0625 C-15.73639648 19.23168945 -16.53529297 19.40087891 -17.35839844 19.57519531 C-46.98417825 25.67427493 -89.67731575 28.62031103 -116.5625 11 C-117.59300385 10.03146409 -118.6038913 9.03974486 -119.5625 8 C-117.25753242 2.54452397 -112.76545165 0.33703918 -107.45703125 -1.87890625 C-105.17681446 -2.67220572 -102.88786687 -3.35097416 -100.5625 -4 C-99.70269531 -4.25652344 -98.84289062 -4.51304687 -97.95703125 -4.77734375 C-69.49584814 -12.66796141 -26.70358131 -13.95125881 0 0 Z " fill="#FBC500" transform="translate(167.5625,257)"/>
<path d="M0 0 C0.97066406 0.495 1.94132812 0.99 2.94140625 1.5 C5.15765468 2.83183005 6.73606456 4.07514374 8.4375 6 C7.20733843 9.82716933 4.94401696 11.12381089 1.484375 12.97265625 C0.80890625 13.31167969 0.1334375 13.65070313 -0.5625 14 C-1.45710938 14.49242188 -2.35171875 14.98484375 -3.2734375 15.4921875 C-7.11721838 17.25430083 -10.81563588 18.1933359 -14.9375 19.0625 C-15.73639648 19.23168945 -16.53529297 19.40087891 -17.35839844 19.57519531 C-46.98417825 25.67427493 -89.67731575 28.62031103 -116.5625 11 C-117.59300385 10.03146409 -118.6038913 9.03974486 -119.5625 8 C-117.25753242 2.54452397 -112.76545165 0.33703918 -107.45703125 -1.87890625 C-105.17681446 -2.67220572 -102.88786687 -3.35097416 -100.5625 -4 C-99.70269531 -4.25652344 -98.84289062 -4.51304688 -97.95703125 -4.77734375 C-69.49584814 -12.66796141 -26.70358131 -13.95125881 0 0 Z " fill="#FBC500" transform="translate(383.5625,113)"/>
<path d="M0 0 C0.79792969 0.75023437 1.59585938 1.50046875 2.41796875 2.2734375 C1.42547051 5.36120979 0.30995591 6.34784634 -2.39453125 8.2109375 C-3.77890529 8.92123002 -5.17645051 9.60609221 -6.58203125 10.2734375 C-7.77119141 10.87865234 -7.77119141 10.87865234 -8.984375 11.49609375 C-38.89541332 24.91297925 -81.91386595 23.07339387 -112.58203125 12.2734375 C-117.56369255 10.22921788 -121.89991955 8.26720129 -125.58203125 4.2734375 C-123.42226496 -0.95430449 -119.57378508 -2.50878753 -114.58203125 -4.7265625 C-110.29310164 -6.23208544 -105.95973258 -7.50698391 -101.58203125 -8.7265625 C-100.45539063 -9.07074219 -99.32875 -9.41492188 -98.16796875 -9.76953125 C-71.92718383 -16.77279084 -22.17492513 -18.36371098 0 0 Z " fill="#FCC500" transform="translate(317.58203125,196.7265625)"/>
<path d="M0 0 C0.1748936 3.39517814 0.28103765 6.78919487 0.375 10.1875 C0.42527344 11.14720703 0.47554687 12.10691406 0.52734375 13.09570312 C0.67195738 20.06125954 0.67195738 20.06125954 -1.23046875 22.71899414 C-2.7890625 24.046875 -2.7890625 24.046875 -6 26 C-6.95132813 26.60521484 -6.95132813 26.60521484 -7.921875 27.22265625 C-31.4721081 38.04167359 -64.82703166 39.64876599 -89.69140625 33.9296875 C-95.74730334 32.53693691 -101.9168349 31.76237249 -108.0625 30.875 C-109.81361084 30.61928223 -109.81361084 30.61928223 -111.60009766 30.35839844 C-117.06534189 29.56238921 -122.53259282 28.78105817 -128 28 C-128 19.09 -128 10.18 -128 1 C-124.14570775 1.77085845 -120.66115053 2.68453924 -116.9375 3.875 C-100.10033042 9.08470718 -83.80704327 11.42470883 -66.1875 11.375 C-65.48399414 11.37478851 -64.78048828 11.37457703 -64.05566406 11.37435913 C-42.33790809 11.30999893 -20.00804675 0 0 0 Z " fill="#D69900" transform="translate(392,140)"/>
<path d="M0 0 C0 9.24 0 18.48 0 28 C-3.815625 28.391875 -7.63125 28.78375 -11.5625 29.1875 C-20.32461624 30.12851644 -28.71134469 31.5305921 -37.25 33.6875 C-63.7162654 40.10101828 -98.57060155 38.13044222 -123.15234375 25.2109375 C-125.11698017 23.92333224 -126.51036645 22.82224751 -128 21 C-128.34057617 18.82348633 -128.34057617 18.82348633 -128.29296875 16.33203125 C-128.28330078 15.43935547 -128.27363281 14.54667969 -128.26367188 13.62695312 C-128.23853516 12.69818359 -128.21339844 11.76941406 -128.1875 10.8125 C-128.17396484 9.87212891 -128.16042969 8.93175781 -128.14648438 7.96289062 C-128.11113096 5.64134962 -128.06178674 3.32096347 -128 1 C-124.20116629 1.68560903 -120.6128901 2.69996822 -116.9375 3.875 C-100.10033042 9.08470718 -83.80704327 11.42470883 -66.1875 11.375 C-65.48399414 11.37478851 -64.78048828 11.37457703 -64.05566406 11.37435913 C-42.33790809 11.30999893 -20.00804675 0 0 0 Z " fill="#D69A00" transform="translate(248,140)"/>
<path d="M0 0 C0.1748936 3.39517814 0.28103765 6.78919487 0.375 10.1875 C0.42527344 11.14720703 0.47554687 12.10691406 0.52734375 13.09570312 C0.67195738 20.06125954 0.67195738 20.06125954 -1.23046875 22.71899414 C-2.7890625 24.046875 -2.7890625 24.046875 -6 26 C-6.95132813 26.60521484 -6.95132813 26.60521484 -7.921875 27.22265625 C-15.8559405 30.8675795 -24.46842267 32.39488465 -33 34 C-34.21042969 34.22945313 -35.42085938 34.45890625 -36.66796875 34.6953125 C-63.29791954 38.81903443 -101.26197863 39.55768842 -125 24 C-127.09020863 22.31971764 -127.9197865 21.51261888 -128.34057617 18.82348633 C-128.32486572 18.00130615 -128.30915527 17.17912598 -128.29296875 16.33203125 C-128.28330078 15.43935547 -128.27363281 14.54667969 -128.26367188 13.62695312 C-128.23853516 12.69818359 -128.21339844 11.76941406 -128.1875 10.8125 C-128.17396484 9.87212891 -128.16042969 8.93175781 -128.14648438 7.96289062 C-128.11113096 5.64134962 -128.06178674 3.32096347 -128 1 C-124.20116629 1.68560903 -120.6128901 2.69996822 -116.9375 3.875 C-100.10033042 9.08470718 -83.80704327 11.42470883 -66.1875 11.375 C-65.48399414 11.37478851 -64.78048828 11.37457703 -64.05566406 11.37435913 C-42.33790809 11.30999893 -20.00804675 0 0 0 Z " fill="#D69A00" transform="translate(320,420)"/>
<path d="M0 0 C0.1748936 3.39517814 0.28103765 6.78919487 0.375 10.1875 C0.42527344 11.14720703 0.47554687 12.10691406 0.52734375 13.09570312 C0.67195738 20.06125954 0.67195738 20.06125954 -1.23046875 22.71899414 C-2.7890625 24.046875 -2.7890625 24.046875 -6 26 C-6.95132813 26.60521484 -6.95132813 26.60521484 -7.921875 27.22265625 C-15.8559405 30.8675795 -24.46842267 32.39488465 -33 34 C-34.21042969 34.22945313 -35.42085938 34.45890625 -36.66796875 34.6953125 C-63.29791954 38.81903443 -101.26197863 39.55768842 -125 24 C-127.09020863 22.31971764 -127.9197865 21.51261888 -128.34057617 18.82348633 C-128.32486572 18.00130615 -128.30915527 17.17912598 -128.29296875 16.33203125 C-128.28330078 15.43935547 -128.27363281 14.54667969 -128.26367188 13.62695312 C-128.23853516 12.69818359 -128.21339844 11.76941406 -128.1875 10.8125 C-128.17396484 9.87212891 -128.16042969 8.93175781 -128.14648438 7.96289062 C-128.11113096 5.64134962 -128.06178674 3.32096347 -128 1 C-124.20116629 1.68560903 -120.6128901 2.69996822 -116.9375 3.875 C-100.10033042 9.08470718 -83.80704327 11.42470883 -66.1875 11.375 C-65.48399414 11.37478851 -64.78048828 11.37457703 -64.05566406 11.37435913 C-42.33790809 11.30999893 -20.00804675 0 0 0 Z " fill="#D69A00" transform="translate(464,404)"/>
<path d="M0 0 C0.1748936 3.39517814 0.28103765 6.78919487 0.375 10.1875 C0.42527344 11.14720703 0.47554687 12.10691406 0.52734375 13.09570312 C0.67195738 20.06125954 0.67195738 20.06125954 -1.23046875 22.71899414 C-2.7890625 24.046875 -2.7890625 24.046875 -6 26 C-6.95132813 26.60521484 -6.95132813 26.60521484 -7.921875 27.22265625 C-15.8559405 30.8675795 -24.46842267 32.39488465 -33 34 C-34.21042969 34.22945313 -35.42085938 34.45890625 -36.66796875 34.6953125 C-63.29791954 38.81903443 -101.26197863 39.55768842 -125 24 C-127.09020863 22.31971764 -127.9197865 21.51261888 -128.34057617 18.82348633 C-128.32486572 18.00130615 -128.30915527 17.17912598 -128.29296875 16.33203125 C-128.28330078 15.43935547 -128.27363281 14.54667969 -128.26367188 13.62695312 C-128.23853516 12.69818359 -128.21339844 11.76941406 -128.1875 10.8125 C-128.17396484 9.87212891 -128.16042969 8.93175781 -128.14648438 7.96289062 C-128.11113096 5.64134962 -128.06178674 3.32096347 -128 1 C-124.20116629 1.68560903 -120.6128901 2.69996822 -116.9375 3.875 C-100.10033042 9.08470718 -83.80704327 11.42470883 -66.1875 11.375 C-65.48399414 11.37478851 -64.78048828 11.37457703 -64.05566406 11.37435913 C-42.33790809 11.30999893 -20.00804675 0 0 0 Z " fill="#D69A00" transform="translate(176,404)"/>
<path d="M0 0 C0.1748936 3.39517814 0.28103765 6.78919487 0.375 10.1875 C0.42527344 11.14720703 0.47554687 12.10691406 0.52734375 13.09570312 C0.67195738 20.06125954 0.67195738 20.06125954 -1.23046875 22.71899414 C-2.7890625 24.046875 -2.7890625 24.046875 -6 26 C-6.95132813 26.60521484 -6.95132813 26.60521484 -7.921875 27.22265625 C-15.8559405 30.8675795 -24.46842267 32.39488465 -33 34 C-34.21042969 34.22945313 -35.42085938 34.45890625 -36.66796875 34.6953125 C-63.29791954 38.81903443 -101.26197863 39.55768842 -125 24 C-127.09020863 22.31971764 -127.9197865 21.51261888 -128.34057617 18.82348633 C-128.32486572 18.00130615 -128.30915527 17.17912598 -128.29296875 16.33203125 C-128.28330078 15.43935547 -128.27363281 14.54667969 -128.26367188 13.62695312 C-128.23853516 12.69818359 -128.21339844 11.76941406 -128.1875 10.8125 C-128.17396484 9.87212891 -128.16042969 8.93175781 -128.14648438 7.96289062 C-128.11113096 5.64134962 -128.06178674 3.32096347 -128 1 C-124.20116629 1.68560903 -120.6128901 2.69996822 -116.9375 3.875 C-100.10033042 9.08470718 -83.80704327 11.42470883 -66.1875 11.375 C-65.48399414 11.37478851 -64.78048828 11.37457703 -64.05566406 11.37435913 C-42.33790809 11.30999893 -20.00804675 0 0 0 Z " fill="#D69A00" transform="translate(320,380)"/>
<path d="M0 0 C0.1748936 3.39517814 0.28103765 6.78919487 0.375 10.1875 C0.42527344 11.14720703 0.47554687 12.10691406 0.52734375 13.09570312 C0.67195738 20.06125954 0.67195738 20.06125954 -1.23046875 22.71899414 C-2.7890625 24.046875 -2.7890625 24.046875 -6 26 C-6.95132813 26.60521484 -6.95132813 26.60521484 -7.921875 27.22265625 C-15.8559405 30.8675795 -24.46842267 32.39488465 -33 34 C-34.21042969 34.22945313 -35.42085938 34.45890625 -36.66796875 34.6953125 C-63.29791954 38.81903443 -101.26197863 39.55768842 -125 24 C-127.09020863 22.31971764 -127.9197865 21.51261888 -128.34057617 18.82348633 C-128.32486572 18.00130615 -128.30915527 17.17912598 -128.29296875 16.33203125 C-128.28330078 15.43935547 -128.27363281 14.54667969 -128.26367188 13.62695312 C-128.23853516 12.69818359 -128.21339844 11.76941406 -128.1875 10.8125 C-128.17396484 9.87212891 -128.16042969 8.93175781 -128.14648438 7.96289062 C-128.11113096 5.64134962 -128.06178674 3.32096347 -128 1 C-124.20116629 1.68560903 -120.6128901 2.69996822 -116.9375 3.875 C-100.10033042 9.08470718 -83.80704327 11.42470883 -66.1875 11.375 C-65.48399414 11.37478851 -64.78048828 11.37457703 -64.05566406 11.37435913 C-42.33790809 11.30999893 -20.00804675 0 0 0 Z " fill="#D69A00" transform="translate(464,364)"/>
<path d="M0 0 C0.1748936 3.39517814 0.28103765 6.78919487 0.375 10.1875 C0.42527344 11.14720703 0.47554687 12.10691406 0.52734375 13.09570312 C0.67195738 20.06125954 0.67195738 20.06125954 -1.23046875 22.71899414 C-2.7890625 24.046875 -2.7890625 24.046875 -6 26 C-6.95132813 26.60521484 -6.95132813 26.60521484 -7.921875 27.22265625 C-15.8559405 30.8675795 -24.46842267 32.39488465 -33 34 C-34.21042969 34.22945313 -35.42085938 34.45890625 -36.66796875 34.6953125 C-63.29791954 38.81903443 -101.26197863 39.55768842 -125 24 C-127.09020863 22.31971764 -127.9197865 21.51261888 -128.34057617 18.82348633 C-128.32486572 18.00130615 -128.30915527 17.17912598 -128.29296875 16.33203125 C-128.28330078 15.43935547 -128.27363281 14.54667969 -128.26367188 13.62695312 C-128.23853516 12.69818359 -128.21339844 11.76941406 -128.1875 10.8125 C-128.17396484 9.87212891 -128.16042969 8.93175781 -128.14648438 7.96289062 C-128.11113096 5.64134962 -128.06178674 3.32096347 -128 1 C-124.20116629 1.68560903 -120.6128901 2.69996822 -116.9375 3.875 C-100.10033042 9.08470718 -83.80704327 11.42470883 -66.1875 11.375 C-65.48399414 11.37478851 -64.78048828 11.37457703 -64.05566406 11.37435913 C-42.33790809 11.30999893 -20.00804675 0 0 0 Z " fill="#D69A00" transform="translate(176,364)"/>
<path d="M0 0 C0.1748936 3.39517814 0.28103765 6.78919487 0.375 10.1875 C0.42527344 11.14720703 0.47554687 12.10691406 0.52734375 13.09570312 C0.67195738 20.06125954 0.67195738 20.06125954 -1.23046875 22.71899414 C-2.7890625 24.046875 -2.7890625 24.046875 -6 26 C-6.95132813 26.60521484 -6.95132813 26.60521484 -7.921875 27.22265625 C-15.8559405 30.8675795 -24.46842267 32.39488465 -33 34 C-34.21042969 34.22945313 -35.42085938 34.45890625 -36.66796875 34.6953125 C-63.29791954 38.81903443 -101.26197863 39.55768842 -125 24 C-127.09020863 22.31971764 -127.9197865 21.51261888 -128.34057617 18.82348633 C-128.32486572 18.00130615 -128.30915527 17.17912598 -128.29296875 16.33203125 C-128.28330078 15.43935547 -128.27363281 14.54667969 -128.26367188 13.62695312 C-128.23853516 12.69818359 -128.21339844 11.76941406 -128.1875 10.8125 C-128.17396484 9.87212891 -128.16042969 8.93175781 -128.14648438 7.96289062 C-128.11113096 5.64134962 -128.06178674 3.32096347 -128 1 C-124.20116629 1.68560903 -120.6128901 2.69996822 -116.9375 3.875 C-100.10033042 9.08470718 -83.80704327 11.42470883 -66.1875 11.375 C-65.48399414 11.37478851 -64.78048828 11.37457703 -64.05566406 11.37435913 C-42.33790809 11.30999893 -20.00804675 0 0 0 Z " fill="#D69A00" transform="translate(320,340)"/>
<path d="M0 0 C0.1748936 3.39517814 0.28103765 6.78919487 0.375 10.1875 C0.42527344 11.14720703 0.47554687 12.10691406 0.52734375 13.09570312 C0.67195738 20.06125954 0.67195738 20.06125954 -1.23046875 22.71899414 C-2.7890625 24.046875 -2.7890625 24.046875 -6 26 C-6.95132813 26.60521484 -6.95132813 26.60521484 -7.921875 27.22265625 C-15.8559405 30.8675795 -24.46842267 32.39488465 -33 34 C-34.21042969 34.22945313 -35.42085938 34.45890625 -36.66796875 34.6953125 C-63.29791954 38.81903443 -101.26197863 39.55768842 -125 24 C-127.09020863 22.31971764 -127.9197865 21.51261888 -128.34057617 18.82348633 C-128.32486572 18.00130615 -128.30915527 17.17912598 -128.29296875 16.33203125 C-128.28330078 15.43935547 -128.27363281 14.54667969 -128.26367188 13.62695312 C-128.23853516 12.69818359 -128.21339844 11.76941406 -128.1875 10.8125 C-128.17396484 9.87212891 -128.16042969 8.93175781 -128.14648438 7.96289062 C-128.11113096 5.64134962 -128.06178674 3.32096347 -128 1 C-124.20116629 1.68560903 -120.6128901 2.69996822 -116.9375 3.875 C-100.10033042 9.08470718 -83.80704327 11.42470883 -66.1875 11.375 C-65.48399414 11.37478851 -64.78048828 11.37457703 -64.05566406 11.37435913 C-42.33790809 11.30999893 -20.00804675 0 0 0 Z " fill="#D69A00" transform="translate(464,324)"/>
<path d="M0 0 C0.1748936 3.39517814 0.28103765 6.78919487 0.375 10.1875 C0.42527344 11.14720703 0.47554687 12.10691406 0.52734375 13.09570312 C0.67195738 20.06125954 0.67195738 20.06125954 -1.23046875 22.71899414 C-2.7890625 24.046875 -2.7890625 24.046875 -6 26 C-6.95132813 26.60521484 -6.95132813 26.60521484 -7.921875 27.22265625 C-15.8559405 30.8675795 -24.46842267 32.39488465 -33 34 C-34.21042969 34.22945313 -35.42085938 34.45890625 -36.66796875 34.6953125 C-63.29791954 38.81903443 -101.26197863 39.55768842 -125 24 C-127.09020863 22.31971764 -127.9197865 21.51261888 -128.34057617 18.82348633 C-128.32486572 18.00130615 -128.30915527 17.17912598 -128.29296875 16.33203125 C-128.28330078 15.43935547 -128.27363281 14.54667969 -128.26367188 13.62695312 C-128.23853516 12.69818359 -128.21339844 11.76941406 -128.1875 10.8125 C-128.17396484 9.87212891 -128.16042969 8.93175781 -128.14648438 7.96289062 C-128.11113096 5.64134962 -128.06178674 3.32096347 -128 1 C-124.20116629 1.68560903 -120.6128901 2.69996822 -116.9375 3.875 C-100.10033042 9.08470718 -83.80704327 11.42470883 -66.1875 11.375 C-65.48399414 11.37478851 -64.78048828 11.37457703 -64.05566406 11.37435913 C-42.33790809 11.30999893 -20.00804675 0 0 0 Z " fill="#D69A00" transform="translate(176,324)"/>
<path d="M0 0 C0.1748936 3.39517814 0.28103765 6.78919487 0.375 10.1875 C0.42527344 11.14720703 0.47554687 12.10691406 0.52734375 13.09570312 C0.67195738 20.06125954 0.67195738 20.06125954 -1.23046875 22.71899414 C-2.7890625 24.046875 -2.7890625 24.046875 -6 26 C-6.95132813 26.60521484 -6.95132813 26.60521484 -7.921875 27.22265625 C-15.8559405 30.8675795 -24.46842267 32.39488465 -33 34 C-34.21042969 34.22945313 -35.42085938 34.45890625 -36.66796875 34.6953125 C-63.29791954 38.81903443 -101.26197863 39.55768842 -125 24 C-127.09020863 22.31971764 -127.9197865 21.51261888 -128.34057617 18.82348633 C-128.32486572 18.00130615 -128.30915527 17.17912598 -128.29296875 16.33203125 C-128.28330078 15.43935547 -128.27363281 14.54667969 -128.26367188 13.62695312 C-128.23853516 12.69818359 -128.21339844 11.76941406 -128.1875 10.8125 C-128.17396484 9.87212891 -128.16042969 8.93175781 -128.14648438 7.96289062 C-128.11113096 5.64134962 -128.06178674 3.32096347 -128 1 C-124.20116629 1.68560903 -120.6128901 2.69996822 -116.9375 3.875 C-100.10033042 9.08470718 -83.80704327 11.42470883 -66.1875 11.375 C-65.48399414 11.37478851 -64.78048828 11.37457703 -64.05566406 11.37435913 C-42.33790809 11.30999893 -20.00804675 0 0 0 Z " fill="#D69A00" transform="translate(320,300)"/>
<path d="M0 0 C0.1748936 3.39517814 0.28103765 6.78919487 0.375 10.1875 C0.42527344 11.14720703 0.47554687 12.10691406 0.52734375 13.09570312 C0.67195738 20.06125954 0.67195738 20.06125954 -1.23046875 22.71899414 C-2.7890625 24.046875 -2.7890625 24.046875 -6 26 C-6.95132813 26.60521484 -6.95132813 26.60521484 -7.921875 27.22265625 C-15.8559405 30.8675795 -24.46842267 32.39488465 -33 34 C-34.21042969 34.22945313 -35.42085938 34.45890625 -36.66796875 34.6953125 C-63.29791954 38.81903443 -101.26197863 39.55768842 -125 24 C-127.09020863 22.31971764 -127.9197865 21.51261888 -128.34057617 18.82348633 C-128.32486572 18.00130615 -128.30915527 17.17912598 -128.29296875 16.33203125 C-128.28330078 15.43935547 -128.27363281 14.54667969 -128.26367188 13.62695312 C-128.23853516 12.69818359 -128.21339844 11.76941406 -128.1875 10.8125 C-128.17396484 9.87212891 -128.16042969 8.93175781 -128.14648438 7.96289062 C-128.11113096 5.64134962 -128.06178674 3.32096347 -128 1 C-124.20116629 1.68560903 -120.6128901 2.69996822 -116.9375 3.875 C-100.10033042 9.08470718 -83.80704327 11.42470883 -66.1875 11.375 C-65.48399414 11.37478851 -64.78048828 11.37457703 -64.05566406 11.37435913 C-42.33790809 11.30999893 -20.00804675 0 0 0 Z " fill="#D69A00" transform="translate(176,284)"/>
<path d="M0 0 C0.1748936 3.39517814 0.28103765 6.78919487 0.375 10.1875 C0.42527344 11.14720703 0.47554687 12.10691406 0.52734375 13.09570312 C0.67195738 20.06125954 0.67195738 20.06125954 -1.23046875 22.71899414 C-2.7890625 24.046875 -2.7890625 24.046875 -6 26 C-6.95132813 26.60521484 -6.95132813 26.60521484 -7.921875 27.22265625 C-15.8559405 30.8675795 -24.46842267 32.39488465 -33 34 C-34.21042969 34.22945313 -35.42085938 34.45890625 -36.66796875 34.6953125 C-63.29791954 38.81903443 -101.26197863 39.55768842 -125 24 C-127.09020863 22.31971764 -127.9197865 21.51261888 -128.34057617 18.82348633 C-128.32486572 18.00130615 -128.30915527 17.17912598 -128.29296875 16.33203125 C-128.28330078 15.43935547 -128.27363281 14.54667969 -128.26367188 13.62695312 C-128.23853516 12.69818359 -128.21339844 11.76941406 -128.1875 10.8125 C-128.17396484 9.87212891 -128.16042969 8.93175781 -128.14648438 7.96289062 C-128.11113096 5.64134962 -128.06178674 3.32096347 -128 1 C-124.20116629 1.68560903 -120.6128901 2.69996822 -116.9375 3.875 C-100.10033042 9.08470718 -83.80704327 11.42470883 -66.1875 11.375 C-65.48399414 11.37478851 -64.78048828 11.37457703 -64.05566406 11.37435913 C-42.33790809 11.30999893 -20.00804675 0 0 0 Z " fill="#D69A00" transform="translate(320,260)"/>
<path d="M0 0 C0.1748936 3.39517814 0.28103765 6.78919487 0.375 10.1875 C0.42527344 11.14720703 0.47554687 12.10691406 0.52734375 13.09570312 C0.67195738 20.06125954 0.67195738 20.06125954 -1.23046875 22.71899414 C-2.7890625 24.046875 -2.7890625 24.046875 -6 26 C-6.95132813 26.60521484 -6.95132813 26.60521484 -7.921875 27.22265625 C-15.8559405 30.8675795 -24.46842267 32.39488465 -33 34 C-34.21042969 34.22945312 -35.42085938 34.45890625 -36.66796875 34.6953125 C-63.29791954 38.81903443 -101.26197863 39.55768842 -125 24 C-127.09020863 22.31971764 -127.9197865 21.51261888 -128.34057617 18.82348633 C-128.32486572 18.00130615 -128.30915527 17.17912598 -128.29296875 16.33203125 C-128.28330078 15.43935547 -128.27363281 14.54667969 -128.26367188 13.62695312 C-128.23853516 12.69818359 -128.21339844 11.76941406 -128.1875 10.8125 C-128.17396484 9.87212891 -128.16042969 8.93175781 -128.14648438 7.96289062 C-128.11113096 5.64134962 -128.06178674 3.32096347 -128 1 C-124.20116629 1.68560903 -120.6128901 2.69996822 -116.9375 3.875 C-100.10033042 9.08470718 -83.80704327 11.42470883 -66.1875 11.375 C-65.48399414 11.37478851 -64.78048828 11.37457703 -64.05566406 11.37435913 C-42.33790809 11.30999893 -20.00804675 0 0 0 Z " fill="#D69A00" transform="translate(320,220)"/>
<path d="M0 0 C0.1748936 3.39517814 0.28103765 6.78919487 0.375 10.1875 C0.42527344 11.14720703 0.47554687 12.10691406 0.52734375 13.09570312 C0.67195738 20.06125954 0.67195738 20.06125954 -1.23046875 22.71899414 C-2.7890625 24.046875 -2.7890625 24.046875 -6 26 C-6.95132813 26.60521484 -6.95132813 26.60521484 -7.921875 27.22265625 C-15.8559405 30.8675795 -24.46842267 32.39488465 -33 34 C-34.21042969 34.22945312 -35.42085938 34.45890625 -36.66796875 34.6953125 C-63.29791954 38.81903443 -101.26197863 39.55768842 -125 24 C-127.09020863 22.31971764 -127.9197865 21.51261888 -128.34057617 18.82348633 C-128.32486572 18.00130615 -128.30915527 17.17912598 -128.29296875 16.33203125 C-128.28330078 15.43935547 -128.27363281 14.54667969 -128.26367188 13.62695312 C-128.23853516 12.69818359 -128.21339844 11.76941406 -128.1875 10.8125 C-128.17396484 9.87212891 -128.16042969 8.93175781 -128.14648438 7.96289062 C-128.11113096 5.64134962 -128.06178674 3.32096347 -128 1 C-124.20116629 1.68560903 -120.6128901 2.69996822 -116.9375 3.875 C-100.10033042 9.08470718 -83.80704327 11.42470883 -66.1875 11.375 C-65.48399414 11.37478851 -64.78048828 11.37457703 -64.05566406 11.37435913 C-42.33790809 11.30999893 -20.00804675 0 0 0 Z " fill="#D69A00" transform="translate(248,100)"/>
<path d="M0 0 C0.1748936 3.39517814 0.28103765 6.78919487 0.375 10.1875 C0.42527344 11.14720703 0.47554688 12.10691406 0.52734375 13.09570312 C0.67195738 20.06125954 0.67195738 20.06125954 -1.23046875 22.71899414 C-2.7890625 24.046875 -2.7890625 24.046875 -6 26 C-6.63421875 26.40347656 -7.2684375 26.80695313 -7.921875 27.22265625 C-22.20015291 33.78212153 -40.43904052 36.23970669 -56 36 C-56.06058594 34.68644531 -56.12117188 33.37289062 -56.18359375 32.01953125 C-56.26803256 30.28384459 -56.35267888 28.54816802 -56.4375 26.8125 C-56.47681641 25.94818359 -56.51613281 25.08386719 -56.55664062 24.19335938 C-56.59853516 23.35224609 -56.64042969 22.51113281 -56.68359375 21.64453125 C-56.73858032 20.48981323 -56.73858032 20.48981323 -56.79467773 19.31176758 C-57.01585157 16.82152377 -57.46941549 14.44144402 -58 12 C-57.16041748 11.90501221 -56.32083496 11.81002441 -55.45581055 11.7121582 C-38.00821781 9.70113188 -16.38145735 0 0 0 Z " fill="#D59900" transform="translate(392,180)"/>
<path d="M0 0 C4.83697776 0.87136732 9.39377429 2.35461565 14.0625 3.8671875 C24.34860101 6.94273311 34.64636872 8.62030371 45.3125 9.6875 C46.54162109 9.81705078 47.77074219 9.94660156 49.03710938 10.08007812 C52.02407281 10.39388362 55.01158228 10.70041971 58 11 C57.84152588 11.72920654 57.68305176 12.45841309 57.51977539 13.2097168 C57.05104239 15.72599177 56.8051322 18.09222387 56.68359375 20.64453125 C56.62075195 21.90620117 56.62075195 21.90620117 56.55664062 23.19335938 C56.51732422 24.05767578 56.47800781 24.92199219 56.4375 25.8125 C56.37272461 27.13797852 56.37272461 27.13797852 56.30664062 28.49023438 C56.20108464 30.65999623 56.10008929 32.8299791 56 35 C15.29585052 32.86063945 15.29585052 32.86063945 1.39624023 21.71386719 C-0.4331517 19.46831178 -0.3477871 18.20085815 -0.29296875 15.33203125 C-0.28330078 14.43935547 -0.27363281 13.54667969 -0.26367188 12.62695312 C-0.23853516 11.69818359 -0.21339844 10.76941406 -0.1875 9.8125 C-0.17396484 8.87212891 -0.16042969 7.93175781 -0.14648438 6.96289062 C-0.11113096 4.64134962 -0.06178674 2.32096347 0 0 Z " fill="#D69900" transform="translate(120,181)"/>
<path d="M0 0 C0.1748936 3.39517814 0.28103765 6.78919487 0.375 10.1875 C0.42527344 11.14720703 0.47554688 12.10691406 0.52734375 13.09570312 C0.67195738 20.06125954 0.67195738 20.06125954 -1.23046875 22.71899414 C-2.7890625 24.046875 -2.7890625 24.046875 -6 26 C-6.63421875 26.40347656 -7.2684375 26.80695313 -7.921875 27.22265625 C-22.33298554 33.84314506 -40.32947789 36 -56 36 C-56 28.08 -56 20.16 -56 12 C-54.12699219 11.76925781 -52.25398438 11.53851563 -50.32421875 11.30078125 C-34.57179801 9.28958889 -14.86709934 0 0 0 Z " fill="#D69900" transform="translate(392,220)"/>
<path d="M0 0 C2.5 1.5 2.5 1.5 4 4 C4.60744643 7.31334415 4.84274854 8.86695412 4 12 C2.74658203 13.81567383 2.74658203 13.81567383 1.0703125 15.64453125 C0.43665771 16.33724121 -0.19699707 17.02995117 -0.84985352 17.74365234 C-4.77956133 21.86745836 -8.77535368 25.91897234 -12.8125 29.9375 C-13.67037109 30.79923828 -14.52824219 31.66097656 -15.41210938 32.54882812 C-16.23130859 33.36673828 -17.05050781 34.18464844 -17.89453125 35.02734375 C-18.63550049 35.76718506 -19.37646973 36.50702637 -20.13989258 37.26928711 C-23.26633645 40.17824637 -25.76669133 40.35466617 -30.0234375 40.26953125 C-32 40 -32 40 -34.5 38.5 C-36.19418171 35.67636382 -36.75216215 33.42129708 -36.56982422 30.1184082 C-35.87704229 27.54288599 -34.86870269 26.31756326 -33.0703125 24.35546875 C-32.11983032 23.31640381 -32.11983032 23.31640381 -31.15014648 22.25634766 C-27.22043867 18.13254164 -23.22464632 14.08102766 -19.1875 10.0625 C-18.32962891 9.20076172 -17.47175781 8.33902344 -16.58789062 7.45117188 C-15.76869141 6.63326172 -14.94949219 5.81535156 -14.10546875 4.97265625 C-13.36449951 4.23281494 -12.62353027 3.49297363 -11.86010742 2.73071289 C-8.32697114 -0.55664806 -4.64355339 -0.63321183 0 0 Z " fill="#000000" transform="translate(492,184)"/>
<path d="M0 0 C2.57552221 0.69278193 3.80084494 1.70112153 5.76293945 3.49951172 C6.80200439 4.4499939 6.80200439 4.4499939 7.86206055 5.41967773 C11.98586657 9.34938555 16.03738054 13.34517789 20.0559082 17.38232422 C20.91764648 18.24019531 21.77938477 19.09806641 22.66723633 19.98193359 C23.48514648 20.80113281 24.30305664 21.62033203 25.14575195 22.46435547 C25.88559326 23.20532471 26.62543457 23.94629395 27.38769531 24.7097168 C30.29665457 27.83616067 30.47307438 30.33651555 30.38793945 34.59326172 C30.1184082 36.56982422 30.1184082 36.56982422 28.6184082 39.06982422 C25.79477203 40.76400593 23.53970528 41.32198636 20.23681641 41.13964844 C17.6612942 40.4468665 16.43597147 39.43852691 14.47387695 37.64013672 C13.78116699 37.00648193 13.08845703 36.37282715 12.37475586 35.7199707 C8.25094984 31.79026289 4.19943587 27.79447054 0.1809082 23.75732422 C-0.68083008 22.89945313 -1.54256836 22.04158203 -2.43041992 21.15771484 C-3.65728516 19.92891602 -3.65728516 19.92891602 -4.90893555 18.67529297 C-5.64877686 17.93432373 -6.38861816 17.19335449 -7.15087891 16.42993164 C-10.05983817 13.30348777 -10.23625797 10.80313289 -10.15112305 6.54638672 C-9.8815918 4.56982422 -9.8815918 4.56982422 -8.3815918 2.06982422 C-5.55795562 0.37564251 -3.30288887 -0.18233793 0 0 Z " fill="#000000" transform="translate(25.881591796875,143.43017578125)"/>
<path d="M0 0 C0.87269531 -0.0038269 1.74539063 -0.00765381 2.64453125 -0.01159668 C4.48699092 -0.0143149 6.32948924 -0.00695994 8.171875 0.00976562 C10.99045934 0.03117752 13.80649485 0.00996199 16.625 -0.015625 C18.41667229 -0.01298171 20.20834299 -0.00785669 22 0 C22.84175781 -0.00809692 23.68351562 -0.01619385 24.55078125 -0.02453613 C30.38715618 0.06889601 30.38715618 0.06889601 33.52929688 2.43945312 C35.12144695 4.7039853 35.542797 5.7922417 35.5 8.53125 C35.5103125 9.19125 35.520625 9.85125 35.53125 10.53125 C34.72011424 13.58493756 33.53019712 14.62236769 31 16.53125 C28.00263779 17.13239553 25.04890723 17.09182764 22 17.0625 C21.12730469 17.0663269 20.25460937 17.07015381 19.35546875 17.07409668 C17.51300908 17.0768149 15.67051076 17.06945994 13.828125 17.05273438 C11.00954066 17.03132248 8.19350515 17.05253801 5.375 17.078125 C3.58332771 17.07548171 1.79165701 17.07035669 0 17.0625 C-0.84175781 17.07059692 -1.68351562 17.07869385 -2.55078125 17.08703613 C-8.38715618 16.99360399 -8.38715618 16.99360399 -11.52929688 14.62304688 C-13.12144695 12.3585147 -13.542797 11.2702583 -13.5 8.53125 C-13.51546875 7.54125 -13.51546875 7.54125 -13.53125 6.53125 C-11.69061453 -0.39820116 -5.94975317 -0.05723107 0 0 Z " fill="#000000" transform="translate(477,239.46875)"/>
<path d="M0 0 C0.87269531 -0.0038269 1.74539063 -0.00765381 2.64453125 -0.01159668 C4.48699092 -0.0143149 6.32948924 -0.00695994 8.171875 0.00976562 C10.99045934 0.03117752 13.80649485 0.00996199 16.625 -0.015625 C18.41667229 -0.01298171 20.20834299 -0.00785669 22 0 C22.84175781 -0.00809692 23.68351562 -0.01619385 24.55078125 -0.02453613 C30.38715618 0.06889601 30.38715618 0.06889601 33.52929688 2.43945312 C35.12144695 4.7039853 35.542797 5.7922417 35.5 8.53125 C35.5103125 9.19125 35.520625 9.85125 35.53125 10.53125 C34.72011424 13.58493756 33.53019712 14.62236769 31 16.53125 C28.00263779 17.13239553 25.04890723 17.09182764 22 17.0625 C21.12730469 17.0663269 20.25460938 17.07015381 19.35546875 17.07409668 C17.51300908 17.0768149 15.67051076 17.06945994 13.828125 17.05273438 C11.00954066 17.03132248 8.19350515 17.05253801 5.375 17.078125 C3.58332771 17.07548171 1.79165701 17.07035669 0 17.0625 C-0.84175781 17.07059692 -1.68351563 17.07869385 -2.55078125 17.08703613 C-8.38715618 16.99360399 -8.38715618 16.99360399 -11.52929688 14.62304688 C-13.12144695 12.3585147 -13.542797 11.2702583 -13.5 8.53125 C-13.51546875 7.54125 -13.51546875 7.54125 -13.53125 6.53125 C-11.69061453 -0.39820116 -5.94975317 -0.05723107 0 0 Z " fill="#000000" transform="translate(13,199.46875)"/>
<path d="M0 0 C0.66 -0.0103125 1.32 -0.020625 2 -0.03125 C5.05368756 0.77988576 6.09111769 1.96980288 8 4.5 C8.60114553 7.49736221 8.56057764 10.45109277 8.53125 13.5 C8.5350769 14.37269531 8.53890381 15.24539062 8.54284668 16.14453125 C8.5455649 17.98699092 8.53820994 19.82948924 8.52148438 21.671875 C8.50007248 24.49045934 8.52128801 27.30649485 8.546875 30.125 C8.54423171 31.91667229 8.53910669 33.70834299 8.53125 35.5 C8.53934692 36.34175781 8.54744385 37.18351562 8.55578613 38.05078125 C8.46235399 43.88715618 8.46235399 43.88715618 6.09179688 47.02929688 C3.8272647 48.62144695 2.7390083 49.042797 0 49 C-0.99 49.01546875 -0.99 49.01546875 -2 49.03125 C-5.05368756 48.22011424 -6.09111769 47.03019712 -8 44.5 C-8.60114553 41.50263779 -8.56057764 38.54890723 -8.53125 35.5 C-8.5350769 34.62730469 -8.53890381 33.75460938 -8.54284668 32.85546875 C-8.5455649 31.01300908 -8.53820994 29.17051076 -8.52148438 27.328125 C-8.50007248 24.50954066 -8.52128801 21.69350515 -8.546875 18.875 C-8.54423171 17.08332771 -8.53910669 15.29165701 -8.53125 13.5 C-8.53934692 12.65824219 -8.54744385 11.81648437 -8.55578613 10.94921875 C-8.46235399 5.11284382 -8.46235399 5.11284382 -6.09179688 1.97070312 C-3.8272647 0.37855305 -2.7390083 -0.042797 0 0 Z " fill="#000000" transform="translate(432,167.5)"/>
<path d="M0 0 C0.66 -0.0103125 1.32 -0.020625 2 -0.03125 C5.05368756 0.77988576 6.09111769 1.96980288 8 4.5 C8.60114553 7.49736221 8.56057764 10.45109277 8.53125 13.5 C8.5350769 14.37269531 8.53890381 15.24539062 8.54284668 16.14453125 C8.5455649 17.98699092 8.53820994 19.82948924 8.52148438 21.671875 C8.50007248 24.49045934 8.52128801 27.30649485 8.546875 30.125 C8.54423171 31.91667229 8.53910669 33.70834299 8.53125 35.5 C8.53934692 36.34175781 8.54744385 37.18351562 8.55578613 38.05078125 C8.46235399 43.88715618 8.46235399 43.88715618 6.09179688 47.02929688 C3.8272647 48.62144695 2.7390083 49.042797 0 49 C-0.99 49.01546875 -0.99 49.01546875 -2 49.03125 C-5.05368756 48.22011424 -6.09111769 47.03019712 -8 44.5 C-8.60114553 41.50263779 -8.56057764 38.54890723 -8.53125 35.5 C-8.5350769 34.62730469 -8.53890381 33.75460938 -8.54284668 32.85546875 C-8.5455649 31.01300908 -8.53820994 29.17051076 -8.52148438 27.328125 C-8.50007248 24.50954066 -8.52128801 21.69350515 -8.546875 18.875 C-8.54423171 17.08332771 -8.53910669 15.29165701 -8.53125 13.5 C-8.53934692 12.65824219 -8.54744385 11.81648437 -8.55578613 10.94921875 C-8.46235399 5.11284382 -8.46235399 5.11284382 -6.09179688 1.97070312 C-3.8272647 0.37855305 -2.7390083 -0.042797 0 0 Z " fill="#000000" transform="translate(80,127.5)"/>
<path d="M0 0 C3.84223832 0.76844766 7.29298786 1.67948858 11 2.875 C25.87374646 7.45280863 40.56015538 9.30318153 56 11 C56 14.96 56 18.92 56 23 C54.95585937 22.61328125 53.91171875 22.2265625 52.8359375 21.828125 C35.69186951 15.68519633 18.05171062 12.96551577 0 11 C0 7.37 0 3.74 0 0 Z " fill="#D09500" transform="translate(120,221)"/>
<path d="M0 0 C0 3.96 0 7.92 0 12 C-0.84481934 12.09498779 -1.68963867 12.18997559 -2.56005859 12.2878418 C-27.61564125 14.43952593 -27.61564125 14.43952593 -51.26953125 22.1484375 C-53 23 -53 23 -56 23 C-56 19.37 -56 15.74 -56 12 C-54.83150513 11.85751831 -54.83150513 11.85751831 -53.6394043 11.7121582 C-36.90170692 9.63519966 -15.81313992 0 0 0 Z " fill="#D19600" transform="translate(392,260)"/>
</svg>
