<?xml version="1.0" standalone="no"?>
<!DOCTYPE svg PUBLIC "-//W3C//DTD SVG 20010904//EN"
 "http://www.w3.org/TR/2001/REC-SVG-20010904/DTD/svg10.dtd">
<svg version="1.0" xmlns="http://www.w3.org/2000/svg"
 width="512.000000pt" height="512.000000pt" viewBox="0 0 512.000000 512.000000"
 preserveAspectRatio="xMidYMid meet">

<g transform="translate(0.000000,512.000000) scale(0.100000,-0.100000)"
fill="#000000" stroke="none">
<path d="M2600 4890 c-206 -56 -354 -167 -484 -363 -63 -96 -105 -178 -235
-462 -109 -237 -150 -305 -226 -373 -80 -71 -92 -99 -104 -231 -5 -62 -7 -120
-4 -128 3 -8 18 -16 33 -20 26 -5 28 -9 35 -68 3 -35 3 -101 -1 -146 l-7 -82
-32 90 c-63 177 -130 272 -223 316 -33 16 -48 29 -50 45 -2 13 -22 43 -45 67
-37 38 -41 48 -35 72 16 61 -32 143 -95 158 -24 6 -27 12 -27 46 0 32 5 41 28
53 37 19 88 75 101 109 16 40 13 106 -5 159 -20 61 -70 117 -135 153 -70 39
-170 42 -235 8 -128 -68 -188 -234 -123 -339 21 -34 98 -91 136 -100 16 -4 23
-14 23 -29 0 -13 3 -30 6 -38 4 -11 -8 -21 -40 -35 -57 -26 -79 -65 -74 -135
3 -48 1 -54 -33 -84 -20 -18 -42 -46 -48 -61 -8 -18 -26 -33 -55 -45 -88 -36
-179 -157 -236 -315 -53 -146 -180 -589 -211 -737 -32 -149 -34 -410 -5 -495
26 -77 60 -133 108 -175 43 -39 150 -95 183 -95 42 0 46 -13 19 -65 -42 -83
-19 -135 70 -160 91 -25 385 -38 583 -25 246 16 301 33 318 102 6 22 -10 70
-42 129 -2 4 16 9 40 11 146 17 310 174 334 321 3 21 11 41 18 43 15 6 97 -17
936 -267 651 -195 676 -203 686 -230 18 -48 64 -64 185 -64 92 0 110 3 135 21
41 31 73 82 73 120 0 30 5 35 88 80 48 26 217 124 375 216 l289 169 34 -16
c43 -20 88 -8 126 33 55 59 52 28 83 782 8 206 15 396 15 422 0 45 2 49 34 62
38 16 38 17 57 187 l12 115 -41 60 c-72 101 -83 150 -93 384 -11 288 -41 396
-141 506 -69 75 -137 105 -363 158 -608 143 -965 196 -1365 202 -252 4 -281 2
-350 -16z m745 -80 c284 -34 296 -37 327 -73 28 -34 92 -156 85 -163 -3 -3
-139 13 -303 36 -165 22 -420 57 -569 76 -148 20 -274 40 -278 44 -9 8 91 63
166 91 47 18 70 19 227 15 96 -3 251 -15 345 -26z m-811 -43 c-80 -59 -199
-187 -255 -272 -78 -120 -115 -194 -190 -380 -110 -275 -159 -363 -257 -459
-47 -46 -52 -48 -90 -41 l-41 7 53 63 c70 81 107 149 211 384 110 248 140 306
213 417 95 145 193 233 325 294 88 41 98 37 31 -13z m466 -166 c234 -34 503
-71 598 -84 95 -14 176 -28 180 -31 15 -15 6 -191 -12 -253 -10 -35 -22 -63
-25 -63 -4 0 -70 9 -147 19 -76 11 -332 45 -569 76 -236 31 -501 66 -588 78
l-159 22 62 94 c34 52 87 121 118 153 50 53 60 59 87 54 16 -3 221 -32 455
-65z m1591 -74 c63 -42 117 -155 139 -293 14 -85 12 -251 -4 -309 -13 -51 -42
-115 -52 -115 -3 0 -2 69 1 153 11 237 -21 386 -92 432 -35 23 -93 30 -136 15
-150 -49 -340 -398 -407 -745 -28 -147 -54 -224 -90 -266 l-29 -34 -1 51 c0
100 70 430 126 587 85 236 268 486 394 536 46 18 114 13 151 -12z m-414 -49
c-4 -39 -28 -96 -90 -218 -47 -91 -98 -203 -115 -250 -33 -95 -81 -288 -107
-425 -23 -129 -81 -246 -136 -276 -12 -6 -41 -8 -75 -3 l-55 6 58 53 c86 78
108 125 138 301 71 416 161 644 318 812 28 28 54 52 60 52 6 0 7 -20 4 -52z
m-1712 -213 c99 -14 385 -52 635 -85 250 -32 487 -64 525 -69 39 -6 74 -11 78
-11 4 0 -5 -19 -22 -42 -91 -132 -232 -208 -473 -259 l-93 -19 -507 77 c-301
46 -508 82 -508 89 0 14 74 204 112 286 26 57 34 67 52 63 12 -3 102 -16 201
-30z m-1418 -40 c127 -64 164 -216 67 -280 -27 -17 -27 -17 -51 14 -20 26 -31
31 -65 31 -34 0 -46 -6 -74 -36 l-34 -36 -33 21 c-62 38 -82 68 -81 120 3 77
49 143 124 175 51 22 89 19 147 -9z m-27 -392 l0 -63 -30 0 c-30 0 -30 0 -30
58 0 37 6 66 17 81 15 23 17 23 30 6 7 -11 13 -45 13 -82z m107 -148 c26 -19
34 -49 18 -71 -10 -15 -36 -19 -146 -25 -118 -7 -135 -6 -146 8 -20 25 -16 51
12 78 23 23 31 25 132 25 79 0 114 -4 130 -15z m1318 -251 c435 -69 894 -143
1020 -163 l230 -37 3 -59 c3 -76 -16 -143 -48 -166 -24 -17 -31 -16 -225 22
-110 22 -310 60 -445 85 -303 55 -286 51 -265 74 45 49 38 152 -12 171 -88 33
-203 -20 -268 -124 -9 -14 -49 -8 -390 58 -209 41 -391 77 -404 80 -23 6 -24
8 -17 87 7 81 11 98 24 98 4 0 363 -57 797 -126z m-1239 54 c31 -30 37 -80 12
-104 -13 -13 -21 -13 -73 1 -97 25 -234 14 -324 -26 -51 -22 -71 -13 -71 33 0
55 41 106 95 121 11 3 91 5 177 4 157 -2 158 -2 184 -29z m3592 -4 c6 -47 -15
-97 -56 -137 -35 -35 -75 -50 -471 -187 -237 -83 -438 -150 -445 -150 -29 0
-43 80 -30 171 l6 45 112 28 c137 35 521 150 716 216 80 26 150 47 155 46 6
-2 12 -16 13 -32z m-3643 -183 c51 -22 111 -89 140 -155 36 -81 94 -269 130
-421 78 -325 98 -590 56 -722 -28 -87 -80 -156 -151 -198 -87 -52 -94 -53
-108 -1 -22 83 -101 145 -185 146 -38 0 -38 0 -35 37 3 31 8 38 33 46 42 13
65 35 86 82 37 80 20 144 -79 307 -47 78 -61 92 -85 82 -21 -8 -136 -254 -143
-305 -9 -66 16 -113 77 -147 45 -25 49 -30 49 -64 0 -30 -4 -38 -17 -38 -37 0
-93 -22 -123 -47 -37 -30 -70 -92 -70 -128 0 -23 -3 -25 -22 -20 -97 30 -222
145 -257 238 -11 31 -23 77 -26 104 -8 56 23 279 61 453 52 234 199 617 262
683 81 84 289 119 407 68z m1515 -30 c0 -22 -9 -34 -39 -54 -60 -40 -92 -88
-100 -149 -5 -44 -10 -54 -27 -56 -24 -3 -34 19 -34 79 0 108 82 207 173 209
23 0 27 -4 27 -29z m-2070 -36 c15 -46 2 -105 -54 -249 -95 -242 -184 -613
-193 -811 -5 -115 -20 -175 -43 -175 -15 0 -50 38 -60 66 -29 76 19 349 124
706 82 278 134 417 178 481 23 32 33 29 48 -18z m870 -50 c89 -194 253 -786
281 -1017 11 -87 10 -102 -6 -143 -11 -30 -28 -53 -49 -66 -40 -25 -59 -24
-91 4 l-26 22 -3 220 c-3 202 -6 232 -35 370 -38 181 -80 343 -127 487 -39
122 -40 135 -18 186 15 36 16 36 31 17 8 -11 28 -47 43 -80z m256 3 l27 -12
-7 -164 c-4 -90 -11 -173 -15 -184 -10 -28 -50 265 -44 325 3 26 7 47 9 47 1
0 15 -5 30 -12z m640 -198 c-32 -47 -56 -105 -56 -138 0 -10 -38 -32 -57 -32
-3 0 -3 21 1 46 9 72 54 161 100 200 l41 35 3 -30 c2 -21 -7 -45 -32 -81z
m295 35 c13 -28 19 -64 19 -122 0 -76 -2 -83 -20 -83 -18 0 -20 7 -20 58 -1
31 -7 75 -15 97 -8 22 -15 57 -15 79 0 35 2 37 17 25 9 -8 24 -32 34 -54z
m-722 -7 c95 -51 99 -54 95 -83 -6 -44 -55 -558 -61 -642 -3 -40 -8 -73 -10
-73 -2 0 -24 5 -47 11 l-44 11 -12 76 c-7 42 -24 119 -39 172 l-27 96 15 242
c8 133 18 242 23 242 5 0 53 -24 107 -52z m239 -123 c3 -2 -42 -192 -62 -265
-9 -30 -16 -88 -16 -130 0 -132 45 -190 182 -231 l68 -21 0 -64 c0 -45 -4 -64
-12 -64 -7 0 -76 18 -153 39 l-140 39 2 33 c7 151 46 595 58 667 l6 32 32 -16
c18 -9 33 -17 35 -19z m1506 -134 c43 -17 81 -33 85 -36 11 -12 5 -582 -8
-765 -31 -426 -41 -474 -106 -491 -31 -9 -124 6 -139 21 -9 9 25 605 54 965 5
61 12 161 16 223 3 61 9 112 13 112 3 0 41 -13 85 -29z m-1252 3 c56 -19 115
-75 128 -123 5 -20 10 -75 10 -123 0 -95 -19 -161 -51 -178 -25 -14 -85 -12
-173 4 -84 17 -109 27 -148 64 -26 23 -28 32 -28 97 0 98 22 167 69 214 58 58
117 72 193 45z m403 -457 c-3 -67 -8 -131 -10 -142 -5 -23 -42 -47 -140 -91
l-69 -31 -101 27 c-88 24 -100 29 -99 48 0 12 1 42 2 67 l2 45 108 -6 c168 -9
180 1 215 176 l22 112 38 -41 38 -41 -6 -123z m-1806 -14 c38 -75 42 -136 9
-170 -32 -34 -81 -31 -120 8 -28 27 -30 34 -25 74 4 25 23 77 43 116 40 81 37
82 93 -28z m1072 -183 c302 -80 1153 -310 1168 -316 39 -13 -110 -114 -169
-114 -14 0 -176 45 -360 100 -184 55 -453 135 -597 177 l-263 77 0 69 c0 57 3
68 15 64 8 -4 100 -29 206 -57z m2143 -131 c16 -24 6 -67 -22 -92 -22 -20
-363 -220 -367 -215 -1 1 0 37 3 78 l5 75 171 87 c94 48 176 87 183 87 6 1 18
-8 27 -20z m-3163 -114 c51 -27 91 -117 57 -130 -23 -9 -179 -21 -209 -17 -34
5 -38 31 -15 87 27 64 104 92 167 60z m198 -219 c48 -31 117 -109 125 -142 10
-40 -7 -51 -102 -65 -85 -13 -504 -20 -516 -8 -11 11 19 81 50 118 45 52 107
76 243 95 63 9 116 18 119 21 12 11 45 4 81 -19z"/>
<path d="M2331 2654 c-19 -13 -22 -22 -17 -48 4 -17 8 -56 9 -86 2 -51 4 -55
27 -55 23 0 25 4 28 46 2 31 10 53 23 64 23 22 24 43 3 73 -18 26 -41 28 -73
6z"/>
<path d="M4160 1260 c-307 -67 -823 -110 -1323 -110 l-208 0 -17 -30 c-21 -38
-52 -49 -67 -25 -30 52 -25 51 -301 58 -341 8 -609 28 -1016 74 -61 6 -121
-21 -177 -82 -49 -53 -60 -88 -38 -125 26 -43 10 -80 -48 -111 -26 -15 -51
-33 -56 -41 -4 -7 -15 -54 -25 -103 -31 -159 -19 -447 21 -501 12 -17 18 -17
60 -6 26 7 80 15 121 19 66 5 77 4 97 -14 34 -32 83 -53 121 -53 19 0 198 20
398 45 1072 132 1409 136 2395 29 132 -15 248 -24 257 -21 33 13 79 251 74
391 l-3 89 -72 36 c-39 20 -75 39 -78 43 -4 4 25 21 64 39 83 37 83 35 46 165
-48 168 -90 255 -123 253 -9 -1 -55 -9 -102 -19z m108 -97 c20 -48 72 -207 72
-222 0 -4 -38 -25 -85 -46 -131 -58 -132 -68 -14 -133 76 -41 78 -44 54 -131
-19 -73 -61 -153 -100 -191 -64 -62 -194 -63 -605 -6 -96 14 -233 31 -305 38
-167 16 -673 16 -835 0 -209 -21 -554 -78 -651 -107 -13 -4 -11 7 10 67 23 67
25 87 25 228 0 176 -17 258 -79 389 -20 41 -34 76 -32 78 2 2 105 -3 228 -11
123 -8 293 -18 378 -22 l154 -6 41 -89 c59 -128 79 -129 116 0 l22 78 299 6
c325 7 504 18 757 43 187 19 169 26 203 -74 30 -89 48 -204 49 -303 0 -72 3
-88 17 -93 9 -4 23 0 32 9 13 13 16 38 15 128 -1 119 -18 208 -58 308 l-24 59
27 1 c20 1 167 27 262 48 4 0 16 -20 27 -46z m-3018 -13 c30 -16 59 -64 66
-108 9 -55 -25 -92 -86 -92 -56 0 -95 -22 -124 -73 -75 -130 -82 -328 -16
-481 l18 -44 -31 -6 c-18 -3 -53 -8 -79 -12 l-46 -6 -9 48 c-15 92 -10 323 10
394 16 58 22 68 55 85 53 29 88 101 74 155 -9 36 -7 43 19 78 43 59 106 85
149 62z m436 -103 c55 -117 75 -198 81 -332 6 -128 -3 -197 -36 -286 -35 -92
-37 -94 -134 -94 -47 0 -88 3 -91 6 -4 3 0 35 8 70 47 203 17 469 -74 649
l-30 60 120 0 121 0 35 -73z m-232 -295 c3 -24 6 -93 6 -152 l0 -107 -66 -7
c-37 -4 -68 -5 -70 -4 -1 2 1 33 6 70 8 68 -1 185 -20 248 -5 19 -10 37 -10
41 0 3 33 -6 74 -19 l74 -24 6 -46z"/>
<path d="M3942 518 c-30 -30 0 -78 37 -58 32 17 21 70 -14 70 -6 0 -16 -5 -23
-12z"/>
</g>
</svg>
