<?xml version="1.0" encoding="UTF-8"?>
<svg version="1.1" xmlns="http://www.w3.org/2000/svg" width="512" height="512">
<path d="M0 0 C10.00505505 8.84375402 14.3980481 23.45672142 15.3427124 36.38037109 C15.46152644 39.8415787 15.4806929 43.30159756 15.47319031 46.76462364 C15.46862678 49.05801987 15.48294415 51.35067844 15.50158691 53.64399719 C15.54412622 59.33098818 15.55558724 65.017956 15.56781006 70.70507812 C15.57940494 75.53667524 15.6031308 80.36792789 15.64250183 85.19938087 C15.65591724 87.44050454 15.65193246 89.68114008 15.64709473 91.92228699 C15.68591688 102.02300728 16.35546311 111.49843073 23.0625 119.546875 C26.12967124 121.84270363 26.12967124 121.84270363 29.0625 123.546875 C30.0625 124.546875 30.0625 124.546875 30.0625 127.609375 C29.06819572 133.88511372 23.93210078 138.00964769 19.25 141.859375 C9.42897978 147.05873865 -1.32271713 148.27082872 -12.125 145.421875 C-24.48140631 141.11010802 -34.73831228 132.48488983 -41.9765625 121.6875 C-43.41379497 118.48586019 -43.31152633 115.84482068 -42.34765625 112.5 C-41.81766192 109.97621747 -42.39237465 108.65517585 -43.375 106.296875 C-43.80619141 105.23726562 -43.80619141 105.23726562 -44.24609375 104.15625 C-44.47425781 103.62515625 -44.70242188 103.0940625 -44.9375 102.546875 C-45.59234375 103.36929688 -46.2471875 104.19171875 -46.921875 105.0390625 C-54.13578574 113.9274879 -61.97074617 123.40589679 -72.9375 127.546875 C-70.60318238 146.56901997 -70.60318238 146.56901997 -67.9375 165.546875 C-67.339375 165.0725 -66.74125 164.598125 -66.125 164.109375 C-61.47826172 160.79027623 -56.42855201 160.98222137 -50.9375 161.546875 C-44.1068199 163.49318494 -39.60439619 168.43314832 -34.9375 173.546875 C-31.98446265 172.18191551 -29.59485035 170.58089134 -27.0625 168.546875 C-20.99438702 163.96505857 -15.43604133 162.76631012 -7.9375 163.546875 C2.72063846 165.60908187 9.88935882 174.83862118 15.9140625 183.19921875 C21.72210832 192.24921014 27.6281591 202.64817992 25.6796875 213.72265625 C24.47427916 217.77374378 23.03253895 219.73475089 19.5625 222.109375 C13.93720641 226.44108842 13.92119337 233.95897949 13.0625 240.546875 C12.93230469 241.46339844 12.80210937 242.37992188 12.66796875 243.32421875 C7.96376446 282.02413934 25.24708137 316.32283866 48.375 346.125 C49.27034725 347.2660066 50.16613585 348.4066671 51.0625 349.546875 C51.743125 350.42859375 52.42375 351.3103125 53.125 352.21875 C54.23512064 353.65595976 55.35393424 355.08653019 56.484375 356.5078125 C57.64098926 358.00224973 58.74924408 359.53444946 59.828125 361.0859375 C60.42109375 361.91867187 61.0140625 362.75140625 61.625 363.609375 C62.40037109 364.74052734 62.40037109 364.74052734 63.19140625 365.89453125 C65.02910327 367.81138833 65.02910327 367.81138833 68.0390625 368.04296875 C72.82894099 367.25703262 74.14117728 364.54027172 76.91796875 360.78125 C104.87245083 318.62039178 109.65745752 267.71207939 113.0625 218.546875 C112.33224609 219.14435547 111.60199219 219.74183594 110.84960938 220.35742188 C85.5625 241.046875 85.5625 241.046875 82.81640625 243.29296875 C80.96912478 244.80485727 79.12278125 246.31789249 77.27734375 247.83203125 C75.44391623 249.33539024 73.60674058 250.83419122 71.765625 252.328125 C69.94293799 253.82420335 68.14099398 255.34586866 66.359375 256.890625 C65.49828125 257.6228125 64.6371875 258.355 63.75 259.109375 C62.99074219 259.77066406 62.23148437 260.43195313 61.44921875 261.11328125 C58.44662868 262.91680098 56.50916529 262.89964572 53.0625 262.546875 C51.1875 261.359375 51.1875 261.359375 50.0625 259.546875 C49.703125 257.22265625 49.703125 257.22265625 50.0625 254.546875 C51.9765625 252.2578125 51.9765625 252.2578125 54.6875 249.921875 C55.42359497 249.28064697 55.42359497 249.28064697 56.17456055 248.62646484 C60.54657278 244.86537391 65.09502011 241.32104553 69.65673828 237.79443359 C73.90447439 234.50062358 78.00567916 231.07237108 82.0625 227.546875 C86.67643506 223.54171855 91.36603393 219.67471013 96.1875 215.921875 C96.76363037 215.47013916 97.33976074 215.01840332 97.93334961 214.55297852 C102.47302036 210.99402555 102.47302036 210.99402555 104.76123047 209.25830078 C111.09909398 204.44522546 115.70532315 200.32294713 118.8671875 192.875 C121.54333487 187.66263453 126.50735922 184.10256393 131.6875 181.546875 C135.36522803 180.45717781 137.41206755 180.44325589 141.0625 181.546875 C143.58265277 184.06702777 143.48618863 185.33012958 143.87890625 188.83203125 C144.00289795 189.9111377 144.12688965 190.99024414 144.25463867 192.10205078 C144.37685791 193.25946777 144.49907715 194.41688477 144.625 195.609375 C144.75430908 196.79515137 144.88361816 197.98092773 145.0168457 199.20263672 C151.00830552 255.57525868 145.26599129 314.0203109 118.0625 364.546875 C117.44890625 365.71347656 116.8353125 366.88007813 116.203125 368.08203125 C113.38827954 373.24064266 110.54406691 378.02901331 106.890625 382.625 C106.34116211 383.31980469 105.79169922 384.01460938 105.22558594 384.73046875 C104.14775434 386.06968874 103.04783554 387.39154388 101.92285156 388.69140625 C98.20225896 393.28165443 97.72555784 396.247421 98.046875 402.08691406 C98.09161098 409.13003425 94.26174204 414.188413 89.5625 419.046875 C89.03712646 419.60221924 88.51175293 420.15756348 87.97045898 420.72973633 C81.21041333 427.6962574 73.01251537 435.57020799 62.8125 435.796875 C58.11210277 436.25001787 55.5718464 438.01856486 51.80859375 440.73828125 C20.08157833 461.63388315 -23.2657684 465.7873727 -60.1875 465.734375 C-61.36469604 465.73346863 -61.36469604 465.73346863 -62.56567383 465.73254395 C-156.94760456 465.53677044 -156.94760456 465.53677044 -173.9375 448.546875 C-174.5 445.921875 -174.5 445.921875 -173.9375 442.546875 C-170.30125937 437.04948163 -165.47437583 433.02099317 -159.9375 429.546875 C-159.2775 429.546875 -158.6175 429.546875 -157.9375 429.546875 C-157.86273438 428.98484375 -157.78796875 428.4228125 -157.7109375 427.84375 C-154.90655002 409.91766534 -148.38859438 393.32314178 -139.79199219 377.42895508 C-133.74922465 366.04697464 -137.58250873 353.62152265 -140.44677734 341.70996094 C-140.87580224 339.81883626 -141.20618983 337.90588341 -141.51953125 335.9921875 C-142.03727527 333.18370554 -142.48759542 331.00776747 -143.9375 328.546875 C-146.31121719 327.32335668 -148.50266055 326.84617192 -151.1171875 326.31640625 C-160.92348742 323.64072608 -168.04736137 315.02080316 -172.9375 306.546875 C-175.90674918 300.12088796 -177.57553958 293.47017381 -178.9375 286.546875 C-179.39125 287.041875 -179.845 287.536875 -180.3125 288.046875 C-181.9375 289.546875 -181.9375 289.546875 -183.9375 289.546875 C-183.73125 290.536875 -183.525 291.526875 -183.3125 292.546875 C-183.31865569 295.43932594 -183.72637906 296.33022851 -185.77514648 298.43261719 C-192.14219866 303.35715868 -198.69468959 307.70652338 -205.625 311.796875 C-206.70716797 312.44019775 -207.78933594 313.08352051 -208.90429688 313.74633789 C-222.7745579 321.91095126 -237.0438436 329.29503035 -251.5625 336.234375 C-252.5834375 336.72538696 -252.5834375 336.72538696 -253.625 337.22631836 C-262.06584628 341.17219867 -262.06584628 341.17219867 -265.94848633 339.875 C-268.63586751 338.08055374 -269.03628389 336.51305809 -270.05078125 333.46484375 C-270.58687012 331.87144165 -270.58687012 331.87144165 -271.13378906 330.24584961 C-271.50213867 329.08706299 -271.87048828 327.92827637 -272.25 326.734375 C-272.64026367 325.53111572 -273.03052734 324.32785645 -273.43261719 323.08813477 C-278.41336404 307.3682878 -282.3929985 291.34562675 -285.3046875 275.11328125 C-285.51899414 273.92484619 -285.73330078 272.73641113 -285.95410156 271.51196289 C-286.34891297 269.26334397 -286.72444321 267.01122205 -287.07714844 264.75561523 C-288.09809443 258.81293008 -288.96238354 255.40781297 -293.9375 251.546875 C-298.44713504 246.81725776 -302.9375 240.35899063 -302.9375 233.546875 C-303.96875 233.485 -305 233.423125 -306.0625 233.359375 C-311.29301791 232.2626535 -314.19341256 230.12148027 -317.25 225.609375 C-319.79706421 217.96818237 -320.03904817 209.75853528 -316.83984375 202.328125 C-313.93695032 196.59773797 -309.91718652 193.63742947 -303.9375 191.546875 C-302.6175 191.546875 -301.2975 191.546875 -299.9375 191.546875 C-302.71852191 188.6815797 -305.51750995 186.05627073 -308.625 183.546875 C-311.49974359 181.07296712 -313.22099116 179.39811001 -313.9375 175.546875 C-314.06901194 170.82998024 -313.64011268 166.90958312 -310.6875 163.109375 C-307.05627062 159.72572944 -304.70401995 158.83528642 -299.875 158.046875 C-294.25221363 158.76087962 -287.05420729 161.43016771 -282.9375 165.546875 C-282.92332031 164.68964844 -282.90914063 163.83242187 -282.89453125 162.94921875 C-282.58518371 155.53323845 -282.13712534 150.98834338 -276.9375 145.546875 C-272.50244791 142.80402308 -268.0019705 142.89081405 -262.9375 143.546875 C-258.3608025 145.87683009 -254.95869049 148.68177412 -253.20263672 153.60864258 C-251.41571896 162.41911354 -251.89408904 171.16928769 -252.19140625 180.11132812 C-252.22427734 181.97241211 -252.22427734 181.97241211 -252.2578125 183.87109375 C-252.30832764 185.5430481 -252.30832764 185.5430481 -252.35986328 187.2487793 C-251.91019958 190.76005496 -250.68168752 192.76691847 -248.83450317 195.73326111 C-247.2873117 198.86146404 -247.53090021 202.08592149 -247.6796875 205.48046875 C-247.70216081 207.02136497 -247.72174338 208.56230545 -247.73876953 210.10327148 C-247.75248596 210.9009494 -247.76620239 211.69862732 -247.78033447 212.52047729 C-248.00841834 229.99183143 -245.38876225 243.010532 -236.9375 258.546875 C-236.32516889 259.75370527 -235.71745374 260.96290487 -235.1171875 262.17578125 C-234.72789062 262.95824219 -234.33859375 263.74070312 -233.9375 264.546875 C-227.20503797 260.45129393 -221.18568665 255.58244368 -215.11230469 250.59155273 C-207.54013082 244.37409088 -199.78465393 238.41355675 -191.9375 232.546875 C-193.28447168 229.06166975 -193.28447168 229.06166975 -194.984375 225.7421875 C-196.92036737 221.28305754 -196.45336122 216.29789314 -195.9375 211.546875 C-192.15990687 203.71186703 -185.62233861 200.69447774 -177.9375 197.546875 C-179.53343616 194.92530077 -179.53343616 194.92530077 -181.9375 192.546875 C-182.845 192.588125 -183.7525 192.629375 -184.6875 192.671875 C-189.86224562 192.47284632 -192.39372514 189.07727712 -195.9375 185.546875 C-196.93136719 184.556875 -196.93136719 184.556875 -197.9453125 183.546875 C-199.20201508 182.28524417 -200.4506119 181.01543767 -201.6875 179.734375 C-203.61157137 177.86375006 -205.5737984 176.1068726 -207.6015625 174.3515625 C-212.30504749 170.25863653 -216.83825392 166.01344163 -221.3125 161.671875 C-222.11816406 160.92035156 -222.92382812 160.16882813 -223.75390625 159.39453125 C-228.7849505 154.48146794 -231.49013968 150.66808534 -231.9375 143.546875 C-231.89109375 142.6290625 -231.8446875 141.71125 -231.796875 140.765625 C-232.00939518 137.41252876 -233.76407473 136.26704525 -236.1875 134.046875 C-240.82599926 129.74186262 -240.82599926 129.74186262 -242.5078125 126.80078125 C-246.52867614 123.07081611 -251.28529764 123.92375417 -256.5625 123.984375 C-266.09180823 124.06093928 -273.84808674 123.29056436 -281.71484375 117.50390625 C-282.42769531 116.79621094 -283.14054687 116.08851563 -283.875 115.359375 C-288.3024961 111.12132802 -292.9151575 107.23816506 -297.6875 103.39453125 C-301.89581141 99.93874775 -301.89581141 99.93874775 -302.25 96.609375 C-301.9375 93.546875 -301.9375 93.546875 -300.73046875 91.9284668 C-298.47288652 90.18886197 -296.7405739 89.8589021 -293.9375 89.37890625 C-292.968125 89.20810547 -291.99875 89.03730469 -291 88.86132812 C-289.989375 88.69568359 -288.97875 88.53003906 -287.9375 88.359375 C-286.926875 88.18212891 -285.91625 88.00488281 -284.875 87.82226562 C-277.46887066 86.546875 -277.46887066 86.546875 -273.9375 86.546875 C-273.834375 85.37125 -273.73125 84.195625 -273.625 82.984375 C-273.12511839 78.50686403 -272.35608082 74.09309239 -271.5 69.671875 C-271.25378906 68.39570312 -271.00757813 67.11953125 -270.75390625 65.8046875 C-269.9375 62.546875 -269.9375 62.546875 -267.9375 59.546875 C-264.8125 58.796875 -264.8125 58.796875 -260.9375 59.546875 C-259.12109375 61.5625 -259.12109375 61.5625 -257.25 64.046875 C-254.776488 67.16437829 -253.72471899 68.39872678 -249.76171875 69.14453125 C-246.77393246 69.11293304 -243.89736404 68.94645665 -240.9375 68.546875 C-240.834375 67.33 -240.73125 66.113125 -240.625 64.859375 C-238.91128013 49.67726514 -238.91128013 49.67726514 -235.7109375 44.6015625 C-233.9375 43.546875 -233.9375 43.546875 -231.015625 43.59375 C-227.38648442 44.71749404 -226.12315422 45.91499405 -223.6875 48.796875 C-222.92824219 49.6940625 -222.16898437 50.59125 -221.38671875 51.515625 C-220.17435547 53.01609375 -220.17435547 53.01609375 -218.9375 54.546875 C-218.49229004 55.09085937 -218.04708008 55.63484375 -217.58837891 56.1953125 C-216.21152798 57.88510622 -214.85236134 59.58743503 -213.5 61.296875 C-212.86239746 62.09206543 -212.86239746 62.09206543 -212.21191406 62.90332031 C-207.60562844 68.87250047 -206.76427147 73.34177362 -207.3203125 80.62988281 C-208.06379686 89.48746405 -208.06379686 89.48746405 -204.49609375 97.30078125 C-201.8872169 100.05856562 -199.03199249 102.35661733 -195.9375 104.546875 C-194.59945312 103.58007812 -194.59945312 103.58007812 -193.234375 102.59375 C-189.31967366 100.16329562 -187.11698622 99.738228 -182.6171875 99.875 C-177.42371473 101.17715352 -173.73429796 104.9277995 -169.9375 108.546875 C-170.05542163 101.94326377 -171.59540286 99.44356893 -176.08984375 94.74609375 C-183.63314635 85.76749045 -185.31694169 74.03878896 -185.25 62.734375 C-185.24262817 61.27016113 -185.24262817 61.27016113 -185.23510742 59.77636719 C-185.12424468 52.9745118 -184.59276136 46.8786521 -181.9375 40.546875 C-181.44443359 39.29970703 -181.44443359 39.29970703 -180.94140625 38.02734375 C-176.11611712 27.15792084 -168.92832268 20.615328 -158.4543457 15.51953125 C-154.33943009 13.46750346 -151.39958241 11.35830462 -148.25 7.921875 C-140.19349291 -0.84639117 -129.63546841 -3.95193479 -118.09765625 -4.703125 C-102.51234675 -5.31410095 -89.8196537 -1.48297945 -76.16796875 5.83984375 C-71.47834794 8.35165492 -71.47834794 8.35165492 -66.3125 7.734375 C-61.28410491 5.76353883 -58.57806601 1.9534039 -55.16015625 -2.07421875 C-52.10220459 -5.34714064 -49.12773344 -7.00006018 -44.9375 -8.453125 C-43.761875 -8.865625 -42.58625 -9.278125 -41.375 -9.703125 C-25.82707396 -13.10710881 -12.43669022 -9.32751767 0 0 Z M-236.9375 101.546875 C-238.45737159 108.53406842 -238.45737159 108.53406842 -237.9375 115.546875 C-235.81075202 118.6280085 -233.20290367 121.04057221 -230.4375 123.546875 C-229.72207031 124.22621094 -229.00664062 124.90554687 -228.26953125 125.60546875 C-226.50891474 127.27218571 -224.73249749 128.91737374 -222.9375 130.546875 C-221.2875 128.896875 -219.6375 127.246875 -217.9375 125.546875 C-218.74316406 124.83402344 -219.54882812 124.12117188 -220.37890625 123.38671875 C-221.42030083 122.42037964 -222.46060942 121.45286927 -223.5 120.484375 C-224.29954102 119.78538086 -224.29954102 119.78538086 -225.11523438 119.07226562 C-226.62890625 117.63671875 -226.62890625 117.63671875 -228.9375 114.546875 C-228.77734375 110.67578125 -228.77734375 110.67578125 -227.9375 107.546875 C-225.0858681 107.00081783 -223.68934235 106.78359026 -220.9375 107.546875 C-218.40168499 109.69125548 -216.24520426 111.98981812 -214.05078125 114.48046875 C-211.91314305 116.57069168 -210.85064065 117.1851984 -207.9375 117.546875 C-206.6175 115.896875 -205.2975 114.246875 -203.9375 112.546875 C-205.37185921 111.0854524 -206.81010586 109.62784451 -208.25 108.171875 C-209.05050781 107.35976562 -209.85101563 106.54765625 -210.67578125 105.7109375 C-214.14022806 102.39607821 -216.10494711 101.29435921 -220.82421875 101.3515625 C-221.76201172 101.35800781 -222.69980469 101.36445313 -223.66601562 101.37109375 C-224.64248047 101.38785156 -225.61894531 101.40460938 -226.625 101.421875 C-228.10709961 101.43541016 -228.10709961 101.43541016 -229.61914062 101.44921875 C-232.05883765 101.4727907 -234.49804697 101.50569478 -236.9375 101.546875 Z M-27.25 316.296875 C-37.38663685 326.99997097 -40.05533586 349.13733815 -41.25 363.234375 C-40.53533934 370.80977805 -38.03307675 375.71081355 -33.25 381.609375 C-22.78359561 394.62413792 -17.80418931 409.74856917 -12.9375 425.546875 C-6.21234549 424.37682184 0.05669433 422.71406808 6.4375 420.296875 C7.25460449 419.99185059 8.07170898 419.68682617 8.91357422 419.37255859 C19.74088053 415.68230995 19.74088053 415.68230995 29.0625 409.546875 C29.84737581 406.86853013 29.84737581 406.86853013 29.0625 403.546875 C26.60842897 400.40746843 23.67722177 397.80225702 20.75 395.109375 C12.8081998 387.48636647 6.02680012 379.79294266 0.0625 370.546875 C-0.31052246 369.97549805 -0.68354492 369.40412109 -1.06787109 368.81542969 C-7.00149977 359.57129447 -10.58290013 349.94008421 -13.9375 339.546875 C-14.73497511 337.12535194 -15.53699923 334.70539405 -16.34130859 332.28613281 C-16.84770989 330.75841003 -17.34965552 329.22919983 -17.84619141 327.69824219 C-19.3205514 323.1956067 -21.01137694 318.87639054 -22.9375 314.546875 C-25.15503569 314.34572744 -25.15503569 314.34572744 -27.25 316.296875 Z " fill="#3F3E4D" transform="translate(341.9375,28.453125)"/>
<path d="M0 0 C4.66932271 1.39914103 6.75741503 3.65659987 9.75 7.4375 C10.91789062 8.88962891 10.91789062 8.88962891 12.109375 10.37109375 C14 13 14 13 15 16 C14.45472656 16.59425781 13.90945313 17.18851563 13.34765625 17.80078125 C9.33425115 22.2120966 5.42183727 26.66167703 1.6875 31.3125 C-2.1969618 36.1189283 -6.31580991 40.63558572 -10.53808594 45.14135742 C-14.62236786 49.52533698 -18.42540759 54.07025087 -22.16015625 58.7578125 C-24 61 -24 61 -25.73046875 62.609375 C-27.32725204 64.07305255 -27.32725204 64.07305255 -27.25 67.125 C-27.31968178 69.89471558 -27.31968178 69.89471558 -26 71 C-22.07672996 70.8284149 -19.75107078 70.68825881 -16.8046875 67.98828125 C-15.84949219 66.66376953 -15.84949219 66.66376953 -14.875 65.3125 C-11.30348939 60.61346471 -7.56348288 56.28016282 -3.5 52 C1.14428699 47.07179155 5.51089171 42.01471532 9.74609375 36.7265625 C12.74070398 33.10396642 15.90666535 29.65869101 19.11230469 26.22290039 C21.65028296 23.49894181 24.05783243 20.72534046 26.375 17.8125 C29 15 29 15 31.4375 14.0625 C32.283125 14.041875 33.12875 14.02125 34 14 C35.093125 13.896875 36.18625 13.79375 37.3125 13.6875 C43.80803304 14.2379689 48.22911732 16.8526684 52.6875 21.5625 C58.45691917 28.65215239 61.09908685 36.02920519 62 45 C60.94425781 45.680625 59.88851562 46.36125 58.80078125 47.0625 C50.29325459 52.60940348 42.07613393 58.38427341 34.0625 64.625 C-19.42993313 106.04966059 -19.42993313 106.04966059 -35.98193359 105.33398438 C-39.6479475 104.72726927 -42.61451025 103.0775875 -45.8125 101.25 C-46.89785034 100.65143188 -46.89785034 100.65143188 -48.00512695 100.04077148 C-66.92837327 89.44334899 -84.72141327 77.32494339 -101 63 C-101.92039063 62.19175781 -102.84078125 61.38351562 -103.7890625 60.55078125 C-118.82011187 47.1772343 -118.82011187 47.1772343 -121 42 C-120.91949029 38.69910209 -120.29646847 37.35780678 -118.1875 34.8125 C-113.44455348 30.88263003 -113.44455348 30.88263003 -110.125 31.15234375 C-107.09264221 32.36194235 -105.94570641 34.27335469 -104 36.875 C-96.80331508 45.94704255 -88.2433423 53.25807208 -79.0625 60.25 C-78.43585449 60.74048828 -77.80920898 61.23097656 -77.16357422 61.73632812 C-74.35152374 63.81417559 -72.68262182 65.03334381 -69.12109375 64.859375 C-67.05125739 64.18120301 -67.05125739 64.18120301 -66 63 C-65.43530017 60.65528941 -65.43530017 60.65528941 -66 58 C-67.8981739 56.20591951 -69.61811936 54.83411257 -71.75 53.375 C-72.94877623 52.50606066 -74.1440073 51.63221282 -75.3359375 50.75390625 C-76.25197754 50.07932373 -76.25197754 50.07932373 -77.18652344 49.39111328 C-82.09643724 45.62473083 -86.52562987 41.26442901 -91 37 C-91.71414062 36.32710937 -92.42828125 35.65421875 -93.1640625 34.9609375 C-96.68134714 31.56339021 -99.45247636 28.17793877 -102 24 C-93.48275862 10.24137931 -93.48275862 10.24137931 -87 7 C-81.66254813 6.36713071 -78.82341564 8.0144857 -74.75 11.1875 C-73.53414909 12.09544715 -72.31798625 13.0029767 -71.1015625 13.91015625 C-70.4509082 14.40273926 -69.80025391 14.89532227 -69.12988281 15.40283203 C-65.17227809 18.37058193 -61.14174088 21.23811663 -57.125 24.125 C-55.56469761 25.25204153 -54.00476748 26.37959872 -52.4453125 27.5078125 C-51.78031738 27.98879395 -51.11532227 28.46977539 -50.43017578 28.96533203 C-49.95821777 29.30677246 -49.48625977 29.64821289 -49 30 C-50 33 -50 33 -51.75 34.1875 C-54.42874033 35.1548229 -56.16686689 35.34550404 -59 35 C-59.804375 34.505 -60.60875 34.01 -61.4375 33.5 C-64.50959036 31.7017032 -66.49957098 31.75578402 -70 32 C-70 34.31 -70 36.62 -70 39 C-64.54536056 42.68912813 -60.17126188 44.55526724 -53.5546875 44.56640625 C-47.34860356 43.19043963 -42.8201652 39.20626523 -38.3125 34.9375 C-37.26579744 33.95554533 -36.21891744 32.97377976 -35.171875 31.9921875 C-34.64529297 31.49428711 -34.11871094 30.99638672 -33.57617188 30.48339844 C-31.09612186 28.14932411 -28.57797494 25.85836999 -26.0625 23.5625 C-22.90009998 20.66824145 -19.74494863 17.76646855 -16.6015625 14.8515625 C-11.15128896 9.79901162 -5.70020324 4.77226318 0 0 Z " fill="#92AF80" transform="translate(277,206)"/>
<path d="M0 0 C7.52672221 2.04024914 14.98343604 1.87357457 22.71875 1.81640625 C23.87955078 1.81189453 25.04035156 1.80738281 26.23632812 1.80273438 C29.08468934 1.79101272 31.93294222 1.77460385 34.78125 1.75390625 C34.45970427 3.3616349 34.1380168 4.96933531 33.81567383 6.5769043 C33.5395761 7.96068568 33.26603131 9.34497856 32.99487305 10.72973633 C32.43077239 13.5969422 31.86109565 16.44178234 31.13671875 19.2734375 C28.17248196 31.1090592 27.5408548 45.36202187 33.87890625 56.0546875 C35.8952848 58.91570923 38.00586256 61.67981684 40.15625 64.44140625 C48.54346852 75.27961938 55.78125 89.74911153 55.78125 103.75390625 C40.47624881 106.3172383 25.39019268 107.06358068 9.90625 107.06640625 C9.05104767 107.06962891 8.19584534 107.07285156 7.31472778 107.07617188 C-8.70705314 107.11300311 -24.51946162 106.03188267 -40.21875 102.69140625 C-47.20527926 101.2795169 -54.08177166 100.08819095 -61.21875 99.75390625 C-57.99144234 96.44562672 -54.69140517 93.40350892 -51.09375 90.50390625 C-50.13210937 89.7253125 -49.17046875 88.94671875 -48.1796875 88.14453125 C-46.71402344 86.96117187 -46.71402344 86.96117187 -45.21875 85.75390625 C-43.38426602 84.2553137 -41.55091328 82.75533518 -39.71875 81.25390625 C-38.80738281 80.50882812 -37.89601562 79.76375 -36.95703125 78.99609375 C-35.16042732 77.52498012 -33.36607543 76.05111097 -31.57421875 74.57421875 C-30.25357422 73.48753906 -30.25357422 73.48753906 -28.90625 72.37890625 C-28.01550781 71.64285156 -27.12476563 70.90679687 -26.20703125 70.1484375 C-23.98061823 68.36439674 -21.74293701 66.64612128 -19.44921875 64.953125 C-18.80960205 64.47343262 -18.16998535 63.99374023 -17.51098633 63.49951172 C-16.25942791 62.56399052 -14.99782705 61.64171479 -13.7253418 60.73486328 C-10.75427751 58.49746229 -9.33748155 57.17772626 -8.3203125 53.546875 C-8.26224125 51.9499156 -8.21875 50.35192114 -8.21875 48.75390625 C-11.41042868 48.39702223 -14.08195867 48.09899116 -16.94775391 49.75 C-18.71894364 51.18315264 -20.37871337 52.68543253 -22.03125 54.25390625 C-23.26187442 55.36585342 -24.49365018 56.47652767 -25.7265625 57.5859375 C-26.32243164 58.13072754 -26.91830078 58.67551758 -27.53222656 59.23681641 C-29.75146484 61.23310284 -32.06158472 63.09488871 -34.40625 64.94140625 C-39.72836202 69.1503968 -44.97312397 73.4501744 -50.21875 77.75390625 C-52.28073172 79.44204059 -54.34351368 81.12919373 -56.40625 82.81640625 C-57.78876953 83.94755859 -57.78876953 83.94755859 -59.19921875 85.1015625 C-59.86566406 85.64683594 -60.53210938 86.19210937 -61.21875 86.75390625 C-62.29714463 83.52996033 -62.18365909 81.87658378 -60.84765625 78.76953125 C-60.52410156 78.00745361 -60.20054687 77.24537598 -59.8671875 76.46020508 C-59.50882813 75.64962646 -59.15046875 74.83904785 -58.78125 74.00390625 C-58.24177734 72.7367981 -58.24177734 72.7367981 -57.69140625 71.4440918 C-55.92564943 67.36269512 -54.07459 63.38939756 -51.90234375 59.5078125 C-43.6328718 44.70407825 -45.61059513 31.82807366 -49.21875 15.75390625 C-49.50492188 14.46871094 -49.79109375 13.18351562 -50.0859375 11.859375 C-50.77764037 8.81917622 -51.48700629 5.78467452 -52.21875 2.75390625 C-51.58372559 2.67350098 -50.94870117 2.5930957 -50.29443359 2.51025391 C-47.39337214 2.13935402 -44.4935926 1.75921348 -41.59375 1.37890625 C-40.59472656 1.25257813 -39.59570312 1.12625 -38.56640625 0.99609375 C-9.56590536 -2.8450322 -9.56590536 -2.8450322 0 0 Z " fill="#F0D8D1" transform="translate(262.21875,354.24609375)"/>
<path d="M0 0 C16.08137902 10.54829437 26.60842304 25.44971807 30.5625 44.1875 C31.00252309 48.30161571 31.08705908 52.36450599 31.0625 56.5 C31.05822998 57.5936084 31.05395996 58.6872168 31.04956055 59.81396484 C30.80756666 71.34245115 28.21779186 81.25632617 20.5625 90.1875 C20.2325 90.1875 19.9025 90.1875 19.5625 90.1875 C19.43294922 89.3521875 19.43294922 89.3521875 19.30078125 88.5 C18.09682483 81.96108074 16.20767133 76.01290573 10.7734375 71.80078125 C5.91559531 69.04284296 1.06474804 68.09089812 -4.4375 69.1875 C-10.58932809 71.68806322 -13.97315781 75.66620463 -17.4375 81.1875 C-30.79499191 80.5196254 -40.44209674 74.53216807 -50.125 65.75 C-57.4978246 57.58011328 -62.28896914 48.77801291 -65.4375 38.1875 C-69.86361503 37.77506317 -69.86361503 37.77506317 -73.6328125 39.875 C-81.15076957 48.88437366 -85.92973347 58.42692107 -87.4375 70.1875 C-90.81289181 68.49980409 -91.39981025 65.5309237 -92.59765625 62.08203125 C-95.37528641 49.20157884 -95.35839764 34.68220825 -88.4375 23.1875 C-87.839375 22.07375 -87.24125 20.96 -86.625 19.8125 C-82.36777545 14.70383054 -77.7248831 11.51271025 -71.4375 9.375 C-66.27957756 7.49795789 -63.78883182 4.55605583 -60.37109375 0.375 C-45.35838922 -16.60906977 -17.12585324 -9.49367951 0 0 Z " fill="#FDBF69" transform="translate(261.4375,43.8125)"/>
<path d="M0 0 C6.38599481 6.38599481 5.54888283 18.56293902 5.5625 26.9375 C5.61760742 28.71543945 5.61760742 28.71543945 5.67382812 30.52929688 C5.72173799 40.23370519 3.32348819 48.09920723 -3.17944336 55.47045898 C-10.55427777 62.69920541 -18.00784725 65.33834931 -28.25 65.4375 C-36.77112569 65.34577331 -44.71138145 63.74306274 -52.92016602 61.46777344 C-62.88328333 59.22697842 -74.29644762 60.48229167 -84.0625 63 C-96.52844872 66.1413638 -109.9824465 67.7368325 -121.48046875 60.90234375 C-129.18880819 55.0822487 -134.8998413 47.50914292 -137 38 C-138.3490566 12.52358491 -138.3490566 12.52358491 -132 3 C-131.52916992 3.36125977 -131.05833984 3.72251953 -130.57324219 4.09472656 C-119.26856041 12.71897295 -107.76204124 20.58899089 -95.40039062 27.62158203 C-93.06338174 28.9636032 -90.75853743 30.3506861 -88.453125 31.74609375 C-79.72136093 36.88660703 -72.40579398 39.95343425 -62 38 C-55.32024449 35.9077977 -49.60690244 32.65851114 -43.625 29.0625 C-42.66400391 28.48910889 -41.70300781 27.91571777 -40.71289062 27.32495117 C-26.68350747 18.88344444 -13.24030562 9.62157257 0 0 Z " fill="#F9EBE3" transform="translate(312,282)"/>
<path d="M0 0 C9.48718484 5.78738944 15.46936468 12.4669657 18.43164062 23.36279297 C20.12364799 30.48497931 20.21868275 37.48978093 20.20365906 44.76135635 C20.19910848 47.15967777 20.21337911 49.55728902 20.23205566 51.95553589 C20.2746684 57.90464858 20.28605435 63.85374006 20.29827881 69.80297852 C20.30986882 74.85239878 20.33358793 79.90148909 20.37297058 84.95077133 C20.38640076 87.29603346 20.3823978 89.64083 20.37756348 91.9861145 C20.42891293 106.23090016 23.55405118 116.14392177 32.79296875 127.09375 C24.94531581 132.5688567 19.29730556 133.87543828 9.79296875 133.09375 C0.3594506 131.13802063 -8.09440838 124.28696847 -14.20703125 117.09375 C-14.86703125 115.98 -15.52703125 114.86625 -16.20703125 113.71875 C-18.06035473 110.70823102 -18.06035473 110.70823102 -21.95703125 110.21875 C-23.02953125 110.1775 -24.10203125 110.13625 -25.20703125 110.09375 C-29.9727711 99.74411753 -29.9727711 99.74411753 -28.20703125 94.09375 C-27.97113281 93.28679687 -27.73523438 92.47984375 -27.4921875 91.6484375 C-26.98429518 89.91503387 -26.4630193 88.18547165 -25.92578125 86.4609375 C-24.83567377 82.87069221 -24.09236223 79.7071866 -24.06640625 75.94140625 C-24.04707031 75.16474609 -24.02773438 74.38808594 -24.0078125 73.58789062 C-23.97404513 71.97095294 -23.95573563 70.35361626 -23.953125 68.73632812 C-23.81651344 64.39711342 -23.65218575 62.6318251 -20.79296875 59.17578125 C-19.93960937 58.48871094 -19.08625 57.80164063 -18.20703125 57.09375 C-12.24725032 50.43281837 -10.65664106 44.86631423 -10.9296875 36.07421875 C-11.79697488 26.75393324 -16.37180266 17.19807194 -23.55859375 11.09765625 C-26.72301494 8.94852981 -29.57176861 7.30550421 -33.20703125 6.09375 C-33.20703125 5.43375 -33.20703125 4.77375 -33.20703125 4.09375 C-31.5625 2.83984375 -31.5625 2.83984375 -29.39453125 1.53125 C-28.68683594 1.09683594 -27.97914063 0.66242187 -27.25 0.21484375 C-20.21267529 -3.64693864 -7.22080746 -3.44303402 0 0 Z " fill="#FDBA60" transform="translate(326.20703125,30.90625)"/>
<path d="M0 0 C2.50734048 2.28006693 3.99932341 4.60110669 5.625 7.5625 C15.340646 23.86582791 29.92500759 32.80826407 47.93798828 37.55615234 C52.30625469 38.49642091 56.58010102 38.52571486 61 38 C61.23074219 37.39671875 61.46148437 36.7934375 61.69921875 36.171875 C65.2407932 27.49291785 65.2407932 27.49291785 70 25 C73.0625 24.9375 73.0625 24.9375 76 26 C79.73353107 29.83443732 81.14150552 33.07685303 81.25 38.375 C81.17070394 42.45874732 80.79749494 44.8528182 78 48 C75.96514307 49.43829245 73.89875329 50.73625267 71.7421875 51.984375 C70.03403189 52.88104712 70.03403189 52.88104712 69 54 C68.86744524 55.89406018 68.76916391 57.79056412 68.6875 59.6875 C68.26391362 64.96364211 67.59510458 67.94398458 64 72 C63.48824219 72.59941406 62.97648437 73.19882813 62.44921875 73.81640625 C54.28436769 82.75053664 40.81385327 92.54301106 28.5 93.6875 C22.65938348 93.39292978 19.11047995 89.83155452 15 86 C14.319375 85.40960938 13.63875 84.81921875 12.9375 84.2109375 C0.51874053 72.81090439 -6.03855622 56.66882804 -7.20703125 40.05664062 C-7.30211812 37.05546143 -7.32887218 34.0651094 -7.3125 31.0625 C-7.30831055 30.01070557 -7.30412109 28.95891113 -7.29980469 27.87524414 C-7.14845776 17.49268371 -5.81303459 8.81977662 0 0 Z " fill="#FCD2C2" transform="translate(190,97)"/>
<path d="M0 0 C2.69143968 0.99651406 3.8725916 1.92675072 5.78125 4.0390625 C8.89721949 7.3595814 12.18324472 10.31480907 15.671875 13.23828125 C19.23272028 16.55915652 20.92909695 19.80767621 22.59375 24.3515625 C28.49126685 38.88219138 39.50836929 52.57235864 54.06640625 59.07421875 C56.84371987 60.04514953 59.55951952 60.50812336 62.46875 60.9140625 C62.46875 64.2140625 62.46875 67.5140625 62.46875 70.9140625 C56.88492528 70.33642546 51.66439341 69.76342598 46.70703125 66.89453125 C41.04279066 63.64305034 35.94768086 62.71254893 29.46875 63.9140625 C20.23617648 67.93588308 14.000542 76.21302187 9.46875 84.9140625 C6.82678093 84.53663835 5.36157778 83.83875229 3.15625 82.2890625 C2.599375 81.5053125 2.0425 80.7215625 1.46875 79.9140625 C1.75194092 78.87991211 2.03513184 77.84576172 2.3269043 76.78027344 C2.4869684 72.41749343 2.19859114 72.03439477 -0.56713867 68.95410156 C-2.00725056 67.50849745 -3.46961073 66.08484001 -4.94921875 64.6796875 C-5.71800858 63.91984558 -6.4867984 63.16000366 -7.27888489 62.37713623 C-9.74071316 59.9534402 -12.22916153 57.5592009 -14.71875 55.1640625 C-16.3774166 53.5369541 -18.03433989 51.90806654 -19.68945312 50.27734375 C-22.7322091 47.29303689 -25.77907672 44.31345384 -28.84838867 41.35644531 C-29.77224617 40.46545135 -29.77224617 40.46545135 -30.71476746 39.55645752 C-32.52871324 37.842555 -32.52871324 37.842555 -34.76142883 36.38641357 C-35.34546982 35.90053772 -35.9295108 35.41466187 -36.53125 34.9140625 C-36.53125 31.9140625 -36.53125 31.9140625 -35.1328125 30.44140625 C-34.48054688 29.91675781 -33.82828125 29.39210937 -33.15625 28.8515625 C-29.76854551 26.02049497 -26.6270363 23.06256343 -23.53125 19.9140625 C-19.97418509 16.3134861 -16.33820182 12.92048848 -12.47265625 9.65625 C-9.59978788 7.07818301 -7.04698946 4.20761271 -4.48828125 1.3203125 C-2.53125 -0.0859375 -2.53125 -0.0859375 0 0 Z " fill="#C37068" transform="translate(157.53125,140.0859375)"/>
<path d="M0 0 C2.90476473 1.45238237 3.22462549 3.39567687 4.49609375 6.35546875 C4.97240234 7.45310547 5.44871094 8.55074219 5.93945312 9.68164062 C6.43380859 10.83857422 6.92816406 11.99550781 7.4375 13.1875 C8.41403599 15.45239622 9.3918613 17.71673705 10.37109375 19.98046875 C10.80349365 20.99004639 11.23589355 21.99962402 11.68139648 23.03979492 C13.97106648 29.23568271 13.97106648 29.23568271 18.6875 33.25 C23.59449828 32.87966051 26.38491165 30.16549615 30 27 C34.57715783 28.48053852 36.29400689 32.19243522 38.5625 36.125 C38.94857422 36.764375 39.33464844 37.40375 39.73242188 38.0625 C43.07636302 43.73637629 46 49.29163846 46 56 C10.95243365 76.26679326 10.95243365 76.26679326 -4 82 C-12.71264276 61.3491829 -22.216806 32.51091096 -21 10 C-19.85724609 9.67128906 -19.85724609 9.67128906 -18.69140625 9.3359375 C-11.60792587 7.1604866 -5.90793053 4.47570495 0 0 Z " fill="#EFF7F9" transform="translate(86,274)"/>
<path d="M0 0 C0.66 0 1.32 0 2 0 C2.31825658 1.91571922 2.62919439 3.83265417 2.9375 5.75 C3.11152344 6.81734375 3.28554688 7.8846875 3.46484375 8.984375 C5.0224658 19.94774781 5.24138607 30.94657285 5.25 42 C5.25067474 42.78557281 5.25134949 43.57114563 5.25204468 44.38052368 C5.21246282 73.66185069 1.49978038 103.19576473 -8 131 C-8.27150879 131.79792969 -8.54301758 132.59585938 -8.82275391 133.41796875 C-15.9909486 154.09530121 -25.86784423 172.51337723 -39 190 C-42.23861303 188.55575365 -44.61969163 186.74227753 -47.25 184.375 C-47.95640625 183.74335938 -48.6628125 183.11171875 -49.390625 182.4609375 C-49.92171875 181.97882813 -50.4528125 181.49671875 -51 181 C-49.54761023 177.81341348 -47.72870057 175.30515311 -45.5625 172.5625 C-35.08051063 158.23076181 -28.1151653 141.91142885 -23 125 C-22.73880371 124.1435791 -22.47760742 123.2871582 -22.20849609 122.40478516 C-12.5779896 90.30111403 -7.13534337 55.76523089 -7.67871094 22.18017578 C-7.64236474 14.36695406 -5.77385241 5.77385241 0 0 Z " fill="#F07169" transform="translate(473,223)"/>
<path d="M0 0 C2.83807942 1.4076418 4.88592423 3.36988891 7.1953125 5.52734375 C8.08734375 6.35363281 8.979375 7.17992187 9.8984375 8.03125 C10.91164063 8.98837891 10.91164063 8.98837891 11.9453125 9.96484375 C8.30608309 14.42063156 3.68016613 16.16970101 -1.4921875 18.33984375 C-2.42232666 18.73196045 -3.35246582 19.12407715 -4.31079102 19.52807617 C-59.3484303 42.12413365 -121.96907202 37.40219506 -179.1328125 26.5859375 C-180.20398567 26.38599182 -180.20398567 26.38599182 -181.29679871 26.18200684 C-185.34151051 25.39710027 -189.17698525 24.35605447 -193.0546875 22.96484375 C-190.65543583 20.1921986 -188.34808183 19.04828523 -184.9296875 17.77734375 C-184.04023438 17.43316406 -183.15078125 17.08898437 -182.234375 16.734375 C-174.81890654 14.93972231 -167.94072638 16.18392848 -160.6171875 17.83984375 C-151.12686766 19.85659207 -141.71301344 21.11481842 -132.0546875 21.96484375 C-130.31832031 22.13306641 -130.31832031 22.13306641 -128.546875 22.3046875 C-86.43679068 25.80586763 -42.64925245 20.83439622 -4.8125 1.08203125 C-2.0546875 -0.03515625 -2.0546875 -0.03515625 0 0 Z " fill="#EF6F68" transform="translate(377.0546875,448.03515625)"/>
<path d="M0 0 C3.40510827 2.79176579 4.95806755 6.64431707 6.875 10.5 C14.54405479 25.42827582 24.61202842 38.86974921 35 52 C36.37627139 53.7698454 37.75141186 55.5405713 39.125 57.3125 C40.08296101 58.54195687 41.04113125 59.77125097 42 61 C41.2884375 61.56074219 40.576875 62.12148438 39.84375 62.69921875 C32.72841048 68.45599757 25.91069139 74.21062745 21 82 C0.33558638 65.37862383 -15.13294505 40.458797 -19 14 C-12.90022202 8.85331233 -6.896032 4.03352815 0 0 Z " fill="#E2EEF4" transform="translate(354,339)"/>
<path d="M0 0 C2.99179766 1.65044588 5.44479144 3.74569438 8 6 C8.72960937 6.59941406 9.45921875 7.19882812 10.2109375 7.81640625 C14.82348593 11.67129781 17.68707109 14.18363977 18.375 20.375 C17.43671951 29.4450447 8.55132474 36.28446398 1.8515625 41.75390625 C-1.78725733 44.27806783 -5.28139079 45.98098249 -9.859375 45.68359375 C-14.70557592 44.13599309 -18.33560092 40.39522786 -22 37 C-22.95712891 36.12794922 -22.95712891 36.12794922 -23.93359375 35.23828125 C-27.64812743 31.70190266 -28.79786144 29.46550454 -29.5 24.375 C-29.42557708 18.58064393 -25.74722811 15.07721884 -22 11 C-21.41347656 10.34515625 -20.82695312 9.6903125 -20.22265625 9.015625 C-14.79955136 3.26049328 -8.46224324 -2.12774254 0 0 Z " fill="#FCC9C0" transform="translate(411,408)"/>
<path d="M0 0 C2.125 1.125 2.125 1.125 5 3 C5.57363281 3.36738281 6.14726562 3.73476563 6.73828125 4.11328125 C8.70403605 5.6452143 9.84712815 6.77691504 11 9 C11.00766338 14.44865998 9.41242521 19.5443816 7.9375 24.75 C6.9734879 28.16001295 6.92178338 31.42659206 6.86328125 34.95825195 C6.61561239 45.52585347 6.61561239 45.52585347 2.9375 49.0625 C0.07266904 50.93723601 -1.66887461 51.18586849 -5 50.5625 C-5.66257813 50.41039062 -6.32515625 50.25828125 -7.0078125 50.1015625 C-10.30381877 49.93353081 -12.14080917 51.81087666 -14.5546875 53.87109375 C-16 55 -16 55 -18 55 C-18.61875 53.45892578 -18.61875 53.45892578 -19.25 51.88671875 C-22.92040438 42.99606427 -26.882873 35.49943882 -33 28 C-31.45141261 23.85469595 -28.74633698 22.02564213 -25.25 19.4375 C-24.07876703 18.56077692 -22.90821887 17.68313841 -21.73828125 16.8046875 C-21.12807129 16.34932617 -20.51786133 15.89396484 -19.88916016 15.42480469 C-16.70017845 13.01967452 -13.57071453 10.53956788 -10.4375 8.0625 C-6.98592767 5.33739874 -3.53401064 2.61810568 0 0 Z " fill="#FCD5CE" transform="translate(159,268)"/>
<path d="M0 0 C7.52672221 2.04024914 14.98343604 1.87357457 22.71875 1.81640625 C23.87955078 1.81189453 25.04035156 1.80738281 26.23632812 1.80273438 C29.08468934 1.79101272 31.93294222 1.77460385 34.78125 1.75390625 C34.32780971 4.12993335 33.86865741 6.50462206 33.40625 8.87890625 C33.21675781 9.87664062 33.21675781 9.87664062 33.0234375 10.89453125 C32.2238226 14.97256725 31.18255515 18.8424371 29.78125 22.75390625 C28.87149414 22.62105225 27.96173828 22.48819824 27.02441406 22.35131836 C21.65292108 21.5843103 16.27114573 20.89553873 10.890625 20.1953125 C8.54815834 19.88881506 6.20571103 19.58216979 3.86328125 19.27539062 C0.19923097 18.79575541 -3.46491285 18.31690502 -7.12939453 17.84057617 C-10.68555877 17.37803049 -14.2412472 16.91196166 -17.796875 16.4453125 C-18.87745178 16.30565567 -19.95802856 16.16599884 -21.0713501 16.02210999 C-27.00444581 15.2401227 -32.87261651 14.31247238 -38.74261475 13.14414978 C-42.60049886 12.53614005 -46.32101515 12.62611166 -50.21875 12.75390625 C-50.87875 9.45390625 -51.53875 6.15390625 -52.21875 2.75390625 C-50.70023438 2.56054688 -49.18171875 2.3671875 -47.6171875 2.16796875 C-45.60933428 1.90525898 -43.60152399 1.64222087 -41.59375 1.37890625 C-40.59472656 1.25257813 -39.59570312 1.12625 -38.56640625 0.99609375 C-9.56590536 -2.8450322 -9.56590536 -2.8450322 0 0 Z " fill="#DAABA1" transform="translate(262.21875,354.24609375)"/>
<path d="M0 0 C-0.01571045 1.08716309 -0.0314209 2.17432617 -0.04760742 3.29443359 C-0.10289385 7.42081968 -0.13669952 11.54717497 -0.16479492 15.67382812 C-0.17966123 17.44243923 -0.19996029 19.21101502 -0.22631836 20.97949219 C-0.36244144 30.36397743 -0.20418012 39.51035228 1.32421875 48.7890625 C1.44118607 49.50081635 1.55815338 50.21257019 1.67866516 50.94589233 C2.34470939 54.56967315 3.2749882 57.89994086 4.60400391 61.33935547 C6 65 6 65 6.01171875 67.78125 C4.59061417 70.89780368 2.76236133 71.81209014 -0.1875 73.5 C-3.52175145 75.47889989 -6.6465596 77.37698517 -9.5625 79.9375 C-12 82 -12 82 -14 82 C-19.04418021 73.32540635 -19.04418021 73.32540635 -18.875 68.25 C-18.58625 67.1775 -18.2975 66.105 -18 65 C-14.54379332 48.21986611 -17.04230474 29.88718737 -23 14 C-20.81550594 12.4123788 -18.62758405 10.82987826 -16.4375 9.25 C-15.52387695 8.58484375 -15.52387695 8.58484375 -14.59179688 7.90625 C-3.60443474 0 -3.60443474 0 0 0 Z " fill="#FACCC5" transform="translate(344,261)"/>
<path d="M0 0 C2.5654594 2.5654594 2.54046087 4.47686668 3 8 C1.17182151 9.32035113 -0.65637046 10.64068355 -2.48461914 11.9609375 C-4.10121525 13.12859838 -5.71758277 14.29657581 -7.33374023 15.46484375 C-11.41915869 18.41741719 -15.50729792 21.36592787 -19.60546875 24.30078125 C-21.09141908 25.36680672 -22.57709839 26.43321008 -24.0625 27.5 C-24.79815186 28.02795166 -25.53380371 28.55590332 -26.29174805 29.09985352 C-30.13253565 31.87256519 -33.9242226 34.69384089 -37.6640625 37.6015625 C-38.42323975 38.19130859 -39.18241699 38.78105469 -39.96459961 39.38867188 C-41.40071144 40.51043215 -42.83162155 41.63889846 -44.25610352 42.77539062 C-50.75844863 47.86341336 -56.5699273 50.75767823 -65.015625 50.4609375 C-70.15054754 49.66784737 -74.42421119 47.47210878 -78.98583984 45.05712891 C-81.26221244 43.8623782 -83.5612727 42.71876796 -85.86328125 41.57421875 C-103.45412323 32.7215359 -119.27103138 21.78512693 -135 10 C-134.34 7.69 -133.68 5.38 -133 3 C-128.75477379 5.79477392 -124.53323756 8.61956447 -120.3671875 11.53125 C-112.08291876 17.31301146 -103.73095836 22.85229895 -94.95800781 27.86767578 C-93.60274993 28.65142716 -92.25620042 29.45035966 -90.91699219 30.26123047 C-81.42634898 36.00533958 -73.4718246 40.15355552 -62 38 C-55.32024449 35.9077977 -49.60690244 32.65851114 -43.625 29.0625 C-42.66400391 28.48910889 -41.70300781 27.91571777 -40.71289062 27.32495117 C-26.68350747 18.88344444 -13.24030562 9.62157257 0 0 Z " fill="#DAACA1" transform="translate(312,282)"/>
<path d="M0 0 C2.14257812 1.54345703 2.14257812 1.54345703 4 4 C4.43465935 6.73469264 4.63174313 9.06363495 4.63671875 11.80078125 C4.64766068 12.55538132 4.6586026 13.30998138 4.6698761 14.08744812 C4.68571623 15.68184598 4.69094478 17.2763799 4.6862793 18.87084961 C4.68749165 21.29579278 4.74719167 23.7146573 4.81054688 26.13867188 C4.95882374 39.09234976 4.95882374 39.09234976 0.73046875 43.453125 C-1.19311523 44.9074707 -1.19311523 44.9074707 -3 46 C-4.15628906 46.77150391 -4.15628906 46.77150391 -5.3359375 47.55859375 C-10.49884028 49.78398288 -15.37887935 51.24670769 -21 50 C-25.46154761 46.79932454 -27.30681026 43.07956921 -29 38 C-28 35 -28 35 -25.6875 33.75 C-21.5258237 31.04007124 -19.71433433 27.32158656 -18.25 22.5625 C-18.1675 22.046875 -18.085 21.53125 -18 21 C-16.88625 20.87625 -15.7725 20.7525 -14.625 20.625 C-10.96896323 20.3534187 -10.96896323 20.3534187 -9 18 C-8.83318891 14.91652174 -8.83318891 14.91652174 -9 12 C-10.03060547 11.83564453 -10.03060547 11.83564453 -11.08203125 11.66796875 C-11.98308594 11.50941406 -12.88414063 11.35085937 -13.8125 11.1875 C-14.70582031 11.03667969 -15.59914063 10.88585937 -16.51953125 10.73046875 C-19.24540241 9.92773189 -20.37423945 9.31711387 -22 7 C-22 5.68 -22 4.36 -22 3 C-14.83984172 0.08739324 -7.72978167 -1.31416636 0 0 Z " fill="#FCC5BB" transform="translate(79,224)"/>
<path d="M0 0 C8.34710527 2.95626645 13.1179848 9.854298 17.75 17 C18.12680908 17.58112549 18.50361816 18.16225098 18.8918457 18.76098633 C26.16000831 30.3299522 26.16000831 30.3299522 25 37 C21.51726062 41.09011879 18.08395147 43.18575845 13.1875 45.3125 C12.02605469 45.82425781 10.86460937 46.33601563 9.66796875 46.86328125 C8.78753906 47.23839844 7.90710938 47.61351562 7 48 C6.78085937 47.17757812 6.56171875 46.35515625 6.3359375 45.5078125 C3.44842494 35.34282924 -0.00437989 26.12467752 -9 20 C-12.75388245 18.19257512 -15.66169282 17.77498055 -19.8125 17.875 C-20.78832031 17.89304688 -21.76414062 17.91109375 -22.76953125 17.9296875 C-23.50558594 17.95289063 -24.24164063 17.97609375 -25 18 C-20.59118923 9.18237846 -10.41739794 -1.51525788 0 0 Z " fill="#617B4B" transform="translate(332,203)"/>
<path d="M0 0 C0.66 0 1.32 0 2 0 C2.3389231 3.35362609 2.67011964 6.70797332 3 10.0625 C3.09539062 11.00544922 3.19078125 11.94839844 3.2890625 12.91992188 C3.4697582 14.77205284 3.63412932 16.62585715 3.78125 18.48095703 C3.96332109 20.57761948 4.24999129 22.66487257 4.5625 24.74609375 C3.66627735 29.93049281 -0.01291919 31.87249587 -4 35 C-5.39567383 36.28153554 -6.77611135 37.57986731 -8.140625 38.89453125 C-8.81867188 39.53970703 -9.49671875 40.18488281 -10.1953125 40.84960938 C-11.58303101 42.17532906 -12.96839297 43.50351926 -14.3515625 44.83398438 C-15.02445313 45.47271484 -15.69734375 46.11144531 -16.390625 46.76953125 C-16.98907227 47.34292236 -17.58751953 47.91631348 -18.20410156 48.50708008 C-20.04370663 50.03633306 -21.82480036 51.02163902 -24 52 C-27.74368979 48.75718662 -27.76913429 45.21166347 -28.1875 40.5 C-28.30810791 39.294646 -28.30810791 39.294646 -28.43115234 38.06494141 C-28.99869684 32.03735258 -29.24001598 26.05373634 -29 20 C-28.14019531 19.53851563 -27.28039062 19.07703125 -26.39453125 18.6015625 C-16.95192218 13.42830403 -7.65935626 7.65935626 0 0 Z " fill="#FAC8BF" transform="translate(259,178)"/>
<path d="M0 0 C3.49970186 3.3034569 6.35792904 6.92473173 9.25 10.75 C9.93835938 11.65298828 9.93835938 11.65298828 10.640625 12.57421875 C11.76308619 14.04744906 12.88191534 15.52344544 14 17 C13.2884375 17.56074219 12.576875 18.12148438 11.84375 18.69921875 C4.72841048 24.45599757 -2.08930861 30.21062745 -7 38 C-14.6978616 31.80824175 -22.16084775 24.68847791 -27 16 C-9.87426557 3.29142186 -9.87426557 3.29142186 0 0 Z " fill="#D4E3EC" transform="translate(382,383)"/>
<path d="M0 0 C5.95221261 4.5866437 12.21687886 9.5888579 13.35693359 17.46630859 C13.69291695 23.33064908 13.41280377 29.14621322 13 35 C-7.84599814 36.29735045 -7.84599814 36.29735045 -13.4375 31.8125 C-14.65980445 30.57510538 -15.85084655 29.30561096 -17 28 C-18.17138176 27.0016071 -19.35742647 26.01995568 -20.5625 25.0625 C-21.366875 24.381875 -22.17125 23.70125 -23 23 C-19.93547548 19.93547548 -15.68553608 20.04750021 -11.49804688 19.58398438 C-9.20669346 19.28739692 -9.20669346 19.28739692 -6 18 C-3.69594703 14.03059458 -2.63646063 10.12454006 -1.875 5.625 C-1.09489051 1.09489051 -1.09489051 1.09489051 0 0 Z " fill="#AABCD6" transform="translate(81,106)"/>
<path d="M0 0 C2.55116434 1.27558217 2.68282276 2.2070569 3.7265625 4.81640625 C4.190625 5.96206055 4.190625 5.96206055 4.6640625 7.13085938 C4.98117188 7.93330078 5.29828125 8.73574219 5.625 9.5625 C6.11226562 10.77196289 6.11226562 10.77196289 6.609375 12.00585938 C7.41234106 14.0014662 8.20695702 16.00042907 9 18 C1.89834278 24.90877271 -5.93948121 31.42578213 -16 33 C-16.33 33.99 -16.66 34.98 -17 36 C-17.67635064 32.79363027 -18.33932448 29.58463311 -19 26.375 C-19.19078125 25.47136719 -19.3815625 24.56773437 -19.578125 23.63671875 C-20.52210398 19.01796444 -21.25214768 14.74352828 -21 10 C-19.85724609 9.67128906 -19.85724609 9.67128906 -18.69140625 9.3359375 C-11.60792587 7.1604866 -5.90793053 4.47570495 0 0 Z " fill="#DFEAF1" transform="translate(86,274)"/>
<path d="M0 0 C0.1706212 3.8355646 0.05731508 7.29431396 -1 11 C-3.64641027 13.73427937 -6.519083 15.48628013 -10 17 C-10.66 17 -11.32 17 -12 17 C-11.67515625 18.03511719 -11.3503125 19.07023437 -11.015625 20.13671875 C-9.48243676 26.29520542 -9.70996648 32.50388372 -9.75 38.8125 C-9.74226563 40.01970703 -9.73453125 41.22691406 -9.7265625 42.47070312 C-9.74786519 52.31787012 -10.83655708 61.37024507 -14.125 70.6875 C-14.65480469 72.20923828 -14.65480469 72.20923828 -15.1953125 73.76171875 C-15.46085937 74.50035156 -15.72640625 75.23898437 -16 76 C-19.03125 72.421875 -19.03125 72.421875 -18.75 68.625 C-18.5025 67.42875 -18.255 66.2325 -18 65 C-14.61320813 48.1656522 -17.0216998 29.94213386 -23 14 C-20.81550594 12.4123788 -18.62758405 10.82987826 -16.4375 9.25 C-15.52387695 8.58484375 -15.52387695 8.58484375 -14.59179688 7.90625 C-3.60443474 0 -3.60443474 0 0 0 Z " fill="#E48482" transform="translate(344,261)"/>
<path d="M0 0 C4.57715783 1.48053852 6.29400689 5.19243522 8.5625 9.125 C8.94857422 9.764375 9.33464844 10.40375 9.73242188 11.0625 C13.07636302 16.73637629 16 22.29163846 16 29 C12.58789799 30.98711598 9.16958064 32.96328601 5.75 34.9375 C4.78191406 35.50146484 3.81382813 36.06542969 2.81640625 36.64648438 C1.41455078 37.45375977 1.41455078 37.45375977 -0.015625 38.27734375 C-1.30388184 39.02359009 -1.30388184 39.02359009 -2.61816406 39.78491211 C-4.77633041 40.8858955 -6.63383748 41.53778404 -9 42 C-8.14149489 37.89013512 -7.29050098 33.85441464 -5.9375 29.875 C-3.73562083 23.12257055 -3.73878845 16.00473148 -3.5703125 8.96484375 C-3.33472578 3.43837183 -3.33472578 3.43837183 -1.4609375 0.984375 C-0.97882813 0.65953125 -0.49671875 0.3346875 0 0 Z " fill="#F3F9FA" transform="translate(116,301)"/>
<path d="M0 0 C2.65845673 2.37000248 4.11161791 4.81984154 5.6875 8 C6.12449219 8.86625 6.56148438 9.7325 7.01171875 10.625 C8 13 8 13 8 16 C6.34765625 17.47265625 6.34765625 17.47265625 4.0625 19.0625 C-1.59154482 23.25599125 -7.80460084 28.60920169 -11 35 C-11.66 35 -12.32 35 -13 35 C-19.2955665 21.50950035 -19.2955665 21.50950035 -18.86328125 14.9140625 C-15.85984384 8.25485738 -6.0911875 3.60959259 0 0 Z " fill="#F0F7F9" transform="translate(354,339)"/>
<path d="M0 0 C2.125 1.125 2.125 1.125 5 3 C5.57363281 3.36738281 6.14726562 3.73476563 6.73828125 4.11328125 C8.70403605 5.6452143 9.84712815 6.77691504 11 9 C11.00766338 14.44865998 9.41242521 19.5443816 7.9375 24.75 C6.97349713 28.15998031 6.92259102 31.42676632 6.86206055 34.95825195 C6.65622638 43.95715963 6.65622638 43.95715963 4.48828125 47.40234375 C2.68005088 49.01345047 1.2760389 50.17009062 -1 51 C-1.99 50.67 -2.98 50.34 -4 50 C-3.855625 49.46117187 -3.71125 48.92234375 -3.5625 48.3671875 C-0.33600459 34.07202035 -0.56563078 17.98937908 -5 4 C-3.35 2.68 -1.7 1.36 0 0 Z " fill="#E58683" transform="translate(159,268)"/>
<path d="M0 0 C1.65 1.65 3.3 3.3 5 5 C5.59425781 5.55300781 6.18851563 6.10601562 6.80078125 6.67578125 C11.66208105 11.93904899 11.51826292 16.90495579 11.3059082 23.71606445 C11.22486162 25.478463 11.11537157 27.23951524 11 29 C-5.90403587 30.53363229 -5.90403587 30.53363229 -11.04296875 26.7734375 C-12.98596887 24.26063224 -14.59303993 21.84439581 -16 19 C-13.28060541 17.5423065 -10.75245727 16.57557336 -7.75 15.875 C-6.5125 15.58625 -5.275 15.2975 -4 15 C-2.68 10.05 -1.36 5.1 0 0 Z " fill="#A5B8D1" transform="translate(113,90)"/>
<path d="M0 0 C0.33 0 0.66 0 1 0 C1.25183485 12.06009132 0.84461624 22.56543565 -3.4140625 33.9921875 C-4.18676229 36.29137835 -4.18676229 36.29137835 -4 40 C-6.26504965 41.19984797 -8.53589888 42.38494769 -10.8125 43.5625 C-11.77639648 44.07586914 -11.77639648 44.07586914 -12.75976562 44.59960938 C-14.46926395 45.4765023 -16.23321294 46.24515617 -18 47 C-18.99 46.67 -19.98 46.34 -21 46 C-20.55269531 45.175 -20.10539062 44.35 -19.64453125 43.5 C-13.90578017 32.53641584 -9.58440505 21.55670871 -8.0625 9.1875 C-7.6640625 6.3046875 -7.6640625 6.3046875 -7 4 C-3.9375 1.8125 -3.9375 1.8125 -1 1 C-0.67 0.67 -0.34 0.34 0 0 Z " fill="#B0C8DC" transform="translate(112,304)"/>
<path d="M0 0 C0.66 0 1.32 0 2 0 C2.495 7.92 2.495 7.92 3 16 C2.67 16 2.34 16 2 16 C1.67 14.35 1.34 12.7 1 11 C0.08734375 11.8353125 0.08734375 11.8353125 -0.84375 12.6875 C-7.39078392 18.3872707 -18.82114738 28 -28 28 C-28.33 28.99 -28.66 29.98 -29 31 C-29 27.37 -29 23.74 -29 20 C-28.14019531 19.53851563 -27.28039062 19.07703125 -26.39453125 18.6015625 C-16.95192218 13.42830403 -7.65935626 7.65935626 0 0 Z " fill="#E08381" transform="translate(259,178)"/>
<path d="M0 0 C2.97058312 2.76571532 4.97268271 5.49721396 7 9 C6.17757812 9.20753906 5.35515625 9.41507812 4.5078125 9.62890625 C-3.53314771 11.84806271 -9.50540881 14.79708401 -16 20 C-17.03125 20.804375 -18.0625 21.60875 -19.125 22.4375 C-20.053125 23.2109375 -20.053125 23.2109375 -21 24 C-22.98 21.36 -24.96 18.72 -27 16 C-9.87426557 3.29142186 -9.87426557 3.29142186 0 0 Z " fill="#B0C8DC" transform="translate(382,383)"/>
<path d="M0 0 C2.32472205 2.85306797 3.7508258 5.54074837 5 9 C3.71372289 10.17260611 2.42080217 11.3379283 1.125 12.5 C0.40570313 13.1496875 -0.31359375 13.799375 -1.0546875 14.46875 C-3 16 -3 16 -5 16 C-5.268125 16.57621094 -5.53625 17.15242188 -5.8125 17.74609375 C-7.02862441 20.05432988 -8.40878304 21.997896 -10 24.0625 C-11.75121278 26.34345464 -13.40257851 28.60386777 -15 31 C-15.66 31 -16.32 31 -17 31 C-18.32 27.7 -19.64 24.4 -21 21 C-20.34 21 -19.68 21 -19 21 C-18.73445313 20.41863281 -18.46890625 19.83726562 -18.1953125 19.23828125 C-14.58621297 12.48006546 -8.12382479 6.5048826 -2 2 C-1.34 2 -0.68 2 0 2 C0 1.34 0 0.68 0 0 Z " fill="#B0C9DC" transform="translate(362,353)"/>
<path d="M0 0 C2.571777 5.78649825 4.43589023 11.63459687 3 18 C0.87709212 20.20063449 -0.48471663 20.91813255 -3.5078125 21.3984375 C-4.80332031 21.38683594 -4.80332031 21.38683594 -6.125 21.375 C-7.42824219 21.38660156 -7.42824219 21.38660156 -8.7578125 21.3984375 C-9.49773438 21.26695312 -10.23765625 21.13546875 -11 21 C-13.97051564 16.54422653 -13.62737491 12.22557394 -13 7 C-9.8247715 1.44335012 -6.27834838 -0.34879713 0 0 Z " fill="#F7C8C1" transform="translate(47,230)"/>
<path d="M0 0 C2.17854707 3.2678206 3.49760034 6.38058265 5 10 C-2.10165722 16.90877271 -9.93948121 23.42578213 -20 25 C-20.33 25.99 -20.66 26.98 -21 28 C-21.66 24.37 -22.32 20.74 -23 17 C-22.24976562 16.67128906 -21.49953125 16.34257812 -20.7265625 16.00390625 C-13.18443132 12.49881002 -3.89948138 7.79896277 0 0 Z " fill="#B0C8DB" transform="translate(90,282)"/>
<path d="M0 0 C1.67542976 0.28604898 3.34385343 0.61781233 5 1 C7.66641331 6.98368341 7.22314726 12.96522925 7.125 19.375 C7.11597656 20.49261719 7.10695313 21.61023438 7.09765625 22.76171875 C7.07418346 25.50803462 7.04134728 28.25390472 7 31 C4.36 31 1.72 31 -1 31 C-1.02465622 26.74585377 -1.04283899 22.49174502 -1.05493164 18.23754883 C-1.05997101 16.78929927 -1.06680253 15.34105483 -1.07543945 13.89282227 C-1.08752247 11.81525412 -1.09323211 9.73775303 -1.09765625 7.66015625 C-1.10289307 6.40855713 -1.10812988 5.15695801 -1.11352539 3.86743164 C-1 1 -1 1 0 0 Z " fill="#F3D4CE" transform="translate(72,183)"/>
<path d="M0 0 C2.87109375 2.1875 2.87109375 2.1875 5.4375 5 C6.30246094 5.928125 7.16742188 6.85625 8.05859375 7.8125 C9.01958984 8.8953125 9.01958984 8.8953125 10 10 C8.15014033 13.93951596 5.92434659 16.78321875 3 20 C2.34 20 1.68 20 1 20 C-0.53674364 18.11318735 -1.96661069 16.22910917 -3.375 14.25 C-6.05157392 10.54397457 -8.66636883 7.13574439 -12 4 C-7.98690412 0.10851309 -5.54922386 -0.66400969 0 0 Z " fill="#627B4B" transform="translate(290,201)"/>
<path d="M0 0 C5.34834067 -0.43659924 9.69083932 -0.46284767 14.36328125 2.59765625 C18.33359296 5.99942691 21.4072252 9.96762925 22.875 15 C22.91625 15.66 22.9575 16.32 23 17 C21.56260487 17.02712066 20.12506137 17.04645067 18.6875 17.0625 C17.48673828 17.07990234 17.48673828 17.07990234 16.26171875 17.09765625 C14 17 14 17 11 16 C9.31640625 13.92578125 9.31640625 13.92578125 7.5625 11.3125 C6.9540625 10.41402344 6.345625 9.51554687 5.71875 8.58984375 C5.1515625 7.73519531 4.584375 6.88054688 4 6 C3.33484375 5.01193359 3.33484375 5.01193359 2.65625 4.00390625 C1.76341603 2.67422137 0.88028154 1.33802794 0 0 Z " fill="#91AD80" transform="translate(281,46)"/>
<path d="M0 0 C7.27906971 0.64227086 12.74364027 5.18705052 17.62109375 10.25 C19.3373805 12.42817695 19.91611897 14.23192586 20 17 C18.02 17.66 16.04 18.32 14 19 C13.59910156 18.49210937 13.19820312 17.98421875 12.78515625 17.4609375 C8.42802678 12.18495759 3.86013656 8.50810896 -2 5 C-1.125 1.125 -1.125 1.125 0 0 Z " fill="#F6D8D3" transform="translate(41,198)"/>
<path d="M0 0 C0.33 0 0.66 0 1 0 C2.5180064 6.07202559 3.15962341 11.48461496 0 17 C-0.66 17.99 -1.32 18.98 -2 20 C-2.66 20 -3.32 20 -4 20 C-4.25523437 19.03900391 -4.25523437 19.03900391 -4.515625 18.05859375 C-6.07971217 12.4761337 -8.00908522 7.95047964 -11 3 C-11 2.34 -11 1.68 -11 1 C-7.37 1.33 -3.74 1.66 0 2 C0 1.34 0 0.68 0 0 Z " fill="#60794B" transform="translate(304,61)"/>
<path d="M0 0 C2.178657 3.26798549 2.72208564 4.20905038 2 8 C-0.6875 10.875 -0.6875 10.875 -4 13 C-7.48143326 12.92087652 -8.53354744 12.46645256 -11 10 C-11.46382725 6.44399109 -11.42769679 4.65009912 -9.4375 1.625 C-6.11372447 -0.59085036 -3.91105046 -0.50698802 0 0 Z " fill="#3B3B4B" transform="translate(381,297)"/>
<path d="M0 0 C2.79385205 0.95399826 4.50793962 1.74434479 6.5625 3.875 C6.9375 6.4375 6.9375 6.4375 6.5625 8.875 C4.5625 10.875 4.5625 10.875 1.125 11.1875 C-2.4375 10.875 -2.4375 10.875 -4.375 9.6875 C-5.82468434 7.21450907 -5.86067323 5.69615488 -5.4375 2.875 C-3.78764771 0.26997007 -3.10462903 -0.15921175 0 0 Z " fill="#3F404E" transform="translate(227.4375,274.125)"/>
<path d="M0 0 C1.99609375 0.05078125 1.99609375 0.05078125 4.4375 0.3125 C5.64212891 0.43044922 5.64212891 0.43044922 6.87109375 0.55078125 C9 1 9 1 11 3 C11.25 5.5 11.25 5.5 11 8 C10.34 8.66 9.68 9.32 9 10 C2.10852713 9.67183463 2.10852713 9.67183463 -1.0625 7.75 C-2 6 -2 6 -1.75 3.375 C-1 1 -1 1 0 0 Z " fill="#E88985" transform="translate(188,134)"/>
<path d="M0 0 C2 2 2 2 2.125 4.625 C2.08375 5.40875 2.0425 6.1925 2 7 C-3.24816924 10.05126119 -3.24816924 10.05126119 -6.75 9.8125 C-9 9 -9 9 -11 7 C-10.9375 4.5 -10.9375 4.5 -10 2 C-6.70850695 0.07996239 -3.77508813 -0.40811764 0 0 Z " fill="#E88885" transform="translate(220,134)"/>
<path d="M0 0 C1.44921875 1.609375 1.44921875 1.609375 2.6875 3.75 C3.10386719 4.44609375 3.52023438 5.1421875 3.94921875 5.859375 C4.9564109 7.91120139 5.54252449 9.76792168 6 12 C3.2734375 12.3125 3.2734375 12.3125 0 12 C-2.3359375 9.8125 -2.3359375 9.8125 -4.375 7 C-5.06335938 6.071875 -5.75171875 5.14375 -6.4609375 4.1875 C-6.96882813 3.465625 -7.47671875 2.74375 -8 2 C-4.91190305 0.23537317 -3.76687864 0 0 0 Z " fill="#7B7C8C" transform="translate(105,107)"/>
</svg>
