<?xml version="1.0" encoding="UTF-8"?>
<!DOCTYPE svg PUBLIC "-//W3C//DTD SVG 1.1//EN" "http://www.w3.org/Graphics/SVG/1.1/DTD/svg11.dtd">
<svg xmlns="http://www.w3.org/2000/svg" version="1.1" width="512px" height="512px" style="shape-rendering:geometricPrecision; text-rendering:geometricPrecision; image-rendering:optimizeQuality; fill-rule:evenodd; clip-rule:evenodd" xmlns:xlink="http://www.w3.org/1999/xlink">
<g><path style="opacity:0.999" fill="#231f20" d="M 109.5,31.5 C 189.582,31.0058 269.582,31.5058 349.5,33C 371.695,54.8614 393.529,77.0281 415,99.5C 415.5,151.499 415.667,203.499 415.5,255.5C 425.506,255.334 435.506,255.5 445.5,256C 450,257.833 453.167,261 455,265.5C 455.172,312.874 455.672,360.208 456.5,407.5C 455.764,409.541 454.931,411.541 454,413.5C 441.333,426.167 428.667,438.833 416,451.5C 418.599,466.156 413.099,475.989 399.5,481C 303.5,481.667 207.5,481.667 111.5,481C 97.9008,475.989 92.4008,466.156 95,451.5C 82.3333,438.833 69.6667,426.167 57,413.5C 56.0691,411.541 55.2357,409.541 54.5,407.5C 55.3284,360.208 55.8284,312.874 56,265.5C 57.8333,261 61,257.833 65.5,256C 75.4944,255.5 85.4944,255.334 95.5,255.5C 95.3333,185.499 95.5,115.499 96,45.5C 98.6873,38.981 103.187,34.3143 109.5,31.5 Z"/></g>
<g><path style="opacity:1" fill="#f0f0f0" d="M 113.5,47.5 C 187.5,47.5 261.5,47.5 335.5,47.5C 335.024,67.9254 335.524,88.2587 337,108.5C 337.903,109.701 339.069,110.535 340.5,111C 360.164,111.5 379.831,111.667 399.5,111.5C 399.5,159.5 399.5,207.5 399.5,255.5C 303.5,255.5 207.5,255.5 111.5,255.5C 111.333,186.833 111.5,118.166 112,49.5C 112.717,48.9558 113.217,48.2891 113.5,47.5 Z"/></g>
<g><path style="opacity:1" fill="#b1b1b1" d="M 351.5,59.5 C 363.632,71.1313 375.632,82.9647 387.5,95C 375.505,95.4999 363.505,95.6665 351.5,95.5C 351.5,83.5 351.5,71.5 351.5,59.5 Z"/></g>
<g><path style="opacity:1" fill="#977ba7" d="M 196.5,114.5 C 199.941,114.301 203.274,114.801 206.5,116C 210.41,119.925 210.41,123.925 206.5,128C 202.682,127.823 199.849,129.323 198,132.5C 197.718,141.531 197.051,150.531 196,159.5C 194.475,164.19 191.641,167.857 187.5,170.5C 191.334,173.827 194.168,177.827 196,182.5C 197.21,191.106 197.877,199.773 198,208.5C 198.465,209.931 199.299,211.097 200.5,212C 207.958,212.768 210.458,216.601 208,223.5C 198.91,228.62 191.243,226.954 185,218.5C 184.529,216.754 183.862,215.087 183,213.5C 182.667,204.5 182.333,195.5 182,186.5C 179.382,181.549 175.716,177.549 171,174.5C 169.161,167.657 171.661,163.157 178.5,161C 180.041,159.421 181.208,157.587 182,155.5C 182.333,146.167 182.667,136.833 183,127.5C 185.442,120.888 189.942,116.555 196.5,114.5 Z"/></g>
<g><path style="opacity:1" fill="#977ba7" d="M 304.5,115.5 C 315.744,113.173 323.578,117.173 328,127.5C 328.333,136.5 328.667,145.5 329,154.5C 329.471,156.246 330.138,157.913 331,159.5C 334,161.833 337,164.167 340,166.5C 342.596,173.145 340.429,177.645 333.5,180C 331.383,181.731 329.883,183.898 329,186.5C 328.667,195.167 328.333,203.833 328,212.5C 326.005,222.178 320.005,226.845 310,226.5C 303.091,226.714 300.425,223.38 302,216.5C 303.934,213.312 306.768,211.812 310.5,212C 311.701,211.097 312.535,209.931 313,208.5C 313.153,199.45 313.82,190.45 315,181.5C 317.075,177.421 319.908,173.921 323.5,171C 319.509,168.011 316.676,164.178 315,159.5C 314.001,150.526 313.335,141.526 313,132.5C 311.113,130.114 308.613,128.947 305.5,129C 300.696,124.717 300.362,120.217 304.5,115.5 Z"/></g>
<g><path style="opacity:1" fill="#9b7faa" d="M 220.5,182.5 C 233.153,179.321 237.987,183.988 235,196.5C 234.5,197 234,197.5 233.5,198C 218.757,201.428 214.423,196.261 220.5,182.5 Z"/></g>
<g><path style="opacity:1" fill="#987ca8" d="M 249.5,182.5 C 263.005,179.843 267.338,185.009 262.5,198C 257.581,198.802 252.748,198.635 248,197.5C 246.955,192.215 247.455,187.215 249.5,182.5 Z"/></g>
<g><path style="opacity:1" fill="#997da8" d="M 278.5,182.5 C 290.665,179.832 295.165,184.498 292,196.5C 291.5,197 291,197.5 290.5,198C 285.913,198.799 281.413,198.632 277,197.5C 275.955,192.215 276.455,187.215 278.5,182.5 Z"/></g>
<g><path style="opacity:1" fill="#9679a6" d="M 71.5,271.5 C 194.167,271.5 316.833,271.5 439.5,271.5C 439.5,314.167 439.5,356.833 439.5,399.5C 316.833,399.5 194.167,399.5 71.5,399.5C 71.5,356.833 71.5,314.167 71.5,271.5 Z"/></g>
<g><path style="opacity:1" fill="#fcfcfd" d="M 200.5,301.5 C 211.735,299.413 221.235,302.413 229,310.5C 230.868,313.605 232.035,316.938 232.5,320.5C 226.833,320.5 221.167,320.5 215.5,320.5C 215.511,315.845 213.178,313.511 208.5,313.5C 203.699,314.134 201.865,316.8 203,321.5C 203.93,323.552 205.43,325.052 207.5,326C 216.238,328.126 224.071,331.96 231,337.5C 237.817,356.49 230.983,366.824 210.5,368.5C 196.365,368.014 187.699,361.014 184.5,347.5C 190.176,347.334 195.843,347.501 201.5,348C 203.027,354.434 207.027,356.767 213.5,355C 217.5,351.333 217.5,347.667 213.5,344C 204.769,341.315 196.603,337.481 189,332.5C 180.699,317.563 184.532,307.23 200.5,301.5 Z"/></g>
<g><path style="opacity:1" fill="#fdfcfd" d="M 265.5,301.5 C 293.283,299.121 307.116,311.788 307,339.5C 301.759,361.381 287.925,370.548 265.5,367C 244.214,358.252 237.047,342.752 244,320.5C 248.56,311.1 255.727,304.767 265.5,301.5 Z"/></g>
<g><path style="opacity:1" fill="#fdfdfd" d="M 161.5,302.5 C 166.5,302.5 171.5,302.5 176.5,302.5C 176.5,318.833 176.5,335.167 176.5,351.5C 175.011,359.618 170.344,365.118 162.5,368C 147.916,370.632 138.083,365.132 133,351.5C 132.503,349.19 132.337,346.857 132.5,344.5C 137.833,344.5 143.167,344.5 148.5,344.5C 148.043,351.88 151.376,354.713 158.5,353C 159.701,352.097 160.535,350.931 161,349.5C 161.5,333.837 161.667,318.17 161.5,302.5 Z"/></g>
<g><path style="opacity:1" fill="#cbbcd3" d="M 161.5,302.5 C 166.64,301.512 171.974,301.179 177.5,301.5C 177.83,318.342 177.497,335.008 176.5,351.5C 176.5,335.167 176.5,318.833 176.5,302.5C 171.5,302.5 166.5,302.5 161.5,302.5 Z"/></g>
<g><path style="opacity:1" fill="#d9cfde" d="M 331.5,302.5 C 326.5,302.5 321.5,302.5 316.5,302.5C 316.5,324.167 316.5,345.833 316.5,367.5C 315.503,345.673 315.169,323.673 315.5,301.5C 321.026,301.179 326.36,301.512 331.5,302.5 Z"/></g>
<g><path style="opacity:1" fill="#fefefe" d="M 331.5,302.5 C 340.31,315.434 349.144,328.434 358,341.5C 358.5,328.504 358.667,315.504 358.5,302.5C 363.5,302.5 368.5,302.5 373.5,302.5C 373.5,324.167 373.5,345.833 373.5,367.5C 368.125,367.828 362.792,367.495 357.5,366.5C 349.248,353.661 340.748,340.994 332,328.5C 331.5,341.496 331.333,354.496 331.5,367.5C 326.5,367.5 321.5,367.5 316.5,367.5C 316.5,345.833 316.5,324.167 316.5,302.5C 321.5,302.5 326.5,302.5 331.5,302.5 Z"/></g>
<g><path style="opacity:1" fill="#e4dce8" d="M 358.5,302.5 C 363.64,301.512 368.974,301.179 374.5,301.5C 374.831,323.673 374.497,345.673 373.5,367.5C 373.5,345.833 373.5,324.167 373.5,302.5C 368.5,302.5 363.5,302.5 358.5,302.5 Z"/></g>
<g><path style="opacity:1" fill="#977ba7" d="M 270.5,315.5 C 285.618,315.784 292.451,323.451 291,338.5C 288.155,349.676 280.989,354.51 269.5,353C 259.678,347.849 255.845,339.682 258,328.5C 258.937,325.344 260.437,322.511 262.5,320C 265.099,318.205 267.766,316.705 270.5,315.5 Z"/></g>
<g><path style="opacity:1" fill="#694d7b" d="M 83.5,416.5 C 87.2984,415.517 91.2984,415.183 95.5,415.5C 95.6655,419.514 95.4988,423.514 95,427.5C 91.2977,423.63 87.4643,419.963 83.5,416.5 Z"/></g>
<g><path style="opacity:1" fill="#efefef" d="M 111.5,415.5 C 207.5,415.5 303.5,415.5 399.5,415.5C 399.667,431.17 399.5,446.837 399,462.5C 398.167,463.333 397.333,464.167 396.5,465C 302.5,465.667 208.5,465.667 114.5,465C 113.667,464.167 112.833,463.333 112,462.5C 111.5,446.837 111.333,431.17 111.5,415.5 Z"/></g>
<g><path style="opacity:1" fill="#694d7b" d="M 415.5,415.5 C 419.514,415.334 423.514,415.501 427.5,416C 423.667,419.833 419.833,423.667 416,427.5C 415.501,423.514 415.334,419.514 415.5,415.5 Z"/></g>
</svg>
