<?xml version="1.0" encoding="UTF-8"?>
<svg version="1.1" xmlns="http://www.w3.org/2000/svg" width="512" height="512">
<path d="M0 0 C6.23160745 4.8646742 9.90124536 11.05150711 13.421875 18.015625 C13.91550537 18.975896 14.40913574 19.93616699 14.91772461 20.92553711 C20.40902188 31.70013409 25.68066355 42.58542452 30.984375 53.453125 C31.45424835 54.41578278 31.9241217 55.37844055 32.40823364 56.37026978 C33.84263328 59.30926601 35.27678803 62.24838168 36.7109375 65.1875 C37.18625412 66.16136154 37.66157074 67.13522308 38.15129089 68.13859558 C40.49069418 72.93185476 42.82856985 77.72584291 45.16308594 82.52148438 C47.31161442 86.93153931 49.4732997 91.33492212 51.64450073 95.7338562 C52.44448861 97.35985584 53.2401192 98.98800766 54.03103638 100.61843872 C59.98713628 112.88883887 65.49705696 122.96651045 78.421875 128.890625 C89.50126645 132.08452919 101.21992405 133.26984005 112.61049271 134.86349297 C115.96781603 135.33394047 119.32402378 135.81172329 122.68002319 136.29151917 C132.2116176 137.65330435 141.74458054 139.00521603 151.27929688 140.3449707 C157.13883118 141.16883608 162.99671933 142.00366597 168.85374069 142.84520149 C171.07051308 143.16149878 173.28787878 143.47366859 175.50584793 143.78146172 C208.6049144 148.37737811 208.6049144 148.37737811 219.26953125 161.09375 C226.45552872 171.19298969 227.77743564 181.75970985 226.421875 193.890625 C223.91384851 204.12851777 217.51207488 211.0995255 210.21875 218.32421875 C209.42212952 219.12038101 208.62550903 219.91654327 207.80474854 220.73683167 C206.12268876 222.41587873 204.43820758 224.09250312 202.75146484 225.7668457 C200.18924503 228.31087826 197.63504881 230.86275187 195.08203125 233.41601562 C193.44057368 235.05255439 191.79866117 236.68863701 190.15625 238.32421875 C189.40075867 239.07859726 188.64526733 239.83297577 187.86688232 240.61021423 C183.82054263 244.62105726 179.68060927 248.44714975 175.36758423 252.16828918 C172.04726902 255.10742198 168.93832181 258.25146213 165.81640625 261.3984375 C165.12931076 262.08694794 164.44221527 262.77545837 163.73429871 263.48483276 C161.56526884 265.65939827 159.39975822 267.83742886 157.234375 270.015625 C155.77171871 271.48330649 154.30882996 272.95075634 152.84570312 274.41796875 C149.57795603 277.69560267 146.31223522 280.9752351 143.04943848 284.25779724 C141.56411235 285.74792759 140.07134467 287.23020131 138.57739258 288.71166992 C131.51878202 295.84703058 127.41338981 304.33975294 127.29077148 314.41308594 C127.32030461 319.86610021 128.09230401 325.02578771 129.07421875 330.37890625 C129.24978302 331.37557816 129.42534729 332.37225006 129.60623169 333.39912415 C129.98563372 335.54783885 130.36880615 337.69589062 130.75540161 339.84332275 C131.36931785 343.2584354 131.97128622 346.67546502 132.57006836 350.09326172 C134.27359935 359.80558931 135.99667204 369.51439794 137.73144531 379.22119141 C138.79486389 385.17625051 139.84309724 391.13383116 140.88259888 397.09310913 C141.27865683 399.34563228 141.68042257 401.59716052 142.08834839 403.8475647 C148.87322444 441.29143468 148.87322444 441.29143468 141.421875 453.890625 C134.34762692 463.58234487 125.41510901 470.78346822 113.421875 472.890625 C98.22428923 474.33993119 86.71756505 467.77957028 73.671875 460.953125 C71.99244138 460.08219256 70.31275166 459.21175379 68.6328125 458.34179688 C59.35591906 453.52609113 50.13994779 448.61176789 40.99633789 443.54711914 C31.79465282 438.48157612 22.45055831 433.69217629 13.109375 428.890625 C12.29847412 428.47280762 11.48757324 428.05499023 10.65209961 427.62451172 C8.30993859 426.41858541 5.96587889 425.21643973 3.62109375 424.015625 C2.92811691 423.65879639 2.23514008 423.30196777 1.52116394 422.93432617 C-10.63866389 416.72989034 -21.31010982 412.12230611 -35.140625 416.265625 C-43.02785092 419.1992264 -50.35067571 423.3220362 -57.72558594 427.33789062 C-63.04005835 430.23073935 -68.37201531 433.09108593 -73.703125 435.953125 C-74.28407928 436.26548096 -74.86503357 436.57783691 -75.46359253 436.8996582 C-86.86451148 443.0263759 -98.3544476 448.97386646 -109.87524414 454.87158203 C-115.81021144 457.91112899 -121.73848501 460.95485791 -127.609375 464.1171875 C-128.47812256 464.58406982 -129.34687012 465.05095215 -130.24194336 465.53198242 C-131.7652169 466.35509278 -133.28474932 467.18519471 -134.79907227 468.0246582 C-144.46633902 473.24443987 -155.06910542 474.5769964 -165.765625 471.765625 C-175.90944387 468.28681532 -184.55404313 461.23533858 -189.453125 451.703125 C-196.86868201 436.11081143 -191.56974414 416.67469512 -188.640625 400.515625 C-188.23548655 398.21145784 -187.83195234 395.9070081 -187.42993164 393.60229492 C-186.37744163 387.58705617 -185.30834562 381.57490857 -184.23400879 375.5635376 C-182.51155073 365.91786863 -180.80825624 356.26886964 -179.11740112 346.61761475 C-178.52692317 343.26723104 -177.92527423 339.91899266 -177.32250977 336.57080078 C-176.95808496 334.50690849 -176.59405063 332.4429472 -176.23046875 330.37890625 C-176.06215546 329.46131027 -175.89384216 328.54371429 -175.72042847 327.59831238 C-173.45917629 314.59081222 -174.27884652 304.0696289 -181.8828125 292.99609375 C-183.47976021 291.01278772 -185.19297897 289.24850537 -186.99890137 287.45765686 C-188.84274571 285.62804719 -190.67504147 283.78723204 -192.50708008 281.94580078 C-196.58600784 277.84895074 -200.66808733 273.75525592 -204.7512207 269.66259766 C-206.50635558 267.90243001 -208.26059243 266.14136643 -210.01391602 264.37939453 C-212.56026494 261.82083922 -215.1098977 259.26559518 -217.66015625 256.7109375 C-218.43438431 255.93154816 -219.20861237 255.15215881 -220.00630188 254.34915161 C-224.08672796 250.26831131 -228.25394533 246.37255279 -232.6254425 242.60632324 C-238.32088789 237.60209666 -243.62551659 232.14990611 -249.00610352 226.81274414 C-250.51249078 225.32295888 -252.02422931 223.83856515 -253.54125977 222.35961914 C-255.75739903 220.19860176 -257.95630451 218.02126266 -260.15234375 215.83984375 C-260.8232756 215.19158127 -261.49420746 214.54331879 -262.18547058 213.87541199 C-271.04499002 204.97609661 -273.890625 195.81355112 -273.890625 183.52709961 C-273.6791923 172.2070407 -269.52758165 163.93892037 -261.578125 155.890625 C-253.10526713 148.65434639 -242.99760872 146.70758056 -232.20996094 145.22070312 C-231.226371 145.07878036 -230.24278107 144.9368576 -229.22938538 144.79063416 C-226.00804137 144.32743508 -222.78530455 143.87478914 -219.5625 143.421875 C-217.30093035 143.09785024 -215.0394778 142.77300719 -212.77813721 142.4473877 C-206.839868 141.59389321 -200.90045558 140.74867089 -194.96063232 139.90606689 C-185.46982557 138.55934988 -175.98021237 137.20442889 -166.49176788 135.84117126 C-163.19902899 135.36996881 -159.90545304 134.9049978 -156.61175537 134.44055176 C-130.88924351 131.68039876 -130.88924351 131.68039876 -110.31137085 117.31011963 C-106.41629387 111.87285415 -103.66707807 105.68992368 -100.72265625 99.703125 C-99.97370022 98.1984008 -99.22390185 96.69409561 -98.47331238 95.19018555 C-96.50072702 91.23164613 -94.5405236 87.26709698 -92.5826416 83.30126953 C-91.01431936 80.12961284 -89.43735253 76.96229753 -87.859869 73.79518986 C-80.01876032 58.05216928 -72.25390916 42.27742291 -64.72436523 26.38256836 C-57.26512402 10.68024891 -51.13541282 0.64271046 -34.578125 -6.109375 C-22.07981606 -9.39041817 -10.84336861 -6.33136288 0 0 Z " fill="#FBC75C" transform="translate(279.578125,23.109375)"/>
<path d="M0 0 C1.19037369 0.1394252 2.38074738 0.2788504 3.60719299 0.42250061 C8.0353288 0.97306691 12.44855872 1.61744189 16.86328125 2.265625 C18.50315411 2.50290705 20.14306263 2.73994281 21.78300476 2.97674561 C25.21041552 3.47335794 28.63703791 3.97504848 32.06323242 4.47998047 C36.42193564 5.12162265 40.78275505 5.74735201 45.1443758 6.36880875 C48.53015331 6.85362985 51.91438083 7.34866964 55.29826927 7.84648895 C56.9038779 8.08116727 58.50999343 8.31240759 60.11663246 8.53992462 C75.06748186 10.66529535 88.68267874 13.08251756 98.84765625 25.203125 C106.03365372 35.30236469 107.35556064 45.86908485 106 58 C103.49197351 68.23789277 97.09019988 75.2089005 89.796875 82.43359375 C88.60194427 83.62783714 88.60194427 83.62783714 87.38287354 84.84620667 C85.70081376 86.52525373 84.01633258 88.20187812 82.32958984 89.8762207 C79.76737003 92.42025326 77.21317381 94.97212687 74.66015625 97.52539062 C73.01869868 99.16192939 71.37678617 100.79801201 69.734375 102.43359375 C68.97888367 103.18797226 68.22339233 103.94235077 67.44500732 104.71958923 C63.39866763 108.73043226 59.25873427 112.55652475 54.94570923 116.27766418 C51.62539402 119.21679698 48.51644681 122.36083713 45.39453125 125.5078125 C44.70743576 126.19632294 44.02034027 126.88483337 43.31242371 127.59420776 C41.14339384 129.76877327 38.97788322 131.94680386 36.8125 134.125 C35.34984371 135.59268149 33.88695496 137.06013134 32.42382812 138.52734375 C29.15608103 141.80497767 25.89036022 145.0846101 22.62756348 148.36717224 C21.14223735 149.85730259 19.64946967 151.33957631 18.15551758 152.82104492 C11.09690702 159.95640558 6.99151481 168.44912794 6.86889648 178.52246094 C6.89842961 183.97547521 7.67042901 189.13516271 8.65234375 194.48828125 C8.82790802 195.48495316 9.00347229 196.48162506 9.18435669 197.50849915 C9.56375872 199.65721385 9.94693115 201.80526562 10.33352661 203.95269775 C10.94744285 207.3678104 11.54941122 210.78484002 12.14819336 214.20263672 C13.85172435 223.91496431 15.57479704 233.62377294 17.30957031 243.33056641 C18.37298889 249.28562551 19.42122224 255.24320616 20.46072388 261.20248413 C20.85678183 263.45500728 21.25854757 265.70653552 21.66647339 267.9569397 C28.45134944 305.40080968 28.45134944 305.40080968 21 318 C13.92575192 327.69171987 4.99323401 334.89284322 -7 337 C-22.19758577 338.44930619 -33.70430995 331.88894528 -46.75 325.0625 C-48.42943362 324.19156756 -50.10912334 323.32112879 -51.7890625 322.45117188 C-61.06595594 317.63546613 -70.28192721 312.72114289 -79.42553711 307.65649414 C-88.62722218 302.59095112 -97.97131669 297.80155129 -107.3125 293 C-108.12340088 292.58218262 -108.93430176 292.16436523 -109.76977539 291.73388672 C-112.11193641 290.52796041 -114.45599611 289.32581473 -116.80078125 288.125 C-117.49375809 287.76817139 -118.18673492 287.41134277 -118.90071106 287.04370117 C-131.06053889 280.83926534 -141.73198482 276.23168111 -155.5625 280.375 C-163.44972592 283.3086014 -170.77255071 287.4314112 -178.14746094 291.44726562 C-183.46193335 294.34011435 -188.79389031 297.20046093 -194.125 300.0625 C-194.70595428 300.37485596 -195.28690857 300.68721191 -195.88546753 301.0090332 C-207.28638648 307.1357509 -218.7763226 313.08324146 -230.29711914 318.98095703 C-236.23208644 322.02050399 -242.16036001 325.06423291 -248.03125 328.2265625 C-248.89999756 328.69344482 -249.76874512 329.16032715 -250.66381836 329.64135742 C-252.1870919 330.46446778 -253.70662432 331.29456971 -255.22094727 332.1340332 C-264.88821402 337.35381487 -275.49098042 338.6863714 -286.1875 335.875 C-296.33131887 332.39619032 -304.97591813 325.34471358 -309.875 315.8125 C-316.17500629 302.56579804 -313.00423898 286.09699764 -310.65625 272.10546875 C-310.4061137 270.57379807 -310.15624159 269.04208423 -309.90661621 267.5103302 C-309.3859536 264.34150156 -308.85299581 261.17502379 -308.3125 258.00952148 C-307.62420293 253.9642866 -306.98240404 249.91306635 -306.35086823 245.85863781 C-305.85278018 242.7103417 -305.3234028 239.56789662 -304.78520203 236.42623329 C-304.5347006 234.93343621 -304.29548578 233.43869657 -304.06819153 231.94219017 C-302.29932204 220.41627663 -302.29932204 220.41627663 -299.2341156 217.07516479 C-297.19907374 215.77039033 -295.25260542 214.86626768 -293 214 C-291.91082275 213.40541992 -290.82164551 212.81083984 -289.69946289 212.19824219 C-288.1021936 211.38081543 -288.1021936 211.38081543 -286.47265625 210.546875 C-285.88582062 210.24502792 -285.29898499 209.94318085 -284.69436646 209.63218689 C-282.81875524 208.66814571 -280.94075973 207.70886926 -279.0625 206.75 C-276.46532373 205.41956804 -273.8691914 204.08711092 -271.2734375 202.75390625 C-270.64050278 202.42916824 -270.00756805 202.10443024 -269.35545349 201.76985168 C-265.74908498 199.91513357 -262.16420917 198.02714503 -258.6015625 196.08984375 C-257.83835693 195.67573242 -257.07515137 195.26162109 -256.28881836 194.83496094 C-254.94697033 194.1022218 -253.60881562 193.36265048 -252.27563477 192.61425781 C-246.2128048 189.31280654 -240.11232777 187.72185074 -233.1875 187.625 C-232.27355469 187.59664062 -231.35960937 187.56828125 -230.41796875 187.5390625 C-219.23393105 189.04730987 -209.05641197 195.34793847 -199.1875 200.5 C-197.60742134 201.3187539 -196.02717871 202.13719143 -194.44677734 202.95532227 C-185.45893916 207.61906869 -176.53583176 212.3863738 -167.67797852 217.29296875 C-158.42529315 222.3839125 -149.02260616 227.18383772 -139.625 232 C-138.81001038 232.41772675 -137.99502075 232.83545349 -137.15533447 233.26583862 C-130.57474846 236.6378225 -130.57474846 236.6378225 -123.98468018 239.99121094 C-122.60635384 240.69179764 -121.23119405 241.39863525 -119.85858154 242.11035156 C-118.81169159 242.64740723 -118.81169159 242.64740723 -117.74365234 243.1953125 C-117.12066254 243.51773926 -116.49767273 243.84016602 -115.85580444 244.17236328 C-106.94075573 248.14822491 -95.67472026 246.75929333 -86.8203125 243.3828125 C-78.08525786 239.09997408 -71.9673372 232.8862992 -68 224 C-62.31429325 206.90441801 -67.35555292 187.94056135 -70.5625 170.8125 C-71.02110801 168.29628147 -71.47804074 165.77975705 -71.93334961 163.26293945 C-72.8455596 158.22896802 -73.76545217 153.19649969 -74.69140625 148.16503906 C-75.89144695 141.62372234 -77.05128576 135.07611672 -78.1875 128.5234375 C-78.3504808 127.58354477 -78.51346161 126.64365204 -78.68138123 125.67527771 C-79.14234592 123.01278709 -79.60246024 120.35015056 -80.0625 117.6875 C-80.6135378 114.50349285 -81.16709034 111.31993864 -81.72265625 108.13671875 C-81.94703369 106.84467529 -82.17141113 105.55263184 -82.40258789 104.22143555 C-82.74282458 102.38677143 -83.11136851 100.55558476 -83.56494141 98.74560547 C-85.77457368 89.87979698 -84.31281301 79.95679406 -80 72 C-76.24622988 66.55612358 -72.04854997 61.75971755 -67.3515625 57.12109375 C-66.42722916 56.19744774 -66.42722916 56.19744774 -65.48422241 55.25514221 C-64.19074964 53.96466648 -62.89487175 52.67659726 -61.59667969 51.39086914 C-59.63158908 49.44402788 -57.67461229 47.48931088 -55.71875 45.53320312 C-45.38286266 35.22809965 -45.38286266 35.22809965 -40.95703125 31.5 C-37.18675934 28.3019473 -33.82264915 24.76065708 -30.41015625 21.19140625 C-29.20148459 19.93784945 -27.99249573 18.68459842 -26.78320312 17.43164062 C-24.91085154 15.49128417 -23.04659196 13.54553129 -21.20239258 11.57836914 C-19.39666687 9.65723722 -17.56321835 7.76661108 -15.72265625 5.87890625 C-15.18173843 5.28839981 -14.64082062 4.69789337 -14.08351135 4.0894928 C-9.70119201 -0.32488876 -6.10177304 -0.7508451 0 0 Z " fill="#EF9638" transform="translate(400,159)"/>
<path d="M0 0 C9.8098487 0.45415966 17.21558702 3.83336657 24 11 C32.22872811 21.23761948 34.0324276 31.18636592 33.22021484 44.02929688 C31.98485035 55.08457649 24.31690597 62.98432776 16.796875 70.43359375 C15.60194427 71.62783714 15.60194427 71.62783714 14.38287354 72.84620667 C12.70081376 74.52525373 11.01633258 76.20187812 9.32958984 77.8762207 C6.76737003 80.42025326 4.21317381 82.97212687 1.66015625 85.52539062 C0.01869868 87.16192939 -1.62321383 88.79801201 -3.265625 90.43359375 C-4.02111633 91.18797226 -4.77660767 91.94235077 -5.55499268 92.71958923 C-9.60133237 96.73043226 -13.74126573 100.55652475 -18.05429077 104.27766418 C-21.37460598 107.21679698 -24.48355319 110.36083713 -27.60546875 113.5078125 C-28.29256424 114.19632294 -28.97965973 114.88483337 -29.68757629 115.59420776 C-31.85660616 117.76877327 -34.02211678 119.94680386 -36.1875 122.125 C-37.65015629 123.59268149 -39.11304504 125.06013134 -40.57617188 126.52734375 C-43.84391897 129.80497767 -47.10963978 133.0846101 -50.37243652 136.36717224 C-51.85776265 137.85730259 -53.35053033 139.33957631 -54.84448242 140.82104492 C-61.90309298 147.95640558 -66.00848519 156.44912794 -66.13110352 166.52246094 C-66.10157039 171.97547521 -65.32957099 177.13516271 -64.34765625 182.48828125 C-64.17209198 183.48495316 -63.99652771 184.48162506 -63.81564331 185.50849915 C-63.43624128 187.65721385 -63.05306885 189.80526562 -62.66647339 191.95269775 C-62.05255715 195.3678104 -61.45058878 198.78484002 -60.85180664 202.20263672 C-59.14827565 211.91496431 -57.42520296 221.62377294 -55.69042969 231.33056641 C-54.62701111 237.28562551 -53.57877776 243.24320616 -52.53927612 249.20248413 C-52.14321817 251.45500728 -51.74145243 253.70653552 -51.33352661 255.9569397 C-44.54865056 293.40080968 -44.54865056 293.40080968 -52 306 C-59.07424808 315.69171987 -68.00676599 322.89284322 -80 325 C-95.19758577 326.44930619 -106.70430995 319.88894528 -119.75 313.0625 C-121.42943362 312.19156756 -123.10912334 311.32112879 -124.7890625 310.45117188 C-134.06595594 305.63546613 -143.28192721 300.72114289 -152.42553711 295.65649414 C-161.62722218 290.59095112 -170.97131669 285.80155129 -180.3125 281 C-181.12340088 280.58218262 -181.93430176 280.16436523 -182.76977539 279.73388672 C-185.11193641 278.52796041 -187.45599611 277.32581473 -189.80078125 276.125 C-190.49375809 275.76817139 -191.18673492 275.41134277 -191.90071106 275.04370117 C-204.06053889 268.83926534 -214.73198482 264.23168111 -228.5625 268.375 C-236.44972592 271.3086014 -243.77255071 275.4314112 -251.14746094 279.44726562 C-256.46193335 282.34011435 -261.79389031 285.20046093 -267.125 288.0625 C-267.70595428 288.37485596 -268.28690857 288.68721191 -268.88546753 289.0090332 C-280.28638648 295.1357509 -291.7763226 301.08324146 -303.29711914 306.98095703 C-309.23208644 310.02050399 -315.16036001 313.06423291 -321.03125 316.2265625 C-321.89999756 316.69344482 -322.76874512 317.16032715 -323.66381836 317.64135742 C-325.1870919 318.46446778 -326.70662432 319.29456971 -328.22094727 320.1340332 C-337.88821402 325.35381487 -348.49098042 326.6863714 -359.1875 323.875 C-370.43923477 320.01623198 -378.74695795 312.13367264 -384.15234375 301.72265625 C-385.2969667 298.04614843 -385.05325135 294.84955698 -385 291 C-383.97221436 290.95278809 -382.94442871 290.90557617 -381.88549805 290.85693359 C-369.94818621 290.03970888 -361.18784871 286.3535231 -350.8125 280.625 C-349.26234595 279.79578307 -347.71089372 278.96898877 -346.15820312 278.14453125 C-341.75370356 275.7961799 -337.37507498 273.40258914 -333 271 C-331.02497888 269.92403981 -329.04975592 268.84844991 -327.07421875 267.7734375 C-324.55432372 266.39858239 -322.0366611 265.0202833 -319.52490234 263.63061523 C-309.29289556 257.99247201 -298.87073049 252.71599043 -288.46679688 247.40429688 C-287.0286354 246.66929125 -285.59048417 245.93426556 -284.15234375 245.19921875 C-283.45700531 244.84471649 -282.76166687 244.49021423 -282.04525757 244.12496948 C-276.54183254 241.30807787 -271.12632065 238.35306655 -265.73657227 235.32348633 C-260.76296298 232.91810351 -255.82512846 232.76595674 -250.375 232.6875 C-249.06273437 232.65011719 -247.75046875 232.61273438 -246.3984375 232.57421875 C-236.20283064 233.08094933 -226.79940379 238.95460067 -218 243.625 C-216.79841257 244.25654401 -215.59650343 244.88747625 -214.39428711 245.51782227 C-212.01064867 246.76900228 -209.62955371 248.02466912 -207.24951172 249.28271484 C-204.50459174 250.73333597 -201.75602021 252.17637724 -199.00390625 253.61328125 C-190.96478143 257.8159871 -182.96397588 262.08822264 -174.97241211 266.38061523 C-164.33920101 272.09178329 -153.6934136 277.77716357 -143 283.375 C-141.42484619 284.20511597 -141.42484619 284.20511597 -139.81787109 285.05200195 C-138.84672363 285.55820068 -137.87557617 286.06439941 -136.875 286.5859375 C-135.60269531 287.25181885 -135.60269531 287.25181885 -134.3046875 287.93115234 C-126.41275442 291.59120351 -115.27630935 291.15419267 -106.875 289.31640625 C-104.41532878 288.39018631 -102.25556319 287.34579142 -100 286 C-99.28585937 285.57589844 -98.57171875 285.15179688 -97.8359375 284.71484375 C-89.21638299 278.92004961 -85.06318561 270.31493081 -82.3125 260.5625 C-81.46140289 253.58350372 -82.13802784 246.86159489 -83.3293457 239.97045898 C-83.47083038 239.11702408 -83.61231506 238.26358917 -83.75808716 237.3842926 C-84.22365225 234.58700385 -84.69957317 231.79158858 -85.17578125 228.99609375 C-85.5054922 227.02956424 -85.8345985 225.06293327 -86.16313171 223.09620667 C-87.02837335 217.92770083 -87.90263174 212.76075825 -88.77856445 207.59405518 C-89.48563896 203.41392573 -90.18616422 199.23271176 -90.88633442 195.05142117 C-91.73044619 190.01174643 -92.57778131 184.97261551 -93.42578125 179.93359375 C-93.58388086 178.99330259 -93.74198048 178.05301144 -93.90487099 177.08422661 C-95.64079019 166.77660752 -97.43333545 156.48806543 -99.43049622 146.22753906 C-101.63014877 133.76148572 -100.33958706 122.83955922 -93.56167603 112.17483521 C-90.6911604 108.17727212 -87.19931252 104.81420779 -83.69921875 101.37109375 C-82.90401321 100.57776138 -82.10880768 99.78442902 -81.289505 98.96705627 C-79.61456398 97.29880562 -77.93604496 95.63414039 -76.25415039 93.97290039 C-73.69876136 91.44862424 -71.15415327 88.91387901 -68.61132812 86.37695312 C-66.97457785 84.74937675 -65.33722759 83.12240348 -63.69921875 81.49609375 C-62.57068733 80.37393715 -62.57068733 80.37393715 -61.4193573 79.22911072 C-57.37397824 75.23741234 -53.23474416 71.42463713 -48.93351746 67.71138 C-45.69415493 64.84418052 -42.65853212 61.78149366 -39.61328125 58.7109375 C-38.94838181 58.04462311 -38.28348236 57.37830872 -37.59843445 56.69180298 C-35.50073241 54.5885683 -33.40655144 52.4818687 -31.3125 50.375 C-29.89802104 48.95549538 -28.48330932 47.53622265 -27.06835938 46.1171875 C-23.90635111 42.94529192 -20.7467557 39.77101322 -17.58888245 36.59500122 C-16.11836091 35.11881672 -14.6428895 33.64756758 -13.16699219 32.17675781 C-4.01759579 22.98612935 -0.49777278 12.86742644 0 0 Z " fill="#F68426" transform="translate(473,171)"/>
</svg>
