<?xml version="1.0" encoding="UTF-8"?>
<!DOCTYPE svg PUBLIC "-//W3C//DTD SVG 1.1//EN" "http://www.w3.org/Graphics/SVG/1.1/DTD/svg11.dtd">
<svg xmlns="http://www.w3.org/2000/svg" version="1.1" width="512px" height="512px" style="shape-rendering:geometricPrecision; text-rendering:geometricPrecision; image-rendering:optimizeQuality; fill-rule:evenodd; clip-rule:evenodd" xmlns:xlink="http://www.w3.org/1999/xlink">
<g><path style="opacity:0.996" fill="#202023" d="M 139.5,-0.5 C 195.5,-0.5 251.5,-0.5 307.5,-0.5C 329.772,21.2712 351.938,43.2712 374,65.5C 375.468,80.7371 375.968,96.0704 375.5,111.5C 388.837,111.333 402.171,111.5 415.5,112C 428,115.167 435.833,123 439,135.5C 439.987,203.878 439.653,272.211 438,340.5C 432.894,354.606 423.061,363.44 408.5,367C 377.5,367.667 346.5,367.667 315.5,367C 312.479,365.461 311.146,362.961 311.5,359.5C 311.544,355.91 313.211,353.41 316.5,352C 345.833,351.667 375.167,351.333 404.5,351C 413.573,348.261 419.74,342.427 423,333.5C 423.5,278.168 423.667,222.834 423.5,167.5C 423.666,157.828 423.5,148.161 423,138.5C 420.833,133.667 417.333,130.167 412.5,128C 400.171,127.5 387.838,127.333 375.5,127.5C 375.5,138.167 375.5,148.833 375.5,159.5C 384.173,159.334 392.84,159.5 401.5,160C 405.518,160.863 407.518,163.363 407.5,167.5C 407.513,171.65 405.513,174.15 401.5,175C 343.833,175.667 286.167,175.667 228.5,175C 227.421,174.044 226.255,173.211 225,172.5C 214.333,155.167 203.667,137.833 193,120.5C 191.068,117.116 188.568,114.282 185.5,112C 153.748,111.015 122.081,111.349 90.5,113C 89.2986,113.903 88.4652,115.069 88,116.5C 87.3333,188.833 87.3333,261.167 88,333.5C 91.1667,342 97,347.833 105.5,351C 134.833,351.333 164.167,351.667 193.5,352C 197.518,352.863 199.518,355.363 199.5,359.5C 199.854,362.961 198.521,365.461 195.5,367C 164.5,367.667 133.5,367.667 102.5,367C 86.3333,362.833 76.1667,352.667 72,336.5C 71.3333,261.833 71.3333,187.167 72,112.5C 74.8333,104.333 80.3333,98.8333 88.5,96C 104.163,95.5001 119.83,95.3334 135.5,95.5C 135.333,64.8315 135.5,34.1649 136,3.5C 136.69,1.64977 137.856,0.316435 139.5,-0.5 Z"/></g>
<g><path style="opacity:1" fill="#47abfe" d="M 151.5,15.5 C 199.5,15.5 247.5,15.5 295.5,15.5C 295.035,35.9006 295.535,56.2339 297,76.5C 297.903,77.7014 299.069,78.5348 300.5,79C 320.164,79.5 339.831,79.6666 359.5,79.5C 359.5,106.167 359.5,132.833 359.5,159.5C 318.165,159.667 276.832,159.5 235.5,159C 224.541,141.584 213.708,124.084 203,106.5C 198.861,100.848 193.361,97.3481 186.5,96C 174.838,95.5001 163.171,95.3335 151.5,95.5C 151.5,68.8333 151.5,42.1667 151.5,15.5 Z"/></g>
<g><path style="opacity:1" fill="#327eee" d="M 311.5,27.5 C 323.632,39.1313 335.632,50.9647 347.5,63C 335.505,63.4999 323.505,63.6665 311.5,63.5C 311.5,51.5 311.5,39.5 311.5,27.5 Z"/></g>
<g><path style="opacity:1" fill="#202023" d="M 172.5,31.5 C 203.502,31.3334 234.502,31.5 265.5,32C 271.462,34.4048 272.962,38.5714 270,44.5C 268.829,45.8932 267.329,46.7265 265.5,47C 234.5,47.6667 203.5,47.6667 172.5,47C 165.889,41.798 165.889,36.6314 172.5,31.5 Z"/></g>
<g><path style="opacity:1" fill="#202023" d="M 172.5,63.5 C 203.502,63.3334 234.502,63.5 265.5,64C 271.462,66.4048 272.962,70.5714 270,76.5C 268.829,77.8932 267.329,78.7265 265.5,79C 234.5,79.6667 203.5,79.6667 172.5,79C 165.889,73.798 165.889,68.6314 172.5,63.5 Z"/></g>
<g><path style="opacity:1" fill="#202023" d="M 228.5,95.5 C 262.168,95.3333 295.835,95.5 329.5,96C 335.462,98.4048 336.962,102.571 334,108.5C 332.829,109.893 331.329,110.727 329.5,111C 295.833,111.667 262.167,111.667 228.5,111C 221.889,105.798 221.889,100.631 228.5,95.5 Z"/></g>
<g><path style="opacity:1" fill="#fbd253" d="M 407.5,167.5 C 412.833,167.5 418.167,167.5 423.5,167.5C 423.667,222.834 423.5,278.168 423,333.5C 419.74,342.427 413.573,348.261 404.5,351C 375.167,351.333 345.833,351.667 316.5,352C 313.211,353.41 311.544,355.91 311.5,359.5C 306.167,359.5 300.833,359.5 295.5,359.5C 295.5,340.833 295.5,322.167 295.5,303.5C 309.504,303.667 323.504,303.5 337.5,303C 342.335,301.207 344.168,297.707 343,292.5C 315.862,264.361 288.362,236.528 260.5,209C 257.134,207.121 253.8,207.121 250.5,209C 222.638,236.528 195.138,264.361 168,292.5C 166.989,297.149 168.489,300.649 172.5,303C 186.829,303.5 201.163,303.667 215.5,303.5C 215.5,322.167 215.5,340.833 215.5,359.5C 210.167,359.5 204.833,359.5 199.5,359.5C 199.518,355.363 197.518,352.863 193.5,352C 164.167,351.667 134.833,351.333 105.5,351C 97,347.833 91.1667,342 88,333.5C 87.3333,261.167 87.3333,188.833 88,116.5C 88.4652,115.069 89.2986,113.903 90.5,113C 122.081,111.349 153.748,111.015 185.5,112C 188.568,114.282 191.068,117.116 193,120.5C 203.667,137.833 214.333,155.167 225,172.5C 226.255,173.211 227.421,174.044 228.5,175C 286.167,175.667 343.833,175.667 401.5,175C 405.513,174.15 407.513,171.65 407.5,167.5 Z"/></g>
<g><path style="opacity:1" fill="#202023" d="M 244.5,127.5 C 272.835,127.333 301.169,127.5 329.5,128C 335.462,130.405 336.962,134.571 334,140.5C 332.829,141.893 331.329,142.727 329.5,143C 301.167,143.667 272.833,143.667 244.5,143C 237.889,137.798 237.889,132.631 244.5,127.5 Z"/></g>
<g><path style="opacity:1" fill="#feb025" d="M 423.5,167.5 C 418.167,167.5 412.833,167.5 407.5,167.5C 407.518,163.363 405.518,160.863 401.5,160C 392.84,159.5 384.173,159.334 375.5,159.5C 375.5,148.833 375.5,138.167 375.5,127.5C 387.838,127.333 400.171,127.5 412.5,128C 417.333,130.167 420.833,133.667 423,138.5C 423.5,148.161 423.666,157.828 423.5,167.5 Z"/></g>
<g><path style="opacity:0.999" fill="#212124" d="M 295.5,359.5 C 295.667,374.17 295.5,388.837 295,403.5C 294.5,405.333 293.333,406.5 291.5,407C 284.252,409.226 280.252,406.726 279.5,399.5C 279.333,363.832 279.5,328.165 280,292.5C 280.833,290.333 282.333,288.833 284.5,288C 294.833,287.667 305.167,287.333 315.5,287C 295.653,266.986 275.653,247.153 255.5,227.5C 235.347,247.153 215.347,266.986 195.5,287C 205.5,287.333 215.5,287.667 225.5,288C 228.232,288.398 230.065,289.898 231,292.5C 231.5,328.165 231.667,363.832 231.5,399.5C 230.748,406.726 226.748,409.226 219.5,407C 217.667,406.5 216.5,405.333 216,403.5C 215.5,388.837 215.333,374.17 215.5,359.5C 215.5,340.833 215.5,322.167 215.5,303.5C 201.163,303.667 186.829,303.5 172.5,303C 168.489,300.649 166.989,297.149 168,292.5C 195.138,264.361 222.638,236.528 250.5,209C 253.8,207.121 257.134,207.121 260.5,209C 288.362,236.528 315.862,264.361 343,292.5C 344.168,297.707 342.335,301.207 337.5,303C 323.504,303.5 309.504,303.667 295.5,303.5C 295.5,322.167 295.5,340.833 295.5,359.5 Z"/></g>
<g><path style="opacity:1" fill="#47abfe" d="M 279.5,399.5 C 263.5,399.5 247.5,399.5 231.5,399.5C 231.667,363.832 231.5,328.165 231,292.5C 230.065,289.898 228.232,288.398 225.5,288C 215.5,287.667 205.5,287.333 195.5,287C 215.347,266.986 235.347,247.153 255.5,227.5C 275.653,247.153 295.653,266.986 315.5,287C 305.167,287.333 294.833,287.667 284.5,288C 282.333,288.833 280.833,290.333 280,292.5C 279.5,328.165 279.333,363.832 279.5,399.5 Z"/></g>
<g><path style="opacity:0.985" fill="#202023" d="M 219.5,423.5 C 222.187,423.336 224.854,423.503 227.5,424C 229.333,424.5 230.5,425.667 231,427.5C 231.667,443.5 231.667,459.5 231,475.5C 229.471,478.516 226.971,479.849 223.5,479.5C 220.029,479.849 217.529,478.516 216,475.5C 215.333,459.5 215.333,443.5 216,427.5C 216.69,425.65 217.856,424.316 219.5,423.5 Z"/></g>
<g><path style="opacity:0.99" fill="#202023" d="M 259.5,511.5 C 256.833,511.5 254.167,511.5 251.5,511.5C 249.856,510.684 248.69,509.35 248,507.5C 247.333,480.833 247.333,454.167 248,427.5C 249.529,424.484 252.029,423.151 255.5,423.5C 258.971,423.151 261.471,424.484 263,427.5C 263.667,454.167 263.667,480.833 263,507.5C 262.31,509.35 261.144,510.684 259.5,511.5 Z"/></g>
<g><path style="opacity:0.985" fill="#202023" d="M 283.5,423.5 C 286.187,423.336 288.854,423.503 291.5,424C 293.333,424.5 294.5,425.667 295,427.5C 295.667,443.5 295.667,459.5 295,475.5C 293.471,478.516 290.971,479.849 287.5,479.5C 284.029,479.849 281.529,478.516 280,475.5C 279.333,459.5 279.333,443.5 280,427.5C 280.69,425.65 281.856,424.316 283.5,423.5 Z"/></g>
</svg>
