<?xml version="1.0" encoding="UTF-8"?>
<svg version="1.1" xmlns="http://www.w3.org/2000/svg" width="512" height="512">
<path d="M0 0 C1.26656433 -0.00241196 2.53312866 -0.00482391 3.83807373 -0.00730896 C6.50490841 -0.00633245 9.16947132 0.00438792 11.8359375 0.03198242 C15.24812147 0.06620437 18.65880634 0.05998811 22.071064 0.04131985 C25.33913005 0.02820561 28.60696644 0.04645774 31.875 0.0625 C33.09793762 0.05754013 34.32087524 0.05258026 35.58087158 0.04747009 C36.71595154 0.06330643 37.85103149 0.07914276 39.02050781 0.09545898 C40.51653534 0.10475685 40.51653534 0.10475685 42.04278564 0.11424255 C45.39747321 0.77094747 46.6169778 1.94090254 48.671875 4.62890625 C48.671875 5.61890625 48.671875 6.60890625 48.671875 7.62890625 C55.271875 7.62890625 61.871875 7.62890625 68.671875 7.62890625 C69.001875 5.97890625 69.331875 4.32890625 69.671875 2.62890625 C72.47856311 -0.17778186 74.22296925 0.37517298 78.15818977 0.36884403 C79.17361292 0.36313553 79.17361292 0.36313553 80.20954967 0.3573117 C82.50046277 0.34692393 84.79113139 0.35091518 87.08206177 0.35475159 C88.73213376 0.35030304 90.38220362 0.34499027 92.03227031 0.33888286 C96.58435413 0.32464586 101.13636985 0.32304065 105.68847275 0.32347977 C110.59117305 0.32183652 115.49384488 0.3087791 120.39653015 0.29728699 C131.12594511 0.27439768 141.85534034 0.26651188 152.5847764 0.26146054 C159.28155596 0.25820751 165.97832975 0.25168735 172.67510605 0.24445915 C191.20785653 0.22488662 209.74060163 0.20848673 228.27336311 0.20558262 C229.46029249 0.20539505 230.64722186 0.20520748 231.87011879 0.20501423 C234.27645516 0.20464797 236.68279154 0.20428427 239.08912791 0.20392311 C240.28368055 0.2037403 241.47823318 0.20355749 242.70898438 0.20336914 C244.50299493 0.20309832 244.50299493 0.20309832 246.33324812 0.20282202 C265.7111794 0.19928071 285.08899953 0.17226388 304.46689226 0.13487125 C324.35069837 0.09680882 344.23444932 0.07742528 364.11829269 0.07712311 C375.28678398 0.076538 386.45514277 0.06801219 397.62360001 0.03912544 C407.13477817 0.01463895 416.64577551 0.00731007 426.15697666 0.02237297 C431.01065261 0.02955354 435.86397135 0.02863514 440.7176075 0.00596237 C445.16164172 -0.01459816 449.60504343 -0.01205475 454.04907058 0.00883722 C455.65614587 0.01233778 457.26326652 0.00739808 458.87028231 -0.00686722 C473.79686812 -0.13082086 473.79686812 -0.13082086 479.12957132 4.04510856 C484.143135 9.19355675 486.23072808 13.69282208 486.33126783 20.90294486 C486.31874999 21.80753241 486.30623214 22.71211997 486.29333496 23.64411926 C486.29972378 24.62480698 486.3061126 25.60549469 486.31269503 26.61590022 C486.32790132 29.88733934 486.30751213 33.15755897 486.28710938 36.42895508 C486.29061174 38.77992147 486.29627163 41.13088549 486.30392456 43.48184204 C486.31816132 49.85549117 486.30112374 56.22870833 486.27763939 62.60231614 C486.25956858 68.59407034 486.26277657 74.58580136 486.26511723 80.57757386 C486.26880324 92.44493765 486.24801378 104.31213366 486.21386719 116.17944336 C486.18074098 127.69641353 486.16661564 139.21320776 486.17285156 150.73022461 C486.17961213 163.27788695 486.17716773 175.8254757 486.15749216 188.37312716 C486.15645268 189.03621353 486.15541319 189.69929989 486.1543422 190.38247978 C486.15330506 191.04307487 486.15226791 191.70366995 486.15119934 192.38428307 C486.1430115 197.68767057 486.14031831 202.99101931 486.14189148 208.29441261 C486.14276805 214.53169246 486.12861567 220.76876111 486.10266495 227.00598526 C486.09548166 229.29939055 486.09342985 231.59281828 486.09678268 233.88623238 C486.1004763 237.00725725 486.085824 240.1276584 486.06628418 243.24861145 C486.07161211 244.16435261 486.07694003 245.08009377 486.08242941 246.02358466 C486.07337277 246.85715576 486.06431613 247.69072686 486.05498505 248.54955769 C486.05341384 249.27010722 486.05184264 249.99065674 486.05022383 250.73304111 C485.54868974 253.24617429 484.73796764 254.13858959 482.671875 255.62890625 C481.351875 255.62890625 480.031875 255.62890625 478.671875 255.62890625 C478.671875 262.22890625 478.671875 268.82890625 478.671875 275.62890625 C480.321875 275.95890625 481.971875 276.28890625 483.671875 276.62890625 C485.7530195 279.75062299 485.93013531 280.50741461 485.97827148 284.06518555 C485.99425888 284.96009201 486.01024628 285.85499847 486.02671814 286.77702332 C486.03208084 287.74263687 486.03744354 288.70825043 486.04296875 289.703125 C486.05199722 290.70092484 486.0610257 291.69872467 486.07032776 292.72676086 C486.08484358 294.84084062 486.09372029 296.95496543 486.09741211 299.0690918 C486.10926696 302.28707913 486.15840513 305.50312297 486.20898438 308.72070312 C486.21845363 310.77733442 486.22568626 312.83397747 486.23046875 314.890625 C486.25000107 315.8461174 486.26953339 316.8016098 486.28965759 317.78605652 C486.24593185 324.33778187 485.03816652 328.67551859 480.671875 333.62890625 C475.37845399 337.97356776 470.87154364 339.36259882 464.11979675 339.25811195 C462.87872136 339.26901276 462.87872136 339.26901276 461.61257374 339.28013378 C458.84565922 339.29835236 456.08013635 339.28104359 453.31323242 339.26382446 C451.30736935 339.26958689 449.30151155 339.27752882 447.29566479 339.28746068 C441.78787586 339.30834035 436.28051991 339.2980135 430.7727294 339.28252959 C424.83125462 339.27122472 418.88985472 339.28867454 412.94839478 339.3024292 C401.98334047 339.32338953 391.01841491 339.32155642 380.0533556 339.30787186 C369.92352558 339.29529181 359.79374615 339.29201162 349.66390991 339.29798508 C348.99185629 339.298367 348.31980267 339.29874893 347.62738379 339.29914243 C344.89926781 339.30069913 342.17115186 339.30229113 339.44303594 339.30394125 C313.85357117 339.3192347 288.2641943 339.30537142 262.6747431 339.27845676 C239.94229467 339.25472887 217.20998628 339.25685202 194.47753906 339.28076172 C168.93474968 339.30753753 143.39203796 339.31815008 117.84923649 339.3027004 C115.12610437 339.30109682 112.40297224 339.29953262 109.67984009 339.29798508 C109.00934034 339.29758969 108.33884059 339.2971943 107.64802267 339.29678694 C97.52479776 339.29110065 87.401629 339.29774891 77.27841187 339.31038284 C65.76730319 339.3246773 54.25635186 339.32062764 42.74526191 339.29397912 C36.8708468 339.28082839 30.99671608 339.2757103 25.12230301 339.29222488 C19.74590887 339.30711094 14.37006305 339.29895786 8.99371874 339.27233712 C7.04766972 339.26674653 5.1015745 339.2696055 3.15555513 339.28171606 C0.51102841 339.29691264 -2.1316182 339.28133891 -4.77604675 339.25811195 C-5.53245575 339.26981778 -6.28886474 339.28152362 -7.06819522 339.29358417 C-12.85243933 339.19197327 -16.85239699 337.27175922 -21.328125 333.62890625 C-27.03912242 327.36376156 -27.04010688 321.06499449 -26.96304321 312.87597656 C-26.97084317 311.60071735 -26.97864312 310.32545815 -26.98667943 309.01155472 C-27.00748405 305.48755738 -26.99726744 301.96424012 -26.98174834 298.44024086 C-26.97041226 294.63373922 -26.98790868 290.82735264 -27.00164795 287.02087402 C-27.02386093 279.57022506 -27.01908789 272.11982819 -27.00458474 264.66916943 C-26.99328484 258.61296205 -26.99176485 252.55682524 -26.99720383 246.50061035 C-26.99796999 245.63809135 -26.99873616 244.77557234 -26.99952554 243.8869164 C-27.00112419 242.1346305 -27.00274526 240.38234462 -27.0043885 238.63005877 C-27.01864031 222.20553178 -27.00226219 205.78114442 -26.97538666 189.35664034 C-26.95304838 175.26894032 -26.95692867 161.18144631 -26.97998047 147.09375 C-27.00674852 130.72731002 -27.01726707 114.36099235 -27.00191915 97.99453354 C-27.00032643 96.24875643 -26.99875458 94.5029793 -26.99720383 92.75720215 C-26.99643245 91.89828534 -26.99566107 91.03936854 -26.99486632 90.15442395 C-26.99055233 84.10670357 -26.99782937 78.05906089 -27.00960159 72.01135254 C-27.02363631 64.63941512 -27.01980636 57.26774383 -26.99319787 49.89583683 C-26.98007256 46.13574645 -26.97488485 42.3760995 -26.99144363 38.61601257 C-27.00913254 34.53756899 -26.98798824 30.4602414 -26.96304321 26.38183594 C-26.97419682 25.19661976 -26.98535043 24.01140358 -26.99684203 22.79027176 C-26.91419792 15.83193869 -26.0336162 10.93311822 -21.328125 5.62890625 C-14.92323882 -0.20960435 -8.36867078 -0.0913318 0 0 Z " fill="#E8F4FD" transform="translate(26.328125,86.37109375)"/>
<path d="M0 0 C1.26656433 -0.00241196 2.53312866 -0.00482391 3.83807373 -0.00730896 C6.50490841 -0.00633245 9.16947132 0.00438792 11.8359375 0.03198242 C15.24812147 0.06620437 18.65880634 0.05998811 22.071064 0.04131985 C25.33913005 0.02820561 28.60696644 0.04645774 31.875 0.0625 C33.09793762 0.05754013 34.32087524 0.05258026 35.58087158 0.04747009 C36.71595154 0.06330643 37.85103149 0.07914276 39.02050781 0.09545898 C40.51653534 0.10475685 40.51653534 0.10475685 42.04278564 0.11424255 C45.39747321 0.77094747 46.6169778 1.94090254 48.671875 4.62890625 C48.671875 5.61890625 48.671875 6.60890625 48.671875 7.62890625 C55.271875 7.62890625 61.871875 7.62890625 68.671875 7.62890625 C69.001875 5.97890625 69.331875 4.32890625 69.671875 2.62890625 C72.47856311 -0.17778186 74.22296925 0.37517298 78.15818977 0.36884403 C79.17361292 0.36313553 79.17361292 0.36313553 80.20954967 0.3573117 C82.50046277 0.34692393 84.79113139 0.35091518 87.08206177 0.35475159 C88.73213376 0.35030304 90.38220362 0.34499027 92.03227031 0.33888286 C96.58435413 0.32464586 101.13636985 0.32304065 105.68847275 0.32347977 C110.59117305 0.32183652 115.49384488 0.3087791 120.39653015 0.29728699 C131.12594511 0.27439768 141.85534034 0.26651188 152.5847764 0.26146054 C159.28155596 0.25820751 165.97832975 0.25168735 172.67510605 0.24445915 C191.20785653 0.22488662 209.74060163 0.20848673 228.27336311 0.20558262 C229.46029249 0.20539505 230.64722186 0.20520748 231.87011879 0.20501423 C234.27645516 0.20464797 236.68279154 0.20428427 239.08912791 0.20392311 C240.28368055 0.2037403 241.47823318 0.20355749 242.70898438 0.20336914 C244.50299493 0.20309832 244.50299493 0.20309832 246.33324812 0.20282202 C265.7111794 0.19928071 285.08899953 0.17226388 304.46689226 0.13487125 C324.35069837 0.09680882 344.23444932 0.07742528 364.11829269 0.07712311 C375.28678398 0.076538 386.45514277 0.06801219 397.62360001 0.03912544 C407.13477817 0.01463895 416.64577551 0.00731007 426.15697666 0.02237297 C431.01065261 0.02955354 435.86397135 0.02863514 440.7176075 0.00596237 C445.16164172 -0.01459816 449.60504343 -0.01205475 454.04907058 0.00883722 C455.65614587 0.01233778 457.26326652 0.00739808 458.87028231 -0.00686722 C473.79686812 -0.13082086 473.79686812 -0.13082086 479.12957132 4.04510856 C484.143135 9.19355675 486.23072808 13.69282208 486.33126783 20.90294486 C486.31874999 21.80753241 486.30623214 22.71211997 486.29333496 23.64411926 C486.29972378 24.62480698 486.3061126 25.60549469 486.31269503 26.61590022 C486.32790132 29.88733934 486.30751213 33.15755897 486.28710938 36.42895508 C486.29061174 38.77992147 486.29627163 41.13088549 486.30392456 43.48184204 C486.31816132 49.85549117 486.30112374 56.22870833 486.27763939 62.60231614 C486.25956858 68.59407034 486.26277657 74.58580136 486.26511723 80.57757386 C486.26880324 92.44493765 486.24801378 104.31213366 486.21386719 116.17944336 C486.18074098 127.69641353 486.16661564 139.21320776 486.17285156 150.73022461 C486.17961213 163.27788695 486.17716773 175.8254757 486.15749216 188.37312716 C486.15645268 189.03621353 486.15541319 189.69929989 486.1543422 190.38247978 C486.15330506 191.04307487 486.15226791 191.70366995 486.15119934 192.38428307 C486.1430115 197.68767057 486.14031831 202.99101931 486.14189148 208.29441261 C486.14276805 214.53169246 486.12861567 220.76876111 486.10266495 227.00598526 C486.09548166 229.29939055 486.09342985 231.59281828 486.09678268 233.88623238 C486.1004763 237.00725725 486.085824 240.1276584 486.06628418 243.24861145 C486.07161211 244.16435261 486.07694003 245.08009377 486.08242941 246.02358466 C486.07337277 246.85715576 486.06431613 247.69072686 486.05498505 248.54955769 C486.05341384 249.27010722 486.05184264 249.99065674 486.05022383 250.73304111 C485.55257109 253.22672525 484.68255566 254.10773048 482.671875 255.62890625 C479.296875 256.12890625 479.296875 256.12890625 475.671875 255.62890625 C474.021875 253.97890625 472.371875 252.32890625 470.671875 250.62890625 C470.671875 196.50890625 470.671875 142.38890625 470.671875 86.62890625 C311.611875 86.62890625 152.551875 86.62890625 -11.328125 86.62890625 C-27.7510624 208.78122667 -27.7510624 208.78122667 -9.328125 322.62890625 C148.741875 322.62890625 306.811875 322.62890625 469.671875 322.62890625 C470.001875 308.76890625 470.331875 294.90890625 470.671875 280.62890625 C475.671875 275.62890625 475.671875 275.62890625 478.734375 275.06640625 C482.51488116 275.79033296 483.43335305 276.4852364 485.671875 279.62890625 C486.28930052 283.01476577 486.25601598 286.36654499 486.23828125 289.80078125 C486.24447983 290.79716614 486.25067841 291.79355103 486.25706482 292.82012939 C486.26416555 294.92825342 486.26098459 297.03643349 486.24829102 299.14453125 C486.23448246 302.3539305 486.26842471 305.56038083 486.30664062 308.76953125 C486.30759243 310.82161529 486.30572973 312.87370295 486.30078125 314.92578125 C486.31403946 315.8781366 486.32729767 316.83049194 486.34095764 317.81170654 C486.25082054 324.33793723 485.01622342 328.69081564 480.671875 333.62890625 C475.37954036 337.97440162 470.87087634 339.36258849 464.11979675 339.25811195 C462.87872136 339.26901276 462.87872136 339.26901276 461.61257374 339.28013378 C458.84565922 339.29835236 456.08013635 339.28104359 453.31323242 339.26382446 C451.30736935 339.26958689 449.30151155 339.27752882 447.29566479 339.28746068 C441.78787586 339.30834035 436.28051991 339.2980135 430.7727294 339.28252959 C424.83125462 339.27122472 418.88985472 339.28867454 412.94839478 339.3024292 C401.98334047 339.32338953 391.01841491 339.32155642 380.0533556 339.30787186 C369.92352558 339.29529181 359.79374615 339.29201162 349.66390991 339.29798508 C348.99185629 339.298367 348.31980267 339.29874893 347.62738379 339.29914243 C344.89926781 339.30069913 342.17115186 339.30229113 339.44303594 339.30394125 C313.85357117 339.3192347 288.2641943 339.30537142 262.6747431 339.27845676 C239.94229467 339.25472887 217.20998628 339.25685202 194.47753906 339.28076172 C168.93474968 339.30753753 143.39203796 339.31815008 117.84923649 339.3027004 C115.12610437 339.30109682 112.40297224 339.29953262 109.67984009 339.29798508 C109.00934034 339.29758969 108.33884059 339.2971943 107.64802267 339.29678694 C97.52479776 339.29110065 87.401629 339.29774891 77.27841187 339.31038284 C65.76730319 339.3246773 54.25635186 339.32062764 42.74526191 339.29397912 C36.8708468 339.28082839 30.99671608 339.2757103 25.12230301 339.29222488 C19.74590887 339.30711094 14.37006305 339.29895786 8.99371874 339.27233712 C7.04766972 339.26674653 5.1015745 339.2696055 3.15555513 339.28171606 C0.51102841 339.29691264 -2.1316182 339.28133891 -4.77604675 339.25811195 C-5.53245575 339.26981778 -6.28886474 339.28152362 -7.06819522 339.29358417 C-12.85243933 339.19197327 -16.85239699 337.27175922 -21.328125 333.62890625 C-27.03912242 327.36376156 -27.04010688 321.06499449 -26.96304321 312.87597656 C-26.97084317 311.60071735 -26.97864312 310.32545815 -26.98667943 309.01155472 C-27.00748405 305.48755738 -26.99726744 301.96424012 -26.98174834 298.44024086 C-26.97041226 294.63373922 -26.98790868 290.82735264 -27.00164795 287.02087402 C-27.02386093 279.57022506 -27.01908789 272.11982819 -27.00458474 264.66916943 C-26.99328484 258.61296205 -26.99176485 252.55682524 -26.99720383 246.50061035 C-26.99796999 245.63809135 -26.99873616 244.77557234 -26.99952554 243.8869164 C-27.00112419 242.1346305 -27.00274526 240.38234462 -27.0043885 238.63005877 C-27.01864031 222.20553178 -27.00226219 205.78114442 -26.97538666 189.35664034 C-26.95304838 175.26894032 -26.95692867 161.18144631 -26.97998047 147.09375 C-27.00674852 130.72731002 -27.01726707 114.36099235 -27.00191915 97.99453354 C-27.00032643 96.24875643 -26.99875458 94.5029793 -26.99720383 92.75720215 C-26.99643245 91.89828534 -26.99566107 91.03936854 -26.99486632 90.15442395 C-26.99055233 84.10670357 -26.99782937 78.05906089 -27.00960159 72.01135254 C-27.02363631 64.63941512 -27.01980636 57.26774383 -26.99319787 49.89583683 C-26.98007256 46.13574645 -26.97488485 42.3760995 -26.99144363 38.61601257 C-27.00913254 34.53756899 -26.98798824 30.4602414 -26.96304321 26.38183594 C-26.97419682 25.19661976 -26.98535043 24.01140358 -26.99684203 22.79027176 C-26.91419792 15.83193869 -26.0336162 10.93311822 -21.328125 5.62890625 C-14.92323882 -0.20960435 -8.36867078 -0.0913318 0 0 Z " fill="#000000" transform="translate(26.328125,86.37109375)"/>
<path d="M0 0 C0.64534915 -0.00367669 1.2906983 -0.00735338 1.95560348 -0.01114148 C4.12803357 -0.02219482 6.30041585 -0.02602498 8.47286987 -0.02983093 C10.02666883 -0.0360945 11.58046628 -0.04274121 13.13426208 -0.04974365 C17.36387954 -0.06716692 21.59348567 -0.07770972 25.82313013 -0.08594918 C28.46617358 -0.09109814 31.10921352 -0.09717402 33.75225449 -0.10346031 C42.02292948 -0.1225189 50.29359552 -0.13674677 58.56428826 -0.14507228 C68.10851853 -0.15483831 77.65251649 -0.18113838 87.19666493 -0.22157317 C94.57426592 -0.25175503 101.95180041 -0.26654324 109.32946193 -0.26985329 C113.73514852 -0.27220206 118.14058712 -0.28113923 122.54620743 -0.30631447 C126.69458055 -0.32963553 130.84254315 -0.33381234 134.99096489 -0.32355309 C136.50987426 -0.32305854 138.02880411 -0.32935506 139.54765129 -0.34310913 C149.01427528 -0.42400613 156.21486068 -0.29813292 163.24472046 6.55158997 C165.64131684 12.17508606 165.33269844 17.62611029 165.29464722 23.6764679 C165.30007201 25.05677019 165.30719668 26.4370667 165.31588745 27.81735229 C165.33408164 31.55502911 165.32706974 35.29226298 165.31437111 39.02994728 C165.30422305 42.94692274 165.31364179 46.86386102 165.31991577 50.78083801 C165.32718694 57.35793343 165.31761849 63.93484902 165.29855347 70.51191711 C165.27678561 78.10899948 165.28383737 85.7056524 165.30585909 93.30272436 C165.3240283 99.83285868 165.32656402 106.36286395 165.31610441 112.89301538 C165.30987779 116.78993421 165.30901079 120.68665137 165.32225037 124.58355713 C165.33383056 128.24780248 165.32574436 131.91149578 165.30267334 135.57568169 C165.29488699 137.55686566 165.30672366 139.53809649 165.31918335 141.51925659 C165.21386179 152.59339551 165.21386179 152.59339551 160.77706909 157.14717102 C156.37277983 160.57523682 153.54931311 161.6479558 147.98373413 161.65510559 C147.32538905 161.66134555 146.66704396 161.66758552 145.98874903 161.67401457 C143.79607334 161.6898925 141.60451744 161.67736214 139.41183472 161.66474915 C137.83449152 161.67017263 136.25715339 161.67729656 134.67982483 161.68598938 C130.40499346 161.70419893 126.13054897 161.69716511 121.85571098 161.68447304 C117.37819261 161.67433305 112.90070695 161.68374149 108.42318726 161.6900177 C100.9045315 161.6972912 93.386033 161.68771423 85.86740112 161.6686554 C77.17970569 161.64688718 68.49238576 161.65393877 59.80469942 161.67596102 C52.3403949 161.69412351 44.87620331 161.6966692 37.41188383 161.68620634 C32.95606044 161.67997607 28.50041344 161.67912291 24.04460144 161.69235229 C19.85508493 161.70392259 15.6660517 161.69586383 11.4765873 161.67277527 C9.94073094 161.66749443 8.40483378 161.6689913 6.86899376 161.67782593 C4.76891824 161.68879079 2.67038202 161.67500972 0.57040405 161.65510559 C-0.60354164 161.65359749 -1.77748734 161.65208939 -2.98700714 161.65053558 C-8.03894948 160.86468 -11.1240667 158.33513233 -14.53543091 154.64717102 C-17.22156812 150.66770849 -17.34965095 147.28850031 -17.37010193 142.5501709 C-17.37725723 141.41046341 -17.38441254 140.27075592 -17.39178467 139.09651184 C-17.39581802 137.22702881 -17.39581802 137.22702881 -17.39993286 135.31977844 C-17.40650406 134.00395279 -17.41307526 132.68812714 -17.41984558 131.33242798 C-17.44084304 126.97251089 -17.45124285 122.61259362 -17.46121216 118.25263977 C-17.46526111 116.74958592 -17.46937807 115.24653225 -17.47356224 113.74347878 C-17.4926032 106.68217819 -17.5068374 99.62088799 -17.51517421 92.55956668 C-17.52494762 84.41671124 -17.55127422 76.27412755 -17.5916751 68.13136786 C-17.62185709 61.83143994 -17.63664499 55.53158985 -17.63995522 49.23159105 C-17.64230302 45.47149318 -17.65122815 41.711686 -17.6764164 37.95166588 C-17.69973946 34.41308503 -17.70391375 30.87498544 -17.69365501 27.33634758 C-17.69292563 25.42566169 -17.71198628 23.51500001 -17.73171997 21.60441589 C-17.691124 14.89183227 -17.31955255 10.56368147 -13.22293091 5.14717102 C-8.61110222 0.97456411 -6.15588385 0.0226729 0 0 Z " fill="#020202" transform="translate(52.222930908203125,192.8528289794922)"/>
<path d="M0 0 C6.6 0 13.2 0 20 0 C20.99 1.98 21.98 3.96 23 6 C24.84083492 7.84083492 27.81813171 7.12983937 30.28352928 7.13307858 C30.95069194 7.1353216 31.6178546 7.13756463 32.30523431 7.13987562 C34.56877072 7.14625518 36.83225015 7.14544932 39.09579468 7.14476013 C40.72381669 7.1478911 42.35183789 7.15146525 43.97985804 7.15544754 C48.47542973 7.16518402 52.97098872 7.16870226 57.46656942 7.17129052 C62.3064698 7.17517289 67.14635882 7.18481069 71.98625183 7.19384766 C80.37964015 7.20881025 88.77302756 7.22034393 97.1664238 7.22979546 C109.30528493 7.24364323 121.44412508 7.26482703 133.58297117 7.28822399 C153.27959302 7.32617285 172.97621866 7.36113166 192.67285156 7.39282227 C194.44276217 7.395673 194.44276217 7.395673 196.24842854 7.39858133 C212.99650495 7.42541773 229.7445843 7.44928886 246.4926668 7.47196633 C247.67200082 7.47356363 248.85133484 7.47516094 250.06640625 7.47680664 C251.83326273 7.47919684 251.83326273 7.47919684 253.63581328 7.48163532 C273.25402016 7.5083737 292.87220471 7.5427611 312.49038756 7.58346039 C324.603027 7.60827929 336.71564236 7.6265814 348.82830323 7.636616 C357.12424556 7.64398987 365.42015562 7.65849 373.7160766 7.67868023 C378.5082482 7.69010626 383.30036765 7.69820355 388.09255409 7.69767189 C392.47452184 7.69724617 396.85637202 7.70588821 401.23830958 7.72192169 C402.82849217 7.72609804 404.41868795 7.72685572 406.00887339 7.72395759 C408.16098708 7.72051519 410.31271293 7.72920827 412.46478844 7.74108028 C414.26214095 7.74368466 414.26214095 7.74368466 416.09580362 7.74634165 C419 8 419 8 422 10 C422 27.82 422 45.64 422 64 C262.94 64 103.88 64 -60 64 C-60 10 -60 10 -58 8 C-55.77432251 7.7484436 -55.77432251 7.7484436 -52.97119141 7.74462891 C-51.92315338 7.73766998 -50.87511536 7.73071106 -49.7953186 7.72354126 C-48.09065933 7.72503677 -48.09065933 7.72503677 -46.3515625 7.7265625 C-43.96093282 7.70627331 -41.57030785 7.68542252 -39.1796875 7.6640625 C-35.39839715 7.6414436 -31.61729243 7.62498808 -27.8359375 7.61914062 C-24.19496823 7.60963914 -20.55484343 7.57588571 -16.9140625 7.5390625 C-15.78167145 7.54410797 -14.6492804 7.54915344 -13.48257446 7.55435181 C-12.42823212 7.54108856 -11.37388977 7.52782532 -10.28759766 7.51416016 C-8.89766098 7.5098851 -8.89766098 7.5098851 -7.47964478 7.50552368 C-4.23066469 6.84315608 -3.05186578 5.55338076 -1 3 C-0.67 2.01 -0.34 1.02 0 0 Z " fill="#FC7F86" transform="translate(75,94)"/>
<path d="M0 0 C50.49 0 100.98 0 153 0 C153 43.23 153 86.46 153 131 C147.72 131 142.44 131 137 131 C136.96132813 128.82664062 136.96132813 128.82664062 136.921875 126.609375 C136.51803378 110.98922886 135.19696976 97.57235628 123.89453125 85.80859375 C118.45235363 80.7223589 113.0982433 77.3660811 106 75 C106.9919634 72.42274931 108.02889749 69.9436061 109.2890625 67.484375 C113.99958795 57.84294865 114.76136863 47.89804719 112.11328125 37.52734375 C108.06140476 26.87938924 101.30526866 19.81525946 91 15 C81.50130233 11.75900398 70.49186606 10.9855587 61.16601562 15.15185547 C49.52401098 21.07124987 44.19433677 28.48176861 39.6875 40.5 C37.34079388 52.44686753 40.39158198 63.85135804 47 74 C45.71416016 74.65355469 45.71416016 74.65355469 44.40234375 75.3203125 C31.90319799 81.83057782 22.9973769 88.6610455 18.33984375 102.6015625 C16.68863462 108.41503612 16.44639923 114.11101184 16.3125 120.125 C16.26125977 121.7028125 16.26125977 121.7028125 16.20898438 123.3125 C16.12746142 125.87465007 16.06203521 128.43730404 16 131 C10.72 131 5.44 131 0 131 C0 87.77 0 44.54 0 0 Z " fill="#98E5FA" transform="translate(50,208)"/>
<path d="M0 0 C1.10073601 -0.00788544 1.10073601 -0.00788544 2.22370911 -0.01593018 C4.64553213 -0.02911615 7.06669586 -0.02039651 9.48852539 -0.01025391 C11.17477036 -0.01227527 12.86101449 -0.01518723 14.54725647 -0.01895142 C18.08041715 -0.02337304 21.61335018 -0.01694982 25.14648438 -0.00292969 C29.67042925 0.01414909 34.19383966 0.00432847 38.71776485 -0.01364708 C42.19995634 -0.02450055 45.68202166 -0.0210312 49.164217 -0.0132637 C50.83194607 -0.01126533 52.49968667 -0.01370822 54.16740227 -0.02070236 C56.50123184 -0.02834125 58.83420293 -0.01667877 61.16796875 0 C62.1975621 -0.00910904 62.1975621 -0.00910904 63.24795532 -0.0184021 C68.60613713 0.05235911 71.62719914 1.43474851 75.43692017 5.1162262 C77.12767108 8.2862511 77.06778425 11.23442417 77.03686523 14.73950195 C77.04212219 15.47332596 77.04737915 16.20714996 77.05279541 16.96321106 C77.06598138 19.38503408 77.05726175 21.80619781 77.04711914 24.22802734 C77.04914051 25.91427232 77.05205247 27.60051644 77.05581665 29.28675842 C77.06023827 32.8199191 77.05381505 36.35285213 77.03979492 39.88598633 C77.02271614 44.4099312 77.03253676 48.93334161 77.05051231 53.45726681 C77.06136578 56.93945829 77.05789643 60.42152361 77.05012894 63.90371895 C77.04813057 65.57144802 77.05057345 67.23918862 77.0575676 68.90690422 C77.06520648 71.24073379 77.05354401 73.57370488 77.03686523 75.9074707 C77.04293793 76.59386627 77.04901062 77.28026184 77.05526733 77.98745728 C76.99841548 82.2923947 76.4247054 85.05835122 73.64868164 88.38818359 C69.18952772 91.30525745 65.62996213 91.76974173 60.36157227 91.79223633 C59.65832321 91.79909958 58.95507416 91.80596283 58.23051453 91.81303406 C55.92177754 91.83123305 53.61372448 91.82747522 51.30493164 91.82177734 C49.69120057 91.82634203 48.07747144 91.83164845 46.46374512 91.83766174 C43.08797284 91.84657891 39.71243733 91.84418519 36.33666992 91.83422852 C32.01902222 91.82273215 27.70219158 91.84296699 23.38465118 91.87214565 C20.05424851 91.89052387 16.72404114 91.89021215 13.39360046 91.88450813 C11.80204623 91.88435516 10.21047856 91.89037964 8.61897278 91.90279961 C6.39072912 91.9177419 4.16398884 91.90701158 1.93579102 91.88989258 C0.67037476 91.88972641 -0.5950415 91.88956024 -1.89880371 91.88938904 C-6.99882943 91.14901255 -9.99080819 89.07522069 -13.20205688 85.09326172 C-14.67731202 81.62087489 -14.73251354 78.87937703 -14.73950195 75.10693359 C-14.74475891 74.3924707 -14.75001587 73.67800781 -14.75543213 72.94189453 C-14.76858906 70.5904323 -14.75990978 68.23965219 -14.74975586 65.88818359 C-14.75177784 64.24820832 -14.75469032 62.60823392 -14.75845337 60.96826172 C-14.76287087 57.53523172 -14.75646427 54.10243628 -14.74243164 50.66943359 C-14.72533995 46.27442758 -14.73518423 41.87997121 -14.75314903 37.48498535 C-14.76400246 34.0997302 -14.7605334 30.71460482 -14.75276566 27.3293457 C-14.75076795 25.70906509 -14.75320781 24.0887726 -14.76020432 22.46850586 C-14.76784467 20.20183208 -14.75617947 17.93604177 -14.73950195 15.66943359 C-14.73711517 14.38101562 -14.73472839 13.09259766 -14.73226929 11.76513672 C-14.22147961 7.23722336 -12.7471232 4.83261094 -9.62327576 1.59994507 C-6.45325085 -0.09080585 -3.50507779 -0.03091901 0 0 Z " fill="#030303" transform="translate(397.351318359375,298.61181640625)"/>
<path d="M0 0 C4.95 0 9.9 0 15 0 C15 77.88 15 155.76 15 236 C168.12 236 321.24 236 479 236 C479 236.33 479 236.66 479 237 C433.55252881 237.05133268 388.10505452 237.09909742 342.65756226 237.12702942 C341.98539356 237.12744359 341.31322487 237.12785776 340.62068743 237.12828448 C326.01418789 237.13726229 311.40768804 237.14557297 296.80118773 237.15319599 C289.63861727 237.15693814 282.4760469 237.16082778 275.31347656 237.16479492 C274.24430889 237.16538334 274.24430889 237.16538334 273.15354188 237.16598364 C250.03214659 237.17877766 226.91077324 237.20131901 203.78939125 237.22889166 C180.03783233 237.2571645 156.28628556 237.27565053 132.53471009 237.28174497 C117.22288163 237.2856948 101.91111511 237.29832707 86.59930764 237.3237494 C76.57420214 237.33955095 66.5491294 237.34441308 56.52401234 237.34050413 C50.73145914 237.33857385 44.93901628 237.34162796 39.14648247 237.35761642 C33.85164205 237.37212527 28.55698704 237.37301157 23.26213841 237.36269668 C21.33882786 237.36142027 19.41550612 237.36530189 17.49221785 237.37464955 C14.89310695 237.38655514 12.29468008 237.38028288 9.69558144 237.36914349 C8.93556269 237.37702453 8.17554394 237.38490557 7.39249432 237.39302543 C5.30693495 237.37259549 5.30693495 237.37259549 2 237 C-0.02993745 233.95509382 -0.24974759 233.38912705 -0.24609566 229.97639179 C-0.25007775 229.15530408 -0.25405985 228.33421637 -0.25816262 227.48824722 C-0.24942409 226.13563215 -0.24942409 226.13563215 -0.24050903 224.75569153 C-0.24221788 223.797577 -0.24392673 222.83946247 -0.24568737 221.85231417 C-0.24899309 218.6277861 -0.23796071 215.40346412 -0.22705078 212.17895508 C-0.2264869 209.87312322 -0.22680277 207.567291 -0.22793579 205.26145935 C-0.22851121 198.98907852 -0.21672629 192.71677368 -0.20278788 186.44441056 C-0.19031201 179.89407117 -0.1891125 173.34373017 -0.18673706 166.79338074 C-0.18155402 155.79493894 -0.16871598 144.79652386 -0.15087891 133.7980957 C-0.13252464 122.46899557 -0.11836592 111.13990302 -0.10986328 99.81079102 C-0.10933783 99.11262222 -0.10881239 98.41445343 -0.10827102 97.695128 C-0.10566097 94.19266728 -0.10313355 90.6902065 -0.10064721 87.18774569 C-0.07990925 58.1251456 -0.04453042 29.06257317 0 0 Z " fill="#D8EBFC" transform="translate(15,173)"/>
<path d="M0 0 C20.46 0 40.92 0 62 0 C62 20.13 62 40.26 62 61 C41.54 61 21.08 61 0 61 C0 40.87 0 20.74 0 0 Z " fill="#9FABBA" transform="translate(398,314)"/>
<path d="M0 0 C1.07476593 -0.00619858 2.14953186 -0.01239716 3.25686646 -0.01878357 C5.52100727 -0.02585907 7.78520036 -0.02274764 10.04931641 -0.01000977 C13.49089584 0.00383818 16.92974409 -0.03023148 20.37109375 -0.06835938 C22.58072982 -0.0693109 24.79036926 -0.06744997 27 -0.0625 C28.52546951 -0.08238731 28.52546951 -0.08238731 30.08175659 -0.10267639 C38.09986221 0.00044917 44.73276285 2.01802891 50.75534058 7.49754333 C61.08719863 18.22081553 59.6328125 28.40429624 59.6328125 43.56640625 C29.6028125 43.56640625 -0.4271875 43.56640625 -31.3671875 43.56640625 C-31.3671875 17.71539615 -31.3671875 17.71539615 -26.3671875 11.56640625 C-25.83609375 10.90769531 -25.305 10.24898438 -24.7578125 9.5703125 C-17.62437395 1.70062455 -10.24977938 -0.04979056 0 0 Z " fill="#FB7F86" transform="translate(112.3671875,295.43359375)"/>
<path d="M0 0 C0.71027912 -0.00538554 1.42055824 -0.01077108 2.15236098 -0.01631981 C4.53848089 -0.03065662 6.92405051 -0.02348185 9.31019592 -0.01637268 C11.01841683 -0.02207329 12.72663392 -0.02903634 14.43484497 -0.03717041 C19.07947055 -0.05515149 23.72390772 -0.05392414 28.36855769 -0.04822803 C32.24297185 -0.04514323 36.11734944 -0.05122073 39.99175841 -0.05726677 C49.13048711 -0.07132672 58.26912236 -0.06973858 67.40785217 -0.05836487 C76.84247279 -0.04688252 86.27680919 -0.06095792 95.71139234 -0.08776134 C103.80573626 -0.10989799 111.89999084 -0.11656031 119.99436289 -0.11068493 C124.83135281 -0.10730922 129.66816052 -0.10977101 134.50512505 -0.12693596 C139.0532424 -0.14237061 143.60093784 -0.13848847 148.14903831 -0.11963081 C149.81958178 -0.11593521 151.49015627 -0.11908159 153.16067123 -0.1295166 C155.4389034 -0.14266271 157.71572566 -0.13123768 159.99389648 -0.11352539 C161.26944869 -0.11331611 162.5450009 -0.11310682 163.8592062 -0.1128912 C167.06044006 0.38768005 167.06044006 0.38768005 169.46694279 2.20025539 C171.06044006 4.38768005 171.06044006 4.38768005 171.62294006 7.88768005 C171.06044006 11.38768005 171.06044006 11.38768005 168.96887207 13.57426357 C165.36574239 15.82082623 163.19327474 15.89289961 158.96302795 15.90234375 C158.25991265 15.90928928 157.55679735 15.91623481 156.83237553 15.92339081 C154.48229074 15.94165053 152.13321663 15.93140017 149.78309631 15.92112732 C148.09590398 15.92818631 146.40871799 15.93693124 144.72154236 15.94723511 C140.1430326 15.9697399 135.56486833 15.96678707 130.98632431 15.95791364 C127.16408598 15.95280465 123.34191262 15.96009549 119.51968098 15.96738571 C110.5035872 15.9843878 101.48766266 15.9808153 92.47157288 15.96409607 C83.16864889 15.94716811 73.86619389 15.9630178 64.56332111 15.99531895 C56.57591179 16.02200236 48.58864857 16.02929442 40.60119915 16.02080387 C35.83068113 16.01587176 31.06044542 16.01810577 26.28996277 16.03859138 C21.80492444 16.05692935 17.32056173 16.05101322 12.83555984 16.02639198 C11.18962568 16.02137834 9.54364021 16.02488825 7.89774704 16.03754044 C5.65033665 16.05344999 3.40515699 16.0385443 1.15785217 16.01586914 C-0.09943192 16.01528283 -1.356716 16.01469652 -2.65209961 16.01409245 C-6.85249227 15.21372446 -8.36858164 13.74741175 -10.93955994 10.38768005 C-10.93955994 6.93934072 -10.75146954 4.60089879 -8.81078243 1.70097256 C-5.93784428 -0.31536069 -3.47826894 0.00662798 0 0 Z " fill="#040404" transform="translate(45.93955993652344,374.61231994628906)"/>
<path d="M0 0 C1.31929504 -0.00845947 2.63859009 -0.01691895 3.99786377 -0.02563477 C5.45829896 -0.01980193 6.91873294 -0.01365742 8.37916565 -0.00723267 C9.91842522 -0.01129814 11.45768187 -0.01663988 12.99693298 -0.02316284 C17.1767233 -0.03684641 21.35629161 -0.03153325 25.53608584 -0.02202559 C29.90997846 -0.014433 34.283852 -0.02147361 38.65774536 -0.02618408 C46.00421055 -0.03164338 53.35058529 -0.02444606 60.69703674 -0.01016235 C69.18925113 0.00615844 77.68124938 0.00088054 86.17345852 -0.01564157 C93.46444626 -0.02925872 100.75536896 -0.0311748 108.04636532 -0.02332556 C112.40099667 -0.01864952 116.75552647 -0.01802217 121.11015129 -0.02793503 C125.2051733 -0.03660554 129.29991694 -0.03058134 133.39490891 -0.01325226 C134.89732336 -0.00928759 136.39976126 -0.01042114 137.90216637 -0.01704025 C139.95429887 -0.0252472 142.00554129 -0.01494575 144.05761719 0 C145.77956881 0.00169662 145.77956881 0.00169662 147.53630733 0.00342751 C150.98493467 0.42945517 152.86215489 1.25036384 155.59230042 3.38095093 C156.71730042 6.75595093 156.71730042 6.75595093 156.59230042 10.38095093 C154.08486269 13.59304573 152.5625939 15.18200972 148.52348328 16.01015663 C146.79241837 16.01298432 146.79241837 16.01298432 145.02638245 16.01586914 C144.05746409 16.02756907 144.05746409 16.02756907 143.06897163 16.03950536 C140.9120991 16.05939373 138.7569974 16.04367615 136.60011292 16.02792358 C135.05084709 16.03470123 133.50158933 16.04360519 131.9523468 16.05447388 C127.7497607 16.07725682 123.54778871 16.06843533 119.34519196 16.05257845 C114.94593661 16.03991413 110.54673362 16.05166104 106.1474762 16.05950928 C98.75984767 16.06860431 91.37246911 16.05662185 83.98487854 16.0328064 C75.44536621 16.00559528 66.90645076 16.01440956 58.3669529 16.04193842 C51.03344936 16.06463274 43.70012544 16.06782804 36.36659813 16.05474508 C31.98732597 16.04695229 27.60833431 16.04590409 23.2290802 16.06242752 C19.11170277 16.07687786 14.99509438 16.06684106 10.87779999 16.03795624 C9.36733019 16.03134832 7.85679559 16.0332382 6.34635162 16.04426956 C4.28276889 16.05795051 2.22164468 16.04078553 0.15821838 16.01586914 C-0.99582489 16.01398401 -2.14986816 16.01209888 -3.33888245 16.01015663 C-7.37812261 15.18198316 -8.90295958 13.59557676 -11.40769958 10.38095093 C-11.47019958 6.75595093 -11.47019958 6.75595093 -10.40769958 3.38095093 C-7.16266203 0.09461219 -4.50476208 0.00443994 0 0 Z " fill="#010101" transform="translate(320.40769958496094,192.61904907226563)"/>
<path d="M0 0 C0.64256758 -0.00568326 1.28513516 -0.01136651 1.94717449 -0.01722199 C4.09264142 -0.03010458 6.23621366 -0.00735762 8.38157654 0.0153656 C9.92260635 0.01350111 11.46363485 0.00946355 13.00465393 0.00341797 C17.18450411 -0.0065552 21.36367597 0.0146101 25.54342771 0.04189801 C29.91776293 0.06573247 34.2920848 0.0627831 38.66647339 0.0632019 C46.01124044 0.06782949 53.35574821 0.09146897 60.70042419 0.12767029 C69.19321915 0.16941904 77.68578069 0.18698609 86.17867237 0.19029003 C95.21983171 0.19388913 104.260907 0.21276241 113.30203128 0.23741031 C115.90784219 0.24363976 118.5136467 0.24727554 121.11946297 0.25044441 C125.21282962 0.25634414 129.30602941 0.27265481 133.39932632 0.29704857 C134.90215325 0.30449027 136.40500118 0.30856061 137.90784645 0.30902863 C139.95779662 0.31028597 142.00772523 0.32507703 144.05761719 0.34057617 C145.20520791 0.34522668 146.35279863 0.34987719 147.53516483 0.35466862 C150.44385249 0.6128258 152.06677251 0.98693003 154.46531677 2.61473083 C156.46531677 5.61473083 156.46531677 5.61473083 156.27781677 9.11473083 C155.22043033 13.66962627 155.22043033 13.66962627 152.46531677 15.61473083 C149.60856724 15.99784088 149.60856724 15.99784088 146.05725098 16.00914001 C145.40414159 16.01523112 144.7510322 16.02132222 144.07813162 16.0275979 C141.88548434 16.04427249 139.69341497 16.03944603 137.50071716 16.03465271 C135.93042393 16.04199049 134.36013611 16.05057586 132.78985596 16.06031799 C128.52125854 16.08257339 124.25285392 16.08546269 119.98420644 16.08357048 C116.42294004 16.08345097 112.86171478 16.09200727 109.3004598 16.100348 C100.90006207 16.1195965 92.49976372 16.1224606 84.09934998 16.1157074 C75.42810814 16.10906485 66.7572915 16.13193606 58.08613592 16.16902113 C50.6457098 16.19969004 43.20542066 16.21108124 35.76493257 16.20718431 C31.31912116 16.20511392 26.87364055 16.21064047 22.42788887 16.2350769 C18.24739543 16.25729543 14.06759456 16.25550767 9.88709831 16.23514938 C8.35200338 16.2317306 6.81686227 16.2368658 5.28182983 16.25113297 C3.18719561 16.26925934 1.09492766 16.25663131 -0.99963379 16.2361908 C-2.75810088 16.23725956 -2.75810088 16.23725956 -4.55209255 16.23834991 C-7.53468323 15.61473083 -7.53468323 15.61473083 -9.90796757 13.23213959 C-11.76540937 10.24348917 -12.30716559 9.04798577 -11.53468323 5.61473083 C-7.90499597 1.14690298 -5.72478791 -0.01003027 0 0 Z " fill="#050506" transform="translate(320.53468322753906,227.38526916503906)"/>
<path d="M0 0 C0.65396381 -0.00623996 1.30792763 -0.01247993 1.98170853 -0.01890898 C4.17144147 -0.03485478 6.36006364 -0.02222988 8.54980469 -0.00964355 C10.12024586 -0.01506402 11.69068195 -0.02218626 13.2611084 -0.03088379 C17.52559358 -0.04912925 21.78969196 -0.0420447 26.05418396 -0.02936745 C30.51529998 -0.01924606 34.9763827 -0.02863072 39.4375 -0.03491211 C46.92942252 -0.04219104 54.42118735 -0.03259441 61.91308594 -0.0135498 C70.57692221 0.00821946 79.24038198 0.00116826 87.90420914 -0.02085543 C95.34041697 -0.03900247 102.7765114 -0.04157117 110.21273422 -0.03110075 C114.65510989 -0.02486197 119.09730853 -0.02404068 123.53967285 -0.0372467 C127.71602519 -0.04879453 131.89189172 -0.04079938 136.06819153 -0.01766968 C137.6016611 -0.01237682 139.1351715 -0.01390626 140.66862488 -0.02272034 C142.76075646 -0.03363768 144.8513275 -0.01996166 146.94335938 0 C148.11437195 0.0015081 149.28538452 0.0030162 150.49188232 0.00457001 C154.11180624 0.61606844 155.32562679 1.56698153 157.47167969 4.50793457 C157.53417969 8.00793457 157.53417969 8.00793457 156.47167969 11.50793457 C153.82793736 14.18376011 152.1718387 15.39190966 148.43409729 16.01129913 C146.72515541 16.01356129 146.72515541 16.01356129 144.98168945 16.01586914 C143.6694339 16.02714844 142.35717834 16.03842773 141.00515747 16.05004883 C139.55779808 16.04227221 138.11044087 16.03407957 136.66308594 16.0255127 C135.13352797 16.0309349 133.60397523 16.03805811 132.07443237 16.04675293 C127.92563429 16.0649778 123.77723439 16.05792236 119.62842941 16.04523659 C115.2852344 16.03510453 110.94207332 16.04450284 106.59887695 16.05078125 C99.30543908 16.05805706 92.01216326 16.04847173 84.71875 16.02941895 C76.28837249 16.00765027 67.85838194 16.01470169 59.4280138 16.03672457 C52.18794602 16.05488049 44.94799468 16.05743597 37.70791149 16.04696989 C33.38456569 16.04073599 29.06140173 16.03989641 24.73806763 16.05311584 C20.67331975 16.06467659 16.60907043 16.05664493 12.54437637 16.03353882 C11.05325269 16.02825287 9.562087 16.02976363 8.07098007 16.03858948 C6.03455867 16.04953111 3.9980455 16.0333725 1.96166992 16.01586914 C0.82237534 16.01436104 -0.31691925 16.01285294 -1.49073792 16.01129913 C-5.22847933 15.39190966 -6.88457798 14.18376011 -9.52832031 11.50793457 C-10.59082031 8.00793457 -10.59082031 8.00793457 -10.52832031 4.50793457 C-7.47143233 0.31877222 -5.04025092 0.00649115 0 0 Z " fill="#070708" transform="translate(319.5283203125,263.4920654296875)"/>
<path d="M0 0 C50.49 0 100.98 0 153 0 C153 43.23 153 86.46 153 131 C152.67 131 152.34 131 152 131 C152 88.1 152 45.2 152 1 C106.79 1 61.58 1 15 1 C15 43.9 15 86.8 15 131 C10.05 131 5.1 131 0 131 C0 87.77 0 44.54 0 0 Z " fill="#62D1EF" transform="translate(50,208)"/>
<path d="M0 0 C1.00100235 -0.0112793 2.0020047 -0.02255859 3.03334045 -0.03417969 C4.67144936 -0.0220343 4.67144936 -0.0220343 6.34265137 -0.00964355 C7.4974852 -0.01665283 8.65231903 -0.02366211 9.84214783 -0.03088379 C13.66482488 -0.04850909 17.48676347 -0.03682409 21.30944824 -0.02331543 C23.9621676 -0.02600902 26.61486441 -0.029884 29.26757812 -0.03491211 C34.82930524 -0.04218728 40.39081981 -0.03260447 45.95251465 -0.0135498 C52.3806011 0.00821899 58.80818006 0.0011675 65.23625422 -0.02085543 C70.75741495 -0.03901338 76.27842299 -0.04156592 81.79960394 -0.03110075 C85.09624305 -0.02486784 88.39259159 -0.02559701 91.68922424 -0.0372467 C95.36441564 -0.04738333 99.03862689 -0.03194973 102.71374512 -0.00964355 C103.80581772 -0.01774048 104.89789032 -0.0258374 106.02305603 -0.03417969 C107.52455956 -0.01726074 107.52455956 -0.01726074 109.05639648 0 C110.3593932 0.00226215 110.3593932 0.00226215 111.68871307 0.00457001 C114.84763 0.68424383 116.05074315 2.00001551 118.02819824 4.50793457 C118.59069824 8.00793457 118.59069824 8.00793457 118.02819824 11.50793457 C115.86140997 14.09077894 114.07519214 15.34071295 110.71427917 15.87750435 C107.73596992 16.03782255 104.78231763 16.05960336 101.79968262 16.04138184 C100.09888298 16.05430519 100.09888298 16.05430519 98.36372375 16.06748962 C94.61623297 16.09018989 90.86948745 16.0834031 87.12194824 16.07434082 C84.51790138 16.07957433 81.91385642 16.0858498 79.30981445 16.09312439 C73.85242332 16.10496672 68.39524457 16.09928469 62.93786621 16.08435059 C56.6340963 16.06742317 50.33101854 16.08327416 44.0273242 16.11557347 C37.95586004 16.14550128 31.88471237 16.147452 25.81318665 16.13807487 C23.23276367 16.13725389 20.65232642 16.1441452 18.07194519 16.1588459 C14.46635261 16.17623855 10.86224626 16.16179092 7.25671387 16.13903809 C6.18850906 16.15073029 5.12030426 16.16242249 4.01972961 16.17446899 C-3.19806038 16.08166003 -3.19806038 16.08166003 -7.13842773 13.15989685 C-8.97180176 10.50793457 -8.97180176 10.50793457 -9.53430176 7.44543457 C-8.49281628 2.00656599 -5.34856217 0.00928573 0 0 Z " fill="#040404" transform="translate(246.9718017578125,298.4920654296875)"/>
<path d="M0 0 C4.4698805 3.26645113 7.49026269 7.40047557 9.234375 12.6328125 C9.90999978 21.51987687 9.10293435 28.08712602 3.609375 35.3203125 C-0.89618723 40.25974368 -6.54946425 42.74860029 -13.203125 43.1953125 C-20.2037727 42.82814566 -26.47968898 39.41788207 -31.203125 34.3203125 C-35.14678597 29.15892052 -37.47442782 23.3696312 -37.17578125 16.7734375 C-35.84407652 9.82320712 -32.10587763 3.99646224 -26.50390625 -0.25 C-18.29101062 -5.52840034 -8.25852417 -4.60268067 0 0 Z " fill="#FACFA1" transform="translate(139.765625,238.3671875)"/>
<path d="M0 0 C4.29 0 8.58 0 13 0 C13 18.15 13 36.3 13 55 C167.11 55 321.22 55 480 55 C480 55.33 480 55.66 480 56 C320.94 56 161.88 56 -2 56 C-2 2 -2 2 0 0 Z " fill="#F06871" transform="translate(17,102)"/>
<path d="M0 0 C4.95 0 9.9 0 15 0 C15 19.8 15 39.6 15 60 C30.18 60 45.36 60 61 60 C61 40.2 61 20.4 61 0 C61.33 0 61.66 0 62 0 C62 20.13 62 40.26 62 61 C41.54 61 21.08 61 0 61 C0 40.87 0 20.74 0 0 Z " fill="#83919C" transform="translate(398,314)"/>
<path d="M0 0 C1.00349991 -0.00619858 2.00699982 -0.01239716 3.04090881 -0.01878357 C5.1616214 -0.02588246 7.28238971 -0.02270656 9.40307617 -0.01000977 C12.64541425 0.00384326 15.88485939 -0.03019972 19.12695312 -0.06835938 C21.18880279 -0.0693107 23.25065606 -0.06745101 25.3125 -0.0625 C26.2803392 -0.07575821 27.24817841 -0.08901642 28.24534607 -0.10267639 C32.86839136 -0.03884109 35.05322549 0.0743962 38.86938477 2.87915039 C40.72265625 5.56640625 40.72265625 5.56640625 40.78515625 9.19140625 C39.60567479 12.93799441 39.00049987 13.62749116 35.72265625 15.56640625 C33.5222168 15.9540863 33.5222168 15.9540863 31.109375 15.97045898 C29.74776245 15.98948524 29.74776245 15.98948524 28.35864258 16.00889587 C26.89914185 16.00449242 26.89914185 16.00449242 25.41015625 16 C24.40428467 16.00524185 23.39841309 16.0104837 22.36206055 16.0158844 C20.23715131 16.02230273 18.11220654 16.02097007 15.98730469 16.01245117 C12.73438382 16.00393695 9.48321633 16.032713 6.23046875 16.06445312 C4.16536511 16.06606511 2.10025836 16.06548766 0.03515625 16.0625 C-0.93784424 16.07373398 -1.91084473 16.08496796 -2.91333008 16.09654236 C-9.61272091 16.02730828 -9.61272091 16.02730828 -12.890625 13.75415039 C-14.93965025 10.52152447 -14.81185832 8.30800824 -14.27734375 4.56640625 C-10.84591601 -0.82773301 -5.76215249 -0.02946758 0 0 Z " fill="#020203" transform="translate(252.27734375,192.43359375)"/>
<path d="M0 0 C1.02806763 -0.0038269 2.05613525 -0.00765381 3.11535645 -0.01159668 C5.28736348 -0.01431674 7.45940323 -0.00694906 9.63134766 0.00976562 C12.95679729 0.03117305 16.28008635 0.00996622 19.60546875 -0.015625 C21.7161506 -0.01298174 23.82683111 -0.00785681 25.9375 0 C26.93237427 -0.00809692 27.92724854 -0.01619385 28.95227051 -0.02453613 C35.81036607 0.06866798 35.81036607 0.06866798 39.09570312 2.37695312 C40.98530162 5.34171435 41.04376442 7.08116347 40.46875 10.53125 C38.6016509 12.83400556 37.11227259 14.20948871 34.46875 15.53125 C33.07618695 15.64042158 31.67870172 15.69021101 30.28198242 15.70825195 C28.98504707 15.72750481 28.98504707 15.72750481 27.66191101 15.74714661 C26.25725334 15.75822701 26.25725334 15.75822701 24.82421875 15.76953125 C23.86228104 15.777603 22.90034332 15.78567474 21.90925598 15.79399109 C19.87075607 15.8078361 17.83223294 15.81855638 15.79370117 15.82641602 C12.67907664 15.84362389 9.56551482 15.88750577 6.45117188 15.93164062 C4.47136198 15.94176791 2.49154305 15.9502839 0.51171875 15.95703125 C-0.88382988 15.98329338 -0.88382988 15.98329338 -2.30757141 16.01008606 C-6.52343243 15.99597547 -8.92108863 15.88794416 -12.6237793 13.72338867 C-14.53125 11.53125 -14.53125 11.53125 -15.09375 8.03125 C-14.53125 4.53125 -14.53125 4.53125 -13.15429688 2.34570312 C-9.02034606 -0.51389502 -4.9117758 -0.03997518 0 0 Z " fill="#060606" transform="translate(252.53125,263.46875)"/>
<path d="M0 0 C0.96006454 0.00091644 1.92012909 0.00183289 2.9092865 0.0027771 C4.93412231 0.00880655 6.95894947 0.02453279 8.98364258 0.04931641 C12.08252825 0.08585125 15.18021817 0.09033539 18.27929688 0.08984375 C20.24870825 0.09967444 22.21811153 0.11133123 24.1875 0.125 C25.11361588 0.12722565 26.03973175 0.12945129 26.99391174 0.13174438 C28.2906205 0.15088394 28.2906205 0.15088394 29.61352539 0.17041016 C30.7500631 0.18184555 30.7500631 0.18184555 31.90956116 0.19351196 C34.36768533 0.50391454 35.93566316 1.13821727 38.02734375 2.4609375 C40.02734375 5.4609375 40.02734375 5.4609375 39.83984375 8.9609375 C39.02282594 12.48039883 38.79246478 13.38015251 36.02734375 15.4609375 C33.90919495 15.84861755 33.90919495 15.84861755 31.43579102 15.86499023 C30.50795303 15.87767441 29.58011505 15.89035858 28.62416077 15.90342712 C27.12410744 15.89902367 27.12410744 15.89902367 25.59375 15.89453125 C24.04952614 15.90239403 24.04952614 15.90239403 22.47410583 15.91041565 C20.29614158 15.91684124 18.11814265 15.91549195 15.94018555 15.90698242 C12.6059795 15.89847865 9.27348955 15.92721758 5.93945312 15.95898438 C3.82421926 15.96059659 1.70898237 15.96001847 -0.40625 15.95703125 C-1.40426132 15.96826523 -2.40227264 15.97949921 -3.43052673 15.99107361 C-10.30504269 15.92180381 -10.30504269 15.92180381 -13.59790039 13.64868164 C-15.64939495 10.38399638 -15.57795353 8.22723168 -14.97265625 4.4609375 C-10.64681647 -0.49408521 -6.11633607 -0.09511834 0 0 Z " fill="#050606" transform="translate(252.97265625,227.5390625)"/>
<path d="M0 0 C-0.38671875 0.4846875 -0.7734375 0.969375 -1.171875 1.46875 C-6.68172578 8.56063714 -10.9775536 15.39394729 -11.31640625 24.54296875 C-11.35830078 25.61611328 -11.40019531 26.68925781 -11.44335938 27.79492188 C-11.50233398 29.47424805 -11.50233398 29.47424805 -11.5625 31.1875 C-11.60568359 32.31865234 -11.64886719 33.44980469 -11.69335938 34.61523438 C-11.7994901 37.41001025 -11.90025397 40.20498898 -12 43 C-16.95 43 -21.9 43 -27 43 C-27.97156578 18.34381953 -27.97156578 18.34381953 -22 11 C-21.46890625 10.34128906 -20.9378125 9.68257813 -20.390625 9.00390625 C-14.68443665 2.70877644 -8.54451613 -0.71204301 0 0 Z " fill="#FA636D" transform="translate(108,296)"/>
</svg>
