<?xml version="1.0" encoding="UTF-8"?>
<svg version="1.1" xmlns="http://www.w3.org/2000/svg" width="512" height="512">
<path d="M0 0 C7.12914205 7.23040827 13.15437459 15.3346551 18.75 23.7890625 C19.25144531 24.5315625 19.75289062 25.2740625 20.26953125 26.0390625 C38.86610494 55.08700874 42.48157551 91.57635926 35.75 124.7890625 C30.03969324 150.68051551 15.06596397 174.36279872 -4.0625 192.4140625 C-20.01589265 208.10781585 -23.08862907 232.41025745 -23.6875 253.7265625 C-23.69185059 254.99632935 -23.69185059 254.99632935 -23.69628906 256.29174805 C-23.81942589 262.2246494 -23.81942589 262.2246494 -26.16015625 265.29296875 C-29.43110291 267.63459972 -31.25330237 267.9177302 -35.24031067 267.93623352 C-36.82387108 267.94696648 -36.82387108 267.94696648 -38.43942261 267.95791626 C-39.60256989 267.96060516 -40.76571716 267.96329407 -41.96411133 267.96606445 C-43.18532181 267.97263565 -44.40653229 267.97920685 -45.66474915 267.98597717 C-49.02024404 268.00233287 -52.37567583 268.01393949 -55.73119569 268.0221827 C-57.82746455 268.02733253 -59.92372899 268.03340827 -62.01999474 268.03969383 C-68.5783301 268.05874669 -75.13665419 268.0729775 -81.69501191 268.0813058 C-89.26627157 268.09107899 -96.83723893 268.1173999 -104.40839559 268.15780669 C-110.2598482 268.18796414 -116.11121702 268.20277431 -121.96274585 268.20608681 C-125.45789374 268.20843779 -128.95272941 268.21740365 -132.44779396 268.24254799 C-136.34785958 268.27015248 -140.24754044 268.26599867 -144.14770508 268.2590332 C-145.30477966 268.27184326 -146.46185425 268.28465332 -147.6539917 268.29785156 C-155.45601504 268.2469424 -155.45601504 268.2469424 -159.44389343 265.94718933 C-161.93970281 262.96493276 -162.36757424 260.51541795 -162.4609375 256.75390625 C-162.48712158 255.95339844 -162.51330566 255.15289062 -162.5402832 254.328125 C-162.56823975 253.46960938 -162.59619629 252.61109375 -162.625 251.7265625 C-163.21628407 237.76871317 -164.81885927 223.7773497 -170.25 210.7890625 C-170.6625 209.77972656 -171.075 208.77039063 -171.5 207.73046875 C-175.35619233 199.52601788 -180.64857099 194.08843336 -187.12402344 187.87646484 C-207.30233178 168.36578678 -219.41154689 142.20696347 -224.25 114.7890625 C-224.44207031 113.73074219 -224.63414062 112.67242187 -224.83203125 111.58203125 C-228.49560608 78.33594564 -220.76654684 44.06911586 -201.0546875 16.74609375 C-198.85927292 14.01953048 -196.58436919 11.39738246 -194.25 8.7890625 C-193.00283203 7.32726562 -193.00283203 7.32726562 -191.73046875 5.8359375 C-169.14450469 -20.23510113 -136.36398753 -34.82831192 -102.375 -37.9609375 C-64.16414371 -39.99251018 -27.60223457 -26.49870394 0 0 Z " fill="#FED417" transform="translate(349.25,147.2109375)"/>
<path d="M0 0 C7.12914205 7.23040827 13.15437459 15.3346551 18.75 23.7890625 C19.25144531 24.5315625 19.75289062 25.2740625 20.26953125 26.0390625 C38.86610494 55.08700874 42.48157551 91.57635926 35.75 124.7890625 C30.03969324 150.68051551 15.06596397 174.36279872 -4.0625 192.4140625 C-20.01589265 208.10781585 -23.08862907 232.41025745 -23.6875 253.7265625 C-23.69185059 254.99632935 -23.69185059 254.99632935 -23.69628906 256.29174805 C-23.81942589 262.2246494 -23.81942589 262.2246494 -26.16015625 265.29296875 C-29.43110291 267.63459972 -31.25330237 267.9177302 -35.24031067 267.93623352 C-36.82387108 267.94696648 -36.82387108 267.94696648 -38.43942261 267.95791626 C-39.60256989 267.96060516 -40.76571716 267.96329407 -41.96411133 267.96606445 C-43.18532181 267.97263565 -44.40653229 267.97920685 -45.66474915 267.98597717 C-49.02024404 268.00233287 -52.37567583 268.01393949 -55.73119569 268.0221827 C-57.82746455 268.02733253 -59.92372899 268.03340827 -62.01999474 268.03969383 C-68.5783301 268.05874669 -75.13665419 268.0729775 -81.69501191 268.0813058 C-89.26627157 268.09107899 -96.83723893 268.1173999 -104.40839559 268.15780669 C-110.2598482 268.18796414 -116.11121702 268.20277431 -121.96274585 268.20608681 C-125.45789374 268.20843779 -128.95272941 268.21740365 -132.44779396 268.24254799 C-136.34785958 268.27015248 -140.24754044 268.26599867 -144.14770508 268.2590332 C-145.30477966 268.27184326 -146.46185425 268.28465332 -147.6539917 268.29785156 C-155.45601504 268.2469424 -155.45601504 268.2469424 -159.44389343 265.94718933 C-161.93970281 262.96493276 -162.36757424 260.51541795 -162.4609375 256.75390625 C-162.48712158 255.95339844 -162.51330566 255.15289062 -162.5402832 254.328125 C-162.56823975 253.46960938 -162.59619629 252.61109375 -162.625 251.7265625 C-163.21628407 237.76871317 -164.81885927 223.7773497 -170.25 210.7890625 C-170.6625 209.77972656 -171.075 208.77039063 -171.5 207.73046875 C-175.35619233 199.52601788 -180.64857099 194.08843336 -187.12402344 187.87646484 C-207.30233178 168.36578678 -219.41154689 142.20696347 -224.25 114.7890625 C-224.44207031 113.73074219 -224.63414062 112.67242187 -224.83203125 111.58203125 C-228.49560608 78.33594564 -220.76654684 44.06911586 -201.0546875 16.74609375 C-198.85927292 14.01953048 -196.58436919 11.39738246 -194.25 8.7890625 C-193.00283203 7.32726562 -193.00283203 7.32726562 -191.73046875 5.8359375 C-169.14450469 -20.23510113 -136.36398753 -34.82831192 -102.375 -37.9609375 C-64.16414371 -39.99251018 -27.60223457 -26.49870394 0 0 Z M-118.25 -18.2109375 C-119.45785156 -17.95054687 -120.66570312 -17.69015625 -121.91015625 -17.421875 C-150.64233436 -10.36253388 -175.61889146 8.30799798 -191.5 33.1640625 C-207.81915146 60.99672573 -213.12142595 92.11446736 -205.6328125 123.8984375 C-200.0999227 144.5952384 -189.13841673 161.67082457 -174.25 176.7890625 C-152.97287075 198.4966539 -148.54592136 222.12577028 -145.25 251.7890625 C-110.6 251.7890625 -75.95 251.7890625 -40.25 251.7890625 C-39.92 245.8490625 -39.59 239.9090625 -39.25 233.7890625 C-38.77916634 230.45942342 -38.30542756 227.34933532 -37.5625 224.1015625 C-37.39024902 223.32176025 -37.21799805 222.54195801 -37.04052734 221.73852539 C-32.70801621 203.21297976 -23.55401213 187.71644654 -9.875 174.5390625 C9.86147191 155.07557084 21.85866555 127.00992358 22.07958984 99.32324219 C22.07113037 97.48101074 22.07113037 97.48101074 22.0625 95.6015625 C22.05404053 93.67618652 22.05404053 93.67618652 22.04541016 91.71191406 C21.6612743 61.67325115 9.29659028 32.93884633 -12.25 11.7890625 C-15.80352266 8.63216227 -19.4769758 5.6786988 -23.25 2.7890625 C-24.41982422 1.87833984 -24.41982422 1.87833984 -25.61328125 0.94921875 C-37.17403927 -7.61934308 -50.46136084 -13.32598474 -64.25 -17.2109375 C-65.86068359 -17.69046875 -65.86068359 -17.69046875 -67.50390625 -18.1796875 C-76.3247786 -20.38746088 -85.0049909 -20.48891006 -94.0625 -20.5234375 C-95.92285889 -20.53177612 -95.92285889 -20.53177612 -97.82080078 -20.5402832 C-104.88312507 -20.48480503 -111.39530333 -19.89776005 -118.25 -18.2109375 Z " fill="#220C1F" transform="translate(349.25,147.2109375)"/>
<path d="M0 0 C0.97701874 -0.00860046 1.95403748 -0.01720093 2.96066284 -0.02606201 C4.56668617 -0.03245193 4.56668617 -0.03245193 6.20515442 -0.03897095 C7.33390991 -0.04714844 8.46266541 -0.05532593 9.62562561 -0.06375122 C13.36933358 -0.08860822 17.1130036 -0.10512256 20.85676575 -0.11953735 C22.7738758 -0.12752287 22.7738758 -0.12752287 24.72971535 -0.13566971 C30.10244174 -0.15690003 35.47515486 -0.17602928 40.84791088 -0.1872921 C48.53514887 -0.20351511 56.22188014 -0.23665565 63.90892714 -0.29369295 C69.97390193 -0.33715198 76.03867888 -0.35304622 82.10379982 -0.35942459 C84.67897968 -0.36614001 87.25415208 -0.38136943 89.82922935 -0.4053154 C93.43669928 -0.43694635 97.04289462 -0.43700579 100.65046692 -0.42959595 C102.24130852 -0.45420395 102.24130852 -0.45420395 103.86428833 -0.47930908 C110.61158434 -0.42267883 115.02362189 0.79906408 120.251297 5.15390015 C124.44432739 9.45727345 126.0129952 13.58024069 126.563797 19.52890015 C125.89030956 27.34135439 123.42735628 31.60558579 117.48176575 36.70858765 C111.44627899 40.6194985 105.35570011 40.44552823 98.41584778 40.42855835 C97.33542206 40.43366928 96.25499634 40.43878021 95.14183044 40.44404602 C91.57670016 40.45792538 88.01176356 40.45698639 84.4466095 40.4546814 C81.96328154 40.45856934 79.47995424 40.46290422 76.99662781 40.46766663 C71.79324691 40.47512537 66.58993386 40.4748401 61.3865509 40.46957397 C54.7263745 40.4637811 48.0665806 40.48070772 41.40643501 40.50391865 C36.27796308 40.51866788 31.14955796 40.51952602 26.02106857 40.51640892 C23.56593652 40.51692157 21.11080068 40.52214874 18.65568924 40.53222084 C15.21878864 40.54459002 11.78242757 40.53779001 8.34553528 40.5262146 C7.33644104 40.53385834 6.3273468 40.54150208 5.28767395 40.54937744 C-1.56417054 40.49850374 -7.35390059 39.71478768 -12.9908905 35.4624939 C-17.40213932 30.40749824 -19.5223172 25.92391364 -19.748703 19.15390015 C-19.25653344 13.71108378 -17.19763139 9.36925707 -13.748703 5.15390015 C-9.15114668 1.68227598 -5.73326157 0.03760106 0 0 Z " fill="#210B20" transform="translate(202.7487030029297,424.8460998535156)"/>
<path d="M0 0 C0.74734406 -0.00511093 1.49468811 -0.01022186 2.26467896 -0.01548767 C4.71576118 -0.02929738 7.16655946 -0.02843335 9.61767578 -0.02612305 C11.33489077 -0.03001491 13.05210481 -0.03435059 14.76931763 -0.03910828 C18.36186855 -0.04655211 21.95432116 -0.04629271 25.546875 -0.04101562 C30.131967 -0.0352256 34.71665444 -0.05214957 39.30167961 -0.0753603 C42.84663208 -0.09015154 46.39148835 -0.09096199 49.93646622 -0.08785057 C51.6260165 -0.08836115 53.31557254 -0.09354895 55.00509262 -0.10366249 C74.82405643 -0.20774484 74.82405643 -0.20774484 81.52783203 5.1418457 C86.20994864 11.02597268 88.71310853 15.27113515 88.49658203 22.9387207 C87.60938319 29.65447901 83.97876798 33.97128148 78.87158203 38.14575195 C74.89081815 40.81498806 70.65801339 40.43587122 66.06396484 40.45166016 C65.23596375 40.45823135 64.40796265 40.46480255 63.55487061 40.47157288 C60.8127839 40.49129419 58.07075195 40.50296629 55.32861328 40.51293945 C54.39130119 40.51701498 53.45398911 40.52109051 52.48827362 40.52528954 C47.52652711 40.54614596 42.56480821 40.56044916 37.60302734 40.56982422 C32.48398665 40.58088375 27.36538122 40.61527965 22.24649429 40.65499592 C18.3053101 40.68117035 14.36422946 40.68951683 10.422966 40.6931057 C8.53636487 40.69797003 6.64976832 40.70957965 4.76325226 40.72814369 C2.11834966 40.75255137 -0.52542887 40.75156722 -3.17041016 40.74462891 C-4.33183533 40.76384399 -4.33183533 40.76384399 -5.51672363 40.78344727 C-11.54880412 40.7259834 -15.77546571 39.12694256 -20.27752304 34.89807606 C-24.15740665 30.58201389 -25.59702446 26.59652061 -26.12451172 20.8996582 C-25.45512065 13.13472182 -23.00184343 8.84300706 -17.14013672 3.7199707 C-11.83275831 0.42512169 -6.10579109 -0.02192097 0 0 Z " fill="#210B20" transform="translate(224.81201171875,471.725341796875)"/>
<path d="M0 0 C27.74107798 6.30909569 50.32566179 24.70215122 65.4296875 48.28857422 C74.17703744 62.34963428 78.79599726 78.67045904 79 95.16748047 C79.02900391 95.96089844 79.05800781 96.75431641 79.08789062 97.57177734 C79.15098089 103.35181595 79.15098089 103.35181595 76.8515625 106.46826172 C74.00510714 108.45667007 72.16570601 108.97998047 68.6875 108.97998047 C66.01213034 107.37475867 64.13371938 106.24521009 63.0703125 103.22998047 C62.58403774 100.37187574 62.49194653 97.5644132 62.375 94.66748047 C60.96840954 74.64425151 52.67915112 57.02180909 39.6875 41.97998047 C39.13835937 41.31869141 38.58921875 40.65740234 38.0234375 39.97607422 C23.77262362 24.22709785 1.58006664 16.71208984 -19 15.04248047 C-20.14976318 14.9850769 -20.14976318 14.9850769 -21.32275391 14.92651367 C-25.15955997 14.643653 -26.97571806 14.30246507 -29.796875 11.60107422 C-31.68595305 8.3341377 -32.00891067 6.69417073 -31.3125 2.97998047 C-25.79559368 -6.78069994 -9.15785917 -1.85844512 0 0 Z " fill="#240E1F" transform="translate(279.3125,146.02001953125)"/>
<path d="M0 0 C3.29291844 2.11084515 3.88775952 3.64347142 5.0625 7.375 C4.99517891 11.2796233 4.29892921 12.58036924 1.75512695 15.44287109 C-1.82692472 18.62082708 -6.1666128 20.53112135 -10.4375 22.625 C-12.49715269 23.66457129 -14.55571804 24.70629922 -16.61328125 25.75 C-17.66596191 26.28109375 -18.71864258 26.8121875 -19.80322266 27.359375 C-25.90977631 30.49333258 -31.9023241 33.83742417 -37.90405273 37.16650391 C-38.76329346 37.64007324 -39.62253418 38.11364258 -40.5078125 38.6015625 C-41.25691895 39.01744629 -42.00602539 39.43333008 -42.77783203 39.86181641 C-48.00802976 42.54069817 -51.12526638 43.41428772 -57 42 C-59.39216609 40.4052226 -59.88287964 39.34235181 -60.8125 36.625 C-61.04311856 33.39634014 -60.59035546 31.8192665 -59 29 C-55.57926695 25.99265429 -52.04080327 23.79812862 -48.01953125 21.6796875 C-46.86356445 21.06617432 -45.70759766 20.45266113 -44.51660156 19.82055664 C-43.28207062 19.17171502 -42.04736676 18.52320228 -40.8125 17.875 C-38.28114399 16.54041349 -35.75141685 15.2027785 -33.22265625 13.86328125 C-32.28792984 13.36878731 -32.28792984 13.36878731 -31.33432007 12.86430359 C-27.65764034 10.91020865 -24.02894089 8.89265148 -20.43359375 6.79296875 C-19.62881592 6.32584473 -18.82403809 5.8587207 -17.99487305 5.37744141 C-16.54914584 4.53060218 -15.11104353 3.67053828 -13.68286133 2.79443359 C-8.89327081 0.00625698 -5.54530682 -0.53149906 0 0 Z " fill="#210B20" transform="translate(465,122)"/>
<path d="M0 0 C3.63558419 1.56067388 7.08736586 3.42536833 10.5625 5.3125 C12.05704712 6.10914063 12.05704712 6.10914063 13.58178711 6.921875 C16.7273752 8.6033465 19.86401555 10.30069569 23 12 C25.06237702 13.10830179 27.12487484 14.21637883 29.1875 15.32421875 C31.14644994 16.38167103 33.104806 17.44022438 35.0625 18.5 C35.97136963 18.99153564 36.88023926 19.48307129 37.81665039 19.98950195 C50.44359626 26.88719252 50.44359626 26.88719252 52 30 C52.56580566 37.01599016 52.56580566 37.01599016 50.5625 40.5 C46.73438549 42.74084752 43.26546925 42.69914213 39 42 C34.72140008 40.29048917 30.80068491 38.04638125 26.8125 35.75 C24.51445828 34.46460172 22.21627864 33.17944998 19.91796875 31.89453125 C18.75565206 31.23656958 17.59337977 30.57852949 16.43115234 29.92041016 C13.16096397 28.09009126 9.86652157 26.32039603 6.55078125 24.57421875 C5.55006592 24.0440918 4.54935059 23.51396484 3.51831055 22.96777344 C1.63385302 21.97108288 -0.25386467 20.98052445 -2.14526367 19.99707031 C-6.69385052 17.5576531 -10.23776924 15.53579422 -13 11 C-13.6602967 7.03821982 -13.36550574 5.54825861 -11.125 2.1875 C-7.51227189 -1.53148482 -4.79757563 -1.30962327 0 0 Z " fill="#210B20" transform="translate(55,122)"/>
<path d="M0 0 C6.6525528 5.88432189 11.06322104 15.29288044 15.71484375 22.79296875 C17.94606141 26.37036568 20.25308211 29.88030153 22.62890625 33.36328125 C23.22300293 34.24330811 23.81709961 35.12333496 24.42919922 36.0300293 C25.57203277 37.71666882 26.72796787 39.39453065 27.89892578 41.06176758 C31.29299862 46.10991389 33.58190622 50.76551491 33 57 C31 60.0625 31 60.0625 28 62 C24.5 62.625 24.5 62.625 21 62 C15.49384859 57.55677521 12.15179785 51.3033943 8.4375 45.375 C7.37516031 43.69629995 6.31282014 42.0176002 5.25041199 40.33894348 C4.18243066 38.64887227 3.11806532 36.95651785 2.05371094 35.26416016 C0.14969686 32.23792761 -1.76284045 29.21733381 -3.6796875 26.19921875 C-7.83726764 19.64608341 -7.83726764 19.64608341 -9.83984375 16.47265625 C-10.23550537 15.84625244 -10.63116699 15.21984863 -11.03881836 14.57446289 C-13.26484997 10.92811342 -13.29540991 8.28344372 -13 4 C-9.94032547 -1.53655391 -5.7671583 -1.73014749 0 0 Z " fill="#210B20" transform="translate(135,37)"/>
<path d="M0 0 C4.4297642 0.79102932 5.89210172 1.98974785 8.5 5.625 C9.16750358 10.78364179 7.59702291 13.89280888 4.8125 18.0625 C4.39331299 18.70993164 3.97412598 19.35736328 3.54223633 20.02441406 C1.87964307 22.57028641 0.18939113 25.09682322 -1.5 27.625 C-2.31852226 28.86116763 -3.13651949 30.097683 -3.95410156 31.33447266 C-6.25644936 34.81441525 -8.57061407 38.28626062 -10.89248657 41.75320435 C-11.83578382 43.16268679 -12.77702392 44.57354824 -13.71615601 45.98580933 C-15.05912244 48.00137088 -16.41280603 50.0093069 -17.76953125 52.015625 C-18.37234421 52.92572075 -18.37234421 52.92572075 -18.98733521 53.85420227 C-21.43744046 57.44791252 -23.89349925 60.17919098 -27.5 62.625 C-31.5433941 63.38313639 -32.98997454 62.96139977 -36.4375 60.6875 C-38.96174558 56.93937778 -38.78739428 55.46119438 -38.18005371 51.14709473 C-36.88651708 46.34979435 -34.05125549 42.54900131 -31.234375 38.515625 C-30.60396301 37.58578796 -29.97355103 36.65595093 -29.32403564 35.69793701 C-27.99385083 33.74277361 -26.65535764 31.79323981 -25.30908203 29.84912109 C-23.25442394 26.8813899 -21.22485093 23.89775492 -19.19921875 20.91015625 C-17.89986487 19.00683728 -16.59912956 17.10446049 -15.296875 15.203125 C-14.69147888 14.31659241 -14.08608276 13.43005981 -13.46234131 12.5166626 C-5.45199908 0.97357126 -5.45199908 0.97357126 0 0 Z " fill="#210B20" transform="translate(385.5,38.375)"/>
<path d="M0 0 C2.76438787 2.16288127 3.88349236 3.347238 4.50793457 6.8458252 C4.51111694 7.94406616 4.51429932 9.04230713 4.51757812 10.17382812 C4.53018677 11.42192261 4.54279541 12.67001709 4.55578613 13.95593262 C4.54862628 15.3143775 4.54042229 16.67281722 4.53125 18.03125 C4.53394569 19.42842885 4.53782876 20.82560588 4.54284668 22.22277832 C4.54873826 25.14821264 4.54019063 28.07315779 4.52148438 30.99853516 C4.49869394 34.74481391 4.511819 38.48994645 4.53577423 42.23618317 C4.55024205 45.12046922 4.54562195 48.00448438 4.53526306 50.88877869 C4.53259844 52.26985307 4.5358563 53.65095221 4.54518127 55.03199768 C4.55536088 56.96338417 4.53708887 58.89485711 4.51757812 60.82617188 C4.51280457 62.47353333 4.51280457 62.47353333 4.50793457 64.1541748 C3.88182663 67.66209461 2.75995368 68.81830716 0 71 C-3.37880511 72.33373886 -4.72957783 72.09544312 -8.1875 70.875 C-11.45736679 68.6950888 -11.87072157 67.67668283 -13 64 C-13.26069641 61.27516174 -13.26069641 61.27516174 -13.2746582 58.29516602 C-13.28419022 57.17372696 -13.29372223 56.0522879 -13.30354309 54.89686584 C-13.30263168 53.69468918 -13.30172028 52.49251251 -13.30078125 51.25390625 C-13.30506638 50.01003647 -13.3093515 48.76616669 -13.31376648 47.48460388 C-13.32097238 44.18413148 -13.31789045 40.88384184 -13.31219482 37.58337402 C-13.3124995 35.56580382 -13.32253734 33.54852722 -13.33618164 31.53100586 C-13.36068521 27.64683278 -13.36483674 23.76314701 -13.36328125 19.87890625 C-13.372491 18.67875381 -13.38170074 17.47860138 -13.39118958 16.24208069 C-13.33277643 5.69574641 -13.33277643 5.69574641 -10 1 C-6.87057535 -0.56471233 -3.38917777 -0.69701958 0 0 Z " fill="#210B20" transform="translate(260,0)"/>
<path d="M0 0 C0.90017349 -0.00571014 1.80034698 -0.01142029 2.72779846 -0.01730347 C4.21309303 -0.01898026 4.21309303 -0.01898026 5.72839355 -0.02069092 C7.28946083 -0.02813828 7.28946083 -0.02813828 8.88206482 -0.03573608 C12.33540499 -0.05037904 15.78869927 -0.05716234 19.24206543 -0.06268311 C21.63338218 -0.06843164 24.02469891 -0.0741894 26.41601562 -0.07995605 C31.43306697 -0.09047133 36.45010226 -0.09631094 41.46716309 -0.09979248 C47.91052561 -0.10528632 54.35367778 -0.12933126 60.79697418 -0.15776443 C65.73647696 -0.1763416 70.67592849 -0.18159372 75.61546326 -0.18312836 C77.99182794 -0.18616523 80.3681915 -0.19422827 82.74452209 -0.20731354 C86.06092597 -0.22427547 89.37680825 -0.22251821 92.6932373 -0.21600342 C93.68343369 -0.2252182 94.67363007 -0.23443298 95.6938324 -0.243927 C96.59400589 -0.23835785 97.49417938 -0.2327887 98.42163086 -0.22705078 C99.59855122 -0.22925062 99.59855122 -0.22925062 100.79924774 -0.2314949 C101.43006508 -0.10875576 102.06088242 0.01398338 102.71081543 0.14044189 C104.71081543 3.14044189 104.71081543 3.14044189 104.71081543 6.14044189 C102.36915546 7.31127188 100.99306689 7.26863318 98.38366699 7.27415466 C97.47507935 7.27841965 96.5664917 7.28268463 95.63037109 7.28707886 C94.63082397 7.28662567 93.63127686 7.28617249 92.60144043 7.28570557 C91.55097534 7.28906418 90.50051025 7.29242279 89.41821289 7.29588318 C85.93240184 7.30541246 82.44663871 7.30733718 78.96081543 7.30841064 C76.54707824 7.31162146 74.13334126 7.3149854 71.71960449 7.3184967 C66.65547229 7.32449266 61.59135718 7.32633609 56.52722168 7.32574463 C50.02337224 7.32564289 43.5196317 7.33930501 37.01580811 7.35651684 C32.02998344 7.36760873 27.04418535 7.36966472 22.05834961 7.3691349 C19.65966414 7.37031889 17.26097808 7.37476392 14.86230469 7.38246727 C11.51485452 7.39221206 8.16764407 7.38941116 4.82019043 7.38336182 C3.82064331 7.38898132 2.82109619 7.39460083 1.79125977 7.40039062 C0.88267212 7.39619614 -0.02591553 7.39200165 -0.96203613 7.38768005 C-1.75402405 7.38822482 -2.54601196 7.38876959 -3.36199951 7.38933086 C-5.28918457 7.14044189 -5.28918457 7.14044189 -7.28918457 5.14044189 C-7.03918457 3.07794189 -7.03918457 3.07794189 -6.28918457 1.14044189 C-3.95840678 -0.024947 -2.5963027 0.00984322 0 0 Z " fill="#DCDBDC" transform="translate(207.2891845703125,440.85955810546875)"/>
<path d="M0 0 C1.12456604 -0.00262848 1.12456604 -0.00262848 2.27185059 -0.00531006 C4.75604551 -0.00972026 7.24016956 -0.0067938 9.72436523 -0.00341797 C11.44547031 -0.00409118 13.1665753 -0.00506134 14.88768005 -0.00631714 C18.49658106 -0.00779292 22.10545733 -0.00564311 25.71435547 -0.00097656 C30.35068762 0.00472493 34.98696194 0.00143831 39.62329197 -0.00454903 C43.1773472 -0.0081542 46.73138862 -0.00701633 50.28544426 -0.00442123 C51.99555404 -0.00375207 53.70566506 -0.00458004 55.41577339 -0.00690079 C57.80065383 -0.00942707 60.18543918 -0.00558729 62.5703125 0 C63.283582 -0.00202423 63.9968515 -0.00404846 64.73173523 -0.00613403 C69.60619538 0.01513093 69.60619538 0.01513093 70.72045898 1.12939453 C70.84545898 3.62939453 70.84545898 3.62939453 70.72045898 6.12939453 C69.040852 7.80900152 66.97458019 7.26123248 64.73173523 7.27603149 C63.66183098 7.27535172 63.66183098 7.27535172 62.5703125 7.2746582 C61.44837494 7.27969612 61.44837494 7.27969612 60.30377197 7.28483582 C57.81895306 7.29437355 55.33420133 7.29629033 52.84936523 7.29736328 C51.1292264 7.30057391 49.40908784 7.30393783 47.68894958 7.30744934 C44.07827115 7.31344768 40.46761667 7.31528852 36.85693359 7.31469727 C32.22174913 7.3145956 27.58671772 7.32824881 22.95156956 7.34546947 C19.39746897 7.35656773 15.84340563 7.35861715 12.28928947 7.35808754 C10.58000091 7.35927091 8.87071149 7.36371254 7.1614399 7.37141991 C4.77418308 7.38117612 2.38726178 7.37835925 0 7.37231445 C-0.71124527 7.37793396 -1.42249054 7.38355347 -2.1552887 7.38934326 C-7.05122528 7.35771027 -7.05122528 7.35771027 -9.27954102 5.12939453 C-9.27954102 3.80939453 -9.27954102 2.48939453 -9.27954102 1.12939453 C-6.30199034 -0.35938081 -3.26439503 -0.00929059 0 0 Z " fill="#DEDEDE" transform="translate(225.279541015625,488.87060546875)"/>
</svg>
