<?xml version="1.0" encoding="UTF-8"?>
<svg version="1.1" xmlns="http://www.w3.org/2000/svg" width="512" height="512">
<path d="M0 0 C3.86456067 0.65624615 4.23326417 1.23524134 6.5 4.25 C7.45951354 5.67290065 8.39880548 7.10975266 9.3125 8.5625 C9.93125 9.51125 10.55 10.46 11.1875 11.4375 C12.3125 13.5625 12.3125 13.5625 12.3125 15.5625 C13.31667969 15.72105469 14.32085937 15.87960938 15.35546875 16.04296875 C23.62813677 17.42919961 30.93496422 19.26886745 38.640625 22.671875 C41.6107058 23.66190193 42.49785216 23.83398184 45.3125 22.5625 C47.41063104 21.15018465 49.4212679 19.70802704 51.4375 18.1875 C57.0853388 14.0513872 62.86372031 10.19036753 68.8125 6.5 C69.56547363 6.02320801 70.31844727 5.54641602 71.09423828 5.05517578 C75.10946256 2.59440538 78.47507324 0.68343567 83.3125 0.5625 C86.3125 2.5625 86.3125 2.5625 87.07641602 4.31542969 C87.38897911 7.29043559 86.80954001 9.61189227 86.08984375 12.515625 C85.80101318 13.68536865 85.51218262 14.8551123 85.21459961 16.06030273 C84.89628174 17.29852783 84.57796387 18.53675293 84.25 19.8125 C83.93361572 21.07199463 83.61723145 22.33148926 83.29125977 23.62915039 C81.15890155 31.90061524 78.622962 39.74496663 75.18359375 47.55859375 C74.04946224 50.51057971 74.04946224 50.51057971 75.02734375 53.296875 C76.54003904 55.96363266 78.31954467 58.23738545 80.3125 60.5625 C80.82039062 60.15257812 81.32828125 59.74265625 81.8515625 59.3203125 C82.88410156 58.51207031 82.88410156 58.51207031 83.9375 57.6875 C84.61039063 57.15382812 85.28328125 56.62015625 85.9765625 56.0703125 C93.07896043 51.48582153 101.15723938 51.75881768 109.3125 52.5625 C116.73105065 54.672273 122.08385637 59.18429586 126.3125 65.5625 C128.35731822 69.58641014 129.3125 72.99242734 129.3125 77.5625 C130.59125 77.706875 131.87 77.85125 133.1875 78 C135.56942894 78.26892746 137.15702691 78.48476346 139.3125 79.5625 C139.4775 78.881875 139.6425 78.20125 139.8125 77.5 C142.61451239 72.01272573 147.59150553 68.01767001 153.25 65.625 C160.71428232 63.30148799 167.50450962 64.21538309 174.6875 67.1484375 C185.27787775 72.85337314 192.1018708 87.5701191 196.03076172 98.57421875 C198.63206761 107.3179481 197.40618423 114.50718587 193.3125 122.5625 C189.82131239 127.22023456 185.7786142 130.45059224 180.3125 132.5625 C179.3225 132.5625 178.3325 132.5625 177.3125 132.5625 C177.3125 133.2225 177.3125 133.8825 177.3125 134.5625 C178.3025 134.624375 179.2925 134.68625 180.3125 134.75 C186.43285738 135.64203589 190.84291547 139.09291547 195.125 143.375 C200.05234665 150.55484798 200.98496641 156.91096105 200.3125 165.5625 C200.05984375 166.41457031 199.8071875 167.26664063 199.546875 168.14453125 C199.05607755 170.66952153 199.05607755 170.66952153 200.7421875 172.87890625 C204.30178415 175.21049616 207.3652195 174.78814564 211.4375 174.5 C219.93103558 174.21898376 225.46989894 175.573266 232.15234375 181.078125 C240.68374355 189.66756153 248.56411475 204.79558398 248.6875 216.875 C248.65958413 224.82043514 247.06823318 229.53791481 241.75 235.375 C240.33224165 236.64734724 238.90093759 237.90546867 237.4375 239.125 C237.06625 239.599375 236.695 240.07375 236.3125 240.5625 C236.70736869 242.63705177 236.70736869 242.63705177 237.3125 244.5625 C238.488125 244.81 239.66375 245.0575 240.875 245.3125 C247.79440809 247.06068968 252.34045591 250.43799118 257.3125 255.5625 C257.49312988 254.90652832 257.67375977 254.25055664 257.85986328 253.57470703 C258.6934042 250.60439477 259.56482199 247.64653847 260.4375 244.6875 C260.72109375 243.65496094 261.0046875 242.62242187 261.296875 241.55859375 C263.57298568 233.98805172 263.57298568 233.98805172 267.3671875 231.8046875 C270.3125 231.5625 270.3125 231.5625 273.3125 232.5625 C274.42822266 234.02685547 274.42822266 234.02685547 275.4765625 235.9296875 C275.87246582 236.64189453 276.26836914 237.35410156 276.67626953 238.08789062 C277.30057861 239.25094727 277.30057861 239.25094727 277.9375 240.4375 C278.37046387 241.23091797 278.80342773 242.02433594 279.24951172 242.84179688 C282.47945472 248.83473144 285.50953914 254.91697375 288.4375 261.0625 C288.82760254 261.88089355 289.21770508 262.69928711 289.61962891 263.54248047 C292.3125 269.30348885 292.3125 269.30348885 292.3125 271.5625 C293.8284375 271.4696875 293.8284375 271.4696875 295.375 271.375 C302.68341011 271.36190249 311.274179 272.78492296 317.95703125 275.7265625 C321.00188068 276.80715583 322.24594919 276.60102665 325.3125 275.5625 C328.7800338 273.77548703 332.09781568 271.73844739 335.4296875 269.71289062 C342.25641026 265.70058093 342.25641026 265.70058093 346.3125 266.5625 C348.1328125 267.78515625 348.1328125 267.78515625 349.3125 269.5625 C349.94763182 276.83890151 347.20910524 284.62020911 345.3125 291.5625 C346.04855469 292.12195313 346.78460938 292.68140625 347.54296875 293.2578125 C358.01187432 301.9695957 365.41073777 314.99233674 370.3125 327.5625 C370.3125 328.5525 370.3125 329.5425 370.3125 330.5625 C372.12814453 330.70558594 372.12814453 330.70558594 373.98046875 330.8515625 C380.35769619 331.56333451 386.44571711 333.25634603 392.625 334.9375 C393.79095703 335.24171875 394.95691406 335.5459375 396.15820312 335.859375 C397.27775391 336.16101563 398.39730469 336.46265625 399.55078125 336.7734375 C400.56180908 337.04462402 401.57283691 337.31581055 402.61450195 337.59521484 C405.37547656 338.58507833 407.18088727 339.55587882 409.3125 341.5625 C410.1875 344.875 410.1875 344.875 409.3125 348.5625 C406.38727117 351.23367669 402.83060827 352.79353012 399.3125 354.5625 C397.74948212 355.38979982 396.18843054 356.22082068 394.62890625 357.0546875 C391.32737499 358.81458806 388.02054388 360.56318872 384.703125 362.29296875 C383.9498291 362.69257813 383.1965332 363.0921875 382.42041016 363.50390625 C380.3125 364.5625 380.3125 364.5625 376.8515625 365.88671875 C373.97564019 367.41488574 373.97564019 367.41488574 373.1328125 370.9765625 C372.88206586 372.37694297 372.6514429 373.78102647 372.4375 375.1875 C370.61492479 384.79223167 366.76208979 392.91787361 362.3125 401.5625 C361.9825 402.2225 361.6525 402.8825 361.3125 403.5625 C363.15817595 406.90211447 365.10577731 410.13840556 367.15234375 413.35742188 C369.42535761 417.14931883 370.33588341 418.97031513 370.15625 423.51953125 C369.3125 426.5625 369.3125 426.5625 368.3125 427.5625 C361.56121004 428.22439117 356.07549013 426.45515932 349.6796875 424.33984375 C345.29311518 423.32716638 342.15326181 423.51014641 338.21484375 425.76171875 C337.56644531 426.25285156 336.91804688 426.74398438 336.25 427.25 C317.82351558 440.03509817 295.54354279 443.27326305 273.62890625 439.9375 C261.32673896 437.62156951 250.0491733 432.16417036 240.125 424.625 C237.8991716 423.02641374 237.8991716 423.02641374 235.3125 422.5625 C231.61983276 423.90169561 228.64731068 425.63047213 225.390625 427.8203125 C221.95332685 429.76578836 220.19146974 430.24511199 216.3125 429.5625 C214.3984375 427.8515625 214.3984375 427.8515625 213.3125 425.5625 C213.3515625 423.3359375 213.3515625 423.3359375 213.9375 420.9375 C214.24494141 419.62845703 214.24494141 419.62845703 214.55859375 418.29296875 C215.52772047 414.78302276 216.625153 411.32479828 217.82421875 407.88671875 C218.85394962 402.98519979 216.91160944 399.56511609 214.58203125 395.29663086 C211.07912439 388.87331767 208.45726519 382.64072638 206.8125 375.5 C206.57309692 374.46601074 206.57309692 374.46601074 206.32885742 373.41113281 C205.41717037 369.07759089 205.17458475 364.98153461 205.3125 360.5625 C204.62800781 360.32273437 203.94351562 360.08296875 203.23828125 359.8359375 C197.55336287 357.36159385 192.54395611 353.56995061 187.46191406 350.04931641 C185.99759251 349.03639975 184.52794332 348.03115195 183.05371094 347.03271484 C180.80913719 345.50477053 178.59036462 343.94491205 176.375 342.375 C175.67076904 341.90078613 174.96653809 341.42657227 174.2409668 340.93798828 C170.67153288 338.34924642 169.46529732 337.37482923 168.62109375 332.88671875 C169.3125 329.5625 169.3125 329.5625 171.04980469 327.91186523 C173.55688589 326.41675973 175.32115807 326.00138404 178.20703125 325.6484375 C179.15578125 325.52871582 180.10453125 325.40899414 181.08203125 325.28564453 C182.08621094 325.17075684 183.09039062 325.05586914 184.125 324.9375 C185.15367187 324.80327637 186.18234375 324.66905273 187.2421875 324.53076172 C191.8253187 323.95787032 196.29612009 323.47236983 200.91796875 323.609375 C204.70197162 323.68528278 207.70281807 323.71189872 211.3125 322.5625 C213.85743864 319.54262562 215.27561964 316.64938438 216.81640625 313.01953125 C218.89232743 308.22268988 221.95021678 304.51752615 225.3125 300.5625 C224.66023438 300.15 224.00796875 299.7375 223.3359375 299.3125 C215.91520685 294.40912636 210.08695835 289.23580674 207.3125 280.5625 C206.49256964 272.13437858 206.32065004 263.75365776 211.3125 256.5625 C213.45927518 253.994976 215.65057082 251.60156398 218.3125 249.5625 C218.9725 249.5625 219.6325 249.5625 220.3125 249.5625 C219.9825 247.2525 219.6525 244.9425 219.3125 242.5625 C218.3225 242.52125 217.3325 242.48 216.3125 242.4375 C209.92831844 241.49599444 205.243009 237.00351795 201.3125 232.125 C192.90512588 220.18375709 187.35715003 208.37042461 188.3125 193.5625 C188.78413024 191.06611234 189.42418615 188.94984347 190.3125 186.5625 C188.63761472 184.82602052 188.63761472 184.82602052 186.3125 183.5625 C184.62890985 184.18519288 182.96387598 184.85881002 181.3125 185.5625 C177.61239287 186.32345393 173.87033961 186.76480285 170.125 187.25 C169.13435547 187.39244141 168.14371094 187.53488281 167.12304688 187.68164062 C160.65883485 188.53364496 154.76236283 188.52655857 148.3125 187.5625 C146.71019778 190.85874266 146.71019778 190.85874266 146.5 194.4375 C147.32620862 196.73874436 147.32620862 196.73874436 148.875 199.4375 C152.862977 208.94882515 150.19101402 219.34248107 147.6875 228.875 C147.45232666 229.7935376 147.21715332 230.7120752 146.97485352 231.65844727 C144.3918651 240.80415793 140.42308108 247.96396787 132.046875 252.78515625 C130.3125 253.5625 130.3125 253.5625 128.3125 253.5625 C128.3125 255.2125 128.3125 256.8625 128.3125 258.5625 C129.1375 258.748125 129.9625 258.93375 130.8125 259.125 C138.15627402 262.1411929 143.21071891 267.47409928 146.46875 274.68359375 C148.61867299 282.01921061 148.5381431 290.69113714 145.37890625 297.7421875 C143.32645398 301.24564082 140.88709062 304.42966481 138.3125 307.5625 C138.6375395 308.08886425 138.962579 308.6152285 139.29746819 309.15754318 C140.60241377 312.24940467 140.5583369 314.68525009 140.55300903 318.04180908 C140.55471788 318.69042805 140.55642673 319.33904703 140.55818737 320.00732112 C140.56147894 322.17849611 140.55048429 324.34936134 140.53955078 326.52050781 C140.53898659 328.0777282 140.53930337 329.63494911 140.54043579 331.19216919 C140.54101001 335.4191168 140.52924444 339.64595109 140.51528788 343.87287235 C140.50279213 348.2904662 140.50161093 352.70806259 140.49923706 357.12567139 C140.4930189 365.49081473 140.47660352 373.85590585 140.45653808 382.22102618 C140.43418956 391.74450962 140.42318828 401.26799553 140.41314721 410.79149866 C140.39223759 430.3818616 140.35705506 449.97217751 140.3125 469.5625 C141.41787109 469.6847998 142.52324219 469.80709961 143.66210938 469.93310547 C147.3125 470.5625 147.3125 470.5625 149.71875 472.6328125 C151.7048645 476.28375827 151.92143434 479.38004959 151.8125 483.4375 C151.79968994 484.15131836 151.78687988 484.86513672 151.77368164 485.60058594 C151.55792528 491.17567898 151.00608907 494.39537387 147.3125 498.5625 C141.73143511 502.45750705 137.62785313 503.15863844 130.90625 503.09375 C130.02271851 503.0975769 129.13918701 503.10140381 128.22888184 503.10534668 C126.36986138 503.10805602 124.51080217 503.10076362 122.65185547 503.08398438 C119.82041736 503.06255991 116.99151626 503.08381855 114.16015625 503.109375 C112.34634862 503.10673155 110.53254255 503.10160621 108.71875 503.09375 C107.46064514 503.10589539 107.46064514 503.10589539 106.17712402 503.11828613 C100.4156548 503.02722216 97.05601904 501.87169444 92.3125 498.5625 C88.12861136 493.84204122 87.68615501 490.02770871 87.8125 484 C87.78929687 482.8872168 87.78929687 482.8872168 87.765625 481.75195312 C87.79193252 478.05903502 88.12993041 475.90213314 89.90625 472.59765625 C92.98398298 469.99457365 95.37369384 470.00087879 99.3125 469.5625 C99.31065641 468.74674374 99.30881283 467.93098747 99.30691338 467.09051132 C99.26276822 447.25257485 99.22965993 427.41464683 99.20887566 407.5766716 C99.1985577 397.98322538 99.18448745 388.38981192 99.16162109 378.79638672 C99.14170311 370.43595554 99.12878734 362.07554809 99.12432301 353.71509385 C99.12171293 349.28722335 99.11556733 344.85942073 99.10103989 340.43157196 C99.08748113 336.26527606 99.0832739 332.09907611 99.08628464 327.93276024 C99.08573371 326.40250566 99.0817461 324.87224793 99.07408905 323.34201241 C99.06415439 321.25448087 99.06652555 319.1673127 99.07199097 317.07977295 C99.07014738 315.91093945 99.06830379 314.74210594 99.06640434 313.53785324 C99.30490617 310.6543111 99.80653406 308.99761158 101.3125 306.5625 C100.91417969 306.13839844 100.51585937 305.71429688 100.10546875 305.27734375 C94.32290144 298.87571814 91.14992609 292.28729994 91.3125 283.5625 C92.284967 274.09374242 96.03315705 267.68086321 103.3125 261.5625 C108.65975275 258.5625 108.65975275 258.5625 111.3125 258.5625 C111.3125 256.9125 111.3125 255.2625 111.3125 253.5625 C109.9821875 253.2221875 109.9821875 253.2221875 108.625 252.875 C104.793669 251.35692545 103.02589692 249.63292283 100.3125 246.5625 C99.590625 245.758125 98.86875 244.95375 98.125 244.125 C93.623562 237.760898 93.46318332 231.10204811 94.3125 223.5625 C95.05453995 219.63099007 95.96718839 215.75593781 96.9375 211.875 C97.29038086 210.41429077 97.29038086 210.41429077 97.65039062 208.92407227 C99.81230489 200.78993898 103.07928571 193.51548103 110.1875 188.625 C115.52916963 185.67997302 120.54216518 184.4094911 126.625 184.6875 C130.28045652 184.93685378 130.28045652 184.93685378 132.375 182.875 C133.82402276 179.30074385 132.85814378 177.05373587 131.56640625 173.5234375 C128.47545598 164.91610229 128.6166869 158.68119184 131.99609375 150.1796875 C135.42116198 143.37020468 140.53191523 139.81851052 147.6015625 137.2734375 C152.12326366 136.08763114 156.65333269 135.73965465 161.3125 135.5625 C161.01267384 133.61642205 161.01267384 133.61642205 160.3125 131.5625 C158.31965862 130.2184907 156.31830329 128.88708708 154.3125 127.5625 C148.99611339 122.4863662 145.78242611 116.30530994 142.5 109.8125 C142.01080078 108.86761719 141.52160156 107.92273438 141.01757812 106.94921875 C137.48452859 100.07858576 137.48452859 100.07858576 136.3125 96.5625 C133.75207934 95.53211044 133.75207934 95.53211044 130.75 94.875 C129.73808594 94.62363281 128.72617188 94.37226562 127.68359375 94.11328125 C126.90113281 93.93152344 126.11867187 93.74976562 125.3125 93.5625 C125.04695312 94.32304688 124.78140625 95.08359375 124.5078125 95.8671875 C122.26276451 100.92955062 117.7273677 104.16824849 112.75 106.4375 C104.93967088 109.02056384 95.90393979 108.45832278 88.3125 105.5625 C87.57226457 109.42817393 87.4574612 112.70521823 88.3125 116.5625 C91.10384605 120.21783412 94.42699184 123.14864487 97.84619141 126.19189453 C101.79536654 129.88331465 104.99424183 134.31372499 108.3125 138.5625 C109.16479442 139.61244226 110.01767439 140.66190942 110.87109375 141.7109375 C111.70693799 142.76466726 112.54160436 143.81933257 113.375 144.875 C114.12910156 145.81988281 114.88320312 146.76476562 115.66015625 147.73828125 C117.59519764 151.04569242 117.97234675 152.7956583 117.3125 156.5625 C115.09997294 158.78110543 113.89962205 159.53674268 110.74145508 159.67529297 C109.78134521 159.55299316 108.82123535 159.43069336 107.83203125 159.3046875 C106.22098511 159.10903198 106.22098511 159.10903198 104.57739258 158.90942383 C102.86845825 158.67582153 102.86845825 158.67582153 101.125 158.4375 C99.96057373 158.29658936 98.79614746 158.15567871 97.59643555 158.01049805 C91.56069887 157.25201756 85.68574832 156.25392078 79.7668457 154.86279297 C73.80632188 153.28399253 73.80632188 153.28399253 68.11328125 154.83984375 C66.37930959 156.78961024 66.37930959 156.78961024 64.99609375 159.078125 C62.89100459 162.18447467 60.41296689 164.20813294 57.5 166.5625 C56.56542969 167.325625 55.63085938 168.08875 54.66796875 168.875 C52.3125 170.5625 52.3125 170.5625 50.3125 170.5625 C50.456875 171.28953125 50.60125 172.0165625 50.75 172.765625 C52.08054826 179.9727614 53.12467636 187.22902521 52.3125 194.5625 C50.3125 196.5625 50.3125 196.5625 47.59375 196.984375 C43.36287661 196.44040556 40.96888935 194.48156083 37.8125 191.8125 C36.17918777 190.47791709 34.54244631 189.14951541 32.890625 187.83789062 C31.40345074 186.63600351 29.96526838 185.37421143 28.53125 184.109375 C24.38307055 182.11583245 22.38605764 182.85325289 18.05175781 183.95019531 C0.1456961 187.95272675 -19.72439844 184.00520704 -35.6875 175.5625 C-36.65042969 175.07136719 -37.61335938 174.58023438 -38.60546875 174.07421875 C-51.29775725 167.19444012 -63.55111943 156.24008889 -69.90795898 143.02539062 C-72.27412069 139.75061503 -74.12053696 139.41767646 -78 138.4296875 C-79.24007812 138.09839844 -80.48015625 137.76710937 -81.7578125 137.42578125 C-83.06735676 137.09495935 -84.37725769 136.76554633 -85.6875 136.4375 C-88.25372246 135.78103924 -90.814445 135.10842089 -93.375 134.4296875 C-94.51324219 134.14206543 -95.65148437 133.85444336 -96.82421875 133.55810547 C-99.64501821 132.57727155 -100.95252098 131.95405828 -102.6875 129.5625 C-103.1875 126.625 -103.1875 126.625 -102.6875 123.5625 C-98.77930047 119.82125269 -94.19341058 117.63773835 -89.375 115.3125 C-88.63443359 114.94898437 -87.89386719 114.58546875 -87.13085938 114.2109375 C-85.31910746 113.32259463 -83.50367047 112.44177407 -81.6875 111.5625 C-81.6781543 110.9547876 -81.66880859 110.3470752 -81.65917969 109.72094727 C-81.3187078 92.00138813 -80.21544613 76.37492157 -71.15405273 60.82446289 C-69.939152 58.74972408 -69.939152 58.74972408 -68.6875 55.5625 C-69.84630791 51.85890401 -71.68744595 48.45776809 -73.4375 45 C-73.9634375 43.95585938 -74.489375 42.91171875 -75.03125 41.8359375 C-75.5778125 40.75570312 -76.124375 39.67546875 -76.6875 38.5625 C-77.77273394 36.41762725 -78.85613566 34.27182626 -79.9375 32.125 C-80.41703125 31.17753906 -80.8965625 30.23007812 -81.390625 29.25390625 C-83.86910097 24.11032209 -85.23620369 20.37875907 -84.6875 14.5625 C-81.37634865 12.35506577 -80.05490606 12.33355363 -76.22460938 12.93017578 C-70.58544796 14.33562498 -65.27970918 16.74688177 -59.9375 19 C-58.71933594 19.50337891 -57.50117187 20.00675781 -56.24609375 20.52539062 C-47.29918593 24.23929448 -47.29918593 24.23929448 -44.46411133 25.73730469 C-41.88433988 26.9355495 -40.37040206 26.36941864 -37.6875 25.5625 C-36.02241135 24.83419293 -34.37703551 24.05975727 -32.75 23.25 C-25.04322784 19.6528092 -16.31605503 16.12622475 -7.6875 16.5625 C-7.584375 15.386875 -7.48125 14.21125 -7.375 13 C-6.74414243 7.86171083 -5.67871368 1.18856798 0 0 Z M90.9375 74.375 C89.57712779 79.13630273 89.74371813 82.48587717 92.0625 86.875 C95.09468113 90.49677191 96.65422383 91.3897629 101.3125 91.875 C104.61324854 91.53117203 105.90938219 90.78076259 108.3125 88.5625 C107.673125 88.19125 107.03375 87.82 106.375 87.4375 C104.3125 85.5625 104.3125 85.5625 103.375 82.6875 C103.2849809 78.18654506 105.00917446 75.96236817 108 72.75 C108.6496875 72.1621875 108.6496875 72.1621875 109.3125 71.5625 C102.50959854 66.76045191 96.14417708 67.51165295 90.9375 74.375 Z M155.3125 83.5625 C155.39628906 84.22636719 155.48007812 84.89023438 155.56640625 85.57421875 C155.66824219 86.45722656 155.77007812 87.34023437 155.875 88.25 C155.97941406 89.12011719 156.08382813 89.99023438 156.19140625 90.88671875 C156.3125 93.5625 156.3125 93.5625 155.65625 96.03125 C155.17239146 99.59420837 156.44681372 101.32062324 158.25 104.375 C158.81589844 105.35082031 159.38179688 106.32664062 159.96484375 107.33203125 C160.40957031 108.06808594 160.85429687 108.80414063 161.3125 109.5625 C162.01375 108.9025 162.715 108.2425 163.4375 107.5625 C166.81077337 105.21587505 168.28999297 104.96340321 172.3125 105.5625 C174.625 106.75 174.625 106.75 176.3125 108.5625 C177.0625 111.25 177.0625 111.25 177.3125 113.5625 C178.3025 112.9025 179.2925 112.2425 180.3125 111.5625 C181.36356622 105.01028879 178.67873269 100.50785319 175.5625 94.875 C175.1190625 94.03388672 174.675625 93.19277344 174.21875 92.32617188 C171.04803498 86.32363506 171.04803498 86.32363506 166.3125 81.5625 C162.15460876 80.62078951 158.87500665 81.18749557 155.3125 83.5625 Z M177.3125 151.5625 C177.126875 152.51125 176.94125 153.46 176.75 154.4375 C175.3125 157.5625 175.3125 157.5625 172 159.0625 C168.15082011 159.5844227 166.53697929 159.68144353 163.3125 157.5625 C162 154.9375 162 154.9375 161.3125 152.5625 C156.07359914 152.24816595 152.78416327 152.75471144 148.3125 155.5625 C146.0351499 158.37759993 146.0351499 158.37759993 146.3125 161.5625 C147.92125 161.4696875 147.92125 161.4696875 149.5625 161.375 C153.3125 161.5625 153.3125 161.5625 155.6875 162.625 C158.02255127 165.40909959 158.04464392 168.01340698 158.3125 171.5625 C160.25034265 171.42129286 162.18776955 171.27437127 164.125 171.125 C165.20394531 171.04378906 166.28289062 170.96257812 167.39453125 170.87890625 C170.37239905 170.66037539 170.37239905 170.66037539 173.3125 169.5625 C173.8190636 167.54113961 173.8190636 167.54113961 174 165.1875 C174.44140625 162.73046875 174.44140625 162.73046875 175.3125 160.5625 C177.96941138 158.80031853 180.1563497 158.32608475 183.3125 157.5625 C182.26375002 154.94062506 181.66318687 153.76878639 179.1875 152.3125 C178.56875 152.065 177.95 151.8175 177.3125 151.5625 Z M218.3125 192.5625 C217.6009375 194.0165625 217.6009375 194.0165625 216.875 195.5 C215.3125 198.5625 215.3125 198.5625 214.3125 199.5625 C212.62641034 199.63455511 210.93749341 199.64636068 209.25 199.625 C208.33089844 199.61597656 207.41179687 199.60695312 206.46484375 199.59765625 C205.75457031 199.58605469 205.04429687 199.57445312 204.3125 199.5625 C204.89956108 204.71215858 207.33180252 208.82426492 209.75 213.3125 C210.15798828 214.09238281 210.56597656 214.87226563 210.98632812 215.67578125 C212.92282415 219.81763741 212.92282415 219.81763741 216.3125 222.5625 C216.84875 221.9025 217.385 221.2425 217.9375 220.5625 C220.3125 218.5625 220.3125 218.5625 223.25 218.125 C226.61237194 218.60533885 228.55841819 219.61844226 231.3125 221.5625 C233.1881144 214.72528495 230.99016726 210.81874336 227.625 204.8125 C227.17705078 203.96300781 226.72910156 203.11351562 226.26757812 202.23828125 C224.01286096 198.08330028 222.29407149 195.24475499 218.3125 192.5625 Z M119.3125 202.5625 C115.44163307 207.33320774 113.98191302 212.22926605 112.5 218.125 C112.27119141 218.96224609 112.04238281 219.79949219 111.80664062 220.66210938 C110.70205043 224.92846233 109.87249214 228.24247643 111.3125 232.5625 C111.8075 231.9025 112.3025 231.2425 112.8125 230.5625 C116.48127488 227.6274801 118.67947468 228.12125949 123.3125 228.5625 C126.3125 230.5625 126.3125 230.5625 128.3125 233.5625 C132.65458123 221.81781804 132.65458123 221.81781804 134.3125 209.5625 C132.70375 209.6553125 132.70375 209.6553125 131.0625 209.75 C127.14554442 209.55415222 125.97112636 209.31959401 123.3125 206.5625 C122.0625 204.375 122.0625 204.375 121.3125 202.5625 C120.6525 202.5625 119.9925 202.5625 119.3125 202.5625 Z M241.3125 263.5625 C240.6525 265.8725 239.9925 268.1825 239.3125 270.5625 C234.64783582 271.47714004 231.54655029 271.92858693 227.3125 269.5625 C226.9825 268.9025 226.6525 268.2425 226.3125 267.5625 C225.6525 267.5625 224.9925 267.5625 224.3125 267.5625 C222.5507157 271.0860686 223.39128656 274.83255186 224.3125 278.5625 C226.81375536 282.20068962 228.98484737 283.78340858 233.25 284.625 C236.52641561 284.84136707 237.50448308 284.46831962 240.625 282.9375 C244.24635296 279.73723459 246.03200812 277.4458026 246.75 272.625 C246.19942093 268.77094649 244.69618362 266.59627915 242.3125 263.5625 C241.9825 263.5625 241.6525 263.5625 241.3125 263.5625 Z M110.3125 277.5625 C107.97258292 281.21862044 107.93812051 284.29457376 108.3125 288.5625 C109.71123219 291.98162313 110.96636826 293.32101274 114 295.4375 C118.149976 296.84692581 121.14993091 296.94145807 125.3125 295.5625 C128.94468181 293.01224469 130.5395072 290.86684937 131.3125 286.5625 C131.3125 282.40647494 130.82819744 280.78259272 128.3125 277.5625 C127.631875 278.2225 126.95125 278.8825 126.25 279.5625 C122.58164026 282.06010663 120.67052608 282.1963947 116.3125 281.5625 C114 279.5625 114 279.5625 112.3125 277.5625 C111.6525 277.5625 110.9925 277.5625 110.3125 277.5625 Z " fill="#756F6F" transform="translate(102.6875,4.4375)"/>
<path d="M0 0 C1.9588746 2.42366504 3.32661615 5.1120621 4.75 7.875 C5.17394043 8.66841797 5.59788086 9.46183594 6.03466797 10.27929688 C19 34.83506848 19 34.83506848 19 39 C20.010625 38.938125 21.02125 38.87625 22.0625 38.8125 C29.37091011 38.79940249 37.961679 40.22242296 44.64453125 43.1640625 C47.68938068 44.24465583 48.93344919 44.03852665 52 43 C55.4675338 41.21298703 58.78531568 39.17594739 62.1171875 37.15039062 C68.94391026 33.13808093 68.94391026 33.13808093 73 34 C74.8203125 35.22265625 74.8203125 35.22265625 76 37 C76.63513182 44.27640151 73.89660524 52.05770911 72 59 C72.73605469 59.55945313 73.47210938 60.11890625 74.23046875 60.6953125 C84.69937432 69.4070957 92.09823777 82.42983674 97 95 C97 95.99 97 96.98 97 98 C98.21042969 98.09539062 99.42085937 98.19078125 100.66796875 98.2890625 C107.04519619 99.00083451 113.13321711 100.69384603 119.3125 102.375 C120.47845703 102.67921875 121.64441406 102.9834375 122.84570312 103.296875 C123.96525391 103.59851563 125.08480469 103.90015625 126.23828125 104.2109375 C127.24930908 104.48212402 128.26033691 104.75331055 129.30200195 105.03271484 C132.06297656 106.02257833 133.86838727 106.99337882 136 109 C136.875 112.3125 136.875 112.3125 136 116 C133.07477117 118.67117669 129.51810827 120.23103012 126 122 C124.43698212 122.82729982 122.87593054 123.65832068 121.31640625 124.4921875 C118.01487499 126.25208806 114.70804388 128.00068872 111.390625 129.73046875 C110.6373291 130.13007813 109.8840332 130.5296875 109.10791016 130.94140625 C107 132 107 132 103.5390625 133.32421875 C100.66314019 134.85238574 100.66314019 134.85238574 99.8203125 138.4140625 C99.56956586 139.81444297 99.3389429 141.21852647 99.125 142.625 C97.30242479 152.22973167 93.44958979 160.35537361 89 169 C88.67 169.66 88.34 170.32 88 171 C89.84567595 174.33961447 91.79327731 177.57590556 93.83984375 180.79492188 C96.11285761 184.58681883 97.02338341 186.40781513 96.84375 190.95703125 C96 194 96 194 95 195 C88.24871004 195.66189117 82.76299013 193.89265932 76.3671875 191.77734375 C71.98061518 190.76466638 68.84076181 190.94764641 64.90234375 193.19921875 C64.25394531 193.69035156 63.60554687 194.18148437 62.9375 194.6875 C44.51101558 207.47259817 22.23104279 210.71076305 0.31640625 207.375 C-11.98576104 205.05906951 -23.2633267 199.60167036 -33.1875 192.0625 C-35.4133284 190.46391374 -35.4133284 190.46391374 -38 190 C-41.69266724 191.33919561 -44.66518932 193.06797213 -47.921875 195.2578125 C-51.35917315 197.20328836 -53.12103026 197.68261199 -57 197 C-58.9140625 195.2890625 -58.9140625 195.2890625 -60 193 C-59.9609375 190.7734375 -59.9609375 190.7734375 -59.375 188.375 C-59.17003906 187.50230469 -58.96507812 186.62960937 -58.75390625 185.73046875 C-57.78477953 182.22052276 -56.687347 178.76229828 -55.48828125 175.32421875 C-54.45855038 170.42269979 -56.40089056 167.00261609 -58.73046875 162.73413086 C-62.23337561 156.31081767 -64.85523481 150.07822638 -66.5 142.9375 C-66.65960205 142.24817383 -66.8192041 141.55884766 -66.98364258 140.84863281 C-67.89532963 136.51509089 -68.13791525 132.41903461 -68 128 C-68.68449219 127.76023437 -69.36898437 127.52046875 -70.07421875 127.2734375 C-75.75913713 124.79909385 -80.76854389 121.00745061 -85.85058594 117.48681641 C-87.31490749 116.47389975 -88.78455668 115.46865195 -90.25878906 114.47021484 C-92.50336281 112.94227053 -94.72213538 111.38241205 -96.9375 109.8125 C-97.99384644 109.1011792 -97.99384644 109.1011792 -99.0715332 108.37548828 C-102.64096712 105.78674642 -103.84720268 104.81232923 -104.69140625 100.32421875 C-104 97 -104 97 -102.26269531 95.34936523 C-99.75561411 93.85425973 -97.99134193 93.43888404 -95.10546875 93.0859375 C-94.15671875 92.96621582 -93.20796875 92.84649414 -92.23046875 92.72314453 C-91.22628906 92.60825684 -90.22210938 92.49336914 -89.1875 92.375 C-88.15882813 92.24077637 -87.13015625 92.10655273 -86.0703125 91.96826172 C-81.4871813 91.39537032 -77.01637991 90.90986983 -72.39453125 91.046875 C-68.61052838 91.12278278 -65.60968193 91.14939872 -62 90 C-58.69041173 86.0727773 -56.99732327 81.69076457 -55 77 C-45.24067095 61.59302049 -29.16043659 51.54940104 -13 44 C-12.94581674 41.91695462 -12.90712449 39.83350232 -12.875 37.75 C-12.85179687 36.58984375 -12.82859375 35.4296875 -12.8046875 34.234375 C-12.77781537 31.11124047 -12.77781537 31.11124047 -14.0078125 29.015625 C-16.95907248 23.02015197 -14.1507194 16.13181715 -12.25 10.1875 C-11.99734375 9.32962891 -11.7446875 8.47175781 -11.484375 7.58789062 C-11.2265625 6.76869141 -10.96875 5.94949219 -10.703125 5.10546875 C-10.47270508 4.36449951 -10.24228516 3.62353027 -10.00488281 2.86010742 C-7.80505745 -1.21192111 -4.0085826 -1.75836599 0 0 Z " fill="#756F6F" transform="translate(376,237)"/>
<path d="M0 0 C9.86923557 7.43821063 17.22697493 23.11139251 20 35 C20.76159383 42.61593829 19.03949353 49.94488878 14.38671875 56.15234375 C11.01692089 59.68652199 7.60055442 62.22251307 3 64 C2.01 64 1.02 64 0 64 C0 64.66 0 65.32 0 66 C0.99 66.061875 1.98 66.12375 3 66.1875 C9.12035738 67.07953589 13.53041547 70.53041547 17.8125 74.8125 C22.73984665 81.99234798 23.67246641 88.34846105 23 97 C22.74734375 97.85207031 22.4946875 98.70414062 22.234375 99.58203125 C21.74357755 102.10702153 21.74357755 102.10702153 23.4296875 104.31640625 C26.98928415 106.64799616 30.0527195 106.22564564 34.125 105.9375 C42.61853558 105.65648376 48.15739894 107.010766 54.83984375 112.515625 C63.37124355 121.10506153 71.25161475 136.23308398 71.375 148.3125 C71.34708413 156.25793514 69.75573318 160.97541481 64.4375 166.8125 C63.01974165 168.08484724 61.58843759 169.34296867 60.125 170.5625 C59.75375 171.036875 59.3825 171.51125 59 172 C59.39486869 174.07455177 59.39486869 174.07455177 60 176 C61.7634375 176.37125 61.7634375 176.37125 63.5625 176.75 C72.04341291 178.90388264 78.30802574 183.60310871 82.875 191.0625 C84.93370339 196.38382688 84.22724545 202.4030288 84 208 C82.88882813 208.556875 81.77765625 209.11375 80.6328125 209.6875 C71.40650618 214.39090374 62.57535021 219.10453399 55.3671875 226.7265625 C54 228 54 228 52 228 C51.67 228.99 51.34 229.98 51 231 C44.99289828 230.69964491 41.21785691 228.05014888 37 224 C30.13980431 215.30251648 29.21967057 207.85772661 30 197 C31.58215333 190.30920702 35.56970017 185.15966317 41 181 C41.66 181 42.32 181 43 181 C42.67 178.69 42.34 176.38 42 174 C41.01 173.95875 40.02 173.9175 39 173.875 C32.61581844 172.93349444 27.930509 168.44101795 24 163.5625 C15.59262588 151.62125709 10.04465003 139.80792461 11 125 C11.47163024 122.50361234 12.11168615 120.38734347 13 118 C11.32511472 116.26352052 11.32511472 116.26352052 9 115 C7.31640985 115.62269288 5.65137598 116.29631002 4 117 C0.29989287 117.76095393 -3.44216039 118.20230285 -7.1875 118.6875 C-8.17814453 118.82994141 -9.16878906 118.97238281 -10.18945312 119.11914062 C-16.65366515 119.97114496 -22.55013717 119.96405857 -29 119 C-30.60230222 122.29624266 -30.60230222 122.29624266 -30.8125 125.875 C-29.98629138 128.17624436 -29.98629138 128.17624436 -28.4375 130.875 C-24.449523 140.38632515 -27.12148598 150.77998107 -29.625 160.3125 C-29.86017334 161.2310376 -30.09534668 162.1495752 -30.33764648 163.09594727 C-32.9206349 172.24165793 -36.88941892 179.40146787 -45.265625 184.22265625 C-47 185 -47 185 -49 185 C-49 186.65 -49 188.3 -49 190 C-48.175 190.185625 -47.35 190.37125 -46.5 190.5625 C-39.15622598 193.5786929 -34.10178109 198.91159928 -30.84375 206.12109375 C-28.69382701 213.45671061 -28.7743569 222.12863714 -31.93359375 229.1796875 C-33.98604602 232.68314082 -36.42540938 235.86716481 -39 239 C-38.6749605 239.52636425 -38.349921 240.0527285 -38.01503181 240.59504318 C-36.71008623 243.68690467 -36.7541631 246.12275009 -36.75949097 249.47930908 C-36.75778212 250.12792805 -36.75607327 250.77654703 -36.75431263 251.44482112 C-36.75102106 253.61599611 -36.76201571 255.78686134 -36.77294922 257.95800781 C-36.77351341 259.5152282 -36.77319663 261.07244911 -36.77206421 262.62966919 C-36.77148999 266.8566168 -36.78325556 271.08345109 -36.79721212 275.31037235 C-36.80970787 279.7279662 -36.81088907 284.14556259 -36.81326294 288.56317139 C-36.8194811 296.92831473 -36.83589648 305.29340585 -36.85596192 313.65852618 C-36.87831044 323.18200962 -36.88931172 332.70549553 -36.89935279 342.22899866 C-36.92026241 361.8193616 -36.95544494 381.40967751 -37 401 C-35.89462891 401.1222998 -34.78925781 401.24459961 -33.65039062 401.37060547 C-30 402 -30 402 -27.59375 404.0703125 C-25.6076355 407.72125827 -25.39106566 410.81754959 -25.5 414.875 C-25.51281006 415.58881836 -25.52562012 416.30263672 -25.53881836 417.03808594 C-25.75457472 422.61317898 -26.30641093 425.83287387 -30 430 C-35.58106489 433.89500705 -39.68464687 434.59613844 -46.40625 434.53125 C-47.73154724 434.53699036 -47.73154724 434.53699036 -49.08361816 434.54284668 C-50.94263862 434.54555602 -52.80169783 434.53826362 -54.66064453 434.52148438 C-57.49208264 434.50005991 -60.32098374 434.52131855 -63.15234375 434.546875 C-64.96615138 434.54423155 -66.77995745 434.53910621 -68.59375 434.53125 C-69.43248657 434.53934692 -70.27122314 434.54744385 -71.13537598 434.55578613 C-76.8968452 434.46472216 -80.25648096 433.30919444 -85 430 C-89.18388864 425.27954122 -89.62634499 421.46520871 -89.5 415.4375 C-89.51546875 414.69564453 -89.5309375 413.95378906 -89.546875 413.18945312 C-89.52056748 409.49653502 -89.18256959 407.33963314 -87.40625 404.03515625 C-84.32851702 401.43207365 -81.93880616 401.43837879 -78 401 C-78.00184359 400.18424374 -78.00368717 399.36848747 -78.00558662 398.52801132 C-78.04973178 378.69007485 -78.08284007 358.85214683 -78.10362434 339.0141716 C-78.1139423 329.42072538 -78.12801255 319.82731192 -78.15087891 310.23388672 C-78.17079689 301.87345554 -78.18371266 293.51304809 -78.18817699 285.15259385 C-78.19078707 280.72472335 -78.19693267 276.29692073 -78.21146011 271.86907196 C-78.22501887 267.70277606 -78.2292261 263.53657611 -78.22621536 259.37026024 C-78.22676629 257.84000566 -78.2307539 256.30974793 -78.23841095 254.77951241 C-78.24834561 252.69198087 -78.24597445 250.6048127 -78.24050903 248.51727295 C-78.24235262 247.34843945 -78.24419621 246.17960594 -78.24609566 244.97535324 C-78.00759383 242.0918111 -77.50596594 240.43511158 -76 238 C-76.59748047 237.36384766 -76.59748047 237.36384766 -77.20703125 236.71484375 C-82.98959856 230.31321814 -86.16257391 223.72479994 -86 215 C-85.027533 205.53124242 -81.27934295 199.11836321 -74 193 C-68.65274725 190 -68.65274725 190 -66 190 C-66 188.35 -66 186.7 -66 185 C-67.3303125 184.6596875 -67.3303125 184.6596875 -68.6875 184.3125 C-72.518831 182.79442545 -74.28660308 181.07042283 -77 178 C-77.721875 177.195625 -78.44375 176.39125 -79.1875 175.5625 C-83.688938 169.198398 -83.84931668 162.53954811 -83 155 C-82.25796005 151.06849007 -81.34531161 147.19343781 -80.375 143.3125 C-80.13974609 142.33869385 -79.90449219 141.3648877 -79.66210938 140.36157227 C-77.50019511 132.22743898 -74.23321429 124.95298103 -67.125 120.0625 C-61.78333037 117.11747302 -56.77033482 115.8469911 -50.6875 116.125 C-47.03204348 116.37435378 -47.03204348 116.37435378 -44.9375 114.3125 C-43.48847724 110.73824385 -44.45435622 108.49123587 -45.74609375 104.9609375 C-48.83704402 96.35360229 -48.6958131 90.11869184 -45.31640625 81.6171875 C-41.89133802 74.80770468 -36.78058477 71.25601052 -29.7109375 68.7109375 C-25.18923634 67.52513114 -20.65916731 67.17715465 -16 67 C-16.29982616 65.05392205 -16.29982616 65.05392205 -17 63 C-18.99284138 61.6559907 -20.99419671 60.32458708 -23 59 C-28.31638661 53.9238662 -31.53007389 47.74280994 -34.8125 41.25 C-35.30169922 40.30511719 -35.79089844 39.36023438 -36.29492188 38.38671875 C-39.82797141 31.51608576 -39.82797141 31.51608576 -41 28 C-43.27965779 26.95710708 -43.27965779 26.95710708 -46.1015625 26.24609375 C-47.14957031 25.94896484 -48.19757813 25.65183594 -49.27734375 25.34570312 C-50.38207031 25.04599609 -51.48679688 24.74628906 -52.625 24.4375 C-53.70652344 24.13392578 -54.78804687 23.83035156 -55.90234375 23.51757812 C-61.5721146 21.92632332 -61.5721146 21.92632332 -67.26464844 20.41943359 C-70.38325793 19.602193 -71.8010634 19.22380367 -74 16.75 C-75.26899727 13.26025752 -75.19618598 11.5137963 -74 8 C-71.9375 5.5625 -71.9375 5.5625 -69 4 C-62.55795258 4.45245149 -56.3863188 5.97391255 -50.125 7.5 C-49.17625 7.72558594 -48.2275 7.95117188 -47.25 8.18359375 C-40.27399554 9.86300223 -40.27399554 9.86300223 -38 11 C-37.7525 9.9790625 -37.7525 9.9790625 -37.5 8.9375 C-34.69798761 3.45022573 -29.72099447 -0.54482999 -24.0625 -2.9375 C-15.6575203 -5.55383609 -7.69227615 -4.1437559 0 0 Z M-22 15 C-21.91621094 15.66386719 -21.83242188 16.32773438 -21.74609375 17.01171875 C-21.64425781 17.89472656 -21.54242188 18.77773437 -21.4375 19.6875 C-21.33308594 20.55761719 -21.22867188 21.42773438 -21.12109375 22.32421875 C-21 25 -21 25 -21.65625 27.46875 C-22.14010854 31.03170837 -20.86568628 32.75812324 -19.0625 35.8125 C-18.49660156 36.78832031 -17.93070312 37.76414062 -17.34765625 38.76953125 C-16.90292969 39.50558594 -16.45820313 40.24164063 -16 41 C-15.29875 40.34 -14.5975 39.68 -13.875 39 C-10.50172663 36.65337505 -9.02250703 36.40090321 -5 37 C-2.6875 38.1875 -2.6875 38.1875 -1 40 C-0.25 42.6875 -0.25 42.6875 0 45 C0.99 44.34 1.98 43.68 3 43 C4.05106622 36.44778879 1.36623269 31.94535319 -1.75 26.3125 C-2.1934375 25.47138672 -2.636875 24.63027344 -3.09375 23.76367188 C-6.26446502 17.76113506 -6.26446502 17.76113506 -11 13 C-15.15789124 12.05828951 -18.43749335 12.62499557 -22 15 Z M0 83 C-0.185625 83.94875 -0.37125 84.8975 -0.5625 85.875 C-2 89 -2 89 -5.3125 90.5 C-9.16167989 91.0219227 -10.77552071 91.11894353 -14 89 C-15.3125 86.375 -15.3125 86.375 -16 84 C-21.23890086 83.68566595 -24.52833673 84.19221144 -29 87 C-31.2773501 89.81509993 -31.2773501 89.81509993 -31 93 C-29.39125 92.9071875 -29.39125 92.9071875 -27.75 92.8125 C-24 93 -24 93 -21.625 94.0625 C-19.28994873 96.84659959 -19.26785608 99.45090698 -19 103 C-17.06215735 102.85879286 -15.12473045 102.71187127 -13.1875 102.5625 C-12.10855469 102.48128906 -11.02960938 102.40007812 -9.91796875 102.31640625 C-6.94010095 102.09787539 -6.94010095 102.09787539 -4 101 C-3.4934364 98.97863961 -3.4934364 98.97863961 -3.3125 96.625 C-2.87109375 94.16796875 -2.87109375 94.16796875 -2 92 C0.65691138 90.23781853 2.8438497 89.76358475 6 89 C4.95125002 86.37812506 4.35068687 85.20628639 1.875 83.75 C1.25625 83.5025 0.6375 83.255 0 83 Z M41 124 C40.2884375 125.4540625 40.2884375 125.4540625 39.5625 126.9375 C38 130 38 130 37 131 C35.31391034 131.07205511 33.62499341 131.08386068 31.9375 131.0625 C31.01839844 131.05347656 30.09929687 131.04445312 29.15234375 131.03515625 C28.44207031 131.02355469 27.73179687 131.01195312 27 131 C27.58706108 136.14965858 30.01930252 140.26176492 32.4375 144.75 C32.84548828 145.52988281 33.25347656 146.30976563 33.67382812 147.11328125 C35.61032415 151.25513741 35.61032415 151.25513741 39 154 C39.53625 153.34 40.0725 152.68 40.625 152 C43 150 43 150 45.9375 149.5625 C49.29987194 150.04283885 51.24591819 151.05594226 54 153 C55.8756144 146.16278495 53.67766726 142.25624336 50.3125 136.25 C49.86455078 135.40050781 49.41660156 134.55101562 48.95507812 133.67578125 C46.70036096 129.52080028 44.98157149 126.68225499 41 124 Z M-58 134 C-61.87086693 138.77070774 -63.33058698 143.66676605 -64.8125 149.5625 C-65.04130859 150.39974609 -65.27011719 151.23699219 -65.50585938 152.09960938 C-66.61044957 156.36596233 -67.44000786 159.67997643 -66 164 C-65.505 163.34 -65.01 162.68 -64.5 162 C-60.83122512 159.0649801 -58.63302532 159.55875949 -54 160 C-51 162 -51 162 -49 165 C-44.65791877 153.25531804 -44.65791877 153.25531804 -43 141 C-44.60875 141.0928125 -44.60875 141.0928125 -46.25 141.1875 C-50.16695558 140.99165222 -51.34137364 140.75709401 -54 138 C-55.25 135.8125 -55.25 135.8125 -56 134 C-56.66 134 -57.32 134 -58 134 Z M64 195 C63.34 197.31 62.68 199.62 62 202 C57.33533582 202.91464004 54.23405029 203.36608693 50 201 C49.67 200.34 49.34 199.68 49 199 C48.34 199 47.68 199 47 199 C45.2382157 202.5235686 46.07878656 206.27005186 47 210 C49.50125536 213.63818962 51.67234737 215.22090858 55.9375 216.0625 C59.21391561 216.27886707 60.19198308 215.90581962 63.3125 214.375 C66.93385296 211.17473459 68.71950812 208.8833026 69.4375 204.0625 C68.88692093 200.20844649 67.38368362 198.03377915 65 195 C64.67 195 64.34 195 64 195 Z M-67 209 C-69.33991708 212.65612044 -69.37437949 215.73207376 -69 220 C-67.60126781 223.41912313 -66.34613174 224.75851274 -63.3125 226.875 C-59.162524 228.28442581 -56.16256909 228.37895807 -52 227 C-48.36781819 224.44974469 -46.7729928 222.30434937 -46 218 C-46 213.84397494 -46.48430256 212.22009272 -49 209 C-49.680625 209.66 -50.36125 210.32 -51.0625 211 C-54.73085974 213.49760663 -56.64197392 213.6338947 -61 213 C-63.3125 211 -63.3125 211 -65 209 C-65.66 209 -66.32 209 -67 209 Z " fill="#554F4F" transform="translate(280,73)"/>
<path d="M0 0 C1.22847656 -0.02900391 2.45695312 -0.05800781 3.72265625 -0.08789062 C15.19614223 -0.16868982 15.19614223 -0.16868982 19.75 4.3125 C20.86469297 7.65657891 20.87304934 10.14728462 20.87025452 13.67155457 C20.87110894 14.31931911 20.87196337 14.96708366 20.87284368 15.63447744 C20.87449301 17.80867375 20.86898606 19.9827932 20.86352539 22.15698242 C20.86324337 23.71405536 20.86340153 25.27112843 20.8639679 26.82820129 C20.86425531 31.05930527 20.8583676 35.29038101 20.85139394 39.52147841 C20.8451511 43.94175178 20.84455586 48.36202576 20.84336853 52.78230286 C20.84025797 61.15454387 20.83204826 69.52677187 20.82201904 77.89900714 C20.81084939 87.42972794 20.8053453 96.96044935 20.80032361 106.49117506 C20.78986544 126.09829065 20.77227129 145.7053945 20.75 165.3125 C21.85537109 165.4347998 22.96074219 165.55709961 24.09960938 165.68310547 C27.75 166.3125 27.75 166.3125 30.15625 168.3828125 C32.1423645 172.03375827 32.35893434 175.13004959 32.25 179.1875 C32.23718994 179.90131836 32.22437988 180.61513672 32.21118164 181.35058594 C31.99542528 186.92567898 31.44358907 190.14537387 27.75 194.3125 C22.16893511 198.20750705 18.06535313 198.90863844 11.34375 198.84375 C10.01845276 198.84949036 10.01845276 198.84949036 8.66638184 198.85534668 C6.80736138 198.85805602 4.94830217 198.85076362 3.08935547 198.83398438 C0.25791736 198.81255991 -2.57098374 198.83381855 -5.40234375 198.859375 C-7.21615138 198.85673155 -9.02995745 198.85160621 -10.84375 198.84375 C-11.68248657 198.85184692 -12.52122314 198.85994385 -13.38537598 198.86828613 C-19.1468452 198.77722216 -22.50648096 197.62169444 -27.25 194.3125 C-31.43388864 189.59204122 -31.87634499 185.77770871 -31.75 179.75 C-31.76546875 179.00814453 -31.7809375 178.26628906 -31.796875 177.50195312 C-31.77056748 173.80903502 -31.43256959 171.65213314 -29.65625 168.34765625 C-26.57851702 165.74457365 -24.18880616 165.75087879 -20.25 165.3125 C-20.25691345 164.09024829 -20.25691345 164.09024829 -20.26396656 162.84330463 C-20.37436108 143.02176092 -20.45711536 123.20027014 -20.50906086 103.37848377 C-20.53484869 93.79281898 -20.57001025 84.20735931 -20.62719727 74.62182617 C-20.67701454 66.26761018 -20.7092868 57.91354274 -20.72044247 49.55918235 C-20.72696411 45.13503519 -20.74230354 40.71131303 -20.77865028 36.28730202 C-20.81258348 32.12333232 -20.82305852 27.95996275 -20.81553841 23.79586792 C-20.81691417 22.26761807 -20.82686315 20.73934819 -20.84602737 19.21121788 C-20.87092648 17.12341799 -20.86492031 15.03788024 -20.85127258 12.95002747 C-20.85588155 11.78211576 -20.86049051 10.61420404 -20.86523914 9.41090107 C-20.06457022 5.37865851 -18.3659239 3.89883191 -15.25 1.3125 C-10.82569157 -0.89965421 -4.85818489 0.03775791 0 0 Z " fill="#FCC06C" transform="translate(222.25,308.6875)"/>
<path d="M0 0 C2.32756056 4.0276014 1.99551361 6.64113866 0.875 11.05078125 C0.58294678 12.21730225 0.29089355 13.38382324 -0.01000977 14.58569336 C-0.33670654 15.81553955 -0.66340332 17.04538574 -1 18.3125 C-1.48134399 20.19497437 -1.48134399 20.19497437 -1.97241211 22.11547852 C-4.13371224 30.35393989 -6.69914443 38.2042907 -10.12890625 45.99609375 C-11.26303776 48.94807971 -11.26303776 48.94807971 -10.28515625 51.734375 C-8.77246096 54.40113266 -6.99295533 56.67488545 -5 59 C-4.49210937 58.59007812 -3.98421875 58.18015625 -3.4609375 57.7578125 C-2.77257812 57.21898437 -2.08421875 56.68015625 -1.375 56.125 C-0.70210938 55.59132812 -0.02921875 55.05765625 0.6640625 54.5078125 C7.76646043 49.92332153 15.84473938 50.19631768 24 51 C31.41855065 53.109773 36.77135637 57.62179586 41 64 C43.04481822 68.02391014 44 71.42992734 44 76 C27.11768453 72.39332351 27.11768453 72.39332351 22.3125 69.75 C18.75236717 67.86917511 16.95161854 67.38530378 13 68 C10.22571423 69.26103899 8.51682565 70.31089914 6.6875 72.75 C5.36810733 77.06801237 5.41479697 80.68329318 7.25 84.8125 C9.13637129 87.17046411 10.13610427 88.09991849 13 89 C17.13825314 89.35068957 17.13825314 89.35068957 20.9375 87.9375 C26.6826315 85.32607659 35.29427548 89.35947523 41 91 C37.68772001 97.90058332 33.33603744 102.22835035 26.1796875 105.15234375 C22.66560072 106.08914575 19.63343326 106.26593611 16 106.25 C14.824375 106.25515625 13.64875 106.2603125 12.4375 106.265625 C8.98062755 105.99850304 6.22482527 105.23880483 3 104 C2.25976457 107.86567393 2.1449612 111.14271823 3 115 C5.79134605 118.65533412 9.11449184 121.58614487 12.53369141 124.62939453 C16.48286654 128.32081465 19.68174183 132.75122499 23 137 C23.85229442 138.04994226 24.70517439 139.09940942 25.55859375 140.1484375 C26.39443799 141.20216726 27.22910436 142.25683257 28.0625 143.3125 C29.19365234 144.72982422 29.19365234 144.72982422 30.34765625 146.17578125 C32.28269764 149.48319242 32.65984675 151.2331583 32 155 C29.78747294 157.21860543 28.58712205 157.97424268 25.42895508 158.11279297 C24.46884521 157.99049316 23.50873535 157.86819336 22.51953125 157.7421875 C20.90848511 157.54653198 20.90848511 157.54653198 19.26489258 157.34692383 C17.55595825 157.11332153 17.55595825 157.11332153 15.8125 156.875 C14.64807373 156.73408936 13.48364746 156.59317871 12.28393555 156.44799805 C6.24819887 155.68951756 0.37324832 154.69142078 -5.5456543 153.30029297 C-11.50617812 151.72149253 -11.50617812 151.72149253 -17.19921875 153.27734375 C-18.93297068 155.2276611 -18.93297068 155.2276611 -20.3203125 157.515625 C-22.4114613 160.60857997 -24.86166105 162.64431577 -27.75 165 C-28.67296875 165.763125 -29.5959375 166.52625 -30.546875 167.3125 C-33 169 -33 169 -36 169 C-36.50763865 166.31374546 -37.00627197 163.62631617 -37.5 160.9375 C-37.64308594 160.18533203 -37.78617188 159.43316406 -37.93359375 158.65820312 C-39.30377848 151.12218713 -39.64367476 145.56371483 -36.1875 138.5 C-28.48815667 121.57366585 -27.02951673 100.70467982 -33 83 C-33.26683594 82.04480469 -33.53367188 81.08960937 -33.80859375 80.10546875 C-38.22850279 65.1170661 -46.69410744 53.47682213 -58.1484375 43.04296875 C-60.42783686 40.52793527 -61.5352928 38.05213001 -62.875 34.9375 C-65.27612032 29.49045723 -67.96478432 24.36274528 -70.99609375 19.2421875 C-72 17 -72 17 -71 14 C-62.41200694 15.58369287 -54.76898254 17.62642653 -46.7421875 21.109375 C-43.73708415 22.08539147 -42.83402102 22.28519558 -40 21 C-37.90184442 19.58766813 -35.89084401 18.14610357 -33.875 16.625 C-8.08104767 -2.35697224 -8.08104767 -2.35697224 0 0 Z " fill="#585252" transform="translate(188,6)"/>
<path d="M0 0 C4.37477474 -0.11651725 8.74914827 -0.18736 13.125 -0.25 C14.3625 -0.28351563 15.6 -0.31703125 16.875 -0.3515625 C27.15558542 -0.46210643 27.15558542 -0.46210643 30.8046875 1.828125 C33.48999517 4.4847639 33.96073403 6.09478045 34.12304783 9.83668804 C34.12166514 11.58025947 34.12166514 11.58025947 34.12025452 13.35905457 C34.12110894 14.00681911 34.12196337 14.65458366 34.12284368 15.32197744 C34.12449301 17.49617375 34.11898606 19.6702932 34.11352539 21.84448242 C34.11324337 23.40155536 34.11340153 24.95862843 34.1139679 26.51570129 C34.11425531 30.74680527 34.1083676 34.97788101 34.10139394 39.20897841 C34.0951511 43.62925178 34.09455586 48.04952576 34.09336853 52.46980286 C34.09025797 60.84204387 34.08204826 69.21427187 34.07201904 77.58650714 C34.06084939 87.11722794 34.0553453 96.64794935 34.05032361 106.17867506 C34.03986544 125.78579084 34.02207032 145.39289414 34 165 C26.08 165 18.16 165 10 165 C9.99635437 163.01691833 9.99270874 161.03383667 9.98895264 158.99066162 C9.95275696 140.33173473 9.89459638 121.67296921 9.81609726 103.0141716 C9.7762673 93.42074041 9.74389495 83.82739171 9.72900391 74.23388672 C9.71600785 65.87336134 9.68909574 57.51301718 9.64538693 49.15259385 C9.6227259 44.72469963 9.60709209 40.29702932 9.60811615 35.86907196 C9.60886004 31.70259337 9.59101928 27.53661059 9.55883217 23.37026024 C9.55030301 21.84003395 9.54860364 20.30975224 9.55419731 18.77951241 C9.56081402 16.69151645 9.54297661 14.60510888 9.51898193 12.51727295 C9.51345118 10.76402269 9.51345118 10.76402269 9.50780869 8.97535324 C8.89222358 5.36851629 7.87084978 4.20005781 5 2 C2.35815459 1.20318682 2.35815459 1.20318682 0 1 C0 0.67 0 0.34 0 0 Z " fill="#FBA631" transform="translate(209,309)"/>
<path d="M0 0 C3.81499666 1.78300897 6.10341767 3.90133053 9 7 C9.5259375 7.53238281 10.051875 8.06476563 10.59375 8.61328125 C17.39170086 15.8283791 27 28.71072289 27 39 C28.81564453 39.14308594 28.81564453 39.14308594 30.66796875 39.2890625 C37.04519619 40.00083451 43.13321711 41.69384603 49.3125 43.375 C50.47845703 43.67921875 51.64441406 43.9834375 52.84570312 44.296875 C53.96525391 44.59851563 55.08480469 44.90015625 56.23828125 45.2109375 C57.24930908 45.48212402 58.26033691 45.75331055 59.30200195 46.03271484 C62.06297656 47.02257833 63.86838727 47.99337882 66 50 C66.875 53.3125 66.875 53.3125 66 57 C63.07477117 59.67117669 59.51810827 61.23103012 56 63 C54.43698212 63.82729982 52.87593054 64.65832068 51.31640625 65.4921875 C48.01487499 67.25208806 44.70804388 69.00068872 41.390625 70.73046875 C40.26068115 71.32988281 40.26068115 71.32988281 39.10791016 71.94140625 C37 73 37 73 33.5390625 74.32421875 C30.66314019 75.85238574 30.66314019 75.85238574 29.8203125 79.4140625 C29.56946129 80.81442424 29.33883566 82.21851016 29.125 83.625 C27.30947048 93.22330809 23.45281523 101.36456463 19 110 C17.68 110 16.36 110 15 110 C13.72314453 108.6105957 13.72314453 108.6105957 12.6328125 106.67578125 C12.22160156 105.97646484 11.81039063 105.27714844 11.38671875 104.55664062 C10.97035156 103.81607422 10.55398438 103.07550781 10.125 102.3125 C6.03770026 95.09848043 2.28143695 89.67928843 -6 87 C-5.71125 85.83726562 -5.4225 84.67453125 -5.125 83.4765625 C-0.99308261 66.0353863 0.7271848 46.76962596 -6.95776367 29.8972168 C-9.09530626 25.00535292 -9.10981439 22.16497299 -7.32421875 17.08984375 C-6.47403314 15.0269903 -5.5942661 12.97611599 -4.6875 10.9375 C-4.24470703 9.88111328 -3.80191406 8.82472656 -3.34570312 7.73632812 C-2.25548453 5.14559361 -1.14031759 2.56898036 0 0 Z " fill="#5B5555" transform="translate(446,296)"/>
<path d="M0 0 C1.50715324 -0.01925285 1.50715324 -0.01925285 3.04475403 -0.03889465 C4.13430893 -0.04628159 5.22386383 -0.05366852 6.34643555 -0.0612793 C7.46374557 -0.06935104 8.5810556 -0.07742279 9.73222351 -0.08573914 C12.10027511 -0.09958751 14.46834673 -0.11030628 16.83642578 -0.11816406 C20.45798568 -0.13537841 24.07863329 -0.17925933 27.69995117 -0.22338867 C29.99877257 -0.2335152 32.29760175 -0.24203142 34.59643555 -0.2487793 C35.67991776 -0.26628738 36.76339996 -0.28379547 37.87971497 -0.30183411 C45.41083497 -0.28011033 45.41083497 -0.28011033 49.33154297 2.07861328 C53.3824025 6.70056173 52.5553484 12.39231998 52.4440918 18.2355957 C52.09152462 23.31759968 51.52874384 25.38838811 48.1706543 29.17700195 C42.5895894 33.072009 38.48600742 33.77314039 31.7644043 33.70825195 C30.8808728 33.71207886 29.99734131 33.71590576 29.08703613 33.71984863 C27.22801568 33.72255798 25.36895647 33.71526557 23.51000977 33.69848633 C20.67857166 33.67706186 17.84967055 33.6983205 15.01831055 33.72387695 C13.20450291 33.7212335 11.39069684 33.71610816 9.5769043 33.70825195 C8.73816772 33.71634888 7.89943115 33.7244458 7.03527832 33.73278809 C1.2738091 33.64172411 -2.08582666 32.4861964 -6.8293457 29.17700195 C-11.01323435 24.45654317 -11.45569069 20.64221067 -11.3293457 14.61450195 C-11.34481445 13.87264648 -11.3602832 13.13079102 -11.3762207 12.36645508 C-11.34842111 8.46408664 -11.08640832 6.5768186 -8.9230957 3.2121582 C-5.85408268 0.22903174 -4.16930362 0.04629902 0 0 Z " fill="#B9ABAB" transform="translate(201.829345703125,473.822998046875)"/>
<path d="M0 0 C5.28394267 2.94844001 8.91543295 7.80879886 10.8125 13.5 C11.86874349 20.03801352 10.40571854 24.76982005 6.78125 30.2578125 C2.55348655 35.07276532 -2.42969074 37.27949608 -8.75390625 37.78515625 C-14.40118583 37.63947127 -19.79480548 36.17712367 -25.25 34.8125 C-26.35021484 34.54211914 -27.45042969 34.27173828 -28.58398438 33.99316406 C-45.82367761 29.6756484 -45.82367761 29.6756484 -53.1875 26.5 C-54.62485246 23.62529507 -54.56922649 21.68105412 -54.1875 18.5 C-50.95727245 15.50687333 -47.57047854 13.52161532 -43.6171875 11.625 C-42.555 11.11453125 -41.4928125 10.6040625 -40.3984375 10.078125 C-39.29757813 9.55734375 -38.19671875 9.0365625 -37.0625 8.5 C-35.98484375 7.97921875 -34.9071875 7.4584375 -33.796875 6.921875 C-10.21011853 -4.33156544 -10.21011853 -4.33156544 0 0 Z " fill="#B8ABAB" transform="translate(54.1875,109.5)"/>
<path d="M0 0 C1.6640625 1.23828125 1.6640625 1.23828125 3 3 C3.70559355 9.76086912 1.1040863 16.69295378 -1.23242188 22.92480469 C-1.81545426 24.50106909 -2.38143899 26.08365151 -2.93945312 27.66894531 C-4.01744251 30.72660679 -5.13075074 33.76972045 -6.25 36.8125 C-6.59611328 37.80338623 -6.94222656 38.79427246 -7.29882812 39.81518555 C-10.26935633 47.68323264 -14.35879378 52.82147463 -22.0625 56.4375 C-28.25647612 57.62358053 -32.6346214 57.28253249 -38.140625 54.2734375 C-42.23704054 51.46790921 -45.09953102 47.57612925 -47 43 C-47.76820353 37.1670127 -47.77473929 31.57888676 -44.37890625 26.609375 C-36.31040334 17.19231212 -13.08578333 -1.27666179 0 0 Z " fill="#B8ABAB" transform="translate(449,271)"/>
<path d="M0 0 C4.67258963 3.3199979 7.86169619 7.46008856 9.6875 12.9375 C10.30704989 19.13299891 8.93133122 23.72686306 5.6875 28.9375 C-0.01955003 35.77094149 -8.68663936 40.16654151 -16.234375 44.68994141 C-18.247871 45.89870134 -20.24884141 47.12643057 -22.25 48.35546875 C-23.47820869 49.09274406 -24.70733292 49.82849698 -25.9375 50.5625 C-27.56558594 51.54089844 -27.56558594 51.54089844 -29.2265625 52.5390625 C-32.62539863 54.07929457 -34.63195039 54.5457701 -38.3125 53.9375 C-40.02514648 52.19677734 -40.02514648 52.19677734 -41.3125 49.9375 C-41.2800293 47.71972656 -41.2800293 47.71972656 -40.69921875 45.328125 C-40.4882959 44.44833984 -40.27737305 43.56855469 -40.06005859 42.66210938 C-30.22089338 6.80153337 -30.22089338 6.80153337 -18.3125 -1.0625 C-12.22458399 -3.01710698 -5.61908243 -3.25203063 0 0 Z " fill="#B8ABAB" transform="translate(357.3125,380.0625)"/>
<path d="M0 0 C7.15497487 4.24401551 10.74882771 9.32731076 13.01293945 17.21118164 C14.28741181 22.24891016 15.12375281 27.33836419 15.9296875 32.46875 C16.10693359 33.51546875 16.28417969 34.5621875 16.46679688 35.640625 C17.59743325 42.71255908 18.5225099 49.93478837 17.7421875 57.09375 C15.7421875 59.09375 15.7421875 59.09375 13.02734375 59.515625 C8.78453794 58.97077003 6.35717563 57.00849858 3.1796875 54.34375 C2.35307617 53.67859375 2.35307617 53.67859375 1.50976562 53 C0.41995278 52.12091016 -0.66432191 51.23490601 -1.74267578 50.34179688 C-3.09195503 49.23036995 -4.46813244 48.15178154 -5.84765625 47.078125 C-8.49686159 44.89693162 -10.85811191 42.54578051 -13.2578125 40.09375 C-14.10601562 39.26875 -14.95421875 38.44375 -15.828125 37.59375 C-16.67117187 36.76875 -17.51421875 35.94375 -18.3828125 35.09375 C-19.23101562 34.26875 -20.07921875 33.44375 -20.953125 32.59375 C-26.14614666 26.96064176 -26.85945853 22.86557246 -26.671875 15.328125 C-25.86198421 9.00180824 -23.06130602 5.50047494 -18.1328125 1.65625 C-12.49060806 -1.41016545 -6.10426924 -2.45015651 0 0 Z " fill="#B8ABAB" transform="translate(137.2578125,141.90625)"/>
<path d="M0 0 C10.87602113 6.23016171 17.36823829 20.74332915 23.5234375 31.265625 C24.34652303 32.65239941 25.20326431 34.02009406 26.1015625 35.359375 C28.24854879 38.66018385 28.81843184 40.3149086 28.625 44.3125 C27.8125 47.4375 27.8125 47.4375 26.8125 48.4375 C20.93114066 48.76784067 16.1537713 48.00862319 10.5625 46.25 C9.82233643 46.02368896 9.08217285 45.79737793 8.31958008 45.56420898 C1.97153522 43.57842445 -4.14231712 41.21613399 -10.1875 38.4375 C-11.26386719 37.963125 -12.34023438 37.48875 -13.44921875 37 C-23.41190879 32.38519544 -23.41190879 32.38519544 -26.1875 26.4375 C-28.02592929 20.92221213 -28.24540268 14.59572654 -26.38671875 9.046875 C-20.96704274 -0.71226668 -10.1745694 -4.4489562 0 0 Z " fill="#B8ABAB" transform="translate(444.1875,383.5625)"/>
<path d="M0 0 C4.89971465 1.15287403 6.50030753 4.67493485 9.1875 8.75 C11.3388056 12.3392531 13.33800607 15.99857975 15.3125 19.6875 C15.82425781 20.62529297 16.33601563 21.56308594 16.86328125 22.52929688 C26.65181079 40.63430202 26.65181079 40.63430202 25.1875 50.75 C23.39059709 56.69593154 20.20419089 60.22764257 15.1875 63.75 C9.40093405 65.67885532 2.38018292 66.10613961 -3.3046875 63.69140625 C-8.05532845 60.38388453 -11.21337382 56.33185554 -12.8125 50.75 C-14.10707694 42.6105335 -11.8562385 34.12399467 -10.28320312 26.13964844 C-9.95834089 24.4903997 -9.63971225 22.83991512 -9.32617188 21.18847656 C-8.83418762 18.60218285 -8.32599044 16.01960207 -7.8125 13.4375 C-7.6587793 12.63127197 -7.50505859 11.82504395 -7.34667969 10.99438477 C-5.38218105 1.43524828 -5.38218105 1.43524828 0 0 Z " fill="#B8ABAB" transform="translate(102.8125,4.25)"/>
<path d="M0 0 C9.86923557 7.43821063 17.22697493 23.11139251 20 35 C20.76159383 42.61593829 19.03949353 49.94488878 14.38671875 56.15234375 C11.01692089 59.68652199 7.60055442 62.22251307 3 64 C2.01 64 1.02 64 0 64 C-0.05791844 60.87507749 -0.09356746 57.75029234 -0.125 54.625 C-0.14175781 53.73554687 -0.15851563 52.84609375 -0.17578125 51.9296875 C-0.18544922 50.65351562 -0.18544922 50.65351562 -0.1953125 49.3515625 C-0.21102295 48.17327881 -0.21102295 48.17327881 -0.22705078 46.97119141 C0 45 0 45 2 43 C2.93646294 36.36743678 0.3559871 31.95239542 -2.8125 26.25 C-3.26431641 25.40050781 -3.71613281 24.55101563 -4.18164062 23.67578125 C-6.9379155 18.33186439 -6.9379155 18.33186439 -11 14 C-16.34258261 13.5152639 -16.34258261 13.5152639 -21.30078125 15.13671875 C-25.13226493 16.36212815 -27.52344693 15.32899817 -31.3125 14.125 C-32.56675781 13.73570313 -33.82101563 13.34640625 -35.11328125 12.9453125 C-36.06589844 12.63335937 -37.01851562 12.32140625 -38 12 C-37.19280231 6.19016972 -34.56266245 3.49445291 -30 0 C-19.93584468 -5.67041371 -10.15220058 -5.46889376 0 0 Z " fill="#504A4A" transform="translate(280,73)"/>
<path d="M0 0 C2.32756056 4.0276014 1.99551361 6.64113866 0.875 11.05078125 C0.58310791 12.21770508 0.29121582 13.38462891 -0.00952148 14.58691406 C-0.33637939 15.81635742 -0.6632373 17.04580078 -1 18.3125 C-1.32234619 19.56385742 -1.64469238 20.81521484 -1.97680664 22.10449219 C-4.4081981 31.3198175 -7.28123038 40.22751782 -11 49 C-11.99 49 -12.98 49 -14 49 C-15.55078125 47.19921875 -15.55078125 47.19921875 -17.3125 44.6875 C-23.9219026 36.06707324 -32.97534824 29.89756878 -42 24 C-38.97316497 19.76393312 -35.52004127 17.0290806 -31.1875 14.25 C-30.53821533 13.82533447 -29.88893066 13.40066895 -29.2199707 12.96313477 C-6.37350468 -1.85893887 -6.37350468 -1.85893887 0 0 Z " fill="#B8ABAB" transform="translate(188,6)"/>
<path d="M0 0 C0.66 0 1.32 0 2 0 C2 0.66 2 1.32 2 2 C3.0209375 2.4021875 3.0209375 2.4021875 4.0625 2.8125 C8.61584292 4.65321309 13.11499052 6.6185304 17.625 8.5625 C20.40373746 9.74603633 23.1901033 10.893071 26 12 C22.13392884 16.27302602 18.15797951 18.91268964 13.0625 21.5625 C12.31830811 21.95308594 11.57411621 22.34367187 10.80737305 22.74609375 C-8.82542932 32.71831083 -31.90399605 33.76378232 -52.9921875 28.0703125 C-56 27 -56 27 -57 25 C-56.12601562 24.92523438 -55.25203125 24.85046875 -54.3515625 24.7734375 C-33.69602639 22.56498395 -14.88689278 14.88689278 0 0 Z " fill="#5C5656" transform="translate(420,414)"/>
<path d="M0 0 C9.28040824 4.02498605 15.92420135 14.27283044 22 22 C22.85527471 23.05224108 23.71074735 24.10432131 24.56640625 25.15625 C25.39969154 26.20734037 26.23175591 27.2594 27.0625 28.3125 C27.81660156 29.25738281 28.57070312 30.20226562 29.34765625 31.17578125 C31.28269764 34.48319242 31.65984675 36.2331583 31 40 C28.77620211 42.23572606 27.57535922 42.97506651 24.3972168 43.11279297 C22.93795776 42.92934326 22.93795776 42.92934326 21.44921875 42.7421875 C19.82209961 42.54774048 19.82209961 42.54774048 18.16210938 42.34936523 C17.01548828 42.19282471 15.86886719 42.03628418 14.6875 41.875 C12.93856445 41.65275757 12.93856445 41.65275757 11.15429688 41.42602539 C-12.70167689 38.29832311 -12.70167689 38.29832311 -16 35 C-15.48050781 34.20078125 -14.96101562 33.4015625 -14.42578125 32.578125 C-7.86506371 22.2459044 -3.22407149 11.84780743 0 0 Z " fill="#B8ABAB" transform="translate(189,121)"/>
<path d="M0 0 C-0.33773437 0.99515625 -0.67546875 1.9903125 -1.0234375 3.015625 C-4.67890835 14.29064286 -6.18229205 25.19815534 -7 37 C-13.59934932 34.68836351 -19.14749993 30.43768487 -24.85058594 26.48681641 C-26.31490749 25.47389975 -27.78455668 24.46865195 -29.25878906 23.47021484 C-31.50336281 21.94227053 -33.72213538 20.38241205 -35.9375 18.8125 C-36.64173096 18.33828613 -37.34596191 17.86407227 -38.0715332 17.37548828 C-41.64096712 14.78674642 -42.84720268 13.81232923 -43.69140625 9.32421875 C-43 6 -43 6 -41.26049805 4.3515625 C-38.77153346 2.86339877 -37.00467045 2.42539049 -34.140625 2.05078125 C-33.19646729 1.92485596 -32.25230957 1.79893066 -31.27954102 1.66918945 C-30.27979248 1.55148193 -29.28004395 1.43377441 -28.25 1.3125 C-27.22898193 1.18512451 -26.20796387 1.05774902 -25.15600586 0.92651367 C-16.72857103 -0.05892318 -8.47628306 -0.33216204 0 0 Z " fill="#B8ABAB" transform="translate(315,328)"/>
<path d="M0 0 C1.9588746 2.42366504 3.32661615 5.1120621 4.75 7.875 C5.17394043 8.66841797 5.59788086 9.46183594 6.03466797 10.27929688 C19 34.83506848 19 34.83506848 19 39 C15.49859164 40.04698976 12.14089519 40.2027955 8.5 40.375 C1.73085695 40.8078278 -4.5001444 42.10718491 -11 44 C-11.18175781 42.66195312 -11.18175781 42.66195312 -11.3671875 41.296875 C-11.53476562 40.12640625 -11.70234375 38.9559375 -11.875 37.75 C-12.03742188 36.58984375 -12.19984375 35.4296875 -12.3671875 34.234375 C-12.81139671 31.11466654 -12.81139671 31.11466654 -14.0703125 29.015625 C-16.87550538 22.93377824 -14.16311419 16.17058066 -12.25 10.1875 C-11.99734375 9.32962891 -11.7446875 8.47175781 -11.484375 7.58789062 C-11.2265625 6.76869141 -10.96875 5.94949219 -10.703125 5.10546875 C-10.47270508 4.36449951 -10.24228516 3.62353027 -10.00488281 2.86010742 C-7.80505745 -1.21192111 -4.0085826 -1.75836599 0 0 Z " fill="#B8ABAB" transform="translate(376,237)"/>
<path d="M0 0 C5.59336358 1.38915905 10.85445742 3.77122717 16.15332031 6.00292969 C17.35472656 6.49792969 18.55613281 6.99292969 19.79394531 7.50292969 C25.13586413 9.71787163 30.37576535 11.9972272 35.52832031 14.62792969 C32.26851486 17.99345856 28.92305956 20.95586598 25.21582031 23.81542969 C20.50388392 27.61168613 16.80582276 31.63041582 13.18457031 36.46386719 C11.73354875 38.35977744 10.23052231 39.9644141 8.52832031 41.62792969 C4.20232069 35.02255364 0.65937416 28.16592894 -2.78417969 21.06542969 C-3.60885742 19.41897461 -3.60885742 19.41897461 -4.45019531 17.73925781 C-9.54259904 7.24447795 -9.54259904 7.24447795 -8.47167969 1.62792969 C-5.15750371 -0.58152096 -3.83352769 -0.59772883 0 0 Z " fill="#B8ABAB" transform="translate(26.4716796875,17.3720703125)"/>
<path d="M0 0 C7.70338013 0.60708214 14.86701182 2.34935847 22.3125 4.375 C23.47845703 4.67921875 24.64441406 4.9834375 25.84570312 5.296875 C26.96525391 5.59851563 28.08480469 5.90015625 29.23828125 6.2109375 C30.24930908 6.48212402 31.26033691 6.75331055 32.30200195 7.03271484 C35.06297656 8.02257833 36.86838727 8.99337882 39 11 C39.875 14.3125 39.875 14.3125 39 18 C36.07469305 20.67124804 32.51656875 22.22783965 29 24 C27.43676056 24.83865361 25.87572664 25.68142569 24.31640625 26.52734375 C9.91266129 34.28342091 9.91266129 34.28342091 4 36 C3.97812622 35.16359985 3.97812622 35.16359985 3.95581055 34.31030273 C3.61441292 22.5664657 2.79285382 11.43489206 0 0 Z " fill="#B9ACAC" transform="translate(473,335)"/>
<path d="M0 0 C4.06225821 -0.11638426 8.1240863 -0.18731373 12.1875 -0.25 C13.33798828 -0.28351563 14.48847656 -0.31703125 15.67382812 -0.3515625 C16.78564453 -0.36445313 17.89746094 -0.37734375 19.04296875 -0.390625 C20.06414795 -0.41157227 21.08532715 -0.43251953 22.13745117 -0.45410156 C25.74876717 0.11878098 27.38934073 1.49614175 30 4 C32.60557692 9.21115385 31.79094586 18.98392331 30.3515625 24.47265625 C28.12726498 28.79767921 24.49375158 31.4255054 20 33 C15.5079723 33.47726198 11.07317308 33.37796236 6.5625 33.25 C5.35400391 33.23195313 4.14550781 33.21390625 2.90039062 33.1953125 C-0.06723184 33.14839357 -3.03319661 33.08275602 -6 33 C-3.84801655 31.9148897 -1.69837527 30.86426887 0.5 29.875 C4.12164032 27.15876976 5.71912167 24.32468598 7 20 C7.75136187 13.55498487 7.98056593 8.37060482 4 3 C2.68621778 1.97444939 1.35518208 0.97018519 0 0 Z " fill="#9E9797" transform="translate(223,474)"/>
<path d="M0 0 C0 5.61 0 11.22 0 17 C-3.75976562 17.73242188 -3.75976562 17.73242188 -7.51953125 18.46484375 C-10.11397171 18.97741153 -10.11397171 18.97741153 -13 20 C-13.44186082 21.63148609 -13.87763536 23.26488378 -14.28125 24.90625 C-15.70311312 29.04819908 -18.46336393 32.47103686 -21 36 C-21.74443359 37.05380859 -21.74443359 37.05380859 -22.50390625 38.12890625 C-23.65996378 39.7592438 -24.82857109 41.38067179 -26 43 C-30.73461909 37.791919 -32.5420008 32.30914198 -32.30859375 25.23828125 C-31.29751467 17.90475827 -28.61403011 11.40837029 -23.0546875 6.43359375 C-16.11897385 1.59441711 -8.34931562 0 0 0 Z " fill="#504A4A" transform="translate(264,140)"/>
<path d="M0 0 C7.80323475 0.87433835 12.30046316 3.30046316 17.8125 8.8125 C22.63922204 15.84572354 23.98098486 22.47689773 23 31 C21.98046875 33.83203125 21.98046875 33.83203125 21 36 C6.57420925 25.43357664 6.57420925 25.43357664 3 19 C2.01 18.34 1.02 17.68 0 17 C-0.2208564 14.04935852 -0.28060989 11.31631769 -0.1875 8.375 C-0.17396484 7.57320312 -0.16042969 6.77140625 -0.14648438 5.9453125 C-0.11109051 3.96325622 -0.05728234 1.98154449 0 0 Z " fill="#504A4A" transform="translate(280,139)"/>
<path d="M0 0 C0.81791016 0.23396484 0.81791016 0.23396484 1.65234375 0.47265625 C7.50365352 1.98299433 12.03574987 1.94670637 18 1 C26.49868867 11.11748651 24.58271294 23.58522618 24 36 C14.18931487 32.17143995 9.60565956 23.18550885 5.0625 14.25 C4.56943359 13.31800781 4.07636719 12.38601562 3.56835938 11.42578125 C0 4.52662318 0 4.52662318 0 0 Z " fill="#504A4A" transform="translate(240,100)"/>
<path d="M0 0 C0.53044922 0.51626953 1.06089844 1.03253906 1.60742188 1.56445312 C2.15720703 2.08458984 2.70699219 2.60472656 3.2734375 3.140625 C4.62222533 4.41904129 5.95972623 5.70934745 7.29492188 7.00195312 C5.02019883 10.13407178 2.44356479 10.62604048 -1.25317383 11.2824707 C-1.97980225 11.3961499 -2.70643066 11.5098291 -3.45507812 11.62695312 C-4.20426514 11.75030029 -4.95345215 11.87364746 -5.7253418 12.00073242 C-26.5820217 15.27817933 -26.5820217 15.27817933 -31.70507812 12.00195312 C-30.32523948 9.69921587 -28.92778056 7.4109894 -27.51757812 5.12695312 C-27.13021484 4.47597656 -26.74285156 3.825 -26.34375 3.15429688 C-23.93853764 -0.70199401 -22.3243871 -2.87084708 -17.70507812 -3.99804688 C-15.64257812 -4.44726562 -15.64257812 -4.44726562 -13.70507812 -4.68554688 C-13.06570313 -4.77191406 -12.42632812 -4.85828125 -11.76757812 -4.94726562 C-6.47487277 -5.07757845 -3.89576873 -3.65676451 0 0 Z " fill="#514B4B" transform="translate(282.705078125,178.998046875)"/>
<path d="M0 0 C11.48373858 -0.64461734 22.53963343 1.21237068 33 6 C29.59287819 9.97497544 25.67239145 11.86793788 21 14 C20.57332031 13.64808594 20.14664062 13.29617188 19.70703125 12.93359375 C13.58164157 8.09643036 6.91441144 4.56260833 0 1 C0 0.67 0 0.34 0 0 Z " fill="#5E5858" transform="translate(392,276)"/>
<path d="M0 0 C-0.66 2.97 -1.32 5.94 -2 9 C-9.26 8.34 -16.52 7.68 -24 7 C-21.09846275 4.09846275 -17.53561589 3.48089128 -13.6875 2.375 C-12.92759766 2.14554688 -12.16769531 1.91609375 -11.38476562 1.6796875 C-7.497226 0.54483666 -4.09476047 -0.31058063 0 0 Z " fill="#5E5858" transform="translate(95,21)"/>
<path d="M0 0 C1.98 1.32 3.96 2.64 6 4 C5.67 4.66 5.34 5.32 5 6 C-0.90141871 7.86360591 -6.85959995 8.22742222 -13 8 C-10.20375042 5.81302498 -7.36692128 4.00847187 -4.25 2.3125 C-3.45078125 1.87550781 -2.6515625 1.43851563 -1.828125 0.98828125 C-1.22484375 0.66214844 -0.6215625 0.33601562 0 0 Z " fill="#5F5959" transform="translate(123,181)"/>
</svg>
