<?xml version="1.0" encoding="UTF-8"?>
<svg version="1.1" xmlns="http://www.w3.org/2000/svg" width="512" height="512">
<path d="M0 0 C0.66566483 -0.0065712 1.33132965 -0.0131424 2.01716614 -0.01991272 C4.21514009 -0.0395821 6.4130457 -0.05129773 8.61108398 -0.0612793 C9.3659654 -0.06535482 10.12084682 -0.06943035 10.89860344 -0.07362938 C14.89887083 -0.09446901 18.89910419 -0.10877646 22.89941406 -0.11816406 C27.00581661 -0.12918837 31.1116713 -0.16354751 35.2178812 -0.20333576 C38.39661068 -0.22964857 41.5752129 -0.23786907 44.75404167 -0.24144554 C46.26612968 -0.24627844 47.77821329 -0.25779685 49.29019356 -0.27648354 C63.98888664 -0.44676855 74.04681787 2.53264403 84.85717773 12.55200195 C86.29467773 15.17700195 86.29467773 15.17700195 85.54467773 18.9309082 C85.18303039 21.41239145 85.05955431 22.71320376 86.20263672 24.96801758 C87.61032687 26.70419445 89.10078662 28.21236542 90.73217773 29.73950195 C91.49691406 30.55644531 91.49691406 30.55644531 92.27709961 31.38989258 C93.89646228 32.97313563 95.2667401 34.16163456 97.29467773 35.17700195 C99.29078819 34.87190215 101.28735209 34.56346633 103.27026367 34.18188477 C106.80005288 34.17337104 108.45972104 36.3088917 110.87524414 38.69018555 C111.67365723 39.51083496 112.47207031 40.33148438 113.29467773 41.17700195 C114.38013793 42.22709126 115.46948758 43.27316844 116.56176758 44.31616211 C119.74338923 47.36202511 122.88477334 50.44596756 126.01367188 53.54589844 C127.32605465 54.84167907 128.64378579 56.13206507 129.96679688 57.41699219 C144.14269091 71.18891451 144.14269091 71.18891451 147.29467773 80.17700195 C147.65045898 81.14222778 147.65045898 81.14222778 148.01342773 82.12695312 C151.66513272 93.9664654 148.67841037 107.77482555 147.32324219 119.81396484 C146.98192871 122.86672929 146.65829465 125.92103832 146.33569336 128.97583008 C146.11866199 130.94274505 145.90059836 132.90954644 145.68139648 134.8762207 C145.58751144 135.77644455 145.4936264 136.6766684 145.39689636 137.60417175 C144.33826163 146.73575691 142.4523504 154.9282401 135.29467773 161.17700195 C129.12031521 165.54552942 122.12631732 166.92810885 114.68139648 165.77075195 C107.9566644 164.05640447 102.90129936 161.0869344 99.01342773 155.25512695 C95.6075576 148.97859485 94.92539946 143.20255289 96.17709351 136.12976074 C98.68335293 121.46783377 98.83024034 106.61080747 90.46362305 93.80200195 C85.97000025 87.61659801 80.95020163 82.03903411 75.62290955 76.56580353 C74.19069995 75.07390036 72.80164426 73.55087714 71.41784668 72.01409912 C60.70194531 60.2762986 49.04570077 53.10945711 33.09906769 51.83235168 C17.60523408 51.15788794 7.18473358 55.78846432 -4.2663269 66.07217407 C-11.62912601 73.02827555 -18.47134161 80.44296658 -25.237854 87.97332764 C-29.17654024 92.30917679 -33.23554951 96.52934659 -37.28344727 100.76293945 C-43.14986614 106.92922164 -48.96693513 113.13547428 -54.69311523 119.43237305 C-55.59166985 120.41744087 -55.59166985 120.41744087 -56.50837708 121.42240906 C-60.82180664 126.19496714 -62.01589864 128.33977015 -61.94189453 134.86669922 C-61.47486514 141.40173689 -60.14838849 147.81117298 -58.92738342 154.24058533 C-58.41381714 156.9498518 -57.91286275 159.66118996 -57.41516113 162.37341309 C-55.99912641 170.07883736 -54.56275293 177.78039731 -53.11401367 185.47973633 C-52.22501319 190.20913372 -51.35202321 194.94127799 -50.48805237 199.67530823 C-50.15924527 201.45903046 -49.82451945 203.24167402 -49.48326111 205.02305603 C-43.16908426 237.99866063 -43.16908426 237.99866063 -50.70532227 251.17700195 C-54.4980056 256.72203132 -58.69145971 261.31981105 -63.70458984 265.76855469 C-65.09717302 267.02864699 -66.48879716 268.28979976 -67.8795929 269.55186462 C-68.60825373 270.21065046 -69.33691456 270.8694363 -70.08765602 271.54818535 C-74.82796234 275.86984907 -79.47603614 280.29102738 -84.13574696 284.69920254 C-88.20303461 288.53686731 -92.29792701 292.330354 -96.47949219 296.04345703 C-118.89532913 315.23311231 -118.89532913 315.23311231 -128.15184689 342.06296253 C-128.38167839 349.03385575 -127.88159139 355.94152648 -127.14550114 362.87043285 C-126.55121495 368.85552881 -127.15404834 373.65781834 -129.70532227 379.17700195 C-130.00883102 379.88796524 -130.31233978 380.59892853 -130.62504578 381.33143616 C-137.84399877 396.17037809 -153.73873485 408.40573208 -165.20532227 419.9152832 C-166.13030518 420.84434164 -167.05528809 421.77340008 -168.00830078 422.7306118 C-172.39416944 427.13542067 -176.78237149 431.53788825 -181.17351532 435.93743831 C-186.2026216 440.97634005 -191.22330299 446.02344824 -196.23712921 451.07755309 C-200.14461879 455.01533137 -204.05987631 458.94527931 -207.98088837 462.86959237 C-210.30944667 465.20048206 -212.63365349 467.5354353 -214.95166016 469.87682533 C-217.53722648 472.48687189 -220.1352828 475.08385863 -222.73657227 477.67822266 C-223.48390625 478.4383667 -224.23124023 479.19851074 -225.0012207 479.98168945 C-238.87592714 493.72311164 -254.87122449 497.24855841 -273.36157227 500.84887695 C-275.03825816 501.17920927 -276.71489291 501.50980125 -278.39147949 501.84063721 C-281.88334232 502.52778826 -285.37623194 503.2094022 -288.86987305 503.88745117 C-293.31344612 504.75067914 -297.75332827 505.63149627 -302.19251251 506.51697922 C-305.64671501 507.20326022 -309.1030687 507.87817691 -312.56010437 508.55002594 C-314.19687503 508.86985532 -315.83290301 509.19351343 -317.46809387 509.52132416 C-341.6518577 514.35499392 -341.6518577 514.35499392 -348.05407715 510.91497803 C-351.44792078 508.2839212 -353.77163684 505.43045778 -354.70532227 501.17700195 C-355.18297571 495.9228141 -354.59637032 492.60994231 -351.70532227 488.17700195 C-347.80394816 484.65154149 -344.01175915 482.05938473 -339.33032227 479.6105957 C-338.73281158 479.29520844 -338.1353009 478.97982117 -337.51968384 478.65487671 C-336.24492737 477.98299136 -334.96848477 477.31429663 -333.69049072 476.64859009 C-330.9842931 475.23891282 -328.28638321 473.8136935 -325.58779907 472.38951111 C-324.22427818 471.67015578 -322.86032558 470.95161814 -321.49594116 470.23390198 C-314.96125876 466.79491193 -308.45601747 463.30066837 -302.01342773 459.69160461 C-297.55538637 457.21367013 -293.10471897 454.86526551 -288.45043945 452.77636719 C-269.53652445 443.95303083 -256.46724581 430.23132877 -242.21447754 415.38317871 C-239.03450958 412.08165707 -235.82428756 408.80983446 -232.61547852 405.53637695 C-229.01805329 401.86582898 -225.42330616 398.19324767 -221.85440063 394.49493408 C-221.31879517 393.94127167 -220.7831897 393.38760925 -220.23135376 392.81716919 C-219.23249711 391.7838535 -218.23571521 390.74852669 -217.24139404 389.71084595 C-212.90193444 385.22792162 -212.90193444 385.22792162 -208.76782227 385.05200195 C-205.70532227 385.17700195 -205.70532227 385.17700195 -202.70532227 386.17700195 C-198.74532227 382.21700195 -194.78532227 378.25700195 -190.70532227 374.17700195 C-191.03532227 373.18700195 -191.36532227 372.19700195 -191.70532227 371.17700195 C-191.81683946 368.55352095 -191.87296928 365.95590122 -191.88232422 363.33178711 C-191.88889542 362.53293091 -191.89546661 361.73407471 -191.90223694 360.91101074 C-191.92196948 358.2626943 -191.93363799 355.61443482 -191.94360352 352.96606445 C-191.94767904 352.05830639 -191.95175457 351.15054832 -191.9559536 350.21528244 C-191.97682308 345.40223163 -191.99111594 340.58920932 -192.00048828 335.77612305 C-192.01150051 330.83254084 -192.04583732 325.88941526 -192.08565998 320.94599342 C-192.11197287 317.12294756 -192.12019349 313.30000754 -192.12376976 309.47687912 C-192.128605 307.65663984 -192.14013019 305.8364043 -192.15880775 304.01625443 C-192.26038058 293.45364341 -191.9610622 284.05495113 -187.70532227 274.17700195 C-187.19887932 272.96660248 -187.19887932 272.96660248 -186.6822052 271.73175049 C-182.31409567 263.16273126 -174.5569812 256.8038759 -167.67570496 250.27463913 C-165.25816145 247.97400707 -162.86031976 245.65451139 -160.46765137 243.32803345 C-153.67057131 236.71919159 -146.86644055 230.11920498 -139.98657227 223.59643555 C-135.76480994 219.59106566 -131.58883984 215.54258427 -127.43904114 211.46275711 C-125.85714842 209.92398723 -124.25904393 208.40169442 -122.64457703 206.89713669 C-113.30235295 198.90213684 -113.30235295 198.90213684 -109.14205933 187.95046997 C-109.42735207 183.84617448 -110.51578222 180.10453333 -111.70532227 176.17700195 C-112.05258306 174.2638647 -112.37621043 172.34615312 -112.66674805 170.42358398 C-112.991165 168.67666536 -113.31915373 166.93040643 -113.65063477 165.18481445 C-114.00938858 163.22269924 -114.36744007 161.26045551 -114.72485352 159.2980957 C-115.27509169 156.30039814 -115.82997125 153.30385498 -116.3972168 150.30932617 C-123.32203579 113.59154137 -123.32203579 113.59154137 -114.45890999 100.30910683 C-110.45692548 94.8973803 -105.97588967 90.13903348 -101.22827148 85.37768555 C-100.3981102 84.53759445 -99.56794891 83.69750336 -98.71263123 82.83195496 C-95.98395333 80.07423668 -93.24769853 77.32421085 -90.51000977 74.57543945 C-89.56105274 73.62100173 -88.61221245 72.66644794 -87.66348648 71.71178055 C-83.2054162 67.22643489 -78.74341226 62.74505887 -74.27556312 58.26945341 C-69.14715992 53.13209335 -64.03209804 47.98192515 -58.92826641 42.8201555 C-54.96161824 38.81007452 -50.98332062 34.81179198 -46.99622929 30.82203734 C-44.62433981 28.44806679 -42.25908854 26.06835931 -39.90273666 23.67890549 C-37.26881452 21.01063202 -34.61633485 18.36219832 -31.95874023 15.7175293 C-30.81732323 14.54846794 -30.81732323 14.54846794 -29.65284729 13.35578918 C-21.26197116 5.09123505 -11.82151613 0.09685828 0 0 Z " fill="#B77E7E" transform="translate(358.705322265625,-0.177001953125)"/>
<path d="M0 0 C2.94942113 2.20662559 5.48359316 4.78316957 8.06640625 7.40234375 C8.82291977 8.15407364 9.57943329 8.90580353 10.35887146 9.68031311 C11.95593367 11.27397602 13.5467116 12.87395803 15.1315918 14.47973633 C17.54024053 16.91499462 19.97416226 19.32263053 22.41210938 21.72851562 C23.9651459 23.28485915 25.51662911 24.84275456 27.06640625 26.40234375 C28.14783653 27.4685923 28.14783653 27.4685923 29.25111389 28.55638123 C38.37660135 37.8930709 42.24847504 48.16905556 42.16723633 61.05371094 C41.83273738 68.94690956 40.91193113 76.78924734 40.02856445 84.63696289 C39.68725097 87.68972734 39.36361692 90.74403637 39.04101562 93.79882812 C38.82398426 95.76574309 38.60592063 97.73254449 38.38671875 99.69921875 C38.29283371 100.5994426 38.19894867 101.49966644 38.10221863 102.4271698 C37.0435839 111.55875496 35.15767267 119.75123815 28 126 C21.82563747 130.36852747 14.83163959 131.7511069 7.38671875 130.59375 C0.66198667 128.87940252 -4.39337837 125.90993244 -8.28125 120.078125 C-11.68712013 113.8015929 -12.36927828 108.02555094 -11.11758423 100.95275879 C-8.61132481 86.29083182 -8.4644374 71.43380552 -16.83105469 58.625 C-21.32467749 52.43959606 -26.34447611 46.86203216 -31.67176819 41.38880157 C-33.10397778 39.89689841 -34.49303347 38.37387518 -35.87683105 36.83709717 C-46.59273242 25.09929665 -58.24897697 17.93245516 -74.19561005 16.65534973 C-89.68944366 15.98088598 -100.10994416 20.61146237 -111.56100464 30.89517212 C-118.92380374 37.8512736 -125.76601934 45.26596463 -132.53253174 52.79632568 C-136.47121797 57.13217484 -140.53022724 61.35234464 -144.578125 65.5859375 C-150.44454387 71.75221969 -156.26161287 77.95847233 -161.98779297 84.25537109 C-162.88634758 85.24043892 -162.88634758 85.24043892 -163.80305481 86.2454071 C-168.11648437 91.01796519 -169.31057637 93.1627682 -169.23657227 99.68969727 C-168.76954288 106.22473494 -167.44306623 112.63417103 -166.22206116 119.06358337 C-165.70849488 121.77284984 -165.20754048 124.48418801 -164.70983887 127.19641113 C-163.29380415 134.90183541 -161.85743067 142.60339536 -160.40869141 150.30273438 C-159.51969092 155.03213177 -158.64670095 159.76427604 -157.7827301 164.49830627 C-157.453923 166.28202851 -157.11919719 168.06467207 -156.77793884 169.84605408 C-150.463762 202.82165868 -150.463762 202.82165868 -158 216 C-161.79268334 221.54502937 -165.98613745 226.14280909 -170.99926758 230.59155273 C-172.39185075 231.85164504 -173.78347489 233.11279781 -175.17427063 234.37486267 C-175.90293146 235.03364851 -176.63159229 235.69243435 -177.38233376 236.3711834 C-182.12264008 240.69284712 -186.77071388 245.11402542 -191.43042469 249.52220058 C-195.49771235 253.35986536 -199.59260474 257.15335204 -203.77416992 260.86645508 C-226.19000686 280.05611036 -226.19000686 280.05611036 -235.44652462 306.88596058 C-235.67635613 313.8568538 -235.17626912 320.76452452 -234.44017887 327.6934309 C-233.84589268 333.67852686 -234.44872607 338.48081639 -237 344 C-237.30350876 344.71096329 -237.60701752 345.42192657 -237.91972351 346.1544342 C-245.1386765 360.99337613 -261.03341258 373.22873013 -272.5 384.73828125 C-273.42498291 385.66733969 -274.34996582 386.59639812 -275.30297852 387.55360985 C-279.68884717 391.95841872 -284.07704922 396.3608863 -288.46819305 400.76043636 C-293.49729934 405.7993381 -298.51798072 410.84644629 -303.53180695 415.90055114 C-307.43929652 419.83832941 -311.35455404 423.76827736 -315.2755661 427.69259042 C-317.6041244 430.0234801 -319.92833122 432.35843335 -322.24633789 434.69982338 C-324.83190421 437.30986993 -327.42996054 439.90685667 -330.03125 442.5012207 C-330.77858398 443.26136475 -331.52591797 444.02150879 -332.29589844 444.8046875 C-346.17060487 458.54610969 -362.16590222 462.07155645 -380.65625 465.671875 C-382.33293589 466.00220731 -384.00957064 466.33279929 -385.68615723 466.66363525 C-389.17802005 467.35078631 -392.67090967 468.03240025 -396.16455078 468.71044922 C-400.60812385 469.57367718 -405.048006 470.45449431 -409.48719025 471.33997726 C-412.94139274 472.02625827 -416.39774644 472.70117495 -419.8547821 473.37302399 C-421.49155276 473.69285337 -423.12758075 474.01651148 -424.76277161 474.3443222 C-448.94653544 479.17799196 -448.94653544 479.17799196 -455.34875488 475.73797607 C-458.74259851 473.10691925 -461.06631457 470.25345583 -462 466 C-462.47765344 460.74581215 -461.89104806 457.43294036 -459 453 C-455.09862589 449.47453954 -451.30643688 446.88238277 -446.625 444.43359375 C-446.02748932 444.11820648 -445.42997864 443.80281921 -444.81436157 443.47787476 C-443.5396051 442.8059894 -442.26316251 442.13729468 -440.98516846 441.47158813 C-438.27897083 440.06191086 -435.58106095 438.63669155 -432.88247681 437.21250916 C-431.51895591 436.49315383 -430.15500331 435.77461618 -428.7906189 435.05690002 C-422.25593649 431.61790998 -415.7506952 428.12366641 -409.30810547 424.51460266 C-404.85006411 422.03666818 -400.3993967 419.68826355 -395.74511719 417.59936523 C-376.83120218 408.77602887 -363.76192354 395.05432682 -349.50915527 380.20617676 C-346.32918732 376.90465512 -343.11896529 373.6328325 -339.91015625 370.359375 C-336.31273102 366.68882702 -332.7179839 363.01624571 -329.14907837 359.31793213 C-328.6134729 358.76426971 -328.07786743 358.2106073 -327.52603149 357.64016724 C-326.52717485 356.60685155 -325.53039294 355.57152474 -324.53607178 354.53384399 C-321.70755135 351.61181126 -320.24058079 350.13484574 -316.125 349.6875 C-313 350 -313 350 -310.6875 351.625 C-308.48343996 354.72701043 -307.77813479 356.15433643 -308 360 C-309.1463623 361.64715576 -309.1463623 361.64715576 -310.79492188 363.45605469 C-311.43719727 364.16193726 -312.07947266 364.86781982 -312.74121094 365.59509277 C-320.09325473 373.42273084 -327.57829782 381.11592076 -335.11426544 388.76633072 C-338.0943101 391.79224825 -341.06287038 394.82765993 -344.00537109 397.89013672 C-357.62922515 412.05496965 -370.06987685 423.93995436 -388.41560364 431.83273315 C-393.02201427 433.9132617 -397.40177917 436.41317254 -401.8125 438.875 C-403.60221315 439.85795786 -405.39250469 440.83986399 -407.18359375 441.8203125 C-408.10640137 442.32594727 -409.02920898 442.83158203 -409.97998047 443.35253906 C-415.76554976 446.50864428 -421.57078459 449.62836337 -427.375 452.75 C-429.10713745 453.68175049 -429.10713745 453.68175049 -430.87426758 454.63232422 C-433.58258489 456.08870101 -436.29114173 457.5446297 -439 459 C-439 459.33 -439 459.66 -439 460 C-429.6746428 458.19905318 -420.35135592 456.38782583 -411.03018188 454.56535339 C-405.61801075 453.5080025 -400.20391102 452.46122826 -394.78839111 451.4211731 C-391.18883239 450.72772621 -387.59096026 450.02579694 -383.9934082 449.32202148 C-382.26247606 448.98519581 -380.53087231 448.65180138 -378.79858398 448.32202148 C-352.79837454 443.36588116 -340.48758021 429.65081762 -322.1015625 411.3046875 C-321.21538616 410.42133854 -320.32920982 409.53798958 -319.41617966 408.62787247 C-315.21625448 404.44131302 -311.01804755 400.25304444 -306.82285178 396.06174648 C-302.01611104 391.25950033 -297.20286397 386.46390175 -292.38396323 381.67385852 C-288.17640884 377.49061351 -283.97720761 373.29905021 -279.78092575 369.104496 C-278.00769118 367.33427582 -276.23197044 365.56654224 -274.45366287 363.8014183 C-271.96795591 361.3328489 -269.49197731 358.85489515 -267.01806641 356.37451172 C-266.29173004 355.65739014 -265.56539368 354.94026855 -264.81704712 354.20141602 C-253.43456278 342.72582859 -249.61824198 332.84824512 -249.63589478 316.8614502 C-249.64309477 315.60474266 -249.64309477 315.60474266 -249.65044022 314.32264709 C-249.66430278 311.67281958 -249.65766899 309.02373058 -249.64559937 306.37390137 C-249.61480763 298.84638391 -249.6195002 291.31904506 -249.63964844 283.79150391 C-249.65060522 279.17085419 -249.63729762 274.55076326 -249.60975266 269.93019104 C-249.60433899 268.17924849 -249.60830682 266.4282491 -249.62215042 264.67735291 C-249.72786904 251.15455434 -247.83873678 243.50005498 -238.25111389 233.64402771 C-237.53016037 232.924897 -236.80920685 232.2057663 -236.06640625 231.46484375 C-235.31084946 230.70071671 -234.55529266 229.93658966 -233.77684021 229.14930725 C-232.18923361 227.55028853 -230.59646012 225.95638462 -228.9987793 224.36743164 C-226.55520969 221.93022868 -224.13961788 219.4674223 -221.72460938 217.00195312 C-220.17349651 215.4462982 -218.62081574 213.89220469 -217.06640625 212.33984375 C-216.34747696 211.60249496 -215.62854767 210.86514618 -214.88783264 210.10545349 C-209.83020589 205.13992234 -209.83020589 205.13992234 -205.67553711 204.43969727 C-202.11138188 205.18609167 -200.42759611 206.28680435 -198 209 C-197.25 211.75 -197.25 211.75 -198 215 C-203.72486606 223.09791941 -211.84267296 229.91995128 -218.875 236.875 C-221.33359071 239.30703186 -223.78886303 241.74234477 -226.2421875 244.1796875 C-226.80565887 244.73486053 -227.36913025 245.29003357 -227.94967651 245.86203003 C-231.68826932 249.26824536 -231.68826932 249.26824536 -233.11352539 253.87939453 C-233.10828857 254.62302246 -233.10305176 255.36665039 -233.09765625 256.1328125 C-233.09443359 256.93847656 -233.09121094 257.74414062 -233.08789062 258.57421875 C-233.07951172 259.41597656 -233.07113281 260.25773437 -233.0625 261.125 C-233.05573242 262.39923828 -233.05573242 262.39923828 -233.04882812 263.69921875 C-233.03702874 265.79950909 -233.01909306 267.8997633 -233 270 C-225.3615893 262.47772339 -217.73694725 254.94178493 -210.12931442 247.38837528 C-206.59589537 243.88098795 -203.05800414 240.37837837 -199.50927734 236.88647461 C-196.08117668 233.51292128 -192.66563405 230.12710286 -189.25824738 226.73263359 C-187.95974587 225.44333112 -186.65686982 224.15841822 -185.34947968 222.87812996 C-174.60574094 212.62027335 -174.60574094 212.62027335 -169.52148438 198.98388672 C-169.73221135 191.17132651 -170.93522628 183.77379593 -172.5 176.125 C-173.05357897 173.32421331 -173.59741665 170.52156438 -174.140625 167.71875 C-174.28683289 166.96872711 -174.43304077 166.21870422 -174.5836792 165.44595337 C-176.8252375 153.85958294 -178.77316226 142.21909682 -180.77172852 130.58892822 C-181.10893721 128.62744397 -181.44659369 126.66603664 -181.784729 124.70471191 C-182.09347874 122.91303082 -182.40099929 121.12113723 -182.70697021 119.32897949 C-183.58228637 114.24531149 -184.5455242 109.18727894 -185.5872345 104.13497925 C-187.31310189 95.20814055 -185.95854225 88.56301556 -181 81 C-173.70219801 72.03706429 -165.17634345 64.02994849 -157.0078125 55.875 C-155.57040069 54.43691327 -154.13313724 52.99867824 -152.6960144 51.56030273 C-149.70391056 48.56673407 -146.7100292 45.57495796 -143.71484375 42.58447266 C-139.87473714 38.75009893 -136.03918664 34.9112038 -132.20492744 31.07098389 C-129.24711395 28.10956265 -126.28693019 25.15051997 -123.32601547 22.19219971 C-121.90987623 20.77672727 -120.4944787 19.36051238 -119.0798378 17.94354248 C-117.11048232 15.97165309 -115.13795999 14.00298764 -113.16455078 12.03515625 C-112.58167801 11.45025925 -111.99880524 10.86536224 -111.39826965 10.26274109 C-107.32547014 6.21128689 -104.84428625 3.77073791 -99.01293945 3.66186523 C-97.49039299 3.62820107 -97.49039299 3.62820107 -95.93708801 3.59385681 C-94.29180367 3.5764016 -94.29180367 3.5764016 -92.61328125 3.55859375 C-91.48230515 3.54482193 -90.35132904 3.53105011 -89.18608093 3.51686096 C-86.78954979 3.49356922 -84.39295359 3.4763139 -81.99633789 3.46459961 C-78.34334695 3.43772692 -74.69327447 3.36284348 -71.04101562 3.28710938 C-68.71095696 3.27044728 -66.38087543 3.2566825 -64.05078125 3.24609375 C-62.42067863 3.20131142 -62.42067863 3.20131142 -60.75764465 3.15562439 C-55.51749042 3.18575331 -51.97750068 3.4335083 -47.94970703 6.95800781 C-46.62940267 8.30167832 -45.31312739 9.6493148 -44 11 C-42.24850702 12.48665326 -40.48104837 13.9546203 -38.70141602 15.4074707 C-32.16734602 20.87575923 -25.80577338 26.51440156 -19.5625 32.3125 C-18.7250783 33.08975182 -18.7250783 33.08975182 -17.87073898 33.88270569 C-4.47037442 46.43257414 6.25938843 57.44081023 7.58326721 76.62275696 C7.82944446 86.78174387 6.92443303 96.94163303 5.16477966 106.94378662 C4.97920618 109.25947697 5.13148059 110.84171964 6 113 C9.59264452 114.19754817 12.22717474 114.33094958 16 114 C18.62886689 112.32004271 19.78436552 110.83748147 20.56518555 107.80493164 C21.0101512 104.99913933 21.33594662 102.20112144 21.625 99.375 C21.74270752 98.34753662 21.86041504 97.32007324 21.98168945 96.26147461 C22.21998891 94.16681098 22.45122073 92.07133094 22.67529297 89.97509766 C22.96438782 87.32629328 23.28633341 84.68528571 23.62890625 82.04296875 C26.76376382 62.31263882 26.76376382 62.31263882 20.71362305 44.24169922 C16.98781331 39.80745678 12.81001707 35.81233477 8.6640625 31.77734375 C8.0955658 31.22350006 7.52706909 30.66965637 6.94134521 30.09902954 C3.38200969 26.63591859 3.38200969 26.63591859 -0.20068359 23.19702148 C-1.9681182 21.50845192 -3.71563439 19.80124054 -5.4609375 18.08984375 C-6.0025351 17.58235092 -6.54413269 17.07485809 -7.10214233 16.55198669 C-10.7805936 12.90073113 -11.88153791 10.16380083 -12 5 C-10.75 2.125 -10.75 2.125 -9 0 C-5.24635012 -1.25121663 -3.79983263 -1.17449372 0 0 Z " fill="#010000" transform="translate(466,35)"/>
<path d="M0 0 C0.66566483 -0.0065712 1.33132965 -0.0131424 2.01716614 -0.01991272 C4.21514009 -0.0395821 6.4130457 -0.05129773 8.61108398 -0.0612793 C9.3659654 -0.06535482 10.12084682 -0.06943035 10.89860344 -0.07362938 C14.89887083 -0.09446901 18.89910419 -0.10877646 22.89941406 -0.11816406 C27.00581661 -0.12918837 31.1116713 -0.16354751 35.2178812 -0.20333576 C38.39661068 -0.22964857 41.5752129 -0.23786907 44.75404167 -0.24144554 C46.26612968 -0.24627844 47.77821329 -0.25779685 49.29019356 -0.27648354 C63.93126451 -0.44610099 74.18104804 2.45915907 84.85717773 12.61450195 C86.29467773 15.17700195 86.29467773 15.17700195 86.35717773 18.80200195 C85.29467773 22.17700195 85.29467773 22.17700195 83.16967773 24.17700195 C79.27670598 25.53107908 77.27050005 25.32257787 73.29467773 24.17700195 C71.20107229 22.78126499 69.29145524 21.29050818 67.38452148 19.6496582 C62.94393081 16.52049431 58.31241758 15.92325939 52.98901367 15.87060547 C51.7604364 15.85461807 50.53185913 15.83863068 49.26605225 15.82215881 C47.95034241 15.81679611 46.63463257 15.81143341 45.27905273 15.8059082 C43.89910798 15.79692701 42.51916413 15.78780493 41.13922119 15.77854919 C38.25107468 15.76210222 35.36304347 15.75436727 32.47485352 15.75146484 C28.79864986 15.7460928 25.12355114 15.7084453 21.44765854 15.66272068 C18.59749535 15.63277202 15.74759222 15.62573744 12.89728546 15.62473869 C10.89111073 15.61856081 8.88504983 15.58918317 6.87908936 15.55921936 C5.01731049 15.56833595 5.01731049 15.56833595 3.11791992 15.57763672 C1.49959259 15.57003075 1.49959259 15.57003075 -0.15142822 15.56227112 C-9.64421189 17.20427472 -16.0988951 22.83860888 -22.67163086 29.51220703 C-23.50547302 30.33889389 -24.33931519 31.16558075 -25.19842529 32.01731873 C-27.92939274 34.73148758 -30.64191249 37.46327075 -33.35375977 40.1965332 C-35.25604288 42.10035134 -37.16147329 44.00101007 -39.06655884 45.90202332 C-43.04760634 49.87856611 -47.0184055 53.86512095 -50.9831543 57.85791016 C-55.55383505 62.46066849 -60.14037183 67.04714566 -64.7357229 71.62526399 C-69.17563587 76.04926576 -73.6041125 80.48454941 -78.02754593 84.92502403 C-79.90180485 86.80611906 -81.78038046 88.68257106 -83.66120529 90.55713844 C-86.28917962 93.17964653 -88.90384441 95.81474888 -91.51538086 98.45361328 C-92.28945282 99.22115936 -93.06352478 99.98870544 -93.86105347 100.7795105 C-98.76163515 105.76734607 -102.86211862 110.64993185 -104.1716156 117.68048096 C-103.90681042 124.70565014 -102.81936935 131.50163955 -101.55297852 138.41137695 C-101.33338974 139.648172 -101.11380096 140.88496704 -100.88755798 142.15924072 C-100.30716738 145.41962146 -99.71946648 148.67856643 -99.12799072 151.93695068 C-98.52856858 155.24895862 -97.93854835 158.56263881 -97.34790039 161.8762207 C-96.30768157 167.70509461 -95.25988467 173.53254946 -94.20521545 179.35882568 C-91.38718841 195.24561334 -91.38718841 195.24561334 -94.03757286 199.12907505 C-94.61785051 199.75385715 -95.19812817 200.37863924 -95.79598999 201.02235413 C-96.4340797 201.71456118 -97.07216942 202.40676823 -97.72959518 203.11995125 C-100.70014837 206.21277646 -103.69770719 209.26876903 -106.75463867 212.27636719 C-107.42062576 212.93607513 -108.08661285 213.59578308 -108.77278137 214.27548218 C-110.20451389 215.69347234 -111.63732484 217.11037432 -113.07112503 218.52627373 C-115.34492346 220.77318459 -117.61410907 223.02465758 -119.88192749 225.27760315 C-126.32500403 231.6781699 -132.77074079 238.07597573 -139.23266602 244.45751953 C-143.19813693 248.37432296 -147.15365036 252.30094822 -151.10294724 256.23405647 C-152.60231559 257.72356881 -154.10532193 259.20942887 -155.61211014 260.69143486 C-157.72242253 262.76778646 -159.81978601 264.85646579 -161.91479492 266.94824219 C-162.53102219 267.5485173 -163.14724945 268.14879242 -163.78215027 268.76725769 C-171.59930535 276.63929751 -174.85488685 284.16487457 -174.84716797 295.17089844 C-174.8506424 295.97299744 -174.85411682 296.77509644 -174.85769653 297.60150146 C-174.86503859 299.34044644 -174.87039222 301.0794007 -174.8739872 302.81835747 C-174.88116461 305.57153262 -174.89683968 308.3245308 -174.91532898 311.07765198 C-174.96774631 318.90444554 -175.01579251 326.73114003 -175.03125 334.55810547 C-175.04132936 339.34803338 -175.07064864 344.1375126 -175.11256981 348.92726326 C-175.12488133 350.75125804 -175.13000079 352.57531616 -175.12777138 354.39935112 C-175.12541921 356.95129218 -175.14757583 359.5019441 -175.17529297 362.05371094 C-175.16869156 362.80556168 -175.16209015 363.55741241 -175.1552887 364.33204651 C-175.21979137 367.95081348 -175.61319696 370.03030115 -177.55485535 373.12220764 C-180.31374281 375.75835434 -181.90781886 376.17700195 -185.70532227 376.17700195 C-190.27053966 374.04656717 -190.27053966 374.04656717 -191.70532227 371.17700195 C-191.8191884 368.5913021 -191.87314676 366.03191274 -191.88232422 363.4453125 C-191.88889542 362.64660233 -191.89546661 361.84789215 -191.90223694 361.02497864 C-191.92200478 358.37122503 -191.93364692 355.71752842 -191.94360352 353.0637207 C-191.94767904 352.15504557 -191.95175457 351.24637043 -191.9559536 350.31015968 C-191.97683989 345.49062959 -191.99112442 340.6711281 -192.00048828 335.8515625 C-192.01149309 330.90010448 -192.04581621 325.9491033 -192.08565998 320.9978056 C-192.11197545 317.17046853 -192.1201938 313.34323719 -192.12376976 309.51581764 C-192.12860578 307.69278733 -192.14013331 305.86976077 -192.15880775 304.04681969 C-192.26028216 293.47476831 -191.96652601 284.06328052 -187.70532227 274.17700195 C-187.36769363 273.37011429 -187.030065 272.56322662 -186.6822052 271.73188782 C-182.31429622 263.16276276 -174.55696933 256.80386465 -167.67570496 250.27463913 C-165.25816145 247.97400707 -162.86031976 245.65451139 -160.46765137 243.32803345 C-153.67057131 236.71919159 -146.86644055 230.11920498 -139.98657227 223.59643555 C-135.76480994 219.59106566 -131.58883984 215.54258427 -127.43904114 211.46275711 C-125.85714842 209.92398723 -124.25904393 208.40169442 -122.64457703 206.89713669 C-113.30235295 198.90213684 -113.30235295 198.90213684 -109.14205933 187.95046997 C-109.42735207 183.84617448 -110.51578222 180.10453333 -111.70532227 176.17700195 C-112.05258306 174.2638647 -112.37621043 172.34615312 -112.66674805 170.42358398 C-112.991165 168.67666536 -113.31915373 166.93040643 -113.65063477 165.18481445 C-114.00938858 163.22269924 -114.36744007 161.26045551 -114.72485352 159.2980957 C-115.27509169 156.30039814 -115.82997125 153.30385498 -116.3972168 150.30932617 C-123.32203579 113.59154137 -123.32203579 113.59154137 -114.45890999 100.30910683 C-110.45692548 94.8973803 -105.97588967 90.13903348 -101.22827148 85.37768555 C-99.98302956 84.1175489 -99.98302956 84.1175489 -98.71263123 82.83195496 C-95.98395333 80.07423668 -93.24769853 77.32421085 -90.51000977 74.57543945 C-89.56105274 73.62100173 -88.61221245 72.66644794 -87.66348648 71.71178055 C-83.2054162 67.22643489 -78.74341226 62.74505887 -74.27556312 58.26945341 C-69.14715992 53.13209335 -64.03209804 47.98192515 -58.92826641 42.8201555 C-54.96161824 38.81007452 -50.98332062 34.81179198 -46.99622929 30.82203734 C-44.62433981 28.44806679 -42.25908854 26.06835931 -39.90273666 23.67890549 C-37.26881452 21.01063202 -34.61633485 18.36219832 -31.95874023 15.7175293 C-30.81732323 14.54846794 -30.81732323 14.54846794 -29.65284729 13.35578918 C-21.26197116 5.09123505 -11.82151613 0.09685828 0 0 Z " fill="#010101" transform="translate(358.705322265625,-0.177001953125)"/>
<path d="M0 0 C1.19238281 0.30873047 2.38476562 0.61746094 3.61328125 0.93554688 C13.23225923 3.48806897 20.72739181 5.99042707 26.25 14.6875 C28.16048786 19.33675911 29.442839 24.07313624 30.6875 28.9375 C31.03748047 30.18402344 31.38746094 31.43054688 31.74804688 32.71484375 C36.57174266 50.78246357 36.57174266 50.78246357 33.38569641 57.51347351 C30.08465969 63.17328094 25.72513564 67.648632 21.09765625 72.23828125 C20.31990341 73.01890427 19.54215057 73.79952728 18.74082947 74.60380554 C17.1047478 76.24191787 15.46491489 77.87629136 13.8215332 79.50708008 C11.31301483 81.99948848 8.82096128 84.50755887 6.33007812 87.01757812 C4.73273219 88.6129423 3.13445625 90.20737597 1.53515625 91.80078125 C0.79435318 92.54765701 0.05355011 93.29453278 -0.70970154 94.06404114 C-6.24436018 99.52437187 -10.69891022 103.12231751 -18.79296875 103.07421875 C-25.86356521 102.90054089 -32.28511011 101.42670943 -39.0625 99.5 C-40.17689453 99.20802734 -41.29128906 98.91605469 -42.43945312 98.61523438 C-50.38227904 96.42848834 -57.632636 94.17157702 -62.51171875 87.16796875 C-65.51991918 81.78799068 -67.00929794 75.92822598 -68.5625 70 C-68.87380859 68.90494141 -69.18511719 67.80988281 -69.50585938 66.68164062 C-74.23070699 49.03874812 -74.23070699 49.03874812 -70.8861084 41.82395935 C-67.59772145 36.19338776 -63.22811179 31.71378049 -58.6328125 27.13671875 C-57.85743134 26.35609573 -57.08205017 25.57547272 -56.28317261 24.77119446 C-54.65137342 23.13300559 -53.01573458 21.49863329 -51.37646484 19.86791992 C-48.87715583 17.37714847 -46.39712393 14.86823524 -43.91796875 12.35742188 C-42.32404816 10.76188968 -40.7290326 9.16745044 -39.1328125 7.57421875 C-38.39717072 6.82734299 -37.66152893 6.08046722 -36.90359497 5.31095886 C-25.35870224 -6.08011316 -14.7878881 -4.02496188 0 0 Z " fill="#010101" transform="translate(397.75,83.3125)"/>
<path d="M0 0 C1.45019531 0.04060547 1.45019531 0.04060547 2.9296875 0.08203125 C3.65414062 0.11683594 4.37859375 0.15164062 5.125 0.1875 C1.3127141 4.75079302 -2.63315907 9.07622783 -6.87695312 13.23950195 C-7.44365219 13.79992188 -8.01035126 14.3603418 -8.59422302 14.93774414 C-9.81261642 16.14239638 -11.03208784 17.34595913 -12.25254822 18.54851723 C-14.19050464 20.45956017 -16.12382314 22.37518126 -18.05578613 24.2922821 C-23.54482313 29.738844 -29.03644746 35.18270075 -34.54443359 40.61010742 C-37.925274 43.94215127 -41.29603428 47.28411504 -44.66062927 50.63255882 C-45.93587324 51.89797465 -47.21474628 53.15974508 -48.49745178 54.41759682 C-61.07648163 66.02911098 -61.07648163 66.02911098 -67.04214478 81.45783997 C-67.09316837 88.62830328 -66.21612794 95.34908106 -64.8984375 102.38671875 C-64.58942505 104.09958824 -64.58942505 104.09958824 -64.27416992 105.84706116 C-63.60835831 109.5247255 -62.92913204 113.19977467 -62.25 116.875 C-61.79028802 119.40706507 -61.33146994 121.9392926 -60.87353516 124.47167969 C-58.93071258 135.18086528 -56.95298873 145.882581 -54.875 156.56640625 C-54.73156158 157.30892136 -54.58812317 158.05143646 -54.44033813 158.81645203 C-53.8093858 162.07999617 -53.16769505 165.33981714 -52.50146484 168.59643555 C-50.19019043 180.36222976 -48.98065892 189.84264646 -55.875 200.1875 C-59.97275572 205.13922057 -64.65302181 209.57368008 -69.234375 214.0703125 C-70.54864977 215.37778818 -71.86188625 216.6863083 -73.1741333 217.99581909 C-75.91024381 220.72130805 -78.65411668 223.43861925 -81.40478516 226.14941406 C-84.93832044 229.63173127 -88.45855959 233.12710803 -91.97399521 236.62768745 C-95.32771496 239.96666892 -98.68665198 243.30037724 -102.046875 246.6328125 C-102.6899334 247.27096012 -103.33299179 247.90910774 -103.9955368 248.56659317 C-105.80246962 250.35734035 -107.61294222 252.1444182 -109.42480469 253.93017578 C-109.96504776 254.46615891 -110.50529083 255.00214203 -111.06190491 255.55436707 C-114.75986709 259.1875 -114.75986709 259.1875 -115.875 259.1875 C-117.16333686 247.50733872 -117.16333686 247.50733872 -114.36346436 242.46575928 C-112.15246961 239.95077318 -109.83287935 237.72348911 -107.3359375 235.4921875 C-106.46232574 234.65261505 -105.58871399 233.8130426 -104.68862915 232.94802856 C-101.90711838 230.28389498 -99.08313696 227.67157432 -96.25 225.0625 C-93.44565467 222.43992227 -90.65244162 219.80727969 -87.87564087 217.1555481 C-86.15238944 215.51400195 -84.4125395 213.88963119 -82.65341187 212.28659058 C-75.16085329 205.22128932 -69.78057573 197.89490118 -69.30598259 187.27973366 C-69.25645261 177.79262098 -70.86950224 168.51884614 -72.65293884 159.23097992 C-73.17116193 156.53170301 -73.67019266 153.82942571 -74.16516113 151.12579346 C-75.21829632 145.39316929 -76.29593338 139.66528925 -77.375 133.9375 C-78.62683907 127.27472459 -79.86818649 120.61017041 -81.0922699 113.94223785 C-81.58097893 111.3033355 -82.08394339 108.66743749 -82.5880127 106.03143311 C-87.13176867 81.81048093 -87.13176867 81.81048093 -81.38301659 73.2031765 C-78.90402172 69.88965081 -76.09722474 66.99222978 -73.16040039 64.0847168 C-72.50606522 63.42512466 -71.85173004 62.76553253 -71.17756653 62.08595276 C-69.03336406 59.92864945 -66.87849824 57.78238566 -64.72265625 55.63671875 C-63.21916101 54.13120042 -61.71611115 52.62523718 -60.21348572 51.11885071 C-57.07206104 47.97301651 -53.92530827 44.83263875 -50.7746582 41.69604492 C-46.74171556 37.68022254 -42.72243118 33.65104143 -38.70702457 29.6176939 C-35.60947606 26.5092958 -32.50480664 23.40808944 -29.39794731 20.30900002 C-27.91301857 18.82606849 -26.43030398 17.34091632 -24.94987679 15.85349083 C-22.88009813 13.77607544 -20.80091399 11.70854883 -18.71899414 9.64331055 C-18.1125708 9.03081451 -17.50614746 8.41831848 -16.88134766 7.78726196 C-11.82011998 2.80073153 -7.35921201 -0.26923946 0 0 Z " fill="#AC6B6B" transform="translate(347.875,46.8125)"/>
<path d="M0 0 C0.33 0 0.66 0 1 0 C1.06970223 9.88407107 1.12291362 19.76808305 1.15543652 29.65235043 C1.1710508 34.24268756 1.19221112 38.83285577 1.22631836 43.4230957 C1.25906365 47.85811065 1.27688484 52.29296372 1.28463173 56.72809029 C1.29014813 58.41486723 1.30091998 60.10163594 1.31719017 61.78834343 C1.50235313 81.79075093 -5.24674015 92.04735749 -18.98727417 106.10144043 C-23.93948377 111.13385742 -28.91938803 116.13867819 -33.90234375 121.140625 C-34.80834383 122.05070061 -35.71434391 122.96077621 -36.64779854 123.89842987 C-40.94466405 128.21391893 -45.24353635 132.52738747 -49.54552549 136.83776879 C-54.47901453 141.78104824 -59.40408473 146.73252355 -64.32227701 151.6910212 C-68.61230545 156.01497637 -72.91338733 160.32778489 -77.2183857 164.63683319 C-79.03612072 166.45942204 -80.85049194 168.28537252 -82.66132927 170.11481476 C-85.19704394 172.67497651 -87.74520648 175.22210837 -90.29663086 177.76660156 C-91.03200073 178.51478149 -91.76737061 179.26296143 -92.52502441 180.03381348 C-100.28623137 187.71885056 -108.80157883 193.65839912 -120 194.125 C-120.66 194.08375 -121.32 194.0425 -122 194 C-117.31305102 188.35531299 -112.28777963 183.1864528 -107.06054688 178.04223633 C-105.24026406 176.2416137 -103.41999278 174.44097942 -101.59973145 172.64033508 C-100.63194837 171.68477047 -99.66409762 170.72927438 -98.69618225 169.77384377 C-95.68141922 166.79677066 -92.67339201 163.81295331 -89.66687012 160.82756042 C-89.15716879 160.32149649 -88.64746747 159.81543255 -88.12232065 159.29403335 C-87.08071071 158.25982807 -86.03911679 157.22560664 -84.99753857 156.19136941 C-78.00819839 149.25179661 -71.0146755 142.31659239 -64.00244141 135.40014648 C-59.25780691 130.72022322 -54.52413339 126.02950823 -49.80250788 121.32636851 C-47.31083305 118.84530213 -44.81411388 116.36986853 -42.30381775 113.90763283 C-39.49915096 111.15647639 -36.71865312 108.38162732 -33.93945312 105.60473633 C-33.11953384 104.80795975 -32.29961456 104.01118317 -31.45484924 103.19026184 C-22.84709504 94.50598898 -17.90264269 84.96114815 -17.7890625 72.7109375 C-17.76097375 71.02993852 -17.73230917 69.34894907 -17.703125 67.66796875 C-17.66204359 65.02848791 -17.62514242 62.38918129 -17.59863281 59.74951172 C-17.57077344 57.19461525 -17.52488591 54.64051853 -17.4765625 52.0859375 C-17.47330963 51.31059662 -17.47005676 50.53525574 -17.46670532 49.73641968 C-17.33514686 43.7771014 -16.6735733 36.87761533 -12.45368958 32.3356781 C-10.79450301 30.92740841 -9.08782567 29.59233327 -7.375 28.25 C-2.9740869 24.43118355 -0.6909079 21.3680657 0.07421875 15.49609375 C0.41464672 10.32263333 0.34398426 5.1714989 0 0 Z " fill="#A96969" transform="translate(216,288)"/>
<path d="M0 0 C8.16106951 -0.59353233 14.1626222 1.53924588 20.4375 6.8125 C22.08309088 8.19954451 22.08309088 8.19954451 24 9 C26.28589603 8.70140565 26.28589603 8.70140565 28.6875 8.0625 C31.43308044 7.60490326 33.19322926 7.53307421 35.63671875 8.94726562 C39.67683519 11.99353191 43.46226381 15.58602909 46 20 C46.30122239 22.86161274 45.92871533 24.80159899 45.21264648 27.56445312 C44.77086973 29.97854583 44.77086973 29.97854583 45.98608398 31.75024414 C46.52563721 32.31864014 47.06519043 32.88703613 47.62109375 33.47265625 C48.26844482 34.16149902 48.9157959 34.8503418 49.58276367 35.56005859 C50.77929565 36.76782959 50.77929565 36.76782959 52 38 C52.4719278 38.4771344 52.94385559 38.9542688 53.43008423 39.44586182 C57.93285815 43.98602575 62.48613883 48.47500196 67.04980469 52.95385742 C68.7928414 54.66663639 70.52955489 56.38563285 72.265625 58.10546875 C72.79690002 58.62328415 73.32817505 59.14109955 73.87554932 59.67460632 C80.45470581 66.20910038 82.14167191 71.00238922 82.1796875 80.08984375 C82.16496236 88.52765524 81.38377091 96.82958315 80.40087891 105.20336914 C80.12168963 107.59080808 79.85880352 109.97966738 79.59765625 112.36914062 C79.42281972 113.9141697 79.2470723 115.45909603 79.0703125 117.00390625 C78.95455368 118.05560753 78.95455368 118.05560753 78.8364563 119.1285553 C77.50406137 130.27311472 77.50406137 130.27311472 74.3125 133.9375 C70.99430832 135.46207455 68.60586981 135.45073373 65 135 C62.63502561 133.13291495 61.33969285 131.67938569 60 129 C60.06028361 117.56118547 61.57716549 106.12904466 62.98339844 94.79516602 C65.27268775 76.44103837 65.27268775 76.44103837 58.15991211 60.02148438 C53.10165532 53.66070186 47.27445632 48.04612592 41.50390625 42.34375 C40.30270467 41.14883081 39.10202476 39.95338699 37.90184021 38.75744629 C34.76782816 35.63663224 31.62826416 32.52147094 28.48699951 29.40795898 C23.43406093 24.39844898 18.38814825 19.38188258 13.34525871 14.36225891 C11.58373362 12.61097662 9.81885267 10.86312867 8.05360413 9.11560059 C6.98427328 8.05309112 5.91504834 6.99047505 4.84594727 5.92773438 C4.3520047 5.44052917 3.85806213 4.95332397 3.34915161 4.45135498 C2.21367053 3.31974786 1.10373831 2.16258922 0 1 C0 0.67 0 0.34 0 0 Z " fill="#AC6B6B" transform="translate(410,15)"/>
<path d="M0 0 C2.95884072 3.09247297 3.38057498 5.29662777 3.40405273 9.51538086 C3.41673691 10.62010239 3.42942108 11.72482391 3.44248962 12.86302185 C3.43955399 14.05162308 3.43661835 15.2402243 3.43359375 16.46484375 C3.4388356 17.69030411 3.44407745 18.91576447 3.44947815 20.17835999 C3.45590145 22.76985924 3.45455742 25.36138763 3.44604492 27.95288086 C3.4375397 31.91898519 3.46628767 35.88364753 3.49804688 39.84960938 C3.49965906 42.36718707 3.49908103 44.88476731 3.49609375 47.40234375 C3.51294472 49.18220924 3.51294472 49.18220924 3.53013611 50.99803162 C3.46055736 59.21515882 3.46055736 59.21515882 1.09399414 63.24804688 C-1.16732481 65.13999334 -2.08831513 65.65917704 -5 65.5625 C-5.66 65.56378906 -6.32 65.56507813 -7 65.56640625 C-9.9055092 64.74355697 -11.09562979 63.31815177 -13 61 C-13.50793457 58.34399414 -13.50793457 58.34399414 -13.51757812 55.28515625 C-13.53018677 54.13716553 -13.54279541 52.9891748 -13.55578613 51.80639648 C-13.54768921 50.57091064 -13.53959229 49.3354248 -13.53125 48.0625 C-13.5350769 46.79027588 -13.53890381 45.51805176 -13.54284668 44.20727539 C-13.54556927 41.51686173 -13.54019814 38.82790129 -13.52148438 36.13769531 C-13.49869362 32.69405255 -13.51181969 29.25165673 -13.53577423 25.80805969 C-13.55372552 22.51782872 -13.5411472 19.22774725 -13.53125 15.9375 C-13.53934692 14.70201416 -13.54744385 13.46652832 -13.55578613 12.19360352 C-13.54317749 11.04561279 -13.53056885 9.89762207 -13.51757812 8.71484375 C-13.51439575 7.70542725 -13.51121338 6.69601074 -13.50793457 5.65600586 C-12.86150839 2.27582302 -11.66745813 1.11069895 -9 -1 C-5.15941827 -2.28019391 -3.6601592 -1.60131965 0 0 Z " fill="#000000" transform="translate(408,219)"/>
<path d="M0 0 C5.69568679 0.69178382 11.13917515 1.92648629 16.6875 3.375 C17.94916992 3.68824219 17.94916992 3.68824219 19.23632812 4.0078125 C20.04908203 4.21921875 20.86183594 4.430625 21.69921875 4.6484375 C22.79496216 4.92953369 22.79496216 4.92953369 23.9128418 5.21630859 C26.41646555 6.15637553 28.04513398 7.16642034 30 9 C31.00488281 11.28076172 31.00488281 11.28076172 31.703125 13.9296875 C31.9609375 14.89003906 32.21875 15.85039063 32.484375 16.83984375 C32.73703125 17.84144531 32.9896875 18.84304687 33.25 19.875 C33.518125 20.86886719 33.78625 21.86273438 34.0625 22.88671875 C35.24183301 27.38142159 36.15729852 31.32823402 36 36 C29.01400022 36.33586537 22.78967902 35.07207837 16 33.5 C14.93910156 33.26152344 13.87820313 33.02304688 12.78515625 32.77734375 C10.18828644 32.19246316 7.59344265 31.59986124 5 31 C4.15902586 26.77231562 3.32855975 22.54263344 2.5 18.3125 C2.26152344 17.11431641 2.02304687 15.91613281 1.77734375 14.68164062 C1.55175781 13.52470703 1.32617188 12.36777344 1.09375 11.17578125 C0.88427734 10.11270752 0.67480469 9.04963379 0.45898438 7.9543457 C0.03747195 5.24119577 -0.08856503 2.73887341 0 0 Z " fill="#D5ADE9" transform="translate(380,96)"/>
<path d="M0 0 C3.47669919 0.93028703 6.83917122 1.99348925 10.1875 3.3125 C10.1875 8.84392269 4.59451928 12.62562955 0.85522461 16.42041016 C-0.73652936 18.04872 -2.2901934 19.7082309 -3.84570312 21.37109375 C-11.14791545 28.94507043 -11.14791545 28.94507043 -15.30883789 29.86352539 C-17.66960117 29.6372614 -19.58753239 29.12114698 -21.8125 28.3125 C-23.12539688 27.98463493 -24.43917341 27.66026734 -25.75390625 27.33984375 C-26.94886719 26.98019531 -28.14382813 26.62054688 -29.375 26.25 C-30.59316406 25.88777344 -31.81132812 25.52554688 -33.06640625 25.15234375 C-33.97261719 24.87519531 -34.87882812 24.59804687 -35.8125 24.3125 C-29.60967689 10.44333425 -15.6591414 -3.64377355 0 0 Z " fill="#D3ACE8" transform="translate(393.8125,141.6875)"/>
<path d="M0 0 C3.14588064 3.14588064 3.31337931 7.10853368 4.1875 11.375 C4.37763672 12.23867187 4.56777344 13.10234375 4.76367188 13.9921875 C4.93833984 14.8275 5.11300781 15.6628125 5.29296875 16.5234375 C5.4530542 17.28575684 5.61313965 18.04807617 5.77807617 18.83349609 C6.03459929 21.33777125 5.96664615 22.66477467 5 25 C2.89868164 27.47363281 2.89868164 27.47363281 0.16015625 30.203125 C-0.32199844 30.6857782 -0.80415314 31.1684314 -1.30091858 31.66571045 C-2.31868554 32.68114221 -3.34013437 33.69289527 -4.36499023 34.70117188 C-5.93722139 36.24972559 -7.49562328 37.81125872 -9.05273438 39.375 C-16.72087692 47 -16.72087692 47 -19 47 C-19.87214608 43.94233206 -20.71945858 40.87830844 -21.5625 37.8125 C-21.80935547 36.94818359 -22.05621094 36.08386719 -22.31054688 35.19335938 C-22.53935547 34.35224609 -22.76816406 33.51113281 -23.00390625 32.64453125 C-23.21861572 31.87471924 -23.4333252 31.10490723 -23.65454102 30.31176758 C-24.08307248 27.44408953 -23.95228516 25.75572786 -23 23 C-21.34001282 21.00120275 -19.73392665 19.26606587 -17.87109375 17.48046875 C-17.36199966 16.97703445 -16.85290558 16.47360016 -16.3283844 15.95491028 C-14.70726789 14.35610535 -13.07277866 12.77180394 -11.4375 11.1875 C-10.33307117 10.10314287 -9.22954463 9.01786592 -8.12695312 7.93164062 C-5.42830552 5.27699088 -2.71758089 2.63525874 0 0 Z " fill="#D4ADE8" transform="translate(365,107)"/>
<path d="M0 0 C5.05912403 1.74019515 8.04011618 6.67891561 11.203125 10.7578125 C12.05132812 11.76585937 12.89953125 12.77390625 13.7734375 13.8125 C20.76367716 22.42429995 20.76367716 22.42429995 21.078125 27.2578125 C20.203125 30.7578125 20.203125 30.7578125 18.078125 33.2578125 C14.67026913 35.03582426 12.98766968 35.46741463 9.203125 34.7578125 C4.78319215 30.81035523 1.16253658 26.17581789 -2.546875 21.5703125 C-3.13597656 20.84650391 -3.72507812 20.12269531 -4.33203125 19.37695312 C-8.49105171 14.2379336 -10.39488929 11.69477831 -9.796875 4.7578125 C-7.44335515 0.93334274 -4.5271253 -0.25150696 0 0 Z " fill="#000000" transform="translate(446.796875,209.2421875)"/>
<path d="M0 0 C3.5 0.5 3.5 0.5 5.875 2.1875 C7.73688689 4.83710827 8.42278899 6.25713747 8.5 9.5 C6.13330028 15.29403153 2.27796509 19.94061804 -1.5625 24.8125 C-2.19994141 25.63556641 -2.83738281 26.45863281 -3.49414062 27.30664062 C-8.2364802 33.3682401 -8.2364802 33.3682401 -10.5 34.5 C-14.04250417 34.76240772 -16.63259827 34.9108745 -19.875 33.375 C-22.20227415 30.68968367 -22.5 29.05303091 -22.5 25.5 C-19.8608861 20.31513708 -16.62682564 15.84356147 -13 11.3125 C-12.29037109 10.40854492 -12.29037109 10.40854492 -11.56640625 9.48632812 C-4.56499917 0.65214274 -4.56499917 0.65214274 0 0 Z " fill="#000000" transform="translate(360.5,209.5)"/>
</svg>
